{
  "header": {
    "PPQ": 384,
    "timeSignature": [
      3,
      4
    ],
    "bpm": 180.00018000018,
    "name": "control track"
  },
  "tempo": [
    {
      "absoluteTime": 0,
      "seconds": 0,
      "bpm": 180.00018000018
    }
  ],
  "timeSignature": [
    {
      "absoluteTime": 0,
      "seconds": 0,
      "numerator": 3,
      "denominator": 2,
      "click": 18,
      "notesQ": 8
    }
  ],
  "startTime": 0,
  "duration": 694.332639000039,
  "tracks": [
    {
      "startTime": 0,
      "duration": 0,
      "length": 0,
      "notes": [],
      "controlChanges": {},
      "id": 0,
      "name": "control track"
    },
    {
      "startTime": 0,
      "duration": 694.3326390000074,
      "length": 1521,
      "notes": [
        {
          "name": "D#6",
          "midi": 87,
          "time": 0,
          "velocity": 1,
          "duration": 0.333333
        },
        {
          "name": "A#5",
          "midi": 82,
          "time": 0,
          "velocity": 1,
          "duration": 0.333333
        },
        {
          "name": "D#6",
          "midi": 87,
          "time": 0.999999,
          "velocity": 1,
          "duration": 0.333333
        },
        {
          "name": "A#5",
          "midi": 82,
          "time": 0.999999,
          "velocity": 1,
          "duration": 0.333333
        },
        {
          "name": "A#5",
          "midi": 82,
          "time": 12.666654,
          "velocity": 1,
          "duration": 0.6666659999999993
        },
        {
          "name": "C6",
          "midi": 84,
          "time": 13.333319999999999,
          "velocity": 1,
          "duration": 0.33333299999999966
        },
        {
          "name": "D6",
          "midi": 86,
          "time": 13.666652999999998,
          "velocity": 1,
          "duration": 0.33333299999999966
        },
        {
          "name": "D#6",
          "midi": 87,
          "time": 13.999985999999998,
          "velocity": 1,
          "duration": 0.6666659999999993
        },
        {
          "name": "G6",
          "midi": 91,
          "time": 14.666651999999997,
          "velocity": 1,
          "duration": 0.33333299999999966
        },
        {
          "name": "D#6",
          "midi": 87,
          "time": 14.999984999999997,
          "velocity": 1,
          "duration": 0.6666659999999993
        },
        {
          "name": "A#5",
          "midi": 82,
          "time": 15.666650999999996,
          "velocity": 1,
          "duration": 0.33333299999999966
        },
        {
          "name": "D#6",
          "midi": 87,
          "time": 15.999983999999996,
          "velocity": 1,
          "duration": 0.33333300000000143
        },
        {
          "name": "G5",
          "midi": 79,
          "time": 19.666646999999998,
          "velocity": 1,
          "duration": 0.33333299999999966
        },
        {
          "name": "G#5",
          "midi": 80,
          "time": 19.999979999999997,
          "velocity": 1,
          "duration": 0.33333299999999966
        },
        {
          "name": "C6",
          "midi": 84,
          "time": 20.333312999999997,
          "velocity": 1,
          "duration": 0.33333299999999966
        },
        {
          "name": "D#6",
          "midi": 87,
          "time": 20.666645999999997,
          "velocity": 1,
          "duration": 0.33333299999999966
        },
        {
          "name": "D#5",
          "midi": 75,
          "time": 20.666645999999997,
          "velocity": 1,
          "duration": 0.33333299999999966
        },
        {
          "name": "G#5",
          "midi": 80,
          "time": 20.999978999999996,
          "velocity": 1,
          "duration": 0.6666659999999993
        },
        {
          "name": "D#5",
          "midi": 75,
          "time": 21.333311999999996,
          "velocity": 1,
          "duration": 0.33333299999999966
        },
        {
          "name": "A5",
          "midi": 81,
          "time": 21.666644999999995,
          "velocity": 1,
          "duration": 0.33333299999999966
        },
        {
          "name": "D#5",
          "midi": 75,
          "time": 21.666644999999995,
          "velocity": 1,
          "duration": 0.33333299999999966
        },
        {
          "name": "A#5",
          "midi": 82,
          "time": 21.999977999999995,
          "velocity": 1,
          "duration": 1.6666649999999983
        },
        {
          "name": "D5",
          "midi": 74,
          "time": 21.999977999999995,
          "velocity": 1,
          "duration": 1.6666649999999983
        },
        {
          "name": "G#5",
          "midi": 80,
          "time": 23.666642999999993,
          "velocity": 1,
          "duration": 0.33333299999999966
        },
        {
          "name": "D6",
          "midi": 86,
          "time": 23.666642999999993,
          "velocity": 1,
          "duration": 0.33333299999999966
        },
        {
          "name": "D#6",
          "midi": 87,
          "time": 23.999975999999993,
          "velocity": 1,
          "duration": 0.33333299999999966
        },
        {
          "name": "G5",
          "midi": 79,
          "time": 23.999975999999993,
          "velocity": 1,
          "duration": 0.33333299999999966
        },
        {
          "name": "D#6",
          "midi": 87,
          "time": 24.333308999999993,
          "velocity": 1,
          "duration": 0.6666659999999993
        },
        {
          "name": "A5",
          "midi": 81,
          "time": 24.333308999999993,
          "velocity": 1,
          "duration": 0.6666659999999993
        },
        {
          "name": "D#6",
          "midi": 87,
          "time": 24.999974999999992,
          "velocity": 1,
          "duration": 0.6666659999999993
        },
        {
          "name": "A5",
          "midi": 81,
          "time": 24.999974999999992,
          "velocity": 1,
          "duration": 0.6666659999999993
        },
        {
          "name": "D#6",
          "midi": 87,
          "time": 25.66664099999999,
          "velocity": 1,
          "duration": 0.33333299999999966
        },
        {
          "name": "A5",
          "midi": 81,
          "time": 25.66664099999999,
          "velocity": 1,
          "duration": 0.33333299999999966
        },
        {
          "name": "D6",
          "midi": 86,
          "time": 25.99997399999999,
          "velocity": 1,
          "duration": 1.6666649999999983
        },
        {
          "name": "A#5",
          "midi": 82,
          "time": 25.99997399999999,
          "velocity": 1,
          "duration": 1.6666649999999983
        },
        {
          "name": "A#5",
          "midi": 82,
          "time": 27.66663899999999,
          "velocity": 1,
          "duration": 0.6666659999999993
        },
        {
          "name": "D6",
          "midi": 86,
          "time": 28.33330499999999,
          "velocity": 1,
          "duration": 0.6666659999999993
        },
        {
          "name": "A#5",
          "midi": 82,
          "time": 28.33330499999999,
          "velocity": 1,
          "duration": 0.6666659999999993
        },
        {
          "name": "D6",
          "midi": 86,
          "time": 28.999970999999988,
          "velocity": 1,
          "duration": 0.6666659999999993
        },
        {
          "name": "A#5",
          "midi": 82,
          "time": 28.999970999999988,
          "velocity": 1,
          "duration": 0.6666659999999993
        },
        {
          "name": "D6",
          "midi": 86,
          "time": 29.666636999999987,
          "velocity": 1,
          "duration": 0.6666659999999993
        },
        {
          "name": "A#5",
          "midi": 82,
          "time": 29.666636999999987,
          "velocity": 1,
          "duration": 0.6666659999999993
        },
        {
          "name": "D#6",
          "midi": 87,
          "time": 30.333302999999987,
          "velocity": 1,
          "duration": 0.6666659999999993
        },
        {
          "name": "A#5",
          "midi": 82,
          "time": 30.333302999999987,
          "velocity": 1,
          "duration": 0.6666659999999993
        },
        {
          "name": "D#6",
          "midi": 87,
          "time": 30.999968999999986,
          "velocity": 1,
          "duration": 0.6666659999999993
        },
        {
          "name": "A#5",
          "midi": 82,
          "time": 30.999968999999986,
          "velocity": 1,
          "duration": 0.6666659999999993
        },
        {
          "name": "A#5",
          "midi": 82,
          "time": 31.666634999999985,
          "velocity": 1,
          "duration": 0.6666659999999993
        },
        {
          "name": "D#6",
          "midi": 87,
          "time": 31.666634999999985,
          "velocity": 1,
          "duration": 0.6666659999999993
        },
        {
          "name": "D6",
          "midi": 86,
          "time": 32.333300999999985,
          "velocity": 1,
          "duration": 0.3333330000000032
        },
        {
          "name": "A#5",
          "midi": 82,
          "time": 32.333300999999985,
          "velocity": 1,
          "duration": 0.3333330000000032
        },
        {
          "name": "D6",
          "midi": 86,
          "time": 32.66663399999999,
          "velocity": 1,
          "duration": 0.6666659999999993
        },
        {
          "name": "A#5",
          "midi": 82,
          "time": 32.66663399999999,
          "velocity": 1,
          "duration": 0.6666659999999993
        },
        {
          "name": "D#6",
          "midi": 87,
          "time": 33.33329999999999,
          "velocity": 1,
          "duration": 0.3333330000000032
        },
        {
          "name": "A#5",
          "midi": 82,
          "time": 33.33329999999999,
          "velocity": 1,
          "duration": 0.3333330000000032
        },
        {
          "name": "D#6",
          "midi": 87,
          "time": 33.66663299999999,
          "velocity": 1,
          "duration": 0.3333330000000032
        },
        {
          "name": "A#5",
          "midi": 82,
          "time": 33.66663299999999,
          "velocity": 1,
          "duration": 0.3333330000000032
        },
        {
          "name": "D6",
          "midi": 86,
          "time": 33.99996599999999,
          "velocity": 1,
          "duration": 0.3333330000000032
        },
        {
          "name": "A#5",
          "midi": 82,
          "time": 33.99996599999999,
          "velocity": 1,
          "duration": 0.3333330000000032
        },
        {
          "name": "A#4",
          "midi": 70,
          "time": 34.333299,
          "velocity": 1,
          "duration": 0.16666649999999805
        },
        {
          "name": "C5",
          "midi": 72,
          "time": 34.499965499999995,
          "velocity": 1,
          "duration": 0.16666649999999805
        },
        {
          "name": "D5",
          "midi": 74,
          "time": 34.66663199999999,
          "velocity": 1,
          "duration": 0.16666649999999805
        },
        {
          "name": "D#5",
          "midi": 75,
          "time": 34.83329849999999,
          "velocity": 1,
          "duration": 0.16666649999999805
        },
        {
          "name": "F5",
          "midi": 77,
          "time": 34.99996499999999,
          "velocity": 1,
          "duration": 0.16666649999999805
        },
        {
          "name": "G5",
          "midi": 79,
          "time": 35.16663149999999,
          "velocity": 1,
          "duration": 0.16666649999999805
        },
        {
          "name": "G#5",
          "midi": 80,
          "time": 35.333297999999985,
          "velocity": 1,
          "duration": 0.16666649999999805
        },
        {
          "name": "A#5",
          "midi": 82,
          "time": 35.49996449999998,
          "velocity": 1,
          "duration": 0.16666649999999805
        },
        {
          "name": "C6",
          "midi": 84,
          "time": 35.66663099999998,
          "velocity": 1,
          "duration": 0.16666649999999805
        },
        {
          "name": "D6",
          "midi": 86,
          "time": 35.83329749999998,
          "velocity": 1,
          "duration": 0.16666649999999805
        },
        {
          "name": "D#6",
          "midi": 87,
          "time": 35.99996399999998,
          "velocity": 1,
          "duration": 0.6666659999999993
        },
        {
          "name": "G6",
          "midi": 91,
          "time": 36.66662999999998,
          "velocity": 1,
          "duration": 0.3333330000000032
        },
        {
          "name": "G5",
          "midi": 79,
          "time": 36.66662999999998,
          "velocity": 1,
          "duration": 0.3333330000000032
        },
        {
          "name": "D#6",
          "midi": 87,
          "time": 36.99996299999998,
          "velocity": 1,
          "duration": 0.6666659999999993
        },
        {
          "name": "D#5",
          "midi": 75,
          "time": 36.99996299999998,
          "velocity": 1,
          "duration": 0.6666659999999993
        },
        {
          "name": "A#5",
          "midi": 82,
          "time": 37.66662899999998,
          "velocity": 1,
          "duration": 0.3333330000000032
        },
        {
          "name": "A#4",
          "midi": 70,
          "time": 37.66662899999998,
          "velocity": 1,
          "duration": 0.3333330000000032
        },
        {
          "name": "D#6",
          "midi": 87,
          "time": 37.99996199999998,
          "velocity": 1,
          "duration": 0.3333330000000032
        },
        {
          "name": "D#5",
          "midi": 75,
          "time": 37.99996199999998,
          "velocity": 1,
          "duration": 0.3333330000000032
        },
        {
          "name": "D#6",
          "midi": 87,
          "time": 38.333294999999985,
          "velocity": 1,
          "duration": 0.3333330000000032
        },
        {
          "name": "G6",
          "midi": 91,
          "time": 38.333294999999985,
          "velocity": 1,
          "duration": 0.3333330000000032
        },
        {
          "name": "G6",
          "midi": 91,
          "time": 38.66662799999999,
          "velocity": 1,
          "duration": 0.3333330000000032
        },
        {
          "name": "D#6",
          "midi": 87,
          "time": 38.66662799999999,
          "velocity": 1,
          "duration": 0.3333330000000032
        },
        {
          "name": "G6",
          "midi": 91,
          "time": 38.99996099999999,
          "velocity": 1,
          "duration": 1.3333319999999986
        },
        {
          "name": "D#6",
          "midi": 87,
          "time": 38.99996099999999,
          "velocity": 1,
          "duration": 1.3333319999999986
        },
        {
          "name": "G6",
          "midi": 91,
          "time": 40.33329299999999,
          "velocity": 1,
          "duration": 0.3333330000000032
        },
        {
          "name": "D#6",
          "midi": 87,
          "time": 40.33329299999999,
          "velocity": 1,
          "duration": 0.3333330000000032
        },
        {
          "name": "G6",
          "midi": 91,
          "time": 40.666625999999994,
          "velocity": 1,
          "duration": 0.3333330000000032
        },
        {
          "name": "D#6",
          "midi": 87,
          "time": 40.666625999999994,
          "velocity": 1,
          "duration": 0.3333330000000032
        },
        {
          "name": "G6",
          "midi": 91,
          "time": 40.999959,
          "velocity": 1,
          "duration": 0.6666659999999993
        },
        {
          "name": "D#6",
          "midi": 87,
          "time": 40.999959,
          "velocity": 1,
          "duration": 0.6666659999999993
        },
        {
          "name": "C#6",
          "midi": 85,
          "time": 41.666624999999996,
          "velocity": 1,
          "duration": 0.3333330000000032
        },
        {
          "name": "G6",
          "midi": 91,
          "time": 41.666624999999996,
          "velocity": 1,
          "duration": 0.3333330000000032
        },
        {
          "name": "G#6",
          "midi": 92,
          "time": 41.999958,
          "velocity": 1,
          "duration": 0.3333330000000032
        },
        {
          "name": "C6",
          "midi": 84,
          "time": 41.999958,
          "velocity": 1,
          "duration": 1.1666655000000077
        },
        {
          "name": "D#6",
          "midi": 87,
          "time": 42.333291,
          "velocity": 1,
          "duration": 0.3333330000000032
        },
        {
          "name": "D#6",
          "midi": 87,
          "time": 42.666624000000006,
          "velocity": 1,
          "duration": 0.3333330000000032
        },
        {
          "name": "E6",
          "midi": 88,
          "time": 42.99995700000001,
          "velocity": 1,
          "duration": 0.9999989999999883
        },
        {
          "name": "A#5",
          "midi": 82,
          "time": 43.16662350000001,
          "velocity": 1,
          "duration": 0.16666649999999805
        },
        {
          "name": "A5",
          "midi": 81,
          "time": 43.333290000000005,
          "velocity": 1,
          "duration": 0.16666649999999805
        },
        {
          "name": "A#5",
          "midi": 82,
          "time": 43.4999565,
          "velocity": 1,
          "duration": 0.16666649999999805
        },
        {
          "name": "C6",
          "midi": 84,
          "time": 43.666623,
          "velocity": 1,
          "duration": 0.16666649999999805
        },
        {
          "name": "A#5",
          "midi": 82,
          "time": 43.8332895,
          "velocity": 1,
          "duration": 0.16666649999999805
        },
        {
          "name": "F6",
          "midi": 89,
          "time": 43.999956,
          "velocity": 1,
          "duration": 0.3333330000000032
        },
        {
          "name": "A5",
          "midi": 81,
          "time": 43.999956,
          "velocity": 1,
          "duration": 0.3333330000000032
        },
        {
          "name": "D#6",
          "midi": 87,
          "time": 46.333287,
          "velocity": 1,
          "duration": 0.49999950000000126
        },
        {
          "name": "C6",
          "midi": 84,
          "time": 46.8332865,
          "velocity": 1,
          "duration": 0.16666649999999805
        },
        {
          "name": "A5",
          "midi": 81,
          "time": 46.999953,
          "velocity": 1,
          "duration": 0.3333330000000032
        },
        {
          "name": "D6",
          "midi": 86,
          "time": 50.333283,
          "velocity": 1,
          "duration": 0.49999950000000126
        },
        {
          "name": "A#5",
          "midi": 82,
          "time": 50.8332825,
          "velocity": 1,
          "duration": 0.16666649999999805
        },
        {
          "name": "F5",
          "midi": 77,
          "time": 50.999949,
          "velocity": 1,
          "duration": 0.3333330000000032
        },
        {
          "name": "G6",
          "midi": 91,
          "time": 54.333279000000005,
          "velocity": 1,
          "duration": 0.49999950000000126
        },
        {
          "name": "G5",
          "midi": 79,
          "time": 54.333279000000005,
          "velocity": 1,
          "duration": 0.49999950000000126
        },
        {
          "name": "F6",
          "midi": 89,
          "time": 54.833278500000006,
          "velocity": 1,
          "duration": 0.16666649999999805
        },
        {
          "name": "F5",
          "midi": 77,
          "time": 54.833278500000006,
          "velocity": 1,
          "duration": 0.16666649999999805
        },
        {
          "name": "D#6",
          "midi": 87,
          "time": 54.999945000000004,
          "velocity": 1,
          "duration": 0.3333330000000032
        },
        {
          "name": "D#5",
          "midi": 75,
          "time": 54.999945000000004,
          "velocity": 1,
          "duration": 0.3333330000000032
        },
        {
          "name": "D6",
          "midi": 86,
          "time": 55.33327800000001,
          "velocity": 1,
          "duration": 0.3333330000000032
        },
        {
          "name": "D5",
          "midi": 74,
          "time": 55.33327800000001,
          "velocity": 1,
          "duration": 0.3333330000000032
        },
        {
          "name": "C6",
          "midi": 84,
          "time": 55.66661100000001,
          "velocity": 1,
          "duration": 0.3333330000000032
        },
        {
          "name": "C5",
          "midi": 72,
          "time": 55.66661100000001,
          "velocity": 1,
          "duration": 0.3333330000000032
        },
        {
          "name": "A#4",
          "midi": 70,
          "time": 55.99994400000001,
          "velocity": 1,
          "duration": 0.3333330000000032
        },
        {
          "name": "A#5",
          "midi": 82,
          "time": 55.99994400000001,
          "velocity": 1,
          "duration": 0.3333330000000032
        },
        {
          "name": "A#5",
          "midi": 82,
          "time": 59.99994000000002,
          "velocity": 1,
          "duration": 2.166664500000003
        },
        {
          "name": "A#4",
          "midi": 70,
          "time": 59.99994000000002,
          "velocity": 1,
          "duration": 2.166664500000003
        },
        {
          "name": "A#5",
          "midi": 82,
          "time": 62.16660450000002,
          "velocity": 1,
          "duration": 0.16666649999999805
        },
        {
          "name": "D5",
          "midi": 74,
          "time": 62.16660450000002,
          "velocity": 1,
          "duration": 0.16666649999999805
        },
        {
          "name": "A5",
          "midi": 81,
          "time": 62.33327100000002,
          "velocity": 1,
          "duration": 0.16666649999999805
        },
        {
          "name": "C5",
          "midi": 72,
          "time": 62.33327100000002,
          "velocity": 1,
          "duration": 0.16666649999999805
        },
        {
          "name": "A#5",
          "midi": 82,
          "time": 62.499937500000016,
          "velocity": 1,
          "duration": 0.16666649999999805
        },
        {
          "name": "D5",
          "midi": 74,
          "time": 62.499937500000016,
          "velocity": 1,
          "duration": 0.16666649999999805
        },
        {
          "name": "C6",
          "midi": 84,
          "time": 62.666604000000014,
          "velocity": 1,
          "duration": 0.16666649999999805
        },
        {
          "name": "A5",
          "midi": 81,
          "time": 62.666604000000014,
          "velocity": 1,
          "duration": 0.16666649999999805
        },
        {
          "name": "A#5",
          "midi": 82,
          "time": 62.83327050000001,
          "velocity": 1,
          "duration": 0.16666649999999805
        },
        {
          "name": "D6",
          "midi": 86,
          "time": 62.83327050000001,
          "velocity": 1,
          "duration": 0.16666649999999805
        },
        {
          "name": "D#6",
          "midi": 87,
          "time": 62.99993700000001,
          "velocity": 1,
          "duration": 0.16666649999999805
        },
        {
          "name": "C6",
          "midi": 84,
          "time": 62.99993700000001,
          "velocity": 1,
          "duration": 0.16666649999999805
        },
        {
          "name": "D#6",
          "midi": 87,
          "time": 63.16660350000001,
          "velocity": 1,
          "duration": 0.16666649999999805
        },
        {
          "name": "C6",
          "midi": 84,
          "time": 63.16660350000001,
          "velocity": 1,
          "duration": 0.16666649999999805
        },
        {
          "name": "D#6",
          "midi": 87,
          "time": 63.333270000000006,
          "velocity": 1,
          "duration": 0.16666649999999805
        },
        {
          "name": "C6",
          "midi": 84,
          "time": 63.333270000000006,
          "velocity": 1,
          "duration": 0.16666649999999805
        },
        {
          "name": "D#6",
          "midi": 87,
          "time": 63.499936500000004,
          "velocity": 1,
          "duration": 0.16666649999999805
        },
        {
          "name": "C6",
          "midi": 84,
          "time": 63.499936500000004,
          "velocity": 1,
          "duration": 0.16666649999999805
        },
        {
          "name": "D#6",
          "midi": 87,
          "time": 63.666603,
          "velocity": 1,
          "duration": 0.16666649999999805
        },
        {
          "name": "C6",
          "midi": 84,
          "time": 63.666603,
          "velocity": 1,
          "duration": 0.16666649999999805
        },
        {
          "name": "D#6",
          "midi": 87,
          "time": 63.8332695,
          "velocity": 1,
          "duration": 0.16666649999999805
        },
        {
          "name": "C6",
          "midi": 84,
          "time": 63.8332695,
          "velocity": 1,
          "duration": 0.16666649999999805
        },
        {
          "name": "C6",
          "midi": 84,
          "time": 63.999936,
          "velocity": 1,
          "duration": 0.3333330000000032
        },
        {
          "name": "D#6",
          "midi": 87,
          "time": 63.999936,
          "velocity": 1,
          "duration": 0.3333330000000032
        },
        {
          "name": "D#6",
          "midi": 87,
          "time": 64.333269,
          "velocity": 1,
          "duration": 0.3333329999999961
        },
        {
          "name": "C6",
          "midi": 84,
          "time": 64.333269,
          "velocity": 1,
          "duration": 0.3333329999999961
        },
        {
          "name": "D#6",
          "midi": 87,
          "time": 65.83326749999999,
          "velocity": 1,
          "duration": 0.16666650000000516
        },
        {
          "name": "A5",
          "midi": 81,
          "time": 65.83326749999999,
          "velocity": 1,
          "duration": 0.16666650000000516
        },
        {
          "name": "D6",
          "midi": 86,
          "time": 65.999934,
          "velocity": 1,
          "duration": 0.3333329999999961
        },
        {
          "name": "A#5",
          "midi": 82,
          "time": 65.999934,
          "velocity": 1,
          "duration": 0.3333329999999961
        },
        {
          "name": "D6",
          "midi": 86,
          "time": 66.33326699999999,
          "velocity": 1,
          "duration": 0.3333329999999961
        },
        {
          "name": "A#5",
          "midi": 82,
          "time": 66.33326699999999,
          "velocity": 1,
          "duration": 0.3333329999999961
        },
        {
          "name": "D6",
          "midi": 86,
          "time": 67.83326549999998,
          "velocity": 1,
          "duration": 0.16666650000000516
        },
        {
          "name": "A#5",
          "midi": 82,
          "time": 67.83326549999998,
          "velocity": 1,
          "duration": 0.16666650000000516
        },
        {
          "name": "D6",
          "midi": 86,
          "time": 67.99993199999999,
          "velocity": 1,
          "duration": 0.3333329999999961
        },
        {
          "name": "B5",
          "midi": 83,
          "time": 67.99993199999999,
          "velocity": 1,
          "duration": 0.3333329999999961
        },
        {
          "name": "D6",
          "midi": 86,
          "time": 68.33326499999998,
          "velocity": 1,
          "duration": 0.3333329999999961
        },
        {
          "name": "B5",
          "midi": 83,
          "time": 68.33326499999998,
          "velocity": 1,
          "duration": 0.3333329999999961
        },
        {
          "name": "D5",
          "midi": 74,
          "time": 69.83326349999997,
          "velocity": 1,
          "duration": 0.16666650000000516
        },
        {
          "name": "B5",
          "midi": 83,
          "time": 69.83326349999997,
          "velocity": 1,
          "duration": 0.16666650000000516
        },
        {
          "name": "C6",
          "midi": 84,
          "time": 69.99992999999998,
          "velocity": 1,
          "duration": 0.16666650000000516
        },
        {
          "name": "G5",
          "midi": 79,
          "time": 69.99992999999998,
          "velocity": 1,
          "duration": 0.16666650000000516
        },
        {
          "name": "C6",
          "midi": 84,
          "time": 70.16659649999998,
          "velocity": 1,
          "duration": 0.3333329999999961
        },
        {
          "name": "G5",
          "midi": 79,
          "time": 70.16659649999998,
          "velocity": 1,
          "duration": 0.3333329999999961
        },
        {
          "name": "C6",
          "midi": 84,
          "time": 70.49992949999998,
          "velocity": 1,
          "duration": 0.16666650000000516
        },
        {
          "name": "G5",
          "midi": 79,
          "time": 70.49992949999998,
          "velocity": 1,
          "duration": 0.16666650000000516
        },
        {
          "name": "C6",
          "midi": 84,
          "time": 70.66659599999998,
          "velocity": 1,
          "duration": 0.16666650000000516
        },
        {
          "name": "A5",
          "midi": 81,
          "time": 70.66659599999998,
          "velocity": 1,
          "duration": 0.16666650000000516
        },
        {
          "name": "D6",
          "midi": 86,
          "time": 70.83326249999999,
          "velocity": 1,
          "duration": 0.16666650000000516
        },
        {
          "name": "A5",
          "midi": 81,
          "time": 70.83326249999999,
          "velocity": 1,
          "duration": 0.16666650000000516
        },
        {
          "name": "D6",
          "midi": 86,
          "time": 70.999929,
          "velocity": 1,
          "duration": 0.16666650000000516
        },
        {
          "name": "A#5",
          "midi": 82,
          "time": 70.999929,
          "velocity": 1,
          "duration": 0.16666650000000516
        },
        {
          "name": "A#5",
          "midi": 82,
          "time": 71.1665955,
          "velocity": 1,
          "duration": 0.3333329999999961
        },
        {
          "name": "D#6",
          "midi": 87,
          "time": 71.1665955,
          "velocity": 1,
          "duration": 0.3333329999999961
        },
        {
          "name": "D#6",
          "midi": 87,
          "time": 71.4999285,
          "velocity": 1,
          "duration": 0.16666650000000516
        },
        {
          "name": "A#5",
          "midi": 82,
          "time": 71.4999285,
          "velocity": 1,
          "duration": 0.16666650000000516
        },
        {
          "name": "D#6",
          "midi": 87,
          "time": 71.666595,
          "velocity": 1,
          "duration": 0.16666650000000516
        },
        {
          "name": "C6",
          "midi": 84,
          "time": 71.666595,
          "velocity": 1,
          "duration": 0.16666650000000516
        },
        {
          "name": "F6",
          "midi": 89,
          "time": 71.8332615,
          "velocity": 1,
          "duration": 0.16666650000000516
        },
        {
          "name": "C6",
          "midi": 84,
          "time": 71.8332615,
          "velocity": 1,
          "duration": 0.16666650000000516
        },
        {
          "name": "D6",
          "midi": 86,
          "time": 71.99992800000001,
          "velocity": 1,
          "duration": 0.3333329999999961
        },
        {
          "name": "A#5",
          "midi": 82,
          "time": 71.99992800000001,
          "velocity": 1,
          "duration": 0.3333329999999961
        },
        {
          "name": "D6",
          "midi": 86,
          "time": 72.33326100000001,
          "velocity": 1,
          "duration": 0.3333329999999961
        },
        {
          "name": "A#5",
          "midi": 82,
          "time": 72.33326100000001,
          "velocity": 1,
          "duration": 0.3333329999999961
        },
        {
          "name": "D#6",
          "midi": 87,
          "time": 72.666594,
          "velocity": 1,
          "duration": 0.3333329999999961
        },
        {
          "name": "A#5",
          "midi": 82,
          "time": 72.666594,
          "velocity": 1,
          "duration": 0.3333329999999961
        },
        {
          "name": "E6",
          "midi": 88,
          "time": 72.999927,
          "velocity": 1,
          "duration": 0.3333329999999961
        },
        {
          "name": "A#5",
          "midi": 82,
          "time": 72.999927,
          "velocity": 1,
          "duration": 0.3333329999999961
        },
        {
          "name": "A#5",
          "midi": 82,
          "time": 73.33326,
          "velocity": 1,
          "duration": 0.3333329999999961
        },
        {
          "name": "F6",
          "midi": 89,
          "time": 73.33326,
          "velocity": 1,
          "duration": 0.3333329999999961
        },
        {
          "name": "F#6",
          "midi": 90,
          "time": 73.66659299999999,
          "velocity": 1,
          "duration": 0.3333329999999961
        },
        {
          "name": "A#5",
          "midi": 82,
          "time": 73.66659299999999,
          "velocity": 1,
          "duration": 0.9999990000000167
        },
        {
          "name": "G6",
          "midi": 91,
          "time": 73.99992599999999,
          "velocity": 1,
          "duration": 0.16666650000000516
        },
        {
          "name": "F#6",
          "midi": 90,
          "time": 74.1665925,
          "velocity": 1,
          "duration": 0.16666650000000516
        },
        {
          "name": "G6",
          "midi": 91,
          "time": 74.333259,
          "velocity": 1,
          "duration": 0.16666650000000516
        },
        {
          "name": "F#6",
          "midi": 90,
          "time": 74.4999255,
          "velocity": 1,
          "duration": 0.16666650000000516
        },
        {
          "name": "G6",
          "midi": 91,
          "time": 74.66659200000001,
          "velocity": 1,
          "duration": 0.16666650000000516
        },
        {
          "name": "B5",
          "midi": 83,
          "time": 74.66659200000001,
          "velocity": 1,
          "duration": 0.3333330000000103
        },
        {
          "name": "D6",
          "midi": 86,
          "time": 74.83325850000001,
          "velocity": 1,
          "duration": 0.16666650000000516
        },
        {
          "name": "D#6",
          "midi": 87,
          "time": 74.99992500000002,
          "velocity": 1,
          "duration": 0.16666650000000516
        },
        {
          "name": "C6",
          "midi": 84,
          "time": 74.99992500000002,
          "velocity": 1,
          "duration": 0.16666650000000516
        },
        {
          "name": "G5",
          "midi": 79,
          "time": 75.16659150000002,
          "velocity": 1,
          "duration": 0.16666650000000516
        },
        {
          "name": "D6",
          "midi": 86,
          "time": 75.16659150000002,
          "velocity": 1,
          "duration": 0.16666650000000516
        },
        {
          "name": "F6",
          "midi": 89,
          "time": 75.33325800000003,
          "velocity": 1,
          "duration": 0.16666650000000516
        },
        {
          "name": "G5",
          "midi": 79,
          "time": 75.33325800000003,
          "velocity": 1,
          "duration": 0.16666650000000516
        },
        {
          "name": "D#6",
          "midi": 87,
          "time": 75.49992450000003,
          "velocity": 1,
          "duration": 0.16666650000000516
        },
        {
          "name": "G5",
          "midi": 79,
          "time": 75.49992450000003,
          "velocity": 1,
          "duration": 0.16666650000000516
        },
        {
          "name": "D6",
          "midi": 86,
          "time": 75.66659100000004,
          "velocity": 1,
          "duration": 0.16666650000000516
        },
        {
          "name": "F5",
          "midi": 77,
          "time": 75.66659100000004,
          "velocity": 1,
          "duration": 0.16666650000000516
        },
        {
          "name": "C6",
          "midi": 84,
          "time": 75.83325750000004,
          "velocity": 1,
          "duration": 0.16666650000000516
        },
        {
          "name": "D#5",
          "midi": 75,
          "time": 75.83325750000004,
          "velocity": 1,
          "duration": 0.16666650000000516
        },
        {
          "name": "D6",
          "midi": 86,
          "time": 75.99992400000005,
          "velocity": 1,
          "duration": 0.3333329999999961
        },
        {
          "name": "D5",
          "midi": 74,
          "time": 75.99992400000005,
          "velocity": 1,
          "duration": 0.3333329999999961
        },
        {
          "name": "F6",
          "midi": 89,
          "time": 77.99992200000004,
          "velocity": 1,
          "duration": 2.166664499999996
        },
        {
          "name": "E6",
          "midi": 88,
          "time": 80.16658650000004,
          "velocity": 1,
          "duration": 0.16666650000000516
        },
        {
          "name": "D#6",
          "midi": 87,
          "time": 80.33325300000004,
          "velocity": 1,
          "duration": 0.16666650000000516
        },
        {
          "name": "D6",
          "midi": 86,
          "time": 80.49991950000005,
          "velocity": 1,
          "duration": 0.16666650000000516
        },
        {
          "name": "C6",
          "midi": 84,
          "time": 80.66658600000005,
          "velocity": 1,
          "duration": 0.16666650000000516
        },
        {
          "name": "A#5",
          "midi": 82,
          "time": 80.83325250000006,
          "velocity": 1,
          "duration": 0.16666650000000516
        },
        {
          "name": "A5",
          "midi": 81,
          "time": 80.99991900000006,
          "velocity": 1,
          "duration": 0.16666650000000516
        },
        {
          "name": "G6",
          "midi": 91,
          "time": 81.16658550000007,
          "velocity": 1,
          "duration": 0.16666650000000516
        },
        {
          "name": "G5",
          "midi": 79,
          "time": 81.16658550000007,
          "velocity": 1,
          "duration": 0.16666650000000516
        },
        {
          "name": "F5",
          "midi": 77,
          "time": 81.33325200000007,
          "velocity": 1,
          "duration": 0.16666650000000516
        },
        {
          "name": "F6",
          "midi": 89,
          "time": 81.33325200000007,
          "velocity": 1,
          "duration": 0.16666650000000516
        },
        {
          "name": "D#6",
          "midi": 87,
          "time": 81.49991850000008,
          "velocity": 1,
          "duration": 0.16666650000000516
        },
        {
          "name": "D#5",
          "midi": 75,
          "time": 81.49991850000008,
          "velocity": 1,
          "duration": 0.16666650000000516
        },
        {
          "name": "D6",
          "midi": 86,
          "time": 81.66658500000008,
          "velocity": 1,
          "duration": 0.16666650000000516
        },
        {
          "name": "D5",
          "midi": 74,
          "time": 81.66658500000008,
          "velocity": 1,
          "duration": 0.16666650000000516
        },
        {
          "name": "C6",
          "midi": 84,
          "time": 81.83325150000009,
          "velocity": 1,
          "duration": 0.16666650000000516
        },
        {
          "name": "C5",
          "midi": 72,
          "time": 81.83325150000009,
          "velocity": 1,
          "duration": 0.16666650000000516
        },
        {
          "name": "A#5",
          "midi": 82,
          "time": 81.9999180000001,
          "velocity": 1,
          "duration": 0.3333329999999961
        },
        {
          "name": "A#4",
          "midi": 70,
          "time": 81.9999180000001,
          "velocity": 1,
          "duration": 0.3333329999999961
        },
        {
          "name": "D6",
          "midi": 86,
          "time": 84.3332490000001,
          "velocity": 1,
          "duration": 0.3333329999999961
        },
        {
          "name": "D6",
          "midi": 86,
          "time": 84.66658200000009,
          "velocity": 1,
          "duration": 0.3333329999999961
        },
        {
          "name": "D6",
          "midi": 86,
          "time": 84.99991500000009,
          "velocity": 1,
          "duration": 0.6666660000000064
        },
        {
          "name": "C6",
          "midi": 84,
          "time": 85.6665810000001,
          "velocity": 1,
          "duration": 0.3333329999999961
        },
        {
          "name": "F6",
          "midi": 89,
          "time": 89.66657700000009,
          "velocity": 1,
          "duration": 0.6666660000000064
        },
        {
          "name": "D#6",
          "midi": 87,
          "time": 90.3332430000001,
          "velocity": 1,
          "duration": 0.16666650000000516
        },
        {
          "name": "C#6",
          "midi": 85,
          "time": 90.4999095000001,
          "velocity": 1,
          "duration": 0.16666650000000516
        },
        {
          "name": "C6",
          "midi": 84,
          "time": 90.6665760000001,
          "velocity": 1,
          "duration": 0.16666650000000516
        },
        {
          "name": "A#5",
          "midi": 82,
          "time": 90.83324250000011,
          "velocity": 1,
          "duration": 0.16666650000000516
        },
        {
          "name": "C6",
          "midi": 84,
          "time": 97.33323600000011,
          "velocity": 1,
          "duration": 0.3333329999999961
        },
        {
          "name": "A#5",
          "midi": 82,
          "time": 97.33323600000011,
          "velocity": 1,
          "duration": 0.3333329999999961
        },
        {
          "name": "C6",
          "midi": 84,
          "time": 97.66656900000011,
          "velocity": 1,
          "duration": 0.3333329999999961
        },
        {
          "name": "A#5",
          "midi": 82,
          "time": 97.66656900000011,
          "velocity": 1,
          "duration": 0.3333329999999961
        },
        {
          "name": "C6",
          "midi": 84,
          "time": 97.9999020000001,
          "velocity": 1,
          "duration": 0.3333329999999961
        },
        {
          "name": "A5",
          "midi": 81,
          "time": 97.9999020000001,
          "velocity": 1,
          "duration": 0.3333329999999961
        },
        {
          "name": "D#5",
          "midi": 75,
          "time": 106.6665600000001,
          "velocity": 1,
          "duration": 0.16666650000000516
        },
        {
          "name": "C5",
          "midi": 72,
          "time": 106.6665600000001,
          "velocity": 1,
          "duration": 0.16666650000000516
        },
        {
          "name": "F5",
          "midi": 77,
          "time": 106.83322650000011,
          "velocity": 1,
          "duration": 0.16666650000000516
        },
        {
          "name": "D5",
          "midi": 74,
          "time": 106.83322650000011,
          "velocity": 1,
          "duration": 0.16666650000000516
        },
        {
          "name": "D#5",
          "midi": 75,
          "time": 106.99989300000011,
          "velocity": 1,
          "duration": 0.16666650000000516
        },
        {
          "name": "G5",
          "midi": 79,
          "time": 106.99989300000011,
          "velocity": 1,
          "duration": 0.16666650000000516
        },
        {
          "name": "A5",
          "midi": 81,
          "time": 107.16655950000012,
          "velocity": 1,
          "duration": 0.16666650000000516
        },
        {
          "name": "F5",
          "midi": 77,
          "time": 107.16655950000012,
          "velocity": 1,
          "duration": 0.16666650000000516
        },
        {
          "name": "A#5",
          "midi": 82,
          "time": 107.33322600000012,
          "velocity": 1,
          "duration": 0.16666650000000516
        },
        {
          "name": "G5",
          "midi": 79,
          "time": 107.33322600000012,
          "velocity": 1,
          "duration": 0.16666650000000516
        },
        {
          "name": "C6",
          "midi": 84,
          "time": 107.49989250000013,
          "velocity": 1,
          "duration": 0.16666650000000516
        },
        {
          "name": "A5",
          "midi": 81,
          "time": 107.49989250000013,
          "velocity": 1,
          "duration": 0.16666650000000516
        },
        {
          "name": "D6",
          "midi": 86,
          "time": 107.66655900000013,
          "velocity": 1,
          "duration": 0.16666650000000516
        },
        {
          "name": "A#5",
          "midi": 82,
          "time": 107.66655900000013,
          "velocity": 1,
          "duration": 0.16666650000000516
        },
        {
          "name": "D#6",
          "midi": 87,
          "time": 107.83322550000014,
          "velocity": 1,
          "duration": 0.16666650000000516
        },
        {
          "name": "C6",
          "midi": 84,
          "time": 107.83322550000014,
          "velocity": 1,
          "duration": 0.16666650000000516
        },
        {
          "name": "F6",
          "midi": 89,
          "time": 107.99989200000014,
          "velocity": 1,
          "duration": 0.3333329999999961
        },
        {
          "name": "D6",
          "midi": 86,
          "time": 107.99989200000014,
          "velocity": 1,
          "duration": 0.3333329999999961
        },
        {
          "name": "F6",
          "midi": 89,
          "time": 108.33322500000014,
          "velocity": 1,
          "duration": 0.6666660000000064
        },
        {
          "name": "D6",
          "midi": 86,
          "time": 108.33322500000014,
          "velocity": 1,
          "duration": 0.6666660000000064
        },
        {
          "name": "D6",
          "midi": 86,
          "time": 109.33322400000014,
          "velocity": 1,
          "duration": 0.6666660000000064
        },
        {
          "name": "F6",
          "midi": 89,
          "time": 109.33322400000014,
          "velocity": 1,
          "duration": 0.6666660000000064
        },
        {
          "name": "F6",
          "midi": 89,
          "time": 110.33322300000015,
          "velocity": 1,
          "duration": 0.6666660000000064
        },
        {
          "name": "D#6",
          "midi": 87,
          "time": 110.33322300000015,
          "velocity": 1,
          "duration": 0.6666660000000064
        },
        {
          "name": "F6",
          "midi": 89,
          "time": 111.33322200000015,
          "velocity": 1,
          "duration": 0.3333329999999961
        },
        {
          "name": "A5",
          "midi": 81,
          "time": 111.33322200000015,
          "velocity": 1,
          "duration": 0.3333329999999961
        },
        {
          "name": "F6",
          "midi": 89,
          "time": 111.66655500000014,
          "velocity": 1,
          "duration": 0.3333329999999961
        },
        {
          "name": "C6",
          "midi": 84,
          "time": 111.66655500000014,
          "velocity": 1,
          "duration": 0.3333329999999961
        },
        {
          "name": "F6",
          "midi": 89,
          "time": 111.99988800000014,
          "velocity": 1,
          "duration": 0.3333329999999961
        },
        {
          "name": "D6",
          "midi": 86,
          "time": 111.99988800000014,
          "velocity": 1,
          "duration": 0.3333329999999961
        },
        {
          "name": "F6",
          "midi": 89,
          "time": 112.33322100000014,
          "velocity": 1,
          "duration": 0.49999950000000126
        },
        {
          "name": "D6",
          "midi": 86,
          "time": 112.83322050000014,
          "velocity": 1,
          "duration": 0.16666650000000516
        },
        {
          "name": "A#5",
          "midi": 82,
          "time": 112.99988700000014,
          "velocity": 1,
          "duration": 0.3333329999999961
        },
        {
          "name": "D6",
          "midi": 86,
          "time": 113.33322000000014,
          "velocity": 1,
          "duration": 0.49999950000000126
        },
        {
          "name": "F5",
          "midi": 77,
          "time": 113.83321950000014,
          "velocity": 1,
          "duration": 0.16666650000000516
        },
        {
          "name": "C6",
          "midi": 84,
          "time": 113.99988600000015,
          "velocity": 1,
          "duration": 0.3333329999999961
        },
        {
          "name": "D#6",
          "midi": 87,
          "time": 114.33321900000014,
          "velocity": 1,
          "duration": 0.49999950000000126
        },
        {
          "name": "F5",
          "midi": 77,
          "time": 114.83321850000014,
          "velocity": 1,
          "duration": 0.16666650000000516
        },
        {
          "name": "A5",
          "midi": 81,
          "time": 114.99988500000015,
          "velocity": 1,
          "duration": 0.3333329999999961
        },
        {
          "name": "C6",
          "midi": 84,
          "time": 115.33321800000014,
          "velocity": 1,
          "duration": 0.49999950000000126
        },
        {
          "name": "F5",
          "midi": 77,
          "time": 115.83321750000015,
          "velocity": 1,
          "duration": 0.16666650000000516
        },
        {
          "name": "F6",
          "midi": 89,
          "time": 115.99988400000015,
          "velocity": 1,
          "duration": 0.8333324999999974
        },
        {
          "name": "A#5",
          "midi": 82,
          "time": 115.99988400000015,
          "velocity": 1,
          "duration": 1.1666655000000077
        },
        {
          "name": "E6",
          "midi": 88,
          "time": 116.83321650000015,
          "velocity": 1,
          "duration": 0.16666650000000516
        },
        {
          "name": "F6",
          "midi": 89,
          "time": 116.99988300000015,
          "velocity": 1,
          "duration": 0.16666650000000516
        },
        {
          "name": "D6",
          "midi": 86,
          "time": 121.16654550000015,
          "velocity": 1,
          "duration": 0.16666650000000516
        },
        {
          "name": "A5",
          "midi": 81,
          "time": 121.16654550000015,
          "velocity": 1,
          "duration": 0.16666650000000516
        },
        {
          "name": "D6",
          "midi": 86,
          "time": 121.33321200000016,
          "velocity": 1,
          "duration": 0.16666650000000516
        },
        {
          "name": "A#5",
          "midi": 82,
          "time": 121.33321200000016,
          "velocity": 1,
          "duration": 0.16666650000000516
        },
        {
          "name": "G6",
          "midi": 91,
          "time": 121.49987850000016,
          "velocity": 1,
          "duration": 0.16666650000000516
        },
        {
          "name": "B5",
          "midi": 83,
          "time": 121.49987850000016,
          "velocity": 1,
          "duration": 0.16666650000000516
        },
        {
          "name": "C6",
          "midi": 84,
          "time": 121.66654500000017,
          "velocity": 1,
          "duration": 0.16666650000000516
        },
        {
          "name": "G6",
          "midi": 91,
          "time": 121.66654500000017,
          "velocity": 1,
          "duration": 0.16666650000000516
        },
        {
          "name": "G6",
          "midi": 91,
          "time": 121.83321150000017,
          "velocity": 1,
          "duration": 0.16666650000000516
        },
        {
          "name": "C#6",
          "midi": 85,
          "time": 121.83321150000017,
          "velocity": 1,
          "duration": 0.16666650000000516
        },
        {
          "name": "F#6",
          "midi": 90,
          "time": 121.99987800000018,
          "velocity": 1,
          "duration": 0.3333329999999961
        },
        {
          "name": "D6",
          "midi": 86,
          "time": 121.99987800000018,
          "velocity": 1,
          "duration": 0.3333329999999961
        },
        {
          "name": "D6",
          "midi": 86,
          "time": 122.33321100000018,
          "velocity": 1,
          "duration": 0.3333329999999961
        },
        {
          "name": "C6",
          "midi": 84,
          "time": 122.33321100000018,
          "velocity": 1,
          "duration": 0.3333329999999961
        },
        {
          "name": "D6",
          "midi": 86,
          "time": 122.66654400000017,
          "velocity": 1,
          "duration": 0.3333329999999961
        },
        {
          "name": "A#5",
          "midi": 82,
          "time": 122.66654400000017,
          "velocity": 1,
          "duration": 0.3333329999999961
        },
        {
          "name": "B5",
          "midi": 83,
          "time": 123.33321000000016,
          "velocity": 1,
          "duration": 0.3333329999999961
        },
        {
          "name": "G#5",
          "midi": 80,
          "time": 123.33321000000016,
          "velocity": 1,
          "duration": 0.3333329999999961
        },
        {
          "name": "C6",
          "midi": 84,
          "time": 123.66654300000016,
          "velocity": 1,
          "duration": 0.3333329999999961
        },
        {
          "name": "G5",
          "midi": 79,
          "time": 123.66654300000016,
          "velocity": 1,
          "duration": 0.3333329999999961
        },
        {
          "name": "C6",
          "midi": 84,
          "time": 124.33320900000015,
          "velocity": 1,
          "duration": 0.3333329999999961
        },
        {
          "name": "A#5",
          "midi": 82,
          "time": 124.33320900000015,
          "velocity": 1,
          "duration": 0.3333329999999961
        },
        {
          "name": "A5",
          "midi": 81,
          "time": 124.66654200000015,
          "velocity": 1,
          "duration": 0.3333329999999961
        },
        {
          "name": "C6",
          "midi": 84,
          "time": 124.66654200000015,
          "velocity": 1,
          "duration": 0.3333329999999961
        },
        {
          "name": "D6",
          "midi": 86,
          "time": 125.33320800000014,
          "velocity": 1,
          "duration": 0.3333329999999961
        },
        {
          "name": "C6",
          "midi": 84,
          "time": 125.33320800000014,
          "velocity": 1,
          "duration": 0.3333329999999961
        },
        {
          "name": "D6",
          "midi": 86,
          "time": 125.66654100000014,
          "velocity": 1,
          "duration": 0.3333329999999961
        },
        {
          "name": "A#5",
          "midi": 82,
          "time": 125.66654100000014,
          "velocity": 1,
          "duration": 0.3333329999999961
        },
        {
          "name": "B5",
          "midi": 83,
          "time": 126.33320700000013,
          "velocity": 1,
          "duration": 0.3333329999999961
        },
        {
          "name": "G#5",
          "midi": 80,
          "time": 126.33320700000013,
          "velocity": 1,
          "duration": 0.3333329999999961
        },
        {
          "name": "C6",
          "midi": 84,
          "time": 126.66654000000013,
          "velocity": 1,
          "duration": 0.3333329999999961
        },
        {
          "name": "G5",
          "midi": 79,
          "time": 126.66654000000013,
          "velocity": 1,
          "duration": 0.3333329999999961
        },
        {
          "name": "C6",
          "midi": 84,
          "time": 127.33320600000012,
          "velocity": 1,
          "duration": 0.3333329999999961
        },
        {
          "name": "A#5",
          "midi": 82,
          "time": 127.33320600000012,
          "velocity": 1,
          "duration": 0.3333329999999961
        },
        {
          "name": "C6",
          "midi": 84,
          "time": 127.99987200000011,
          "velocity": 1,
          "duration": 0.3333329999999961
        },
        {
          "name": "A#5",
          "midi": 82,
          "time": 127.99987200000011,
          "velocity": 1,
          "duration": 0.3333329999999961
        },
        {
          "name": "A#5",
          "midi": 82,
          "time": 128.66653800000012,
          "velocity": 1,
          "duration": 0.3333330000000103
        },
        {
          "name": "C6",
          "midi": 84,
          "time": 128.66653800000012,
          "velocity": 1,
          "duration": 0.3333330000000103
        },
        {
          "name": "C6",
          "midi": 84,
          "time": 129.33320400000014,
          "velocity": 1,
          "duration": 0.3333330000000103
        },
        {
          "name": "A#5",
          "midi": 82,
          "time": 129.33320400000014,
          "velocity": 1,
          "duration": 0.3333330000000103
        },
        {
          "name": "C6",
          "midi": 84,
          "time": 129.99987000000016,
          "velocity": 1,
          "duration": 0.3333330000000103
        },
        {
          "name": "A#5",
          "midi": 82,
          "time": 129.99987000000016,
          "velocity": 1,
          "duration": 0.3333330000000103
        },
        {
          "name": "C6",
          "midi": 84,
          "time": 130.66653600000018,
          "velocity": 1,
          "duration": 0.3333330000000103
        },
        {
          "name": "A#5",
          "midi": 82,
          "time": 130.66653600000018,
          "velocity": 1,
          "duration": 0.3333330000000103
        },
        {
          "name": "A#5",
          "midi": 82,
          "time": 131.9998680000002,
          "velocity": 1,
          "duration": 0.3333330000000103
        },
        {
          "name": "C#6",
          "midi": 85,
          "time": 132.3332010000002,
          "velocity": 1,
          "duration": 0.3333330000000103
        },
        {
          "name": "E6",
          "midi": 88,
          "time": 132.6665340000002,
          "velocity": 1,
          "duration": 0.3333330000000103
        },
        {
          "name": "F6",
          "midi": 89,
          "time": 132.99986700000022,
          "velocity": 1,
          "duration": 0.9999990000000025
        },
        {
          "name": "A#5",
          "midi": 82,
          "time": 133.99986600000022,
          "velocity": 1,
          "duration": 0.3333330000000103
        },
        {
          "name": "C#6",
          "midi": 85,
          "time": 134.33319900000023,
          "velocity": 1,
          "duration": 0.3333330000000103
        },
        {
          "name": "E6",
          "midi": 88,
          "time": 134.66653200000025,
          "velocity": 1,
          "duration": 0.6666659999999922
        },
        {
          "name": "D#6",
          "midi": 87,
          "time": 135.33319800000024,
          "velocity": 1,
          "duration": 0.3333330000000103
        },
        {
          "name": "C#6",
          "midi": 85,
          "time": 135.66653100000025,
          "velocity": 1,
          "duration": 0.6666659999999922
        },
        {
          "name": "B5",
          "midi": 83,
          "time": 136.33319700000024,
          "velocity": 1,
          "duration": 0.3333330000000103
        },
        {
          "name": "C6",
          "midi": 84,
          "time": 136.66653000000025,
          "velocity": 1,
          "duration": 0.6666659999999922
        },
        {
          "name": "F5",
          "midi": 77,
          "time": 137.33319600000024,
          "velocity": 1,
          "duration": 0.3333330000000103
        },
        {
          "name": "D#6",
          "midi": 87,
          "time": 137.66652900000025,
          "velocity": 1,
          "duration": 0.6666659999999922
        },
        {
          "name": "C#6",
          "midi": 85,
          "time": 138.33319500000025,
          "velocity": 1,
          "duration": 0.3333330000000103
        },
        {
          "name": "D6",
          "midi": 86,
          "time": 138.66652800000026,
          "velocity": 1,
          "duration": 0.49999950000000126
        },
        {
          "name": "F#5",
          "midi": 78,
          "time": 139.16652750000026,
          "velocity": 1,
          "duration": 0.16666649999999095
        },
        {
          "name": "G5",
          "midi": 79,
          "time": 139.33319400000025,
          "velocity": 1,
          "duration": 0.16666649999999095
        },
        {
          "name": "B5",
          "midi": 83,
          "time": 139.49986050000024,
          "velocity": 1,
          "duration": 0.16666649999999095
        },
        {
          "name": "C6",
          "midi": 84,
          "time": 139.66652700000023,
          "velocity": 1,
          "duration": 0.16666649999999095
        },
        {
          "name": "D6",
          "midi": 86,
          "time": 139.83319350000022,
          "velocity": 1,
          "duration": 0.16666649999999095
        },
        {
          "name": "D#6",
          "midi": 87,
          "time": 139.9998600000002,
          "velocity": 1,
          "duration": 0.16666649999999095
        },
        {
          "name": "F#6",
          "midi": 90,
          "time": 140.1665265000002,
          "velocity": 1,
          "duration": 0.16666649999999095
        },
        {
          "name": "G6",
          "midi": 91,
          "time": 140.3331930000002,
          "velocity": 1,
          "duration": 0.16666649999999095
        },
        {
          "name": "D#6",
          "midi": 87,
          "time": 140.49985950000018,
          "velocity": 1,
          "duration": 0.16666649999999095
        },
        {
          "name": "D6",
          "midi": 86,
          "time": 140.66652600000018,
          "velocity": 1,
          "duration": 0.16666649999999095
        },
        {
          "name": "C6",
          "midi": 84,
          "time": 140.83319250000017,
          "velocity": 1,
          "duration": 0.16666649999999095
        },
        {
          "name": "A#5",
          "midi": 82,
          "time": 140.99985900000016,
          "velocity": 1,
          "duration": 0.16666649999999095
        },
        {
          "name": "D6",
          "midi": 86,
          "time": 141.16652550000015,
          "velocity": 1,
          "duration": 0.16666649999999095
        },
        {
          "name": "F6",
          "midi": 89,
          "time": 141.33319200000014,
          "velocity": 1,
          "duration": 0.16666649999999095
        },
        {
          "name": "F6",
          "midi": 89,
          "time": 141.49985850000013,
          "velocity": 1,
          "duration": 0.16666649999999095
        },
        {
          "name": "F6",
          "midi": 89,
          "time": 141.66652500000012,
          "velocity": 1,
          "duration": 0.16666649999999095
        },
        {
          "name": "F6",
          "midi": 89,
          "time": 141.8331915000001,
          "velocity": 1,
          "duration": 0.16666649999999095
        },
        {
          "name": "D#6",
          "midi": 87,
          "time": 141.9998580000001,
          "velocity": 1,
          "duration": 0.6666659999999922
        },
        {
          "name": "F6",
          "midi": 89,
          "time": 141.9998580000001,
          "velocity": 1,
          "duration": 0.9999990000000025
        },
        {
          "name": "A5",
          "midi": 81,
          "time": 142.6665240000001,
          "velocity": 1,
          "duration": 0.3333330000000103
        },
        {
          "name": "A#5",
          "midi": 82,
          "time": 142.9998570000001,
          "velocity": 1,
          "duration": 0.3333330000000103
        },
        {
          "name": "A#5",
          "midi": 82,
          "time": 143.9998560000001,
          "velocity": 1,
          "duration": 0.3333330000000103
        },
        {
          "name": "A#5",
          "midi": 82,
          "time": 144.9998550000001,
          "velocity": 1,
          "duration": 0.3333330000000103
        },
        {
          "name": "D#6",
          "midi": 87,
          "time": 145.9998540000001,
          "velocity": 1,
          "duration": 0.3333330000000103
        },
        {
          "name": "A#5",
          "midi": 82,
          "time": 145.9998540000001,
          "velocity": 1,
          "duration": 0.3333330000000103
        },
        {
          "name": "D#6",
          "midi": 87,
          "time": 146.33318700000012,
          "velocity": 1,
          "duration": 0.3333330000000103
        },
        {
          "name": "A#5",
          "midi": 82,
          "time": 146.33318700000012,
          "velocity": 1,
          "duration": 0.3333330000000103
        },
        {
          "name": "D#6",
          "midi": 87,
          "time": 146.66652000000013,
          "velocity": 1,
          "duration": 0.3333330000000103
        },
        {
          "name": "A#5",
          "midi": 82,
          "time": 146.66652000000013,
          "velocity": 1,
          "duration": 0.3333330000000103
        },
        {
          "name": "A#5",
          "midi": 82,
          "time": 146.99985300000014,
          "velocity": 1,
          "duration": 0.3333330000000103
        },
        {
          "name": "D6",
          "midi": 86,
          "time": 146.99985300000014,
          "velocity": 1,
          "duration": 0.3333330000000103
        },
        {
          "name": "A5",
          "midi": 81,
          "time": 152.66651400000015,
          "velocity": 1,
          "duration": 0.3333330000000103
        },
        {
          "name": "D5",
          "midi": 74,
          "time": 152.66651400000015,
          "velocity": 1,
          "duration": 0.3333330000000103
        },
        {
          "name": "G5",
          "midi": 79,
          "time": 152.99984700000016,
          "velocity": 1,
          "duration": 0.3333330000000103
        },
        {
          "name": "D#5",
          "midi": 75,
          "time": 152.99984700000016,
          "velocity": 1,
          "duration": 0.3333330000000103
        },
        {
          "name": "F6",
          "midi": 89,
          "time": 171.33316200000016,
          "velocity": 1,
          "duration": 0.49999950000000126
        },
        {
          "name": "D6",
          "midi": 86,
          "time": 171.83316150000016,
          "velocity": 1,
          "duration": 0.16666649999999095
        },
        {
          "name": "B5",
          "midi": 83,
          "time": 171.99982800000015,
          "velocity": 1,
          "duration": 0.3333330000000103
        },
        {
          "name": "D6",
          "midi": 86,
          "time": 172.33316100000016,
          "velocity": 1,
          "duration": 0.49999950000000126
        },
        {
          "name": "F5",
          "midi": 77,
          "time": 172.83316050000016,
          "velocity": 1,
          "duration": 0.16666649999999095
        },
        {
          "name": "E5",
          "midi": 76,
          "time": 172.99982700000015,
          "velocity": 1,
          "duration": 0.3333330000000103
        },
        {
          "name": "E6",
          "midi": 88,
          "time": 175.33315800000017,
          "velocity": 1,
          "duration": 0.49999950000000126
        },
        {
          "name": "C6",
          "midi": 84,
          "time": 175.83315750000017,
          "velocity": 1,
          "duration": 0.16666649999999095
        },
        {
          "name": "G5",
          "midi": 79,
          "time": 175.99982400000016,
          "velocity": 1,
          "duration": 0.3333330000000103
        },
        {
          "name": "C6",
          "midi": 84,
          "time": 176.33315700000017,
          "velocity": 1,
          "duration": 0.49999950000000126
        },
        {
          "name": "E5",
          "midi": 76,
          "time": 176.83315650000017,
          "velocity": 1,
          "duration": 0.16666649999999095
        },
        {
          "name": "F5",
          "midi": 77,
          "time": 176.99982300000016,
          "velocity": 1,
          "duration": 0.3333330000000103
        },
        {
          "name": "G5",
          "midi": 79,
          "time": 178.33315500000018,
          "velocity": 1,
          "duration": 0.49999950000000126
        },
        {
          "name": "C6",
          "midi": 84,
          "time": 178.83315450000018,
          "velocity": 1,
          "duration": 0.16666649999999095
        },
        {
          "name": "B5",
          "midi": 83,
          "time": 178.99982100000017,
          "velocity": 1,
          "duration": 0.16666649999999095
        },
        {
          "name": "C6",
          "midi": 84,
          "time": 179.16648750000016,
          "velocity": 1,
          "duration": 0.16666649999999095
        },
        {
          "name": "D6",
          "midi": 86,
          "time": 179.33315400000015,
          "velocity": 1,
          "duration": 0.16666649999999095
        },
        {
          "name": "E6",
          "midi": 88,
          "time": 179.49982050000014,
          "velocity": 1,
          "duration": 0.16666649999999095
        },
        {
          "name": "F6",
          "midi": 89,
          "time": 179.66648700000013,
          "velocity": 1,
          "duration": 0.3333330000000103
        },
        {
          "name": "D6",
          "midi": 86,
          "time": 180.33315300000015,
          "velocity": 1,
          "duration": 0.49999950000000126
        },
        {
          "name": "F5",
          "midi": 77,
          "time": 180.83315250000015,
          "velocity": 1,
          "duration": 0.16666649999999095
        },
        {
          "name": "D#5",
          "midi": 75,
          "time": 180.99981900000014,
          "velocity": 1,
          "duration": 0.3333330000000103
        },
        {
          "name": "G#5",
          "midi": 80,
          "time": 183.99981600000015,
          "velocity": 1,
          "duration": 1.3333320000000128
        },
        {
          "name": "A5",
          "midi": 81,
          "time": 187.99981200000016,
          "velocity": 1,
          "duration": 1.3333320000000128
        },
        {
          "name": "F6",
          "midi": 89,
          "time": 189.33314400000017,
          "velocity": 1,
          "duration": 0.3333330000000103
        },
        {
          "name": "D6",
          "midi": 86,
          "time": 189.33314400000017,
          "velocity": 1,
          "duration": 0.3333330000000103
        },
        {
          "name": "F6",
          "midi": 89,
          "time": 189.66647700000019,
          "velocity": 1,
          "duration": 0.3333330000000103
        },
        {
          "name": "D6",
          "midi": 86,
          "time": 189.66647700000019,
          "velocity": 1,
          "duration": 0.3333330000000103
        },
        {
          "name": "F6",
          "midi": 89,
          "time": 189.9998100000002,
          "velocity": 1,
          "duration": 0.3333330000000103
        },
        {
          "name": "D6",
          "midi": 86,
          "time": 189.9998100000002,
          "velocity": 1,
          "duration": 0.3333330000000103
        },
        {
          "name": "F6",
          "midi": 89,
          "time": 190.3331430000002,
          "velocity": 1,
          "duration": 0.3333330000000103
        },
        {
          "name": "D6",
          "midi": 86,
          "time": 190.3331430000002,
          "velocity": 1,
          "duration": 0.3333330000000103
        },
        {
          "name": "F6",
          "midi": 89,
          "time": 190.66647600000022,
          "velocity": 1,
          "duration": 0.3333330000000103
        },
        {
          "name": "D6",
          "midi": 86,
          "time": 190.66647600000022,
          "velocity": 1,
          "duration": 0.3333330000000103
        },
        {
          "name": "F6",
          "midi": 89,
          "time": 190.99980900000023,
          "velocity": 1,
          "duration": 1.999998000000005
        },
        {
          "name": "D6",
          "midi": 86,
          "time": 190.99980900000023,
          "velocity": 1,
          "duration": 1.999998000000005
        },
        {
          "name": "G6",
          "midi": 91,
          "time": 192.99980700000023,
          "velocity": 1,
          "duration": 0.3333330000000103
        },
        {
          "name": "C#6",
          "midi": 85,
          "time": 192.99980700000023,
          "velocity": 1,
          "duration": 0.3333330000000103
        },
        {
          "name": "G6",
          "midi": 91,
          "time": 193.33314000000024,
          "velocity": 1,
          "duration": 0.3333330000000103
        },
        {
          "name": "C#6",
          "midi": 85,
          "time": 193.33314000000024,
          "velocity": 1,
          "duration": 0.3333330000000103
        },
        {
          "name": "G6",
          "midi": 91,
          "time": 193.66647300000025,
          "velocity": 1,
          "duration": 0.3333330000000103
        },
        {
          "name": "C#6",
          "midi": 85,
          "time": 193.66647300000025,
          "velocity": 1,
          "duration": 0.3333330000000103
        },
        {
          "name": "G6",
          "midi": 91,
          "time": 193.99980600000026,
          "velocity": 1,
          "duration": 0.3333330000000103
        },
        {
          "name": "C#6",
          "midi": 85,
          "time": 193.99980600000026,
          "velocity": 1,
          "duration": 0.3333330000000103
        },
        {
          "name": "G6",
          "midi": 91,
          "time": 194.33313900000027,
          "velocity": 1,
          "duration": 0.3333330000000103
        },
        {
          "name": "C#6",
          "midi": 85,
          "time": 194.33313900000027,
          "velocity": 1,
          "duration": 0.3333330000000103
        },
        {
          "name": "G6",
          "midi": 91,
          "time": 194.66647200000028,
          "velocity": 1,
          "duration": 0.3333330000000103
        },
        {
          "name": "C#6",
          "midi": 85,
          "time": 194.66647200000028,
          "velocity": 1,
          "duration": 0.3333330000000103
        },
        {
          "name": "C#6",
          "midi": 85,
          "time": 194.9998050000003,
          "velocity": 1,
          "duration": 1.6666649999999947
        },
        {
          "name": "G6",
          "midi": 91,
          "time": 194.9998050000003,
          "velocity": 1,
          "duration": 1.6666649999999947
        },
        {
          "name": "E6",
          "midi": 88,
          "time": 196.6664700000003,
          "velocity": 1,
          "duration": 0.3333330000000103
        },
        {
          "name": "C#6",
          "midi": 85,
          "time": 196.6664700000003,
          "velocity": 1,
          "duration": 0.3333330000000103
        },
        {
          "name": "D6",
          "midi": 86,
          "time": 196.9998030000003,
          "velocity": 1,
          "duration": 0.16666649999999095
        },
        {
          "name": "D6",
          "midi": 86,
          "time": 197.4998025000003,
          "velocity": 1,
          "duration": 0.16666649999999095
        },
        {
          "name": "D6",
          "midi": 86,
          "time": 197.6664690000003,
          "velocity": 1,
          "duration": 0.16666649999999095
        },
        {
          "name": "D6",
          "midi": 86,
          "time": 198.49980150000027,
          "velocity": 1,
          "duration": 0.16666649999999095
        },
        {
          "name": "D6",
          "midi": 86,
          "time": 198.66646800000026,
          "velocity": 1,
          "duration": 0.16666649999999095
        },
        {
          "name": "D6",
          "midi": 86,
          "time": 199.16646750000027,
          "velocity": 1,
          "duration": 0.16666649999999095
        },
        {
          "name": "D6",
          "midi": 86,
          "time": 199.33313400000026,
          "velocity": 1,
          "duration": 0.16666649999999095
        },
        {
          "name": "D6",
          "midi": 86,
          "time": 199.49980050000025,
          "velocity": 1,
          "duration": 0.16666649999999095
        },
        {
          "name": "D6",
          "midi": 86,
          "time": 199.66646700000024,
          "velocity": 1,
          "duration": 0.16666649999999095
        },
        {
          "name": "D6",
          "midi": 86,
          "time": 199.83313350000023,
          "velocity": 1,
          "duration": 0.16666649999999095
        },
        {
          "name": "D6",
          "midi": 86,
          "time": 199.99980000000022,
          "velocity": 1,
          "duration": 0.3333330000000103
        },
        {
          "name": "D6",
          "midi": 86,
          "time": 200.99979900000022,
          "velocity": 1,
          "duration": 0.3333330000000103
        },
        {
          "name": "A#5",
          "midi": 82,
          "time": 200.99979900000022,
          "velocity": 1,
          "duration": 0.3333330000000103
        },
        {
          "name": "D6",
          "midi": 86,
          "time": 201.33313200000023,
          "velocity": 1,
          "duration": 0.3333330000000103
        },
        {
          "name": "A#5",
          "midi": 82,
          "time": 201.33313200000023,
          "velocity": 1,
          "duration": 0.3333330000000103
        },
        {
          "name": "D6",
          "midi": 86,
          "time": 201.66646500000024,
          "velocity": 1,
          "duration": 0.3333330000000103
        },
        {
          "name": "A#5",
          "midi": 82,
          "time": 201.66646500000024,
          "velocity": 1,
          "duration": 0.3333330000000103
        },
        {
          "name": "D6",
          "midi": 86,
          "time": 201.99979800000025,
          "velocity": 1,
          "duration": 0.3333330000000103
        },
        {
          "name": "A#5",
          "midi": 82,
          "time": 201.99979800000025,
          "velocity": 1,
          "duration": 0.3333330000000103
        },
        {
          "name": "D6",
          "midi": 86,
          "time": 202.33313100000026,
          "velocity": 1,
          "duration": 0.3333330000000103
        },
        {
          "name": "A#5",
          "midi": 82,
          "time": 202.33313100000026,
          "velocity": 1,
          "duration": 0.3333330000000103
        },
        {
          "name": "D6",
          "midi": 86,
          "time": 202.66646400000027,
          "velocity": 1,
          "duration": 0.3333330000000103
        },
        {
          "name": "A#5",
          "midi": 82,
          "time": 202.66646400000027,
          "velocity": 1,
          "duration": 0.3333330000000103
        },
        {
          "name": "A#5",
          "midi": 82,
          "time": 202.99979700000029,
          "velocity": 1,
          "duration": 1.999998000000005
        },
        {
          "name": "D6",
          "midi": 86,
          "time": 202.99979700000029,
          "velocity": 1,
          "duration": 1.999998000000005
        },
        {
          "name": "D6",
          "midi": 86,
          "time": 204.9997950000003,
          "velocity": 1,
          "duration": 0.3333330000000103
        },
        {
          "name": "C6",
          "midi": 84,
          "time": 204.9997950000003,
          "velocity": 1,
          "duration": 0.3333330000000103
        },
        {
          "name": "D6",
          "midi": 86,
          "time": 205.3331280000003,
          "velocity": 1,
          "duration": 0.3333330000000103
        },
        {
          "name": "C6",
          "midi": 84,
          "time": 205.3331280000003,
          "velocity": 1,
          "duration": 0.3333330000000103
        },
        {
          "name": "D6",
          "midi": 86,
          "time": 205.6664610000003,
          "velocity": 1,
          "duration": 0.3333330000000103
        },
        {
          "name": "C6",
          "midi": 84,
          "time": 205.6664610000003,
          "velocity": 1,
          "duration": 0.3333330000000103
        },
        {
          "name": "D6",
          "midi": 86,
          "time": 205.99979400000032,
          "velocity": 1,
          "duration": 0.3333330000000103
        },
        {
          "name": "C6",
          "midi": 84,
          "time": 205.99979400000032,
          "velocity": 1,
          "duration": 0.3333330000000103
        },
        {
          "name": "D6",
          "midi": 86,
          "time": 206.33312700000033,
          "velocity": 1,
          "duration": 0.3333330000000103
        },
        {
          "name": "C6",
          "midi": 84,
          "time": 206.33312700000033,
          "velocity": 1,
          "duration": 0.3333330000000103
        },
        {
          "name": "D6",
          "midi": 86,
          "time": 206.66646000000034,
          "velocity": 1,
          "duration": 0.3333330000000103
        },
        {
          "name": "C6",
          "midi": 84,
          "time": 206.66646000000034,
          "velocity": 1,
          "duration": 0.3333330000000103
        },
        {
          "name": "C6",
          "midi": 84,
          "time": 206.99979300000035,
          "velocity": 1,
          "duration": 1.6666649999999947
        },
        {
          "name": "D6",
          "midi": 86,
          "time": 206.99979300000035,
          "velocity": 1,
          "duration": 1.6666649999999947
        },
        {
          "name": "D6",
          "midi": 86,
          "time": 208.66645800000035,
          "velocity": 1,
          "duration": 0.3333330000000103
        },
        {
          "name": "F#5",
          "midi": 78,
          "time": 208.66645800000035,
          "velocity": 1,
          "duration": 0.3333330000000103
        },
        {
          "name": "D6",
          "midi": 86,
          "time": 208.99979100000036,
          "velocity": 1,
          "duration": 0.3333330000000103
        },
        {
          "name": "G5",
          "midi": 79,
          "time": 208.99979100000036,
          "velocity": 1,
          "duration": 0.3333330000000103
        },
        {
          "name": "C6",
          "midi": 84,
          "time": 213.49978650000037,
          "velocity": 1,
          "duration": 0.16666649999999095
        },
        {
          "name": "C6",
          "midi": 84,
          "time": 213.66645300000036,
          "velocity": 1,
          "duration": 0.16666649999999095
        },
        {
          "name": "C6",
          "midi": 84,
          "time": 214.49978550000034,
          "velocity": 1,
          "duration": 0.16666649999999095
        },
        {
          "name": "C6",
          "midi": 84,
          "time": 214.66645200000033,
          "velocity": 1,
          "duration": 0.16666649999999095
        },
        {
          "name": "C6",
          "midi": 84,
          "time": 215.16645150000033,
          "velocity": 1,
          "duration": 0.16666649999999095
        },
        {
          "name": "C6",
          "midi": 84,
          "time": 215.33311800000033,
          "velocity": 1,
          "duration": 0.16666649999999095
        },
        {
          "name": "C6",
          "midi": 84,
          "time": 215.49978450000032,
          "velocity": 1,
          "duration": 0.16666649999999095
        },
        {
          "name": "C6",
          "midi": 84,
          "time": 215.6664510000003,
          "velocity": 1,
          "duration": 0.16666649999999095
        },
        {
          "name": "C6",
          "midi": 84,
          "time": 215.8331175000003,
          "velocity": 1,
          "duration": 0.16666649999999095
        },
        {
          "name": "C6",
          "midi": 84,
          "time": 215.9997840000003,
          "velocity": 1,
          "duration": 0.3333330000000103
        },
        {
          "name": "F6",
          "midi": 89,
          "time": 217.4997825000003,
          "velocity": 1,
          "duration": 0.16666649999999095
        },
        {
          "name": "F6",
          "midi": 89,
          "time": 217.66644900000028,
          "velocity": 1,
          "duration": 0.16666649999999095
        },
        {
          "name": "A#5",
          "midi": 82,
          "time": 218.49978150000027,
          "velocity": 1,
          "duration": 0.16666649999999095
        },
        {
          "name": "A#5",
          "midi": 82,
          "time": 218.66644800000026,
          "velocity": 1,
          "duration": 0.16666649999999095
        },
        {
          "name": "D#6",
          "midi": 87,
          "time": 219.49978050000024,
          "velocity": 1,
          "duration": 0.16666649999999095
        },
        {
          "name": "D#6",
          "midi": 87,
          "time": 219.66644700000023,
          "velocity": 1,
          "duration": 0.16666649999999095
        },
        {
          "name": "G#5",
          "midi": 80,
          "time": 220.16644650000023,
          "velocity": 1,
          "duration": 0.16666649999999095
        },
        {
          "name": "G#5",
          "midi": 80,
          "time": 220.33311300000022,
          "velocity": 1,
          "duration": 0.16666649999999095
        },
        {
          "name": "G#5",
          "midi": 80,
          "time": 220.49977950000022,
          "velocity": 1,
          "duration": 0.16666649999999095
        },
        {
          "name": "G#5",
          "midi": 80,
          "time": 220.6664460000002,
          "velocity": 1,
          "duration": 0.16666649999999095
        },
        {
          "name": "G#5",
          "midi": 80,
          "time": 220.8331125000002,
          "velocity": 1,
          "duration": 0.16666649999999095
        },
        {
          "name": "C#6",
          "midi": 85,
          "time": 220.9997790000002,
          "velocity": 1,
          "duration": 0.9999990000000025
        },
        {
          "name": "G#5",
          "midi": 80,
          "time": 220.9997790000002,
          "velocity": 1,
          "duration": 0.9999990000000025
        },
        {
          "name": "D6",
          "midi": 86,
          "time": 221.9997780000002,
          "velocity": 1,
          "duration": 0.9999990000000025
        },
        {
          "name": "G#5",
          "midi": 80,
          "time": 221.9997780000002,
          "velocity": 1,
          "duration": 0.9999990000000025
        },
        {
          "name": "D#6",
          "midi": 87,
          "time": 222.9997770000002,
          "velocity": 1,
          "duration": 0.3333330000000103
        },
        {
          "name": "G5",
          "midi": 79,
          "time": 222.9997770000002,
          "velocity": 1,
          "duration": 0.3333330000000103
        },
        {
          "name": "C#6",
          "midi": 85,
          "time": 225.3331080000002,
          "velocity": 1,
          "duration": 0.49999950000000126
        },
        {
          "name": "A#5",
          "midi": 82,
          "time": 225.8331075000002,
          "velocity": 1,
          "duration": 0.16666649999999095
        },
        {
          "name": "G5",
          "midi": 79,
          "time": 225.9997740000002,
          "velocity": 1,
          "duration": 0.3333330000000103
        },
        {
          "name": "C6",
          "midi": 84,
          "time": 229.33310400000022,
          "velocity": 1,
          "duration": 0.49999950000000126
        },
        {
          "name": "G#5",
          "midi": 80,
          "time": 229.83310350000022,
          "velocity": 1,
          "duration": 0.16666649999999095
        },
        {
          "name": "D#5",
          "midi": 75,
          "time": 229.9997700000002,
          "velocity": 1,
          "duration": 0.3333330000000103
        },
        {
          "name": "D#5",
          "midi": 75,
          "time": 231.99976800000022,
          "velocity": 1,
          "duration": 1.1666654999999935
        },
        {
          "name": "F5",
          "midi": 77,
          "time": 233.1664335000002,
          "velocity": 1,
          "duration": 0.16666649999999095
        },
        {
          "name": "G5",
          "midi": 79,
          "time": 233.3331000000002,
          "velocity": 1,
          "duration": 0.16666649999999095
        },
        {
          "name": "G#5",
          "midi": 80,
          "time": 233.4997665000002,
          "velocity": 1,
          "duration": 0.16666649999999095
        },
        {
          "name": "A#5",
          "midi": 82,
          "time": 233.66643300000018,
          "velocity": 1,
          "duration": 0.16666649999999095
        },
        {
          "name": "C6",
          "midi": 84,
          "time": 233.83309950000017,
          "velocity": 1,
          "duration": 0.16666649999999095
        },
        {
          "name": "C#6",
          "midi": 85,
          "time": 233.99976600000016,
          "velocity": 1,
          "duration": 0.16666649999999095
        },
        {
          "name": "C6",
          "midi": 84,
          "time": 234.16643250000016,
          "velocity": 1,
          "duration": 0.16666649999999095
        },
        {
          "name": "C#6",
          "midi": 85,
          "time": 234.33309900000015,
          "velocity": 1,
          "duration": 0.16666649999999095
        },
        {
          "name": "D#6",
          "midi": 87,
          "time": 234.49976550000014,
          "velocity": 1,
          "duration": 0.16666649999999095
        },
        {
          "name": "F6",
          "midi": 89,
          "time": 234.66643200000013,
          "velocity": 1,
          "duration": 0.16666649999999095
        },
        {
          "name": "G6",
          "midi": 91,
          "time": 234.83309850000012,
          "velocity": 1,
          "duration": 0.16666649999999095
        },
        {
          "name": "G#6",
          "midi": 92,
          "time": 234.9997650000001,
          "velocity": 1,
          "duration": 0.3333330000000103
        },
        {
          "name": "C5",
          "midi": 72,
          "time": 235.66643100000013,
          "velocity": 1,
          "duration": 0.49999950000000126
        },
        {
          "name": "D5",
          "midi": 74,
          "time": 236.16643050000013,
          "velocity": 1,
          "duration": 0.16666649999999095
        },
        {
          "name": "E5",
          "midi": 76,
          "time": 236.33309700000012,
          "velocity": 1,
          "duration": 0.16666649999999095
        },
        {
          "name": "F5",
          "midi": 77,
          "time": 236.4997635000001,
          "velocity": 1,
          "duration": 0.16666649999999095
        },
        {
          "name": "G5",
          "midi": 79,
          "time": 236.6664300000001,
          "velocity": 1,
          "duration": 0.16666649999999095
        },
        {
          "name": "G#5",
          "midi": 80,
          "time": 236.8330965000001,
          "velocity": 1,
          "duration": 0.16666649999999095
        },
        {
          "name": "A#5",
          "midi": 82,
          "time": 236.9997630000001,
          "velocity": 1,
          "duration": 0.3333330000000103
        },
        {
          "name": "C#6",
          "midi": 85,
          "time": 238.1664285000001,
          "velocity": 1,
          "duration": 0.16666649999999095
        },
        {
          "name": "C6",
          "midi": 84,
          "time": 238.3330950000001,
          "velocity": 1,
          "duration": 0.16666649999999095
        },
        {
          "name": "A#5",
          "midi": 82,
          "time": 238.4997615000001,
          "velocity": 1,
          "duration": 0.16666649999999095
        },
        {
          "name": "G#5",
          "midi": 80,
          "time": 238.66642800000008,
          "velocity": 1,
          "duration": 0.16666649999999095
        },
        {
          "name": "G5",
          "midi": 79,
          "time": 238.83309450000007,
          "velocity": 1,
          "duration": 0.16666649999999095
        },
        {
          "name": "G#5",
          "midi": 80,
          "time": 238.99976100000006,
          "velocity": 1,
          "duration": 0.3333330000000103
        },
        {
          "name": "A5",
          "midi": 81,
          "time": 248.33308500000007,
          "velocity": 1,
          "duration": 0.3333330000000103
        },
        {
          "name": "F5",
          "midi": 77,
          "time": 248.33308500000007,
          "velocity": 1,
          "duration": 0.3333330000000103
        },
        {
          "name": "F6",
          "midi": 89,
          "time": 248.66641800000008,
          "velocity": 1,
          "duration": 0.6666659999999922
        },
        {
          "name": "A6",
          "midi": 93,
          "time": 248.66641800000008,
          "velocity": 1,
          "duration": 0.6666659999999922
        },
        {
          "name": "G6",
          "midi": 91,
          "time": 249.33308400000007,
          "velocity": 1,
          "duration": 0.3333330000000103
        },
        {
          "name": "E6",
          "midi": 88,
          "time": 249.33308400000007,
          "velocity": 1,
          "duration": 0.3333330000000103
        },
        {
          "name": "F6",
          "midi": 89,
          "time": 250.33308300000007,
          "velocity": 1,
          "duration": 0.16666649999999095
        },
        {
          "name": "D6",
          "midi": 86,
          "time": 250.33308300000007,
          "velocity": 1,
          "duration": 0.16666649999999095
        },
        {
          "name": "F6",
          "midi": 89,
          "time": 250.49974950000006,
          "velocity": 1,
          "duration": 0.16666649999999095
        },
        {
          "name": "D6",
          "midi": 86,
          "time": 250.49974950000006,
          "velocity": 1,
          "duration": 0.16666649999999095
        },
        {
          "name": "F6",
          "midi": 89,
          "time": 250.66641600000005,
          "velocity": 1,
          "duration": 0.16666649999999095
        },
        {
          "name": "D6",
          "midi": 86,
          "time": 250.66641600000005,
          "velocity": 1,
          "duration": 0.16666649999999095
        },
        {
          "name": "F6",
          "midi": 89,
          "time": 250.83308250000005,
          "velocity": 1,
          "duration": 0.16666649999999095
        },
        {
          "name": "D6",
          "midi": 86,
          "time": 250.83308250000005,
          "velocity": 1,
          "duration": 0.16666649999999095
        },
        {
          "name": "F6",
          "midi": 89,
          "time": 250.99974900000004,
          "velocity": 1,
          "duration": 0.3333330000000103
        },
        {
          "name": "B5",
          "midi": 83,
          "time": 250.99974900000004,
          "velocity": 1,
          "duration": 0.3333330000000103
        },
        {
          "name": "B5",
          "midi": 83,
          "time": 251.33308200000005,
          "velocity": 1,
          "duration": 1.999998000000005
        },
        {
          "name": "F6",
          "midi": 89,
          "time": 251.33308200000005,
          "velocity": 1,
          "duration": 1.999998000000005
        },
        {
          "name": "F6",
          "midi": 89,
          "time": 253.33308000000005,
          "velocity": 1,
          "duration": 0.6666659999999922
        },
        {
          "name": "B5",
          "midi": 83,
          "time": 253.33308000000005,
          "velocity": 1,
          "duration": 0.6666659999999922
        },
        {
          "name": "F6",
          "midi": 89,
          "time": 253.99974600000004,
          "velocity": 1,
          "duration": 0.6666659999999922
        },
        {
          "name": "B5",
          "midi": 83,
          "time": 253.99974600000004,
          "velocity": 1,
          "duration": 0.6666659999999922
        },
        {
          "name": "F6",
          "midi": 89,
          "time": 254.66641200000004,
          "velocity": 1,
          "duration": 0.6666659999999922
        },
        {
          "name": "B5",
          "midi": 83,
          "time": 254.66641200000004,
          "velocity": 1,
          "duration": 0.6666659999999922
        },
        {
          "name": "B5",
          "midi": 83,
          "time": 255.33307800000003,
          "velocity": 1,
          "duration": 0.6666659999999922
        },
        {
          "name": "F6",
          "midi": 89,
          "time": 255.33307800000003,
          "velocity": 1,
          "duration": 0.6666659999999922
        },
        {
          "name": "F6",
          "midi": 89,
          "time": 255.99974400000002,
          "velocity": 1,
          "duration": 0.6666660000000206
        },
        {
          "name": "B5",
          "midi": 83,
          "time": 255.99974400000002,
          "velocity": 1,
          "duration": 0.6666660000000206
        },
        {
          "name": "F6",
          "midi": 89,
          "time": 256.66641000000004,
          "velocity": 1,
          "duration": 0.3333329999999819
        },
        {
          "name": "B5",
          "midi": 83,
          "time": 256.66641000000004,
          "velocity": 1,
          "duration": 0.3333329999999819
        },
        {
          "name": "E6",
          "midi": 88,
          "time": 257.333076,
          "velocity": 1,
          "duration": 1.999998000000005
        },
        {
          "name": "C6",
          "midi": 84,
          "time": 257.333076,
          "velocity": 1,
          "duration": 1.999998000000005
        },
        {
          "name": "E6",
          "midi": 88,
          "time": 259.333074,
          "velocity": 1,
          "duration": 0.6666660000000206
        },
        {
          "name": "A5",
          "midi": 81,
          "time": 259.333074,
          "velocity": 1,
          "duration": 0.6666660000000206
        },
        {
          "name": "E6",
          "midi": 88,
          "time": 259.99974000000003,
          "velocity": 1,
          "duration": 0.6666660000000206
        },
        {
          "name": "A5",
          "midi": 81,
          "time": 259.99974000000003,
          "velocity": 1,
          "duration": 0.6666660000000206
        },
        {
          "name": "A5",
          "midi": 81,
          "time": 260.66640600000005,
          "velocity": 1,
          "duration": 0.6666660000000206
        },
        {
          "name": "E6",
          "midi": 88,
          "time": 260.66640600000005,
          "velocity": 1,
          "duration": 0.6666660000000206
        },
        {
          "name": "E6",
          "midi": 88,
          "time": 261.3330720000001,
          "velocity": 1,
          "duration": 0.6666660000000206
        },
        {
          "name": "A5",
          "midi": 81,
          "time": 261.3330720000001,
          "velocity": 1,
          "duration": 0.6666660000000206
        },
        {
          "name": "E6",
          "midi": 88,
          "time": 261.9997380000001,
          "velocity": 1,
          "duration": 0.6666660000000206
        },
        {
          "name": "A5",
          "midi": 81,
          "time": 261.9997380000001,
          "velocity": 1,
          "duration": 0.6666660000000206
        },
        {
          "name": "E6",
          "midi": 88,
          "time": 262.6664040000001,
          "velocity": 1,
          "duration": 0.3333329999999819
        },
        {
          "name": "A5",
          "midi": 81,
          "time": 262.6664040000001,
          "velocity": 1,
          "duration": 0.3333329999999819
        },
        {
          "name": "D#6",
          "midi": 87,
          "time": 263.3330700000001,
          "velocity": 1,
          "duration": 1.999998000000005
        },
        {
          "name": "A5",
          "midi": 81,
          "time": 263.3330700000001,
          "velocity": 1,
          "duration": 1.999998000000005
        },
        {
          "name": "D#6",
          "midi": 87,
          "time": 265.3330680000001,
          "velocity": 1,
          "duration": 0.6666660000000206
        },
        {
          "name": "A5",
          "midi": 81,
          "time": 265.3330680000001,
          "velocity": 1,
          "duration": 0.6666660000000206
        },
        {
          "name": "D#6",
          "midi": 87,
          "time": 265.9997340000001,
          "velocity": 1,
          "duration": 0.6666660000000206
        },
        {
          "name": "A5",
          "midi": 81,
          "time": 265.9997340000001,
          "velocity": 1,
          "duration": 0.6666660000000206
        },
        {
          "name": "D#6",
          "midi": 87,
          "time": 266.6664000000001,
          "velocity": 1,
          "duration": 0.6666660000000206
        },
        {
          "name": "A5",
          "midi": 81,
          "time": 266.6664000000001,
          "velocity": 1,
          "duration": 0.6666660000000206
        },
        {
          "name": "D#6",
          "midi": 87,
          "time": 267.33306600000014,
          "velocity": 1,
          "duration": 0.6666660000000206
        },
        {
          "name": "A5",
          "midi": 81,
          "time": 267.33306600000014,
          "velocity": 1,
          "duration": 0.6666660000000206
        },
        {
          "name": "D#6",
          "midi": 87,
          "time": 267.99973200000017,
          "velocity": 1,
          "duration": 0.6666660000000206
        },
        {
          "name": "A5",
          "midi": 81,
          "time": 267.99973200000017,
          "velocity": 1,
          "duration": 0.6666660000000206
        },
        {
          "name": "D#6",
          "midi": 87,
          "time": 268.6663980000002,
          "velocity": 1,
          "duration": 0.3333329999999819
        },
        {
          "name": "A5",
          "midi": 81,
          "time": 268.6663980000002,
          "velocity": 1,
          "duration": 0.3333329999999819
        },
        {
          "name": "C#6",
          "midi": 85,
          "time": 269.33306400000015,
          "velocity": 1,
          "duration": 1.999998000000005
        },
        {
          "name": "E6",
          "midi": 88,
          "time": 269.33306400000015,
          "velocity": 1,
          "duration": 1.999998000000005
        },
        {
          "name": "E6",
          "midi": 88,
          "time": 271.33306200000015,
          "velocity": 1,
          "duration": 0.6666660000000206
        },
        {
          "name": "C#6",
          "midi": 85,
          "time": 271.33306200000015,
          "velocity": 1,
          "duration": 0.6666660000000206
        },
        {
          "name": "E6",
          "midi": 88,
          "time": 271.9997280000002,
          "velocity": 1,
          "duration": 0.6666660000000206
        },
        {
          "name": "C#6",
          "midi": 85,
          "time": 271.9997280000002,
          "velocity": 1,
          "duration": 0.6666660000000206
        },
        {
          "name": "E6",
          "midi": 88,
          "time": 272.6663940000002,
          "velocity": 1,
          "duration": 0.6666660000000206
        },
        {
          "name": "C#6",
          "midi": 85,
          "time": 272.6663940000002,
          "velocity": 1,
          "duration": 0.6666660000000206
        },
        {
          "name": "C#6",
          "midi": 85,
          "time": 273.3330600000002,
          "velocity": 1,
          "duration": 0.6666660000000206
        },
        {
          "name": "E6",
          "midi": 88,
          "time": 273.3330600000002,
          "velocity": 1,
          "duration": 0.6666660000000206
        },
        {
          "name": "E6",
          "midi": 88,
          "time": 273.99972600000024,
          "velocity": 1,
          "duration": 0.6666660000000206
        },
        {
          "name": "C#6",
          "midi": 85,
          "time": 273.99972600000024,
          "velocity": 1,
          "duration": 0.6666660000000206
        },
        {
          "name": "E6",
          "midi": 88,
          "time": 274.66639200000026,
          "velocity": 1,
          "duration": 0.3333329999999819
        },
        {
          "name": "C#6",
          "midi": 85,
          "time": 274.66639200000026,
          "velocity": 1,
          "duration": 0.3333329999999819
        },
        {
          "name": "D#6",
          "midi": 87,
          "time": 275.3330580000002,
          "velocity": 1,
          "duration": 0.6666660000000206
        },
        {
          "name": "C6",
          "midi": 84,
          "time": 275.3330580000002,
          "velocity": 1,
          "duration": 0.6666660000000206
        },
        {
          "name": "D#6",
          "midi": 87,
          "time": 275.99972400000024,
          "velocity": 1,
          "duration": 0.6666660000000206
        },
        {
          "name": "C6",
          "midi": 84,
          "time": 275.99972400000024,
          "velocity": 1,
          "duration": 0.6666660000000206
        },
        {
          "name": "D#6",
          "midi": 87,
          "time": 276.66639000000026,
          "velocity": 1,
          "duration": 0.3333329999999819
        },
        {
          "name": "C6",
          "midi": 84,
          "time": 276.66639000000026,
          "velocity": 1,
          "duration": 0.3333329999999819
        },
        {
          "name": "E6",
          "midi": 88,
          "time": 277.3330560000002,
          "velocity": 1,
          "duration": 0.6666660000000206
        },
        {
          "name": "C6",
          "midi": 84,
          "time": 277.3330560000002,
          "velocity": 1,
          "duration": 0.6666660000000206
        },
        {
          "name": "E6",
          "midi": 88,
          "time": 277.99972200000025,
          "velocity": 1,
          "duration": 0.6666660000000206
        },
        {
          "name": "C6",
          "midi": 84,
          "time": 277.99972200000025,
          "velocity": 1,
          "duration": 0.6666660000000206
        },
        {
          "name": "C6",
          "midi": 84,
          "time": 278.66638800000027,
          "velocity": 1,
          "duration": 0.3333329999999819
        },
        {
          "name": "E6",
          "midi": 88,
          "time": 278.66638800000027,
          "velocity": 1,
          "duration": 0.3333329999999819
        },
        {
          "name": "F6",
          "midi": 89,
          "time": 278.99972100000025,
          "velocity": 1,
          "duration": 0.6666660000000206
        },
        {
          "name": "E6",
          "midi": 88,
          "time": 278.99972100000025,
          "velocity": 1,
          "duration": 0.6666660000000206
        },
        {
          "name": "F6",
          "midi": 89,
          "time": 279.99972000000025,
          "velocity": 1,
          "duration": 0.6666660000000206
        },
        {
          "name": "E6",
          "midi": 88,
          "time": 279.99972000000025,
          "velocity": 1,
          "duration": 0.6666660000000206
        },
        {
          "name": "F6",
          "midi": 89,
          "time": 280.99971900000025,
          "velocity": 1,
          "duration": 0.6666660000000206
        },
        {
          "name": "E6",
          "midi": 88,
          "time": 280.99971900000025,
          "velocity": 1,
          "duration": 0.6666660000000206
        },
        {
          "name": "F6",
          "midi": 89,
          "time": 281.99971800000026,
          "velocity": 1,
          "duration": 0.6666660000000206
        },
        {
          "name": "E6",
          "midi": 88,
          "time": 281.99971800000026,
          "velocity": 1,
          "duration": 0.6666660000000206
        },
        {
          "name": "F6",
          "midi": 89,
          "time": 282.6663840000003,
          "velocity": 1,
          "duration": 0.3333329999999819
        },
        {
          "name": "E6",
          "midi": 88,
          "time": 282.6663840000003,
          "velocity": 1,
          "duration": 0.3333329999999819
        },
        {
          "name": "B4",
          "midi": 71,
          "time": 287.33304600000025,
          "velocity": 1,
          "duration": 0.3333329999999819
        },
        {
          "name": "B4",
          "midi": 71,
          "time": 287.66637900000023,
          "velocity": 1,
          "duration": 0.3333329999999819
        },
        {
          "name": "B4",
          "midi": 71,
          "time": 287.9997120000002,
          "velocity": 1,
          "duration": 0.49999950000000126
        },
        {
          "name": "B4",
          "midi": 71,
          "time": 288.4997115000002,
          "velocity": 1,
          "duration": 0.16666650000001937
        },
        {
          "name": "B4",
          "midi": 71,
          "time": 288.66637800000024,
          "velocity": 1,
          "duration": 0.3333329999999819
        },
        {
          "name": "B4",
          "midi": 71,
          "time": 288.9997110000002,
          "velocity": 1,
          "duration": 0.3333329999999819
        },
        {
          "name": "B4",
          "midi": 71,
          "time": 291.3330420000002,
          "velocity": 1,
          "duration": 0.3333329999999819
        },
        {
          "name": "B4",
          "midi": 71,
          "time": 291.6663750000002,
          "velocity": 1,
          "duration": 0.3333329999999819
        },
        {
          "name": "B4",
          "midi": 71,
          "time": 291.99970800000017,
          "velocity": 1,
          "duration": 0.49999950000000126
        },
        {
          "name": "B4",
          "midi": 71,
          "time": 292.49970750000017,
          "velocity": 1,
          "duration": 0.16666650000001937
        },
        {
          "name": "B4",
          "midi": 71,
          "time": 292.6663740000002,
          "velocity": 1,
          "duration": 0.3333329999999819
        },
        {
          "name": "A5",
          "midi": 81,
          "time": 295.33303800000016,
          "velocity": 1,
          "duration": 0.3333329999999819
        },
        {
          "name": "E5",
          "midi": 76,
          "time": 295.33303800000016,
          "velocity": 1,
          "duration": 0.3333329999999819
        },
        {
          "name": "G#5",
          "midi": 80,
          "time": 295.66637100000014,
          "velocity": 1,
          "duration": 0.3333329999999819
        },
        {
          "name": "E5",
          "midi": 76,
          "time": 295.66637100000014,
          "velocity": 1,
          "duration": 0.3333329999999819
        },
        {
          "name": "A5",
          "midi": 81,
          "time": 295.9997040000001,
          "velocity": 1,
          "duration": 0.49999950000000126
        },
        {
          "name": "E5",
          "midi": 76,
          "time": 295.9997040000001,
          "velocity": 1,
          "duration": 0.49999950000000126
        },
        {
          "name": "B5",
          "midi": 83,
          "time": 296.4997035000001,
          "velocity": 1,
          "duration": 0.16666650000001937
        },
        {
          "name": "E5",
          "midi": 76,
          "time": 296.4997035000001,
          "velocity": 1,
          "duration": 0.16666650000001937
        },
        {
          "name": "C6",
          "midi": 84,
          "time": 296.66637000000014,
          "velocity": 1,
          "duration": 0.3333329999999819
        },
        {
          "name": "E5",
          "midi": 76,
          "time": 296.66637000000014,
          "velocity": 1,
          "duration": 0.3333329999999819
        },
        {
          "name": "B5",
          "midi": 83,
          "time": 296.9997030000001,
          "velocity": 1,
          "duration": 0.3333329999999819
        },
        {
          "name": "E5",
          "midi": 76,
          "time": 296.9997030000001,
          "velocity": 1,
          "duration": 0.3333329999999819
        },
        {
          "name": "E6",
          "midi": 88,
          "time": 297.3330360000001,
          "velocity": 1,
          "duration": 0.3333329999999819
        },
        {
          "name": "D#6",
          "midi": 87,
          "time": 297.6663690000001,
          "velocity": 1,
          "duration": 0.3333329999999819
        },
        {
          "name": "E6",
          "midi": 88,
          "time": 297.99970200000007,
          "velocity": 1,
          "duration": 0.49999950000000126
        },
        {
          "name": "D6",
          "midi": 86,
          "time": 298.49970150000007,
          "velocity": 1,
          "duration": 0.16666650000001937
        },
        {
          "name": "C6",
          "midi": 84,
          "time": 298.6663680000001,
          "velocity": 1,
          "duration": 0.16666650000001937
        },
        {
          "name": "B5",
          "midi": 83,
          "time": 298.8330345000001,
          "velocity": 1,
          "duration": 0.16666650000001937
        },
        {
          "name": "A5",
          "midi": 81,
          "time": 298.99970100000013,
          "velocity": 1,
          "duration": 0.3333329999999819
        },
        {
          "name": "A5",
          "midi": 81,
          "time": 299.3330340000001,
          "velocity": 1,
          "duration": 0.3333329999999819
        },
        {
          "name": "E5",
          "midi": 76,
          "time": 299.3330340000001,
          "velocity": 1,
          "duration": 0.3333329999999819
        },
        {
          "name": "G#5",
          "midi": 80,
          "time": 299.6663670000001,
          "velocity": 1,
          "duration": 0.3333329999999819
        },
        {
          "name": "E5",
          "midi": 76,
          "time": 299.6663670000001,
          "velocity": 1,
          "duration": 0.3333329999999819
        },
        {
          "name": "A5",
          "midi": 81,
          "time": 299.9997000000001,
          "velocity": 1,
          "duration": 0.49999950000000126
        },
        {
          "name": "E5",
          "midi": 76,
          "time": 299.9997000000001,
          "velocity": 1,
          "duration": 0.49999950000000126
        },
        {
          "name": "B5",
          "midi": 83,
          "time": 300.4996995000001,
          "velocity": 1,
          "duration": 0.16666650000001937
        },
        {
          "name": "E5",
          "midi": 76,
          "time": 300.4996995000001,
          "velocity": 1,
          "duration": 0.16666650000001937
        },
        {
          "name": "E5",
          "midi": 76,
          "time": 300.6663660000001,
          "velocity": 1,
          "duration": 0.3333329999999819
        },
        {
          "name": "C6",
          "midi": 84,
          "time": 300.6663660000001,
          "velocity": 1,
          "duration": 0.3333329999999819
        },
        {
          "name": "B5",
          "midi": 83,
          "time": 300.9996990000001,
          "velocity": 1,
          "duration": 0.3333329999999819
        },
        {
          "name": "E5",
          "midi": 76,
          "time": 300.9996990000001,
          "velocity": 1,
          "duration": 0.3333329999999819
        },
        {
          "name": "E6",
          "midi": 88,
          "time": 301.33303200000006,
          "velocity": 1,
          "duration": 0.3333329999999819
        },
        {
          "name": "D#6",
          "midi": 87,
          "time": 301.66636500000004,
          "velocity": 1,
          "duration": 0.3333329999999819
        },
        {
          "name": "E6",
          "midi": 88,
          "time": 301.999698,
          "velocity": 1,
          "duration": 0.3333329999999819
        },
        {
          "name": "C6",
          "midi": 84,
          "time": 307.999692,
          "velocity": 1,
          "duration": 0.3333329999999819
        },
        {
          "name": "E6",
          "midi": 88,
          "time": 308.33302499999996,
          "velocity": 1,
          "duration": 0.3333329999999819
        },
        {
          "name": "G6",
          "midi": 91,
          "time": 308.66635799999995,
          "velocity": 1,
          "duration": 0.49999950000000126
        },
        {
          "name": "F6",
          "midi": 89,
          "time": 309.16635749999995,
          "velocity": 1,
          "duration": 0.16666650000001937
        },
        {
          "name": "D6",
          "midi": 86,
          "time": 309.33302399999997,
          "velocity": 1,
          "duration": 0.16666650000001937
        },
        {
          "name": "B5",
          "midi": 83,
          "time": 309.4996905,
          "velocity": 1,
          "duration": 0.16666650000001937
        },
        {
          "name": "G5",
          "midi": 79,
          "time": 309.666357,
          "velocity": 1,
          "duration": 0.16666650000001937
        },
        {
          "name": "F5",
          "midi": 77,
          "time": 309.8330235,
          "velocity": 1,
          "duration": 0.16666650000001937
        },
        {
          "name": "D5",
          "midi": 74,
          "time": 309.99969000000004,
          "velocity": 1,
          "duration": 0.16666650000001937
        },
        {
          "name": "F5",
          "midi": 77,
          "time": 310.16635650000006,
          "velocity": 1,
          "duration": 0.16666650000001937
        },
        {
          "name": "D5",
          "midi": 74,
          "time": 310.3330230000001,
          "velocity": 1,
          "duration": 0.16666650000001937
        },
        {
          "name": "B4",
          "midi": 71,
          "time": 310.4996895000001,
          "velocity": 1,
          "duration": 0.16666650000001937
        },
        {
          "name": "G4",
          "midi": 67,
          "time": 310.6663560000001,
          "velocity": 1,
          "duration": 0.16666650000001937
        },
        {
          "name": "B4",
          "midi": 71,
          "time": 310.83302250000014,
          "velocity": 1,
          "duration": 0.16666650000001937
        },
        {
          "name": "C5",
          "midi": 72,
          "time": 310.99968900000016,
          "velocity": 1,
          "duration": 0.3333329999999819
        },
        {
          "name": "D#5",
          "midi": 75,
          "time": 311.33302200000014,
          "velocity": 1,
          "duration": 0.3333329999999819
        },
        {
          "name": "G5",
          "midi": 79,
          "time": 311.6663550000001,
          "velocity": 1,
          "duration": 0.3333329999999819
        },
        {
          "name": "C6",
          "midi": 84,
          "time": 311.9996880000001,
          "velocity": 1,
          "duration": 0.3333329999999819
        },
        {
          "name": "D#6",
          "midi": 87,
          "time": 312.3330210000001,
          "velocity": 1,
          "duration": 0.3333329999999819
        },
        {
          "name": "G6",
          "midi": 91,
          "time": 312.66635400000007,
          "velocity": 1,
          "duration": 0.49999950000000126
        },
        {
          "name": "F6",
          "midi": 89,
          "time": 313.16635350000007,
          "velocity": 1,
          "duration": 0.16666650000001937
        },
        {
          "name": "D6",
          "midi": 86,
          "time": 313.3330200000001,
          "velocity": 1,
          "duration": 0.16666650000001937
        },
        {
          "name": "B5",
          "midi": 83,
          "time": 313.4996865000001,
          "velocity": 1,
          "duration": 0.16666650000001937
        },
        {
          "name": "G5",
          "midi": 79,
          "time": 313.66635300000013,
          "velocity": 1,
          "duration": 0.16666650000001937
        },
        {
          "name": "F5",
          "midi": 77,
          "time": 313.83301950000015,
          "velocity": 1,
          "duration": 0.16666650000001937
        },
        {
          "name": "D5",
          "midi": 74,
          "time": 313.99968600000017,
          "velocity": 1,
          "duration": 0.16666650000001937
        },
        {
          "name": "F5",
          "midi": 77,
          "time": 314.1663525000002,
          "velocity": 1,
          "duration": 0.16666650000001937
        },
        {
          "name": "D5",
          "midi": 74,
          "time": 314.3330190000002,
          "velocity": 1,
          "duration": 0.16666650000001937
        },
        {
          "name": "B4",
          "midi": 71,
          "time": 314.4996855000002,
          "velocity": 1,
          "duration": 0.16666650000001937
        },
        {
          "name": "G4",
          "midi": 67,
          "time": 314.66635200000024,
          "velocity": 1,
          "duration": 0.16666650000001937
        },
        {
          "name": "B4",
          "midi": 71,
          "time": 314.83301850000026,
          "velocity": 1,
          "duration": 0.16666650000001937
        },
        {
          "name": "C5",
          "midi": 72,
          "time": 314.9996850000003,
          "velocity": 1,
          "duration": 0.3333329999999819
        },
        {
          "name": "D#5",
          "midi": 75,
          "time": 315.33301800000027,
          "velocity": 1,
          "duration": 0.3333329999999819
        },
        {
          "name": "G5",
          "midi": 79,
          "time": 315.66635100000025,
          "velocity": 1,
          "duration": 0.3333329999999819
        },
        {
          "name": "G#5",
          "midi": 80,
          "time": 315.99968400000023,
          "velocity": 1,
          "duration": 0.6666660000000206
        },
        {
          "name": "C5",
          "midi": 72,
          "time": 316.66635000000025,
          "velocity": 1,
          "duration": 0.3333329999999819
        },
        {
          "name": "C#5",
          "midi": 73,
          "time": 316.99968300000023,
          "velocity": 1,
          "duration": 0.3333329999999819
        },
        {
          "name": "F5",
          "midi": 77,
          "time": 317.3330160000002,
          "velocity": 1,
          "duration": 0.3333329999999819
        },
        {
          "name": "A5",
          "midi": 81,
          "time": 317.6663490000002,
          "velocity": 1,
          "duration": 0.3333329999999819
        },
        {
          "name": "A#5",
          "midi": 82,
          "time": 317.9996820000002,
          "velocity": 1,
          "duration": 0.6666660000000206
        },
        {
          "name": "D5",
          "midi": 74,
          "time": 318.6663480000002,
          "velocity": 1,
          "duration": 0.3333329999999819
        },
        {
          "name": "D#5",
          "midi": 75,
          "time": 318.9996810000002,
          "velocity": 1,
          "duration": 0.3333329999999819
        },
        {
          "name": "A#5",
          "midi": 82,
          "time": 319.33301400000016,
          "velocity": 1,
          "duration": 0.3333329999999819
        },
        {
          "name": "A#5",
          "midi": 82,
          "time": 319.66634700000014,
          "velocity": 1,
          "duration": 0.3333329999999819
        },
        {
          "name": "A#5",
          "midi": 82,
          "time": 319.9996800000001,
          "velocity": 1,
          "duration": 0.3333329999999819
        },
        {
          "name": "A#5",
          "midi": 82,
          "time": 320.3330130000001,
          "velocity": 1,
          "duration": 0.3333329999999819
        },
        {
          "name": "A#5",
          "midi": 82,
          "time": 320.6663460000001,
          "velocity": 1,
          "duration": 0.49999950000000126
        },
        {
          "name": "G#5",
          "midi": 80,
          "time": 321.1663455000001,
          "velocity": 1,
          "duration": 0.16666650000001937
        },
        {
          "name": "F6",
          "midi": 89,
          "time": 321.3330120000001,
          "velocity": 1,
          "duration": 0.16666650000001937
        },
        {
          "name": "D6",
          "midi": 86,
          "time": 321.49967850000013,
          "velocity": 1,
          "duration": 0.16666650000001937
        },
        {
          "name": "A#5",
          "midi": 82,
          "time": 321.66634500000015,
          "velocity": 1,
          "duration": 0.16666650000001937
        },
        {
          "name": "G#5",
          "midi": 80,
          "time": 321.83301150000017,
          "velocity": 1,
          "duration": 0.16666650000001937
        },
        {
          "name": "F5",
          "midi": 77,
          "time": 321.9996780000002,
          "velocity": 1,
          "duration": 0.16666650000001937
        },
        {
          "name": "G#5",
          "midi": 80,
          "time": 322.1663445000002,
          "velocity": 1,
          "duration": 0.16666650000001937
        },
        {
          "name": "F5",
          "midi": 77,
          "time": 322.3330110000002,
          "velocity": 1,
          "duration": 0.16666650000001937
        },
        {
          "name": "D5",
          "midi": 74,
          "time": 322.49967750000025,
          "velocity": 1,
          "duration": 0.16666650000001937
        },
        {
          "name": "A#4",
          "midi": 70,
          "time": 322.66634400000027,
          "velocity": 1,
          "duration": 0.16666650000001937
        },
        {
          "name": "D5",
          "midi": 74,
          "time": 322.8330105000003,
          "velocity": 1,
          "duration": 0.16666650000001937
        },
        {
          "name": "D#5",
          "midi": 75,
          "time": 322.9996770000003,
          "velocity": 1,
          "duration": 0.3333329999999819
        },
        {
          "name": "A#5",
          "midi": 82,
          "time": 323.3330100000003,
          "velocity": 1,
          "duration": 0.3333329999999819
        },
        {
          "name": "A#5",
          "midi": 82,
          "time": 323.66634300000027,
          "velocity": 1,
          "duration": 0.3333329999999819
        },
        {
          "name": "A#5",
          "midi": 82,
          "time": 323.99967600000025,
          "velocity": 1,
          "duration": 0.3333329999999819
        },
        {
          "name": "D#6",
          "midi": 87,
          "time": 324.33300900000023,
          "velocity": 1,
          "duration": 0.3333329999999819
        },
        {
          "name": "D#5",
          "midi": 75,
          "time": 324.33300900000023,
          "velocity": 1,
          "duration": 0.3333329999999819
        },
        {
          "name": "D#6",
          "midi": 87,
          "time": 324.6663420000002,
          "velocity": 1,
          "duration": 0.3333329999999819
        },
        {
          "name": "D#5",
          "midi": 75,
          "time": 324.6663420000002,
          "velocity": 1,
          "duration": 0.3333329999999819
        },
        {
          "name": "D#6",
          "midi": 87,
          "time": 324.9996750000002,
          "velocity": 1,
          "duration": 0.3333329999999819
        },
        {
          "name": "D#5",
          "midi": 75,
          "time": 324.9996750000002,
          "velocity": 1,
          "duration": 0.3333329999999819
        },
        {
          "name": "F#5",
          "midi": 78,
          "time": 333.3330000000002,
          "velocity": 1,
          "duration": 0.3333329999999819
        },
        {
          "name": "G#5",
          "midi": 80,
          "time": 333.6663330000002,
          "velocity": 1,
          "duration": 0.3333329999999819
        },
        {
          "name": "A#5",
          "midi": 82,
          "time": 333.99966600000016,
          "velocity": 1,
          "duration": 0.49999950000000126
        },
        {
          "name": "G#5",
          "midi": 80,
          "time": 334.49966550000016,
          "velocity": 1,
          "duration": 0.16666650000001937
        },
        {
          "name": "F#5",
          "midi": 78,
          "time": 334.6663320000002,
          "velocity": 1,
          "duration": 0.3333329999999819
        },
        {
          "name": "F5",
          "midi": 77,
          "time": 334.99966500000016,
          "velocity": 1,
          "duration": 1.999998000000005
        },
        {
          "name": "F#5",
          "midi": 78,
          "time": 336.99966300000017,
          "velocity": 1,
          "duration": 0.3333329999999819
        },
        {
          "name": "A#5",
          "midi": 82,
          "time": 342.9996570000001,
          "velocity": 1,
          "duration": 0.6666660000000206
        },
        {
          "name": "D6",
          "midi": 86,
          "time": 342.9996570000001,
          "velocity": 1,
          "duration": 0.6666660000000206
        },
        {
          "name": "F6",
          "midi": 89,
          "time": 343.66632300000015,
          "velocity": 1,
          "duration": 0.3333329999999819
        },
        {
          "name": "D6",
          "midi": 86,
          "time": 343.66632300000015,
          "velocity": 1,
          "duration": 0.3333329999999819
        },
        {
          "name": "D6",
          "midi": 86,
          "time": 343.99965600000013,
          "velocity": 1,
          "duration": 0.6666660000000206
        },
        {
          "name": "A#5",
          "midi": 82,
          "time": 343.99965600000013,
          "velocity": 1,
          "duration": 0.6666660000000206
        },
        {
          "name": "A#5",
          "midi": 82,
          "time": 344.66632200000015,
          "velocity": 1,
          "duration": 0.3333329999999819
        },
        {
          "name": "F5",
          "midi": 77,
          "time": 344.66632200000015,
          "velocity": 1,
          "duration": 0.3333329999999819
        },
        {
          "name": "A#5",
          "midi": 82,
          "time": 344.99965500000013,
          "velocity": 1,
          "duration": 0.3333329999999819
        },
        {
          "name": "F#5",
          "midi": 78,
          "time": 344.99965500000013,
          "velocity": 1,
          "duration": 0.3333329999999819
        },
        {
          "name": "F#6",
          "midi": 90,
          "time": 345.3329880000001,
          "velocity": 1,
          "duration": 0.3333329999999819
        },
        {
          "name": "A#5",
          "midi": 82,
          "time": 345.3329880000001,
          "velocity": 1,
          "duration": 0.3333329999999819
        },
        {
          "name": "F#6",
          "midi": 90,
          "time": 345.6663210000001,
          "velocity": 1,
          "duration": 0.3333329999999819
        },
        {
          "name": "D#6",
          "midi": 87,
          "time": 345.6663210000001,
          "velocity": 1,
          "duration": 0.3333329999999819
        },
        {
          "name": "D#6",
          "midi": 87,
          "time": 345.9996540000001,
          "velocity": 1,
          "duration": 0.3333329999999819
        },
        {
          "name": "F#6",
          "midi": 90,
          "time": 345.9996540000001,
          "velocity": 1,
          "duration": 0.3333329999999819
        },
        {
          "name": "D#6",
          "midi": 87,
          "time": 346.9996530000001,
          "velocity": 1,
          "duration": 0.6666660000000206
        },
        {
          "name": "A#5",
          "midi": 82,
          "time": 346.9996530000001,
          "velocity": 1,
          "duration": 0.6666660000000206
        },
        {
          "name": "F#6",
          "midi": 90,
          "time": 347.6663190000001,
          "velocity": 1,
          "duration": 0.3333329999999819
        },
        {
          "name": "D#6",
          "midi": 87,
          "time": 347.6663190000001,
          "velocity": 1,
          "duration": 0.3333329999999819
        },
        {
          "name": "D#6",
          "midi": 87,
          "time": 347.9996520000001,
          "velocity": 1,
          "duration": 0.6666660000000206
        },
        {
          "name": "A#5",
          "midi": 82,
          "time": 347.9996520000001,
          "velocity": 1,
          "duration": 0.6666660000000206
        },
        {
          "name": "A#5",
          "midi": 82,
          "time": 348.6663180000001,
          "velocity": 1,
          "duration": 0.3333329999999819
        },
        {
          "name": "F#5",
          "midi": 78,
          "time": 348.6663180000001,
          "velocity": 1,
          "duration": 0.3333329999999819
        },
        {
          "name": "G#5",
          "midi": 80,
          "time": 348.9996510000001,
          "velocity": 1,
          "duration": 0.3333329999999819
        },
        {
          "name": "F#5",
          "midi": 78,
          "time": 348.9996510000001,
          "velocity": 1,
          "duration": 0.3333329999999819
        },
        {
          "name": "F#6",
          "midi": 90,
          "time": 349.33298400000007,
          "velocity": 1,
          "duration": 0.3333329999999819
        },
        {
          "name": "G#5",
          "midi": 80,
          "time": 349.33298400000007,
          "velocity": 1,
          "duration": 0.3333329999999819
        },
        {
          "name": "F#6",
          "midi": 90,
          "time": 349.66631700000005,
          "velocity": 1,
          "duration": 0.3333329999999819
        },
        {
          "name": "D#6",
          "midi": 87,
          "time": 349.66631700000005,
          "velocity": 1,
          "duration": 0.3333329999999819
        },
        {
          "name": "D#6",
          "midi": 87,
          "time": 349.99965000000003,
          "velocity": 1,
          "duration": 0.3333329999999819
        },
        {
          "name": "F#6",
          "midi": 90,
          "time": 349.99965000000003,
          "velocity": 1,
          "duration": 0.3333329999999819
        },
        {
          "name": "D#6",
          "midi": 87,
          "time": 350.99964900000003,
          "velocity": 1,
          "duration": 0.6666660000000206
        },
        {
          "name": "G#5",
          "midi": 80,
          "time": 350.99964900000003,
          "velocity": 1,
          "duration": 0.6666660000000206
        },
        {
          "name": "F#6",
          "midi": 90,
          "time": 351.66631500000005,
          "velocity": 1,
          "duration": 0.3333329999999819
        },
        {
          "name": "D#6",
          "midi": 87,
          "time": 351.66631500000005,
          "velocity": 1,
          "duration": 0.3333329999999819
        },
        {
          "name": "D#6",
          "midi": 87,
          "time": 351.99964800000004,
          "velocity": 1,
          "duration": 0.6666660000000206
        },
        {
          "name": "G#5",
          "midi": 80,
          "time": 351.99964800000004,
          "velocity": 1,
          "duration": 0.6666660000000206
        },
        {
          "name": "G#5",
          "midi": 80,
          "time": 352.66631400000006,
          "velocity": 1,
          "duration": 0.3333329999999819
        },
        {
          "name": "F#5",
          "midi": 78,
          "time": 352.66631400000006,
          "velocity": 1,
          "duration": 0.3333329999999819
        },
        {
          "name": "G#5",
          "midi": 80,
          "time": 352.99964700000004,
          "velocity": 1,
          "duration": 0.3333329999999819
        },
        {
          "name": "F5",
          "midi": 77,
          "time": 352.99964700000004,
          "velocity": 1,
          "duration": 0.3333329999999819
        },
        {
          "name": "C#6",
          "midi": 85,
          "time": 353.33298,
          "velocity": 1,
          "duration": 0.3333329999999819
        },
        {
          "name": "G#5",
          "midi": 80,
          "time": 353.33298,
          "velocity": 1,
          "duration": 0.3333329999999819
        },
        {
          "name": "C#6",
          "midi": 85,
          "time": 353.666313,
          "velocity": 1,
          "duration": 0.3333329999999819
        },
        {
          "name": "F6",
          "midi": 89,
          "time": 353.666313,
          "velocity": 1,
          "duration": 0.3333329999999819
        },
        {
          "name": "F6",
          "midi": 89,
          "time": 353.999646,
          "velocity": 1,
          "duration": 0.3333329999999819
        },
        {
          "name": "C#6",
          "midi": 85,
          "time": 353.999646,
          "velocity": 1,
          "duration": 0.3333329999999819
        },
        {
          "name": "C#6",
          "midi": 85,
          "time": 354.999645,
          "velocity": 1,
          "duration": 0.6666660000000206
        },
        {
          "name": "G#5",
          "midi": 80,
          "time": 354.999645,
          "velocity": 1,
          "duration": 0.6666660000000206
        },
        {
          "name": "F6",
          "midi": 89,
          "time": 355.666311,
          "velocity": 1,
          "duration": 0.3333329999999819
        },
        {
          "name": "C#6",
          "midi": 85,
          "time": 355.666311,
          "velocity": 1,
          "duration": 0.3333329999999819
        },
        {
          "name": "C#6",
          "midi": 85,
          "time": 355.999644,
          "velocity": 1,
          "duration": 0.6666660000000206
        },
        {
          "name": "G#5",
          "midi": 80,
          "time": 355.999644,
          "velocity": 1,
          "duration": 0.6666660000000206
        },
        {
          "name": "G#5",
          "midi": 80,
          "time": 356.66631,
          "velocity": 1,
          "duration": 0.3333329999999819
        },
        {
          "name": "F5",
          "midi": 77,
          "time": 356.66631,
          "velocity": 1,
          "duration": 0.3333329999999819
        },
        {
          "name": "G#5",
          "midi": 80,
          "time": 356.999643,
          "velocity": 1,
          "duration": 0.3333329999999819
        },
        {
          "name": "F5",
          "midi": 77,
          "time": 356.999643,
          "velocity": 1,
          "duration": 0.3333329999999819
        },
        {
          "name": "A#5",
          "midi": 82,
          "time": 357.332976,
          "velocity": 1,
          "duration": 0.3333329999999819
        },
        {
          "name": "G#5",
          "midi": 80,
          "time": 357.332976,
          "velocity": 1,
          "duration": 0.3333329999999819
        },
        {
          "name": "A#5",
          "midi": 82,
          "time": 357.66630899999996,
          "velocity": 1,
          "duration": 0.3333329999999819
        },
        {
          "name": "F6",
          "midi": 89,
          "time": 357.66630899999996,
          "velocity": 1,
          "duration": 0.3333329999999819
        },
        {
          "name": "F6",
          "midi": 89,
          "time": 357.99964199999994,
          "velocity": 1,
          "duration": 0.3333329999999819
        },
        {
          "name": "A#5",
          "midi": 82,
          "time": 357.99964199999994,
          "velocity": 1,
          "duration": 0.3333329999999819
        },
        {
          "name": "A#5",
          "midi": 82,
          "time": 358.99964099999994,
          "velocity": 1,
          "duration": 0.6666660000000206
        },
        {
          "name": "G#5",
          "midi": 80,
          "time": 358.99964099999994,
          "velocity": 1,
          "duration": 0.6666660000000206
        },
        {
          "name": "F6",
          "midi": 89,
          "time": 359.66630699999996,
          "velocity": 1,
          "duration": 0.3333329999999819
        },
        {
          "name": "A#5",
          "midi": 82,
          "time": 359.66630699999996,
          "velocity": 1,
          "duration": 0.3333329999999819
        },
        {
          "name": "A#5",
          "midi": 82,
          "time": 359.99963999999994,
          "velocity": 1,
          "duration": 0.6666660000000206
        },
        {
          "name": "G#5",
          "midi": 80,
          "time": 359.99963999999994,
          "velocity": 1,
          "duration": 0.6666660000000206
        },
        {
          "name": "G#5",
          "midi": 80,
          "time": 360.66630599999996,
          "velocity": 1,
          "duration": 0.3333329999999819
        },
        {
          "name": "F5",
          "midi": 77,
          "time": 360.66630599999996,
          "velocity": 1,
          "duration": 0.3333329999999819
        },
        {
          "name": "D#6",
          "midi": 87,
          "time": 361.99963799999995,
          "velocity": 1,
          "duration": 0.6666660000000206
        },
        {
          "name": "D#5",
          "midi": 75,
          "time": 361.99963799999995,
          "velocity": 1,
          "duration": 0.6666660000000206
        },
        {
          "name": "F#5",
          "midi": 78,
          "time": 362.66630399999997,
          "velocity": 1,
          "duration": 0.3333329999999819
        },
        {
          "name": "F#6",
          "midi": 90,
          "time": 362.66630399999997,
          "velocity": 1,
          "duration": 0.3333329999999819
        },
        {
          "name": "D#6",
          "midi": 87,
          "time": 363.99963599999995,
          "velocity": 1,
          "duration": 0.6666660000000206
        },
        {
          "name": "D#5",
          "midi": 75,
          "time": 363.99963599999995,
          "velocity": 1,
          "duration": 0.6666660000000206
        },
        {
          "name": "F#6",
          "midi": 90,
          "time": 364.666302,
          "velocity": 1,
          "duration": 0.3333329999999819
        },
        {
          "name": "F#5",
          "midi": 78,
          "time": 364.666302,
          "velocity": 1,
          "duration": 0.3333329999999819
        },
        {
          "name": "F#6",
          "midi": 90,
          "time": 364.99963499999996,
          "velocity": 1,
          "duration": 2.333330999999987
        },
        {
          "name": "D#6",
          "midi": 87,
          "time": 364.99963499999996,
          "velocity": 1,
          "duration": 2.333330999999987
        },
        {
          "name": "F#6",
          "midi": 90,
          "time": 367.33296599999994,
          "velocity": 1,
          "duration": 0.3333329999999819
        },
        {
          "name": "D#6",
          "midi": 87,
          "time": 367.33296599999994,
          "velocity": 1,
          "duration": 0.3333329999999819
        },
        {
          "name": "F#6",
          "midi": 90,
          "time": 367.6662989999999,
          "velocity": 1,
          "duration": 0.3333329999999819
        },
        {
          "name": "D#6",
          "midi": 87,
          "time": 367.6662989999999,
          "velocity": 1,
          "duration": 0.3333329999999819
        },
        {
          "name": "D#6",
          "midi": 87,
          "time": 367.9996319999999,
          "velocity": 1,
          "duration": 0.3333329999999819
        },
        {
          "name": "F#6",
          "midi": 90,
          "time": 367.9996319999999,
          "velocity": 1,
          "duration": 0.3333329999999819
        },
        {
          "name": "F#6",
          "midi": 90,
          "time": 368.3329649999999,
          "velocity": 1,
          "duration": 0.3333329999999819
        },
        {
          "name": "D#6",
          "midi": 87,
          "time": 368.3329649999999,
          "velocity": 1,
          "duration": 0.3333329999999819
        },
        {
          "name": "F#6",
          "midi": 90,
          "time": 368.66629799999987,
          "velocity": 1,
          "duration": 0.3333329999999819
        },
        {
          "name": "D#6",
          "midi": 87,
          "time": 368.66629799999987,
          "velocity": 1,
          "duration": 0.3333329999999819
        },
        {
          "name": "F#6",
          "midi": 90,
          "time": 368.99963099999985,
          "velocity": 1,
          "duration": 0.3333329999999819
        },
        {
          "name": "D#6",
          "midi": 87,
          "time": 368.99963099999985,
          "velocity": 1,
          "duration": 0.3333329999999819
        },
        {
          "name": "D6",
          "midi": 86,
          "time": 398.9996009999998,
          "velocity": 1,
          "duration": 0.9999990000000025
        },
        {
          "name": "G#5",
          "midi": 80,
          "time": 398.9996009999998,
          "velocity": 1,
          "duration": 0.9999990000000025
        },
        {
          "name": "F6",
          "midi": 89,
          "time": 399.9995999999998,
          "velocity": 1,
          "duration": 0.9999990000000025
        },
        {
          "name": "G#5",
          "midi": 80,
          "time": 399.9995999999998,
          "velocity": 1,
          "duration": 0.9999990000000025
        },
        {
          "name": "D#6",
          "midi": 87,
          "time": 400.9995989999998,
          "velocity": 1,
          "duration": 0.3333329999999819
        },
        {
          "name": "G5",
          "midi": 79,
          "time": 400.9995989999998,
          "velocity": 1,
          "duration": 0.3333329999999819
        },
        {
          "name": "C#5",
          "midi": 73,
          "time": 418.9995809999998,
          "velocity": 1,
          "duration": 0.6666660000000206
        },
        {
          "name": "F5",
          "midi": 77,
          "time": 419.6662469999998,
          "velocity": 1,
          "duration": 0.3333329999999819
        },
        {
          "name": "C#5",
          "midi": 73,
          "time": 419.9995799999998,
          "velocity": 1,
          "duration": 0.6666660000000206
        },
        {
          "name": "G#4",
          "midi": 68,
          "time": 420.66624599999983,
          "velocity": 1,
          "duration": 0.3333329999999819
        },
        {
          "name": "C#5",
          "midi": 73,
          "time": 420.9995789999998,
          "velocity": 1,
          "duration": 0.3333329999999819
        },
        {
          "name": "F5",
          "midi": 77,
          "time": 421.3329119999998,
          "velocity": 1,
          "duration": 0.3333329999999819
        },
        {
          "name": "G#5",
          "midi": 80,
          "time": 421.6662449999998,
          "velocity": 1,
          "duration": 0.3333329999999819
        },
        {
          "name": "G#5",
          "midi": 80,
          "time": 421.99957799999976,
          "velocity": 1,
          "duration": 1.3333319999999844
        },
        {
          "name": "G#5",
          "midi": 80,
          "time": 423.33290999999974,
          "velocity": 1,
          "duration": 0.3333329999999819
        },
        {
          "name": "G#5",
          "midi": 80,
          "time": 423.6662429999997,
          "velocity": 1,
          "duration": 0.3333329999999819
        },
        {
          "name": "G#5",
          "midi": 80,
          "time": 423.9995759999997,
          "velocity": 1,
          "duration": 1.999998000000005
        },
        {
          "name": "G#5",
          "midi": 80,
          "time": 425.9995739999997,
          "velocity": 1,
          "duration": 0.9999990000000025
        },
        {
          "name": "G#5",
          "midi": 80,
          "time": 426.9995729999997,
          "velocity": 1,
          "duration": 0.3333329999999819
        },
        {
          "name": "A#4",
          "midi": 70,
          "time": 427.3329059999997,
          "velocity": 1,
          "duration": 0.3333329999999819
        },
        {
          "name": "D5",
          "midi": 74,
          "time": 427.6662389999997,
          "velocity": 1,
          "duration": 0.3333329999999819
        },
        {
          "name": "A#4",
          "midi": 70,
          "time": 427.99957199999966,
          "velocity": 1,
          "duration": 0.6666660000000206
        },
        {
          "name": "F4",
          "midi": 65,
          "time": 428.6662379999997,
          "velocity": 1,
          "duration": 0.3333329999999819
        },
        {
          "name": "A#4",
          "midi": 70,
          "time": 428.99957099999966,
          "velocity": 1,
          "duration": 0.16666650000001937
        },
        {
          "name": "D5",
          "midi": 74,
          "time": 429.1662374999997,
          "velocity": 1,
          "duration": 0.16666650000001937
        },
        {
          "name": "F5",
          "midi": 77,
          "time": 429.3329039999997,
          "velocity": 1,
          "duration": 0.16666650000001937
        },
        {
          "name": "A#4",
          "midi": 70,
          "time": 429.4995704999997,
          "velocity": 1,
          "duration": 0.16666650000001937
        },
        {
          "name": "D5",
          "midi": 74,
          "time": 429.66623699999974,
          "velocity": 1,
          "duration": 0.16666650000001937
        },
        {
          "name": "F5",
          "midi": 77,
          "time": 429.83290349999976,
          "velocity": 1,
          "duration": 0.16666650000001937
        },
        {
          "name": "G#5",
          "midi": 80,
          "time": 429.9995699999998,
          "velocity": 1,
          "duration": 0.16666650000001937
        },
        {
          "name": "D5",
          "midi": 74,
          "time": 430.1662364999998,
          "velocity": 1,
          "duration": 0.16666650000001937
        },
        {
          "name": "F5",
          "midi": 77,
          "time": 430.3329029999998,
          "velocity": 1,
          "duration": 0.16666650000001937
        },
        {
          "name": "G#5",
          "midi": 80,
          "time": 430.49956949999984,
          "velocity": 1,
          "duration": 0.16666650000001937
        },
        {
          "name": "C6",
          "midi": 84,
          "time": 430.66623599999986,
          "velocity": 1,
          "duration": 0.16666650000001937
        },
        {
          "name": "A#5",
          "midi": 82,
          "time": 430.8329024999999,
          "velocity": 1,
          "duration": 0.16666650000001937
        },
        {
          "name": "G#5",
          "midi": 80,
          "time": 430.9995689999999,
          "velocity": 1,
          "duration": 0.16666650000001937
        },
        {
          "name": "A#5",
          "midi": 82,
          "time": 431.1662354999999,
          "velocity": 1,
          "duration": 0.16666650000001937
        },
        {
          "name": "G#5",
          "midi": 80,
          "time": 431.33290199999993,
          "velocity": 1,
          "duration": 0.16666650000001937
        },
        {
          "name": "G5",
          "midi": 79,
          "time": 431.49956849999995,
          "velocity": 1,
          "duration": 0.16666650000001937
        },
        {
          "name": "A#5",
          "midi": 82,
          "time": 431.666235,
          "velocity": 1,
          "duration": 0.16666650000001937
        },
        {
          "name": "G#5",
          "midi": 80,
          "time": 431.666235,
          "velocity": 1,
          "duration": 0.16666650000001937
        },
        {
          "name": "C6",
          "midi": 84,
          "time": 431.8329015,
          "velocity": 1,
          "duration": 0.16666650000001937
        },
        {
          "name": "G5",
          "midi": 79,
          "time": 431.8329015,
          "velocity": 1,
          "duration": 0.16666650000001937
        },
        {
          "name": "D6",
          "midi": 86,
          "time": 431.999568,
          "velocity": 1,
          "duration": 0.16666650000001937
        },
        {
          "name": "F5",
          "midi": 77,
          "time": 431.999568,
          "velocity": 1,
          "duration": 0.16666650000001937
        },
        {
          "name": "D#5",
          "midi": 75,
          "time": 432.16623450000003,
          "velocity": 1,
          "duration": 0.16666650000001937
        },
        {
          "name": "D#6",
          "midi": 87,
          "time": 432.16623450000003,
          "velocity": 1,
          "duration": 0.16666650000001937
        },
        {
          "name": "F6",
          "midi": 89,
          "time": 432.33290100000005,
          "velocity": 1,
          "duration": 0.16666650000001937
        },
        {
          "name": "D5",
          "midi": 74,
          "time": 432.33290100000005,
          "velocity": 1,
          "duration": 0.16666650000001937
        },
        {
          "name": "G6",
          "midi": 91,
          "time": 432.49956750000007,
          "velocity": 1,
          "duration": 0.16666650000001937
        },
        {
          "name": "D#5",
          "midi": 75,
          "time": 432.49956750000007,
          "velocity": 1,
          "duration": 0.16666650000001937
        },
        {
          "name": "G#6",
          "midi": 92,
          "time": 432.6662340000001,
          "velocity": 1,
          "duration": 0.16666650000001937
        },
        {
          "name": "F5",
          "midi": 77,
          "time": 432.6662340000001,
          "velocity": 1,
          "duration": 0.16666650000001937
        },
        {
          "name": "D6",
          "midi": 86,
          "time": 432.8329005000001,
          "velocity": 1,
          "duration": 0.16666650000001937
        },
        {
          "name": "G#5",
          "midi": 80,
          "time": 432.8329005000001,
          "velocity": 1,
          "duration": 0.16666650000001937
        },
        {
          "name": "D#6",
          "midi": 87,
          "time": 432.9995670000001,
          "velocity": 1,
          "duration": 0.6666659999999638
        },
        {
          "name": "G5",
          "midi": 79,
          "time": 432.9995670000001,
          "velocity": 1,
          "duration": 0.3333329999999819
        },
        {
          "name": "D#5",
          "midi": 75,
          "time": 433.3329000000001,
          "velocity": 1,
          "duration": 0.3333329999999819
        },
        {
          "name": "G6",
          "midi": 91,
          "time": 433.6662330000001,
          "velocity": 1,
          "duration": 0.3333329999999819
        },
        {
          "name": "G5",
          "midi": 79,
          "time": 433.6662330000001,
          "velocity": 1,
          "duration": 0.3333329999999819
        },
        {
          "name": "D#5",
          "midi": 75,
          "time": 433.9995660000001,
          "velocity": 1,
          "duration": 0.6666660000000206
        },
        {
          "name": "D#6",
          "midi": 87,
          "time": 433.9995660000001,
          "velocity": 1,
          "duration": 0.6666660000000206
        },
        {
          "name": "A#5",
          "midi": 82,
          "time": 434.6662320000001,
          "velocity": 1,
          "duration": 0.3333329999999819
        },
        {
          "name": "A#4",
          "midi": 70,
          "time": 434.6662320000001,
          "velocity": 1,
          "duration": 0.3333329999999819
        },
        {
          "name": "D#6",
          "midi": 87,
          "time": 434.9995650000001,
          "velocity": 1,
          "duration": 0.3333329999999819
        },
        {
          "name": "D#5",
          "midi": 75,
          "time": 434.9995650000001,
          "velocity": 1,
          "duration": 0.3333329999999819
        },
        {
          "name": "D#6",
          "midi": 87,
          "time": 435.33289800000006,
          "velocity": 1,
          "duration": 0.3333329999999819
        },
        {
          "name": "D#6",
          "midi": 87,
          "time": 435.66623100000004,
          "velocity": 1,
          "duration": 0.3333329999999819
        },
        {
          "name": "D#6",
          "midi": 87,
          "time": 435.999564,
          "velocity": 1,
          "duration": 0.6666660000000206
        },
        {
          "name": "E6",
          "midi": 88,
          "time": 436.66623000000004,
          "velocity": 1,
          "duration": 0.3333329999999819
        },
        {
          "name": "A#5",
          "midi": 82,
          "time": 436.66623000000004,
          "velocity": 1,
          "duration": 0.3333329999999819
        },
        {
          "name": "F6",
          "midi": 89,
          "time": 436.999563,
          "velocity": 1,
          "duration": 0.3333329999999819
        },
        {
          "name": "G#5",
          "midi": 80,
          "time": 436.999563,
          "velocity": 1,
          "duration": 0.3333329999999819
        },
        {
          "name": "G#5",
          "midi": 80,
          "time": 437.332896,
          "velocity": 1,
          "duration": 0.3333329999999819
        },
        {
          "name": "F6",
          "midi": 89,
          "time": 437.332896,
          "velocity": 1,
          "duration": 0.3333329999999819
        },
        {
          "name": "F6",
          "midi": 89,
          "time": 437.666229,
          "velocity": 1,
          "duration": 0.3333329999999819
        },
        {
          "name": "G#5",
          "midi": 80,
          "time": 437.666229,
          "velocity": 1,
          "duration": 0.3333329999999819
        },
        {
          "name": "F6",
          "midi": 89,
          "time": 437.99956199999997,
          "velocity": 1,
          "duration": 0.6666660000000206
        },
        {
          "name": "G#5",
          "midi": 80,
          "time": 437.99956199999997,
          "velocity": 1,
          "duration": 0.6666660000000206
        },
        {
          "name": "F#6",
          "midi": 90,
          "time": 438.666228,
          "velocity": 1,
          "duration": 0.3333329999999819
        },
        {
          "name": "A5",
          "midi": 81,
          "time": 438.666228,
          "velocity": 1,
          "duration": 0.3333329999999819
        },
        {
          "name": "G6",
          "midi": 91,
          "time": 438.99956099999997,
          "velocity": 1,
          "duration": 0.9999990000000025
        },
        {
          "name": "A#5",
          "midi": 82,
          "time": 438.99956099999997,
          "velocity": 1,
          "duration": 0.9999990000000025
        },
        {
          "name": "G#6",
          "midi": 92,
          "time": 439.99956,
          "velocity": 1,
          "duration": 0.9999990000000025
        },
        {
          "name": "C6",
          "midi": 84,
          "time": 439.99956,
          "velocity": 1,
          "duration": 0.9999990000000025
        },
        {
          "name": "G#6",
          "midi": 92,
          "time": 440.999559,
          "velocity": 1,
          "duration": 1.3333319999999844
        },
        {
          "name": "D6",
          "midi": 86,
          "time": 440.999559,
          "velocity": 1,
          "duration": 1.3333319999999844
        },
        {
          "name": "D6",
          "midi": 86,
          "time": 442.33289099999996,
          "velocity": 1,
          "duration": 0.3333329999999819
        },
        {
          "name": "G#6",
          "midi": 92,
          "time": 442.33289099999996,
          "velocity": 1,
          "duration": 0.3333329999999819
        },
        {
          "name": "G#6",
          "midi": 92,
          "time": 442.66622399999994,
          "velocity": 1,
          "duration": 0.3333329999999819
        },
        {
          "name": "D6",
          "midi": 86,
          "time": 442.66622399999994,
          "velocity": 1,
          "duration": 0.3333329999999819
        },
        {
          "name": "G6",
          "midi": 91,
          "time": 442.9995569999999,
          "velocity": 1,
          "duration": 0.6666660000000206
        },
        {
          "name": "D#6",
          "midi": 87,
          "time": 442.9995569999999,
          "velocity": 1,
          "duration": 0.6666660000000206
        },
        {
          "name": "G6",
          "midi": 91,
          "time": 443.66622299999995,
          "velocity": 1,
          "duration": 0.3333329999999819
        },
        {
          "name": "D#6",
          "midi": 87,
          "time": 443.66622299999995,
          "velocity": 1,
          "duration": 0.3333329999999819
        },
        {
          "name": "G6",
          "midi": 91,
          "time": 443.9995559999999,
          "velocity": 1,
          "duration": 0.6666660000000206
        },
        {
          "name": "D#6",
          "midi": 87,
          "time": 443.9995559999999,
          "velocity": 1,
          "duration": 0.6666660000000206
        },
        {
          "name": "G6",
          "midi": 91,
          "time": 444.66622199999995,
          "velocity": 1,
          "duration": 0.6666660000000206
        },
        {
          "name": "D#6",
          "midi": 87,
          "time": 444.66622199999995,
          "velocity": 1,
          "duration": 0.6666660000000206
        },
        {
          "name": "D#6",
          "midi": 87,
          "time": 445.33288799999997,
          "velocity": 1,
          "duration": 0.3333329999999819
        },
        {
          "name": "G6",
          "midi": 91,
          "time": 445.33288799999997,
          "velocity": 1,
          "duration": 0.3333329999999819
        },
        {
          "name": "G6",
          "midi": 91,
          "time": 445.66622099999995,
          "velocity": 1,
          "duration": 0.3333329999999819
        },
        {
          "name": "D#6",
          "midi": 87,
          "time": 445.66622099999995,
          "velocity": 1,
          "duration": 0.3333329999999819
        },
        {
          "name": "G6",
          "midi": 91,
          "time": 445.99955399999993,
          "velocity": 1,
          "duration": 0.6666660000000206
        },
        {
          "name": "D#6",
          "midi": 87,
          "time": 445.99955399999993,
          "velocity": 1,
          "duration": 0.6666660000000206
        },
        {
          "name": "G6",
          "midi": 91,
          "time": 446.66621999999995,
          "velocity": 1,
          "duration": 0.6666660000000206
        },
        {
          "name": "D#6",
          "midi": 87,
          "time": 446.66621999999995,
          "velocity": 1,
          "duration": 0.6666660000000206
        },
        {
          "name": "G6",
          "midi": 91,
          "time": 447.332886,
          "velocity": 1,
          "duration": 0.3333329999999819
        },
        {
          "name": "D#6",
          "midi": 87,
          "time": 447.332886,
          "velocity": 1,
          "duration": 0.3333329999999819
        },
        {
          "name": "G6",
          "midi": 91,
          "time": 447.66621899999996,
          "velocity": 1,
          "duration": 0.3333329999999819
        },
        {
          "name": "D#6",
          "midi": 87,
          "time": 447.66621899999996,
          "velocity": 1,
          "duration": 0.3333329999999819
        },
        {
          "name": "G6",
          "midi": 91,
          "time": 447.99955199999994,
          "velocity": 1,
          "duration": 0.9999990000000025
        },
        {
          "name": "D#6",
          "midi": 87,
          "time": 447.99955199999994,
          "velocity": 1,
          "duration": 0.6666660000000206
        },
        {
          "name": "E6",
          "midi": 88,
          "time": 448.66621799999996,
          "velocity": 1,
          "duration": 0.3333329999999819
        },
        {
          "name": "G6",
          "midi": 91,
          "time": 448.99955099999994,
          "velocity": 1,
          "duration": 0.16666650000001937
        },
        {
          "name": "C6",
          "midi": 84,
          "time": 448.99955099999994,
          "velocity": 1,
          "duration": 0.9999990000001162
        },
        {
          "name": "F6",
          "midi": 89,
          "time": 449.16621749999996,
          "velocity": 1,
          "duration": 0.16666650000001937
        },
        {
          "name": "E6",
          "midi": 88,
          "time": 449.332884,
          "velocity": 1,
          "duration": 0.16666650000001937
        },
        {
          "name": "F6",
          "midi": 89,
          "time": 449.4995505,
          "velocity": 1,
          "duration": 0.16666650000001937
        },
        {
          "name": "G6",
          "midi": 91,
          "time": 449.666217,
          "velocity": 1,
          "duration": 0.16666650000001937
        },
        {
          "name": "F6",
          "midi": 89,
          "time": 449.83288350000004,
          "velocity": 1,
          "duration": 0.16666650000001937
        },
        {
          "name": "F6",
          "midi": 89,
          "time": 449.99955000000006,
          "velocity": 1,
          "duration": 0.16666650000001937
        },
        {
          "name": "C6",
          "midi": 84,
          "time": 449.99955000000006,
          "velocity": 1,
          "duration": 0.9999990000001162
        },
        {
          "name": "D#6",
          "midi": 87,
          "time": 450.1662165000001,
          "velocity": 1,
          "duration": 0.16666650000001937
        },
        {
          "name": "D6",
          "midi": 86,
          "time": 450.3328830000001,
          "velocity": 1,
          "duration": 0.16666650000001937
        },
        {
          "name": "D#6",
          "midi": 87,
          "time": 450.4995495000001,
          "velocity": 1,
          "duration": 0.16666650000001937
        },
        {
          "name": "F6",
          "midi": 89,
          "time": 450.66621600000013,
          "velocity": 1,
          "duration": 0.16666650000001937
        },
        {
          "name": "D#6",
          "midi": 87,
          "time": 450.83288250000015,
          "velocity": 1,
          "duration": 0.16666650000001937
        },
        {
          "name": "F5",
          "midi": 77,
          "time": 450.9995490000002,
          "velocity": 1,
          "duration": 0.3333329999999819
        },
        {
          "name": "D6",
          "midi": 86,
          "time": 450.9995490000002,
          "velocity": 1,
          "duration": 0.3333329999999819
        },
        {
          "name": "C6",
          "midi": 84,
          "time": 451.33288200000015,
          "velocity": 1,
          "duration": 0.49999950000000126
        },
        {
          "name": "A#5",
          "midi": 82,
          "time": 451.83288150000016,
          "velocity": 1,
          "duration": 0.16666650000001937
        },
        {
          "name": "A5",
          "midi": 81,
          "time": 451.9995480000002,
          "velocity": 1,
          "duration": 0.3333329999999819
        },
        {
          "name": "C6",
          "midi": 84,
          "time": 455.33287800000016,
          "velocity": 1,
          "duration": 0.49999950000000126
        },
        {
          "name": "A#5",
          "midi": 82,
          "time": 455.83287750000017,
          "velocity": 1,
          "duration": 0.16666650000001937
        },
        {
          "name": "A5",
          "midi": 81,
          "time": 455.9995440000002,
          "velocity": 1,
          "duration": 0.3333329999999819
        },
        {
          "name": "B5",
          "midi": 83,
          "time": 460.3328730000002,
          "velocity": 1,
          "duration": 0.49999950000000126
        },
        {
          "name": "A#5",
          "midi": 82,
          "time": 460.8328725000002,
          "velocity": 1,
          "duration": 0.16666650000001937
        },
        {
          "name": "G#5",
          "midi": 80,
          "time": 460.9995390000002,
          "velocity": 1,
          "duration": 0.3333329999999819
        },
        {
          "name": "C6",
          "midi": 84,
          "time": 461.3328720000002,
          "velocity": 1,
          "duration": 0.49999950000000126
        },
        {
          "name": "A#5",
          "midi": 82,
          "time": 461.8328715000002,
          "velocity": 1,
          "duration": 0.16666650000001937
        },
        {
          "name": "G#5",
          "midi": 80,
          "time": 461.9995380000002,
          "velocity": 1,
          "duration": 0.3333329999999819
        },
        {
          "name": "G5",
          "midi": 79,
          "time": 462.3328710000002,
          "velocity": 1,
          "duration": 0.3333329999999819
        },
        {
          "name": "F5",
          "midi": 77,
          "time": 462.66620400000016,
          "velocity": 1,
          "duration": 0.3333329999999819
        },
        {
          "name": "D#5",
          "midi": 75,
          "time": 462.99953700000015,
          "velocity": 1,
          "duration": 0.3333329999999819
        },
        {
          "name": "D#6",
          "midi": 87,
          "time": 466.99953300000016,
          "velocity": 1,
          "duration": 2.1666645000000244
        },
        {
          "name": "D#5",
          "midi": 75,
          "time": 466.99953300000016,
          "velocity": 1,
          "duration": 2.1666645000000244
        },
        {
          "name": "A#5",
          "midi": 82,
          "time": 469.1661975000002,
          "velocity": 1,
          "duration": 0.16666650000001937
        },
        {
          "name": "A#5",
          "midi": 82,
          "time": 469.3328640000002,
          "velocity": 1,
          "duration": 0.16666650000001937
        },
        {
          "name": "D#5",
          "midi": 75,
          "time": 469.4995305000002,
          "velocity": 1,
          "duration": 0.16666650000001937
        },
        {
          "name": "A#5",
          "midi": 82,
          "time": 469.4995305000002,
          "velocity": 1,
          "duration": 0.16666650000001937
        },
        {
          "name": "D6",
          "midi": 86,
          "time": 469.66619700000024,
          "velocity": 1,
          "duration": 0.16666650000001937
        },
        {
          "name": "F5",
          "midi": 77,
          "time": 469.66619700000024,
          "velocity": 1,
          "duration": 0.16666650000001937
        },
        {
          "name": "D#6",
          "midi": 87,
          "time": 469.83286350000026,
          "velocity": 1,
          "duration": 0.16666650000001937
        },
        {
          "name": "G5",
          "midi": 79,
          "time": 469.83286350000026,
          "velocity": 1,
          "duration": 0.16666650000001937
        },
        {
          "name": "F6",
          "midi": 89,
          "time": 469.9995300000003,
          "velocity": 1,
          "duration": 0.16666650000001937
        },
        {
          "name": "G#5",
          "midi": 80,
          "time": 469.9995300000003,
          "velocity": 1,
          "duration": 0.16666650000001937
        },
        {
          "name": "F6",
          "midi": 89,
          "time": 470.1661965000003,
          "velocity": 1,
          "duration": 0.16666650000001937
        },
        {
          "name": "G#5",
          "midi": 80,
          "time": 470.1661965000003,
          "velocity": 1,
          "duration": 0.16666650000001937
        },
        {
          "name": "F6",
          "midi": 89,
          "time": 470.3328630000003,
          "velocity": 1,
          "duration": 0.16666650000001937
        },
        {
          "name": "G#5",
          "midi": 80,
          "time": 470.3328630000003,
          "velocity": 1,
          "duration": 0.16666650000001937
        },
        {
          "name": "F6",
          "midi": 89,
          "time": 470.49952950000034,
          "velocity": 1,
          "duration": 0.16666650000001937
        },
        {
          "name": "G#5",
          "midi": 80,
          "time": 470.49952950000034,
          "velocity": 1,
          "duration": 0.16666650000001937
        },
        {
          "name": "F6",
          "midi": 89,
          "time": 470.66619600000035,
          "velocity": 1,
          "duration": 0.16666650000001937
        },
        {
          "name": "G#5",
          "midi": 80,
          "time": 470.66619600000035,
          "velocity": 1,
          "duration": 0.16666650000001937
        },
        {
          "name": "G#5",
          "midi": 80,
          "time": 470.8328625000004,
          "velocity": 1,
          "duration": 0.16666650000001937
        },
        {
          "name": "F6",
          "midi": 89,
          "time": 470.8328625000004,
          "velocity": 1,
          "duration": 0.16666650000001937
        },
        {
          "name": "F6",
          "midi": 89,
          "time": 470.9995290000004,
          "velocity": 1,
          "duration": 0.3333329999999819
        },
        {
          "name": "G#5",
          "midi": 80,
          "time": 470.9995290000004,
          "velocity": 1,
          "duration": 0.3333329999999819
        },
        {
          "name": "F6",
          "midi": 89,
          "time": 471.3328620000004,
          "velocity": 1,
          "duration": 0.3333329999999819
        },
        {
          "name": "D6",
          "midi": 86,
          "time": 471.3328620000004,
          "velocity": 1,
          "duration": 0.3333329999999819
        },
        {
          "name": "F6",
          "midi": 89,
          "time": 472.8328605000004,
          "velocity": 1,
          "duration": 0.16666650000001937
        },
        {
          "name": "D6",
          "midi": 86,
          "time": 472.8328605000004,
          "velocity": 1,
          "duration": 0.16666650000001937
        },
        {
          "name": "D#6",
          "midi": 87,
          "time": 472.9995270000004,
          "velocity": 1,
          "duration": 0.3333329999999819
        },
        {
          "name": "C6",
          "midi": 84,
          "time": 472.9995270000004,
          "velocity": 1,
          "duration": 0.3333329999999819
        },
        {
          "name": "D#6",
          "midi": 87,
          "time": 473.3328600000004,
          "velocity": 1,
          "duration": 0.3333329999999819
        },
        {
          "name": "C6",
          "midi": 84,
          "time": 473.3328600000004,
          "velocity": 1,
          "duration": 0.3333329999999819
        },
        {
          "name": "C6",
          "midi": 84,
          "time": 474.8328585000004,
          "velocity": 1,
          "duration": 0.16666650000001937
        },
        {
          "name": "G5",
          "midi": 79,
          "time": 474.8328585000004,
          "velocity": 1,
          "duration": 0.16666650000001937
        },
        {
          "name": "G5",
          "midi": 79,
          "time": 474.9995250000004,
          "velocity": 1,
          "duration": 0.3333329999999819
        },
        {
          "name": "C#6",
          "midi": 85,
          "time": 474.9995250000004,
          "velocity": 1,
          "duration": 0.3333329999999819
        },
        {
          "name": "G5",
          "midi": 79,
          "time": 475.3328580000004,
          "velocity": 1,
          "duration": 0.3333329999999819
        },
        {
          "name": "E5",
          "midi": 76,
          "time": 475.3328580000004,
          "velocity": 1,
          "duration": 0.3333329999999819
        },
        {
          "name": "C#6",
          "midi": 85,
          "time": 476.8328565000004,
          "velocity": 1,
          "duration": 0.16666650000001937
        },
        {
          "name": "G5",
          "midi": 79,
          "time": 476.8328565000004,
          "velocity": 1,
          "duration": 0.16666650000001937
        },
        {
          "name": "C6",
          "midi": 84,
          "time": 476.9995230000004,
          "velocity": 1,
          "duration": 0.16666650000001937
        },
        {
          "name": "G#5",
          "midi": 80,
          "time": 476.9995230000004,
          "velocity": 1,
          "duration": 0.16666650000001937
        },
        {
          "name": "C6",
          "midi": 84,
          "time": 477.1661895000004,
          "velocity": 1,
          "duration": 0.3333329999999819
        },
        {
          "name": "C5",
          "midi": 72,
          "time": 477.1661895000004,
          "velocity": 1,
          "duration": 0.3333329999999819
        },
        {
          "name": "C6",
          "midi": 84,
          "time": 477.4995225000004,
          "velocity": 1,
          "duration": 0.16666650000001937
        },
        {
          "name": "D#5",
          "midi": 75,
          "time": 477.4995225000004,
          "velocity": 1,
          "duration": 0.16666650000001937
        },
        {
          "name": "D6",
          "midi": 86,
          "time": 477.66618900000043,
          "velocity": 1,
          "duration": 0.16666650000001937
        },
        {
          "name": "D5",
          "midi": 74,
          "time": 477.66618900000043,
          "velocity": 1,
          "duration": 0.16666650000001937
        },
        {
          "name": "G5",
          "midi": 79,
          "time": 477.83285550000045,
          "velocity": 1,
          "duration": 0.16666650000001937
        },
        {
          "name": "F5",
          "midi": 77,
          "time": 477.83285550000045,
          "velocity": 1,
          "duration": 0.16666650000001937
        },
        {
          "name": "D#5",
          "midi": 75,
          "time": 477.99952200000047,
          "velocity": 1,
          "duration": 0.16666650000001937
        },
        {
          "name": "G5",
          "midi": 79,
          "time": 477.99952200000047,
          "velocity": 1,
          "duration": 0.16666650000001937
        },
        {
          "name": "D#6",
          "midi": 87,
          "time": 478.1661885000005,
          "velocity": 1,
          "duration": 0.3333329999999819
        },
        {
          "name": "G#5",
          "midi": 80,
          "time": 478.1661885000005,
          "velocity": 1,
          "duration": 0.3333329999999819
        },
        {
          "name": "D#6",
          "midi": 87,
          "time": 478.49952150000047,
          "velocity": 1,
          "duration": 0.16666650000001937
        },
        {
          "name": "G#5",
          "midi": 80,
          "time": 478.49952150000047,
          "velocity": 1,
          "duration": 0.16666650000001937
        },
        {
          "name": "F6",
          "midi": 89,
          "time": 478.6661880000005,
          "velocity": 1,
          "duration": 0.16666650000001937
        },
        {
          "name": "G#5",
          "midi": 80,
          "time": 478.6661880000005,
          "velocity": 1,
          "duration": 0.16666650000001937
        },
        {
          "name": "A#5",
          "midi": 82,
          "time": 478.8328545000005,
          "velocity": 1,
          "duration": 0.16666650000001937
        },
        {
          "name": "G#5",
          "midi": 80,
          "time": 478.8328545000005,
          "velocity": 1,
          "duration": 0.16666650000001937
        },
        {
          "name": "A#5",
          "midi": 82,
          "time": 478.9995210000005,
          "velocity": 1,
          "duration": 0.3333329999999819
        },
        {
          "name": "G5",
          "midi": 79,
          "time": 478.9995210000005,
          "velocity": 1,
          "duration": 0.3333329999999819
        },
        {
          "name": "D#6",
          "midi": 87,
          "time": 479.3328540000005,
          "velocity": 1,
          "duration": 0.3333329999999819
        },
        {
          "name": "G5",
          "midi": 79,
          "time": 479.3328540000005,
          "velocity": 1,
          "duration": 0.3333329999999819
        },
        {
          "name": "G#5",
          "midi": 80,
          "time": 479.6661870000005,
          "velocity": 1,
          "duration": 0.3333329999999819
        },
        {
          "name": "D#6",
          "midi": 87,
          "time": 479.6661870000005,
          "velocity": 1,
          "duration": 0.3333329999999819
        },
        {
          "name": "D#6",
          "midi": 87,
          "time": 479.9995200000005,
          "velocity": 1,
          "duration": 0.3333329999999819
        },
        {
          "name": "A5",
          "midi": 81,
          "time": 479.9995200000005,
          "velocity": 1,
          "duration": 0.3333329999999819
        },
        {
          "name": "D#6",
          "midi": 87,
          "time": 480.33285300000045,
          "velocity": 1,
          "duration": 0.3333329999999819
        },
        {
          "name": "A#5",
          "midi": 82,
          "time": 480.33285300000045,
          "velocity": 1,
          "duration": 0.3333329999999819
        },
        {
          "name": "D#6",
          "midi": 87,
          "time": 480.66618600000044,
          "velocity": 1,
          "duration": 0.3333329999999819
        },
        {
          "name": "B5",
          "midi": 83,
          "time": 480.66618600000044,
          "velocity": 1,
          "duration": 0.3333329999999819
        },
        {
          "name": "D#6",
          "midi": 87,
          "time": 480.9995190000004,
          "velocity": 1,
          "duration": 0.6666660000000206
        },
        {
          "name": "C6",
          "midi": 84,
          "time": 480.9995190000004,
          "velocity": 1,
          "duration": 1.3333319999999844
        },
        {
          "name": "E6",
          "midi": 88,
          "time": 481.66618500000044,
          "velocity": 1,
          "duration": 0.3333329999999819
        },
        {
          "name": "F6",
          "midi": 89,
          "time": 481.9995180000004,
          "velocity": 1,
          "duration": 0.3333329999999819
        },
        {
          "name": "A#5",
          "midi": 82,
          "time": 484.99951500000043,
          "velocity": 1,
          "duration": 2.1666645000000244
        },
        {
          "name": "A5",
          "midi": 81,
          "time": 487.16617950000045,
          "velocity": 1,
          "duration": 0.16666650000001937
        },
        {
          "name": "G#5",
          "midi": 80,
          "time": 487.3328460000005,
          "velocity": 1,
          "duration": 0.16666650000001937
        },
        {
          "name": "G6",
          "midi": 91,
          "time": 487.4995125000005,
          "velocity": 1,
          "duration": 0.16666650000001937
        },
        {
          "name": "G5",
          "midi": 79,
          "time": 487.4995125000005,
          "velocity": 1,
          "duration": 0.16666650000001937
        },
        {
          "name": "F6",
          "midi": 89,
          "time": 487.6661790000005,
          "velocity": 1,
          "duration": 0.16666650000001937
        },
        {
          "name": "F5",
          "midi": 77,
          "time": 487.6661790000005,
          "velocity": 1,
          "duration": 0.16666650000001937
        },
        {
          "name": "D#6",
          "midi": 87,
          "time": 487.83284550000053,
          "velocity": 1,
          "duration": 0.16666650000001937
        },
        {
          "name": "D#5",
          "midi": 75,
          "time": 487.83284550000053,
          "velocity": 1,
          "duration": 0.16666650000001937
        },
        {
          "name": "D5",
          "midi": 74,
          "time": 487.99951200000055,
          "velocity": 1,
          "duration": 0.16666650000001937
        },
        {
          "name": "D6",
          "midi": 86,
          "time": 487.99951200000055,
          "velocity": 1,
          "duration": 0.16666650000001937
        },
        {
          "name": "C6",
          "midi": 84,
          "time": 488.16617850000057,
          "velocity": 1,
          "duration": 0.16666650000001937
        },
        {
          "name": "C5",
          "midi": 72,
          "time": 488.16617850000057,
          "velocity": 1,
          "duration": 0.16666650000001937
        },
        {
          "name": "A#5",
          "midi": 82,
          "time": 488.3328450000006,
          "velocity": 1,
          "duration": 0.16666650000001937
        },
        {
          "name": "A#4",
          "midi": 70,
          "time": 488.3328450000006,
          "velocity": 1,
          "duration": 0.16666650000001937
        },
        {
          "name": "G#5",
          "midi": 80,
          "time": 488.4995115000006,
          "velocity": 1,
          "duration": 0.16666650000001937
        },
        {
          "name": "G5",
          "midi": 79,
          "time": 488.6661780000006,
          "velocity": 1,
          "duration": 0.16666650000001937
        },
        {
          "name": "F5",
          "midi": 77,
          "time": 488.83284450000065,
          "velocity": 1,
          "duration": 0.16666650000001937
        },
        {
          "name": "D#5",
          "midi": 75,
          "time": 488.99951100000067,
          "velocity": 1,
          "duration": 0.3333329999999819
        },
        {
          "name": "A#5",
          "midi": 82,
          "time": 496.66617000000065,
          "velocity": 1,
          "duration": 0.6666660000000206
        },
        {
          "name": "G#5",
          "midi": 80,
          "time": 497.33283600000067,
          "velocity": 1,
          "duration": 0.16666650000001937
        },
        {
          "name": "F#5",
          "midi": 78,
          "time": 497.4995025000007,
          "velocity": 1,
          "duration": 0.16666650000001937
        },
        {
          "name": "F5",
          "midi": 77,
          "time": 497.6661690000007,
          "velocity": 1,
          "duration": 0.16666650000001937
        },
        {
          "name": "D#5",
          "midi": 75,
          "time": 497.8328355000007,
          "velocity": 1,
          "duration": 0.16666650000001937
        },
        {
          "name": "B5",
          "midi": 83,
          "time": 499.33283400000073,
          "velocity": 1,
          "duration": 0.3333329999999819
        },
        {
          "name": "B5",
          "midi": 83,
          "time": 499.6661670000007,
          "velocity": 1,
          "duration": 0.3333329999999819
        },
        {
          "name": "B5",
          "midi": 83,
          "time": 499.9995000000007,
          "velocity": 1,
          "duration": 0.9999990000000025
        },
        {
          "name": "G#4",
          "midi": 68,
          "time": 513.6661530000007,
          "velocity": 1,
          "duration": 0.16666650000001937
        },
        {
          "name": "A#4",
          "midi": 70,
          "time": 513.8328195000007,
          "velocity": 1,
          "duration": 0.16666650000001937
        },
        {
          "name": "C5",
          "midi": 72,
          "time": 513.9994860000007,
          "velocity": 1,
          "duration": 0.16666650000001937
        },
        {
          "name": "D5",
          "midi": 74,
          "time": 514.1661525000007,
          "velocity": 1,
          "duration": 0.16666650000001937
        },
        {
          "name": "D#5",
          "midi": 75,
          "time": 514.3328190000008,
          "velocity": 1,
          "duration": 0.16666650000001937
        },
        {
          "name": "F5",
          "midi": 77,
          "time": 514.4994855000008,
          "velocity": 1,
          "duration": 0.16666650000001937
        },
        {
          "name": "G5",
          "midi": 79,
          "time": 514.6661520000008,
          "velocity": 1,
          "duration": 0.16666650000001937
        },
        {
          "name": "G#5",
          "midi": 80,
          "time": 514.8328185000008,
          "velocity": 1,
          "duration": 0.16666650000001937
        },
        {
          "name": "A#5",
          "midi": 82,
          "time": 514.9994850000008,
          "velocity": 1,
          "duration": 0.33333300000003874
        },
        {
          "name": "A#5",
          "midi": 82,
          "time": 515.3328180000009,
          "velocity": 1,
          "duration": 0.6666659999999638
        },
        {
          "name": "A#5",
          "midi": 82,
          "time": 516.3328170000009,
          "velocity": 1,
          "duration": 0.6666659999999638
        },
        {
          "name": "A#5",
          "midi": 82,
          "time": 517.3328160000009,
          "velocity": 1,
          "duration": 0.6666659999999638
        },
        {
          "name": "A#5",
          "midi": 82,
          "time": 518.3328150000009,
          "velocity": 1,
          "duration": 0.33333300000003874
        },
        {
          "name": "A#5",
          "midi": 82,
          "time": 518.6661480000009,
          "velocity": 1,
          "duration": 0.33333300000003874
        },
        {
          "name": "A#5",
          "midi": 82,
          "time": 518.999481000001,
          "velocity": 1,
          "duration": 0.33333300000003874
        },
        {
          "name": "A#5",
          "midi": 82,
          "time": 519.332814000001,
          "velocity": 1,
          "duration": 0.4999994999999444
        },
        {
          "name": "G6",
          "midi": 91,
          "time": 519.832813500001,
          "velocity": 1,
          "duration": 0.16666650000001937
        },
        {
          "name": "G5",
          "midi": 79,
          "time": 519.832813500001,
          "velocity": 1,
          "duration": 0.16666650000001937
        },
        {
          "name": "D#6",
          "midi": 87,
          "time": 519.999480000001,
          "velocity": 1,
          "duration": 0.33333300000003874
        },
        {
          "name": "D#5",
          "midi": 75,
          "time": 519.999480000001,
          "velocity": 1,
          "duration": 0.33333300000003874
        },
        {
          "name": "G6",
          "midi": 91,
          "time": 520.332813000001,
          "velocity": 1,
          "duration": 0.4999994999999444
        },
        {
          "name": "G5",
          "midi": 79,
          "time": 520.332813000001,
          "velocity": 1,
          "duration": 0.4999994999999444
        },
        {
          "name": "A#4",
          "midi": 70,
          "time": 520.832812500001,
          "velocity": 1,
          "duration": 0.16666650000001937
        },
        {
          "name": "A#5",
          "midi": 82,
          "time": 520.832812500001,
          "velocity": 1,
          "duration": 0.16666650000001937
        },
        {
          "name": "F6",
          "midi": 89,
          "time": 520.999479000001,
          "velocity": 1,
          "duration": 0.33333300000003874
        },
        {
          "name": "F5",
          "midi": 77,
          "time": 520.999479000001,
          "velocity": 1,
          "duration": 0.33333300000003874
        },
        {
          "name": "G#6",
          "midi": 92,
          "time": 521.332812000001,
          "velocity": 1,
          "duration": 0.4999994999999444
        },
        {
          "name": "G#5",
          "midi": 80,
          "time": 521.332812000001,
          "velocity": 1,
          "duration": 0.4999994999999444
        },
        {
          "name": "A#5",
          "midi": 82,
          "time": 521.832811500001,
          "velocity": 1,
          "duration": 0.16666650000001937
        },
        {
          "name": "A#4",
          "midi": 70,
          "time": 521.832811500001,
          "velocity": 1,
          "duration": 0.16666650000001937
        },
        {
          "name": "D6",
          "midi": 86,
          "time": 521.999478000001,
          "velocity": 1,
          "duration": 0.33333300000003874
        },
        {
          "name": "D5",
          "midi": 74,
          "time": 521.999478000001,
          "velocity": 1,
          "duration": 0.33333300000003874
        },
        {
          "name": "F6",
          "midi": 89,
          "time": 522.332811000001,
          "velocity": 1,
          "duration": 0.4999994999999444
        },
        {
          "name": "F5",
          "midi": 77,
          "time": 522.332811000001,
          "velocity": 1,
          "duration": 0.4999994999999444
        },
        {
          "name": "A#5",
          "midi": 82,
          "time": 522.832810500001,
          "velocity": 1,
          "duration": 0.16666650000001937
        },
        {
          "name": "A#4",
          "midi": 70,
          "time": 522.832810500001,
          "velocity": 1,
          "duration": 0.16666650000001937
        },
        {
          "name": "D#6",
          "midi": 87,
          "time": 522.999477000001,
          "velocity": 1,
          "duration": 1.3333320000000413
        },
        {
          "name": "D#5",
          "midi": 75,
          "time": 522.999477000001,
          "velocity": 1,
          "duration": 0.8333324999999832
        },
        {
          "name": "A5",
          "midi": 81,
          "time": 523.832809500001,
          "velocity": 1,
          "duration": 0.16666650000001937
        },
        {
          "name": "A#5",
          "midi": 82,
          "time": 523.999476000001,
          "velocity": 1,
          "duration": 0.33333300000003874
        },
        {
          "name": "B5",
          "midi": 83,
          "time": 527.832805500001,
          "velocity": 1,
          "duration": 0.16666650000001937
        },
        {
          "name": "G5",
          "midi": 79,
          "time": 527.832805500001,
          "velocity": 1,
          "duration": 0.16666650000001937
        },
        {
          "name": "C6",
          "midi": 84,
          "time": 527.999472000001,
          "velocity": 1,
          "duration": 0.16666650000001937
        },
        {
          "name": "G5",
          "midi": 79,
          "time": 527.999472000001,
          "velocity": 1,
          "duration": 0.16666650000001937
        },
        {
          "name": "D6",
          "midi": 86,
          "time": 528.166138500001,
          "velocity": 1,
          "duration": 0.16666650000001937
        },
        {
          "name": "G5",
          "midi": 79,
          "time": 528.166138500001,
          "velocity": 1,
          "duration": 0.16666650000001937
        },
        {
          "name": "D#6",
          "midi": 87,
          "time": 528.332805000001,
          "velocity": 1,
          "duration": 0.16666650000001937
        },
        {
          "name": "G5",
          "midi": 79,
          "time": 528.332805000001,
          "velocity": 1,
          "duration": 0.16666650000001937
        },
        {
          "name": "E6",
          "midi": 88,
          "time": 528.499471500001,
          "velocity": 1,
          "duration": 0.16666650000001937
        },
        {
          "name": "C6",
          "midi": 84,
          "time": 528.499471500001,
          "velocity": 1,
          "duration": 0.16666650000001937
        },
        {
          "name": "C6",
          "midi": 84,
          "time": 528.6661380000011,
          "velocity": 1,
          "duration": 0.16666650000001937
        },
        {
          "name": "F6",
          "midi": 89,
          "time": 528.6661380000011,
          "velocity": 1,
          "duration": 0.16666650000001937
        },
        {
          "name": "F#6",
          "midi": 90,
          "time": 528.8328045000011,
          "velocity": 1,
          "duration": 0.16666650000001937
        },
        {
          "name": "C6",
          "midi": 84,
          "time": 528.8328045000011,
          "velocity": 1,
          "duration": 0.16666650000001937
        },
        {
          "name": "G6",
          "midi": 91,
          "time": 528.9994710000011,
          "velocity": 1,
          "duration": 0.33333300000003874
        },
        {
          "name": "B5",
          "midi": 83,
          "time": 528.9994710000011,
          "velocity": 1,
          "duration": 0.33333300000003874
        },
        {
          "name": "F6",
          "midi": 89,
          "time": 529.3328040000011,
          "velocity": 1,
          "duration": 0.33333300000003874
        },
        {
          "name": "D#6",
          "midi": 87,
          "time": 529.6661370000012,
          "velocity": 1,
          "duration": 0.33333300000003874
        },
        {
          "name": "C#6",
          "midi": 85,
          "time": 530.3328030000013,
          "velocity": 1,
          "duration": 0.33333300000003874
        },
        {
          "name": "C6",
          "midi": 84,
          "time": 530.6661360000013,
          "velocity": 1,
          "duration": 0.33333300000003874
        },
        {
          "name": "D#6",
          "midi": 87,
          "time": 531.3328020000014,
          "velocity": 1,
          "duration": 0.33333300000003874
        },
        {
          "name": "D6",
          "midi": 86,
          "time": 531.6661350000014,
          "velocity": 1,
          "duration": 0.33333300000003874
        },
        {
          "name": "F6",
          "midi": 89,
          "time": 532.3328010000015,
          "velocity": 1,
          "duration": 0.33333300000003874
        },
        {
          "name": "D#6",
          "midi": 87,
          "time": 532.6661340000015,
          "velocity": 1,
          "duration": 0.33333300000003874
        },
        {
          "name": "C#6",
          "midi": 85,
          "time": 533.3328000000016,
          "velocity": 1,
          "duration": 0.33333300000003874
        },
        {
          "name": "C6",
          "midi": 84,
          "time": 533.6661330000017,
          "velocity": 1,
          "duration": 0.33333300000003874
        },
        {
          "name": "D#6",
          "midi": 87,
          "time": 534.3327990000017,
          "velocity": 1,
          "duration": 0.33333300000003874
        },
        {
          "name": "D#6",
          "midi": 87,
          "time": 534.9994650000018,
          "velocity": 1,
          "duration": 0.33333300000003874
        },
        {
          "name": "D#6",
          "midi": 87,
          "time": 535.6661310000019,
          "velocity": 1,
          "duration": 0.33333300000003874
        },
        {
          "name": "D#6",
          "midi": 87,
          "time": 536.332797000002,
          "velocity": 1,
          "duration": 0.33333300000003874
        },
        {
          "name": "D#6",
          "midi": 87,
          "time": 536.999463000002,
          "velocity": 1,
          "duration": 0.33333300000003874
        },
        {
          "name": "D#6",
          "midi": 87,
          "time": 537.6661290000021,
          "velocity": 1,
          "duration": 0.33333300000003874
        },
        {
          "name": "F#5",
          "midi": 78,
          "time": 542.6661240000021,
          "velocity": 1,
          "duration": 0.33333300000003874
        },
        {
          "name": "F5",
          "midi": 77,
          "time": 543.3327900000022,
          "velocity": 1,
          "duration": 0.33333300000003874
        },
        {
          "name": "G#5",
          "midi": 80,
          "time": 543.9994560000023,
          "velocity": 1,
          "duration": 0.33333300000003874
        },
        {
          "name": "G#5",
          "midi": 80,
          "time": 544.6661220000024,
          "velocity": 1,
          "duration": 0.33333300000003874
        },
        {
          "name": "G5",
          "midi": 79,
          "time": 545.3327880000024,
          "velocity": 1,
          "duration": 0.33333300000003874
        },
        {
          "name": "C6",
          "midi": 84,
          "time": 545.9994540000025,
          "velocity": 1,
          "duration": 1.499998499999947
        },
        {
          "name": "C5",
          "midi": 72,
          "time": 545.9994540000025,
          "velocity": 1,
          "duration": 1.499998499999947
        },
        {
          "name": "C6",
          "midi": 84,
          "time": 547.4994525000025,
          "velocity": 1,
          "duration": 0.16666650000001937
        },
        {
          "name": "G#5",
          "midi": 80,
          "time": 547.4994525000025,
          "velocity": 1,
          "duration": 0.16666650000001937
        },
        {
          "name": "A#5",
          "midi": 82,
          "time": 547.6661190000025,
          "velocity": 1,
          "duration": 0.16666650000001937
        },
        {
          "name": "G5",
          "midi": 79,
          "time": 547.6661190000025,
          "velocity": 1,
          "duration": 0.16666650000001937
        },
        {
          "name": "G#5",
          "midi": 80,
          "time": 547.8327855000025,
          "velocity": 1,
          "duration": 0.16666650000001937
        },
        {
          "name": "F5",
          "midi": 77,
          "time": 547.8327855000025,
          "velocity": 1,
          "duration": 0.16666650000001937
        },
        {
          "name": "G5",
          "midi": 79,
          "time": 547.9994520000025,
          "velocity": 1,
          "duration": 0.16666650000001937
        },
        {
          "name": "D#5",
          "midi": 75,
          "time": 547.9994520000025,
          "velocity": 1,
          "duration": 0.16666650000001937
        },
        {
          "name": "D#5",
          "midi": 75,
          "time": 548.1661185000025,
          "velocity": 1,
          "duration": 0.16666650000001937
        },
        {
          "name": "G5",
          "midi": 79,
          "time": 548.3327850000026,
          "velocity": 1,
          "duration": 0.16666650000001937
        },
        {
          "name": "D#5",
          "midi": 75,
          "time": 548.3327850000026,
          "velocity": 1,
          "duration": 0.16666650000001937
        },
        {
          "name": "A#5",
          "midi": 82,
          "time": 548.4994515000026,
          "velocity": 1,
          "duration": 0.16666650000001937
        },
        {
          "name": "G5",
          "midi": 79,
          "time": 548.4994515000026,
          "velocity": 1,
          "duration": 0.16666650000001937
        },
        {
          "name": "G5",
          "midi": 79,
          "time": 548.6661180000026,
          "velocity": 1,
          "duration": 0.16666650000001937
        },
        {
          "name": "D#6",
          "midi": 87,
          "time": 548.6661180000026,
          "velocity": 1,
          "duration": 0.16666650000001937
        },
        {
          "name": "G6",
          "midi": 91,
          "time": 548.8327845000026,
          "velocity": 1,
          "duration": 0.16666650000001937
        },
        {
          "name": "A#5",
          "midi": 82,
          "time": 548.8327845000026,
          "velocity": 1,
          "duration": 0.16666650000001937
        },
        {
          "name": "A#5",
          "midi": 82,
          "time": 548.9994510000026,
          "velocity": 1,
          "duration": 0.9999990000000025
        },
        {
          "name": "D#5",
          "midi": 75,
          "time": 549.9994500000026,
          "velocity": 1,
          "duration": 0.33333300000003874
        },
        {
          "name": "D#6",
          "midi": 87,
          "time": 550.9994490000026,
          "velocity": 1,
          "duration": 0.33333300000003874
        },
        {
          "name": "D#6",
          "midi": 87,
          "time": 551.9994480000026,
          "velocity": 1,
          "duration": 0.33333300000003874
        },
        {
          "name": "D#6",
          "midi": 87,
          "time": 552.9994470000026,
          "velocity": 1,
          "duration": 0.33333300000003874
        },
        {
          "name": "D6",
          "midi": 86,
          "time": 552.9994470000026,
          "velocity": 1,
          "duration": 0.33333300000003874
        },
        {
          "name": "D#6",
          "midi": 87,
          "time": 553.3327800000027,
          "velocity": 1,
          "duration": 0.33333300000003874
        },
        {
          "name": "D6",
          "midi": 86,
          "time": 553.3327800000027,
          "velocity": 1,
          "duration": 0.33333300000003874
        },
        {
          "name": "D6",
          "midi": 86,
          "time": 553.6661130000027,
          "velocity": 1,
          "duration": 0.33333300000003874
        },
        {
          "name": "D#6",
          "midi": 87,
          "time": 553.6661130000027,
          "velocity": 1,
          "duration": 0.33333300000003874
        },
        {
          "name": "D#6",
          "midi": 87,
          "time": 553.9994460000028,
          "velocity": 1,
          "duration": 0.33333300000003874
        },
        {
          "name": "D#5",
          "midi": 75,
          "time": 555.4994445000028,
          "velocity": 1,
          "duration": 0.16666650000001937
        },
        {
          "name": "G5",
          "midi": 79,
          "time": 555.6661110000028,
          "velocity": 1,
          "duration": 0.16666650000001937
        },
        {
          "name": "A#5",
          "midi": 82,
          "time": 555.8327775000029,
          "velocity": 1,
          "duration": 0.16666650000001937
        },
        {
          "name": "D#6",
          "midi": 87,
          "time": 555.9994440000029,
          "velocity": 1,
          "duration": 0.6666659999999638
        },
        {
          "name": "G6",
          "midi": 91,
          "time": 556.6661100000028,
          "velocity": 1,
          "duration": 0.33333300000003874
        },
        {
          "name": "D#6",
          "midi": 87,
          "time": 556.9994430000029,
          "velocity": 1,
          "duration": 0.6666659999999638
        },
        {
          "name": "A#5",
          "midi": 82,
          "time": 557.6661090000028,
          "velocity": 1,
          "duration": 0.33333300000003874
        },
        {
          "name": "D#6",
          "midi": 87,
          "time": 557.9994420000029,
          "velocity": 1,
          "duration": 0.33333300000003874
        },
        {
          "name": "F6",
          "midi": 89,
          "time": 559.9994400000029,
          "velocity": 1,
          "duration": 1.999998000000005
        },
        {
          "name": "C#6",
          "midi": 85,
          "time": 559.9994400000029,
          "velocity": 1,
          "duration": 2.333331000000044
        },
        {
          "name": "C6",
          "midi": 84,
          "time": 563.9994360000029,
          "velocity": 1,
          "duration": 0.16666650000001937
        },
        {
          "name": "C6",
          "midi": 84,
          "time": 564.1661025000029,
          "velocity": 1,
          "duration": 0.16666650000001937
        },
        {
          "name": "C6",
          "midi": 84,
          "time": 564.3327690000029,
          "velocity": 1,
          "duration": 0.16666650000001937
        },
        {
          "name": "C6",
          "midi": 84,
          "time": 564.499435500003,
          "velocity": 1,
          "duration": 0.16666650000001937
        },
        {
          "name": "E6",
          "midi": 88,
          "time": 564.666102000003,
          "velocity": 1,
          "duration": 0.16666650000001937
        },
        {
          "name": "E6",
          "midi": 88,
          "time": 564.832768500003,
          "velocity": 1,
          "duration": 0.16666650000001937
        },
        {
          "name": "C6",
          "midi": 84,
          "time": 564.999435000003,
          "velocity": 1,
          "duration": 0.16666650000001937
        },
        {
          "name": "C6",
          "midi": 84,
          "time": 565.166101500003,
          "velocity": 1,
          "duration": 0.16666650000001937
        },
        {
          "name": "C6",
          "midi": 84,
          "time": 565.332768000003,
          "velocity": 1,
          "duration": 0.16666650000001937
        },
        {
          "name": "C6",
          "midi": 84,
          "time": 565.4994345000031,
          "velocity": 1,
          "duration": 0.16666650000001937
        },
        {
          "name": "G5",
          "midi": 79,
          "time": 565.6661010000031,
          "velocity": 1,
          "duration": 0.16666650000001937
        },
        {
          "name": "G5",
          "midi": 79,
          "time": 565.8327675000031,
          "velocity": 1,
          "duration": 0.16666650000001937
        },
        {
          "name": "C6",
          "midi": 84,
          "time": 565.9994340000031,
          "velocity": 1,
          "duration": 0.33333300000003874
        },
        {
          "name": "A#5",
          "midi": 82,
          "time": 590.9994090000032,
          "velocity": 1,
          "duration": 1.3333320000000413
        },
        {
          "name": "D#6",
          "midi": 87,
          "time": 592.3327410000032,
          "velocity": 1,
          "duration": 0.33333300000003874
        },
        {
          "name": "D6",
          "midi": 86,
          "time": 592.6660740000033,
          "velocity": 1,
          "duration": 0.33333300000003874
        },
        {
          "name": "D#6",
          "midi": 87,
          "time": 592.9994070000033,
          "velocity": 1,
          "duration": 0.4999994999999444
        },
        {
          "name": "F6",
          "midi": 89,
          "time": 593.4994065000033,
          "velocity": 1,
          "duration": 0.16666650000001937
        },
        {
          "name": "F#6",
          "midi": 90,
          "time": 593.6660730000033,
          "velocity": 1,
          "duration": 0.33333300000003874
        },
        {
          "name": "F6",
          "midi": 89,
          "time": 593.9994060000033,
          "velocity": 1,
          "duration": 0.33333300000003874
        },
        {
          "name": "A#5",
          "midi": 82,
          "time": 595.4994045000034,
          "velocity": 1,
          "duration": 0.16666650000001937
        },
        {
          "name": "C6",
          "midi": 84,
          "time": 595.6660710000034,
          "velocity": 1,
          "duration": 0.16666650000001937
        },
        {
          "name": "D6",
          "midi": 86,
          "time": 595.8327375000034,
          "velocity": 1,
          "duration": 0.16666650000001937
        },
        {
          "name": "D#6",
          "midi": 87,
          "time": 595.9994040000034,
          "velocity": 1,
          "duration": 0.33333300000003874
        },
        {
          "name": "D#6",
          "midi": 87,
          "time": 596.3327370000035,
          "velocity": 1,
          "duration": 0.33333300000003874
        },
        {
          "name": "D6",
          "midi": 86,
          "time": 596.6660700000035,
          "velocity": 1,
          "duration": 0.33333300000003874
        },
        {
          "name": "D#6",
          "midi": 87,
          "time": 596.9994030000036,
          "velocity": 1,
          "duration": 0.4999994999999444
        },
        {
          "name": "F6",
          "midi": 89,
          "time": 597.4994025000035,
          "velocity": 1,
          "duration": 0.16666650000001937
        },
        {
          "name": "F#6",
          "midi": 90,
          "time": 597.6660690000035,
          "velocity": 1,
          "duration": 0.33333300000003874
        },
        {
          "name": "F6",
          "midi": 89,
          "time": 597.9994020000036,
          "velocity": 1,
          "duration": 0.33333300000003874
        },
        {
          "name": "A#5",
          "midi": 82,
          "time": 607.9993920000036,
          "velocity": 1,
          "duration": 1.6666649999999663
        },
        {
          "name": "B5",
          "midi": 83,
          "time": 609.6660570000035,
          "velocity": 1,
          "duration": 0.33333300000003874
        },
        {
          "name": "C6",
          "midi": 84,
          "time": 609.9993900000036,
          "velocity": 1,
          "duration": 0.33333300000003874
        },
        {
          "name": "C6",
          "midi": 84,
          "time": 611.9993880000036,
          "velocity": 1,
          "duration": 1.6666649999999663
        },
        {
          "name": "C#6",
          "midi": 85,
          "time": 613.6660530000036,
          "velocity": 1,
          "duration": 0.33333300000003874
        },
        {
          "name": "D6",
          "midi": 86,
          "time": 613.9993860000036,
          "velocity": 1,
          "duration": 0.33333300000003874
        },
        {
          "name": "D6",
          "midi": 86,
          "time": 622.3327110000037,
          "velocity": 1,
          "duration": 0.9999990000000025
        },
        {
          "name": "D6",
          "midi": 86,
          "time": 623.3327100000037,
          "velocity": 1,
          "duration": 0.9999990000000025
        },
        {
          "name": "D6",
          "midi": 86,
          "time": 624.3327090000037,
          "velocity": 1,
          "duration": 0.33333300000003874
        },
        {
          "name": "D6",
          "midi": 86,
          "time": 624.6660420000037,
          "velocity": 1,
          "duration": 0.33333300000003874
        },
        {
          "name": "D6",
          "midi": 86,
          "time": 624.9993750000037,
          "velocity": 1,
          "duration": 0.33333300000003874
        },
        {
          "name": "D#6",
          "midi": 87,
          "time": 625.3327080000038,
          "velocity": 1,
          "duration": 0.33333300000003874
        },
        {
          "name": "F6",
          "midi": 89,
          "time": 625.6660410000038,
          "velocity": 1,
          "duration": 0.4999994999999444
        },
        {
          "name": "D#6",
          "midi": 87,
          "time": 626.1660405000038,
          "velocity": 1,
          "duration": 0.16666650000001937
        },
        {
          "name": "D6",
          "midi": 86,
          "time": 626.3327070000038,
          "velocity": 1,
          "duration": 0.16666650000001937
        },
        {
          "name": "D#6",
          "midi": 87,
          "time": 626.4993735000038,
          "velocity": 1,
          "duration": 0.16666650000001937
        },
        {
          "name": "F6",
          "midi": 89,
          "time": 626.6660400000038,
          "velocity": 1,
          "duration": 0.16666650000001937
        },
        {
          "name": "D#6",
          "midi": 87,
          "time": 626.8327065000038,
          "velocity": 1,
          "duration": 0.16666650000001937
        },
        {
          "name": "D#6",
          "midi": 87,
          "time": 627.1660395000039,
          "velocity": 1,
          "duration": 0.16666650000001937
        },
        {
          "name": "D6",
          "midi": 86,
          "time": 627.3327060000039,
          "velocity": 1,
          "duration": 0.16666650000001937
        },
        {
          "name": "D#6",
          "midi": 87,
          "time": 627.4993725000039,
          "velocity": 1,
          "duration": 0.16666650000001937
        },
        {
          "name": "F6",
          "midi": 89,
          "time": 627.6660390000039,
          "velocity": 1,
          "duration": 0.16666650000001937
        },
        {
          "name": "D#6",
          "midi": 87,
          "time": 627.832705500004,
          "velocity": 1,
          "duration": 0.16666650000001937
        },
        {
          "name": "C6",
          "midi": 84,
          "time": 628.166038500004,
          "velocity": 1,
          "duration": 0.16666650000001937
        },
        {
          "name": "B5",
          "midi": 83,
          "time": 628.332705000004,
          "velocity": 1,
          "duration": 0.16666650000001937
        },
        {
          "name": "C6",
          "midi": 84,
          "time": 628.499371500004,
          "velocity": 1,
          "duration": 0.16666650000001937
        },
        {
          "name": "D6",
          "midi": 86,
          "time": 628.666038000004,
          "velocity": 1,
          "duration": 0.16666650000001937
        },
        {
          "name": "C6",
          "midi": 84,
          "time": 628.8327045000041,
          "velocity": 1,
          "duration": 0.16666650000001937
        },
        {
          "name": "C6",
          "midi": 84,
          "time": 629.1660375000041,
          "velocity": 1,
          "duration": 0.16666650000001937
        },
        {
          "name": "B5",
          "midi": 83,
          "time": 629.3327040000041,
          "velocity": 1,
          "duration": 0.16666650000001937
        },
        {
          "name": "C6",
          "midi": 84,
          "time": 629.4993705000041,
          "velocity": 1,
          "duration": 0.16666650000001937
        },
        {
          "name": "D6",
          "midi": 86,
          "time": 629.6660370000042,
          "velocity": 1,
          "duration": 0.16666650000001937
        },
        {
          "name": "C6",
          "midi": 84,
          "time": 629.8327035000042,
          "velocity": 1,
          "duration": 0.16666650000001937
        },
        {
          "name": "A#5",
          "midi": 82,
          "time": 629.9993700000042,
          "velocity": 1,
          "duration": 1.3333320000000413
        },
        {
          "name": "D#6",
          "midi": 87,
          "time": 631.3327020000042,
          "velocity": 1,
          "duration": 0.33333300000003874
        },
        {
          "name": "G5",
          "midi": 79,
          "time": 631.3327020000042,
          "velocity": 1,
          "duration": 0.33333300000003874
        },
        {
          "name": "G5",
          "midi": 79,
          "time": 631.6660350000043,
          "velocity": 1,
          "duration": 0.33333300000003874
        },
        {
          "name": "D#6",
          "midi": 87,
          "time": 631.6660350000043,
          "velocity": 1,
          "duration": 0.33333300000003874
        },
        {
          "name": "D6",
          "midi": 86,
          "time": 631.9993680000043,
          "velocity": 1,
          "duration": 0.33333300000003874
        },
        {
          "name": "F5",
          "midi": 77,
          "time": 631.9993680000043,
          "velocity": 1,
          "duration": 0.33333300000003874
        },
        {
          "name": "F6",
          "midi": 89,
          "time": 632.3327010000044,
          "velocity": 1,
          "duration": 0.33333300000003874
        },
        {
          "name": "G#5",
          "midi": 80,
          "time": 632.3327010000044,
          "velocity": 1,
          "duration": 0.33333300000003874
        },
        {
          "name": "F6",
          "midi": 89,
          "time": 632.6660340000044,
          "velocity": 1,
          "duration": 0.33333300000003874
        },
        {
          "name": "G#5",
          "midi": 80,
          "time": 632.6660340000044,
          "velocity": 1,
          "duration": 0.33333300000003874
        },
        {
          "name": "D6",
          "midi": 86,
          "time": 632.9993670000044,
          "velocity": 1,
          "duration": 0.33333300000003874
        },
        {
          "name": "G#5",
          "midi": 80,
          "time": 632.9993670000044,
          "velocity": 1,
          "duration": 0.33333300000003874
        },
        {
          "name": "D6",
          "midi": 86,
          "time": 633.3327000000045,
          "velocity": 1,
          "duration": 0.33333300000003874
        },
        {
          "name": "G#5",
          "midi": 80,
          "time": 633.3327000000045,
          "velocity": 1,
          "duration": 0.33333300000003874
        },
        {
          "name": "D6",
          "midi": 86,
          "time": 633.6660330000045,
          "velocity": 1,
          "duration": 0.33333300000003874
        },
        {
          "name": "G#5",
          "midi": 80,
          "time": 633.6660330000045,
          "velocity": 1,
          "duration": 0.33333300000003874
        },
        {
          "name": "D#6",
          "midi": 87,
          "time": 633.9993660000046,
          "velocity": 1,
          "duration": 0.33333300000003874
        },
        {
          "name": "G5",
          "midi": 79,
          "time": 633.9993660000046,
          "velocity": 1,
          "duration": 0.33333300000003874
        },
        {
          "name": "A#5",
          "midi": 82,
          "time": 645.9993540000046,
          "velocity": 1,
          "duration": 4.1666625000000295
        },
        {
          "name": "G5",
          "midi": 79,
          "time": 650.1660165000046,
          "velocity": 1,
          "duration": 0.08333325000000968
        },
        {
          "name": "G#5",
          "midi": 80,
          "time": 650.2493497500046,
          "velocity": 1,
          "duration": 0.08333325000000968
        },
        {
          "name": "A#5",
          "midi": 82,
          "time": 650.3326830000046,
          "velocity": 1,
          "duration": 0.16666650000001937
        },
        {
          "name": "A#5",
          "midi": 82,
          "time": 650.4993495000047,
          "velocity": 1,
          "duration": 0.16666650000001937
        },
        {
          "name": "C6",
          "midi": 84,
          "time": 650.6660160000047,
          "velocity": 1,
          "duration": 0.16666650000001937
        },
        {
          "name": "D6",
          "midi": 86,
          "time": 650.8326825000047,
          "velocity": 1,
          "duration": 0.16666650000001937
        },
        {
          "name": "D#6",
          "midi": 87,
          "time": 650.9993490000047,
          "velocity": 1,
          "duration": 0.16666650000001937
        },
        {
          "name": "A#5",
          "midi": 82,
          "time": 651.1660155000047,
          "velocity": 1,
          "duration": 0.16666650000001937
        },
        {
          "name": "C6",
          "midi": 84,
          "time": 651.3326820000048,
          "velocity": 1,
          "duration": 0.16666650000001937
        },
        {
          "name": "D6",
          "midi": 86,
          "time": 651.4993485000048,
          "velocity": 1,
          "duration": 0.16666650000001937
        },
        {
          "name": "D#6",
          "midi": 87,
          "time": 651.6660150000048,
          "velocity": 1,
          "duration": 0.16666650000001937
        },
        {
          "name": "F6",
          "midi": 89,
          "time": 651.8326815000048,
          "velocity": 1,
          "duration": 0.16666650000001937
        },
        {
          "name": "G6",
          "midi": 91,
          "time": 651.9993480000048,
          "velocity": 1,
          "duration": 0.16666650000001937
        },
        {
          "name": "G6",
          "midi": 91,
          "time": 652.1660145000048,
          "velocity": 1,
          "duration": 0.08333325000000968
        },
        {
          "name": "F6",
          "midi": 89,
          "time": 652.2493477500049,
          "velocity": 1,
          "duration": 0.08333325000000968
        },
        {
          "name": "D#6",
          "midi": 87,
          "time": 652.3326810000049,
          "velocity": 1,
          "duration": 0.16666650000001937
        },
        {
          "name": "D6",
          "midi": 86,
          "time": 652.4993475000049,
          "velocity": 1,
          "duration": 0.16666650000001937
        },
        {
          "name": "C6",
          "midi": 84,
          "time": 652.6660140000049,
          "velocity": 1,
          "duration": 0.16666650000001937
        },
        {
          "name": "A#5",
          "midi": 82,
          "time": 652.8326805000049,
          "velocity": 1,
          "duration": 0.16666650000001937
        },
        {
          "name": "G#5",
          "midi": 80,
          "time": 652.999347000005,
          "velocity": 1,
          "duration": 0.16666650000001937
        },
        {
          "name": "G5",
          "midi": 79,
          "time": 653.166013500005,
          "velocity": 1,
          "duration": 0.16666650000001937
        },
        {
          "name": "F5",
          "midi": 77,
          "time": 653.332680000005,
          "velocity": 1,
          "duration": 0.16666650000001937
        },
        {
          "name": "D#5",
          "midi": 75,
          "time": 653.499346500005,
          "velocity": 1,
          "duration": 0.16666650000001937
        },
        {
          "name": "D5",
          "midi": 74,
          "time": 653.666013000005,
          "velocity": 1,
          "duration": 0.16666650000001937
        },
        {
          "name": "C5",
          "midi": 72,
          "time": 653.832679500005,
          "velocity": 1,
          "duration": 0.16666650000001937
        },
        {
          "name": "A#4",
          "midi": 70,
          "time": 653.9993460000051,
          "velocity": 1,
          "duration": 0.16666650000001937
        },
        {
          "name": "A#4",
          "midi": 70,
          "time": 654.1660125000051,
          "velocity": 1,
          "duration": 0.08333325000000968
        },
        {
          "name": "C5",
          "midi": 72,
          "time": 654.2493457500051,
          "velocity": 1,
          "duration": 0.08333325000000968
        },
        {
          "name": "D5",
          "midi": 74,
          "time": 654.3326790000051,
          "velocity": 1,
          "duration": 0.16666650000001937
        },
        {
          "name": "D#5",
          "midi": 75,
          "time": 654.4993455000051,
          "velocity": 1,
          "duration": 0.16666650000001937
        },
        {
          "name": "F5",
          "midi": 77,
          "time": 654.6660120000051,
          "velocity": 1,
          "duration": 0.16666650000001937
        },
        {
          "name": "G5",
          "midi": 79,
          "time": 654.8326785000052,
          "velocity": 1,
          "duration": 0.16666650000001937
        },
        {
          "name": "G#5",
          "midi": 80,
          "time": 654.9993450000052,
          "velocity": 1,
          "duration": 0.16666650000001937
        },
        {
          "name": "A#5",
          "midi": 82,
          "time": 655.1660115000052,
          "velocity": 1,
          "duration": 0.08333325000000968
        },
        {
          "name": "A#4",
          "midi": 70,
          "time": 655.1660115000052,
          "velocity": 1,
          "duration": 0.08333325000000968
        },
        {
          "name": "C6",
          "midi": 84,
          "time": 655.2493447500052,
          "velocity": 1,
          "duration": 0.08333325000000968
        },
        {
          "name": "C5",
          "midi": 72,
          "time": 655.2493447500052,
          "velocity": 1,
          "duration": 0.08333325000000968
        },
        {
          "name": "D6",
          "midi": 86,
          "time": 655.3326780000052,
          "velocity": 1,
          "duration": 0.16666650000001937
        },
        {
          "name": "D5",
          "midi": 74,
          "time": 655.3326780000052,
          "velocity": 1,
          "duration": 0.16666650000001937
        },
        {
          "name": "D#6",
          "midi": 87,
          "time": 655.4993445000052,
          "velocity": 1,
          "duration": 0.16666650000001937
        },
        {
          "name": "D#5",
          "midi": 75,
          "time": 655.4993445000052,
          "velocity": 1,
          "duration": 0.16666650000001937
        },
        {
          "name": "F6",
          "midi": 89,
          "time": 655.6660110000053,
          "velocity": 1,
          "duration": 0.16666650000001937
        },
        {
          "name": "F5",
          "midi": 77,
          "time": 655.6660110000053,
          "velocity": 1,
          "duration": 0.16666650000001937
        },
        {
          "name": "G6",
          "midi": 91,
          "time": 655.8326775000053,
          "velocity": 1,
          "duration": 0.16666650000001937
        },
        {
          "name": "G5",
          "midi": 79,
          "time": 655.8326775000053,
          "velocity": 1,
          "duration": 0.16666650000001937
        },
        {
          "name": "G#6",
          "midi": 92,
          "time": 655.9993440000053,
          "velocity": 1,
          "duration": 0.16666650000001937
        },
        {
          "name": "G#5",
          "midi": 80,
          "time": 655.9993440000053,
          "velocity": 1,
          "duration": 0.16666650000001937
        },
        {
          "name": "G5",
          "midi": 79,
          "time": 656.1660105000053,
          "velocity": 1,
          "duration": 0.16666650000001937
        },
        {
          "name": "G6",
          "midi": 91,
          "time": 656.1660105000053,
          "velocity": 1,
          "duration": 0.16666650000001937
        },
        {
          "name": "F6",
          "midi": 89,
          "time": 656.3326770000053,
          "velocity": 1,
          "duration": 0.16666650000001937
        },
        {
          "name": "F5",
          "midi": 77,
          "time": 656.3326770000053,
          "velocity": 1,
          "duration": 0.16666650000001937
        },
        {
          "name": "D#6",
          "midi": 87,
          "time": 656.4993435000054,
          "velocity": 1,
          "duration": 0.16666650000001937
        },
        {
          "name": "D6",
          "midi": 86,
          "time": 656.6660100000054,
          "velocity": 1,
          "duration": 0.16666650000001937
        },
        {
          "name": "C6",
          "midi": 84,
          "time": 656.8326765000054,
          "velocity": 1,
          "duration": 0.16666650000001937
        },
        {
          "name": "A#5",
          "midi": 82,
          "time": 656.9993430000054,
          "velocity": 1,
          "duration": 0.16666650000001937
        },
        {
          "name": "C6",
          "midi": 84,
          "time": 657.1660095000054,
          "velocity": 1,
          "duration": 0.16666650000001937
        },
        {
          "name": "A#5",
          "midi": 82,
          "time": 657.3326760000054,
          "velocity": 1,
          "duration": 0.16666650000001937
        },
        {
          "name": "G#5",
          "midi": 80,
          "time": 657.4993425000055,
          "velocity": 1,
          "duration": 0.16666650000001937
        },
        {
          "name": "G5",
          "midi": 79,
          "time": 657.6660090000055,
          "velocity": 1,
          "duration": 0.16666650000001937
        },
        {
          "name": "F5",
          "midi": 77,
          "time": 657.8326755000055,
          "velocity": 1,
          "duration": 0.16666650000001937
        },
        {
          "name": "D#5",
          "midi": 75,
          "time": 657.9993420000055,
          "velocity": 1,
          "duration": 0.16666650000001937
        },
        {
          "name": "D#6",
          "midi": 87,
          "time": 658.1660085000055,
          "velocity": 1,
          "duration": 0.16666650000001937
        },
        {
          "name": "D#6",
          "midi": 87,
          "time": 658.3326750000056,
          "velocity": 1,
          "duration": 0.16666650000001937
        },
        {
          "name": "D#6",
          "midi": 87,
          "time": 658.4993415000056,
          "velocity": 1,
          "duration": 0.16666650000001937
        },
        {
          "name": "G6",
          "midi": 91,
          "time": 658.6660080000056,
          "velocity": 1,
          "duration": 0.16666650000001937
        },
        {
          "name": "G6",
          "midi": 91,
          "time": 658.8326745000056,
          "velocity": 1,
          "duration": 0.16666650000001937
        },
        {
          "name": "D#6",
          "midi": 87,
          "time": 658.9993410000056,
          "velocity": 1,
          "duration": 0.16666650000001937
        },
        {
          "name": "D#6",
          "midi": 87,
          "time": 659.1660075000057,
          "velocity": 1,
          "duration": 0.16666650000001937
        },
        {
          "name": "D#6",
          "midi": 87,
          "time": 659.3326740000057,
          "velocity": 1,
          "duration": 0.16666650000001937
        },
        {
          "name": "D#6",
          "midi": 87,
          "time": 659.4993405000057,
          "velocity": 1,
          "duration": 0.16666650000001937
        },
        {
          "name": "A#5",
          "midi": 82,
          "time": 659.6660070000057,
          "velocity": 1,
          "duration": 0.16666650000001937
        },
        {
          "name": "A#5",
          "midi": 82,
          "time": 659.8326735000057,
          "velocity": 1,
          "duration": 0.16666650000001937
        },
        {
          "name": "D#6",
          "midi": 87,
          "time": 659.9993400000058,
          "velocity": 1,
          "duration": 0.16666650000001937
        },
        {
          "name": "D#6",
          "midi": 87,
          "time": 660.1660065000058,
          "velocity": 1,
          "duration": 0.16666650000001937
        },
        {
          "name": "G6",
          "midi": 91,
          "time": 660.3326730000058,
          "velocity": 1,
          "duration": 0.16666650000001937
        },
        {
          "name": "G6",
          "midi": 91,
          "time": 660.4993395000058,
          "velocity": 1,
          "duration": 0.16666650000001937
        },
        {
          "name": "A#5",
          "midi": 82,
          "time": 660.6660060000058,
          "velocity": 1,
          "duration": 0.16666650000001937
        },
        {
          "name": "A#5",
          "midi": 82,
          "time": 660.8326725000059,
          "velocity": 1,
          "duration": 0.16666650000001937
        },
        {
          "name": "A#5",
          "midi": 82,
          "time": 660.9993390000059,
          "velocity": 1,
          "duration": 0.16666650000001937
        },
        {
          "name": "A#5",
          "midi": 82,
          "time": 661.1660055000059,
          "velocity": 1,
          "duration": 0.16666650000001937
        },
        {
          "name": "A#5",
          "midi": 82,
          "time": 661.3326720000059,
          "velocity": 1,
          "duration": 0.16666650000001937
        },
        {
          "name": "A#5",
          "midi": 82,
          "time": 661.4993385000059,
          "velocity": 1,
          "duration": 0.16666650000001937
        },
        {
          "name": "A#5",
          "midi": 82,
          "time": 661.666005000006,
          "velocity": 1,
          "duration": 0.16666650000001937
        },
        {
          "name": "A#5",
          "midi": 82,
          "time": 661.832671500006,
          "velocity": 1,
          "duration": 0.16666650000001937
        },
        {
          "name": "F6",
          "midi": 89,
          "time": 661.999338000006,
          "velocity": 1,
          "duration": 0.16666650000001937
        },
        {
          "name": "F5",
          "midi": 77,
          "time": 661.999338000006,
          "velocity": 1,
          "duration": 0.16666650000001937
        },
        {
          "name": "F6",
          "midi": 89,
          "time": 662.166004500006,
          "velocity": 1,
          "duration": 0.16666650000001937
        },
        {
          "name": "F5",
          "midi": 77,
          "time": 662.166004500006,
          "velocity": 1,
          "duration": 0.16666650000001937
        },
        {
          "name": "F6",
          "midi": 89,
          "time": 662.332671000006,
          "velocity": 1,
          "duration": 0.16666650000001937
        },
        {
          "name": "F5",
          "midi": 77,
          "time": 662.332671000006,
          "velocity": 1,
          "duration": 0.16666650000001937
        },
        {
          "name": "F5",
          "midi": 77,
          "time": 662.499337500006,
          "velocity": 1,
          "duration": 0.16666650000001937
        },
        {
          "name": "F6",
          "midi": 89,
          "time": 662.499337500006,
          "velocity": 1,
          "duration": 0.16666650000001937
        },
        {
          "name": "G#6",
          "midi": 92,
          "time": 662.6660040000061,
          "velocity": 1,
          "duration": 0.16666650000001937
        },
        {
          "name": "G#5",
          "midi": 80,
          "time": 662.6660040000061,
          "velocity": 1,
          "duration": 0.16666650000001937
        },
        {
          "name": "G#6",
          "midi": 92,
          "time": 662.8326705000061,
          "velocity": 1,
          "duration": 0.16666650000001937
        },
        {
          "name": "G#5",
          "midi": 80,
          "time": 662.8326705000061,
          "velocity": 1,
          "duration": 0.16666650000001937
        },
        {
          "name": "F6",
          "midi": 89,
          "time": 662.9993370000061,
          "velocity": 1,
          "duration": 0.16666650000001937
        },
        {
          "name": "F5",
          "midi": 77,
          "time": 662.9993370000061,
          "velocity": 1,
          "duration": 0.16666650000001937
        },
        {
          "name": "F6",
          "midi": 89,
          "time": 663.1660035000061,
          "velocity": 1,
          "duration": 0.16666650000001937
        },
        {
          "name": "F5",
          "midi": 77,
          "time": 663.1660035000061,
          "velocity": 1,
          "duration": 0.16666650000001937
        },
        {
          "name": "F6",
          "midi": 89,
          "time": 663.3326700000061,
          "velocity": 1,
          "duration": 0.16666650000001937
        },
        {
          "name": "F5",
          "midi": 77,
          "time": 663.3326700000061,
          "velocity": 1,
          "duration": 0.16666650000001937
        },
        {
          "name": "F6",
          "midi": 89,
          "time": 663.4993365000062,
          "velocity": 1,
          "duration": 0.16666650000001937
        },
        {
          "name": "F5",
          "midi": 77,
          "time": 663.4993365000062,
          "velocity": 1,
          "duration": 0.16666650000001937
        },
        {
          "name": "A#5",
          "midi": 82,
          "time": 663.6660030000062,
          "velocity": 1,
          "duration": 0.16666650000001937
        },
        {
          "name": "A#4",
          "midi": 70,
          "time": 663.6660030000062,
          "velocity": 1,
          "duration": 0.16666650000001937
        },
        {
          "name": "A#4",
          "midi": 70,
          "time": 663.8326695000062,
          "velocity": 1,
          "duration": 0.16666650000001937
        },
        {
          "name": "A#5",
          "midi": 82,
          "time": 663.8326695000062,
          "velocity": 1,
          "duration": 0.16666650000001937
        },
        {
          "name": "F6",
          "midi": 89,
          "time": 663.9993360000062,
          "velocity": 1,
          "duration": 0.16666650000001937
        },
        {
          "name": "F5",
          "midi": 77,
          "time": 663.9993360000062,
          "velocity": 1,
          "duration": 0.16666650000001937
        },
        {
          "name": "F6",
          "midi": 89,
          "time": 664.1660025000062,
          "velocity": 1,
          "duration": 0.16666650000001937
        },
        {
          "name": "F5",
          "midi": 77,
          "time": 664.1660025000062,
          "velocity": 1,
          "duration": 0.16666650000001937
        },
        {
          "name": "G#6",
          "midi": 92,
          "time": 664.3326690000063,
          "velocity": 1,
          "duration": 0.16666650000001937
        },
        {
          "name": "G#5",
          "midi": 80,
          "time": 664.3326690000063,
          "velocity": 1,
          "duration": 0.16666650000001937
        },
        {
          "name": "G#6",
          "midi": 92,
          "time": 664.4993355000063,
          "velocity": 1,
          "duration": 0.16666650000001937
        },
        {
          "name": "G#5",
          "midi": 80,
          "time": 664.4993355000063,
          "velocity": 1,
          "duration": 0.16666650000001937
        },
        {
          "name": "A#5",
          "midi": 82,
          "time": 664.6660020000063,
          "velocity": 1,
          "duration": 0.16666650000001937
        },
        {
          "name": "A#5",
          "midi": 82,
          "time": 664.8326685000063,
          "velocity": 1,
          "duration": 0.16666650000001937
        },
        {
          "name": "A#5",
          "midi": 82,
          "time": 664.9993350000063,
          "velocity": 1,
          "duration": 0.16666650000001937
        },
        {
          "name": "A#5",
          "midi": 82,
          "time": 665.1660015000064,
          "velocity": 1,
          "duration": 0.16666650000001937
        },
        {
          "name": "A#5",
          "midi": 82,
          "time": 665.3326680000064,
          "velocity": 1,
          "duration": 0.16666650000001937
        },
        {
          "name": "A#5",
          "midi": 82,
          "time": 665.4993345000064,
          "velocity": 1,
          "duration": 0.16666650000001937
        },
        {
          "name": "A#5",
          "midi": 82,
          "time": 665.6660010000064,
          "velocity": 1,
          "duration": 0.16666650000001937
        },
        {
          "name": "A#5",
          "midi": 82,
          "time": 665.8326675000064,
          "velocity": 1,
          "duration": 0.16666650000001937
        },
        {
          "name": "A#5",
          "midi": 82,
          "time": 665.9993340000065,
          "velocity": 1,
          "duration": 0.16666650000001937
        },
        {
          "name": "A#5",
          "midi": 82,
          "time": 666.1660005000065,
          "velocity": 1,
          "duration": 0.16666650000001937
        },
        {
          "name": "A#5",
          "midi": 82,
          "time": 666.3326670000065,
          "velocity": 1,
          "duration": 0.16666650000001937
        },
        {
          "name": "E6",
          "midi": 88,
          "time": 666.3326670000065,
          "velocity": 1,
          "duration": 0.16666650000001937
        },
        {
          "name": "E6",
          "midi": 88,
          "time": 666.4993335000065,
          "velocity": 1,
          "duration": 0.16666650000001937
        },
        {
          "name": "A#5",
          "midi": 82,
          "time": 666.4993335000065,
          "velocity": 1,
          "duration": 0.16666650000001937
        },
        {
          "name": "E6",
          "midi": 88,
          "time": 666.6660000000065,
          "velocity": 1,
          "duration": 0.16666650000001937
        },
        {
          "name": "A#5",
          "midi": 82,
          "time": 666.6660000000065,
          "velocity": 1,
          "duration": 0.16666650000001937
        },
        {
          "name": "E6",
          "midi": 88,
          "time": 666.8326665000066,
          "velocity": 1,
          "duration": 0.16666650000001937
        },
        {
          "name": "A#5",
          "midi": 82,
          "time": 666.8326665000066,
          "velocity": 1,
          "duration": 0.16666650000001937
        },
        {
          "name": "E6",
          "midi": 88,
          "time": 666.9993330000066,
          "velocity": 1,
          "duration": 0.9999990000000025
        },
        {
          "name": "A#5",
          "midi": 82,
          "time": 666.9993330000066,
          "velocity": 1,
          "duration": 0.9999990000000025
        },
        {
          "name": "F6",
          "midi": 89,
          "time": 667.9993320000066,
          "velocity": 1,
          "duration": 0.33333300000003874
        },
        {
          "name": "C6",
          "midi": 84,
          "time": 667.9993320000066,
          "velocity": 1,
          "duration": 0.33333300000003874
        },
        {
          "name": "F6",
          "midi": 89,
          "time": 668.3326650000066,
          "velocity": 1,
          "duration": 0.6666659999999638
        },
        {
          "name": "C6",
          "midi": 84,
          "time": 668.3326650000066,
          "velocity": 1,
          "duration": 0.6666659999999638
        },
        {
          "name": "C6",
          "midi": 84,
          "time": 669.3326640000066,
          "velocity": 1,
          "duration": 0.6666659999999638
        },
        {
          "name": "F#6",
          "midi": 90,
          "time": 669.3326640000066,
          "velocity": 1,
          "duration": 0.6666659999999638
        },
        {
          "name": "G6",
          "midi": 91,
          "time": 670.3326630000066,
          "velocity": 1,
          "duration": 0.6666659999999638
        },
        {
          "name": "D#6",
          "midi": 87,
          "time": 670.3326630000066,
          "velocity": 1,
          "duration": 0.6666659999999638
        },
        {
          "name": "G#6",
          "midi": 92,
          "time": 671.3326620000066,
          "velocity": 1,
          "duration": 0.6666659999999638
        },
        {
          "name": "D6",
          "midi": 86,
          "time": 671.3326620000066,
          "velocity": 1,
          "duration": 0.6666659999999638
        },
        {
          "name": "G6",
          "midi": 91,
          "time": 672.3326610000066,
          "velocity": 1,
          "duration": 0.6666659999999638
        },
        {
          "name": "D#6",
          "midi": 87,
          "time": 672.3326610000066,
          "velocity": 1,
          "duration": 0.6666659999999638
        },
        {
          "name": "F6",
          "midi": 89,
          "time": 673.3326600000066,
          "velocity": 1,
          "duration": 0.6666659999999638
        },
        {
          "name": "D#6",
          "midi": 87,
          "time": 673.3326600000066,
          "velocity": 1,
          "duration": 0.6666659999999638
        },
        {
          "name": "G6",
          "midi": 91,
          "time": 673.9993260000066,
          "velocity": 1,
          "duration": 0.9999990000000025
        },
        {
          "name": "D#6",
          "midi": 87,
          "time": 673.9993260000066,
          "velocity": 1,
          "duration": 0.9999990000000025
        },
        {
          "name": "G#6",
          "midi": 92,
          "time": 674.9993250000066,
          "velocity": 1,
          "duration": 0.6666659999999638
        },
        {
          "name": "D6",
          "midi": 86,
          "time": 674.9993250000066,
          "velocity": 1,
          "duration": 0.9999990000000025
        },
        {
          "name": "F6",
          "midi": 89,
          "time": 675.6659910000066,
          "velocity": 1,
          "duration": 0.33333300000003874
        },
        {
          "name": "G5",
          "midi": 79,
          "time": 675.9993240000066,
          "velocity": 1,
          "duration": 0.33333300000003874
        },
        {
          "name": "D#6",
          "midi": 87,
          "time": 675.9993240000066,
          "velocity": 1,
          "duration": 0.33333300000003874
        },
        {
          "name": "D#6",
          "midi": 87,
          "time": 679.9993200000066,
          "velocity": 1,
          "duration": 2.1666645000000244
        },
        {
          "name": "D#5",
          "midi": 75,
          "time": 679.9993200000066,
          "velocity": 1,
          "duration": 2.1666645000000244
        },
        {
          "name": "A#5",
          "midi": 82,
          "time": 682.1659845000066,
          "velocity": 1,
          "duration": 0.16666650000001937
        },
        {
          "name": "D#5",
          "midi": 75,
          "time": 682.1659845000066,
          "velocity": 1,
          "duration": 0.16666650000001937
        },
        {
          "name": "A#5",
          "midi": 82,
          "time": 682.3326510000066,
          "velocity": 1,
          "duration": 0.16666650000001937
        },
        {
          "name": "D5",
          "midi": 74,
          "time": 682.3326510000066,
          "velocity": 1,
          "duration": 0.16666650000001937
        },
        {
          "name": "A#5",
          "midi": 82,
          "time": 682.4993175000067,
          "velocity": 1,
          "duration": 0.16666650000001937
        },
        {
          "name": "D#5",
          "midi": 75,
          "time": 682.4993175000067,
          "velocity": 1,
          "duration": 0.16666650000001937
        },
        {
          "name": "D6",
          "midi": 86,
          "time": 682.6659840000067,
          "velocity": 1,
          "duration": 0.16666650000001937
        },
        {
          "name": "F5",
          "midi": 77,
          "time": 682.6659840000067,
          "velocity": 1,
          "duration": 0.16666650000001937
        },
        {
          "name": "G5",
          "midi": 79,
          "time": 682.8326505000067,
          "velocity": 1,
          "duration": 0.16666650000001937
        },
        {
          "name": "D#6",
          "midi": 87,
          "time": 682.8326505000067,
          "velocity": 1,
          "duration": 0.16666650000001937
        },
        {
          "name": "F6",
          "midi": 89,
          "time": 682.9993170000067,
          "velocity": 1,
          "duration": 0.16666650000001937
        },
        {
          "name": "G#5",
          "midi": 80,
          "time": 682.9993170000067,
          "velocity": 1,
          "duration": 0.16666650000001937
        },
        {
          "name": "F6",
          "midi": 89,
          "time": 683.1659835000067,
          "velocity": 1,
          "duration": 0.16666650000001937
        },
        {
          "name": "G#5",
          "midi": 80,
          "time": 683.1659835000067,
          "velocity": 1,
          "duration": 0.16666650000001937
        },
        {
          "name": "F6",
          "midi": 89,
          "time": 683.3326500000068,
          "velocity": 1,
          "duration": 0.16666650000001937
        },
        {
          "name": "G#5",
          "midi": 80,
          "time": 683.3326500000068,
          "velocity": 1,
          "duration": 0.16666650000001937
        },
        {
          "name": "F6",
          "midi": 89,
          "time": 683.4993165000068,
          "velocity": 1,
          "duration": 0.16666650000001937
        },
        {
          "name": "G#5",
          "midi": 80,
          "time": 683.4993165000068,
          "velocity": 1,
          "duration": 0.16666650000001937
        },
        {
          "name": "F6",
          "midi": 89,
          "time": 683.6659830000068,
          "velocity": 1,
          "duration": 0.16666650000001937
        },
        {
          "name": "G#5",
          "midi": 80,
          "time": 683.6659830000068,
          "velocity": 1,
          "duration": 0.16666650000001937
        },
        {
          "name": "F6",
          "midi": 89,
          "time": 683.8326495000068,
          "velocity": 1,
          "duration": 0.16666650000001937
        },
        {
          "name": "G#5",
          "midi": 80,
          "time": 683.8326495000068,
          "velocity": 1,
          "duration": 0.16666650000001937
        },
        {
          "name": "F6",
          "midi": 89,
          "time": 683.9993160000068,
          "velocity": 1,
          "duration": 0.33333300000003874
        },
        {
          "name": "G#5",
          "midi": 80,
          "time": 683.9993160000068,
          "velocity": 1,
          "duration": 0.33333300000003874
        },
        {
          "name": "F5",
          "midi": 77,
          "time": 684.3326490000069,
          "velocity": 1,
          "duration": 0.9999990000000025
        },
        {
          "name": "G#5",
          "midi": 80,
          "time": 684.3326490000069,
          "velocity": 1,
          "duration": 0.9999990000000025
        },
        {
          "name": "D6",
          "midi": 86,
          "time": 685.3326480000069,
          "velocity": 1,
          "duration": 0.9999990000000025
        },
        {
          "name": "G#5",
          "midi": 80,
          "time": 685.3326480000069,
          "velocity": 1,
          "duration": 0.9999990000000025
        },
        {
          "name": "F6",
          "midi": 89,
          "time": 686.3326470000069,
          "velocity": 1,
          "duration": 0.6666659999999638
        },
        {
          "name": "D6",
          "midi": 86,
          "time": 686.3326470000069,
          "velocity": 1,
          "duration": 0.6666659999999638
        },
        {
          "name": "F6",
          "midi": 89,
          "time": 686.9993130000069,
          "velocity": 1,
          "duration": 0.6666659999999638
        },
        {
          "name": "D6",
          "midi": 86,
          "time": 686.9993130000069,
          "velocity": 1,
          "duration": 0.6666659999999638
        },
        {
          "name": "F6",
          "midi": 89,
          "time": 687.6659790000068,
          "velocity": 1,
          "duration": 0.33333300000003874
        },
        {
          "name": "D6",
          "midi": 86,
          "time": 687.6659790000068,
          "velocity": 1,
          "duration": 0.33333300000003874
        },
        {
          "name": "D6",
          "midi": 86,
          "time": 687.9993120000069,
          "velocity": 1,
          "duration": 0.33333300000003874
        },
        {
          "name": "F6",
          "midi": 89,
          "time": 687.9993120000069,
          "velocity": 1,
          "duration": 0.33333300000003874
        },
        {
          "name": "F6",
          "midi": 89,
          "time": 688.3326450000069,
          "velocity": 1,
          "duration": 0.33333300000003874
        },
        {
          "name": "A#5",
          "midi": 82,
          "time": 688.3326450000069,
          "velocity": 1,
          "duration": 0.33333300000003874
        },
        {
          "name": "F6",
          "midi": 89,
          "time": 688.6659780000069,
          "velocity": 1,
          "duration": 0.33333300000003874
        },
        {
          "name": "A#5",
          "midi": 82,
          "time": 688.6659780000069,
          "velocity": 1,
          "duration": 0.33333300000003874
        },
        {
          "name": "F6",
          "midi": 89,
          "time": 688.999311000007,
          "velocity": 1,
          "duration": 0.33333300000003874
        },
        {
          "name": "A#5",
          "midi": 82,
          "time": 688.999311000007,
          "velocity": 1,
          "duration": 0.33333300000003874
        },
        {
          "name": "F6",
          "midi": 89,
          "time": 689.332644000007,
          "velocity": 1,
          "duration": 0.33333300000003874
        },
        {
          "name": "A#5",
          "midi": 82,
          "time": 689.332644000007,
          "velocity": 1,
          "duration": 0.33333300000003874
        },
        {
          "name": "F6",
          "midi": 89,
          "time": 689.665977000007,
          "velocity": 1,
          "duration": 0.33333300000003874
        },
        {
          "name": "A#5",
          "midi": 82,
          "time": 689.665977000007,
          "velocity": 1,
          "duration": 0.33333300000003874
        },
        {
          "name": "F6",
          "midi": 89,
          "time": 689.9993100000071,
          "velocity": 1,
          "duration": 0.33333300000003874
        },
        {
          "name": "A#5",
          "midi": 82,
          "time": 689.9993100000071,
          "velocity": 1,
          "duration": 0.33333300000003874
        },
        {
          "name": "A#5",
          "midi": 82,
          "time": 690.3326430000071,
          "velocity": 1,
          "duration": 0.33333300000003874
        },
        {
          "name": "F6",
          "midi": 89,
          "time": 690.3326430000071,
          "velocity": 1,
          "duration": 0.33333300000003874
        },
        {
          "name": "F6",
          "midi": 89,
          "time": 690.6659760000072,
          "velocity": 1,
          "duration": 0.33333300000003874
        },
        {
          "name": "A#5",
          "midi": 82,
          "time": 690.6659760000072,
          "velocity": 1,
          "duration": 0.33333300000003874
        },
        {
          "name": "F6",
          "midi": 89,
          "time": 690.9993090000072,
          "velocity": 1,
          "duration": 0.33333300000003874
        },
        {
          "name": "A#5",
          "midi": 82,
          "time": 690.9993090000072,
          "velocity": 1,
          "duration": 0.33333300000003874
        },
        {
          "name": "F6",
          "midi": 89,
          "time": 691.3326420000072,
          "velocity": 1,
          "duration": 0.33333300000003874
        },
        {
          "name": "A#5",
          "midi": 82,
          "time": 691.3326420000072,
          "velocity": 1,
          "duration": 0.33333300000003874
        },
        {
          "name": "F6",
          "midi": 89,
          "time": 691.6659750000073,
          "velocity": 1,
          "duration": 0.33333300000003874
        },
        {
          "name": "A#5",
          "midi": 82,
          "time": 691.6659750000073,
          "velocity": 1,
          "duration": 0.33333300000003874
        },
        {
          "name": "G6",
          "midi": 91,
          "time": 691.9993080000073,
          "velocity": 1,
          "duration": 0.33333300000003874
        },
        {
          "name": "D#6",
          "midi": 87,
          "time": 691.9993080000073,
          "velocity": 1,
          "duration": 0.33333300000003874
        },
        {
          "name": "G6",
          "midi": 91,
          "time": 692.9993070000073,
          "velocity": 1,
          "duration": 0.33333300000003874
        },
        {
          "name": "A#5",
          "midi": 82,
          "time": 692.9993070000073,
          "velocity": 1,
          "duration": 0.33333300000003874
        },
        {
          "name": "D#5",
          "midi": 75,
          "time": 693.9993060000073,
          "velocity": 1,
          "duration": 0.33333300000003874
        }
      ],
      "controlChanges": {},
      "id": 1,
      "name": "",
      "instrumentNumber": 73,
      "instrument": "flute",
      "instrumentFamily": "pipe",
      "channelNumber": 1,
      "isPercussion": false
    },
    {
      "startTime": 0,
      "duration": 694.3326390000072,
      "length": 1410,
      "notes": [
        {
          "name": "G5",
          "midi": 79,
          "time": 0,
          "velocity": 1,
          "duration": 0.333333
        },
        {
          "name": "D#5",
          "midi": 75,
          "time": 0,
          "velocity": 1,
          "duration": 0.333333
        },
        {
          "name": "G5",
          "midi": 79,
          "time": 0.999999,
          "velocity": 1,
          "duration": 0.333333
        },
        {
          "name": "D#5",
          "midi": 75,
          "time": 0.999999,
          "velocity": 1,
          "duration": 0.333333
        },
        {
          "name": "G5",
          "midi": 79,
          "time": 11.999988,
          "velocity": 1,
          "duration": 0.9999990000000007
        },
        {
          "name": "D#5",
          "midi": 75,
          "time": 11.999988,
          "velocity": 1,
          "duration": 0.9999990000000007
        },
        {
          "name": "G#5",
          "midi": 80,
          "time": 12.999987,
          "velocity": 1,
          "duration": 0.33333299999999966
        },
        {
          "name": "F5",
          "midi": 77,
          "time": 12.999987,
          "velocity": 1,
          "duration": 0.33333299999999966
        },
        {
          "name": "G5",
          "midi": 79,
          "time": 13.33332,
          "velocity": 1,
          "duration": 0.33333299999999966
        },
        {
          "name": "D#5",
          "midi": 75,
          "time": 13.33332,
          "velocity": 1,
          "duration": 0.33333299999999966
        },
        {
          "name": "D5",
          "midi": 74,
          "time": 13.666653,
          "velocity": 1,
          "duration": 0.33333299999999966
        },
        {
          "name": "F5",
          "midi": 77,
          "time": 13.666653,
          "velocity": 1,
          "duration": 0.33333299999999966
        },
        {
          "name": "D#5",
          "midi": 75,
          "time": 13.999986,
          "velocity": 1,
          "duration": 0.33333299999999966
        },
        {
          "name": "D5",
          "midi": 74,
          "time": 21.999978,
          "velocity": 1,
          "duration": 0.999998999999999
        },
        {
          "name": "A#4",
          "midi": 70,
          "time": 21.999978,
          "velocity": 1,
          "duration": 0.999998999999999
        },
        {
          "name": "F5",
          "midi": 77,
          "time": 22.999976999999998,
          "velocity": 1,
          "duration": 0.6666659999999993
        },
        {
          "name": "D5",
          "midi": 74,
          "time": 22.999976999999998,
          "velocity": 1,
          "duration": 0.999998999999999
        },
        {
          "name": "G#5",
          "midi": 80,
          "time": 23.666642999999997,
          "velocity": 1,
          "duration": 0.33333299999999966
        },
        {
          "name": "G5",
          "midi": 79,
          "time": 23.999975999999997,
          "velocity": 1,
          "duration": 0.33333299999999966
        },
        {
          "name": "D#5",
          "midi": 75,
          "time": 23.999975999999997,
          "velocity": 1,
          "duration": 0.33333299999999966
        },
        {
          "name": "F#5",
          "midi": 78,
          "time": 24.333308999999996,
          "velocity": 1,
          "duration": 0.6666659999999993
        },
        {
          "name": "D#5",
          "midi": 75,
          "time": 24.333308999999996,
          "velocity": 1,
          "duration": 0.6666659999999993
        },
        {
          "name": "D#5",
          "midi": 75,
          "time": 24.999974999999996,
          "velocity": 1,
          "duration": 0.6666659999999993
        },
        {
          "name": "F#5",
          "midi": 78,
          "time": 24.999974999999996,
          "velocity": 1,
          "duration": 0.6666659999999993
        },
        {
          "name": "F#5",
          "midi": 78,
          "time": 25.666640999999995,
          "velocity": 1,
          "duration": 0.33333299999999966
        },
        {
          "name": "D#5",
          "midi": 75,
          "time": 25.666640999999995,
          "velocity": 1,
          "duration": 0.33333299999999966
        },
        {
          "name": "F5",
          "midi": 77,
          "time": 25.999973999999995,
          "velocity": 1,
          "duration": 1.6666650000000018
        },
        {
          "name": "D5",
          "midi": 74,
          "time": 25.999973999999995,
          "velocity": 1,
          "duration": 1.6666650000000018
        },
        {
          "name": "F5",
          "midi": 77,
          "time": 27.666638999999996,
          "velocity": 1,
          "duration": 0.6666659999999993
        },
        {
          "name": "D5",
          "midi": 74,
          "time": 27.666638999999996,
          "velocity": 1,
          "duration": 0.6666659999999993
        },
        {
          "name": "F5",
          "midi": 77,
          "time": 28.333304999999996,
          "velocity": 1,
          "duration": 0.6666659999999993
        },
        {
          "name": "D5",
          "midi": 74,
          "time": 28.333304999999996,
          "velocity": 1,
          "duration": 0.6666659999999993
        },
        {
          "name": "D5",
          "midi": 74,
          "time": 28.999970999999995,
          "velocity": 1,
          "duration": 0.6666659999999993
        },
        {
          "name": "F5",
          "midi": 77,
          "time": 28.999970999999995,
          "velocity": 1,
          "duration": 0.6666659999999993
        },
        {
          "name": "F5",
          "midi": 77,
          "time": 29.666636999999994,
          "velocity": 1,
          "duration": 0.6666659999999993
        },
        {
          "name": "D5",
          "midi": 74,
          "time": 29.666636999999994,
          "velocity": 1,
          "duration": 0.6666659999999993
        },
        {
          "name": "G5",
          "midi": 79,
          "time": 30.333302999999994,
          "velocity": 1,
          "duration": 0.6666659999999993
        },
        {
          "name": "D#5",
          "midi": 75,
          "time": 30.333302999999994,
          "velocity": 1,
          "duration": 0.6666659999999993
        },
        {
          "name": "G5",
          "midi": 79,
          "time": 30.999968999999993,
          "velocity": 1,
          "duration": 0.6666659999999993
        },
        {
          "name": "D#5",
          "midi": 75,
          "time": 30.999968999999993,
          "velocity": 1,
          "duration": 0.6666659999999993
        },
        {
          "name": "G5",
          "midi": 79,
          "time": 31.666634999999992,
          "velocity": 1,
          "duration": 0.6666659999999993
        },
        {
          "name": "D#5",
          "midi": 75,
          "time": 31.666634999999992,
          "velocity": 1,
          "duration": 0.6666659999999993
        },
        {
          "name": "D5",
          "midi": 74,
          "time": 32.33330099999999,
          "velocity": 1,
          "duration": 0.3333330000000032
        },
        {
          "name": "F5",
          "midi": 77,
          "time": 32.33330099999999,
          "velocity": 1,
          "duration": 0.3333330000000032
        },
        {
          "name": "F5",
          "midi": 77,
          "time": 32.666633999999995,
          "velocity": 1,
          "duration": 0.6666659999999993
        },
        {
          "name": "D5",
          "midi": 74,
          "time": 32.666633999999995,
          "velocity": 1,
          "duration": 0.6666659999999993
        },
        {
          "name": "G5",
          "midi": 79,
          "time": 33.333299999999994,
          "velocity": 1,
          "duration": 0.3333330000000032
        },
        {
          "name": "D#5",
          "midi": 75,
          "time": 33.333299999999994,
          "velocity": 1,
          "duration": 0.3333330000000032
        },
        {
          "name": "G5",
          "midi": 79,
          "time": 33.666633,
          "velocity": 1,
          "duration": 0.3333330000000032
        },
        {
          "name": "D#5",
          "midi": 75,
          "time": 33.666633,
          "velocity": 1,
          "duration": 0.3333330000000032
        },
        {
          "name": "G#5",
          "midi": 80,
          "time": 33.999966,
          "velocity": 1,
          "duration": 0.3333330000000032
        },
        {
          "name": "D5",
          "midi": 74,
          "time": 33.999966,
          "velocity": 1,
          "duration": 0.3333330000000032
        },
        {
          "name": "A#4",
          "midi": 70,
          "time": 34.333299000000004,
          "velocity": 1,
          "duration": 0.16666649999999805
        },
        {
          "name": "C5",
          "midi": 72,
          "time": 34.4999655,
          "velocity": 1,
          "duration": 0.16666649999999805
        },
        {
          "name": "D5",
          "midi": 74,
          "time": 34.666632,
          "velocity": 1,
          "duration": 0.16666649999999805
        },
        {
          "name": "D#5",
          "midi": 75,
          "time": 34.8332985,
          "velocity": 1,
          "duration": 0.16666649999999805
        },
        {
          "name": "F5",
          "midi": 77,
          "time": 34.999964999999996,
          "velocity": 1,
          "duration": 0.16666649999999805
        },
        {
          "name": "G5",
          "midi": 79,
          "time": 35.166631499999994,
          "velocity": 1,
          "duration": 0.16666649999999805
        },
        {
          "name": "G#4",
          "midi": 68,
          "time": 35.33329799999999,
          "velocity": 1,
          "duration": 0.16666649999999805
        },
        {
          "name": "A#4",
          "midi": 70,
          "time": 35.49996449999999,
          "velocity": 1,
          "duration": 0.16666649999999805
        },
        {
          "name": "C5",
          "midi": 72,
          "time": 35.66663099999999,
          "velocity": 1,
          "duration": 0.16666649999999805
        },
        {
          "name": "D5",
          "midi": 74,
          "time": 35.833297499999986,
          "velocity": 1,
          "duration": 0.16666649999999805
        },
        {
          "name": "D#5",
          "midi": 75,
          "time": 35.999963999999984,
          "velocity": 1,
          "duration": 0.6666659999999993
        },
        {
          "name": "G5",
          "midi": 79,
          "time": 36.666629999999984,
          "velocity": 1,
          "duration": 0.3333330000000032
        },
        {
          "name": "D#5",
          "midi": 75,
          "time": 36.99996299999999,
          "velocity": 1,
          "duration": 0.6666659999999993
        },
        {
          "name": "G4",
          "midi": 67,
          "time": 37.666628999999986,
          "velocity": 1,
          "duration": 0.3333330000000032
        },
        {
          "name": "D#5",
          "midi": 75,
          "time": 37.99996199999999,
          "velocity": 1,
          "duration": 0.3333330000000032
        },
        {
          "name": "A#4",
          "midi": 70,
          "time": 38.33329499999999,
          "velocity": 1,
          "duration": 0.3333330000000032
        },
        {
          "name": "A#5",
          "midi": 82,
          "time": 38.33329499999999,
          "velocity": 1,
          "duration": 0.3333330000000032
        },
        {
          "name": "A#5",
          "midi": 82,
          "time": 38.666627999999996,
          "velocity": 1,
          "duration": 0.3333330000000032
        },
        {
          "name": "A#4",
          "midi": 70,
          "time": 38.666627999999996,
          "velocity": 1,
          "duration": 0.3333330000000032
        },
        {
          "name": "A#5",
          "midi": 82,
          "time": 38.999961,
          "velocity": 1,
          "duration": 0.6666659999999993
        },
        {
          "name": "A#4",
          "midi": 70,
          "time": 38.999961,
          "velocity": 1,
          "duration": 0.6666659999999993
        },
        {
          "name": "B5",
          "midi": 83,
          "time": 39.666627,
          "velocity": 1,
          "duration": 0.3333330000000032
        },
        {
          "name": "B4",
          "midi": 71,
          "time": 39.666627,
          "velocity": 1,
          "duration": 0.3333330000000032
        },
        {
          "name": "C6",
          "midi": 84,
          "time": 39.99996,
          "velocity": 1,
          "duration": 0.3333330000000032
        },
        {
          "name": "C5",
          "midi": 72,
          "time": 39.99996,
          "velocity": 1,
          "duration": 0.3333330000000032
        },
        {
          "name": "C6",
          "midi": 84,
          "time": 40.333293000000005,
          "velocity": 1,
          "duration": 0.3333330000000032
        },
        {
          "name": "C5",
          "midi": 72,
          "time": 40.333293000000005,
          "velocity": 1,
          "duration": 0.3333330000000032
        },
        {
          "name": "C6",
          "midi": 84,
          "time": 40.66662600000001,
          "velocity": 1,
          "duration": 0.3333330000000032
        },
        {
          "name": "C5",
          "midi": 72,
          "time": 40.66662600000001,
          "velocity": 1,
          "duration": 0.3333330000000032
        },
        {
          "name": "C5",
          "midi": 72,
          "time": 40.99995900000001,
          "velocity": 1,
          "duration": 0.6666659999999993
        },
        {
          "name": "C6",
          "midi": 84,
          "time": 40.99995900000001,
          "velocity": 1,
          "duration": 0.6666659999999993
        },
        {
          "name": "A#5",
          "midi": 82,
          "time": 41.66662500000001,
          "velocity": 1,
          "duration": 0.3333330000000032
        },
        {
          "name": "D#5",
          "midi": 75,
          "time": 41.66662500000001,
          "velocity": 1,
          "duration": 0.3333330000000032
        },
        {
          "name": "G#5",
          "midi": 80,
          "time": 41.999958000000014,
          "velocity": 1,
          "duration": 0.9999990000000025
        },
        {
          "name": "D#5",
          "midi": 75,
          "time": 41.999958000000014,
          "velocity": 1,
          "duration": 0.9999990000000025
        },
        {
          "name": "A#5",
          "midi": 82,
          "time": 42.999957000000016,
          "velocity": 1,
          "duration": 0.3333330000000032
        },
        {
          "name": "E5",
          "midi": 76,
          "time": 42.999957000000016,
          "velocity": 1,
          "duration": 0.3333330000000032
        },
        {
          "name": "G5",
          "midi": 79,
          "time": 44.33328900000002,
          "velocity": 1,
          "duration": 0.49999950000000126
        },
        {
          "name": "F5",
          "midi": 77,
          "time": 44.83328850000002,
          "velocity": 1,
          "duration": 0.16666649999999805
        },
        {
          "name": "E5",
          "midi": 76,
          "time": 44.99995500000002,
          "velocity": 1,
          "duration": 0.3333330000000032
        },
        {
          "name": "G5",
          "midi": 79,
          "time": 48.333285000000025,
          "velocity": 1,
          "duration": 0.49999950000000126
        },
        {
          "name": "F5",
          "midi": 77,
          "time": 48.833284500000026,
          "velocity": 1,
          "duration": 0.16666649999999805
        },
        {
          "name": "E5",
          "midi": 76,
          "time": 48.999951000000024,
          "velocity": 1,
          "duration": 0.3333330000000032
        },
        {
          "name": "F#5",
          "midi": 78,
          "time": 52.33328100000003,
          "velocity": 1,
          "duration": 0.49999950000000126
        },
        {
          "name": "F5",
          "midi": 77,
          "time": 52.83328050000003,
          "velocity": 1,
          "duration": 0.16666649999999805
        },
        {
          "name": "E5",
          "midi": 76,
          "time": 52.99994700000003,
          "velocity": 1,
          "duration": 0.3333330000000032
        },
        {
          "name": "G5",
          "midi": 79,
          "time": 54.33327900000003,
          "velocity": 1,
          "duration": 0.49999950000000126
        },
        {
          "name": "F5",
          "midi": 77,
          "time": 54.833278500000034,
          "velocity": 1,
          "duration": 0.16666649999999805
        },
        {
          "name": "D#5",
          "midi": 75,
          "time": 54.99994500000003,
          "velocity": 1,
          "duration": 0.3333330000000032
        },
        {
          "name": "D5",
          "midi": 74,
          "time": 55.333278000000035,
          "velocity": 1,
          "duration": 0.3333330000000032
        },
        {
          "name": "C5",
          "midi": 72,
          "time": 55.66661100000004,
          "velocity": 1,
          "duration": 0.3333330000000032
        },
        {
          "name": "A#4",
          "midi": 70,
          "time": 55.99994400000004,
          "velocity": 1,
          "duration": 1.999997999999998
        },
        {
          "name": "A#4",
          "midi": 70,
          "time": 57.99994200000004,
          "velocity": 1,
          "duration": 0.6666659999999993
        },
        {
          "name": "F4",
          "midi": 65,
          "time": 58.49994150000004,
          "velocity": 1,
          "duration": 0.16666649999999805
        },
        {
          "name": "C5",
          "midi": 72,
          "time": 58.66660800000004,
          "velocity": 1,
          "duration": 0.16666649999999805
        },
        {
          "name": "A4",
          "midi": 69,
          "time": 58.66660800000004,
          "velocity": 1,
          "duration": 0.16666649999999805
        },
        {
          "name": "D5",
          "midi": 74,
          "time": 58.83327450000004,
          "velocity": 1,
          "duration": 0.16666649999999805
        },
        {
          "name": "A#4",
          "midi": 70,
          "time": 58.83327450000004,
          "velocity": 1,
          "duration": 0.16666649999999805
        },
        {
          "name": "D#5",
          "midi": 75,
          "time": 58.999941000000035,
          "velocity": 1,
          "duration": 0.3333330000000032
        },
        {
          "name": "C5",
          "midi": 72,
          "time": 58.999941000000035,
          "velocity": 1,
          "duration": 0.3333330000000032
        },
        {
          "name": "D#5",
          "midi": 75,
          "time": 59.33327400000004,
          "velocity": 1,
          "duration": 0.3333330000000032
        },
        {
          "name": "C5",
          "midi": 72,
          "time": 59.33327400000004,
          "velocity": 1,
          "duration": 0.3333330000000032
        },
        {
          "name": "D#5",
          "midi": 75,
          "time": 59.66660700000004,
          "velocity": 1,
          "duration": 0.3333330000000032
        },
        {
          "name": "C5",
          "midi": 72,
          "time": 59.66660700000004,
          "velocity": 1,
          "duration": 0.3333330000000032
        },
        {
          "name": "A#4",
          "midi": 70,
          "time": 59.999940000000045,
          "velocity": 1,
          "duration": 0.3333330000000032
        },
        {
          "name": "D5",
          "midi": 74,
          "time": 59.999940000000045,
          "velocity": 1,
          "duration": 0.3333330000000032
        },
        {
          "name": "E5",
          "midi": 76,
          "time": 63.99993600000005,
          "velocity": 1,
          "duration": 0.3333329999999961
        },
        {
          "name": "C5",
          "midi": 72,
          "time": 63.99993600000005,
          "velocity": 1,
          "duration": 0.3333329999999961
        },
        {
          "name": "E5",
          "midi": 76,
          "time": 64.33326900000004,
          "velocity": 1,
          "duration": 0.3333329999999961
        },
        {
          "name": "C5",
          "midi": 72,
          "time": 64.33326900000004,
          "velocity": 1,
          "duration": 0.3333329999999961
        },
        {
          "name": "E5",
          "midi": 76,
          "time": 65.83326750000003,
          "velocity": 1,
          "duration": 0.16666650000000516
        },
        {
          "name": "C5",
          "midi": 72,
          "time": 65.83326750000003,
          "velocity": 1,
          "duration": 0.16666650000000516
        },
        {
          "name": "D5",
          "midi": 74,
          "time": 65.99993400000004,
          "velocity": 1,
          "duration": 0.3333329999999961
        },
        {
          "name": "A#4",
          "midi": 70,
          "time": 65.99993400000004,
          "velocity": 1,
          "duration": 0.3333329999999961
        },
        {
          "name": "A#5",
          "midi": 82,
          "time": 66.33326700000003,
          "velocity": 1,
          "duration": 0.3333329999999961
        },
        {
          "name": "D5",
          "midi": 74,
          "time": 66.33326700000003,
          "velocity": 1,
          "duration": 0.3333329999999961
        },
        {
          "name": "G5",
          "midi": 79,
          "time": 67.83326550000002,
          "velocity": 1,
          "duration": 0.16666650000000516
        },
        {
          "name": "A#4",
          "midi": 70,
          "time": 67.83326550000002,
          "velocity": 1,
          "duration": 0.16666650000000516
        },
        {
          "name": "B4",
          "midi": 71,
          "time": 67.99993200000003,
          "velocity": 1,
          "duration": 0.3333329999999961
        },
        {
          "name": "G#5",
          "midi": 80,
          "time": 67.99993200000003,
          "velocity": 1,
          "duration": 0.3333329999999961
        },
        {
          "name": "G#5",
          "midi": 80,
          "time": 68.33326500000003,
          "velocity": 1,
          "duration": 0.3333329999999961
        },
        {
          "name": "B4",
          "midi": 71,
          "time": 68.33326500000003,
          "velocity": 1,
          "duration": 0.3333329999999961
        },
        {
          "name": "G#5",
          "midi": 80,
          "time": 69.83326350000002,
          "velocity": 1,
          "duration": 0.16666650000000516
        },
        {
          "name": "B4",
          "midi": 71,
          "time": 69.83326350000002,
          "velocity": 1,
          "duration": 0.16666650000000516
        },
        {
          "name": "G5",
          "midi": 79,
          "time": 69.99993000000002,
          "velocity": 1,
          "duration": 0.16666650000000516
        },
        {
          "name": "C5",
          "midi": 72,
          "time": 69.99993000000002,
          "velocity": 1,
          "duration": 0.16666650000000516
        },
        {
          "name": "C5",
          "midi": 72,
          "time": 70.16659650000003,
          "velocity": 1,
          "duration": 0.3333329999999961
        },
        {
          "name": "A#4",
          "midi": 70,
          "time": 70.16659650000003,
          "velocity": 1,
          "duration": 0.3333329999999961
        },
        {
          "name": "C5",
          "midi": 72,
          "time": 70.49992950000002,
          "velocity": 1,
          "duration": 0.16666650000000516
        },
        {
          "name": "A#4",
          "midi": 70,
          "time": 70.49992950000002,
          "velocity": 1,
          "duration": 0.16666650000000516
        },
        {
          "name": "C5",
          "midi": 72,
          "time": 70.66659600000003,
          "velocity": 1,
          "duration": 0.16666650000000516
        },
        {
          "name": "A4",
          "midi": 69,
          "time": 70.66659600000003,
          "velocity": 1,
          "duration": 0.16666650000000516
        },
        {
          "name": "A4",
          "midi": 69,
          "time": 70.83326250000003,
          "velocity": 1,
          "duration": 0.16666650000000516
        },
        {
          "name": "D5",
          "midi": 74,
          "time": 70.83326250000003,
          "velocity": 1,
          "duration": 0.16666650000000516
        },
        {
          "name": "D5",
          "midi": 74,
          "time": 70.99992900000004,
          "velocity": 1,
          "duration": 0.16666650000000516
        },
        {
          "name": "A#4",
          "midi": 70,
          "time": 70.99992900000004,
          "velocity": 1,
          "duration": 0.16666650000000516
        },
        {
          "name": "D#5",
          "midi": 75,
          "time": 71.16659550000004,
          "velocity": 1,
          "duration": 0.3333329999999961
        },
        {
          "name": "A#4",
          "midi": 70,
          "time": 71.16659550000004,
          "velocity": 1,
          "duration": 0.3333329999999961
        },
        {
          "name": "D#5",
          "midi": 75,
          "time": 71.49992850000004,
          "velocity": 1,
          "duration": 0.16666650000000516
        },
        {
          "name": "A#4",
          "midi": 70,
          "time": 71.49992850000004,
          "velocity": 1,
          "duration": 0.16666650000000516
        },
        {
          "name": "D#5",
          "midi": 75,
          "time": 71.66659500000004,
          "velocity": 1,
          "duration": 0.16666650000000516
        },
        {
          "name": "C5",
          "midi": 72,
          "time": 71.66659500000004,
          "velocity": 1,
          "duration": 0.16666650000000516
        },
        {
          "name": "F5",
          "midi": 77,
          "time": 71.83326150000005,
          "velocity": 1,
          "duration": 0.16666650000000516
        },
        {
          "name": "C5",
          "midi": 72,
          "time": 71.83326150000005,
          "velocity": 1,
          "duration": 0.16666650000000516
        },
        {
          "name": "F5",
          "midi": 77,
          "time": 71.99992800000005,
          "velocity": 1,
          "duration": 0.3333329999999961
        },
        {
          "name": "D5",
          "midi": 74,
          "time": 71.99992800000005,
          "velocity": 1,
          "duration": 0.3333329999999961
        },
        {
          "name": "A#4",
          "midi": 70,
          "time": 72.33326100000005,
          "velocity": 1,
          "duration": 0.3333329999999961
        },
        {
          "name": "A#5",
          "midi": 82,
          "time": 72.33326100000005,
          "velocity": 1,
          "duration": 0.3333329999999961
        },
        {
          "name": "A#5",
          "midi": 82,
          "time": 72.66659400000005,
          "velocity": 1,
          "duration": 0.3333329999999961
        },
        {
          "name": "A#4",
          "midi": 70,
          "time": 72.66659400000005,
          "velocity": 1,
          "duration": 0.3333329999999961
        },
        {
          "name": "A#5",
          "midi": 82,
          "time": 72.99992700000004,
          "velocity": 1,
          "duration": 0.3333329999999961
        },
        {
          "name": "A#4",
          "midi": 70,
          "time": 72.99992700000004,
          "velocity": 1,
          "duration": 0.3333329999999961
        },
        {
          "name": "A#5",
          "midi": 82,
          "time": 73.33326000000004,
          "velocity": 1,
          "duration": 0.3333329999999961
        },
        {
          "name": "A#4",
          "midi": 70,
          "time": 73.33326000000004,
          "velocity": 1,
          "duration": 0.3333329999999961
        },
        {
          "name": "A#5",
          "midi": 82,
          "time": 73.66659300000003,
          "velocity": 1,
          "duration": 0.9999990000000025
        },
        {
          "name": "A#4",
          "midi": 70,
          "time": 73.66659300000003,
          "velocity": 1,
          "duration": 0.9999990000000025
        },
        {
          "name": "B5",
          "midi": 83,
          "time": 74.66659200000004,
          "velocity": 1,
          "duration": 0.3333329999999961
        },
        {
          "name": "B4",
          "midi": 71,
          "time": 74.66659200000004,
          "velocity": 1,
          "duration": 0.3333329999999961
        },
        {
          "name": "C5",
          "midi": 72,
          "time": 74.99992500000003,
          "velocity": 1,
          "duration": 0.16666650000000516
        },
        {
          "name": "C6",
          "midi": 84,
          "time": 74.99992500000003,
          "velocity": 1,
          "duration": 0.16666650000000516
        },
        {
          "name": "G5",
          "midi": 79,
          "time": 75.16659150000004,
          "velocity": 1,
          "duration": 0.3333330000000103
        },
        {
          "name": "D5",
          "midi": 74,
          "time": 75.16659150000004,
          "velocity": 1,
          "duration": 0.16666650000000516
        },
        {
          "name": "F5",
          "midi": 77,
          "time": 75.33325800000004,
          "velocity": 1,
          "duration": 0.16666650000000516
        },
        {
          "name": "G5",
          "midi": 79,
          "time": 75.49992450000005,
          "velocity": 1,
          "duration": 0.16666650000000516
        },
        {
          "name": "D#5",
          "midi": 75,
          "time": 75.49992450000005,
          "velocity": 1,
          "duration": 0.16666650000000516
        },
        {
          "name": "F5",
          "midi": 77,
          "time": 75.66659100000005,
          "velocity": 1,
          "duration": 0.16666650000000516
        },
        {
          "name": "D5",
          "midi": 74,
          "time": 75.66659100000005,
          "velocity": 1,
          "duration": 0.16666650000000516
        },
        {
          "name": "D#5",
          "midi": 75,
          "time": 75.83325750000006,
          "velocity": 1,
          "duration": 0.16666650000000516
        },
        {
          "name": "C5",
          "midi": 72,
          "time": 75.83325750000006,
          "velocity": 1,
          "duration": 0.16666650000000516
        },
        {
          "name": "D5",
          "midi": 74,
          "time": 75.99992400000006,
          "velocity": 1,
          "duration": 0.3333329999999961
        },
        {
          "name": "A#4",
          "midi": 70,
          "time": 75.99992400000006,
          "velocity": 1,
          "duration": 0.3333329999999961
        },
        {
          "name": "F5",
          "midi": 77,
          "time": 77.99992200000005,
          "velocity": 1,
          "duration": 2.166664499999996
        },
        {
          "name": "E5",
          "midi": 76,
          "time": 80.16658650000005,
          "velocity": 1,
          "duration": 0.16666650000000516
        },
        {
          "name": "D#5",
          "midi": 75,
          "time": 80.33325300000006,
          "velocity": 1,
          "duration": 0.16666650000000516
        },
        {
          "name": "D5",
          "midi": 74,
          "time": 80.49991950000006,
          "velocity": 1,
          "duration": 0.16666650000000516
        },
        {
          "name": "C5",
          "midi": 72,
          "time": 80.66658600000007,
          "velocity": 1,
          "duration": 0.16666650000000516
        },
        {
          "name": "A#4",
          "midi": 70,
          "time": 80.83325250000007,
          "velocity": 1,
          "duration": 0.16666650000000516
        },
        {
          "name": "A4",
          "midi": 69,
          "time": 80.99991900000008,
          "velocity": 1,
          "duration": 0.16666650000000516
        },
        {
          "name": "G5",
          "midi": 79,
          "time": 81.16658550000008,
          "velocity": 1,
          "duration": 0.16666650000000516
        },
        {
          "name": "G4",
          "midi": 67,
          "time": 81.16658550000008,
          "velocity": 1,
          "duration": 0.16666650000000516
        },
        {
          "name": "F5",
          "midi": 77,
          "time": 81.33325200000009,
          "velocity": 1,
          "duration": 0.16666650000000516
        },
        {
          "name": "F4",
          "midi": 65,
          "time": 81.33325200000009,
          "velocity": 1,
          "duration": 0.16666650000000516
        },
        {
          "name": "D#5",
          "midi": 75,
          "time": 81.49991850000009,
          "velocity": 1,
          "duration": 0.16666650000000516
        },
        {
          "name": "D#4",
          "midi": 63,
          "time": 81.49991850000009,
          "velocity": 1,
          "duration": 0.16666650000000516
        },
        {
          "name": "D5",
          "midi": 74,
          "time": 81.6665850000001,
          "velocity": 1,
          "duration": 0.16666650000000516
        },
        {
          "name": "D4",
          "midi": 62,
          "time": 81.6665850000001,
          "velocity": 1,
          "duration": 0.16666650000000516
        },
        {
          "name": "C5",
          "midi": 72,
          "time": 81.8332515000001,
          "velocity": 1,
          "duration": 0.16666650000000516
        },
        {
          "name": "C4",
          "midi": 60,
          "time": 81.8332515000001,
          "velocity": 1,
          "duration": 0.16666650000000516
        },
        {
          "name": "A#4",
          "midi": 70,
          "time": 81.99991800000011,
          "velocity": 1,
          "duration": 0.3333329999999961
        },
        {
          "name": "F5",
          "midi": 77,
          "time": 83.3332500000001,
          "velocity": 1,
          "duration": 0.3333329999999961
        },
        {
          "name": "F5",
          "midi": 77,
          "time": 83.6665830000001,
          "velocity": 1,
          "duration": 0.3333329999999961
        },
        {
          "name": "F5",
          "midi": 77,
          "time": 83.9999160000001,
          "velocity": 1,
          "duration": 0.3333329999999961
        },
        {
          "name": "F5",
          "midi": 77,
          "time": 84.3332490000001,
          "velocity": 1,
          "duration": 0.3333329999999961
        },
        {
          "name": "F#5",
          "midi": 78,
          "time": 84.66658200000009,
          "velocity": 1,
          "duration": 0.3333329999999961
        },
        {
          "name": "A#4",
          "midi": 70,
          "time": 84.66658200000009,
          "velocity": 1,
          "duration": 0.3333329999999961
        },
        {
          "name": "G5",
          "midi": 79,
          "time": 84.99991500000009,
          "velocity": 1,
          "duration": 0.9999989999999883
        },
        {
          "name": "A#4",
          "midi": 70,
          "time": 84.99991500000009,
          "velocity": 1,
          "duration": 0.3333329999999961
        },
        {
          "name": "B4",
          "midi": 71,
          "time": 85.33324800000008,
          "velocity": 1,
          "duration": 0.3333329999999961
        },
        {
          "name": "C5",
          "midi": 72,
          "time": 85.66658100000008,
          "velocity": 1,
          "duration": 0.3333329999999961
        },
        {
          "name": "G5",
          "midi": 79,
          "time": 88.66657800000007,
          "velocity": 1,
          "duration": 0.6666660000000064
        },
        {
          "name": "F5",
          "midi": 77,
          "time": 89.33324400000008,
          "velocity": 1,
          "duration": 0.16666650000000516
        },
        {
          "name": "D#5",
          "midi": 75,
          "time": 89.49991050000008,
          "velocity": 1,
          "duration": 0.16666650000000516
        },
        {
          "name": "D5",
          "midi": 74,
          "time": 89.66657700000009,
          "velocity": 1,
          "duration": 0.16666650000000516
        },
        {
          "name": "C5",
          "midi": 72,
          "time": 89.8332435000001,
          "velocity": 1,
          "duration": 0.16666650000000516
        },
        {
          "name": "A#4",
          "midi": 70,
          "time": 89.9999100000001,
          "velocity": 1,
          "duration": 0.3333329999999961
        },
        {
          "name": "D#5",
          "midi": 75,
          "time": 91.3332420000001,
          "velocity": 1,
          "duration": 0.3333329999999961
        },
        {
          "name": "D#5",
          "midi": 75,
          "time": 91.6665750000001,
          "velocity": 1,
          "duration": 0.3333329999999961
        },
        {
          "name": "D#5",
          "midi": 75,
          "time": 91.99990800000009,
          "velocity": 1,
          "duration": 0.3333329999999961
        },
        {
          "name": "F#5",
          "midi": 78,
          "time": 92.33324100000009,
          "velocity": 1,
          "duration": 0.3333329999999961
        },
        {
          "name": "D#5",
          "midi": 75,
          "time": 92.33324100000009,
          "velocity": 1,
          "duration": 0.3333329999999961
        },
        {
          "name": "F#5",
          "midi": 78,
          "time": 92.66657400000008,
          "velocity": 1,
          "duration": 0.3333329999999961
        },
        {
          "name": "D#5",
          "midi": 75,
          "time": 92.66657400000008,
          "velocity": 1,
          "duration": 0.3333329999999961
        },
        {
          "name": "F#5",
          "midi": 78,
          "time": 92.99990700000008,
          "velocity": 1,
          "duration": 0.9999990000000025
        },
        {
          "name": "D#5",
          "midi": 75,
          "time": 92.99990700000008,
          "velocity": 1,
          "duration": 0.9999990000000025
        },
        {
          "name": "A#5",
          "midi": 82,
          "time": 96.33323700000008,
          "velocity": 1,
          "duration": 0.3333329999999961
        },
        {
          "name": "G5",
          "midi": 79,
          "time": 96.66657000000008,
          "velocity": 1,
          "duration": 0.3333329999999961
        },
        {
          "name": "F5",
          "midi": 77,
          "time": 96.99990300000007,
          "velocity": 1,
          "duration": 0.6666660000000064
        },
        {
          "name": "E5",
          "midi": 76,
          "time": 97.66656900000008,
          "velocity": 1,
          "duration": 0.3333329999999961
        },
        {
          "name": "D#5",
          "midi": 75,
          "time": 97.99990200000008,
          "velocity": 1,
          "duration": 0.3333329999999961
        },
        {
          "name": "A5",
          "midi": 81,
          "time": 107.49989250000007,
          "velocity": 1,
          "duration": 0.16666650000000516
        },
        {
          "name": "C5",
          "midi": 72,
          "time": 107.49989250000007,
          "velocity": 1,
          "duration": 0.16666650000000516
        },
        {
          "name": "A#5",
          "midi": 82,
          "time": 107.66655900000008,
          "velocity": 1,
          "duration": 0.16666650000000516
        },
        {
          "name": "D5",
          "midi": 74,
          "time": 107.66655900000008,
          "velocity": 1,
          "duration": 0.16666650000000516
        },
        {
          "name": "C6",
          "midi": 84,
          "time": 107.83322550000008,
          "velocity": 1,
          "duration": 0.16666650000000516
        },
        {
          "name": "D#5",
          "midi": 75,
          "time": 107.83322550000008,
          "velocity": 1,
          "duration": 0.16666650000000516
        },
        {
          "name": "D6",
          "midi": 86,
          "time": 107.99989200000009,
          "velocity": 1,
          "duration": 0.3333329999999961
        },
        {
          "name": "F5",
          "midi": 77,
          "time": 107.99989200000009,
          "velocity": 1,
          "duration": 0.3333329999999961
        },
        {
          "name": "F5",
          "midi": 77,
          "time": 108.33322500000008,
          "velocity": 1,
          "duration": 0.6666660000000064
        },
        {
          "name": "D5",
          "midi": 74,
          "time": 108.33322500000008,
          "velocity": 1,
          "duration": 0.6666660000000064
        },
        {
          "name": "F5",
          "midi": 77,
          "time": 109.33322400000009,
          "velocity": 1,
          "duration": 0.6666660000000064
        },
        {
          "name": "D5",
          "midi": 74,
          "time": 109.33322400000009,
          "velocity": 1,
          "duration": 0.6666660000000064
        },
        {
          "name": "D#5",
          "midi": 75,
          "time": 110.33322300000009,
          "velocity": 1,
          "duration": 0.6666660000000064
        },
        {
          "name": "F5",
          "midi": 77,
          "time": 110.33322300000009,
          "velocity": 1,
          "duration": 0.6666660000000064
        },
        {
          "name": "F5",
          "midi": 77,
          "time": 111.33322200000009,
          "velocity": 1,
          "duration": 0.3333329999999961
        },
        {
          "name": "A4",
          "midi": 69,
          "time": 111.33322200000009,
          "velocity": 1,
          "duration": 0.3333329999999961
        },
        {
          "name": "F5",
          "midi": 77,
          "time": 111.66655500000009,
          "velocity": 1,
          "duration": 0.3333329999999961
        },
        {
          "name": "C5",
          "midi": 72,
          "time": 111.66655500000009,
          "velocity": 1,
          "duration": 0.3333329999999961
        },
        {
          "name": "F5",
          "midi": 77,
          "time": 111.99988800000008,
          "velocity": 1,
          "duration": 3.3333299999999895
        },
        {
          "name": "D5",
          "midi": 74,
          "time": 111.99988800000008,
          "velocity": 1,
          "duration": 0.3333329999999961
        },
        {
          "name": "F5",
          "midi": 77,
          "time": 115.33321800000007,
          "velocity": 1,
          "duration": 0.3333329999999961
        },
        {
          "name": "F5",
          "midi": 77,
          "time": 115.66655100000007,
          "velocity": 1,
          "duration": 0.3333329999999961
        },
        {
          "name": "F5",
          "midi": 77,
          "time": 115.99988400000007,
          "velocity": 1,
          "duration": 0.8333325000000116
        },
        {
          "name": "A#5",
          "midi": 82,
          "time": 116.66655000000007,
          "velocity": 1,
          "duration": 0.4999995000000155
        },
        {
          "name": "E5",
          "midi": 76,
          "time": 116.83321650000008,
          "velocity": 1,
          "duration": 0.16666650000000516
        },
        {
          "name": "F5",
          "midi": 77,
          "time": 116.99988300000008,
          "velocity": 1,
          "duration": 0.16666650000000516
        },
        {
          "name": "G5",
          "midi": 79,
          "time": 121.4998785000001,
          "velocity": 1,
          "duration": 0.16666650000000516
        },
        {
          "name": "B4",
          "midi": 71,
          "time": 121.4998785000001,
          "velocity": 1,
          "duration": 0.16666650000000516
        },
        {
          "name": "C5",
          "midi": 72,
          "time": 121.6665450000001,
          "velocity": 1,
          "duration": 0.16666650000000516
        },
        {
          "name": "G5",
          "midi": 79,
          "time": 121.6665450000001,
          "velocity": 1,
          "duration": 0.16666650000000516
        },
        {
          "name": "G5",
          "midi": 79,
          "time": 121.8332115000001,
          "velocity": 1,
          "duration": 0.16666650000000516
        },
        {
          "name": "C#5",
          "midi": 73,
          "time": 121.8332115000001,
          "velocity": 1,
          "duration": 0.16666650000000516
        },
        {
          "name": "F#5",
          "midi": 78,
          "time": 121.99987800000011,
          "velocity": 1,
          "duration": 0.3333329999999961
        },
        {
          "name": "D5",
          "midi": 74,
          "time": 121.99987800000011,
          "velocity": 1,
          "duration": 0.3333329999999961
        },
        {
          "name": "A5",
          "midi": 81,
          "time": 122.3332110000001,
          "velocity": 1,
          "duration": 0.3333329999999961
        },
        {
          "name": "D5",
          "midi": 74,
          "time": 122.3332110000001,
          "velocity": 1,
          "duration": 0.3333329999999961
        },
        {
          "name": "G5",
          "midi": 79,
          "time": 122.6665440000001,
          "velocity": 1,
          "duration": 0.3333329999999961
        },
        {
          "name": "D5",
          "midi": 74,
          "time": 122.6665440000001,
          "velocity": 1,
          "duration": 0.3333329999999961
        },
        {
          "name": "F5",
          "midi": 77,
          "time": 123.3332100000001,
          "velocity": 1,
          "duration": 0.3333329999999961
        },
        {
          "name": "B4",
          "midi": 71,
          "time": 123.3332100000001,
          "velocity": 1,
          "duration": 0.3333329999999961
        },
        {
          "name": "D#5",
          "midi": 75,
          "time": 123.66654300000009,
          "velocity": 1,
          "duration": 0.3333329999999961
        },
        {
          "name": "C5",
          "midi": 72,
          "time": 123.66654300000009,
          "velocity": 1,
          "duration": 0.3333329999999961
        },
        {
          "name": "C5",
          "midi": 72,
          "time": 124.33320900000008,
          "velocity": 1,
          "duration": 0.3333329999999961
        },
        {
          "name": "G5",
          "midi": 79,
          "time": 124.33320900000008,
          "velocity": 1,
          "duration": 0.3333329999999961
        },
        {
          "name": "F5",
          "midi": 77,
          "time": 124.66654200000008,
          "velocity": 1,
          "duration": 0.3333329999999961
        },
        {
          "name": "C5",
          "midi": 72,
          "time": 124.66654200000008,
          "velocity": 1,
          "duration": 0.3333329999999961
        },
        {
          "name": "A5",
          "midi": 81,
          "time": 125.33320800000007,
          "velocity": 1,
          "duration": 0.3333329999999961
        },
        {
          "name": "D5",
          "midi": 74,
          "time": 125.33320800000007,
          "velocity": 1,
          "duration": 0.3333329999999961
        },
        {
          "name": "G5",
          "midi": 79,
          "time": 125.66654100000007,
          "velocity": 1,
          "duration": 0.3333329999999961
        },
        {
          "name": "D5",
          "midi": 74,
          "time": 125.66654100000007,
          "velocity": 1,
          "duration": 0.3333329999999961
        },
        {
          "name": "F5",
          "midi": 77,
          "time": 126.33320700000006,
          "velocity": 1,
          "duration": 0.3333329999999961
        },
        {
          "name": "B4",
          "midi": 71,
          "time": 126.33320700000006,
          "velocity": 1,
          "duration": 0.3333329999999961
        },
        {
          "name": "D#5",
          "midi": 75,
          "time": 126.66654000000005,
          "velocity": 1,
          "duration": 0.3333329999999961
        },
        {
          "name": "C5",
          "midi": 72,
          "time": 126.66654000000005,
          "velocity": 1,
          "duration": 0.3333329999999961
        },
        {
          "name": "G5",
          "midi": 79,
          "time": 127.33320600000005,
          "velocity": 1,
          "duration": 0.3333329999999961
        },
        {
          "name": "C5",
          "midi": 72,
          "time": 127.33320600000005,
          "velocity": 1,
          "duration": 0.3333329999999961
        },
        {
          "name": "C5",
          "midi": 72,
          "time": 127.99987200000004,
          "velocity": 1,
          "duration": 0.3333330000000103
        },
        {
          "name": "G5",
          "midi": 79,
          "time": 127.99987200000004,
          "velocity": 1,
          "duration": 0.3333330000000103
        },
        {
          "name": "G5",
          "midi": 79,
          "time": 128.66653800000006,
          "velocity": 1,
          "duration": 0.3333330000000103
        },
        {
          "name": "C5",
          "midi": 72,
          "time": 128.66653800000006,
          "velocity": 1,
          "duration": 0.3333330000000103
        },
        {
          "name": "G5",
          "midi": 79,
          "time": 129.33320400000008,
          "velocity": 1,
          "duration": 0.3333330000000103
        },
        {
          "name": "C5",
          "midi": 72,
          "time": 129.33320400000008,
          "velocity": 1,
          "duration": 0.3333330000000103
        },
        {
          "name": "G5",
          "midi": 79,
          "time": 129.9998700000001,
          "velocity": 1,
          "duration": 0.3333330000000103
        },
        {
          "name": "C5",
          "midi": 72,
          "time": 129.9998700000001,
          "velocity": 1,
          "duration": 0.3333330000000103
        },
        {
          "name": "G5",
          "midi": 79,
          "time": 130.66653600000012,
          "velocity": 1,
          "duration": 0.3333330000000103
        },
        {
          "name": "C5",
          "midi": 72,
          "time": 130.66653600000012,
          "velocity": 1,
          "duration": 0.3333330000000103
        },
        {
          "name": "E5",
          "midi": 76,
          "time": 131.99986800000013,
          "velocity": 1,
          "duration": 0.9999990000000025
        },
        {
          "name": "A#4",
          "midi": 70,
          "time": 131.99986800000013,
          "velocity": 1,
          "duration": 1.999998000000005
        },
        {
          "name": "F5",
          "midi": 77,
          "time": 132.99986700000014,
          "velocity": 1,
          "duration": 0.9999990000000025
        },
        {
          "name": "A#4",
          "midi": 70,
          "time": 133.99986600000014,
          "velocity": 1,
          "duration": 1.3333320000000128
        },
        {
          "name": "E5",
          "midi": 76,
          "time": 133.99986600000014,
          "velocity": 1,
          "duration": 1.3333320000000128
        },
        {
          "name": "D#5",
          "midi": 75,
          "time": 135.33319800000015,
          "velocity": 1,
          "duration": 0.3333330000000103
        },
        {
          "name": "A#4",
          "midi": 70,
          "time": 135.33319800000015,
          "velocity": 1,
          "duration": 0.3333330000000103
        },
        {
          "name": "D#5",
          "midi": 75,
          "time": 135.99986400000017,
          "velocity": 1,
          "duration": 0.3333330000000103
        },
        {
          "name": "C5",
          "midi": 72,
          "time": 135.99986400000017,
          "velocity": 1,
          "duration": 0.3333330000000103
        },
        {
          "name": "D#5",
          "midi": 75,
          "time": 136.6665300000002,
          "velocity": 1,
          "duration": 0.3333330000000103
        },
        {
          "name": "C5",
          "midi": 72,
          "time": 136.6665300000002,
          "velocity": 1,
          "duration": 0.3333330000000103
        },
        {
          "name": "F5",
          "midi": 77,
          "time": 137.3331960000002,
          "velocity": 1,
          "duration": 0.3333330000000103
        },
        {
          "name": "D#5",
          "midi": 75,
          "time": 137.3331960000002,
          "velocity": 1,
          "duration": 0.3333330000000103
        },
        {
          "name": "F5",
          "midi": 77,
          "time": 137.99986200000023,
          "velocity": 1,
          "duration": 0.3333330000000103
        },
        {
          "name": "D5",
          "midi": 74,
          "time": 137.99986200000023,
          "velocity": 1,
          "duration": 0.3333330000000103
        },
        {
          "name": "D5",
          "midi": 74,
          "time": 138.66652800000026,
          "velocity": 1,
          "duration": 0.3333329999999819
        },
        {
          "name": "F5",
          "midi": 77,
          "time": 138.66652800000026,
          "velocity": 1,
          "duration": 0.16666649999999095
        },
        {
          "name": "F#5",
          "midi": 78,
          "time": 138.83319450000025,
          "velocity": 1,
          "duration": 0.16666649999999095
        },
        {
          "name": "G5",
          "midi": 79,
          "time": 138.99986100000024,
          "velocity": 1,
          "duration": 1.4999985000000038
        },
        {
          "name": "D#5",
          "midi": 75,
          "time": 139.99986000000024,
          "velocity": 1,
          "duration": 0.49999950000000126
        },
        {
          "name": "G5",
          "midi": 79,
          "time": 140.49985950000024,
          "velocity": 1,
          "duration": 0.16666649999999095
        },
        {
          "name": "D#5",
          "midi": 75,
          "time": 140.49985950000024,
          "velocity": 1,
          "duration": 0.16666649999999095
        },
        {
          "name": "F5",
          "midi": 77,
          "time": 140.66652600000023,
          "velocity": 1,
          "duration": 0.16666649999999095
        },
        {
          "name": "D5",
          "midi": 74,
          "time": 140.66652600000023,
          "velocity": 1,
          "duration": 0.16666649999999095
        },
        {
          "name": "D#5",
          "midi": 75,
          "time": 140.83319250000022,
          "velocity": 1,
          "duration": 0.16666649999999095
        },
        {
          "name": "C5",
          "midi": 72,
          "time": 140.83319250000022,
          "velocity": 1,
          "duration": 0.16666649999999095
        },
        {
          "name": "D5",
          "midi": 74,
          "time": 140.9998590000002,
          "velocity": 1,
          "duration": 0.16666649999999095
        },
        {
          "name": "A#4",
          "midi": 70,
          "time": 140.9998590000002,
          "velocity": 1,
          "duration": 0.16666649999999095
        },
        {
          "name": "D5",
          "midi": 74,
          "time": 141.1665255000002,
          "velocity": 1,
          "duration": 0.16666649999999095
        },
        {
          "name": "F5",
          "midi": 77,
          "time": 141.1665255000002,
          "velocity": 1,
          "duration": 0.16666649999999095
        },
        {
          "name": "A#5",
          "midi": 82,
          "time": 141.3331920000002,
          "velocity": 1,
          "duration": 0.16666649999999095
        },
        {
          "name": "D5",
          "midi": 74,
          "time": 141.3331920000002,
          "velocity": 1,
          "duration": 0.16666649999999095
        },
        {
          "name": "A#5",
          "midi": 82,
          "time": 141.4998585000002,
          "velocity": 1,
          "duration": 0.16666649999999095
        },
        {
          "name": "D5",
          "midi": 74,
          "time": 141.4998585000002,
          "velocity": 1,
          "duration": 0.16666649999999095
        },
        {
          "name": "A#5",
          "midi": 82,
          "time": 141.66652500000018,
          "velocity": 1,
          "duration": 0.16666649999999095
        },
        {
          "name": "D5",
          "midi": 74,
          "time": 141.66652500000018,
          "velocity": 1,
          "duration": 0.16666649999999095
        },
        {
          "name": "A#5",
          "midi": 82,
          "time": 141.83319150000017,
          "velocity": 1,
          "duration": 0.16666649999999095
        },
        {
          "name": "D5",
          "midi": 74,
          "time": 141.83319150000017,
          "velocity": 1,
          "duration": 0.16666649999999095
        },
        {
          "name": "A5",
          "midi": 81,
          "time": 141.99985800000016,
          "velocity": 1,
          "duration": 0.9999990000000025
        },
        {
          "name": "C5",
          "midi": 72,
          "time": 141.99985800000016,
          "velocity": 1,
          "duration": 0.9999990000000025
        },
        {
          "name": "A#5",
          "midi": 82,
          "time": 142.99985700000016,
          "velocity": 1,
          "duration": 0.3333330000000103
        },
        {
          "name": "D5",
          "midi": 74,
          "time": 142.99985700000016,
          "velocity": 1,
          "duration": 0.3333330000000103
        },
        {
          "name": "A#4",
          "midi": 70,
          "time": 143.99985600000016,
          "velocity": 1,
          "duration": 0.3333330000000103
        },
        {
          "name": "A#4",
          "midi": 70,
          "time": 144.99985500000017,
          "velocity": 1,
          "duration": 0.3333330000000103
        },
        {
          "name": "F#5",
          "midi": 78,
          "time": 145.99985400000017,
          "velocity": 1,
          "duration": 0.3333330000000103
        },
        {
          "name": "A4",
          "midi": 69,
          "time": 145.99985400000017,
          "velocity": 1,
          "duration": 0.3333330000000103
        },
        {
          "name": "F#5",
          "midi": 78,
          "time": 146.33318700000018,
          "velocity": 1,
          "duration": 0.3333330000000103
        },
        {
          "name": "A4",
          "midi": 69,
          "time": 146.33318700000018,
          "velocity": 1,
          "duration": 0.3333330000000103
        },
        {
          "name": "F#5",
          "midi": 78,
          "time": 146.6665200000002,
          "velocity": 1,
          "duration": 0.3333330000000103
        },
        {
          "name": "A4",
          "midi": 69,
          "time": 146.6665200000002,
          "velocity": 1,
          "duration": 0.3333330000000103
        },
        {
          "name": "F5",
          "midi": 77,
          "time": 146.9998530000002,
          "velocity": 1,
          "duration": 0.3333330000000103
        },
        {
          "name": "A#4",
          "midi": 70,
          "time": 146.9998530000002,
          "velocity": 1,
          "duration": 0.3333330000000103
        },
        {
          "name": "G5",
          "midi": 79,
          "time": 159.66650700000022,
          "velocity": 1,
          "duration": 0.3333330000000103
        },
        {
          "name": "E5",
          "midi": 76,
          "time": 159.99984000000023,
          "velocity": 1,
          "duration": 0.6666659999999922
        },
        {
          "name": "F5",
          "midi": 77,
          "time": 160.66650600000023,
          "velocity": 1,
          "duration": 0.3333330000000103
        },
        {
          "name": "F5",
          "midi": 77,
          "time": 160.99983900000024,
          "velocity": 1,
          "duration": 0.3333330000000103
        },
        {
          "name": "A5",
          "midi": 81,
          "time": 169.33316400000024,
          "velocity": 1,
          "duration": 0.49999950000000126
        },
        {
          "name": "G5",
          "midi": 79,
          "time": 169.83316350000024,
          "velocity": 1,
          "duration": 0.16666649999999095
        },
        {
          "name": "F#5",
          "midi": 78,
          "time": 169.99983000000023,
          "velocity": 1,
          "duration": 0.3333330000000103
        },
        {
          "name": "A5",
          "midi": 81,
          "time": 173.33316000000025,
          "velocity": 1,
          "duration": 0.49999950000000126
        },
        {
          "name": "G5",
          "midi": 79,
          "time": 173.83315950000025,
          "velocity": 1,
          "duration": 0.16666649999999095
        },
        {
          "name": "F#5",
          "midi": 78,
          "time": 173.99982600000024,
          "velocity": 1,
          "duration": 0.3333330000000103
        },
        {
          "name": "G4",
          "midi": 67,
          "time": 177.33315600000026,
          "velocity": 1,
          "duration": 0.8333325000000116
        },
        {
          "name": "A4",
          "midi": 69,
          "time": 178.16648850000027,
          "velocity": 1,
          "duration": 0.16666649999999095
        },
        {
          "name": "B4",
          "midi": 71,
          "time": 178.33315500000026,
          "velocity": 1,
          "duration": 0.16666649999999095
        },
        {
          "name": "C5",
          "midi": 72,
          "time": 178.49982150000025,
          "velocity": 1,
          "duration": 0.16666649999999095
        },
        {
          "name": "D5",
          "midi": 74,
          "time": 178.66648800000024,
          "velocity": 1,
          "duration": 0.16666649999999095
        },
        {
          "name": "E5",
          "midi": 76,
          "time": 178.83315450000023,
          "velocity": 1,
          "duration": 0.16666649999999095
        },
        {
          "name": "F5",
          "midi": 77,
          "time": 178.99982100000022,
          "velocity": 1,
          "duration": 0.3333330000000103
        },
        {
          "name": "G5",
          "midi": 79,
          "time": 182.66648400000022,
          "velocity": 1,
          "duration": 1.3333320000000128
        },
        {
          "name": "G#5",
          "midi": 80,
          "time": 183.99981600000024,
          "velocity": 1,
          "duration": 1.3333320000000128
        },
        {
          "name": "G#5",
          "midi": 80,
          "time": 186.66648000000026,
          "velocity": 1,
          "duration": 1.3333320000000128
        },
        {
          "name": "A5",
          "midi": 81,
          "time": 187.99981200000028,
          "velocity": 1,
          "duration": 1.3333320000000128
        },
        {
          "name": "C#5",
          "midi": 73,
          "time": 188.66647800000027,
          "velocity": 1,
          "duration": 0.3333330000000103
        },
        {
          "name": "D5",
          "midi": 74,
          "time": 188.99981100000028,
          "velocity": 1,
          "duration": 0.3333330000000103
        },
        {
          "name": "F5",
          "midi": 77,
          "time": 189.3331440000003,
          "velocity": 1,
          "duration": 0.3333330000000103
        },
        {
          "name": "D5",
          "midi": 74,
          "time": 189.3331440000003,
          "velocity": 1,
          "duration": 0.3333330000000103
        },
        {
          "name": "D5",
          "midi": 74,
          "time": 189.6664770000003,
          "velocity": 1,
          "duration": 0.3333330000000103
        },
        {
          "name": "F5",
          "midi": 77,
          "time": 189.6664770000003,
          "velocity": 1,
          "duration": 0.3333330000000103
        },
        {
          "name": "F5",
          "midi": 77,
          "time": 189.9998100000003,
          "velocity": 1,
          "duration": 0.3333330000000103
        },
        {
          "name": "D5",
          "midi": 74,
          "time": 189.9998100000003,
          "velocity": 1,
          "duration": 0.3333330000000103
        },
        {
          "name": "F5",
          "midi": 77,
          "time": 190.33314300000032,
          "velocity": 1,
          "duration": 0.3333330000000103
        },
        {
          "name": "D5",
          "midi": 74,
          "time": 190.33314300000032,
          "velocity": 1,
          "duration": 0.3333330000000103
        },
        {
          "name": "F5",
          "midi": 77,
          "time": 190.66647600000033,
          "velocity": 1,
          "duration": 0.3333330000000103
        },
        {
          "name": "D5",
          "midi": 74,
          "time": 190.66647600000033,
          "velocity": 1,
          "duration": 0.3333330000000103
        },
        {
          "name": "F5",
          "midi": 77,
          "time": 190.99980900000034,
          "velocity": 1,
          "duration": 1.999998000000005
        },
        {
          "name": "D5",
          "midi": 74,
          "time": 190.99980900000034,
          "velocity": 1,
          "duration": 1.999998000000005
        },
        {
          "name": "G5",
          "midi": 79,
          "time": 192.99980700000035,
          "velocity": 1,
          "duration": 0.3333330000000103
        },
        {
          "name": "C#5",
          "midi": 73,
          "time": 192.99980700000035,
          "velocity": 1,
          "duration": 0.3333330000000103
        },
        {
          "name": "G5",
          "midi": 79,
          "time": 193.33314000000036,
          "velocity": 1,
          "duration": 0.3333330000000103
        },
        {
          "name": "C#5",
          "midi": 73,
          "time": 193.33314000000036,
          "velocity": 1,
          "duration": 0.3333330000000103
        },
        {
          "name": "C#5",
          "midi": 73,
          "time": 193.66647300000037,
          "velocity": 1,
          "duration": 0.3333330000000103
        },
        {
          "name": "G5",
          "midi": 79,
          "time": 193.66647300000037,
          "velocity": 1,
          "duration": 0.3333330000000103
        },
        {
          "name": "G5",
          "midi": 79,
          "time": 193.99980600000038,
          "velocity": 1,
          "duration": 0.3333330000000103
        },
        {
          "name": "C#5",
          "midi": 73,
          "time": 193.99980600000038,
          "velocity": 1,
          "duration": 0.3333330000000103
        },
        {
          "name": "G5",
          "midi": 79,
          "time": 194.3331390000004,
          "velocity": 1,
          "duration": 0.3333330000000103
        },
        {
          "name": "C#5",
          "midi": 73,
          "time": 194.3331390000004,
          "velocity": 1,
          "duration": 0.3333330000000103
        },
        {
          "name": "G5",
          "midi": 79,
          "time": 194.6664720000004,
          "velocity": 1,
          "duration": 0.3333330000000103
        },
        {
          "name": "C#5",
          "midi": 73,
          "time": 194.6664720000004,
          "velocity": 1,
          "duration": 0.3333330000000103
        },
        {
          "name": "G5",
          "midi": 79,
          "time": 194.9998050000004,
          "velocity": 1,
          "duration": 1.6666649999999947
        },
        {
          "name": "C#5",
          "midi": 73,
          "time": 194.9998050000004,
          "velocity": 1,
          "duration": 1.6666649999999947
        },
        {
          "name": "E5",
          "midi": 76,
          "time": 196.6664700000004,
          "velocity": 1,
          "duration": 0.3333330000000103
        },
        {
          "name": "C#5",
          "midi": 73,
          "time": 196.6664700000004,
          "velocity": 1,
          "duration": 0.3333330000000103
        },
        {
          "name": "D5",
          "midi": 74,
          "time": 200.99979900000042,
          "velocity": 1,
          "duration": 0.3333330000000103
        },
        {
          "name": "G5",
          "midi": 79,
          "time": 200.99979900000042,
          "velocity": 1,
          "duration": 0.3333330000000103
        },
        {
          "name": "G5",
          "midi": 79,
          "time": 201.33313200000043,
          "velocity": 1,
          "duration": 0.3333330000000103
        },
        {
          "name": "D5",
          "midi": 74,
          "time": 201.33313200000043,
          "velocity": 1,
          "duration": 0.3333330000000103
        },
        {
          "name": "G5",
          "midi": 79,
          "time": 201.66646500000044,
          "velocity": 1,
          "duration": 0.3333330000000103
        },
        {
          "name": "D5",
          "midi": 74,
          "time": 201.66646500000044,
          "velocity": 1,
          "duration": 0.3333330000000103
        },
        {
          "name": "G5",
          "midi": 79,
          "time": 201.99979800000045,
          "velocity": 1,
          "duration": 0.3333330000000103
        },
        {
          "name": "D5",
          "midi": 74,
          "time": 201.99979800000045,
          "velocity": 1,
          "duration": 0.3333330000000103
        },
        {
          "name": "G5",
          "midi": 79,
          "time": 202.33313100000046,
          "velocity": 1,
          "duration": 0.3333330000000103
        },
        {
          "name": "D5",
          "midi": 74,
          "time": 202.33313100000046,
          "velocity": 1,
          "duration": 0.3333330000000103
        },
        {
          "name": "G5",
          "midi": 79,
          "time": 202.66646400000047,
          "velocity": 1,
          "duration": 0.3333330000000103
        },
        {
          "name": "D5",
          "midi": 74,
          "time": 202.66646400000047,
          "velocity": 1,
          "duration": 0.3333330000000103
        },
        {
          "name": "G5",
          "midi": 79,
          "time": 202.99979700000048,
          "velocity": 1,
          "duration": 1.999998000000005
        },
        {
          "name": "D5",
          "midi": 74,
          "time": 202.99979700000048,
          "velocity": 1,
          "duration": 1.999998000000005
        },
        {
          "name": "F#5",
          "midi": 78,
          "time": 204.9997950000005,
          "velocity": 1,
          "duration": 0.3333330000000103
        },
        {
          "name": "D5",
          "midi": 74,
          "time": 204.9997950000005,
          "velocity": 1,
          "duration": 0.3333330000000103
        },
        {
          "name": "F#5",
          "midi": 78,
          "time": 205.3331280000005,
          "velocity": 1,
          "duration": 0.3333330000000103
        },
        {
          "name": "D5",
          "midi": 74,
          "time": 205.3331280000005,
          "velocity": 1,
          "duration": 0.3333330000000103
        },
        {
          "name": "F#5",
          "midi": 78,
          "time": 205.6664610000005,
          "velocity": 1,
          "duration": 0.3333330000000103
        },
        {
          "name": "D5",
          "midi": 74,
          "time": 205.6664610000005,
          "velocity": 1,
          "duration": 0.3333330000000103
        },
        {
          "name": "F#5",
          "midi": 78,
          "time": 205.99979400000052,
          "velocity": 1,
          "duration": 0.3333330000000103
        },
        {
          "name": "D5",
          "midi": 74,
          "time": 205.99979400000052,
          "velocity": 1,
          "duration": 0.3333330000000103
        },
        {
          "name": "F#5",
          "midi": 78,
          "time": 206.33312700000053,
          "velocity": 1,
          "duration": 0.3333330000000103
        },
        {
          "name": "D5",
          "midi": 74,
          "time": 206.33312700000053,
          "velocity": 1,
          "duration": 0.3333330000000103
        },
        {
          "name": "F#5",
          "midi": 78,
          "time": 206.66646000000054,
          "velocity": 1,
          "duration": 0.3333330000000103
        },
        {
          "name": "D5",
          "midi": 74,
          "time": 206.66646000000054,
          "velocity": 1,
          "duration": 0.3333330000000103
        },
        {
          "name": "D5",
          "midi": 74,
          "time": 206.99979300000055,
          "velocity": 1,
          "duration": 1.6666649999999947
        },
        {
          "name": "F#5",
          "midi": 78,
          "time": 206.99979300000055,
          "velocity": 1,
          "duration": 1.6666649999999947
        },
        {
          "name": "A5",
          "midi": 81,
          "time": 208.66645800000055,
          "velocity": 1,
          "duration": 0.3333330000000103
        },
        {
          "name": "D5",
          "midi": 74,
          "time": 208.66645800000055,
          "velocity": 1,
          "duration": 0.3333330000000103
        },
        {
          "name": "G5",
          "midi": 79,
          "time": 208.99979100000056,
          "velocity": 1,
          "duration": 0.3333330000000103
        },
        {
          "name": "D5",
          "midi": 74,
          "time": 208.99979100000056,
          "velocity": 1,
          "duration": 0.3333330000000103
        },
        {
          "name": "G5",
          "midi": 79,
          "time": 209.49979050000056,
          "velocity": 1,
          "duration": 0.16666649999999095
        },
        {
          "name": "G5",
          "midi": 79,
          "time": 209.66645700000055,
          "velocity": 1,
          "duration": 0.16666649999999095
        },
        {
          "name": "G5",
          "midi": 79,
          "time": 210.49978950000053,
          "velocity": 1,
          "duration": 0.16666649999999095
        },
        {
          "name": "G5",
          "midi": 79,
          "time": 210.66645600000052,
          "velocity": 1,
          "duration": 0.16666649999999095
        },
        {
          "name": "G5",
          "midi": 79,
          "time": 211.16645550000052,
          "velocity": 1,
          "duration": 0.16666649999999095
        },
        {
          "name": "G5",
          "midi": 79,
          "time": 211.33312200000051,
          "velocity": 1,
          "duration": 0.16666649999999095
        },
        {
          "name": "G5",
          "midi": 79,
          "time": 211.4997885000005,
          "velocity": 1,
          "duration": 0.16666649999999095
        },
        {
          "name": "G5",
          "midi": 79,
          "time": 211.6664550000005,
          "velocity": 1,
          "duration": 0.16666649999999095
        },
        {
          "name": "G5",
          "midi": 79,
          "time": 211.8331215000005,
          "velocity": 1,
          "duration": 0.16666649999999095
        },
        {
          "name": "G5",
          "midi": 79,
          "time": 211.99978800000048,
          "velocity": 1,
          "duration": 0.3333330000000103
        },
        {
          "name": "F5",
          "midi": 77,
          "time": 217.4997825000005,
          "velocity": 1,
          "duration": 0.16666649999999095
        },
        {
          "name": "F5",
          "midi": 77,
          "time": 217.66644900000048,
          "velocity": 1,
          "duration": 0.16666649999999095
        },
        {
          "name": "A#5",
          "midi": 82,
          "time": 218.49978150000047,
          "velocity": 1,
          "duration": 0.16666649999999095
        },
        {
          "name": "A#4",
          "midi": 70,
          "time": 218.49978150000047,
          "velocity": 1,
          "duration": 0.16666649999999095
        },
        {
          "name": "A#5",
          "midi": 82,
          "time": 218.66644800000046,
          "velocity": 1,
          "duration": 0.16666649999999095
        },
        {
          "name": "A#4",
          "midi": 70,
          "time": 218.66644800000046,
          "velocity": 1,
          "duration": 0.16666649999999095
        },
        {
          "name": "G#5",
          "midi": 80,
          "time": 220.99977900000044,
          "velocity": 1,
          "duration": 0.9999990000000025
        },
        {
          "name": "C#5",
          "midi": 73,
          "time": 220.99977900000044,
          "velocity": 1,
          "duration": 0.9999990000000025
        },
        {
          "name": "D5",
          "midi": 74,
          "time": 221.99977800000045,
          "velocity": 1,
          "duration": 0.9999990000000025
        },
        {
          "name": "G#5",
          "midi": 80,
          "time": 221.99977800000045,
          "velocity": 1,
          "duration": 0.9999990000000025
        },
        {
          "name": "G5",
          "midi": 79,
          "time": 222.99977700000045,
          "velocity": 1,
          "duration": 0.3333330000000103
        },
        {
          "name": "D#5",
          "midi": 75,
          "time": 222.99977700000045,
          "velocity": 1,
          "duration": 0.3333330000000103
        },
        {
          "name": "D#5",
          "midi": 75,
          "time": 224.99977500000045,
          "velocity": 1,
          "duration": 1.1666654999999935
        },
        {
          "name": "D#5",
          "midi": 75,
          "time": 226.16644050000045,
          "velocity": 1,
          "duration": 0.16666649999999095
        },
        {
          "name": "F5",
          "midi": 77,
          "time": 226.33310700000044,
          "velocity": 1,
          "duration": 0.16666649999999095
        },
        {
          "name": "G5",
          "midi": 79,
          "time": 226.49977350000043,
          "velocity": 1,
          "duration": 0.16666649999999095
        },
        {
          "name": "G#5",
          "midi": 80,
          "time": 226.66644000000042,
          "velocity": 1,
          "duration": 0.16666649999999095
        },
        {
          "name": "A#5",
          "midi": 82,
          "time": 226.8331065000004,
          "velocity": 1,
          "duration": 0.16666649999999095
        },
        {
          "name": "C6",
          "midi": 84,
          "time": 226.9997730000004,
          "velocity": 1,
          "duration": 0.3333330000000103
        },
        {
          "name": "D#5",
          "midi": 75,
          "time": 228.9997710000004,
          "velocity": 1,
          "duration": 1.1666654999999935
        },
        {
          "name": "D5",
          "midi": 74,
          "time": 230.1664365000004,
          "velocity": 1,
          "duration": 0.16666649999999095
        },
        {
          "name": "D#5",
          "midi": 75,
          "time": 230.3331030000004,
          "velocity": 1,
          "duration": 0.16666649999999095
        },
        {
          "name": "F5",
          "midi": 77,
          "time": 230.49976950000038,
          "velocity": 1,
          "duration": 0.16666649999999095
        },
        {
          "name": "G5",
          "midi": 79,
          "time": 230.66643600000037,
          "velocity": 1,
          "duration": 0.16666649999999095
        },
        {
          "name": "G#5",
          "midi": 80,
          "time": 230.83310250000036,
          "velocity": 1,
          "duration": 0.16666649999999095
        },
        {
          "name": "A#5",
          "midi": 82,
          "time": 230.99976900000036,
          "velocity": 1,
          "duration": 0.3333330000000103
        },
        {
          "name": "A#4",
          "midi": 70,
          "time": 236.99976300000037,
          "velocity": 1,
          "duration": 1.1666654999999935
        },
        {
          "name": "C5",
          "midi": 72,
          "time": 238.16642850000036,
          "velocity": 1,
          "duration": 0.16666649999999095
        },
        {
          "name": "D5",
          "midi": 74,
          "time": 238.33309500000036,
          "velocity": 1,
          "duration": 0.16666649999999095
        },
        {
          "name": "E5",
          "midi": 76,
          "time": 238.49976150000035,
          "velocity": 1,
          "duration": 0.16666649999999095
        },
        {
          "name": "F5",
          "midi": 77,
          "time": 238.66642800000034,
          "velocity": 1,
          "duration": 0.16666649999999095
        },
        {
          "name": "G5",
          "midi": 79,
          "time": 238.83309450000033,
          "velocity": 1,
          "duration": 0.16666649999999095
        },
        {
          "name": "G#5",
          "midi": 80,
          "time": 238.99976100000032,
          "velocity": 1,
          "duration": 0.3333330000000103
        },
        {
          "name": "G4",
          "midi": 67,
          "time": 247.33308600000032,
          "velocity": 1,
          "duration": 0.3333330000000103
        },
        {
          "name": "A#4",
          "midi": 70,
          "time": 247.33308600000032,
          "velocity": 1,
          "duration": 0.3333330000000103
        },
        {
          "name": "A#5",
          "midi": 82,
          "time": 247.66641900000033,
          "velocity": 1,
          "duration": 0.6666659999999922
        },
        {
          "name": "G5",
          "midi": 79,
          "time": 247.66641900000033,
          "velocity": 1,
          "duration": 0.6666659999999922
        },
        {
          "name": "A5",
          "midi": 81,
          "time": 248.33308500000032,
          "velocity": 1,
          "duration": 0.3333330000000103
        },
        {
          "name": "F5",
          "midi": 77,
          "time": 248.33308500000032,
          "velocity": 1,
          "duration": 0.3333330000000103
        },
        {
          "name": "F5",
          "midi": 77,
          "time": 251.33308200000033,
          "velocity": 1,
          "duration": 1.999998000000005
        },
        {
          "name": "G#4",
          "midi": 68,
          "time": 251.33308200000033,
          "velocity": 1,
          "duration": 1.999998000000005
        },
        {
          "name": "G#4",
          "midi": 68,
          "time": 253.33308000000034,
          "velocity": 1,
          "duration": 0.6666659999999922
        },
        {
          "name": "F5",
          "midi": 77,
          "time": 253.33308000000034,
          "velocity": 1,
          "duration": 0.6666659999999922
        },
        {
          "name": "F5",
          "midi": 77,
          "time": 253.99974600000033,
          "velocity": 1,
          "duration": 0.6666659999999922
        },
        {
          "name": "G#4",
          "midi": 68,
          "time": 253.99974600000033,
          "velocity": 1,
          "duration": 0.6666659999999922
        },
        {
          "name": "F5",
          "midi": 77,
          "time": 254.66641200000032,
          "velocity": 1,
          "duration": 0.6666659999999922
        },
        {
          "name": "G#4",
          "midi": 68,
          "time": 254.66641200000032,
          "velocity": 1,
          "duration": 0.6666659999999922
        },
        {
          "name": "F5",
          "midi": 77,
          "time": 255.3330780000003,
          "velocity": 1,
          "duration": 0.6666659999999922
        },
        {
          "name": "G#4",
          "midi": 68,
          "time": 255.3330780000003,
          "velocity": 1,
          "duration": 0.6666659999999922
        },
        {
          "name": "F5",
          "midi": 77,
          "time": 255.9997440000003,
          "velocity": 1,
          "duration": 0.6666660000000206
        },
        {
          "name": "G#4",
          "midi": 68,
          "time": 255.9997440000003,
          "velocity": 1,
          "duration": 0.6666660000000206
        },
        {
          "name": "F5",
          "midi": 77,
          "time": 256.6664100000003,
          "velocity": 1,
          "duration": 0.3333329999999819
        },
        {
          "name": "G#4",
          "midi": 68,
          "time": 256.6664100000003,
          "velocity": 1,
          "duration": 0.3333329999999819
        },
        {
          "name": "A4",
          "midi": 69,
          "time": 257.3330760000003,
          "velocity": 1,
          "duration": 1.999998000000005
        },
        {
          "name": "E5",
          "midi": 76,
          "time": 257.3330760000003,
          "velocity": 1,
          "duration": 1.999998000000005
        },
        {
          "name": "E5",
          "midi": 76,
          "time": 259.3330740000003,
          "velocity": 1,
          "duration": 0.6666660000000206
        },
        {
          "name": "A4",
          "midi": 69,
          "time": 259.3330740000003,
          "velocity": 1,
          "duration": 0.6666660000000206
        },
        {
          "name": "E5",
          "midi": 76,
          "time": 259.9997400000003,
          "velocity": 1,
          "duration": 0.6666660000000206
        },
        {
          "name": "A4",
          "midi": 69,
          "time": 259.9997400000003,
          "velocity": 1,
          "duration": 0.6666660000000206
        },
        {
          "name": "E5",
          "midi": 76,
          "time": 260.66640600000034,
          "velocity": 1,
          "duration": 0.6666660000000206
        },
        {
          "name": "A4",
          "midi": 69,
          "time": 260.66640600000034,
          "velocity": 1,
          "duration": 0.6666660000000206
        },
        {
          "name": "A4",
          "midi": 69,
          "time": 261.33307200000036,
          "velocity": 1,
          "duration": 0.6666660000000206
        },
        {
          "name": "E5",
          "midi": 76,
          "time": 261.33307200000036,
          "velocity": 1,
          "duration": 0.6666660000000206
        },
        {
          "name": "E5",
          "midi": 76,
          "time": 261.9997380000004,
          "velocity": 1,
          "duration": 0.6666660000000206
        },
        {
          "name": "A4",
          "midi": 69,
          "time": 261.9997380000004,
          "velocity": 1,
          "duration": 0.6666660000000206
        },
        {
          "name": "E5",
          "midi": 76,
          "time": 262.6664040000004,
          "velocity": 1,
          "duration": 0.3333329999999819
        },
        {
          "name": "A4",
          "midi": 69,
          "time": 262.6664040000004,
          "velocity": 1,
          "duration": 0.3333329999999819
        },
        {
          "name": "F#5",
          "midi": 78,
          "time": 263.33307000000036,
          "velocity": 1,
          "duration": 1.999998000000005
        },
        {
          "name": "D#5",
          "midi": 75,
          "time": 263.33307000000036,
          "velocity": 1,
          "duration": 1.999998000000005
        },
        {
          "name": "F#5",
          "midi": 78,
          "time": 265.33306800000037,
          "velocity": 1,
          "duration": 0.6666660000000206
        },
        {
          "name": "D#5",
          "midi": 75,
          "time": 265.33306800000037,
          "velocity": 1,
          "duration": 0.6666660000000206
        },
        {
          "name": "D#5",
          "midi": 75,
          "time": 265.9997340000004,
          "velocity": 1,
          "duration": 0.6666660000000206
        },
        {
          "name": "F#5",
          "midi": 78,
          "time": 265.9997340000004,
          "velocity": 1,
          "duration": 0.6666660000000206
        },
        {
          "name": "F#5",
          "midi": 78,
          "time": 266.6664000000004,
          "velocity": 1,
          "duration": 0.6666660000000206
        },
        {
          "name": "D#5",
          "midi": 75,
          "time": 266.6664000000004,
          "velocity": 1,
          "duration": 0.6666660000000206
        },
        {
          "name": "F#5",
          "midi": 78,
          "time": 267.33306600000043,
          "velocity": 1,
          "duration": 0.6666660000000206
        },
        {
          "name": "D#5",
          "midi": 75,
          "time": 267.33306600000043,
          "velocity": 1,
          "duration": 0.6666660000000206
        },
        {
          "name": "F#5",
          "midi": 78,
          "time": 267.99973200000045,
          "velocity": 1,
          "duration": 0.6666660000000206
        },
        {
          "name": "D#5",
          "midi": 75,
          "time": 267.99973200000045,
          "velocity": 1,
          "duration": 0.6666660000000206
        },
        {
          "name": "F#5",
          "midi": 78,
          "time": 268.66639800000047,
          "velocity": 1,
          "duration": 0.3333329999999819
        },
        {
          "name": "D#5",
          "midi": 75,
          "time": 268.66639800000047,
          "velocity": 1,
          "duration": 0.3333329999999819
        },
        {
          "name": "G5",
          "midi": 79,
          "time": 269.33306400000043,
          "velocity": 1,
          "duration": 1.999998000000005
        },
        {
          "name": "E5",
          "midi": 76,
          "time": 269.33306400000043,
          "velocity": 1,
          "duration": 1.999998000000005
        },
        {
          "name": "G5",
          "midi": 79,
          "time": 271.33306200000044,
          "velocity": 1,
          "duration": 0.6666660000000206
        },
        {
          "name": "E5",
          "midi": 76,
          "time": 271.33306200000044,
          "velocity": 1,
          "duration": 0.6666660000000206
        },
        {
          "name": "G5",
          "midi": 79,
          "time": 271.99972800000046,
          "velocity": 1,
          "duration": 0.6666660000000206
        },
        {
          "name": "E5",
          "midi": 76,
          "time": 271.99972800000046,
          "velocity": 1,
          "duration": 0.6666660000000206
        },
        {
          "name": "G5",
          "midi": 79,
          "time": 272.6663940000005,
          "velocity": 1,
          "duration": 0.6666660000000206
        },
        {
          "name": "E5",
          "midi": 76,
          "time": 272.6663940000005,
          "velocity": 1,
          "duration": 0.6666660000000206
        },
        {
          "name": "G5",
          "midi": 79,
          "time": 273.3330600000005,
          "velocity": 1,
          "duration": 0.6666660000000206
        },
        {
          "name": "E5",
          "midi": 76,
          "time": 273.3330600000005,
          "velocity": 1,
          "duration": 0.6666660000000206
        },
        {
          "name": "E5",
          "midi": 76,
          "time": 273.9997260000005,
          "velocity": 1,
          "duration": 0.6666660000000206
        },
        {
          "name": "G5",
          "midi": 79,
          "time": 273.9997260000005,
          "velocity": 1,
          "duration": 0.6666660000000206
        },
        {
          "name": "G5",
          "midi": 79,
          "time": 274.66639200000054,
          "velocity": 1,
          "duration": 0.3333329999999819
        },
        {
          "name": "E5",
          "midi": 76,
          "time": 274.66639200000054,
          "velocity": 1,
          "duration": 0.3333329999999819
        },
        {
          "name": "F#5",
          "midi": 78,
          "time": 275.3330580000005,
          "velocity": 1,
          "duration": 0.6666660000000206
        },
        {
          "name": "D#5",
          "midi": 75,
          "time": 275.3330580000005,
          "velocity": 1,
          "duration": 0.6666660000000206
        },
        {
          "name": "F#5",
          "midi": 78,
          "time": 275.9997240000005,
          "velocity": 1,
          "duration": 0.6666660000000206
        },
        {
          "name": "D#5",
          "midi": 75,
          "time": 275.9997240000005,
          "velocity": 1,
          "duration": 0.6666660000000206
        },
        {
          "name": "F#5",
          "midi": 78,
          "time": 276.66639000000055,
          "velocity": 1,
          "duration": 0.3333329999999819
        },
        {
          "name": "D#5",
          "midi": 75,
          "time": 276.66639000000055,
          "velocity": 1,
          "duration": 0.3333329999999819
        },
        {
          "name": "G5",
          "midi": 79,
          "time": 277.3330560000005,
          "velocity": 1,
          "duration": 0.6666660000000206
        },
        {
          "name": "E5",
          "midi": 76,
          "time": 277.3330560000005,
          "velocity": 1,
          "duration": 0.6666660000000206
        },
        {
          "name": "G5",
          "midi": 79,
          "time": 277.99972200000053,
          "velocity": 1,
          "duration": 0.6666660000000206
        },
        {
          "name": "E5",
          "midi": 76,
          "time": 277.99972200000053,
          "velocity": 1,
          "duration": 0.6666660000000206
        },
        {
          "name": "E5",
          "midi": 76,
          "time": 278.66638800000055,
          "velocity": 1,
          "duration": 0.3333329999999819
        },
        {
          "name": "G5",
          "midi": 79,
          "time": 278.66638800000055,
          "velocity": 1,
          "duration": 0.3333329999999819
        },
        {
          "name": "C6",
          "midi": 84,
          "time": 278.99972100000053,
          "velocity": 1,
          "duration": 0.6666660000000206
        },
        {
          "name": "E5",
          "midi": 76,
          "time": 278.99972100000053,
          "velocity": 1,
          "duration": 0.6666660000000206
        },
        {
          "name": "C6",
          "midi": 84,
          "time": 279.99972000000054,
          "velocity": 1,
          "duration": 0.6666660000000206
        },
        {
          "name": "E5",
          "midi": 76,
          "time": 279.99972000000054,
          "velocity": 1,
          "duration": 0.6666660000000206
        },
        {
          "name": "C6",
          "midi": 84,
          "time": 280.99971900000054,
          "velocity": 1,
          "duration": 0.6666660000000206
        },
        {
          "name": "E5",
          "midi": 76,
          "time": 280.99971900000054,
          "velocity": 1,
          "duration": 0.6666660000000206
        },
        {
          "name": "C6",
          "midi": 84,
          "time": 281.99971800000054,
          "velocity": 1,
          "duration": 0.6666660000000206
        },
        {
          "name": "E5",
          "midi": 76,
          "time": 281.99971800000054,
          "velocity": 1,
          "duration": 0.6666660000000206
        },
        {
          "name": "C6",
          "midi": 84,
          "time": 282.66638400000056,
          "velocity": 1,
          "duration": 0.3333329999999819
        },
        {
          "name": "E5",
          "midi": 76,
          "time": 282.66638400000056,
          "velocity": 1,
          "duration": 0.3333329999999819
        },
        {
          "name": "E5",
          "midi": 76,
          "time": 287.33304600000054,
          "velocity": 1,
          "duration": 0.3333329999999819
        },
        {
          "name": "G4",
          "midi": 67,
          "time": 287.33304600000054,
          "velocity": 1,
          "duration": 0.3333329999999819
        },
        {
          "name": "A4",
          "midi": 69,
          "time": 287.6663790000005,
          "velocity": 1,
          "duration": 0.3333329999999819
        },
        {
          "name": "D#5",
          "midi": 75,
          "time": 287.6663790000005,
          "velocity": 1,
          "duration": 0.3333329999999819
        },
        {
          "name": "E5",
          "midi": 76,
          "time": 287.9997120000005,
          "velocity": 1,
          "duration": 0.49999950000000126
        },
        {
          "name": "B4",
          "midi": 71,
          "time": 287.9997120000005,
          "velocity": 1,
          "duration": 0.49999950000000126
        },
        {
          "name": "F#5",
          "midi": 78,
          "time": 288.4997115000005,
          "velocity": 1,
          "duration": 0.16666650000001937
        },
        {
          "name": "D#5",
          "midi": 75,
          "time": 288.4997115000005,
          "velocity": 1,
          "duration": 0.16666650000001937
        },
        {
          "name": "G5",
          "midi": 79,
          "time": 288.6663780000005,
          "velocity": 1,
          "duration": 0.3333329999999819
        },
        {
          "name": "E5",
          "midi": 76,
          "time": 288.6663780000005,
          "velocity": 1,
          "duration": 0.3333329999999819
        },
        {
          "name": "F#5",
          "midi": 78,
          "time": 288.9997110000005,
          "velocity": 1,
          "duration": 0.3333329999999819
        },
        {
          "name": "B4",
          "midi": 71,
          "time": 288.9997110000005,
          "velocity": 1,
          "duration": 0.3333329999999819
        },
        {
          "name": "B5",
          "midi": 83,
          "time": 289.3330440000005,
          "velocity": 1,
          "duration": 0.3333329999999819
        },
        {
          "name": "F#5",
          "midi": 78,
          "time": 289.3330440000005,
          "velocity": 1,
          "duration": 0.3333329999999819
        },
        {
          "name": "A#5",
          "midi": 82,
          "time": 289.66637700000047,
          "velocity": 1,
          "duration": 0.3333329999999819
        },
        {
          "name": "E5",
          "midi": 76,
          "time": 289.66637700000047,
          "velocity": 1,
          "duration": 0.3333329999999819
        },
        {
          "name": "D#5",
          "midi": 75,
          "time": 289.99971000000045,
          "velocity": 1,
          "duration": 0.6666660000000206
        },
        {
          "name": "B5",
          "midi": 83,
          "time": 289.99971000000045,
          "velocity": 1,
          "duration": 0.49999950000000126
        },
        {
          "name": "A5",
          "midi": 81,
          "time": 290.49970950000045,
          "velocity": 1,
          "duration": 0.16666650000001937
        },
        {
          "name": "G5",
          "midi": 79,
          "time": 290.66637600000047,
          "velocity": 1,
          "duration": 0.16666650000001937
        },
        {
          "name": "E5",
          "midi": 76,
          "time": 290.66637600000047,
          "velocity": 1,
          "duration": 0.16666650000001937
        },
        {
          "name": "F#5",
          "midi": 78,
          "time": 290.8330425000005,
          "velocity": 1,
          "duration": 0.16666650000001937
        },
        {
          "name": "B4",
          "midi": 71,
          "time": 290.8330425000005,
          "velocity": 1,
          "duration": 0.16666650000001937
        },
        {
          "name": "E5",
          "midi": 76,
          "time": 290.9997090000005,
          "velocity": 1,
          "duration": 0.3333329999999819
        },
        {
          "name": "G4",
          "midi": 67,
          "time": 290.9997090000005,
          "velocity": 1,
          "duration": 0.3333329999999819
        },
        {
          "name": "E5",
          "midi": 76,
          "time": 291.3330420000005,
          "velocity": 1,
          "duration": 0.3333329999999819
        },
        {
          "name": "G4",
          "midi": 67,
          "time": 291.3330420000005,
          "velocity": 1,
          "duration": 0.3333329999999819
        },
        {
          "name": "D#5",
          "midi": 75,
          "time": 291.66637500000047,
          "velocity": 1,
          "duration": 0.3333329999999819
        },
        {
          "name": "A4",
          "midi": 69,
          "time": 291.66637500000047,
          "velocity": 1,
          "duration": 0.3333329999999819
        },
        {
          "name": "E5",
          "midi": 76,
          "time": 291.99970800000045,
          "velocity": 1,
          "duration": 0.49999950000000126
        },
        {
          "name": "B4",
          "midi": 71,
          "time": 291.99970800000045,
          "velocity": 1,
          "duration": 0.49999950000000126
        },
        {
          "name": "D#5",
          "midi": 75,
          "time": 292.49970750000045,
          "velocity": 1,
          "duration": 0.16666650000001937
        },
        {
          "name": "F#5",
          "midi": 78,
          "time": 292.49970750000045,
          "velocity": 1,
          "duration": 0.16666650000001937
        },
        {
          "name": "G5",
          "midi": 79,
          "time": 292.6663740000005,
          "velocity": 1,
          "duration": 0.3333329999999819
        },
        {
          "name": "E5",
          "midi": 76,
          "time": 292.6663740000005,
          "velocity": 1,
          "duration": 0.3333329999999819
        },
        {
          "name": "F#5",
          "midi": 78,
          "time": 292.99970700000046,
          "velocity": 1,
          "duration": 0.3333329999999819
        },
        {
          "name": "B4",
          "midi": 71,
          "time": 292.99970700000046,
          "velocity": 1,
          "duration": 0.3333329999999819
        },
        {
          "name": "B5",
          "midi": 83,
          "time": 293.33304000000044,
          "velocity": 1,
          "duration": 0.3333329999999819
        },
        {
          "name": "F#5",
          "midi": 78,
          "time": 293.33304000000044,
          "velocity": 1,
          "duration": 0.3333329999999819
        },
        {
          "name": "A#5",
          "midi": 82,
          "time": 293.6663730000004,
          "velocity": 1,
          "duration": 0.3333329999999819
        },
        {
          "name": "E5",
          "midi": 76,
          "time": 293.6663730000004,
          "velocity": 1,
          "duration": 0.3333329999999819
        },
        {
          "name": "B5",
          "midi": 83,
          "time": 293.9997060000004,
          "velocity": 1,
          "duration": 0.6666660000000206
        },
        {
          "name": "D5",
          "midi": 74,
          "time": 293.9997060000004,
          "velocity": 1,
          "duration": 0.49999950000000126
        },
        {
          "name": "F5",
          "midi": 77,
          "time": 294.4997055000004,
          "velocity": 1,
          "duration": 0.16666650000001937
        },
        {
          "name": "G#5",
          "midi": 80,
          "time": 294.6663720000004,
          "velocity": 1,
          "duration": 0.33333300000003874
        },
        {
          "name": "E5",
          "midi": 76,
          "time": 294.6663720000004,
          "velocity": 1,
          "duration": 0.16666650000001937
        },
        {
          "name": "D5",
          "midi": 74,
          "time": 294.83303850000044,
          "velocity": 1,
          "duration": 0.16666650000001937
        },
        {
          "name": "A5",
          "midi": 81,
          "time": 294.99970500000046,
          "velocity": 1,
          "duration": 0.3333329999999819
        },
        {
          "name": "C5",
          "midi": 72,
          "time": 294.99970500000046,
          "velocity": 1,
          "duration": 0.3333329999999819
        },
        {
          "name": "C5",
          "midi": 72,
          "time": 302.9996970000004,
          "velocity": 1,
          "duration": 0.6666660000000206
        },
        {
          "name": "E5",
          "midi": 76,
          "time": 303.66636300000044,
          "velocity": 1,
          "duration": 0.3333329999999819
        },
        {
          "name": "C5",
          "midi": 72,
          "time": 303.9996960000004,
          "velocity": 1,
          "duration": 0.6666660000000206
        },
        {
          "name": "G4",
          "midi": 67,
          "time": 304.66636200000045,
          "velocity": 1,
          "duration": 0.3333329999999819
        },
        {
          "name": "C5",
          "midi": 72,
          "time": 304.99969500000043,
          "velocity": 1,
          "duration": 0.3333329999999819
        },
        {
          "name": "E5",
          "midi": 76,
          "time": 305.3330280000004,
          "velocity": 1,
          "duration": 0.3333329999999819
        },
        {
          "name": "G5",
          "midi": 79,
          "time": 305.6663610000004,
          "velocity": 1,
          "duration": 0.3333329999999819
        },
        {
          "name": "C5",
          "midi": 72,
          "time": 305.9996940000004,
          "velocity": 1,
          "duration": 0.6666660000000206
        },
        {
          "name": "G4",
          "midi": 67,
          "time": 306.6663600000004,
          "velocity": 1,
          "duration": 0.3333329999999819
        },
        {
          "name": "C5",
          "midi": 72,
          "time": 306.9996930000004,
          "velocity": 1,
          "duration": 0.3333329999999819
        },
        {
          "name": "E5",
          "midi": 76,
          "time": 307.33302600000036,
          "velocity": 1,
          "duration": 0.3333329999999819
        },
        {
          "name": "G5",
          "midi": 79,
          "time": 307.66635900000034,
          "velocity": 1,
          "duration": 0.3333329999999819
        },
        {
          "name": "C5",
          "midi": 72,
          "time": 307.9996920000003,
          "velocity": 1,
          "duration": 0.3333329999999819
        },
        {
          "name": "E5",
          "midi": 76,
          "time": 308.3330250000003,
          "velocity": 1,
          "duration": 0.3333329999999819
        },
        {
          "name": "G5",
          "midi": 79,
          "time": 308.6663580000003,
          "velocity": 1,
          "duration": 0.49999950000000126
        },
        {
          "name": "F5",
          "midi": 77,
          "time": 309.1663575000003,
          "velocity": 1,
          "duration": 0.16666650000001937
        },
        {
          "name": "D5",
          "midi": 74,
          "time": 309.3330240000003,
          "velocity": 1,
          "duration": 0.16666650000001937
        },
        {
          "name": "B4",
          "midi": 71,
          "time": 309.4996905000003,
          "velocity": 1,
          "duration": 0.16666650000001937
        },
        {
          "name": "G5",
          "midi": 79,
          "time": 309.66635700000035,
          "velocity": 1,
          "duration": 0.16666650000001937
        },
        {
          "name": "F5",
          "midi": 77,
          "time": 309.83302350000037,
          "velocity": 1,
          "duration": 0.16666650000001937
        },
        {
          "name": "D5",
          "midi": 74,
          "time": 309.9996900000004,
          "velocity": 1,
          "duration": 0.16666650000001937
        },
        {
          "name": "F5",
          "midi": 77,
          "time": 310.1663565000004,
          "velocity": 1,
          "duration": 0.16666650000001937
        },
        {
          "name": "D5",
          "midi": 74,
          "time": 310.3330230000004,
          "velocity": 1,
          "duration": 0.16666650000001937
        },
        {
          "name": "B4",
          "midi": 71,
          "time": 310.49968950000044,
          "velocity": 1,
          "duration": 0.16666650000001937
        },
        {
          "name": "G4",
          "midi": 67,
          "time": 310.66635600000046,
          "velocity": 1,
          "duration": 0.16666650000001937
        },
        {
          "name": "B4",
          "midi": 71,
          "time": 310.8330225000005,
          "velocity": 1,
          "duration": 0.16666650000001937
        },
        {
          "name": "C5",
          "midi": 72,
          "time": 310.9996890000005,
          "velocity": 1,
          "duration": 0.3333329999999819
        },
        {
          "name": "C5",
          "midi": 72,
          "time": 311.9996880000005,
          "velocity": 1,
          "duration": 0.3333329999999819
        },
        {
          "name": "D#5",
          "midi": 75,
          "time": 312.3330210000005,
          "velocity": 1,
          "duration": 0.3333329999999819
        },
        {
          "name": "G5",
          "midi": 79,
          "time": 312.66635400000047,
          "velocity": 1,
          "duration": 0.49999950000000126
        },
        {
          "name": "F5",
          "midi": 77,
          "time": 313.16635350000047,
          "velocity": 1,
          "duration": 0.16666650000001937
        },
        {
          "name": "D5",
          "midi": 74,
          "time": 313.3330200000005,
          "velocity": 1,
          "duration": 0.16666650000001937
        },
        {
          "name": "B4",
          "midi": 71,
          "time": 313.4996865000005,
          "velocity": 1,
          "duration": 0.16666650000001937
        },
        {
          "name": "G5",
          "midi": 79,
          "time": 313.6663530000005,
          "velocity": 1,
          "duration": 0.16666650000001937
        },
        {
          "name": "F5",
          "midi": 77,
          "time": 313.83301950000055,
          "velocity": 1,
          "duration": 0.16666650000001937
        },
        {
          "name": "D5",
          "midi": 74,
          "time": 313.99968600000057,
          "velocity": 1,
          "duration": 0.16666650000001937
        },
        {
          "name": "F5",
          "midi": 77,
          "time": 314.1663525000006,
          "velocity": 1,
          "duration": 0.16666650000001937
        },
        {
          "name": "D5",
          "midi": 74,
          "time": 314.3330190000006,
          "velocity": 1,
          "duration": 0.16666650000001937
        },
        {
          "name": "B4",
          "midi": 71,
          "time": 314.4996855000006,
          "velocity": 1,
          "duration": 0.16666650000001937
        },
        {
          "name": "G4",
          "midi": 67,
          "time": 314.66635200000064,
          "velocity": 1,
          "duration": 0.16666650000001937
        },
        {
          "name": "B4",
          "midi": 71,
          "time": 314.83301850000066,
          "velocity": 1,
          "duration": 0.16666650000001937
        },
        {
          "name": "C5",
          "midi": 72,
          "time": 314.9996850000007,
          "velocity": 1,
          "duration": 0.3333329999999819
        },
        {
          "name": "D#5",
          "midi": 75,
          "time": 315.33301800000066,
          "velocity": 1,
          "duration": 0.3333329999999819
        },
        {
          "name": "G5",
          "midi": 79,
          "time": 315.66635100000065,
          "velocity": 1,
          "duration": 0.3333329999999819
        },
        {
          "name": "G#5",
          "midi": 80,
          "time": 315.9996840000006,
          "velocity": 1,
          "duration": 0.6666660000000206
        },
        {
          "name": "C5",
          "midi": 72,
          "time": 316.66635000000065,
          "velocity": 1,
          "duration": 0.3333329999999819
        },
        {
          "name": "C#5",
          "midi": 73,
          "time": 316.99968300000063,
          "velocity": 1,
          "duration": 0.3333329999999819
        },
        {
          "name": "F5",
          "midi": 77,
          "time": 317.3330160000006,
          "velocity": 1,
          "duration": 0.3333329999999819
        },
        {
          "name": "A5",
          "midi": 81,
          "time": 317.6663490000006,
          "velocity": 1,
          "duration": 0.3333329999999819
        },
        {
          "name": "A#5",
          "midi": 82,
          "time": 317.9996820000006,
          "velocity": 1,
          "duration": 0.6666660000000206
        },
        {
          "name": "D5",
          "midi": 74,
          "time": 318.6663480000006,
          "velocity": 1,
          "duration": 0.3333329999999819
        },
        {
          "name": "D#5",
          "midi": 75,
          "time": 318.9996810000006,
          "velocity": 1,
          "duration": 0.3333329999999819
        },
        {
          "name": "A#4",
          "midi": 70,
          "time": 319.33301400000056,
          "velocity": 1,
          "duration": 0.3333329999999819
        },
        {
          "name": "A#5",
          "midi": 82,
          "time": 319.33301400000056,
          "velocity": 1,
          "duration": 0.3333329999999819
        },
        {
          "name": "A#5",
          "midi": 82,
          "time": 319.66634700000054,
          "velocity": 1,
          "duration": 0.3333329999999819
        },
        {
          "name": "A#4",
          "midi": 70,
          "time": 319.66634700000054,
          "velocity": 1,
          "duration": 0.3333329999999819
        },
        {
          "name": "A#5",
          "midi": 82,
          "time": 319.9996800000005,
          "velocity": 1,
          "duration": 0.3333329999999819
        },
        {
          "name": "A#4",
          "midi": 70,
          "time": 319.9996800000005,
          "velocity": 1,
          "duration": 0.3333329999999819
        },
        {
          "name": "A#5",
          "midi": 82,
          "time": 320.3330130000005,
          "velocity": 1,
          "duration": 0.3333329999999819
        },
        {
          "name": "A#4",
          "midi": 70,
          "time": 320.3330130000005,
          "velocity": 1,
          "duration": 0.3333329999999819
        },
        {
          "name": "A#5",
          "midi": 82,
          "time": 320.6663460000005,
          "velocity": 1,
          "duration": 2.6666640000000257
        },
        {
          "name": "A#4",
          "midi": 70,
          "time": 320.6663460000005,
          "velocity": 1,
          "duration": 2.6666640000000257
        },
        {
          "name": "A#5",
          "midi": 82,
          "time": 323.3330100000005,
          "velocity": 1,
          "duration": 0.3333329999999819
        },
        {
          "name": "A#4",
          "midi": 70,
          "time": 323.3330100000005,
          "velocity": 1,
          "duration": 0.3333329999999819
        },
        {
          "name": "A#5",
          "midi": 82,
          "time": 323.6663430000005,
          "velocity": 1,
          "duration": 0.3333329999999819
        },
        {
          "name": "A#4",
          "midi": 70,
          "time": 323.6663430000005,
          "velocity": 1,
          "duration": 0.3333329999999819
        },
        {
          "name": "A#5",
          "midi": 82,
          "time": 323.9996760000005,
          "velocity": 1,
          "duration": 0.3333329999999819
        },
        {
          "name": "A#4",
          "midi": 70,
          "time": 323.9996760000005,
          "velocity": 1,
          "duration": 0.3333329999999819
        },
        {
          "name": "D#5",
          "midi": 75,
          "time": 324.33300900000046,
          "velocity": 1,
          "duration": 0.3333329999999819
        },
        {
          "name": "D#5",
          "midi": 75,
          "time": 324.66634200000044,
          "velocity": 1,
          "duration": 0.3333329999999819
        },
        {
          "name": "D#5",
          "midi": 75,
          "time": 324.9996750000004,
          "velocity": 1,
          "duration": 0.3333329999999819
        },
        {
          "name": "F5",
          "midi": 77,
          "time": 342.9996570000004,
          "velocity": 1,
          "duration": 0.6666660000000206
        },
        {
          "name": "A#5",
          "midi": 82,
          "time": 343.66632300000043,
          "velocity": 1,
          "duration": 0.3333329999999819
        },
        {
          "name": "F5",
          "midi": 77,
          "time": 343.66632300000043,
          "velocity": 1,
          "duration": 0.3333329999999819
        },
        {
          "name": "F5",
          "midi": 77,
          "time": 343.9996560000004,
          "velocity": 1,
          "duration": 0.6666660000000206
        },
        {
          "name": "D5",
          "midi": 74,
          "time": 344.66632200000043,
          "velocity": 1,
          "duration": 0.3333329999999819
        },
        {
          "name": "D#5",
          "midi": 75,
          "time": 344.9996550000004,
          "velocity": 1,
          "duration": 0.3333329999999819
        },
        {
          "name": "F#5",
          "midi": 78,
          "time": 345.3329880000004,
          "velocity": 1,
          "duration": 0.3333329999999819
        },
        {
          "name": "C#5",
          "midi": 73,
          "time": 345.3329880000004,
          "velocity": 1,
          "duration": 0.3333329999999819
        },
        {
          "name": "A#5",
          "midi": 82,
          "time": 345.6663210000004,
          "velocity": 1,
          "duration": 0.3333329999999819
        },
        {
          "name": "F#5",
          "midi": 78,
          "time": 345.6663210000004,
          "velocity": 1,
          "duration": 0.3333329999999819
        },
        {
          "name": "F#5",
          "midi": 78,
          "time": 345.99965400000036,
          "velocity": 1,
          "duration": 0.3333329999999819
        },
        {
          "name": "A#5",
          "midi": 82,
          "time": 345.99965400000036,
          "velocity": 1,
          "duration": 0.3333329999999819
        },
        {
          "name": "F#5",
          "midi": 78,
          "time": 346.99965300000036,
          "velocity": 1,
          "duration": 0.6666660000000206
        },
        {
          "name": "A#5",
          "midi": 82,
          "time": 347.6663190000004,
          "velocity": 1,
          "duration": 0.3333329999999819
        },
        {
          "name": "F#5",
          "midi": 78,
          "time": 347.99965200000037,
          "velocity": 1,
          "duration": 0.6666660000000206
        },
        {
          "name": "D#5",
          "midi": 75,
          "time": 348.6663180000004,
          "velocity": 1,
          "duration": 0.3333329999999819
        },
        {
          "name": "D#5",
          "midi": 75,
          "time": 348.99965100000037,
          "velocity": 1,
          "duration": 0.3333329999999819
        },
        {
          "name": "F#5",
          "midi": 78,
          "time": 349.33298400000035,
          "velocity": 1,
          "duration": 0.3333329999999819
        },
        {
          "name": "D#5",
          "midi": 75,
          "time": 349.33298400000035,
          "velocity": 1,
          "duration": 0.3333329999999819
        },
        {
          "name": "G#5",
          "midi": 80,
          "time": 349.66631700000033,
          "velocity": 1,
          "duration": 0.3333329999999819
        },
        {
          "name": "F#5",
          "midi": 78,
          "time": 349.66631700000033,
          "velocity": 1,
          "duration": 0.3333329999999819
        },
        {
          "name": "G#5",
          "midi": 80,
          "time": 349.9996500000003,
          "velocity": 1,
          "duration": 0.3333329999999819
        },
        {
          "name": "F#5",
          "midi": 78,
          "time": 349.9996500000003,
          "velocity": 1,
          "duration": 0.3333329999999819
        },
        {
          "name": "F#5",
          "midi": 78,
          "time": 350.9996490000003,
          "velocity": 1,
          "duration": 0.6666660000000206
        },
        {
          "name": "G#5",
          "midi": 80,
          "time": 351.66631500000034,
          "velocity": 1,
          "duration": 0.3333329999999819
        },
        {
          "name": "F#5",
          "midi": 78,
          "time": 351.9996480000003,
          "velocity": 1,
          "duration": 0.6666660000000206
        },
        {
          "name": "D#5",
          "midi": 75,
          "time": 352.66631400000034,
          "velocity": 1,
          "duration": 0.3333329999999819
        },
        {
          "name": "F5",
          "midi": 77,
          "time": 352.9996470000003,
          "velocity": 1,
          "duration": 0.3333329999999819
        },
        {
          "name": "G#5",
          "midi": 80,
          "time": 353.3329800000003,
          "velocity": 1,
          "duration": 0.3333329999999819
        },
        {
          "name": "C#5",
          "midi": 73,
          "time": 353.3329800000003,
          "velocity": 1,
          "duration": 0.3333329999999819
        },
        {
          "name": "G#5",
          "midi": 80,
          "time": 353.6663130000003,
          "velocity": 1,
          "duration": 0.3333329999999819
        },
        {
          "name": "F5",
          "midi": 77,
          "time": 353.6663130000003,
          "velocity": 1,
          "duration": 0.3333329999999819
        },
        {
          "name": "G#5",
          "midi": 80,
          "time": 353.99964600000027,
          "velocity": 1,
          "duration": 0.3333329999999819
        },
        {
          "name": "F5",
          "midi": 77,
          "time": 353.99964600000027,
          "velocity": 1,
          "duration": 0.3333329999999819
        },
        {
          "name": "F5",
          "midi": 77,
          "time": 354.99964500000027,
          "velocity": 1,
          "duration": 0.6666660000000206
        },
        {
          "name": "F5",
          "midi": 77,
          "time": 355.6663110000003,
          "velocity": 1,
          "duration": 0.3333329999999819
        },
        {
          "name": "G#5",
          "midi": 80,
          "time": 355.6663110000003,
          "velocity": 1,
          "duration": 0.3333329999999819
        },
        {
          "name": "G#5",
          "midi": 80,
          "time": 355.9996440000003,
          "velocity": 1,
          "duration": 0.6666660000000206
        },
        {
          "name": "F5",
          "midi": 77,
          "time": 355.9996440000003,
          "velocity": 1,
          "duration": 0.6666660000000206
        },
        {
          "name": "F5",
          "midi": 77,
          "time": 356.6663100000003,
          "velocity": 1,
          "duration": 0.3333329999999819
        },
        {
          "name": "C#5",
          "midi": 73,
          "time": 356.6663100000003,
          "velocity": 1,
          "duration": 0.3333329999999819
        },
        {
          "name": "F5",
          "midi": 77,
          "time": 356.9996430000003,
          "velocity": 1,
          "duration": 0.3333329999999819
        },
        {
          "name": "A#4",
          "midi": 70,
          "time": 356.9996430000003,
          "velocity": 1,
          "duration": 0.3333329999999819
        },
        {
          "name": "G#5",
          "midi": 80,
          "time": 357.33297600000026,
          "velocity": 1,
          "duration": 0.3333329999999819
        },
        {
          "name": "A#4",
          "midi": 70,
          "time": 357.33297600000026,
          "velocity": 1,
          "duration": 0.3333329999999819
        },
        {
          "name": "A#5",
          "midi": 82,
          "time": 357.66630900000024,
          "velocity": 1,
          "duration": 0.3333329999999819
        },
        {
          "name": "G#5",
          "midi": 80,
          "time": 357.66630900000024,
          "velocity": 1,
          "duration": 0.3333329999999819
        },
        {
          "name": "A#5",
          "midi": 82,
          "time": 357.9996420000002,
          "velocity": 1,
          "duration": 0.3333329999999819
        },
        {
          "name": "G#5",
          "midi": 80,
          "time": 357.9996420000002,
          "velocity": 1,
          "duration": 0.3333329999999819
        },
        {
          "name": "F5",
          "midi": 77,
          "time": 358.9996410000002,
          "velocity": 1,
          "duration": 0.6666660000000206
        },
        {
          "name": "G#5",
          "midi": 80,
          "time": 359.66630700000024,
          "velocity": 1,
          "duration": 0.3333329999999819
        },
        {
          "name": "F5",
          "midi": 77,
          "time": 359.9996400000002,
          "velocity": 1,
          "duration": 0.6666660000000206
        },
        {
          "name": "A#4",
          "midi": 70,
          "time": 360.66630600000025,
          "velocity": 1,
          "duration": 0.3333329999999819
        },
        {
          "name": "D#5",
          "midi": 75,
          "time": 360.99963900000023,
          "velocity": 1,
          "duration": 0.6666660000000206
        },
        {
          "name": "F#5",
          "midi": 78,
          "time": 361.66630500000025,
          "velocity": 1,
          "duration": 0.3333329999999819
        },
        {
          "name": "D#5",
          "midi": 75,
          "time": 362.99963700000023,
          "velocity": 1,
          "duration": 0.6666660000000206
        },
        {
          "name": "F#5",
          "midi": 78,
          "time": 363.66630300000025,
          "velocity": 1,
          "duration": 0.3333329999999819
        },
        {
          "name": "F#5",
          "midi": 78,
          "time": 364.99963500000024,
          "velocity": 1,
          "duration": 2.333330999999987
        },
        {
          "name": "D#5",
          "midi": 75,
          "time": 364.99963500000024,
          "velocity": 1,
          "duration": 2.333330999999987
        },
        {
          "name": "D#5",
          "midi": 75,
          "time": 367.3329660000002,
          "velocity": 1,
          "duration": 0.3333329999999819
        },
        {
          "name": "F#5",
          "midi": 78,
          "time": 367.3329660000002,
          "velocity": 1,
          "duration": 0.3333329999999819
        },
        {
          "name": "F#5",
          "midi": 78,
          "time": 367.6662990000002,
          "velocity": 1,
          "duration": 0.3333329999999819
        },
        {
          "name": "D#5",
          "midi": 75,
          "time": 367.6662990000002,
          "velocity": 1,
          "duration": 0.3333329999999819
        },
        {
          "name": "F#5",
          "midi": 78,
          "time": 367.9996320000002,
          "velocity": 1,
          "duration": 0.3333329999999819
        },
        {
          "name": "D#5",
          "midi": 75,
          "time": 367.9996320000002,
          "velocity": 1,
          "duration": 0.3333329999999819
        },
        {
          "name": "F#5",
          "midi": 78,
          "time": 368.3329650000002,
          "velocity": 1,
          "duration": 0.3333329999999819
        },
        {
          "name": "D#5",
          "midi": 75,
          "time": 368.3329650000002,
          "velocity": 1,
          "duration": 0.3333329999999819
        },
        {
          "name": "F#5",
          "midi": 78,
          "time": 368.66629800000015,
          "velocity": 1,
          "duration": 0.3333329999999819
        },
        {
          "name": "D#5",
          "midi": 75,
          "time": 368.66629800000015,
          "velocity": 1,
          "duration": 0.3333329999999819
        },
        {
          "name": "F#5",
          "midi": 78,
          "time": 368.99963100000014,
          "velocity": 1,
          "duration": 0.9999990000000025
        },
        {
          "name": "D#5",
          "midi": 75,
          "time": 368.99963100000014,
          "velocity": 1,
          "duration": 0.9999990000000025
        },
        {
          "name": "F#5",
          "midi": 78,
          "time": 369.99963000000014,
          "velocity": 1,
          "duration": 0.9999990000000025
        },
        {
          "name": "D#5",
          "midi": 75,
          "time": 369.99963000000014,
          "velocity": 1,
          "duration": 0.9999990000000025
        },
        {
          "name": "D#5",
          "midi": 75,
          "time": 370.99962900000014,
          "velocity": 1,
          "duration": 0.9999990000000025
        },
        {
          "name": "F#5",
          "midi": 78,
          "time": 370.99962900000014,
          "velocity": 1,
          "duration": 0.9999990000000025
        },
        {
          "name": "F#5",
          "midi": 78,
          "time": 371.99962800000014,
          "velocity": 1,
          "duration": 0.9999990000000025
        },
        {
          "name": "D#5",
          "midi": 75,
          "time": 371.99962800000014,
          "velocity": 1,
          "duration": 0.9999990000000025
        },
        {
          "name": "F#5",
          "midi": 78,
          "time": 372.99962700000015,
          "velocity": 1,
          "duration": 0.9999990000000025
        },
        {
          "name": "F#5",
          "midi": 78,
          "time": 373.99962600000015,
          "velocity": 1,
          "duration": 0.9999990000000025
        },
        {
          "name": "F#5",
          "midi": 78,
          "time": 374.99962500000015,
          "velocity": 1,
          "duration": 0.9999990000000025
        },
        {
          "name": "F#5",
          "midi": 78,
          "time": 375.99962400000015,
          "velocity": 1,
          "duration": 0.9999990000000025
        },
        {
          "name": "F#5",
          "midi": 78,
          "time": 376.99962300000016,
          "velocity": 1,
          "duration": 0.9999990000000025
        },
        {
          "name": "F5",
          "midi": 77,
          "time": 377.99962200000016,
          "velocity": 1,
          "duration": 0.9999990000000025
        },
        {
          "name": "F5",
          "midi": 77,
          "time": 378.99962100000016,
          "velocity": 1,
          "duration": 0.9999990000000025
        },
        {
          "name": "D#5",
          "midi": 75,
          "time": 379.99962000000016,
          "velocity": 1,
          "duration": 0.9999990000000025
        },
        {
          "name": "D#5",
          "midi": 75,
          "time": 380.99961900000017,
          "velocity": 1,
          "duration": 0.9999990000000025
        },
        {
          "name": "D#5",
          "midi": 75,
          "time": 381.99961800000017,
          "velocity": 1,
          "duration": 0.9999990000000025
        },
        {
          "name": "D5",
          "midi": 74,
          "time": 382.99961700000017,
          "velocity": 1,
          "duration": 0.9999990000000025
        },
        {
          "name": "D5",
          "midi": 74,
          "time": 383.9996160000002,
          "velocity": 1,
          "duration": 0.9999990000000025
        },
        {
          "name": "D5",
          "midi": 74,
          "time": 386.9996130000002,
          "velocity": 1,
          "duration": 0.9999990000000025
        },
        {
          "name": "D5",
          "midi": 74,
          "time": 387.9996120000002,
          "velocity": 1,
          "duration": 0.9999990000000025
        },
        {
          "name": "D5",
          "midi": 74,
          "time": 390.9996090000002,
          "velocity": 1,
          "duration": 0.9999990000000025
        },
        {
          "name": "D5",
          "midi": 74,
          "time": 391.9996080000002,
          "velocity": 1,
          "duration": 0.9999990000000025
        },
        {
          "name": "D5",
          "midi": 74,
          "time": 398.9996010000002,
          "velocity": 1,
          "duration": 0.9999990000000025
        },
        {
          "name": "G#4",
          "midi": 68,
          "time": 398.9996010000002,
          "velocity": 1,
          "duration": 0.9999990000000025
        },
        {
          "name": "G#5",
          "midi": 80,
          "time": 399.9996000000002,
          "velocity": 1,
          "duration": 0.9999990000000025
        },
        {
          "name": "D5",
          "midi": 74,
          "time": 399.9996000000002,
          "velocity": 1,
          "duration": 0.9999990000000025
        },
        {
          "name": "G5",
          "midi": 79,
          "time": 400.9995990000002,
          "velocity": 1,
          "duration": 0.3333329999999819
        },
        {
          "name": "D#5",
          "midi": 75,
          "time": 400.9995990000002,
          "velocity": 1,
          "duration": 0.3333329999999819
        },
        {
          "name": "F5",
          "midi": 77,
          "time": 424.9995750000002,
          "velocity": 1,
          "duration": 0.9999990000000025
        },
        {
          "name": "D#5",
          "midi": 75,
          "time": 425.9995740000002,
          "velocity": 1,
          "duration": 0.9999990000000025
        },
        {
          "name": "D5",
          "midi": 74,
          "time": 426.9995730000002,
          "velocity": 1,
          "duration": 0.3333329999999819
        },
        {
          "name": "A#4",
          "midi": 70,
          "time": 431.6662350000002,
          "velocity": 1,
          "duration": 0.16666650000001937
        },
        {
          "name": "C5",
          "midi": 72,
          "time": 431.8329015000002,
          "velocity": 1,
          "duration": 0.16666650000001937
        },
        {
          "name": "D5",
          "midi": 74,
          "time": 431.99956800000024,
          "velocity": 1,
          "duration": 0.16666650000001937
        },
        {
          "name": "D#5",
          "midi": 75,
          "time": 432.16623450000026,
          "velocity": 1,
          "duration": 0.16666650000001937
        },
        {
          "name": "F5",
          "midi": 77,
          "time": 432.3329010000003,
          "velocity": 1,
          "duration": 0.16666650000001937
        },
        {
          "name": "G5",
          "midi": 79,
          "time": 432.4995675000003,
          "velocity": 1,
          "duration": 0.16666650000001937
        },
        {
          "name": "G#5",
          "midi": 80,
          "time": 432.6662340000003,
          "velocity": 1,
          "duration": 0.16666650000001937
        },
        {
          "name": "D5",
          "midi": 74,
          "time": 432.83290050000033,
          "velocity": 1,
          "duration": 0.16666650000001937
        },
        {
          "name": "D#5",
          "midi": 75,
          "time": 432.99956700000035,
          "velocity": 1,
          "duration": 0.6666660000000206
        },
        {
          "name": "G5",
          "midi": 79,
          "time": 433.6662330000004,
          "velocity": 1,
          "duration": 0.3333329999999819
        },
        {
          "name": "D#5",
          "midi": 75,
          "time": 433.99956600000036,
          "velocity": 1,
          "duration": 0.6666660000000206
        },
        {
          "name": "A#4",
          "midi": 70,
          "time": 434.6662320000004,
          "velocity": 1,
          "duration": 0.3333329999999819
        },
        {
          "name": "D#5",
          "midi": 75,
          "time": 434.99956500000036,
          "velocity": 1,
          "duration": 0.3333329999999819
        },
        {
          "name": "D#5",
          "midi": 75,
          "time": 435.33289800000034,
          "velocity": 1,
          "duration": 0.3333329999999819
        },
        {
          "name": "D#5",
          "midi": 75,
          "time": 435.6662310000003,
          "velocity": 1,
          "duration": 0.3333329999999819
        },
        {
          "name": "D#5",
          "midi": 75,
          "time": 435.9995640000003,
          "velocity": 1,
          "duration": 0.6666660000000206
        },
        {
          "name": "E5",
          "midi": 76,
          "time": 436.6662300000003,
          "velocity": 1,
          "duration": 0.3333329999999819
        },
        {
          "name": "C#5",
          "midi": 73,
          "time": 436.6662300000003,
          "velocity": 1,
          "duration": 0.3333329999999819
        },
        {
          "name": "F5",
          "midi": 77,
          "time": 436.9995630000003,
          "velocity": 1,
          "duration": 0.3333329999999819
        },
        {
          "name": "C5",
          "midi": 72,
          "time": 436.9995630000003,
          "velocity": 1,
          "duration": 0.3333329999999819
        },
        {
          "name": "F5",
          "midi": 77,
          "time": 437.3328960000003,
          "velocity": 1,
          "duration": 0.3333329999999819
        },
        {
          "name": "C5",
          "midi": 72,
          "time": 437.3328960000003,
          "velocity": 1,
          "duration": 0.3333329999999819
        },
        {
          "name": "F5",
          "midi": 77,
          "time": 437.66622900000027,
          "velocity": 1,
          "duration": 0.3333329999999819
        },
        {
          "name": "C5",
          "midi": 72,
          "time": 437.66622900000027,
          "velocity": 1,
          "duration": 0.3333329999999819
        },
        {
          "name": "F5",
          "midi": 77,
          "time": 437.99956200000025,
          "velocity": 1,
          "duration": 0.6666660000000206
        },
        {
          "name": "C5",
          "midi": 72,
          "time": 437.99956200000025,
          "velocity": 1,
          "duration": 0.6666660000000206
        },
        {
          "name": "C5",
          "midi": 72,
          "time": 438.6662280000003,
          "velocity": 1,
          "duration": 0.3333329999999819
        },
        {
          "name": "F#5",
          "midi": 78,
          "time": 438.6662280000003,
          "velocity": 1,
          "duration": 0.3333329999999819
        },
        {
          "name": "G5",
          "midi": 79,
          "time": 438.99956100000026,
          "velocity": 1,
          "duration": 0.9999990000000025
        },
        {
          "name": "A#4",
          "midi": 70,
          "time": 438.99956100000026,
          "velocity": 1,
          "duration": 0.9999990000000025
        },
        {
          "name": "G#5",
          "midi": 80,
          "time": 439.99956000000026,
          "velocity": 1,
          "duration": 0.9999990000000025
        },
        {
          "name": "C5",
          "midi": 72,
          "time": 439.99956000000026,
          "velocity": 1,
          "duration": 0.9999990000000025
        },
        {
          "name": "G#5",
          "midi": 80,
          "time": 440.99955900000026,
          "velocity": 1,
          "duration": 1.3333319999999844
        },
        {
          "name": "B4",
          "midi": 71,
          "time": 440.99955900000026,
          "velocity": 1,
          "duration": 1.3333319999999844
        },
        {
          "name": "G#5",
          "midi": 80,
          "time": 442.33289100000025,
          "velocity": 1,
          "duration": 0.3333329999999819
        },
        {
          "name": "A#4",
          "midi": 70,
          "time": 442.33289100000025,
          "velocity": 1,
          "duration": 0.3333329999999819
        },
        {
          "name": "G#5",
          "midi": 80,
          "time": 442.6662240000002,
          "velocity": 1,
          "duration": 0.3333329999999819
        },
        {
          "name": "A#4",
          "midi": 70,
          "time": 442.6662240000002,
          "velocity": 1,
          "duration": 0.3333329999999819
        },
        {
          "name": "A#4",
          "midi": 70,
          "time": 442.9995570000002,
          "velocity": 1,
          "duration": 0.6666660000000206
        },
        {
          "name": "G5",
          "midi": 79,
          "time": 442.9995570000002,
          "velocity": 1,
          "duration": 0.6666660000000206
        },
        {
          "name": "A#5",
          "midi": 82,
          "time": 443.66622300000023,
          "velocity": 1,
          "duration": 0.3333329999999819
        },
        {
          "name": "G5",
          "midi": 79,
          "time": 443.66622300000023,
          "velocity": 1,
          "duration": 0.3333329999999819
        },
        {
          "name": "A#5",
          "midi": 82,
          "time": 443.9995560000002,
          "velocity": 1,
          "duration": 0.6666660000000206
        },
        {
          "name": "G5",
          "midi": 79,
          "time": 443.9995560000002,
          "velocity": 1,
          "duration": 0.6666660000000206
        },
        {
          "name": "A#5",
          "midi": 82,
          "time": 444.66622200000023,
          "velocity": 1,
          "duration": 0.6666660000000206
        },
        {
          "name": "G5",
          "midi": 79,
          "time": 444.66622200000023,
          "velocity": 1,
          "duration": 0.6666660000000206
        },
        {
          "name": "A#5",
          "midi": 82,
          "time": 445.33288800000025,
          "velocity": 1,
          "duration": 0.3333329999999819
        },
        {
          "name": "G5",
          "midi": 79,
          "time": 445.33288800000025,
          "velocity": 1,
          "duration": 0.3333329999999819
        },
        {
          "name": "A#5",
          "midi": 82,
          "time": 445.66622100000023,
          "velocity": 1,
          "duration": 0.3333329999999819
        },
        {
          "name": "G5",
          "midi": 79,
          "time": 445.66622100000023,
          "velocity": 1,
          "duration": 0.3333329999999819
        },
        {
          "name": "G5",
          "midi": 79,
          "time": 445.9995540000002,
          "velocity": 1,
          "duration": 0.6666660000000206
        },
        {
          "name": "A#5",
          "midi": 82,
          "time": 445.9995540000002,
          "velocity": 1,
          "duration": 0.6666660000000206
        },
        {
          "name": "B5",
          "midi": 83,
          "time": 446.66622000000024,
          "velocity": 1,
          "duration": 0.3333329999999819
        },
        {
          "name": "G5",
          "midi": 79,
          "time": 446.66622000000024,
          "velocity": 1,
          "duration": 0.6666659999999638
        },
        {
          "name": "C6",
          "midi": 84,
          "time": 446.9995530000002,
          "velocity": 1,
          "duration": 0.3333329999999819
        },
        {
          "name": "C6",
          "midi": 84,
          "time": 447.3328860000002,
          "velocity": 1,
          "duration": 0.3333329999999819
        },
        {
          "name": "G5",
          "midi": 79,
          "time": 447.3328860000002,
          "velocity": 1,
          "duration": 0.3333329999999819
        },
        {
          "name": "C6",
          "midi": 84,
          "time": 447.6662190000002,
          "velocity": 1,
          "duration": 0.3333329999999819
        },
        {
          "name": "G5",
          "midi": 79,
          "time": 447.6662190000002,
          "velocity": 1,
          "duration": 0.3333329999999819
        },
        {
          "name": "C6",
          "midi": 84,
          "time": 447.99955200000016,
          "velocity": 1,
          "duration": 0.6666660000000206
        },
        {
          "name": "G5",
          "midi": 79,
          "time": 447.99955200000016,
          "velocity": 1,
          "duration": 0.6666660000000206
        },
        {
          "name": "C6",
          "midi": 84,
          "time": 448.6662180000002,
          "velocity": 1,
          "duration": 0.3333329999999819
        },
        {
          "name": "G5",
          "midi": 79,
          "time": 448.6662180000002,
          "velocity": 1,
          "duration": 0.3333329999999819
        },
        {
          "name": "F5",
          "midi": 77,
          "time": 448.99955100000017,
          "velocity": 1,
          "duration": 0.9999990000000025
        },
        {
          "name": "C6",
          "midi": 84,
          "time": 448.99955100000017,
          "velocity": 1,
          "duration": 0.9999990000000025
        },
        {
          "name": "C6",
          "midi": 84,
          "time": 449.99955000000017,
          "velocity": 1,
          "duration": 0.9999990000000025
        },
        {
          "name": "D#5",
          "midi": 75,
          "time": 449.99955000000017,
          "velocity": 1,
          "duration": 0.9999990000000025
        },
        {
          "name": "A#5",
          "midi": 82,
          "time": 450.9995490000002,
          "velocity": 1,
          "duration": 0.3333329999999819
        },
        {
          "name": "D5",
          "midi": 74,
          "time": 450.9995490000002,
          "velocity": 1,
          "duration": 0.3333329999999819
        },
        {
          "name": "A#5",
          "midi": 82,
          "time": 452.33288100000016,
          "velocity": 1,
          "duration": 0.49999950000000126
        },
        {
          "name": "G#5",
          "midi": 80,
          "time": 452.83288050000016,
          "velocity": 1,
          "duration": 0.16666650000001937
        },
        {
          "name": "F5",
          "midi": 77,
          "time": 452.9995470000002,
          "velocity": 1,
          "duration": 0.3333329999999819
        },
        {
          "name": "A#5",
          "midi": 82,
          "time": 456.33287700000017,
          "velocity": 1,
          "duration": 0.49999950000000126
        },
        {
          "name": "G5",
          "midi": 79,
          "time": 456.83287650000017,
          "velocity": 1,
          "duration": 0.16666650000001937
        },
        {
          "name": "D#5",
          "midi": 75,
          "time": 456.9995430000002,
          "velocity": 1,
          "duration": 0.3333329999999819
        },
        {
          "name": "C6",
          "midi": 84,
          "time": 461.3328720000002,
          "velocity": 1,
          "duration": 0.49999950000000126
        },
        {
          "name": "C5",
          "midi": 72,
          "time": 461.3328720000002,
          "velocity": 1,
          "duration": 0.49999950000000126
        },
        {
          "name": "A#4",
          "midi": 70,
          "time": 461.8328715000002,
          "velocity": 1,
          "duration": 0.16666650000001937
        },
        {
          "name": "A#5",
          "midi": 82,
          "time": 461.8328715000002,
          "velocity": 1,
          "duration": 0.16666650000001937
        },
        {
          "name": "G#5",
          "midi": 80,
          "time": 461.9995380000002,
          "velocity": 1,
          "duration": 0.3333329999999819
        },
        {
          "name": "G#4",
          "midi": 68,
          "time": 461.9995380000002,
          "velocity": 1,
          "duration": 0.3333329999999819
        },
        {
          "name": "G5",
          "midi": 79,
          "time": 462.3328710000002,
          "velocity": 1,
          "duration": 0.3333329999999819
        },
        {
          "name": "G4",
          "midi": 67,
          "time": 462.3328710000002,
          "velocity": 1,
          "duration": 0.3333329999999819
        },
        {
          "name": "F5",
          "midi": 77,
          "time": 462.66620400000016,
          "velocity": 1,
          "duration": 0.3333329999999819
        },
        {
          "name": "F4",
          "midi": 65,
          "time": 462.66620400000016,
          "velocity": 1,
          "duration": 0.3333329999999819
        },
        {
          "name": "D#5",
          "midi": 75,
          "time": 462.99953700000015,
          "velocity": 1,
          "duration": 2.6666640000000257
        },
        {
          "name": "A#4",
          "midi": 70,
          "time": 464.99953500000015,
          "velocity": 1,
          "duration": 0.6666660000000206
        },
        {
          "name": "F5",
          "midi": 77,
          "time": 465.66620100000017,
          "velocity": 1,
          "duration": 0.16666650000001937
        },
        {
          "name": "D5",
          "midi": 74,
          "time": 465.66620100000017,
          "velocity": 1,
          "duration": 0.16666650000001937
        },
        {
          "name": "D#5",
          "midi": 75,
          "time": 465.8328675000002,
          "velocity": 1,
          "duration": 0.16666650000001937
        },
        {
          "name": "G5",
          "midi": 79,
          "time": 465.8328675000002,
          "velocity": 1,
          "duration": 0.16666650000001937
        },
        {
          "name": "G#5",
          "midi": 80,
          "time": 465.9995340000002,
          "velocity": 1,
          "duration": 0.3333329999999819
        },
        {
          "name": "F5",
          "midi": 77,
          "time": 465.9995340000002,
          "velocity": 1,
          "duration": 0.3333329999999819
        },
        {
          "name": "G#5",
          "midi": 80,
          "time": 466.3328670000002,
          "velocity": 1,
          "duration": 0.3333329999999819
        },
        {
          "name": "F5",
          "midi": 77,
          "time": 466.3328670000002,
          "velocity": 1,
          "duration": 0.3333329999999819
        },
        {
          "name": "G#5",
          "midi": 80,
          "time": 466.6662000000002,
          "velocity": 1,
          "duration": 0.3333329999999819
        },
        {
          "name": "F5",
          "midi": 77,
          "time": 466.6662000000002,
          "velocity": 1,
          "duration": 0.3333329999999819
        },
        {
          "name": "G5",
          "midi": 79,
          "time": 466.99953300000016,
          "velocity": 1,
          "duration": 0.3333329999999819
        },
        {
          "name": "D#5",
          "midi": 75,
          "time": 466.99953300000016,
          "velocity": 1,
          "duration": 0.3333329999999819
        },
        {
          "name": "G#5",
          "midi": 80,
          "time": 470.99952900000017,
          "velocity": 1,
          "duration": 0.3333329999999819
        },
        {
          "name": "D5",
          "midi": 74,
          "time": 470.99952900000017,
          "velocity": 1,
          "duration": 0.3333329999999819
        },
        {
          "name": "G#5",
          "midi": 80,
          "time": 471.33286200000015,
          "velocity": 1,
          "duration": 0.3333329999999819
        },
        {
          "name": "F5",
          "midi": 77,
          "time": 471.33286200000015,
          "velocity": 1,
          "duration": 0.3333329999999819
        },
        {
          "name": "F5",
          "midi": 77,
          "time": 472.83286050000015,
          "velocity": 1,
          "duration": 0.16666650000001937
        },
        {
          "name": "G#5",
          "midi": 80,
          "time": 472.83286050000015,
          "velocity": 1,
          "duration": 0.16666650000001937
        },
        {
          "name": "G5",
          "midi": 79,
          "time": 472.99952700000017,
          "velocity": 1,
          "duration": 0.3333329999999819
        },
        {
          "name": "D#5",
          "midi": 75,
          "time": 472.99952700000017,
          "velocity": 1,
          "duration": 0.3333329999999819
        },
        {
          "name": "G5",
          "midi": 79,
          "time": 473.33286000000015,
          "velocity": 1,
          "duration": 0.3333329999999819
        },
        {
          "name": "D#5",
          "midi": 75,
          "time": 473.33286000000015,
          "velocity": 1,
          "duration": 0.3333329999999819
        },
        {
          "name": "D#5",
          "midi": 75,
          "time": 474.83285850000016,
          "velocity": 1,
          "duration": 0.16666650000001937
        },
        {
          "name": "C5",
          "midi": 72,
          "time": 474.83285850000016,
          "velocity": 1,
          "duration": 0.16666650000001937
        },
        {
          "name": "E5",
          "midi": 76,
          "time": 474.9995250000002,
          "velocity": 1,
          "duration": 0.3333329999999819
        },
        {
          "name": "C#5",
          "midi": 73,
          "time": 474.9995250000002,
          "velocity": 1,
          "duration": 0.3333329999999819
        },
        {
          "name": "E5",
          "midi": 76,
          "time": 475.33285800000016,
          "velocity": 1,
          "duration": 0.3333329999999819
        },
        {
          "name": "C#5",
          "midi": 73,
          "time": 475.33285800000016,
          "velocity": 1,
          "duration": 0.3333329999999819
        },
        {
          "name": "G5",
          "midi": 79,
          "time": 476.83285650000016,
          "velocity": 1,
          "duration": 0.16666650000001937
        },
        {
          "name": "C#5",
          "midi": 73,
          "time": 476.83285650000016,
          "velocity": 1,
          "duration": 0.16666650000001937
        },
        {
          "name": "C5",
          "midi": 72,
          "time": 476.9995230000002,
          "velocity": 1,
          "duration": 0.16666650000001937
        },
        {
          "name": "G#5",
          "midi": 80,
          "time": 476.9995230000002,
          "velocity": 1,
          "duration": 0.16666650000001937
        },
        {
          "name": "C5",
          "midi": 72,
          "time": 477.1661895000002,
          "velocity": 1,
          "duration": 0.3333329999999819
        },
        {
          "name": "D#5",
          "midi": 75,
          "time": 477.4995225000002,
          "velocity": 1,
          "duration": 0.16666650000001937
        },
        {
          "name": "C5",
          "midi": 72,
          "time": 477.4995225000002,
          "velocity": 1,
          "duration": 0.16666650000001937
        },
        {
          "name": "D5",
          "midi": 74,
          "time": 477.6661890000002,
          "velocity": 1,
          "duration": 0.16666650000001937
        },
        {
          "name": "D5",
          "midi": 74,
          "time": 477.8328555000002,
          "velocity": 1,
          "duration": 0.16666650000001937
        },
        {
          "name": "G4",
          "midi": 67,
          "time": 477.8328555000002,
          "velocity": 1,
          "duration": 0.16666650000001937
        },
        {
          "name": "D#5",
          "midi": 75,
          "time": 477.99952200000024,
          "velocity": 1,
          "duration": 0.16666650000001937
        },
        {
          "name": "G4",
          "midi": 67,
          "time": 477.99952200000024,
          "velocity": 1,
          "duration": 0.16666650000001937
        },
        {
          "name": "D#5",
          "midi": 75,
          "time": 478.16618850000026,
          "velocity": 1,
          "duration": 0.3333329999999819
        },
        {
          "name": "D#5",
          "midi": 75,
          "time": 478.49952150000024,
          "velocity": 1,
          "duration": 0.16666650000001937
        },
        {
          "name": "F5",
          "midi": 77,
          "time": 478.66618800000026,
          "velocity": 1,
          "duration": 0.16666650000001937
        },
        {
          "name": "A#4",
          "midi": 70,
          "time": 478.66618800000026,
          "velocity": 1,
          "duration": 0.16666650000001937
        },
        {
          "name": "F5",
          "midi": 77,
          "time": 478.8328545000003,
          "velocity": 1,
          "duration": 0.16666650000001937
        },
        {
          "name": "A#4",
          "midi": 70,
          "time": 478.8328545000003,
          "velocity": 1,
          "duration": 0.16666650000001937
        },
        {
          "name": "G5",
          "midi": 79,
          "time": 478.9995210000003,
          "velocity": 1,
          "duration": 0.3333329999999819
        },
        {
          "name": "A#4",
          "midi": 70,
          "time": 478.9995210000003,
          "velocity": 1,
          "duration": 0.3333329999999819
        },
        {
          "name": "D#5",
          "midi": 75,
          "time": 479.3328540000003,
          "velocity": 1,
          "duration": 0.3333329999999819
        },
        {
          "name": "G4",
          "midi": 67,
          "time": 479.3328540000003,
          "velocity": 1,
          "duration": 0.3333329999999819
        },
        {
          "name": "D#5",
          "midi": 75,
          "time": 479.66618700000026,
          "velocity": 1,
          "duration": 0.3333329999999819
        },
        {
          "name": "G#4",
          "midi": 68,
          "time": 479.66618700000026,
          "velocity": 1,
          "duration": 0.3333329999999819
        },
        {
          "name": "D#5",
          "midi": 75,
          "time": 479.99952000000025,
          "velocity": 1,
          "duration": 0.3333329999999819
        },
        {
          "name": "A4",
          "midi": 69,
          "time": 479.99952000000025,
          "velocity": 1,
          "duration": 0.3333329999999819
        },
        {
          "name": "A#4",
          "midi": 70,
          "time": 480.3328530000002,
          "velocity": 1,
          "duration": 0.3333329999999819
        },
        {
          "name": "D#5",
          "midi": 75,
          "time": 480.3328530000002,
          "velocity": 1,
          "duration": 0.3333329999999819
        },
        {
          "name": "D#5",
          "midi": 75,
          "time": 480.6661860000002,
          "velocity": 1,
          "duration": 0.3333329999999819
        },
        {
          "name": "B4",
          "midi": 71,
          "time": 480.6661860000002,
          "velocity": 1,
          "duration": 0.3333329999999819
        },
        {
          "name": "D#5",
          "midi": 75,
          "time": 480.9995190000002,
          "velocity": 1,
          "duration": 0.6666660000000206
        },
        {
          "name": "C5",
          "midi": 72,
          "time": 480.9995190000002,
          "velocity": 1,
          "duration": 1.4999985000000606
        },
        {
          "name": "E5",
          "midi": 76,
          "time": 481.6661850000002,
          "velocity": 1,
          "duration": 0.3333329999999819
        },
        {
          "name": "F5",
          "midi": 77,
          "time": 481.9995180000002,
          "velocity": 1,
          "duration": 0.16666650000001937
        },
        {
          "name": "G5",
          "midi": 79,
          "time": 482.1661845000002,
          "velocity": 1,
          "duration": 0.16666650000001937
        },
        {
          "name": "A#5",
          "midi": 82,
          "time": 482.33285100000023,
          "velocity": 1,
          "duration": 0.16666650000001937
        },
        {
          "name": "G#5",
          "midi": 80,
          "time": 482.49951750000025,
          "velocity": 1,
          "duration": 0.16666650000001937
        },
        {
          "name": "C5",
          "midi": 72,
          "time": 482.49951750000025,
          "velocity": 1,
          "duration": 0.16666650000001937
        },
        {
          "name": "G5",
          "midi": 79,
          "time": 482.66618400000027,
          "velocity": 1,
          "duration": 0.16666650000001937
        },
        {
          "name": "A#4",
          "midi": 70,
          "time": 482.66618400000027,
          "velocity": 1,
          "duration": 0.16666650000001937
        },
        {
          "name": "G#4",
          "midi": 68,
          "time": 482.8328505000003,
          "velocity": 1,
          "duration": 0.16666650000001937
        },
        {
          "name": "F5",
          "midi": 77,
          "time": 482.8328505000003,
          "velocity": 1,
          "duration": 0.16666650000001937
        },
        {
          "name": "D#5",
          "midi": 75,
          "time": 482.9995170000003,
          "velocity": 1,
          "duration": 0.3333329999999819
        },
        {
          "name": "G4",
          "midi": 67,
          "time": 482.9995170000003,
          "velocity": 1,
          "duration": 0.3333329999999819
        },
        {
          "name": "A#5",
          "midi": 82,
          "time": 484.9995150000003,
          "velocity": 1,
          "duration": 2.1666645000000244
        },
        {
          "name": "A#4",
          "midi": 70,
          "time": 484.9995150000003,
          "velocity": 1,
          "duration": 2.1666645000000244
        },
        {
          "name": "A5",
          "midi": 81,
          "time": 487.16617950000034,
          "velocity": 1,
          "duration": 0.16666650000001937
        },
        {
          "name": "G#5",
          "midi": 80,
          "time": 487.33284600000036,
          "velocity": 1,
          "duration": 0.16666650000001937
        },
        {
          "name": "G5",
          "midi": 79,
          "time": 487.4995125000004,
          "velocity": 1,
          "duration": 0.16666650000001937
        },
        {
          "name": "F5",
          "midi": 77,
          "time": 487.6661790000004,
          "velocity": 1,
          "duration": 0.16666650000001937
        },
        {
          "name": "D#5",
          "midi": 75,
          "time": 487.8328455000004,
          "velocity": 1,
          "duration": 0.16666650000001937
        },
        {
          "name": "D5",
          "midi": 74,
          "time": 487.99951200000044,
          "velocity": 1,
          "duration": 0.16666650000001937
        },
        {
          "name": "C5",
          "midi": 72,
          "time": 488.16617850000046,
          "velocity": 1,
          "duration": 0.16666650000001937
        },
        {
          "name": "A#4",
          "midi": 70,
          "time": 488.3328450000005,
          "velocity": 1,
          "duration": 0.16666650000001937
        },
        {
          "name": "G#5",
          "midi": 80,
          "time": 488.4995115000005,
          "velocity": 1,
          "duration": 0.16666650000001937
        },
        {
          "name": "G#4",
          "midi": 68,
          "time": 488.4995115000005,
          "velocity": 1,
          "duration": 0.16666650000001937
        },
        {
          "name": "G4",
          "midi": 67,
          "time": 488.6661780000005,
          "velocity": 1,
          "duration": 0.16666650000001937
        },
        {
          "name": "G5",
          "midi": 79,
          "time": 488.6661780000005,
          "velocity": 1,
          "duration": 0.16666650000001937
        },
        {
          "name": "F5",
          "midi": 77,
          "time": 488.83284450000053,
          "velocity": 1,
          "duration": 0.16666650000001937
        },
        {
          "name": "F4",
          "midi": 65,
          "time": 488.83284450000053,
          "velocity": 1,
          "duration": 0.16666650000001937
        },
        {
          "name": "D#5",
          "midi": 75,
          "time": 488.99951100000055,
          "velocity": 1,
          "duration": 0.3333329999999819
        },
        {
          "name": "D#4",
          "midi": 63,
          "time": 488.99951100000055,
          "velocity": 1,
          "duration": 0.3333329999999819
        },
        {
          "name": "A#5",
          "midi": 82,
          "time": 491.33284200000054,
          "velocity": 1,
          "duration": 0.3333329999999819
        },
        {
          "name": "B5",
          "midi": 83,
          "time": 491.6661750000005,
          "velocity": 1,
          "duration": 0.3333329999999819
        },
        {
          "name": "C6",
          "midi": 84,
          "time": 491.9995080000005,
          "velocity": 1,
          "duration": 0.9999990000000025
        },
        {
          "name": "G#5",
          "midi": 80,
          "time": 498.3328350000005,
          "velocity": 1,
          "duration": 0.3333329999999819
        },
        {
          "name": "G#5",
          "midi": 80,
          "time": 498.6661680000005,
          "velocity": 1,
          "duration": 0.3333329999999819
        },
        {
          "name": "G#5",
          "midi": 80,
          "time": 498.99950100000046,
          "velocity": 1,
          "duration": 0.3333329999999819
        },
        {
          "name": "G#5",
          "midi": 80,
          "time": 499.33283400000045,
          "velocity": 1,
          "duration": 0.3333329999999819
        },
        {
          "name": "G#5",
          "midi": 80,
          "time": 499.6661670000004,
          "velocity": 1,
          "duration": 0.3333329999999819
        },
        {
          "name": "G#5",
          "midi": 80,
          "time": 499.9995000000004,
          "velocity": 1,
          "duration": 0.9999990000000025
        },
        {
          "name": "F#5",
          "midi": 78,
          "time": 504.3328290000004,
          "velocity": 1,
          "duration": 0.3333329999999819
        },
        {
          "name": "D#5",
          "midi": 75,
          "time": 504.3328290000004,
          "velocity": 1,
          "duration": 0.3333329999999819
        },
        {
          "name": "F#5",
          "midi": 78,
          "time": 504.6661620000004,
          "velocity": 1,
          "duration": 0.3333329999999819
        },
        {
          "name": "D#5",
          "midi": 75,
          "time": 504.6661620000004,
          "velocity": 1,
          "duration": 0.3333329999999819
        },
        {
          "name": "F5",
          "midi": 77,
          "time": 504.99949500000037,
          "velocity": 1,
          "duration": 0.3333329999999819
        },
        {
          "name": "D5",
          "midi": 74,
          "time": 504.99949500000037,
          "velocity": 1,
          "duration": 0.3333329999999819
        },
        {
          "name": "F4",
          "midi": 65,
          "time": 513.6661530000003,
          "velocity": 1,
          "duration": 0.16666650000001937
        },
        {
          "name": "G4",
          "midi": 67,
          "time": 513.8328195000004,
          "velocity": 1,
          "duration": 0.16666650000001937
        },
        {
          "name": "G#4",
          "midi": 68,
          "time": 513.9994860000004,
          "velocity": 1,
          "duration": 0.16666650000001937
        },
        {
          "name": "A#4",
          "midi": 70,
          "time": 514.1661525000004,
          "velocity": 1,
          "duration": 0.16666650000001937
        },
        {
          "name": "C5",
          "midi": 72,
          "time": 514.3328190000004,
          "velocity": 1,
          "duration": 0.16666650000001937
        },
        {
          "name": "D5",
          "midi": 74,
          "time": 514.4994855000004,
          "velocity": 1,
          "duration": 0.16666650000001937
        },
        {
          "name": "D#5",
          "midi": 75,
          "time": 514.6661520000005,
          "velocity": 1,
          "duration": 0.16666650000001937
        },
        {
          "name": "F5",
          "midi": 77,
          "time": 514.8328185000005,
          "velocity": 1,
          "duration": 0.16666650000001937
        },
        {
          "name": "G5",
          "midi": 79,
          "time": 514.9994850000005,
          "velocity": 1,
          "duration": 0.33333300000003874
        },
        {
          "name": "G5",
          "midi": 79,
          "time": 515.3328180000005,
          "velocity": 1,
          "duration": 0.6666659999999638
        },
        {
          "name": "D#5",
          "midi": 75,
          "time": 515.3328180000005,
          "velocity": 1,
          "duration": 0.6666659999999638
        },
        {
          "name": "D#5",
          "midi": 75,
          "time": 516.3328170000005,
          "velocity": 1,
          "duration": 0.6666659999999638
        },
        {
          "name": "G5",
          "midi": 79,
          "time": 516.3328170000005,
          "velocity": 1,
          "duration": 0.6666659999999638
        },
        {
          "name": "G#5",
          "midi": 80,
          "time": 517.3328160000005,
          "velocity": 1,
          "duration": 0.6666659999999638
        },
        {
          "name": "F5",
          "midi": 77,
          "time": 517.3328160000005,
          "velocity": 1,
          "duration": 0.6666659999999638
        },
        {
          "name": "F5",
          "midi": 77,
          "time": 518.3328150000006,
          "velocity": 1,
          "duration": 0.33333300000003874
        },
        {
          "name": "D5",
          "midi": 74,
          "time": 518.3328150000006,
          "velocity": 1,
          "duration": 0.33333300000003874
        },
        {
          "name": "G#5",
          "midi": 80,
          "time": 518.6661480000006,
          "velocity": 1,
          "duration": 0.33333300000003874
        },
        {
          "name": "F5",
          "midi": 77,
          "time": 518.6661480000006,
          "velocity": 1,
          "duration": 0.33333300000003874
        },
        {
          "name": "G5",
          "midi": 79,
          "time": 518.9994810000006,
          "velocity": 1,
          "duration": 0.33333300000003874
        },
        {
          "name": "D#5",
          "midi": 75,
          "time": 518.9994810000006,
          "velocity": 1,
          "duration": 0.33333300000003874
        },
        {
          "name": "A#5",
          "midi": 82,
          "time": 519.3328140000007,
          "velocity": 1,
          "duration": 0.4999994999999444
        },
        {
          "name": "G5",
          "midi": 79,
          "time": 519.8328135000006,
          "velocity": 1,
          "duration": 0.16666650000001937
        },
        {
          "name": "D#5",
          "midi": 75,
          "time": 519.9994800000006,
          "velocity": 1,
          "duration": 0.33333300000003874
        },
        {
          "name": "G5",
          "midi": 79,
          "time": 520.3328130000007,
          "velocity": 1,
          "duration": 0.4999994999999444
        },
        {
          "name": "A#4",
          "midi": 70,
          "time": 520.8328125000006,
          "velocity": 1,
          "duration": 0.16666650000001937
        },
        {
          "name": "F5",
          "midi": 77,
          "time": 520.9994790000006,
          "velocity": 1,
          "duration": 0.33333300000003874
        },
        {
          "name": "G#5",
          "midi": 80,
          "time": 521.3328120000007,
          "velocity": 1,
          "duration": 0.4999994999999444
        },
        {
          "name": "A#4",
          "midi": 70,
          "time": 521.8328115000006,
          "velocity": 1,
          "duration": 0.16666650000001937
        },
        {
          "name": "D5",
          "midi": 74,
          "time": 521.9994780000006,
          "velocity": 1,
          "duration": 0.33333300000003874
        },
        {
          "name": "F5",
          "midi": 77,
          "time": 522.3328110000007,
          "velocity": 1,
          "duration": 0.4999994999999444
        },
        {
          "name": "A#4",
          "midi": 70,
          "time": 522.8328105000006,
          "velocity": 1,
          "duration": 0.16666650000001937
        },
        {
          "name": "A#5",
          "midi": 82,
          "time": 522.9994770000006,
          "velocity": 1,
          "duration": 0.8333324999999832
        },
        {
          "name": "D#5",
          "midi": 75,
          "time": 522.9994770000006,
          "velocity": 1,
          "duration": 1.3333320000000413
        },
        {
          "name": "A5",
          "midi": 81,
          "time": 523.8328095000006,
          "velocity": 1,
          "duration": 0.16666650000001937
        },
        {
          "name": "A#5",
          "midi": 82,
          "time": 523.9994760000006,
          "velocity": 1,
          "duration": 0.33333300000003874
        },
        {
          "name": "G5",
          "midi": 79,
          "time": 527.8328055000006,
          "velocity": 1,
          "duration": 0.16666650000001937
        },
        {
          "name": "F5",
          "midi": 77,
          "time": 527.8328055000006,
          "velocity": 1,
          "duration": 0.16666650000001937
        },
        {
          "name": "G5",
          "midi": 79,
          "time": 527.9994720000007,
          "velocity": 1,
          "duration": 0.16666650000001937
        },
        {
          "name": "D#5",
          "midi": 75,
          "time": 527.9994720000007,
          "velocity": 1,
          "duration": 0.16666650000001937
        },
        {
          "name": "D5",
          "midi": 74,
          "time": 528.1661385000007,
          "velocity": 1,
          "duration": 0.16666650000001937
        },
        {
          "name": "G5",
          "midi": 79,
          "time": 528.1661385000007,
          "velocity": 1,
          "duration": 0.16666650000001937
        },
        {
          "name": "G5",
          "midi": 79,
          "time": 528.3328050000007,
          "velocity": 1,
          "duration": 0.16666650000001937
        },
        {
          "name": "D#5",
          "midi": 75,
          "time": 528.3328050000007,
          "velocity": 1,
          "duration": 0.16666650000001937
        },
        {
          "name": "G5",
          "midi": 79,
          "time": 528.4994715000007,
          "velocity": 1,
          "duration": 0.16666650000001937
        },
        {
          "name": "C5",
          "midi": 72,
          "time": 528.4994715000007,
          "velocity": 1,
          "duration": 0.16666650000001937
        },
        {
          "name": "F5",
          "midi": 77,
          "time": 528.6661380000007,
          "velocity": 1,
          "duration": 0.16666650000001937
        },
        {
          "name": "C5",
          "midi": 72,
          "time": 528.6661380000007,
          "velocity": 1,
          "duration": 0.16666650000001937
        },
        {
          "name": "F#5",
          "midi": 78,
          "time": 528.8328045000007,
          "velocity": 1,
          "duration": 0.16666650000001937
        },
        {
          "name": "C5",
          "midi": 72,
          "time": 528.8328045000007,
          "velocity": 1,
          "duration": 0.16666650000001937
        },
        {
          "name": "G5",
          "midi": 79,
          "time": 528.9994710000008,
          "velocity": 1,
          "duration": 0.33333300000003874
        },
        {
          "name": "B4",
          "midi": 71,
          "time": 528.9994710000008,
          "velocity": 1,
          "duration": 0.33333300000003874
        },
        {
          "name": "D6",
          "midi": 86,
          "time": 529.3328040000008,
          "velocity": 1,
          "duration": 0.33333300000003874
        },
        {
          "name": "G5",
          "midi": 79,
          "time": 529.3328040000008,
          "velocity": 1,
          "duration": 0.33333300000003874
        },
        {
          "name": "G5",
          "midi": 79,
          "time": 529.6661370000008,
          "velocity": 1,
          "duration": 0.33333300000003874
        },
        {
          "name": "C6",
          "midi": 84,
          "time": 529.6661370000008,
          "velocity": 1,
          "duration": 0.33333300000003874
        },
        {
          "name": "A#5",
          "midi": 82,
          "time": 530.3328030000009,
          "velocity": 1,
          "duration": 0.33333300000003874
        },
        {
          "name": "D#5",
          "midi": 75,
          "time": 530.3328030000009,
          "velocity": 1,
          "duration": 0.33333300000003874
        },
        {
          "name": "G#5",
          "midi": 80,
          "time": 530.666136000001,
          "velocity": 1,
          "duration": 0.33333300000003874
        },
        {
          "name": "D#5",
          "midi": 75,
          "time": 530.666136000001,
          "velocity": 1,
          "duration": 0.33333300000003874
        },
        {
          "name": "C6",
          "midi": 84,
          "time": 531.332802000001,
          "velocity": 1,
          "duration": 0.33333300000003874
        },
        {
          "name": "F5",
          "midi": 77,
          "time": 531.332802000001,
          "velocity": 1,
          "duration": 0.33333300000003874
        },
        {
          "name": "A#5",
          "midi": 82,
          "time": 531.6661350000011,
          "velocity": 1,
          "duration": 0.33333300000003874
        },
        {
          "name": "F5",
          "midi": 77,
          "time": 531.6661350000011,
          "velocity": 1,
          "duration": 0.33333300000003874
        },
        {
          "name": "D6",
          "midi": 86,
          "time": 532.3328010000012,
          "velocity": 1,
          "duration": 0.33333300000003874
        },
        {
          "name": "G5",
          "midi": 79,
          "time": 532.3328010000012,
          "velocity": 1,
          "duration": 0.33333300000003874
        },
        {
          "name": "C6",
          "midi": 84,
          "time": 532.6661340000012,
          "velocity": 1,
          "duration": 0.33333300000003874
        },
        {
          "name": "G5",
          "midi": 79,
          "time": 532.6661340000012,
          "velocity": 1,
          "duration": 0.33333300000003874
        },
        {
          "name": "D#5",
          "midi": 75,
          "time": 533.3328000000013,
          "velocity": 1,
          "duration": 0.33333300000003874
        },
        {
          "name": "A#5",
          "midi": 82,
          "time": 533.3328000000013,
          "velocity": 1,
          "duration": 0.33333300000003874
        },
        {
          "name": "G#5",
          "midi": 80,
          "time": 533.6661330000013,
          "velocity": 1,
          "duration": 0.33333300000003874
        },
        {
          "name": "D#5",
          "midi": 75,
          "time": 533.6661330000013,
          "velocity": 1,
          "duration": 0.33333300000003874
        },
        {
          "name": "F#5",
          "midi": 78,
          "time": 534.3327990000014,
          "velocity": 1,
          "duration": 0.33333300000003874
        },
        {
          "name": "D#5",
          "midi": 75,
          "time": 534.3327990000014,
          "velocity": 1,
          "duration": 0.33333300000003874
        },
        {
          "name": "F#5",
          "midi": 78,
          "time": 534.9994650000015,
          "velocity": 1,
          "duration": 0.33333300000003874
        },
        {
          "name": "D#5",
          "midi": 75,
          "time": 534.9994650000015,
          "velocity": 1,
          "duration": 0.33333300000003874
        },
        {
          "name": "F#5",
          "midi": 78,
          "time": 535.6661310000015,
          "velocity": 1,
          "duration": 0.33333300000003874
        },
        {
          "name": "D#5",
          "midi": 75,
          "time": 535.6661310000015,
          "velocity": 1,
          "duration": 0.33333300000003874
        },
        {
          "name": "F#5",
          "midi": 78,
          "time": 536.3327970000016,
          "velocity": 1,
          "duration": 0.33333300000003874
        },
        {
          "name": "D#5",
          "midi": 75,
          "time": 536.3327970000016,
          "velocity": 1,
          "duration": 0.33333300000003874
        },
        {
          "name": "F#5",
          "midi": 78,
          "time": 536.9994630000017,
          "velocity": 1,
          "duration": 0.33333300000003874
        },
        {
          "name": "D#5",
          "midi": 75,
          "time": 536.9994630000017,
          "velocity": 1,
          "duration": 0.33333300000003874
        },
        {
          "name": "D#5",
          "midi": 75,
          "time": 537.6661290000018,
          "velocity": 1,
          "duration": 0.33333300000003874
        },
        {
          "name": "F#5",
          "midi": 78,
          "time": 537.6661290000018,
          "velocity": 1,
          "duration": 0.33333300000003874
        },
        {
          "name": "D#5",
          "midi": 75,
          "time": 542.6661240000018,
          "velocity": 1,
          "duration": 0.33333300000003874
        },
        {
          "name": "C#5",
          "midi": 73,
          "time": 543.3327900000019,
          "velocity": 1,
          "duration": 0.33333300000003874
        },
        {
          "name": "F5",
          "midi": 77,
          "time": 543.9994560000019,
          "velocity": 1,
          "duration": 0.33333300000003874
        },
        {
          "name": "F5",
          "midi": 77,
          "time": 544.666122000002,
          "velocity": 1,
          "duration": 0.33333300000003874
        },
        {
          "name": "D#5",
          "midi": 75,
          "time": 545.3327880000021,
          "velocity": 1,
          "duration": 0.33333300000003874
        },
        {
          "name": "C5",
          "midi": 72,
          "time": 545.9994540000022,
          "velocity": 1,
          "duration": 1.499998499999947
        },
        {
          "name": "G#5",
          "midi": 80,
          "time": 547.4994525000021,
          "velocity": 1,
          "duration": 0.16666650000001937
        },
        {
          "name": "C5",
          "midi": 72,
          "time": 547.4994525000021,
          "velocity": 1,
          "duration": 0.16666650000001937
        },
        {
          "name": "A#4",
          "midi": 70,
          "time": 547.6661190000021,
          "velocity": 1,
          "duration": 0.16666650000001937
        },
        {
          "name": "G5",
          "midi": 79,
          "time": 547.6661190000021,
          "velocity": 1,
          "duration": 0.16666650000001937
        },
        {
          "name": "F5",
          "midi": 77,
          "time": 547.8327855000022,
          "velocity": 1,
          "duration": 0.16666650000001937
        },
        {
          "name": "G#4",
          "midi": 68,
          "time": 547.8327855000022,
          "velocity": 1,
          "duration": 0.16666650000001937
        },
        {
          "name": "D#5",
          "midi": 75,
          "time": 547.9994520000022,
          "velocity": 1,
          "duration": 0.33333300000003874
        },
        {
          "name": "G4",
          "midi": 67,
          "time": 547.9994520000022,
          "velocity": 1,
          "duration": 0.33333300000003874
        },
        {
          "name": "G5",
          "midi": 79,
          "time": 548.4994515000022,
          "velocity": 1,
          "duration": 0.16666650000001937
        },
        {
          "name": "D#5",
          "midi": 75,
          "time": 548.4994515000022,
          "velocity": 1,
          "duration": 0.16666650000001937
        },
        {
          "name": "G5",
          "midi": 79,
          "time": 548.6661180000023,
          "velocity": 1,
          "duration": 0.16666650000001937
        },
        {
          "name": "D#5",
          "midi": 75,
          "time": 548.6661180000023,
          "velocity": 1,
          "duration": 0.16666650000001937
        },
        {
          "name": "G5",
          "midi": 79,
          "time": 548.8327845000023,
          "velocity": 1,
          "duration": 0.16666650000001937
        },
        {
          "name": "D#5",
          "midi": 75,
          "time": 548.8327845000023,
          "velocity": 1,
          "duration": 0.16666650000001937
        },
        {
          "name": "G#5",
          "midi": 80,
          "time": 548.9994510000023,
          "velocity": 1,
          "duration": 0.9999990000000025
        },
        {
          "name": "D5",
          "midi": 74,
          "time": 548.9994510000023,
          "velocity": 1,
          "duration": 0.9999990000000025
        },
        {
          "name": "D#5",
          "midi": 75,
          "time": 549.9994500000023,
          "velocity": 1,
          "duration": 0.33333300000003874
        },
        {
          "name": "G5",
          "midi": 79,
          "time": 549.9994500000023,
          "velocity": 1,
          "duration": 0.33333300000003874
        },
        {
          "name": "D#5",
          "midi": 75,
          "time": 550.9994490000023,
          "velocity": 1,
          "duration": 0.33333300000003874
        },
        {
          "name": "D#5",
          "midi": 75,
          "time": 551.9994480000023,
          "velocity": 1,
          "duration": 0.33333300000003874
        },
        {
          "name": "G#5",
          "midi": 80,
          "time": 552.9994470000023,
          "velocity": 1,
          "duration": 0.33333300000003874
        },
        {
          "name": "B4",
          "midi": 71,
          "time": 552.9994470000023,
          "velocity": 1,
          "duration": 0.33333300000003874
        },
        {
          "name": "G#5",
          "midi": 80,
          "time": 553.3327800000023,
          "velocity": 1,
          "duration": 0.33333300000003874
        },
        {
          "name": "B4",
          "midi": 71,
          "time": 553.3327800000023,
          "velocity": 1,
          "duration": 0.33333300000003874
        },
        {
          "name": "G#5",
          "midi": 80,
          "time": 553.6661130000024,
          "velocity": 1,
          "duration": 0.33333300000003874
        },
        {
          "name": "B4",
          "midi": 71,
          "time": 553.6661130000024,
          "velocity": 1,
          "duration": 0.33333300000003874
        },
        {
          "name": "G5",
          "midi": 79,
          "time": 553.9994460000024,
          "velocity": 1,
          "duration": 0.33333300000003874
        },
        {
          "name": "A#4",
          "midi": 70,
          "time": 553.9994460000024,
          "velocity": 1,
          "duration": 0.33333300000003874
        },
        {
          "name": "F5",
          "midi": 77,
          "time": 559.9994400000024,
          "velocity": 1,
          "duration": 1.999998000000005
        },
        {
          "name": "G#5",
          "midi": 80,
          "time": 559.9994400000024,
          "velocity": 1,
          "duration": 1.999998000000005
        },
        {
          "name": "C#5",
          "midi": 73,
          "time": 561.9994380000024,
          "velocity": 1,
          "duration": 0.33333300000003874
        },
        {
          "name": "C5",
          "midi": 72,
          "time": 563.9994360000024,
          "velocity": 1,
          "duration": 0.16666650000001937
        },
        {
          "name": "C5",
          "midi": 72,
          "time": 564.1661025000025,
          "velocity": 1,
          "duration": 0.16666650000001937
        },
        {
          "name": "C5",
          "midi": 72,
          "time": 564.3327690000025,
          "velocity": 1,
          "duration": 0.16666650000001937
        },
        {
          "name": "C5",
          "midi": 72,
          "time": 564.4994355000025,
          "velocity": 1,
          "duration": 0.16666650000001937
        },
        {
          "name": "E5",
          "midi": 76,
          "time": 564.6661020000025,
          "velocity": 1,
          "duration": 0.16666650000001937
        },
        {
          "name": "E5",
          "midi": 76,
          "time": 564.8327685000025,
          "velocity": 1,
          "duration": 0.16666650000001937
        },
        {
          "name": "C5",
          "midi": 72,
          "time": 564.9994350000026,
          "velocity": 1,
          "duration": 0.16666650000001937
        },
        {
          "name": "C5",
          "midi": 72,
          "time": 565.1661015000026,
          "velocity": 1,
          "duration": 0.16666650000001937
        },
        {
          "name": "C5",
          "midi": 72,
          "time": 565.3327680000026,
          "velocity": 1,
          "duration": 0.16666650000001937
        },
        {
          "name": "C5",
          "midi": 72,
          "time": 565.4994345000026,
          "velocity": 1,
          "duration": 0.16666650000001937
        },
        {
          "name": "G4",
          "midi": 67,
          "time": 565.6661010000026,
          "velocity": 1,
          "duration": 0.16666650000001937
        },
        {
          "name": "G4",
          "midi": 67,
          "time": 565.8327675000027,
          "velocity": 1,
          "duration": 0.16666650000001937
        },
        {
          "name": "C5",
          "midi": 72,
          "time": 565.9994340000027,
          "velocity": 1,
          "duration": 0.33333300000003874
        },
        {
          "name": "G4",
          "midi": 67,
          "time": 572.6660940000028,
          "velocity": 1,
          "duration": 0.33333300000003874
        },
        {
          "name": "D5",
          "midi": 74,
          "time": 572.9994270000028,
          "velocity": 1,
          "duration": 0.6666659999999638
        },
        {
          "name": "F5",
          "midi": 77,
          "time": 573.6660930000028,
          "velocity": 1,
          "duration": 0.33333300000003874
        },
        {
          "name": "G4",
          "midi": 67,
          "time": 574.6660920000028,
          "velocity": 1,
          "duration": 0.33333300000003874
        },
        {
          "name": "D5",
          "midi": 74,
          "time": 574.9994250000028,
          "velocity": 1,
          "duration": 0.6666659999999638
        },
        {
          "name": "F5",
          "midi": 77,
          "time": 575.6660910000028,
          "velocity": 1,
          "duration": 0.33333300000003874
        },
        {
          "name": "G5",
          "midi": 79,
          "time": 576.6660900000028,
          "velocity": 1,
          "duration": 0.33333300000003874
        },
        {
          "name": "E5",
          "midi": 76,
          "time": 576.9994230000028,
          "velocity": 1,
          "duration": 0.6666659999999638
        },
        {
          "name": "C5",
          "midi": 72,
          "time": 577.6660890000028,
          "velocity": 1,
          "duration": 0.33333300000003874
        },
        {
          "name": "G#5",
          "midi": 80,
          "time": 578.6660880000028,
          "velocity": 1,
          "duration": 0.33333300000003874
        },
        {
          "name": "F5",
          "midi": 77,
          "time": 578.9994210000028,
          "velocity": 1,
          "duration": 0.6666659999999638
        },
        {
          "name": "C5",
          "midi": 72,
          "time": 579.6660870000028,
          "velocity": 1,
          "duration": 0.33333300000003874
        },
        {
          "name": "A#5",
          "midi": 82,
          "time": 579.9994200000028,
          "velocity": 1,
          "duration": 0.33333300000003874
        },
        {
          "name": "F5",
          "midi": 77,
          "time": 584.3327490000029,
          "velocity": 1,
          "duration": 0.33333300000003874
        },
        {
          "name": "C5",
          "midi": 72,
          "time": 584.3327490000029,
          "velocity": 1,
          "duration": 0.33333300000003874
        },
        {
          "name": "E5",
          "midi": 76,
          "time": 584.6660820000029,
          "velocity": 1,
          "duration": 0.33333300000003874
        },
        {
          "name": "C5",
          "midi": 72,
          "time": 584.6660820000029,
          "velocity": 1,
          "duration": 0.33333300000003874
        },
        {
          "name": "F5",
          "midi": 77,
          "time": 584.999415000003,
          "velocity": 1,
          "duration": 0.4999994999999444
        },
        {
          "name": "C5",
          "midi": 72,
          "time": 584.999415000003,
          "velocity": 1,
          "duration": 0.4999994999999444
        },
        {
          "name": "G5",
          "midi": 79,
          "time": 585.4994145000029,
          "velocity": 1,
          "duration": 0.16666650000001937
        },
        {
          "name": "E5",
          "midi": 76,
          "time": 585.4994145000029,
          "velocity": 1,
          "duration": 0.16666650000001937
        },
        {
          "name": "G#5",
          "midi": 80,
          "time": 585.6660810000029,
          "velocity": 1,
          "duration": 0.33333300000003874
        },
        {
          "name": "F5",
          "midi": 77,
          "time": 585.6660810000029,
          "velocity": 1,
          "duration": 0.33333300000003874
        },
        {
          "name": "G5",
          "midi": 79,
          "time": 585.999414000003,
          "velocity": 1,
          "duration": 0.33333300000003874
        },
        {
          "name": "C5",
          "midi": 72,
          "time": 585.999414000003,
          "velocity": 1,
          "duration": 0.33333300000003874
        },
        {
          "name": "G5",
          "midi": 79,
          "time": 586.332747000003,
          "velocity": 1,
          "duration": 0.33333300000003874
        },
        {
          "name": "C6",
          "midi": 84,
          "time": 586.332747000003,
          "velocity": 1,
          "duration": 0.33333300000003874
        },
        {
          "name": "B5",
          "midi": 83,
          "time": 586.666080000003,
          "velocity": 1,
          "duration": 0.33333300000003874
        },
        {
          "name": "F5",
          "midi": 77,
          "time": 586.666080000003,
          "velocity": 1,
          "duration": 0.33333300000003874
        },
        {
          "name": "C6",
          "midi": 84,
          "time": 586.9994130000031,
          "velocity": 1,
          "duration": 0.4999994999999444
        },
        {
          "name": "E5",
          "midi": 76,
          "time": 586.9994130000031,
          "velocity": 1,
          "duration": 0.6666659999999638
        },
        {
          "name": "A#5",
          "midi": 82,
          "time": 587.499412500003,
          "velocity": 1,
          "duration": 0.16666650000001937
        },
        {
          "name": "G#5",
          "midi": 80,
          "time": 587.666079000003,
          "velocity": 1,
          "duration": 0.16666650000001937
        },
        {
          "name": "F5",
          "midi": 77,
          "time": 587.666079000003,
          "velocity": 1,
          "duration": 0.16666650000001937
        },
        {
          "name": "G5",
          "midi": 79,
          "time": 587.832745500003,
          "velocity": 1,
          "duration": 0.16666650000001937
        },
        {
          "name": "C5",
          "midi": 72,
          "time": 587.832745500003,
          "velocity": 1,
          "duration": 0.16666650000001937
        },
        {
          "name": "F5",
          "midi": 77,
          "time": 587.9994120000031,
          "velocity": 1,
          "duration": 0.33333300000003874
        },
        {
          "name": "C5",
          "midi": 72,
          "time": 587.9994120000031,
          "velocity": 1,
          "duration": 0.33333300000003874
        },
        {
          "name": "F5",
          "midi": 77,
          "time": 588.3327450000031,
          "velocity": 1,
          "duration": 0.33333300000003874
        },
        {
          "name": "C5",
          "midi": 72,
          "time": 588.3327450000031,
          "velocity": 1,
          "duration": 0.33333300000003874
        },
        {
          "name": "C5",
          "midi": 72,
          "time": 588.6660780000032,
          "velocity": 1,
          "duration": 0.33333300000003874
        },
        {
          "name": "E5",
          "midi": 76,
          "time": 588.6660780000032,
          "velocity": 1,
          "duration": 0.33333300000003874
        },
        {
          "name": "F5",
          "midi": 77,
          "time": 588.9994110000032,
          "velocity": 1,
          "duration": 0.4999994999999444
        },
        {
          "name": "C5",
          "midi": 72,
          "time": 588.9994110000032,
          "velocity": 1,
          "duration": 0.4999994999999444
        },
        {
          "name": "G5",
          "midi": 79,
          "time": 589.4994105000031,
          "velocity": 1,
          "duration": 0.16666650000001937
        },
        {
          "name": "E5",
          "midi": 76,
          "time": 589.4994105000031,
          "velocity": 1,
          "duration": 0.16666650000001937
        },
        {
          "name": "G#5",
          "midi": 80,
          "time": 589.6660770000032,
          "velocity": 1,
          "duration": 0.33333300000003874
        },
        {
          "name": "F5",
          "midi": 77,
          "time": 589.6660770000032,
          "velocity": 1,
          "duration": 0.33333300000003874
        },
        {
          "name": "G#5",
          "midi": 80,
          "time": 589.9994100000032,
          "velocity": 1,
          "duration": 1.999998000000005
        },
        {
          "name": "A#4",
          "midi": 70,
          "time": 590.9994090000032,
          "velocity": 1,
          "duration": 1.3333320000000413
        },
        {
          "name": "F#5",
          "midi": 78,
          "time": 591.9994080000032,
          "velocity": 1,
          "duration": 0.33333300000003874
        },
        {
          "name": "A#4",
          "midi": 70,
          "time": 592.3327410000032,
          "velocity": 1,
          "duration": 0.33333300000003874
        },
        {
          "name": "A#4",
          "midi": 70,
          "time": 592.6660740000033,
          "velocity": 1,
          "duration": 0.33333300000003874
        },
        {
          "name": "A#4",
          "midi": 70,
          "time": 592.9994070000033,
          "velocity": 1,
          "duration": 0.6666659999999638
        },
        {
          "name": "A#4",
          "midi": 70,
          "time": 593.6660730000033,
          "velocity": 1,
          "duration": 0.33333300000003874
        },
        {
          "name": "A#4",
          "midi": 70,
          "time": 593.9994060000033,
          "velocity": 1,
          "duration": 0.33333300000003874
        },
        {
          "name": "A#4",
          "midi": 70,
          "time": 596.3327370000034,
          "velocity": 1,
          "duration": 0.33333300000003874
        },
        {
          "name": "A#4",
          "midi": 70,
          "time": 596.6660700000034,
          "velocity": 1,
          "duration": 0.33333300000003874
        },
        {
          "name": "A#4",
          "midi": 70,
          "time": 596.9994030000034,
          "velocity": 1,
          "duration": 0.4999994999999444
        },
        {
          "name": "A#4",
          "midi": 70,
          "time": 597.4994025000034,
          "velocity": 1,
          "duration": 0.16666650000001937
        },
        {
          "name": "A#4",
          "midi": 70,
          "time": 597.6660690000034,
          "velocity": 1,
          "duration": 0.33333300000003874
        },
        {
          "name": "A#4",
          "midi": 70,
          "time": 597.9994020000034,
          "velocity": 1,
          "duration": 0.33333300000003874
        },
        {
          "name": "A#4",
          "midi": 70,
          "time": 607.9993920000035,
          "velocity": 1,
          "duration": 1.6666649999999663
        },
        {
          "name": "B4",
          "midi": 71,
          "time": 609.6660570000034,
          "velocity": 1,
          "duration": 0.33333300000003874
        },
        {
          "name": "C5",
          "midi": 72,
          "time": 609.9993900000035,
          "velocity": 1,
          "duration": 0.33333300000003874
        },
        {
          "name": "G#5",
          "midi": 80,
          "time": 622.3327110000035,
          "velocity": 1,
          "duration": 0.9999990000000025
        },
        {
          "name": "D5",
          "midi": 74,
          "time": 622.3327110000035,
          "velocity": 1,
          "duration": 0.9999990000000025
        },
        {
          "name": "G#5",
          "midi": 80,
          "time": 623.3327100000035,
          "velocity": 1,
          "duration": 0.9999990000000025
        },
        {
          "name": "D5",
          "midi": 74,
          "time": 623.3327100000035,
          "velocity": 1,
          "duration": 0.9999990000000025
        },
        {
          "name": "G#5",
          "midi": 80,
          "time": 624.3327090000035,
          "velocity": 1,
          "duration": 0.33333300000003874
        },
        {
          "name": "D5",
          "midi": 74,
          "time": 624.3327090000035,
          "velocity": 1,
          "duration": 0.33333300000003874
        },
        {
          "name": "G#5",
          "midi": 80,
          "time": 624.6660420000036,
          "velocity": 1,
          "duration": 0.33333300000003874
        },
        {
          "name": "D5",
          "midi": 74,
          "time": 624.6660420000036,
          "velocity": 1,
          "duration": 0.33333300000003874
        },
        {
          "name": "G#5",
          "midi": 80,
          "time": 624.9993750000036,
          "velocity": 1,
          "duration": 0.9999990000001162
        },
        {
          "name": "D5",
          "midi": 74,
          "time": 624.9993750000036,
          "velocity": 1,
          "duration": 0.33333300000003874
        },
        {
          "name": "D#5",
          "midi": 75,
          "time": 625.3327080000037,
          "velocity": 1,
          "duration": 0.33333300000003874
        },
        {
          "name": "F5",
          "midi": 77,
          "time": 625.6660410000037,
          "velocity": 1,
          "duration": 0.33333300000003874
        },
        {
          "name": "D#5",
          "midi": 75,
          "time": 625.9993740000037,
          "velocity": 1,
          "duration": 0.33333300000003874
        },
        {
          "name": "G5",
          "midi": 79,
          "time": 625.9993740000037,
          "velocity": 1,
          "duration": 0.33333300000003874
        },
        {
          "name": "G5",
          "midi": 79,
          "time": 626.6660400000038,
          "velocity": 1,
          "duration": 0.33333300000003874
        },
        {
          "name": "D#5",
          "midi": 75,
          "time": 626.6660400000038,
          "velocity": 1,
          "duration": 0.33333300000003874
        },
        {
          "name": "G5",
          "midi": 79,
          "time": 627.3327060000039,
          "velocity": 1,
          "duration": 0.33333300000003874
        },
        {
          "name": "D#5",
          "midi": 75,
          "time": 627.3327060000039,
          "velocity": 1,
          "duration": 0.33333300000003874
        },
        {
          "name": "F5",
          "midi": 77,
          "time": 627.999372000004,
          "velocity": 1,
          "duration": 0.33333300000003874
        },
        {
          "name": "D#5",
          "midi": 75,
          "time": 627.999372000004,
          "velocity": 1,
          "duration": 0.33333300000003874
        },
        {
          "name": "F5",
          "midi": 77,
          "time": 628.666038000004,
          "velocity": 1,
          "duration": 0.33333300000003874
        },
        {
          "name": "D#5",
          "midi": 75,
          "time": 628.666038000004,
          "velocity": 1,
          "duration": 0.33333300000003874
        },
        {
          "name": "F5",
          "midi": 77,
          "time": 629.3327040000041,
          "velocity": 1,
          "duration": 0.33333300000003874
        },
        {
          "name": "D#5",
          "midi": 75,
          "time": 629.3327040000041,
          "velocity": 1,
          "duration": 0.33333300000003874
        },
        {
          "name": "G5",
          "midi": 79,
          "time": 629.9993700000042,
          "velocity": 1,
          "duration": 1.3333320000000413
        },
        {
          "name": "D#5",
          "midi": 75,
          "time": 629.9993700000042,
          "velocity": 1,
          "duration": 1.3333320000000413
        },
        {
          "name": "D#5",
          "midi": 75,
          "time": 631.3327020000042,
          "velocity": 1,
          "duration": 0.33333300000003874
        },
        {
          "name": "A#4",
          "midi": 70,
          "time": 631.3327020000042,
          "velocity": 1,
          "duration": 0.33333300000003874
        },
        {
          "name": "D#5",
          "midi": 75,
          "time": 631.6660350000043,
          "velocity": 1,
          "duration": 0.33333300000003874
        },
        {
          "name": "A#4",
          "midi": 70,
          "time": 631.6660350000043,
          "velocity": 1,
          "duration": 0.33333300000003874
        },
        {
          "name": "D5",
          "midi": 74,
          "time": 631.9993680000043,
          "velocity": 1,
          "duration": 0.33333300000003874
        },
        {
          "name": "A#4",
          "midi": 70,
          "time": 631.9993680000043,
          "velocity": 1,
          "duration": 0.33333300000003874
        },
        {
          "name": "F5",
          "midi": 77,
          "time": 632.3327010000044,
          "velocity": 1,
          "duration": 0.33333300000003874
        },
        {
          "name": "D5",
          "midi": 74,
          "time": 632.3327010000044,
          "velocity": 1,
          "duration": 0.33333300000003874
        },
        {
          "name": "F5",
          "midi": 77,
          "time": 632.6660340000044,
          "velocity": 1,
          "duration": 0.33333300000003874
        },
        {
          "name": "D5",
          "midi": 74,
          "time": 632.6660340000044,
          "velocity": 1,
          "duration": 0.33333300000003874
        },
        {
          "name": "F5",
          "midi": 77,
          "time": 632.9993670000044,
          "velocity": 1,
          "duration": 0.33333300000003874
        },
        {
          "name": "D5",
          "midi": 74,
          "time": 632.9993670000044,
          "velocity": 1,
          "duration": 0.33333300000003874
        },
        {
          "name": "D5",
          "midi": 74,
          "time": 633.3327000000045,
          "velocity": 1,
          "duration": 0.33333300000003874
        },
        {
          "name": "F5",
          "midi": 77,
          "time": 633.3327000000045,
          "velocity": 1,
          "duration": 0.33333300000003874
        },
        {
          "name": "F5",
          "midi": 77,
          "time": 633.6660330000045,
          "velocity": 1,
          "duration": 0.33333300000003874
        },
        {
          "name": "D5",
          "midi": 74,
          "time": 633.6660330000045,
          "velocity": 1,
          "duration": 0.33333300000003874
        },
        {
          "name": "D#5",
          "midi": 75,
          "time": 633.9993660000046,
          "velocity": 1,
          "duration": 0.33333300000003874
        },
        {
          "name": "A#4",
          "midi": 70,
          "time": 633.9993660000046,
          "velocity": 1,
          "duration": 0.33333300000003874
        },
        {
          "name": "D#5",
          "midi": 75,
          "time": 636.9993630000046,
          "velocity": 1,
          "duration": 0.33333300000003874
        },
        {
          "name": "G5",
          "midi": 79,
          "time": 637.3326960000046,
          "velocity": 1,
          "duration": 0.33333300000003874
        },
        {
          "name": "A#5",
          "midi": 82,
          "time": 637.6660290000046,
          "velocity": 1,
          "duration": 0.33333300000003874
        },
        {
          "name": "A#5",
          "midi": 82,
          "time": 637.9993620000047,
          "velocity": 1,
          "duration": 0.33333300000003874
        },
        {
          "name": "F5",
          "midi": 77,
          "time": 640.9993590000047,
          "velocity": 1,
          "duration": 0.33333300000003874
        },
        {
          "name": "G#5",
          "midi": 80,
          "time": 641.3326920000047,
          "velocity": 1,
          "duration": 0.33333300000003874
        },
        {
          "name": "A#5",
          "midi": 82,
          "time": 641.6660250000048,
          "velocity": 1,
          "duration": 0.33333300000003874
        },
        {
          "name": "A#4",
          "midi": 70,
          "time": 641.9993580000048,
          "velocity": 1,
          "duration": 8.333324999999945
        },
        {
          "name": "A#5",
          "midi": 82,
          "time": 641.9993580000048,
          "velocity": 1,
          "duration": 8.333324999999945
        },
        {
          "name": "C6",
          "midi": 84,
          "time": 652.6660140000048,
          "velocity": 1,
          "duration": 0.16666650000001937
        },
        {
          "name": "C5",
          "midi": 72,
          "time": 652.6660140000048,
          "velocity": 1,
          "duration": 0.16666650000001937
        },
        {
          "name": "A#5",
          "midi": 82,
          "time": 652.8326805000048,
          "velocity": 1,
          "duration": 0.16666650000001937
        },
        {
          "name": "G#5",
          "midi": 80,
          "time": 652.9993470000048,
          "velocity": 1,
          "duration": 0.16666650000001937
        },
        {
          "name": "G5",
          "midi": 79,
          "time": 653.1660135000049,
          "velocity": 1,
          "duration": 0.16666650000001937
        },
        {
          "name": "F5",
          "midi": 77,
          "time": 653.3326800000049,
          "velocity": 1,
          "duration": 0.16666650000001937
        },
        {
          "name": "D#5",
          "midi": 75,
          "time": 653.4993465000049,
          "velocity": 1,
          "duration": 0.16666650000001937
        },
        {
          "name": "D5",
          "midi": 74,
          "time": 653.6660130000049,
          "velocity": 1,
          "duration": 0.16666650000001937
        },
        {
          "name": "C5",
          "midi": 72,
          "time": 653.8326795000049,
          "velocity": 1,
          "duration": 0.16666650000001937
        },
        {
          "name": "A#4",
          "midi": 70,
          "time": 653.999346000005,
          "velocity": 1,
          "duration": 0.33333300000003874
        },
        {
          "name": "A#4",
          "midi": 70,
          "time": 655.166011500005,
          "velocity": 1,
          "duration": 0.08333325000000968
        },
        {
          "name": "C5",
          "midi": 72,
          "time": 655.249344750005,
          "velocity": 1,
          "duration": 0.08333325000000968
        },
        {
          "name": "D5",
          "midi": 74,
          "time": 655.332678000005,
          "velocity": 1,
          "duration": 0.16666650000001937
        },
        {
          "name": "D#5",
          "midi": 75,
          "time": 655.499344500005,
          "velocity": 1,
          "duration": 0.16666650000001937
        },
        {
          "name": "F5",
          "midi": 77,
          "time": 655.666011000005,
          "velocity": 1,
          "duration": 0.16666650000001937
        },
        {
          "name": "G5",
          "midi": 79,
          "time": 655.832677500005,
          "velocity": 1,
          "duration": 0.16666650000001937
        },
        {
          "name": "G#5",
          "midi": 80,
          "time": 655.9993440000051,
          "velocity": 1,
          "duration": 0.16666650000001937
        },
        {
          "name": "G5",
          "midi": 79,
          "time": 656.1660105000051,
          "velocity": 1,
          "duration": 0.16666650000001937
        },
        {
          "name": "F5",
          "midi": 77,
          "time": 656.3326770000051,
          "velocity": 1,
          "duration": 0.16666650000001937
        },
        {
          "name": "D#5",
          "midi": 75,
          "time": 656.4993435000051,
          "velocity": 1,
          "duration": 0.16666650000001937
        },
        {
          "name": "D5",
          "midi": 74,
          "time": 656.6660100000051,
          "velocity": 1,
          "duration": 0.16666650000001937
        },
        {
          "name": "C5",
          "midi": 72,
          "time": 656.8326765000052,
          "velocity": 1,
          "duration": 0.16666650000001937
        },
        {
          "name": "A#4",
          "midi": 70,
          "time": 656.9993430000052,
          "velocity": 1,
          "duration": 0.16666650000001937
        },
        {
          "name": "C5",
          "midi": 72,
          "time": 657.1660095000052,
          "velocity": 1,
          "duration": 0.16666650000001937
        },
        {
          "name": "A#4",
          "midi": 70,
          "time": 657.3326760000052,
          "velocity": 1,
          "duration": 0.16666650000001937
        },
        {
          "name": "G#5",
          "midi": 80,
          "time": 657.4993425000052,
          "velocity": 1,
          "duration": 0.16666650000001937
        },
        {
          "name": "G#4",
          "midi": 68,
          "time": 657.4993425000052,
          "velocity": 1,
          "duration": 0.16666650000001937
        },
        {
          "name": "G5",
          "midi": 79,
          "time": 657.6660090000053,
          "velocity": 1,
          "duration": 0.16666650000001937
        },
        {
          "name": "G4",
          "midi": 67,
          "time": 657.6660090000053,
          "velocity": 1,
          "duration": 0.16666650000001937
        },
        {
          "name": "F4",
          "midi": 65,
          "time": 657.8326755000053,
          "velocity": 1,
          "duration": 0.16666650000001937
        },
        {
          "name": "F5",
          "midi": 77,
          "time": 657.8326755000053,
          "velocity": 1,
          "duration": 0.16666650000001937
        },
        {
          "name": "D#5",
          "midi": 75,
          "time": 657.9993420000053,
          "velocity": 1,
          "duration": 0.16666650000001937
        },
        {
          "name": "D#4",
          "midi": 63,
          "time": 657.9993420000053,
          "velocity": 1,
          "duration": 0.16666650000001937
        },
        {
          "name": "D#5",
          "midi": 75,
          "time": 658.1660085000053,
          "velocity": 1,
          "duration": 0.16666650000001937
        },
        {
          "name": "D#5",
          "midi": 75,
          "time": 658.3326750000053,
          "velocity": 1,
          "duration": 0.16666650000001937
        },
        {
          "name": "D#5",
          "midi": 75,
          "time": 658.4993415000054,
          "velocity": 1,
          "duration": 0.16666650000001937
        },
        {
          "name": "G5",
          "midi": 79,
          "time": 658.6660080000054,
          "velocity": 1,
          "duration": 0.16666650000001937
        },
        {
          "name": "G5",
          "midi": 79,
          "time": 658.8326745000054,
          "velocity": 1,
          "duration": 0.16666650000001937
        },
        {
          "name": "D#5",
          "midi": 75,
          "time": 658.9993410000054,
          "velocity": 1,
          "duration": 0.16666650000001937
        },
        {
          "name": "D#5",
          "midi": 75,
          "time": 659.1660075000054,
          "velocity": 1,
          "duration": 0.16666650000001937
        },
        {
          "name": "D#5",
          "midi": 75,
          "time": 659.3326740000055,
          "velocity": 1,
          "duration": 0.16666650000001937
        },
        {
          "name": "D#5",
          "midi": 75,
          "time": 659.4993405000055,
          "velocity": 1,
          "duration": 0.16666650000001937
        },
        {
          "name": "A#4",
          "midi": 70,
          "time": 659.6660070000055,
          "velocity": 1,
          "duration": 0.16666650000001937
        },
        {
          "name": "A#4",
          "midi": 70,
          "time": 659.8326735000055,
          "velocity": 1,
          "duration": 0.16666650000001937
        },
        {
          "name": "D#5",
          "midi": 75,
          "time": 659.9993400000055,
          "velocity": 1,
          "duration": 0.16666650000001937
        },
        {
          "name": "D#5",
          "midi": 75,
          "time": 660.1660065000056,
          "velocity": 1,
          "duration": 0.16666650000001937
        },
        {
          "name": "G5",
          "midi": 79,
          "time": 660.3326730000056,
          "velocity": 1,
          "duration": 0.16666650000001937
        },
        {
          "name": "G5",
          "midi": 79,
          "time": 660.4993395000056,
          "velocity": 1,
          "duration": 0.16666650000001937
        },
        {
          "name": "A#5",
          "midi": 82,
          "time": 660.6660060000056,
          "velocity": 1,
          "duration": 0.16666650000001937
        },
        {
          "name": "A#5",
          "midi": 82,
          "time": 660.8326725000056,
          "velocity": 1,
          "duration": 0.16666650000001937
        },
        {
          "name": "A#5",
          "midi": 82,
          "time": 660.9993390000056,
          "velocity": 1,
          "duration": 0.16666650000001937
        },
        {
          "name": "A#5",
          "midi": 82,
          "time": 661.1660055000057,
          "velocity": 1,
          "duration": 0.16666650000001937
        },
        {
          "name": "A#5",
          "midi": 82,
          "time": 661.3326720000057,
          "velocity": 1,
          "duration": 0.16666650000001937
        },
        {
          "name": "A#5",
          "midi": 82,
          "time": 661.4993385000057,
          "velocity": 1,
          "duration": 0.16666650000001937
        },
        {
          "name": "A#5",
          "midi": 82,
          "time": 661.6660050000057,
          "velocity": 1,
          "duration": 0.16666650000001937
        },
        {
          "name": "A#5",
          "midi": 82,
          "time": 661.8326715000057,
          "velocity": 1,
          "duration": 0.16666650000001937
        },
        {
          "name": "F5",
          "midi": 77,
          "time": 661.9993380000058,
          "velocity": 1,
          "duration": 0.16666650000001937
        },
        {
          "name": "F5",
          "midi": 77,
          "time": 662.1660045000058,
          "velocity": 1,
          "duration": 0.16666650000001937
        },
        {
          "name": "F5",
          "midi": 77,
          "time": 662.3326710000058,
          "velocity": 1,
          "duration": 0.16666650000001937
        },
        {
          "name": "F5",
          "midi": 77,
          "time": 662.4993375000058,
          "velocity": 1,
          "duration": 0.16666650000001937
        },
        {
          "name": "G#5",
          "midi": 80,
          "time": 662.6660040000058,
          "velocity": 1,
          "duration": 0.16666650000001937
        },
        {
          "name": "G#5",
          "midi": 80,
          "time": 662.8326705000059,
          "velocity": 1,
          "duration": 0.16666650000001937
        },
        {
          "name": "F5",
          "midi": 77,
          "time": 662.9993370000059,
          "velocity": 1,
          "duration": 0.16666650000001937
        },
        {
          "name": "F5",
          "midi": 77,
          "time": 663.1660035000059,
          "velocity": 1,
          "duration": 0.16666650000001937
        },
        {
          "name": "F5",
          "midi": 77,
          "time": 663.3326700000059,
          "velocity": 1,
          "duration": 0.16666650000001937
        },
        {
          "name": "F5",
          "midi": 77,
          "time": 663.4993365000059,
          "velocity": 1,
          "duration": 0.16666650000001937
        },
        {
          "name": "A#4",
          "midi": 70,
          "time": 663.666003000006,
          "velocity": 1,
          "duration": 0.16666650000001937
        },
        {
          "name": "A#4",
          "midi": 70,
          "time": 663.832669500006,
          "velocity": 1,
          "duration": 0.16666650000001937
        },
        {
          "name": "F5",
          "midi": 77,
          "time": 663.999336000006,
          "velocity": 1,
          "duration": 0.16666650000001937
        },
        {
          "name": "F5",
          "midi": 77,
          "time": 664.166002500006,
          "velocity": 1,
          "duration": 0.16666650000001937
        },
        {
          "name": "G#5",
          "midi": 80,
          "time": 664.332669000006,
          "velocity": 1,
          "duration": 0.16666650000001937
        },
        {
          "name": "G#5",
          "midi": 80,
          "time": 664.499335500006,
          "velocity": 1,
          "duration": 0.16666650000001937
        },
        {
          "name": "A#5",
          "midi": 82,
          "time": 664.6660020000061,
          "velocity": 1,
          "duration": 0.16666650000001937
        },
        {
          "name": "A#5",
          "midi": 82,
          "time": 664.8326685000061,
          "velocity": 1,
          "duration": 0.16666650000001937
        },
        {
          "name": "A#5",
          "midi": 82,
          "time": 664.9993350000061,
          "velocity": 1,
          "duration": 0.16666650000001937
        },
        {
          "name": "A#5",
          "midi": 82,
          "time": 665.1660015000061,
          "velocity": 1,
          "duration": 0.16666650000001937
        },
        {
          "name": "A#5",
          "midi": 82,
          "time": 665.3326680000062,
          "velocity": 1,
          "duration": 0.16666650000001937
        },
        {
          "name": "A#5",
          "midi": 82,
          "time": 665.4993345000062,
          "velocity": 1,
          "duration": 0.16666650000001937
        },
        {
          "name": "A#5",
          "midi": 82,
          "time": 665.6660010000062,
          "velocity": 1,
          "duration": 0.16666650000001937
        },
        {
          "name": "A#5",
          "midi": 82,
          "time": 665.8326675000062,
          "velocity": 1,
          "duration": 0.16666650000001937
        },
        {
          "name": "A#5",
          "midi": 82,
          "time": 665.9993340000062,
          "velocity": 1,
          "duration": 0.16666650000001937
        },
        {
          "name": "A#5",
          "midi": 82,
          "time": 666.1660005000062,
          "velocity": 1,
          "duration": 0.16666650000001937
        },
        {
          "name": "A#5",
          "midi": 82,
          "time": 666.3326670000063,
          "velocity": 1,
          "duration": 0.16666650000001937
        },
        {
          "name": "E5",
          "midi": 76,
          "time": 666.3326670000063,
          "velocity": 1,
          "duration": 0.16666650000001937
        },
        {
          "name": "A#5",
          "midi": 82,
          "time": 666.4993335000063,
          "velocity": 1,
          "duration": 0.16666650000001937
        },
        {
          "name": "E5",
          "midi": 76,
          "time": 666.4993335000063,
          "velocity": 1,
          "duration": 0.16666650000001937
        },
        {
          "name": "A#5",
          "midi": 82,
          "time": 666.6660000000063,
          "velocity": 1,
          "duration": 0.16666650000001937
        },
        {
          "name": "E5",
          "midi": 76,
          "time": 666.6660000000063,
          "velocity": 1,
          "duration": 0.16666650000001937
        },
        {
          "name": "A#5",
          "midi": 82,
          "time": 666.8326665000063,
          "velocity": 1,
          "duration": 0.16666650000001937
        },
        {
          "name": "E5",
          "midi": 76,
          "time": 666.8326665000063,
          "velocity": 1,
          "duration": 0.16666650000001937
        },
        {
          "name": "A#5",
          "midi": 82,
          "time": 666.9993330000063,
          "velocity": 1,
          "duration": 0.9999990000000025
        },
        {
          "name": "E5",
          "midi": 76,
          "time": 666.9993330000063,
          "velocity": 1,
          "duration": 0.9999990000000025
        },
        {
          "name": "C5",
          "midi": 72,
          "time": 667.9993320000063,
          "velocity": 1,
          "duration": 0.33333300000003874
        },
        {
          "name": "C6",
          "midi": 84,
          "time": 667.9993320000063,
          "velocity": 1,
          "duration": 0.33333300000003874
        },
        {
          "name": "C6",
          "midi": 84,
          "time": 668.3326650000064,
          "velocity": 1,
          "duration": 0.6666659999999638
        },
        {
          "name": "F5",
          "midi": 77,
          "time": 668.3326650000064,
          "velocity": 1,
          "duration": 0.6666659999999638
        },
        {
          "name": "C6",
          "midi": 84,
          "time": 669.3326640000064,
          "velocity": 1,
          "duration": 0.6666659999999638
        },
        {
          "name": "D#5",
          "midi": 75,
          "time": 669.3326640000064,
          "velocity": 1,
          "duration": 0.6666659999999638
        },
        {
          "name": "G5",
          "midi": 79,
          "time": 670.3326630000064,
          "velocity": 1,
          "duration": 0.6666659999999638
        },
        {
          "name": "D#5",
          "midi": 75,
          "time": 670.3326630000064,
          "velocity": 1,
          "duration": 0.6666659999999638
        },
        {
          "name": "G#5",
          "midi": 80,
          "time": 671.3326620000064,
          "velocity": 1,
          "duration": 0.6666659999999638
        },
        {
          "name": "D5",
          "midi": 74,
          "time": 671.3326620000064,
          "velocity": 1,
          "duration": 0.6666659999999638
        },
        {
          "name": "G5",
          "midi": 79,
          "time": 672.3326610000064,
          "velocity": 1,
          "duration": 0.6666659999999638
        },
        {
          "name": "D#5",
          "midi": 75,
          "time": 672.3326610000064,
          "velocity": 1,
          "duration": 0.6666659999999638
        },
        {
          "name": "C6",
          "midi": 84,
          "time": 673.3326600000064,
          "velocity": 1,
          "duration": 0.6666659999999638
        },
        {
          "name": "D#5",
          "midi": 75,
          "time": 673.3326600000064,
          "velocity": 1,
          "duration": 0.6666659999999638
        },
        {
          "name": "D#5",
          "midi": 75,
          "time": 673.9993260000064,
          "velocity": 1,
          "duration": 0.9999990000000025
        },
        {
          "name": "G5",
          "midi": 79,
          "time": 673.9993260000064,
          "velocity": 1,
          "duration": 0.9999990000000025
        },
        {
          "name": "G#5",
          "midi": 80,
          "time": 674.9993250000064,
          "velocity": 1,
          "duration": 0.6666659999999638
        },
        {
          "name": "D5",
          "midi": 74,
          "time": 674.9993250000064,
          "velocity": 1,
          "duration": 0.9999990000000025
        },
        {
          "name": "F5",
          "midi": 77,
          "time": 675.6659910000063,
          "velocity": 1,
          "duration": 0.33333300000003874
        },
        {
          "name": "D#5",
          "midi": 75,
          "time": 675.9993240000064,
          "velocity": 1,
          "duration": 1.999998000000005
        },
        {
          "name": "G4",
          "midi": 67,
          "time": 675.9993240000064,
          "velocity": 1,
          "duration": 0.33333300000003874
        },
        {
          "name": "D#5",
          "midi": 75,
          "time": 677.9993220000064,
          "velocity": 1,
          "duration": 0.6666659999999638
        },
        {
          "name": "A#4",
          "midi": 70,
          "time": 677.9993220000064,
          "velocity": 1,
          "duration": 0.6666659999999638
        },
        {
          "name": "F5",
          "midi": 77,
          "time": 678.6659880000063,
          "velocity": 1,
          "duration": 0.16666650000001937
        },
        {
          "name": "D5",
          "midi": 74,
          "time": 678.6659880000063,
          "velocity": 1,
          "duration": 0.16666650000001937
        },
        {
          "name": "G5",
          "midi": 79,
          "time": 678.8326545000064,
          "velocity": 1,
          "duration": 0.16666650000001937
        },
        {
          "name": "D#5",
          "midi": 75,
          "time": 678.8326545000064,
          "velocity": 1,
          "duration": 0.16666650000001937
        },
        {
          "name": "F5",
          "midi": 77,
          "time": 678.9993210000064,
          "velocity": 1,
          "duration": 0.33333300000003874
        },
        {
          "name": "G#5",
          "midi": 80,
          "time": 678.9993210000064,
          "velocity": 1,
          "duration": 0.33333300000003874
        },
        {
          "name": "G#5",
          "midi": 80,
          "time": 679.3326540000064,
          "velocity": 1,
          "duration": 0.33333300000003874
        },
        {
          "name": "F5",
          "midi": 77,
          "time": 679.3326540000064,
          "velocity": 1,
          "duration": 0.33333300000003874
        },
        {
          "name": "G#5",
          "midi": 80,
          "time": 679.6659870000065,
          "velocity": 1,
          "duration": 0.33333300000003874
        },
        {
          "name": "F5",
          "midi": 77,
          "time": 679.6659870000065,
          "velocity": 1,
          "duration": 0.33333300000003874
        },
        {
          "name": "G5",
          "midi": 79,
          "time": 679.9993200000065,
          "velocity": 1,
          "duration": 0.33333300000003874
        },
        {
          "name": "D#5",
          "midi": 75,
          "time": 679.9993200000065,
          "velocity": 1,
          "duration": 0.33333300000003874
        },
        {
          "name": "D#5",
          "midi": 75,
          "time": 682.4993175000066,
          "velocity": 1,
          "duration": 0.16666650000001937
        },
        {
          "name": "A#4",
          "midi": 70,
          "time": 682.4993175000066,
          "velocity": 1,
          "duration": 0.16666650000001937
        },
        {
          "name": "F5",
          "midi": 77,
          "time": 682.6659840000066,
          "velocity": 1,
          "duration": 0.16666650000001937
        },
        {
          "name": "D5",
          "midi": 74,
          "time": 682.6659840000066,
          "velocity": 1,
          "duration": 0.16666650000001937
        },
        {
          "name": "G5",
          "midi": 79,
          "time": 682.8326505000066,
          "velocity": 1,
          "duration": 0.16666650000001937
        },
        {
          "name": "D#5",
          "midi": 75,
          "time": 682.8326505000066,
          "velocity": 1,
          "duration": 0.16666650000001937
        },
        {
          "name": "F5",
          "midi": 77,
          "time": 682.9993170000066,
          "velocity": 1,
          "duration": 0.16666650000001937
        },
        {
          "name": "G#5",
          "midi": 80,
          "time": 682.9993170000066,
          "velocity": 1,
          "duration": 0.16666650000001937
        },
        {
          "name": "G#5",
          "midi": 80,
          "time": 683.1659835000066,
          "velocity": 1,
          "duration": 0.16666650000001937
        },
        {
          "name": "F5",
          "midi": 77,
          "time": 683.1659835000066,
          "velocity": 1,
          "duration": 0.16666650000001937
        },
        {
          "name": "G#5",
          "midi": 80,
          "time": 683.3326500000067,
          "velocity": 1,
          "duration": 0.16666650000001937
        },
        {
          "name": "F5",
          "midi": 77,
          "time": 683.3326500000067,
          "velocity": 1,
          "duration": 0.16666650000001937
        },
        {
          "name": "G#5",
          "midi": 80,
          "time": 683.4993165000067,
          "velocity": 1,
          "duration": 0.16666650000001937
        },
        {
          "name": "F5",
          "midi": 77,
          "time": 683.4993165000067,
          "velocity": 1,
          "duration": 0.16666650000001937
        },
        {
          "name": "G#5",
          "midi": 80,
          "time": 683.6659830000067,
          "velocity": 1,
          "duration": 0.16666650000001937
        },
        {
          "name": "F5",
          "midi": 77,
          "time": 683.6659830000067,
          "velocity": 1,
          "duration": 0.16666650000001937
        },
        {
          "name": "G#5",
          "midi": 80,
          "time": 683.8326495000067,
          "velocity": 1,
          "duration": 0.16666650000001937
        },
        {
          "name": "F5",
          "midi": 77,
          "time": 683.8326495000067,
          "velocity": 1,
          "duration": 0.16666650000001937
        },
        {
          "name": "G#5",
          "midi": 80,
          "time": 683.9993160000067,
          "velocity": 1,
          "duration": 0.33333300000003874
        },
        {
          "name": "F5",
          "midi": 77,
          "time": 683.9993160000067,
          "velocity": 1,
          "duration": 0.33333300000003874
        },
        {
          "name": "G#4",
          "midi": 68,
          "time": 684.3326490000068,
          "velocity": 1,
          "duration": 0.9999990000000025
        },
        {
          "name": "D5",
          "midi": 74,
          "time": 684.3326490000068,
          "velocity": 1,
          "duration": 0.9999990000000025
        },
        {
          "name": "F5",
          "midi": 77,
          "time": 685.3326480000068,
          "velocity": 1,
          "duration": 0.9999990000000025
        },
        {
          "name": "D5",
          "midi": 74,
          "time": 685.3326480000068,
          "velocity": 1,
          "duration": 0.9999990000000025
        },
        {
          "name": "G#5",
          "midi": 80,
          "time": 686.3326470000068,
          "velocity": 1,
          "duration": 0.6666659999999638
        },
        {
          "name": "F5",
          "midi": 77,
          "time": 686.3326470000068,
          "velocity": 1,
          "duration": 0.6666659999999638
        },
        {
          "name": "G#5",
          "midi": 80,
          "time": 686.9993130000067,
          "velocity": 1,
          "duration": 0.6666659999999638
        },
        {
          "name": "F5",
          "midi": 77,
          "time": 686.9993130000067,
          "velocity": 1,
          "duration": 0.6666659999999638
        },
        {
          "name": "G#5",
          "midi": 80,
          "time": 687.6659790000067,
          "velocity": 1,
          "duration": 0.33333300000003874
        },
        {
          "name": "F5",
          "midi": 77,
          "time": 687.6659790000067,
          "velocity": 1,
          "duration": 0.33333300000003874
        },
        {
          "name": "F5",
          "midi": 77,
          "time": 687.9993120000067,
          "velocity": 1,
          "duration": 0.33333300000003874
        },
        {
          "name": "G#5",
          "midi": 80,
          "time": 687.9993120000067,
          "velocity": 1,
          "duration": 0.33333300000003874
        },
        {
          "name": "G#5",
          "midi": 80,
          "time": 688.3326450000068,
          "velocity": 1,
          "duration": 0.33333300000003874
        },
        {
          "name": "D5",
          "midi": 74,
          "time": 688.3326450000068,
          "velocity": 1,
          "duration": 0.33333300000003874
        },
        {
          "name": "G#5",
          "midi": 80,
          "time": 688.6659780000068,
          "velocity": 1,
          "duration": 0.33333300000003874
        },
        {
          "name": "D5",
          "midi": 74,
          "time": 688.6659780000068,
          "velocity": 1,
          "duration": 0.33333300000003874
        },
        {
          "name": "G#5",
          "midi": 80,
          "time": 688.9993110000069,
          "velocity": 1,
          "duration": 0.33333300000003874
        },
        {
          "name": "D5",
          "midi": 74,
          "time": 688.9993110000069,
          "velocity": 1,
          "duration": 0.33333300000003874
        },
        {
          "name": "G#5",
          "midi": 80,
          "time": 689.3326440000069,
          "velocity": 1,
          "duration": 0.33333300000003874
        },
        {
          "name": "D5",
          "midi": 74,
          "time": 689.3326440000069,
          "velocity": 1,
          "duration": 0.33333300000003874
        },
        {
          "name": "G#5",
          "midi": 80,
          "time": 689.6659770000069,
          "velocity": 1,
          "duration": 0.33333300000003874
        },
        {
          "name": "D5",
          "midi": 74,
          "time": 689.6659770000069,
          "velocity": 1,
          "duration": 0.33333300000003874
        },
        {
          "name": "G#5",
          "midi": 80,
          "time": 689.999310000007,
          "velocity": 1,
          "duration": 0.33333300000003874
        },
        {
          "name": "D5",
          "midi": 74,
          "time": 689.999310000007,
          "velocity": 1,
          "duration": 0.33333300000003874
        },
        {
          "name": "D5",
          "midi": 74,
          "time": 690.332643000007,
          "velocity": 1,
          "duration": 0.33333300000003874
        },
        {
          "name": "G#5",
          "midi": 80,
          "time": 690.332643000007,
          "velocity": 1,
          "duration": 0.33333300000003874
        },
        {
          "name": "G#5",
          "midi": 80,
          "time": 690.665976000007,
          "velocity": 1,
          "duration": 0.33333300000003874
        },
        {
          "name": "D5",
          "midi": 74,
          "time": 690.665976000007,
          "velocity": 1,
          "duration": 0.33333300000003874
        },
        {
          "name": "G#5",
          "midi": 80,
          "time": 690.9993090000071,
          "velocity": 1,
          "duration": 0.33333300000003874
        },
        {
          "name": "D5",
          "midi": 74,
          "time": 690.9993090000071,
          "velocity": 1,
          "duration": 0.33333300000003874
        },
        {
          "name": "G#5",
          "midi": 80,
          "time": 691.3326420000071,
          "velocity": 1,
          "duration": 0.33333300000003874
        },
        {
          "name": "D5",
          "midi": 74,
          "time": 691.3326420000071,
          "velocity": 1,
          "duration": 0.33333300000003874
        },
        {
          "name": "G#5",
          "midi": 80,
          "time": 691.6659750000072,
          "velocity": 1,
          "duration": 0.33333300000003874
        },
        {
          "name": "D5",
          "midi": 74,
          "time": 691.6659750000072,
          "velocity": 1,
          "duration": 0.33333300000003874
        },
        {
          "name": "G5",
          "midi": 79,
          "time": 691.9993080000072,
          "velocity": 1,
          "duration": 0.33333300000003874
        },
        {
          "name": "D#5",
          "midi": 75,
          "time": 691.9993080000072,
          "velocity": 1,
          "duration": 0.33333300000003874
        },
        {
          "name": "D#5",
          "midi": 75,
          "time": 692.9993070000072,
          "velocity": 1,
          "duration": 0.33333300000003874
        },
        {
          "name": "D#5",
          "midi": 75,
          "time": 693.9993060000072,
          "velocity": 1,
          "duration": 0.33333300000003874
        }
      ],
      "controlChanges": {},
      "id": 2,
      "name": "",
      "instrumentNumber": 68,
      "instrument": "oboe",
      "instrumentFamily": "reed",
      "channelNumber": 2,
      "isPercussion": false
    },
    {
      "startTime": 0,
      "duration": 694.3326390000086,
      "length": 1480,
      "notes": [
        {
          "name": "D#5",
          "midi": 75,
          "time": 0,
          "velocity": 1,
          "duration": 0.333333
        },
        {
          "name": "G4",
          "midi": 67,
          "time": 0,
          "velocity": 1,
          "duration": 0.333333
        },
        {
          "name": "D#5",
          "midi": 75,
          "time": 0.999999,
          "velocity": 1,
          "duration": 0.333333
        },
        {
          "name": "G4",
          "midi": 67,
          "time": 0.999999,
          "velocity": 1,
          "duration": 0.333333
        },
        {
          "name": "A#4",
          "midi": 70,
          "time": 12.666654,
          "velocity": 1,
          "duration": 0.6666659999999993
        },
        {
          "name": "C5",
          "midi": 72,
          "time": 13.333319999999999,
          "velocity": 1,
          "duration": 0.33333299999999966
        },
        {
          "name": "D5",
          "midi": 74,
          "time": 13.666652999999998,
          "velocity": 1,
          "duration": 0.33333299999999966
        },
        {
          "name": "D#5",
          "midi": 75,
          "time": 13.999985999999998,
          "velocity": 1,
          "duration": 0.6666659999999993
        },
        {
          "name": "G5",
          "midi": 79,
          "time": 14.666651999999997,
          "velocity": 1,
          "duration": 0.33333299999999966
        },
        {
          "name": "D#5",
          "midi": 75,
          "time": 14.999984999999997,
          "velocity": 1,
          "duration": 0.6666659999999993
        },
        {
          "name": "A#4",
          "midi": 70,
          "time": 15.666650999999996,
          "velocity": 1,
          "duration": 0.33333299999999966
        },
        {
          "name": "D#5",
          "midi": 75,
          "time": 15.999983999999996,
          "velocity": 1,
          "duration": 0.33333300000000143
        },
        {
          "name": "G5",
          "midi": 79,
          "time": 16.333316999999997,
          "velocity": 1,
          "duration": 0.33333299999999966
        },
        {
          "name": "A#5",
          "midi": 82,
          "time": 16.666649999999997,
          "velocity": 1,
          "duration": 0.33333299999999966
        },
        {
          "name": "D#5",
          "midi": 75,
          "time": 16.999982999999997,
          "velocity": 1,
          "duration": 0.33333299999999966
        },
        {
          "name": "G4",
          "midi": 67,
          "time": 19.666646999999998,
          "velocity": 1,
          "duration": 0.33333299999999966
        },
        {
          "name": "G#4",
          "midi": 68,
          "time": 19.999979999999997,
          "velocity": 1,
          "duration": 0.33333299999999966
        },
        {
          "name": "C5",
          "midi": 72,
          "time": 20.333312999999997,
          "velocity": 1,
          "duration": 0.33333299999999966
        },
        {
          "name": "D#5",
          "midi": 75,
          "time": 20.666645999999997,
          "velocity": 1,
          "duration": 0.33333299999999966
        },
        {
          "name": "G#4",
          "midi": 68,
          "time": 20.999978999999996,
          "velocity": 1,
          "duration": 0.6666659999999993
        },
        {
          "name": "D#4",
          "midi": 63,
          "time": 21.333311999999996,
          "velocity": 1,
          "duration": 0.33333299999999966
        },
        {
          "name": "D#4",
          "midi": 63,
          "time": 21.666644999999995,
          "velocity": 1,
          "duration": 0.33333299999999966
        },
        {
          "name": "A4",
          "midi": 69,
          "time": 21.666644999999995,
          "velocity": 1,
          "duration": 0.33333299999999966
        },
        {
          "name": "A#4",
          "midi": 70,
          "time": 21.999977999999995,
          "velocity": 1,
          "duration": 0.6666659999999993
        },
        {
          "name": "F5",
          "midi": 77,
          "time": 22.666643999999994,
          "velocity": 1,
          "duration": 0.33333299999999966
        },
        {
          "name": "F4",
          "midi": 65,
          "time": 22.666643999999994,
          "velocity": 1,
          "duration": 0.33333299999999966
        },
        {
          "name": "D5",
          "midi": 74,
          "time": 22.999976999999994,
          "velocity": 1,
          "duration": 0.33333299999999966
        },
        {
          "name": "D4",
          "midi": 62,
          "time": 22.999976999999994,
          "velocity": 1,
          "duration": 0.33333299999999966
        },
        {
          "name": "A#4",
          "midi": 70,
          "time": 23.333309999999994,
          "velocity": 1,
          "duration": 0.33333299999999966
        },
        {
          "name": "A#3",
          "midi": 58,
          "time": 23.333309999999994,
          "velocity": 1,
          "duration": 0.33333299999999966
        },
        {
          "name": "F5",
          "midi": 77,
          "time": 23.666642999999993,
          "velocity": 1,
          "duration": 0.33333299999999966
        },
        {
          "name": "G#4",
          "midi": 68,
          "time": 23.666642999999993,
          "velocity": 1,
          "duration": 0.33333299999999966
        },
        {
          "name": "D#5",
          "midi": 75,
          "time": 23.999975999999993,
          "velocity": 1,
          "duration": 0.33333299999999966
        },
        {
          "name": "G4",
          "midi": 67,
          "time": 23.999975999999993,
          "velocity": 1,
          "duration": 0.33333299999999966
        },
        {
          "name": "F#4",
          "midi": 66,
          "time": 24.333308999999993,
          "velocity": 1,
          "duration": 0.6666659999999993
        },
        {
          "name": "D#5",
          "midi": 75,
          "time": 24.333308999999993,
          "velocity": 1,
          "duration": 0.6666659999999993
        },
        {
          "name": "D#5",
          "midi": 75,
          "time": 24.999974999999992,
          "velocity": 1,
          "duration": 0.6666659999999993
        },
        {
          "name": "F#4",
          "midi": 66,
          "time": 24.999974999999992,
          "velocity": 1,
          "duration": 0.6666659999999993
        },
        {
          "name": "D#5",
          "midi": 75,
          "time": 25.66664099999999,
          "velocity": 1,
          "duration": 0.33333299999999966
        },
        {
          "name": "F#4",
          "midi": 66,
          "time": 25.66664099999999,
          "velocity": 1,
          "duration": 0.33333299999999966
        },
        {
          "name": "D5",
          "midi": 74,
          "time": 25.99997399999999,
          "velocity": 1,
          "duration": 0.33333299999999966
        },
        {
          "name": "F4",
          "midi": 65,
          "time": 25.99997399999999,
          "velocity": 1,
          "duration": 0.33333299999999966
        },
        {
          "name": "A#5",
          "midi": 82,
          "time": 26.33330699999999,
          "velocity": 1,
          "duration": 0.33333299999999966
        },
        {
          "name": "A#4",
          "midi": 70,
          "time": 26.33330699999999,
          "velocity": 1,
          "duration": 0.33333299999999966
        },
        {
          "name": "F5",
          "midi": 77,
          "time": 26.66663999999999,
          "velocity": 1,
          "duration": 0.33333299999999966
        },
        {
          "name": "F4",
          "midi": 65,
          "time": 26.66663999999999,
          "velocity": 1,
          "duration": 0.33333299999999966
        },
        {
          "name": "D5",
          "midi": 74,
          "time": 26.99997299999999,
          "velocity": 1,
          "duration": 0.33333299999999966
        },
        {
          "name": "D4",
          "midi": 62,
          "time": 26.99997299999999,
          "velocity": 1,
          "duration": 0.33333299999999966
        },
        {
          "name": "A#3",
          "midi": 58,
          "time": 27.33330599999999,
          "velocity": 1,
          "duration": 0.33333299999999966
        },
        {
          "name": "A#4",
          "midi": 70,
          "time": 27.33330599999999,
          "velocity": 1,
          "duration": 0.33333299999999966
        },
        {
          "name": "A#4",
          "midi": 70,
          "time": 27.66663899999999,
          "velocity": 1,
          "duration": 0.6666659999999993
        },
        {
          "name": "F4",
          "midi": 65,
          "time": 27.66663899999999,
          "velocity": 1,
          "duration": 0.6666659999999993
        },
        {
          "name": "D5",
          "midi": 74,
          "time": 28.33330499999999,
          "velocity": 1,
          "duration": 0.6666659999999993
        },
        {
          "name": "F4",
          "midi": 65,
          "time": 28.33330499999999,
          "velocity": 1,
          "duration": 0.6666659999999993
        },
        {
          "name": "D5",
          "midi": 74,
          "time": 28.999970999999988,
          "velocity": 1,
          "duration": 0.6666659999999993
        },
        {
          "name": "F4",
          "midi": 65,
          "time": 28.999970999999988,
          "velocity": 1,
          "duration": 0.6666659999999993
        },
        {
          "name": "D5",
          "midi": 74,
          "time": 29.666636999999987,
          "velocity": 1,
          "duration": 0.6666659999999993
        },
        {
          "name": "F4",
          "midi": 65,
          "time": 29.666636999999987,
          "velocity": 1,
          "duration": 0.6666659999999993
        },
        {
          "name": "G4",
          "midi": 67,
          "time": 30.333302999999987,
          "velocity": 1,
          "duration": 0.6666659999999993
        },
        {
          "name": "D#5",
          "midi": 75,
          "time": 30.333302999999987,
          "velocity": 1,
          "duration": 0.6666659999999993
        },
        {
          "name": "D#5",
          "midi": 75,
          "time": 30.999968999999986,
          "velocity": 1,
          "duration": 0.6666659999999993
        },
        {
          "name": "G4",
          "midi": 67,
          "time": 30.999968999999986,
          "velocity": 1,
          "duration": 0.6666659999999993
        },
        {
          "name": "D#5",
          "midi": 75,
          "time": 31.666634999999985,
          "velocity": 1,
          "duration": 0.6666659999999993
        },
        {
          "name": "G4",
          "midi": 67,
          "time": 31.666634999999985,
          "velocity": 1,
          "duration": 0.6666659999999993
        },
        {
          "name": "D5",
          "midi": 74,
          "time": 32.333300999999985,
          "velocity": 1,
          "duration": 0.3333330000000032
        },
        {
          "name": "F4",
          "midi": 65,
          "time": 32.333300999999985,
          "velocity": 1,
          "duration": 0.3333330000000032
        },
        {
          "name": "D5",
          "midi": 74,
          "time": 32.66663399999999,
          "velocity": 1,
          "duration": 0.6666659999999993
        },
        {
          "name": "F4",
          "midi": 65,
          "time": 32.66663399999999,
          "velocity": 1,
          "duration": 0.6666659999999993
        },
        {
          "name": "A#4",
          "midi": 70,
          "time": 33.33329999999999,
          "velocity": 1,
          "duration": 0.3333330000000032
        },
        {
          "name": "D#5",
          "midi": 75,
          "time": 33.33329999999999,
          "velocity": 1,
          "duration": 0.3333330000000032
        },
        {
          "name": "D#5",
          "midi": 75,
          "time": 33.66663299999999,
          "velocity": 1,
          "duration": 0.3333330000000032
        },
        {
          "name": "A#4",
          "midi": 70,
          "time": 33.66663299999999,
          "velocity": 1,
          "duration": 0.6666660000000064
        },
        {
          "name": "D5",
          "midi": 74,
          "time": 33.99996599999999,
          "velocity": 1,
          "duration": 0.3333330000000032
        },
        {
          "name": "A#3",
          "midi": 58,
          "time": 34.333299,
          "velocity": 1,
          "duration": 0.16666649999999805
        },
        {
          "name": "C4",
          "midi": 60,
          "time": 34.499965499999995,
          "velocity": 1,
          "duration": 0.16666649999999805
        },
        {
          "name": "D4",
          "midi": 62,
          "time": 34.66663199999999,
          "velocity": 1,
          "duration": 0.16666649999999805
        },
        {
          "name": "D#4",
          "midi": 63,
          "time": 34.83329849999999,
          "velocity": 1,
          "duration": 0.16666649999999805
        },
        {
          "name": "F4",
          "midi": 65,
          "time": 34.99996499999999,
          "velocity": 1,
          "duration": 0.16666649999999805
        },
        {
          "name": "G4",
          "midi": 67,
          "time": 35.16663149999999,
          "velocity": 1,
          "duration": 0.16666649999999805
        },
        {
          "name": "G#4",
          "midi": 68,
          "time": 35.333297999999985,
          "velocity": 1,
          "duration": 0.16666649999999805
        },
        {
          "name": "A#4",
          "midi": 70,
          "time": 35.49996449999998,
          "velocity": 1,
          "duration": 0.16666649999999805
        },
        {
          "name": "C5",
          "midi": 72,
          "time": 35.66663099999998,
          "velocity": 1,
          "duration": 0.16666649999999805
        },
        {
          "name": "D5",
          "midi": 74,
          "time": 35.83329749999998,
          "velocity": 1,
          "duration": 0.16666649999999805
        },
        {
          "name": "D#5",
          "midi": 75,
          "time": 35.99996399999998,
          "velocity": 1,
          "duration": 0.6666659999999993
        },
        {
          "name": "G5",
          "midi": 79,
          "time": 36.66662999999998,
          "velocity": 1,
          "duration": 0.3333330000000032
        },
        {
          "name": "D#5",
          "midi": 75,
          "time": 36.99996299999998,
          "velocity": 1,
          "duration": 0.6666659999999993
        },
        {
          "name": "A#4",
          "midi": 70,
          "time": 37.66662899999998,
          "velocity": 1,
          "duration": 0.3333330000000032
        },
        {
          "name": "D#5",
          "midi": 75,
          "time": 37.99996199999998,
          "velocity": 1,
          "duration": 0.3333330000000032
        },
        {
          "name": "G5",
          "midi": 79,
          "time": 38.333294999999985,
          "velocity": 1,
          "duration": 0.3333330000000032
        },
        {
          "name": "A#5",
          "midi": 82,
          "time": 38.66662799999999,
          "velocity": 1,
          "duration": 0.3333330000000032
        },
        {
          "name": "D#5",
          "midi": 75,
          "time": 38.99996099999999,
          "velocity": 1,
          "duration": 0.6666659999999993
        },
        {
          "name": "D#5",
          "midi": 75,
          "time": 39.66662699999999,
          "velocity": 1,
          "duration": 0.6666659999999993
        },
        {
          "name": "G5",
          "midi": 79,
          "time": 39.66662699999999,
          "velocity": 1,
          "duration": 0.6666659999999993
        },
        {
          "name": "G5",
          "midi": 79,
          "time": 40.33329299999999,
          "velocity": 1,
          "duration": 0.3333330000000032
        },
        {
          "name": "D#5",
          "midi": 75,
          "time": 40.33329299999999,
          "velocity": 1,
          "duration": 0.3333330000000032
        },
        {
          "name": "G5",
          "midi": 79,
          "time": 40.666625999999994,
          "velocity": 1,
          "duration": 0.3333330000000032
        },
        {
          "name": "D#5",
          "midi": 75,
          "time": 40.666625999999994,
          "velocity": 1,
          "duration": 0.3333330000000032
        },
        {
          "name": "G5",
          "midi": 79,
          "time": 40.999959,
          "velocity": 1,
          "duration": 0.9999990000000025
        },
        {
          "name": "D#5",
          "midi": 75,
          "time": 40.999959,
          "velocity": 1,
          "duration": 0.6666659999999993
        },
        {
          "name": "C#5",
          "midi": 73,
          "time": 41.666624999999996,
          "velocity": 1,
          "duration": 0.3333330000000032
        },
        {
          "name": "G#5",
          "midi": 80,
          "time": 41.999958,
          "velocity": 1,
          "duration": 0.3333330000000032
        },
        {
          "name": "C5",
          "midi": 72,
          "time": 41.999958,
          "velocity": 1,
          "duration": 1.1666655000000077
        },
        {
          "name": "D#5",
          "midi": 75,
          "time": 42.333291,
          "velocity": 1,
          "duration": 0.3333330000000032
        },
        {
          "name": "D#5",
          "midi": 75,
          "time": 42.666624000000006,
          "velocity": 1,
          "duration": 0.3333330000000032
        },
        {
          "name": "E5",
          "midi": 76,
          "time": 42.99995700000001,
          "velocity": 1,
          "duration": 0.9999989999999883
        },
        {
          "name": "A#4",
          "midi": 70,
          "time": 43.16662350000001,
          "velocity": 1,
          "duration": 0.16666649999999805
        },
        {
          "name": "A4",
          "midi": 69,
          "time": 43.333290000000005,
          "velocity": 1,
          "duration": 0.16666649999999805
        },
        {
          "name": "A#4",
          "midi": 70,
          "time": 43.4999565,
          "velocity": 1,
          "duration": 0.16666649999999805
        },
        {
          "name": "C5",
          "midi": 72,
          "time": 43.666623,
          "velocity": 1,
          "duration": 0.16666649999999805
        },
        {
          "name": "A#4",
          "midi": 70,
          "time": 43.8332895,
          "velocity": 1,
          "duration": 0.16666649999999805
        },
        {
          "name": "F5",
          "midi": 77,
          "time": 43.999956,
          "velocity": 1,
          "duration": 0.3333330000000032
        },
        {
          "name": "A4",
          "midi": 69,
          "time": 43.999956,
          "velocity": 1,
          "duration": 0.3333330000000032
        },
        {
          "name": "F5",
          "midi": 77,
          "time": 45.333288,
          "velocity": 1,
          "duration": 0.49999950000000126
        },
        {
          "name": "D#5",
          "midi": 75,
          "time": 45.833287500000004,
          "velocity": 1,
          "duration": 0.16666649999999805
        },
        {
          "name": "C5",
          "midi": 72,
          "time": 45.999954,
          "velocity": 1,
          "duration": 0.3333330000000032
        },
        {
          "name": "F5",
          "midi": 77,
          "time": 49.333284000000006,
          "velocity": 1,
          "duration": 0.49999950000000126
        },
        {
          "name": "D5",
          "midi": 74,
          "time": 49.83328350000001,
          "velocity": 1,
          "duration": 0.16666649999999805
        },
        {
          "name": "A#4",
          "midi": 70,
          "time": 49.999950000000005,
          "velocity": 1,
          "duration": 0.3333330000000032
        },
        {
          "name": "F#5",
          "midi": 78,
          "time": 53.33328000000001,
          "velocity": 1,
          "duration": 0.49999950000000126
        },
        {
          "name": "F5",
          "midi": 77,
          "time": 53.83327950000001,
          "velocity": 1,
          "duration": 0.16666649999999805
        },
        {
          "name": "D#5",
          "midi": 75,
          "time": 53.99994600000001,
          "velocity": 1,
          "duration": 0.3333330000000032
        },
        {
          "name": "G5",
          "midi": 79,
          "time": 54.33327900000001,
          "velocity": 1,
          "duration": 0.49999950000000126
        },
        {
          "name": "G4",
          "midi": 67,
          "time": 54.33327900000001,
          "velocity": 1,
          "duration": 0.49999950000000126
        },
        {
          "name": "F5",
          "midi": 77,
          "time": 54.83327850000001,
          "velocity": 1,
          "duration": 0.16666649999999805
        },
        {
          "name": "F4",
          "midi": 65,
          "time": 54.83327850000001,
          "velocity": 1,
          "duration": 0.16666649999999805
        },
        {
          "name": "D#5",
          "midi": 75,
          "time": 54.99994500000001,
          "velocity": 1,
          "duration": 0.3333330000000032
        },
        {
          "name": "D#4",
          "midi": 63,
          "time": 54.99994500000001,
          "velocity": 1,
          "duration": 0.3333330000000032
        },
        {
          "name": "D5",
          "midi": 74,
          "time": 55.333278000000014,
          "velocity": 1,
          "duration": 0.3333330000000032
        },
        {
          "name": "D4",
          "midi": 62,
          "time": 55.333278000000014,
          "velocity": 1,
          "duration": 0.3333330000000032
        },
        {
          "name": "C4",
          "midi": 60,
          "time": 55.66661100000002,
          "velocity": 1,
          "duration": 0.3333330000000032
        },
        {
          "name": "C5",
          "midi": 72,
          "time": 55.66661100000002,
          "velocity": 1,
          "duration": 0.3333330000000032
        },
        {
          "name": "D4",
          "midi": 62,
          "time": 55.99994400000002,
          "velocity": 1,
          "duration": 0.6666659999999993
        },
        {
          "name": "A#3",
          "midi": 58,
          "time": 55.99994400000002,
          "velocity": 1,
          "duration": 0.6666659999999993
        },
        {
          "name": "D#4",
          "midi": 63,
          "time": 56.66661000000002,
          "velocity": 1,
          "duration": 0.16666649999999805
        },
        {
          "name": "C4",
          "midi": 60,
          "time": 56.66661000000002,
          "velocity": 1,
          "duration": 0.16666649999999805
        },
        {
          "name": "F4",
          "midi": 65,
          "time": 56.83327650000002,
          "velocity": 1,
          "duration": 0.16666649999999805
        },
        {
          "name": "D4",
          "midi": 62,
          "time": 56.83327650000002,
          "velocity": 1,
          "duration": 0.16666649999999805
        },
        {
          "name": "G4",
          "midi": 67,
          "time": 56.999943000000016,
          "velocity": 1,
          "duration": 0.3333330000000032
        },
        {
          "name": "D#4",
          "midi": 63,
          "time": 56.999943000000016,
          "velocity": 1,
          "duration": 0.3333330000000032
        },
        {
          "name": "A4",
          "midi": 69,
          "time": 57.33327600000002,
          "velocity": 1,
          "duration": 0.3333330000000032
        },
        {
          "name": "F4",
          "midi": 65,
          "time": 57.33327600000002,
          "velocity": 1,
          "duration": 0.3333330000000032
        },
        {
          "name": "A#4",
          "midi": 70,
          "time": 57.66660900000002,
          "velocity": 1,
          "duration": 0.3333330000000032
        },
        {
          "name": "G4",
          "midi": 67,
          "time": 57.66660900000002,
          "velocity": 1,
          "duration": 0.3333330000000032
        },
        {
          "name": "F4",
          "midi": 65,
          "time": 57.999942000000026,
          "velocity": 1,
          "duration": 0.49999950000000126
        },
        {
          "name": "A#4",
          "midi": 70,
          "time": 57.999942000000026,
          "velocity": 1,
          "duration": 0.49999950000000126
        },
        {
          "name": "A#3",
          "midi": 58,
          "time": 58.49994150000003,
          "velocity": 1,
          "duration": 0.16666649999999805
        },
        {
          "name": "F3",
          "midi": 53,
          "time": 58.49994150000003,
          "velocity": 1,
          "duration": 0.16666649999999805
        },
        {
          "name": "C4",
          "midi": 60,
          "time": 58.666608000000025,
          "velocity": 1,
          "duration": 0.16666649999999805
        },
        {
          "name": "A3",
          "midi": 57,
          "time": 58.666608000000025,
          "velocity": 1,
          "duration": 0.16666649999999805
        },
        {
          "name": "D4",
          "midi": 62,
          "time": 58.83327450000002,
          "velocity": 1,
          "duration": 0.16666649999999805
        },
        {
          "name": "A#3",
          "midi": 58,
          "time": 58.83327450000002,
          "velocity": 1,
          "duration": 0.16666649999999805
        },
        {
          "name": "D#4",
          "midi": 63,
          "time": 58.99994100000002,
          "velocity": 1,
          "duration": 0.3333330000000032
        },
        {
          "name": "C4",
          "midi": 60,
          "time": 58.99994100000002,
          "velocity": 1,
          "duration": 0.3333330000000032
        },
        {
          "name": "D#4",
          "midi": 63,
          "time": 59.333274000000024,
          "velocity": 1,
          "duration": 0.3333330000000032
        },
        {
          "name": "C4",
          "midi": 60,
          "time": 59.333274000000024,
          "velocity": 1,
          "duration": 0.3333330000000032
        },
        {
          "name": "D#4",
          "midi": 63,
          "time": 59.66660700000003,
          "velocity": 1,
          "duration": 0.3333330000000032
        },
        {
          "name": "C4",
          "midi": 60,
          "time": 59.66660700000003,
          "velocity": 1,
          "duration": 0.3333330000000032
        },
        {
          "name": "A#3",
          "midi": 58,
          "time": 59.99994000000003,
          "velocity": 1,
          "duration": 0.3333330000000032
        },
        {
          "name": "D4",
          "midi": 62,
          "time": 59.99994000000003,
          "velocity": 1,
          "duration": 0.3333330000000032
        },
        {
          "name": "D#5",
          "midi": 75,
          "time": 63.999936000000034,
          "velocity": 1,
          "duration": 0.3333329999999961
        },
        {
          "name": "A4",
          "midi": 69,
          "time": 63.999936000000034,
          "velocity": 1,
          "duration": 0.3333329999999961
        },
        {
          "name": "D#5",
          "midi": 75,
          "time": 64.33326900000003,
          "velocity": 1,
          "duration": 0.3333329999999961
        },
        {
          "name": "A4",
          "midi": 69,
          "time": 64.33326900000003,
          "velocity": 1,
          "duration": 0.3333329999999961
        },
        {
          "name": "C5",
          "midi": 72,
          "time": 65.83326750000002,
          "velocity": 1,
          "duration": 0.16666650000000516
        },
        {
          "name": "A4",
          "midi": 69,
          "time": 65.83326750000002,
          "velocity": 1,
          "duration": 0.16666650000000516
        },
        {
          "name": "A#4",
          "midi": 70,
          "time": 65.99993400000002,
          "velocity": 1,
          "duration": 0.3333329999999961
        },
        {
          "name": "A#4",
          "midi": 70,
          "time": 66.33326700000002,
          "velocity": 1,
          "duration": 0.3333329999999961
        },
        {
          "name": "D5",
          "midi": 74,
          "time": 67.83326550000001,
          "velocity": 1,
          "duration": 0.16666650000000516
        },
        {
          "name": "A#4",
          "midi": 70,
          "time": 67.83326550000001,
          "velocity": 1,
          "duration": 0.16666650000000516
        },
        {
          "name": "B4",
          "midi": 71,
          "time": 67.99993200000002,
          "velocity": 1,
          "duration": 0.3333329999999961
        },
        {
          "name": "D5",
          "midi": 74,
          "time": 67.99993200000002,
          "velocity": 1,
          "duration": 0.3333329999999961
        },
        {
          "name": "D5",
          "midi": 74,
          "time": 68.33326500000001,
          "velocity": 1,
          "duration": 0.3333329999999961
        },
        {
          "name": "B4",
          "midi": 71,
          "time": 68.33326500000001,
          "velocity": 1,
          "duration": 0.3333329999999961
        },
        {
          "name": "C5",
          "midi": 72,
          "time": 70.333263,
          "velocity": 1,
          "duration": 0.6666659999999922
        },
        {
          "name": "D5",
          "midi": 74,
          "time": 70.666596,
          "velocity": 1,
          "duration": 0.49999950000000126
        },
        {
          "name": "A#4",
          "midi": 70,
          "time": 70.999929,
          "velocity": 1,
          "duration": 0.3333330000000103
        },
        {
          "name": "D#5",
          "midi": 75,
          "time": 71.1665955,
          "velocity": 1,
          "duration": 0.8333324999999974
        },
        {
          "name": "F5",
          "midi": 77,
          "time": 71.666595,
          "velocity": 1,
          "duration": 0.3333329999999961
        },
        {
          "name": "D5",
          "midi": 74,
          "time": 71.999928,
          "velocity": 1,
          "duration": 0.3333329999999961
        },
        {
          "name": "F5",
          "midi": 77,
          "time": 71.999928,
          "velocity": 1,
          "duration": 0.3333329999999961
        },
        {
          "name": "F#5",
          "midi": 78,
          "time": 73.66659299999999,
          "velocity": 1,
          "duration": 0.3333329999999961
        },
        {
          "name": "A#4",
          "midi": 70,
          "time": 73.66659299999999,
          "velocity": 1,
          "duration": 0.9999990000000167
        },
        {
          "name": "G5",
          "midi": 79,
          "time": 73.99992599999999,
          "velocity": 1,
          "duration": 0.16666650000000516
        },
        {
          "name": "F#5",
          "midi": 78,
          "time": 74.1665925,
          "velocity": 1,
          "duration": 0.16666650000000516
        },
        {
          "name": "G5",
          "midi": 79,
          "time": 74.333259,
          "velocity": 1,
          "duration": 0.16666650000000516
        },
        {
          "name": "F#5",
          "midi": 78,
          "time": 74.4999255,
          "velocity": 1,
          "duration": 0.16666650000000516
        },
        {
          "name": "G5",
          "midi": 79,
          "time": 74.66659200000001,
          "velocity": 1,
          "duration": 0.16666650000000516
        },
        {
          "name": "B4",
          "midi": 71,
          "time": 74.66659200000001,
          "velocity": 1,
          "duration": 0.3333330000000103
        },
        {
          "name": "D5",
          "midi": 74,
          "time": 74.83325850000001,
          "velocity": 1,
          "duration": 0.16666650000000516
        },
        {
          "name": "D#5",
          "midi": 75,
          "time": 74.99992500000002,
          "velocity": 1,
          "duration": 0.16666650000000516
        },
        {
          "name": "C5",
          "midi": 72,
          "time": 74.99992500000002,
          "velocity": 1,
          "duration": 0.16666650000000516
        },
        {
          "name": "G4",
          "midi": 67,
          "time": 75.16659150000002,
          "velocity": 1,
          "duration": 0.3333330000000103
        },
        {
          "name": "D5",
          "midi": 74,
          "time": 75.16659150000002,
          "velocity": 1,
          "duration": 0.16666650000000516
        },
        {
          "name": "F5",
          "midi": 77,
          "time": 75.33325800000003,
          "velocity": 1,
          "duration": 0.16666650000000516
        },
        {
          "name": "D#5",
          "midi": 75,
          "time": 75.49992450000003,
          "velocity": 1,
          "duration": 0.16666650000000516
        },
        {
          "name": "G4",
          "midi": 67,
          "time": 75.49992450000003,
          "velocity": 1,
          "duration": 0.16666650000000516
        },
        {
          "name": "D5",
          "midi": 74,
          "time": 75.66659100000004,
          "velocity": 1,
          "duration": 0.16666650000000516
        },
        {
          "name": "F4",
          "midi": 65,
          "time": 75.66659100000004,
          "velocity": 1,
          "duration": 0.16666650000000516
        },
        {
          "name": "C5",
          "midi": 72,
          "time": 75.83325750000004,
          "velocity": 1,
          "duration": 0.16666650000000516
        },
        {
          "name": "D#4",
          "midi": 63,
          "time": 75.83325750000004,
          "velocity": 1,
          "duration": 0.16666650000000516
        },
        {
          "name": "A#4",
          "midi": 70,
          "time": 75.99992400000005,
          "velocity": 1,
          "duration": 0.3333329999999961
        },
        {
          "name": "D4",
          "midi": 62,
          "time": 75.99992400000005,
          "velocity": 1,
          "duration": 0.3333329999999961
        },
        {
          "name": "D5",
          "midi": 74,
          "time": 82.33325100000005,
          "velocity": 1,
          "duration": 0.3333329999999961
        },
        {
          "name": "F4",
          "midi": 65,
          "time": 82.33325100000005,
          "velocity": 1,
          "duration": 0.3333329999999961
        },
        {
          "name": "F4",
          "midi": 65,
          "time": 82.66658400000004,
          "velocity": 1,
          "duration": 0.3333329999999961
        },
        {
          "name": "D5",
          "midi": 74,
          "time": 82.66658400000004,
          "velocity": 1,
          "duration": 0.3333329999999961
        },
        {
          "name": "D5",
          "midi": 74,
          "time": 82.99991700000004,
          "velocity": 1,
          "duration": 0.3333329999999961
        },
        {
          "name": "F4",
          "midi": 65,
          "time": 82.99991700000004,
          "velocity": 1,
          "duration": 0.3333329999999961
        },
        {
          "name": "D5",
          "midi": 74,
          "time": 83.33325000000004,
          "velocity": 1,
          "duration": 0.3333329999999961
        },
        {
          "name": "F4",
          "midi": 65,
          "time": 83.33325000000004,
          "velocity": 1,
          "duration": 0.3333329999999961
        },
        {
          "name": "D5",
          "midi": 74,
          "time": 83.66658300000003,
          "velocity": 1,
          "duration": 0.3333329999999961
        },
        {
          "name": "F4",
          "midi": 65,
          "time": 83.66658300000003,
          "velocity": 1,
          "duration": 0.3333329999999961
        },
        {
          "name": "D5",
          "midi": 74,
          "time": 83.99991600000003,
          "velocity": 1,
          "duration": 0.3333329999999961
        },
        {
          "name": "F4",
          "midi": 65,
          "time": 83.99991600000003,
          "velocity": 1,
          "duration": 0.3333329999999961
        },
        {
          "name": "D5",
          "midi": 74,
          "time": 84.33324900000002,
          "velocity": 1,
          "duration": 0.3333329999999961
        },
        {
          "name": "F4",
          "midi": 65,
          "time": 84.33324900000002,
          "velocity": 1,
          "duration": 0.3333329999999961
        },
        {
          "name": "D5",
          "midi": 74,
          "time": 84.66658200000002,
          "velocity": 1,
          "duration": 0.3333329999999961
        },
        {
          "name": "F#4",
          "midi": 66,
          "time": 84.66658200000002,
          "velocity": 1,
          "duration": 0.3333329999999961
        },
        {
          "name": "G4",
          "midi": 67,
          "time": 84.99991500000002,
          "velocity": 1,
          "duration": 0.9999990000000025
        },
        {
          "name": "D5",
          "midi": 74,
          "time": 84.99991500000002,
          "velocity": 1,
          "duration": 0.6666660000000064
        },
        {
          "name": "C5",
          "midi": 72,
          "time": 85.66658100000002,
          "velocity": 1,
          "duration": 0.3333329999999961
        },
        {
          "name": "C#5",
          "midi": 73,
          "time": 90.33324300000002,
          "velocity": 1,
          "duration": 0.3333329999999961
        },
        {
          "name": "F4",
          "midi": 65,
          "time": 90.33324300000002,
          "velocity": 1,
          "duration": 0.3333329999999961
        },
        {
          "name": "C#5",
          "midi": 73,
          "time": 90.66657600000002,
          "velocity": 1,
          "duration": 0.3333329999999961
        },
        {
          "name": "F4",
          "midi": 65,
          "time": 90.66657600000002,
          "velocity": 1,
          "duration": 0.3333329999999961
        },
        {
          "name": "C#5",
          "midi": 73,
          "time": 90.99990900000002,
          "velocity": 1,
          "duration": 0.3333329999999961
        },
        {
          "name": "F4",
          "midi": 65,
          "time": 90.99990900000002,
          "velocity": 1,
          "duration": 0.3333329999999961
        },
        {
          "name": "C#5",
          "midi": 73,
          "time": 91.33324200000001,
          "velocity": 1,
          "duration": 0.3333329999999961
        },
        {
          "name": "F#4",
          "midi": 66,
          "time": 91.33324200000001,
          "velocity": 1,
          "duration": 0.3333329999999961
        },
        {
          "name": "C#5",
          "midi": 73,
          "time": 91.66657500000001,
          "velocity": 1,
          "duration": 0.3333329999999961
        },
        {
          "name": "F#4",
          "midi": 66,
          "time": 91.66657500000001,
          "velocity": 1,
          "duration": 0.3333329999999961
        },
        {
          "name": "F#4",
          "midi": 66,
          "time": 91.999908,
          "velocity": 1,
          "duration": 0.3333329999999961
        },
        {
          "name": "C#5",
          "midi": 73,
          "time": 91.999908,
          "velocity": 1,
          "duration": 0.3333329999999961
        },
        {
          "name": "C#5",
          "midi": 73,
          "time": 92.333241,
          "velocity": 1,
          "duration": 0.3333329999999961
        },
        {
          "name": "F#4",
          "midi": 66,
          "time": 92.333241,
          "velocity": 1,
          "duration": 0.3333329999999961
        },
        {
          "name": "C#5",
          "midi": 73,
          "time": 92.666574,
          "velocity": 1,
          "duration": 0.3333329999999961
        },
        {
          "name": "F#4",
          "midi": 66,
          "time": 92.666574,
          "velocity": 1,
          "duration": 0.3333329999999961
        },
        {
          "name": "C#5",
          "midi": 73,
          "time": 92.999907,
          "velocity": 1,
          "duration": 0.6666660000000064
        },
        {
          "name": "F#4",
          "midi": 66,
          "time": 92.999907,
          "velocity": 1,
          "duration": 0.9999990000000025
        },
        {
          "name": "C5",
          "midi": 72,
          "time": 93.666573,
          "velocity": 1,
          "duration": 0.3333329999999961
        },
        {
          "name": "C5",
          "midi": 72,
          "time": 97.333236,
          "velocity": 1,
          "duration": 0.3333329999999961
        },
        {
          "name": "A#4",
          "midi": 70,
          "time": 97.333236,
          "velocity": 1,
          "duration": 0.3333329999999961
        },
        {
          "name": "C5",
          "midi": 72,
          "time": 97.666569,
          "velocity": 1,
          "duration": 0.3333329999999961
        },
        {
          "name": "A#4",
          "midi": 70,
          "time": 97.666569,
          "velocity": 1,
          "duration": 0.3333329999999961
        },
        {
          "name": "A4",
          "midi": 69,
          "time": 97.99990199999999,
          "velocity": 1,
          "duration": 0.3333329999999961
        },
        {
          "name": "C5",
          "midi": 72,
          "time": 97.99990199999999,
          "velocity": 1,
          "duration": 0.3333329999999961
        },
        {
          "name": "D#4",
          "midi": 63,
          "time": 106.66655999999999,
          "velocity": 1,
          "duration": 0.16666650000000516
        },
        {
          "name": "C4",
          "midi": 60,
          "time": 106.66655999999999,
          "velocity": 1,
          "duration": 0.16666650000000516
        },
        {
          "name": "F4",
          "midi": 65,
          "time": 106.8332265,
          "velocity": 1,
          "duration": 0.16666650000000516
        },
        {
          "name": "D4",
          "midi": 62,
          "time": 106.8332265,
          "velocity": 1,
          "duration": 0.16666650000000516
        },
        {
          "name": "G4",
          "midi": 67,
          "time": 106.999893,
          "velocity": 1,
          "duration": 0.16666650000000516
        },
        {
          "name": "D#4",
          "midi": 63,
          "time": 106.999893,
          "velocity": 1,
          "duration": 0.16666650000000516
        },
        {
          "name": "A4",
          "midi": 69,
          "time": 107.1665595,
          "velocity": 1,
          "duration": 0.16666650000000516
        },
        {
          "name": "F4",
          "midi": 65,
          "time": 107.1665595,
          "velocity": 1,
          "duration": 0.16666650000000516
        },
        {
          "name": "A#4",
          "midi": 70,
          "time": 107.33322600000001,
          "velocity": 1,
          "duration": 0.16666650000000516
        },
        {
          "name": "G4",
          "midi": 67,
          "time": 107.33322600000001,
          "velocity": 1,
          "duration": 0.16666650000000516
        },
        {
          "name": "C5",
          "midi": 72,
          "time": 107.49989250000002,
          "velocity": 1,
          "duration": 0.16666650000000516
        },
        {
          "name": "A4",
          "midi": 69,
          "time": 107.49989250000002,
          "velocity": 1,
          "duration": 0.16666650000000516
        },
        {
          "name": "A#4",
          "midi": 70,
          "time": 107.66655900000002,
          "velocity": 1,
          "duration": 0.16666650000000516
        },
        {
          "name": "D5",
          "midi": 74,
          "time": 107.66655900000002,
          "velocity": 1,
          "duration": 0.16666650000000516
        },
        {
          "name": "D#5",
          "midi": 75,
          "time": 107.83322550000003,
          "velocity": 1,
          "duration": 0.16666650000000516
        },
        {
          "name": "C5",
          "midi": 72,
          "time": 107.83322550000003,
          "velocity": 1,
          "duration": 0.16666650000000516
        },
        {
          "name": "F5",
          "midi": 77,
          "time": 107.99989200000003,
          "velocity": 1,
          "duration": 0.3333329999999961
        },
        {
          "name": "D5",
          "midi": 74,
          "time": 107.99989200000003,
          "velocity": 1,
          "duration": 0.3333329999999961
        },
        {
          "name": "A#4",
          "midi": 70,
          "time": 108.33322500000003,
          "velocity": 1,
          "duration": 0.6666660000000064
        },
        {
          "name": "F4",
          "midi": 65,
          "time": 108.33322500000003,
          "velocity": 1,
          "duration": 0.6666660000000064
        },
        {
          "name": "A#4",
          "midi": 70,
          "time": 109.33322400000003,
          "velocity": 1,
          "duration": 0.6666660000000064
        },
        {
          "name": "F4",
          "midi": 65,
          "time": 109.33322400000003,
          "velocity": 1,
          "duration": 0.6666660000000064
        },
        {
          "name": "C5",
          "midi": 72,
          "time": 110.33322300000003,
          "velocity": 1,
          "duration": 0.6666660000000064
        },
        {
          "name": "F4",
          "midi": 65,
          "time": 110.33322300000003,
          "velocity": 1,
          "duration": 0.6666660000000064
        },
        {
          "name": "C5",
          "midi": 72,
          "time": 111.33322200000003,
          "velocity": 1,
          "duration": 0.3333329999999961
        },
        {
          "name": "F4",
          "midi": 65,
          "time": 111.33322200000003,
          "velocity": 1,
          "duration": 0.3333329999999961
        },
        {
          "name": "F4",
          "midi": 65,
          "time": 111.66655500000003,
          "velocity": 1,
          "duration": 0.3333329999999961
        },
        {
          "name": "C5",
          "midi": 72,
          "time": 111.66655500000003,
          "velocity": 1,
          "duration": 0.3333329999999961
        },
        {
          "name": "D5",
          "midi": 74,
          "time": 111.99988800000003,
          "velocity": 1,
          "duration": 0.3333329999999961
        },
        {
          "name": "F4",
          "midi": 65,
          "time": 111.99988800000003,
          "velocity": 1,
          "duration": 0.3333329999999961
        },
        {
          "name": "F5",
          "midi": 77,
          "time": 112.33322100000002,
          "velocity": 1,
          "duration": 0.49999950000000126
        },
        {
          "name": "D5",
          "midi": 74,
          "time": 112.83322050000002,
          "velocity": 1,
          "duration": 0.16666650000000516
        },
        {
          "name": "A#4",
          "midi": 70,
          "time": 112.99988700000003,
          "velocity": 1,
          "duration": 0.3333329999999961
        },
        {
          "name": "D5",
          "midi": 74,
          "time": 113.33322000000003,
          "velocity": 1,
          "duration": 0.49999950000000126
        },
        {
          "name": "F4",
          "midi": 65,
          "time": 113.83321950000003,
          "velocity": 1,
          "duration": 0.16666650000000516
        },
        {
          "name": "C5",
          "midi": 72,
          "time": 113.99988600000003,
          "velocity": 1,
          "duration": 0.3333329999999961
        },
        {
          "name": "D#5",
          "midi": 75,
          "time": 114.33321900000003,
          "velocity": 1,
          "duration": 0.49999950000000126
        },
        {
          "name": "F4",
          "midi": 65,
          "time": 114.83321850000003,
          "velocity": 1,
          "duration": 0.16666650000000516
        },
        {
          "name": "A4",
          "midi": 69,
          "time": 114.99988500000003,
          "velocity": 1,
          "duration": 0.3333329999999961
        },
        {
          "name": "C5",
          "midi": 72,
          "time": 115.33321800000003,
          "velocity": 1,
          "duration": 0.49999950000000126
        },
        {
          "name": "F4",
          "midi": 65,
          "time": 115.83321750000003,
          "velocity": 1,
          "duration": 0.16666650000000516
        },
        {
          "name": "A#4",
          "midi": 70,
          "time": 115.99988400000004,
          "velocity": 1,
          "duration": 1.166665500000022
        },
        {
          "name": "F4",
          "midi": 65,
          "time": 115.99988400000004,
          "velocity": 1,
          "duration": 0.6666660000000064
        },
        {
          "name": "F4",
          "midi": 65,
          "time": 116.66655000000004,
          "velocity": 1,
          "duration": 0.16666650000000516
        },
        {
          "name": "E4",
          "midi": 64,
          "time": 116.83321650000005,
          "velocity": 1,
          "duration": 0.16666650000000516
        },
        {
          "name": "F4",
          "midi": 65,
          "time": 116.99988300000005,
          "velocity": 1,
          "duration": 0.16666650000000516
        },
        {
          "name": "G4",
          "midi": 67,
          "time": 121.49987850000007,
          "velocity": 1,
          "duration": 0.16666650000000516
        },
        {
          "name": "G4",
          "midi": 67,
          "time": 121.66654500000007,
          "velocity": 1,
          "duration": 0.16666650000000516
        },
        {
          "name": "G4",
          "midi": 67,
          "time": 121.83321150000008,
          "velocity": 1,
          "duration": 0.16666650000000516
        },
        {
          "name": "A4",
          "midi": 69,
          "time": 121.99987800000008,
          "velocity": 1,
          "duration": 0.3333329999999961
        },
        {
          "name": "F#4",
          "midi": 66,
          "time": 121.99987800000008,
          "velocity": 1,
          "duration": 0.3333329999999961
        },
        {
          "name": "C5",
          "midi": 72,
          "time": 122.33321100000008,
          "velocity": 1,
          "duration": 0.3333329999999961
        },
        {
          "name": "A4",
          "midi": 69,
          "time": 122.33321100000008,
          "velocity": 1,
          "duration": 0.3333329999999961
        },
        {
          "name": "G4",
          "midi": 67,
          "time": 122.66654400000007,
          "velocity": 1,
          "duration": 0.3333329999999961
        },
        {
          "name": "A#4",
          "midi": 70,
          "time": 122.66654400000007,
          "velocity": 1,
          "duration": 0.3333329999999961
        },
        {
          "name": "G#4",
          "midi": 68,
          "time": 123.33321000000007,
          "velocity": 1,
          "duration": 0.3333329999999961
        },
        {
          "name": "F4",
          "midi": 65,
          "time": 123.33321000000007,
          "velocity": 1,
          "duration": 0.3333329999999961
        },
        {
          "name": "G4",
          "midi": 67,
          "time": 123.66654300000006,
          "velocity": 1,
          "duration": 0.3333329999999961
        },
        {
          "name": "D#4",
          "midi": 63,
          "time": 123.66654300000006,
          "velocity": 1,
          "duration": 0.3333329999999961
        },
        {
          "name": "A#4",
          "midi": 70,
          "time": 124.33320900000005,
          "velocity": 1,
          "duration": 0.3333329999999961
        },
        {
          "name": "G4",
          "midi": 67,
          "time": 124.33320900000005,
          "velocity": 1,
          "duration": 0.3333329999999961
        },
        {
          "name": "A4",
          "midi": 69,
          "time": 124.66654200000005,
          "velocity": 1,
          "duration": 0.3333329999999961
        },
        {
          "name": "F4",
          "midi": 65,
          "time": 124.66654200000005,
          "velocity": 1,
          "duration": 0.3333329999999961
        },
        {
          "name": "C5",
          "midi": 72,
          "time": 125.33320800000004,
          "velocity": 1,
          "duration": 0.3333329999999961
        },
        {
          "name": "A4",
          "midi": 69,
          "time": 125.33320800000004,
          "velocity": 1,
          "duration": 0.3333329999999961
        },
        {
          "name": "A#4",
          "midi": 70,
          "time": 125.66654100000004,
          "velocity": 1,
          "duration": 0.3333329999999961
        },
        {
          "name": "G4",
          "midi": 67,
          "time": 125.66654100000004,
          "velocity": 1,
          "duration": 0.3333329999999961
        },
        {
          "name": "F4",
          "midi": 65,
          "time": 126.33320700000003,
          "velocity": 1,
          "duration": 0.3333329999999961
        },
        {
          "name": "G#4",
          "midi": 68,
          "time": 126.33320700000003,
          "velocity": 1,
          "duration": 0.3333329999999961
        },
        {
          "name": "G4",
          "midi": 67,
          "time": 126.66654000000003,
          "velocity": 1,
          "duration": 0.3333329999999961
        },
        {
          "name": "D#4",
          "midi": 63,
          "time": 126.66654000000003,
          "velocity": 1,
          "duration": 0.3333329999999961
        },
        {
          "name": "A#4",
          "midi": 70,
          "time": 127.33320600000002,
          "velocity": 1,
          "duration": 0.3333329999999961
        },
        {
          "name": "G4",
          "midi": 67,
          "time": 127.33320600000002,
          "velocity": 1,
          "duration": 0.3333329999999961
        },
        {
          "name": "A#4",
          "midi": 70,
          "time": 127.99987200000001,
          "velocity": 1,
          "duration": 0.3333330000000103
        },
        {
          "name": "G4",
          "midi": 67,
          "time": 127.99987200000001,
          "velocity": 1,
          "duration": 0.3333330000000103
        },
        {
          "name": "A#4",
          "midi": 70,
          "time": 128.66653800000003,
          "velocity": 1,
          "duration": 0.3333330000000103
        },
        {
          "name": "G4",
          "midi": 67,
          "time": 128.66653800000003,
          "velocity": 1,
          "duration": 0.3333330000000103
        },
        {
          "name": "A#4",
          "midi": 70,
          "time": 129.33320400000005,
          "velocity": 1,
          "duration": 0.3333330000000103
        },
        {
          "name": "G4",
          "midi": 67,
          "time": 129.33320400000005,
          "velocity": 1,
          "duration": 0.3333330000000103
        },
        {
          "name": "A#4",
          "midi": 70,
          "time": 129.99987000000007,
          "velocity": 1,
          "duration": 0.3333330000000103
        },
        {
          "name": "G4",
          "midi": 67,
          "time": 129.99987000000007,
          "velocity": 1,
          "duration": 0.3333330000000103
        },
        {
          "name": "G4",
          "midi": 67,
          "time": 130.6665360000001,
          "velocity": 1,
          "duration": 0.3333330000000103
        },
        {
          "name": "A#4",
          "midi": 70,
          "time": 130.6665360000001,
          "velocity": 1,
          "duration": 0.3333330000000103
        },
        {
          "name": "C#5",
          "midi": 73,
          "time": 135.3331980000001,
          "velocity": 1,
          "duration": 0.3333330000000103
        },
        {
          "name": "A#4",
          "midi": 70,
          "time": 135.3331980000001,
          "velocity": 1,
          "duration": 0.3333330000000103
        },
        {
          "name": "C5",
          "midi": 72,
          "time": 135.99986400000012,
          "velocity": 1,
          "duration": 0.3333330000000103
        },
        {
          "name": "G#4",
          "midi": 68,
          "time": 135.99986400000012,
          "velocity": 1,
          "duration": 0.3333330000000103
        },
        {
          "name": "C5",
          "midi": 72,
          "time": 136.66653000000014,
          "velocity": 1,
          "duration": 0.3333330000000103
        },
        {
          "name": "G#4",
          "midi": 68,
          "time": 136.66653000000014,
          "velocity": 1,
          "duration": 0.3333330000000103
        },
        {
          "name": "D#5",
          "midi": 75,
          "time": 137.33319600000016,
          "velocity": 1,
          "duration": 0.3333330000000103
        },
        {
          "name": "C5",
          "midi": 72,
          "time": 137.33319600000016,
          "velocity": 1,
          "duration": 0.3333330000000103
        },
        {
          "name": "D5",
          "midi": 74,
          "time": 137.99986200000018,
          "velocity": 1,
          "duration": 0.3333330000000103
        },
        {
          "name": "A#4",
          "midi": 70,
          "time": 137.99986200000018,
          "velocity": 1,
          "duration": 0.3333330000000103
        },
        {
          "name": "D5",
          "midi": 74,
          "time": 138.6665280000002,
          "velocity": 1,
          "duration": 0.3333330000000103
        },
        {
          "name": "A#4",
          "midi": 70,
          "time": 138.6665280000002,
          "velocity": 1,
          "duration": 0.3333330000000103
        },
        {
          "name": "G4",
          "midi": 67,
          "time": 138.9998610000002,
          "velocity": 1,
          "duration": 1.4999985000000038
        },
        {
          "name": "D#4",
          "midi": 63,
          "time": 139.9998600000002,
          "velocity": 1,
          "duration": 0.49999950000000126
        },
        {
          "name": "C5",
          "midi": 72,
          "time": 140.4998595000002,
          "velocity": 1,
          "duration": 0.16666649999999095
        },
        {
          "name": "G4",
          "midi": 67,
          "time": 140.4998595000002,
          "velocity": 1,
          "duration": 0.16666649999999095
        },
        {
          "name": "B4",
          "midi": 71,
          "time": 140.6665260000002,
          "velocity": 1,
          "duration": 0.16666649999999095
        },
        {
          "name": "F4",
          "midi": 65,
          "time": 140.6665260000002,
          "velocity": 1,
          "duration": 0.16666649999999095
        },
        {
          "name": "C5",
          "midi": 72,
          "time": 140.8331925000002,
          "velocity": 1,
          "duration": 0.16666649999999095
        },
        {
          "name": "D#4",
          "midi": 63,
          "time": 140.8331925000002,
          "velocity": 1,
          "duration": 0.16666649999999095
        },
        {
          "name": "A#4",
          "midi": 70,
          "time": 140.99985900000019,
          "velocity": 1,
          "duration": 0.16666649999999095
        },
        {
          "name": "D4",
          "midi": 62,
          "time": 140.99985900000019,
          "velocity": 1,
          "duration": 0.16666649999999095
        },
        {
          "name": "D5",
          "midi": 74,
          "time": 141.16652550000018,
          "velocity": 1,
          "duration": 0.16666649999999095
        },
        {
          "name": "A#4",
          "midi": 70,
          "time": 141.16652550000018,
          "velocity": 1,
          "duration": 0.16666649999999095
        },
        {
          "name": "D5",
          "midi": 74,
          "time": 141.33319200000017,
          "velocity": 1,
          "duration": 0.16666649999999095
        },
        {
          "name": "F5",
          "midi": 77,
          "time": 141.33319200000017,
          "velocity": 1,
          "duration": 0.16666649999999095
        },
        {
          "name": "D5",
          "midi": 74,
          "time": 141.49985850000016,
          "velocity": 1,
          "duration": 0.16666649999999095
        },
        {
          "name": "A#4",
          "midi": 70,
          "time": 141.49985850000016,
          "velocity": 1,
          "duration": 0.16666649999999095
        },
        {
          "name": "D5",
          "midi": 74,
          "time": 141.66652500000015,
          "velocity": 1,
          "duration": 0.16666649999999095
        },
        {
          "name": "A#4",
          "midi": 70,
          "time": 141.66652500000015,
          "velocity": 1,
          "duration": 0.16666649999999095
        },
        {
          "name": "D5",
          "midi": 74,
          "time": 141.83319150000014,
          "velocity": 1,
          "duration": 0.16666649999999095
        },
        {
          "name": "A#4",
          "midi": 70,
          "time": 141.83319150000014,
          "velocity": 1,
          "duration": 0.16666649999999095
        },
        {
          "name": "D#5",
          "midi": 75,
          "time": 141.99985800000013,
          "velocity": 1,
          "duration": 0.9999990000000025
        },
        {
          "name": "A4",
          "midi": 69,
          "time": 141.99985800000013,
          "velocity": 1,
          "duration": 0.9999990000000025
        },
        {
          "name": "D5",
          "midi": 74,
          "time": 142.99985700000013,
          "velocity": 1,
          "duration": 0.3333330000000103
        },
        {
          "name": "A#4",
          "midi": 70,
          "time": 142.99985700000013,
          "velocity": 1,
          "duration": 0.3333330000000103
        },
        {
          "name": "A#4",
          "midi": 70,
          "time": 143.99985600000014,
          "velocity": 1,
          "duration": 0.3333330000000103
        },
        {
          "name": "A#4",
          "midi": 70,
          "time": 144.99985500000014,
          "velocity": 1,
          "duration": 0.3333330000000103
        },
        {
          "name": "D#5",
          "midi": 75,
          "time": 145.99985400000014,
          "velocity": 1,
          "duration": 0.3333330000000103
        },
        {
          "name": "F#4",
          "midi": 66,
          "time": 145.99985400000014,
          "velocity": 1,
          "duration": 0.3333330000000103
        },
        {
          "name": "D#5",
          "midi": 75,
          "time": 146.33318700000015,
          "velocity": 1,
          "duration": 0.3333330000000103
        },
        {
          "name": "F#4",
          "midi": 66,
          "time": 146.33318700000015,
          "velocity": 1,
          "duration": 0.3333330000000103
        },
        {
          "name": "D#5",
          "midi": 75,
          "time": 146.66652000000016,
          "velocity": 1,
          "duration": 0.3333330000000103
        },
        {
          "name": "F#4",
          "midi": 66,
          "time": 146.66652000000016,
          "velocity": 1,
          "duration": 0.3333330000000103
        },
        {
          "name": "D5",
          "midi": 74,
          "time": 146.99985300000017,
          "velocity": 1,
          "duration": 0.3333330000000103
        },
        {
          "name": "F4",
          "midi": 65,
          "time": 146.99985300000017,
          "velocity": 1,
          "duration": 0.3333330000000103
        },
        {
          "name": "D5",
          "midi": 74,
          "time": 152.66651400000018,
          "velocity": 1,
          "duration": 0.3333330000000103
        },
        {
          "name": "G#4",
          "midi": 68,
          "time": 152.66651400000018,
          "velocity": 1,
          "duration": 0.3333330000000103
        },
        {
          "name": "G4",
          "midi": 67,
          "time": 152.9998470000002,
          "velocity": 1,
          "duration": 0.3333330000000103
        },
        {
          "name": "D#5",
          "midi": 75,
          "time": 152.9998470000002,
          "velocity": 1,
          "duration": 0.3333330000000103
        },
        {
          "name": "F5",
          "midi": 77,
          "time": 188.6664780000002,
          "velocity": 1,
          "duration": 0.6666659999999922
        },
        {
          "name": "F4",
          "midi": 65,
          "time": 188.6664780000002,
          "velocity": 1,
          "duration": 0.6666659999999922
        },
        {
          "name": "A4",
          "midi": 69,
          "time": 189.3331440000002,
          "velocity": 1,
          "duration": 0.3333330000000103
        },
        {
          "name": "F4",
          "midi": 65,
          "time": 189.3331440000002,
          "velocity": 1,
          "duration": 0.3333330000000103
        },
        {
          "name": "A4",
          "midi": 69,
          "time": 189.6664770000002,
          "velocity": 1,
          "duration": 0.3333330000000103
        },
        {
          "name": "F4",
          "midi": 65,
          "time": 189.6664770000002,
          "velocity": 1,
          "duration": 0.3333330000000103
        },
        {
          "name": "A4",
          "midi": 69,
          "time": 189.99981000000022,
          "velocity": 1,
          "duration": 0.3333330000000103
        },
        {
          "name": "F4",
          "midi": 65,
          "time": 189.99981000000022,
          "velocity": 1,
          "duration": 0.3333330000000103
        },
        {
          "name": "A4",
          "midi": 69,
          "time": 190.33314300000023,
          "velocity": 1,
          "duration": 0.3333330000000103
        },
        {
          "name": "F4",
          "midi": 65,
          "time": 190.33314300000023,
          "velocity": 1,
          "duration": 0.3333330000000103
        },
        {
          "name": "F4",
          "midi": 65,
          "time": 190.66647600000024,
          "velocity": 1,
          "duration": 0.3333330000000103
        },
        {
          "name": "A4",
          "midi": 69,
          "time": 190.66647600000024,
          "velocity": 1,
          "duration": 0.3333330000000103
        },
        {
          "name": "A4",
          "midi": 69,
          "time": 190.99980900000025,
          "velocity": 1,
          "duration": 1.999998000000005
        },
        {
          "name": "F4",
          "midi": 65,
          "time": 190.99980900000025,
          "velocity": 1,
          "duration": 1.999998000000005
        },
        {
          "name": "A4",
          "midi": 69,
          "time": 192.99980700000026,
          "velocity": 1,
          "duration": 0.3333330000000103
        },
        {
          "name": "G4",
          "midi": 67,
          "time": 192.99980700000026,
          "velocity": 1,
          "duration": 0.3333330000000103
        },
        {
          "name": "A4",
          "midi": 69,
          "time": 193.33314000000027,
          "velocity": 1,
          "duration": 0.3333330000000103
        },
        {
          "name": "G4",
          "midi": 67,
          "time": 193.33314000000027,
          "velocity": 1,
          "duration": 0.3333330000000103
        },
        {
          "name": "A4",
          "midi": 69,
          "time": 193.66647300000028,
          "velocity": 1,
          "duration": 0.3333330000000103
        },
        {
          "name": "G4",
          "midi": 67,
          "time": 193.66647300000028,
          "velocity": 1,
          "duration": 0.3333330000000103
        },
        {
          "name": "A4",
          "midi": 69,
          "time": 193.9998060000003,
          "velocity": 1,
          "duration": 0.3333330000000103
        },
        {
          "name": "G4",
          "midi": 67,
          "time": 193.9998060000003,
          "velocity": 1,
          "duration": 0.3333330000000103
        },
        {
          "name": "G4",
          "midi": 67,
          "time": 194.3331390000003,
          "velocity": 1,
          "duration": 0.3333330000000103
        },
        {
          "name": "A4",
          "midi": 69,
          "time": 194.3331390000003,
          "velocity": 1,
          "duration": 0.3333330000000103
        },
        {
          "name": "A4",
          "midi": 69,
          "time": 194.6664720000003,
          "velocity": 1,
          "duration": 0.3333330000000103
        },
        {
          "name": "G4",
          "midi": 67,
          "time": 194.6664720000003,
          "velocity": 1,
          "duration": 0.3333330000000103
        },
        {
          "name": "A4",
          "midi": 69,
          "time": 194.99980500000032,
          "velocity": 1,
          "duration": 1.6666649999999947
        },
        {
          "name": "G4",
          "midi": 67,
          "time": 194.99980500000032,
          "velocity": 1,
          "duration": 1.6666649999999947
        },
        {
          "name": "A4",
          "midi": 69,
          "time": 196.66647000000032,
          "velocity": 1,
          "duration": 0.3333330000000103
        },
        {
          "name": "E4",
          "midi": 64,
          "time": 196.66647000000032,
          "velocity": 1,
          "duration": 0.3333330000000103
        },
        {
          "name": "A#4",
          "midi": 70,
          "time": 200.99979900000034,
          "velocity": 1,
          "duration": 0.3333330000000103
        },
        {
          "name": "G4",
          "midi": 67,
          "time": 200.99979900000034,
          "velocity": 1,
          "duration": 0.3333330000000103
        },
        {
          "name": "A#4",
          "midi": 70,
          "time": 201.33313200000035,
          "velocity": 1,
          "duration": 0.3333330000000103
        },
        {
          "name": "G4",
          "midi": 67,
          "time": 201.33313200000035,
          "velocity": 1,
          "duration": 0.3333330000000103
        },
        {
          "name": "G4",
          "midi": 67,
          "time": 201.66646500000036,
          "velocity": 1,
          "duration": 0.3333330000000103
        },
        {
          "name": "A#4",
          "midi": 70,
          "time": 201.66646500000036,
          "velocity": 1,
          "duration": 0.3333330000000103
        },
        {
          "name": "A#4",
          "midi": 70,
          "time": 201.99979800000037,
          "velocity": 1,
          "duration": 0.3333330000000103
        },
        {
          "name": "G4",
          "midi": 67,
          "time": 201.99979800000037,
          "velocity": 1,
          "duration": 0.3333330000000103
        },
        {
          "name": "A#4",
          "midi": 70,
          "time": 202.33313100000038,
          "velocity": 1,
          "duration": 0.3333330000000103
        },
        {
          "name": "G4",
          "midi": 67,
          "time": 202.33313100000038,
          "velocity": 1,
          "duration": 0.3333330000000103
        },
        {
          "name": "A#4",
          "midi": 70,
          "time": 202.6664640000004,
          "velocity": 1,
          "duration": 0.3333330000000103
        },
        {
          "name": "G4",
          "midi": 67,
          "time": 202.6664640000004,
          "velocity": 1,
          "duration": 0.3333330000000103
        },
        {
          "name": "A#4",
          "midi": 70,
          "time": 202.9997970000004,
          "velocity": 1,
          "duration": 1.999998000000005
        },
        {
          "name": "G4",
          "midi": 67,
          "time": 202.9997970000004,
          "velocity": 1,
          "duration": 1.999998000000005
        },
        {
          "name": "C5",
          "midi": 72,
          "time": 204.9997950000004,
          "velocity": 1,
          "duration": 0.3333330000000103
        },
        {
          "name": "F#4",
          "midi": 66,
          "time": 204.9997950000004,
          "velocity": 1,
          "duration": 0.3333330000000103
        },
        {
          "name": "F#4",
          "midi": 66,
          "time": 205.3331280000004,
          "velocity": 1,
          "duration": 0.3333330000000103
        },
        {
          "name": "C5",
          "midi": 72,
          "time": 205.3331280000004,
          "velocity": 1,
          "duration": 0.3333330000000103
        },
        {
          "name": "C5",
          "midi": 72,
          "time": 205.66646100000042,
          "velocity": 1,
          "duration": 0.3333330000000103
        },
        {
          "name": "F#4",
          "midi": 66,
          "time": 205.66646100000042,
          "velocity": 1,
          "duration": 0.3333330000000103
        },
        {
          "name": "C5",
          "midi": 72,
          "time": 205.99979400000043,
          "velocity": 1,
          "duration": 0.3333330000000103
        },
        {
          "name": "F#4",
          "midi": 66,
          "time": 205.99979400000043,
          "velocity": 1,
          "duration": 0.3333330000000103
        },
        {
          "name": "C5",
          "midi": 72,
          "time": 206.33312700000045,
          "velocity": 1,
          "duration": 0.3333330000000103
        },
        {
          "name": "F#4",
          "midi": 66,
          "time": 206.33312700000045,
          "velocity": 1,
          "duration": 0.3333330000000103
        },
        {
          "name": "C5",
          "midi": 72,
          "time": 206.66646000000046,
          "velocity": 1,
          "duration": 0.3333330000000103
        },
        {
          "name": "F#4",
          "midi": 66,
          "time": 206.66646000000046,
          "velocity": 1,
          "duration": 0.3333330000000103
        },
        {
          "name": "C5",
          "midi": 72,
          "time": 206.99979300000047,
          "velocity": 1,
          "duration": 1.6666649999999947
        },
        {
          "name": "F#4",
          "midi": 66,
          "time": 206.99979300000047,
          "velocity": 1,
          "duration": 1.6666649999999947
        },
        {
          "name": "F#4",
          "midi": 66,
          "time": 208.66645800000046,
          "velocity": 1,
          "duration": 0.3333330000000103
        },
        {
          "name": "A4",
          "midi": 69,
          "time": 208.66645800000046,
          "velocity": 1,
          "duration": 0.3333330000000103
        },
        {
          "name": "G4",
          "midi": 67,
          "time": 208.99979100000047,
          "velocity": 1,
          "duration": 0.3333330000000103
        },
        {
          "name": "D4",
          "midi": 62,
          "time": 208.99979100000047,
          "velocity": 1,
          "duration": 0.3333330000000103
        },
        {
          "name": "A#4",
          "midi": 70,
          "time": 218.4997815000005,
          "velocity": 1,
          "duration": 0.16666649999999095
        },
        {
          "name": "A#4",
          "midi": 70,
          "time": 218.66644800000049,
          "velocity": 1,
          "duration": 0.16666649999999095
        },
        {
          "name": "D#5",
          "midi": 75,
          "time": 219.49978050000047,
          "velocity": 1,
          "duration": 0.16666649999999095
        },
        {
          "name": "D#4",
          "midi": 63,
          "time": 219.49978050000047,
          "velocity": 1,
          "duration": 0.16666649999999095
        },
        {
          "name": "D#5",
          "midi": 75,
          "time": 219.66644700000046,
          "velocity": 1,
          "duration": 0.16666649999999095
        },
        {
          "name": "D#4",
          "midi": 63,
          "time": 219.66644700000046,
          "velocity": 1,
          "duration": 0.16666649999999095
        },
        {
          "name": "G#4",
          "midi": 68,
          "time": 220.16644650000046,
          "velocity": 1,
          "duration": 0.16666649999999095
        },
        {
          "name": "G#4",
          "midi": 68,
          "time": 220.33311300000045,
          "velocity": 1,
          "duration": 0.16666649999999095
        },
        {
          "name": "G#4",
          "midi": 68,
          "time": 220.49977950000044,
          "velocity": 1,
          "duration": 0.16666649999999095
        },
        {
          "name": "G#4",
          "midi": 68,
          "time": 220.66644600000043,
          "velocity": 1,
          "duration": 0.16666649999999095
        },
        {
          "name": "G#4",
          "midi": 68,
          "time": 220.83311250000042,
          "velocity": 1,
          "duration": 0.16666649999999095
        },
        {
          "name": "C#5",
          "midi": 73,
          "time": 220.99977900000042,
          "velocity": 1,
          "duration": 0.9999990000000025
        },
        {
          "name": "G#4",
          "midi": 68,
          "time": 220.99977900000042,
          "velocity": 1,
          "duration": 0.9999990000000025
        },
        {
          "name": "D5",
          "midi": 74,
          "time": 221.99977800000042,
          "velocity": 1,
          "duration": 0.9999990000000025
        },
        {
          "name": "G#4",
          "midi": 68,
          "time": 221.99977800000042,
          "velocity": 1,
          "duration": 0.9999990000000025
        },
        {
          "name": "D#5",
          "midi": 75,
          "time": 222.99977700000042,
          "velocity": 1,
          "duration": 0.3333330000000103
        },
        {
          "name": "G4",
          "midi": 67,
          "time": 222.99977700000042,
          "velocity": 1,
          "duration": 0.3333330000000103
        },
        {
          "name": "F5",
          "midi": 77,
          "time": 223.33311000000043,
          "velocity": 1,
          "duration": 0.49999950000000126
        },
        {
          "name": "D#5",
          "midi": 75,
          "time": 223.83310950000043,
          "velocity": 1,
          "duration": 0.16666649999999095
        },
        {
          "name": "D5",
          "midi": 74,
          "time": 223.99977600000042,
          "velocity": 1,
          "duration": 0.3333330000000103
        },
        {
          "name": "D#5",
          "midi": 75,
          "time": 224.33310900000043,
          "velocity": 1,
          "duration": 0.49999950000000126
        },
        {
          "name": "C#5",
          "midi": 73,
          "time": 224.83310850000044,
          "velocity": 1,
          "duration": 0.16666649999999095
        },
        {
          "name": "A#4",
          "midi": 70,
          "time": 224.99977500000043,
          "velocity": 1,
          "duration": 0.3333330000000103
        },
        {
          "name": "C#5",
          "midi": 73,
          "time": 225.33310800000044,
          "velocity": 1,
          "duration": 0.49999950000000126
        },
        {
          "name": "A#4",
          "midi": 70,
          "time": 225.83310750000044,
          "velocity": 1,
          "duration": 0.16666649999999095
        },
        {
          "name": "G4",
          "midi": 67,
          "time": 225.99977400000043,
          "velocity": 1,
          "duration": 0.3333330000000103
        },
        {
          "name": "F5",
          "midi": 77,
          "time": 227.33310600000044,
          "velocity": 1,
          "duration": 0.49999950000000126
        },
        {
          "name": "D#5",
          "midi": 75,
          "time": 227.83310550000044,
          "velocity": 1,
          "duration": 0.16666649999999095
        },
        {
          "name": "D5",
          "midi": 74,
          "time": 227.99977200000043,
          "velocity": 1,
          "duration": 0.3333330000000103
        },
        {
          "name": "D#5",
          "midi": 75,
          "time": 228.33310500000044,
          "velocity": 1,
          "duration": 0.49999950000000126
        },
        {
          "name": "C5",
          "midi": 72,
          "time": 228.83310450000045,
          "velocity": 1,
          "duration": 0.16666649999999095
        },
        {
          "name": "G#4",
          "midi": 68,
          "time": 228.99977100000044,
          "velocity": 1,
          "duration": 0.3333330000000103
        },
        {
          "name": "C5",
          "midi": 72,
          "time": 229.33310400000045,
          "velocity": 1,
          "duration": 0.49999950000000126
        },
        {
          "name": "G#4",
          "midi": 68,
          "time": 229.83310350000045,
          "velocity": 1,
          "duration": 0.16666649999999095
        },
        {
          "name": "D#4",
          "midi": 63,
          "time": 229.99977000000044,
          "velocity": 1,
          "duration": 0.3333330000000103
        },
        {
          "name": "D#4",
          "midi": 63,
          "time": 230.99976900000044,
          "velocity": 1,
          "duration": 1.1666654999999935
        },
        {
          "name": "F4",
          "midi": 65,
          "time": 232.16643450000043,
          "velocity": 1,
          "duration": 0.16666649999999095
        },
        {
          "name": "G4",
          "midi": 67,
          "time": 232.33310100000043,
          "velocity": 1,
          "duration": 0.16666649999999095
        },
        {
          "name": "G#4",
          "midi": 68,
          "time": 232.49976750000042,
          "velocity": 1,
          "duration": 0.16666649999999095
        },
        {
          "name": "A#4",
          "midi": 70,
          "time": 232.6664340000004,
          "velocity": 1,
          "duration": 0.16666649999999095
        },
        {
          "name": "C5",
          "midi": 72,
          "time": 232.8331005000004,
          "velocity": 1,
          "duration": 0.16666649999999095
        },
        {
          "name": "C#5",
          "midi": 73,
          "time": 232.9997670000004,
          "velocity": 1,
          "duration": 0.3333330000000103
        },
        {
          "name": "C#5",
          "midi": 73,
          "time": 237.6664290000004,
          "velocity": 1,
          "duration": 0.6666659999999922
        },
        {
          "name": "C5",
          "midi": 72,
          "time": 238.33309500000038,
          "velocity": 1,
          "duration": 0.16666649999999095
        },
        {
          "name": "A#4",
          "midi": 70,
          "time": 238.49976150000037,
          "velocity": 1,
          "duration": 0.16666649999999095
        },
        {
          "name": "G#4",
          "midi": 68,
          "time": 238.66642800000037,
          "velocity": 1,
          "duration": 0.16666649999999095
        },
        {
          "name": "G4",
          "midi": 67,
          "time": 238.83309450000036,
          "velocity": 1,
          "duration": 0.16666649999999095
        },
        {
          "name": "F4",
          "midi": 65,
          "time": 238.99976100000035,
          "velocity": 1,
          "duration": 0.3333330000000103
        },
        {
          "name": "F4",
          "midi": 65,
          "time": 250.33308300000036,
          "velocity": 1,
          "duration": 0.3333330000000103
        },
        {
          "name": "D4",
          "midi": 62,
          "time": 250.33308300000036,
          "velocity": 1,
          "duration": 0.3333330000000103
        },
        {
          "name": "F5",
          "midi": 77,
          "time": 250.66641600000037,
          "velocity": 1,
          "duration": 0.3333330000000103
        },
        {
          "name": "D5",
          "midi": 74,
          "time": 250.66641600000037,
          "velocity": 1,
          "duration": 0.3333330000000103
        },
        {
          "name": "F5",
          "midi": 77,
          "time": 250.99974900000038,
          "velocity": 1,
          "duration": 0.3333330000000103
        },
        {
          "name": "D5",
          "midi": 74,
          "time": 250.99974900000038,
          "velocity": 1,
          "duration": 0.3333330000000103
        },
        {
          "name": "D4",
          "midi": 62,
          "time": 251.3330820000004,
          "velocity": 1,
          "duration": 1.6666649999999947
        },
        {
          "name": "D5",
          "midi": 74,
          "time": 251.3330820000004,
          "velocity": 1,
          "duration": 1.6666649999999947
        },
        {
          "name": "C#5",
          "midi": 73,
          "time": 269.3330640000004,
          "velocity": 1,
          "duration": 1.999998000000005
        },
        {
          "name": "G4",
          "midi": 67,
          "time": 269.3330640000004,
          "velocity": 1,
          "duration": 1.999998000000005
        },
        {
          "name": "C#5",
          "midi": 73,
          "time": 271.3330620000004,
          "velocity": 1,
          "duration": 0.6666660000000206
        },
        {
          "name": "G4",
          "midi": 67,
          "time": 271.3330620000004,
          "velocity": 1,
          "duration": 0.6666660000000206
        },
        {
          "name": "C#5",
          "midi": 73,
          "time": 271.9997280000004,
          "velocity": 1,
          "duration": 0.6666660000000206
        },
        {
          "name": "G4",
          "midi": 67,
          "time": 271.9997280000004,
          "velocity": 1,
          "duration": 0.6666660000000206
        },
        {
          "name": "G4",
          "midi": 67,
          "time": 272.6663940000004,
          "velocity": 1,
          "duration": 0.6666660000000206
        },
        {
          "name": "C#5",
          "midi": 73,
          "time": 272.6663940000004,
          "velocity": 1,
          "duration": 0.6666660000000206
        },
        {
          "name": "C#5",
          "midi": 73,
          "time": 273.33306000000044,
          "velocity": 1,
          "duration": 0.6666660000000206
        },
        {
          "name": "G4",
          "midi": 67,
          "time": 273.33306000000044,
          "velocity": 1,
          "duration": 0.6666660000000206
        },
        {
          "name": "C#5",
          "midi": 73,
          "time": 273.99972600000046,
          "velocity": 1,
          "duration": 0.6666660000000206
        },
        {
          "name": "G4",
          "midi": 67,
          "time": 273.99972600000046,
          "velocity": 1,
          "duration": 0.6666660000000206
        },
        {
          "name": "C#5",
          "midi": 73,
          "time": 274.6663920000005,
          "velocity": 1,
          "duration": 0.3333329999999819
        },
        {
          "name": "G4",
          "midi": 67,
          "time": 274.6663920000005,
          "velocity": 1,
          "duration": 0.3333329999999819
        },
        {
          "name": "C5",
          "midi": 72,
          "time": 275.33305800000045,
          "velocity": 1,
          "duration": 0.6666660000000206
        },
        {
          "name": "F#4",
          "midi": 66,
          "time": 275.33305800000045,
          "velocity": 1,
          "duration": 0.6666660000000206
        },
        {
          "name": "C5",
          "midi": 72,
          "time": 275.99972400000047,
          "velocity": 1,
          "duration": 0.6666660000000206
        },
        {
          "name": "F#4",
          "midi": 66,
          "time": 275.99972400000047,
          "velocity": 1,
          "duration": 0.6666660000000206
        },
        {
          "name": "F#4",
          "midi": 66,
          "time": 276.6663900000005,
          "velocity": 1,
          "duration": 0.3333329999999819
        },
        {
          "name": "C5",
          "midi": 72,
          "time": 276.6663900000005,
          "velocity": 1,
          "duration": 0.3333329999999819
        },
        {
          "name": "C5",
          "midi": 72,
          "time": 277.33305600000045,
          "velocity": 1,
          "duration": 0.6666660000000206
        },
        {
          "name": "E4",
          "midi": 64,
          "time": 277.33305600000045,
          "velocity": 1,
          "duration": 0.6666660000000206
        },
        {
          "name": "C5",
          "midi": 72,
          "time": 277.9997220000005,
          "velocity": 1,
          "duration": 0.6666660000000206
        },
        {
          "name": "E4",
          "midi": 64,
          "time": 277.9997220000005,
          "velocity": 1,
          "duration": 0.6666660000000206
        },
        {
          "name": "C5",
          "midi": 72,
          "time": 278.6663880000005,
          "velocity": 1,
          "duration": 0.3333329999999819
        },
        {
          "name": "E4",
          "midi": 64,
          "time": 278.6663880000005,
          "velocity": 1,
          "duration": 0.3333329999999819
        },
        {
          "name": "C5",
          "midi": 72,
          "time": 278.9997210000005,
          "velocity": 1,
          "duration": 0.6666660000000206
        },
        {
          "name": "E4",
          "midi": 64,
          "time": 278.9997210000005,
          "velocity": 1,
          "duration": 0.6666660000000206
        },
        {
          "name": "C5",
          "midi": 72,
          "time": 279.9997200000005,
          "velocity": 1,
          "duration": 0.6666660000000206
        },
        {
          "name": "E4",
          "midi": 64,
          "time": 279.9997200000005,
          "velocity": 1,
          "duration": 0.6666660000000206
        },
        {
          "name": "C5",
          "midi": 72,
          "time": 280.9997190000005,
          "velocity": 1,
          "duration": 0.6666660000000206
        },
        {
          "name": "E4",
          "midi": 64,
          "time": 280.9997190000005,
          "velocity": 1,
          "duration": 0.6666660000000206
        },
        {
          "name": "E4",
          "midi": 64,
          "time": 281.9997180000005,
          "velocity": 1,
          "duration": 0.6666660000000206
        },
        {
          "name": "C5",
          "midi": 72,
          "time": 281.9997180000005,
          "velocity": 1,
          "duration": 0.6666660000000206
        },
        {
          "name": "C5",
          "midi": 72,
          "time": 282.6663840000005,
          "velocity": 1,
          "duration": 0.3333329999999819
        },
        {
          "name": "E4",
          "midi": 64,
          "time": 282.6663840000005,
          "velocity": 1,
          "duration": 0.3333329999999819
        },
        {
          "name": "C4",
          "midi": 60,
          "time": 314.9996850000005,
          "velocity": 1,
          "duration": 0.3333329999999819
        },
        {
          "name": "D#4",
          "midi": 63,
          "time": 315.3330180000005,
          "velocity": 1,
          "duration": 0.3333329999999819
        },
        {
          "name": "G4",
          "midi": 67,
          "time": 315.6663510000005,
          "velocity": 1,
          "duration": 0.3333329999999819
        },
        {
          "name": "G#4",
          "midi": 68,
          "time": 315.99968400000046,
          "velocity": 1,
          "duration": 0.6666660000000206
        },
        {
          "name": "C4",
          "midi": 60,
          "time": 316.6663500000005,
          "velocity": 1,
          "duration": 0.3333329999999819
        },
        {
          "name": "C#4",
          "midi": 61,
          "time": 316.99968300000046,
          "velocity": 1,
          "duration": 0.3333329999999819
        },
        {
          "name": "F4",
          "midi": 65,
          "time": 317.33301600000044,
          "velocity": 1,
          "duration": 0.3333329999999819
        },
        {
          "name": "A4",
          "midi": 69,
          "time": 317.6663490000004,
          "velocity": 1,
          "duration": 0.3333329999999819
        },
        {
          "name": "A#4",
          "midi": 70,
          "time": 317.9996820000004,
          "velocity": 1,
          "duration": 0.6666660000000206
        },
        {
          "name": "D4",
          "midi": 62,
          "time": 318.6663480000004,
          "velocity": 1,
          "duration": 0.3333329999999819
        },
        {
          "name": "D#4",
          "midi": 63,
          "time": 318.9996810000004,
          "velocity": 1,
          "duration": 0.3333329999999819
        },
        {
          "name": "G4",
          "midi": 67,
          "time": 319.3330140000004,
          "velocity": 1,
          "duration": 0.3333329999999819
        },
        {
          "name": "A#4",
          "midi": 70,
          "time": 319.66634700000037,
          "velocity": 1,
          "duration": 0.3333329999999819
        },
        {
          "name": "D#5",
          "midi": 75,
          "time": 319.99968000000035,
          "velocity": 1,
          "duration": 0.3333329999999819
        },
        {
          "name": "D#4",
          "midi": 63,
          "time": 319.99968000000035,
          "velocity": 1,
          "duration": 0.3333329999999819
        },
        {
          "name": "G5",
          "midi": 79,
          "time": 320.33301300000034,
          "velocity": 1,
          "duration": 0.3333329999999819
        },
        {
          "name": "G4",
          "midi": 67,
          "time": 320.33301300000034,
          "velocity": 1,
          "duration": 0.3333329999999819
        },
        {
          "name": "A#5",
          "midi": 82,
          "time": 320.6663460000003,
          "velocity": 1,
          "duration": 0.49999950000000126
        },
        {
          "name": "A#4",
          "midi": 70,
          "time": 320.6663460000003,
          "velocity": 1,
          "duration": 0.49999950000000126
        },
        {
          "name": "G#5",
          "midi": 80,
          "time": 321.1663455000003,
          "velocity": 1,
          "duration": 0.16666650000001937
        },
        {
          "name": "G#4",
          "midi": 68,
          "time": 321.1663455000003,
          "velocity": 1,
          "duration": 0.16666650000001937
        },
        {
          "name": "F5",
          "midi": 77,
          "time": 321.33301200000034,
          "velocity": 1,
          "duration": 0.16666650000001937
        },
        {
          "name": "F4",
          "midi": 65,
          "time": 321.33301200000034,
          "velocity": 1,
          "duration": 0.16666650000001937
        },
        {
          "name": "D4",
          "midi": 62,
          "time": 321.49967850000036,
          "velocity": 1,
          "duration": 0.16666650000001937
        },
        {
          "name": "D5",
          "midi": 74,
          "time": 321.49967850000036,
          "velocity": 1,
          "duration": 0.16666650000001937
        },
        {
          "name": "A#4",
          "midi": 70,
          "time": 321.6663450000004,
          "velocity": 1,
          "duration": 0.16666650000001937
        },
        {
          "name": "A#3",
          "midi": 58,
          "time": 321.6663450000004,
          "velocity": 1,
          "duration": 0.16666650000001937
        },
        {
          "name": "G#4",
          "midi": 68,
          "time": 321.8330115000004,
          "velocity": 1,
          "duration": 0.16666650000001937
        },
        {
          "name": "F4",
          "midi": 65,
          "time": 321.9996780000004,
          "velocity": 1,
          "duration": 0.16666650000001937
        },
        {
          "name": "G#4",
          "midi": 68,
          "time": 322.16634450000043,
          "velocity": 1,
          "duration": 0.16666650000001937
        },
        {
          "name": "F4",
          "midi": 65,
          "time": 322.33301100000045,
          "velocity": 1,
          "duration": 0.16666650000001937
        },
        {
          "name": "D4",
          "midi": 62,
          "time": 322.4996775000005,
          "velocity": 1,
          "duration": 0.16666650000001937
        },
        {
          "name": "A#3",
          "midi": 58,
          "time": 322.6663440000005,
          "velocity": 1,
          "duration": 0.16666650000001937
        },
        {
          "name": "D4",
          "midi": 62,
          "time": 322.8330105000005,
          "velocity": 1,
          "duration": 0.16666650000001937
        },
        {
          "name": "D#4",
          "midi": 63,
          "time": 322.99967700000053,
          "velocity": 1,
          "duration": 0.3333329999999819
        },
        {
          "name": "D#5",
          "midi": 75,
          "time": 325.3330080000005,
          "velocity": 1,
          "duration": 0.3333329999999819
        },
        {
          "name": "F#4",
          "midi": 66,
          "time": 325.3330080000005,
          "velocity": 1,
          "duration": 0.3333329999999819
        },
        {
          "name": "D5",
          "midi": 74,
          "time": 325.6663410000005,
          "velocity": 1,
          "duration": 0.3333329999999819
        },
        {
          "name": "G#4",
          "midi": 68,
          "time": 325.6663410000005,
          "velocity": 1,
          "duration": 0.3333329999999819
        },
        {
          "name": "D#5",
          "midi": 75,
          "time": 325.9996740000005,
          "velocity": 1,
          "duration": 0.49999950000000126
        },
        {
          "name": "A#4",
          "midi": 70,
          "time": 325.9996740000005,
          "velocity": 1,
          "duration": 0.49999950000000126
        },
        {
          "name": "F5",
          "midi": 77,
          "time": 326.4996735000005,
          "velocity": 1,
          "duration": 0.16666650000001937
        },
        {
          "name": "D5",
          "midi": 74,
          "time": 326.4996735000005,
          "velocity": 1,
          "duration": 0.16666650000001937
        },
        {
          "name": "D#5",
          "midi": 75,
          "time": 326.6663400000005,
          "velocity": 1,
          "duration": 0.3333329999999819
        },
        {
          "name": "F#5",
          "midi": 78,
          "time": 326.6663400000005,
          "velocity": 1,
          "duration": 0.3333329999999819
        },
        {
          "name": "F5",
          "midi": 77,
          "time": 326.9996730000005,
          "velocity": 1,
          "duration": 0.3333329999999819
        },
        {
          "name": "A#4",
          "midi": 70,
          "time": 326.9996730000005,
          "velocity": 1,
          "duration": 0.3333329999999819
        },
        {
          "name": "A#5",
          "midi": 82,
          "time": 327.33300600000047,
          "velocity": 1,
          "duration": 0.3333329999999819
        },
        {
          "name": "F5",
          "midi": 77,
          "time": 327.33300600000047,
          "velocity": 1,
          "duration": 0.3333329999999819
        },
        {
          "name": "A5",
          "midi": 81,
          "time": 327.66633900000045,
          "velocity": 1,
          "duration": 0.3333329999999819
        },
        {
          "name": "D#5",
          "midi": 75,
          "time": 327.66633900000045,
          "velocity": 1,
          "duration": 0.3333329999999819
        },
        {
          "name": "A#5",
          "midi": 82,
          "time": 327.99967200000043,
          "velocity": 1,
          "duration": 0.49999950000000126
        },
        {
          "name": "D5",
          "midi": 74,
          "time": 327.99967200000043,
          "velocity": 1,
          "duration": 0.6666660000000206
        },
        {
          "name": "G#5",
          "midi": 80,
          "time": 328.49967150000043,
          "velocity": 1,
          "duration": 0.16666650000001937
        },
        {
          "name": "F#5",
          "midi": 78,
          "time": 328.66633800000045,
          "velocity": 1,
          "duration": 0.16666650000001937
        },
        {
          "name": "D#5",
          "midi": 75,
          "time": 328.66633800000045,
          "velocity": 1,
          "duration": 0.16666650000001937
        },
        {
          "name": "F5",
          "midi": 77,
          "time": 328.83300450000047,
          "velocity": 1,
          "duration": 0.16666650000001937
        },
        {
          "name": "D#5",
          "midi": 75,
          "time": 328.9996710000005,
          "velocity": 1,
          "duration": 0.3333329999999819
        },
        {
          "name": "F#4",
          "midi": 66,
          "time": 328.9996710000005,
          "velocity": 1,
          "duration": 0.3333329999999819
        },
        {
          "name": "D#5",
          "midi": 75,
          "time": 329.33300400000047,
          "velocity": 1,
          "duration": 0.3333329999999819
        },
        {
          "name": "F5",
          "midi": 77,
          "time": 329.66633700000045,
          "velocity": 1,
          "duration": 0.3333329999999819
        },
        {
          "name": "F#5",
          "midi": 78,
          "time": 329.99967000000044,
          "velocity": 1,
          "duration": 0.49999950000000126
        },
        {
          "name": "F5",
          "midi": 77,
          "time": 330.49966950000044,
          "velocity": 1,
          "duration": 0.16666650000001937
        },
        {
          "name": "D#5",
          "midi": 75,
          "time": 330.66633600000046,
          "velocity": 1,
          "duration": 0.3333329999999819
        },
        {
          "name": "C#5",
          "midi": 73,
          "time": 330.99966900000044,
          "velocity": 1,
          "duration": 1.166665500000022
        },
        {
          "name": "B4",
          "midi": 71,
          "time": 332.16633450000046,
          "velocity": 1,
          "duration": 0.16666650000001937
        },
        {
          "name": "A#4",
          "midi": 70,
          "time": 332.3330010000005,
          "velocity": 1,
          "duration": 0.16666650000001937
        },
        {
          "name": "B4",
          "midi": 71,
          "time": 332.4996675000005,
          "velocity": 1,
          "duration": 0.16666650000001937
        },
        {
          "name": "C#5",
          "midi": 73,
          "time": 332.6663340000005,
          "velocity": 1,
          "duration": 0.16666650000001937
        },
        {
          "name": "B4",
          "midi": 71,
          "time": 332.83300050000054,
          "velocity": 1,
          "duration": 0.16666650000001937
        },
        {
          "name": "A#4",
          "midi": 70,
          "time": 332.99966700000056,
          "velocity": 1,
          "duration": 0.3333329999999819
        },
        {
          "name": "A#4",
          "midi": 70,
          "time": 341.9996580000005,
          "velocity": 1,
          "duration": 0.6666660000000206
        },
        {
          "name": "D5",
          "midi": 74,
          "time": 342.66632400000054,
          "velocity": 1,
          "duration": 0.3333329999999819
        },
        {
          "name": "A#4",
          "midi": 70,
          "time": 342.9996570000005,
          "velocity": 1,
          "duration": 0.6666660000000206
        },
        {
          "name": "F4",
          "midi": 65,
          "time": 343.66632300000055,
          "velocity": 1,
          "duration": 0.3333329999999819
        },
        {
          "name": "A#4",
          "midi": 70,
          "time": 343.9996560000005,
          "velocity": 1,
          "duration": 0.3333329999999819
        },
        {
          "name": "D5",
          "midi": 74,
          "time": 344.3329890000005,
          "velocity": 1,
          "duration": 0.3333329999999819
        },
        {
          "name": "F5",
          "midi": 77,
          "time": 344.6663220000005,
          "velocity": 1,
          "duration": 0.3333329999999819
        },
        {
          "name": "F#5",
          "midi": 78,
          "time": 344.9996550000005,
          "velocity": 1,
          "duration": 0.3333329999999819
        },
        {
          "name": "A#4",
          "midi": 70,
          "time": 345.9996540000005,
          "velocity": 1,
          "duration": 0.6666660000000206
        },
        {
          "name": "F#4",
          "midi": 66,
          "time": 345.9996540000005,
          "velocity": 1,
          "duration": 0.6666660000000206
        },
        {
          "name": "A#4",
          "midi": 70,
          "time": 346.6663200000005,
          "velocity": 1,
          "duration": 0.3333329999999819
        },
        {
          "name": "D#5",
          "midi": 75,
          "time": 346.6663200000005,
          "velocity": 1,
          "duration": 0.3333329999999819
        },
        {
          "name": "A#4",
          "midi": 70,
          "time": 346.9996530000005,
          "velocity": 1,
          "duration": 0.6666660000000206
        },
        {
          "name": "F#4",
          "midi": 66,
          "time": 346.9996530000005,
          "velocity": 1,
          "duration": 0.6666660000000206
        },
        {
          "name": "F#4",
          "midi": 66,
          "time": 347.6663190000005,
          "velocity": 1,
          "duration": 0.3333329999999819
        },
        {
          "name": "D#4",
          "midi": 63,
          "time": 347.6663190000005,
          "velocity": 1,
          "duration": 0.3333329999999819
        },
        {
          "name": "A#4",
          "midi": 70,
          "time": 347.9996520000005,
          "velocity": 1,
          "duration": 0.3333329999999819
        },
        {
          "name": "F#4",
          "midi": 66,
          "time": 347.9996520000005,
          "velocity": 1,
          "duration": 0.3333329999999819
        },
        {
          "name": "D#5",
          "midi": 75,
          "time": 348.33298500000046,
          "velocity": 1,
          "duration": 0.3333329999999819
        },
        {
          "name": "A#4",
          "midi": 70,
          "time": 348.33298500000046,
          "velocity": 1,
          "duration": 0.3333329999999819
        },
        {
          "name": "F#5",
          "midi": 78,
          "time": 348.66631800000044,
          "velocity": 1,
          "duration": 0.3333329999999819
        },
        {
          "name": "D#5",
          "midi": 75,
          "time": 348.66631800000044,
          "velocity": 1,
          "duration": 0.3333329999999819
        },
        {
          "name": "F#5",
          "midi": 78,
          "time": 348.9996510000004,
          "velocity": 1,
          "duration": 0.3333329999999819
        },
        {
          "name": "D#5",
          "midi": 75,
          "time": 348.9996510000004,
          "velocity": 1,
          "duration": 0.3333329999999819
        },
        {
          "name": "G#4",
          "midi": 68,
          "time": 349.99965000000043,
          "velocity": 1,
          "duration": 0.6666660000000206
        },
        {
          "name": "D#5",
          "midi": 75,
          "time": 350.66631600000045,
          "velocity": 1,
          "duration": 0.3333329999999819
        },
        {
          "name": "G#4",
          "midi": 68,
          "time": 350.99964900000043,
          "velocity": 1,
          "duration": 0.6666660000000206
        },
        {
          "name": "F#4",
          "midi": 66,
          "time": 351.66631500000045,
          "velocity": 1,
          "duration": 0.3333329999999819
        },
        {
          "name": "G#4",
          "midi": 68,
          "time": 351.99964800000043,
          "velocity": 1,
          "duration": 0.3333329999999819
        },
        {
          "name": "D#5",
          "midi": 75,
          "time": 352.3329810000004,
          "velocity": 1,
          "duration": 0.3333329999999819
        },
        {
          "name": "F#5",
          "midi": 78,
          "time": 352.6663140000004,
          "velocity": 1,
          "duration": 0.3333329999999819
        },
        {
          "name": "D#5",
          "midi": 75,
          "time": 352.6663140000004,
          "velocity": 1,
          "duration": 0.3333329999999819
        },
        {
          "name": "F5",
          "midi": 77,
          "time": 352.9996470000004,
          "velocity": 1,
          "duration": 0.3333329999999819
        },
        {
          "name": "C#5",
          "midi": 73,
          "time": 352.9996470000004,
          "velocity": 1,
          "duration": 0.3333329999999819
        },
        {
          "name": "C#5",
          "midi": 73,
          "time": 353.9996460000004,
          "velocity": 1,
          "duration": 0.6666660000000206
        },
        {
          "name": "G#4",
          "midi": 68,
          "time": 353.9996460000004,
          "velocity": 1,
          "duration": 0.6666660000000206
        },
        {
          "name": "G#4",
          "midi": 68,
          "time": 354.6663120000004,
          "velocity": 1,
          "duration": 0.3333329999999819
        },
        {
          "name": "F5",
          "midi": 77,
          "time": 354.6663120000004,
          "velocity": 1,
          "duration": 0.3333329999999819
        },
        {
          "name": "C#5",
          "midi": 73,
          "time": 354.9996450000004,
          "velocity": 1,
          "duration": 0.6666660000000206
        },
        {
          "name": "G#4",
          "midi": 68,
          "time": 354.9996450000004,
          "velocity": 1,
          "duration": 0.6666660000000206
        },
        {
          "name": "G#4",
          "midi": 68,
          "time": 355.6663110000004,
          "velocity": 1,
          "duration": 0.3333329999999819
        },
        {
          "name": "F4",
          "midi": 65,
          "time": 355.6663110000004,
          "velocity": 1,
          "duration": 0.3333329999999819
        },
        {
          "name": "G#4",
          "midi": 68,
          "time": 355.9996440000004,
          "velocity": 1,
          "duration": 0.3333329999999819
        },
        {
          "name": "F4",
          "midi": 65,
          "time": 355.9996440000004,
          "velocity": 1,
          "duration": 0.3333329999999819
        },
        {
          "name": "C#5",
          "midi": 73,
          "time": 356.33297700000037,
          "velocity": 1,
          "duration": 0.3333329999999819
        },
        {
          "name": "G#4",
          "midi": 68,
          "time": 356.33297700000037,
          "velocity": 1,
          "duration": 0.3333329999999819
        },
        {
          "name": "F5",
          "midi": 77,
          "time": 356.66631000000035,
          "velocity": 1,
          "duration": 0.3333329999999819
        },
        {
          "name": "C#5",
          "midi": 73,
          "time": 356.66631000000035,
          "velocity": 1,
          "duration": 0.3333329999999819
        },
        {
          "name": "F5",
          "midi": 77,
          "time": 356.99964300000033,
          "velocity": 1,
          "duration": 0.3333329999999819
        },
        {
          "name": "A#4",
          "midi": 70,
          "time": 356.99964300000033,
          "velocity": 1,
          "duration": 0.3333329999999819
        },
        {
          "name": "G#4",
          "midi": 68,
          "time": 357.99964200000034,
          "velocity": 1,
          "duration": 0.6666660000000206
        },
        {
          "name": "A#4",
          "midi": 70,
          "time": 357.99964200000034,
          "velocity": 1,
          "duration": 0.6666660000000206
        },
        {
          "name": "F5",
          "midi": 77,
          "time": 358.66630800000036,
          "velocity": 1,
          "duration": 0.3333329999999819
        },
        {
          "name": "A#4",
          "midi": 70,
          "time": 358.66630800000036,
          "velocity": 1,
          "duration": 0.3333329999999819
        },
        {
          "name": "A#4",
          "midi": 70,
          "time": 358.99964100000034,
          "velocity": 1,
          "duration": 0.6666660000000206
        },
        {
          "name": "G#4",
          "midi": 68,
          "time": 358.99964100000034,
          "velocity": 1,
          "duration": 0.6666660000000206
        },
        {
          "name": "G#4",
          "midi": 68,
          "time": 359.66630700000036,
          "velocity": 1,
          "duration": 0.3333329999999819
        },
        {
          "name": "F4",
          "midi": 65,
          "time": 359.66630700000036,
          "velocity": 1,
          "duration": 0.3333329999999819
        },
        {
          "name": "A#4",
          "midi": 70,
          "time": 359.99964000000034,
          "velocity": 1,
          "duration": 0.3333329999999819
        },
        {
          "name": "G#4",
          "midi": 68,
          "time": 359.99964000000034,
          "velocity": 1,
          "duration": 0.3333329999999819
        },
        {
          "name": "F5",
          "midi": 77,
          "time": 360.3329730000003,
          "velocity": 1,
          "duration": 0.3333329999999819
        },
        {
          "name": "A#4",
          "midi": 70,
          "time": 360.3329730000003,
          "velocity": 1,
          "duration": 0.3333329999999819
        },
        {
          "name": "G#5",
          "midi": 80,
          "time": 360.6663060000003,
          "velocity": 1,
          "duration": 0.3333329999999819
        },
        {
          "name": "F5",
          "midi": 77,
          "time": 360.6663060000003,
          "velocity": 1,
          "duration": 0.3333329999999819
        },
        {
          "name": "D#4",
          "midi": 63,
          "time": 361.9996380000003,
          "velocity": 1,
          "duration": 0.6666660000000206
        },
        {
          "name": "D#5",
          "midi": 75,
          "time": 361.9996380000003,
          "velocity": 1,
          "duration": 0.6666660000000206
        },
        {
          "name": "F#5",
          "midi": 78,
          "time": 362.6663040000003,
          "velocity": 1,
          "duration": 0.3333329999999819
        },
        {
          "name": "F#4",
          "midi": 66,
          "time": 362.6663040000003,
          "velocity": 1,
          "duration": 0.3333329999999819
        },
        {
          "name": "D#5",
          "midi": 75,
          "time": 363.9996360000003,
          "velocity": 1,
          "duration": 0.6666660000000206
        },
        {
          "name": "D#4",
          "midi": 63,
          "time": 363.9996360000003,
          "velocity": 1,
          "duration": 0.6666660000000206
        },
        {
          "name": "F#5",
          "midi": 78,
          "time": 364.6663020000003,
          "velocity": 1,
          "duration": 0.3333329999999819
        },
        {
          "name": "F#4",
          "midi": 66,
          "time": 364.6663020000003,
          "velocity": 1,
          "duration": 0.3333329999999819
        },
        {
          "name": "D#5",
          "midi": 75,
          "time": 364.9996350000003,
          "velocity": 1,
          "duration": 2.333330999999987
        },
        {
          "name": "F#4",
          "midi": 66,
          "time": 364.9996350000003,
          "velocity": 1,
          "duration": 2.333330999999987
        },
        {
          "name": "F#4",
          "midi": 66,
          "time": 367.3329660000003,
          "velocity": 1,
          "duration": 0.3333329999999819
        },
        {
          "name": "D#5",
          "midi": 75,
          "time": 367.3329660000003,
          "velocity": 1,
          "duration": 0.3333329999999819
        },
        {
          "name": "D#5",
          "midi": 75,
          "time": 367.66629900000027,
          "velocity": 1,
          "duration": 0.3333329999999819
        },
        {
          "name": "F#4",
          "midi": 66,
          "time": 367.66629900000027,
          "velocity": 1,
          "duration": 0.3333329999999819
        },
        {
          "name": "D#5",
          "midi": 75,
          "time": 367.99963200000025,
          "velocity": 1,
          "duration": 0.3333329999999819
        },
        {
          "name": "F#4",
          "midi": 66,
          "time": 367.99963200000025,
          "velocity": 1,
          "duration": 0.3333329999999819
        },
        {
          "name": "D#5",
          "midi": 75,
          "time": 368.33296500000023,
          "velocity": 1,
          "duration": 0.3333329999999819
        },
        {
          "name": "F#4",
          "midi": 66,
          "time": 368.33296500000023,
          "velocity": 1,
          "duration": 0.3333329999999819
        },
        {
          "name": "D#5",
          "midi": 75,
          "time": 368.6662980000002,
          "velocity": 1,
          "duration": 0.3333329999999819
        },
        {
          "name": "F#4",
          "midi": 66,
          "time": 368.6662980000002,
          "velocity": 1,
          "duration": 0.3333329999999819
        },
        {
          "name": "D#5",
          "midi": 75,
          "time": 368.9996310000002,
          "velocity": 1,
          "duration": 0.3333329999999819
        },
        {
          "name": "F#4",
          "midi": 66,
          "time": 368.9996310000002,
          "velocity": 1,
          "duration": 0.3333329999999819
        },
        {
          "name": "A4",
          "midi": 69,
          "time": 372.99962700000015,
          "velocity": 1,
          "duration": 0.9999990000000025
        },
        {
          "name": "A4",
          "midi": 69,
          "time": 373.99962600000015,
          "velocity": 1,
          "duration": 0.9999990000000025
        },
        {
          "name": "A4",
          "midi": 69,
          "time": 374.99962500000015,
          "velocity": 1,
          "duration": 0.9999990000000025
        },
        {
          "name": "A4",
          "midi": 69,
          "time": 375.99962400000015,
          "velocity": 1,
          "duration": 0.9999990000000025
        },
        {
          "name": "G#4",
          "midi": 68,
          "time": 376.99962300000016,
          "velocity": 1,
          "duration": 0.9999990000000025
        },
        {
          "name": "G#4",
          "midi": 68,
          "time": 377.99962200000016,
          "velocity": 1,
          "duration": 0.9999990000000025
        },
        {
          "name": "F#4",
          "midi": 66,
          "time": 378.99962100000016,
          "velocity": 1,
          "duration": 0.9999990000000025
        },
        {
          "name": "F#4",
          "midi": 66,
          "time": 379.99962000000016,
          "velocity": 1,
          "duration": 0.9999990000000025
        },
        {
          "name": "G#4",
          "midi": 68,
          "time": 380.99961900000017,
          "velocity": 1,
          "duration": 0.9999990000000025
        },
        {
          "name": "F4",
          "midi": 65,
          "time": 380.99961900000017,
          "velocity": 1,
          "duration": 0.9999990000000025
        },
        {
          "name": "G#4",
          "midi": 68,
          "time": 381.99961800000017,
          "velocity": 1,
          "duration": 0.9999990000000025
        },
        {
          "name": "F4",
          "midi": 65,
          "time": 381.99961800000017,
          "velocity": 1,
          "duration": 0.9999990000000025
        },
        {
          "name": "G#4",
          "midi": 68,
          "time": 382.99961700000017,
          "velocity": 1,
          "duration": 0.9999990000000025
        },
        {
          "name": "F4",
          "midi": 65,
          "time": 382.99961700000017,
          "velocity": 1,
          "duration": 0.9999990000000025
        },
        {
          "name": "G#4",
          "midi": 68,
          "time": 383.9996160000002,
          "velocity": 1,
          "duration": 0.9999990000000025
        },
        {
          "name": "F4",
          "midi": 65,
          "time": 383.9996160000002,
          "velocity": 1,
          "duration": 0.9999990000000025
        },
        {
          "name": "G#4",
          "midi": 68,
          "time": 386.9996130000002,
          "velocity": 1,
          "duration": 0.9999990000000025
        },
        {
          "name": "B4",
          "midi": 71,
          "time": 386.9996130000002,
          "velocity": 1,
          "duration": 0.9999990000000025
        },
        {
          "name": "B4",
          "midi": 71,
          "time": 387.9996120000002,
          "velocity": 1,
          "duration": 0.9999990000000025
        },
        {
          "name": "G#4",
          "midi": 68,
          "time": 387.9996120000002,
          "velocity": 1,
          "duration": 0.9999990000000025
        },
        {
          "name": "A#4",
          "midi": 70,
          "time": 390.9996090000002,
          "velocity": 1,
          "duration": 0.9999990000000025
        },
        {
          "name": "G#4",
          "midi": 68,
          "time": 390.9996090000002,
          "velocity": 1,
          "duration": 0.9999990000000025
        },
        {
          "name": "A#4",
          "midi": 70,
          "time": 391.9996080000002,
          "velocity": 1,
          "duration": 0.9999990000000025
        },
        {
          "name": "G#4",
          "midi": 68,
          "time": 391.9996080000002,
          "velocity": 1,
          "duration": 0.9999990000000025
        },
        {
          "name": "G#4",
          "midi": 68,
          "time": 398.9996010000002,
          "velocity": 1,
          "duration": 0.9999990000000025
        },
        {
          "name": "F4",
          "midi": 65,
          "time": 398.9996010000002,
          "velocity": 1,
          "duration": 0.9999990000000025
        },
        {
          "name": "F5",
          "midi": 77,
          "time": 399.9996000000002,
          "velocity": 1,
          "duration": 0.9999990000000025
        },
        {
          "name": "G#4",
          "midi": 68,
          "time": 399.9996000000002,
          "velocity": 1,
          "duration": 0.9999990000000025
        },
        {
          "name": "D#5",
          "midi": 75,
          "time": 400.9995990000002,
          "velocity": 1,
          "duration": 0.3333329999999819
        },
        {
          "name": "G4",
          "midi": 67,
          "time": 400.9995990000002,
          "velocity": 1,
          "duration": 0.3333329999999819
        },
        {
          "name": "F4",
          "midi": 65,
          "time": 418.9995810000002,
          "velocity": 1,
          "duration": 3.99999600000001
        },
        {
          "name": "G#4",
          "midi": 68,
          "time": 418.9995810000002,
          "velocity": 1,
          "duration": 3.99999600000001
        },
        {
          "name": "G#4",
          "midi": 68,
          "time": 422.9995770000002,
          "velocity": 1,
          "duration": 1.999998000000005
        },
        {
          "name": "F#4",
          "midi": 66,
          "time": 422.9995770000002,
          "velocity": 1,
          "duration": 1.999998000000005
        },
        {
          "name": "G#4",
          "midi": 68,
          "time": 424.9995750000002,
          "velocity": 1,
          "duration": 2.333330999999987
        },
        {
          "name": "F4",
          "midi": 65,
          "time": 424.9995750000002,
          "velocity": 1,
          "duration": 0.9999990000000025
        },
        {
          "name": "D#4",
          "midi": 63,
          "time": 425.9995740000002,
          "velocity": 1,
          "duration": 0.9999990000000025
        },
        {
          "name": "D4",
          "midi": 62,
          "time": 426.9995730000002,
          "velocity": 1,
          "duration": 0.3333329999999819
        },
        {
          "name": "C5",
          "midi": 72,
          "time": 430.6662360000002,
          "velocity": 1,
          "duration": 0.16666650000001937
        },
        {
          "name": "A#4",
          "midi": 70,
          "time": 430.8329025000002,
          "velocity": 1,
          "duration": 0.16666650000001937
        },
        {
          "name": "G#4",
          "midi": 68,
          "time": 430.99956900000024,
          "velocity": 1,
          "duration": 0.16666650000001937
        },
        {
          "name": "A#4",
          "midi": 70,
          "time": 431.16623550000025,
          "velocity": 1,
          "duration": 0.16666650000001937
        },
        {
          "name": "G#4",
          "midi": 68,
          "time": 431.3329020000003,
          "velocity": 1,
          "duration": 0.16666650000001937
        },
        {
          "name": "G4",
          "midi": 67,
          "time": 431.4995685000003,
          "velocity": 1,
          "duration": 0.16666650000001937
        },
        {
          "name": "G#4",
          "midi": 68,
          "time": 431.6662350000003,
          "velocity": 1,
          "duration": 0.16666650000001937
        },
        {
          "name": "G4",
          "midi": 67,
          "time": 431.83290150000033,
          "velocity": 1,
          "duration": 0.16666650000001937
        },
        {
          "name": "F4",
          "midi": 65,
          "time": 431.99956800000035,
          "velocity": 1,
          "duration": 0.16666650000001937
        },
        {
          "name": "D#4",
          "midi": 63,
          "time": 432.16623450000037,
          "velocity": 1,
          "duration": 0.16666650000001937
        },
        {
          "name": "D4",
          "midi": 62,
          "time": 432.3329010000004,
          "velocity": 1,
          "duration": 0.16666650000001937
        },
        {
          "name": "D#4",
          "midi": 63,
          "time": 432.4995675000004,
          "velocity": 1,
          "duration": 0.16666650000001937
        },
        {
          "name": "F4",
          "midi": 65,
          "time": 432.66623400000043,
          "velocity": 1,
          "duration": 0.16666650000001937
        },
        {
          "name": "G#4",
          "midi": 68,
          "time": 432.83290050000045,
          "velocity": 1,
          "duration": 0.16666650000001937
        },
        {
          "name": "G4",
          "midi": 67,
          "time": 432.99956700000047,
          "velocity": 1,
          "duration": 0.3333329999999819
        },
        {
          "name": "A#4",
          "midi": 70,
          "time": 433.33290000000045,
          "velocity": 1,
          "duration": 0.3333329999999819
        },
        {
          "name": "G4",
          "midi": 67,
          "time": 433.33290000000045,
          "velocity": 1,
          "duration": 0.3333329999999819
        },
        {
          "name": "A#4",
          "midi": 70,
          "time": 433.66623300000043,
          "velocity": 1,
          "duration": 0.3333329999999819
        },
        {
          "name": "G4",
          "midi": 67,
          "time": 433.66623300000043,
          "velocity": 1,
          "duration": 0.3333329999999819
        },
        {
          "name": "A#4",
          "midi": 70,
          "time": 433.9995660000004,
          "velocity": 1,
          "duration": 0.6666660000000206
        },
        {
          "name": "G4",
          "midi": 67,
          "time": 433.9995660000004,
          "velocity": 1,
          "duration": 0.6666660000000206
        },
        {
          "name": "G4",
          "midi": 67,
          "time": 434.66623200000043,
          "velocity": 1,
          "duration": 0.3333329999999819
        },
        {
          "name": "A#4",
          "midi": 70,
          "time": 434.66623200000043,
          "velocity": 1,
          "duration": 0.3333329999999819
        },
        {
          "name": "A#4",
          "midi": 70,
          "time": 434.9995650000004,
          "velocity": 1,
          "duration": 0.3333329999999819
        },
        {
          "name": "G4",
          "midi": 67,
          "time": 434.9995650000004,
          "velocity": 1,
          "duration": 0.3333329999999819
        },
        {
          "name": "A#4",
          "midi": 70,
          "time": 435.3328980000004,
          "velocity": 1,
          "duration": 0.3333329999999819
        },
        {
          "name": "G4",
          "midi": 67,
          "time": 435.3328980000004,
          "velocity": 1,
          "duration": 0.3333329999999819
        },
        {
          "name": "A#4",
          "midi": 70,
          "time": 435.6662310000004,
          "velocity": 1,
          "duration": 0.3333329999999819
        },
        {
          "name": "G4",
          "midi": 67,
          "time": 435.6662310000004,
          "velocity": 1,
          "duration": 0.3333329999999819
        },
        {
          "name": "A#4",
          "midi": 70,
          "time": 435.99956400000036,
          "velocity": 1,
          "duration": 0.6666660000000206
        },
        {
          "name": "G4",
          "midi": 67,
          "time": 435.99956400000036,
          "velocity": 1,
          "duration": 0.6666660000000206
        },
        {
          "name": "A#4",
          "midi": 70,
          "time": 436.6662300000004,
          "velocity": 1,
          "duration": 0.3333329999999819
        },
        {
          "name": "G4",
          "midi": 67,
          "time": 436.6662300000004,
          "velocity": 1,
          "duration": 0.3333329999999819
        },
        {
          "name": "C5",
          "midi": 72,
          "time": 436.99956300000036,
          "velocity": 1,
          "duration": 0.3333329999999819
        },
        {
          "name": "G#4",
          "midi": 68,
          "time": 436.99956300000036,
          "velocity": 1,
          "duration": 0.3333329999999819
        },
        {
          "name": "G#4",
          "midi": 68,
          "time": 437.33289600000035,
          "velocity": 1,
          "duration": 0.3333329999999819
        },
        {
          "name": "C5",
          "midi": 72,
          "time": 437.33289600000035,
          "velocity": 1,
          "duration": 0.3333329999999819
        },
        {
          "name": "C5",
          "midi": 72,
          "time": 437.6662290000003,
          "velocity": 1,
          "duration": 0.3333329999999819
        },
        {
          "name": "G#4",
          "midi": 68,
          "time": 437.6662290000003,
          "velocity": 1,
          "duration": 0.3333329999999819
        },
        {
          "name": "C5",
          "midi": 72,
          "time": 437.9995620000003,
          "velocity": 1,
          "duration": 0.6666660000000206
        },
        {
          "name": "G#4",
          "midi": 68,
          "time": 437.9995620000003,
          "velocity": 1,
          "duration": 0.6666660000000206
        },
        {
          "name": "C5",
          "midi": 72,
          "time": 438.66622800000033,
          "velocity": 1,
          "duration": 0.3333329999999819
        },
        {
          "name": "A4",
          "midi": 69,
          "time": 438.66622800000033,
          "velocity": 1,
          "duration": 0.3333329999999819
        },
        {
          "name": "C#5",
          "midi": 73,
          "time": 438.9995610000003,
          "velocity": 1,
          "duration": 0.9999990000000025
        },
        {
          "name": "A#4",
          "midi": 70,
          "time": 438.9995610000003,
          "velocity": 1,
          "duration": 0.9999990000000025
        },
        {
          "name": "C5",
          "midi": 72,
          "time": 439.9995600000003,
          "velocity": 1,
          "duration": 0.9999990000000025
        },
        {
          "name": "G#4",
          "midi": 68,
          "time": 439.9995600000003,
          "velocity": 1,
          "duration": 0.9999990000000025
        },
        {
          "name": "B4",
          "midi": 71,
          "time": 440.9995590000003,
          "velocity": 1,
          "duration": 1.3333319999999844
        },
        {
          "name": "G#4",
          "midi": 68,
          "time": 440.9995590000003,
          "velocity": 1,
          "duration": 1.3333319999999844
        },
        {
          "name": "A#4",
          "midi": 70,
          "time": 442.3328910000003,
          "velocity": 1,
          "duration": 0.3333329999999819
        },
        {
          "name": "G#4",
          "midi": 68,
          "time": 442.3328910000003,
          "velocity": 1,
          "duration": 0.3333329999999819
        },
        {
          "name": "A#4",
          "midi": 70,
          "time": 442.6662240000003,
          "velocity": 1,
          "duration": 0.3333329999999819
        },
        {
          "name": "G#4",
          "midi": 68,
          "time": 442.6662240000003,
          "velocity": 1,
          "duration": 0.3333329999999819
        },
        {
          "name": "A#4",
          "midi": 70,
          "time": 442.99955700000027,
          "velocity": 1,
          "duration": 0.6666660000000206
        },
        {
          "name": "G4",
          "midi": 67,
          "time": 442.99955700000027,
          "velocity": 1,
          "duration": 0.6666660000000206
        },
        {
          "name": "D#5",
          "midi": 75,
          "time": 443.6662230000003,
          "velocity": 1,
          "duration": 0.3333329999999819
        },
        {
          "name": "G4",
          "midi": 67,
          "time": 443.6662230000003,
          "velocity": 1,
          "duration": 0.3333329999999819
        },
        {
          "name": "D#5",
          "midi": 75,
          "time": 443.99955600000027,
          "velocity": 1,
          "duration": 0.6666660000000206
        },
        {
          "name": "G4",
          "midi": 67,
          "time": 443.99955600000027,
          "velocity": 1,
          "duration": 0.6666660000000206
        },
        {
          "name": "D#5",
          "midi": 75,
          "time": 444.6662220000003,
          "velocity": 1,
          "duration": 0.6666660000000206
        },
        {
          "name": "G4",
          "midi": 67,
          "time": 444.6662220000003,
          "velocity": 1,
          "duration": 0.6666660000000206
        },
        {
          "name": "D#5",
          "midi": 75,
          "time": 445.3328880000003,
          "velocity": 1,
          "duration": 0.3333329999999819
        },
        {
          "name": "G4",
          "midi": 67,
          "time": 445.3328880000003,
          "velocity": 1,
          "duration": 0.3333329999999819
        },
        {
          "name": "D#5",
          "midi": 75,
          "time": 445.6662210000003,
          "velocity": 1,
          "duration": 0.3333329999999819
        },
        {
          "name": "G4",
          "midi": 67,
          "time": 445.6662210000003,
          "velocity": 1,
          "duration": 0.3333329999999819
        },
        {
          "name": "D#5",
          "midi": 75,
          "time": 445.9995540000003,
          "velocity": 1,
          "duration": 0.6666660000000206
        },
        {
          "name": "G4",
          "midi": 67,
          "time": 445.9995540000003,
          "velocity": 1,
          "duration": 0.6666660000000206
        },
        {
          "name": "D#5",
          "midi": 75,
          "time": 446.6662200000003,
          "velocity": 1,
          "duration": 0.6666660000000206
        },
        {
          "name": "G4",
          "midi": 67,
          "time": 446.6662200000003,
          "velocity": 1,
          "duration": 0.6666660000000206
        },
        {
          "name": "D#5",
          "midi": 75,
          "time": 447.3328860000003,
          "velocity": 1,
          "duration": 0.3333329999999819
        },
        {
          "name": "G4",
          "midi": 67,
          "time": 447.3328860000003,
          "velocity": 1,
          "duration": 0.3333329999999819
        },
        {
          "name": "G4",
          "midi": 67,
          "time": 447.6662190000003,
          "velocity": 1,
          "duration": 0.3333329999999819
        },
        {
          "name": "D#5",
          "midi": 75,
          "time": 447.6662190000003,
          "velocity": 1,
          "duration": 0.3333329999999819
        },
        {
          "name": "D#5",
          "midi": 75,
          "time": 447.9995520000003,
          "velocity": 1,
          "duration": 0.6666660000000206
        },
        {
          "name": "G4",
          "midi": 67,
          "time": 447.9995520000003,
          "velocity": 1,
          "duration": 0.6666660000000206
        },
        {
          "name": "E5",
          "midi": 76,
          "time": 448.6662180000003,
          "velocity": 1,
          "duration": 0.3333329999999819
        },
        {
          "name": "G4",
          "midi": 67,
          "time": 448.6662180000003,
          "velocity": 1,
          "duration": 0.3333329999999819
        },
        {
          "name": "F5",
          "midi": 77,
          "time": 448.9995510000003,
          "velocity": 1,
          "duration": 0.9999990000000025
        },
        {
          "name": "C5",
          "midi": 72,
          "time": 448.9995510000003,
          "velocity": 1,
          "duration": 0.9999990000000025
        },
        {
          "name": "D#5",
          "midi": 75,
          "time": 449.9995500000003,
          "velocity": 1,
          "duration": 0.9999990000000025
        },
        {
          "name": "C5",
          "midi": 72,
          "time": 449.9995500000003,
          "velocity": 1,
          "duration": 0.9999990000000025
        },
        {
          "name": "D5",
          "midi": 74,
          "time": 450.9995490000003,
          "velocity": 1,
          "duration": 0.3333329999999819
        },
        {
          "name": "A#4",
          "midi": 70,
          "time": 450.9995490000003,
          "velocity": 1,
          "duration": 0.3333329999999819
        },
        {
          "name": "G#5",
          "midi": 80,
          "time": 453.3328800000003,
          "velocity": 1,
          "duration": 0.49999950000000126
        },
        {
          "name": "F5",
          "midi": 77,
          "time": 453.8328795000003,
          "velocity": 1,
          "duration": 0.16666650000001937
        },
        {
          "name": "D5",
          "midi": 74,
          "time": 453.9995460000003,
          "velocity": 1,
          "duration": 0.3333329999999819
        },
        {
          "name": "G5",
          "midi": 79,
          "time": 457.3328760000003,
          "velocity": 1,
          "duration": 0.49999950000000126
        },
        {
          "name": "D#5",
          "midi": 75,
          "time": 457.8328755000003,
          "velocity": 1,
          "duration": 0.16666650000001937
        },
        {
          "name": "A#4",
          "midi": 70,
          "time": 457.9995420000003,
          "velocity": 1,
          "duration": 0.3333329999999819
        },
        {
          "name": "B4",
          "midi": 71,
          "time": 459.3328740000003,
          "velocity": 1,
          "duration": 0.49999950000000126
        },
        {
          "name": "A#4",
          "midi": 70,
          "time": 459.8328735000003,
          "velocity": 1,
          "duration": 0.16666650000001937
        },
        {
          "name": "G#4",
          "midi": 68,
          "time": 459.9995400000003,
          "velocity": 1,
          "duration": 0.3333329999999819
        },
        {
          "name": "B4",
          "midi": 71,
          "time": 460.3328730000003,
          "velocity": 1,
          "duration": 0.49999950000000126
        },
        {
          "name": "A#4",
          "midi": 70,
          "time": 460.8328725000003,
          "velocity": 1,
          "duration": 0.16666650000001937
        },
        {
          "name": "G#4",
          "midi": 68,
          "time": 460.9995390000003,
          "velocity": 1,
          "duration": 0.3333329999999819
        },
        {
          "name": "G4",
          "midi": 67,
          "time": 462.9995370000003,
          "velocity": 1,
          "duration": 0.6666660000000206
        },
        {
          "name": "D#4",
          "midi": 63,
          "time": 462.9995370000003,
          "velocity": 1,
          "duration": 0.6666660000000206
        },
        {
          "name": "F4",
          "midi": 65,
          "time": 463.66620300000034,
          "velocity": 1,
          "duration": 0.16666650000001937
        },
        {
          "name": "G#4",
          "midi": 68,
          "time": 463.66620300000034,
          "velocity": 1,
          "duration": 0.16666650000001937
        },
        {
          "name": "A#4",
          "midi": 70,
          "time": 463.83286950000036,
          "velocity": 1,
          "duration": 0.16666650000001937
        },
        {
          "name": "G4",
          "midi": 67,
          "time": 463.83286950000036,
          "velocity": 1,
          "duration": 0.16666650000001937
        },
        {
          "name": "C5",
          "midi": 72,
          "time": 463.9995360000004,
          "velocity": 1,
          "duration": 0.3333329999999819
        },
        {
          "name": "G#4",
          "midi": 68,
          "time": 463.9995360000004,
          "velocity": 1,
          "duration": 0.3333329999999819
        },
        {
          "name": "D5",
          "midi": 74,
          "time": 464.33286900000036,
          "velocity": 1,
          "duration": 0.3333329999999819
        },
        {
          "name": "A#4",
          "midi": 70,
          "time": 464.33286900000036,
          "velocity": 1,
          "duration": 0.3333329999999819
        },
        {
          "name": "D#5",
          "midi": 75,
          "time": 464.66620200000034,
          "velocity": 1,
          "duration": 0.3333329999999819
        },
        {
          "name": "C5",
          "midi": 72,
          "time": 464.66620200000034,
          "velocity": 1,
          "duration": 0.3333329999999819
        },
        {
          "name": "D#5",
          "midi": 75,
          "time": 464.9995350000003,
          "velocity": 1,
          "duration": 0.3333329999999819
        },
        {
          "name": "C5",
          "midi": 72,
          "time": 464.9995350000003,
          "velocity": 1,
          "duration": 0.3333329999999819
        },
        {
          "name": "D#4",
          "midi": 63,
          "time": 465.4995345000003,
          "velocity": 1,
          "duration": 0.16666650000001937
        },
        {
          "name": "A#3",
          "midi": 58,
          "time": 465.4995345000003,
          "velocity": 1,
          "duration": 0.16666650000001937
        },
        {
          "name": "D4",
          "midi": 62,
          "time": 465.66620100000034,
          "velocity": 1,
          "duration": 0.16666650000001937
        },
        {
          "name": "F4",
          "midi": 65,
          "time": 465.66620100000034,
          "velocity": 1,
          "duration": 0.16666650000001937
        },
        {
          "name": "G4",
          "midi": 67,
          "time": 465.83286750000036,
          "velocity": 1,
          "duration": 0.16666650000001937
        },
        {
          "name": "D#4",
          "midi": 63,
          "time": 465.83286750000036,
          "velocity": 1,
          "duration": 0.16666650000001937
        },
        {
          "name": "G#4",
          "midi": 68,
          "time": 465.9995340000004,
          "velocity": 1,
          "duration": 0.3333329999999819
        },
        {
          "name": "F4",
          "midi": 65,
          "time": 465.9995340000004,
          "velocity": 1,
          "duration": 0.3333329999999819
        },
        {
          "name": "G#4",
          "midi": 68,
          "time": 466.33286700000036,
          "velocity": 1,
          "duration": 0.3333329999999819
        },
        {
          "name": "F4",
          "midi": 65,
          "time": 466.33286700000036,
          "velocity": 1,
          "duration": 0.3333329999999819
        },
        {
          "name": "G#4",
          "midi": 68,
          "time": 466.66620000000034,
          "velocity": 1,
          "duration": 0.3333329999999819
        },
        {
          "name": "F4",
          "midi": 65,
          "time": 466.66620000000034,
          "velocity": 1,
          "duration": 0.3333329999999819
        },
        {
          "name": "G4",
          "midi": 67,
          "time": 466.9995330000003,
          "velocity": 1,
          "duration": 0.3333329999999819
        },
        {
          "name": "D#4",
          "midi": 63,
          "time": 466.9995330000003,
          "velocity": 1,
          "duration": 0.3333329999999819
        },
        {
          "name": "D5",
          "midi": 74,
          "time": 470.9995290000003,
          "velocity": 1,
          "duration": 0.3333329999999819
        },
        {
          "name": "F4",
          "midi": 65,
          "time": 470.9995290000003,
          "velocity": 1,
          "duration": 0.3333329999999819
        },
        {
          "name": "G#4",
          "midi": 68,
          "time": 471.33286200000026,
          "velocity": 1,
          "duration": 0.3333329999999819
        },
        {
          "name": "D5",
          "midi": 74,
          "time": 471.33286200000026,
          "velocity": 1,
          "duration": 0.3333329999999819
        },
        {
          "name": "D5",
          "midi": 74,
          "time": 472.83286050000027,
          "velocity": 1,
          "duration": 0.16666650000001937
        },
        {
          "name": "G#4",
          "midi": 68,
          "time": 472.83286050000027,
          "velocity": 1,
          "duration": 0.16666650000001937
        },
        {
          "name": "D#5",
          "midi": 75,
          "time": 472.9995270000003,
          "velocity": 1,
          "duration": 0.3333329999999819
        },
        {
          "name": "G4",
          "midi": 67,
          "time": 472.9995270000003,
          "velocity": 1,
          "duration": 0.3333329999999819
        },
        {
          "name": "D#5",
          "midi": 75,
          "time": 473.33286000000027,
          "velocity": 1,
          "duration": 0.3333329999999819
        },
        {
          "name": "G4",
          "midi": 67,
          "time": 473.33286000000027,
          "velocity": 1,
          "duration": 0.3333329999999819
        },
        {
          "name": "C5",
          "midi": 72,
          "time": 474.83285850000027,
          "velocity": 1,
          "duration": 0.16666650000001937
        },
        {
          "name": "G4",
          "midi": 67,
          "time": 474.83285850000027,
          "velocity": 1,
          "duration": 0.16666650000001937
        },
        {
          "name": "C#5",
          "midi": 73,
          "time": 474.9995250000003,
          "velocity": 1,
          "duration": 0.3333329999999819
        },
        {
          "name": "G4",
          "midi": 67,
          "time": 474.9995250000003,
          "velocity": 1,
          "duration": 0.3333329999999819
        },
        {
          "name": "C#5",
          "midi": 73,
          "time": 475.3328580000003,
          "velocity": 1,
          "duration": 0.3333329999999819
        },
        {
          "name": "G4",
          "midi": 67,
          "time": 475.3328580000003,
          "velocity": 1,
          "duration": 0.3333329999999819
        },
        {
          "name": "G4",
          "midi": 67,
          "time": 476.8328565000003,
          "velocity": 1,
          "duration": 0.16666650000001937
        },
        {
          "name": "C#5",
          "midi": 73,
          "time": 476.8328565000003,
          "velocity": 1,
          "duration": 0.16666650000001937
        },
        {
          "name": "C5",
          "midi": 72,
          "time": 476.9995230000003,
          "velocity": 1,
          "duration": 0.16666650000001937
        },
        {
          "name": "G#4",
          "midi": 68,
          "time": 476.9995230000003,
          "velocity": 1,
          "duration": 0.16666650000001937
        },
        {
          "name": "A#4",
          "midi": 70,
          "time": 484.9995150000003,
          "velocity": 1,
          "duration": 2.1666645000000244
        },
        {
          "name": "A#3",
          "midi": 58,
          "time": 484.9995150000003,
          "velocity": 1,
          "duration": 2.1666645000000244
        },
        {
          "name": "A4",
          "midi": 69,
          "time": 487.16617950000034,
          "velocity": 1,
          "duration": 0.16666650000001937
        },
        {
          "name": "G#4",
          "midi": 68,
          "time": 487.33284600000036,
          "velocity": 1,
          "duration": 0.16666650000001937
        },
        {
          "name": "G4",
          "midi": 67,
          "time": 487.4995125000004,
          "velocity": 1,
          "duration": 0.16666650000001937
        },
        {
          "name": "F4",
          "midi": 65,
          "time": 487.6661790000004,
          "velocity": 1,
          "duration": 0.16666650000001937
        },
        {
          "name": "D#4",
          "midi": 63,
          "time": 487.8328455000004,
          "velocity": 1,
          "duration": 0.16666650000001937
        },
        {
          "name": "D4",
          "midi": 62,
          "time": 487.99951200000044,
          "velocity": 1,
          "duration": 0.16666650000001937
        },
        {
          "name": "C5",
          "midi": 72,
          "time": 488.16617850000046,
          "velocity": 1,
          "duration": 0.16666650000001937
        },
        {
          "name": "A#4",
          "midi": 70,
          "time": 488.3328450000005,
          "velocity": 1,
          "duration": 0.16666650000001937
        },
        {
          "name": "G#4",
          "midi": 68,
          "time": 488.4995115000005,
          "velocity": 1,
          "duration": 0.16666650000001937
        },
        {
          "name": "G4",
          "midi": 67,
          "time": 488.6661780000005,
          "velocity": 1,
          "duration": 0.16666650000001937
        },
        {
          "name": "F4",
          "midi": 65,
          "time": 488.83284450000053,
          "velocity": 1,
          "duration": 0.16666650000001937
        },
        {
          "name": "D#4",
          "midi": 63,
          "time": 488.99951100000055,
          "velocity": 1,
          "duration": 0.3333329999999819
        },
        {
          "name": "G5",
          "midi": 79,
          "time": 489.33284400000053,
          "velocity": 1,
          "duration": 0.3333329999999819
        },
        {
          "name": "A#4",
          "midi": 70,
          "time": 489.33284400000053,
          "velocity": 1,
          "duration": 0.3333329999999819
        },
        {
          "name": "G5",
          "midi": 79,
          "time": 489.6661770000005,
          "velocity": 1,
          "duration": 0.3333329999999819
        },
        {
          "name": "A#4",
          "midi": 70,
          "time": 489.6661770000005,
          "velocity": 1,
          "duration": 0.3333329999999819
        },
        {
          "name": "G5",
          "midi": 79,
          "time": 489.9995100000005,
          "velocity": 1,
          "duration": 0.3333329999999819
        },
        {
          "name": "A#4",
          "midi": 70,
          "time": 489.9995100000005,
          "velocity": 1,
          "duration": 0.3333329999999819
        },
        {
          "name": "G5",
          "midi": 79,
          "time": 490.3328430000005,
          "velocity": 1,
          "duration": 0.3333329999999819
        },
        {
          "name": "A#4",
          "midi": 70,
          "time": 490.3328430000005,
          "velocity": 1,
          "duration": 0.3333329999999819
        },
        {
          "name": "A#4",
          "midi": 70,
          "time": 490.66617600000046,
          "velocity": 1,
          "duration": 0.3333329999999819
        },
        {
          "name": "G5",
          "midi": 79,
          "time": 490.66617600000046,
          "velocity": 1,
          "duration": 0.3333329999999819
        },
        {
          "name": "G5",
          "midi": 79,
          "time": 490.99950900000044,
          "velocity": 1,
          "duration": 0.3333329999999819
        },
        {
          "name": "A#4",
          "midi": 70,
          "time": 490.99950900000044,
          "velocity": 1,
          "duration": 0.3333329999999819
        },
        {
          "name": "G5",
          "midi": 79,
          "time": 491.3328420000004,
          "velocity": 1,
          "duration": 0.3333329999999819
        },
        {
          "name": "A#4",
          "midi": 70,
          "time": 491.3328420000004,
          "velocity": 1,
          "duration": 0.3333329999999819
        },
        {
          "name": "G5",
          "midi": 79,
          "time": 491.6661750000004,
          "velocity": 1,
          "duration": 0.9999990000000025
        },
        {
          "name": "B4",
          "midi": 71,
          "time": 491.6661750000004,
          "velocity": 1,
          "duration": 0.3333329999999819
        },
        {
          "name": "C5",
          "midi": 72,
          "time": 491.9995080000004,
          "velocity": 1,
          "duration": 0.9999990000000025
        },
        {
          "name": "F5",
          "midi": 77,
          "time": 492.6661740000004,
          "velocity": 1,
          "duration": 0.3333329999999819
        },
        {
          "name": "F#5",
          "midi": 78,
          "time": 497.3328360000004,
          "velocity": 1,
          "duration": 0.3333329999999819
        },
        {
          "name": "A#4",
          "midi": 70,
          "time": 497.3328360000004,
          "velocity": 1,
          "duration": 0.3333329999999819
        },
        {
          "name": "A#4",
          "midi": 70,
          "time": 497.66616900000037,
          "velocity": 1,
          "duration": 0.3333329999999819
        },
        {
          "name": "F#5",
          "midi": 78,
          "time": 497.66616900000037,
          "velocity": 1,
          "duration": 0.3333329999999819
        },
        {
          "name": "F#5",
          "midi": 78,
          "time": 497.99950200000035,
          "velocity": 1,
          "duration": 0.3333329999999819
        },
        {
          "name": "A#4",
          "midi": 70,
          "time": 497.99950200000035,
          "velocity": 1,
          "duration": 0.3333329999999819
        },
        {
          "name": "F#5",
          "midi": 78,
          "time": 498.33283500000033,
          "velocity": 1,
          "duration": 0.3333329999999819
        },
        {
          "name": "B4",
          "midi": 71,
          "time": 498.33283500000033,
          "velocity": 1,
          "duration": 0.3333329999999819
        },
        {
          "name": "F#5",
          "midi": 78,
          "time": 498.6661680000003,
          "velocity": 1,
          "duration": 0.3333329999999819
        },
        {
          "name": "B4",
          "midi": 71,
          "time": 498.6661680000003,
          "velocity": 1,
          "duration": 0.3333329999999819
        },
        {
          "name": "F#5",
          "midi": 78,
          "time": 498.9995010000003,
          "velocity": 1,
          "duration": 0.3333329999999819
        },
        {
          "name": "B4",
          "midi": 71,
          "time": 498.9995010000003,
          "velocity": 1,
          "duration": 0.3333329999999819
        },
        {
          "name": "F#5",
          "midi": 78,
          "time": 499.3328340000003,
          "velocity": 1,
          "duration": 0.3333329999999819
        },
        {
          "name": "B4",
          "midi": 71,
          "time": 499.3328340000003,
          "velocity": 1,
          "duration": 0.3333329999999819
        },
        {
          "name": "F#5",
          "midi": 78,
          "time": 499.66616700000026,
          "velocity": 1,
          "duration": 0.3333329999999819
        },
        {
          "name": "B4",
          "midi": 71,
          "time": 499.66616700000026,
          "velocity": 1,
          "duration": 0.3333329999999819
        },
        {
          "name": "B4",
          "midi": 71,
          "time": 499.99950000000024,
          "velocity": 1,
          "duration": 0.9999990000000025
        },
        {
          "name": "F#5",
          "midi": 78,
          "time": 499.99950000000024,
          "velocity": 1,
          "duration": 0.6666660000000206
        },
        {
          "name": "F5",
          "midi": 77,
          "time": 500.66616600000026,
          "velocity": 1,
          "duration": 0.3333329999999819
        },
        {
          "name": "D#5",
          "midi": 75,
          "time": 503.33283000000023,
          "velocity": 1,
          "duration": 0.3333329999999819
        },
        {
          "name": "C5",
          "midi": 72,
          "time": 503.6661630000002,
          "velocity": 1,
          "duration": 0.3333329999999819
        },
        {
          "name": "A#4",
          "midi": 70,
          "time": 503.9994960000002,
          "velocity": 1,
          "duration": 0.6666659999999638
        },
        {
          "name": "D#4",
          "midi": 63,
          "time": 504.3328290000002,
          "velocity": 1,
          "duration": 0.3333329999999819
        },
        {
          "name": "A4",
          "midi": 69,
          "time": 504.66616200000016,
          "velocity": 1,
          "duration": 0.3333329999999819
        },
        {
          "name": "D#4",
          "midi": 63,
          "time": 504.66616200000016,
          "velocity": 1,
          "duration": 0.3333329999999819
        },
        {
          "name": "G#4",
          "midi": 68,
          "time": 504.99949500000014,
          "velocity": 1,
          "duration": 0.3333329999999819
        },
        {
          "name": "F4",
          "midi": 65,
          "time": 504.99949500000014,
          "velocity": 1,
          "duration": 0.3333329999999819
        },
        {
          "name": "G#3",
          "midi": 56,
          "time": 513.6661530000001,
          "velocity": 1,
          "duration": 0.16666650000001937
        },
        {
          "name": "F3",
          "midi": 53,
          "time": 513.6661530000001,
          "velocity": 1,
          "duration": 0.16666650000001937
        },
        {
          "name": "G3",
          "midi": 55,
          "time": 513.8328195000001,
          "velocity": 1,
          "duration": 0.16666650000001937
        },
        {
          "name": "A#3",
          "midi": 58,
          "time": 513.8328195000001,
          "velocity": 1,
          "duration": 0.16666650000001937
        },
        {
          "name": "C4",
          "midi": 60,
          "time": 513.9994860000002,
          "velocity": 1,
          "duration": 0.16666650000001937
        },
        {
          "name": "G#3",
          "midi": 56,
          "time": 513.9994860000002,
          "velocity": 1,
          "duration": 0.16666650000001937
        },
        {
          "name": "D4",
          "midi": 62,
          "time": 514.1661525000002,
          "velocity": 1,
          "duration": 0.16666650000001937
        },
        {
          "name": "A#3",
          "midi": 58,
          "time": 514.1661525000002,
          "velocity": 1,
          "duration": 0.16666650000001937
        },
        {
          "name": "D#4",
          "midi": 63,
          "time": 514.3328190000002,
          "velocity": 1,
          "duration": 0.16666650000001937
        },
        {
          "name": "C4",
          "midi": 60,
          "time": 514.3328190000002,
          "velocity": 1,
          "duration": 0.16666650000001937
        },
        {
          "name": "F4",
          "midi": 65,
          "time": 514.4994855000002,
          "velocity": 1,
          "duration": 0.16666650000001937
        },
        {
          "name": "D4",
          "midi": 62,
          "time": 514.4994855000002,
          "velocity": 1,
          "duration": 0.16666650000001937
        },
        {
          "name": "G4",
          "midi": 67,
          "time": 514.6661520000002,
          "velocity": 1,
          "duration": 0.16666650000001937
        },
        {
          "name": "D#4",
          "midi": 63,
          "time": 514.6661520000002,
          "velocity": 1,
          "duration": 0.16666650000001937
        },
        {
          "name": "G#4",
          "midi": 68,
          "time": 514.8328185000003,
          "velocity": 1,
          "duration": 0.16666650000001937
        },
        {
          "name": "F4",
          "midi": 65,
          "time": 514.8328185000003,
          "velocity": 1,
          "duration": 0.16666650000001937
        },
        {
          "name": "G4",
          "midi": 67,
          "time": 514.9994850000003,
          "velocity": 1,
          "duration": 0.33333300000003874
        },
        {
          "name": "A#4",
          "midi": 70,
          "time": 514.9994850000003,
          "velocity": 1,
          "duration": 0.33333300000003874
        },
        {
          "name": "A#4",
          "midi": 70,
          "time": 515.3328180000003,
          "velocity": 1,
          "duration": 0.6666659999999638
        },
        {
          "name": "G4",
          "midi": 67,
          "time": 515.3328180000003,
          "velocity": 1,
          "duration": 0.6666659999999638
        },
        {
          "name": "A#4",
          "midi": 70,
          "time": 516.3328170000003,
          "velocity": 1,
          "duration": 0.6666659999999638
        },
        {
          "name": "G4",
          "midi": 67,
          "time": 516.3328170000003,
          "velocity": 1,
          "duration": 0.6666659999999638
        },
        {
          "name": "A#4",
          "midi": 70,
          "time": 517.3328160000003,
          "velocity": 1,
          "duration": 0.6666659999999638
        },
        {
          "name": "G#4",
          "midi": 68,
          "time": 517.3328160000003,
          "velocity": 1,
          "duration": 0.6666659999999638
        },
        {
          "name": "A#4",
          "midi": 70,
          "time": 518.3328150000003,
          "velocity": 1,
          "duration": 0.33333300000003874
        },
        {
          "name": "F4",
          "midi": 65,
          "time": 518.3328150000003,
          "velocity": 1,
          "duration": 0.33333300000003874
        },
        {
          "name": "A#4",
          "midi": 70,
          "time": 518.6661480000004,
          "velocity": 1,
          "duration": 0.33333300000003874
        },
        {
          "name": "F4",
          "midi": 65,
          "time": 518.6661480000004,
          "velocity": 1,
          "duration": 0.33333300000003874
        },
        {
          "name": "A#4",
          "midi": 70,
          "time": 518.9994810000004,
          "velocity": 1,
          "duration": 0.33333300000003874
        },
        {
          "name": "G4",
          "midi": 67,
          "time": 518.9994810000004,
          "velocity": 1,
          "duration": 0.33333300000003874
        },
        {
          "name": "F4",
          "midi": 65,
          "time": 520.9994790000004,
          "velocity": 1,
          "duration": 0.33333300000003874
        },
        {
          "name": "F5",
          "midi": 77,
          "time": 520.9994790000004,
          "velocity": 1,
          "duration": 0.33333300000003874
        },
        {
          "name": "G#5",
          "midi": 80,
          "time": 521.3328120000004,
          "velocity": 1,
          "duration": 0.4999994999999444
        },
        {
          "name": "G#4",
          "midi": 68,
          "time": 521.3328120000004,
          "velocity": 1,
          "duration": 0.4999994999999444
        },
        {
          "name": "A#4",
          "midi": 70,
          "time": 521.8328115000004,
          "velocity": 1,
          "duration": 0.16666650000001937
        },
        {
          "name": "A#3",
          "midi": 58,
          "time": 521.8328115000004,
          "velocity": 1,
          "duration": 0.16666650000001937
        },
        {
          "name": "D5",
          "midi": 74,
          "time": 521.9994780000004,
          "velocity": 1,
          "duration": 0.33333300000003874
        },
        {
          "name": "D4",
          "midi": 62,
          "time": 521.9994780000004,
          "velocity": 1,
          "duration": 0.33333300000003874
        },
        {
          "name": "F5",
          "midi": 77,
          "time": 522.3328110000004,
          "velocity": 1,
          "duration": 0.4999994999999444
        },
        {
          "name": "F4",
          "midi": 65,
          "time": 522.3328110000004,
          "velocity": 1,
          "duration": 0.4999994999999444
        },
        {
          "name": "A#4",
          "midi": 70,
          "time": 522.8328105000004,
          "velocity": 1,
          "duration": 0.16666650000001937
        },
        {
          "name": "A#3",
          "midi": 58,
          "time": 522.8328105000004,
          "velocity": 1,
          "duration": 0.16666650000001937
        },
        {
          "name": "D#5",
          "midi": 75,
          "time": 522.9994770000004,
          "velocity": 1,
          "duration": 1.3333320000000413
        },
        {
          "name": "A#4",
          "midi": 70,
          "time": 522.9994770000004,
          "velocity": 1,
          "duration": 0.8333324999999832
        },
        {
          "name": "A4",
          "midi": 69,
          "time": 523.8328095000004,
          "velocity": 1,
          "duration": 0.16666650000001937
        },
        {
          "name": "A#4",
          "midi": 70,
          "time": 523.9994760000004,
          "velocity": 1,
          "duration": 0.33333300000003874
        },
        {
          "name": "B4",
          "midi": 71,
          "time": 527.8328055000004,
          "velocity": 1,
          "duration": 0.16666650000001937
        },
        {
          "name": "G4",
          "midi": 67,
          "time": 527.8328055000004,
          "velocity": 1,
          "duration": 0.16666650000001937
        },
        {
          "name": "C5",
          "midi": 72,
          "time": 527.9994720000004,
          "velocity": 1,
          "duration": 0.16666650000001937
        },
        {
          "name": "G4",
          "midi": 67,
          "time": 527.9994720000004,
          "velocity": 1,
          "duration": 0.16666650000001937
        },
        {
          "name": "D5",
          "midi": 74,
          "time": 528.1661385000004,
          "velocity": 1,
          "duration": 0.16666650000001937
        },
        {
          "name": "G4",
          "midi": 67,
          "time": 528.1661385000004,
          "velocity": 1,
          "duration": 0.16666650000001937
        },
        {
          "name": "D#5",
          "midi": 75,
          "time": 528.3328050000005,
          "velocity": 1,
          "duration": 0.16666650000001937
        },
        {
          "name": "G4",
          "midi": 67,
          "time": 528.3328050000005,
          "velocity": 1,
          "duration": 0.16666650000001937
        },
        {
          "name": "E5",
          "midi": 76,
          "time": 528.4994715000005,
          "velocity": 1,
          "duration": 0.16666650000001937
        },
        {
          "name": "C5",
          "midi": 72,
          "time": 528.4994715000005,
          "velocity": 1,
          "duration": 0.16666650000001937
        },
        {
          "name": "C5",
          "midi": 72,
          "time": 528.6661380000005,
          "velocity": 1,
          "duration": 0.16666650000001937
        },
        {
          "name": "F5",
          "midi": 77,
          "time": 528.6661380000005,
          "velocity": 1,
          "duration": 0.16666650000001937
        },
        {
          "name": "F#5",
          "midi": 78,
          "time": 528.8328045000005,
          "velocity": 1,
          "duration": 0.16666650000001937
        },
        {
          "name": "C5",
          "midi": 72,
          "time": 528.8328045000005,
          "velocity": 1,
          "duration": 0.16666650000001937
        },
        {
          "name": "G5",
          "midi": 79,
          "time": 528.9994710000005,
          "velocity": 1,
          "duration": 0.33333300000003874
        },
        {
          "name": "B4",
          "midi": 71,
          "time": 528.9994710000005,
          "velocity": 1,
          "duration": 0.33333300000003874
        },
        {
          "name": "F5",
          "midi": 77,
          "time": 529.3328040000006,
          "velocity": 1,
          "duration": 0.33333300000003874
        },
        {
          "name": "D5",
          "midi": 74,
          "time": 529.3328040000006,
          "velocity": 1,
          "duration": 0.33333300000003874
        },
        {
          "name": "D#5",
          "midi": 75,
          "time": 529.6661370000006,
          "velocity": 1,
          "duration": 0.33333300000003874
        },
        {
          "name": "C5",
          "midi": 72,
          "time": 529.6661370000006,
          "velocity": 1,
          "duration": 0.33333300000003874
        },
        {
          "name": "C#5",
          "midi": 73,
          "time": 530.3328030000007,
          "velocity": 1,
          "duration": 0.33333300000003874
        },
        {
          "name": "A#4",
          "midi": 70,
          "time": 530.3328030000007,
          "velocity": 1,
          "duration": 0.33333300000003874
        },
        {
          "name": "C5",
          "midi": 72,
          "time": 530.6661360000007,
          "velocity": 1,
          "duration": 0.33333300000003874
        },
        {
          "name": "G#4",
          "midi": 68,
          "time": 530.6661360000007,
          "velocity": 1,
          "duration": 0.33333300000003874
        },
        {
          "name": "C5",
          "midi": 72,
          "time": 531.3328020000008,
          "velocity": 1,
          "duration": 0.33333300000003874
        },
        {
          "name": "D#5",
          "midi": 75,
          "time": 531.3328020000008,
          "velocity": 1,
          "duration": 0.33333300000003874
        },
        {
          "name": "D5",
          "midi": 74,
          "time": 531.6661350000008,
          "velocity": 1,
          "duration": 0.33333300000003874
        },
        {
          "name": "A#4",
          "midi": 70,
          "time": 531.6661350000008,
          "velocity": 1,
          "duration": 0.33333300000003874
        },
        {
          "name": "F5",
          "midi": 77,
          "time": 532.3328010000009,
          "velocity": 1,
          "duration": 0.33333300000003874
        },
        {
          "name": "D5",
          "midi": 74,
          "time": 532.3328010000009,
          "velocity": 1,
          "duration": 0.33333300000003874
        },
        {
          "name": "D#5",
          "midi": 75,
          "time": 532.666134000001,
          "velocity": 1,
          "duration": 0.33333300000003874
        },
        {
          "name": "C5",
          "midi": 72,
          "time": 532.666134000001,
          "velocity": 1,
          "duration": 0.33333300000003874
        },
        {
          "name": "C#5",
          "midi": 73,
          "time": 533.332800000001,
          "velocity": 1,
          "duration": 0.33333300000003874
        },
        {
          "name": "A#4",
          "midi": 70,
          "time": 533.332800000001,
          "velocity": 1,
          "duration": 0.33333300000003874
        },
        {
          "name": "C5",
          "midi": 72,
          "time": 533.6661330000011,
          "velocity": 1,
          "duration": 0.33333300000003874
        },
        {
          "name": "G#4",
          "midi": 68,
          "time": 533.6661330000011,
          "velocity": 1,
          "duration": 0.33333300000003874
        },
        {
          "name": "D#5",
          "midi": 75,
          "time": 534.3327990000012,
          "velocity": 1,
          "duration": 0.33333300000003874
        },
        {
          "name": "F#4",
          "midi": 66,
          "time": 534.3327990000012,
          "velocity": 1,
          "duration": 0.33333300000003874
        },
        {
          "name": "F#4",
          "midi": 66,
          "time": 534.9994650000012,
          "velocity": 1,
          "duration": 0.33333300000003874
        },
        {
          "name": "D#5",
          "midi": 75,
          "time": 534.9994650000012,
          "velocity": 1,
          "duration": 0.33333300000003874
        },
        {
          "name": "D#5",
          "midi": 75,
          "time": 535.6661310000013,
          "velocity": 1,
          "duration": 0.33333300000003874
        },
        {
          "name": "F#4",
          "midi": 66,
          "time": 535.6661310000013,
          "velocity": 1,
          "duration": 0.33333300000003874
        },
        {
          "name": "D#5",
          "midi": 75,
          "time": 536.3327970000014,
          "velocity": 1,
          "duration": 0.33333300000003874
        },
        {
          "name": "F#4",
          "midi": 66,
          "time": 536.3327970000014,
          "velocity": 1,
          "duration": 0.33333300000003874
        },
        {
          "name": "D#5",
          "midi": 75,
          "time": 536.9994630000015,
          "velocity": 1,
          "duration": 0.33333300000003874
        },
        {
          "name": "F#4",
          "midi": 66,
          "time": 536.9994630000015,
          "velocity": 1,
          "duration": 0.33333300000003874
        },
        {
          "name": "D#5",
          "midi": 75,
          "time": 537.6661290000015,
          "velocity": 1,
          "duration": 0.33333300000003874
        },
        {
          "name": "F#4",
          "midi": 66,
          "time": 537.6661290000015,
          "velocity": 1,
          "duration": 0.33333300000003874
        },
        {
          "name": "A4",
          "midi": 69,
          "time": 538.9994610000016,
          "velocity": 1,
          "duration": 0.9999990000000025
        },
        {
          "name": "D#4",
          "midi": 63,
          "time": 538.9994610000016,
          "velocity": 1,
          "duration": 1.999998000000005
        },
        {
          "name": "A#4",
          "midi": 70,
          "time": 539.9994600000016,
          "velocity": 1,
          "duration": 0.9999990000000025
        },
        {
          "name": "D#4",
          "midi": 63,
          "time": 540.9994590000016,
          "velocity": 1,
          "duration": 1.9999980000001187
        },
        {
          "name": "A4",
          "midi": 69,
          "time": 540.9994590000016,
          "velocity": 1,
          "duration": 1.3333320000000413
        },
        {
          "name": "G#4",
          "midi": 68,
          "time": 542.3327910000016,
          "velocity": 1,
          "duration": 0.33333300000003874
        },
        {
          "name": "G#4",
          "midi": 68,
          "time": 542.6661240000017,
          "velocity": 1,
          "duration": 0.33333300000003874
        },
        {
          "name": "G#4",
          "midi": 68,
          "time": 543.3327900000018,
          "velocity": 1,
          "duration": 0.33333300000003874
        },
        {
          "name": "A#4",
          "midi": 70,
          "time": 543.9994560000018,
          "velocity": 1,
          "duration": 0.33333300000003874
        },
        {
          "name": "G#4",
          "midi": 68,
          "time": 543.9994560000018,
          "velocity": 1,
          "duration": 0.33333300000003874
        },
        {
          "name": "A#4",
          "midi": 70,
          "time": 544.6661220000019,
          "velocity": 1,
          "duration": 0.33333300000003874
        },
        {
          "name": "G#4",
          "midi": 68,
          "time": 544.6661220000019,
          "velocity": 1,
          "duration": 0.33333300000003874
        },
        {
          "name": "G4",
          "midi": 67,
          "time": 545.332788000002,
          "velocity": 1,
          "duration": 0.33333300000003874
        },
        {
          "name": "A#4",
          "midi": 70,
          "time": 545.332788000002,
          "velocity": 1,
          "duration": 0.33333300000003874
        },
        {
          "name": "C5",
          "midi": 72,
          "time": 547.499452500002,
          "velocity": 1,
          "duration": 0.16666650000001937
        },
        {
          "name": "G#4",
          "midi": 68,
          "time": 547.499452500002,
          "velocity": 1,
          "duration": 0.16666650000001937
        },
        {
          "name": "A#4",
          "midi": 70,
          "time": 547.666119000002,
          "velocity": 1,
          "duration": 0.16666650000001937
        },
        {
          "name": "G4",
          "midi": 67,
          "time": 547.666119000002,
          "velocity": 1,
          "duration": 0.16666650000001937
        },
        {
          "name": "G#4",
          "midi": 68,
          "time": 547.832785500002,
          "velocity": 1,
          "duration": 0.16666650000001937
        },
        {
          "name": "F4",
          "midi": 65,
          "time": 547.832785500002,
          "velocity": 1,
          "duration": 0.16666650000001937
        },
        {
          "name": "G4",
          "midi": 67,
          "time": 547.9994520000021,
          "velocity": 1,
          "duration": 0.16666650000001937
        },
        {
          "name": "D#4",
          "midi": 63,
          "time": 547.9994520000021,
          "velocity": 1,
          "duration": 0.16666650000001937
        },
        {
          "name": "D#4",
          "midi": 63,
          "time": 548.1661185000021,
          "velocity": 1,
          "duration": 0.16666650000001937
        },
        {
          "name": "G4",
          "midi": 67,
          "time": 548.3327850000021,
          "velocity": 1,
          "duration": 0.16666650000001937
        },
        {
          "name": "D#4",
          "midi": 63,
          "time": 548.3327850000021,
          "velocity": 1,
          "duration": 0.16666650000001937
        },
        {
          "name": "G4",
          "midi": 67,
          "time": 548.4994515000021,
          "velocity": 1,
          "duration": 0.16666650000001937
        },
        {
          "name": "A#4",
          "midi": 70,
          "time": 548.4994515000021,
          "velocity": 1,
          "duration": 0.16666650000001937
        },
        {
          "name": "D#5",
          "midi": 75,
          "time": 548.6661180000021,
          "velocity": 1,
          "duration": 0.16666650000001937
        },
        {
          "name": "G4",
          "midi": 67,
          "time": 548.6661180000021,
          "velocity": 1,
          "duration": 0.16666650000001937
        },
        {
          "name": "G5",
          "midi": 79,
          "time": 548.8327845000022,
          "velocity": 1,
          "duration": 0.16666650000001937
        },
        {
          "name": "A#4",
          "midi": 70,
          "time": 548.8327845000022,
          "velocity": 1,
          "duration": 0.16666650000001937
        },
        {
          "name": "D5",
          "midi": 74,
          "time": 548.9994510000022,
          "velocity": 1,
          "duration": 0.9999990000000025
        },
        {
          "name": "G#4",
          "midi": 68,
          "time": 548.9994510000022,
          "velocity": 1,
          "duration": 0.9999990000000025
        },
        {
          "name": "D#5",
          "midi": 75,
          "time": 549.9994500000022,
          "velocity": 1,
          "duration": 0.33333300000003874
        },
        {
          "name": "G4",
          "midi": 67,
          "time": 549.9994500000022,
          "velocity": 1,
          "duration": 0.33333300000003874
        },
        {
          "name": "D#5",
          "midi": 75,
          "time": 550.9994490000022,
          "velocity": 1,
          "duration": 0.33333300000003874
        },
        {
          "name": "D#5",
          "midi": 75,
          "time": 551.9994480000022,
          "velocity": 1,
          "duration": 0.33333300000003874
        },
        {
          "name": "F4",
          "midi": 65,
          "time": 552.9994470000022,
          "velocity": 1,
          "duration": 0.33333300000003874
        },
        {
          "name": "D5",
          "midi": 74,
          "time": 552.9994470000022,
          "velocity": 1,
          "duration": 0.33333300000003874
        },
        {
          "name": "D5",
          "midi": 74,
          "time": 553.3327800000022,
          "velocity": 1,
          "duration": 0.33333300000003874
        },
        {
          "name": "F4",
          "midi": 65,
          "time": 553.3327800000022,
          "velocity": 1,
          "duration": 0.33333300000003874
        },
        {
          "name": "D5",
          "midi": 74,
          "time": 553.6661130000023,
          "velocity": 1,
          "duration": 0.33333300000003874
        },
        {
          "name": "F4",
          "midi": 65,
          "time": 553.6661130000023,
          "velocity": 1,
          "duration": 0.33333300000003874
        },
        {
          "name": "D#5",
          "midi": 75,
          "time": 553.9994460000023,
          "velocity": 1,
          "duration": 0.33333300000003874
        },
        {
          "name": "G4",
          "midi": 67,
          "time": 553.9994460000023,
          "velocity": 1,
          "duration": 0.33333300000003874
        },
        {
          "name": "D#4",
          "midi": 63,
          "time": 555.4994445000024,
          "velocity": 1,
          "duration": 0.16666650000001937
        },
        {
          "name": "G4",
          "midi": 67,
          "time": 555.6661110000024,
          "velocity": 1,
          "duration": 0.16666650000001937
        },
        {
          "name": "A#4",
          "midi": 70,
          "time": 555.8327775000024,
          "velocity": 1,
          "duration": 0.16666650000001937
        },
        {
          "name": "D#5",
          "midi": 75,
          "time": 555.9994440000024,
          "velocity": 1,
          "duration": 0.6666659999999638
        },
        {
          "name": "G5",
          "midi": 79,
          "time": 556.6661100000024,
          "velocity": 1,
          "duration": 0.33333300000003874
        },
        {
          "name": "D#5",
          "midi": 75,
          "time": 556.9994430000024,
          "velocity": 1,
          "duration": 0.6666659999999638
        },
        {
          "name": "A#4",
          "midi": 70,
          "time": 557.6661090000024,
          "velocity": 1,
          "duration": 0.33333300000003874
        },
        {
          "name": "D#5",
          "midi": 75,
          "time": 557.9994420000024,
          "velocity": 1,
          "duration": 0.33333300000003874
        },
        {
          "name": "C#5",
          "midi": 73,
          "time": 559.9994400000024,
          "velocity": 1,
          "duration": 2.333331000000044
        },
        {
          "name": "F4",
          "midi": 65,
          "time": 559.9994400000024,
          "velocity": 1,
          "duration": 1.999998000000005
        },
        {
          "name": "C#4",
          "midi": 61,
          "time": 561.9994380000024,
          "velocity": 1,
          "duration": 0.33333300000003874
        },
        {
          "name": "C5",
          "midi": 72,
          "time": 563.9994360000024,
          "velocity": 1,
          "duration": 2.333331000000044
        },
        {
          "name": "E4",
          "midi": 64,
          "time": 563.9994360000024,
          "velocity": 1,
          "duration": 2.333331000000044
        },
        {
          "name": "C4",
          "midi": 60,
          "time": 575.9994240000025,
          "velocity": 1,
          "duration": 4.333329000000049
        },
        {
          "name": "C5",
          "midi": 72,
          "time": 575.9994240000025,
          "velocity": 1,
          "duration": 4.333329000000049
        },
        {
          "name": "G#4",
          "midi": 68,
          "time": 584.3327490000025,
          "velocity": 1,
          "duration": 0.33333300000003874
        },
        {
          "name": "A#4",
          "midi": 70,
          "time": 584.6660820000026,
          "velocity": 1,
          "duration": 0.33333300000003874
        },
        {
          "name": "C5",
          "midi": 72,
          "time": 584.9994150000026,
          "velocity": 1,
          "duration": 0.4999994999999444
        },
        {
          "name": "A#4",
          "midi": 70,
          "time": 585.4994145000026,
          "velocity": 1,
          "duration": 0.16666650000001937
        },
        {
          "name": "G#4",
          "midi": 68,
          "time": 585.6660810000026,
          "velocity": 1,
          "duration": 0.33333300000003874
        },
        {
          "name": "G4",
          "midi": 67,
          "time": 585.9994140000026,
          "velocity": 1,
          "duration": 0.33333300000003874
        },
        {
          "name": "C5",
          "midi": 72,
          "time": 586.3327470000027,
          "velocity": 1,
          "duration": 0.33333300000003874
        },
        {
          "name": "C5",
          "midi": 72,
          "time": 586.6660800000027,
          "velocity": 1,
          "duration": 0.33333300000003874
        },
        {
          "name": "C5",
          "midi": 72,
          "time": 586.9994130000027,
          "velocity": 1,
          "duration": 0.8333324999999832
        },
        {
          "name": "A#4",
          "midi": 70,
          "time": 587.8327455000027,
          "velocity": 1,
          "duration": 0.16666650000001937
        },
        {
          "name": "G#4",
          "midi": 68,
          "time": 587.9994120000027,
          "velocity": 1,
          "duration": 0.33333300000003874
        },
        {
          "name": "G#4",
          "midi": 68,
          "time": 588.3327450000028,
          "velocity": 1,
          "duration": 0.33333300000003874
        },
        {
          "name": "A#4",
          "midi": 70,
          "time": 588.6660780000028,
          "velocity": 1,
          "duration": 0.33333300000003874
        },
        {
          "name": "C5",
          "midi": 72,
          "time": 588.9994110000029,
          "velocity": 1,
          "duration": 0.4999994999999444
        },
        {
          "name": "A#4",
          "midi": 70,
          "time": 589.4994105000028,
          "velocity": 1,
          "duration": 0.16666650000001937
        },
        {
          "name": "G#4",
          "midi": 68,
          "time": 589.6660770000028,
          "velocity": 1,
          "duration": 0.33333300000003874
        },
        {
          "name": "A#3",
          "midi": 58,
          "time": 590.9994090000029,
          "velocity": 1,
          "duration": 1.3333320000000413
        },
        {
          "name": "A#4",
          "midi": 70,
          "time": 590.9994090000029,
          "velocity": 1,
          "duration": 1.3333320000000413
        },
        {
          "name": "D#5",
          "midi": 75,
          "time": 592.3327410000029,
          "velocity": 1,
          "duration": 0.33333300000003874
        },
        {
          "name": "F#4",
          "midi": 66,
          "time": 592.3327410000029,
          "velocity": 1,
          "duration": 0.33333300000003874
        },
        {
          "name": "D5",
          "midi": 74,
          "time": 592.6660740000029,
          "velocity": 1,
          "duration": 0.33333300000003874
        },
        {
          "name": "G#4",
          "midi": 68,
          "time": 592.6660740000029,
          "velocity": 1,
          "duration": 0.33333300000003874
        },
        {
          "name": "D#5",
          "midi": 75,
          "time": 592.999407000003,
          "velocity": 1,
          "duration": 0.4999994999999444
        },
        {
          "name": "A#4",
          "midi": 70,
          "time": 592.999407000003,
          "velocity": 1,
          "duration": 0.4999994999999444
        },
        {
          "name": "F5",
          "midi": 77,
          "time": 593.4994065000029,
          "velocity": 1,
          "duration": 0.16666650000001937
        },
        {
          "name": "D5",
          "midi": 74,
          "time": 593.4994065000029,
          "velocity": 1,
          "duration": 0.16666650000001937
        },
        {
          "name": "F#5",
          "midi": 78,
          "time": 593.6660730000029,
          "velocity": 1,
          "duration": 0.33333300000003874
        },
        {
          "name": "D#5",
          "midi": 75,
          "time": 593.6660730000029,
          "velocity": 1,
          "duration": 0.33333300000003874
        },
        {
          "name": "A#4",
          "midi": 70,
          "time": 593.999406000003,
          "velocity": 1,
          "duration": 0.33333300000003874
        },
        {
          "name": "F5",
          "midi": 77,
          "time": 593.999406000003,
          "velocity": 1,
          "duration": 0.33333300000003874
        },
        {
          "name": "A#5",
          "midi": 82,
          "time": 594.332739000003,
          "velocity": 1,
          "duration": 0.33333300000003874
        },
        {
          "name": "F5",
          "midi": 77,
          "time": 594.332739000003,
          "velocity": 1,
          "duration": 0.33333300000003874
        },
        {
          "name": "A5",
          "midi": 81,
          "time": 594.666072000003,
          "velocity": 1,
          "duration": 0.33333300000003874
        },
        {
          "name": "D#5",
          "midi": 75,
          "time": 594.666072000003,
          "velocity": 1,
          "duration": 0.33333300000003874
        },
        {
          "name": "A#5",
          "midi": 82,
          "time": 594.9994050000031,
          "velocity": 1,
          "duration": 0.4999994999999444
        },
        {
          "name": "D5",
          "midi": 74,
          "time": 594.9994050000031,
          "velocity": 1,
          "duration": 0.6666659999999638
        },
        {
          "name": "G#5",
          "midi": 80,
          "time": 595.499404500003,
          "velocity": 1,
          "duration": 0.16666650000001937
        },
        {
          "name": "F#5",
          "midi": 78,
          "time": 595.6660710000031,
          "velocity": 1,
          "duration": 0.16666650000001937
        },
        {
          "name": "D#5",
          "midi": 75,
          "time": 595.6660710000031,
          "velocity": 1,
          "duration": 0.16666650000001937
        },
        {
          "name": "F5",
          "midi": 77,
          "time": 595.8327375000031,
          "velocity": 1,
          "duration": 0.16666650000001937
        },
        {
          "name": "A#4",
          "midi": 70,
          "time": 595.8327375000031,
          "velocity": 1,
          "duration": 0.16666650000001937
        },
        {
          "name": "F#4",
          "midi": 66,
          "time": 595.9994040000031,
          "velocity": 1,
          "duration": 0.33333300000003874
        },
        {
          "name": "D#5",
          "midi": 75,
          "time": 595.9994040000031,
          "velocity": 1,
          "duration": 0.33333300000003874
        },
        {
          "name": "D#5",
          "midi": 75,
          "time": 596.3327370000031,
          "velocity": 1,
          "duration": 0.33333300000003874
        },
        {
          "name": "F#4",
          "midi": 66,
          "time": 596.3327370000031,
          "velocity": 1,
          "duration": 0.33333300000003874
        },
        {
          "name": "D5",
          "midi": 74,
          "time": 596.6660700000032,
          "velocity": 1,
          "duration": 0.33333300000003874
        },
        {
          "name": "G#4",
          "midi": 68,
          "time": 596.6660700000032,
          "velocity": 1,
          "duration": 0.33333300000003874
        },
        {
          "name": "D#5",
          "midi": 75,
          "time": 596.9994030000032,
          "velocity": 1,
          "duration": 0.4999994999999444
        },
        {
          "name": "A#4",
          "midi": 70,
          "time": 596.9994030000032,
          "velocity": 1,
          "duration": 0.4999994999999444
        },
        {
          "name": "F5",
          "midi": 77,
          "time": 597.4994025000032,
          "velocity": 1,
          "duration": 0.16666650000001937
        },
        {
          "name": "D5",
          "midi": 74,
          "time": 597.4994025000032,
          "velocity": 1,
          "duration": 0.16666650000001937
        },
        {
          "name": "F#5",
          "midi": 78,
          "time": 597.6660690000032,
          "velocity": 1,
          "duration": 0.33333300000003874
        },
        {
          "name": "D#5",
          "midi": 75,
          "time": 597.6660690000032,
          "velocity": 1,
          "duration": 0.33333300000003874
        },
        {
          "name": "F5",
          "midi": 77,
          "time": 597.9994020000032,
          "velocity": 1,
          "duration": 0.33333300000003874
        },
        {
          "name": "D5",
          "midi": 74,
          "time": 597.9994020000032,
          "velocity": 1,
          "duration": 0.33333300000003874
        },
        {
          "name": "C5",
          "midi": 72,
          "time": 611.9993880000033,
          "velocity": 1,
          "duration": 1.6666649999999663
        },
        {
          "name": "C#5",
          "midi": 73,
          "time": 613.6660530000032,
          "velocity": 1,
          "duration": 0.33333300000003874
        },
        {
          "name": "D5",
          "midi": 74,
          "time": 613.9993860000033,
          "velocity": 1,
          "duration": 1.3333320000000413
        },
        {
          "name": "D5",
          "midi": 74,
          "time": 615.3327180000033,
          "velocity": 1,
          "duration": 0.33333300000003874
        },
        {
          "name": "A#4",
          "midi": 70,
          "time": 615.6660510000033,
          "velocity": 1,
          "duration": 0.33333300000003874
        },
        {
          "name": "F5",
          "midi": 77,
          "time": 615.9993840000034,
          "velocity": 1,
          "duration": 0.33333300000003874
        },
        {
          "name": "D#5",
          "midi": 75,
          "time": 616.3327170000034,
          "velocity": 1,
          "duration": 0.9999990000000025
        },
        {
          "name": "D#5",
          "midi": 75,
          "time": 617.3327160000034,
          "velocity": 1,
          "duration": 0.33333300000003874
        },
        {
          "name": "A#4",
          "midi": 70,
          "time": 617.6660490000035,
          "velocity": 1,
          "duration": 0.33333300000003874
        },
        {
          "name": "F#5",
          "midi": 78,
          "time": 617.9993820000035,
          "velocity": 1,
          "duration": 0.33333300000003874
        },
        {
          "name": "F#5",
          "midi": 78,
          "time": 618.3327150000035,
          "velocity": 1,
          "duration": 0.9999990000000025
        },
        {
          "name": "F#5",
          "midi": 78,
          "time": 619.3327140000035,
          "velocity": 1,
          "duration": 0.9999990000000025
        },
        {
          "name": "F#5",
          "midi": 78,
          "time": 620.3327130000035,
          "velocity": 1,
          "duration": 0.33333300000003874
        },
        {
          "name": "F#5",
          "midi": 78,
          "time": 620.6660460000036,
          "velocity": 1,
          "duration": 0.33333300000003874
        },
        {
          "name": "F#5",
          "midi": 78,
          "time": 620.9993790000036,
          "velocity": 1,
          "duration": 0.33333300000003874
        },
        {
          "name": "F5",
          "midi": 77,
          "time": 621.3327120000037,
          "velocity": 1,
          "duration": 0.33333300000003874
        },
        {
          "name": "D#5",
          "midi": 75,
          "time": 621.6660450000037,
          "velocity": 1,
          "duration": 0.33333300000003874
        },
        {
          "name": "D5",
          "midi": 74,
          "time": 621.9993780000037,
          "velocity": 1,
          "duration": 0.33333300000003874
        },
        {
          "name": "C5",
          "midi": 72,
          "time": 626.6660400000038,
          "velocity": 1,
          "duration": 0.33333300000003874
        },
        {
          "name": "G4",
          "midi": 67,
          "time": 626.6660400000038,
          "velocity": 1,
          "duration": 0.33333300000003874
        },
        {
          "name": "C5",
          "midi": 72,
          "time": 627.3327060000039,
          "velocity": 1,
          "duration": 0.33333300000003874
        },
        {
          "name": "G4",
          "midi": 67,
          "time": 627.3327060000039,
          "velocity": 1,
          "duration": 0.33333300000003874
        },
        {
          "name": "F4",
          "midi": 65,
          "time": 627.999372000004,
          "velocity": 1,
          "duration": 0.33333300000003874
        },
        {
          "name": "C5",
          "midi": 72,
          "time": 627.999372000004,
          "velocity": 1,
          "duration": 0.33333300000003874
        },
        {
          "name": "C5",
          "midi": 72,
          "time": 628.666038000004,
          "velocity": 1,
          "duration": 0.33333300000003874
        },
        {
          "name": "F4",
          "midi": 65,
          "time": 628.666038000004,
          "velocity": 1,
          "duration": 0.33333300000003874
        },
        {
          "name": "C5",
          "midi": 72,
          "time": 629.3327040000041,
          "velocity": 1,
          "duration": 0.33333300000003874
        },
        {
          "name": "F4",
          "midi": 65,
          "time": 629.3327040000041,
          "velocity": 1,
          "duration": 0.33333300000003874
        },
        {
          "name": "A#4",
          "midi": 70,
          "time": 629.9993700000042,
          "velocity": 1,
          "duration": 1.3333320000000413
        },
        {
          "name": "G4",
          "midi": 67,
          "time": 629.9993700000042,
          "velocity": 1,
          "duration": 1.3333320000000413
        },
        {
          "name": "G4",
          "midi": 67,
          "time": 631.3327020000042,
          "velocity": 1,
          "duration": 0.33333300000003874
        },
        {
          "name": "D#4",
          "midi": 63,
          "time": 631.3327020000042,
          "velocity": 1,
          "duration": 0.33333300000003874
        },
        {
          "name": "G4",
          "midi": 67,
          "time": 631.6660350000043,
          "velocity": 1,
          "duration": 0.33333300000003874
        },
        {
          "name": "D#4",
          "midi": 63,
          "time": 631.6660350000043,
          "velocity": 1,
          "duration": 0.33333300000003874
        },
        {
          "name": "D4",
          "midi": 62,
          "time": 631.9993680000043,
          "velocity": 1,
          "duration": 0.33333300000003874
        },
        {
          "name": "F4",
          "midi": 65,
          "time": 631.9993680000043,
          "velocity": 1,
          "duration": 0.33333300000003874
        },
        {
          "name": "F4",
          "midi": 65,
          "time": 632.3327010000044,
          "velocity": 1,
          "duration": 0.33333300000003874
        },
        {
          "name": "D4",
          "midi": 62,
          "time": 632.3327010000044,
          "velocity": 1,
          "duration": 0.33333300000003874
        },
        {
          "name": "F4",
          "midi": 65,
          "time": 632.6660340000044,
          "velocity": 1,
          "duration": 0.33333300000003874
        },
        {
          "name": "D4",
          "midi": 62,
          "time": 632.6660340000044,
          "velocity": 1,
          "duration": 0.33333300000003874
        },
        {
          "name": "F4",
          "midi": 65,
          "time": 632.9993670000044,
          "velocity": 1,
          "duration": 0.33333300000003874
        },
        {
          "name": "D4",
          "midi": 62,
          "time": 632.9993670000044,
          "velocity": 1,
          "duration": 0.33333300000003874
        },
        {
          "name": "F4",
          "midi": 65,
          "time": 633.3327000000045,
          "velocity": 1,
          "duration": 0.33333300000003874
        },
        {
          "name": "D4",
          "midi": 62,
          "time": 633.3327000000045,
          "velocity": 1,
          "duration": 0.33333300000003874
        },
        {
          "name": "F4",
          "midi": 65,
          "time": 633.6660330000045,
          "velocity": 1,
          "duration": 0.33333300000003874
        },
        {
          "name": "D4",
          "midi": 62,
          "time": 633.6660330000045,
          "velocity": 1,
          "duration": 0.33333300000003874
        },
        {
          "name": "G4",
          "midi": 67,
          "time": 633.9993660000046,
          "velocity": 1,
          "duration": 0.33333300000003874
        },
        {
          "name": "D#4",
          "midi": 63,
          "time": 633.9993660000046,
          "velocity": 1,
          "duration": 0.33333300000003874
        },
        {
          "name": "G3",
          "midi": 55,
          "time": 641.9993580000046,
          "velocity": 1,
          "duration": 0.16666650000001937
        },
        {
          "name": "A#4",
          "midi": 70,
          "time": 641.9993580000046,
          "velocity": 1,
          "duration": 8.166658500000949
        },
        {
          "name": "A#3",
          "midi": 58,
          "time": 642.1660245000046,
          "velocity": 1,
          "duration": 0.16666650000001937
        },
        {
          "name": "D#4",
          "midi": 63,
          "time": 642.3326910000046,
          "velocity": 1,
          "duration": 0.16666650000001937
        },
        {
          "name": "A#3",
          "midi": 58,
          "time": 642.4993575000046,
          "velocity": 1,
          "duration": 0.16666650000001937
        },
        {
          "name": "G3",
          "midi": 55,
          "time": 642.6660240000047,
          "velocity": 1,
          "duration": 0.16666650000001937
        },
        {
          "name": "A#3",
          "midi": 58,
          "time": 642.8326905000047,
          "velocity": 1,
          "duration": 0.16666650000001937
        },
        {
          "name": "G3",
          "midi": 55,
          "time": 642.9993570000047,
          "velocity": 1,
          "duration": 0.16666650000001937
        },
        {
          "name": "A#3",
          "midi": 58,
          "time": 643.1660235000047,
          "velocity": 1,
          "duration": 0.16666650000001937
        },
        {
          "name": "D#4",
          "midi": 63,
          "time": 643.3326900000047,
          "velocity": 1,
          "duration": 0.16666650000001937
        },
        {
          "name": "A#3",
          "midi": 58,
          "time": 643.4993565000048,
          "velocity": 1,
          "duration": 0.16666650000001937
        },
        {
          "name": "G3",
          "midi": 55,
          "time": 643.6660230000048,
          "velocity": 1,
          "duration": 0.16666650000001937
        },
        {
          "name": "A#3",
          "midi": 58,
          "time": 643.8326895000048,
          "velocity": 1,
          "duration": 0.16666650000001937
        },
        {
          "name": "G3",
          "midi": 55,
          "time": 643.9993560000048,
          "velocity": 1,
          "duration": 0.16666650000001937
        },
        {
          "name": "A#3",
          "midi": 58,
          "time": 644.1660225000048,
          "velocity": 1,
          "duration": 0.16666650000001937
        },
        {
          "name": "D#4",
          "midi": 63,
          "time": 644.3326890000048,
          "velocity": 1,
          "duration": 0.16666650000001937
        },
        {
          "name": "A#3",
          "midi": 58,
          "time": 644.4993555000049,
          "velocity": 1,
          "duration": 0.16666650000001937
        },
        {
          "name": "G3",
          "midi": 55,
          "time": 644.6660220000049,
          "velocity": 1,
          "duration": 0.16666650000001937
        },
        {
          "name": "A#3",
          "midi": 58,
          "time": 644.8326885000049,
          "velocity": 1,
          "duration": 0.16666650000001937
        },
        {
          "name": "G3",
          "midi": 55,
          "time": 644.9993550000049,
          "velocity": 1,
          "duration": 0.16666650000001937
        },
        {
          "name": "A#3",
          "midi": 58,
          "time": 645.166021500005,
          "velocity": 1,
          "duration": 0.16666650000001937
        },
        {
          "name": "D#4",
          "midi": 63,
          "time": 645.332688000005,
          "velocity": 1,
          "duration": 0.16666650000001937
        },
        {
          "name": "A#3",
          "midi": 58,
          "time": 645.499354500005,
          "velocity": 1,
          "duration": 0.16666650000001937
        },
        {
          "name": "G3",
          "midi": 55,
          "time": 645.666021000005,
          "velocity": 1,
          "duration": 0.16666650000001937
        },
        {
          "name": "A#3",
          "midi": 58,
          "time": 645.832687500005,
          "velocity": 1,
          "duration": 0.16666650000001937
        },
        {
          "name": "G#3",
          "midi": 56,
          "time": 645.999354000005,
          "velocity": 1,
          "duration": 0.16666650000001937
        },
        {
          "name": "A#3",
          "midi": 58,
          "time": 646.1660205000051,
          "velocity": 1,
          "duration": 0.16666650000001937
        },
        {
          "name": "F4",
          "midi": 65,
          "time": 646.3326870000051,
          "velocity": 1,
          "duration": 0.16666650000001937
        },
        {
          "name": "A#3",
          "midi": 58,
          "time": 646.4993535000051,
          "velocity": 1,
          "duration": 0.16666650000001937
        },
        {
          "name": "G#3",
          "midi": 56,
          "time": 646.6660200000051,
          "velocity": 1,
          "duration": 0.16666650000001937
        },
        {
          "name": "A#3",
          "midi": 58,
          "time": 646.8326865000051,
          "velocity": 1,
          "duration": 0.16666650000001937
        },
        {
          "name": "G#3",
          "midi": 56,
          "time": 646.9993530000052,
          "velocity": 1,
          "duration": 0.16666650000001937
        },
        {
          "name": "A#3",
          "midi": 58,
          "time": 647.1660195000052,
          "velocity": 1,
          "duration": 0.16666650000001937
        },
        {
          "name": "F4",
          "midi": 65,
          "time": 647.3326860000052,
          "velocity": 1,
          "duration": 0.16666650000001937
        },
        {
          "name": "A#3",
          "midi": 58,
          "time": 647.4993525000052,
          "velocity": 1,
          "duration": 0.16666650000001937
        },
        {
          "name": "G#3",
          "midi": 56,
          "time": 647.6660190000052,
          "velocity": 1,
          "duration": 0.16666650000001937
        },
        {
          "name": "A#3",
          "midi": 58,
          "time": 647.8326855000053,
          "velocity": 1,
          "duration": 0.16666650000001937
        },
        {
          "name": "G#3",
          "midi": 56,
          "time": 647.9993520000053,
          "velocity": 1,
          "duration": 0.16666650000001937
        },
        {
          "name": "A#3",
          "midi": 58,
          "time": 648.1660185000053,
          "velocity": 1,
          "duration": 0.16666650000001937
        },
        {
          "name": "D4",
          "midi": 62,
          "time": 648.3326850000053,
          "velocity": 1,
          "duration": 0.16666650000001937
        },
        {
          "name": "A#3",
          "midi": 58,
          "time": 648.4993515000053,
          "velocity": 1,
          "duration": 0.16666650000001937
        },
        {
          "name": "G#3",
          "midi": 56,
          "time": 648.6660180000054,
          "velocity": 1,
          "duration": 0.16666650000001937
        },
        {
          "name": "A#3",
          "midi": 58,
          "time": 648.8326845000054,
          "velocity": 1,
          "duration": 0.16666650000001937
        },
        {
          "name": "G#3",
          "midi": 56,
          "time": 648.9993510000054,
          "velocity": 1,
          "duration": 0.16666650000001937
        },
        {
          "name": "A#3",
          "midi": 58,
          "time": 649.1660175000054,
          "velocity": 1,
          "duration": 0.16666650000001937
        },
        {
          "name": "D4",
          "midi": 62,
          "time": 649.3326840000054,
          "velocity": 1,
          "duration": 0.16666650000001937
        },
        {
          "name": "A#3",
          "midi": 58,
          "time": 649.4993505000054,
          "velocity": 1,
          "duration": 0.16666650000001937
        },
        {
          "name": "G#3",
          "midi": 56,
          "time": 649.6660170000055,
          "velocity": 1,
          "duration": 0.16666650000001937
        },
        {
          "name": "A#3",
          "midi": 58,
          "time": 649.8326835000055,
          "velocity": 1,
          "duration": 0.16666650000001937
        },
        {
          "name": "G3",
          "midi": 55,
          "time": 649.9993500000055,
          "velocity": 1,
          "duration": 0.16666650000001937
        },
        {
          "name": "G4",
          "midi": 67,
          "time": 650.1660165000055,
          "velocity": 1,
          "duration": 0.08333325000000968
        },
        {
          "name": "G#4",
          "midi": 68,
          "time": 650.2493497500055,
          "velocity": 1,
          "duration": 0.08333325000000968
        },
        {
          "name": "A#4",
          "midi": 70,
          "time": 650.3326830000055,
          "velocity": 1,
          "duration": 0.16666650000001937
        },
        {
          "name": "A#4",
          "midi": 70,
          "time": 650.4993495000056,
          "velocity": 1,
          "duration": 0.16666650000001937
        },
        {
          "name": "C5",
          "midi": 72,
          "time": 650.6660160000056,
          "velocity": 1,
          "duration": 0.16666650000001937
        },
        {
          "name": "D5",
          "midi": 74,
          "time": 650.8326825000056,
          "velocity": 1,
          "duration": 0.16666650000001937
        },
        {
          "name": "D#5",
          "midi": 75,
          "time": 650.9993490000056,
          "velocity": 1,
          "duration": 0.16666650000001937
        },
        {
          "name": "A#4",
          "midi": 70,
          "time": 651.1660155000056,
          "velocity": 1,
          "duration": 0.16666650000001937
        },
        {
          "name": "C5",
          "midi": 72,
          "time": 651.3326820000057,
          "velocity": 1,
          "duration": 0.16666650000001937
        },
        {
          "name": "D5",
          "midi": 74,
          "time": 651.4993485000057,
          "velocity": 1,
          "duration": 0.16666650000001937
        },
        {
          "name": "D#5",
          "midi": 75,
          "time": 651.6660150000057,
          "velocity": 1,
          "duration": 0.16666650000001937
        },
        {
          "name": "F5",
          "midi": 77,
          "time": 651.8326815000057,
          "velocity": 1,
          "duration": 0.16666650000001937
        },
        {
          "name": "G5",
          "midi": 79,
          "time": 651.9993480000057,
          "velocity": 1,
          "duration": 0.16666650000001937
        },
        {
          "name": "G5",
          "midi": 79,
          "time": 652.1660145000058,
          "velocity": 1,
          "duration": 0.08333325000000968
        },
        {
          "name": "F5",
          "midi": 77,
          "time": 652.2493477500058,
          "velocity": 1,
          "duration": 0.08333325000000968
        },
        {
          "name": "D#5",
          "midi": 75,
          "time": 652.3326810000058,
          "velocity": 1,
          "duration": 0.16666650000001937
        },
        {
          "name": "D5",
          "midi": 74,
          "time": 652.4993475000058,
          "velocity": 1,
          "duration": 0.16666650000001937
        },
        {
          "name": "C5",
          "midi": 72,
          "time": 652.6660140000058,
          "velocity": 1,
          "duration": 0.16666650000001937
        },
        {
          "name": "A#4",
          "midi": 70,
          "time": 652.8326805000058,
          "velocity": 1,
          "duration": 0.16666650000001937
        },
        {
          "name": "G#4",
          "midi": 68,
          "time": 652.9993470000059,
          "velocity": 1,
          "duration": 0.16666650000001937
        },
        {
          "name": "G4",
          "midi": 67,
          "time": 653.1660135000059,
          "velocity": 1,
          "duration": 0.16666650000001937
        },
        {
          "name": "F4",
          "midi": 65,
          "time": 653.3326800000059,
          "velocity": 1,
          "duration": 0.16666650000001937
        },
        {
          "name": "D#4",
          "midi": 63,
          "time": 653.4993465000059,
          "velocity": 1,
          "duration": 0.16666650000001937
        },
        {
          "name": "D4",
          "midi": 62,
          "time": 653.6660130000059,
          "velocity": 1,
          "duration": 0.16666650000001937
        },
        {
          "name": "C4",
          "midi": 60,
          "time": 653.832679500006,
          "velocity": 1,
          "duration": 0.16666650000001937
        },
        {
          "name": "A#3",
          "midi": 58,
          "time": 653.999346000006,
          "velocity": 1,
          "duration": 0.16666650000001937
        },
        {
          "name": "A#3",
          "midi": 58,
          "time": 654.166012500006,
          "velocity": 1,
          "duration": 0.08333325000000968
        },
        {
          "name": "C4",
          "midi": 60,
          "time": 654.249345750006,
          "velocity": 1,
          "duration": 0.08333325000000968
        },
        {
          "name": "D4",
          "midi": 62,
          "time": 654.332679000006,
          "velocity": 1,
          "duration": 0.16666650000001937
        },
        {
          "name": "D#4",
          "midi": 63,
          "time": 654.499345500006,
          "velocity": 1,
          "duration": 0.16666650000001937
        },
        {
          "name": "F4",
          "midi": 65,
          "time": 654.666012000006,
          "velocity": 1,
          "duration": 0.16666650000001937
        },
        {
          "name": "G4",
          "midi": 67,
          "time": 654.8326785000061,
          "velocity": 1,
          "duration": 0.16666650000001937
        },
        {
          "name": "G#4",
          "midi": 68,
          "time": 654.9993450000061,
          "velocity": 1,
          "duration": 0.33333300000003874
        },
        {
          "name": "D#5",
          "midi": 75,
          "time": 655.4993445000061,
          "velocity": 1,
          "duration": 0.16666650000001937
        },
        {
          "name": "D#4",
          "midi": 63,
          "time": 655.4993445000061,
          "velocity": 1,
          "duration": 0.16666650000001937
        },
        {
          "name": "F5",
          "midi": 77,
          "time": 655.6660110000062,
          "velocity": 1,
          "duration": 0.16666650000001937
        },
        {
          "name": "F4",
          "midi": 65,
          "time": 655.6660110000062,
          "velocity": 1,
          "duration": 0.16666650000001937
        },
        {
          "name": "G4",
          "midi": 67,
          "time": 655.8326775000062,
          "velocity": 1,
          "duration": 0.16666650000001937
        },
        {
          "name": "G5",
          "midi": 79,
          "time": 655.8326775000062,
          "velocity": 1,
          "duration": 0.16666650000001937
        },
        {
          "name": "G#5",
          "midi": 80,
          "time": 655.9993440000062,
          "velocity": 1,
          "duration": 0.16666650000001937
        },
        {
          "name": "G#4",
          "midi": 68,
          "time": 655.9993440000062,
          "velocity": 1,
          "duration": 0.16666650000001937
        },
        {
          "name": "G5",
          "midi": 79,
          "time": 656.1660105000062,
          "velocity": 1,
          "duration": 0.16666650000001937
        },
        {
          "name": "G4",
          "midi": 67,
          "time": 656.1660105000062,
          "velocity": 1,
          "duration": 0.16666650000001937
        },
        {
          "name": "F5",
          "midi": 77,
          "time": 656.3326770000062,
          "velocity": 1,
          "duration": 0.16666650000001937
        },
        {
          "name": "F4",
          "midi": 65,
          "time": 656.3326770000062,
          "velocity": 1,
          "duration": 0.16666650000001937
        },
        {
          "name": "D#5",
          "midi": 75,
          "time": 656.4993435000063,
          "velocity": 1,
          "duration": 0.16666650000001937
        },
        {
          "name": "D#4",
          "midi": 63,
          "time": 656.4993435000063,
          "velocity": 1,
          "duration": 0.16666650000001937
        },
        {
          "name": "D5",
          "midi": 74,
          "time": 656.6660100000063,
          "velocity": 1,
          "duration": 0.16666650000001937
        },
        {
          "name": "D4",
          "midi": 62,
          "time": 656.6660100000063,
          "velocity": 1,
          "duration": 0.16666650000001937
        },
        {
          "name": "C5",
          "midi": 72,
          "time": 656.8326765000063,
          "velocity": 1,
          "duration": 0.16666650000001937
        },
        {
          "name": "C4",
          "midi": 60,
          "time": 656.8326765000063,
          "velocity": 1,
          "duration": 0.16666650000001937
        },
        {
          "name": "A#3",
          "midi": 58,
          "time": 656.9993430000063,
          "velocity": 1,
          "duration": 0.16666650000001937
        },
        {
          "name": "A#4",
          "midi": 70,
          "time": 656.9993430000063,
          "velocity": 1,
          "duration": 0.16666650000001937
        },
        {
          "name": "C5",
          "midi": 72,
          "time": 657.1660095000063,
          "velocity": 1,
          "duration": 0.16666650000001937
        },
        {
          "name": "C4",
          "midi": 60,
          "time": 657.1660095000063,
          "velocity": 1,
          "duration": 0.16666650000001937
        },
        {
          "name": "A#4",
          "midi": 70,
          "time": 657.3326760000064,
          "velocity": 1,
          "duration": 0.16666650000001937
        },
        {
          "name": "A#3",
          "midi": 58,
          "time": 657.3326760000064,
          "velocity": 1,
          "duration": 0.16666650000001937
        },
        {
          "name": "G#4",
          "midi": 68,
          "time": 657.4993425000064,
          "velocity": 1,
          "duration": 0.16666650000001937
        },
        {
          "name": "G4",
          "midi": 67,
          "time": 657.6660090000064,
          "velocity": 1,
          "duration": 0.16666650000001937
        },
        {
          "name": "F4",
          "midi": 65,
          "time": 657.8326755000064,
          "velocity": 1,
          "duration": 0.16666650000001937
        },
        {
          "name": "D#4",
          "midi": 63,
          "time": 657.9993420000064,
          "velocity": 1,
          "duration": 0.16666650000001937
        },
        {
          "name": "D#5",
          "midi": 75,
          "time": 658.1660085000065,
          "velocity": 1,
          "duration": 0.16666650000001937
        },
        {
          "name": "D#4",
          "midi": 63,
          "time": 658.1660085000065,
          "velocity": 1,
          "duration": 0.16666650000001937
        },
        {
          "name": "D#5",
          "midi": 75,
          "time": 658.3326750000065,
          "velocity": 1,
          "duration": 0.16666650000001937
        },
        {
          "name": "D#4",
          "midi": 63,
          "time": 658.3326750000065,
          "velocity": 1,
          "duration": 0.16666650000001937
        },
        {
          "name": "D#5",
          "midi": 75,
          "time": 658.4993415000065,
          "velocity": 1,
          "duration": 0.16666650000001937
        },
        {
          "name": "D#4",
          "midi": 63,
          "time": 658.4993415000065,
          "velocity": 1,
          "duration": 0.16666650000001937
        },
        {
          "name": "G5",
          "midi": 79,
          "time": 658.6660080000065,
          "velocity": 1,
          "duration": 0.16666650000001937
        },
        {
          "name": "G4",
          "midi": 67,
          "time": 658.6660080000065,
          "velocity": 1,
          "duration": 0.16666650000001937
        },
        {
          "name": "G5",
          "midi": 79,
          "time": 658.8326745000065,
          "velocity": 1,
          "duration": 0.16666650000001937
        },
        {
          "name": "G4",
          "midi": 67,
          "time": 658.8326745000065,
          "velocity": 1,
          "duration": 0.16666650000001937
        },
        {
          "name": "D#5",
          "midi": 75,
          "time": 658.9993410000066,
          "velocity": 1,
          "duration": 0.16666650000001937
        },
        {
          "name": "D#4",
          "midi": 63,
          "time": 658.9993410000066,
          "velocity": 1,
          "duration": 0.16666650000001937
        },
        {
          "name": "D#4",
          "midi": 63,
          "time": 659.1660075000066,
          "velocity": 1,
          "duration": 0.16666650000001937
        },
        {
          "name": "D#5",
          "midi": 75,
          "time": 659.1660075000066,
          "velocity": 1,
          "duration": 0.16666650000001937
        },
        {
          "name": "D#5",
          "midi": 75,
          "time": 659.3326740000066,
          "velocity": 1,
          "duration": 0.16666650000001937
        },
        {
          "name": "D#4",
          "midi": 63,
          "time": 659.3326740000066,
          "velocity": 1,
          "duration": 0.16666650000001937
        },
        {
          "name": "D#5",
          "midi": 75,
          "time": 659.4993405000066,
          "velocity": 1,
          "duration": 0.16666650000001937
        },
        {
          "name": "D#4",
          "midi": 63,
          "time": 659.4993405000066,
          "velocity": 1,
          "duration": 0.16666650000001937
        },
        {
          "name": "A#4",
          "midi": 70,
          "time": 659.6660070000066,
          "velocity": 1,
          "duration": 0.16666650000001937
        },
        {
          "name": "A#3",
          "midi": 58,
          "time": 659.6660070000066,
          "velocity": 1,
          "duration": 0.16666650000001937
        },
        {
          "name": "A#4",
          "midi": 70,
          "time": 659.8326735000066,
          "velocity": 1,
          "duration": 0.16666650000001937
        },
        {
          "name": "A#3",
          "midi": 58,
          "time": 659.8326735000066,
          "velocity": 1,
          "duration": 0.16666650000001937
        },
        {
          "name": "D#5",
          "midi": 75,
          "time": 659.9993400000067,
          "velocity": 1,
          "duration": 0.16666650000001937
        },
        {
          "name": "D#4",
          "midi": 63,
          "time": 659.9993400000067,
          "velocity": 1,
          "duration": 0.16666650000001937
        },
        {
          "name": "D#5",
          "midi": 75,
          "time": 660.1660065000067,
          "velocity": 1,
          "duration": 0.16666650000001937
        },
        {
          "name": "D#4",
          "midi": 63,
          "time": 660.1660065000067,
          "velocity": 1,
          "duration": 0.16666650000001937
        },
        {
          "name": "G4",
          "midi": 67,
          "time": 660.3326730000067,
          "velocity": 1,
          "duration": 0.16666650000001937
        },
        {
          "name": "G4",
          "midi": 67,
          "time": 660.4993395000067,
          "velocity": 1,
          "duration": 0.16666650000001937
        },
        {
          "name": "A#4",
          "midi": 70,
          "time": 660.6660060000067,
          "velocity": 1,
          "duration": 0.16666650000001937
        },
        {
          "name": "A#4",
          "midi": 70,
          "time": 660.8326725000068,
          "velocity": 1,
          "duration": 0.16666650000001937
        },
        {
          "name": "A#4",
          "midi": 70,
          "time": 660.9993390000068,
          "velocity": 1,
          "duration": 0.16666650000001937
        },
        {
          "name": "A#4",
          "midi": 70,
          "time": 661.1660055000068,
          "velocity": 1,
          "duration": 0.16666650000001937
        },
        {
          "name": "A#4",
          "midi": 70,
          "time": 661.3326720000068,
          "velocity": 1,
          "duration": 0.16666650000001937
        },
        {
          "name": "A#4",
          "midi": 70,
          "time": 661.4993385000068,
          "velocity": 1,
          "duration": 0.16666650000001937
        },
        {
          "name": "A#4",
          "midi": 70,
          "time": 661.6660050000069,
          "velocity": 1,
          "duration": 0.16666650000001937
        },
        {
          "name": "A#4",
          "midi": 70,
          "time": 661.8326715000069,
          "velocity": 1,
          "duration": 0.16666650000001937
        },
        {
          "name": "F5",
          "midi": 77,
          "time": 661.9993380000069,
          "velocity": 1,
          "duration": 0.16666650000001937
        },
        {
          "name": "F4",
          "midi": 65,
          "time": 661.9993380000069,
          "velocity": 1,
          "duration": 0.16666650000001937
        },
        {
          "name": "F5",
          "midi": 77,
          "time": 662.1660045000069,
          "velocity": 1,
          "duration": 0.16666650000001937
        },
        {
          "name": "F4",
          "midi": 65,
          "time": 662.1660045000069,
          "velocity": 1,
          "duration": 0.16666650000001937
        },
        {
          "name": "F5",
          "midi": 77,
          "time": 662.3326710000069,
          "velocity": 1,
          "duration": 0.16666650000001937
        },
        {
          "name": "F4",
          "midi": 65,
          "time": 662.3326710000069,
          "velocity": 1,
          "duration": 0.16666650000001937
        },
        {
          "name": "F5",
          "midi": 77,
          "time": 662.499337500007,
          "velocity": 1,
          "duration": 0.16666650000001937
        },
        {
          "name": "F4",
          "midi": 65,
          "time": 662.499337500007,
          "velocity": 1,
          "duration": 0.16666650000001937
        },
        {
          "name": "G#4",
          "midi": 68,
          "time": 662.666004000007,
          "velocity": 1,
          "duration": 0.16666650000001937
        },
        {
          "name": "G#5",
          "midi": 80,
          "time": 662.666004000007,
          "velocity": 1,
          "duration": 0.16666650000001937
        },
        {
          "name": "G#5",
          "midi": 80,
          "time": 662.832670500007,
          "velocity": 1,
          "duration": 0.16666650000001937
        },
        {
          "name": "G#4",
          "midi": 68,
          "time": 662.832670500007,
          "velocity": 1,
          "duration": 0.16666650000001937
        },
        {
          "name": "F5",
          "midi": 77,
          "time": 662.999337000007,
          "velocity": 1,
          "duration": 0.16666650000001937
        },
        {
          "name": "F4",
          "midi": 65,
          "time": 662.999337000007,
          "velocity": 1,
          "duration": 0.16666650000001937
        },
        {
          "name": "F5",
          "midi": 77,
          "time": 663.166003500007,
          "velocity": 1,
          "duration": 0.16666650000001937
        },
        {
          "name": "F4",
          "midi": 65,
          "time": 663.166003500007,
          "velocity": 1,
          "duration": 0.16666650000001937
        },
        {
          "name": "F5",
          "midi": 77,
          "time": 663.332670000007,
          "velocity": 1,
          "duration": 0.16666650000001937
        },
        {
          "name": "F4",
          "midi": 65,
          "time": 663.332670000007,
          "velocity": 1,
          "duration": 0.16666650000001937
        },
        {
          "name": "F5",
          "midi": 77,
          "time": 663.4993365000071,
          "velocity": 1,
          "duration": 0.16666650000001937
        },
        {
          "name": "F4",
          "midi": 65,
          "time": 663.4993365000071,
          "velocity": 1,
          "duration": 0.16666650000001937
        },
        {
          "name": "A#4",
          "midi": 70,
          "time": 663.6660030000071,
          "velocity": 1,
          "duration": 0.16666650000001937
        },
        {
          "name": "A#3",
          "midi": 58,
          "time": 663.6660030000071,
          "velocity": 1,
          "duration": 0.16666650000001937
        },
        {
          "name": "A#3",
          "midi": 58,
          "time": 663.8326695000071,
          "velocity": 1,
          "duration": 0.16666650000001937
        },
        {
          "name": "A#4",
          "midi": 70,
          "time": 663.8326695000071,
          "velocity": 1,
          "duration": 0.16666650000001937
        },
        {
          "name": "F5",
          "midi": 77,
          "time": 663.9993360000071,
          "velocity": 1,
          "duration": 0.16666650000001937
        },
        {
          "name": "F4",
          "midi": 65,
          "time": 663.9993360000071,
          "velocity": 1,
          "duration": 0.16666650000001937
        },
        {
          "name": "F5",
          "midi": 77,
          "time": 664.1660025000072,
          "velocity": 1,
          "duration": 0.16666650000001937
        },
        {
          "name": "F4",
          "midi": 65,
          "time": 664.1660025000072,
          "velocity": 1,
          "duration": 0.16666650000001937
        },
        {
          "name": "G#4",
          "midi": 68,
          "time": 664.3326690000072,
          "velocity": 1,
          "duration": 0.16666650000001937
        },
        {
          "name": "G#4",
          "midi": 68,
          "time": 664.4993355000072,
          "velocity": 1,
          "duration": 0.16666650000001937
        },
        {
          "name": "A#4",
          "midi": 70,
          "time": 664.6660020000072,
          "velocity": 1,
          "duration": 0.16666650000001937
        },
        {
          "name": "A#4",
          "midi": 70,
          "time": 664.8326685000072,
          "velocity": 1,
          "duration": 0.16666650000001937
        },
        {
          "name": "A#4",
          "midi": 70,
          "time": 664.9993350000072,
          "velocity": 1,
          "duration": 0.16666650000001937
        },
        {
          "name": "A#4",
          "midi": 70,
          "time": 665.1660015000073,
          "velocity": 1,
          "duration": 0.16666650000001937
        },
        {
          "name": "A#4",
          "midi": 70,
          "time": 665.3326680000073,
          "velocity": 1,
          "duration": 0.16666650000001937
        },
        {
          "name": "A#4",
          "midi": 70,
          "time": 665.4993345000073,
          "velocity": 1,
          "duration": 0.16666650000001937
        },
        {
          "name": "A#4",
          "midi": 70,
          "time": 665.6660010000073,
          "velocity": 1,
          "duration": 0.16666650000001937
        },
        {
          "name": "A#4",
          "midi": 70,
          "time": 665.8326675000073,
          "velocity": 1,
          "duration": 0.16666650000001937
        },
        {
          "name": "A#4",
          "midi": 70,
          "time": 665.9993340000074,
          "velocity": 1,
          "duration": 0.16666650000001937
        },
        {
          "name": "A#4",
          "midi": 70,
          "time": 666.1660005000074,
          "velocity": 1,
          "duration": 0.16666650000001937
        },
        {
          "name": "G5",
          "midi": 79,
          "time": 666.3326670000074,
          "velocity": 1,
          "duration": 0.16666650000001937
        },
        {
          "name": "A#4",
          "midi": 70,
          "time": 666.3326670000074,
          "velocity": 1,
          "duration": 0.16666650000001937
        },
        {
          "name": "G5",
          "midi": 79,
          "time": 666.4993335000074,
          "velocity": 1,
          "duration": 0.16666650000001937
        },
        {
          "name": "A#4",
          "midi": 70,
          "time": 666.4993335000074,
          "velocity": 1,
          "duration": 0.16666650000001937
        },
        {
          "name": "G5",
          "midi": 79,
          "time": 666.6660000000074,
          "velocity": 1,
          "duration": 0.16666650000001937
        },
        {
          "name": "A#4",
          "midi": 70,
          "time": 666.6660000000074,
          "velocity": 1,
          "duration": 0.16666650000001937
        },
        {
          "name": "G5",
          "midi": 79,
          "time": 666.8326665000075,
          "velocity": 1,
          "duration": 0.16666650000001937
        },
        {
          "name": "A#4",
          "midi": 70,
          "time": 666.8326665000075,
          "velocity": 1,
          "duration": 0.16666650000001937
        },
        {
          "name": "G5",
          "midi": 79,
          "time": 666.9993330000075,
          "velocity": 1,
          "duration": 0.9999990000000025
        },
        {
          "name": "A#4",
          "midi": 70,
          "time": 666.9993330000075,
          "velocity": 1,
          "duration": 0.9999990000000025
        },
        {
          "name": "C5",
          "midi": 72,
          "time": 667.9993320000075,
          "velocity": 1,
          "duration": 0.33333300000003874
        },
        {
          "name": "F5",
          "midi": 77,
          "time": 667.9993320000075,
          "velocity": 1,
          "duration": 0.33333300000003874
        },
        {
          "name": "F5",
          "midi": 77,
          "time": 668.3326650000075,
          "velocity": 1,
          "duration": 0.6666659999999638
        },
        {
          "name": "C5",
          "midi": 72,
          "time": 668.3326650000075,
          "velocity": 1,
          "duration": 0.6666659999999638
        },
        {
          "name": "F#5",
          "midi": 78,
          "time": 669.3326640000075,
          "velocity": 1,
          "duration": 0.6666659999999638
        },
        {
          "name": "C5",
          "midi": 72,
          "time": 669.3326640000075,
          "velocity": 1,
          "duration": 0.6666659999999638
        },
        {
          "name": "A#4",
          "midi": 70,
          "time": 670.3326630000075,
          "velocity": 1,
          "duration": 0.6666659999999638
        },
        {
          "name": "G4",
          "midi": 67,
          "time": 670.3326630000075,
          "velocity": 1,
          "duration": 0.6666659999999638
        },
        {
          "name": "G#4",
          "midi": 68,
          "time": 671.3326620000075,
          "velocity": 1,
          "duration": 0.6666659999999638
        },
        {
          "name": "F4",
          "midi": 65,
          "time": 671.3326620000075,
          "velocity": 1,
          "duration": 0.6666659999999638
        },
        {
          "name": "G4",
          "midi": 67,
          "time": 672.3326610000075,
          "velocity": 1,
          "duration": 0.6666659999999638
        },
        {
          "name": "D#4",
          "midi": 63,
          "time": 672.3326610000075,
          "velocity": 1,
          "duration": 0.6666659999999638
        },
        {
          "name": "C5",
          "midi": 72,
          "time": 673.3326600000075,
          "velocity": 1,
          "duration": 0.6666659999999638
        },
        {
          "name": "D#4",
          "midi": 63,
          "time": 673.3326600000075,
          "velocity": 1,
          "duration": 0.6666659999999638
        },
        {
          "name": "G4",
          "midi": 67,
          "time": 673.9993260000075,
          "velocity": 1,
          "duration": 0.9999990000000025
        },
        {
          "name": "D#5",
          "midi": 75,
          "time": 673.9993260000075,
          "velocity": 1,
          "duration": 0.9999990000000025
        },
        {
          "name": "D5",
          "midi": 74,
          "time": 674.9993250000075,
          "velocity": 1,
          "duration": 0.9999990000000025
        },
        {
          "name": "G#4",
          "midi": 68,
          "time": 674.9993250000075,
          "velocity": 1,
          "duration": 0.6666659999999638
        },
        {
          "name": "F4",
          "midi": 65,
          "time": 675.6659910000075,
          "velocity": 1,
          "duration": 0.33333300000003874
        },
        {
          "name": "G4",
          "midi": 67,
          "time": 675.9993240000075,
          "velocity": 1,
          "duration": 0.6666659999999638
        },
        {
          "name": "D#4",
          "midi": 63,
          "time": 675.9993240000075,
          "velocity": 1,
          "duration": 0.6666659999999638
        },
        {
          "name": "G#4",
          "midi": 68,
          "time": 676.6659900000075,
          "velocity": 1,
          "duration": 0.16666650000001937
        },
        {
          "name": "F4",
          "midi": 65,
          "time": 676.6659900000075,
          "velocity": 1,
          "duration": 0.16666650000001937
        },
        {
          "name": "A#4",
          "midi": 70,
          "time": 676.8326565000075,
          "velocity": 1,
          "duration": 0.16666650000001937
        },
        {
          "name": "G4",
          "midi": 67,
          "time": 676.8326565000075,
          "velocity": 1,
          "duration": 0.16666650000001937
        },
        {
          "name": "C5",
          "midi": 72,
          "time": 676.9993230000075,
          "velocity": 1,
          "duration": 0.33333300000003874
        },
        {
          "name": "G#4",
          "midi": 68,
          "time": 676.9993230000075,
          "velocity": 1,
          "duration": 0.33333300000003874
        },
        {
          "name": "A#4",
          "midi": 70,
          "time": 677.3326560000075,
          "velocity": 1,
          "duration": 0.33333300000003874
        },
        {
          "name": "D5",
          "midi": 74,
          "time": 677.3326560000075,
          "velocity": 1,
          "duration": 0.33333300000003874
        },
        {
          "name": "D#5",
          "midi": 75,
          "time": 677.6659890000076,
          "velocity": 1,
          "duration": 0.33333300000003874
        },
        {
          "name": "C5",
          "midi": 72,
          "time": 677.6659890000076,
          "velocity": 1,
          "duration": 0.33333300000003874
        },
        {
          "name": "D#5",
          "midi": 75,
          "time": 677.9993220000076,
          "velocity": 1,
          "duration": 0.33333300000003874
        },
        {
          "name": "A#4",
          "midi": 70,
          "time": 677.9993220000076,
          "velocity": 1,
          "duration": 0.33333300000003874
        },
        {
          "name": "D#4",
          "midi": 63,
          "time": 678.4993215000077,
          "velocity": 1,
          "duration": 0.16666650000001937
        },
        {
          "name": "A#3",
          "midi": 58,
          "time": 678.4993215000077,
          "velocity": 1,
          "duration": 0.16666650000001937
        },
        {
          "name": "F4",
          "midi": 65,
          "time": 678.6659880000077,
          "velocity": 1,
          "duration": 0.16666650000001937
        },
        {
          "name": "D4",
          "midi": 62,
          "time": 678.6659880000077,
          "velocity": 1,
          "duration": 0.16666650000001937
        },
        {
          "name": "G4",
          "midi": 67,
          "time": 678.8326545000077,
          "velocity": 1,
          "duration": 0.16666650000001937
        },
        {
          "name": "D#4",
          "midi": 63,
          "time": 678.8326545000077,
          "velocity": 1,
          "duration": 0.16666650000001937
        },
        {
          "name": "G#4",
          "midi": 68,
          "time": 678.9993210000077,
          "velocity": 1,
          "duration": 0.33333300000003874
        },
        {
          "name": "F4",
          "midi": 65,
          "time": 678.9993210000077,
          "velocity": 1,
          "duration": 0.33333300000003874
        },
        {
          "name": "F4",
          "midi": 65,
          "time": 679.3326540000078,
          "velocity": 1,
          "duration": 0.33333300000003874
        },
        {
          "name": "G#4",
          "midi": 68,
          "time": 679.3326540000078,
          "velocity": 1,
          "duration": 0.33333300000003874
        },
        {
          "name": "G#4",
          "midi": 68,
          "time": 679.6659870000078,
          "velocity": 1,
          "duration": 0.33333300000003874
        },
        {
          "name": "F4",
          "midi": 65,
          "time": 679.6659870000078,
          "velocity": 1,
          "duration": 0.33333300000003874
        },
        {
          "name": "G4",
          "midi": 67,
          "time": 679.9993200000079,
          "velocity": 1,
          "duration": 0.33333300000003874
        },
        {
          "name": "D#4",
          "midi": 63,
          "time": 679.9993200000079,
          "velocity": 1,
          "duration": 0.33333300000003874
        },
        {
          "name": "A#4",
          "midi": 70,
          "time": 682.4993175000079,
          "velocity": 1,
          "duration": 0.16666650000001937
        },
        {
          "name": "G#4",
          "midi": 68,
          "time": 682.6659840000079,
          "velocity": 1,
          "duration": 0.16666650000001937
        },
        {
          "name": "G4",
          "midi": 67,
          "time": 682.832650500008,
          "velocity": 1,
          "duration": 0.16666650000001937
        },
        {
          "name": "F4",
          "midi": 65,
          "time": 682.999317000008,
          "velocity": 1,
          "duration": 0.16666650000001937
        },
        {
          "name": "G4",
          "midi": 67,
          "time": 683.165983500008,
          "velocity": 1,
          "duration": 0.16666650000001937
        },
        {
          "name": "G#4",
          "midi": 68,
          "time": 683.332650000008,
          "velocity": 1,
          "duration": 0.16666650000001937
        },
        {
          "name": "G4",
          "midi": 67,
          "time": 683.499316500008,
          "velocity": 1,
          "duration": 0.16666650000001937
        },
        {
          "name": "F4",
          "midi": 65,
          "time": 683.665983000008,
          "velocity": 1,
          "duration": 0.16666650000001937
        },
        {
          "name": "D#4",
          "midi": 63,
          "time": 683.8326495000081,
          "velocity": 1,
          "duration": 0.16666650000001937
        },
        {
          "name": "D4",
          "midi": 62,
          "time": 683.9993160000081,
          "velocity": 1,
          "duration": 0.33333300000003874
        },
        {
          "name": "F4",
          "midi": 65,
          "time": 684.3326490000081,
          "velocity": 1,
          "duration": 0.9999990000000025
        },
        {
          "name": "D4",
          "midi": 62,
          "time": 684.3326490000081,
          "velocity": 1,
          "duration": 0.9999990000000025
        },
        {
          "name": "G#4",
          "midi": 68,
          "time": 685.3326480000081,
          "velocity": 1,
          "duration": 0.9999990000000025
        },
        {
          "name": "F4",
          "midi": 65,
          "time": 685.3326480000081,
          "velocity": 1,
          "duration": 0.9999990000000025
        },
        {
          "name": "D5",
          "midi": 74,
          "time": 686.3326470000081,
          "velocity": 1,
          "duration": 0.6666659999999638
        },
        {
          "name": "G#4",
          "midi": 68,
          "time": 686.3326470000081,
          "velocity": 1,
          "duration": 0.6666659999999638
        },
        {
          "name": "D5",
          "midi": 74,
          "time": 686.9993130000081,
          "velocity": 1,
          "duration": 0.6666659999999638
        },
        {
          "name": "G#4",
          "midi": 68,
          "time": 686.9993130000081,
          "velocity": 1,
          "duration": 0.6666659999999638
        },
        {
          "name": "D5",
          "midi": 74,
          "time": 687.6659790000081,
          "velocity": 1,
          "duration": 0.33333300000003874
        },
        {
          "name": "G#4",
          "midi": 68,
          "time": 687.6659790000081,
          "velocity": 1,
          "duration": 0.33333300000003874
        },
        {
          "name": "D5",
          "midi": 74,
          "time": 687.9993120000081,
          "velocity": 1,
          "duration": 0.33333300000003874
        },
        {
          "name": "G#4",
          "midi": 68,
          "time": 687.9993120000081,
          "velocity": 1,
          "duration": 0.33333300000003874
        },
        {
          "name": "G#4",
          "midi": 68,
          "time": 688.3326450000081,
          "velocity": 1,
          "duration": 0.33333300000003874
        },
        {
          "name": "F5",
          "midi": 77,
          "time": 688.3326450000081,
          "velocity": 1,
          "duration": 0.33333300000003874
        },
        {
          "name": "F5",
          "midi": 77,
          "time": 688.6659780000082,
          "velocity": 1,
          "duration": 0.33333300000003874
        },
        {
          "name": "G#4",
          "midi": 68,
          "time": 688.6659780000082,
          "velocity": 1,
          "duration": 0.33333300000003874
        },
        {
          "name": "F5",
          "midi": 77,
          "time": 688.9993110000082,
          "velocity": 1,
          "duration": 0.33333300000003874
        },
        {
          "name": "G#4",
          "midi": 68,
          "time": 688.9993110000082,
          "velocity": 1,
          "duration": 0.33333300000003874
        },
        {
          "name": "F5",
          "midi": 77,
          "time": 689.3326440000083,
          "velocity": 1,
          "duration": 0.33333300000003874
        },
        {
          "name": "G#4",
          "midi": 68,
          "time": 689.3326440000083,
          "velocity": 1,
          "duration": 0.33333300000003874
        },
        {
          "name": "F5",
          "midi": 77,
          "time": 689.6659770000083,
          "velocity": 1,
          "duration": 0.33333300000003874
        },
        {
          "name": "G#4",
          "midi": 68,
          "time": 689.6659770000083,
          "velocity": 1,
          "duration": 0.33333300000003874
        },
        {
          "name": "F5",
          "midi": 77,
          "time": 689.9993100000083,
          "velocity": 1,
          "duration": 0.33333300000003874
        },
        {
          "name": "G#4",
          "midi": 68,
          "time": 689.9993100000083,
          "velocity": 1,
          "duration": 0.33333300000003874
        },
        {
          "name": "F5",
          "midi": 77,
          "time": 690.3326430000084,
          "velocity": 1,
          "duration": 0.33333300000003874
        },
        {
          "name": "G#4",
          "midi": 68,
          "time": 690.3326430000084,
          "velocity": 1,
          "duration": 0.33333300000003874
        },
        {
          "name": "G#4",
          "midi": 68,
          "time": 690.6659760000084,
          "velocity": 1,
          "duration": 0.33333300000003874
        },
        {
          "name": "F5",
          "midi": 77,
          "time": 690.6659760000084,
          "velocity": 1,
          "duration": 0.33333300000003874
        },
        {
          "name": "F5",
          "midi": 77,
          "time": 690.9993090000085,
          "velocity": 1,
          "duration": 0.33333300000003874
        },
        {
          "name": "G#4",
          "midi": 68,
          "time": 690.9993090000085,
          "velocity": 1,
          "duration": 0.33333300000003874
        },
        {
          "name": "F5",
          "midi": 77,
          "time": 691.3326420000085,
          "velocity": 1,
          "duration": 0.33333300000003874
        },
        {
          "name": "G#4",
          "midi": 68,
          "time": 691.3326420000085,
          "velocity": 1,
          "duration": 0.33333300000003874
        },
        {
          "name": "F5",
          "midi": 77,
          "time": 691.6659750000085,
          "velocity": 1,
          "duration": 0.33333300000003874
        },
        {
          "name": "G#4",
          "midi": 68,
          "time": 691.6659750000085,
          "velocity": 1,
          "duration": 0.33333300000003874
        },
        {
          "name": "D#5",
          "midi": 75,
          "time": 691.9993080000086,
          "velocity": 1,
          "duration": 0.33333300000003874
        },
        {
          "name": "G4",
          "midi": 67,
          "time": 691.9993080000086,
          "velocity": 1,
          "duration": 0.33333300000003874
        },
        {
          "name": "D#5",
          "midi": 75,
          "time": 692.9993070000086,
          "velocity": 1,
          "duration": 0.33333300000003874
        },
        {
          "name": "G4",
          "midi": 67,
          "time": 692.9993070000086,
          "velocity": 1,
          "duration": 0.33333300000003874
        },
        {
          "name": "D#4",
          "midi": 63,
          "time": 693.9993060000086,
          "velocity": 1,
          "duration": 0.33333300000003874
        }
      ],
      "controlChanges": {},
      "id": 3,
      "name": "",
      "instrumentNumber": 71,
      "instrument": "clarinet",
      "instrumentFamily": "reed",
      "channelNumber": 3,
      "isPercussion": false
    },
    {
      "startTime": 0,
      "duration": 694.3326390000078,
      "length": 1708,
      "notes": [
        {
          "name": "D#4",
          "midi": 63,
          "time": 0,
          "velocity": 1,
          "duration": 0.333333
        },
        {
          "name": "D#3",
          "midi": 51,
          "time": 0,
          "velocity": 1,
          "duration": 0.333333
        },
        {
          "name": "D#4",
          "midi": 63,
          "time": 0.999999,
          "velocity": 1,
          "duration": 0.333333
        },
        {
          "name": "D#3",
          "midi": 51,
          "time": 0.999999,
          "velocity": 1,
          "duration": 0.333333
        },
        {
          "name": "D#3",
          "midi": 51,
          "time": 19.666646999999998,
          "velocity": 1,
          "duration": 0.33333299999999966
        },
        {
          "name": "G#3",
          "midi": 56,
          "time": 19.999979999999997,
          "velocity": 1,
          "duration": 0.33333299999999966
        },
        {
          "name": "C4",
          "midi": 60,
          "time": 20.333312999999997,
          "velocity": 1,
          "duration": 0.33333299999999966
        },
        {
          "name": "D#4",
          "midi": 63,
          "time": 20.666645999999997,
          "velocity": 1,
          "duration": 0.33333299999999966
        },
        {
          "name": "G#3",
          "midi": 56,
          "time": 20.999978999999996,
          "velocity": 1,
          "duration": 0.6666659999999993
        },
        {
          "name": "A3",
          "midi": 57,
          "time": 21.666644999999995,
          "velocity": 1,
          "duration": 0.33333299999999966
        },
        {
          "name": "A#3",
          "midi": 58,
          "time": 21.999977999999995,
          "velocity": 1,
          "duration": 1.6666649999999983
        },
        {
          "name": "D4",
          "midi": 62,
          "time": 22.999976999999994,
          "velocity": 1,
          "duration": 0.6666659999999993
        },
        {
          "name": "F4",
          "midi": 65,
          "time": 23.666642999999993,
          "velocity": 1,
          "duration": 0.33333299999999966
        },
        {
          "name": "G#3",
          "midi": 56,
          "time": 23.666642999999993,
          "velocity": 1,
          "duration": 0.33333299999999966
        },
        {
          "name": "D#4",
          "midi": 63,
          "time": 23.999975999999993,
          "velocity": 1,
          "duration": 0.33333299999999966
        },
        {
          "name": "G3",
          "midi": 55,
          "time": 23.999975999999993,
          "velocity": 1,
          "duration": 0.33333299999999966
        },
        {
          "name": "C4",
          "midi": 60,
          "time": 24.333308999999993,
          "velocity": 1,
          "duration": 0.6666659999999993
        },
        {
          "name": "F#3",
          "midi": 54,
          "time": 24.333308999999993,
          "velocity": 1,
          "duration": 0.6666659999999993
        },
        {
          "name": "C4",
          "midi": 60,
          "time": 24.999974999999992,
          "velocity": 1,
          "duration": 0.6666659999999993
        },
        {
          "name": "F#3",
          "midi": 54,
          "time": 24.999974999999992,
          "velocity": 1,
          "duration": 0.6666659999999993
        },
        {
          "name": "C4",
          "midi": 60,
          "time": 25.66664099999999,
          "velocity": 1,
          "duration": 0.33333299999999966
        },
        {
          "name": "F#3",
          "midi": 54,
          "time": 25.66664099999999,
          "velocity": 1,
          "duration": 0.33333299999999966
        },
        {
          "name": "D4",
          "midi": 62,
          "time": 25.99997399999999,
          "velocity": 1,
          "duration": 0.33333299999999966
        },
        {
          "name": "F3",
          "midi": 53,
          "time": 25.99997399999999,
          "velocity": 1,
          "duration": 0.33333299999999966
        },
        {
          "name": "D4",
          "midi": 62,
          "time": 27.66663899999999,
          "velocity": 1,
          "duration": 0.6666659999999993
        },
        {
          "name": "A#3",
          "midi": 58,
          "time": 27.66663899999999,
          "velocity": 1,
          "duration": 0.33333299999999966
        },
        {
          "name": "G#3",
          "midi": 56,
          "time": 27.99997199999999,
          "velocity": 1,
          "duration": 0.33333299999999966
        },
        {
          "name": "D4",
          "midi": 62,
          "time": 28.33330499999999,
          "velocity": 1,
          "duration": 0.6666659999999993
        },
        {
          "name": "G#3",
          "midi": 56,
          "time": 28.33330499999999,
          "velocity": 1,
          "duration": 0.6666659999999993
        },
        {
          "name": "D4",
          "midi": 62,
          "time": 28.999970999999988,
          "velocity": 1,
          "duration": 0.6666659999999993
        },
        {
          "name": "G#3",
          "midi": 56,
          "time": 28.999970999999988,
          "velocity": 1,
          "duration": 0.6666659999999993
        },
        {
          "name": "D4",
          "midi": 62,
          "time": 29.666636999999987,
          "velocity": 1,
          "duration": 0.6666659999999993
        },
        {
          "name": "G#3",
          "midi": 56,
          "time": 29.666636999999987,
          "velocity": 1,
          "duration": 0.6666659999999993
        },
        {
          "name": "D#4",
          "midi": 63,
          "time": 30.333302999999987,
          "velocity": 1,
          "duration": 0.6666659999999993
        },
        {
          "name": "G3",
          "midi": 55,
          "time": 30.333302999999987,
          "velocity": 1,
          "duration": 0.6666659999999993
        },
        {
          "name": "D#4",
          "midi": 63,
          "time": 30.999968999999986,
          "velocity": 1,
          "duration": 0.6666659999999993
        },
        {
          "name": "G3",
          "midi": 55,
          "time": 30.999968999999986,
          "velocity": 1,
          "duration": 0.6666659999999993
        },
        {
          "name": "D#4",
          "midi": 63,
          "time": 31.666634999999985,
          "velocity": 1,
          "duration": 0.6666659999999993
        },
        {
          "name": "G3",
          "midi": 55,
          "time": 31.666634999999985,
          "velocity": 1,
          "duration": 0.6666659999999993
        },
        {
          "name": "D4",
          "midi": 62,
          "time": 32.333300999999985,
          "velocity": 1,
          "duration": 0.3333330000000032
        },
        {
          "name": "G#3",
          "midi": 56,
          "time": 32.333300999999985,
          "velocity": 1,
          "duration": 0.3333330000000032
        },
        {
          "name": "D4",
          "midi": 62,
          "time": 32.66663399999999,
          "velocity": 1,
          "duration": 0.6666659999999993
        },
        {
          "name": "G#3",
          "midi": 56,
          "time": 32.66663399999999,
          "velocity": 1,
          "duration": 0.6666659999999993
        },
        {
          "name": "D#4",
          "midi": 63,
          "time": 33.33329999999999,
          "velocity": 1,
          "duration": 0.3333330000000032
        },
        {
          "name": "G3",
          "midi": 55,
          "time": 33.33329999999999,
          "velocity": 1,
          "duration": 0.3333330000000032
        },
        {
          "name": "D#4",
          "midi": 63,
          "time": 33.66663299999999,
          "velocity": 1,
          "duration": 0.3333330000000032
        },
        {
          "name": "G3",
          "midi": 55,
          "time": 33.66663299999999,
          "velocity": 1,
          "duration": 0.3333330000000032
        },
        {
          "name": "D4",
          "midi": 62,
          "time": 33.99996599999999,
          "velocity": 1,
          "duration": 0.3333330000000032
        },
        {
          "name": "G#3",
          "midi": 56,
          "time": 33.99996599999999,
          "velocity": 1,
          "duration": 0.3333330000000032
        },
        {
          "name": "A#2",
          "midi": 46,
          "time": 34.333299,
          "velocity": 1,
          "duration": 0.16666649999999805
        },
        {
          "name": "C3",
          "midi": 48,
          "time": 34.499965499999995,
          "velocity": 1,
          "duration": 0.16666649999999805
        },
        {
          "name": "D3",
          "midi": 50,
          "time": 34.66663199999999,
          "velocity": 1,
          "duration": 0.16666649999999805
        },
        {
          "name": "D#3",
          "midi": 51,
          "time": 34.83329849999999,
          "velocity": 1,
          "duration": 0.16666649999999805
        },
        {
          "name": "F3",
          "midi": 53,
          "time": 34.99996499999999,
          "velocity": 1,
          "duration": 0.16666649999999805
        },
        {
          "name": "G3",
          "midi": 55,
          "time": 35.16663149999999,
          "velocity": 1,
          "duration": 0.16666649999999805
        },
        {
          "name": "G#3",
          "midi": 56,
          "time": 35.333297999999985,
          "velocity": 1,
          "duration": 0.16666649999999805
        },
        {
          "name": "A#3",
          "midi": 58,
          "time": 35.49996449999998,
          "velocity": 1,
          "duration": 0.16666649999999805
        },
        {
          "name": "C4",
          "midi": 60,
          "time": 35.66663099999998,
          "velocity": 1,
          "duration": 0.16666649999999805
        },
        {
          "name": "D4",
          "midi": 62,
          "time": 35.83329749999998,
          "velocity": 1,
          "duration": 0.16666649999999805
        },
        {
          "name": "D#3",
          "midi": 51,
          "time": 35.99996399999998,
          "velocity": 1,
          "duration": 0.6666659999999993
        },
        {
          "name": "D#4",
          "midi": 63,
          "time": 35.99996399999998,
          "velocity": 1,
          "duration": 0.6666659999999993
        },
        {
          "name": "G4",
          "midi": 67,
          "time": 36.66662999999998,
          "velocity": 1,
          "duration": 0.3333330000000032
        },
        {
          "name": "G3",
          "midi": 55,
          "time": 36.66662999999998,
          "velocity": 1,
          "duration": 0.3333330000000032
        },
        {
          "name": "D#4",
          "midi": 63,
          "time": 36.99996299999998,
          "velocity": 1,
          "duration": 0.6666659999999993
        },
        {
          "name": "D#3",
          "midi": 51,
          "time": 36.99996299999998,
          "velocity": 1,
          "duration": 0.6666659999999993
        },
        {
          "name": "A#3",
          "midi": 58,
          "time": 37.66662899999998,
          "velocity": 1,
          "duration": 0.3333330000000032
        },
        {
          "name": "A#2",
          "midi": 46,
          "time": 37.66662899999998,
          "velocity": 1,
          "duration": 0.3333330000000032
        },
        {
          "name": "D#4",
          "midi": 63,
          "time": 37.99996199999998,
          "velocity": 1,
          "duration": 0.3333330000000032
        },
        {
          "name": "D#3",
          "midi": 51,
          "time": 37.99996199999998,
          "velocity": 1,
          "duration": 0.3333330000000032
        },
        {
          "name": "G3",
          "midi": 55,
          "time": 38.333294999999985,
          "velocity": 1,
          "duration": 0.3333330000000032
        },
        {
          "name": "A#3",
          "midi": 58,
          "time": 38.66662799999999,
          "velocity": 1,
          "duration": 0.3333330000000032
        },
        {
          "name": "D#3",
          "midi": 51,
          "time": 38.99996099999999,
          "velocity": 1,
          "duration": 0.6666659999999993
        },
        {
          "name": "G2",
          "midi": 43,
          "time": 39.66662699999999,
          "velocity": 1,
          "duration": 0.3333330000000032
        },
        {
          "name": "G3",
          "midi": 55,
          "time": 39.66662699999999,
          "velocity": 1,
          "duration": 0.3333330000000032
        },
        {
          "name": "C4",
          "midi": 60,
          "time": 39.999959999999994,
          "velocity": 1,
          "duration": 0.3333330000000032
        },
        {
          "name": "C3",
          "midi": 48,
          "time": 39.999959999999994,
          "velocity": 1,
          "duration": 0.3333330000000032
        },
        {
          "name": "D#4",
          "midi": 63,
          "time": 40.333293,
          "velocity": 1,
          "duration": 0.3333330000000032
        },
        {
          "name": "D#3",
          "midi": 51,
          "time": 40.333293,
          "velocity": 1,
          "duration": 0.3333330000000032
        },
        {
          "name": "G4",
          "midi": 67,
          "time": 40.666626,
          "velocity": 1,
          "duration": 0.3333330000000032
        },
        {
          "name": "G3",
          "midi": 55,
          "time": 40.666626,
          "velocity": 1,
          "duration": 0.3333330000000032
        },
        {
          "name": "C4",
          "midi": 60,
          "time": 40.999959000000004,
          "velocity": 1,
          "duration": 0.6666659999999993
        },
        {
          "name": "C3",
          "midi": 48,
          "time": 40.999959000000004,
          "velocity": 1,
          "duration": 0.6666659999999993
        },
        {
          "name": "C#4",
          "midi": 61,
          "time": 41.666625,
          "velocity": 1,
          "duration": 0.3333330000000032
        },
        {
          "name": "D#3",
          "midi": 51,
          "time": 41.666625,
          "velocity": 1,
          "duration": 0.3333330000000032
        },
        {
          "name": "C4",
          "midi": 60,
          "time": 41.99995800000001,
          "velocity": 1,
          "duration": 1.1666655000000006
        },
        {
          "name": "G#3",
          "midi": 56,
          "time": 41.99995800000001,
          "velocity": 1,
          "duration": 0.9999990000000025
        },
        {
          "name": "F#3",
          "midi": 54,
          "time": 42.99995700000001,
          "velocity": 1,
          "duration": 0.9999989999999883
        },
        {
          "name": "A#3",
          "midi": 58,
          "time": 43.16662350000001,
          "velocity": 1,
          "duration": 0.16666649999999805
        },
        {
          "name": "A3",
          "midi": 57,
          "time": 43.333290000000005,
          "velocity": 1,
          "duration": 0.16666649999999805
        },
        {
          "name": "A#3",
          "midi": 58,
          "time": 43.4999565,
          "velocity": 1,
          "duration": 0.16666649999999805
        },
        {
          "name": "C4",
          "midi": 60,
          "time": 43.666623,
          "velocity": 1,
          "duration": 0.16666649999999805
        },
        {
          "name": "A#3",
          "midi": 58,
          "time": 43.8332895,
          "velocity": 1,
          "duration": 0.16666649999999805
        },
        {
          "name": "A3",
          "midi": 57,
          "time": 43.999956,
          "velocity": 1,
          "duration": 0.3333330000000032
        },
        {
          "name": "F3",
          "midi": 53,
          "time": 43.999956,
          "velocity": 1,
          "duration": 0.3333330000000032
        },
        {
          "name": "F#4",
          "midi": 66,
          "time": 53.33328,
          "velocity": 1,
          "duration": 0.49999950000000126
        },
        {
          "name": "F4",
          "midi": 65,
          "time": 53.8332795,
          "velocity": 1,
          "duration": 0.16666649999999805
        },
        {
          "name": "D#4",
          "midi": 63,
          "time": 53.999946,
          "velocity": 1,
          "duration": 0.3333330000000032
        },
        {
          "name": "G4",
          "midi": 67,
          "time": 54.333279000000005,
          "velocity": 1,
          "duration": 0.49999950000000126
        },
        {
          "name": "G3",
          "midi": 55,
          "time": 54.333279000000005,
          "velocity": 1,
          "duration": 0.49999950000000126
        },
        {
          "name": "F4",
          "midi": 65,
          "time": 54.833278500000006,
          "velocity": 1,
          "duration": 0.16666649999999805
        },
        {
          "name": "F3",
          "midi": 53,
          "time": 54.833278500000006,
          "velocity": 1,
          "duration": 0.16666649999999805
        },
        {
          "name": "D#4",
          "midi": 63,
          "time": 54.999945000000004,
          "velocity": 1,
          "duration": 0.3333330000000032
        },
        {
          "name": "D#3",
          "midi": 51,
          "time": 54.999945000000004,
          "velocity": 1,
          "duration": 0.3333330000000032
        },
        {
          "name": "D3",
          "midi": 50,
          "time": 55.33327800000001,
          "velocity": 1,
          "duration": 0.3333330000000032
        },
        {
          "name": "D4",
          "midi": 62,
          "time": 55.33327800000001,
          "velocity": 1,
          "duration": 0.3333330000000032
        },
        {
          "name": "C4",
          "midi": 60,
          "time": 55.66661100000001,
          "velocity": 1,
          "duration": 0.3333330000000032
        },
        {
          "name": "C3",
          "midi": 48,
          "time": 55.66661100000001,
          "velocity": 1,
          "duration": 0.3333330000000032
        },
        {
          "name": "A#3",
          "midi": 58,
          "time": 55.99994400000001,
          "velocity": 1,
          "duration": 1.3333319999999986
        },
        {
          "name": "A3",
          "midi": 57,
          "time": 56.66661000000001,
          "velocity": 1,
          "duration": 0.16666649999999805
        },
        {
          "name": "G#3",
          "midi": 56,
          "time": 56.83327650000001,
          "velocity": 1,
          "duration": 0.16666649999999805
        },
        {
          "name": "G3",
          "midi": 55,
          "time": 56.99994300000001,
          "velocity": 1,
          "duration": 0.3333330000000032
        },
        {
          "name": "A3",
          "midi": 57,
          "time": 57.33327600000001,
          "velocity": 1,
          "duration": 0.3333330000000032
        },
        {
          "name": "F3",
          "midi": 53,
          "time": 57.33327600000001,
          "velocity": 1,
          "duration": 0.3333330000000032
        },
        {
          "name": "G3",
          "midi": 55,
          "time": 57.666609000000015,
          "velocity": 1,
          "duration": 0.3333330000000032
        },
        {
          "name": "D#3",
          "midi": 51,
          "time": 57.666609000000015,
          "velocity": 1,
          "duration": 0.3333330000000032
        },
        {
          "name": "F3",
          "midi": 53,
          "time": 57.99994200000002,
          "velocity": 1,
          "duration": 0.6666659999999993
        },
        {
          "name": "D3",
          "midi": 50,
          "time": 57.99994200000002,
          "velocity": 1,
          "duration": 0.6666659999999993
        },
        {
          "name": "C3",
          "midi": 48,
          "time": 58.66660800000002,
          "velocity": 1,
          "duration": 0.16666649999999805
        },
        {
          "name": "D#3",
          "midi": 51,
          "time": 58.66660800000002,
          "velocity": 1,
          "duration": 0.16666649999999805
        },
        {
          "name": "D3",
          "midi": 50,
          "time": 58.833274500000016,
          "velocity": 1,
          "duration": 0.16666649999999805
        },
        {
          "name": "A#2",
          "midi": 46,
          "time": 58.833274500000016,
          "velocity": 1,
          "duration": 0.16666649999999805
        },
        {
          "name": "C3",
          "midi": 48,
          "time": 58.999941000000014,
          "velocity": 1,
          "duration": 0.3333330000000032
        },
        {
          "name": "A2",
          "midi": 45,
          "time": 58.999941000000014,
          "velocity": 1,
          "duration": 0.3333330000000032
        },
        {
          "name": "A3",
          "midi": 57,
          "time": 59.33327400000002,
          "velocity": 1,
          "duration": 0.3333330000000032
        },
        {
          "name": "F3",
          "midi": 53,
          "time": 59.33327400000002,
          "velocity": 1,
          "duration": 0.3333330000000032
        },
        {
          "name": "F3",
          "midi": 53,
          "time": 59.66660700000002,
          "velocity": 1,
          "duration": 0.3333330000000032
        },
        {
          "name": "A3",
          "midi": 57,
          "time": 59.66660700000002,
          "velocity": 1,
          "duration": 0.3333330000000032
        },
        {
          "name": "A#3",
          "midi": 58,
          "time": 59.999940000000024,
          "velocity": 1,
          "duration": 0.3333330000000032
        },
        {
          "name": "A#2",
          "midi": 46,
          "time": 59.999940000000024,
          "velocity": 1,
          "duration": 0.3333330000000032
        },
        {
          "name": "F4",
          "midi": 65,
          "time": 62.16660450000003,
          "velocity": 1,
          "duration": 0.16666649999999805
        },
        {
          "name": "D#4",
          "midi": 63,
          "time": 62.333271000000025,
          "velocity": 1,
          "duration": 0.16666649999999805
        },
        {
          "name": "D4",
          "midi": 62,
          "time": 62.49993750000002,
          "velocity": 1,
          "duration": 0.16666649999999805
        },
        {
          "name": "C4",
          "midi": 60,
          "time": 62.66660400000002,
          "velocity": 1,
          "duration": 0.16666649999999805
        },
        {
          "name": "A#3",
          "midi": 58,
          "time": 62.83327050000002,
          "velocity": 1,
          "duration": 0.16666649999999805
        },
        {
          "name": "A3",
          "midi": 57,
          "time": 62.99993700000002,
          "velocity": 1,
          "duration": 0.16666649999999805
        },
        {
          "name": "D4",
          "midi": 62,
          "time": 63.166603500000015,
          "velocity": 1,
          "duration": 0.16666649999999805
        },
        {
          "name": "A#3",
          "midi": 58,
          "time": 63.166603500000015,
          "velocity": 1,
          "duration": 0.16666649999999805
        },
        {
          "name": "D#4",
          "midi": 63,
          "time": 63.33327000000001,
          "velocity": 1,
          "duration": 0.16666649999999805
        },
        {
          "name": "C4",
          "midi": 60,
          "time": 63.33327000000001,
          "velocity": 1,
          "duration": 0.16666649999999805
        },
        {
          "name": "D4",
          "midi": 62,
          "time": 63.49993650000001,
          "velocity": 1,
          "duration": 0.16666649999999805
        },
        {
          "name": "A#3",
          "midi": 58,
          "time": 63.49993650000001,
          "velocity": 1,
          "duration": 0.16666649999999805
        },
        {
          "name": "C4",
          "midi": 60,
          "time": 63.66660300000001,
          "velocity": 1,
          "duration": 0.16666649999999805
        },
        {
          "name": "A3",
          "midi": 57,
          "time": 63.66660300000001,
          "velocity": 1,
          "duration": 0.16666649999999805
        },
        {
          "name": "A#3",
          "midi": 58,
          "time": 63.83326950000001,
          "velocity": 1,
          "duration": 0.16666649999999805
        },
        {
          "name": "G3",
          "midi": 55,
          "time": 63.83326950000001,
          "velocity": 1,
          "duration": 0.16666649999999805
        },
        {
          "name": "A3",
          "midi": 57,
          "time": 63.999936000000005,
          "velocity": 1,
          "duration": 0.3333329999999961
        },
        {
          "name": "F#3",
          "midi": 54,
          "time": 63.999936000000005,
          "velocity": 1,
          "duration": 0.3333329999999961
        },
        {
          "name": "A3",
          "midi": 57,
          "time": 64.333269,
          "velocity": 1,
          "duration": 0.3333329999999961
        },
        {
          "name": "F#3",
          "midi": 54,
          "time": 64.333269,
          "velocity": 1,
          "duration": 0.3333329999999961
        },
        {
          "name": "F#3",
          "midi": 54,
          "time": 65.83326749999999,
          "velocity": 1,
          "duration": 0.16666650000000516
        },
        {
          "name": "A3",
          "midi": 57,
          "time": 65.83326749999999,
          "velocity": 1,
          "duration": 0.16666650000000516
        },
        {
          "name": "A#3",
          "midi": 58,
          "time": 65.999934,
          "velocity": 1,
          "duration": 0.3333329999999961
        },
        {
          "name": "G3",
          "midi": 55,
          "time": 65.999934,
          "velocity": 1,
          "duration": 0.3333329999999961
        },
        {
          "name": "A#3",
          "midi": 58,
          "time": 66.33326699999999,
          "velocity": 1,
          "duration": 0.3333329999999961
        },
        {
          "name": "G3",
          "midi": 55,
          "time": 66.33326699999999,
          "velocity": 1,
          "duration": 0.3333329999999961
        },
        {
          "name": "A#3",
          "midi": 58,
          "time": 67.83326549999998,
          "velocity": 1,
          "duration": 0.16666650000000516
        },
        {
          "name": "G3",
          "midi": 55,
          "time": 67.83326549999998,
          "velocity": 1,
          "duration": 0.16666650000000516
        },
        {
          "name": "G#3",
          "midi": 56,
          "time": 67.99993199999999,
          "velocity": 1,
          "duration": 0.3333329999999961
        },
        {
          "name": "F3",
          "midi": 53,
          "time": 67.99993199999999,
          "velocity": 1,
          "duration": 0.3333329999999961
        },
        {
          "name": "G#3",
          "midi": 56,
          "time": 68.33326499999998,
          "velocity": 1,
          "duration": 0.3333329999999961
        },
        {
          "name": "F3",
          "midi": 53,
          "time": 68.33326499999998,
          "velocity": 1,
          "duration": 0.3333329999999961
        },
        {
          "name": "F4",
          "midi": 65,
          "time": 69.83326349999997,
          "velocity": 1,
          "duration": 0.16666650000000516
        },
        {
          "name": "F3",
          "midi": 53,
          "time": 69.83326349999997,
          "velocity": 1,
          "duration": 0.16666650000000516
        },
        {
          "name": "D#4",
          "midi": 63,
          "time": 69.99992999999998,
          "velocity": 1,
          "duration": 0.16666650000000516
        },
        {
          "name": "D#3",
          "midi": 51,
          "time": 69.99992999999998,
          "velocity": 1,
          "duration": 0.16666650000000516
        },
        {
          "name": "D#3",
          "midi": 51,
          "time": 70.16659649999998,
          "velocity": 1,
          "duration": 0.3333329999999961
        },
        {
          "name": "A#3",
          "midi": 58,
          "time": 70.16659649999998,
          "velocity": 1,
          "duration": 0.3333329999999961
        },
        {
          "name": "A#3",
          "midi": 58,
          "time": 70.49992949999998,
          "velocity": 1,
          "duration": 0.16666650000000516
        },
        {
          "name": "E3",
          "midi": 52,
          "time": 70.49992949999998,
          "velocity": 1,
          "duration": 0.16666650000000516
        },
        {
          "name": "A3",
          "midi": 57,
          "time": 70.66659599999998,
          "velocity": 1,
          "duration": 0.16666650000000516
        },
        {
          "name": "F3",
          "midi": 53,
          "time": 70.66659599999998,
          "velocity": 1,
          "duration": 0.16666650000000516
        },
        {
          "name": "C4",
          "midi": 60,
          "time": 70.83326249999999,
          "velocity": 1,
          "duration": 0.16666650000000516
        },
        {
          "name": "F#3",
          "midi": 54,
          "time": 70.83326249999999,
          "velocity": 1,
          "duration": 0.16666650000000516
        },
        {
          "name": "A#3",
          "midi": 58,
          "time": 70.999929,
          "velocity": 1,
          "duration": 0.16666650000000516
        },
        {
          "name": "G3",
          "midi": 55,
          "time": 70.999929,
          "velocity": 1,
          "duration": 0.16666650000000516
        },
        {
          "name": "C#4",
          "midi": 61,
          "time": 71.1665955,
          "velocity": 1,
          "duration": 0.3333329999999961
        },
        {
          "name": "G3",
          "midi": 55,
          "time": 71.1665955,
          "velocity": 1,
          "duration": 0.3333329999999961
        },
        {
          "name": "C#4",
          "midi": 61,
          "time": 71.4999285,
          "velocity": 1,
          "duration": 0.16666650000000516
        },
        {
          "name": "G3",
          "midi": 55,
          "time": 71.4999285,
          "velocity": 1,
          "duration": 0.16666650000000516
        },
        {
          "name": "C4",
          "midi": 60,
          "time": 71.666595,
          "velocity": 1,
          "duration": 0.16666650000000516
        },
        {
          "name": "G#3",
          "midi": 56,
          "time": 71.666595,
          "velocity": 1,
          "duration": 0.16666650000000516
        },
        {
          "name": "A3",
          "midi": 57,
          "time": 71.8332615,
          "velocity": 1,
          "duration": 0.16666650000000516
        },
        {
          "name": "C4",
          "midi": 60,
          "time": 71.8332615,
          "velocity": 1,
          "duration": 0.16666650000000516
        },
        {
          "name": "D4",
          "midi": 62,
          "time": 71.99992800000001,
          "velocity": 1,
          "duration": 0.3333329999999961
        },
        {
          "name": "A#3",
          "midi": 58,
          "time": 71.99992800000001,
          "velocity": 1,
          "duration": 0.3333329999999961
        },
        {
          "name": "A#3",
          "midi": 58,
          "time": 73.666593,
          "velocity": 1,
          "duration": 0.9999990000000025
        },
        {
          "name": "D3",
          "midi": 50,
          "time": 73.666593,
          "velocity": 1,
          "duration": 0.3333329999999961
        },
        {
          "name": "D#3",
          "midi": 51,
          "time": 73.999926,
          "velocity": 1,
          "duration": 1.499998500000018
        },
        {
          "name": "B3",
          "midi": 59,
          "time": 74.66659200000001,
          "velocity": 1,
          "duration": 0.3333329999999961
        },
        {
          "name": "C4",
          "midi": 60,
          "time": 74.999925,
          "velocity": 1,
          "duration": 0.16666650000000516
        },
        {
          "name": "B3",
          "midi": 59,
          "time": 75.16659150000001,
          "velocity": 1,
          "duration": 0.16666650000000516
        },
        {
          "name": "D4",
          "midi": 62,
          "time": 75.33325800000001,
          "velocity": 1,
          "duration": 0.16666650000000516
        },
        {
          "name": "C4",
          "midi": 60,
          "time": 75.49992450000002,
          "velocity": 1,
          "duration": 0.16666650000000516
        },
        {
          "name": "G3",
          "midi": 55,
          "time": 75.49992450000002,
          "velocity": 1,
          "duration": 0.16666650000000516
        },
        {
          "name": "F4",
          "midi": 65,
          "time": 75.66659100000003,
          "velocity": 1,
          "duration": 0.16666650000000516
        },
        {
          "name": "B3",
          "midi": 59,
          "time": 75.66659100000003,
          "velocity": 1,
          "duration": 0.16666650000000516
        },
        {
          "name": "C4",
          "midi": 60,
          "time": 75.83325750000003,
          "velocity": 1,
          "duration": 0.16666650000000516
        },
        {
          "name": "D#4",
          "midi": 63,
          "time": 75.83325750000003,
          "velocity": 1,
          "duration": 0.16666650000000516
        },
        {
          "name": "D4",
          "midi": 62,
          "time": 75.99992400000004,
          "velocity": 1,
          "duration": 0.3333329999999961
        },
        {
          "name": "A#3",
          "midi": 58,
          "time": 75.99992400000004,
          "velocity": 1,
          "duration": 0.3333329999999961
        },
        {
          "name": "F4",
          "midi": 65,
          "time": 77.99992200000003,
          "velocity": 1,
          "duration": 2.166664499999996
        },
        {
          "name": "E4",
          "midi": 64,
          "time": 80.16658650000002,
          "velocity": 1,
          "duration": 0.16666650000000516
        },
        {
          "name": "D#4",
          "midi": 63,
          "time": 80.33325300000003,
          "velocity": 1,
          "duration": 0.16666650000000516
        },
        {
          "name": "D4",
          "midi": 62,
          "time": 80.49991950000003,
          "velocity": 1,
          "duration": 0.16666650000000516
        },
        {
          "name": "C4",
          "midi": 60,
          "time": 80.66658600000004,
          "velocity": 1,
          "duration": 0.16666650000000516
        },
        {
          "name": "A#3",
          "midi": 58,
          "time": 80.83325250000004,
          "velocity": 1,
          "duration": 0.16666650000000516
        },
        {
          "name": "A3",
          "midi": 57,
          "time": 80.99991900000005,
          "velocity": 1,
          "duration": 0.16666650000000516
        },
        {
          "name": "G4",
          "midi": 67,
          "time": 81.16658550000005,
          "velocity": 1,
          "duration": 0.16666650000000516
        },
        {
          "name": "G3",
          "midi": 55,
          "time": 81.16658550000005,
          "velocity": 1,
          "duration": 0.16666650000000516
        },
        {
          "name": "F4",
          "midi": 65,
          "time": 81.33325200000006,
          "velocity": 1,
          "duration": 0.16666650000000516
        },
        {
          "name": "F3",
          "midi": 53,
          "time": 81.33325200000006,
          "velocity": 1,
          "duration": 0.16666650000000516
        },
        {
          "name": "D#4",
          "midi": 63,
          "time": 81.49991850000006,
          "velocity": 1,
          "duration": 0.16666650000000516
        },
        {
          "name": "D#3",
          "midi": 51,
          "time": 81.49991850000006,
          "velocity": 1,
          "duration": 0.16666650000000516
        },
        {
          "name": "D4",
          "midi": 62,
          "time": 81.66658500000007,
          "velocity": 1,
          "duration": 0.16666650000000516
        },
        {
          "name": "D3",
          "midi": 50,
          "time": 81.66658500000007,
          "velocity": 1,
          "duration": 0.16666650000000516
        },
        {
          "name": "C4",
          "midi": 60,
          "time": 81.83325150000007,
          "velocity": 1,
          "duration": 0.16666650000000516
        },
        {
          "name": "C3",
          "midi": 48,
          "time": 81.83325150000007,
          "velocity": 1,
          "duration": 0.16666650000000516
        },
        {
          "name": "A#2",
          "midi": 46,
          "time": 81.99991800000008,
          "velocity": 1,
          "duration": 0.3333329999999961
        },
        {
          "name": "A#3",
          "midi": 58,
          "time": 81.99991800000008,
          "velocity": 1,
          "duration": 0.3333329999999961
        },
        {
          "name": "D4",
          "midi": 62,
          "time": 82.33325100000008,
          "velocity": 1,
          "duration": 0.3333329999999961
        },
        {
          "name": "A#3",
          "midi": 58,
          "time": 82.33325100000008,
          "velocity": 1,
          "duration": 0.3333329999999961
        },
        {
          "name": "D4",
          "midi": 62,
          "time": 82.66658400000007,
          "velocity": 1,
          "duration": 0.3333329999999961
        },
        {
          "name": "A#3",
          "midi": 58,
          "time": 82.66658400000007,
          "velocity": 1,
          "duration": 0.3333329999999961
        },
        {
          "name": "D4",
          "midi": 62,
          "time": 82.99991700000007,
          "velocity": 1,
          "duration": 0.3333329999999961
        },
        {
          "name": "A#3",
          "midi": 58,
          "time": 82.99991700000007,
          "velocity": 1,
          "duration": 0.3333329999999961
        },
        {
          "name": "D4",
          "midi": 62,
          "time": 83.33325000000006,
          "velocity": 1,
          "duration": 0.3333329999999961
        },
        {
          "name": "A#3",
          "midi": 58,
          "time": 83.33325000000006,
          "velocity": 1,
          "duration": 0.3333329999999961
        },
        {
          "name": "D4",
          "midi": 62,
          "time": 83.66658300000006,
          "velocity": 1,
          "duration": 0.3333329999999961
        },
        {
          "name": "A#3",
          "midi": 58,
          "time": 83.66658300000006,
          "velocity": 1,
          "duration": 0.3333329999999961
        },
        {
          "name": "D4",
          "midi": 62,
          "time": 83.99991600000006,
          "velocity": 1,
          "duration": 0.3333329999999961
        },
        {
          "name": "A#3",
          "midi": 58,
          "time": 83.99991600000006,
          "velocity": 1,
          "duration": 0.3333329999999961
        },
        {
          "name": "D4",
          "midi": 62,
          "time": 84.33324900000005,
          "velocity": 1,
          "duration": 0.3333329999999961
        },
        {
          "name": "A#3",
          "midi": 58,
          "time": 84.33324900000005,
          "velocity": 1,
          "duration": 0.3333329999999961
        },
        {
          "name": "A#2",
          "midi": 46,
          "time": 84.66658200000005,
          "velocity": 1,
          "duration": 0.3333329999999961
        },
        {
          "name": "A#3",
          "midi": 58,
          "time": 84.66658200000005,
          "velocity": 1,
          "duration": 0.6666659999999922
        },
        {
          "name": "D#3",
          "midi": 51,
          "time": 84.99991500000004,
          "velocity": 1,
          "duration": 0.9999989999999883
        },
        {
          "name": "B3",
          "midi": 59,
          "time": 85.33324800000004,
          "velocity": 1,
          "duration": 0.3333329999999961
        },
        {
          "name": "C4",
          "midi": 60,
          "time": 85.66658100000004,
          "velocity": 1,
          "duration": 0.3333329999999961
        },
        {
          "name": "G4",
          "midi": 67,
          "time": 88.66657800000003,
          "velocity": 1,
          "duration": 0.6666660000000064
        },
        {
          "name": "F4",
          "midi": 65,
          "time": 89.33324400000004,
          "velocity": 1,
          "duration": 0.16666650000000516
        },
        {
          "name": "D#4",
          "midi": 63,
          "time": 89.49991050000004,
          "velocity": 1,
          "duration": 0.16666650000000516
        },
        {
          "name": "D4",
          "midi": 62,
          "time": 89.66657700000005,
          "velocity": 1,
          "duration": 0.16666650000000516
        },
        {
          "name": "C4",
          "midi": 60,
          "time": 89.83324350000005,
          "velocity": 1,
          "duration": 0.16666650000000516
        },
        {
          "name": "A#3",
          "midi": 58,
          "time": 89.99991000000006,
          "velocity": 1,
          "duration": 0.3333329999999961
        },
        {
          "name": "C#4",
          "midi": 61,
          "time": 90.33324300000005,
          "velocity": 1,
          "duration": 0.3333329999999961
        },
        {
          "name": "A#3",
          "midi": 58,
          "time": 90.33324300000005,
          "velocity": 1,
          "duration": 0.3333329999999961
        },
        {
          "name": "C#4",
          "midi": 61,
          "time": 90.66657600000005,
          "velocity": 1,
          "duration": 0.3333329999999961
        },
        {
          "name": "A#3",
          "midi": 58,
          "time": 90.66657600000005,
          "velocity": 1,
          "duration": 0.3333329999999961
        },
        {
          "name": "A#3",
          "midi": 58,
          "time": 90.99990900000005,
          "velocity": 1,
          "duration": 0.3333329999999961
        },
        {
          "name": "C#4",
          "midi": 61,
          "time": 90.99990900000005,
          "velocity": 1,
          "duration": 0.3333329999999961
        },
        {
          "name": "C#4",
          "midi": 61,
          "time": 91.33324200000004,
          "velocity": 1,
          "duration": 0.3333329999999961
        },
        {
          "name": "A#3",
          "midi": 58,
          "time": 91.33324200000004,
          "velocity": 1,
          "duration": 0.3333329999999961
        },
        {
          "name": "C#4",
          "midi": 61,
          "time": 91.66657500000004,
          "velocity": 1,
          "duration": 0.3333329999999961
        },
        {
          "name": "A#3",
          "midi": 58,
          "time": 91.66657500000004,
          "velocity": 1,
          "duration": 0.3333329999999961
        },
        {
          "name": "C#4",
          "midi": 61,
          "time": 91.99990800000003,
          "velocity": 1,
          "duration": 0.3333329999999961
        },
        {
          "name": "A#3",
          "midi": 58,
          "time": 91.99990800000003,
          "velocity": 1,
          "duration": 0.3333329999999961
        },
        {
          "name": "G#3",
          "midi": 56,
          "time": 92.33324100000003,
          "velocity": 1,
          "duration": 0.3333329999999961
        },
        {
          "name": "C#4",
          "midi": 61,
          "time": 92.33324100000003,
          "velocity": 1,
          "duration": 0.3333329999999961
        },
        {
          "name": "C#4",
          "midi": 61,
          "time": 92.66657400000003,
          "velocity": 1,
          "duration": 0.3333329999999961
        },
        {
          "name": "G#3",
          "midi": 56,
          "time": 92.66657400000003,
          "velocity": 1,
          "duration": 0.3333329999999961
        },
        {
          "name": "C#4",
          "midi": 61,
          "time": 92.99990700000002,
          "velocity": 1,
          "duration": 0.6666660000000064
        },
        {
          "name": "G#3",
          "midi": 56,
          "time": 92.99990700000002,
          "velocity": 1,
          "duration": 0.9999990000000025
        },
        {
          "name": "C4",
          "midi": 60,
          "time": 93.66657300000003,
          "velocity": 1,
          "duration": 0.3333329999999961
        },
        {
          "name": "C4",
          "midi": 60,
          "time": 95.99990400000003,
          "velocity": 1,
          "duration": 0.3333329999999961
        },
        {
          "name": "C3",
          "midi": 48,
          "time": 95.99990400000003,
          "velocity": 1,
          "duration": 0.3333329999999961
        },
        {
          "name": "C4",
          "midi": 60,
          "time": 97.33323600000003,
          "velocity": 1,
          "duration": 0.3333329999999961
        },
        {
          "name": "G4",
          "midi": 67,
          "time": 97.33323600000003,
          "velocity": 1,
          "duration": 0.3333329999999961
        },
        {
          "name": "G4",
          "midi": 67,
          "time": 97.66656900000002,
          "velocity": 1,
          "duration": 0.3333329999999961
        },
        {
          "name": "C4",
          "midi": 60,
          "time": 97.66656900000002,
          "velocity": 1,
          "duration": 0.3333329999999961
        },
        {
          "name": "F4",
          "midi": 65,
          "time": 97.99990200000002,
          "velocity": 1,
          "duration": 0.3333329999999961
        },
        {
          "name": "F3",
          "midi": 53,
          "time": 97.99990200000002,
          "velocity": 1,
          "duration": 0.3333329999999961
        },
        {
          "name": "D#4",
          "midi": 63,
          "time": 106.66656000000002,
          "velocity": 1,
          "duration": 0.16666650000000516
        },
        {
          "name": "C4",
          "midi": 60,
          "time": 106.66656000000002,
          "velocity": 1,
          "duration": 0.16666650000000516
        },
        {
          "name": "D4",
          "midi": 62,
          "time": 106.83322650000002,
          "velocity": 1,
          "duration": 0.16666650000000516
        },
        {
          "name": "A#3",
          "midi": 58,
          "time": 106.83322650000002,
          "velocity": 1,
          "duration": 0.16666650000000516
        },
        {
          "name": "C4",
          "midi": 60,
          "time": 106.99989300000003,
          "velocity": 1,
          "duration": 0.16666650000000516
        },
        {
          "name": "A3",
          "midi": 57,
          "time": 106.99989300000003,
          "velocity": 1,
          "duration": 0.16666650000000516
        },
        {
          "name": "A#3",
          "midi": 58,
          "time": 107.16655950000003,
          "velocity": 1,
          "duration": 0.16666650000000516
        },
        {
          "name": "G3",
          "midi": 55,
          "time": 107.16655950000003,
          "velocity": 1,
          "duration": 0.16666650000000516
        },
        {
          "name": "A3",
          "midi": 57,
          "time": 107.33322600000004,
          "velocity": 1,
          "duration": 0.16666650000000516
        },
        {
          "name": "F3",
          "midi": 53,
          "time": 107.33322600000004,
          "velocity": 1,
          "duration": 0.16666650000000516
        },
        {
          "name": "D#3",
          "midi": 51,
          "time": 107.49989250000004,
          "velocity": 1,
          "duration": 0.16666650000000516
        },
        {
          "name": "G3",
          "midi": 55,
          "time": 107.49989250000004,
          "velocity": 1,
          "duration": 0.16666650000000516
        },
        {
          "name": "F3",
          "midi": 53,
          "time": 107.66655900000005,
          "velocity": 1,
          "duration": 0.16666650000000516
        },
        {
          "name": "D3",
          "midi": 50,
          "time": 107.66655900000005,
          "velocity": 1,
          "duration": 0.16666650000000516
        },
        {
          "name": "D#3",
          "midi": 51,
          "time": 107.83322550000005,
          "velocity": 1,
          "duration": 0.16666650000000516
        },
        {
          "name": "C3",
          "midi": 48,
          "time": 107.83322550000005,
          "velocity": 1,
          "duration": 0.16666650000000516
        },
        {
          "name": "D3",
          "midi": 50,
          "time": 107.99989200000006,
          "velocity": 1,
          "duration": 0.3333329999999961
        },
        {
          "name": "A#2",
          "midi": 46,
          "time": 107.99989200000006,
          "velocity": 1,
          "duration": 0.3333329999999961
        },
        {
          "name": "A#3",
          "midi": 58,
          "time": 108.33322500000006,
          "velocity": 1,
          "duration": 0.6666660000000064
        },
        {
          "name": "F3",
          "midi": 53,
          "time": 108.33322500000006,
          "velocity": 1,
          "duration": 0.6666660000000064
        },
        {
          "name": "A#3",
          "midi": 58,
          "time": 109.33322400000006,
          "velocity": 1,
          "duration": 0.6666660000000064
        },
        {
          "name": "F3",
          "midi": 53,
          "time": 109.33322400000006,
          "velocity": 1,
          "duration": 0.6666660000000064
        },
        {
          "name": "A3",
          "midi": 57,
          "time": 110.33322300000006,
          "velocity": 1,
          "duration": 0.6666660000000064
        },
        {
          "name": "F3",
          "midi": 53,
          "time": 110.33322300000006,
          "velocity": 1,
          "duration": 0.6666660000000064
        },
        {
          "name": "D#4",
          "midi": 63,
          "time": 111.33322200000006,
          "velocity": 1,
          "duration": 0.3333329999999961
        },
        {
          "name": "D#3",
          "midi": 51,
          "time": 111.33322200000006,
          "velocity": 1,
          "duration": 0.3333329999999961
        },
        {
          "name": "F3",
          "midi": 53,
          "time": 111.66655500000006,
          "velocity": 1,
          "duration": 0.3333329999999961
        },
        {
          "name": "A3",
          "midi": 57,
          "time": 111.66655500000006,
          "velocity": 1,
          "duration": 0.3333329999999961
        },
        {
          "name": "A#3",
          "midi": 58,
          "time": 111.99988800000006,
          "velocity": 1,
          "duration": 0.3333330000000103
        },
        {
          "name": "A#2",
          "midi": 46,
          "time": 111.99988800000006,
          "velocity": 1,
          "duration": 0.16666650000000516
        },
        {
          "name": "F2",
          "midi": 41,
          "time": 112.16655450000006,
          "velocity": 1,
          "duration": 0.16666650000000516
        },
        {
          "name": "F4",
          "midi": 65,
          "time": 112.33322100000007,
          "velocity": 1,
          "duration": 0.4999995000000155
        },
        {
          "name": "A#2",
          "midi": 46,
          "time": 112.33322100000007,
          "velocity": 1,
          "duration": 0.16666650000000516
        },
        {
          "name": "F2",
          "midi": 41,
          "time": 112.49988750000007,
          "velocity": 1,
          "duration": 0.16666650000000516
        },
        {
          "name": "A#2",
          "midi": 46,
          "time": 112.66655400000008,
          "velocity": 1,
          "duration": 0.16666650000000516
        },
        {
          "name": "D4",
          "midi": 62,
          "time": 112.83322050000008,
          "velocity": 1,
          "duration": 0.16666650000000516
        },
        {
          "name": "F2",
          "midi": 41,
          "time": 112.83322050000008,
          "velocity": 1,
          "duration": 0.16666650000000516
        },
        {
          "name": "A#3",
          "midi": 58,
          "time": 112.99988700000009,
          "velocity": 1,
          "duration": 0.3333330000000103
        },
        {
          "name": "A#2",
          "midi": 46,
          "time": 112.99988700000009,
          "velocity": 1,
          "duration": 0.16666650000000516
        },
        {
          "name": "F2",
          "midi": 41,
          "time": 113.16655350000009,
          "velocity": 1,
          "duration": 0.16666650000000516
        },
        {
          "name": "D4",
          "midi": 62,
          "time": 113.3332200000001,
          "velocity": 1,
          "duration": 0.4999995000000155
        },
        {
          "name": "A#2",
          "midi": 46,
          "time": 113.3332200000001,
          "velocity": 1,
          "duration": 0.16666650000000516
        },
        {
          "name": "F2",
          "midi": 41,
          "time": 113.4998865000001,
          "velocity": 1,
          "duration": 0.16666650000000516
        },
        {
          "name": "A#2",
          "midi": 46,
          "time": 113.6665530000001,
          "velocity": 1,
          "duration": 0.16666650000000516
        },
        {
          "name": "F3",
          "midi": 53,
          "time": 113.83321950000011,
          "velocity": 1,
          "duration": 0.16666650000000516
        },
        {
          "name": "F2",
          "midi": 41,
          "time": 113.83321950000011,
          "velocity": 1,
          "duration": 0.16666650000000516
        },
        {
          "name": "C4",
          "midi": 60,
          "time": 113.99988600000012,
          "velocity": 1,
          "duration": 0.3333330000000103
        },
        {
          "name": "A2",
          "midi": 45,
          "time": 113.99988600000012,
          "velocity": 1,
          "duration": 0.16666650000000516
        },
        {
          "name": "F2",
          "midi": 41,
          "time": 114.16655250000012,
          "velocity": 1,
          "duration": 0.16666650000000516
        },
        {
          "name": "D#4",
          "midi": 63,
          "time": 114.33321900000013,
          "velocity": 1,
          "duration": 0.4999995000000155
        },
        {
          "name": "A2",
          "midi": 45,
          "time": 114.33321900000013,
          "velocity": 1,
          "duration": 0.16666650000000516
        },
        {
          "name": "F2",
          "midi": 41,
          "time": 114.49988550000013,
          "velocity": 1,
          "duration": 0.16666650000000516
        },
        {
          "name": "A2",
          "midi": 45,
          "time": 114.66655200000014,
          "velocity": 1,
          "duration": 0.16666650000000516
        },
        {
          "name": "F3",
          "midi": 53,
          "time": 114.83321850000014,
          "velocity": 1,
          "duration": 0.16666650000000516
        },
        {
          "name": "F2",
          "midi": 41,
          "time": 114.83321850000014,
          "velocity": 1,
          "duration": 0.16666650000000516
        },
        {
          "name": "A3",
          "midi": 57,
          "time": 114.99988500000015,
          "velocity": 1,
          "duration": 0.3333330000000103
        },
        {
          "name": "C3",
          "midi": 48,
          "time": 114.99988500000015,
          "velocity": 1,
          "duration": 0.16666650000000516
        },
        {
          "name": "F2",
          "midi": 41,
          "time": 115.16655150000015,
          "velocity": 1,
          "duration": 0.16666650000000516
        },
        {
          "name": "D#3",
          "midi": 51,
          "time": 115.33321800000016,
          "velocity": 1,
          "duration": 0.16666650000000516
        },
        {
          "name": "C4",
          "midi": 60,
          "time": 115.33321800000016,
          "velocity": 1,
          "duration": 0.4999995000000155
        },
        {
          "name": "F3",
          "midi": 53,
          "time": 115.49988450000016,
          "velocity": 1,
          "duration": 0.16666650000000516
        },
        {
          "name": "D#3",
          "midi": 51,
          "time": 115.66655100000017,
          "velocity": 1,
          "duration": 0.16666650000000516
        },
        {
          "name": "F3",
          "midi": 53,
          "time": 115.83321750000017,
          "velocity": 1,
          "duration": 0.16666650000000516
        },
        {
          "name": "D4",
          "midi": 62,
          "time": 115.99988400000018,
          "velocity": 1,
          "duration": 0.8333324999999974
        },
        {
          "name": "D3",
          "midi": 50,
          "time": 115.99988400000018,
          "velocity": 1,
          "duration": 0.8333324999999974
        },
        {
          "name": "C#4",
          "midi": 61,
          "time": 116.83321650000018,
          "velocity": 1,
          "duration": 0.16666650000000516
        },
        {
          "name": "C#3",
          "midi": 49,
          "time": 116.83321650000018,
          "velocity": 1,
          "duration": 0.16666650000000516
        },
        {
          "name": "D4",
          "midi": 62,
          "time": 116.99988300000018,
          "velocity": 1,
          "duration": 0.16666650000000516
        },
        {
          "name": "D3",
          "midi": 50,
          "time": 116.99988300000018,
          "velocity": 1,
          "duration": 0.16666650000000516
        },
        {
          "name": "F#4",
          "midi": 66,
          "time": 121.16654550000018,
          "velocity": 1,
          "duration": 0.16666650000000516
        },
        {
          "name": "F#3",
          "midi": 54,
          "time": 121.16654550000018,
          "velocity": 1,
          "duration": 0.16666650000000516
        },
        {
          "name": "G3",
          "midi": 55,
          "time": 121.33321200000019,
          "velocity": 1,
          "duration": 0.16666650000000516
        },
        {
          "name": "G4",
          "midi": 67,
          "time": 121.33321200000019,
          "velocity": 1,
          "duration": 0.16666650000000516
        },
        {
          "name": "F4",
          "midi": 65,
          "time": 121.4998785000002,
          "velocity": 1,
          "duration": 0.16666650000000516
        },
        {
          "name": "F3",
          "midi": 53,
          "time": 121.4998785000002,
          "velocity": 1,
          "duration": 0.16666650000000516
        },
        {
          "name": "E4",
          "midi": 64,
          "time": 121.6665450000002,
          "velocity": 1,
          "duration": 0.16666650000000516
        },
        {
          "name": "E3",
          "midi": 52,
          "time": 121.6665450000002,
          "velocity": 1,
          "duration": 0.16666650000000516
        },
        {
          "name": "D#4",
          "midi": 63,
          "time": 121.8332115000002,
          "velocity": 1,
          "duration": 0.16666650000000516
        },
        {
          "name": "D#3",
          "midi": 51,
          "time": 121.8332115000002,
          "velocity": 1,
          "duration": 0.16666650000000516
        },
        {
          "name": "D4",
          "midi": 62,
          "time": 121.99987800000021,
          "velocity": 1,
          "duration": 0.3333329999999961
        },
        {
          "name": "D3",
          "midi": 50,
          "time": 121.99987800000021,
          "velocity": 1,
          "duration": 0.3333329999999961
        },
        {
          "name": "A3",
          "midi": 57,
          "time": 122.3332110000002,
          "velocity": 1,
          "duration": 0.3333329999999961
        },
        {
          "name": "C4",
          "midi": 60,
          "time": 122.3332110000002,
          "velocity": 1,
          "duration": 0.3333329999999961
        },
        {
          "name": "A#3",
          "midi": 58,
          "time": 122.6665440000002,
          "velocity": 1,
          "duration": 0.3333329999999961
        },
        {
          "name": "G3",
          "midi": 55,
          "time": 122.6665440000002,
          "velocity": 1,
          "duration": 0.3333329999999961
        },
        {
          "name": "B3",
          "midi": 59,
          "time": 123.3332100000002,
          "velocity": 1,
          "duration": 0.3333329999999961
        },
        {
          "name": "F3",
          "midi": 53,
          "time": 123.3332100000002,
          "velocity": 1,
          "duration": 0.3333329999999961
        },
        {
          "name": "C4",
          "midi": 60,
          "time": 123.66654300000019,
          "velocity": 1,
          "duration": 0.3333329999999961
        },
        {
          "name": "G3",
          "midi": 55,
          "time": 123.66654300000019,
          "velocity": 1,
          "duration": 0.3333329999999961
        },
        {
          "name": "A#3",
          "midi": 58,
          "time": 124.33320900000018,
          "velocity": 1,
          "duration": 0.3333329999999961
        },
        {
          "name": "C4",
          "midi": 60,
          "time": 124.33320900000018,
          "velocity": 1,
          "duration": 0.3333329999999961
        },
        {
          "name": "C4",
          "midi": 60,
          "time": 124.66654200000018,
          "velocity": 1,
          "duration": 0.3333329999999961
        },
        {
          "name": "A3",
          "midi": 57,
          "time": 124.66654200000018,
          "velocity": 1,
          "duration": 0.3333329999999961
        },
        {
          "name": "C4",
          "midi": 60,
          "time": 125.33320800000017,
          "velocity": 1,
          "duration": 0.3333329999999961
        },
        {
          "name": "A3",
          "midi": 57,
          "time": 125.33320800000017,
          "velocity": 1,
          "duration": 0.3333329999999961
        },
        {
          "name": "A#3",
          "midi": 58,
          "time": 125.66654100000017,
          "velocity": 1,
          "duration": 0.3333329999999961
        },
        {
          "name": "G3",
          "midi": 55,
          "time": 125.66654100000017,
          "velocity": 1,
          "duration": 0.3333329999999961
        },
        {
          "name": "B3",
          "midi": 59,
          "time": 126.33320700000016,
          "velocity": 1,
          "duration": 0.3333329999999961
        },
        {
          "name": "F3",
          "midi": 53,
          "time": 126.33320700000016,
          "velocity": 1,
          "duration": 0.3333329999999961
        },
        {
          "name": "C4",
          "midi": 60,
          "time": 126.66654000000015,
          "velocity": 1,
          "duration": 0.3333329999999961
        },
        {
          "name": "G3",
          "midi": 55,
          "time": 126.66654000000015,
          "velocity": 1,
          "duration": 0.3333329999999961
        },
        {
          "name": "C4",
          "midi": 60,
          "time": 127.33320600000015,
          "velocity": 1,
          "duration": 0.3333329999999961
        },
        {
          "name": "A#3",
          "midi": 58,
          "time": 127.33320600000015,
          "velocity": 1,
          "duration": 0.3333329999999961
        },
        {
          "name": "C4",
          "midi": 60,
          "time": 127.99987200000014,
          "velocity": 1,
          "duration": 0.3333329999999961
        },
        {
          "name": "A#3",
          "midi": 58,
          "time": 127.99987200000014,
          "velocity": 1,
          "duration": 0.3333329999999961
        },
        {
          "name": "A#3",
          "midi": 58,
          "time": 128.66653800000014,
          "velocity": 1,
          "duration": 0.3333330000000103
        },
        {
          "name": "C4",
          "midi": 60,
          "time": 128.66653800000014,
          "velocity": 1,
          "duration": 0.3333330000000103
        },
        {
          "name": "C4",
          "midi": 60,
          "time": 129.33320400000017,
          "velocity": 1,
          "duration": 0.3333330000000103
        },
        {
          "name": "A#3",
          "midi": 58,
          "time": 129.33320400000017,
          "velocity": 1,
          "duration": 0.3333330000000103
        },
        {
          "name": "C4",
          "midi": 60,
          "time": 129.9998700000002,
          "velocity": 1,
          "duration": 0.3333330000000103
        },
        {
          "name": "A#3",
          "midi": 58,
          "time": 129.9998700000002,
          "velocity": 1,
          "duration": 0.3333330000000103
        },
        {
          "name": "C4",
          "midi": 60,
          "time": 130.6665360000002,
          "velocity": 1,
          "duration": 0.3333330000000103
        },
        {
          "name": "A#3",
          "midi": 58,
          "time": 130.6665360000002,
          "velocity": 1,
          "duration": 0.3333330000000103
        },
        {
          "name": "C#4",
          "midi": 61,
          "time": 131.99986800000022,
          "velocity": 1,
          "duration": 0.9999990000000025
        },
        {
          "name": "F#3",
          "midi": 54,
          "time": 131.99986800000022,
          "velocity": 1,
          "duration": 0.9999990000000025
        },
        {
          "name": "D4",
          "midi": 62,
          "time": 132.99986700000022,
          "velocity": 1,
          "duration": 0.9999990000000025
        },
        {
          "name": "F3",
          "midi": 53,
          "time": 132.99986700000022,
          "velocity": 1,
          "duration": 0.9999990000000025
        },
        {
          "name": "C#4",
          "midi": 61,
          "time": 133.99986600000022,
          "velocity": 1,
          "duration": 1.6666649999999947
        },
        {
          "name": "G3",
          "midi": 55,
          "time": 133.99986600000022,
          "velocity": 1,
          "duration": 1.6666649999999947
        },
        {
          "name": "A#3",
          "midi": 58,
          "time": 135.66653100000022,
          "velocity": 1,
          "duration": 0.3333330000000103
        },
        {
          "name": "C#4",
          "midi": 61,
          "time": 135.66653100000022,
          "velocity": 1,
          "duration": 0.3333330000000103
        },
        {
          "name": "C4",
          "midi": 60,
          "time": 136.33319700000024,
          "velocity": 1,
          "duration": 0.3333330000000103
        },
        {
          "name": "G#3",
          "midi": 56,
          "time": 136.33319700000024,
          "velocity": 1,
          "duration": 0.3333330000000103
        },
        {
          "name": "C4",
          "midi": 60,
          "time": 136.99986300000026,
          "velocity": 1,
          "duration": 0.3333330000000103
        },
        {
          "name": "A3",
          "midi": 57,
          "time": 136.99986300000026,
          "velocity": 1,
          "duration": 0.3333330000000103
        },
        {
          "name": "C4",
          "midi": 60,
          "time": 137.66652900000028,
          "velocity": 1,
          "duration": 0.3333330000000103
        },
        {
          "name": "A3",
          "midi": 57,
          "time": 137.66652900000028,
          "velocity": 1,
          "duration": 0.3333330000000103
        },
        {
          "name": "D4",
          "midi": 62,
          "time": 138.3331950000003,
          "velocity": 1,
          "duration": 0.3333330000000103
        },
        {
          "name": "A#3",
          "midi": 58,
          "time": 138.3331950000003,
          "velocity": 1,
          "duration": 0.3333330000000103
        },
        {
          "name": "D#4",
          "midi": 63,
          "time": 138.99986100000032,
          "velocity": 1,
          "duration": 0.9999990000000025
        },
        {
          "name": "D#3",
          "midi": 51,
          "time": 138.99986100000032,
          "velocity": 1,
          "duration": 0.9999990000000025
        },
        {
          "name": "C4",
          "midi": 60,
          "time": 139.99986000000033,
          "velocity": 1,
          "duration": 0.49999950000000126
        },
        {
          "name": "C3",
          "midi": 48,
          "time": 139.99986000000033,
          "velocity": 1,
          "duration": 0.49999950000000126
        },
        {
          "name": "G3",
          "midi": 55,
          "time": 140.49985950000033,
          "velocity": 1,
          "duration": 0.16666649999999095
        },
        {
          "name": "C3",
          "midi": 48,
          "time": 140.49985950000033,
          "velocity": 1,
          "duration": 0.16666649999999095
        },
        {
          "name": "D3",
          "midi": 50,
          "time": 140.66652600000032,
          "velocity": 1,
          "duration": 0.16666649999999095
        },
        {
          "name": "B3",
          "midi": 59,
          "time": 140.66652600000032,
          "velocity": 1,
          "duration": 0.16666649999999095
        },
        {
          "name": "C4",
          "midi": 60,
          "time": 140.8331925000003,
          "velocity": 1,
          "duration": 0.16666649999999095
        },
        {
          "name": "D#3",
          "midi": 51,
          "time": 140.8331925000003,
          "velocity": 1,
          "duration": 0.16666649999999095
        },
        {
          "name": "A#3",
          "midi": 58,
          "time": 140.9998590000003,
          "velocity": 1,
          "duration": 0.16666649999999095
        },
        {
          "name": "F3",
          "midi": 53,
          "time": 140.9998590000003,
          "velocity": 1,
          "duration": 0.16666649999999095
        },
        {
          "name": "F4",
          "midi": 65,
          "time": 141.1665255000003,
          "velocity": 1,
          "duration": 0.16666649999999095
        },
        {
          "name": "F3",
          "midi": 53,
          "time": 141.1665255000003,
          "velocity": 1,
          "duration": 0.16666649999999095
        },
        {
          "name": "F4",
          "midi": 65,
          "time": 141.33319200000028,
          "velocity": 1,
          "duration": 0.16666649999999095
        },
        {
          "name": "F3",
          "midi": 53,
          "time": 141.33319200000028,
          "velocity": 1,
          "duration": 0.16666649999999095
        },
        {
          "name": "F4",
          "midi": 65,
          "time": 141.49985850000027,
          "velocity": 1,
          "duration": 0.16666649999999095
        },
        {
          "name": "F3",
          "midi": 53,
          "time": 141.49985850000027,
          "velocity": 1,
          "duration": 0.16666649999999095
        },
        {
          "name": "D4",
          "midi": 62,
          "time": 141.66652500000026,
          "velocity": 1,
          "duration": 0.16666649999999095
        },
        {
          "name": "D3",
          "midi": 50,
          "time": 141.66652500000026,
          "velocity": 1,
          "duration": 0.16666649999999095
        },
        {
          "name": "A#3",
          "midi": 58,
          "time": 141.83319150000025,
          "velocity": 1,
          "duration": 0.16666649999999095
        },
        {
          "name": "A#2",
          "midi": 46,
          "time": 141.83319150000025,
          "velocity": 1,
          "duration": 0.16666649999999095
        },
        {
          "name": "F3",
          "midi": 53,
          "time": 141.99985800000024,
          "velocity": 1,
          "duration": 0.9999990000000025
        },
        {
          "name": "C4",
          "midi": 60,
          "time": 141.99985800000024,
          "velocity": 1,
          "duration": 0.9999990000000025
        },
        {
          "name": "A#3",
          "midi": 58,
          "time": 142.99985700000025,
          "velocity": 1,
          "duration": 0.3333330000000103
        },
        {
          "name": "A#2",
          "midi": 46,
          "time": 142.99985700000025,
          "velocity": 1,
          "duration": 0.3333330000000103
        },
        {
          "name": "A#3",
          "midi": 58,
          "time": 143.99985600000025,
          "velocity": 1,
          "duration": 0.3333330000000103
        },
        {
          "name": "A#2",
          "midi": 46,
          "time": 143.99985600000025,
          "velocity": 1,
          "duration": 0.3333330000000103
        },
        {
          "name": "A#3",
          "midi": 58,
          "time": 144.99985500000025,
          "velocity": 1,
          "duration": 0.3333330000000103
        },
        {
          "name": "A#2",
          "midi": 46,
          "time": 144.99985500000025,
          "velocity": 1,
          "duration": 0.3333330000000103
        },
        {
          "name": "D#4",
          "midi": 63,
          "time": 145.99985400000025,
          "velocity": 1,
          "duration": 0.3333330000000103
        },
        {
          "name": "C4",
          "midi": 60,
          "time": 145.99985400000025,
          "velocity": 1,
          "duration": 0.3333330000000103
        },
        {
          "name": "D#4",
          "midi": 63,
          "time": 146.33318700000027,
          "velocity": 1,
          "duration": 0.3333330000000103
        },
        {
          "name": "C4",
          "midi": 60,
          "time": 146.33318700000027,
          "velocity": 1,
          "duration": 0.3333330000000103
        },
        {
          "name": "D#4",
          "midi": 63,
          "time": 146.66652000000028,
          "velocity": 1,
          "duration": 0.3333330000000103
        },
        {
          "name": "C4",
          "midi": 60,
          "time": 146.66652000000028,
          "velocity": 1,
          "duration": 0.3333330000000103
        },
        {
          "name": "D4",
          "midi": 62,
          "time": 146.9998530000003,
          "velocity": 1,
          "duration": 0.3333330000000103
        },
        {
          "name": "A#3",
          "midi": 58,
          "time": 146.9998530000003,
          "velocity": 1,
          "duration": 0.3333330000000103
        },
        {
          "name": "G4",
          "midi": 67,
          "time": 159.6665070000003,
          "velocity": 1,
          "duration": 0.3333330000000103
        },
        {
          "name": "E4",
          "midi": 64,
          "time": 159.99984000000032,
          "velocity": 1,
          "duration": 0.6666659999999922
        },
        {
          "name": "F4",
          "midi": 65,
          "time": 160.6665060000003,
          "velocity": 1,
          "duration": 0.3333330000000103
        },
        {
          "name": "F4",
          "midi": 65,
          "time": 160.99983900000032,
          "velocity": 1,
          "duration": 0.3333330000000103
        },
        {
          "name": "G3",
          "midi": 55,
          "time": 163.99983600000033,
          "velocity": 1,
          "duration": 3.666663
        },
        {
          "name": "G#3",
          "midi": 56,
          "time": 167.66649900000033,
          "velocity": 1,
          "duration": 0.3333330000000103
        },
        {
          "name": "A3",
          "midi": 57,
          "time": 167.99983200000034,
          "velocity": 1,
          "duration": 0.9999990000000025
        },
        {
          "name": "B3",
          "midi": 59,
          "time": 168.99983100000034,
          "velocity": 1,
          "duration": 0.3333330000000103
        },
        {
          "name": "G4",
          "midi": 67,
          "time": 170.33316300000035,
          "velocity": 1,
          "duration": 0.49999950000000126
        },
        {
          "name": "F4",
          "midi": 65,
          "time": 170.83316250000036,
          "velocity": 1,
          "duration": 0.16666649999999095
        },
        {
          "name": "D4",
          "midi": 62,
          "time": 170.99982900000035,
          "velocity": 1,
          "duration": 0.3333330000000103
        },
        {
          "name": "G3",
          "midi": 55,
          "time": 171.33316200000036,
          "velocity": 1,
          "duration": 0.8333325000000116
        },
        {
          "name": "G3",
          "midi": 55,
          "time": 172.16649450000037,
          "velocity": 1,
          "duration": 0.16666649999999095
        },
        {
          "name": "A3",
          "midi": 57,
          "time": 172.33316100000036,
          "velocity": 1,
          "duration": 0.16666649999999095
        },
        {
          "name": "B3",
          "midi": 59,
          "time": 172.49982750000035,
          "velocity": 1,
          "duration": 0.16666649999999095
        },
        {
          "name": "C4",
          "midi": 60,
          "time": 172.66649400000034,
          "velocity": 1,
          "duration": 0.16666649999999095
        },
        {
          "name": "D4",
          "midi": 62,
          "time": 172.83316050000033,
          "velocity": 1,
          "duration": 0.16666649999999095
        },
        {
          "name": "E4",
          "midi": 64,
          "time": 172.99982700000032,
          "velocity": 1,
          "duration": 0.3333330000000103
        },
        {
          "name": "G4",
          "midi": 67,
          "time": 174.33315900000034,
          "velocity": 1,
          "duration": 0.49999950000000126
        },
        {
          "name": "E4",
          "midi": 64,
          "time": 174.83315850000034,
          "velocity": 1,
          "duration": 0.16666649999999095
        },
        {
          "name": "C4",
          "midi": 60,
          "time": 174.99982500000033,
          "velocity": 1,
          "duration": 0.3333330000000103
        },
        {
          "name": "G3",
          "midi": 55,
          "time": 175.33315800000034,
          "velocity": 1,
          "duration": 0.8333325000000116
        },
        {
          "name": "A3",
          "midi": 57,
          "time": 176.16649050000035,
          "velocity": 1,
          "duration": 0.16666649999999095
        },
        {
          "name": "B3",
          "midi": 59,
          "time": 176.33315700000034,
          "velocity": 1,
          "duration": 0.16666649999999095
        },
        {
          "name": "C4",
          "midi": 60,
          "time": 176.49982350000033,
          "velocity": 1,
          "duration": 0.16666649999999095
        },
        {
          "name": "D4",
          "midi": 62,
          "time": 176.66649000000032,
          "velocity": 1,
          "duration": 0.16666649999999095
        },
        {
          "name": "E4",
          "midi": 64,
          "time": 176.8331565000003,
          "velocity": 1,
          "duration": 0.16666649999999095
        },
        {
          "name": "F4",
          "midi": 65,
          "time": 176.9998230000003,
          "velocity": 1,
          "duration": 0.3333330000000103
        },
        {
          "name": "G3",
          "midi": 55,
          "time": 177.66648900000033,
          "velocity": 1,
          "duration": 0.6666659999999922
        },
        {
          "name": "G3",
          "midi": 55,
          "time": 178.33315500000032,
          "velocity": 1,
          "duration": 0.16666649999999095
        },
        {
          "name": "A3",
          "midi": 57,
          "time": 178.4998215000003,
          "velocity": 1,
          "duration": 0.16666649999999095
        },
        {
          "name": "B3",
          "midi": 59,
          "time": 178.6664880000003,
          "velocity": 1,
          "duration": 0.16666649999999095
        },
        {
          "name": "C4",
          "midi": 60,
          "time": 178.8331545000003,
          "velocity": 1,
          "duration": 0.16666649999999095
        },
        {
          "name": "D4",
          "midi": 62,
          "time": 178.99982100000028,
          "velocity": 1,
          "duration": 0.16666649999999095
        },
        {
          "name": "F4",
          "midi": 65,
          "time": 179.16648750000027,
          "velocity": 1,
          "duration": 0.16666649999999095
        },
        {
          "name": "F4",
          "midi": 65,
          "time": 179.33315400000026,
          "velocity": 1,
          "duration": 0.16666649999999095
        },
        {
          "name": "E4",
          "midi": 64,
          "time": 179.49982050000025,
          "velocity": 1,
          "duration": 0.16666649999999095
        },
        {
          "name": "D4",
          "midi": 62,
          "time": 179.66648700000025,
          "velocity": 1,
          "duration": 0.16666649999999095
        },
        {
          "name": "C4",
          "midi": 60,
          "time": 179.83315350000024,
          "velocity": 1,
          "duration": 0.16666649999999095
        },
        {
          "name": "B3",
          "midi": 59,
          "time": 179.99982000000023,
          "velocity": 1,
          "duration": 0.16666649999999095
        },
        {
          "name": "A3",
          "midi": 57,
          "time": 180.16648650000022,
          "velocity": 1,
          "duration": 0.16666649999999095
        },
        {
          "name": "G3",
          "midi": 55,
          "time": 180.3331530000002,
          "velocity": 1,
          "duration": 0.16666649999999095
        },
        {
          "name": "F3",
          "midi": 53,
          "time": 180.4998195000002,
          "velocity": 1,
          "duration": 0.16666649999999095
        },
        {
          "name": "E3",
          "midi": 52,
          "time": 180.6664860000002,
          "velocity": 1,
          "duration": 0.16666649999999095
        },
        {
          "name": "D3",
          "midi": 50,
          "time": 180.83315250000018,
          "velocity": 1,
          "duration": 0.16666649999999095
        },
        {
          "name": "C3",
          "midi": 48,
          "time": 180.99981900000017,
          "velocity": 1,
          "duration": 0.3333330000000103
        },
        {
          "name": "F4",
          "midi": 65,
          "time": 188.66647800000018,
          "velocity": 1,
          "duration": 0.6666660000000206
        },
        {
          "name": "C#4",
          "midi": 61,
          "time": 188.66647800000018,
          "velocity": 1,
          "duration": 0.3333330000000103
        },
        {
          "name": "D4",
          "midi": 62,
          "time": 188.9998110000002,
          "velocity": 1,
          "duration": 0.3333330000000103
        },
        {
          "name": "D4",
          "midi": 62,
          "time": 189.3331440000002,
          "velocity": 1,
          "duration": 0.3333330000000103
        },
        {
          "name": "A3",
          "midi": 57,
          "time": 189.3331440000002,
          "velocity": 1,
          "duration": 0.3333330000000103
        },
        {
          "name": "A3",
          "midi": 57,
          "time": 189.6664770000002,
          "velocity": 1,
          "duration": 0.3333330000000103
        },
        {
          "name": "D4",
          "midi": 62,
          "time": 189.6664770000002,
          "velocity": 1,
          "duration": 0.3333330000000103
        },
        {
          "name": "D4",
          "midi": 62,
          "time": 189.99981000000022,
          "velocity": 1,
          "duration": 0.3333330000000103
        },
        {
          "name": "A3",
          "midi": 57,
          "time": 189.99981000000022,
          "velocity": 1,
          "duration": 0.3333330000000103
        },
        {
          "name": "D4",
          "midi": 62,
          "time": 190.33314300000023,
          "velocity": 1,
          "duration": 0.3333330000000103
        },
        {
          "name": "A3",
          "midi": 57,
          "time": 190.33314300000023,
          "velocity": 1,
          "duration": 0.3333330000000103
        },
        {
          "name": "D4",
          "midi": 62,
          "time": 190.66647600000024,
          "velocity": 1,
          "duration": 0.3333330000000103
        },
        {
          "name": "A3",
          "midi": 57,
          "time": 190.66647600000024,
          "velocity": 1,
          "duration": 0.3333330000000103
        },
        {
          "name": "A3",
          "midi": 57,
          "time": 190.99980900000025,
          "velocity": 1,
          "duration": 1.999998000000005
        },
        {
          "name": "D4",
          "midi": 62,
          "time": 190.99980900000025,
          "velocity": 1,
          "duration": 1.999998000000005
        },
        {
          "name": "E4",
          "midi": 64,
          "time": 192.99980700000026,
          "velocity": 1,
          "duration": 0.3333330000000103
        },
        {
          "name": "A3",
          "midi": 57,
          "time": 192.99980700000026,
          "velocity": 1,
          "duration": 0.3333330000000103
        },
        {
          "name": "E4",
          "midi": 64,
          "time": 193.33314000000027,
          "velocity": 1,
          "duration": 0.3333330000000103
        },
        {
          "name": "A3",
          "midi": 57,
          "time": 193.33314000000027,
          "velocity": 1,
          "duration": 0.3333330000000103
        },
        {
          "name": "E4",
          "midi": 64,
          "time": 193.66647300000028,
          "velocity": 1,
          "duration": 0.3333330000000103
        },
        {
          "name": "A3",
          "midi": 57,
          "time": 193.66647300000028,
          "velocity": 1,
          "duration": 0.3333330000000103
        },
        {
          "name": "E4",
          "midi": 64,
          "time": 193.9998060000003,
          "velocity": 1,
          "duration": 0.3333330000000103
        },
        {
          "name": "A3",
          "midi": 57,
          "time": 193.9998060000003,
          "velocity": 1,
          "duration": 0.3333330000000103
        },
        {
          "name": "E4",
          "midi": 64,
          "time": 194.3331390000003,
          "velocity": 1,
          "duration": 0.3333330000000103
        },
        {
          "name": "A3",
          "midi": 57,
          "time": 194.3331390000003,
          "velocity": 1,
          "duration": 0.3333330000000103
        },
        {
          "name": "E4",
          "midi": 64,
          "time": 194.6664720000003,
          "velocity": 1,
          "duration": 0.3333330000000103
        },
        {
          "name": "A3",
          "midi": 57,
          "time": 194.6664720000003,
          "velocity": 1,
          "duration": 0.3333330000000103
        },
        {
          "name": "A3",
          "midi": 57,
          "time": 194.99980500000032,
          "velocity": 1,
          "duration": 1.6666649999999947
        },
        {
          "name": "E4",
          "midi": 64,
          "time": 194.99980500000032,
          "velocity": 1,
          "duration": 1.6666649999999947
        },
        {
          "name": "E4",
          "midi": 64,
          "time": 196.66647000000032,
          "velocity": 1,
          "duration": 0.3333330000000103
        },
        {
          "name": "A3",
          "midi": 57,
          "time": 196.66647000000032,
          "velocity": 1,
          "duration": 0.3333330000000103
        },
        {
          "name": "D4",
          "midi": 62,
          "time": 196.99980300000033,
          "velocity": 1,
          "duration": 0.16666649999999095
        },
        {
          "name": "A3",
          "midi": 57,
          "time": 196.99980300000033,
          "velocity": 1,
          "duration": 0.16666649999999095
        },
        {
          "name": "D4",
          "midi": 62,
          "time": 197.49980250000033,
          "velocity": 1,
          "duration": 0.16666649999999095
        },
        {
          "name": "D4",
          "midi": 62,
          "time": 197.66646900000032,
          "velocity": 1,
          "duration": 0.16666649999999095
        },
        {
          "name": "D4",
          "midi": 62,
          "time": 198.4998015000003,
          "velocity": 1,
          "duration": 0.16666649999999095
        },
        {
          "name": "D4",
          "midi": 62,
          "time": 198.6664680000003,
          "velocity": 1,
          "duration": 0.16666649999999095
        },
        {
          "name": "D4",
          "midi": 62,
          "time": 199.1664675000003,
          "velocity": 1,
          "duration": 0.16666649999999095
        },
        {
          "name": "D4",
          "midi": 62,
          "time": 199.33313400000029,
          "velocity": 1,
          "duration": 0.16666649999999095
        },
        {
          "name": "D4",
          "midi": 62,
          "time": 199.49980050000028,
          "velocity": 1,
          "duration": 0.16666649999999095
        },
        {
          "name": "D4",
          "midi": 62,
          "time": 199.66646700000027,
          "velocity": 1,
          "duration": 0.16666649999999095
        },
        {
          "name": "D4",
          "midi": 62,
          "time": 199.83313350000026,
          "velocity": 1,
          "duration": 0.16666649999999095
        },
        {
          "name": "D4",
          "midi": 62,
          "time": 199.99980000000025,
          "velocity": 1,
          "duration": 0.3333330000000103
        },
        {
          "name": "A#3",
          "midi": 58,
          "time": 200.99979900000025,
          "velocity": 1,
          "duration": 0.3333330000000103
        },
        {
          "name": "G3",
          "midi": 55,
          "time": 200.99979900000025,
          "velocity": 1,
          "duration": 0.3333330000000103
        },
        {
          "name": "A#3",
          "midi": 58,
          "time": 201.33313200000026,
          "velocity": 1,
          "duration": 0.3333330000000103
        },
        {
          "name": "G3",
          "midi": 55,
          "time": 201.33313200000026,
          "velocity": 1,
          "duration": 0.3333330000000103
        },
        {
          "name": "A#3",
          "midi": 58,
          "time": 201.66646500000027,
          "velocity": 1,
          "duration": 0.3333330000000103
        },
        {
          "name": "G3",
          "midi": 55,
          "time": 201.66646500000027,
          "velocity": 1,
          "duration": 0.3333330000000103
        },
        {
          "name": "A#3",
          "midi": 58,
          "time": 201.99979800000028,
          "velocity": 1,
          "duration": 0.3333330000000103
        },
        {
          "name": "G3",
          "midi": 55,
          "time": 201.99979800000028,
          "velocity": 1,
          "duration": 0.3333330000000103
        },
        {
          "name": "G3",
          "midi": 55,
          "time": 202.3331310000003,
          "velocity": 1,
          "duration": 0.3333330000000103
        },
        {
          "name": "A#3",
          "midi": 58,
          "time": 202.3331310000003,
          "velocity": 1,
          "duration": 0.3333330000000103
        },
        {
          "name": "A#3",
          "midi": 58,
          "time": 202.6664640000003,
          "velocity": 1,
          "duration": 0.3333330000000103
        },
        {
          "name": "G3",
          "midi": 55,
          "time": 202.6664640000003,
          "velocity": 1,
          "duration": 0.3333330000000103
        },
        {
          "name": "A#3",
          "midi": 58,
          "time": 202.9997970000003,
          "velocity": 1,
          "duration": 1.999998000000005
        },
        {
          "name": "G3",
          "midi": 55,
          "time": 202.9997970000003,
          "velocity": 1,
          "duration": 1.999998000000005
        },
        {
          "name": "A3",
          "midi": 57,
          "time": 204.99979500000032,
          "velocity": 1,
          "duration": 0.3333330000000103
        },
        {
          "name": "C4",
          "midi": 60,
          "time": 204.99979500000032,
          "velocity": 1,
          "duration": 0.3333330000000103
        },
        {
          "name": "C4",
          "midi": 60,
          "time": 205.33312800000033,
          "velocity": 1,
          "duration": 0.3333330000000103
        },
        {
          "name": "A3",
          "midi": 57,
          "time": 205.33312800000033,
          "velocity": 1,
          "duration": 0.3333330000000103
        },
        {
          "name": "C4",
          "midi": 60,
          "time": 205.66646100000034,
          "velocity": 1,
          "duration": 0.3333330000000103
        },
        {
          "name": "A3",
          "midi": 57,
          "time": 205.66646100000034,
          "velocity": 1,
          "duration": 0.3333330000000103
        },
        {
          "name": "C4",
          "midi": 60,
          "time": 205.99979400000035,
          "velocity": 1,
          "duration": 0.3333330000000103
        },
        {
          "name": "A3",
          "midi": 57,
          "time": 205.99979400000035,
          "velocity": 1,
          "duration": 0.3333330000000103
        },
        {
          "name": "C4",
          "midi": 60,
          "time": 206.33312700000036,
          "velocity": 1,
          "duration": 0.3333330000000103
        },
        {
          "name": "A3",
          "midi": 57,
          "time": 206.33312700000036,
          "velocity": 1,
          "duration": 0.3333330000000103
        },
        {
          "name": "C4",
          "midi": 60,
          "time": 206.66646000000037,
          "velocity": 1,
          "duration": 0.3333330000000103
        },
        {
          "name": "A3",
          "midi": 57,
          "time": 206.66646000000037,
          "velocity": 1,
          "duration": 0.3333330000000103
        },
        {
          "name": "C4",
          "midi": 60,
          "time": 206.99979300000038,
          "velocity": 1,
          "duration": 1.6666649999999947
        },
        {
          "name": "A3",
          "midi": 57,
          "time": 206.99979300000038,
          "velocity": 1,
          "duration": 1.6666649999999947
        },
        {
          "name": "C4",
          "midi": 60,
          "time": 208.66645800000038,
          "velocity": 1,
          "duration": 0.3333330000000103
        },
        {
          "name": "B3",
          "midi": 59,
          "time": 208.99979100000039,
          "velocity": 1,
          "duration": 0.16666649999999095
        },
        {
          "name": "C4",
          "midi": 60,
          "time": 213.49978650000037,
          "velocity": 1,
          "duration": 0.16666649999999095
        },
        {
          "name": "C4",
          "midi": 60,
          "time": 213.66645300000036,
          "velocity": 1,
          "duration": 0.16666649999999095
        },
        {
          "name": "C4",
          "midi": 60,
          "time": 214.49978550000034,
          "velocity": 1,
          "duration": 0.16666649999999095
        },
        {
          "name": "C4",
          "midi": 60,
          "time": 214.66645200000033,
          "velocity": 1,
          "duration": 0.16666649999999095
        },
        {
          "name": "C4",
          "midi": 60,
          "time": 215.16645150000033,
          "velocity": 1,
          "duration": 0.16666649999999095
        },
        {
          "name": "C4",
          "midi": 60,
          "time": 215.33311800000033,
          "velocity": 1,
          "duration": 0.16666649999999095
        },
        {
          "name": "C4",
          "midi": 60,
          "time": 215.49978450000032,
          "velocity": 1,
          "duration": 0.16666649999999095
        },
        {
          "name": "C4",
          "midi": 60,
          "time": 215.6664510000003,
          "velocity": 1,
          "duration": 0.16666649999999095
        },
        {
          "name": "C4",
          "midi": 60,
          "time": 215.8331175000003,
          "velocity": 1,
          "duration": 0.16666649999999095
        },
        {
          "name": "C4",
          "midi": 60,
          "time": 215.9997840000003,
          "velocity": 1,
          "duration": 0.3333330000000103
        },
        {
          "name": "F4",
          "midi": 65,
          "time": 217.4997825000003,
          "velocity": 1,
          "duration": 0.16666649999999095
        },
        {
          "name": "F4",
          "midi": 65,
          "time": 217.66644900000028,
          "velocity": 1,
          "duration": 0.16666649999999095
        },
        {
          "name": "A#2",
          "midi": 46,
          "time": 218.49978150000027,
          "velocity": 1,
          "duration": 0.16666649999999095
        },
        {
          "name": "A#3",
          "midi": 58,
          "time": 218.49978150000027,
          "velocity": 1,
          "duration": 0.16666649999999095
        },
        {
          "name": "A#3",
          "midi": 58,
          "time": 218.66644800000026,
          "velocity": 1,
          "duration": 0.16666649999999095
        },
        {
          "name": "A#2",
          "midi": 46,
          "time": 218.66644800000026,
          "velocity": 1,
          "duration": 0.16666649999999095
        },
        {
          "name": "D#4",
          "midi": 63,
          "time": 219.49978050000024,
          "velocity": 1,
          "duration": 0.16666649999999095
        },
        {
          "name": "D#3",
          "midi": 51,
          "time": 219.49978050000024,
          "velocity": 1,
          "duration": 0.16666649999999095
        },
        {
          "name": "D#4",
          "midi": 63,
          "time": 219.66644700000023,
          "velocity": 1,
          "duration": 0.16666649999999095
        },
        {
          "name": "D#3",
          "midi": 51,
          "time": 219.66644700000023,
          "velocity": 1,
          "duration": 0.16666649999999095
        },
        {
          "name": "G#3",
          "midi": 56,
          "time": 220.16644650000023,
          "velocity": 1,
          "duration": 0.16666649999999095
        },
        {
          "name": "G#3",
          "midi": 56,
          "time": 220.33311300000022,
          "velocity": 1,
          "duration": 0.16666649999999095
        },
        {
          "name": "G#3",
          "midi": 56,
          "time": 220.49977950000022,
          "velocity": 1,
          "duration": 0.16666649999999095
        },
        {
          "name": "G#3",
          "midi": 56,
          "time": 220.6664460000002,
          "velocity": 1,
          "duration": 0.16666649999999095
        },
        {
          "name": "G#3",
          "midi": 56,
          "time": 220.8331125000002,
          "velocity": 1,
          "duration": 0.16666649999999095
        },
        {
          "name": "F4",
          "midi": 65,
          "time": 220.9997790000002,
          "velocity": 1,
          "duration": 0.9999990000000025
        },
        {
          "name": "F3",
          "midi": 53,
          "time": 220.9997790000002,
          "velocity": 1,
          "duration": 0.9999990000000025
        },
        {
          "name": "E4",
          "midi": 64,
          "time": 221.9997780000002,
          "velocity": 1,
          "duration": 0.9999990000000025
        },
        {
          "name": "E3",
          "midi": 52,
          "time": 221.9997780000002,
          "velocity": 1,
          "duration": 0.9999990000000025
        },
        {
          "name": "D#4",
          "midi": 63,
          "time": 222.9997770000002,
          "velocity": 1,
          "duration": 0.3333330000000103
        },
        {
          "name": "D#3",
          "midi": 51,
          "time": 222.9997770000002,
          "velocity": 1,
          "duration": 0.3333330000000103
        },
        {
          "name": "D#4",
          "midi": 63,
          "time": 224.3331090000002,
          "velocity": 1,
          "duration": 0.49999950000000126
        },
        {
          "name": "C#4",
          "midi": 61,
          "time": 224.8331085000002,
          "velocity": 1,
          "duration": 0.16666649999999095
        },
        {
          "name": "A#3",
          "midi": 58,
          "time": 224.9997750000002,
          "velocity": 1,
          "duration": 0.3333330000000103
        },
        {
          "name": "D#4",
          "midi": 63,
          "time": 228.33310500000022,
          "velocity": 1,
          "duration": 0.49999950000000126
        },
        {
          "name": "C4",
          "midi": 60,
          "time": 228.83310450000022,
          "velocity": 1,
          "duration": 0.16666649999999095
        },
        {
          "name": "G#3",
          "midi": 56,
          "time": 228.9997710000002,
          "velocity": 1,
          "duration": 0.3333330000000103
        },
        {
          "name": "D#3",
          "midi": 51,
          "time": 229.9997700000002,
          "velocity": 1,
          "duration": 1.1666654999999935
        },
        {
          "name": "F3",
          "midi": 53,
          "time": 231.1664355000002,
          "velocity": 1,
          "duration": 0.16666649999999095
        },
        {
          "name": "G3",
          "midi": 55,
          "time": 231.3331020000002,
          "velocity": 1,
          "duration": 0.16666649999999095
        },
        {
          "name": "G#3",
          "midi": 56,
          "time": 231.4997685000002,
          "velocity": 1,
          "duration": 0.16666649999999095
        },
        {
          "name": "A#3",
          "midi": 58,
          "time": 231.66643500000018,
          "velocity": 1,
          "duration": 0.16666649999999095
        },
        {
          "name": "C4",
          "midi": 60,
          "time": 231.83310150000017,
          "velocity": 1,
          "duration": 0.16666649999999095
        },
        {
          "name": "C#4",
          "midi": 61,
          "time": 231.99976800000016,
          "velocity": 1,
          "duration": 0.49999950000000126
        },
        {
          "name": "C4",
          "midi": 60,
          "time": 232.49976750000016,
          "velocity": 1,
          "duration": 0.16666649999999095
        },
        {
          "name": "A#3",
          "midi": 58,
          "time": 232.66643400000015,
          "velocity": 1,
          "duration": 0.16666649999999095
        },
        {
          "name": "G#3",
          "midi": 56,
          "time": 232.83310050000014,
          "velocity": 1,
          "duration": 0.16666649999999095
        },
        {
          "name": "G3",
          "midi": 55,
          "time": 232.99976700000013,
          "velocity": 1,
          "duration": 0.16666649999999095
        },
        {
          "name": "G#3",
          "midi": 56,
          "time": 233.16643350000012,
          "velocity": 1,
          "duration": 0.16666649999999095
        },
        {
          "name": "A#3",
          "midi": 58,
          "time": 233.33310000000012,
          "velocity": 1,
          "duration": 0.16666649999999095
        },
        {
          "name": "G#3",
          "midi": 56,
          "time": 233.4997665000001,
          "velocity": 1,
          "duration": 0.16666649999999095
        },
        {
          "name": "G3",
          "midi": 55,
          "time": 233.6664330000001,
          "velocity": 1,
          "duration": 0.16666649999999095
        },
        {
          "name": "F3",
          "midi": 53,
          "time": 233.8330995000001,
          "velocity": 1,
          "duration": 0.16666649999999095
        },
        {
          "name": "D#3",
          "midi": 51,
          "time": 233.99976600000008,
          "velocity": 1,
          "duration": 0.3333330000000103
        },
        {
          "name": "G3",
          "midi": 55,
          "time": 246.3330870000001,
          "velocity": 1,
          "duration": 0.3333330000000103
        },
        {
          "name": "G4",
          "midi": 67,
          "time": 246.6664200000001,
          "velocity": 1,
          "duration": 0.9999990000000025
        },
        {
          "name": "E4",
          "midi": 64,
          "time": 247.3330860000001,
          "velocity": 1,
          "duration": 0.3333330000000103
        },
        {
          "name": "G3",
          "midi": 55,
          "time": 249.3330840000001,
          "velocity": 1,
          "duration": 0.3333330000000103
        },
        {
          "name": "E3",
          "midi": 52,
          "time": 249.3330840000001,
          "velocity": 1,
          "duration": 0.3333330000000103
        },
        {
          "name": "E4",
          "midi": 64,
          "time": 249.6664170000001,
          "velocity": 1,
          "duration": 0.49999950000000126
        },
        {
          "name": "G4",
          "midi": 67,
          "time": 249.6664170000001,
          "velocity": 1,
          "duration": 0.49999950000000126
        },
        {
          "name": "F4",
          "midi": 65,
          "time": 250.1664165000001,
          "velocity": 1,
          "duration": 0.16666649999999095
        },
        {
          "name": "D4",
          "midi": 62,
          "time": 250.1664165000001,
          "velocity": 1,
          "duration": 0.16666649999999095
        },
        {
          "name": "F4",
          "midi": 65,
          "time": 250.3330830000001,
          "velocity": 1,
          "duration": 0.16666649999999095
        },
        {
          "name": "D4",
          "midi": 62,
          "time": 250.3330830000001,
          "velocity": 1,
          "duration": 0.16666649999999095
        },
        {
          "name": "C4",
          "midi": 60,
          "time": 250.4997495000001,
          "velocity": 1,
          "duration": 0.16666649999999095
        },
        {
          "name": "E4",
          "midi": 64,
          "time": 250.4997495000001,
          "velocity": 1,
          "duration": 0.16666649999999095
        },
        {
          "name": "D4",
          "midi": 62,
          "time": 250.66641600000008,
          "velocity": 1,
          "duration": 0.16666649999999095
        },
        {
          "name": "A#3",
          "midi": 58,
          "time": 250.66641600000008,
          "velocity": 1,
          "duration": 0.16666649999999095
        },
        {
          "name": "C4",
          "midi": 60,
          "time": 250.83308250000007,
          "velocity": 1,
          "duration": 0.16666649999999095
        },
        {
          "name": "A3",
          "midi": 57,
          "time": 250.83308250000007,
          "velocity": 1,
          "duration": 0.16666649999999095
        },
        {
          "name": "B3",
          "midi": 59,
          "time": 250.99974900000007,
          "velocity": 1,
          "duration": 0.3333330000000103
        },
        {
          "name": "G#3",
          "midi": 56,
          "time": 250.99974900000007,
          "velocity": 1,
          "duration": 0.3333330000000103
        },
        {
          "name": "B3",
          "midi": 59,
          "time": 251.33308200000008,
          "velocity": 1,
          "duration": 1.999998000000005
        },
        {
          "name": "G#3",
          "midi": 56,
          "time": 251.33308200000008,
          "velocity": 1,
          "duration": 1.999998000000005
        },
        {
          "name": "B3",
          "midi": 59,
          "time": 253.33308000000008,
          "velocity": 1,
          "duration": 0.6666659999999922
        },
        {
          "name": "G#3",
          "midi": 56,
          "time": 253.33308000000008,
          "velocity": 1,
          "duration": 0.6666659999999922
        },
        {
          "name": "G#3",
          "midi": 56,
          "time": 253.99974600000007,
          "velocity": 1,
          "duration": 0.6666659999999922
        },
        {
          "name": "B3",
          "midi": 59,
          "time": 253.99974600000007,
          "velocity": 1,
          "duration": 0.6666659999999922
        },
        {
          "name": "B3",
          "midi": 59,
          "time": 254.66641200000007,
          "velocity": 1,
          "duration": 0.6666659999999922
        },
        {
          "name": "G#3",
          "midi": 56,
          "time": 254.66641200000007,
          "velocity": 1,
          "duration": 0.6666659999999922
        },
        {
          "name": "B3",
          "midi": 59,
          "time": 255.33307800000006,
          "velocity": 1,
          "duration": 0.6666659999999922
        },
        {
          "name": "G#3",
          "midi": 56,
          "time": 255.33307800000006,
          "velocity": 1,
          "duration": 0.6666659999999922
        },
        {
          "name": "B3",
          "midi": 59,
          "time": 255.99974400000005,
          "velocity": 1,
          "duration": 0.6666659999999922
        },
        {
          "name": "G#3",
          "midi": 56,
          "time": 255.99974400000005,
          "velocity": 1,
          "duration": 0.6666659999999922
        },
        {
          "name": "B3",
          "midi": 59,
          "time": 256.66641000000004,
          "velocity": 1,
          "duration": 0.3333329999999819
        },
        {
          "name": "G#3",
          "midi": 56,
          "time": 256.66641000000004,
          "velocity": 1,
          "duration": 0.3333329999999819
        },
        {
          "name": "C4",
          "midi": 60,
          "time": 257.333076,
          "velocity": 1,
          "duration": 1.999998000000005
        },
        {
          "name": "A3",
          "midi": 57,
          "time": 257.333076,
          "velocity": 1,
          "duration": 1.999998000000005
        },
        {
          "name": "C4",
          "midi": 60,
          "time": 259.333074,
          "velocity": 1,
          "duration": 0.6666660000000206
        },
        {
          "name": "A3",
          "midi": 57,
          "time": 259.333074,
          "velocity": 1,
          "duration": 0.6666660000000206
        },
        {
          "name": "C4",
          "midi": 60,
          "time": 259.99974000000003,
          "velocity": 1,
          "duration": 0.6666660000000206
        },
        {
          "name": "A3",
          "midi": 57,
          "time": 259.99974000000003,
          "velocity": 1,
          "duration": 0.6666660000000206
        },
        {
          "name": "C4",
          "midi": 60,
          "time": 260.66640600000005,
          "velocity": 1,
          "duration": 0.6666660000000206
        },
        {
          "name": "A3",
          "midi": 57,
          "time": 260.66640600000005,
          "velocity": 1,
          "duration": 0.6666660000000206
        },
        {
          "name": "C4",
          "midi": 60,
          "time": 261.3330720000001,
          "velocity": 1,
          "duration": 0.6666660000000206
        },
        {
          "name": "A3",
          "midi": 57,
          "time": 261.3330720000001,
          "velocity": 1,
          "duration": 0.6666660000000206
        },
        {
          "name": "C4",
          "midi": 60,
          "time": 261.9997380000001,
          "velocity": 1,
          "duration": 0.6666660000000206
        },
        {
          "name": "A3",
          "midi": 57,
          "time": 261.9997380000001,
          "velocity": 1,
          "duration": 0.6666660000000206
        },
        {
          "name": "C4",
          "midi": 60,
          "time": 262.6664040000001,
          "velocity": 1,
          "duration": 0.3333329999999819
        },
        {
          "name": "A3",
          "midi": 57,
          "time": 262.6664040000001,
          "velocity": 1,
          "duration": 0.3333329999999819
        },
        {
          "name": "A3",
          "midi": 57,
          "time": 263.3330700000001,
          "velocity": 1,
          "duration": 1.999998000000005
        },
        {
          "name": "B3",
          "midi": 59,
          "time": 263.3330700000001,
          "velocity": 1,
          "duration": 1.999998000000005
        },
        {
          "name": "B3",
          "midi": 59,
          "time": 265.3330680000001,
          "velocity": 1,
          "duration": 0.6666660000000206
        },
        {
          "name": "A3",
          "midi": 57,
          "time": 265.3330680000001,
          "velocity": 1,
          "duration": 0.6666660000000206
        },
        {
          "name": "B3",
          "midi": 59,
          "time": 265.9997340000001,
          "velocity": 1,
          "duration": 0.6666660000000206
        },
        {
          "name": "A3",
          "midi": 57,
          "time": 265.9997340000001,
          "velocity": 1,
          "duration": 0.6666660000000206
        },
        {
          "name": "B3",
          "midi": 59,
          "time": 266.6664000000001,
          "velocity": 1,
          "duration": 0.6666660000000206
        },
        {
          "name": "A3",
          "midi": 57,
          "time": 266.6664000000001,
          "velocity": 1,
          "duration": 0.6666660000000206
        },
        {
          "name": "B3",
          "midi": 59,
          "time": 267.33306600000014,
          "velocity": 1,
          "duration": 0.6666660000000206
        },
        {
          "name": "A3",
          "midi": 57,
          "time": 267.33306600000014,
          "velocity": 1,
          "duration": 0.6666660000000206
        },
        {
          "name": "A3",
          "midi": 57,
          "time": 267.99973200000017,
          "velocity": 1,
          "duration": 0.6666660000000206
        },
        {
          "name": "B3",
          "midi": 59,
          "time": 267.99973200000017,
          "velocity": 1,
          "duration": 0.6666660000000206
        },
        {
          "name": "B3",
          "midi": 59,
          "time": 268.6663980000002,
          "velocity": 1,
          "duration": 0.3333329999999819
        },
        {
          "name": "A3",
          "midi": 57,
          "time": 268.6663980000002,
          "velocity": 1,
          "duration": 0.3333329999999819
        },
        {
          "name": "A#3",
          "midi": 58,
          "time": 269.33306400000015,
          "velocity": 1,
          "duration": 1.999998000000005
        },
        {
          "name": "A#2",
          "midi": 46,
          "time": 269.33306400000015,
          "velocity": 1,
          "duration": 1.999998000000005
        },
        {
          "name": "A#3",
          "midi": 58,
          "time": 271.33306200000015,
          "velocity": 1,
          "duration": 0.6666660000000206
        },
        {
          "name": "A#2",
          "midi": 46,
          "time": 271.33306200000015,
          "velocity": 1,
          "duration": 0.6666660000000206
        },
        {
          "name": "A#3",
          "midi": 58,
          "time": 271.9997280000002,
          "velocity": 1,
          "duration": 0.6666660000000206
        },
        {
          "name": "A#2",
          "midi": 46,
          "time": 271.9997280000002,
          "velocity": 1,
          "duration": 0.6666660000000206
        },
        {
          "name": "A#3",
          "midi": 58,
          "time": 272.6663940000002,
          "velocity": 1,
          "duration": 0.6666660000000206
        },
        {
          "name": "A#2",
          "midi": 46,
          "time": 272.6663940000002,
          "velocity": 1,
          "duration": 0.6666660000000206
        },
        {
          "name": "A#3",
          "midi": 58,
          "time": 273.3330600000002,
          "velocity": 1,
          "duration": 0.6666660000000206
        },
        {
          "name": "A#2",
          "midi": 46,
          "time": 273.3330600000002,
          "velocity": 1,
          "duration": 0.6666660000000206
        },
        {
          "name": "A#3",
          "midi": 58,
          "time": 273.99972600000024,
          "velocity": 1,
          "duration": 0.6666660000000206
        },
        {
          "name": "A#2",
          "midi": 46,
          "time": 273.99972600000024,
          "velocity": 1,
          "duration": 0.6666660000000206
        },
        {
          "name": "A#3",
          "midi": 58,
          "time": 274.66639200000026,
          "velocity": 1,
          "duration": 0.3333329999999819
        },
        {
          "name": "A#2",
          "midi": 46,
          "time": 274.66639200000026,
          "velocity": 1,
          "duration": 0.3333329999999819
        },
        {
          "name": "C4",
          "midi": 60,
          "time": 275.3330580000002,
          "velocity": 1,
          "duration": 0.6666660000000206
        },
        {
          "name": "A3",
          "midi": 57,
          "time": 275.3330580000002,
          "velocity": 1,
          "duration": 0.6666660000000206
        },
        {
          "name": "A3",
          "midi": 57,
          "time": 275.99972400000024,
          "velocity": 1,
          "duration": 0.6666660000000206
        },
        {
          "name": "C4",
          "midi": 60,
          "time": 275.99972400000024,
          "velocity": 1,
          "duration": 0.6666660000000206
        },
        {
          "name": "C4",
          "midi": 60,
          "time": 276.66639000000026,
          "velocity": 1,
          "duration": 0.3333329999999819
        },
        {
          "name": "A3",
          "midi": 57,
          "time": 276.66639000000026,
          "velocity": 1,
          "duration": 0.3333329999999819
        },
        {
          "name": "C4",
          "midi": 60,
          "time": 277.3330560000002,
          "velocity": 1,
          "duration": 0.6666660000000206
        },
        {
          "name": "G3",
          "midi": 55,
          "time": 277.3330560000002,
          "velocity": 1,
          "duration": 0.6666660000000206
        },
        {
          "name": "C4",
          "midi": 60,
          "time": 277.99972200000025,
          "velocity": 1,
          "duration": 0.6666660000000206
        },
        {
          "name": "G3",
          "midi": 55,
          "time": 277.99972200000025,
          "velocity": 1,
          "duration": 0.6666660000000206
        },
        {
          "name": "G3",
          "midi": 55,
          "time": 278.66638800000027,
          "velocity": 1,
          "duration": 0.3333329999999819
        },
        {
          "name": "C4",
          "midi": 60,
          "time": 278.66638800000027,
          "velocity": 1,
          "duration": 0.3333329999999819
        },
        {
          "name": "C4",
          "midi": 60,
          "time": 278.99972100000025,
          "velocity": 1,
          "duration": 0.6666660000000206
        },
        {
          "name": "A3",
          "midi": 57,
          "time": 278.99972100000025,
          "velocity": 1,
          "duration": 0.6666660000000206
        },
        {
          "name": "C4",
          "midi": 60,
          "time": 279.99972000000025,
          "velocity": 1,
          "duration": 0.6666660000000206
        },
        {
          "name": "A3",
          "midi": 57,
          "time": 279.99972000000025,
          "velocity": 1,
          "duration": 0.6666660000000206
        },
        {
          "name": "C4",
          "midi": 60,
          "time": 280.99971900000025,
          "velocity": 1,
          "duration": 0.6666660000000206
        },
        {
          "name": "A3",
          "midi": 57,
          "time": 280.99971900000025,
          "velocity": 1,
          "duration": 0.6666660000000206
        },
        {
          "name": "C4",
          "midi": 60,
          "time": 281.99971800000026,
          "velocity": 1,
          "duration": 0.6666660000000206
        },
        {
          "name": "A3",
          "midi": 57,
          "time": 281.99971800000026,
          "velocity": 1,
          "duration": 0.6666660000000206
        },
        {
          "name": "C4",
          "midi": 60,
          "time": 282.6663840000003,
          "velocity": 1,
          "duration": 0.3333329999999819
        },
        {
          "name": "A3",
          "midi": 57,
          "time": 282.6663840000003,
          "velocity": 1,
          "duration": 0.3333329999999819
        },
        {
          "name": "D4",
          "midi": 62,
          "time": 294.49970550000023,
          "velocity": 1,
          "duration": 0.16666650000001937
        },
        {
          "name": "C4",
          "midi": 60,
          "time": 294.66637200000025,
          "velocity": 1,
          "duration": 0.16666650000001937
        },
        {
          "name": "B3",
          "midi": 59,
          "time": 294.83303850000027,
          "velocity": 1,
          "duration": 0.16666650000001937
        },
        {
          "name": "A3",
          "midi": 57,
          "time": 294.9997050000003,
          "velocity": 1,
          "duration": 0.3333329999999819
        },
        {
          "name": "A3",
          "midi": 57,
          "time": 295.3330380000003,
          "velocity": 1,
          "duration": 0.3333329999999819
        },
        {
          "name": "C4",
          "midi": 60,
          "time": 295.3330380000003,
          "velocity": 1,
          "duration": 0.3333329999999819
        },
        {
          "name": "D4",
          "midi": 62,
          "time": 295.66637100000025,
          "velocity": 1,
          "duration": 0.3333329999999819
        },
        {
          "name": "B3",
          "midi": 59,
          "time": 295.66637100000025,
          "velocity": 1,
          "duration": 0.3333329999999819
        },
        {
          "name": "E4",
          "midi": 64,
          "time": 295.99970400000024,
          "velocity": 1,
          "duration": 0.49999950000000126
        },
        {
          "name": "C4",
          "midi": 60,
          "time": 295.99970400000024,
          "velocity": 1,
          "duration": 0.49999950000000126
        },
        {
          "name": "D4",
          "midi": 62,
          "time": 296.49970350000024,
          "velocity": 1,
          "duration": 0.16666650000001937
        },
        {
          "name": "B3",
          "midi": 59,
          "time": 296.49970350000024,
          "velocity": 1,
          "duration": 0.16666650000001937
        },
        {
          "name": "C4",
          "midi": 60,
          "time": 296.66637000000026,
          "velocity": 1,
          "duration": 0.3333329999999819
        },
        {
          "name": "A3",
          "midi": 57,
          "time": 296.66637000000026,
          "velocity": 1,
          "duration": 0.3333329999999819
        },
        {
          "name": "B3",
          "midi": 59,
          "time": 296.99970300000024,
          "velocity": 1,
          "duration": 0.3333329999999819
        },
        {
          "name": "G#3",
          "midi": 56,
          "time": 296.99970300000024,
          "velocity": 1,
          "duration": 0.3333329999999819
        },
        {
          "name": "B3",
          "midi": 59,
          "time": 297.3330360000002,
          "velocity": 1,
          "duration": 0.3333329999999819
        },
        {
          "name": "G3",
          "midi": 55,
          "time": 297.3330360000002,
          "velocity": 1,
          "duration": 0.3333329999999819
        },
        {
          "name": "A3",
          "midi": 57,
          "time": 297.6663690000002,
          "velocity": 1,
          "duration": 0.3333329999999819
        },
        {
          "name": "F#3",
          "midi": 54,
          "time": 297.6663690000002,
          "velocity": 1,
          "duration": 0.3333329999999819
        },
        {
          "name": "E3",
          "midi": 52,
          "time": 297.9997020000002,
          "velocity": 1,
          "duration": 0.6666660000000206
        },
        {
          "name": "G#3",
          "midi": 56,
          "time": 297.9997020000002,
          "velocity": 1,
          "duration": 0.6666660000000206
        },
        {
          "name": "A3",
          "midi": 57,
          "time": 298.6663680000002,
          "velocity": 1,
          "duration": 0.16666650000001937
        },
        {
          "name": "F#3",
          "midi": 54,
          "time": 298.6663680000002,
          "velocity": 1,
          "duration": 0.16666650000001937
        },
        {
          "name": "B3",
          "midi": 59,
          "time": 298.8330345000002,
          "velocity": 1,
          "duration": 0.16666650000001937
        },
        {
          "name": "G#3",
          "midi": 56,
          "time": 298.8330345000002,
          "velocity": 1,
          "duration": 0.16666650000001937
        },
        {
          "name": "C4",
          "midi": 60,
          "time": 298.99970100000024,
          "velocity": 1,
          "duration": 0.3333329999999819
        },
        {
          "name": "A3",
          "midi": 57,
          "time": 298.99970100000024,
          "velocity": 1,
          "duration": 0.3333329999999819
        },
        {
          "name": "C4",
          "midi": 60,
          "time": 299.3330340000002,
          "velocity": 1,
          "duration": 0.3333329999999819
        },
        {
          "name": "A3",
          "midi": 57,
          "time": 299.3330340000002,
          "velocity": 1,
          "duration": 0.3333329999999819
        },
        {
          "name": "D4",
          "midi": 62,
          "time": 299.6663670000002,
          "velocity": 1,
          "duration": 0.3333329999999819
        },
        {
          "name": "B3",
          "midi": 59,
          "time": 299.6663670000002,
          "velocity": 1,
          "duration": 0.3333329999999819
        },
        {
          "name": "E4",
          "midi": 64,
          "time": 299.9997000000002,
          "velocity": 1,
          "duration": 0.49999950000000126
        },
        {
          "name": "C4",
          "midi": 60,
          "time": 299.9997000000002,
          "velocity": 1,
          "duration": 0.49999950000000126
        },
        {
          "name": "D4",
          "midi": 62,
          "time": 300.4996995000002,
          "velocity": 1,
          "duration": 0.16666650000001937
        },
        {
          "name": "B3",
          "midi": 59,
          "time": 300.4996995000002,
          "velocity": 1,
          "duration": 0.16666650000001937
        },
        {
          "name": "A3",
          "midi": 57,
          "time": 300.6663660000002,
          "velocity": 1,
          "duration": 0.3333329999999819
        },
        {
          "name": "C4",
          "midi": 60,
          "time": 300.6663660000002,
          "velocity": 1,
          "duration": 0.3333329999999819
        },
        {
          "name": "B3",
          "midi": 59,
          "time": 300.9996990000002,
          "velocity": 1,
          "duration": 0.3333329999999819
        },
        {
          "name": "G#3",
          "midi": 56,
          "time": 300.9996990000002,
          "velocity": 1,
          "duration": 0.3333329999999819
        },
        {
          "name": "B3",
          "midi": 59,
          "time": 301.3330320000002,
          "velocity": 1,
          "duration": 0.3333329999999819
        },
        {
          "name": "G3",
          "midi": 55,
          "time": 301.3330320000002,
          "velocity": 1,
          "duration": 0.3333329999999819
        },
        {
          "name": "A3",
          "midi": 57,
          "time": 301.66636500000016,
          "velocity": 1,
          "duration": 0.3333329999999819
        },
        {
          "name": "F#3",
          "midi": 54,
          "time": 301.66636500000016,
          "velocity": 1,
          "duration": 0.3333329999999819
        },
        {
          "name": "G3",
          "midi": 55,
          "time": 301.99969800000014,
          "velocity": 1,
          "duration": 0.16666650000001937
        },
        {
          "name": "E3",
          "midi": 52,
          "time": 301.99969800000014,
          "velocity": 1,
          "duration": 0.16666650000001937
        },
        {
          "name": "E3",
          "midi": 52,
          "time": 302.16636450000016,
          "velocity": 1,
          "duration": 0.16666650000001937
        },
        {
          "name": "G3",
          "midi": 55,
          "time": 302.3330310000002,
          "velocity": 1,
          "duration": 0.16666650000001937
        },
        {
          "name": "F3",
          "midi": 53,
          "time": 302.4996975000002,
          "velocity": 1,
          "duration": 0.16666650000001937
        },
        {
          "name": "E3",
          "midi": 52,
          "time": 302.6663640000002,
          "velocity": 1,
          "duration": 0.16666650000001937
        },
        {
          "name": "D3",
          "midi": 50,
          "time": 302.83303050000023,
          "velocity": 1,
          "duration": 0.16666650000001937
        },
        {
          "name": "C3",
          "midi": 48,
          "time": 302.99969700000025,
          "velocity": 1,
          "duration": 0.3333329999999819
        },
        {
          "name": "C4",
          "midi": 60,
          "time": 303.33303000000024,
          "velocity": 1,
          "duration": 0.3333329999999819
        },
        {
          "name": "C3",
          "midi": 48,
          "time": 303.33303000000024,
          "velocity": 1,
          "duration": 0.3333329999999819
        },
        {
          "name": "E4",
          "midi": 64,
          "time": 303.6663630000002,
          "velocity": 1,
          "duration": 0.3333329999999819
        },
        {
          "name": "E3",
          "midi": 52,
          "time": 303.6663630000002,
          "velocity": 1,
          "duration": 0.3333329999999819
        },
        {
          "name": "C4",
          "midi": 60,
          "time": 303.9996960000002,
          "velocity": 1,
          "duration": 0.6666660000000206
        },
        {
          "name": "C3",
          "midi": 48,
          "time": 303.9996960000002,
          "velocity": 1,
          "duration": 0.6666660000000206
        },
        {
          "name": "G3",
          "midi": 55,
          "time": 304.6663620000002,
          "velocity": 1,
          "duration": 0.3333329999999819
        },
        {
          "name": "G2",
          "midi": 43,
          "time": 304.6663620000002,
          "velocity": 1,
          "duration": 0.3333329999999819
        },
        {
          "name": "C4",
          "midi": 60,
          "time": 304.9996950000002,
          "velocity": 1,
          "duration": 0.3333329999999819
        },
        {
          "name": "C3",
          "midi": 48,
          "time": 304.9996950000002,
          "velocity": 1,
          "duration": 0.3333329999999819
        },
        {
          "name": "E3",
          "midi": 52,
          "time": 305.3330280000002,
          "velocity": 1,
          "duration": 0.3333329999999819
        },
        {
          "name": "E4",
          "midi": 64,
          "time": 305.3330280000002,
          "velocity": 1,
          "duration": 0.3333329999999819
        },
        {
          "name": "G4",
          "midi": 67,
          "time": 305.66636100000017,
          "velocity": 1,
          "duration": 0.3333329999999819
        },
        {
          "name": "G3",
          "midi": 55,
          "time": 305.66636100000017,
          "velocity": 1,
          "duration": 0.3333329999999819
        },
        {
          "name": "C4",
          "midi": 60,
          "time": 305.99969400000015,
          "velocity": 1,
          "duration": 0.6666660000000206
        },
        {
          "name": "C3",
          "midi": 48,
          "time": 305.99969400000015,
          "velocity": 1,
          "duration": 0.6666660000000206
        },
        {
          "name": "G2",
          "midi": 43,
          "time": 306.66636000000017,
          "velocity": 1,
          "duration": 0.3333329999999819
        },
        {
          "name": "C3",
          "midi": 48,
          "time": 306.99969300000015,
          "velocity": 1,
          "duration": 0.3333329999999819
        },
        {
          "name": "E3",
          "midi": 52,
          "time": 307.33302600000013,
          "velocity": 1,
          "duration": 0.3333329999999819
        },
        {
          "name": "G3",
          "midi": 55,
          "time": 307.6663590000001,
          "velocity": 1,
          "duration": 0.3333329999999819
        },
        {
          "name": "C4",
          "midi": 60,
          "time": 307.9996920000001,
          "velocity": 1,
          "duration": 0.3333329999999819
        },
        {
          "name": "E4",
          "midi": 64,
          "time": 308.3330250000001,
          "velocity": 1,
          "duration": 0.3333329999999819
        },
        {
          "name": "G4",
          "midi": 67,
          "time": 308.66635800000006,
          "velocity": 1,
          "duration": 0.49999950000000126
        },
        {
          "name": "F4",
          "midi": 65,
          "time": 309.16635750000006,
          "velocity": 1,
          "duration": 0.16666650000001937
        },
        {
          "name": "D4",
          "midi": 62,
          "time": 309.3330240000001,
          "velocity": 1,
          "duration": 0.16666650000001937
        },
        {
          "name": "B3",
          "midi": 59,
          "time": 309.4996905000001,
          "velocity": 1,
          "duration": 0.16666650000001937
        },
        {
          "name": "G3",
          "midi": 55,
          "time": 309.6663570000001,
          "velocity": 1,
          "duration": 0.16666650000001937
        },
        {
          "name": "F3",
          "midi": 53,
          "time": 309.83302350000014,
          "velocity": 1,
          "duration": 0.16666650000001937
        },
        {
          "name": "D3",
          "midi": 50,
          "time": 309.99969000000016,
          "velocity": 1,
          "duration": 0.16666650000001937
        },
        {
          "name": "F3",
          "midi": 53,
          "time": 310.1663565000002,
          "velocity": 1,
          "duration": 0.16666650000001937
        },
        {
          "name": "D3",
          "midi": 50,
          "time": 310.3330230000002,
          "velocity": 1,
          "duration": 0.16666650000001937
        },
        {
          "name": "B2",
          "midi": 47,
          "time": 310.4996895000002,
          "velocity": 1,
          "duration": 0.16666650000001937
        },
        {
          "name": "G2",
          "midi": 43,
          "time": 310.66635600000023,
          "velocity": 1,
          "duration": 0.16666650000001937
        },
        {
          "name": "B2",
          "midi": 47,
          "time": 310.83302250000025,
          "velocity": 1,
          "duration": 0.16666650000001937
        },
        {
          "name": "C3",
          "midi": 48,
          "time": 310.9996890000003,
          "velocity": 1,
          "duration": 0.3333329999999819
        },
        {
          "name": "D#3",
          "midi": 51,
          "time": 311.33302200000026,
          "velocity": 1,
          "duration": 0.3333329999999819
        },
        {
          "name": "G3",
          "midi": 55,
          "time": 311.66635500000024,
          "velocity": 1,
          "duration": 0.3333329999999819
        },
        {
          "name": "C4",
          "midi": 60,
          "time": 311.9996880000002,
          "velocity": 1,
          "duration": 0.3333329999999819
        },
        {
          "name": "D#4",
          "midi": 63,
          "time": 312.3330210000002,
          "velocity": 1,
          "duration": 0.3333329999999819
        },
        {
          "name": "G4",
          "midi": 67,
          "time": 312.6663540000002,
          "velocity": 1,
          "duration": 0.49999950000000126
        },
        {
          "name": "F4",
          "midi": 65,
          "time": 313.1663535000002,
          "velocity": 1,
          "duration": 0.16666650000001937
        },
        {
          "name": "D4",
          "midi": 62,
          "time": 313.3330200000002,
          "velocity": 1,
          "duration": 0.16666650000001937
        },
        {
          "name": "B3",
          "midi": 59,
          "time": 313.4996865000002,
          "velocity": 1,
          "duration": 0.16666650000001937
        },
        {
          "name": "G3",
          "midi": 55,
          "time": 313.66635300000024,
          "velocity": 1,
          "duration": 0.16666650000001937
        },
        {
          "name": "F3",
          "midi": 53,
          "time": 313.83301950000026,
          "velocity": 1,
          "duration": 0.16666650000001937
        },
        {
          "name": "D3",
          "midi": 50,
          "time": 313.9996860000003,
          "velocity": 1,
          "duration": 0.16666650000001937
        },
        {
          "name": "F3",
          "midi": 53,
          "time": 314.1663525000003,
          "velocity": 1,
          "duration": 0.16666650000001937
        },
        {
          "name": "D3",
          "midi": 50,
          "time": 314.3330190000003,
          "velocity": 1,
          "duration": 0.16666650000001937
        },
        {
          "name": "B2",
          "midi": 47,
          "time": 314.49968550000034,
          "velocity": 1,
          "duration": 0.16666650000001937
        },
        {
          "name": "G2",
          "midi": 43,
          "time": 314.66635200000036,
          "velocity": 1,
          "duration": 0.16666650000001937
        },
        {
          "name": "B2",
          "midi": 47,
          "time": 314.8330185000004,
          "velocity": 1,
          "duration": 0.16666650000001937
        },
        {
          "name": "C3",
          "midi": 48,
          "time": 314.9996850000004,
          "velocity": 1,
          "duration": 0.3333329999999819
        },
        {
          "name": "D#3",
          "midi": 51,
          "time": 315.3330180000004,
          "velocity": 1,
          "duration": 0.3333329999999819
        },
        {
          "name": "G3",
          "midi": 55,
          "time": 315.66635100000036,
          "velocity": 1,
          "duration": 0.3333329999999819
        },
        {
          "name": "G#3",
          "midi": 56,
          "time": 315.99968400000034,
          "velocity": 1,
          "duration": 0.6666660000000206
        },
        {
          "name": "C3",
          "midi": 48,
          "time": 316.66635000000036,
          "velocity": 1,
          "duration": 0.3333329999999819
        },
        {
          "name": "C#3",
          "midi": 49,
          "time": 316.99968300000035,
          "velocity": 1,
          "duration": 0.3333329999999819
        },
        {
          "name": "F3",
          "midi": 53,
          "time": 317.3330160000003,
          "velocity": 1,
          "duration": 0.3333329999999819
        },
        {
          "name": "A3",
          "midi": 57,
          "time": 317.6663490000003,
          "velocity": 1,
          "duration": 0.3333329999999819
        },
        {
          "name": "A#3",
          "midi": 58,
          "time": 317.9996820000003,
          "velocity": 1,
          "duration": 0.6666660000000206
        },
        {
          "name": "D3",
          "midi": 50,
          "time": 318.6663480000003,
          "velocity": 1,
          "duration": 0.3333329999999819
        },
        {
          "name": "D#3",
          "midi": 51,
          "time": 318.9996810000003,
          "velocity": 1,
          "duration": 0.3333329999999819
        },
        {
          "name": "G2",
          "midi": 43,
          "time": 319.3330140000003,
          "velocity": 1,
          "duration": 0.3333329999999819
        },
        {
          "name": "A#2",
          "midi": 46,
          "time": 319.66634700000026,
          "velocity": 1,
          "duration": 0.3333329999999819
        },
        {
          "name": "D#3",
          "midi": 51,
          "time": 319.99968000000024,
          "velocity": 1,
          "duration": 0.3333329999999819
        },
        {
          "name": "G3",
          "midi": 55,
          "time": 320.3330130000002,
          "velocity": 1,
          "duration": 0.3333329999999819
        },
        {
          "name": "A#3",
          "midi": 58,
          "time": 320.6663460000002,
          "velocity": 1,
          "duration": 0.49999950000000126
        },
        {
          "name": "G#3",
          "midi": 56,
          "time": 321.1663455000002,
          "velocity": 1,
          "duration": 0.16666650000001937
        },
        {
          "name": "F3",
          "midi": 53,
          "time": 321.3330120000002,
          "velocity": 1,
          "duration": 0.16666650000001937
        },
        {
          "name": "D3",
          "midi": 50,
          "time": 321.49967850000024,
          "velocity": 1,
          "duration": 0.16666650000001937
        },
        {
          "name": "A#2",
          "midi": 46,
          "time": 321.66634500000026,
          "velocity": 1,
          "duration": 0.16666650000001937
        },
        {
          "name": "G#2",
          "midi": 44,
          "time": 321.8330115000003,
          "velocity": 1,
          "duration": 0.16666650000001937
        },
        {
          "name": "F2",
          "midi": 41,
          "time": 321.9996780000003,
          "velocity": 1,
          "duration": 0.16666650000001937
        },
        {
          "name": "G#3",
          "midi": 56,
          "time": 322.1663445000003,
          "velocity": 1,
          "duration": 0.16666650000001937
        },
        {
          "name": "F3",
          "midi": 53,
          "time": 322.33301100000034,
          "velocity": 1,
          "duration": 0.16666650000001937
        },
        {
          "name": "D3",
          "midi": 50,
          "time": 322.49967750000036,
          "velocity": 1,
          "duration": 0.16666650000001937
        },
        {
          "name": "A#2",
          "midi": 46,
          "time": 322.6663440000004,
          "velocity": 1,
          "duration": 0.16666650000001937
        },
        {
          "name": "D3",
          "midi": 50,
          "time": 322.8330105000004,
          "velocity": 1,
          "duration": 0.16666650000001937
        },
        {
          "name": "D#3",
          "midi": 51,
          "time": 322.9996770000004,
          "velocity": 1,
          "duration": 0.3333329999999819
        },
        {
          "name": "F#2",
          "midi": 42,
          "time": 323.3330100000004,
          "velocity": 1,
          "duration": 0.3333329999999819
        },
        {
          "name": "A#2",
          "midi": 46,
          "time": 323.6663430000004,
          "velocity": 1,
          "duration": 0.3333329999999819
        },
        {
          "name": "D#3",
          "midi": 51,
          "time": 323.99967600000036,
          "velocity": 1,
          "duration": 0.3333329999999819
        },
        {
          "name": "F#3",
          "midi": 54,
          "time": 324.33300900000035,
          "velocity": 1,
          "duration": 0.3333329999999819
        },
        {
          "name": "A#3",
          "midi": 58,
          "time": 324.6663420000003,
          "velocity": 1,
          "duration": 0.3333329999999819
        },
        {
          "name": "D#4",
          "midi": 63,
          "time": 324.9996750000003,
          "velocity": 1,
          "duration": 0.3333329999999819
        },
        {
          "name": "D#4",
          "midi": 63,
          "time": 325.3330080000003,
          "velocity": 1,
          "duration": 0.3333329999999819
        },
        {
          "name": "F4",
          "midi": 65,
          "time": 325.6663410000003,
          "velocity": 1,
          "duration": 0.3333329999999819
        },
        {
          "name": "F#4",
          "midi": 66,
          "time": 325.99967400000025,
          "velocity": 1,
          "duration": 0.49999950000000126
        },
        {
          "name": "F4",
          "midi": 65,
          "time": 326.49967350000026,
          "velocity": 1,
          "duration": 0.16666650000001937
        },
        {
          "name": "D#4",
          "midi": 63,
          "time": 326.6663400000003,
          "velocity": 1,
          "duration": 0.3333329999999819
        },
        {
          "name": "D4",
          "midi": 62,
          "time": 326.99967300000026,
          "velocity": 1,
          "duration": 0.3333329999999819
        },
        {
          "name": "C#4",
          "midi": 61,
          "time": 327.33300600000024,
          "velocity": 1,
          "duration": 0.3333329999999819
        },
        {
          "name": "C4",
          "midi": 60,
          "time": 327.6663390000002,
          "velocity": 1,
          "duration": 0.3333329999999819
        },
        {
          "name": "A#3",
          "midi": 58,
          "time": 327.9996720000002,
          "velocity": 1,
          "duration": 0.6666660000000206
        },
        {
          "name": "C4",
          "midi": 60,
          "time": 328.6663380000002,
          "velocity": 1,
          "duration": 0.16666650000001937
        },
        {
          "name": "D4",
          "midi": 62,
          "time": 328.83300450000024,
          "velocity": 1,
          "duration": 0.16666650000001937
        },
        {
          "name": "D#4",
          "midi": 63,
          "time": 328.99967100000026,
          "velocity": 1,
          "duration": 0.3333329999999819
        },
        {
          "name": "D#4",
          "midi": 63,
          "time": 329.33300400000024,
          "velocity": 1,
          "duration": 0.3333329999999819
        },
        {
          "name": "F4",
          "midi": 65,
          "time": 329.6663370000002,
          "velocity": 1,
          "duration": 0.3333329999999819
        },
        {
          "name": "F#4",
          "midi": 66,
          "time": 329.9996700000002,
          "velocity": 1,
          "duration": 0.49999950000000126
        },
        {
          "name": "F4",
          "midi": 65,
          "time": 330.4996695000002,
          "velocity": 1,
          "duration": 0.16666650000001937
        },
        {
          "name": "D#4",
          "midi": 63,
          "time": 330.66633600000023,
          "velocity": 1,
          "duration": 0.3333329999999819
        },
        {
          "name": "C#4",
          "midi": 61,
          "time": 330.9996690000002,
          "velocity": 1,
          "duration": 1.166665500000022
        },
        {
          "name": "B3",
          "midi": 59,
          "time": 332.16633450000023,
          "velocity": 1,
          "duration": 0.16666650000001937
        },
        {
          "name": "A#3",
          "midi": 58,
          "time": 332.33300100000025,
          "velocity": 1,
          "duration": 0.16666650000001937
        },
        {
          "name": "B3",
          "midi": 59,
          "time": 332.49966750000027,
          "velocity": 1,
          "duration": 0.16666650000001937
        },
        {
          "name": "C#4",
          "midi": 61,
          "time": 332.6663340000003,
          "velocity": 1,
          "duration": 0.16666650000001937
        },
        {
          "name": "B3",
          "midi": 59,
          "time": 332.8330005000003,
          "velocity": 1,
          "duration": 0.16666650000001937
        },
        {
          "name": "A#3",
          "midi": 58,
          "time": 332.99966700000033,
          "velocity": 1,
          "duration": 0.3333329999999819
        },
        {
          "name": "A#3",
          "midi": 58,
          "time": 340.9996590000003,
          "velocity": 1,
          "duration": 0.6666660000000206
        },
        {
          "name": "D4",
          "midi": 62,
          "time": 341.6663250000003,
          "velocity": 1,
          "duration": 0.3333329999999819
        },
        {
          "name": "A#3",
          "midi": 58,
          "time": 341.9996580000003,
          "velocity": 1,
          "duration": 0.6666660000000206
        },
        {
          "name": "F3",
          "midi": 53,
          "time": 342.6663240000003,
          "velocity": 1,
          "duration": 0.3333329999999819
        },
        {
          "name": "A#3",
          "midi": 58,
          "time": 342.9996570000003,
          "velocity": 1,
          "duration": 0.3333329999999819
        },
        {
          "name": "D4",
          "midi": 62,
          "time": 343.3329900000003,
          "velocity": 1,
          "duration": 0.3333329999999819
        },
        {
          "name": "F4",
          "midi": 65,
          "time": 343.66632300000026,
          "velocity": 1,
          "duration": 0.3333329999999819
        },
        {
          "name": "F4",
          "midi": 65,
          "time": 343.99965600000024,
          "velocity": 1,
          "duration": 0.9999990000000025
        },
        {
          "name": "A#3",
          "midi": 58,
          "time": 344.99965500000025,
          "velocity": 1,
          "duration": 0.6666660000000206
        },
        {
          "name": "D#4",
          "midi": 63,
          "time": 345.66632100000027,
          "velocity": 1,
          "duration": 0.3333329999999819
        },
        {
          "name": "A#3",
          "midi": 58,
          "time": 345.99965400000025,
          "velocity": 1,
          "duration": 0.6666660000000206
        },
        {
          "name": "F#3",
          "midi": 54,
          "time": 346.66632000000027,
          "velocity": 1,
          "duration": 0.3333329999999819
        },
        {
          "name": "A#3",
          "midi": 58,
          "time": 346.99965300000025,
          "velocity": 1,
          "duration": 0.3333329999999819
        },
        {
          "name": "D#4",
          "midi": 63,
          "time": 347.33298600000023,
          "velocity": 1,
          "duration": 0.3333329999999819
        },
        {
          "name": "F#4",
          "midi": 66,
          "time": 347.6663190000002,
          "velocity": 1,
          "duration": 0.3333329999999819
        },
        {
          "name": "F#4",
          "midi": 66,
          "time": 347.9996520000002,
          "velocity": 1,
          "duration": 0.9999990000000025
        },
        {
          "name": "C4",
          "midi": 60,
          "time": 348.9996510000002,
          "velocity": 1,
          "duration": 0.6666660000000206
        },
        {
          "name": "D#4",
          "midi": 63,
          "time": 349.6663170000002,
          "velocity": 1,
          "duration": 0.3333329999999819
        },
        {
          "name": "C4",
          "midi": 60,
          "time": 349.9996500000002,
          "velocity": 1,
          "duration": 0.6666660000000206
        },
        {
          "name": "G#3",
          "midi": 56,
          "time": 350.6663160000002,
          "velocity": 1,
          "duration": 0.3333329999999819
        },
        {
          "name": "C4",
          "midi": 60,
          "time": 350.9996490000002,
          "velocity": 1,
          "duration": 0.3333329999999819
        },
        {
          "name": "D#4",
          "midi": 63,
          "time": 351.3329820000002,
          "velocity": 1,
          "duration": 0.3333329999999819
        },
        {
          "name": "F#4",
          "midi": 66,
          "time": 351.66631500000017,
          "velocity": 1,
          "duration": 0.3333329999999819
        },
        {
          "name": "F#4",
          "midi": 66,
          "time": 351.99964800000015,
          "velocity": 1,
          "duration": 0.9999990000000025
        },
        {
          "name": "C#4",
          "midi": 61,
          "time": 352.99964700000015,
          "velocity": 1,
          "duration": 0.6666660000000206
        },
        {
          "name": "F4",
          "midi": 65,
          "time": 353.6663130000002,
          "velocity": 1,
          "duration": 0.3333329999999819
        },
        {
          "name": "C#4",
          "midi": 61,
          "time": 353.99964600000015,
          "velocity": 1,
          "duration": 0.6666660000000206
        },
        {
          "name": "G#3",
          "midi": 56,
          "time": 354.6663120000002,
          "velocity": 1,
          "duration": 0.3333329999999819
        },
        {
          "name": "G#3",
          "midi": 56,
          "time": 354.99964500000016,
          "velocity": 1,
          "duration": 0.3333329999999819
        },
        {
          "name": "C#4",
          "midi": 61,
          "time": 355.33297800000014,
          "velocity": 1,
          "duration": 0.3333329999999819
        },
        {
          "name": "F4",
          "midi": 65,
          "time": 355.6663110000001,
          "velocity": 1,
          "duration": 0.3333329999999819
        },
        {
          "name": "F4",
          "midi": 65,
          "time": 355.9996440000001,
          "velocity": 1,
          "duration": 0.9999990000000025
        },
        {
          "name": "D4",
          "midi": 62,
          "time": 356.9996430000001,
          "velocity": 1,
          "duration": 0.6666660000000206
        },
        {
          "name": "F4",
          "midi": 65,
          "time": 357.6663090000001,
          "velocity": 1,
          "duration": 0.3333329999999819
        },
        {
          "name": "D4",
          "midi": 62,
          "time": 357.9996420000001,
          "velocity": 1,
          "duration": 0.6666660000000206
        },
        {
          "name": "A#3",
          "midi": 58,
          "time": 358.66630800000013,
          "velocity": 1,
          "duration": 0.3333329999999819
        },
        {
          "name": "A#3",
          "midi": 58,
          "time": 358.9996410000001,
          "velocity": 1,
          "duration": 0.3333329999999819
        },
        {
          "name": "D4",
          "midi": 62,
          "time": 359.3329740000001,
          "velocity": 1,
          "duration": 0.3333329999999819
        },
        {
          "name": "F4",
          "midi": 65,
          "time": 359.6663070000001,
          "velocity": 1,
          "duration": 0.3333329999999819
        },
        {
          "name": "F4",
          "midi": 65,
          "time": 359.99964000000006,
          "velocity": 1,
          "duration": 0.9999990000000025
        },
        {
          "name": "D#4",
          "midi": 63,
          "time": 360.99963900000006,
          "velocity": 1,
          "duration": 0.3333329999999819
        },
        {
          "name": "D#4",
          "midi": 63,
          "time": 361.99963800000006,
          "velocity": 1,
          "duration": 0.6666660000000206
        },
        {
          "name": "D#3",
          "midi": 51,
          "time": 361.99963800000006,
          "velocity": 1,
          "duration": 0.6666660000000206
        },
        {
          "name": "F#4",
          "midi": 66,
          "time": 362.6663040000001,
          "velocity": 1,
          "duration": 0.3333329999999819
        },
        {
          "name": "F#3",
          "midi": 54,
          "time": 362.6663040000001,
          "velocity": 1,
          "duration": 0.3333329999999819
        },
        {
          "name": "D#3",
          "midi": 51,
          "time": 363.99963600000007,
          "velocity": 1,
          "duration": 0.6666660000000206
        },
        {
          "name": "D#4",
          "midi": 63,
          "time": 363.99963600000007,
          "velocity": 1,
          "duration": 0.6666660000000206
        },
        {
          "name": "F#4",
          "midi": 66,
          "time": 364.6663020000001,
          "velocity": 1,
          "duration": 0.3333329999999819
        },
        {
          "name": "F#3",
          "midi": 54,
          "time": 364.6663020000001,
          "velocity": 1,
          "duration": 0.3333329999999819
        },
        {
          "name": "B3",
          "midi": 59,
          "time": 364.99963500000007,
          "velocity": 1,
          "duration": 3.3333299999999895
        },
        {
          "name": "B2",
          "midi": 47,
          "time": 364.99963500000007,
          "velocity": 1,
          "duration": 3.3333299999999895
        },
        {
          "name": "B3",
          "midi": 59,
          "time": 368.33296500000006,
          "velocity": 1,
          "duration": 0.3333329999999819
        },
        {
          "name": "B2",
          "midi": 47,
          "time": 368.33296500000006,
          "velocity": 1,
          "duration": 0.3333329999999819
        },
        {
          "name": "B3",
          "midi": 59,
          "time": 368.66629800000004,
          "velocity": 1,
          "duration": 0.3333329999999819
        },
        {
          "name": "B2",
          "midi": 47,
          "time": 368.66629800000004,
          "velocity": 1,
          "duration": 0.3333329999999819
        },
        {
          "name": "D#4",
          "midi": 63,
          "time": 368.999631,
          "velocity": 1,
          "duration": 0.9999990000000025
        },
        {
          "name": "B3",
          "midi": 59,
          "time": 368.999631,
          "velocity": 1,
          "duration": 0.9999990000000025
        },
        {
          "name": "B3",
          "midi": 59,
          "time": 369.99963,
          "velocity": 1,
          "duration": 0.9999990000000025
        },
        {
          "name": "D#4",
          "midi": 63,
          "time": 369.99963,
          "velocity": 1,
          "duration": 0.9999990000000025
        },
        {
          "name": "D#4",
          "midi": 63,
          "time": 370.999629,
          "velocity": 1,
          "duration": 0.9999990000000025
        },
        {
          "name": "B3",
          "midi": 59,
          "time": 370.999629,
          "velocity": 1,
          "duration": 0.9999990000000025
        },
        {
          "name": "D#4",
          "midi": 63,
          "time": 371.99962800000003,
          "velocity": 1,
          "duration": 0.9999990000000025
        },
        {
          "name": "B3",
          "midi": 59,
          "time": 371.99962800000003,
          "velocity": 1,
          "duration": 0.9999990000000025
        },
        {
          "name": "D#4",
          "midi": 63,
          "time": 372.99962700000003,
          "velocity": 1,
          "duration": 0.9999990000000025
        },
        {
          "name": "C4",
          "midi": 60,
          "time": 372.99962700000003,
          "velocity": 1,
          "duration": 0.9999990000000025
        },
        {
          "name": "C4",
          "midi": 60,
          "time": 373.99962600000003,
          "velocity": 1,
          "duration": 0.9999990000000025
        },
        {
          "name": "D#4",
          "midi": 63,
          "time": 373.99962600000003,
          "velocity": 1,
          "duration": 0.9999990000000025
        },
        {
          "name": "D#4",
          "midi": 63,
          "time": 374.99962500000004,
          "velocity": 1,
          "duration": 0.9999990000000025
        },
        {
          "name": "C4",
          "midi": 60,
          "time": 374.99962500000004,
          "velocity": 1,
          "duration": 0.9999990000000025
        },
        {
          "name": "D#4",
          "midi": 63,
          "time": 375.99962400000004,
          "velocity": 1,
          "duration": 0.9999990000000025
        },
        {
          "name": "C3",
          "midi": 48,
          "time": 375.99962400000004,
          "velocity": 1,
          "duration": 0.9999990000000025
        },
        {
          "name": "A#3",
          "midi": 58,
          "time": 376.99962300000004,
          "velocity": 1,
          "duration": 0.9999990000000025
        },
        {
          "name": "D3",
          "midi": 50,
          "time": 376.99962300000004,
          "velocity": 1,
          "duration": 0.9999990000000025
        },
        {
          "name": "A#3",
          "midi": 58,
          "time": 377.99962200000004,
          "velocity": 1,
          "duration": 0.9999990000000025
        },
        {
          "name": "D3",
          "midi": 50,
          "time": 377.99962200000004,
          "velocity": 1,
          "duration": 0.9999990000000025
        },
        {
          "name": "A#3",
          "midi": 58,
          "time": 378.99962100000005,
          "velocity": 1,
          "duration": 0.9999990000000025
        },
        {
          "name": "D#3",
          "midi": 51,
          "time": 378.99962100000005,
          "velocity": 1,
          "duration": 0.9999990000000025
        },
        {
          "name": "A#3",
          "midi": 58,
          "time": 379.99962000000005,
          "velocity": 1,
          "duration": 0.9999990000000025
        },
        {
          "name": "D#3",
          "midi": 51,
          "time": 379.99962000000005,
          "velocity": 1,
          "duration": 0.9999990000000025
        },
        {
          "name": "A#3",
          "midi": 58,
          "time": 380.99961900000005,
          "velocity": 1,
          "duration": 0.9999990000000025
        },
        {
          "name": "A#2",
          "midi": 46,
          "time": 380.99961900000005,
          "velocity": 1,
          "duration": 0.9999990000000025
        },
        {
          "name": "A#2",
          "midi": 46,
          "time": 381.99961800000005,
          "velocity": 1,
          "duration": 0.9999990000000025
        },
        {
          "name": "A#3",
          "midi": 58,
          "time": 381.99961800000005,
          "velocity": 1,
          "duration": 0.9999990000000025
        },
        {
          "name": "A#3",
          "midi": 58,
          "time": 382.99961700000006,
          "velocity": 1,
          "duration": 0.9999990000000025
        },
        {
          "name": "A#2",
          "midi": 46,
          "time": 382.99961700000006,
          "velocity": 1,
          "duration": 0.9999990000000025
        },
        {
          "name": "A#3",
          "midi": 58,
          "time": 383.99961600000006,
          "velocity": 1,
          "duration": 0.9999990000000025
        },
        {
          "name": "A#2",
          "midi": 46,
          "time": 383.99961600000006,
          "velocity": 1,
          "duration": 0.9999990000000025
        },
        {
          "name": "A#3",
          "midi": 58,
          "time": 386.99961300000007,
          "velocity": 1,
          "duration": 0.9999990000000025
        },
        {
          "name": "A#2",
          "midi": 46,
          "time": 386.99961300000007,
          "velocity": 1,
          "duration": 0.9999990000000025
        },
        {
          "name": "A#3",
          "midi": 58,
          "time": 387.99961200000007,
          "velocity": 1,
          "duration": 0.9999990000000025
        },
        {
          "name": "A#2",
          "midi": 46,
          "time": 387.99961200000007,
          "velocity": 1,
          "duration": 0.9999990000000025
        },
        {
          "name": "A#3",
          "midi": 58,
          "time": 390.9996090000001,
          "velocity": 1,
          "duration": 0.9999990000000025
        },
        {
          "name": "A#2",
          "midi": 46,
          "time": 390.9996090000001,
          "velocity": 1,
          "duration": 0.9999990000000025
        },
        {
          "name": "A#3",
          "midi": 58,
          "time": 391.9996080000001,
          "velocity": 1,
          "duration": 0.9999990000000025
        },
        {
          "name": "A#2",
          "midi": 46,
          "time": 391.9996080000001,
          "velocity": 1,
          "duration": 0.9999990000000025
        },
        {
          "name": "D4",
          "midi": 62,
          "time": 398.9996010000001,
          "velocity": 1,
          "duration": 0.9999990000000025
        },
        {
          "name": "A#3",
          "midi": 58,
          "time": 398.9996010000001,
          "velocity": 1,
          "duration": 0.9999990000000025
        },
        {
          "name": "A#3",
          "midi": 58,
          "time": 399.9996000000001,
          "velocity": 1,
          "duration": 0.9999990000000025
        },
        {
          "name": "D4",
          "midi": 62,
          "time": 399.9996000000001,
          "velocity": 1,
          "duration": 0.9999990000000025
        },
        {
          "name": "D#4",
          "midi": 63,
          "time": 400.9995990000001,
          "velocity": 1,
          "duration": 0.3333329999999819
        },
        {
          "name": "D#3",
          "midi": 51,
          "time": 400.9995990000001,
          "velocity": 1,
          "duration": 0.3333329999999819
        },
        {
          "name": "F3",
          "midi": 53,
          "time": 424.9995750000001,
          "velocity": 1,
          "duration": 0.9999990000000025
        },
        {
          "name": "C#3",
          "midi": 49,
          "time": 424.9995750000001,
          "velocity": 1,
          "duration": 0.9999990000000025
        },
        {
          "name": "D#3",
          "midi": 51,
          "time": 425.9995740000001,
          "velocity": 1,
          "duration": 0.9999990000000025
        },
        {
          "name": "B2",
          "midi": 47,
          "time": 425.9995740000001,
          "velocity": 1,
          "duration": 0.9999990000000025
        },
        {
          "name": "F3",
          "midi": 53,
          "time": 426.9995730000001,
          "velocity": 1,
          "duration": 0.3333329999999819
        },
        {
          "name": "A#2",
          "midi": 46,
          "time": 426.9995730000001,
          "velocity": 1,
          "duration": 0.3333329999999819
        },
        {
          "name": "C4",
          "midi": 60,
          "time": 430.6662360000001,
          "velocity": 1,
          "duration": 0.16666650000001937
        },
        {
          "name": "A#3",
          "midi": 58,
          "time": 430.8329025000001,
          "velocity": 1,
          "duration": 0.16666650000001937
        },
        {
          "name": "G#3",
          "midi": 56,
          "time": 430.9995690000001,
          "velocity": 1,
          "duration": 0.16666650000001937
        },
        {
          "name": "A#3",
          "midi": 58,
          "time": 431.16623550000014,
          "velocity": 1,
          "duration": 0.16666650000001937
        },
        {
          "name": "G#3",
          "midi": 56,
          "time": 431.33290200000016,
          "velocity": 1,
          "duration": 0.16666650000001937
        },
        {
          "name": "G3",
          "midi": 55,
          "time": 431.4995685000002,
          "velocity": 1,
          "duration": 0.16666650000001937
        },
        {
          "name": "G#3",
          "midi": 56,
          "time": 431.6662350000002,
          "velocity": 1,
          "duration": 0.16666650000001937
        },
        {
          "name": "F3",
          "midi": 53,
          "time": 431.6662350000002,
          "velocity": 1,
          "duration": 0.16666650000001937
        },
        {
          "name": "G3",
          "midi": 55,
          "time": 431.8329015000002,
          "velocity": 1,
          "duration": 0.16666650000001937
        },
        {
          "name": "D#3",
          "midi": 51,
          "time": 431.8329015000002,
          "velocity": 1,
          "duration": 0.16666650000001937
        },
        {
          "name": "D3",
          "midi": 50,
          "time": 431.99956800000024,
          "velocity": 1,
          "duration": 0.16666650000001937
        },
        {
          "name": "F3",
          "midi": 53,
          "time": 431.99956800000024,
          "velocity": 1,
          "duration": 0.16666650000001937
        },
        {
          "name": "D#3",
          "midi": 51,
          "time": 432.16623450000026,
          "velocity": 1,
          "duration": 0.16666650000001937
        },
        {
          "name": "C3",
          "midi": 48,
          "time": 432.16623450000026,
          "velocity": 1,
          "duration": 0.16666650000001937
        },
        {
          "name": "D3",
          "midi": 50,
          "time": 432.3329010000003,
          "velocity": 1,
          "duration": 0.16666650000001937
        },
        {
          "name": "A#2",
          "midi": 46,
          "time": 432.3329010000003,
          "velocity": 1,
          "duration": 0.16666650000001937
        },
        {
          "name": "A#3",
          "midi": 58,
          "time": 432.4995675000003,
          "velocity": 1,
          "duration": 0.16666650000001937
        },
        {
          "name": "A#3",
          "midi": 58,
          "time": 432.6662340000003,
          "velocity": 1,
          "duration": 0.16666650000001937
        },
        {
          "name": "A#3",
          "midi": 58,
          "time": 432.83290050000033,
          "velocity": 1,
          "duration": 0.16666650000001937
        },
        {
          "name": "A#3",
          "midi": 58,
          "time": 432.99956700000035,
          "velocity": 1,
          "duration": 0.3333329999999819
        },
        {
          "name": "D#3",
          "midi": 51,
          "time": 432.99956700000035,
          "velocity": 1,
          "duration": 0.3333329999999819
        },
        {
          "name": "A#3",
          "midi": 58,
          "time": 433.33290000000034,
          "velocity": 1,
          "duration": 0.3333329999999819
        },
        {
          "name": "G3",
          "midi": 55,
          "time": 433.33290000000034,
          "velocity": 1,
          "duration": 0.3333329999999819
        },
        {
          "name": "A#3",
          "midi": 58,
          "time": 433.6662330000003,
          "velocity": 1,
          "duration": 0.3333329999999819
        },
        {
          "name": "G3",
          "midi": 55,
          "time": 433.6662330000003,
          "velocity": 1,
          "duration": 0.3333329999999819
        },
        {
          "name": "A#3",
          "midi": 58,
          "time": 433.9995660000003,
          "velocity": 1,
          "duration": 0.6666660000000206
        },
        {
          "name": "G3",
          "midi": 55,
          "time": 433.9995660000003,
          "velocity": 1,
          "duration": 0.6666660000000206
        },
        {
          "name": "A#3",
          "midi": 58,
          "time": 434.6662320000003,
          "velocity": 1,
          "duration": 0.3333329999999819
        },
        {
          "name": "G3",
          "midi": 55,
          "time": 434.6662320000003,
          "velocity": 1,
          "duration": 0.3333329999999819
        },
        {
          "name": "A#3",
          "midi": 58,
          "time": 434.9995650000003,
          "velocity": 1,
          "duration": 0.3333329999999819
        },
        {
          "name": "G3",
          "midi": 55,
          "time": 434.9995650000003,
          "velocity": 1,
          "duration": 0.3333329999999819
        },
        {
          "name": "G3",
          "midi": 55,
          "time": 435.3328980000003,
          "velocity": 1,
          "duration": 0.3333329999999819
        },
        {
          "name": "A#3",
          "midi": 58,
          "time": 435.3328980000003,
          "velocity": 1,
          "duration": 0.3333329999999819
        },
        {
          "name": "A#3",
          "midi": 58,
          "time": 435.66623100000027,
          "velocity": 1,
          "duration": 0.3333329999999819
        },
        {
          "name": "G3",
          "midi": 55,
          "time": 435.66623100000027,
          "velocity": 1,
          "duration": 0.3333329999999819
        },
        {
          "name": "A#3",
          "midi": 58,
          "time": 435.99956400000025,
          "velocity": 1,
          "duration": 0.6666660000000206
        },
        {
          "name": "G3",
          "midi": 55,
          "time": 435.99956400000025,
          "velocity": 1,
          "duration": 0.6666660000000206
        },
        {
          "name": "C#4",
          "midi": 61,
          "time": 436.66623000000027,
          "velocity": 1,
          "duration": 0.3333329999999819
        },
        {
          "name": "G3",
          "midi": 55,
          "time": 436.66623000000027,
          "velocity": 1,
          "duration": 0.3333329999999819
        },
        {
          "name": "C4",
          "midi": 60,
          "time": 436.99956300000025,
          "velocity": 1,
          "duration": 0.3333329999999819
        },
        {
          "name": "G#3",
          "midi": 56,
          "time": 436.99956300000025,
          "velocity": 1,
          "duration": 0.3333329999999819
        },
        {
          "name": "C4",
          "midi": 60,
          "time": 437.33289600000023,
          "velocity": 1,
          "duration": 0.3333329999999819
        },
        {
          "name": "G#3",
          "midi": 56,
          "time": 437.33289600000023,
          "velocity": 1,
          "duration": 0.3333329999999819
        },
        {
          "name": "C4",
          "midi": 60,
          "time": 437.6662290000002,
          "velocity": 1,
          "duration": 0.3333329999999819
        },
        {
          "name": "G#3",
          "midi": 56,
          "time": 437.6662290000002,
          "velocity": 1,
          "duration": 0.3333329999999819
        },
        {
          "name": "C4",
          "midi": 60,
          "time": 437.9995620000002,
          "velocity": 1,
          "duration": 0.6666660000000206
        },
        {
          "name": "G#3",
          "midi": 56,
          "time": 437.9995620000002,
          "velocity": 1,
          "duration": 0.6666660000000206
        },
        {
          "name": "A3",
          "midi": 57,
          "time": 438.6662280000002,
          "velocity": 1,
          "duration": 0.3333329999999819
        },
        {
          "name": "C4",
          "midi": 60,
          "time": 438.6662280000002,
          "velocity": 1,
          "duration": 0.3333329999999819
        },
        {
          "name": "C#4",
          "midi": 61,
          "time": 438.9995610000002,
          "velocity": 1,
          "duration": 0.9999990000000025
        },
        {
          "name": "A#3",
          "midi": 58,
          "time": 438.9995610000002,
          "velocity": 1,
          "duration": 0.9999990000000025
        },
        {
          "name": "D#4",
          "midi": 63,
          "time": 439.9995600000002,
          "velocity": 1,
          "duration": 0.9999990000000025
        },
        {
          "name": "C4",
          "midi": 60,
          "time": 439.9995600000002,
          "velocity": 1,
          "duration": 0.9999990000000025
        },
        {
          "name": "D4",
          "midi": 62,
          "time": 440.9995590000002,
          "velocity": 1,
          "duration": 1.3333319999999844
        },
        {
          "name": "B3",
          "midi": 59,
          "time": 440.9995590000002,
          "velocity": 1,
          "duration": 1.3333319999999844
        },
        {
          "name": "D4",
          "midi": 62,
          "time": 442.3328910000002,
          "velocity": 1,
          "duration": 0.3333329999999819
        },
        {
          "name": "A#3",
          "midi": 58,
          "time": 442.3328910000002,
          "velocity": 1,
          "duration": 0.3333329999999819
        },
        {
          "name": "F4",
          "midi": 65,
          "time": 442.66622400000017,
          "velocity": 1,
          "duration": 0.3333329999999819
        },
        {
          "name": "A#3",
          "midi": 58,
          "time": 442.66622400000017,
          "velocity": 1,
          "duration": 0.3333329999999819
        },
        {
          "name": "D#4",
          "midi": 63,
          "time": 442.99955700000015,
          "velocity": 1,
          "duration": 0.6666660000000206
        },
        {
          "name": "A#3",
          "midi": 58,
          "time": 442.99955700000015,
          "velocity": 1,
          "duration": 0.6666660000000206
        },
        {
          "name": "A#3",
          "midi": 58,
          "time": 443.6662230000002,
          "velocity": 1,
          "duration": 0.3333329999999819
        },
        {
          "name": "D#4",
          "midi": 63,
          "time": 443.6662230000002,
          "velocity": 1,
          "duration": 0.3333329999999819
        },
        {
          "name": "D#4",
          "midi": 63,
          "time": 443.99955600000015,
          "velocity": 1,
          "duration": 0.6666660000000206
        },
        {
          "name": "A#3",
          "midi": 58,
          "time": 443.99955600000015,
          "velocity": 1,
          "duration": 0.6666660000000206
        },
        {
          "name": "D#4",
          "midi": 63,
          "time": 444.6662220000002,
          "velocity": 1,
          "duration": 0.6666660000000206
        },
        {
          "name": "A#3",
          "midi": 58,
          "time": 444.6662220000002,
          "velocity": 1,
          "duration": 0.6666660000000206
        },
        {
          "name": "D#4",
          "midi": 63,
          "time": 445.3328880000002,
          "velocity": 1,
          "duration": 0.3333329999999819
        },
        {
          "name": "A#3",
          "midi": 58,
          "time": 445.3328880000002,
          "velocity": 1,
          "duration": 0.3333329999999819
        },
        {
          "name": "D#4",
          "midi": 63,
          "time": 445.6662210000002,
          "velocity": 1,
          "duration": 0.3333329999999819
        },
        {
          "name": "A#3",
          "midi": 58,
          "time": 445.6662210000002,
          "velocity": 1,
          "duration": 0.3333329999999819
        },
        {
          "name": "D#4",
          "midi": 63,
          "time": 445.99955400000016,
          "velocity": 1,
          "duration": 0.6666660000000206
        },
        {
          "name": "A#3",
          "midi": 58,
          "time": 445.99955400000016,
          "velocity": 1,
          "duration": 0.6666660000000206
        },
        {
          "name": "D#4",
          "midi": 63,
          "time": 446.6662200000002,
          "velocity": 1,
          "duration": 0.6666659999999638
        },
        {
          "name": "B3",
          "midi": 59,
          "time": 446.6662200000002,
          "velocity": 1,
          "duration": 0.3333329999999819
        },
        {
          "name": "C4",
          "midi": 60,
          "time": 446.99955300000016,
          "velocity": 1,
          "duration": 0.3333329999999819
        },
        {
          "name": "D#4",
          "midi": 63,
          "time": 447.33288600000014,
          "velocity": 1,
          "duration": 0.3333329999999819
        },
        {
          "name": "C4",
          "midi": 60,
          "time": 447.33288600000014,
          "velocity": 1,
          "duration": 0.3333329999999819
        },
        {
          "name": "D#4",
          "midi": 63,
          "time": 447.6662190000001,
          "velocity": 1,
          "duration": 0.3333329999999819
        },
        {
          "name": "C4",
          "midi": 60,
          "time": 447.6662190000001,
          "velocity": 1,
          "duration": 0.3333329999999819
        },
        {
          "name": "D#4",
          "midi": 63,
          "time": 447.9995520000001,
          "velocity": 1,
          "duration": 0.6666660000000206
        },
        {
          "name": "C4",
          "midi": 60,
          "time": 447.9995520000001,
          "velocity": 1,
          "duration": 0.6666660000000206
        },
        {
          "name": "C4",
          "midi": 60,
          "time": 448.66621800000013,
          "velocity": 1,
          "duration": 0.3333329999999819
        },
        {
          "name": "A#3",
          "midi": 58,
          "time": 448.66621800000013,
          "velocity": 1,
          "duration": 0.3333329999999819
        },
        {
          "name": "C4",
          "midi": 60,
          "time": 448.9995510000001,
          "velocity": 1,
          "duration": 0.9999990000000025
        },
        {
          "name": "G#3",
          "midi": 56,
          "time": 448.9995510000001,
          "velocity": 1,
          "duration": 0.9999990000000025
        },
        {
          "name": "C4",
          "midi": 60,
          "time": 449.9995500000001,
          "velocity": 1,
          "duration": 0.9999990000000025
        },
        {
          "name": "A3",
          "midi": 57,
          "time": 449.9995500000001,
          "velocity": 1,
          "duration": 0.9999990000000025
        },
        {
          "name": "D4",
          "midi": 62,
          "time": 450.9995490000001,
          "velocity": 1,
          "duration": 0.3333329999999819
        },
        {
          "name": "A#3",
          "midi": 58,
          "time": 450.9995490000001,
          "velocity": 1,
          "duration": 0.3333329999999819
        },
        {
          "name": "B3",
          "midi": 59,
          "time": 459.3328740000001,
          "velocity": 1,
          "duration": 0.49999950000000126
        },
        {
          "name": "A#3",
          "midi": 58,
          "time": 459.8328735000001,
          "velocity": 1,
          "duration": 0.16666650000001937
        },
        {
          "name": "G#3",
          "midi": 56,
          "time": 459.99954000000014,
          "velocity": 1,
          "duration": 0.3333329999999819
        },
        {
          "name": "B3",
          "midi": 59,
          "time": 460.3328730000001,
          "velocity": 1,
          "duration": 0.49999950000000126
        },
        {
          "name": "A#3",
          "midi": 58,
          "time": 460.8328725000001,
          "velocity": 1,
          "duration": 0.16666650000001937
        },
        {
          "name": "G#3",
          "midi": 56,
          "time": 460.99953900000014,
          "velocity": 1,
          "duration": 0.3333329999999819
        },
        {
          "name": "D#4",
          "midi": 63,
          "time": 462.99953700000015,
          "velocity": 1,
          "duration": 0.6666660000000206
        },
        {
          "name": "D4",
          "midi": 62,
          "time": 463.66620300000017,
          "velocity": 1,
          "duration": 0.16666650000001937
        },
        {
          "name": "C#4",
          "midi": 61,
          "time": 463.8328695000002,
          "velocity": 1,
          "duration": 0.16666650000001937
        },
        {
          "name": "D#4",
          "midi": 63,
          "time": 463.9995360000002,
          "velocity": 1,
          "duration": 0.3333329999999819
        },
        {
          "name": "C4",
          "midi": 60,
          "time": 463.9995360000002,
          "velocity": 1,
          "duration": 0.3333329999999819
        },
        {
          "name": "D4",
          "midi": 62,
          "time": 464.3328690000002,
          "velocity": 1,
          "duration": 0.3333329999999819
        },
        {
          "name": "A#3",
          "midi": 58,
          "time": 464.3328690000002,
          "velocity": 1,
          "duration": 0.3333329999999819
        },
        {
          "name": "G#3",
          "midi": 56,
          "time": 464.66620200000017,
          "velocity": 1,
          "duration": 0.3333329999999819
        },
        {
          "name": "C4",
          "midi": 60,
          "time": 464.66620200000017,
          "velocity": 1,
          "duration": 0.3333329999999819
        },
        {
          "name": "A#3",
          "midi": 58,
          "time": 464.99953500000015,
          "velocity": 1,
          "duration": 0.6666660000000206
        },
        {
          "name": "G3",
          "midi": 55,
          "time": 464.99953500000015,
          "velocity": 1,
          "duration": 0.6666660000000206
        },
        {
          "name": "G#3",
          "midi": 56,
          "time": 465.66620100000017,
          "velocity": 1,
          "duration": 0.16666650000001937
        },
        {
          "name": "F3",
          "midi": 53,
          "time": 465.66620100000017,
          "velocity": 1,
          "duration": 0.16666650000001937
        },
        {
          "name": "G3",
          "midi": 55,
          "time": 465.8328675000002,
          "velocity": 1,
          "duration": 0.16666650000001937
        },
        {
          "name": "D#3",
          "midi": 51,
          "time": 465.8328675000002,
          "velocity": 1,
          "duration": 0.16666650000001937
        },
        {
          "name": "F3",
          "midi": 53,
          "time": 465.9995340000002,
          "velocity": 1,
          "duration": 0.3333329999999819
        },
        {
          "name": "D3",
          "midi": 50,
          "time": 465.9995340000002,
          "velocity": 1,
          "duration": 0.3333329999999819
        },
        {
          "name": "A#3",
          "midi": 58,
          "time": 466.3328670000002,
          "velocity": 1,
          "duration": 0.3333329999999819
        },
        {
          "name": "D3",
          "midi": 50,
          "time": 466.3328670000002,
          "velocity": 1,
          "duration": 0.3333329999999819
        },
        {
          "name": "A#3",
          "midi": 58,
          "time": 466.6662000000002,
          "velocity": 1,
          "duration": 0.3333329999999819
        },
        {
          "name": "D3",
          "midi": 50,
          "time": 466.6662000000002,
          "velocity": 1,
          "duration": 0.3333329999999819
        },
        {
          "name": "A#3",
          "midi": 58,
          "time": 466.99953300000016,
          "velocity": 1,
          "duration": 0.3333329999999819
        },
        {
          "name": "D#3",
          "midi": 51,
          "time": 466.99953300000016,
          "velocity": 1,
          "duration": 0.3333329999999819
        },
        {
          "name": "B2",
          "midi": 47,
          "time": 470.99952900000017,
          "velocity": 1,
          "duration": 0.3333329999999819
        },
        {
          "name": "B3",
          "midi": 59,
          "time": 470.99952900000017,
          "velocity": 1,
          "duration": 0.3333329999999819
        },
        {
          "name": "D4",
          "midi": 62,
          "time": 471.33286200000015,
          "velocity": 1,
          "duration": 0.3333329999999819
        },
        {
          "name": "B3",
          "midi": 59,
          "time": 471.33286200000015,
          "velocity": 1,
          "duration": 0.3333329999999819
        },
        {
          "name": "B3",
          "midi": 59,
          "time": 472.83286050000015,
          "velocity": 1,
          "duration": 0.16666650000001937
        },
        {
          "name": "B2",
          "midi": 47,
          "time": 472.83286050000015,
          "velocity": 1,
          "duration": 0.16666650000001937
        },
        {
          "name": "C4",
          "midi": 60,
          "time": 472.99952700000017,
          "velocity": 1,
          "duration": 0.3333329999999819
        },
        {
          "name": "C3",
          "midi": 48,
          "time": 472.99952700000017,
          "velocity": 1,
          "duration": 0.3333329999999819
        },
        {
          "name": "C4",
          "midi": 60,
          "time": 473.33286000000015,
          "velocity": 1,
          "duration": 0.3333329999999819
        },
        {
          "name": "C3",
          "midi": 48,
          "time": 474.83285850000016,
          "velocity": 1,
          "duration": 0.16666650000001937
        },
        {
          "name": "C4",
          "midi": 60,
          "time": 474.83285850000016,
          "velocity": 1,
          "duration": 0.16666650000001937
        },
        {
          "name": "A#3",
          "midi": 58,
          "time": 474.9995250000002,
          "velocity": 1,
          "duration": 0.3333329999999819
        },
        {
          "name": "A#2",
          "midi": 46,
          "time": 474.9995250000002,
          "velocity": 1,
          "duration": 0.3333329999999819
        },
        {
          "name": "C#4",
          "midi": 61,
          "time": 475.33285800000016,
          "velocity": 1,
          "duration": 0.3333329999999819
        },
        {
          "name": "A#3",
          "midi": 58,
          "time": 475.33285800000016,
          "velocity": 1,
          "duration": 0.3333329999999819
        },
        {
          "name": "A#3",
          "midi": 58,
          "time": 476.83285650000016,
          "velocity": 1,
          "duration": 0.16666650000001937
        },
        {
          "name": "A#2",
          "midi": 46,
          "time": 476.83285650000016,
          "velocity": 1,
          "duration": 0.16666650000001937
        },
        {
          "name": "G#2",
          "midi": 44,
          "time": 476.9995230000002,
          "velocity": 1,
          "duration": 0.16666650000001937
        },
        {
          "name": "G#3",
          "midi": 56,
          "time": 476.9995230000002,
          "velocity": 1,
          "duration": 0.16666650000001937
        },
        {
          "name": "G#2",
          "midi": 44,
          "time": 477.1661895000002,
          "velocity": 1,
          "duration": 0.3333329999999819
        },
        {
          "name": "A2",
          "midi": 45,
          "time": 477.4995225000002,
          "velocity": 1,
          "duration": 0.16666650000001937
        },
        {
          "name": "A#2",
          "midi": 46,
          "time": 477.6661890000002,
          "velocity": 1,
          "duration": 0.16666650000001937
        },
        {
          "name": "B2",
          "midi": 47,
          "time": 477.8328555000002,
          "velocity": 1,
          "duration": 0.16666650000001937
        },
        {
          "name": "C3",
          "midi": 48,
          "time": 477.99952200000024,
          "velocity": 1,
          "duration": 0.16666650000001937
        },
        {
          "name": "C3",
          "midi": 48,
          "time": 478.16618850000026,
          "velocity": 1,
          "duration": 0.3333329999999819
        },
        {
          "name": "C3",
          "midi": 48,
          "time": 478.49952150000024,
          "velocity": 1,
          "duration": 0.16666650000001937
        },
        {
          "name": "D3",
          "midi": 50,
          "time": 478.66618800000026,
          "velocity": 1,
          "duration": 0.16666650000001937
        },
        {
          "name": "D3",
          "midi": 50,
          "time": 478.8328545000003,
          "velocity": 1,
          "duration": 0.16666650000001937
        },
        {
          "name": "D#3",
          "midi": 51,
          "time": 478.9995210000003,
          "velocity": 1,
          "duration": 0.3333329999999819
        },
        {
          "name": "C#4",
          "midi": 61,
          "time": 479.3328540000003,
          "velocity": 1,
          "duration": 0.3333329999999819
        },
        {
          "name": "C4",
          "midi": 60,
          "time": 479.66618700000026,
          "velocity": 1,
          "duration": 0.3333329999999819
        },
        {
          "name": "B3",
          "midi": 59,
          "time": 479.99952000000025,
          "velocity": 1,
          "duration": 0.3333329999999819
        },
        {
          "name": "A#3",
          "midi": 58,
          "time": 480.3328530000002,
          "velocity": 1,
          "duration": 0.3333329999999819
        },
        {
          "name": "G3",
          "midi": 55,
          "time": 480.6661860000002,
          "velocity": 1,
          "duration": 0.3333329999999819
        },
        {
          "name": "G#3",
          "midi": 56,
          "time": 480.9995190000002,
          "velocity": 1,
          "duration": 0.3333329999999819
        },
        {
          "name": "D#4",
          "midi": 63,
          "time": 481.3328520000002,
          "velocity": 1,
          "duration": 0.3333329999999819
        },
        {
          "name": "C4",
          "midi": 60,
          "time": 481.3328520000002,
          "velocity": 1,
          "duration": 0.8333324999999832
        },
        {
          "name": "E4",
          "midi": 64,
          "time": 481.66618500000016,
          "velocity": 1,
          "duration": 0.3333329999999819
        },
        {
          "name": "F4",
          "midi": 65,
          "time": 481.99951800000014,
          "velocity": 1,
          "duration": 0.16666650000001937
        },
        {
          "name": "C4",
          "midi": 60,
          "time": 482.16618450000016,
          "velocity": 1,
          "duration": 0.3333329999999819
        },
        {
          "name": "C4",
          "midi": 60,
          "time": 482.49951750000014,
          "velocity": 1,
          "duration": 0.16666650000001937
        },
        {
          "name": "E4",
          "midi": 64,
          "time": 482.66618400000016,
          "velocity": 1,
          "duration": 0.16666650000001937
        },
        {
          "name": "A#3",
          "midi": 58,
          "time": 482.66618400000016,
          "velocity": 1,
          "duration": 0.16666650000001937
        },
        {
          "name": "F4",
          "midi": 65,
          "time": 482.8328505000002,
          "velocity": 1,
          "duration": 0.16666650000001937
        },
        {
          "name": "G#3",
          "midi": 56,
          "time": 482.8328505000002,
          "velocity": 1,
          "duration": 0.16666650000001937
        },
        {
          "name": "G3",
          "midi": 55,
          "time": 482.9995170000002,
          "velocity": 1,
          "duration": 0.16666650000001937
        },
        {
          "name": "D#4",
          "midi": 63,
          "time": 482.9995170000002,
          "velocity": 1,
          "duration": 0.16666650000001937
        },
        {
          "name": "A#3",
          "midi": 58,
          "time": 483.1661835000002,
          "velocity": 1,
          "duration": 0.16666650000001937
        },
        {
          "name": "A3",
          "midi": 57,
          "time": 483.33285000000024,
          "velocity": 1,
          "duration": 0.16666650000001937
        },
        {
          "name": "G#3",
          "midi": 56,
          "time": 483.49951650000025,
          "velocity": 1,
          "duration": 0.16666650000001937
        },
        {
          "name": "G3",
          "midi": 55,
          "time": 483.6661830000003,
          "velocity": 1,
          "duration": 0.16666650000001937
        },
        {
          "name": "F3",
          "midi": 53,
          "time": 483.8328495000003,
          "velocity": 1,
          "duration": 0.16666650000001937
        },
        {
          "name": "D#3",
          "midi": 51,
          "time": 483.9995160000003,
          "velocity": 1,
          "duration": 0.3333329999999819
        },
        {
          "name": "A#3",
          "midi": 58,
          "time": 486.9995130000003,
          "velocity": 1,
          "duration": 0.16666650000001937
        },
        {
          "name": "A3",
          "midi": 57,
          "time": 487.16617950000034,
          "velocity": 1,
          "duration": 0.16666650000001937
        },
        {
          "name": "G#3",
          "midi": 56,
          "time": 487.33284600000036,
          "velocity": 1,
          "duration": 0.16666650000001937
        },
        {
          "name": "G3",
          "midi": 55,
          "time": 487.4995125000004,
          "velocity": 1,
          "duration": 0.16666650000001937
        },
        {
          "name": "F3",
          "midi": 53,
          "time": 487.6661790000004,
          "velocity": 1,
          "duration": 0.16666650000001937
        },
        {
          "name": "D#3",
          "midi": 51,
          "time": 487.8328455000004,
          "velocity": 1,
          "duration": 0.16666650000001937
        },
        {
          "name": "D3",
          "midi": 50,
          "time": 487.99951200000044,
          "velocity": 1,
          "duration": 0.16666650000001937
        },
        {
          "name": "C3",
          "midi": 48,
          "time": 488.16617850000046,
          "velocity": 1,
          "duration": 0.16666650000001937
        },
        {
          "name": "A#2",
          "midi": 46,
          "time": 488.3328450000005,
          "velocity": 1,
          "duration": 0.16666650000001937
        },
        {
          "name": "G#2",
          "midi": 44,
          "time": 488.4995115000005,
          "velocity": 1,
          "duration": 0.16666650000001937
        },
        {
          "name": "G2",
          "midi": 43,
          "time": 488.6661780000005,
          "velocity": 1,
          "duration": 0.16666650000001937
        },
        {
          "name": "F2",
          "midi": 41,
          "time": 488.83284450000053,
          "velocity": 1,
          "duration": 0.16666650000001937
        },
        {
          "name": "D#2",
          "midi": 39,
          "time": 488.99951100000055,
          "velocity": 1,
          "duration": 0.3333329999999819
        },
        {
          "name": "G4",
          "midi": 67,
          "time": 489.33284400000053,
          "velocity": 1,
          "duration": 0.3333329999999819
        },
        {
          "name": "D#4",
          "midi": 63,
          "time": 489.33284400000053,
          "velocity": 1,
          "duration": 0.3333329999999819
        },
        {
          "name": "G4",
          "midi": 67,
          "time": 489.6661770000005,
          "velocity": 1,
          "duration": 0.3333329999999819
        },
        {
          "name": "D#4",
          "midi": 63,
          "time": 489.6661770000005,
          "velocity": 1,
          "duration": 0.3333329999999819
        },
        {
          "name": "G4",
          "midi": 67,
          "time": 489.9995100000005,
          "velocity": 1,
          "duration": 0.3333329999999819
        },
        {
          "name": "D#4",
          "midi": 63,
          "time": 489.9995100000005,
          "velocity": 1,
          "duration": 0.3333329999999819
        },
        {
          "name": "G4",
          "midi": 67,
          "time": 490.3328430000005,
          "velocity": 1,
          "duration": 0.3333329999999819
        },
        {
          "name": "D#4",
          "midi": 63,
          "time": 490.3328430000005,
          "velocity": 1,
          "duration": 0.3333329999999819
        },
        {
          "name": "D#4",
          "midi": 63,
          "time": 490.66617600000046,
          "velocity": 1,
          "duration": 0.3333329999999819
        },
        {
          "name": "G4",
          "midi": 67,
          "time": 490.66617600000046,
          "velocity": 1,
          "duration": 0.3333329999999819
        },
        {
          "name": "G4",
          "midi": 67,
          "time": 490.99950900000044,
          "velocity": 1,
          "duration": 0.3333329999999819
        },
        {
          "name": "D#4",
          "midi": 63,
          "time": 490.99950900000044,
          "velocity": 1,
          "duration": 0.3333329999999819
        },
        {
          "name": "G4",
          "midi": 67,
          "time": 491.3328420000004,
          "velocity": 1,
          "duration": 0.3333329999999819
        },
        {
          "name": "D#4",
          "midi": 63,
          "time": 491.3328420000004,
          "velocity": 1,
          "duration": 0.3333329999999819
        },
        {
          "name": "D#4",
          "midi": 63,
          "time": 491.6661750000004,
          "velocity": 1,
          "duration": 0.6666659999999638
        },
        {
          "name": "G#3",
          "midi": 56,
          "time": 491.9995080000004,
          "velocity": 1,
          "duration": 0.9999989999999457
        },
        {
          "name": "E4",
          "midi": 64,
          "time": 492.33284100000037,
          "velocity": 1,
          "duration": 0.3333329999999819
        },
        {
          "name": "F4",
          "midi": 65,
          "time": 492.66617400000035,
          "velocity": 1,
          "duration": 0.3333329999999819
        },
        {
          "name": "C4",
          "midi": 60,
          "time": 495.66617100000036,
          "velocity": 1,
          "duration": 0.6666660000000206
        },
        {
          "name": "A#3",
          "midi": 58,
          "time": 496.3328370000004,
          "velocity": 1,
          "duration": 0.16666650000001937
        },
        {
          "name": "G#3",
          "midi": 56,
          "time": 496.4995035000004,
          "velocity": 1,
          "duration": 0.16666650000001937
        },
        {
          "name": "G3",
          "midi": 55,
          "time": 496.6661700000004,
          "velocity": 1,
          "duration": 0.16666650000001937
        },
        {
          "name": "F3",
          "midi": 53,
          "time": 496.83283650000044,
          "velocity": 1,
          "duration": 0.16666650000001937
        },
        {
          "name": "D#3",
          "midi": 51,
          "time": 496.99950300000046,
          "velocity": 1,
          "duration": 0.3333329999999819
        },
        {
          "name": "F#4",
          "midi": 66,
          "time": 497.33283600000044,
          "velocity": 1,
          "duration": 0.3333329999999819
        },
        {
          "name": "D#4",
          "midi": 63,
          "time": 497.33283600000044,
          "velocity": 1,
          "duration": 0.3333329999999819
        },
        {
          "name": "F#4",
          "midi": 66,
          "time": 497.6661690000004,
          "velocity": 1,
          "duration": 0.3333329999999819
        },
        {
          "name": "D#4",
          "midi": 63,
          "time": 497.6661690000004,
          "velocity": 1,
          "duration": 0.3333329999999819
        },
        {
          "name": "F#4",
          "midi": 66,
          "time": 497.9995020000004,
          "velocity": 1,
          "duration": 0.3333329999999819
        },
        {
          "name": "D#4",
          "midi": 63,
          "time": 497.9995020000004,
          "velocity": 1,
          "duration": 0.3333329999999819
        },
        {
          "name": "F#4",
          "midi": 66,
          "time": 498.3328350000004,
          "velocity": 1,
          "duration": 0.3333329999999819
        },
        {
          "name": "D#4",
          "midi": 63,
          "time": 498.3328350000004,
          "velocity": 1,
          "duration": 0.3333329999999819
        },
        {
          "name": "F#4",
          "midi": 66,
          "time": 498.66616800000037,
          "velocity": 1,
          "duration": 0.3333329999999819
        },
        {
          "name": "D#4",
          "midi": 63,
          "time": 498.66616800000037,
          "velocity": 1,
          "duration": 0.3333329999999819
        },
        {
          "name": "F#4",
          "midi": 66,
          "time": 498.99950100000035,
          "velocity": 1,
          "duration": 0.3333329999999819
        },
        {
          "name": "D#4",
          "midi": 63,
          "time": 498.99950100000035,
          "velocity": 1,
          "duration": 0.3333329999999819
        },
        {
          "name": "F#4",
          "midi": 66,
          "time": 499.33283400000033,
          "velocity": 1,
          "duration": 0.3333329999999819
        },
        {
          "name": "C#4",
          "midi": 61,
          "time": 499.33283400000033,
          "velocity": 1,
          "duration": 0.3333329999999819
        },
        {
          "name": "C#4",
          "midi": 61,
          "time": 499.6661670000003,
          "velocity": 1,
          "duration": 0.3333329999999819
        },
        {
          "name": "F#4",
          "midi": 66,
          "time": 499.6661670000003,
          "velocity": 1,
          "duration": 0.3333329999999819
        },
        {
          "name": "F#4",
          "midi": 66,
          "time": 499.9995000000003,
          "velocity": 1,
          "duration": 0.6666660000000206
        },
        {
          "name": "C#4",
          "midi": 61,
          "time": 499.9995000000003,
          "velocity": 1,
          "duration": 0.9999990000000025
        },
        {
          "name": "F4",
          "midi": 65,
          "time": 500.6661660000003,
          "velocity": 1,
          "duration": 0.3333329999999819
        },
        {
          "name": "C4",
          "midi": 60,
          "time": 504.3328290000003,
          "velocity": 1,
          "duration": 0.3333329999999819
        },
        {
          "name": "F3",
          "midi": 53,
          "time": 504.3328290000003,
          "velocity": 1,
          "duration": 0.3333329999999819
        },
        {
          "name": "C4",
          "midi": 60,
          "time": 504.66616200000027,
          "velocity": 1,
          "duration": 0.3333329999999819
        },
        {
          "name": "F3",
          "midi": 53,
          "time": 504.66616200000027,
          "velocity": 1,
          "duration": 0.3333329999999819
        },
        {
          "name": "A#2",
          "midi": 46,
          "time": 504.99949500000025,
          "velocity": 1,
          "duration": 0.3333329999999819
        },
        {
          "name": "A#3",
          "midi": 58,
          "time": 504.99949500000025,
          "velocity": 1,
          "duration": 0.3333329999999819
        },
        {
          "name": "C4",
          "midi": 60,
          "time": 514.4994855000002,
          "velocity": 1,
          "duration": 0.16666650000001937
        },
        {
          "name": "G#3",
          "midi": 56,
          "time": 514.4994855000002,
          "velocity": 1,
          "duration": 0.16666650000001937
        },
        {
          "name": "A#3",
          "midi": 58,
          "time": 514.6661520000002,
          "velocity": 1,
          "duration": 0.16666650000001937
        },
        {
          "name": "G3",
          "midi": 55,
          "time": 514.6661520000002,
          "velocity": 1,
          "duration": 0.16666650000001937
        },
        {
          "name": "G#3",
          "midi": 56,
          "time": 514.8328185000003,
          "velocity": 1,
          "duration": 0.16666650000001937
        },
        {
          "name": "F3",
          "midi": 53,
          "time": 514.8328185000003,
          "velocity": 1,
          "duration": 0.16666650000001937
        },
        {
          "name": "D#3",
          "midi": 51,
          "time": 514.9994850000003,
          "velocity": 1,
          "duration": 0.33333300000003874
        },
        {
          "name": "G3",
          "midi": 55,
          "time": 514.9994850000003,
          "velocity": 1,
          "duration": 0.33333300000003874
        },
        {
          "name": "D#4",
          "midi": 63,
          "time": 515.3328180000003,
          "velocity": 1,
          "duration": 0.6666659999999638
        },
        {
          "name": "G3",
          "midi": 55,
          "time": 515.3328180000003,
          "velocity": 1,
          "duration": 0.6666659999999638
        },
        {
          "name": "D#4",
          "midi": 63,
          "time": 516.3328170000003,
          "velocity": 1,
          "duration": 0.6666659999999638
        },
        {
          "name": "G3",
          "midi": 55,
          "time": 516.3328170000003,
          "velocity": 1,
          "duration": 0.6666659999999638
        },
        {
          "name": "D4",
          "midi": 62,
          "time": 517.3328160000003,
          "velocity": 1,
          "duration": 0.6666659999999638
        },
        {
          "name": "G#3",
          "midi": 56,
          "time": 517.3328160000003,
          "velocity": 1,
          "duration": 0.6666659999999638
        },
        {
          "name": "F4",
          "midi": 65,
          "time": 518.3328150000003,
          "velocity": 1,
          "duration": 0.33333300000003874
        },
        {
          "name": "G#3",
          "midi": 56,
          "time": 518.3328150000003,
          "velocity": 1,
          "duration": 0.33333300000003874
        },
        {
          "name": "G#3",
          "midi": 56,
          "time": 518.6661480000004,
          "velocity": 1,
          "duration": 0.33333300000003874
        },
        {
          "name": "F3",
          "midi": 53,
          "time": 518.6661480000004,
          "velocity": 1,
          "duration": 0.33333300000003874
        },
        {
          "name": "G3",
          "midi": 55,
          "time": 518.9994810000004,
          "velocity": 1,
          "duration": 0.33333300000003874
        },
        {
          "name": "D#3",
          "midi": 51,
          "time": 518.9994810000004,
          "velocity": 1,
          "duration": 0.33333300000003874
        },
        {
          "name": "F3",
          "midi": 53,
          "time": 520.9994790000004,
          "velocity": 1,
          "duration": 0.33333300000003874
        },
        {
          "name": "G#3",
          "midi": 56,
          "time": 521.3328120000004,
          "velocity": 1,
          "duration": 0.4999994999999444
        },
        {
          "name": "A#2",
          "midi": 46,
          "time": 521.8328115000004,
          "velocity": 1,
          "duration": 0.16666650000001937
        },
        {
          "name": "D4",
          "midi": 62,
          "time": 521.9994780000004,
          "velocity": 1,
          "duration": 0.33333300000003874
        },
        {
          "name": "D3",
          "midi": 50,
          "time": 521.9994780000004,
          "velocity": 1,
          "duration": 0.33333300000003874
        },
        {
          "name": "F4",
          "midi": 65,
          "time": 522.3328110000004,
          "velocity": 1,
          "duration": 0.4999994999999444
        },
        {
          "name": "F3",
          "midi": 53,
          "time": 522.3328110000004,
          "velocity": 1,
          "duration": 0.4999994999999444
        },
        {
          "name": "A#3",
          "midi": 58,
          "time": 522.8328105000004,
          "velocity": 1,
          "duration": 0.16666650000001937
        },
        {
          "name": "A#2",
          "midi": 46,
          "time": 522.8328105000004,
          "velocity": 1,
          "duration": 0.16666650000001937
        },
        {
          "name": "G4",
          "midi": 67,
          "time": 522.9994770000004,
          "velocity": 1,
          "duration": 0.8333324999999832
        },
        {
          "name": "G3",
          "midi": 55,
          "time": 522.9994770000004,
          "velocity": 1,
          "duration": 0.8333324999999832
        },
        {
          "name": "F#4",
          "midi": 66,
          "time": 523.8328095000004,
          "velocity": 1,
          "duration": 0.16666650000001937
        },
        {
          "name": "F#3",
          "midi": 54,
          "time": 523.8328095000004,
          "velocity": 1,
          "duration": 0.16666650000001937
        },
        {
          "name": "G3",
          "midi": 55,
          "time": 523.9994760000004,
          "velocity": 1,
          "duration": 0.33333300000003874
        },
        {
          "name": "G4",
          "midi": 67,
          "time": 523.9994760000004,
          "velocity": 1,
          "duration": 0.33333300000003874
        },
        {
          "name": "F4",
          "midi": 65,
          "time": 527.8328055000004,
          "velocity": 1,
          "duration": 0.16666650000001937
        },
        {
          "name": "D4",
          "midi": 62,
          "time": 527.8328055000004,
          "velocity": 1,
          "duration": 0.16666650000001937
        },
        {
          "name": "D#4",
          "midi": 63,
          "time": 527.9994720000004,
          "velocity": 1,
          "duration": 0.16666650000001937
        },
        {
          "name": "C4",
          "midi": 60,
          "time": 527.9994720000004,
          "velocity": 1,
          "duration": 0.16666650000001937
        },
        {
          "name": "F4",
          "midi": 65,
          "time": 528.1661385000004,
          "velocity": 1,
          "duration": 0.16666650000001937
        },
        {
          "name": "D4",
          "midi": 62,
          "time": 528.1661385000004,
          "velocity": 1,
          "duration": 0.16666650000001937
        },
        {
          "name": "D#4",
          "midi": 63,
          "time": 528.3328050000005,
          "velocity": 1,
          "duration": 0.16666650000001937
        },
        {
          "name": "C4",
          "midi": 60,
          "time": 528.3328050000005,
          "velocity": 1,
          "duration": 0.16666650000001937
        },
        {
          "name": "A#3",
          "midi": 58,
          "time": 528.4994715000005,
          "velocity": 1,
          "duration": 0.16666650000001937
        },
        {
          "name": "C4",
          "midi": 60,
          "time": 528.4994715000005,
          "velocity": 1,
          "duration": 0.16666650000001937
        },
        {
          "name": "C4",
          "midi": 60,
          "time": 528.6661380000005,
          "velocity": 1,
          "duration": 0.16666650000001937
        },
        {
          "name": "A3",
          "midi": 57,
          "time": 528.6661380000005,
          "velocity": 1,
          "duration": 0.16666650000001937
        },
        {
          "name": "C4",
          "midi": 60,
          "time": 528.8328045000005,
          "velocity": 1,
          "duration": 0.16666650000001937
        },
        {
          "name": "G#3",
          "midi": 56,
          "time": 528.8328045000005,
          "velocity": 1,
          "duration": 0.16666650000001937
        },
        {
          "name": "B3",
          "midi": 59,
          "time": 528.9994710000005,
          "velocity": 1,
          "duration": 0.33333300000003874
        },
        {
          "name": "G3",
          "midi": 55,
          "time": 528.9994710000005,
          "velocity": 1,
          "duration": 0.33333300000003874
        },
        {
          "name": "B3",
          "midi": 59,
          "time": 529.3328040000006,
          "velocity": 1,
          "duration": 0.33333300000003874
        },
        {
          "name": "D4",
          "midi": 62,
          "time": 529.3328040000006,
          "velocity": 1,
          "duration": 0.33333300000003874
        },
        {
          "name": "D#4",
          "midi": 63,
          "time": 529.6661370000006,
          "velocity": 1,
          "duration": 0.33333300000003874
        },
        {
          "name": "C4",
          "midi": 60,
          "time": 529.6661370000006,
          "velocity": 1,
          "duration": 0.33333300000003874
        },
        {
          "name": "A#3",
          "midi": 58,
          "time": 530.3328030000007,
          "velocity": 1,
          "duration": 0.33333300000003874
        },
        {
          "name": "G3",
          "midi": 55,
          "time": 530.3328030000007,
          "velocity": 1,
          "duration": 0.33333300000003874
        },
        {
          "name": "C4",
          "midi": 60,
          "time": 530.6661360000007,
          "velocity": 1,
          "duration": 0.33333300000003874
        },
        {
          "name": "G#3",
          "midi": 56,
          "time": 530.6661360000007,
          "velocity": 1,
          "duration": 0.33333300000003874
        },
        {
          "name": "C4",
          "midi": 60,
          "time": 531.3328020000008,
          "velocity": 1,
          "duration": 0.33333300000003874
        },
        {
          "name": "A3",
          "midi": 57,
          "time": 531.3328020000008,
          "velocity": 1,
          "duration": 0.33333300000003874
        },
        {
          "name": "D4",
          "midi": 62,
          "time": 531.6661350000008,
          "velocity": 1,
          "duration": 0.33333300000003874
        },
        {
          "name": "A#3",
          "midi": 58,
          "time": 531.6661350000008,
          "velocity": 1,
          "duration": 0.33333300000003874
        },
        {
          "name": "D4",
          "midi": 62,
          "time": 532.3328010000009,
          "velocity": 1,
          "duration": 0.33333300000003874
        },
        {
          "name": "B3",
          "midi": 59,
          "time": 532.3328010000009,
          "velocity": 1,
          "duration": 0.33333300000003874
        },
        {
          "name": "D#4",
          "midi": 63,
          "time": 532.666134000001,
          "velocity": 1,
          "duration": 0.33333300000003874
        },
        {
          "name": "C4",
          "midi": 60,
          "time": 532.666134000001,
          "velocity": 1,
          "duration": 0.33333300000003874
        },
        {
          "name": "G3",
          "midi": 55,
          "time": 533.332800000001,
          "velocity": 1,
          "duration": 0.33333300000003874
        },
        {
          "name": "A#3",
          "midi": 58,
          "time": 533.332800000001,
          "velocity": 1,
          "duration": 0.33333300000003874
        },
        {
          "name": "C4",
          "midi": 60,
          "time": 533.6661330000011,
          "velocity": 1,
          "duration": 0.33333300000003874
        },
        {
          "name": "G#3",
          "midi": 56,
          "time": 533.6661330000011,
          "velocity": 1,
          "duration": 0.33333300000003874
        },
        {
          "name": "C4",
          "midi": 60,
          "time": 534.3327990000012,
          "velocity": 1,
          "duration": 0.33333300000003874
        },
        {
          "name": "A3",
          "midi": 57,
          "time": 534.3327990000012,
          "velocity": 1,
          "duration": 0.33333300000003874
        },
        {
          "name": "C4",
          "midi": 60,
          "time": 534.9994650000012,
          "velocity": 1,
          "duration": 0.33333300000003874
        },
        {
          "name": "A3",
          "midi": 57,
          "time": 534.9994650000012,
          "velocity": 1,
          "duration": 0.33333300000003874
        },
        {
          "name": "C4",
          "midi": 60,
          "time": 535.6661310000013,
          "velocity": 1,
          "duration": 0.33333300000003874
        },
        {
          "name": "A3",
          "midi": 57,
          "time": 535.6661310000013,
          "velocity": 1,
          "duration": 0.33333300000003874
        },
        {
          "name": "C4",
          "midi": 60,
          "time": 536.3327970000014,
          "velocity": 1,
          "duration": 0.33333300000003874
        },
        {
          "name": "A3",
          "midi": 57,
          "time": 536.3327970000014,
          "velocity": 1,
          "duration": 0.33333300000003874
        },
        {
          "name": "C4",
          "midi": 60,
          "time": 536.9994630000015,
          "velocity": 1,
          "duration": 0.33333300000003874
        },
        {
          "name": "A3",
          "midi": 57,
          "time": 536.9994630000015,
          "velocity": 1,
          "duration": 0.33333300000003874
        },
        {
          "name": "C4",
          "midi": 60,
          "time": 537.6661290000015,
          "velocity": 1,
          "duration": 0.33333300000003874
        },
        {
          "name": "A3",
          "midi": 57,
          "time": 537.6661290000015,
          "velocity": 1,
          "duration": 0.33333300000003874
        },
        {
          "name": "B2",
          "midi": 47,
          "time": 538.9994610000016,
          "velocity": 1,
          "duration": 0.9999990000000025
        },
        {
          "name": "F#3",
          "midi": 54,
          "time": 538.9994610000016,
          "velocity": 1,
          "duration": 0.9999990000000025
        },
        {
          "name": "G3",
          "midi": 55,
          "time": 539.9994600000016,
          "velocity": 1,
          "duration": 0.9999990000000025
        },
        {
          "name": "A#2",
          "midi": 46,
          "time": 539.9994600000016,
          "velocity": 1,
          "duration": 0.9999990000000025
        },
        {
          "name": "F#3",
          "midi": 54,
          "time": 540.9994590000016,
          "velocity": 1,
          "duration": 1.6666649999999663
        },
        {
          "name": "C3",
          "midi": 48,
          "time": 540.9994590000016,
          "velocity": 1,
          "duration": 1.6666649999999663
        },
        {
          "name": "D#4",
          "midi": 63,
          "time": 542.6661240000016,
          "velocity": 1,
          "duration": 0.33333300000003874
        },
        {
          "name": "C4",
          "midi": 60,
          "time": 542.6661240000016,
          "velocity": 1,
          "duration": 0.33333300000003874
        },
        {
          "name": "F4",
          "midi": 65,
          "time": 542.9994570000016,
          "velocity": 1,
          "duration": 0.33333300000003874
        },
        {
          "name": "C#4",
          "midi": 61,
          "time": 542.9994570000016,
          "velocity": 1,
          "duration": 0.33333300000003874
        },
        {
          "name": "F4",
          "midi": 65,
          "time": 543.6661230000017,
          "velocity": 1,
          "duration": 0.33333300000003874
        },
        {
          "name": "C#4",
          "midi": 61,
          "time": 543.6661230000017,
          "velocity": 1,
          "duration": 0.33333300000003874
        },
        {
          "name": "F4",
          "midi": 65,
          "time": 544.3327890000018,
          "velocity": 1,
          "duration": 0.33333300000003874
        },
        {
          "name": "D4",
          "midi": 62,
          "time": 544.3327890000018,
          "velocity": 1,
          "duration": 0.33333300000003874
        },
        {
          "name": "D#4",
          "midi": 63,
          "time": 544.9994550000018,
          "velocity": 1,
          "duration": 0.33333300000003874
        },
        {
          "name": "G4",
          "midi": 67,
          "time": 544.9994550000018,
          "velocity": 1,
          "duration": 0.33333300000003874
        },
        {
          "name": "G4",
          "midi": 67,
          "time": 545.6661210000019,
          "velocity": 1,
          "duration": 0.33333300000003874
        },
        {
          "name": "D#4",
          "midi": 63,
          "time": 545.6661210000019,
          "velocity": 1,
          "duration": 0.33333300000003874
        },
        {
          "name": "C4",
          "midi": 60,
          "time": 545.999454000002,
          "velocity": 1,
          "duration": 0.9999990000000025
        },
        {
          "name": "G#3",
          "midi": 56,
          "time": 545.999454000002,
          "velocity": 1,
          "duration": 0.9999990000000025
        },
        {
          "name": "C4",
          "midi": 60,
          "time": 546.999453000002,
          "velocity": 1,
          "duration": 0.4999994999999444
        },
        {
          "name": "G#3",
          "midi": 56,
          "time": 546.999453000002,
          "velocity": 1,
          "duration": 0.4999994999999444
        },
        {
          "name": "C4",
          "midi": 60,
          "time": 547.4994525000019,
          "velocity": 1,
          "duration": 0.16666650000001937
        },
        {
          "name": "G#3",
          "midi": 56,
          "time": 547.4994525000019,
          "velocity": 1,
          "duration": 0.16666650000001937
        },
        {
          "name": "E4",
          "midi": 64,
          "time": 547.6661190000019,
          "velocity": 1,
          "duration": 0.16666650000001937
        },
        {
          "name": "A#3",
          "midi": 58,
          "time": 547.6661190000019,
          "velocity": 1,
          "duration": 0.16666650000001937
        },
        {
          "name": "F4",
          "midi": 65,
          "time": 547.8327855000019,
          "velocity": 1,
          "duration": 0.16666650000001937
        },
        {
          "name": "C4",
          "midi": 60,
          "time": 547.8327855000019,
          "velocity": 1,
          "duration": 0.16666650000001937
        },
        {
          "name": "D#4",
          "midi": 63,
          "time": 547.999452000002,
          "velocity": 1,
          "duration": 0.16666650000001937
        },
        {
          "name": "A#3",
          "midi": 58,
          "time": 547.999452000002,
          "velocity": 1,
          "duration": 0.16666650000001937
        },
        {
          "name": "D#3",
          "midi": 51,
          "time": 548.166118500002,
          "velocity": 1,
          "duration": 0.16666650000001937
        },
        {
          "name": "G3",
          "midi": 55,
          "time": 548.332785000002,
          "velocity": 1,
          "duration": 0.16666650000001937
        },
        {
          "name": "D#3",
          "midi": 51,
          "time": 548.332785000002,
          "velocity": 1,
          "duration": 0.16666650000001937
        },
        {
          "name": "A#3",
          "midi": 58,
          "time": 548.499451500002,
          "velocity": 1,
          "duration": 0.16666650000001937
        },
        {
          "name": "G3",
          "midi": 55,
          "time": 548.499451500002,
          "velocity": 1,
          "duration": 0.16666650000001937
        },
        {
          "name": "D#4",
          "midi": 63,
          "time": 548.666118000002,
          "velocity": 1,
          "duration": 0.16666650000001937
        },
        {
          "name": "G3",
          "midi": 55,
          "time": 548.666118000002,
          "velocity": 1,
          "duration": 0.16666650000001937
        },
        {
          "name": "G4",
          "midi": 67,
          "time": 548.832784500002,
          "velocity": 1,
          "duration": 0.16666650000001937
        },
        {
          "name": "A#3",
          "midi": 58,
          "time": 548.832784500002,
          "velocity": 1,
          "duration": 0.16666650000001937
        },
        {
          "name": "A#3",
          "midi": 58,
          "time": 548.9994510000021,
          "velocity": 1,
          "duration": 0.9999990000000025
        },
        {
          "name": "A#2",
          "midi": 46,
          "time": 548.9994510000021,
          "velocity": 1,
          "duration": 0.9999990000000025
        },
        {
          "name": "D#4",
          "midi": 63,
          "time": 549.9994500000021,
          "velocity": 1,
          "duration": 0.33333300000003874
        },
        {
          "name": "D#3",
          "midi": 51,
          "time": 549.9994500000021,
          "velocity": 1,
          "duration": 0.33333300000003874
        },
        {
          "name": "D#4",
          "midi": 63,
          "time": 550.9994490000021,
          "velocity": 1,
          "duration": 0.33333300000003874
        },
        {
          "name": "D#3",
          "midi": 51,
          "time": 550.9994490000021,
          "velocity": 1,
          "duration": 0.33333300000003874
        },
        {
          "name": "D#3",
          "midi": 51,
          "time": 551.9994480000021,
          "velocity": 1,
          "duration": 0.33333300000003874
        },
        {
          "name": "D#4",
          "midi": 63,
          "time": 551.9994480000021,
          "velocity": 1,
          "duration": 0.33333300000003874
        },
        {
          "name": "B3",
          "midi": 59,
          "time": 552.9994470000021,
          "velocity": 1,
          "duration": 0.33333300000003874
        },
        {
          "name": "G#3",
          "midi": 56,
          "time": 552.9994470000021,
          "velocity": 1,
          "duration": 0.33333300000003874
        },
        {
          "name": "B3",
          "midi": 59,
          "time": 553.3327800000021,
          "velocity": 1,
          "duration": 0.33333300000003874
        },
        {
          "name": "G#3",
          "midi": 56,
          "time": 553.3327800000021,
          "velocity": 1,
          "duration": 0.33333300000003874
        },
        {
          "name": "B3",
          "midi": 59,
          "time": 553.6661130000022,
          "velocity": 1,
          "duration": 0.33333300000003874
        },
        {
          "name": "G#3",
          "midi": 56,
          "time": 553.6661130000022,
          "velocity": 1,
          "duration": 0.33333300000003874
        },
        {
          "name": "A#3",
          "midi": 58,
          "time": 553.9994460000022,
          "velocity": 1,
          "duration": 0.33333300000003874
        },
        {
          "name": "G3",
          "midi": 55,
          "time": 553.9994460000022,
          "velocity": 1,
          "duration": 0.33333300000003874
        },
        {
          "name": "D#3",
          "midi": 51,
          "time": 555.4994445000023,
          "velocity": 1,
          "duration": 0.16666650000001937
        },
        {
          "name": "G3",
          "midi": 55,
          "time": 555.6661110000023,
          "velocity": 1,
          "duration": 0.16666650000001937
        },
        {
          "name": "A#3",
          "midi": 58,
          "time": 555.8327775000023,
          "velocity": 1,
          "duration": 0.16666650000001937
        },
        {
          "name": "D#4",
          "midi": 63,
          "time": 555.9994440000023,
          "velocity": 1,
          "duration": 0.6666659999999638
        },
        {
          "name": "G4",
          "midi": 67,
          "time": 556.6661100000023,
          "velocity": 1,
          "duration": 0.33333300000003874
        },
        {
          "name": "D#4",
          "midi": 63,
          "time": 556.9994430000023,
          "velocity": 1,
          "duration": 0.6666659999999638
        },
        {
          "name": "A#3",
          "midi": 58,
          "time": 557.6661090000023,
          "velocity": 1,
          "duration": 0.33333300000003874
        },
        {
          "name": "D#4",
          "midi": 63,
          "time": 557.9994420000023,
          "velocity": 1,
          "duration": 0.33333300000003874
        },
        {
          "name": "G#3",
          "midi": 56,
          "time": 559.9994400000023,
          "velocity": 1,
          "duration": 1.999998000000005
        },
        {
          "name": "F3",
          "midi": 53,
          "time": 559.9994400000023,
          "velocity": 1,
          "duration": 1.999998000000005
        },
        {
          "name": "C#4",
          "midi": 61,
          "time": 561.9994380000023,
          "velocity": 1,
          "duration": 0.33333300000003874
        },
        {
          "name": "C#3",
          "midi": 49,
          "time": 561.9994380000023,
          "velocity": 1,
          "duration": 0.33333300000003874
        },
        {
          "name": "C3",
          "midi": 48,
          "time": 563.9994360000023,
          "velocity": 1,
          "duration": 2.333331000000271
        },
        {
          "name": "C4",
          "midi": 60,
          "time": 563.9994360000023,
          "velocity": 1,
          "duration": 0.16666650000001937
        },
        {
          "name": "C4",
          "midi": 60,
          "time": 564.1661025000024,
          "velocity": 1,
          "duration": 0.16666650000001937
        },
        {
          "name": "C4",
          "midi": 60,
          "time": 564.3327690000024,
          "velocity": 1,
          "duration": 0.16666650000001937
        },
        {
          "name": "C4",
          "midi": 60,
          "time": 564.4994355000024,
          "velocity": 1,
          "duration": 0.16666650000001937
        },
        {
          "name": "E4",
          "midi": 64,
          "time": 564.6661020000024,
          "velocity": 1,
          "duration": 0.16666650000001937
        },
        {
          "name": "E4",
          "midi": 64,
          "time": 564.8327685000024,
          "velocity": 1,
          "duration": 0.16666650000001937
        },
        {
          "name": "C4",
          "midi": 60,
          "time": 564.9994350000024,
          "velocity": 1,
          "duration": 0.16666650000001937
        },
        {
          "name": "C4",
          "midi": 60,
          "time": 565.1661015000025,
          "velocity": 1,
          "duration": 0.16666650000001937
        },
        {
          "name": "C4",
          "midi": 60,
          "time": 565.3327680000025,
          "velocity": 1,
          "duration": 0.16666650000001937
        },
        {
          "name": "C4",
          "midi": 60,
          "time": 565.4994345000025,
          "velocity": 1,
          "duration": 0.16666650000001937
        },
        {
          "name": "G3",
          "midi": 55,
          "time": 565.6661010000025,
          "velocity": 1,
          "duration": 0.16666650000001937
        },
        {
          "name": "G3",
          "midi": 55,
          "time": 565.8327675000025,
          "velocity": 1,
          "duration": 0.16666650000001937
        },
        {
          "name": "C4",
          "midi": 60,
          "time": 565.9994340000026,
          "velocity": 1,
          "duration": 0.33333300000003874
        },
        {
          "name": "C4",
          "midi": 60,
          "time": 586.9994130000026,
          "velocity": 1,
          "duration": 0.6666659999999638
        },
        {
          "name": "D4",
          "midi": 62,
          "time": 587.6660790000026,
          "velocity": 1,
          "duration": 0.16666650000001937
        },
        {
          "name": "E4",
          "midi": 64,
          "time": 587.8327455000026,
          "velocity": 1,
          "duration": 0.16666650000001937
        },
        {
          "name": "F4",
          "midi": 65,
          "time": 587.9994120000026,
          "velocity": 1,
          "duration": 0.33333300000003874
        },
        {
          "name": "F4",
          "midi": 65,
          "time": 588.3327450000027,
          "velocity": 1,
          "duration": 0.33333300000003874
        },
        {
          "name": "G4",
          "midi": 67,
          "time": 588.6660780000027,
          "velocity": 1,
          "duration": 0.33333300000003874
        },
        {
          "name": "G#4",
          "midi": 68,
          "time": 588.9994110000027,
          "velocity": 1,
          "duration": 0.4999994999999444
        },
        {
          "name": "G4",
          "midi": 67,
          "time": 589.4994105000027,
          "velocity": 1,
          "duration": 0.16666650000001937
        },
        {
          "name": "F4",
          "midi": 65,
          "time": 589.6660770000027,
          "velocity": 1,
          "duration": 0.33333300000003874
        },
        {
          "name": "F4",
          "midi": 65,
          "time": 589.9994100000027,
          "velocity": 1,
          "duration": 1.999998000000005
        },
        {
          "name": "D#4",
          "midi": 63,
          "time": 591.9994080000027,
          "velocity": 1,
          "duration": 0.33333300000003874
        },
        {
          "name": "D#4",
          "midi": 63,
          "time": 592.3327410000028,
          "velocity": 1,
          "duration": 0.33333300000003874
        },
        {
          "name": "F4",
          "midi": 65,
          "time": 592.6660740000028,
          "velocity": 1,
          "duration": 0.33333300000003874
        },
        {
          "name": "F#4",
          "midi": 66,
          "time": 592.9994070000029,
          "velocity": 1,
          "duration": 0.4999994999999444
        },
        {
          "name": "F4",
          "midi": 65,
          "time": 593.4994065000028,
          "velocity": 1,
          "duration": 0.16666650000001937
        },
        {
          "name": "D#4",
          "midi": 63,
          "time": 593.6660730000028,
          "velocity": 1,
          "duration": 0.33333300000003874
        },
        {
          "name": "D4",
          "midi": 62,
          "time": 593.9994060000029,
          "velocity": 1,
          "duration": 0.33333300000003874
        },
        {
          "name": "C#4",
          "midi": 61,
          "time": 594.3327390000029,
          "velocity": 1,
          "duration": 0.33333300000003874
        },
        {
          "name": "C4",
          "midi": 60,
          "time": 594.6660720000029,
          "velocity": 1,
          "duration": 0.33333300000003874
        },
        {
          "name": "A#3",
          "midi": 58,
          "time": 594.999405000003,
          "velocity": 1,
          "duration": 0.6666659999999638
        },
        {
          "name": "C4",
          "midi": 60,
          "time": 595.666071000003,
          "velocity": 1,
          "duration": 0.16666650000001937
        },
        {
          "name": "D4",
          "midi": 62,
          "time": 595.832737500003,
          "velocity": 1,
          "duration": 0.16666650000001937
        },
        {
          "name": "D#4",
          "midi": 63,
          "time": 595.999404000003,
          "velocity": 1,
          "duration": 0.33333300000003874
        },
        {
          "name": "D#4",
          "midi": 63,
          "time": 596.332737000003,
          "velocity": 1,
          "duration": 0.33333300000003874
        },
        {
          "name": "F4",
          "midi": 65,
          "time": 596.6660700000031,
          "velocity": 1,
          "duration": 0.33333300000003874
        },
        {
          "name": "F#4",
          "midi": 66,
          "time": 596.9994030000031,
          "velocity": 1,
          "duration": 0.4999994999999444
        },
        {
          "name": "F4",
          "midi": 65,
          "time": 597.499402500003,
          "velocity": 1,
          "duration": 0.16666650000001937
        },
        {
          "name": "D#4",
          "midi": 63,
          "time": 597.6660690000031,
          "velocity": 1,
          "duration": 0.33333300000003874
        },
        {
          "name": "D4",
          "midi": 62,
          "time": 597.9994020000031,
          "velocity": 1,
          "duration": 0.9999990000000025
        },
        {
          "name": "C#4",
          "midi": 61,
          "time": 598.9994010000031,
          "velocity": 1,
          "duration": 0.9999990000000025
        },
        {
          "name": "C4",
          "midi": 60,
          "time": 599.9994000000031,
          "velocity": 1,
          "duration": 0.9999990000000025
        },
        {
          "name": "B3",
          "midi": 59,
          "time": 600.9993990000031,
          "velocity": 1,
          "duration": 0.9999990000000025
        },
        {
          "name": "A#3",
          "midi": 58,
          "time": 601.9993980000031,
          "velocity": 1,
          "duration": 0.9999990000000025
        },
        {
          "name": "A#3",
          "midi": 58,
          "time": 602.9993970000031,
          "velocity": 1,
          "duration": 0.9999990000000025
        },
        {
          "name": "A3",
          "midi": 57,
          "time": 603.9993960000031,
          "velocity": 1,
          "duration": 0.9999990000000025
        },
        {
          "name": "G#3",
          "midi": 56,
          "time": 604.9993950000031,
          "velocity": 1,
          "duration": 0.9999990000000025
        },
        {
          "name": "G#3",
          "midi": 56,
          "time": 605.9993940000031,
          "velocity": 1,
          "duration": 0.33333300000003874
        },
        {
          "name": "A#3",
          "midi": 58,
          "time": 607.9993920000031,
          "velocity": 1,
          "duration": 1.6666649999999663
        },
        {
          "name": "B3",
          "midi": 59,
          "time": 609.6660570000031,
          "velocity": 1,
          "duration": 0.33333300000003874
        },
        {
          "name": "C4",
          "midi": 60,
          "time": 609.9993900000031,
          "velocity": 1,
          "duration": 0.33333300000003874
        },
        {
          "name": "C4",
          "midi": 60,
          "time": 611.9993880000031,
          "velocity": 1,
          "duration": 1.6666649999999663
        },
        {
          "name": "C#4",
          "midi": 61,
          "time": 613.6660530000031,
          "velocity": 1,
          "duration": 0.33333300000003874
        },
        {
          "name": "D4",
          "midi": 62,
          "time": 613.9993860000031,
          "velocity": 1,
          "duration": 1.3333320000000413
        },
        {
          "name": "D4",
          "midi": 62,
          "time": 615.3327180000032,
          "velocity": 1,
          "duration": 0.33333300000003874
        },
        {
          "name": "A#3",
          "midi": 58,
          "time": 615.6660510000032,
          "velocity": 1,
          "duration": 0.33333300000003874
        },
        {
          "name": "F4",
          "midi": 65,
          "time": 615.9993840000033,
          "velocity": 1,
          "duration": 0.33333300000003874
        },
        {
          "name": "D#4",
          "midi": 63,
          "time": 616.3327170000033,
          "velocity": 1,
          "duration": 0.9999990000000025
        },
        {
          "name": "D#4",
          "midi": 63,
          "time": 617.3327160000033,
          "velocity": 1,
          "duration": 0.33333300000003874
        },
        {
          "name": "A#3",
          "midi": 58,
          "time": 617.6660490000033,
          "velocity": 1,
          "duration": 0.33333300000003874
        },
        {
          "name": "F#4",
          "midi": 66,
          "time": 617.9993820000034,
          "velocity": 1,
          "duration": 0.33333300000003874
        },
        {
          "name": "F#4",
          "midi": 66,
          "time": 618.3327150000034,
          "velocity": 1,
          "duration": 0.9999990000000025
        },
        {
          "name": "F#4",
          "midi": 66,
          "time": 619.3327140000034,
          "velocity": 1,
          "duration": 0.9999990000000025
        },
        {
          "name": "F#4",
          "midi": 66,
          "time": 620.3327130000034,
          "velocity": 1,
          "duration": 0.33333300000003874
        },
        {
          "name": "F#4",
          "midi": 66,
          "time": 620.6660460000035,
          "velocity": 1,
          "duration": 0.33333300000003874
        },
        {
          "name": "F#4",
          "midi": 66,
          "time": 620.9993790000035,
          "velocity": 1,
          "duration": 0.33333300000003874
        },
        {
          "name": "F4",
          "midi": 65,
          "time": 621.3327120000035,
          "velocity": 1,
          "duration": 0.33333300000003874
        },
        {
          "name": "D#4",
          "midi": 63,
          "time": 621.6660450000036,
          "velocity": 1,
          "duration": 0.33333300000003874
        },
        {
          "name": "D4",
          "midi": 62,
          "time": 621.9993780000036,
          "velocity": 1,
          "duration": 0.33333300000003874
        },
        {
          "name": "F4",
          "midi": 65,
          "time": 622.3327110000037,
          "velocity": 1,
          "duration": 0.9999990000000025
        },
        {
          "name": "A#3",
          "midi": 58,
          "time": 622.3327110000037,
          "velocity": 1,
          "duration": 0.9999990000000025
        },
        {
          "name": "F4",
          "midi": 65,
          "time": 623.3327100000037,
          "velocity": 1,
          "duration": 0.9999990000000025
        },
        {
          "name": "A#3",
          "midi": 58,
          "time": 623.3327100000037,
          "velocity": 1,
          "duration": 0.6666659999999638
        },
        {
          "name": "B3",
          "midi": 59,
          "time": 623.9993760000036,
          "velocity": 1,
          "duration": 0.33333300000003874
        },
        {
          "name": "F4",
          "midi": 65,
          "time": 624.3327090000037,
          "velocity": 1,
          "duration": 0.33333300000003874
        },
        {
          "name": "B3",
          "midi": 59,
          "time": 624.3327090000037,
          "velocity": 1,
          "duration": 0.33333300000003874
        },
        {
          "name": "B3",
          "midi": 59,
          "time": 624.6660420000037,
          "velocity": 1,
          "duration": 0.33333300000003874
        },
        {
          "name": "F4",
          "midi": 65,
          "time": 624.6660420000037,
          "velocity": 1,
          "duration": 0.33333300000003874
        },
        {
          "name": "F4",
          "midi": 65,
          "time": 624.9993750000037,
          "velocity": 1,
          "duration": 0.33333300000003874
        },
        {
          "name": "B3",
          "midi": 59,
          "time": 624.9993750000037,
          "velocity": 1,
          "duration": 0.33333300000003874
        },
        {
          "name": "D#4",
          "midi": 63,
          "time": 625.3327080000038,
          "velocity": 1,
          "duration": 0.33333300000003874
        },
        {
          "name": "B3",
          "midi": 59,
          "time": 625.3327080000038,
          "velocity": 1,
          "duration": 0.33333300000003874
        },
        {
          "name": "D4",
          "midi": 62,
          "time": 625.6660410000038,
          "velocity": 1,
          "duration": 0.33333300000003874
        },
        {
          "name": "B3",
          "midi": 59,
          "time": 625.6660410000038,
          "velocity": 1,
          "duration": 0.33333300000003874
        },
        {
          "name": "D#4",
          "midi": 63,
          "time": 625.9993740000039,
          "velocity": 1,
          "duration": 0.33333300000003874
        },
        {
          "name": "C4",
          "midi": 60,
          "time": 625.9993740000039,
          "velocity": 1,
          "duration": 0.33333300000003874
        },
        {
          "name": "D#4",
          "midi": 63,
          "time": 626.6660400000039,
          "velocity": 1,
          "duration": 0.33333300000003874
        },
        {
          "name": "C4",
          "midi": 60,
          "time": 626.6660400000039,
          "velocity": 1,
          "duration": 0.33333300000003874
        },
        {
          "name": "D#4",
          "midi": 63,
          "time": 627.332706000004,
          "velocity": 1,
          "duration": 0.33333300000003874
        },
        {
          "name": "C4",
          "midi": 60,
          "time": 627.332706000004,
          "velocity": 1,
          "duration": 0.33333300000003874
        },
        {
          "name": "C4",
          "midi": 60,
          "time": 627.9993720000041,
          "velocity": 1,
          "duration": 0.33333300000003874
        },
        {
          "name": "G#3",
          "midi": 56,
          "time": 627.9993720000041,
          "velocity": 1,
          "duration": 0.33333300000003874
        },
        {
          "name": "G#3",
          "midi": 56,
          "time": 628.6660380000042,
          "velocity": 1,
          "duration": 0.33333300000003874
        },
        {
          "name": "C4",
          "midi": 60,
          "time": 628.6660380000042,
          "velocity": 1,
          "duration": 0.33333300000003874
        },
        {
          "name": "C4",
          "midi": 60,
          "time": 629.3327040000042,
          "velocity": 1,
          "duration": 0.33333300000003874
        },
        {
          "name": "G#3",
          "midi": 56,
          "time": 629.3327040000042,
          "velocity": 1,
          "duration": 0.33333300000003874
        },
        {
          "name": "D#4",
          "midi": 63,
          "time": 629.9993700000043,
          "velocity": 1,
          "duration": 1.3333320000000413
        },
        {
          "name": "A#3",
          "midi": 58,
          "time": 629.9993700000043,
          "velocity": 1,
          "duration": 1.3333320000000413
        },
        {
          "name": "A#3",
          "midi": 58,
          "time": 631.3327020000044,
          "velocity": 1,
          "duration": 0.33333300000003874
        },
        {
          "name": "G3",
          "midi": 55,
          "time": 631.3327020000044,
          "velocity": 1,
          "duration": 0.33333300000003874
        },
        {
          "name": "A#3",
          "midi": 58,
          "time": 631.6660350000044,
          "velocity": 1,
          "duration": 0.33333300000003874
        },
        {
          "name": "G3",
          "midi": 55,
          "time": 631.6660350000044,
          "velocity": 1,
          "duration": 0.33333300000003874
        },
        {
          "name": "A#3",
          "midi": 58,
          "time": 631.9993680000044,
          "velocity": 1,
          "duration": 0.33333300000003874
        },
        {
          "name": "G#3",
          "midi": 56,
          "time": 631.9993680000044,
          "velocity": 1,
          "duration": 0.33333300000003874
        },
        {
          "name": "A#3",
          "midi": 58,
          "time": 632.3327010000045,
          "velocity": 1,
          "duration": 0.33333300000003874
        },
        {
          "name": "G#3",
          "midi": 56,
          "time": 632.3327010000045,
          "velocity": 1,
          "duration": 0.33333300000003874
        },
        {
          "name": "G#3",
          "midi": 56,
          "time": 632.6660340000045,
          "velocity": 1,
          "duration": 0.33333300000003874
        },
        {
          "name": "A#3",
          "midi": 58,
          "time": 632.6660340000045,
          "velocity": 1,
          "duration": 0.33333300000003874
        },
        {
          "name": "A#3",
          "midi": 58,
          "time": 632.9993670000046,
          "velocity": 1,
          "duration": 0.33333300000003874
        },
        {
          "name": "G#3",
          "midi": 56,
          "time": 632.9993670000046,
          "velocity": 1,
          "duration": 0.33333300000003874
        },
        {
          "name": "A#3",
          "midi": 58,
          "time": 633.3327000000046,
          "velocity": 1,
          "duration": 0.33333300000003874
        },
        {
          "name": "G#3",
          "midi": 56,
          "time": 633.3327000000046,
          "velocity": 1,
          "duration": 0.33333300000003874
        },
        {
          "name": "A#3",
          "midi": 58,
          "time": 633.6660330000046,
          "velocity": 1,
          "duration": 0.33333300000003874
        },
        {
          "name": "G#3",
          "midi": 56,
          "time": 633.6660330000046,
          "velocity": 1,
          "duration": 0.33333300000003874
        },
        {
          "name": "A#3",
          "midi": 58,
          "time": 633.9993660000047,
          "velocity": 1,
          "duration": 0.33333300000003874
        },
        {
          "name": "G3",
          "midi": 55,
          "time": 633.9993660000047,
          "velocity": 1,
          "duration": 0.33333300000003874
        },
        {
          "name": "G3",
          "midi": 55,
          "time": 650.1660165000047,
          "velocity": 1,
          "duration": 0.08333325000000968
        },
        {
          "name": "G#3",
          "midi": 56,
          "time": 650.2493497500047,
          "velocity": 1,
          "duration": 0.08333325000000968
        },
        {
          "name": "A#3",
          "midi": 58,
          "time": 650.3326830000047,
          "velocity": 1,
          "duration": 0.16666650000001937
        },
        {
          "name": "A#3",
          "midi": 58,
          "time": 650.4993495000048,
          "velocity": 1,
          "duration": 0.16666650000001937
        },
        {
          "name": "C4",
          "midi": 60,
          "time": 650.6660160000048,
          "velocity": 1,
          "duration": 0.16666650000001937
        },
        {
          "name": "D4",
          "midi": 62,
          "time": 650.8326825000048,
          "velocity": 1,
          "duration": 0.16666650000001937
        },
        {
          "name": "D#4",
          "midi": 63,
          "time": 650.9993490000048,
          "velocity": 1,
          "duration": 0.16666650000001937
        },
        {
          "name": "A#3",
          "midi": 58,
          "time": 651.1660155000048,
          "velocity": 1,
          "duration": 0.16666650000001937
        },
        {
          "name": "C4",
          "midi": 60,
          "time": 651.3326820000049,
          "velocity": 1,
          "duration": 0.16666650000001937
        },
        {
          "name": "D4",
          "midi": 62,
          "time": 651.4993485000049,
          "velocity": 1,
          "duration": 0.16666650000001937
        },
        {
          "name": "D#4",
          "midi": 63,
          "time": 651.6660150000049,
          "velocity": 1,
          "duration": 0.16666650000001937
        },
        {
          "name": "F4",
          "midi": 65,
          "time": 651.8326815000049,
          "velocity": 1,
          "duration": 0.16666650000001937
        },
        {
          "name": "G4",
          "midi": 67,
          "time": 651.9993480000049,
          "velocity": 1,
          "duration": 0.16666650000001937
        },
        {
          "name": "G4",
          "midi": 67,
          "time": 652.166014500005,
          "velocity": 1,
          "duration": 0.08333325000000968
        },
        {
          "name": "F4",
          "midi": 65,
          "time": 652.249347750005,
          "velocity": 1,
          "duration": 0.08333325000000968
        },
        {
          "name": "D#4",
          "midi": 63,
          "time": 652.332681000005,
          "velocity": 1,
          "duration": 0.16666650000001937
        },
        {
          "name": "D4",
          "midi": 62,
          "time": 652.499347500005,
          "velocity": 1,
          "duration": 0.16666650000001937
        },
        {
          "name": "C4",
          "midi": 60,
          "time": 652.666014000005,
          "velocity": 1,
          "duration": 0.16666650000001937
        },
        {
          "name": "A#3",
          "midi": 58,
          "time": 652.832680500005,
          "velocity": 1,
          "duration": 0.16666650000001937
        },
        {
          "name": "G#3",
          "midi": 56,
          "time": 652.9993470000051,
          "velocity": 1,
          "duration": 0.16666650000001937
        },
        {
          "name": "G3",
          "midi": 55,
          "time": 653.1660135000051,
          "velocity": 1,
          "duration": 0.16666650000001937
        },
        {
          "name": "F3",
          "midi": 53,
          "time": 653.3326800000051,
          "velocity": 1,
          "duration": 0.16666650000001937
        },
        {
          "name": "D#3",
          "midi": 51,
          "time": 653.4993465000051,
          "velocity": 1,
          "duration": 0.16666650000001937
        },
        {
          "name": "D3",
          "midi": 50,
          "time": 653.6660130000051,
          "velocity": 1,
          "duration": 0.16666650000001937
        },
        {
          "name": "C3",
          "midi": 48,
          "time": 653.8326795000052,
          "velocity": 1,
          "duration": 0.16666650000001937
        },
        {
          "name": "A#2",
          "midi": 46,
          "time": 653.9993460000052,
          "velocity": 1,
          "duration": 0.16666650000001937
        },
        {
          "name": "A#2",
          "midi": 46,
          "time": 654.1660125000052,
          "velocity": 1,
          "duration": 0.08333325000000968
        },
        {
          "name": "C3",
          "midi": 48,
          "time": 654.2493457500052,
          "velocity": 1,
          "duration": 0.08333325000000968
        },
        {
          "name": "D3",
          "midi": 50,
          "time": 654.3326790000052,
          "velocity": 1,
          "duration": 0.16666650000001937
        },
        {
          "name": "D#3",
          "midi": 51,
          "time": 654.4993455000052,
          "velocity": 1,
          "duration": 0.16666650000001937
        },
        {
          "name": "F3",
          "midi": 53,
          "time": 654.6660120000053,
          "velocity": 1,
          "duration": 0.16666650000001937
        },
        {
          "name": "G3",
          "midi": 55,
          "time": 654.8326785000053,
          "velocity": 1,
          "duration": 0.16666650000001937
        },
        {
          "name": "G#3",
          "midi": 56,
          "time": 654.9993450000053,
          "velocity": 1,
          "duration": 0.16666650000001937
        },
        {
          "name": "A#3",
          "midi": 58,
          "time": 655.1660115000053,
          "velocity": 1,
          "duration": 0.08333325000000968
        },
        {
          "name": "C4",
          "midi": 60,
          "time": 655.2493447500053,
          "velocity": 1,
          "duration": 0.08333325000000968
        },
        {
          "name": "D4",
          "midi": 62,
          "time": 655.3326780000053,
          "velocity": 1,
          "duration": 0.16666650000001937
        },
        {
          "name": "D#4",
          "midi": 63,
          "time": 655.4993445000053,
          "velocity": 1,
          "duration": 0.16666650000001937
        },
        {
          "name": "D#3",
          "midi": 51,
          "time": 655.4993445000053,
          "velocity": 1,
          "duration": 0.16666650000001937
        },
        {
          "name": "F3",
          "midi": 53,
          "time": 655.6660110000054,
          "velocity": 1,
          "duration": 0.16666650000001937
        },
        {
          "name": "F4",
          "midi": 65,
          "time": 655.6660110000054,
          "velocity": 1,
          "duration": 0.16666650000001937
        },
        {
          "name": "G4",
          "midi": 67,
          "time": 655.8326775000054,
          "velocity": 1,
          "duration": 0.16666650000001937
        },
        {
          "name": "G3",
          "midi": 55,
          "time": 655.8326775000054,
          "velocity": 1,
          "duration": 0.16666650000001937
        },
        {
          "name": "G#4",
          "midi": 68,
          "time": 655.9993440000054,
          "velocity": 1,
          "duration": 0.16666650000001937
        },
        {
          "name": "G#3",
          "midi": 56,
          "time": 655.9993440000054,
          "velocity": 1,
          "duration": 0.16666650000001937
        },
        {
          "name": "G4",
          "midi": 67,
          "time": 656.1660105000054,
          "velocity": 1,
          "duration": 0.16666650000001937
        },
        {
          "name": "G3",
          "midi": 55,
          "time": 656.1660105000054,
          "velocity": 1,
          "duration": 0.16666650000001937
        },
        {
          "name": "F4",
          "midi": 65,
          "time": 656.3326770000054,
          "velocity": 1,
          "duration": 0.16666650000001937
        },
        {
          "name": "F3",
          "midi": 53,
          "time": 656.3326770000054,
          "velocity": 1,
          "duration": 0.16666650000001937
        },
        {
          "name": "D#3",
          "midi": 51,
          "time": 656.4993435000055,
          "velocity": 1,
          "duration": 0.16666650000001937
        },
        {
          "name": "D#4",
          "midi": 63,
          "time": 656.4993435000055,
          "velocity": 1,
          "duration": 0.16666650000001937
        },
        {
          "name": "D4",
          "midi": 62,
          "time": 656.6660100000055,
          "velocity": 1,
          "duration": 0.16666650000001937
        },
        {
          "name": "D3",
          "midi": 50,
          "time": 656.6660100000055,
          "velocity": 1,
          "duration": 0.16666650000001937
        },
        {
          "name": "C4",
          "midi": 60,
          "time": 656.8326765000055,
          "velocity": 1,
          "duration": 0.16666650000001937
        },
        {
          "name": "C3",
          "midi": 48,
          "time": 656.8326765000055,
          "velocity": 1,
          "duration": 0.16666650000001937
        },
        {
          "name": "A#3",
          "midi": 58,
          "time": 656.9993430000055,
          "velocity": 1,
          "duration": 0.16666650000001937
        },
        {
          "name": "A#2",
          "midi": 46,
          "time": 656.9993430000055,
          "velocity": 1,
          "duration": 0.16666650000001937
        },
        {
          "name": "C4",
          "midi": 60,
          "time": 657.1660095000055,
          "velocity": 1,
          "duration": 0.16666650000001937
        },
        {
          "name": "A#3",
          "midi": 58,
          "time": 657.3326760000056,
          "velocity": 1,
          "duration": 0.16666650000001937
        },
        {
          "name": "G#3",
          "midi": 56,
          "time": 657.4993425000056,
          "velocity": 1,
          "duration": 0.16666650000001937
        },
        {
          "name": "G3",
          "midi": 55,
          "time": 657.6660090000056,
          "velocity": 1,
          "duration": 0.16666650000001937
        },
        {
          "name": "F3",
          "midi": 53,
          "time": 657.8326755000056,
          "velocity": 1,
          "duration": 0.16666650000001937
        },
        {
          "name": "D#3",
          "midi": 51,
          "time": 657.9993420000056,
          "velocity": 1,
          "duration": 0.16666650000001937
        },
        {
          "name": "D#3",
          "midi": 51,
          "time": 658.1660085000057,
          "velocity": 1,
          "duration": 0.08333325000000968
        },
        {
          "name": "F3",
          "midi": 53,
          "time": 658.2493417500057,
          "velocity": 1,
          "duration": 0.08333325000000968
        },
        {
          "name": "G3",
          "midi": 55,
          "time": 658.3326750000057,
          "velocity": 1,
          "duration": 0.16666650000001937
        },
        {
          "name": "G3",
          "midi": 55,
          "time": 658.4993415000057,
          "velocity": 1,
          "duration": 0.08333325000000968
        },
        {
          "name": "G#3",
          "midi": 56,
          "time": 658.5826747500057,
          "velocity": 1,
          "duration": 0.08333325000000968
        },
        {
          "name": "A#3",
          "midi": 58,
          "time": 658.6660080000057,
          "velocity": 1,
          "duration": 0.16666650000001937
        },
        {
          "name": "C4",
          "midi": 60,
          "time": 658.8326745000057,
          "velocity": 1,
          "duration": 0.08333325000000968
        },
        {
          "name": "D4",
          "midi": 62,
          "time": 658.9160077500057,
          "velocity": 1,
          "duration": 0.08333325000000968
        },
        {
          "name": "D#4",
          "midi": 63,
          "time": 658.9993410000058,
          "velocity": 1,
          "duration": 0.16666650000001937
        },
        {
          "name": "G3",
          "midi": 55,
          "time": 659.1660075000058,
          "velocity": 1,
          "duration": 0.08333325000000968
        },
        {
          "name": "G#3",
          "midi": 56,
          "time": 659.2493407500058,
          "velocity": 1,
          "duration": 0.08333325000000968
        },
        {
          "name": "A#3",
          "midi": 58,
          "time": 659.3326740000058,
          "velocity": 1,
          "duration": 0.16666650000001937
        },
        {
          "name": "A#3",
          "midi": 58,
          "time": 659.4993405000058,
          "velocity": 1,
          "duration": 0.08333325000000968
        },
        {
          "name": "C4",
          "midi": 60,
          "time": 659.5826737500058,
          "velocity": 1,
          "duration": 0.08333325000000968
        },
        {
          "name": "D4",
          "midi": 62,
          "time": 659.6660070000058,
          "velocity": 1,
          "duration": 0.16666650000001937
        },
        {
          "name": "D#4",
          "midi": 63,
          "time": 659.8326735000059,
          "velocity": 1,
          "duration": 0.08333325000000968
        },
        {
          "name": "F4",
          "midi": 65,
          "time": 659.9160067500059,
          "velocity": 1,
          "duration": 0.08333325000000968
        },
        {
          "name": "G4",
          "midi": 67,
          "time": 659.9993400000059,
          "velocity": 1,
          "duration": 0.16666650000001937
        },
        {
          "name": "F4",
          "midi": 65,
          "time": 660.1660065000059,
          "velocity": 1,
          "duration": 0.16666650000001937
        },
        {
          "name": "D#4",
          "midi": 63,
          "time": 660.3326730000059,
          "velocity": 1,
          "duration": 0.16666650000001937
        },
        {
          "name": "D4",
          "midi": 62,
          "time": 660.4993395000059,
          "velocity": 1,
          "duration": 0.16666650000001937
        },
        {
          "name": "C4",
          "midi": 60,
          "time": 660.666006000006,
          "velocity": 1,
          "duration": 0.16666650000001937
        },
        {
          "name": "A#3",
          "midi": 58,
          "time": 660.832672500006,
          "velocity": 1,
          "duration": 0.16666650000001937
        },
        {
          "name": "G#3",
          "midi": 56,
          "time": 660.999339000006,
          "velocity": 1,
          "duration": 0.16666650000001937
        },
        {
          "name": "G3",
          "midi": 55,
          "time": 661.166005500006,
          "velocity": 1,
          "duration": 0.16666650000001937
        },
        {
          "name": "F3",
          "midi": 53,
          "time": 661.332672000006,
          "velocity": 1,
          "duration": 0.16666650000001937
        },
        {
          "name": "D#3",
          "midi": 51,
          "time": 661.499338500006,
          "velocity": 1,
          "duration": 0.16666650000001937
        },
        {
          "name": "D3",
          "midi": 50,
          "time": 661.6660050000061,
          "velocity": 1,
          "duration": 0.16666650000001937
        },
        {
          "name": "C3",
          "midi": 48,
          "time": 661.8326715000061,
          "velocity": 1,
          "duration": 0.16666650000001937
        },
        {
          "name": "F3",
          "midi": 53,
          "time": 661.9993380000061,
          "velocity": 1,
          "duration": 0.16666650000001937
        },
        {
          "name": "F3",
          "midi": 53,
          "time": 662.1660045000061,
          "velocity": 1,
          "duration": 0.16666650000001937
        },
        {
          "name": "F3",
          "midi": 53,
          "time": 662.3326710000061,
          "velocity": 1,
          "duration": 0.16666650000001937
        },
        {
          "name": "F3",
          "midi": 53,
          "time": 662.4993375000062,
          "velocity": 1,
          "duration": 0.16666650000001937
        },
        {
          "name": "G#3",
          "midi": 56,
          "time": 662.6660040000062,
          "velocity": 1,
          "duration": 0.16666650000001937
        },
        {
          "name": "G#3",
          "midi": 56,
          "time": 662.8326705000062,
          "velocity": 1,
          "duration": 0.16666650000001937
        },
        {
          "name": "F3",
          "midi": 53,
          "time": 662.9993370000062,
          "velocity": 1,
          "duration": 0.16666650000001937
        },
        {
          "name": "F3",
          "midi": 53,
          "time": 663.1660035000062,
          "velocity": 1,
          "duration": 0.16666650000001937
        },
        {
          "name": "F3",
          "midi": 53,
          "time": 663.3326700000063,
          "velocity": 1,
          "duration": 0.16666650000001937
        },
        {
          "name": "F3",
          "midi": 53,
          "time": 663.4993365000063,
          "velocity": 1,
          "duration": 0.16666650000001937
        },
        {
          "name": "A#2",
          "midi": 46,
          "time": 663.6660030000063,
          "velocity": 1,
          "duration": 0.16666650000001937
        },
        {
          "name": "A#2",
          "midi": 46,
          "time": 663.8326695000063,
          "velocity": 1,
          "duration": 0.16666650000001937
        },
        {
          "name": "F3",
          "midi": 53,
          "time": 663.9993360000063,
          "velocity": 1,
          "duration": 0.16666650000001937
        },
        {
          "name": "F3",
          "midi": 53,
          "time": 664.1660025000064,
          "velocity": 1,
          "duration": 0.16666650000001937
        },
        {
          "name": "G#3",
          "midi": 56,
          "time": 664.3326690000064,
          "velocity": 1,
          "duration": 0.16666650000001937
        },
        {
          "name": "G#3",
          "midi": 56,
          "time": 664.4993355000064,
          "velocity": 1,
          "duration": 0.16666650000001937
        },
        {
          "name": "A#3",
          "midi": 58,
          "time": 664.6660020000064,
          "velocity": 1,
          "duration": 0.16666650000001937
        },
        {
          "name": "A#3",
          "midi": 58,
          "time": 664.8326685000064,
          "velocity": 1,
          "duration": 0.16666650000001937
        },
        {
          "name": "A#3",
          "midi": 58,
          "time": 664.9993350000065,
          "velocity": 1,
          "duration": 0.16666650000001937
        },
        {
          "name": "A#3",
          "midi": 58,
          "time": 665.1660015000065,
          "velocity": 1,
          "duration": 0.16666650000001937
        },
        {
          "name": "A#3",
          "midi": 58,
          "time": 665.3326680000065,
          "velocity": 1,
          "duration": 0.16666650000001937
        },
        {
          "name": "A#3",
          "midi": 58,
          "time": 665.4993345000065,
          "velocity": 1,
          "duration": 0.16666650000001937
        },
        {
          "name": "A#3",
          "midi": 58,
          "time": 665.6660010000065,
          "velocity": 1,
          "duration": 0.16666650000001937
        },
        {
          "name": "A#3",
          "midi": 58,
          "time": 665.8326675000066,
          "velocity": 1,
          "duration": 0.16666650000001937
        },
        {
          "name": "A#3",
          "midi": 58,
          "time": 665.9993340000066,
          "velocity": 1,
          "duration": 0.16666650000001937
        },
        {
          "name": "A#3",
          "midi": 58,
          "time": 666.1660005000066,
          "velocity": 1,
          "duration": 0.16666650000001937
        },
        {
          "name": "A#3",
          "midi": 58,
          "time": 666.3326670000066,
          "velocity": 1,
          "duration": 0.16666650000001937
        },
        {
          "name": "C#4",
          "midi": 61,
          "time": 666.3326670000066,
          "velocity": 1,
          "duration": 0.16666650000001937
        },
        {
          "name": "C#4",
          "midi": 61,
          "time": 666.4993335000066,
          "velocity": 1,
          "duration": 0.16666650000001937
        },
        {
          "name": "A#3",
          "midi": 58,
          "time": 666.4993335000066,
          "velocity": 1,
          "duration": 0.16666650000001937
        },
        {
          "name": "C#4",
          "midi": 61,
          "time": 666.6660000000066,
          "velocity": 1,
          "duration": 0.16666650000001937
        },
        {
          "name": "A#3",
          "midi": 58,
          "time": 666.6660000000066,
          "velocity": 1,
          "duration": 0.16666650000001937
        },
        {
          "name": "C#4",
          "midi": 61,
          "time": 666.8326665000067,
          "velocity": 1,
          "duration": 0.16666650000001937
        },
        {
          "name": "A#3",
          "midi": 58,
          "time": 666.8326665000067,
          "velocity": 1,
          "duration": 0.16666650000001937
        },
        {
          "name": "A#3",
          "midi": 58,
          "time": 666.9993330000067,
          "velocity": 1,
          "duration": 0.9999990000000025
        },
        {
          "name": "C#4",
          "midi": 61,
          "time": 666.9993330000067,
          "velocity": 1,
          "duration": 0.9999990000000025
        },
        {
          "name": "C4",
          "midi": 60,
          "time": 667.9993320000067,
          "velocity": 1,
          "duration": 0.33333300000003874
        },
        {
          "name": "G#3",
          "midi": 56,
          "time": 667.9993320000067,
          "velocity": 1,
          "duration": 0.33333300000003874
        },
        {
          "name": "C4",
          "midi": 60,
          "time": 668.3326650000067,
          "velocity": 1,
          "duration": 0.6666659999999638
        },
        {
          "name": "G#3",
          "midi": 56,
          "time": 668.3326650000067,
          "velocity": 1,
          "duration": 0.6666659999999638
        },
        {
          "name": "C4",
          "midi": 60,
          "time": 669.3326640000067,
          "velocity": 1,
          "duration": 0.6666659999999638
        },
        {
          "name": "A3",
          "midi": 57,
          "time": 669.3326640000067,
          "velocity": 1,
          "duration": 0.6666659999999638
        },
        {
          "name": "A#3",
          "midi": 58,
          "time": 670.3326630000067,
          "velocity": 1,
          "duration": 0.6666659999999638
        },
        {
          "name": "A#2",
          "midi": 46,
          "time": 670.3326630000067,
          "velocity": 1,
          "duration": 0.6666659999999638
        },
        {
          "name": "B3",
          "midi": 59,
          "time": 671.3326620000067,
          "velocity": 1,
          "duration": 0.6666659999999638
        },
        {
          "name": "B2",
          "midi": 47,
          "time": 671.3326620000067,
          "velocity": 1,
          "duration": 0.6666659999999638
        },
        {
          "name": "C4",
          "midi": 60,
          "time": 672.3326610000067,
          "velocity": 1,
          "duration": 0.6666659999999638
        },
        {
          "name": "C3",
          "midi": 48,
          "time": 672.3326610000067,
          "velocity": 1,
          "duration": 0.6666659999999638
        },
        {
          "name": "G#3",
          "midi": 56,
          "time": 673.3326600000067,
          "velocity": 1,
          "duration": 0.6666659999999638
        },
        {
          "name": "G#2",
          "midi": 44,
          "time": 673.3326600000067,
          "velocity": 1,
          "duration": 0.6666659999999638
        },
        {
          "name": "A#2",
          "midi": 46,
          "time": 673.9993260000067,
          "velocity": 1,
          "duration": 1.3333320000000413
        },
        {
          "name": "A#3",
          "midi": 58,
          "time": 673.9993260000067,
          "velocity": 1,
          "duration": 1.3333320000000413
        },
        {
          "name": "A#3",
          "midi": 58,
          "time": 675.3326580000067,
          "velocity": 1,
          "duration": 0.33333300000003874
        },
        {
          "name": "A#2",
          "midi": 46,
          "time": 675.3326580000067,
          "velocity": 1,
          "duration": 0.33333300000003874
        },
        {
          "name": "A#3",
          "midi": 58,
          "time": 675.6659910000068,
          "velocity": 1,
          "duration": 0.33333300000003874
        },
        {
          "name": "A#2",
          "midi": 46,
          "time": 675.6659910000068,
          "velocity": 1,
          "duration": 0.33333300000003874
        },
        {
          "name": "D#4",
          "midi": 63,
          "time": 675.9993240000068,
          "velocity": 1,
          "duration": 0.6666659999999638
        },
        {
          "name": "D4",
          "midi": 62,
          "time": 676.6659900000068,
          "velocity": 1,
          "duration": 0.16666650000001937
        },
        {
          "name": "C#4",
          "midi": 61,
          "time": 676.8326565000068,
          "velocity": 1,
          "duration": 0.16666650000001937
        },
        {
          "name": "D#4",
          "midi": 63,
          "time": 676.9993230000068,
          "velocity": 1,
          "duration": 0.33333300000003874
        },
        {
          "name": "C4",
          "midi": 60,
          "time": 676.9993230000068,
          "velocity": 1,
          "duration": 0.33333300000003874
        },
        {
          "name": "A#3",
          "midi": 58,
          "time": 677.3326560000069,
          "velocity": 1,
          "duration": 0.33333300000003874
        },
        {
          "name": "D4",
          "midi": 62,
          "time": 677.3326560000069,
          "velocity": 1,
          "duration": 0.33333300000003874
        },
        {
          "name": "C4",
          "midi": 60,
          "time": 677.6659890000069,
          "velocity": 1,
          "duration": 0.33333300000003874
        },
        {
          "name": "G#3",
          "midi": 56,
          "time": 677.6659890000069,
          "velocity": 1,
          "duration": 0.33333300000003874
        },
        {
          "name": "A#3",
          "midi": 58,
          "time": 677.9993220000069,
          "velocity": 1,
          "duration": 0.6666659999999638
        },
        {
          "name": "G3",
          "midi": 55,
          "time": 677.9993220000069,
          "velocity": 1,
          "duration": 0.6666659999999638
        },
        {
          "name": "G#3",
          "midi": 56,
          "time": 678.6659880000069,
          "velocity": 1,
          "duration": 0.16666650000001937
        },
        {
          "name": "F3",
          "midi": 53,
          "time": 678.6659880000069,
          "velocity": 1,
          "duration": 0.16666650000001937
        },
        {
          "name": "G3",
          "midi": 55,
          "time": 678.8326545000069,
          "velocity": 1,
          "duration": 0.16666650000001937
        },
        {
          "name": "D#3",
          "midi": 51,
          "time": 678.8326545000069,
          "velocity": 1,
          "duration": 0.16666650000001937
        },
        {
          "name": "F3",
          "midi": 53,
          "time": 678.999321000007,
          "velocity": 1,
          "duration": 0.33333300000003874
        },
        {
          "name": "D3",
          "midi": 50,
          "time": 678.999321000007,
          "velocity": 1,
          "duration": 0.33333300000003874
        },
        {
          "name": "A#3",
          "midi": 58,
          "time": 679.332654000007,
          "velocity": 1,
          "duration": 0.33333300000003874
        },
        {
          "name": "D3",
          "midi": 50,
          "time": 679.332654000007,
          "velocity": 1,
          "duration": 0.33333300000003874
        },
        {
          "name": "A#3",
          "midi": 58,
          "time": 679.665987000007,
          "velocity": 1,
          "duration": 0.33333300000003874
        },
        {
          "name": "D3",
          "midi": 50,
          "time": 679.665987000007,
          "velocity": 1,
          "duration": 0.33333300000003874
        },
        {
          "name": "D#3",
          "midi": 51,
          "time": 679.9993200000071,
          "velocity": 1,
          "duration": 0.33333300000003874
        },
        {
          "name": "A#3",
          "midi": 58,
          "time": 679.9993200000071,
          "velocity": 1,
          "duration": 0.33333300000003874
        },
        {
          "name": "A#3",
          "midi": 58,
          "time": 682.4993175000071,
          "velocity": 1,
          "duration": 0.16666650000001937
        },
        {
          "name": "G3",
          "midi": 55,
          "time": 682.4993175000071,
          "velocity": 1,
          "duration": 0.16666650000001937
        },
        {
          "name": "G#3",
          "midi": 56,
          "time": 682.6659840000071,
          "velocity": 1,
          "duration": 0.16666650000001937
        },
        {
          "name": "F3",
          "midi": 53,
          "time": 682.6659840000071,
          "velocity": 1,
          "duration": 0.16666650000001937
        },
        {
          "name": "G3",
          "midi": 55,
          "time": 682.8326505000072,
          "velocity": 1,
          "duration": 0.16666650000001937
        },
        {
          "name": "D#3",
          "midi": 51,
          "time": 682.8326505000072,
          "velocity": 1,
          "duration": 0.16666650000001937
        },
        {
          "name": "F3",
          "midi": 53,
          "time": 682.9993170000072,
          "velocity": 1,
          "duration": 0.16666650000001937
        },
        {
          "name": "D3",
          "midi": 50,
          "time": 682.9993170000072,
          "velocity": 1,
          "duration": 0.16666650000001937
        },
        {
          "name": "G3",
          "midi": 55,
          "time": 683.1659835000072,
          "velocity": 1,
          "duration": 0.16666650000001937
        },
        {
          "name": "D#3",
          "midi": 51,
          "time": 683.1659835000072,
          "velocity": 1,
          "duration": 0.16666650000001937
        },
        {
          "name": "G#3",
          "midi": 56,
          "time": 683.3326500000072,
          "velocity": 1,
          "duration": 0.16666650000001937
        },
        {
          "name": "F3",
          "midi": 53,
          "time": 683.3326500000072,
          "velocity": 1,
          "duration": 0.16666650000001937
        },
        {
          "name": "G3",
          "midi": 55,
          "time": 683.4993165000072,
          "velocity": 1,
          "duration": 0.16666650000001937
        },
        {
          "name": "D#3",
          "midi": 51,
          "time": 683.4993165000072,
          "velocity": 1,
          "duration": 0.16666650000001937
        },
        {
          "name": "D3",
          "midi": 50,
          "time": 683.6659830000073,
          "velocity": 1,
          "duration": 0.16666650000001937
        },
        {
          "name": "F3",
          "midi": 53,
          "time": 683.6659830000073,
          "velocity": 1,
          "duration": 0.16666650000001937
        },
        {
          "name": "D#3",
          "midi": 51,
          "time": 683.8326495000073,
          "velocity": 1,
          "duration": 0.16666650000001937
        },
        {
          "name": "C3",
          "midi": 48,
          "time": 683.8326495000073,
          "velocity": 1,
          "duration": 0.16666650000001937
        },
        {
          "name": "D3",
          "midi": 50,
          "time": 683.9993160000073,
          "velocity": 1,
          "duration": 0.33333300000003874
        },
        {
          "name": "A#2",
          "midi": 46,
          "time": 683.9993160000073,
          "velocity": 1,
          "duration": 0.33333300000003874
        },
        {
          "name": "A#3",
          "midi": 58,
          "time": 684.3326490000073,
          "velocity": 1,
          "duration": 0.9999990000000025
        },
        {
          "name": "A#2",
          "midi": 46,
          "time": 684.3326490000073,
          "velocity": 1,
          "duration": 0.9999990000000025
        },
        {
          "name": "A#3",
          "midi": 58,
          "time": 685.3326480000073,
          "velocity": 1,
          "duration": 0.9999990000000025
        },
        {
          "name": "A#2",
          "midi": 46,
          "time": 685.3326480000073,
          "velocity": 1,
          "duration": 0.9999990000000025
        },
        {
          "name": "A#3",
          "midi": 58,
          "time": 686.3326470000073,
          "velocity": 1,
          "duration": 0.6666659999999638
        },
        {
          "name": "A#2",
          "midi": 46,
          "time": 686.3326470000073,
          "velocity": 1,
          "duration": 0.6666659999999638
        },
        {
          "name": "A#2",
          "midi": 46,
          "time": 686.9993130000073,
          "velocity": 1,
          "duration": 0.6666659999999638
        },
        {
          "name": "A#3",
          "midi": 58,
          "time": 686.9993130000073,
          "velocity": 1,
          "duration": 0.6666659999999638
        },
        {
          "name": "A#3",
          "midi": 58,
          "time": 687.6659790000073,
          "velocity": 1,
          "duration": 0.33333300000003874
        },
        {
          "name": "A#2",
          "midi": 46,
          "time": 687.6659790000073,
          "velocity": 1,
          "duration": 0.33333300000003874
        },
        {
          "name": "A#3",
          "midi": 58,
          "time": 687.9993120000073,
          "velocity": 1,
          "duration": 0.33333300000003874
        },
        {
          "name": "A#2",
          "midi": 46,
          "time": 687.9993120000073,
          "velocity": 1,
          "duration": 0.33333300000003874
        },
        {
          "name": "D4",
          "midi": 62,
          "time": 688.3326450000073,
          "velocity": 1,
          "duration": 0.33333300000003874
        },
        {
          "name": "A#2",
          "midi": 46,
          "time": 688.3326450000073,
          "velocity": 1,
          "duration": 0.33333300000003874
        },
        {
          "name": "D4",
          "midi": 62,
          "time": 688.6659780000074,
          "velocity": 1,
          "duration": 0.33333300000003874
        },
        {
          "name": "A#2",
          "midi": 46,
          "time": 688.6659780000074,
          "velocity": 1,
          "duration": 0.33333300000003874
        },
        {
          "name": "D4",
          "midi": 62,
          "time": 688.9993110000074,
          "velocity": 1,
          "duration": 0.33333300000003874
        },
        {
          "name": "A#2",
          "midi": 46,
          "time": 688.9993110000074,
          "velocity": 1,
          "duration": 0.33333300000003874
        },
        {
          "name": "D4",
          "midi": 62,
          "time": 689.3326440000075,
          "velocity": 1,
          "duration": 0.33333300000003874
        },
        {
          "name": "A#2",
          "midi": 46,
          "time": 689.3326440000075,
          "velocity": 1,
          "duration": 0.33333300000003874
        },
        {
          "name": "D4",
          "midi": 62,
          "time": 689.6659770000075,
          "velocity": 1,
          "duration": 0.33333300000003874
        },
        {
          "name": "A#2",
          "midi": 46,
          "time": 689.6659770000075,
          "velocity": 1,
          "duration": 0.33333300000003874
        },
        {
          "name": "A#2",
          "midi": 46,
          "time": 689.9993100000075,
          "velocity": 1,
          "duration": 0.33333300000003874
        },
        {
          "name": "D4",
          "midi": 62,
          "time": 689.9993100000075,
          "velocity": 1,
          "duration": 0.33333300000003874
        },
        {
          "name": "D4",
          "midi": 62,
          "time": 690.3326430000076,
          "velocity": 1,
          "duration": 0.33333300000003874
        },
        {
          "name": "A#2",
          "midi": 46,
          "time": 690.3326430000076,
          "velocity": 1,
          "duration": 0.33333300000003874
        },
        {
          "name": "D4",
          "midi": 62,
          "time": 690.6659760000076,
          "velocity": 1,
          "duration": 0.33333300000003874
        },
        {
          "name": "A#2",
          "midi": 46,
          "time": 690.6659760000076,
          "velocity": 1,
          "duration": 0.33333300000003874
        },
        {
          "name": "D4",
          "midi": 62,
          "time": 690.9993090000077,
          "velocity": 1,
          "duration": 0.33333300000003874
        },
        {
          "name": "A#2",
          "midi": 46,
          "time": 690.9993090000077,
          "velocity": 1,
          "duration": 0.33333300000003874
        },
        {
          "name": "A#2",
          "midi": 46,
          "time": 691.3326420000077,
          "velocity": 1,
          "duration": 0.33333300000003874
        },
        {
          "name": "D4",
          "midi": 62,
          "time": 691.3326420000077,
          "velocity": 1,
          "duration": 0.33333300000003874
        },
        {
          "name": "D4",
          "midi": 62,
          "time": 691.6659750000077,
          "velocity": 1,
          "duration": 0.33333300000003874
        },
        {
          "name": "A#2",
          "midi": 46,
          "time": 691.6659750000077,
          "velocity": 1,
          "duration": 0.33333300000003874
        },
        {
          "name": "D#4",
          "midi": 63,
          "time": 691.9993080000078,
          "velocity": 1,
          "duration": 0.33333300000003874
        },
        {
          "name": "D#3",
          "midi": 51,
          "time": 691.9993080000078,
          "velocity": 1,
          "duration": 0.33333300000003874
        },
        {
          "name": "D#4",
          "midi": 63,
          "time": 692.9993070000078,
          "velocity": 1,
          "duration": 0.33333300000003874
        },
        {
          "name": "D#3",
          "midi": 51,
          "time": 692.9993070000078,
          "velocity": 1,
          "duration": 0.33333300000003874
        },
        {
          "name": "D#3",
          "midi": 51,
          "time": 693.9993060000078,
          "velocity": 1,
          "duration": 0.33333300000003874
        }
      ],
      "controlChanges": {},
      "id": 4,
      "name": "",
      "instrumentNumber": 70,
      "instrument": "bassoon",
      "instrumentFamily": "reed",
      "channelNumber": 4,
      "isPercussion": false
    },
    {
      "startTime": 0,
      "duration": 694.3326390000087,
      "length": 1702,
      "notes": [
        {
          "name": "D#4",
          "midi": 63,
          "time": 0,
          "velocity": 1,
          "duration": 0.333333
        },
        {
          "name": "D#3",
          "midi": 51,
          "time": 0,
          "velocity": 1,
          "duration": 0.333333
        },
        {
          "name": "D#4",
          "midi": 63,
          "time": 0.999999,
          "velocity": 1,
          "duration": 0.333333
        },
        {
          "name": "D#3",
          "midi": 51,
          "time": 0.999999,
          "velocity": 1,
          "duration": 0.333333
        },
        {
          "name": "D#4",
          "midi": 63,
          "time": 11.999988,
          "velocity": 1,
          "duration": 0.9999990000000007
        },
        {
          "name": "G4",
          "midi": 67,
          "time": 11.999988,
          "velocity": 1,
          "duration": 0.9999990000000007
        },
        {
          "name": "G#4",
          "midi": 68,
          "time": 12.999987,
          "velocity": 1,
          "duration": 0.33333299999999966
        },
        {
          "name": "F4",
          "midi": 65,
          "time": 12.999987,
          "velocity": 1,
          "duration": 0.33333299999999966
        },
        {
          "name": "G4",
          "midi": 67,
          "time": 13.33332,
          "velocity": 1,
          "duration": 0.33333299999999966
        },
        {
          "name": "D#4",
          "midi": 63,
          "time": 13.33332,
          "velocity": 1,
          "duration": 0.33333299999999966
        },
        {
          "name": "F4",
          "midi": 65,
          "time": 13.666653,
          "velocity": 1,
          "duration": 0.33333299999999966
        },
        {
          "name": "A#3",
          "midi": 58,
          "time": 13.666653,
          "velocity": 1,
          "duration": 0.33333299999999966
        },
        {
          "name": "G3",
          "midi": 55,
          "time": 13.999986,
          "velocity": 1,
          "duration": 0.33333299999999966
        },
        {
          "name": "D#4",
          "midi": 63,
          "time": 13.999986,
          "velocity": 1,
          "duration": 0.6666659999999993
        },
        {
          "name": "G4",
          "midi": 67,
          "time": 14.666652,
          "velocity": 1,
          "duration": 0.33333299999999966
        },
        {
          "name": "D#4",
          "midi": 63,
          "time": 14.999984999999999,
          "velocity": 1,
          "duration": 0.6666659999999993
        },
        {
          "name": "A#3",
          "midi": 58,
          "time": 15.666650999999998,
          "velocity": 1,
          "duration": 0.33333299999999966
        },
        {
          "name": "D#4",
          "midi": 63,
          "time": 15.999983999999998,
          "velocity": 1,
          "duration": 0.33333299999999966
        },
        {
          "name": "G4",
          "midi": 67,
          "time": 16.333316999999997,
          "velocity": 1,
          "duration": 0.33333299999999966
        },
        {
          "name": "A#4",
          "midi": 70,
          "time": 16.666649999999997,
          "velocity": 1,
          "duration": 0.33333299999999966
        },
        {
          "name": "D#4",
          "midi": 63,
          "time": 16.999982999999997,
          "velocity": 1,
          "duration": 0.33333299999999966
        },
        {
          "name": "D#4",
          "midi": 63,
          "time": 21.333311999999996,
          "velocity": 1,
          "duration": 0.33333299999999966
        },
        {
          "name": "D#3",
          "midi": 51,
          "time": 21.333311999999996,
          "velocity": 1,
          "duration": 0.33333299999999966
        },
        {
          "name": "D#4",
          "midi": 63,
          "time": 21.666644999999995,
          "velocity": 1,
          "duration": 0.33333299999999966
        },
        {
          "name": "D#3",
          "midi": 51,
          "time": 21.666644999999995,
          "velocity": 1,
          "duration": 0.33333299999999966
        },
        {
          "name": "F4",
          "midi": 65,
          "time": 21.666644999999995,
          "velocity": 1,
          "duration": 0.33333299999999966
        },
        {
          "name": "A#3",
          "midi": 58,
          "time": 21.999977999999995,
          "velocity": 1,
          "duration": 1.6666649999999983
        },
        {
          "name": "A#2",
          "midi": 46,
          "time": 21.999977999999995,
          "velocity": 1,
          "duration": 1.6666649999999983
        },
        {
          "name": "F4",
          "midi": 65,
          "time": 21.999977999999995,
          "velocity": 1,
          "duration": 0.33333299999999966
        },
        {
          "name": "F4",
          "midi": 65,
          "time": 23.666642999999993,
          "velocity": 1,
          "duration": 0.33333299999999966
        },
        {
          "name": "A#3",
          "midi": 58,
          "time": 23.666642999999993,
          "velocity": 1,
          "duration": 0.33333299999999966
        },
        {
          "name": "D#4",
          "midi": 63,
          "time": 23.999975999999993,
          "velocity": 1,
          "duration": 0.33333299999999966
        },
        {
          "name": "D#3",
          "midi": 51,
          "time": 23.999975999999993,
          "velocity": 1,
          "duration": 0.33333299999999966
        },
        {
          "name": "G4",
          "midi": 67,
          "time": 23.999975999999993,
          "velocity": 1,
          "duration": 0.33333299999999966
        },
        {
          "name": "F#4",
          "midi": 66,
          "time": 24.333308999999993,
          "velocity": 1,
          "duration": 0.6666659999999993
        },
        {
          "name": "D#3",
          "midi": 51,
          "time": 24.333308999999993,
          "velocity": 1,
          "duration": 0.6666659999999993
        },
        {
          "name": "D#4",
          "midi": 63,
          "time": 24.333308999999993,
          "velocity": 1,
          "duration": 0.6666659999999993
        },
        {
          "name": "D#4",
          "midi": 63,
          "time": 24.999974999999992,
          "velocity": 1,
          "duration": 0.6666659999999993
        },
        {
          "name": "D#3",
          "midi": 51,
          "time": 24.999974999999992,
          "velocity": 1,
          "duration": 0.6666659999999993
        },
        {
          "name": "F#4",
          "midi": 66,
          "time": 24.999974999999992,
          "velocity": 1,
          "duration": 0.6666659999999993
        },
        {
          "name": "D#4",
          "midi": 63,
          "time": 25.66664099999999,
          "velocity": 1,
          "duration": 0.33333299999999966
        },
        {
          "name": "D#3",
          "midi": 51,
          "time": 25.66664099999999,
          "velocity": 1,
          "duration": 0.33333299999999966
        },
        {
          "name": "F#4",
          "midi": 66,
          "time": 25.66664099999999,
          "velocity": 1,
          "duration": 0.33333299999999966
        },
        {
          "name": "F4",
          "midi": 65,
          "time": 25.99997399999999,
          "velocity": 1,
          "duration": 0.33333299999999966
        },
        {
          "name": "A#2",
          "midi": 46,
          "time": 25.99997399999999,
          "velocity": 1,
          "duration": 1.6666649999999983
        },
        {
          "name": "A#3",
          "midi": 58,
          "time": 25.99997399999999,
          "velocity": 1,
          "duration": 1.6666649999999983
        },
        {
          "name": "F4",
          "midi": 65,
          "time": 27.66663899999999,
          "velocity": 1,
          "duration": 0.6666659999999993
        },
        {
          "name": "A#2",
          "midi": 46,
          "time": 27.66663899999999,
          "velocity": 1,
          "duration": 0.6666659999999993
        },
        {
          "name": "A#3",
          "midi": 58,
          "time": 27.66663899999999,
          "velocity": 1,
          "duration": 0.6666659999999993
        },
        {
          "name": "F4",
          "midi": 65,
          "time": 28.33330499999999,
          "velocity": 1,
          "duration": 0.6666659999999993
        },
        {
          "name": "A#2",
          "midi": 46,
          "time": 28.33330499999999,
          "velocity": 1,
          "duration": 0.6666659999999993
        },
        {
          "name": "A#3",
          "midi": 58,
          "time": 28.33330499999999,
          "velocity": 1,
          "duration": 0.6666659999999993
        },
        {
          "name": "F4",
          "midi": 65,
          "time": 28.999970999999988,
          "velocity": 1,
          "duration": 0.6666659999999993
        },
        {
          "name": "A#2",
          "midi": 46,
          "time": 28.999970999999988,
          "velocity": 1,
          "duration": 0.6666659999999993
        },
        {
          "name": "A#3",
          "midi": 58,
          "time": 28.999970999999988,
          "velocity": 1,
          "duration": 0.6666659999999993
        },
        {
          "name": "A#3",
          "midi": 58,
          "time": 29.666636999999987,
          "velocity": 1,
          "duration": 0.6666659999999993
        },
        {
          "name": "A#2",
          "midi": 46,
          "time": 29.666636999999987,
          "velocity": 1,
          "duration": 0.6666659999999993
        },
        {
          "name": "F4",
          "midi": 65,
          "time": 29.666636999999987,
          "velocity": 1,
          "duration": 0.6666659999999993
        },
        {
          "name": "G4",
          "midi": 67,
          "time": 30.333302999999987,
          "velocity": 1,
          "duration": 0.6666659999999993
        },
        {
          "name": "A#2",
          "midi": 46,
          "time": 30.333302999999987,
          "velocity": 1,
          "duration": 0.6666659999999993
        },
        {
          "name": "D#4",
          "midi": 63,
          "time": 30.333302999999987,
          "velocity": 1,
          "duration": 0.6666659999999993
        },
        {
          "name": "G4",
          "midi": 67,
          "time": 30.999968999999986,
          "velocity": 1,
          "duration": 0.6666659999999993
        },
        {
          "name": "A#2",
          "midi": 46,
          "time": 30.999968999999986,
          "velocity": 1,
          "duration": 0.6666659999999993
        },
        {
          "name": "D#4",
          "midi": 63,
          "time": 30.999968999999986,
          "velocity": 1,
          "duration": 0.6666659999999993
        },
        {
          "name": "G4",
          "midi": 67,
          "time": 31.666634999999985,
          "velocity": 1,
          "duration": 0.6666659999999993
        },
        {
          "name": "A#2",
          "midi": 46,
          "time": 31.666634999999985,
          "velocity": 1,
          "duration": 0.6666659999999993
        },
        {
          "name": "D#4",
          "midi": 63,
          "time": 31.666634999999985,
          "velocity": 1,
          "duration": 0.6666659999999993
        },
        {
          "name": "F4",
          "midi": 65,
          "time": 32.333300999999985,
          "velocity": 1,
          "duration": 0.3333330000000032
        },
        {
          "name": "A#2",
          "midi": 46,
          "time": 32.333300999999985,
          "velocity": 1,
          "duration": 0.3333330000000032
        },
        {
          "name": "A#3",
          "midi": 58,
          "time": 32.333300999999985,
          "velocity": 1,
          "duration": 0.3333330000000032
        },
        {
          "name": "F4",
          "midi": 65,
          "time": 32.66663399999999,
          "velocity": 1,
          "duration": 0.6666659999999993
        },
        {
          "name": "A#2",
          "midi": 46,
          "time": 32.66663399999999,
          "velocity": 1,
          "duration": 0.6666659999999993
        },
        {
          "name": "A#3",
          "midi": 58,
          "time": 32.66663399999999,
          "velocity": 1,
          "duration": 0.6666659999999993
        },
        {
          "name": "G4",
          "midi": 67,
          "time": 33.33329999999999,
          "velocity": 1,
          "duration": 0.3333330000000032
        },
        {
          "name": "A#2",
          "midi": 46,
          "time": 33.33329999999999,
          "velocity": 1,
          "duration": 0.3333330000000032
        },
        {
          "name": "D#4",
          "midi": 63,
          "time": 33.33329999999999,
          "velocity": 1,
          "duration": 0.3333330000000032
        },
        {
          "name": "G4",
          "midi": 67,
          "time": 33.66663299999999,
          "velocity": 1,
          "duration": 0.3333330000000032
        },
        {
          "name": "A#2",
          "midi": 46,
          "time": 33.66663299999999,
          "velocity": 1,
          "duration": 0.3333330000000032
        },
        {
          "name": "D#4",
          "midi": 63,
          "time": 33.66663299999999,
          "velocity": 1,
          "duration": 0.3333330000000032
        },
        {
          "name": "A#3",
          "midi": 58,
          "time": 33.99996599999999,
          "velocity": 1,
          "duration": 1.3333319999999986
        },
        {
          "name": "A#2",
          "midi": 46,
          "time": 33.99996599999999,
          "velocity": 1,
          "duration": 1.3333319999999986
        },
        {
          "name": "G#4",
          "midi": 68,
          "time": 33.99996599999999,
          "velocity": 1,
          "duration": 1.3333319999999986
        },
        {
          "name": "G#4",
          "midi": 68,
          "time": 35.33329799999999,
          "velocity": 1,
          "duration": 0.3333330000000032
        },
        {
          "name": "A#3",
          "midi": 58,
          "time": 35.33329799999999,
          "velocity": 1,
          "duration": 0.3333330000000032
        },
        {
          "name": "F4",
          "midi": 65,
          "time": 35.33329799999999,
          "velocity": 1,
          "duration": 0.3333330000000032
        },
        {
          "name": "F4",
          "midi": 65,
          "time": 35.666630999999995,
          "velocity": 1,
          "duration": 0.3333330000000032
        },
        {
          "name": "A#3",
          "midi": 58,
          "time": 35.666630999999995,
          "velocity": 1,
          "duration": 0.3333330000000032
        },
        {
          "name": "G#4",
          "midi": 68,
          "time": 35.666630999999995,
          "velocity": 1,
          "duration": 0.3333330000000032
        },
        {
          "name": "G4",
          "midi": 67,
          "time": 35.999964,
          "velocity": 1,
          "duration": 0.3333330000000032
        },
        {
          "name": "A#3",
          "midi": 58,
          "time": 35.999964,
          "velocity": 1,
          "duration": 0.3333330000000032
        },
        {
          "name": "D#4",
          "midi": 63,
          "time": 35.999964,
          "velocity": 1,
          "duration": 0.6666660000000064
        },
        {
          "name": "D#3",
          "midi": 51,
          "time": 36.333297,
          "velocity": 1,
          "duration": 0.3333330000000032
        },
        {
          "name": "G4",
          "midi": 67,
          "time": 36.666630000000005,
          "velocity": 1,
          "duration": 0.3333330000000032
        },
        {
          "name": "G3",
          "midi": 55,
          "time": 36.666630000000005,
          "velocity": 1,
          "duration": 0.3333330000000032
        },
        {
          "name": "D#4",
          "midi": 63,
          "time": 36.99996300000001,
          "velocity": 1,
          "duration": 0.6666659999999993
        },
        {
          "name": "D#3",
          "midi": 51,
          "time": 36.99996300000001,
          "velocity": 1,
          "duration": 0.6666659999999993
        },
        {
          "name": "A#3",
          "midi": 58,
          "time": 37.66662900000001,
          "velocity": 1,
          "duration": 0.3333330000000032
        },
        {
          "name": "A#2",
          "midi": 46,
          "time": 37.66662900000001,
          "velocity": 1,
          "duration": 0.3333330000000032
        },
        {
          "name": "D#4",
          "midi": 63,
          "time": 37.99996200000001,
          "velocity": 1,
          "duration": 0.3333330000000032
        },
        {
          "name": "D#3",
          "midi": 51,
          "time": 37.99996200000001,
          "velocity": 1,
          "duration": 0.3333330000000032
        },
        {
          "name": "G4",
          "midi": 67,
          "time": 38.333295000000014,
          "velocity": 1,
          "duration": 0.3333330000000032
        },
        {
          "name": "G3",
          "midi": 55,
          "time": 38.333295000000014,
          "velocity": 1,
          "duration": 0.3333330000000032
        },
        {
          "name": "A#4",
          "midi": 70,
          "time": 38.66662800000002,
          "velocity": 1,
          "duration": 0.3333330000000032
        },
        {
          "name": "A#3",
          "midi": 58,
          "time": 38.66662800000002,
          "velocity": 1,
          "duration": 0.3333330000000032
        },
        {
          "name": "G4",
          "midi": 67,
          "time": 38.66662800000002,
          "velocity": 1,
          "duration": 0.3333330000000032
        },
        {
          "name": "G4",
          "midi": 67,
          "time": 38.99996100000002,
          "velocity": 1,
          "duration": 0.6666659999999993
        },
        {
          "name": "D#3",
          "midi": 51,
          "time": 38.99996100000002,
          "velocity": 1,
          "duration": 0.6666659999999993
        },
        {
          "name": "D#4",
          "midi": 63,
          "time": 38.99996100000002,
          "velocity": 1,
          "duration": 0.6666659999999993
        },
        {
          "name": "G4",
          "midi": 67,
          "time": 39.66662700000002,
          "velocity": 1,
          "duration": 0.3333330000000032
        },
        {
          "name": "G3",
          "midi": 55,
          "time": 39.66662700000002,
          "velocity": 1,
          "duration": 0.3333330000000032
        },
        {
          "name": "G4",
          "midi": 67,
          "time": 39.99996000000002,
          "velocity": 1,
          "duration": 0.3333330000000032
        },
        {
          "name": "G3",
          "midi": 55,
          "time": 39.99996000000002,
          "velocity": 1,
          "duration": 0.3333330000000032
        },
        {
          "name": "D#4",
          "midi": 63,
          "time": 39.99996000000002,
          "velocity": 1,
          "duration": 0.3333330000000032
        },
        {
          "name": "D#4",
          "midi": 63,
          "time": 40.333293000000026,
          "velocity": 1,
          "duration": 0.3333330000000032
        },
        {
          "name": "G3",
          "midi": 55,
          "time": 40.333293000000026,
          "velocity": 1,
          "duration": 0.3333330000000032
        },
        {
          "name": "G4",
          "midi": 67,
          "time": 40.333293000000026,
          "velocity": 1,
          "duration": 0.3333330000000032
        },
        {
          "name": "G4",
          "midi": 67,
          "time": 40.66662600000003,
          "velocity": 1,
          "duration": 0.3333330000000032
        },
        {
          "name": "G3",
          "midi": 55,
          "time": 40.66662600000003,
          "velocity": 1,
          "duration": 0.3333330000000032
        },
        {
          "name": "D#4",
          "midi": 63,
          "time": 40.66662600000003,
          "velocity": 1,
          "duration": 0.3333330000000032
        },
        {
          "name": "G4",
          "midi": 67,
          "time": 40.99995900000003,
          "velocity": 1,
          "duration": 0.6666659999999993
        },
        {
          "name": "G3",
          "midi": 55,
          "time": 40.99995900000003,
          "velocity": 1,
          "duration": 0.6666659999999993
        },
        {
          "name": "D#4",
          "midi": 63,
          "time": 40.99995900000003,
          "velocity": 1,
          "duration": 0.6666659999999993
        },
        {
          "name": "C#4",
          "midi": 61,
          "time": 41.66662500000003,
          "velocity": 1,
          "duration": 0.3333330000000032
        },
        {
          "name": "D#3",
          "midi": 51,
          "time": 41.66662500000003,
          "velocity": 1,
          "duration": 0.3333330000000032
        },
        {
          "name": "D#4",
          "midi": 63,
          "time": 41.66662500000003,
          "velocity": 1,
          "duration": 0.3333330000000032
        },
        {
          "name": "D#4",
          "midi": 63,
          "time": 41.999958000000035,
          "velocity": 1,
          "duration": 0.9999990000000025
        },
        {
          "name": "D#3",
          "midi": 51,
          "time": 41.999958000000035,
          "velocity": 1,
          "duration": 0.9999990000000025
        },
        {
          "name": "C4",
          "midi": 60,
          "time": 41.999958000000035,
          "velocity": 1,
          "duration": 0.3333330000000032
        },
        {
          "name": "A#3",
          "midi": 58,
          "time": 42.99995700000004,
          "velocity": 1,
          "duration": 0.9999990000000025
        },
        {
          "name": "A#2",
          "midi": 46,
          "time": 42.99995700000004,
          "velocity": 1,
          "duration": 0.9999990000000025
        },
        {
          "name": "F4",
          "midi": 65,
          "time": 43.99995600000004,
          "velocity": 1,
          "duration": 0.3333330000000032
        },
        {
          "name": "F4",
          "midi": 65,
          "time": 45.999954000000045,
          "velocity": 1,
          "duration": 1.3333319999999986
        },
        {
          "name": "F4",
          "midi": 65,
          "time": 47.333286000000044,
          "velocity": 1,
          "duration": 0.3333330000000032
        },
        {
          "name": "F4",
          "midi": 65,
          "time": 47.66661900000005,
          "velocity": 1,
          "duration": 0.3333330000000032
        },
        {
          "name": "F4",
          "midi": 65,
          "time": 47.99995200000005,
          "velocity": 1,
          "duration": 0.3333330000000032
        },
        {
          "name": "F4",
          "midi": 65,
          "time": 49.999950000000055,
          "velocity": 1,
          "duration": 1.3333319999999986
        },
        {
          "name": "F4",
          "midi": 65,
          "time": 51.333282000000054,
          "velocity": 1,
          "duration": 0.3333330000000032
        },
        {
          "name": "F4",
          "midi": 65,
          "time": 51.66661500000006,
          "velocity": 1,
          "duration": 0.3333330000000032
        },
        {
          "name": "F4",
          "midi": 65,
          "time": 51.99994800000006,
          "velocity": 1,
          "duration": 0.3333330000000032
        },
        {
          "name": "F4",
          "midi": 65,
          "time": 54.33327900000006,
          "velocity": 1,
          "duration": 0.49999950000000126
        },
        {
          "name": "F4",
          "midi": 65,
          "time": 54.83327850000006,
          "velocity": 1,
          "duration": 0.16666649999999805
        },
        {
          "name": "F4",
          "midi": 65,
          "time": 54.99994500000006,
          "velocity": 1,
          "duration": 0.3333330000000032
        },
        {
          "name": "F4",
          "midi": 65,
          "time": 55.333278000000064,
          "velocity": 1,
          "duration": 0.3333330000000032
        },
        {
          "name": "F4",
          "midi": 65,
          "time": 55.66661100000007,
          "velocity": 1,
          "duration": 0.3333330000000032
        },
        {
          "name": "A#3",
          "midi": 58,
          "time": 55.99994400000007,
          "velocity": 1,
          "duration": 2.6666639999999973
        },
        {
          "name": "A#2",
          "midi": 46,
          "time": 55.99994400000007,
          "velocity": 1,
          "duration": 2.6666639999999973
        },
        {
          "name": "F4",
          "midi": 65,
          "time": 58.66660800000007,
          "velocity": 1,
          "duration": 0.3333330000000032
        },
        {
          "name": "F4",
          "midi": 65,
          "time": 58.99994100000007,
          "velocity": 1,
          "duration": 0.3333330000000032
        },
        {
          "name": "F4",
          "midi": 65,
          "time": 59.333274000000074,
          "velocity": 1,
          "duration": 0.3333330000000032
        },
        {
          "name": "F4",
          "midi": 65,
          "time": 59.66660700000008,
          "velocity": 1,
          "duration": 0.3333330000000032
        },
        {
          "name": "A#3",
          "midi": 58,
          "time": 59.99994000000008,
          "velocity": 1,
          "duration": 2.333331000000001
        },
        {
          "name": "A#2",
          "midi": 46,
          "time": 59.99994000000008,
          "velocity": 1,
          "duration": 2.333331000000001
        },
        {
          "name": "D#3",
          "midi": 51,
          "time": 63.49993650000008,
          "velocity": 1,
          "duration": 0.16666649999999805
        },
        {
          "name": "D#4",
          "midi": 63,
          "time": 63.49993650000008,
          "velocity": 1,
          "duration": 0.16666649999999805
        },
        {
          "name": "D#4",
          "midi": 63,
          "time": 63.66660300000008,
          "velocity": 1,
          "duration": 0.16666649999999805
        },
        {
          "name": "D#3",
          "midi": 51,
          "time": 63.66660300000008,
          "velocity": 1,
          "duration": 0.16666649999999805
        },
        {
          "name": "D#4",
          "midi": 63,
          "time": 63.83326950000008,
          "velocity": 1,
          "duration": 0.16666649999999805
        },
        {
          "name": "D#3",
          "midi": 51,
          "time": 63.83326950000008,
          "velocity": 1,
          "duration": 0.16666649999999805
        },
        {
          "name": "D#4",
          "midi": 63,
          "time": 63.999936000000076,
          "velocity": 1,
          "duration": 0.3333329999999961
        },
        {
          "name": "D#3",
          "midi": 51,
          "time": 63.999936000000076,
          "velocity": 1,
          "duration": 0.3333329999999961
        },
        {
          "name": "D#4",
          "midi": 63,
          "time": 64.33326900000007,
          "velocity": 1,
          "duration": 0.3333329999999961
        },
        {
          "name": "D#3",
          "midi": 51,
          "time": 64.33326900000007,
          "velocity": 1,
          "duration": 0.3333329999999961
        },
        {
          "name": "D#4",
          "midi": 63,
          "time": 65.83326750000006,
          "velocity": 1,
          "duration": 0.16666650000000516
        },
        {
          "name": "D#3",
          "midi": 51,
          "time": 65.83326750000006,
          "velocity": 1,
          "duration": 0.16666650000000516
        },
        {
          "name": "A#3",
          "midi": 58,
          "time": 65.99993400000007,
          "velocity": 1,
          "duration": 0.3333329999999961
        },
        {
          "name": "A#2",
          "midi": 46,
          "time": 65.99993400000007,
          "velocity": 1,
          "duration": 0.3333329999999961
        },
        {
          "name": "G4",
          "midi": 67,
          "time": 65.99993400000007,
          "velocity": 1,
          "duration": 0.3333329999999961
        },
        {
          "name": "G4",
          "midi": 67,
          "time": 66.33326700000006,
          "velocity": 1,
          "duration": 0.3333329999999961
        },
        {
          "name": "A#2",
          "midi": 46,
          "time": 66.33326700000006,
          "velocity": 1,
          "duration": 0.3333329999999961
        },
        {
          "name": "A#3",
          "midi": 58,
          "time": 66.33326700000006,
          "velocity": 1,
          "duration": 0.3333329999999961
        },
        {
          "name": "G4",
          "midi": 67,
          "time": 67.83326550000005,
          "velocity": 1,
          "duration": 0.16666650000000516
        },
        {
          "name": "G3",
          "midi": 55,
          "time": 67.83326550000005,
          "velocity": 1,
          "duration": 0.16666650000000516
        },
        {
          "name": "G#4",
          "midi": 68,
          "time": 67.99993200000006,
          "velocity": 1,
          "duration": 0.3333329999999961
        },
        {
          "name": "F4",
          "midi": 65,
          "time": 67.99993200000006,
          "velocity": 1,
          "duration": 0.3333329999999961
        },
        {
          "name": "G#4",
          "midi": 68,
          "time": 68.33326500000005,
          "velocity": 1,
          "duration": 0.3333329999999961
        },
        {
          "name": "F4",
          "midi": 65,
          "time": 68.33326500000005,
          "velocity": 1,
          "duration": 0.3333329999999961
        },
        {
          "name": "G#4",
          "midi": 68,
          "time": 69.49993050000005,
          "velocity": 1,
          "duration": 0.16666650000000516
        },
        {
          "name": "F4",
          "midi": 65,
          "time": 69.49993050000005,
          "velocity": 1,
          "duration": 0.16666650000000516
        },
        {
          "name": "G#4",
          "midi": 68,
          "time": 69.66659700000005,
          "velocity": 1,
          "duration": 0.16666650000000516
        },
        {
          "name": "F4",
          "midi": 65,
          "time": 69.66659700000005,
          "velocity": 1,
          "duration": 0.16666650000000516
        },
        {
          "name": "G#4",
          "midi": 68,
          "time": 69.83326350000006,
          "velocity": 1,
          "duration": 0.16666650000000516
        },
        {
          "name": "F4",
          "midi": 65,
          "time": 69.83326350000006,
          "velocity": 1,
          "duration": 0.16666650000000516
        },
        {
          "name": "G4",
          "midi": 67,
          "time": 69.99993000000006,
          "velocity": 1,
          "duration": 0.3333329999999961
        },
        {
          "name": "D#4",
          "midi": 63,
          "time": 69.99993000000006,
          "velocity": 1,
          "duration": 0.3333329999999961
        },
        {
          "name": "G4",
          "midi": 67,
          "time": 71.33326200000006,
          "velocity": 1,
          "duration": 0.3333329999999961
        },
        {
          "name": "F4",
          "midi": 65,
          "time": 71.66659500000006,
          "velocity": 1,
          "duration": 0.3333329999999961
        },
        {
          "name": "F4",
          "midi": 65,
          "time": 71.99992800000005,
          "velocity": 1,
          "duration": 0.3333329999999961
        },
        {
          "name": "A#3",
          "midi": 58,
          "time": 72.33326100000005,
          "velocity": 1,
          "duration": 0.3333329999999961
        },
        {
          "name": "A#2",
          "midi": 46,
          "time": 72.33326100000005,
          "velocity": 1,
          "duration": 0.3333329999999961
        },
        {
          "name": "A#4",
          "midi": 70,
          "time": 72.33326100000005,
          "velocity": 1,
          "duration": 0.3333329999999961
        },
        {
          "name": "A#4",
          "midi": 70,
          "time": 72.66659400000005,
          "velocity": 1,
          "duration": 0.3333329999999961
        },
        {
          "name": "A#2",
          "midi": 46,
          "time": 72.66659400000005,
          "velocity": 1,
          "duration": 0.3333329999999961
        },
        {
          "name": "A#3",
          "midi": 58,
          "time": 72.66659400000005,
          "velocity": 1,
          "duration": 0.3333329999999961
        },
        {
          "name": "A#4",
          "midi": 70,
          "time": 72.99992700000004,
          "velocity": 1,
          "duration": 0.3333329999999961
        },
        {
          "name": "A#2",
          "midi": 46,
          "time": 72.99992700000004,
          "velocity": 1,
          "duration": 0.3333329999999961
        },
        {
          "name": "A#3",
          "midi": 58,
          "time": 72.99992700000004,
          "velocity": 1,
          "duration": 0.3333329999999961
        },
        {
          "name": "A#3",
          "midi": 58,
          "time": 73.33326000000004,
          "velocity": 1,
          "duration": 0.3333329999999961
        },
        {
          "name": "A#2",
          "midi": 46,
          "time": 73.33326000000004,
          "velocity": 1,
          "duration": 0.3333329999999961
        },
        {
          "name": "A#4",
          "midi": 70,
          "time": 73.33326000000004,
          "velocity": 1,
          "duration": 0.3333329999999961
        },
        {
          "name": "A#4",
          "midi": 70,
          "time": 73.66659300000003,
          "velocity": 1,
          "duration": 0.3333329999999961
        },
        {
          "name": "A#2",
          "midi": 46,
          "time": 73.66659300000003,
          "velocity": 1,
          "duration": 0.3333329999999961
        },
        {
          "name": "A#3",
          "midi": 58,
          "time": 73.66659300000003,
          "velocity": 1,
          "duration": 0.3333329999999961
        },
        {
          "name": "A#4",
          "midi": 70,
          "time": 73.99992600000003,
          "velocity": 1,
          "duration": 0.3333329999999961
        },
        {
          "name": "A#2",
          "midi": 46,
          "time": 73.99992600000003,
          "velocity": 1,
          "duration": 0.3333329999999961
        },
        {
          "name": "A#3",
          "midi": 58,
          "time": 73.99992600000003,
          "velocity": 1,
          "duration": 0.3333329999999961
        },
        {
          "name": "G4",
          "midi": 67,
          "time": 74.33325900000003,
          "velocity": 1,
          "duration": 0.3333329999999961
        },
        {
          "name": "G3",
          "midi": 55,
          "time": 74.33325900000003,
          "velocity": 1,
          "duration": 0.3333329999999961
        },
        {
          "name": "G4",
          "midi": 67,
          "time": 74.66659200000002,
          "velocity": 1,
          "duration": 0.3333329999999961
        },
        {
          "name": "G3",
          "midi": 55,
          "time": 74.66659200000002,
          "velocity": 1,
          "duration": 0.3333329999999961
        },
        {
          "name": "F4",
          "midi": 65,
          "time": 74.66659200000002,
          "velocity": 1,
          "duration": 0.3333329999999961
        },
        {
          "name": "D#4",
          "midi": 63,
          "time": 74.99992500000002,
          "velocity": 1,
          "duration": 0.9999990000000025
        },
        {
          "name": "G3",
          "midi": 55,
          "time": 74.99992500000002,
          "velocity": 1,
          "duration": 0.9999990000000025
        },
        {
          "name": "G4",
          "midi": 67,
          "time": 74.99992500000002,
          "velocity": 1,
          "duration": 0.9999990000000025
        },
        {
          "name": "F4",
          "midi": 65,
          "time": 75.99992400000002,
          "velocity": 1,
          "duration": 0.3333329999999961
        },
        {
          "name": "F4",
          "midi": 65,
          "time": 77.99992200000001,
          "velocity": 1,
          "duration": 2.333331000000001
        },
        {
          "name": "F4",
          "midi": 65,
          "time": 80.33325300000001,
          "velocity": 1,
          "duration": 0.3333329999999961
        },
        {
          "name": "F4",
          "midi": 65,
          "time": 80.66658600000001,
          "velocity": 1,
          "duration": 0.3333329999999961
        },
        {
          "name": "F4",
          "midi": 65,
          "time": 80.999919,
          "velocity": 1,
          "duration": 0.3333329999999961
        },
        {
          "name": "F4",
          "midi": 65,
          "time": 81.333252,
          "velocity": 1,
          "duration": 0.3333329999999961
        },
        {
          "name": "F4",
          "midi": 65,
          "time": 81.666585,
          "velocity": 1,
          "duration": 0.3333329999999961
        },
        {
          "name": "A#4",
          "midi": 70,
          "time": 81.999918,
          "velocity": 1,
          "duration": 0.3333329999999961
        },
        {
          "name": "A#2",
          "midi": 46,
          "time": 81.999918,
          "velocity": 1,
          "duration": 0.3333329999999961
        },
        {
          "name": "A#3",
          "midi": 58,
          "time": 81.999918,
          "velocity": 1,
          "duration": 0.3333329999999961
        },
        {
          "name": "D#4",
          "midi": 63,
          "time": 91.33324199999998,
          "velocity": 1,
          "duration": 0.3333329999999961
        },
        {
          "name": "D#4",
          "midi": 63,
          "time": 91.66657499999998,
          "velocity": 1,
          "duration": 0.3333329999999961
        },
        {
          "name": "D#4",
          "midi": 63,
          "time": 91.99990799999998,
          "velocity": 1,
          "duration": 0.3333329999999961
        },
        {
          "name": "D#4",
          "midi": 63,
          "time": 92.33324099999997,
          "velocity": 1,
          "duration": 0.3333329999999961
        },
        {
          "name": "F#4",
          "midi": 66,
          "time": 92.33324099999997,
          "velocity": 1,
          "duration": 0.3333329999999961
        },
        {
          "name": "D#4",
          "midi": 63,
          "time": 92.66657399999997,
          "velocity": 1,
          "duration": 0.3333329999999961
        },
        {
          "name": "F#4",
          "midi": 66,
          "time": 92.66657399999997,
          "velocity": 1,
          "duration": 0.3333329999999961
        },
        {
          "name": "F#4",
          "midi": 66,
          "time": 92.99990699999996,
          "velocity": 1,
          "duration": 0.9999990000000025
        },
        {
          "name": "D#4",
          "midi": 63,
          "time": 92.99990699999996,
          "velocity": 1,
          "duration": 0.9999990000000025
        },
        {
          "name": "F4",
          "midi": 65,
          "time": 106.66655999999996,
          "velocity": 1,
          "duration": 0.16666650000000516
        },
        {
          "name": "F4",
          "midi": 65,
          "time": 106.83322649999997,
          "velocity": 1,
          "duration": 0.16666650000000516
        },
        {
          "name": "F4",
          "midi": 65,
          "time": 106.99989299999997,
          "velocity": 1,
          "duration": 0.16666650000000516
        },
        {
          "name": "F4",
          "midi": 65,
          "time": 107.16655949999998,
          "velocity": 1,
          "duration": 0.16666650000000516
        },
        {
          "name": "F4",
          "midi": 65,
          "time": 107.33322599999998,
          "velocity": 1,
          "duration": 0.16666650000000516
        },
        {
          "name": "F4",
          "midi": 65,
          "time": 107.49989249999999,
          "velocity": 1,
          "duration": 0.16666650000000516
        },
        {
          "name": "F4",
          "midi": 65,
          "time": 107.66655899999999,
          "velocity": 1,
          "duration": 0.16666650000000516
        },
        {
          "name": "F4",
          "midi": 65,
          "time": 107.8332255,
          "velocity": 1,
          "duration": 0.16666650000000516
        },
        {
          "name": "F4",
          "midi": 65,
          "time": 107.999892,
          "velocity": 1,
          "duration": 0.3333329999999961
        },
        {
          "name": "A#4",
          "midi": 70,
          "time": 108.333225,
          "velocity": 1,
          "duration": 0.6666660000000064
        },
        {
          "name": "A#3",
          "midi": 58,
          "time": 108.333225,
          "velocity": 1,
          "duration": 0.6666660000000064
        },
        {
          "name": "F4",
          "midi": 65,
          "time": 108.333225,
          "velocity": 1,
          "duration": 0.6666660000000064
        },
        {
          "name": "F4",
          "midi": 65,
          "time": 109.333224,
          "velocity": 1,
          "duration": 0.6666660000000064
        },
        {
          "name": "A#3",
          "midi": 58,
          "time": 109.333224,
          "velocity": 1,
          "duration": 0.6666660000000064
        },
        {
          "name": "A#4",
          "midi": 70,
          "time": 109.333224,
          "velocity": 1,
          "duration": 0.6666660000000064
        },
        {
          "name": "C5",
          "midi": 72,
          "time": 110.333223,
          "velocity": 1,
          "duration": 0.6666660000000064
        },
        {
          "name": "C4",
          "midi": 60,
          "time": 110.333223,
          "velocity": 1,
          "duration": 0.6666660000000064
        },
        {
          "name": "F4",
          "midi": 65,
          "time": 110.333223,
          "velocity": 1,
          "duration": 0.6666660000000064
        },
        {
          "name": "C5",
          "midi": 72,
          "time": 111.333222,
          "velocity": 1,
          "duration": 0.6666660000000064
        },
        {
          "name": "C4",
          "midi": 60,
          "time": 111.333222,
          "velocity": 1,
          "duration": 0.6666660000000064
        },
        {
          "name": "F4",
          "midi": 65,
          "time": 111.333222,
          "velocity": 1,
          "duration": 0.6666660000000064
        },
        {
          "name": "F4",
          "midi": 65,
          "time": 111.99988800000001,
          "velocity": 1,
          "duration": 0.3333329999999961
        },
        {
          "name": "A#3",
          "midi": 58,
          "time": 111.99988800000001,
          "velocity": 1,
          "duration": 0.3333329999999961
        },
        {
          "name": "A#4",
          "midi": 70,
          "time": 111.99988800000001,
          "velocity": 1,
          "duration": 0.3333329999999961
        },
        {
          "name": "A#4",
          "midi": 70,
          "time": 112.33322100000001,
          "velocity": 1,
          "duration": 0.3333329999999961
        },
        {
          "name": "A#3",
          "midi": 58,
          "time": 112.33322100000001,
          "velocity": 1,
          "duration": 0.3333329999999961
        },
        {
          "name": "F4",
          "midi": 65,
          "time": 112.33322100000001,
          "velocity": 1,
          "duration": 0.3333329999999961
        },
        {
          "name": "A#4",
          "midi": 70,
          "time": 112.666554,
          "velocity": 1,
          "duration": 0.3333329999999961
        },
        {
          "name": "A#3",
          "midi": 58,
          "time": 112.666554,
          "velocity": 1,
          "duration": 0.3333329999999961
        },
        {
          "name": "F4",
          "midi": 65,
          "time": 112.666554,
          "velocity": 1,
          "duration": 0.3333329999999961
        },
        {
          "name": "F4",
          "midi": 65,
          "time": 112.999887,
          "velocity": 1,
          "duration": 0.3333329999999961
        },
        {
          "name": "A#3",
          "midi": 58,
          "time": 112.999887,
          "velocity": 1,
          "duration": 0.3333329999999961
        },
        {
          "name": "A#4",
          "midi": 70,
          "time": 112.999887,
          "velocity": 1,
          "duration": 0.3333329999999961
        },
        {
          "name": "A#4",
          "midi": 70,
          "time": 113.33322,
          "velocity": 1,
          "duration": 0.3333329999999961
        },
        {
          "name": "A#3",
          "midi": 58,
          "time": 113.33322,
          "velocity": 1,
          "duration": 0.3333329999999961
        },
        {
          "name": "F4",
          "midi": 65,
          "time": 113.33322,
          "velocity": 1,
          "duration": 0.3333329999999961
        },
        {
          "name": "A#4",
          "midi": 70,
          "time": 113.666553,
          "velocity": 1,
          "duration": 0.3333329999999961
        },
        {
          "name": "A#3",
          "midi": 58,
          "time": 113.666553,
          "velocity": 1,
          "duration": 0.3333329999999961
        },
        {
          "name": "F4",
          "midi": 65,
          "time": 113.666553,
          "velocity": 1,
          "duration": 0.3333329999999961
        },
        {
          "name": "F4",
          "midi": 65,
          "time": 113.99988599999999,
          "velocity": 1,
          "duration": 0.9999990000000025
        },
        {
          "name": "D#4",
          "midi": 63,
          "time": 113.99988599999999,
          "velocity": 1,
          "duration": 0.9999990000000025
        },
        {
          "name": "C5",
          "midi": 72,
          "time": 113.99988599999999,
          "velocity": 1,
          "duration": 0.9999990000000025
        },
        {
          "name": "C5",
          "midi": 72,
          "time": 114.99988499999999,
          "velocity": 1,
          "duration": 0.9999990000000025
        },
        {
          "name": "D#4",
          "midi": 63,
          "time": 114.99988499999999,
          "velocity": 1,
          "duration": 0.9999990000000025
        },
        {
          "name": "F4",
          "midi": 65,
          "time": 114.99988499999999,
          "velocity": 1,
          "duration": 0.9999990000000025
        },
        {
          "name": "A#4",
          "midi": 70,
          "time": 115.999884,
          "velocity": 1,
          "duration": 0.3333329999999961
        },
        {
          "name": "A#3",
          "midi": 58,
          "time": 115.999884,
          "velocity": 1,
          "duration": 0.3333329999999961
        },
        {
          "name": "F4",
          "midi": 65,
          "time": 115.999884,
          "velocity": 1,
          "duration": 0.3333329999999961
        },
        {
          "name": "A#3",
          "midi": 58,
          "time": 116.33321699999999,
          "velocity": 1,
          "duration": 0.3333329999999961
        },
        {
          "name": "A#2",
          "midi": 46,
          "time": 116.33321699999999,
          "velocity": 1,
          "duration": 0.3333329999999961
        },
        {
          "name": "A#4",
          "midi": 70,
          "time": 116.33321699999999,
          "velocity": 1,
          "duration": 0.3333329999999961
        },
        {
          "name": "A#4",
          "midi": 70,
          "time": 116.66654999999999,
          "velocity": 1,
          "duration": 0.3333329999999961
        },
        {
          "name": "A#2",
          "midi": 46,
          "time": 116.66654999999999,
          "velocity": 1,
          "duration": 0.3333329999999961
        },
        {
          "name": "A#3",
          "midi": 58,
          "time": 116.66654999999999,
          "velocity": 1,
          "duration": 0.3333329999999961
        },
        {
          "name": "A#4",
          "midi": 70,
          "time": 116.99988299999998,
          "velocity": 1,
          "duration": 0.16666650000000516
        },
        {
          "name": "A#2",
          "midi": 46,
          "time": 116.99988299999998,
          "velocity": 1,
          "duration": 0.16666650000000516
        },
        {
          "name": "A#3",
          "midi": 58,
          "time": 116.99988299999998,
          "velocity": 1,
          "duration": 0.16666650000000516
        },
        {
          "name": "G3",
          "midi": 55,
          "time": 121.4998785,
          "velocity": 1,
          "duration": 0.16666650000000516
        },
        {
          "name": "G4",
          "midi": 67,
          "time": 121.4998785,
          "velocity": 1,
          "duration": 0.16666650000000516
        },
        {
          "name": "G4",
          "midi": 67,
          "time": 121.666545,
          "velocity": 1,
          "duration": 0.16666650000000516
        },
        {
          "name": "G3",
          "midi": 55,
          "time": 121.666545,
          "velocity": 1,
          "duration": 0.16666650000000516
        },
        {
          "name": "G4",
          "midi": 67,
          "time": 121.8332115,
          "velocity": 1,
          "duration": 0.16666650000000516
        },
        {
          "name": "G3",
          "midi": 55,
          "time": 121.8332115,
          "velocity": 1,
          "duration": 0.16666650000000516
        },
        {
          "name": "G#4",
          "midi": 68,
          "time": 123.33321000000001,
          "velocity": 1,
          "duration": 0.3333329999999961
        },
        {
          "name": "F4",
          "midi": 65,
          "time": 123.33321000000001,
          "velocity": 1,
          "duration": 0.3333329999999961
        },
        {
          "name": "G4",
          "midi": 67,
          "time": 123.666543,
          "velocity": 1,
          "duration": 0.3333329999999961
        },
        {
          "name": "D#4",
          "midi": 63,
          "time": 123.666543,
          "velocity": 1,
          "duration": 0.3333329999999961
        },
        {
          "name": "G4",
          "midi": 67,
          "time": 124.333209,
          "velocity": 1,
          "duration": 0.3333329999999961
        },
        {
          "name": "G3",
          "midi": 55,
          "time": 124.333209,
          "velocity": 1,
          "duration": 0.3333329999999961
        },
        {
          "name": "A#4",
          "midi": 70,
          "time": 124.333209,
          "velocity": 1,
          "duration": 0.3333329999999961
        },
        {
          "name": "F4",
          "midi": 65,
          "time": 124.66654199999999,
          "velocity": 1,
          "duration": 0.3333329999999961
        },
        {
          "name": "G4",
          "midi": 67,
          "time": 125.666541,
          "velocity": 1,
          "duration": 0.3333329999999961
        },
        {
          "name": "G3",
          "midi": 55,
          "time": 125.666541,
          "velocity": 1,
          "duration": 0.3333329999999961
        },
        {
          "name": "G#4",
          "midi": 68,
          "time": 126.33320699999999,
          "velocity": 1,
          "duration": 0.3333329999999961
        },
        {
          "name": "F4",
          "midi": 65,
          "time": 126.33320699999999,
          "velocity": 1,
          "duration": 0.3333329999999961
        },
        {
          "name": "G4",
          "midi": 67,
          "time": 126.66653999999998,
          "velocity": 1,
          "duration": 0.3333329999999961
        },
        {
          "name": "D#4",
          "midi": 63,
          "time": 126.66653999999998,
          "velocity": 1,
          "duration": 0.3333329999999961
        },
        {
          "name": "G4",
          "midi": 67,
          "time": 127.33320599999998,
          "velocity": 1,
          "duration": 0.3333329999999961
        },
        {
          "name": "A#2",
          "midi": 46,
          "time": 127.33320599999998,
          "velocity": 1,
          "duration": 0.3333329999999961
        },
        {
          "name": "A#4",
          "midi": 70,
          "time": 127.33320599999998,
          "velocity": 1,
          "duration": 0.3333329999999961
        },
        {
          "name": "A#4",
          "midi": 70,
          "time": 127.99987199999997,
          "velocity": 1,
          "duration": 0.3333329999999961
        },
        {
          "name": "A#2",
          "midi": 46,
          "time": 127.99987199999997,
          "velocity": 1,
          "duration": 0.3333329999999961
        },
        {
          "name": "G4",
          "midi": 67,
          "time": 127.99987199999997,
          "velocity": 1,
          "duration": 0.3333329999999961
        },
        {
          "name": "A#4",
          "midi": 70,
          "time": 128.66653799999997,
          "velocity": 1,
          "duration": 0.3333330000000103
        },
        {
          "name": "A#2",
          "midi": 46,
          "time": 128.66653799999997,
          "velocity": 1,
          "duration": 0.3333330000000103
        },
        {
          "name": "G4",
          "midi": 67,
          "time": 128.66653799999997,
          "velocity": 1,
          "duration": 0.3333330000000103
        },
        {
          "name": "G4",
          "midi": 67,
          "time": 129.333204,
          "velocity": 1,
          "duration": 0.3333330000000103
        },
        {
          "name": "A#2",
          "midi": 46,
          "time": 129.333204,
          "velocity": 1,
          "duration": 0.3333330000000103
        },
        {
          "name": "A#4",
          "midi": 70,
          "time": 129.333204,
          "velocity": 1,
          "duration": 0.3333330000000103
        },
        {
          "name": "A#4",
          "midi": 70,
          "time": 129.99987000000002,
          "velocity": 1,
          "duration": 0.3333330000000103
        },
        {
          "name": "A#2",
          "midi": 46,
          "time": 129.99987000000002,
          "velocity": 1,
          "duration": 0.3333330000000103
        },
        {
          "name": "G4",
          "midi": 67,
          "time": 129.99987000000002,
          "velocity": 1,
          "duration": 0.3333330000000103
        },
        {
          "name": "A#4",
          "midi": 70,
          "time": 130.66653600000004,
          "velocity": 1,
          "duration": 0.3333330000000103
        },
        {
          "name": "A#2",
          "midi": 46,
          "time": 130.66653600000004,
          "velocity": 1,
          "duration": 0.3333330000000103
        },
        {
          "name": "G4",
          "midi": 67,
          "time": 130.66653600000004,
          "velocity": 1,
          "duration": 0.3333330000000103
        },
        {
          "name": "D#3",
          "midi": 51,
          "time": 135.66653100000005,
          "velocity": 1,
          "duration": 0.3333330000000103
        },
        {
          "name": "D#4",
          "midi": 63,
          "time": 135.66653100000005,
          "velocity": 1,
          "duration": 0.3333330000000103
        },
        {
          "name": "D#4",
          "midi": 63,
          "time": 136.33319700000007,
          "velocity": 1,
          "duration": 0.3333330000000103
        },
        {
          "name": "D#3",
          "midi": 51,
          "time": 136.33319700000007,
          "velocity": 1,
          "duration": 0.3333330000000103
        },
        {
          "name": "D#4",
          "midi": 63,
          "time": 136.9998630000001,
          "velocity": 1,
          "duration": 0.3333330000000103
        },
        {
          "name": "D#3",
          "midi": 51,
          "time": 136.9998630000001,
          "velocity": 1,
          "duration": 0.3333330000000103
        },
        {
          "name": "D#4",
          "midi": 63,
          "time": 137.6665290000001,
          "velocity": 1,
          "duration": 0.3333330000000103
        },
        {
          "name": "D#3",
          "midi": 51,
          "time": 137.6665290000001,
          "velocity": 1,
          "duration": 0.3333330000000103
        },
        {
          "name": "F4",
          "midi": 65,
          "time": 138.33319500000013,
          "velocity": 1,
          "duration": 0.3333330000000103
        },
        {
          "name": "A#2",
          "midi": 46,
          "time": 138.33319500000013,
          "velocity": 1,
          "duration": 0.3333330000000103
        },
        {
          "name": "A#3",
          "midi": 58,
          "time": 138.33319500000013,
          "velocity": 1,
          "duration": 0.3333330000000103
        },
        {
          "name": "G4",
          "midi": 67,
          "time": 138.99986100000015,
          "velocity": 1,
          "duration": 1.4999985000000038
        },
        {
          "name": "D#3",
          "midi": 51,
          "time": 138.99986100000015,
          "velocity": 1,
          "duration": 1.4999985000000038
        },
        {
          "name": "G3",
          "midi": 55,
          "time": 140.49985950000016,
          "velocity": 1,
          "duration": 0.16666649999999095
        },
        {
          "name": "G4",
          "midi": 67,
          "time": 140.49985950000016,
          "velocity": 1,
          "duration": 0.16666649999999095
        },
        {
          "name": "G4",
          "midi": 67,
          "time": 140.66652600000015,
          "velocity": 1,
          "duration": 0.16666649999999095
        },
        {
          "name": "G3",
          "midi": 55,
          "time": 140.66652600000015,
          "velocity": 1,
          "duration": 0.16666649999999095
        },
        {
          "name": "G4",
          "midi": 67,
          "time": 140.83319250000014,
          "velocity": 1,
          "duration": 0.16666649999999095
        },
        {
          "name": "G3",
          "midi": 55,
          "time": 140.83319250000014,
          "velocity": 1,
          "duration": 0.16666649999999095
        },
        {
          "name": "F4",
          "midi": 65,
          "time": 140.99985900000013,
          "velocity": 1,
          "duration": 0.49999950000000126
        },
        {
          "name": "F4",
          "midi": 65,
          "time": 141.49985850000013,
          "velocity": 1,
          "duration": 0.16666649999999095
        },
        {
          "name": "F4",
          "midi": 65,
          "time": 141.66652500000012,
          "velocity": 1,
          "duration": 0.16666649999999095
        },
        {
          "name": "F4",
          "midi": 65,
          "time": 141.8331915000001,
          "velocity": 1,
          "duration": 0.16666649999999095
        },
        {
          "name": "F4",
          "midi": 65,
          "time": 141.9998580000001,
          "velocity": 1,
          "duration": 0.9999990000000025
        },
        {
          "name": "D#4",
          "midi": 63,
          "time": 141.9998580000001,
          "velocity": 1,
          "duration": 0.9999990000000025
        },
        {
          "name": "A#3",
          "midi": 58,
          "time": 142.9998570000001,
          "velocity": 1,
          "duration": 0.3333330000000103
        },
        {
          "name": "A#2",
          "midi": 46,
          "time": 142.9998570000001,
          "velocity": 1,
          "duration": 0.3333330000000103
        },
        {
          "name": "A#3",
          "midi": 58,
          "time": 143.9998560000001,
          "velocity": 1,
          "duration": 0.3333330000000103
        },
        {
          "name": "A#2",
          "midi": 46,
          "time": 143.9998560000001,
          "velocity": 1,
          "duration": 0.3333330000000103
        },
        {
          "name": "A#3",
          "midi": 58,
          "time": 144.9998550000001,
          "velocity": 1,
          "duration": 0.3333330000000103
        },
        {
          "name": "A#2",
          "midi": 46,
          "time": 144.9998550000001,
          "velocity": 1,
          "duration": 0.3333330000000103
        },
        {
          "name": "D#4",
          "midi": 63,
          "time": 145.9998540000001,
          "velocity": 1,
          "duration": 0.3333330000000103
        },
        {
          "name": "A#2",
          "midi": 46,
          "time": 145.9998540000001,
          "velocity": 1,
          "duration": 0.3333330000000103
        },
        {
          "name": "F#4",
          "midi": 66,
          "time": 145.9998540000001,
          "velocity": 1,
          "duration": 0.3333330000000103
        },
        {
          "name": "F#4",
          "midi": 66,
          "time": 146.33318700000012,
          "velocity": 1,
          "duration": 0.3333330000000103
        },
        {
          "name": "A#2",
          "midi": 46,
          "time": 146.33318700000012,
          "velocity": 1,
          "duration": 0.3333330000000103
        },
        {
          "name": "D#4",
          "midi": 63,
          "time": 146.33318700000012,
          "velocity": 1,
          "duration": 0.3333330000000103
        },
        {
          "name": "F#4",
          "midi": 66,
          "time": 146.66652000000013,
          "velocity": 1,
          "duration": 0.3333330000000103
        },
        {
          "name": "A#2",
          "midi": 46,
          "time": 146.66652000000013,
          "velocity": 1,
          "duration": 0.3333330000000103
        },
        {
          "name": "D#4",
          "midi": 63,
          "time": 146.66652000000013,
          "velocity": 1,
          "duration": 0.3333330000000103
        },
        {
          "name": "A#3",
          "midi": 58,
          "time": 146.99985300000014,
          "velocity": 1,
          "duration": 4.33332900000002
        },
        {
          "name": "A#2",
          "midi": 46,
          "time": 146.99985300000014,
          "velocity": 1,
          "duration": 4.33332900000002
        },
        {
          "name": "F4",
          "midi": 65,
          "time": 146.99985300000014,
          "velocity": 1,
          "duration": 0.3333330000000103
        },
        {
          "name": "F4",
          "midi": 65,
          "time": 152.66651400000018,
          "velocity": 1,
          "duration": 0.3333330000000103
        },
        {
          "name": "A#3",
          "midi": 58,
          "time": 152.66651400000018,
          "velocity": 1,
          "duration": 0.6666660000000206
        },
        {
          "name": "D#4",
          "midi": 63,
          "time": 152.9998470000002,
          "velocity": 1,
          "duration": 0.3333330000000103
        },
        {
          "name": "G3",
          "midi": 55,
          "time": 152.9998470000002,
          "velocity": 1,
          "duration": 0.3333330000000103
        },
        {
          "name": "A#3",
          "midi": 58,
          "time": 154.9998450000002,
          "velocity": 1,
          "duration": 0.3333330000000103
        },
        {
          "name": "A#2",
          "midi": 46,
          "time": 154.9998450000002,
          "velocity": 1,
          "duration": 0.3333330000000103
        },
        {
          "name": "G4",
          "midi": 67,
          "time": 168.9998310000002,
          "velocity": 1,
          "duration": 3.3333299999999895
        },
        {
          "name": "G3",
          "midi": 55,
          "time": 168.9998310000002,
          "velocity": 1,
          "duration": 3.3333299999999895
        },
        {
          "name": "G3",
          "midi": 55,
          "time": 172.3331610000002,
          "velocity": 1,
          "duration": 0.3333330000000103
        },
        {
          "name": "G4",
          "midi": 67,
          "time": 172.3331610000002,
          "velocity": 1,
          "duration": 0.3333330000000103
        },
        {
          "name": "G4",
          "midi": 67,
          "time": 172.6664940000002,
          "velocity": 1,
          "duration": 0.3333330000000103
        },
        {
          "name": "G3",
          "midi": 55,
          "time": 172.6664940000002,
          "velocity": 1,
          "duration": 0.3333330000000103
        },
        {
          "name": "G4",
          "midi": 67,
          "time": 172.9998270000002,
          "velocity": 1,
          "duration": 3.3333299999999895
        },
        {
          "name": "G3",
          "midi": 55,
          "time": 172.9998270000002,
          "velocity": 1,
          "duration": 3.3333299999999895
        },
        {
          "name": "G4",
          "midi": 67,
          "time": 176.3331570000002,
          "velocity": 1,
          "duration": 0.3333330000000103
        },
        {
          "name": "G3",
          "midi": 55,
          "time": 176.3331570000002,
          "velocity": 1,
          "duration": 0.3333330000000103
        },
        {
          "name": "G4",
          "midi": 67,
          "time": 176.6664900000002,
          "velocity": 1,
          "duration": 0.3333330000000103
        },
        {
          "name": "G3",
          "midi": 55,
          "time": 176.6664900000002,
          "velocity": 1,
          "duration": 0.3333330000000103
        },
        {
          "name": "G4",
          "midi": 67,
          "time": 176.99982300000022,
          "velocity": 1,
          "duration": 2.333330999999987
        },
        {
          "name": "G3",
          "midi": 55,
          "time": 176.99982300000022,
          "velocity": 1,
          "duration": 2.333330999999987
        },
        {
          "name": "G4",
          "midi": 67,
          "time": 179.3331540000002,
          "velocity": 1,
          "duration": 0.3333330000000103
        },
        {
          "name": "G3",
          "midi": 55,
          "time": 179.3331540000002,
          "velocity": 1,
          "duration": 0.3333330000000103
        },
        {
          "name": "G4",
          "midi": 67,
          "time": 179.66648700000022,
          "velocity": 1,
          "duration": 0.3333330000000103
        },
        {
          "name": "G3",
          "midi": 55,
          "time": 179.66648700000022,
          "velocity": 1,
          "duration": 0.3333330000000103
        },
        {
          "name": "G3",
          "midi": 55,
          "time": 179.99982000000023,
          "velocity": 1,
          "duration": 0.3333330000000103
        },
        {
          "name": "G4",
          "midi": 67,
          "time": 179.99982000000023,
          "velocity": 1,
          "duration": 0.3333330000000103
        },
        {
          "name": "G4",
          "midi": 67,
          "time": 180.33315300000024,
          "velocity": 1,
          "duration": 0.3333330000000103
        },
        {
          "name": "G3",
          "midi": 55,
          "time": 180.33315300000024,
          "velocity": 1,
          "duration": 0.3333330000000103
        },
        {
          "name": "G4",
          "midi": 67,
          "time": 180.66648600000025,
          "velocity": 1,
          "duration": 0.3333330000000103
        },
        {
          "name": "G3",
          "midi": 55,
          "time": 180.66648600000025,
          "velocity": 1,
          "duration": 0.3333330000000103
        },
        {
          "name": "G4",
          "midi": 67,
          "time": 180.99981900000026,
          "velocity": 1,
          "duration": 0.3333330000000103
        },
        {
          "name": "G3",
          "midi": 55,
          "time": 180.99981900000026,
          "velocity": 1,
          "duration": 0.3333330000000103
        },
        {
          "name": "F4",
          "midi": 65,
          "time": 189.33314400000026,
          "velocity": 1,
          "duration": 0.3333330000000103
        },
        {
          "name": "F4",
          "midi": 65,
          "time": 189.66647700000027,
          "velocity": 1,
          "duration": 0.3333330000000103
        },
        {
          "name": "F4",
          "midi": 65,
          "time": 189.99981000000028,
          "velocity": 1,
          "duration": 0.3333330000000103
        },
        {
          "name": "F4",
          "midi": 65,
          "time": 190.3331430000003,
          "velocity": 1,
          "duration": 0.3333330000000103
        },
        {
          "name": "F4",
          "midi": 65,
          "time": 190.6664760000003,
          "velocity": 1,
          "duration": 0.3333330000000103
        },
        {
          "name": "F4",
          "midi": 65,
          "time": 190.9998090000003,
          "velocity": 1,
          "duration": 1.999998000000005
        },
        {
          "name": "G4",
          "midi": 67,
          "time": 192.99980700000032,
          "velocity": 1,
          "duration": 0.3333330000000103
        },
        {
          "name": "G4",
          "midi": 67,
          "time": 193.33314000000033,
          "velocity": 1,
          "duration": 0.3333330000000103
        },
        {
          "name": "G4",
          "midi": 67,
          "time": 193.66647300000034,
          "velocity": 1,
          "duration": 0.3333330000000103
        },
        {
          "name": "G4",
          "midi": 67,
          "time": 193.99980600000035,
          "velocity": 1,
          "duration": 0.3333330000000103
        },
        {
          "name": "G4",
          "midi": 67,
          "time": 194.33313900000036,
          "velocity": 1,
          "duration": 0.3333330000000103
        },
        {
          "name": "G4",
          "midi": 67,
          "time": 194.66647200000037,
          "velocity": 1,
          "duration": 0.3333330000000103
        },
        {
          "name": "G4",
          "midi": 67,
          "time": 194.99980500000038,
          "velocity": 1,
          "duration": 1.999998000000005
        },
        {
          "name": "G4",
          "midi": 67,
          "time": 200.9997990000004,
          "velocity": 1,
          "duration": 0.3333330000000103
        },
        {
          "name": "G4",
          "midi": 67,
          "time": 201.3331320000004,
          "velocity": 1,
          "duration": 0.3333330000000103
        },
        {
          "name": "G4",
          "midi": 67,
          "time": 201.66646500000041,
          "velocity": 1,
          "duration": 0.3333330000000103
        },
        {
          "name": "G4",
          "midi": 67,
          "time": 201.99979800000042,
          "velocity": 1,
          "duration": 0.3333330000000103
        },
        {
          "name": "G4",
          "midi": 67,
          "time": 202.33313100000044,
          "velocity": 1,
          "duration": 0.3333330000000103
        },
        {
          "name": "G4",
          "midi": 67,
          "time": 202.66646400000045,
          "velocity": 1,
          "duration": 0.3333330000000103
        },
        {
          "name": "G4",
          "midi": 67,
          "time": 202.99979700000046,
          "velocity": 1,
          "duration": 1.999998000000005
        },
        {
          "name": "G3",
          "midi": 55,
          "time": 209.49979050000047,
          "velocity": 1,
          "duration": 0.16666649999999095
        },
        {
          "name": "G4",
          "midi": 67,
          "time": 209.49979050000047,
          "velocity": 1,
          "duration": 0.16666649999999095
        },
        {
          "name": "G4",
          "midi": 67,
          "time": 209.66645700000046,
          "velocity": 1,
          "duration": 0.16666649999999095
        },
        {
          "name": "G3",
          "midi": 55,
          "time": 209.66645700000046,
          "velocity": 1,
          "duration": 0.16666649999999095
        },
        {
          "name": "G4",
          "midi": 67,
          "time": 210.49978950000045,
          "velocity": 1,
          "duration": 0.16666649999999095
        },
        {
          "name": "G3",
          "midi": 55,
          "time": 210.49978950000045,
          "velocity": 1,
          "duration": 0.16666649999999095
        },
        {
          "name": "G4",
          "midi": 67,
          "time": 210.66645600000044,
          "velocity": 1,
          "duration": 0.16666649999999095
        },
        {
          "name": "G3",
          "midi": 55,
          "time": 210.66645600000044,
          "velocity": 1,
          "duration": 0.16666649999999095
        },
        {
          "name": "G3",
          "midi": 55,
          "time": 211.16645550000044,
          "velocity": 1,
          "duration": 0.16666649999999095
        },
        {
          "name": "G4",
          "midi": 67,
          "time": 211.16645550000044,
          "velocity": 1,
          "duration": 0.16666649999999095
        },
        {
          "name": "G4",
          "midi": 67,
          "time": 211.33312200000043,
          "velocity": 1,
          "duration": 0.16666649999999095
        },
        {
          "name": "G3",
          "midi": 55,
          "time": 211.33312200000043,
          "velocity": 1,
          "duration": 0.16666649999999095
        },
        {
          "name": "G4",
          "midi": 67,
          "time": 211.49978850000042,
          "velocity": 1,
          "duration": 0.16666649999999095
        },
        {
          "name": "G3",
          "midi": 55,
          "time": 211.49978850000042,
          "velocity": 1,
          "duration": 0.16666649999999095
        },
        {
          "name": "G4",
          "midi": 67,
          "time": 211.6664550000004,
          "velocity": 1,
          "duration": 0.16666649999999095
        },
        {
          "name": "G3",
          "midi": 55,
          "time": 211.6664550000004,
          "velocity": 1,
          "duration": 0.16666649999999095
        },
        {
          "name": "G3",
          "midi": 55,
          "time": 211.8331215000004,
          "velocity": 1,
          "duration": 0.16666649999999095
        },
        {
          "name": "G4",
          "midi": 67,
          "time": 211.8331215000004,
          "velocity": 1,
          "duration": 0.16666649999999095
        },
        {
          "name": "G4",
          "midi": 67,
          "time": 211.9997880000004,
          "velocity": 1,
          "duration": 0.3333330000000103
        },
        {
          "name": "G3",
          "midi": 55,
          "time": 211.9997880000004,
          "velocity": 1,
          "duration": 0.3333330000000103
        },
        {
          "name": "D#4",
          "midi": 63,
          "time": 216.9997830000004,
          "velocity": 1,
          "duration": 0.9999990000000025
        },
        {
          "name": "F4",
          "midi": 65,
          "time": 216.9997830000004,
          "velocity": 1,
          "duration": 0.9999990000000025
        },
        {
          "name": "A#4",
          "midi": 70,
          "time": 217.9997820000004,
          "velocity": 1,
          "duration": 0.9999990000000025
        },
        {
          "name": "C#4",
          "midi": 61,
          "time": 217.9997820000004,
          "velocity": 1,
          "duration": 0.9999990000000025
        },
        {
          "name": "F4",
          "midi": 65,
          "time": 217.9997820000004,
          "velocity": 1,
          "duration": 0.9999990000000025
        },
        {
          "name": "D#4",
          "midi": 63,
          "time": 218.9997810000004,
          "velocity": 1,
          "duration": 0.9999990000000025
        },
        {
          "name": "C#4",
          "midi": 61,
          "time": 218.9997810000004,
          "velocity": 1,
          "duration": 0.9999990000000025
        },
        {
          "name": "G4",
          "midi": 67,
          "time": 218.9997810000004,
          "velocity": 1,
          "duration": 0.9999990000000025
        },
        {
          "name": "G#4",
          "midi": 68,
          "time": 219.9997800000004,
          "velocity": 1,
          "duration": 0.9999990000000025
        },
        {
          "name": "C4",
          "midi": 60,
          "time": 219.9997800000004,
          "velocity": 1,
          "duration": 0.9999990000000025
        },
        {
          "name": "D#4",
          "midi": 63,
          "time": 219.9997800000004,
          "velocity": 1,
          "duration": 0.9999990000000025
        },
        {
          "name": "G#4",
          "midi": 68,
          "time": 220.99977900000042,
          "velocity": 1,
          "duration": 0.9999990000000025
        },
        {
          "name": "F4",
          "midi": 65,
          "time": 220.99977900000042,
          "velocity": 1,
          "duration": 0.9999990000000025
        },
        {
          "name": "E4",
          "midi": 64,
          "time": 221.99977800000042,
          "velocity": 1,
          "duration": 0.9999990000000025
        },
        {
          "name": "G#4",
          "midi": 68,
          "time": 221.99977800000042,
          "velocity": 1,
          "duration": 0.9999990000000025
        },
        {
          "name": "G4",
          "midi": 67,
          "time": 222.99977700000042,
          "velocity": 1,
          "duration": 0.3333330000000103
        },
        {
          "name": "D#4",
          "midi": 63,
          "time": 222.99977700000042,
          "velocity": 1,
          "duration": 0.3333330000000103
        },
        {
          "name": "D#4",
          "midi": 63,
          "time": 223.33311000000043,
          "velocity": 1,
          "duration": 2.999997000000036
        },
        {
          "name": "D#3",
          "midi": 51,
          "time": 223.33311000000043,
          "velocity": 1,
          "duration": 2.999997000000036
        },
        {
          "name": "G3",
          "midi": 55,
          "time": 225.33310800000044,
          "velocity": 1,
          "duration": 0.3333330000000103
        },
        {
          "name": "A#3",
          "midi": 58,
          "time": 225.66644100000045,
          "velocity": 1,
          "duration": 0.3333330000000103
        },
        {
          "name": "G4",
          "midi": 67,
          "time": 226.33310700000047,
          "velocity": 1,
          "duration": 0.3333330000000103
        },
        {
          "name": "D#3",
          "midi": 51,
          "time": 226.33310700000047,
          "velocity": 1,
          "duration": 0.3333330000000103
        },
        {
          "name": "D#4",
          "midi": 63,
          "time": 226.33310700000047,
          "velocity": 1,
          "duration": 0.3333330000000103
        },
        {
          "name": "D#4",
          "midi": 63,
          "time": 226.66644000000048,
          "velocity": 1,
          "duration": 0.3333330000000103
        },
        {
          "name": "D#3",
          "midi": 51,
          "time": 226.66644000000048,
          "velocity": 1,
          "duration": 0.3333330000000103
        },
        {
          "name": "A#4",
          "midi": 70,
          "time": 226.66644000000048,
          "velocity": 1,
          "duration": 0.3333330000000103
        },
        {
          "name": "D#4",
          "midi": 63,
          "time": 226.9997730000005,
          "velocity": 1,
          "duration": 3.3333299999999895
        },
        {
          "name": "D#3",
          "midi": 51,
          "time": 226.9997730000005,
          "velocity": 1,
          "duration": 3.3333299999999895
        },
        {
          "name": "D#4",
          "midi": 63,
          "time": 230.33310300000048,
          "velocity": 1,
          "duration": 0.3333330000000103
        },
        {
          "name": "D#3",
          "midi": 51,
          "time": 230.33310300000048,
          "velocity": 1,
          "duration": 0.3333330000000103
        },
        {
          "name": "D#3",
          "midi": 51,
          "time": 230.6664360000005,
          "velocity": 1,
          "duration": 0.3333330000000103
        },
        {
          "name": "D#4",
          "midi": 63,
          "time": 230.6664360000005,
          "velocity": 1,
          "duration": 0.3333330000000103
        },
        {
          "name": "D#4",
          "midi": 63,
          "time": 230.9997690000005,
          "velocity": 1,
          "duration": 2.333330999999987
        },
        {
          "name": "D#3",
          "midi": 51,
          "time": 230.9997690000005,
          "velocity": 1,
          "duration": 2.333330999999987
        },
        {
          "name": "G3",
          "midi": 55,
          "time": 233.33310000000048,
          "velocity": 1,
          "duration": 0.3333330000000103
        },
        {
          "name": "D#3",
          "midi": 51,
          "time": 233.33310000000048,
          "velocity": 1,
          "duration": 0.3333330000000103
        },
        {
          "name": "D#4",
          "midi": 63,
          "time": 233.33310000000048,
          "velocity": 1,
          "duration": 0.3333330000000103
        },
        {
          "name": "D#4",
          "midi": 63,
          "time": 233.6664330000005,
          "velocity": 1,
          "duration": 0.3333330000000103
        },
        {
          "name": "D#3",
          "midi": 51,
          "time": 233.6664330000005,
          "velocity": 1,
          "duration": 0.3333330000000103
        },
        {
          "name": "A#3",
          "midi": 58,
          "time": 233.6664330000005,
          "velocity": 1,
          "duration": 0.3333330000000103
        },
        {
          "name": "D#4",
          "midi": 63,
          "time": 233.9997660000005,
          "velocity": 1,
          "duration": 0.3333330000000103
        },
        {
          "name": "D#3",
          "midi": 51,
          "time": 233.9997660000005,
          "velocity": 1,
          "duration": 0.3333330000000103
        },
        {
          "name": "G4",
          "midi": 67,
          "time": 234.33309900000052,
          "velocity": 1,
          "duration": 0.3333330000000103
        },
        {
          "name": "D#3",
          "midi": 51,
          "time": 234.33309900000052,
          "velocity": 1,
          "duration": 0.3333330000000103
        },
        {
          "name": "D#4",
          "midi": 63,
          "time": 234.33309900000052,
          "velocity": 1,
          "duration": 0.3333330000000103
        },
        {
          "name": "D#4",
          "midi": 63,
          "time": 234.66643200000053,
          "velocity": 1,
          "duration": 0.3333330000000103
        },
        {
          "name": "D#3",
          "midi": 51,
          "time": 234.66643200000053,
          "velocity": 1,
          "duration": 0.3333330000000103
        },
        {
          "name": "D#4",
          "midi": 63,
          "time": 234.99976500000054,
          "velocity": 1,
          "duration": 0.3333329999999819
        },
        {
          "name": "D#3",
          "midi": 51,
          "time": 234.99976500000054,
          "velocity": 1,
          "duration": 0.3333329999999819
        },
        {
          "name": "C4",
          "midi": 60,
          "time": 235.16643150000053,
          "velocity": 1,
          "duration": 0.16666649999999095
        },
        {
          "name": "C#4",
          "midi": 61,
          "time": 235.33309800000052,
          "velocity": 1,
          "duration": 0.16666649999999095
        },
        {
          "name": "D#4",
          "midi": 63,
          "time": 235.4997645000005,
          "velocity": 1,
          "duration": 0.16666649999999095
        },
        {
          "name": "F4",
          "midi": 65,
          "time": 235.6664310000005,
          "velocity": 1,
          "duration": 0.16666649999999095
        },
        {
          "name": "G4",
          "midi": 67,
          "time": 235.8330975000005,
          "velocity": 1,
          "duration": 0.16666649999999095
        },
        {
          "name": "G#4",
          "midi": 68,
          "time": 235.99976400000048,
          "velocity": 1,
          "duration": 1.3333320000000128
        },
        {
          "name": "A#4",
          "midi": 70,
          "time": 236.99976300000048,
          "velocity": 1,
          "duration": 1.3333320000000413
        },
        {
          "name": "G4",
          "midi": 67,
          "time": 237.3330960000005,
          "velocity": 1,
          "duration": 0.3333330000000103
        },
        {
          "name": "G4",
          "midi": 67,
          "time": 237.6664290000005,
          "velocity": 1,
          "duration": 0.3333330000000103
        },
        {
          "name": "G4",
          "midi": 67,
          "time": 237.99976200000052,
          "velocity": 1,
          "duration": 0.3333330000000103
        },
        {
          "name": "G4",
          "midi": 67,
          "time": 238.33309500000053,
          "velocity": 1,
          "duration": 0.3333330000000103
        },
        {
          "name": "G4",
          "midi": 67,
          "time": 238.66642800000054,
          "velocity": 1,
          "duration": 0.3333330000000103
        },
        {
          "name": "F4",
          "midi": 65,
          "time": 238.99976100000055,
          "velocity": 1,
          "duration": 0.3333330000000103
        },
        {
          "name": "G#4",
          "midi": 68,
          "time": 238.99976100000055,
          "velocity": 1,
          "duration": 0.3333330000000103
        },
        {
          "name": "F4",
          "midi": 65,
          "time": 251.33308200000056,
          "velocity": 1,
          "duration": 1.6666649999999947
        },
        {
          "name": "G#4",
          "midi": 68,
          "time": 251.33308200000056,
          "velocity": 1,
          "duration": 1.6666649999999947
        },
        {
          "name": "G#4",
          "midi": 68,
          "time": 252.99974700000055,
          "velocity": 1,
          "duration": 0.3333330000000103
        },
        {
          "name": "F4",
          "midi": 65,
          "time": 252.99974700000055,
          "velocity": 1,
          "duration": 0.3333330000000103
        },
        {
          "name": "G#4",
          "midi": 68,
          "time": 253.33308000000056,
          "velocity": 1,
          "duration": 0.6666659999999922
        },
        {
          "name": "F4",
          "midi": 65,
          "time": 253.33308000000056,
          "velocity": 1,
          "duration": 0.6666659999999922
        },
        {
          "name": "G#4",
          "midi": 68,
          "time": 253.99974600000056,
          "velocity": 1,
          "duration": 0.6666659999999922
        },
        {
          "name": "F4",
          "midi": 65,
          "time": 253.99974600000056,
          "velocity": 1,
          "duration": 0.6666659999999922
        },
        {
          "name": "F4",
          "midi": 65,
          "time": 254.66641200000055,
          "velocity": 1,
          "duration": 0.6666659999999922
        },
        {
          "name": "G#4",
          "midi": 68,
          "time": 254.66641200000055,
          "velocity": 1,
          "duration": 0.6666659999999922
        },
        {
          "name": "G#4",
          "midi": 68,
          "time": 255.33307800000054,
          "velocity": 1,
          "duration": 0.6666659999999922
        },
        {
          "name": "F4",
          "midi": 65,
          "time": 255.33307800000054,
          "velocity": 1,
          "duration": 0.6666659999999922
        },
        {
          "name": "G#4",
          "midi": 68,
          "time": 255.99974400000053,
          "velocity": 1,
          "duration": 0.6666660000000206
        },
        {
          "name": "F4",
          "midi": 65,
          "time": 255.99974400000053,
          "velocity": 1,
          "duration": 0.6666660000000206
        },
        {
          "name": "F4",
          "midi": 65,
          "time": 256.66641000000055,
          "velocity": 1,
          "duration": 0.3333329999999819
        },
        {
          "name": "G#4",
          "midi": 68,
          "time": 256.66641000000055,
          "velocity": 1,
          "duration": 0.3333329999999819
        },
        {
          "name": "F#4",
          "midi": 66,
          "time": 263.33307000000053,
          "velocity": 1,
          "duration": 1.999998000000005
        },
        {
          "name": "D#4",
          "midi": 63,
          "time": 263.33307000000053,
          "velocity": 1,
          "duration": 1.999998000000005
        },
        {
          "name": "F#4",
          "midi": 66,
          "time": 265.33306800000054,
          "velocity": 1,
          "duration": 0.6666660000000206
        },
        {
          "name": "D#4",
          "midi": 63,
          "time": 265.33306800000054,
          "velocity": 1,
          "duration": 0.6666660000000206
        },
        {
          "name": "F#4",
          "midi": 66,
          "time": 265.99973400000056,
          "velocity": 1,
          "duration": 0.6666660000000206
        },
        {
          "name": "D#4",
          "midi": 63,
          "time": 265.99973400000056,
          "velocity": 1,
          "duration": 0.6666660000000206
        },
        {
          "name": "F#4",
          "midi": 66,
          "time": 266.6664000000006,
          "velocity": 1,
          "duration": 0.6666660000000206
        },
        {
          "name": "D#4",
          "midi": 63,
          "time": 266.6664000000006,
          "velocity": 1,
          "duration": 0.6666660000000206
        },
        {
          "name": "D#4",
          "midi": 63,
          "time": 267.3330660000006,
          "velocity": 1,
          "duration": 0.6666660000000206
        },
        {
          "name": "F#4",
          "midi": 66,
          "time": 267.3330660000006,
          "velocity": 1,
          "duration": 0.6666660000000206
        },
        {
          "name": "F#4",
          "midi": 66,
          "time": 267.9997320000006,
          "velocity": 1,
          "duration": 0.6666660000000206
        },
        {
          "name": "D#4",
          "midi": 63,
          "time": 267.9997320000006,
          "velocity": 1,
          "duration": 0.6666660000000206
        },
        {
          "name": "F#4",
          "midi": 66,
          "time": 268.66639800000064,
          "velocity": 1,
          "duration": 0.3333329999999819
        },
        {
          "name": "D#4",
          "midi": 63,
          "time": 268.66639800000064,
          "velocity": 1,
          "duration": 0.3333329999999819
        },
        {
          "name": "G4",
          "midi": 67,
          "time": 269.3330640000006,
          "velocity": 1,
          "duration": 1.999998000000005
        },
        {
          "name": "G3",
          "midi": 55,
          "time": 269.3330640000006,
          "velocity": 1,
          "duration": 1.999998000000005
        },
        {
          "name": "G4",
          "midi": 67,
          "time": 271.3330620000006,
          "velocity": 1,
          "duration": 0.6666660000000206
        },
        {
          "name": "G3",
          "midi": 55,
          "time": 271.3330620000006,
          "velocity": 1,
          "duration": 0.6666660000000206
        },
        {
          "name": "G4",
          "midi": 67,
          "time": 271.99972800000063,
          "velocity": 1,
          "duration": 0.6666660000000206
        },
        {
          "name": "G3",
          "midi": 55,
          "time": 271.99972800000063,
          "velocity": 1,
          "duration": 0.6666660000000206
        },
        {
          "name": "G4",
          "midi": 67,
          "time": 272.66639400000065,
          "velocity": 1,
          "duration": 0.6666660000000206
        },
        {
          "name": "G3",
          "midi": 55,
          "time": 272.66639400000065,
          "velocity": 1,
          "duration": 0.6666660000000206
        },
        {
          "name": "G4",
          "midi": 67,
          "time": 273.33306000000067,
          "velocity": 1,
          "duration": 0.6666660000000206
        },
        {
          "name": "G3",
          "midi": 55,
          "time": 273.33306000000067,
          "velocity": 1,
          "duration": 0.6666660000000206
        },
        {
          "name": "G4",
          "midi": 67,
          "time": 273.9997260000007,
          "velocity": 1,
          "duration": 0.6666660000000206
        },
        {
          "name": "G3",
          "midi": 55,
          "time": 273.9997260000007,
          "velocity": 1,
          "duration": 0.6666660000000206
        },
        {
          "name": "G4",
          "midi": 67,
          "time": 274.6663920000007,
          "velocity": 1,
          "duration": 0.3333329999999819
        },
        {
          "name": "G3",
          "midi": 55,
          "time": 274.6663920000007,
          "velocity": 1,
          "duration": 0.3333329999999819
        },
        {
          "name": "F#4",
          "midi": 66,
          "time": 275.3330580000007,
          "velocity": 1,
          "duration": 0.6666660000000206
        },
        {
          "name": "D#3",
          "midi": 51,
          "time": 275.3330580000007,
          "velocity": 1,
          "duration": 0.6666660000000206
        },
        {
          "name": "D#4",
          "midi": 63,
          "time": 275.3330580000007,
          "velocity": 1,
          "duration": 0.6666660000000206
        },
        {
          "name": "D#4",
          "midi": 63,
          "time": 275.9997240000007,
          "velocity": 1,
          "duration": 0.6666660000000206
        },
        {
          "name": "D#3",
          "midi": 51,
          "time": 275.9997240000007,
          "velocity": 1,
          "duration": 0.6666660000000206
        },
        {
          "name": "F#4",
          "midi": 66,
          "time": 275.9997240000007,
          "velocity": 1,
          "duration": 0.6666660000000206
        },
        {
          "name": "D#4",
          "midi": 63,
          "time": 276.6663900000007,
          "velocity": 1,
          "duration": 0.3333329999999819
        },
        {
          "name": "D#3",
          "midi": 51,
          "time": 276.6663900000007,
          "velocity": 1,
          "duration": 0.3333329999999819
        },
        {
          "name": "F#4",
          "midi": 66,
          "time": 276.6663900000007,
          "velocity": 1,
          "duration": 0.3333329999999819
        },
        {
          "name": "G3",
          "midi": 55,
          "time": 277.3330560000007,
          "velocity": 1,
          "duration": 0.6666660000000206
        },
        {
          "name": "G4",
          "midi": 67,
          "time": 277.3330560000007,
          "velocity": 1,
          "duration": 0.6666660000000206
        },
        {
          "name": "G4",
          "midi": 67,
          "time": 277.9997220000007,
          "velocity": 1,
          "duration": 0.6666660000000206
        },
        {
          "name": "G3",
          "midi": 55,
          "time": 277.9997220000007,
          "velocity": 1,
          "duration": 0.6666660000000206
        },
        {
          "name": "G4",
          "midi": 67,
          "time": 278.6663880000007,
          "velocity": 1,
          "duration": 0.3333329999999819
        },
        {
          "name": "G3",
          "midi": 55,
          "time": 278.6663880000007,
          "velocity": 1,
          "duration": 0.3333329999999819
        },
        {
          "name": "F4",
          "midi": 65,
          "time": 278.9997210000007,
          "velocity": 1,
          "duration": 0.9999990000000025
        },
        {
          "name": "F4",
          "midi": 65,
          "time": 279.9997200000007,
          "velocity": 1,
          "duration": 0.9999990000000025
        },
        {
          "name": "F4",
          "midi": 65,
          "time": 280.9997190000007,
          "velocity": 1,
          "duration": 0.9999990000000025
        },
        {
          "name": "F4",
          "midi": 65,
          "time": 281.9997180000007,
          "velocity": 1,
          "duration": 0.6666660000000206
        },
        {
          "name": "F4",
          "midi": 65,
          "time": 282.66638400000073,
          "velocity": 1,
          "duration": 0.3333329999999819
        },
        {
          "name": "G4",
          "midi": 67,
          "time": 307.3330260000007,
          "velocity": 1,
          "duration": 0.3333329999999819
        },
        {
          "name": "G3",
          "midi": 55,
          "time": 307.3330260000007,
          "velocity": 1,
          "duration": 0.3333329999999819
        },
        {
          "name": "G4",
          "midi": 67,
          "time": 307.6663590000007,
          "velocity": 1,
          "duration": 0.3333329999999819
        },
        {
          "name": "G3",
          "midi": 55,
          "time": 307.6663590000007,
          "velocity": 1,
          "duration": 0.3333329999999819
        },
        {
          "name": "G4",
          "midi": 67,
          "time": 307.99969200000066,
          "velocity": 1,
          "duration": 0.3333329999999819
        },
        {
          "name": "G3",
          "midi": 55,
          "time": 307.99969200000066,
          "velocity": 1,
          "duration": 0.3333329999999819
        },
        {
          "name": "G3",
          "midi": 55,
          "time": 308.33302500000065,
          "velocity": 1,
          "duration": 0.3333329999999819
        },
        {
          "name": "G4",
          "midi": 67,
          "time": 308.33302500000065,
          "velocity": 1,
          "duration": 0.3333329999999819
        },
        {
          "name": "G4",
          "midi": 67,
          "time": 308.6663580000006,
          "velocity": 1,
          "duration": 2.6666640000000257
        },
        {
          "name": "G3",
          "midi": 55,
          "time": 308.6663580000006,
          "velocity": 1,
          "duration": 2.6666640000000257
        },
        {
          "name": "G4",
          "midi": 67,
          "time": 311.33302200000065,
          "velocity": 1,
          "duration": 0.3333329999999819
        },
        {
          "name": "G3",
          "midi": 55,
          "time": 311.33302200000065,
          "velocity": 1,
          "duration": 0.3333329999999819
        },
        {
          "name": "G4",
          "midi": 67,
          "time": 311.66635500000064,
          "velocity": 1,
          "duration": 0.3333329999999819
        },
        {
          "name": "G3",
          "midi": 55,
          "time": 311.66635500000064,
          "velocity": 1,
          "duration": 0.3333329999999819
        },
        {
          "name": "G4",
          "midi": 67,
          "time": 311.9996880000006,
          "velocity": 1,
          "duration": 0.3333329999999819
        },
        {
          "name": "G3",
          "midi": 55,
          "time": 311.9996880000006,
          "velocity": 1,
          "duration": 0.3333329999999819
        },
        {
          "name": "G4",
          "midi": 67,
          "time": 312.3330210000006,
          "velocity": 1,
          "duration": 0.3333329999999819
        },
        {
          "name": "G3",
          "midi": 55,
          "time": 312.3330210000006,
          "velocity": 1,
          "duration": 0.3333329999999819
        },
        {
          "name": "G3",
          "midi": 55,
          "time": 312.6663540000006,
          "velocity": 1,
          "duration": 2.6666640000000257
        },
        {
          "name": "G4",
          "midi": 67,
          "time": 312.6663540000006,
          "velocity": 1,
          "duration": 2.6666640000000257
        },
        {
          "name": "G3",
          "midi": 55,
          "time": 319.3330140000006,
          "velocity": 1,
          "duration": 0.3333329999999819
        },
        {
          "name": "A#2",
          "midi": 46,
          "time": 319.3330140000006,
          "velocity": 1,
          "duration": 0.3333329999999819
        },
        {
          "name": "A#3",
          "midi": 58,
          "time": 319.3330140000006,
          "velocity": 1,
          "duration": 0.3333329999999819
        },
        {
          "name": "A#3",
          "midi": 58,
          "time": 319.6663470000006,
          "velocity": 1,
          "duration": 0.3333329999999819
        },
        {
          "name": "A#2",
          "midi": 46,
          "time": 319.6663470000006,
          "velocity": 1,
          "duration": 0.3333329999999819
        },
        {
          "name": "A#3",
          "midi": 58,
          "time": 319.9996800000006,
          "velocity": 1,
          "duration": 0.3333329999999819
        },
        {
          "name": "A#2",
          "midi": 46,
          "time": 319.9996800000006,
          "velocity": 1,
          "duration": 0.3333329999999819
        },
        {
          "name": "D#4",
          "midi": 63,
          "time": 319.9996800000006,
          "velocity": 1,
          "duration": 0.3333329999999819
        },
        {
          "name": "G4",
          "midi": 67,
          "time": 320.33301300000056,
          "velocity": 1,
          "duration": 0.3333329999999819
        },
        {
          "name": "A#2",
          "midi": 46,
          "time": 320.33301300000056,
          "velocity": 1,
          "duration": 0.3333329999999819
        },
        {
          "name": "A#3",
          "midi": 58,
          "time": 320.33301300000056,
          "velocity": 1,
          "duration": 0.3333329999999819
        },
        {
          "name": "A#3",
          "midi": 58,
          "time": 320.66634600000054,
          "velocity": 1,
          "duration": 2.6666640000000257
        },
        {
          "name": "A#2",
          "midi": 46,
          "time": 320.66634600000054,
          "velocity": 1,
          "duration": 2.6666640000000257
        },
        {
          "name": "A#4",
          "midi": 70,
          "time": 320.66634600000054,
          "velocity": 1,
          "duration": 0.6666660000000206
        },
        {
          "name": "A#3",
          "midi": 58,
          "time": 323.33301000000057,
          "velocity": 1,
          "duration": 0.3333329999999819
        },
        {
          "name": "A#2",
          "midi": 46,
          "time": 323.33301000000057,
          "velocity": 1,
          "duration": 0.3333329999999819
        },
        {
          "name": "D#4",
          "midi": 63,
          "time": 323.33301000000057,
          "velocity": 1,
          "duration": 0.3333329999999819
        },
        {
          "name": "A#3",
          "midi": 58,
          "time": 323.66634300000055,
          "velocity": 1,
          "duration": 0.3333329999999819
        },
        {
          "name": "A#2",
          "midi": 46,
          "time": 323.66634300000055,
          "velocity": 1,
          "duration": 0.3333329999999819
        },
        {
          "name": "D#4",
          "midi": 63,
          "time": 323.66634300000055,
          "velocity": 1,
          "duration": 0.3333329999999819
        },
        {
          "name": "D#4",
          "midi": 63,
          "time": 323.99967600000053,
          "velocity": 1,
          "duration": 0.3333329999999819
        },
        {
          "name": "A#2",
          "midi": 46,
          "time": 323.99967600000053,
          "velocity": 1,
          "duration": 0.3333329999999819
        },
        {
          "name": "A#3",
          "midi": 58,
          "time": 323.99967600000053,
          "velocity": 1,
          "duration": 0.3333329999999819
        },
        {
          "name": "D#4",
          "midi": 63,
          "time": 324.3330090000005,
          "velocity": 1,
          "duration": 0.3333329999999819
        },
        {
          "name": "D#3",
          "midi": 51,
          "time": 324.3330090000005,
          "velocity": 1,
          "duration": 0.3333329999999819
        },
        {
          "name": "D#4",
          "midi": 63,
          "time": 324.6663420000005,
          "velocity": 1,
          "duration": 0.3333329999999819
        },
        {
          "name": "D#3",
          "midi": 51,
          "time": 324.6663420000005,
          "velocity": 1,
          "duration": 0.3333329999999819
        },
        {
          "name": "D#4",
          "midi": 63,
          "time": 324.9996750000005,
          "velocity": 1,
          "duration": 0.3333329999999819
        },
        {
          "name": "D#3",
          "midi": 51,
          "time": 324.9996750000005,
          "velocity": 1,
          "duration": 0.3333329999999819
        },
        {
          "name": "D#4",
          "midi": 63,
          "time": 344.9996550000005,
          "velocity": 1,
          "duration": 3.3333299999999895
        },
        {
          "name": "F#4",
          "midi": 66,
          "time": 346.6663200000005,
          "velocity": 1,
          "duration": 0.3333329999999819
        },
        {
          "name": "A#3",
          "midi": 58,
          "time": 347.6663190000005,
          "velocity": 1,
          "duration": 0.3333329999999819
        },
        {
          "name": "D#4",
          "midi": 63,
          "time": 348.33298500000046,
          "velocity": 1,
          "duration": 0.3333329999999819
        },
        {
          "name": "F#4",
          "midi": 66,
          "time": 348.33298500000046,
          "velocity": 1,
          "duration": 0.3333329999999819
        },
        {
          "name": "A#4",
          "midi": 70,
          "time": 348.66631800000044,
          "velocity": 1,
          "duration": 0.3333329999999819
        },
        {
          "name": "F#4",
          "midi": 66,
          "time": 348.66631800000044,
          "velocity": 1,
          "duration": 0.3333329999999819
        },
        {
          "name": "D#4",
          "midi": 63,
          "time": 348.66631800000044,
          "velocity": 1,
          "duration": 0.3333329999999819
        },
        {
          "name": "G#4",
          "midi": 68,
          "time": 348.9996510000004,
          "velocity": 1,
          "duration": 0.3333329999999819
        },
        {
          "name": "F#4",
          "midi": 66,
          "time": 348.9996510000004,
          "velocity": 1,
          "duration": 0.3333329999999819
        },
        {
          "name": "D#4",
          "midi": 63,
          "time": 348.9996510000004,
          "velocity": 1,
          "duration": 3.3333300000000463
        },
        {
          "name": "F#4",
          "midi": 66,
          "time": 349.99965000000043,
          "velocity": 1,
          "duration": 0.6666660000000206
        },
        {
          "name": "G#4",
          "midi": 68,
          "time": 350.66631600000045,
          "velocity": 1,
          "duration": 0.3333329999999819
        },
        {
          "name": "F#4",
          "midi": 66,
          "time": 350.99964900000043,
          "velocity": 1,
          "duration": 0.6666660000000206
        },
        {
          "name": "F#4",
          "midi": 66,
          "time": 352.3329810000005,
          "velocity": 1,
          "duration": 0.3333329999999819
        },
        {
          "name": "D#4",
          "midi": 63,
          "time": 352.3329810000005,
          "velocity": 1,
          "duration": 0.3333329999999819
        },
        {
          "name": "D#4",
          "midi": 63,
          "time": 352.66631400000045,
          "velocity": 1,
          "duration": 0.3333329999999819
        },
        {
          "name": "F#4",
          "midi": 66,
          "time": 352.66631400000045,
          "velocity": 1,
          "duration": 0.3333329999999819
        },
        {
          "name": "G#4",
          "midi": 68,
          "time": 352.66631400000045,
          "velocity": 1,
          "duration": 0.3333329999999819
        },
        {
          "name": "G#4",
          "midi": 68,
          "time": 352.99964700000044,
          "velocity": 1,
          "duration": 3.3333299999999895
        },
        {
          "name": "F4",
          "midi": 65,
          "time": 352.99964700000044,
          "velocity": 1,
          "duration": 3.3333299999999895
        },
        {
          "name": "G#4",
          "midi": 68,
          "time": 356.3329770000004,
          "velocity": 1,
          "duration": 0.3333329999999819
        },
        {
          "name": "F4",
          "midi": 65,
          "time": 356.3329770000004,
          "velocity": 1,
          "duration": 0.3333329999999819
        },
        {
          "name": "F4",
          "midi": 65,
          "time": 356.6663100000004,
          "velocity": 1,
          "duration": 0.3333329999999819
        },
        {
          "name": "G#4",
          "midi": 68,
          "time": 356.6663100000004,
          "velocity": 1,
          "duration": 0.3333329999999819
        },
        {
          "name": "A#4",
          "midi": 70,
          "time": 356.9996430000004,
          "velocity": 1,
          "duration": 3.3333299999999895
        },
        {
          "name": "G#4",
          "midi": 68,
          "time": 356.9996430000004,
          "velocity": 1,
          "duration": 0.9999990000000025
        },
        {
          "name": "F4",
          "midi": 65,
          "time": 356.9996430000004,
          "velocity": 1,
          "duration": 3.3333299999999895
        },
        {
          "name": "G#4",
          "midi": 68,
          "time": 358.6663080000004,
          "velocity": 1,
          "duration": 0.3333329999999819
        },
        {
          "name": "A#3",
          "midi": 58,
          "time": 359.6663070000004,
          "velocity": 1,
          "duration": 0.3333329999999819
        },
        {
          "name": "F4",
          "midi": 65,
          "time": 360.3329730000004,
          "velocity": 1,
          "duration": 0.3333329999999819
        },
        {
          "name": "G#4",
          "midi": 68,
          "time": 360.3329730000004,
          "velocity": 1,
          "duration": 0.3333329999999819
        },
        {
          "name": "A#4",
          "midi": 70,
          "time": 360.3329730000004,
          "velocity": 1,
          "duration": 0.3333329999999819
        },
        {
          "name": "A#4",
          "midi": 70,
          "time": 360.66630600000036,
          "velocity": 1,
          "duration": 0.3333329999999819
        },
        {
          "name": "F4",
          "midi": 65,
          "time": 360.66630600000036,
          "velocity": 1,
          "duration": 0.3333329999999819
        },
        {
          "name": "A#4",
          "midi": 70,
          "time": 360.99963900000034,
          "velocity": 1,
          "duration": 2.9999970000000076
        },
        {
          "name": "F#4",
          "midi": 66,
          "time": 360.99963900000034,
          "velocity": 1,
          "duration": 2.9999970000000076
        },
        {
          "name": "D#4",
          "midi": 63,
          "time": 360.99963900000034,
          "velocity": 1,
          "duration": 3.666663000000028
        },
        {
          "name": "D#3",
          "midi": 51,
          "time": 363.99963600000035,
          "velocity": 1,
          "duration": 0.6666660000000206
        },
        {
          "name": "F#4",
          "midi": 66,
          "time": 364.66630200000037,
          "velocity": 1,
          "duration": 0.3333329999999819
        },
        {
          "name": "F#3",
          "midi": 54,
          "time": 364.66630200000037,
          "velocity": 1,
          "duration": 0.3333329999999819
        },
        {
          "name": "D#4",
          "midi": 63,
          "time": 364.66630200000037,
          "velocity": 1,
          "duration": 0.3333329999999819
        },
        {
          "name": "F#4",
          "midi": 66,
          "time": 364.99963500000035,
          "velocity": 1,
          "duration": 2.333330999999987
        },
        {
          "name": "D#3",
          "midi": 51,
          "time": 364.99963500000035,
          "velocity": 1,
          "duration": 2.333330999999987
        },
        {
          "name": "D#4",
          "midi": 63,
          "time": 364.99963500000035,
          "velocity": 1,
          "duration": 2.333330999999987
        },
        {
          "name": "F#4",
          "midi": 66,
          "time": 367.33296600000034,
          "velocity": 1,
          "duration": 0.3333329999999819
        },
        {
          "name": "D#3",
          "midi": 51,
          "time": 367.33296600000034,
          "velocity": 1,
          "duration": 0.3333329999999819
        },
        {
          "name": "D#4",
          "midi": 63,
          "time": 367.33296600000034,
          "velocity": 1,
          "duration": 0.3333329999999819
        },
        {
          "name": "D#4",
          "midi": 63,
          "time": 367.6662990000003,
          "velocity": 1,
          "duration": 0.3333329999999819
        },
        {
          "name": "D#3",
          "midi": 51,
          "time": 367.6662990000003,
          "velocity": 1,
          "duration": 0.3333329999999819
        },
        {
          "name": "F#4",
          "midi": 66,
          "time": 367.6662990000003,
          "velocity": 1,
          "duration": 0.3333329999999819
        },
        {
          "name": "F#4",
          "midi": 66,
          "time": 367.9996320000003,
          "velocity": 1,
          "duration": 0.3333329999999819
        },
        {
          "name": "D#3",
          "midi": 51,
          "time": 367.9996320000003,
          "velocity": 1,
          "duration": 0.3333329999999819
        },
        {
          "name": "D#4",
          "midi": 63,
          "time": 367.9996320000003,
          "velocity": 1,
          "duration": 0.3333329999999819
        },
        {
          "name": "F#4",
          "midi": 66,
          "time": 368.3329650000003,
          "velocity": 1,
          "duration": 0.3333329999999819
        },
        {
          "name": "D#3",
          "midi": 51,
          "time": 368.3329650000003,
          "velocity": 1,
          "duration": 0.3333329999999819
        },
        {
          "name": "D#4",
          "midi": 63,
          "time": 368.3329650000003,
          "velocity": 1,
          "duration": 0.3333329999999819
        },
        {
          "name": "D#4",
          "midi": 63,
          "time": 368.66629800000027,
          "velocity": 1,
          "duration": 0.3333329999999819
        },
        {
          "name": "D#3",
          "midi": 51,
          "time": 368.66629800000027,
          "velocity": 1,
          "duration": 0.3333329999999819
        },
        {
          "name": "F#4",
          "midi": 66,
          "time": 368.66629800000027,
          "velocity": 1,
          "duration": 0.3333329999999819
        },
        {
          "name": "F#4",
          "midi": 66,
          "time": 368.99963100000025,
          "velocity": 1,
          "duration": 0.3333329999999819
        },
        {
          "name": "D#3",
          "midi": 51,
          "time": 368.99963100000025,
          "velocity": 1,
          "duration": 0.3333329999999819
        },
        {
          "name": "D#4",
          "midi": 63,
          "time": 368.99963100000025,
          "velocity": 1,
          "duration": 0.3333329999999819
        },
        {
          "name": "D#3",
          "midi": 51,
          "time": 375.9996240000002,
          "velocity": 1,
          "duration": 0.9999990000000025
        },
        {
          "name": "D3",
          "midi": 50,
          "time": 376.9996230000002,
          "velocity": 1,
          "duration": 0.9999990000000025
        },
        {
          "name": "A#3",
          "midi": 58,
          "time": 376.9996230000002,
          "velocity": 1,
          "duration": 0.9999990000000025
        },
        {
          "name": "A#3",
          "midi": 58,
          "time": 377.9996220000002,
          "velocity": 1,
          "duration": 0.9999990000000025
        },
        {
          "name": "D3",
          "midi": 50,
          "time": 377.9996220000002,
          "velocity": 1,
          "duration": 0.9999990000000025
        },
        {
          "name": "D#3",
          "midi": 51,
          "time": 378.9996210000002,
          "velocity": 1,
          "duration": 0.9999990000000025
        },
        {
          "name": "D#4",
          "midi": 63,
          "time": 378.9996210000002,
          "velocity": 1,
          "duration": 0.9999990000000025
        },
        {
          "name": "D#3",
          "midi": 51,
          "time": 379.9996200000002,
          "velocity": 1,
          "duration": 0.9999990000000025
        },
        {
          "name": "D#4",
          "midi": 63,
          "time": 379.9996200000002,
          "velocity": 1,
          "duration": 0.9999990000000025
        },
        {
          "name": "A#2",
          "midi": 46,
          "time": 380.9996190000002,
          "velocity": 1,
          "duration": 0.9999990000000025
        },
        {
          "name": "F4",
          "midi": 65,
          "time": 380.9996190000002,
          "velocity": 1,
          "duration": 0.9999990000000025
        },
        {
          "name": "A#2",
          "midi": 46,
          "time": 381.9996180000002,
          "velocity": 1,
          "duration": 0.9999990000000025
        },
        {
          "name": "F4",
          "midi": 65,
          "time": 381.9996180000002,
          "velocity": 1,
          "duration": 0.9999990000000025
        },
        {
          "name": "F4",
          "midi": 65,
          "time": 382.9996170000002,
          "velocity": 1,
          "duration": 0.9999990000000025
        },
        {
          "name": "A#2",
          "midi": 46,
          "time": 382.9996170000002,
          "velocity": 1,
          "duration": 0.9999990000000025
        },
        {
          "name": "A#2",
          "midi": 46,
          "time": 383.99961600000023,
          "velocity": 1,
          "duration": 0.9999990000000025
        },
        {
          "name": "F4",
          "midi": 65,
          "time": 383.99961600000023,
          "velocity": 1,
          "duration": 0.9999990000000025
        },
        {
          "name": "A#2",
          "midi": 46,
          "time": 386.99961300000024,
          "velocity": 1,
          "duration": 0.9999990000000025
        },
        {
          "name": "F4",
          "midi": 65,
          "time": 386.99961300000024,
          "velocity": 1,
          "duration": 0.9999990000000025
        },
        {
          "name": "A#2",
          "midi": 46,
          "time": 387.99961200000024,
          "velocity": 1,
          "duration": 0.9999990000000025
        },
        {
          "name": "F4",
          "midi": 65,
          "time": 387.99961200000024,
          "velocity": 1,
          "duration": 0.9999990000000025
        },
        {
          "name": "F4",
          "midi": 65,
          "time": 390.99960900000025,
          "velocity": 1,
          "duration": 0.9999990000000025
        },
        {
          "name": "A#2",
          "midi": 46,
          "time": 390.99960900000025,
          "velocity": 1,
          "duration": 0.9999990000000025
        },
        {
          "name": "A#2",
          "midi": 46,
          "time": 391.99960800000025,
          "velocity": 1,
          "duration": 0.9999990000000025
        },
        {
          "name": "F4",
          "midi": 65,
          "time": 391.99960800000025,
          "velocity": 1,
          "duration": 0.9999990000000025
        },
        {
          "name": "D#3",
          "midi": 51,
          "time": 396.99960300000026,
          "velocity": 1,
          "duration": 0.6666660000000206
        },
        {
          "name": "G3",
          "midi": 55,
          "time": 397.6662690000003,
          "velocity": 1,
          "duration": 0.3333329999999819
        },
        {
          "name": "D#3",
          "midi": 51,
          "time": 397.99960200000027,
          "velocity": 1,
          "duration": 0.6666660000000206
        },
        {
          "name": "A#2",
          "midi": 46,
          "time": 398.6662680000003,
          "velocity": 1,
          "duration": 0.3333329999999819
        },
        {
          "name": "F4",
          "midi": 65,
          "time": 398.99960100000027,
          "velocity": 1,
          "duration": 0.9999990000000025
        },
        {
          "name": "A#2",
          "midi": 46,
          "time": 398.99960100000027,
          "velocity": 1,
          "duration": 0.9999990000000025
        },
        {
          "name": "A#3",
          "midi": 58,
          "time": 399.99960000000027,
          "velocity": 1,
          "duration": 0.9999990000000025
        },
        {
          "name": "F4",
          "midi": 65,
          "time": 399.99960000000027,
          "velocity": 1,
          "duration": 0.9999990000000025
        },
        {
          "name": "G3",
          "midi": 55,
          "time": 400.9995990000003,
          "velocity": 1,
          "duration": 0.3333329999999819
        },
        {
          "name": "D#4",
          "midi": 63,
          "time": 400.9995990000003,
          "velocity": 1,
          "duration": 0.3333329999999819
        },
        {
          "name": "F4",
          "midi": 65,
          "time": 410.99958900000024,
          "velocity": 1,
          "duration": 0.6666660000000206
        },
        {
          "name": "A4",
          "midi": 69,
          "time": 411.66625500000026,
          "velocity": 1,
          "duration": 0.3333329999999819
        },
        {
          "name": "F4",
          "midi": 65,
          "time": 411.99958800000024,
          "velocity": 1,
          "duration": 0.6666660000000206
        },
        {
          "name": "C4",
          "midi": 60,
          "time": 412.66625400000027,
          "velocity": 1,
          "duration": 0.3333329999999819
        },
        {
          "name": "F4",
          "midi": 65,
          "time": 412.99958700000025,
          "velocity": 1,
          "duration": 0.3333329999999819
        },
        {
          "name": "A4",
          "midi": 69,
          "time": 413.33292000000023,
          "velocity": 1,
          "duration": 0.3333329999999819
        },
        {
          "name": "C5",
          "midi": 72,
          "time": 413.6662530000002,
          "velocity": 1,
          "duration": 0.3333329999999819
        },
        {
          "name": "C5",
          "midi": 72,
          "time": 413.9995860000002,
          "velocity": 1,
          "duration": 1.3333319999999844
        },
        {
          "name": "C5",
          "midi": 72,
          "time": 415.3329180000002,
          "velocity": 1,
          "duration": 0.3333329999999819
        },
        {
          "name": "C5",
          "midi": 72,
          "time": 415.66625100000016,
          "velocity": 1,
          "duration": 0.3333329999999819
        },
        {
          "name": "C5",
          "midi": 72,
          "time": 415.99958400000014,
          "velocity": 1,
          "duration": 2.9999970000000076
        },
        {
          "name": "C#5",
          "midi": 73,
          "time": 418.99958100000015,
          "velocity": 1,
          "duration": 0.3333329999999819
        },
        {
          "name": "A#2",
          "midi": 46,
          "time": 426.9995730000001,
          "velocity": 1,
          "duration": 4.166662499999973
        },
        {
          "name": "A#3",
          "midi": 58,
          "time": 426.9995730000001,
          "velocity": 1,
          "duration": 4.166662499999973
        },
        {
          "name": "A#2",
          "midi": 46,
          "time": 431.1662355000001,
          "velocity": 1,
          "duration": 0.16666650000001937
        },
        {
          "name": "A#3",
          "midi": 58,
          "time": 431.1662355000001,
          "velocity": 1,
          "duration": 0.16666650000001937
        },
        {
          "name": "A#2",
          "midi": 46,
          "time": 431.3329020000001,
          "velocity": 1,
          "duration": 0.16666650000001937
        },
        {
          "name": "A#3",
          "midi": 58,
          "time": 431.3329020000001,
          "velocity": 1,
          "duration": 0.16666650000001937
        },
        {
          "name": "A#2",
          "midi": 46,
          "time": 431.4995685000001,
          "velocity": 1,
          "duration": 0.16666650000001937
        },
        {
          "name": "A#3",
          "midi": 58,
          "time": 431.4995685000001,
          "velocity": 1,
          "duration": 0.16666650000001937
        },
        {
          "name": "A#3",
          "midi": 58,
          "time": 431.66623500000014,
          "velocity": 1,
          "duration": 0.16666650000001937
        },
        {
          "name": "A#2",
          "midi": 46,
          "time": 431.66623500000014,
          "velocity": 1,
          "duration": 0.16666650000001937
        },
        {
          "name": "A#2",
          "midi": 46,
          "time": 431.83290150000016,
          "velocity": 1,
          "duration": 0.16666650000001937
        },
        {
          "name": "A#3",
          "midi": 58,
          "time": 431.83290150000016,
          "velocity": 1,
          "duration": 0.16666650000001937
        },
        {
          "name": "A#2",
          "midi": 46,
          "time": 431.9995680000002,
          "velocity": 1,
          "duration": 0.16666650000001937
        },
        {
          "name": "A#3",
          "midi": 58,
          "time": 431.9995680000002,
          "velocity": 1,
          "duration": 0.16666650000001937
        },
        {
          "name": "A#2",
          "midi": 46,
          "time": 432.1662345000002,
          "velocity": 1,
          "duration": 0.16666650000001937
        },
        {
          "name": "A#3",
          "midi": 58,
          "time": 432.1662345000002,
          "velocity": 1,
          "duration": 0.16666650000001937
        },
        {
          "name": "A#3",
          "midi": 58,
          "time": 432.3329010000002,
          "velocity": 1,
          "duration": 0.16666650000001937
        },
        {
          "name": "A#2",
          "midi": 46,
          "time": 432.3329010000002,
          "velocity": 1,
          "duration": 0.16666650000001937
        },
        {
          "name": "A#2",
          "midi": 46,
          "time": 432.49956750000024,
          "velocity": 1,
          "duration": 0.16666650000001937
        },
        {
          "name": "A#3",
          "midi": 58,
          "time": 432.49956750000024,
          "velocity": 1,
          "duration": 0.16666650000001937
        },
        {
          "name": "A#3",
          "midi": 58,
          "time": 432.66623400000026,
          "velocity": 1,
          "duration": 0.16666650000001937
        },
        {
          "name": "F4",
          "midi": 65,
          "time": 432.66623400000026,
          "velocity": 1,
          "duration": 0.16666650000001937
        },
        {
          "name": "A#3",
          "midi": 58,
          "time": 432.8329005000003,
          "velocity": 1,
          "duration": 0.16666650000001937
        },
        {
          "name": "F4",
          "midi": 65,
          "time": 432.8329005000003,
          "velocity": 1,
          "duration": 0.16666650000001937
        },
        {
          "name": "G3",
          "midi": 55,
          "time": 432.9995670000003,
          "velocity": 1,
          "duration": 2.333330999999987
        },
        {
          "name": "D#4",
          "midi": 63,
          "time": 432.9995670000003,
          "velocity": 1,
          "duration": 2.333330999999987
        },
        {
          "name": "G3",
          "midi": 55,
          "time": 435.3328980000003,
          "velocity": 1,
          "duration": 0.3333329999999819
        },
        {
          "name": "D#4",
          "midi": 63,
          "time": 435.3328980000003,
          "velocity": 1,
          "duration": 0.3333329999999819
        },
        {
          "name": "G3",
          "midi": 55,
          "time": 435.66623100000027,
          "velocity": 1,
          "duration": 0.3333329999999819
        },
        {
          "name": "D#4",
          "midi": 63,
          "time": 435.66623100000027,
          "velocity": 1,
          "duration": 0.3333329999999819
        },
        {
          "name": "D#4",
          "midi": 63,
          "time": 435.99956400000025,
          "velocity": 1,
          "duration": 0.6666660000000206
        },
        {
          "name": "G3",
          "midi": 55,
          "time": 435.99956400000025,
          "velocity": 1,
          "duration": 0.6666660000000206
        },
        {
          "name": "D#3",
          "midi": 51,
          "time": 437.3328960000003,
          "velocity": 1,
          "duration": 0.3333329999999819
        },
        {
          "name": "D#4",
          "midi": 63,
          "time": 437.3328960000003,
          "velocity": 1,
          "duration": 0.3333329999999819
        },
        {
          "name": "D#3",
          "midi": 51,
          "time": 437.66622900000027,
          "velocity": 1,
          "duration": 0.3333329999999819
        },
        {
          "name": "D#4",
          "midi": 63,
          "time": 437.66622900000027,
          "velocity": 1,
          "duration": 0.3333329999999819
        },
        {
          "name": "D#3",
          "midi": 51,
          "time": 437.99956200000025,
          "velocity": 1,
          "duration": 0.6666660000000206
        },
        {
          "name": "D#4",
          "midi": 63,
          "time": 437.99956200000025,
          "velocity": 1,
          "duration": 0.6666660000000206
        },
        {
          "name": "D#3",
          "midi": 51,
          "time": 438.6662280000003,
          "velocity": 1,
          "duration": 0.3333329999999819
        },
        {
          "name": "D#4",
          "midi": 63,
          "time": 438.6662280000003,
          "velocity": 1,
          "duration": 0.3333329999999819
        },
        {
          "name": "D#4",
          "midi": 63,
          "time": 438.99956100000026,
          "velocity": 1,
          "duration": 0.9999990000000025
        },
        {
          "name": "D#3",
          "midi": 51,
          "time": 438.99956100000026,
          "velocity": 1,
          "duration": 0.9999990000000025
        },
        {
          "name": "D#3",
          "midi": 51,
          "time": 439.99956000000026,
          "velocity": 1,
          "duration": 0.9999990000000025
        },
        {
          "name": "D#4",
          "midi": 63,
          "time": 439.99956000000026,
          "velocity": 1,
          "duration": 0.9999990000000025
        },
        {
          "name": "D#3",
          "midi": 51,
          "time": 440.99955900000026,
          "velocity": 1,
          "duration": 1.3333319999999844
        },
        {
          "name": "D#4",
          "midi": 63,
          "time": 440.99955900000026,
          "velocity": 1,
          "duration": 1.3333319999999844
        },
        {
          "name": "D#4",
          "midi": 63,
          "time": 442.33289100000025,
          "velocity": 1,
          "duration": 0.3333329999999819
        },
        {
          "name": "D#3",
          "midi": 51,
          "time": 442.33289100000025,
          "velocity": 1,
          "duration": 0.3333329999999819
        },
        {
          "name": "D#3",
          "midi": 51,
          "time": 442.6662240000002,
          "velocity": 1,
          "duration": 0.3333329999999819
        },
        {
          "name": "D#4",
          "midi": 63,
          "time": 442.6662240000002,
          "velocity": 1,
          "duration": 0.3333329999999819
        },
        {
          "name": "D#3",
          "midi": 51,
          "time": 442.9995570000002,
          "velocity": 1,
          "duration": 0.6666660000000206
        },
        {
          "name": "D#4",
          "midi": 63,
          "time": 442.9995570000002,
          "velocity": 1,
          "duration": 0.6666660000000206
        },
        {
          "name": "G3",
          "midi": 55,
          "time": 443.66622300000023,
          "velocity": 1,
          "duration": 0.3333329999999819
        },
        {
          "name": "G4",
          "midi": 67,
          "time": 443.66622300000023,
          "velocity": 1,
          "duration": 0.3333329999999819
        },
        {
          "name": "D#3",
          "midi": 51,
          "time": 443.9995560000002,
          "velocity": 1,
          "duration": 0.6666660000000206
        },
        {
          "name": "D#4",
          "midi": 63,
          "time": 443.9995560000002,
          "velocity": 1,
          "duration": 0.6666660000000206
        },
        {
          "name": "A#3",
          "midi": 58,
          "time": 444.66622200000023,
          "velocity": 1,
          "duration": 0.3333329999999819
        },
        {
          "name": "A#2",
          "midi": 46,
          "time": 444.66622200000023,
          "velocity": 1,
          "duration": 0.3333329999999819
        },
        {
          "name": "D#3",
          "midi": 51,
          "time": 444.9995550000002,
          "velocity": 1,
          "duration": 0.3333329999999819
        },
        {
          "name": "D#4",
          "midi": 63,
          "time": 444.9995550000002,
          "velocity": 1,
          "duration": 0.3333329999999819
        },
        {
          "name": "G3",
          "midi": 55,
          "time": 445.3328880000002,
          "velocity": 1,
          "duration": 0.3333329999999819
        },
        {
          "name": "G4",
          "midi": 67,
          "time": 445.3328880000002,
          "velocity": 1,
          "duration": 0.3333329999999819
        },
        {
          "name": "A#3",
          "midi": 58,
          "time": 445.6662210000002,
          "velocity": 1,
          "duration": 0.3333329999999819
        },
        {
          "name": "A#4",
          "midi": 70,
          "time": 445.6662210000002,
          "velocity": 1,
          "duration": 0.3333329999999819
        },
        {
          "name": "D#4",
          "midi": 63,
          "time": 445.99955400000016,
          "velocity": 1,
          "duration": 0.6666660000000206
        },
        {
          "name": "D#3",
          "midi": 51,
          "time": 445.99955400000016,
          "velocity": 1,
          "duration": 0.6666660000000206
        },
        {
          "name": "G3",
          "midi": 55,
          "time": 446.6662200000002,
          "velocity": 1,
          "duration": 0.6666660000000206
        },
        {
          "name": "G4",
          "midi": 67,
          "time": 446.6662200000002,
          "velocity": 1,
          "duration": 0.6666660000000206
        },
        {
          "name": "G3",
          "midi": 55,
          "time": 447.3328860000002,
          "velocity": 1,
          "duration": 0.3333329999999819
        },
        {
          "name": "G4",
          "midi": 67,
          "time": 447.3328860000002,
          "velocity": 1,
          "duration": 0.3333329999999819
        },
        {
          "name": "G3",
          "midi": 55,
          "time": 447.6662190000002,
          "velocity": 1,
          "duration": 0.3333329999999819
        },
        {
          "name": "G4",
          "midi": 67,
          "time": 447.6662190000002,
          "velocity": 1,
          "duration": 0.3333329999999819
        },
        {
          "name": "G4",
          "midi": 67,
          "time": 447.99955200000016,
          "velocity": 1,
          "duration": 0.6666660000000206
        },
        {
          "name": "G3",
          "midi": 55,
          "time": 447.99955200000016,
          "velocity": 1,
          "duration": 0.6666660000000206
        },
        {
          "name": "G3",
          "midi": 55,
          "time": 448.6662180000002,
          "velocity": 1,
          "duration": 0.3333329999999819
        },
        {
          "name": "G4",
          "midi": 67,
          "time": 448.6662180000002,
          "velocity": 1,
          "duration": 0.3333329999999819
        },
        {
          "name": "F4",
          "midi": 65,
          "time": 448.99955100000017,
          "velocity": 1,
          "duration": 0.9999990000000025
        },
        {
          "name": "D#4",
          "midi": 63,
          "time": 449.99955000000017,
          "velocity": 1,
          "duration": 0.9999990000000025
        },
        {
          "name": "F4",
          "midi": 65,
          "time": 449.99955000000017,
          "velocity": 1,
          "duration": 0.9999990000000025
        },
        {
          "name": "F4",
          "midi": 65,
          "time": 450.9995490000002,
          "velocity": 1,
          "duration": 0.3333329999999819
        },
        {
          "name": "A#3",
          "midi": 58,
          "time": 450.9995490000002,
          "velocity": 1,
          "duration": 0.3333329999999819
        },
        {
          "name": "A#2",
          "midi": 46,
          "time": 451.33288200000015,
          "velocity": 1,
          "duration": 2.9999970000000076
        },
        {
          "name": "A#3",
          "midi": 58,
          "time": 451.33288200000015,
          "velocity": 1,
          "duration": 2.9999970000000076
        },
        {
          "name": "A#2",
          "midi": 46,
          "time": 454.33287900000016,
          "velocity": 1,
          "duration": 0.3333329999999819
        },
        {
          "name": "A#3",
          "midi": 58,
          "time": 454.33287900000016,
          "velocity": 1,
          "duration": 0.3333329999999819
        },
        {
          "name": "A#2",
          "midi": 46,
          "time": 454.66621200000014,
          "velocity": 1,
          "duration": 0.3333329999999819
        },
        {
          "name": "A#3",
          "midi": 58,
          "time": 454.66621200000014,
          "velocity": 1,
          "duration": 0.3333329999999819
        },
        {
          "name": "A#2",
          "midi": 46,
          "time": 454.9995450000001,
          "velocity": 1,
          "duration": 2.333330999999987
        },
        {
          "name": "A#3",
          "midi": 58,
          "time": 454.9995450000001,
          "velocity": 1,
          "duration": 2.333330999999987
        },
        {
          "name": "G3",
          "midi": 55,
          "time": 457.3328760000001,
          "velocity": 1,
          "duration": 0.49999950000000126
        },
        {
          "name": "G4",
          "midi": 67,
          "time": 457.3328760000001,
          "velocity": 1,
          "duration": 0.49999950000000126
        },
        {
          "name": "D#3",
          "midi": 51,
          "time": 457.8328755000001,
          "velocity": 1,
          "duration": 0.16666650000001937
        },
        {
          "name": "D#4",
          "midi": 63,
          "time": 457.8328755000001,
          "velocity": 1,
          "duration": 0.16666650000001937
        },
        {
          "name": "A#2",
          "midi": 46,
          "time": 457.99954200000013,
          "velocity": 1,
          "duration": 0.3333329999999819
        },
        {
          "name": "A#3",
          "midi": 58,
          "time": 457.99954200000013,
          "velocity": 1,
          "duration": 0.3333329999999819
        },
        {
          "name": "A#3",
          "midi": 58,
          "time": 458.3328750000001,
          "velocity": 1,
          "duration": 0.3333329999999819
        },
        {
          "name": "A#2",
          "midi": 46,
          "time": 458.3328750000001,
          "velocity": 1,
          "duration": 0.3333329999999819
        },
        {
          "name": "A#2",
          "midi": 46,
          "time": 458.6662080000001,
          "velocity": 1,
          "duration": 0.3333329999999819
        },
        {
          "name": "A#3",
          "midi": 58,
          "time": 458.6662080000001,
          "velocity": 1,
          "duration": 0.3333329999999819
        },
        {
          "name": "A#2",
          "midi": 46,
          "time": 458.9995410000001,
          "velocity": 1,
          "duration": 2.333330999999987
        },
        {
          "name": "A#3",
          "midi": 58,
          "time": 458.9995410000001,
          "velocity": 1,
          "duration": 2.333330999999987
        },
        {
          "name": "A#2",
          "midi": 46,
          "time": 461.33287200000007,
          "velocity": 1,
          "duration": 0.49999950000000126
        },
        {
          "name": "A#3",
          "midi": 58,
          "time": 461.33287200000007,
          "velocity": 1,
          "duration": 0.49999950000000126
        },
        {
          "name": "A#2",
          "midi": 46,
          "time": 461.83287150000007,
          "velocity": 1,
          "duration": 0.16666650000001937
        },
        {
          "name": "A#3",
          "midi": 58,
          "time": 461.83287150000007,
          "velocity": 1,
          "duration": 0.16666650000001937
        },
        {
          "name": "A#2",
          "midi": 46,
          "time": 461.9995380000001,
          "velocity": 1,
          "duration": 0.3333329999999819
        },
        {
          "name": "A#3",
          "midi": 58,
          "time": 461.9995380000001,
          "velocity": 1,
          "duration": 0.3333329999999819
        },
        {
          "name": "A#2",
          "midi": 46,
          "time": 462.33287100000007,
          "velocity": 1,
          "duration": 0.3333329999999819
        },
        {
          "name": "A#3",
          "midi": 58,
          "time": 462.33287100000007,
          "velocity": 1,
          "duration": 0.3333329999999819
        },
        {
          "name": "A#3",
          "midi": 58,
          "time": 462.66620400000005,
          "velocity": 1,
          "duration": 0.3333329999999819
        },
        {
          "name": "A#2",
          "midi": 46,
          "time": 462.66620400000005,
          "velocity": 1,
          "duration": 0.3333329999999819
        },
        {
          "name": "D#3",
          "midi": 51,
          "time": 462.99953700000003,
          "velocity": 1,
          "duration": 1.999998000000005
        },
        {
          "name": "D#4",
          "midi": 63,
          "time": 462.99953700000003,
          "velocity": 1,
          "duration": 2.333330999999987
        },
        {
          "name": "D#3",
          "midi": 51,
          "time": 464.99953500000004,
          "velocity": 1,
          "duration": 0.3333329999999819
        },
        {
          "name": "A#4",
          "midi": 70,
          "time": 465.332868,
          "velocity": 1,
          "duration": 0.3333329999999819
        },
        {
          "name": "A#3",
          "midi": 58,
          "time": 465.332868,
          "velocity": 1,
          "duration": 0.3333329999999819
        },
        {
          "name": "A#3",
          "midi": 58,
          "time": 465.666201,
          "velocity": 1,
          "duration": 0.3333329999999819
        },
        {
          "name": "A#4",
          "midi": 70,
          "time": 465.666201,
          "velocity": 1,
          "duration": 0.3333329999999819
        },
        {
          "name": "A#3",
          "midi": 58,
          "time": 465.999534,
          "velocity": 1,
          "duration": 0.3333329999999819
        },
        {
          "name": "A#4",
          "midi": 70,
          "time": 465.999534,
          "velocity": 1,
          "duration": 0.3333329999999819
        },
        {
          "name": "A#3",
          "midi": 58,
          "time": 466.33286699999996,
          "velocity": 1,
          "duration": 0.3333329999999819
        },
        {
          "name": "A#4",
          "midi": 70,
          "time": 466.33286699999996,
          "velocity": 1,
          "duration": 0.3333329999999819
        },
        {
          "name": "A#3",
          "midi": 58,
          "time": 466.66619999999995,
          "velocity": 1,
          "duration": 0.3333329999999819
        },
        {
          "name": "A#4",
          "midi": 70,
          "time": 466.66619999999995,
          "velocity": 1,
          "duration": 0.3333329999999819
        },
        {
          "name": "A#4",
          "midi": 70,
          "time": 466.99953299999993,
          "velocity": 1,
          "duration": 0.3333329999999819
        },
        {
          "name": "A#3",
          "midi": 58,
          "time": 466.99953299999993,
          "velocity": 1,
          "duration": 0.3333329999999819
        },
        {
          "name": "F4",
          "midi": 65,
          "time": 470.99952899999994,
          "velocity": 1,
          "duration": 0.3333329999999819
        },
        {
          "name": "G#4",
          "midi": 68,
          "time": 470.99952899999994,
          "velocity": 1,
          "duration": 0.3333329999999819
        },
        {
          "name": "F4",
          "midi": 65,
          "time": 471.3328619999999,
          "velocity": 1,
          "duration": 0.3333329999999819
        },
        {
          "name": "G#4",
          "midi": 68,
          "time": 471.3328619999999,
          "velocity": 1,
          "duration": 0.3333329999999819
        },
        {
          "name": "F4",
          "midi": 65,
          "time": 472.8328604999999,
          "velocity": 1,
          "duration": 0.16666650000001937
        },
        {
          "name": "G#4",
          "midi": 68,
          "time": 472.8328604999999,
          "velocity": 1,
          "duration": 0.16666650000001937
        },
        {
          "name": "G4",
          "midi": 67,
          "time": 472.99952699999994,
          "velocity": 1,
          "duration": 0.3333329999999819
        },
        {
          "name": "D#4",
          "midi": 63,
          "time": 472.99952699999994,
          "velocity": 1,
          "duration": 0.3333329999999819
        },
        {
          "name": "D#4",
          "midi": 63,
          "time": 473.3328599999999,
          "velocity": 1,
          "duration": 0.3333329999999819
        },
        {
          "name": "G4",
          "midi": 67,
          "time": 473.3328599999999,
          "velocity": 1,
          "duration": 0.3333329999999819
        },
        {
          "name": "G3",
          "midi": 55,
          "time": 474.83285849999993,
          "velocity": 1,
          "duration": 0.16666650000001937
        },
        {
          "name": "G4",
          "midi": 67,
          "time": 474.83285849999993,
          "velocity": 1,
          "duration": 0.16666650000001937
        },
        {
          "name": "G3",
          "midi": 55,
          "time": 474.99952499999995,
          "velocity": 1,
          "duration": 0.3333329999999819
        },
        {
          "name": "G4",
          "midi": 67,
          "time": 474.99952499999995,
          "velocity": 1,
          "duration": 0.3333329999999819
        },
        {
          "name": "G4",
          "midi": 67,
          "time": 475.33285799999993,
          "velocity": 1,
          "duration": 0.3333329999999819
        },
        {
          "name": "G3",
          "midi": 55,
          "time": 475.33285799999993,
          "velocity": 1,
          "duration": 0.3333329999999819
        },
        {
          "name": "G3",
          "midi": 55,
          "time": 476.6661899999999,
          "velocity": 1,
          "duration": 0.16666650000001937
        },
        {
          "name": "G3",
          "midi": 55,
          "time": 476.83285649999993,
          "velocity": 1,
          "duration": 0.16666650000001937
        },
        {
          "name": "G4",
          "midi": 67,
          "time": 476.83285649999993,
          "velocity": 1,
          "duration": 0.16666650000001937
        },
        {
          "name": "F4",
          "midi": 65,
          "time": 476.99952299999995,
          "velocity": 1,
          "duration": 0.3333329999999819
        },
        {
          "name": "G#4",
          "midi": 68,
          "time": 476.99952299999995,
          "velocity": 1,
          "duration": 0.3333329999999819
        },
        {
          "name": "D#3",
          "midi": 51,
          "time": 479.33285399999994,
          "velocity": 1,
          "duration": 0.3333329999999819
        },
        {
          "name": "D#4",
          "midi": 63,
          "time": 479.33285399999994,
          "velocity": 1,
          "duration": 0.3333329999999819
        },
        {
          "name": "D#4",
          "midi": 63,
          "time": 479.6661869999999,
          "velocity": 1,
          "duration": 0.3333329999999819
        },
        {
          "name": "D#3",
          "midi": 51,
          "time": 479.6661869999999,
          "velocity": 1,
          "duration": 0.3333329999999819
        },
        {
          "name": "D#3",
          "midi": 51,
          "time": 479.9995199999999,
          "velocity": 1,
          "duration": 0.3333329999999819
        },
        {
          "name": "D#4",
          "midi": 63,
          "time": 479.9995199999999,
          "velocity": 1,
          "duration": 0.3333329999999819
        },
        {
          "name": "D#3",
          "midi": 51,
          "time": 480.3328529999999,
          "velocity": 1,
          "duration": 0.3333329999999819
        },
        {
          "name": "D#4",
          "midi": 63,
          "time": 480.3328529999999,
          "velocity": 1,
          "duration": 0.3333329999999819
        },
        {
          "name": "D#3",
          "midi": 51,
          "time": 480.66618599999987,
          "velocity": 1,
          "duration": 0.3333329999999819
        },
        {
          "name": "D#4",
          "midi": 63,
          "time": 480.66618599999987,
          "velocity": 1,
          "duration": 0.3333329999999819
        },
        {
          "name": "D#3",
          "midi": 51,
          "time": 480.99951899999985,
          "velocity": 1,
          "duration": 0.3333329999999819
        },
        {
          "name": "D#4",
          "midi": 63,
          "time": 480.99951899999985,
          "velocity": 1,
          "duration": 0.3333329999999819
        },
        {
          "name": "D#4",
          "midi": 63,
          "time": 484.33284899999984,
          "velocity": 1,
          "duration": 0.3333329999999819
        },
        {
          "name": "G3",
          "midi": 55,
          "time": 484.33284899999984,
          "velocity": 1,
          "duration": 0.3333329999999819
        },
        {
          "name": "G3",
          "midi": 55,
          "time": 484.6661819999998,
          "velocity": 1,
          "duration": 0.3333329999999819
        },
        {
          "name": "D#4",
          "midi": 63,
          "time": 484.6661819999998,
          "velocity": 1,
          "duration": 0.3333329999999819
        },
        {
          "name": "A#2",
          "midi": 46,
          "time": 484.9995149999998,
          "velocity": 1,
          "duration": 1.999998000000005
        },
        {
          "name": "A#3",
          "midi": 58,
          "time": 484.9995149999998,
          "velocity": 1,
          "duration": 1.999998000000005
        },
        {
          "name": "A#3",
          "midi": 58,
          "time": 486.9995129999998,
          "velocity": 1,
          "duration": 0.16666650000001937
        },
        {
          "name": "A#2",
          "midi": 46,
          "time": 486.9995129999998,
          "velocity": 1,
          "duration": 0.16666650000001937
        },
        {
          "name": "A#2",
          "midi": 46,
          "time": 487.1661794999998,
          "velocity": 1,
          "duration": 0.16666650000001937
        },
        {
          "name": "A#3",
          "midi": 58,
          "time": 487.1661794999998,
          "velocity": 1,
          "duration": 0.16666650000001937
        },
        {
          "name": "A#2",
          "midi": 46,
          "time": 487.33284599999985,
          "velocity": 1,
          "duration": 0.16666650000001937
        },
        {
          "name": "A#3",
          "midi": 58,
          "time": 487.33284599999985,
          "velocity": 1,
          "duration": 0.16666650000001937
        },
        {
          "name": "A#2",
          "midi": 46,
          "time": 487.49951249999987,
          "velocity": 1,
          "duration": 0.16666650000001937
        },
        {
          "name": "A#3",
          "midi": 58,
          "time": 487.49951249999987,
          "velocity": 1,
          "duration": 0.16666650000001937
        },
        {
          "name": "A#2",
          "midi": 46,
          "time": 487.6661789999999,
          "velocity": 1,
          "duration": 0.16666650000001937
        },
        {
          "name": "A#3",
          "midi": 58,
          "time": 487.6661789999999,
          "velocity": 1,
          "duration": 0.16666650000001937
        },
        {
          "name": "A#3",
          "midi": 58,
          "time": 487.8328454999999,
          "velocity": 1,
          "duration": 0.16666650000001937
        },
        {
          "name": "A#2",
          "midi": 46,
          "time": 487.8328454999999,
          "velocity": 1,
          "duration": 0.16666650000001937
        },
        {
          "name": "A#2",
          "midi": 46,
          "time": 487.9995119999999,
          "velocity": 1,
          "duration": 0.16666650000001937
        },
        {
          "name": "A#3",
          "midi": 58,
          "time": 487.9995119999999,
          "velocity": 1,
          "duration": 0.16666650000001937
        },
        {
          "name": "A#2",
          "midi": 46,
          "time": 488.16617849999994,
          "velocity": 1,
          "duration": 0.16666650000001937
        },
        {
          "name": "A#3",
          "midi": 58,
          "time": 488.16617849999994,
          "velocity": 1,
          "duration": 0.16666650000001937
        },
        {
          "name": "A#2",
          "midi": 46,
          "time": 488.33284499999996,
          "velocity": 1,
          "duration": 0.16666650000001937
        },
        {
          "name": "A#3",
          "midi": 58,
          "time": 488.33284499999996,
          "velocity": 1,
          "duration": 0.16666650000001937
        },
        {
          "name": "A#3",
          "midi": 58,
          "time": 488.4995115,
          "velocity": 1,
          "duration": 0.16666650000001937
        },
        {
          "name": "A#2",
          "midi": 46,
          "time": 488.4995115,
          "velocity": 1,
          "duration": 0.16666650000001937
        },
        {
          "name": "A#2",
          "midi": 46,
          "time": 488.666178,
          "velocity": 1,
          "duration": 0.16666650000001937
        },
        {
          "name": "A#3",
          "midi": 58,
          "time": 488.666178,
          "velocity": 1,
          "duration": 0.16666650000001937
        },
        {
          "name": "A#2",
          "midi": 46,
          "time": 488.8328445,
          "velocity": 1,
          "duration": 0.16666650000001937
        },
        {
          "name": "A#3",
          "midi": 58,
          "time": 488.8328445,
          "velocity": 1,
          "duration": 0.16666650000001937
        },
        {
          "name": "D#3",
          "midi": 51,
          "time": 488.99951100000004,
          "velocity": 1,
          "duration": 0.3333329999999819
        },
        {
          "name": "D#4",
          "midi": 63,
          "time": 488.99951100000004,
          "velocity": 1,
          "duration": 0.3333329999999819
        },
        {
          "name": "G#4",
          "midi": 68,
          "time": 499.33283400000005,
          "velocity": 1,
          "duration": 0.3333329999999819
        },
        {
          "name": "G#4",
          "midi": 68,
          "time": 499.66616700000003,
          "velocity": 1,
          "duration": 0.3333329999999819
        },
        {
          "name": "G#4",
          "midi": 68,
          "time": 499.9995,
          "velocity": 1,
          "duration": 0.9999990000000025
        },
        {
          "name": "F4",
          "midi": 65,
          "time": 504.666162,
          "velocity": 1,
          "duration": 0.3333329999999819
        },
        {
          "name": "A#3",
          "midi": 58,
          "time": 504.99949499999997,
          "velocity": 1,
          "duration": 0.3333329999999819
        },
        {
          "name": "F4",
          "midi": 65,
          "time": 504.99949499999997,
          "velocity": 1,
          "duration": 0.3333329999999819
        },
        {
          "name": "A#3",
          "midi": 58,
          "time": 508.9994909999999,
          "velocity": 1,
          "duration": 4.1666625000000295
        },
        {
          "name": "A#2",
          "midi": 46,
          "time": 508.9994909999999,
          "velocity": 1,
          "duration": 4.1666625000000295
        },
        {
          "name": "A#3",
          "midi": 58,
          "time": 513.1661535,
          "velocity": 1,
          "duration": 0.16666650000001937
        },
        {
          "name": "A#2",
          "midi": 46,
          "time": 513.1661535,
          "velocity": 1,
          "duration": 0.16666650000001937
        },
        {
          "name": "A#4",
          "midi": 70,
          "time": 513.1661535,
          "velocity": 1,
          "duration": 0.16666650000001937
        },
        {
          "name": "A#4",
          "midi": 70,
          "time": 513.33282,
          "velocity": 1,
          "duration": 0.16666650000001937
        },
        {
          "name": "A#2",
          "midi": 46,
          "time": 513.33282,
          "velocity": 1,
          "duration": 0.16666650000001937
        },
        {
          "name": "A#3",
          "midi": 58,
          "time": 513.33282,
          "velocity": 1,
          "duration": 0.16666650000001937
        },
        {
          "name": "A#4",
          "midi": 70,
          "time": 513.4994865,
          "velocity": 1,
          "duration": 0.16666650000001937
        },
        {
          "name": "A#2",
          "midi": 46,
          "time": 513.4994865,
          "velocity": 1,
          "duration": 0.16666650000001937
        },
        {
          "name": "A#3",
          "midi": 58,
          "time": 513.4994865,
          "velocity": 1,
          "duration": 0.16666650000001937
        },
        {
          "name": "A#3",
          "midi": 58,
          "time": 513.666153,
          "velocity": 1,
          "duration": 0.16666650000001937
        },
        {
          "name": "A#2",
          "midi": 46,
          "time": 513.666153,
          "velocity": 1,
          "duration": 0.16666650000001937
        },
        {
          "name": "A#4",
          "midi": 70,
          "time": 513.666153,
          "velocity": 1,
          "duration": 0.16666650000001937
        },
        {
          "name": "A#4",
          "midi": 70,
          "time": 513.8328195,
          "velocity": 1,
          "duration": 0.16666650000001937
        },
        {
          "name": "A#2",
          "midi": 46,
          "time": 513.8328195,
          "velocity": 1,
          "duration": 0.16666650000001937
        },
        {
          "name": "A#3",
          "midi": 58,
          "time": 513.8328195,
          "velocity": 1,
          "duration": 0.16666650000001937
        },
        {
          "name": "A#4",
          "midi": 70,
          "time": 513.999486,
          "velocity": 1,
          "duration": 0.16666650000001937
        },
        {
          "name": "A#2",
          "midi": 46,
          "time": 513.999486,
          "velocity": 1,
          "duration": 0.16666650000001937
        },
        {
          "name": "A#3",
          "midi": 58,
          "time": 513.999486,
          "velocity": 1,
          "duration": 0.16666650000001937
        },
        {
          "name": "A#4",
          "midi": 70,
          "time": 514.1661525000001,
          "velocity": 1,
          "duration": 0.16666650000001937
        },
        {
          "name": "A#2",
          "midi": 46,
          "time": 514.1661525000001,
          "velocity": 1,
          "duration": 0.16666650000001937
        },
        {
          "name": "A#3",
          "midi": 58,
          "time": 514.1661525000001,
          "velocity": 1,
          "duration": 0.16666650000001937
        },
        {
          "name": "A#4",
          "midi": 70,
          "time": 514.3328190000001,
          "velocity": 1,
          "duration": 0.16666650000001937
        },
        {
          "name": "A#2",
          "midi": 46,
          "time": 514.3328190000001,
          "velocity": 1,
          "duration": 0.16666650000001937
        },
        {
          "name": "A#3",
          "midi": 58,
          "time": 514.3328190000001,
          "velocity": 1,
          "duration": 0.16666650000001937
        },
        {
          "name": "A#3",
          "midi": 58,
          "time": 514.4994855000001,
          "velocity": 1,
          "duration": 0.16666650000001937
        },
        {
          "name": "A#2",
          "midi": 46,
          "time": 514.4994855000001,
          "velocity": 1,
          "duration": 0.16666650000001937
        },
        {
          "name": "A#4",
          "midi": 70,
          "time": 514.4994855000001,
          "velocity": 1,
          "duration": 0.16666650000001937
        },
        {
          "name": "A#4",
          "midi": 70,
          "time": 514.6661520000001,
          "velocity": 1,
          "duration": 0.16666650000001937
        },
        {
          "name": "A#2",
          "midi": 46,
          "time": 514.6661520000001,
          "velocity": 1,
          "duration": 0.16666650000001937
        },
        {
          "name": "A#3",
          "midi": 58,
          "time": 514.6661520000001,
          "velocity": 1,
          "duration": 0.16666650000001937
        },
        {
          "name": "A#4",
          "midi": 70,
          "time": 514.8328185000001,
          "velocity": 1,
          "duration": 0.16666650000001937
        },
        {
          "name": "A#2",
          "midi": 46,
          "time": 514.8328185000001,
          "velocity": 1,
          "duration": 0.16666650000001937
        },
        {
          "name": "A#3",
          "midi": 58,
          "time": 514.8328185000001,
          "velocity": 1,
          "duration": 0.16666650000001937
        },
        {
          "name": "A#3",
          "midi": 58,
          "time": 514.9994850000002,
          "velocity": 1,
          "duration": 0.33333300000003874
        },
        {
          "name": "A#2",
          "midi": 46,
          "time": 514.9994850000002,
          "velocity": 1,
          "duration": 0.33333300000003874
        },
        {
          "name": "G4",
          "midi": 67,
          "time": 515.3328180000002,
          "velocity": 1,
          "duration": 0.6666659999999638
        },
        {
          "name": "A#2",
          "midi": 46,
          "time": 515.3328180000002,
          "velocity": 1,
          "duration": 0.6666659999999638
        },
        {
          "name": "D#4",
          "midi": 63,
          "time": 515.3328180000002,
          "velocity": 1,
          "duration": 0.6666659999999638
        },
        {
          "name": "G4",
          "midi": 67,
          "time": 516.3328170000002,
          "velocity": 1,
          "duration": 0.6666659999999638
        },
        {
          "name": "A#2",
          "midi": 46,
          "time": 516.3328170000002,
          "velocity": 1,
          "duration": 0.6666659999999638
        },
        {
          "name": "D#4",
          "midi": 63,
          "time": 516.3328170000002,
          "velocity": 1,
          "duration": 0.6666659999999638
        },
        {
          "name": "F4",
          "midi": 65,
          "time": 517.3328160000002,
          "velocity": 1,
          "duration": 0.6666659999999638
        },
        {
          "name": "A#2",
          "midi": 46,
          "time": 517.3328160000002,
          "velocity": 1,
          "duration": 0.6666659999999638
        },
        {
          "name": "G#4",
          "midi": 68,
          "time": 517.3328160000002,
          "velocity": 1,
          "duration": 0.6666659999999638
        },
        {
          "name": "F4",
          "midi": 65,
          "time": 518.3328150000002,
          "velocity": 1,
          "duration": 0.33333300000003874
        },
        {
          "name": "A#2",
          "midi": 46,
          "time": 518.3328150000002,
          "velocity": 1,
          "duration": 0.33333300000003874
        },
        {
          "name": "A#3",
          "midi": 58,
          "time": 518.3328150000002,
          "velocity": 1,
          "duration": 0.33333300000003874
        },
        {
          "name": "F4",
          "midi": 65,
          "time": 518.6661480000002,
          "velocity": 1,
          "duration": 0.33333300000003874
        },
        {
          "name": "A#2",
          "midi": 46,
          "time": 518.6661480000002,
          "velocity": 1,
          "duration": 0.33333300000003874
        },
        {
          "name": "A#3",
          "midi": 58,
          "time": 518.6661480000002,
          "velocity": 1,
          "duration": 0.33333300000003874
        },
        {
          "name": "D#4",
          "midi": 63,
          "time": 518.9994810000003,
          "velocity": 1,
          "duration": 0.33333300000003874
        },
        {
          "name": "D#3",
          "midi": 51,
          "time": 518.9994810000003,
          "velocity": 1,
          "duration": 0.33333300000003874
        },
        {
          "name": "G4",
          "midi": 67,
          "time": 518.9994810000003,
          "velocity": 1,
          "duration": 0.33333300000003874
        },
        {
          "name": "A#4",
          "midi": 70,
          "time": 519.3328140000003,
          "velocity": 1,
          "duration": 0.4999994999999444
        },
        {
          "name": "A#3",
          "midi": 58,
          "time": 519.3328140000003,
          "velocity": 1,
          "duration": 0.4999994999999444
        },
        {
          "name": "G4",
          "midi": 67,
          "time": 519.8328135000003,
          "velocity": 1,
          "duration": 0.16666650000001937
        },
        {
          "name": "G3",
          "midi": 55,
          "time": 519.8328135000003,
          "velocity": 1,
          "duration": 0.16666650000001937
        },
        {
          "name": "A#4",
          "midi": 70,
          "time": 519.8328135000003,
          "velocity": 1,
          "duration": 0.16666650000001937
        },
        {
          "name": "A#4",
          "midi": 70,
          "time": 519.9994800000003,
          "velocity": 1,
          "duration": 0.33333300000003874
        },
        {
          "name": "D#3",
          "midi": 51,
          "time": 519.9994800000003,
          "velocity": 1,
          "duration": 0.33333300000003874
        },
        {
          "name": "D#4",
          "midi": 63,
          "time": 519.9994800000003,
          "velocity": 1,
          "duration": 0.33333300000003874
        },
        {
          "name": "G4",
          "midi": 67,
          "time": 520.3328130000003,
          "velocity": 1,
          "duration": 0.4999994999999444
        },
        {
          "name": "G3",
          "midi": 55,
          "time": 520.3328130000003,
          "velocity": 1,
          "duration": 0.4999994999999444
        },
        {
          "name": "A#4",
          "midi": 70,
          "time": 520.3328130000003,
          "velocity": 1,
          "duration": 0.4999994999999444
        },
        {
          "name": "A#3",
          "midi": 58,
          "time": 520.8328125000003,
          "velocity": 1,
          "duration": 0.16666650000001937
        },
        {
          "name": "A#2",
          "midi": 46,
          "time": 520.8328125000003,
          "velocity": 1,
          "duration": 0.16666650000001937
        },
        {
          "name": "A#4",
          "midi": 70,
          "time": 520.8328125000003,
          "velocity": 1,
          "duration": 0.16666650000001937
        },
        {
          "name": "F4",
          "midi": 65,
          "time": 520.9994790000003,
          "velocity": 1,
          "duration": 0.33333300000003874
        },
        {
          "name": "A#2",
          "midi": 46,
          "time": 520.9994790000003,
          "velocity": 1,
          "duration": 0.33333300000003874
        },
        {
          "name": "G#4",
          "midi": 68,
          "time": 521.3328120000003,
          "velocity": 1,
          "duration": 0.4999994999999444
        },
        {
          "name": "A#2",
          "midi": 46,
          "time": 521.3328120000003,
          "velocity": 1,
          "duration": 0.4999994999999444
        },
        {
          "name": "A#3",
          "midi": 58,
          "time": 521.8328115000003,
          "velocity": 1,
          "duration": 0.16666650000001937
        },
        {
          "name": "A#2",
          "midi": 46,
          "time": 521.8328115000003,
          "velocity": 1,
          "duration": 0.16666650000001937
        },
        {
          "name": "F4",
          "midi": 65,
          "time": 521.9994780000003,
          "velocity": 1,
          "duration": 0.33333300000003874
        },
        {
          "name": "A#2",
          "midi": 46,
          "time": 521.9994780000003,
          "velocity": 1,
          "duration": 0.33333300000003874
        },
        {
          "name": "F4",
          "midi": 65,
          "time": 522.3328110000003,
          "velocity": 1,
          "duration": 0.4999994999999444
        },
        {
          "name": "A#2",
          "midi": 46,
          "time": 522.3328110000003,
          "velocity": 1,
          "duration": 0.4999994999999444
        },
        {
          "name": "A#3",
          "midi": 58,
          "time": 522.8328105000003,
          "velocity": 1,
          "duration": 0.16666650000001937
        },
        {
          "name": "A#2",
          "midi": 46,
          "time": 522.8328105000003,
          "velocity": 1,
          "duration": 0.16666650000001937
        },
        {
          "name": "D#4",
          "midi": 63,
          "time": 522.9994770000003,
          "velocity": 1,
          "duration": 1.3333320000000413
        },
        {
          "name": "D#3",
          "midi": 51,
          "time": 522.9994770000003,
          "velocity": 1,
          "duration": 1.3333320000000413
        },
        {
          "name": "F4",
          "midi": 65,
          "time": 527.8328055000003,
          "velocity": 1,
          "duration": 0.16666650000001937
        },
        {
          "name": "G3",
          "midi": 55,
          "time": 527.8328055000003,
          "velocity": 1,
          "duration": 0.16666650000001937
        },
        {
          "name": "G4",
          "midi": 67,
          "time": 527.8328055000003,
          "velocity": 1,
          "duration": 0.16666650000001937
        },
        {
          "name": "G4",
          "midi": 67,
          "time": 527.9994720000003,
          "velocity": 1,
          "duration": 0.16666650000001937
        },
        {
          "name": "G3",
          "midi": 55,
          "time": 527.9994720000003,
          "velocity": 1,
          "duration": 0.16666650000001937
        },
        {
          "name": "D#4",
          "midi": 63,
          "time": 527.9994720000003,
          "velocity": 1,
          "duration": 0.16666650000001937
        },
        {
          "name": "G4",
          "midi": 67,
          "time": 528.1661385000003,
          "velocity": 1,
          "duration": 0.16666650000001937
        },
        {
          "name": "G3",
          "midi": 55,
          "time": 528.1661385000003,
          "velocity": 1,
          "duration": 0.16666650000001937
        },
        {
          "name": "F4",
          "midi": 65,
          "time": 528.1661385000003,
          "velocity": 1,
          "duration": 0.16666650000001937
        },
        {
          "name": "D#4",
          "midi": 63,
          "time": 528.3328050000003,
          "velocity": 1,
          "duration": 0.16666650000001937
        },
        {
          "name": "G3",
          "midi": 55,
          "time": 528.3328050000003,
          "velocity": 1,
          "duration": 0.16666650000001937
        },
        {
          "name": "G4",
          "midi": 67,
          "time": 528.3328050000003,
          "velocity": 1,
          "duration": 0.16666650000001937
        },
        {
          "name": "G4",
          "midi": 67,
          "time": 528.4994715000004,
          "velocity": 1,
          "duration": 0.16666650000001937
        },
        {
          "name": "G3",
          "midi": 55,
          "time": 528.4994715000004,
          "velocity": 1,
          "duration": 0.16666650000001937
        },
        {
          "name": "G4",
          "midi": 67,
          "time": 528.6661380000004,
          "velocity": 1,
          "duration": 0.16666650000001937
        },
        {
          "name": "G3",
          "midi": 55,
          "time": 528.6661380000004,
          "velocity": 1,
          "duration": 0.16666650000001937
        },
        {
          "name": "G4",
          "midi": 67,
          "time": 528.8328045000004,
          "velocity": 1,
          "duration": 0.16666650000001937
        },
        {
          "name": "G3",
          "midi": 55,
          "time": 528.8328045000004,
          "velocity": 1,
          "duration": 0.16666650000001937
        },
        {
          "name": "G4",
          "midi": 67,
          "time": 528.9994710000004,
          "velocity": 1,
          "duration": 0.33333300000003874
        },
        {
          "name": "G3",
          "midi": 55,
          "time": 528.9994710000004,
          "velocity": 1,
          "duration": 0.33333300000003874
        },
        {
          "name": "G4",
          "midi": 67,
          "time": 529.3328040000005,
          "velocity": 1,
          "duration": 0.33333300000003874
        },
        {
          "name": "G3",
          "midi": 55,
          "time": 529.3328040000005,
          "velocity": 1,
          "duration": 0.33333300000003874
        },
        {
          "name": "F4",
          "midi": 65,
          "time": 529.3328040000005,
          "velocity": 1,
          "duration": 0.33333300000003874
        },
        {
          "name": "D#4",
          "midi": 63,
          "time": 529.6661370000005,
          "velocity": 1,
          "duration": 0.33333300000003874
        },
        {
          "name": "G3",
          "midi": 55,
          "time": 529.6661370000005,
          "velocity": 1,
          "duration": 0.33333300000003874
        },
        {
          "name": "G4",
          "midi": 67,
          "time": 529.6661370000005,
          "velocity": 1,
          "duration": 0.33333300000003874
        },
        {
          "name": "D#4",
          "midi": 63,
          "time": 530.3328030000006,
          "velocity": 1,
          "duration": 0.33333300000003874
        },
        {
          "name": "D#3",
          "midi": 51,
          "time": 530.3328030000006,
          "velocity": 1,
          "duration": 0.33333300000003874
        },
        {
          "name": "C#4",
          "midi": 61,
          "time": 530.3328030000006,
          "velocity": 1,
          "duration": 0.33333300000003874
        },
        {
          "name": "D#4",
          "midi": 63,
          "time": 530.6661360000006,
          "velocity": 1,
          "duration": 0.33333300000003874
        },
        {
          "name": "D#3",
          "midi": 51,
          "time": 530.6661360000006,
          "velocity": 1,
          "duration": 0.33333300000003874
        },
        {
          "name": "C4",
          "midi": 60,
          "time": 530.6661360000006,
          "velocity": 1,
          "duration": 0.33333300000003874
        },
        {
          "name": "D#4",
          "midi": 63,
          "time": 531.3328020000007,
          "velocity": 1,
          "duration": 0.33333300000003874
        },
        {
          "name": "D#3",
          "midi": 51,
          "time": 531.3328020000007,
          "velocity": 1,
          "duration": 0.33333300000003874
        },
        {
          "name": "F4",
          "midi": 65,
          "time": 531.3328020000007,
          "velocity": 1,
          "duration": 0.33333300000003874
        },
        {
          "name": "F4",
          "midi": 65,
          "time": 531.6661350000007,
          "velocity": 1,
          "duration": 0.33333300000003874
        },
        {
          "name": "A#2",
          "midi": 46,
          "time": 531.6661350000007,
          "velocity": 1,
          "duration": 0.33333300000003874
        },
        {
          "name": "A#3",
          "midi": 58,
          "time": 531.6661350000007,
          "velocity": 1,
          "duration": 0.33333300000003874
        },
        {
          "name": "G4",
          "midi": 67,
          "time": 532.3328010000008,
          "velocity": 1,
          "duration": 0.33333300000003874
        },
        {
          "name": "G3",
          "midi": 55,
          "time": 532.3328010000008,
          "velocity": 1,
          "duration": 0.33333300000003874
        },
        {
          "name": "F4",
          "midi": 65,
          "time": 532.3328010000008,
          "velocity": 1,
          "duration": 0.33333300000003874
        },
        {
          "name": "D#4",
          "midi": 63,
          "time": 532.6661340000009,
          "velocity": 1,
          "duration": 0.33333300000003874
        },
        {
          "name": "G3",
          "midi": 55,
          "time": 532.6661340000009,
          "velocity": 1,
          "duration": 0.33333300000003874
        },
        {
          "name": "G4",
          "midi": 67,
          "time": 532.6661340000009,
          "velocity": 1,
          "duration": 0.33333300000003874
        },
        {
          "name": "D#4",
          "midi": 63,
          "time": 533.3328000000009,
          "velocity": 1,
          "duration": 0.33333300000003874
        },
        {
          "name": "D#3",
          "midi": 51,
          "time": 533.3328000000009,
          "velocity": 1,
          "duration": 0.33333300000003874
        },
        {
          "name": "C#4",
          "midi": 61,
          "time": 533.3328000000009,
          "velocity": 1,
          "duration": 0.33333300000003874
        },
        {
          "name": "D#4",
          "midi": 63,
          "time": 533.666133000001,
          "velocity": 1,
          "duration": 0.33333300000003874
        },
        {
          "name": "D#3",
          "midi": 51,
          "time": 533.666133000001,
          "velocity": 1,
          "duration": 0.33333300000003874
        },
        {
          "name": "C4",
          "midi": 60,
          "time": 533.666133000001,
          "velocity": 1,
          "duration": 0.33333300000003874
        },
        {
          "name": "D#4",
          "midi": 63,
          "time": 534.332799000001,
          "velocity": 1,
          "duration": 0.33333300000003874
        },
        {
          "name": "D#3",
          "midi": 51,
          "time": 534.332799000001,
          "velocity": 1,
          "duration": 0.33333300000003874
        },
        {
          "name": "D#4",
          "midi": 63,
          "time": 534.9994650000011,
          "velocity": 1,
          "duration": 0.33333300000003874
        },
        {
          "name": "D#3",
          "midi": 51,
          "time": 534.9994650000011,
          "velocity": 1,
          "duration": 0.33333300000003874
        },
        {
          "name": "D#4",
          "midi": 63,
          "time": 535.6661310000012,
          "velocity": 1,
          "duration": 0.33333300000003874
        },
        {
          "name": "D#3",
          "midi": 51,
          "time": 535.6661310000012,
          "velocity": 1,
          "duration": 0.33333300000003874
        },
        {
          "name": "D#4",
          "midi": 63,
          "time": 536.3327970000013,
          "velocity": 1,
          "duration": 0.33333300000003874
        },
        {
          "name": "D#3",
          "midi": 51,
          "time": 536.3327970000013,
          "velocity": 1,
          "duration": 0.33333300000003874
        },
        {
          "name": "D#3",
          "midi": 51,
          "time": 536.9994630000014,
          "velocity": 1,
          "duration": 0.33333300000003874
        },
        {
          "name": "D#4",
          "midi": 63,
          "time": 536.9994630000014,
          "velocity": 1,
          "duration": 0.33333300000003874
        },
        {
          "name": "D#4",
          "midi": 63,
          "time": 537.6661290000014,
          "velocity": 1,
          "duration": 0.33333300000003874
        },
        {
          "name": "D#3",
          "midi": 51,
          "time": 537.6661290000014,
          "velocity": 1,
          "duration": 0.33333300000003874
        },
        {
          "name": "D#4",
          "midi": 63,
          "time": 537.9994620000015,
          "velocity": 1,
          "duration": 0.33333300000003874
        },
        {
          "name": "D#3",
          "midi": 51,
          "time": 537.9994620000015,
          "velocity": 1,
          "duration": 0.33333300000003874
        },
        {
          "name": "G4",
          "midi": 67,
          "time": 538.3327950000015,
          "velocity": 1,
          "duration": 0.33333300000003874
        },
        {
          "name": "G3",
          "midi": 55,
          "time": 538.3327950000015,
          "velocity": 1,
          "duration": 0.33333300000003874
        },
        {
          "name": "A#3",
          "midi": 58,
          "time": 538.6661280000015,
          "velocity": 1,
          "duration": 0.33333300000003874
        },
        {
          "name": "A#4",
          "midi": 70,
          "time": 538.6661280000015,
          "velocity": 1,
          "duration": 0.33333300000003874
        },
        {
          "name": "D#4",
          "midi": 63,
          "time": 538.9994610000016,
          "velocity": 1,
          "duration": 1.3333320000000413
        },
        {
          "name": "D#3",
          "midi": 51,
          "time": 538.9994610000016,
          "velocity": 1,
          "duration": 1.3333320000000413
        },
        {
          "name": "G4",
          "midi": 67,
          "time": 540.3327930000016,
          "velocity": 1,
          "duration": 0.33333300000003874
        },
        {
          "name": "G3",
          "midi": 55,
          "time": 540.3327930000016,
          "velocity": 1,
          "duration": 0.33333300000003874
        },
        {
          "name": "A#4",
          "midi": 70,
          "time": 540.6661260000017,
          "velocity": 1,
          "duration": 0.33333300000003874
        },
        {
          "name": "A#3",
          "midi": 58,
          "time": 540.6661260000017,
          "velocity": 1,
          "duration": 0.33333300000003874
        },
        {
          "name": "D#3",
          "midi": 51,
          "time": 540.9994590000017,
          "velocity": 1,
          "duration": 1.3333320000000413
        },
        {
          "name": "D#4",
          "midi": 63,
          "time": 540.9994590000017,
          "velocity": 1,
          "duration": 1.3333320000000413
        },
        {
          "name": "D#4",
          "midi": 63,
          "time": 542.3327910000017,
          "velocity": 1,
          "duration": 0.33333300000003874
        },
        {
          "name": "F4",
          "midi": 65,
          "time": 543.3327900000018,
          "velocity": 1,
          "duration": 0.33333300000003874
        },
        {
          "name": "A#3",
          "midi": 58,
          "time": 543.9994560000018,
          "velocity": 1,
          "duration": 0.33333300000003874
        },
        {
          "name": "F4",
          "midi": 65,
          "time": 543.9994560000018,
          "velocity": 1,
          "duration": 0.33333300000003874
        },
        {
          "name": "F4",
          "midi": 65,
          "time": 544.6661220000019,
          "velocity": 1,
          "duration": 0.33333300000003874
        },
        {
          "name": "A#3",
          "midi": 58,
          "time": 544.6661220000019,
          "velocity": 1,
          "duration": 0.33333300000003874
        },
        {
          "name": "G4",
          "midi": 67,
          "time": 545.332788000002,
          "velocity": 1,
          "duration": 0.33333300000003874
        },
        {
          "name": "D#4",
          "midi": 63,
          "time": 545.332788000002,
          "velocity": 1,
          "duration": 0.33333300000003874
        },
        {
          "name": "A#4",
          "midi": 70,
          "time": 548.166118500002,
          "velocity": 1,
          "duration": 0.16666650000001937
        },
        {
          "name": "A#3",
          "midi": 58,
          "time": 548.166118500002,
          "velocity": 1,
          "duration": 0.16666650000001937
        },
        {
          "name": "G4",
          "midi": 67,
          "time": 548.166118500002,
          "velocity": 1,
          "duration": 0.16666650000001937
        },
        {
          "name": "G4",
          "midi": 67,
          "time": 548.332785000002,
          "velocity": 1,
          "duration": 0.16666650000001937
        },
        {
          "name": "A#3",
          "midi": 58,
          "time": 548.332785000002,
          "velocity": 1,
          "duration": 0.16666650000001937
        },
        {
          "name": "A#4",
          "midi": 70,
          "time": 548.332785000002,
          "velocity": 1,
          "duration": 0.16666650000001937
        },
        {
          "name": "A#4",
          "midi": 70,
          "time": 548.499451500002,
          "velocity": 1,
          "duration": 0.16666650000001937
        },
        {
          "name": "A#3",
          "midi": 58,
          "time": 548.499451500002,
          "velocity": 1,
          "duration": 0.16666650000001937
        },
        {
          "name": "G4",
          "midi": 67,
          "time": 548.499451500002,
          "velocity": 1,
          "duration": 0.16666650000001937
        },
        {
          "name": "G4",
          "midi": 67,
          "time": 548.666118000002,
          "velocity": 1,
          "duration": 0.16666650000001937
        },
        {
          "name": "G3",
          "midi": 55,
          "time": 548.666118000002,
          "velocity": 1,
          "duration": 0.16666650000001937
        },
        {
          "name": "G4",
          "midi": 67,
          "time": 548.832784500002,
          "velocity": 1,
          "duration": 0.16666650000001937
        },
        {
          "name": "D#3",
          "midi": 51,
          "time": 548.832784500002,
          "velocity": 1,
          "duration": 0.16666650000001937
        },
        {
          "name": "D#4",
          "midi": 63,
          "time": 548.832784500002,
          "velocity": 1,
          "duration": 0.16666650000001937
        },
        {
          "name": "F4",
          "midi": 65,
          "time": 548.9994510000021,
          "velocity": 1,
          "duration": 0.9999990000000025
        },
        {
          "name": "A#2",
          "midi": 46,
          "time": 548.9994510000021,
          "velocity": 1,
          "duration": 0.9999990000000025
        },
        {
          "name": "G#4",
          "midi": 68,
          "time": 548.9994510000021,
          "velocity": 1,
          "duration": 0.9999990000000025
        },
        {
          "name": "D#4",
          "midi": 63,
          "time": 549.9994500000021,
          "velocity": 1,
          "duration": 0.33333300000003874
        },
        {
          "name": "D#3",
          "midi": 51,
          "time": 549.9994500000021,
          "velocity": 1,
          "duration": 0.33333300000003874
        },
        {
          "name": "G4",
          "midi": 67,
          "time": 549.9994500000021,
          "velocity": 1,
          "duration": 0.33333300000003874
        },
        {
          "name": "D#4",
          "midi": 63,
          "time": 550.9994490000021,
          "velocity": 1,
          "duration": 0.33333300000003874
        },
        {
          "name": "D#3",
          "midi": 51,
          "time": 550.9994490000021,
          "velocity": 1,
          "duration": 0.33333300000003874
        },
        {
          "name": "D#4",
          "midi": 63,
          "time": 551.9994480000021,
          "velocity": 1,
          "duration": 0.33333300000003874
        },
        {
          "name": "D#3",
          "midi": 51,
          "time": 551.9994480000021,
          "velocity": 1,
          "duration": 0.33333300000003874
        },
        {
          "name": "D#4",
          "midi": 63,
          "time": 552.9994470000021,
          "velocity": 1,
          "duration": 0.33333300000003874
        },
        {
          "name": "D#3",
          "midi": 51,
          "time": 552.9994470000021,
          "velocity": 1,
          "duration": 0.33333300000003874
        },
        {
          "name": "D#4",
          "midi": 63,
          "time": 553.3327800000021,
          "velocity": 1,
          "duration": 0.33333300000003874
        },
        {
          "name": "D#3",
          "midi": 51,
          "time": 553.3327800000021,
          "velocity": 1,
          "duration": 0.33333300000003874
        },
        {
          "name": "D#4",
          "midi": 63,
          "time": 553.6661130000022,
          "velocity": 1,
          "duration": 0.33333300000003874
        },
        {
          "name": "D#3",
          "midi": 51,
          "time": 553.6661130000022,
          "velocity": 1,
          "duration": 0.33333300000003874
        },
        {
          "name": "D#4",
          "midi": 63,
          "time": 553.9994460000022,
          "velocity": 1,
          "duration": 0.33333300000003874
        },
        {
          "name": "D#3",
          "midi": 51,
          "time": 553.9994460000022,
          "velocity": 1,
          "duration": 0.33333300000003874
        },
        {
          "name": "D#3",
          "midi": 51,
          "time": 557.4994425000023,
          "velocity": 1,
          "duration": 0.16666650000001937
        },
        {
          "name": "G3",
          "midi": 55,
          "time": 557.6661090000023,
          "velocity": 1,
          "duration": 0.16666650000001937
        },
        {
          "name": "A#3",
          "midi": 58,
          "time": 557.8327755000023,
          "velocity": 1,
          "duration": 0.16666650000001937
        },
        {
          "name": "D#4",
          "midi": 63,
          "time": 557.9994420000023,
          "velocity": 1,
          "duration": 0.33333300000003874
        },
        {
          "name": "G#4",
          "midi": 68,
          "time": 559.9994400000023,
          "velocity": 1,
          "duration": 1.999998000000005
        },
        {
          "name": "F4",
          "midi": 65,
          "time": 559.9994400000023,
          "velocity": 1,
          "duration": 1.999998000000005
        },
        {
          "name": "G4",
          "midi": 67,
          "time": 563.9994360000023,
          "velocity": 1,
          "duration": 0.16666650000001937
        },
        {
          "name": "G3",
          "midi": 55,
          "time": 563.9994360000023,
          "velocity": 1,
          "duration": 0.16666650000001937
        },
        {
          "name": "G4",
          "midi": 67,
          "time": 564.1661025000024,
          "velocity": 1,
          "duration": 0.16666650000001937
        },
        {
          "name": "G3",
          "midi": 55,
          "time": 564.1661025000024,
          "velocity": 1,
          "duration": 0.16666650000001937
        },
        {
          "name": "G4",
          "midi": 67,
          "time": 564.3327690000024,
          "velocity": 1,
          "duration": 0.16666650000001937
        },
        {
          "name": "G3",
          "midi": 55,
          "time": 564.3327690000024,
          "velocity": 1,
          "duration": 0.16666650000001937
        },
        {
          "name": "G4",
          "midi": 67,
          "time": 564.4994355000024,
          "velocity": 1,
          "duration": 0.16666650000001937
        },
        {
          "name": "G3",
          "midi": 55,
          "time": 564.4994355000024,
          "velocity": 1,
          "duration": 0.16666650000001937
        },
        {
          "name": "G4",
          "midi": 67,
          "time": 564.6661020000024,
          "velocity": 1,
          "duration": 0.16666650000001937
        },
        {
          "name": "G3",
          "midi": 55,
          "time": 564.6661020000024,
          "velocity": 1,
          "duration": 0.16666650000001937
        },
        {
          "name": "G4",
          "midi": 67,
          "time": 564.8327685000024,
          "velocity": 1,
          "duration": 0.16666650000001937
        },
        {
          "name": "G3",
          "midi": 55,
          "time": 564.8327685000024,
          "velocity": 1,
          "duration": 0.16666650000001937
        },
        {
          "name": "G4",
          "midi": 67,
          "time": 564.9994350000024,
          "velocity": 1,
          "duration": 0.16666650000001937
        },
        {
          "name": "G3",
          "midi": 55,
          "time": 564.9994350000024,
          "velocity": 1,
          "duration": 0.16666650000001937
        },
        {
          "name": "G4",
          "midi": 67,
          "time": 565.1661015000025,
          "velocity": 1,
          "duration": 0.16666650000001937
        },
        {
          "name": "G3",
          "midi": 55,
          "time": 565.1661015000025,
          "velocity": 1,
          "duration": 0.16666650000001937
        },
        {
          "name": "G4",
          "midi": 67,
          "time": 565.3327680000025,
          "velocity": 1,
          "duration": 0.16666650000001937
        },
        {
          "name": "G3",
          "midi": 55,
          "time": 565.3327680000025,
          "velocity": 1,
          "duration": 0.16666650000001937
        },
        {
          "name": "G4",
          "midi": 67,
          "time": 565.4994345000025,
          "velocity": 1,
          "duration": 0.16666650000001937
        },
        {
          "name": "G3",
          "midi": 55,
          "time": 565.4994345000025,
          "velocity": 1,
          "duration": 0.16666650000001937
        },
        {
          "name": "G4",
          "midi": 67,
          "time": 565.6661010000025,
          "velocity": 1,
          "duration": 0.16666650000001937
        },
        {
          "name": "G3",
          "midi": 55,
          "time": 565.6661010000025,
          "velocity": 1,
          "duration": 0.16666650000001937
        },
        {
          "name": "G4",
          "midi": 67,
          "time": 565.8327675000025,
          "velocity": 1,
          "duration": 0.16666650000001937
        },
        {
          "name": "G3",
          "midi": 55,
          "time": 565.8327675000025,
          "velocity": 1,
          "duration": 0.16666650000001937
        },
        {
          "name": "G4",
          "midi": 67,
          "time": 565.9994340000026,
          "velocity": 1,
          "duration": 0.33333300000003874
        },
        {
          "name": "G3",
          "midi": 55,
          "time": 565.9994340000026,
          "velocity": 1,
          "duration": 0.33333300000003874
        },
        {
          "name": "G3",
          "midi": 55,
          "time": 571.9994280000026,
          "velocity": 1,
          "duration": 4.333329000000049
        },
        {
          "name": "G4",
          "midi": 67,
          "time": 571.9994280000026,
          "velocity": 1,
          "duration": 4.333329000000049
        },
        {
          "name": "A#3",
          "midi": 58,
          "time": 589.9994100000026,
          "velocity": 1,
          "duration": 1.999998000000005
        },
        {
          "name": "A#2",
          "midi": 46,
          "time": 589.9994100000026,
          "velocity": 1,
          "duration": 1.999998000000005
        },
        {
          "name": "A#3",
          "midi": 58,
          "time": 591.9994080000026,
          "velocity": 1,
          "duration": 0.16666650000001937
        },
        {
          "name": "A#2",
          "midi": 46,
          "time": 591.9994080000026,
          "velocity": 1,
          "duration": 0.16666650000001937
        },
        {
          "name": "A#3",
          "midi": 58,
          "time": 592.1660745000027,
          "velocity": 1,
          "duration": 0.16666650000001937
        },
        {
          "name": "A#2",
          "midi": 46,
          "time": 592.1660745000027,
          "velocity": 1,
          "duration": 0.16666650000001937
        },
        {
          "name": "D#4",
          "midi": 63,
          "time": 592.3327410000027,
          "velocity": 1,
          "duration": 0.33333300000003874
        },
        {
          "name": "A#2",
          "midi": 46,
          "time": 592.3327410000027,
          "velocity": 1,
          "duration": 0.16666650000001937
        },
        {
          "name": "A#3",
          "midi": 58,
          "time": 592.3327410000027,
          "velocity": 1,
          "duration": 0.16666650000001937
        },
        {
          "name": "A#3",
          "midi": 58,
          "time": 592.4994075000027,
          "velocity": 1,
          "duration": 0.16666650000001937
        },
        {
          "name": "A#2",
          "midi": 46,
          "time": 592.4994075000027,
          "velocity": 1,
          "duration": 0.16666650000001937
        },
        {
          "name": "A#3",
          "midi": 58,
          "time": 592.6660740000027,
          "velocity": 1,
          "duration": 0.16666650000001937
        },
        {
          "name": "A#2",
          "midi": 46,
          "time": 592.6660740000027,
          "velocity": 1,
          "duration": 0.16666650000001937
        },
        {
          "name": "F4",
          "midi": 65,
          "time": 592.6660740000027,
          "velocity": 1,
          "duration": 0.33333300000003874
        },
        {
          "name": "A#2",
          "midi": 46,
          "time": 592.8327405000027,
          "velocity": 1,
          "duration": 0.16666650000001937
        },
        {
          "name": "A#3",
          "midi": 58,
          "time": 592.8327405000027,
          "velocity": 1,
          "duration": 0.16666650000001937
        },
        {
          "name": "A#3",
          "midi": 58,
          "time": 592.9994070000027,
          "velocity": 1,
          "duration": 0.16666650000001937
        },
        {
          "name": "A#2",
          "midi": 46,
          "time": 592.9994070000027,
          "velocity": 1,
          "duration": 0.16666650000001937
        },
        {
          "name": "F#4",
          "midi": 66,
          "time": 592.9994070000027,
          "velocity": 1,
          "duration": 0.4999995000000581
        },
        {
          "name": "A#3",
          "midi": 58,
          "time": 593.1660735000028,
          "velocity": 1,
          "duration": 0.16666650000001937
        },
        {
          "name": "A#2",
          "midi": 46,
          "time": 593.1660735000028,
          "velocity": 1,
          "duration": 0.16666650000001937
        },
        {
          "name": "A#3",
          "midi": 58,
          "time": 593.3327400000028,
          "velocity": 1,
          "duration": 0.16666650000001937
        },
        {
          "name": "A#2",
          "midi": 46,
          "time": 593.3327400000028,
          "velocity": 1,
          "duration": 0.16666650000001937
        },
        {
          "name": "F4",
          "midi": 65,
          "time": 593.4994065000028,
          "velocity": 1,
          "duration": 0.16666650000001937
        },
        {
          "name": "A#2",
          "midi": 46,
          "time": 593.4994065000028,
          "velocity": 1,
          "duration": 0.16666650000001937
        },
        {
          "name": "A#3",
          "midi": 58,
          "time": 593.4994065000028,
          "velocity": 1,
          "duration": 0.16666650000001937
        },
        {
          "name": "A#3",
          "midi": 58,
          "time": 593.6660730000028,
          "velocity": 1,
          "duration": 0.16666650000001937
        },
        {
          "name": "A#2",
          "midi": 46,
          "time": 593.6660730000028,
          "velocity": 1,
          "duration": 0.16666650000001937
        },
        {
          "name": "D#4",
          "midi": 63,
          "time": 593.6660730000028,
          "velocity": 1,
          "duration": 0.33333300000003874
        },
        {
          "name": "A#3",
          "midi": 58,
          "time": 593.8327395000028,
          "velocity": 1,
          "duration": 0.16666650000001937
        },
        {
          "name": "A#2",
          "midi": 46,
          "time": 593.8327395000028,
          "velocity": 1,
          "duration": 0.16666650000001937
        },
        {
          "name": "D4",
          "midi": 62,
          "time": 593.9994060000029,
          "velocity": 1,
          "duration": 0.33333300000003874
        },
        {
          "name": "A#2",
          "midi": 46,
          "time": 593.9994060000029,
          "velocity": 1,
          "duration": 0.16666650000001937
        },
        {
          "name": "A#3",
          "midi": 58,
          "time": 593.9994060000029,
          "velocity": 1,
          "duration": 0.16666650000001937
        },
        {
          "name": "A#3",
          "midi": 58,
          "time": 594.1660725000029,
          "velocity": 1,
          "duration": 0.16666650000001937
        },
        {
          "name": "A#2",
          "midi": 46,
          "time": 594.1660725000029,
          "velocity": 1,
          "duration": 0.16666650000001937
        },
        {
          "name": "A#3",
          "midi": 58,
          "time": 594.3327390000029,
          "velocity": 1,
          "duration": 0.16666650000001937
        },
        {
          "name": "A#2",
          "midi": 46,
          "time": 594.3327390000029,
          "velocity": 1,
          "duration": 0.16666650000001937
        },
        {
          "name": "C#4",
          "midi": 61,
          "time": 594.3327390000029,
          "velocity": 1,
          "duration": 0.33333300000003874
        },
        {
          "name": "A#3",
          "midi": 58,
          "time": 594.4994055000029,
          "velocity": 1,
          "duration": 0.16666650000001937
        },
        {
          "name": "A#2",
          "midi": 46,
          "time": 594.4994055000029,
          "velocity": 1,
          "duration": 0.16666650000001937
        },
        {
          "name": "A#3",
          "midi": 58,
          "time": 594.6660720000029,
          "velocity": 1,
          "duration": 0.16666650000001937
        },
        {
          "name": "A#2",
          "midi": 46,
          "time": 594.6660720000029,
          "velocity": 1,
          "duration": 0.16666650000001937
        },
        {
          "name": "C4",
          "midi": 60,
          "time": 594.6660720000029,
          "velocity": 1,
          "duration": 0.33333300000003874
        },
        {
          "name": "A#3",
          "midi": 58,
          "time": 594.832738500003,
          "velocity": 1,
          "duration": 0.16666650000001937
        },
        {
          "name": "A#2",
          "midi": 46,
          "time": 594.832738500003,
          "velocity": 1,
          "duration": 0.16666650000001937
        },
        {
          "name": "A#3",
          "midi": 58,
          "time": 594.999405000003,
          "velocity": 1,
          "duration": 0.6666660000000775
        },
        {
          "name": "A#2",
          "midi": 46,
          "time": 594.999405000003,
          "velocity": 1,
          "duration": 0.16666650000001937
        },
        {
          "name": "A#2",
          "midi": 46,
          "time": 595.166071500003,
          "velocity": 1,
          "duration": 0.16666650000001937
        },
        {
          "name": "A#2",
          "midi": 46,
          "time": 595.332738000003,
          "velocity": 1,
          "duration": 0.16666650000001937
        },
        {
          "name": "A#2",
          "midi": 46,
          "time": 595.499404500003,
          "velocity": 1,
          "duration": 0.16666650000001937
        },
        {
          "name": "C4",
          "midi": 60,
          "time": 595.6660710000031,
          "velocity": 1,
          "duration": 0.16666650000001937
        },
        {
          "name": "A#2",
          "midi": 46,
          "time": 595.6660710000031,
          "velocity": 1,
          "duration": 0.16666650000001937
        },
        {
          "name": "A#3",
          "midi": 58,
          "time": 595.6660710000031,
          "velocity": 1,
          "duration": 0.16666650000001937
        },
        {
          "name": "A#3",
          "midi": 58,
          "time": 595.8327375000031,
          "velocity": 1,
          "duration": 0.16666650000001937
        },
        {
          "name": "A#2",
          "midi": 46,
          "time": 595.8327375000031,
          "velocity": 1,
          "duration": 0.16666650000001937
        },
        {
          "name": "D4",
          "midi": 62,
          "time": 595.8327375000031,
          "velocity": 1,
          "duration": 0.16666650000001937
        },
        {
          "name": "A#3",
          "midi": 58,
          "time": 595.9994040000031,
          "velocity": 1,
          "duration": 0.16666650000001937
        },
        {
          "name": "A#2",
          "midi": 46,
          "time": 595.9994040000031,
          "velocity": 1,
          "duration": 0.16666650000001937
        },
        {
          "name": "D#4",
          "midi": 63,
          "time": 595.9994040000031,
          "velocity": 1,
          "duration": 0.33333300000003874
        },
        {
          "name": "A#2",
          "midi": 46,
          "time": 596.1660705000031,
          "velocity": 1,
          "duration": 0.16666650000001937
        },
        {
          "name": "A#3",
          "midi": 58,
          "time": 596.1660705000031,
          "velocity": 1,
          "duration": 0.16666650000001937
        },
        {
          "name": "A#3",
          "midi": 58,
          "time": 596.3327370000031,
          "velocity": 1,
          "duration": 0.16666650000001937
        },
        {
          "name": "A#2",
          "midi": 46,
          "time": 596.3327370000031,
          "velocity": 1,
          "duration": 0.16666650000001937
        },
        {
          "name": "D#4",
          "midi": 63,
          "time": 596.3327370000031,
          "velocity": 1,
          "duration": 0.33333300000003874
        },
        {
          "name": "A#3",
          "midi": 58,
          "time": 596.4994035000032,
          "velocity": 1,
          "duration": 0.16666650000001937
        },
        {
          "name": "A#2",
          "midi": 46,
          "time": 596.4994035000032,
          "velocity": 1,
          "duration": 0.16666650000001937
        },
        {
          "name": "A#3",
          "midi": 58,
          "time": 596.6660700000032,
          "velocity": 1,
          "duration": 0.16666650000001937
        },
        {
          "name": "A#2",
          "midi": 46,
          "time": 596.6660700000032,
          "velocity": 1,
          "duration": 0.16666650000001937
        },
        {
          "name": "F4",
          "midi": 65,
          "time": 596.6660700000032,
          "velocity": 1,
          "duration": 0.33333300000003874
        },
        {
          "name": "A#2",
          "midi": 46,
          "time": 596.8327365000032,
          "velocity": 1,
          "duration": 0.16666650000001937
        },
        {
          "name": "A#3",
          "midi": 58,
          "time": 596.8327365000032,
          "velocity": 1,
          "duration": 0.16666650000001937
        },
        {
          "name": "A#3",
          "midi": 58,
          "time": 596.9994030000032,
          "velocity": 1,
          "duration": 0.16666650000001937
        },
        {
          "name": "A#2",
          "midi": 46,
          "time": 596.9994030000032,
          "velocity": 1,
          "duration": 0.16666650000001937
        },
        {
          "name": "F#4",
          "midi": 66,
          "time": 596.9994030000032,
          "velocity": 1,
          "duration": 0.4999995000000581
        },
        {
          "name": "A#3",
          "midi": 58,
          "time": 597.1660695000032,
          "velocity": 1,
          "duration": 0.16666650000001937
        },
        {
          "name": "A#2",
          "midi": 46,
          "time": 597.1660695000032,
          "velocity": 1,
          "duration": 0.16666650000001937
        },
        {
          "name": "A#3",
          "midi": 58,
          "time": 597.3327360000033,
          "velocity": 1,
          "duration": 0.16666650000001937
        },
        {
          "name": "A#2",
          "midi": 46,
          "time": 597.3327360000033,
          "velocity": 1,
          "duration": 0.16666650000001937
        },
        {
          "name": "F4",
          "midi": 65,
          "time": 597.4994025000033,
          "velocity": 1,
          "duration": 0.16666650000001937
        },
        {
          "name": "A#2",
          "midi": 46,
          "time": 597.4994025000033,
          "velocity": 1,
          "duration": 0.16666650000001937
        },
        {
          "name": "A#3",
          "midi": 58,
          "time": 597.4994025000033,
          "velocity": 1,
          "duration": 0.16666650000001937
        },
        {
          "name": "A#3",
          "midi": 58,
          "time": 597.6660690000033,
          "velocity": 1,
          "duration": 0.16666650000001937
        },
        {
          "name": "A#2",
          "midi": 46,
          "time": 597.6660690000033,
          "velocity": 1,
          "duration": 0.16666650000001937
        },
        {
          "name": "D#4",
          "midi": 63,
          "time": 597.6660690000033,
          "velocity": 1,
          "duration": 0.33333300000003874
        },
        {
          "name": "A#3",
          "midi": 58,
          "time": 597.8327355000033,
          "velocity": 1,
          "duration": 0.16666650000001937
        },
        {
          "name": "A#2",
          "midi": 46,
          "time": 597.8327355000033,
          "velocity": 1,
          "duration": 0.16666650000001937
        },
        {
          "name": "D4",
          "midi": 62,
          "time": 597.9994020000033,
          "velocity": 1,
          "duration": 0.33333300000003874
        },
        {
          "name": "A#2",
          "midi": 46,
          "time": 597.9994020000033,
          "velocity": 1,
          "duration": 0.33333300000003874
        },
        {
          "name": "A#3",
          "midi": 58,
          "time": 597.9994020000033,
          "velocity": 1,
          "duration": 0.33333300000003874
        },
        {
          "name": "A#3",
          "midi": 58,
          "time": 607.9993920000034,
          "velocity": 1,
          "duration": 2.333331000000044
        },
        {
          "name": "A#2",
          "midi": 46,
          "time": 607.9993920000034,
          "velocity": 1,
          "duration": 2.333331000000044
        },
        {
          "name": "A#2",
          "midi": 46,
          "time": 611.9993880000034,
          "velocity": 1,
          "duration": 3.3333300000000463
        },
        {
          "name": "A#3",
          "midi": 58,
          "time": 611.9993880000034,
          "velocity": 1,
          "duration": 3.3333300000000463
        },
        {
          "name": "A#3",
          "midi": 58,
          "time": 615.3327180000034,
          "velocity": 1,
          "duration": 0.33333300000003874
        },
        {
          "name": "A#2",
          "midi": 46,
          "time": 615.3327180000034,
          "velocity": 1,
          "duration": 0.33333300000003874
        },
        {
          "name": "A#2",
          "midi": 46,
          "time": 615.6660510000034,
          "velocity": 1,
          "duration": 0.33333300000003874
        },
        {
          "name": "A#3",
          "midi": 58,
          "time": 615.6660510000034,
          "velocity": 1,
          "duration": 0.33333300000003874
        },
        {
          "name": "A#3",
          "midi": 58,
          "time": 615.9993840000035,
          "velocity": 1,
          "duration": 1.3333320000000413
        },
        {
          "name": "A#2",
          "midi": 46,
          "time": 615.9993840000035,
          "velocity": 1,
          "duration": 1.3333320000000413
        },
        {
          "name": "A#3",
          "midi": 58,
          "time": 617.3327160000035,
          "velocity": 1,
          "duration": 0.33333300000003874
        },
        {
          "name": "A#2",
          "midi": 46,
          "time": 617.3327160000035,
          "velocity": 1,
          "duration": 0.33333300000003874
        },
        {
          "name": "A#2",
          "midi": 46,
          "time": 617.6660490000036,
          "velocity": 1,
          "duration": 0.33333300000003874
        },
        {
          "name": "A#3",
          "midi": 58,
          "time": 617.6660490000036,
          "velocity": 1,
          "duration": 0.33333300000003874
        },
        {
          "name": "D#4",
          "midi": 63,
          "time": 617.9993820000036,
          "velocity": 1,
          "duration": 0.6666660000000775
        },
        {
          "name": "D#3",
          "midi": 51,
          "time": 617.9993820000036,
          "velocity": 1,
          "duration": 0.33333300000003874
        },
        {
          "name": "F#4",
          "midi": 66,
          "time": 618.6660480000037,
          "velocity": 1,
          "duration": 0.33333300000003874
        },
        {
          "name": "D#4",
          "midi": 63,
          "time": 618.9993810000037,
          "velocity": 1,
          "duration": 0.6666659999999638
        },
        {
          "name": "D#3",
          "midi": 51,
          "time": 619.6660470000037,
          "velocity": 1,
          "duration": 0.33333300000003874
        },
        {
          "name": "D#4",
          "midi": 63,
          "time": 619.9993800000037,
          "velocity": 1,
          "duration": 0.6666659999999638
        },
        {
          "name": "F#4",
          "midi": 66,
          "time": 620.6660460000037,
          "velocity": 1,
          "duration": 0.33333300000003874
        },
        {
          "name": "D#4",
          "midi": 63,
          "time": 620.9993790000037,
          "velocity": 1,
          "duration": 0.6666659999999638
        },
        {
          "name": "D#3",
          "midi": 51,
          "time": 621.6660450000037,
          "velocity": 1,
          "duration": 0.33333300000003874
        },
        {
          "name": "F4",
          "midi": 65,
          "time": 621.9993780000037,
          "velocity": 1,
          "duration": 0.6666659999999638
        },
        {
          "name": "G#4",
          "midi": 68,
          "time": 622.6660440000037,
          "velocity": 1,
          "duration": 0.33333300000003874
        },
        {
          "name": "A#3",
          "midi": 58,
          "time": 622.9993770000037,
          "velocity": 1,
          "duration": 0.6666659999999638
        },
        {
          "name": "F4",
          "midi": 65,
          "time": 622.9993770000037,
          "velocity": 1,
          "duration": 0.6666659999999638
        },
        {
          "name": "A#3",
          "midi": 58,
          "time": 623.6660430000037,
          "velocity": 1,
          "duration": 0.33333300000003874
        },
        {
          "name": "A#2",
          "midi": 46,
          "time": 623.6660430000037,
          "velocity": 1,
          "duration": 0.33333300000003874
        },
        {
          "name": "F4",
          "midi": 65,
          "time": 623.9993760000037,
          "velocity": 1,
          "duration": 0.6666659999999638
        },
        {
          "name": "G#4",
          "midi": 68,
          "time": 624.6660420000037,
          "velocity": 1,
          "duration": 0.33333300000003874
        },
        {
          "name": "G#4",
          "midi": 68,
          "time": 624.9993750000037,
          "velocity": 1,
          "duration": 0.6666659999999638
        },
        {
          "name": "F4",
          "midi": 65,
          "time": 624.9993750000037,
          "velocity": 1,
          "duration": 0.6666659999999638
        },
        {
          "name": "F4",
          "midi": 65,
          "time": 625.6660410000037,
          "velocity": 1,
          "duration": 0.33333300000003874
        },
        {
          "name": "G#4",
          "midi": 68,
          "time": 625.6660410000037,
          "velocity": 1,
          "duration": 0.33333300000003874
        },
        {
          "name": "D#4",
          "midi": 63,
          "time": 625.9993740000037,
          "velocity": 1,
          "duration": 0.33333300000003874
        },
        {
          "name": "D#4",
          "midi": 63,
          "time": 626.3327070000038,
          "velocity": 1,
          "duration": 0.33333300000003874
        },
        {
          "name": "D#3",
          "midi": 51,
          "time": 626.3327070000038,
          "velocity": 1,
          "duration": 0.33333300000003874
        },
        {
          "name": "G4",
          "midi": 67,
          "time": 626.3327070000038,
          "velocity": 1,
          "duration": 0.33333300000003874
        },
        {
          "name": "D#4",
          "midi": 63,
          "time": 626.9993730000039,
          "velocity": 1,
          "duration": 0.33333300000003874
        },
        {
          "name": "D#3",
          "midi": 51,
          "time": 626.9993730000039,
          "velocity": 1,
          "duration": 0.33333300000003874
        },
        {
          "name": "G4",
          "midi": 67,
          "time": 626.9993730000039,
          "velocity": 1,
          "duration": 0.33333300000003874
        },
        {
          "name": "G4",
          "midi": 67,
          "time": 627.6660390000039,
          "velocity": 1,
          "duration": 0.33333300000003874
        },
        {
          "name": "D#3",
          "midi": 51,
          "time": 627.6660390000039,
          "velocity": 1,
          "duration": 0.33333300000003874
        },
        {
          "name": "D#4",
          "midi": 63,
          "time": 627.6660390000039,
          "velocity": 1,
          "duration": 0.33333300000003874
        },
        {
          "name": "D#4",
          "midi": 63,
          "time": 628.332705000004,
          "velocity": 1,
          "duration": 0.33333300000003874
        },
        {
          "name": "D#3",
          "midi": 51,
          "time": 628.332705000004,
          "velocity": 1,
          "duration": 0.33333300000003874
        },
        {
          "name": "F4",
          "midi": 65,
          "time": 628.332705000004,
          "velocity": 1,
          "duration": 0.33333300000003874
        },
        {
          "name": "D#4",
          "midi": 63,
          "time": 628.9993710000041,
          "velocity": 1,
          "duration": 0.33333300000003874
        },
        {
          "name": "D#3",
          "midi": 51,
          "time": 628.9993710000041,
          "velocity": 1,
          "duration": 0.33333300000003874
        },
        {
          "name": "F4",
          "midi": 65,
          "time": 628.9993710000041,
          "velocity": 1,
          "duration": 0.33333300000003874
        },
        {
          "name": "F4",
          "midi": 65,
          "time": 629.6660370000042,
          "velocity": 1,
          "duration": 0.33333300000003874
        },
        {
          "name": "D#3",
          "midi": 51,
          "time": 629.6660370000042,
          "velocity": 1,
          "duration": 0.33333300000003874
        },
        {
          "name": "D#4",
          "midi": 63,
          "time": 629.6660370000042,
          "velocity": 1,
          "duration": 0.33333300000003874
        },
        {
          "name": "D#4",
          "midi": 63,
          "time": 629.9993700000042,
          "velocity": 1,
          "duration": 0.33333300000003874
        },
        {
          "name": "D#3",
          "midi": 51,
          "time": 629.9993700000042,
          "velocity": 1,
          "duration": 0.33333300000003874
        },
        {
          "name": "G4",
          "midi": 67,
          "time": 629.9993700000042,
          "velocity": 1,
          "duration": 0.33333300000003874
        },
        {
          "name": "D#4",
          "midi": 63,
          "time": 630.9993690000042,
          "velocity": 1,
          "duration": 0.9999990000000025
        },
        {
          "name": "A#2",
          "midi": 46,
          "time": 630.9993690000042,
          "velocity": 1,
          "duration": 0.9999990000000025
        },
        {
          "name": "F3",
          "midi": 53,
          "time": 630.9993690000042,
          "velocity": 1,
          "duration": 0.9999990000000025
        },
        {
          "name": "A#3",
          "midi": 58,
          "time": 631.9993680000042,
          "velocity": 1,
          "duration": 0.33333300000003874
        },
        {
          "name": "A#2",
          "midi": 46,
          "time": 631.9993680000042,
          "velocity": 1,
          "duration": 0.33333300000003874
        },
        {
          "name": "F4",
          "midi": 65,
          "time": 631.9993680000042,
          "velocity": 1,
          "duration": 0.33333300000003874
        },
        {
          "name": "F4",
          "midi": 65,
          "time": 632.3327010000042,
          "velocity": 1,
          "duration": 0.33333300000003874
        },
        {
          "name": "A#2",
          "midi": 46,
          "time": 632.3327010000042,
          "velocity": 1,
          "duration": 0.33333300000003874
        },
        {
          "name": "A#3",
          "midi": 58,
          "time": 632.3327010000042,
          "velocity": 1,
          "duration": 0.33333300000003874
        },
        {
          "name": "F4",
          "midi": 65,
          "time": 632.6660340000043,
          "velocity": 1,
          "duration": 0.33333300000003874
        },
        {
          "name": "A#2",
          "midi": 46,
          "time": 632.6660340000043,
          "velocity": 1,
          "duration": 0.33333300000003874
        },
        {
          "name": "A#3",
          "midi": 58,
          "time": 632.6660340000043,
          "velocity": 1,
          "duration": 0.33333300000003874
        },
        {
          "name": "A#2",
          "midi": 46,
          "time": 632.9993670000043,
          "velocity": 1,
          "duration": 0.33333300000003874
        },
        {
          "name": "A#3",
          "midi": 58,
          "time": 632.9993670000043,
          "velocity": 1,
          "duration": 0.33333300000003874
        },
        {
          "name": "A#2",
          "midi": 46,
          "time": 633.3327000000044,
          "velocity": 1,
          "duration": 0.33333300000003874
        },
        {
          "name": "A#3",
          "midi": 58,
          "time": 633.3327000000044,
          "velocity": 1,
          "duration": 0.33333300000003874
        },
        {
          "name": "A#3",
          "midi": 58,
          "time": 633.6660330000044,
          "velocity": 1,
          "duration": 0.33333300000003874
        },
        {
          "name": "A#2",
          "midi": 46,
          "time": 633.6660330000044,
          "velocity": 1,
          "duration": 0.33333300000003874
        },
        {
          "name": "A#3",
          "midi": 58,
          "time": 633.9993660000044,
          "velocity": 1,
          "duration": 0.33333300000003874
        },
        {
          "name": "D#3",
          "midi": 51,
          "time": 633.9993660000044,
          "velocity": 1,
          "duration": 0.33333300000003874
        },
        {
          "name": "D#4",
          "midi": 63,
          "time": 633.9993660000044,
          "velocity": 1,
          "duration": 0.6666660000000775
        },
        {
          "name": "G4",
          "midi": 67,
          "time": 634.6660320000045,
          "velocity": 1,
          "duration": 0.33333300000003874
        },
        {
          "name": "D#4",
          "midi": 63,
          "time": 634.9993650000046,
          "velocity": 1,
          "duration": 0.6666659999999638
        },
        {
          "name": "A#3",
          "midi": 58,
          "time": 635.6660310000045,
          "velocity": 1,
          "duration": 0.33333300000003874
        },
        {
          "name": "D#4",
          "midi": 63,
          "time": 635.9993640000046,
          "velocity": 1,
          "duration": 0.33333300000003874
        },
        {
          "name": "G4",
          "midi": 67,
          "time": 636.3326970000046,
          "velocity": 1,
          "duration": 0.33333300000003874
        },
        {
          "name": "A#4",
          "midi": 70,
          "time": 636.6660300000046,
          "velocity": 1,
          "duration": 0.33333300000003874
        },
        {
          "name": "A#3",
          "midi": 58,
          "time": 636.9993630000047,
          "velocity": 1,
          "duration": 0.33333300000003874
        },
        {
          "name": "A#4",
          "midi": 70,
          "time": 636.9993630000047,
          "velocity": 1,
          "duration": 0.9999990000001162
        },
        {
          "name": "D#4",
          "midi": 63,
          "time": 637.3326960000047,
          "velocity": 1,
          "duration": 0.33333300000003874
        },
        {
          "name": "G4",
          "midi": 67,
          "time": 637.6660290000048,
          "velocity": 1,
          "duration": 0.33333300000003874
        },
        {
          "name": "F4",
          "midi": 65,
          "time": 637.9993620000048,
          "velocity": 1,
          "duration": 0.6666660000000775
        },
        {
          "name": "G#4",
          "midi": 68,
          "time": 637.9993620000048,
          "velocity": 1,
          "duration": 0.33333300000003874
        },
        {
          "name": "G#4",
          "midi": 68,
          "time": 638.6660280000049,
          "velocity": 1,
          "duration": 0.33333300000003874
        },
        {
          "name": "F4",
          "midi": 65,
          "time": 638.9993610000049,
          "velocity": 1,
          "duration": 0.6666659999999638
        },
        {
          "name": "A#3",
          "midi": 58,
          "time": 639.6660270000049,
          "velocity": 1,
          "duration": 0.33333300000003874
        },
        {
          "name": "F4",
          "midi": 65,
          "time": 639.9993600000049,
          "velocity": 1,
          "duration": 0.33333300000003874
        },
        {
          "name": "G#4",
          "midi": 68,
          "time": 640.332693000005,
          "velocity": 1,
          "duration": 0.33333300000003874
        },
        {
          "name": "A#4",
          "midi": 70,
          "time": 640.666026000005,
          "velocity": 1,
          "duration": 0.33333300000003874
        },
        {
          "name": "A#4",
          "midi": 70,
          "time": 640.999359000005,
          "velocity": 1,
          "duration": 2.3333310000001575
        },
        {
          "name": "A#3",
          "midi": 58,
          "time": 640.999359000005,
          "velocity": 1,
          "duration": 0.33333300000003874
        },
        {
          "name": "F4",
          "midi": 65,
          "time": 641.3326920000051,
          "velocity": 1,
          "duration": 0.33333300000003874
        },
        {
          "name": "G#4",
          "midi": 68,
          "time": 641.6660250000051,
          "velocity": 1,
          "duration": 0.33333300000003874
        },
        {
          "name": "G4",
          "midi": 67,
          "time": 641.9993580000051,
          "velocity": 1,
          "duration": 1.3333320000000413
        },
        {
          "name": "D#4",
          "midi": 63,
          "time": 643.3326900000052,
          "velocity": 1,
          "duration": 0.33333300000003874
        },
        {
          "name": "G3",
          "midi": 55,
          "time": 643.3326900000052,
          "velocity": 1,
          "duration": 0.33333300000003874
        },
        {
          "name": "A#3",
          "midi": 58,
          "time": 643.3326900000052,
          "velocity": 1,
          "duration": 0.33333300000003874
        },
        {
          "name": "G4",
          "midi": 67,
          "time": 643.6660230000052,
          "velocity": 1,
          "duration": 0.33333300000003874
        },
        {
          "name": "A#3",
          "midi": 58,
          "time": 643.6660230000052,
          "velocity": 1,
          "duration": 0.33333300000003874
        },
        {
          "name": "D#4",
          "midi": 63,
          "time": 643.6660230000052,
          "velocity": 1,
          "duration": 0.33333300000003874
        },
        {
          "name": "A#3",
          "midi": 58,
          "time": 643.9993560000053,
          "velocity": 1,
          "duration": 0.6666659999999638
        },
        {
          "name": "G3",
          "midi": 55,
          "time": 643.9993560000053,
          "velocity": 1,
          "duration": 0.6666659999999638
        },
        {
          "name": "D#4",
          "midi": 63,
          "time": 643.9993560000053,
          "velocity": 1,
          "duration": 0.6666659999999638
        },
        {
          "name": "A#3",
          "midi": 58,
          "time": 644.6660220000052,
          "velocity": 1,
          "duration": 0.33333300000003874
        },
        {
          "name": "D#3",
          "midi": 51,
          "time": 644.6660220000052,
          "velocity": 1,
          "duration": 0.33333300000003874
        },
        {
          "name": "G3",
          "midi": 55,
          "time": 644.6660220000052,
          "velocity": 1,
          "duration": 0.33333300000003874
        },
        {
          "name": "D#4",
          "midi": 63,
          "time": 644.9993550000053,
          "velocity": 1,
          "duration": 0.33333300000003874
        },
        {
          "name": "G3",
          "midi": 55,
          "time": 644.9993550000053,
          "velocity": 1,
          "duration": 0.33333300000003874
        },
        {
          "name": "A#3",
          "midi": 58,
          "time": 644.9993550000053,
          "velocity": 1,
          "duration": 0.33333300000003874
        },
        {
          "name": "D#4",
          "midi": 63,
          "time": 645.3326880000053,
          "velocity": 1,
          "duration": 0.33333300000003874
        },
        {
          "name": "A#3",
          "midi": 58,
          "time": 645.3326880000053,
          "velocity": 1,
          "duration": 0.33333300000003874
        },
        {
          "name": "G4",
          "midi": 67,
          "time": 645.3326880000053,
          "velocity": 1,
          "duration": 0.33333300000003874
        },
        {
          "name": "A#4",
          "midi": 70,
          "time": 645.6660210000053,
          "velocity": 1,
          "duration": 0.33333300000003874
        },
        {
          "name": "D#4",
          "midi": 63,
          "time": 645.6660210000053,
          "velocity": 1,
          "duration": 0.33333300000003874
        },
        {
          "name": "G4",
          "midi": 67,
          "time": 645.6660210000053,
          "velocity": 1,
          "duration": 0.33333300000003874
        },
        {
          "name": "A#4",
          "midi": 70,
          "time": 645.9993540000054,
          "velocity": 1,
          "duration": 0.9999990000000025
        },
        {
          "name": "F4",
          "midi": 65,
          "time": 645.9993540000054,
          "velocity": 1,
          "duration": 0.9999990000000025
        },
        {
          "name": "G#4",
          "midi": 68,
          "time": 645.9993540000054,
          "velocity": 1,
          "duration": 0.9999990000000025
        },
        {
          "name": "A#3",
          "midi": 58,
          "time": 646.9993530000054,
          "velocity": 1,
          "duration": 0.6666659999999638
        },
        {
          "name": "A#2",
          "midi": 46,
          "time": 646.9993530000054,
          "velocity": 1,
          "duration": 0.6666659999999638
        },
        {
          "name": "F4",
          "midi": 65,
          "time": 646.9993530000054,
          "velocity": 1,
          "duration": 0.6666659999999638
        },
        {
          "name": "G#4",
          "midi": 68,
          "time": 647.6660190000053,
          "velocity": 1,
          "duration": 0.33333300000003874
        },
        {
          "name": "A#3",
          "midi": 58,
          "time": 647.6660190000053,
          "velocity": 1,
          "duration": 0.33333300000003874
        },
        {
          "name": "F4",
          "midi": 65,
          "time": 647.6660190000053,
          "velocity": 1,
          "duration": 0.33333300000003874
        },
        {
          "name": "F4",
          "midi": 65,
          "time": 647.9993520000054,
          "velocity": 1,
          "duration": 0.6666659999999638
        },
        {
          "name": "A#2",
          "midi": 46,
          "time": 647.9993520000054,
          "velocity": 1,
          "duration": 0.6666659999999638
        },
        {
          "name": "A#3",
          "midi": 58,
          "time": 647.9993520000054,
          "velocity": 1,
          "duration": 0.6666659999999638
        },
        {
          "name": "A#3",
          "midi": 58,
          "time": 648.6660180000054,
          "velocity": 1,
          "duration": 0.33333300000003874
        },
        {
          "name": "A#2",
          "midi": 46,
          "time": 648.6660180000054,
          "velocity": 1,
          "duration": 0.33333300000003874
        },
        {
          "name": "F4",
          "midi": 65,
          "time": 648.9993510000054,
          "velocity": 1,
          "duration": 0.33333300000003874
        },
        {
          "name": "A#2",
          "midi": 46,
          "time": 648.9993510000054,
          "velocity": 1,
          "duration": 0.33333300000003874
        },
        {
          "name": "A#3",
          "midi": 58,
          "time": 648.9993510000054,
          "velocity": 1,
          "duration": 0.33333300000003874
        },
        {
          "name": "G#4",
          "midi": 68,
          "time": 649.3326840000054,
          "velocity": 1,
          "duration": 0.33333300000003874
        },
        {
          "name": "A#3",
          "midi": 58,
          "time": 649.3326840000054,
          "velocity": 1,
          "duration": 0.33333300000003874
        },
        {
          "name": "F4",
          "midi": 65,
          "time": 649.3326840000054,
          "velocity": 1,
          "duration": 0.33333300000003874
        },
        {
          "name": "G#4",
          "midi": 68,
          "time": 649.6660170000055,
          "velocity": 1,
          "duration": 0.33333300000003874
        },
        {
          "name": "F4",
          "midi": 65,
          "time": 649.6660170000055,
          "velocity": 1,
          "duration": 0.33333300000003874
        },
        {
          "name": "A#4",
          "midi": 70,
          "time": 649.6660170000055,
          "velocity": 1,
          "duration": 0.33333300000003874
        },
        {
          "name": "A#4",
          "midi": 70,
          "time": 649.9993500000055,
          "velocity": 1,
          "duration": 2.333331000000044
        },
        {
          "name": "D#4",
          "midi": 63,
          "time": 649.9993500000055,
          "velocity": 1,
          "duration": 2.333331000000044
        },
        {
          "name": "G4",
          "midi": 67,
          "time": 649.9993500000055,
          "velocity": 1,
          "duration": 2.333331000000044
        },
        {
          "name": "A#4",
          "midi": 70,
          "time": 652.3326810000056,
          "velocity": 1,
          "duration": 0.33333300000003874
        },
        {
          "name": "D#4",
          "midi": 63,
          "time": 652.3326810000056,
          "velocity": 1,
          "duration": 0.33333300000003874
        },
        {
          "name": "G4",
          "midi": 67,
          "time": 652.3326810000056,
          "velocity": 1,
          "duration": 0.33333300000003874
        },
        {
          "name": "A#4",
          "midi": 70,
          "time": 652.6660140000056,
          "velocity": 1,
          "duration": 0.33333300000003874
        },
        {
          "name": "D#4",
          "midi": 63,
          "time": 652.6660140000056,
          "velocity": 1,
          "duration": 0.33333300000003874
        },
        {
          "name": "G4",
          "midi": 67,
          "time": 652.6660140000056,
          "velocity": 1,
          "duration": 0.33333300000003874
        },
        {
          "name": "G4",
          "midi": 67,
          "time": 652.9993470000056,
          "velocity": 1,
          "duration": 0.33333300000003874
        },
        {
          "name": "D#4",
          "midi": 63,
          "time": 652.9993470000056,
          "velocity": 1,
          "duration": 0.33333300000003874
        },
        {
          "name": "A#4",
          "midi": 70,
          "time": 652.9993470000056,
          "velocity": 1,
          "duration": 0.33333300000003874
        },
        {
          "name": "A#4",
          "midi": 70,
          "time": 653.3326800000057,
          "velocity": 1,
          "duration": 0.33333300000003874
        },
        {
          "name": "D#4",
          "midi": 63,
          "time": 653.3326800000057,
          "velocity": 1,
          "duration": 0.33333300000003874
        },
        {
          "name": "G4",
          "midi": 67,
          "time": 653.3326800000057,
          "velocity": 1,
          "duration": 0.33333300000003874
        },
        {
          "name": "A#4",
          "midi": 70,
          "time": 653.6660130000057,
          "velocity": 1,
          "duration": 0.33333300000003874
        },
        {
          "name": "D#4",
          "midi": 63,
          "time": 653.6660130000057,
          "velocity": 1,
          "duration": 0.33333300000003874
        },
        {
          "name": "G4",
          "midi": 67,
          "time": 653.6660130000057,
          "velocity": 1,
          "duration": 0.33333300000003874
        },
        {
          "name": "A#4",
          "midi": 70,
          "time": 653.9993460000057,
          "velocity": 1,
          "duration": 2.333331000000044
        },
        {
          "name": "A#3",
          "midi": 58,
          "time": 653.9993460000057,
          "velocity": 1,
          "duration": 2.333331000000044
        },
        {
          "name": "G#4",
          "midi": 68,
          "time": 653.9993460000057,
          "velocity": 1,
          "duration": 1.999998000000005
        },
        {
          "name": "G#4",
          "midi": 68,
          "time": 655.9993440000057,
          "velocity": 1,
          "duration": 0.33333300000003874
        },
        {
          "name": "A#4",
          "midi": 70,
          "time": 656.3326770000058,
          "velocity": 1,
          "duration": 0.33333300000003874
        },
        {
          "name": "A#3",
          "midi": 58,
          "time": 656.3326770000058,
          "velocity": 1,
          "duration": 0.33333300000003874
        },
        {
          "name": "G#4",
          "midi": 68,
          "time": 656.3326770000058,
          "velocity": 1,
          "duration": 0.33333300000003874
        },
        {
          "name": "A#4",
          "midi": 70,
          "time": 656.6660100000058,
          "velocity": 1,
          "duration": 0.33333300000003874
        },
        {
          "name": "A#3",
          "midi": 58,
          "time": 656.6660100000058,
          "velocity": 1,
          "duration": 0.33333300000003874
        },
        {
          "name": "G#4",
          "midi": 68,
          "time": 656.6660100000058,
          "velocity": 1,
          "duration": 0.33333300000003874
        },
        {
          "name": "G#4",
          "midi": 68,
          "time": 656.9993430000059,
          "velocity": 1,
          "duration": 0.33333300000003874
        },
        {
          "name": "A#3",
          "midi": 58,
          "time": 656.9993430000059,
          "velocity": 1,
          "duration": 0.33333300000003874
        },
        {
          "name": "A#4",
          "midi": 70,
          "time": 656.9993430000059,
          "velocity": 1,
          "duration": 0.33333300000003874
        },
        {
          "name": "A#4",
          "midi": 70,
          "time": 657.3326760000059,
          "velocity": 1,
          "duration": 0.33333300000003874
        },
        {
          "name": "A#3",
          "midi": 58,
          "time": 657.3326760000059,
          "velocity": 1,
          "duration": 0.33333300000003874
        },
        {
          "name": "G#4",
          "midi": 68,
          "time": 657.3326760000059,
          "velocity": 1,
          "duration": 0.33333300000003874
        },
        {
          "name": "A#4",
          "midi": 70,
          "time": 657.6660090000059,
          "velocity": 1,
          "duration": 0.33333300000003874
        },
        {
          "name": "A#3",
          "midi": 58,
          "time": 657.6660090000059,
          "velocity": 1,
          "duration": 0.33333300000003874
        },
        {
          "name": "G#4",
          "midi": 68,
          "time": 657.6660090000059,
          "velocity": 1,
          "duration": 0.33333300000003874
        },
        {
          "name": "G4",
          "midi": 67,
          "time": 657.999342000006,
          "velocity": 1,
          "duration": 0.33333300000003874
        },
        {
          "name": "A#3",
          "midi": 58,
          "time": 657.999342000006,
          "velocity": 1,
          "duration": 0.33333300000003874
        },
        {
          "name": "A#4",
          "midi": 70,
          "time": 657.999342000006,
          "velocity": 1,
          "duration": 0.33333300000003874
        },
        {
          "name": "D#4",
          "midi": 63,
          "time": 658.332675000006,
          "velocity": 1,
          "duration": 0.16666650000001937
        },
        {
          "name": "D#3",
          "midi": 51,
          "time": 658.332675000006,
          "velocity": 1,
          "duration": 0.16666650000001937
        },
        {
          "name": "A#4",
          "midi": 70,
          "time": 658.332675000006,
          "velocity": 1,
          "duration": 0.33333300000003874
        },
        {
          "name": "D#4",
          "midi": 63,
          "time": 658.499341500006,
          "velocity": 1,
          "duration": 0.16666650000001937
        },
        {
          "name": "D#3",
          "midi": 51,
          "time": 658.499341500006,
          "velocity": 1,
          "duration": 0.16666650000001937
        },
        {
          "name": "A#4",
          "midi": 70,
          "time": 658.6660080000061,
          "velocity": 1,
          "duration": 0.33333300000003874
        },
        {
          "name": "G3",
          "midi": 55,
          "time": 658.6660080000061,
          "velocity": 1,
          "duration": 0.16666650000001937
        },
        {
          "name": "G4",
          "midi": 67,
          "time": 658.6660080000061,
          "velocity": 1,
          "duration": 0.16666650000001937
        },
        {
          "name": "G4",
          "midi": 67,
          "time": 658.8326745000061,
          "velocity": 1,
          "duration": 0.16666650000001937
        },
        {
          "name": "G3",
          "midi": 55,
          "time": 658.8326745000061,
          "velocity": 1,
          "duration": 0.16666650000001937
        },
        {
          "name": "D#4",
          "midi": 63,
          "time": 658.9993410000061,
          "velocity": 1,
          "duration": 0.16666650000001937
        },
        {
          "name": "D#3",
          "midi": 51,
          "time": 658.9993410000061,
          "velocity": 1,
          "duration": 0.16666650000001937
        },
        {
          "name": "A#4",
          "midi": 70,
          "time": 658.9993410000061,
          "velocity": 1,
          "duration": 0.33333300000003874
        },
        {
          "name": "D#4",
          "midi": 63,
          "time": 659.1660075000061,
          "velocity": 1,
          "duration": 0.16666650000001937
        },
        {
          "name": "D#3",
          "midi": 51,
          "time": 659.1660075000061,
          "velocity": 1,
          "duration": 0.16666650000001937
        },
        {
          "name": "A#4",
          "midi": 70,
          "time": 659.3326740000061,
          "velocity": 1,
          "duration": 0.33333300000003874
        },
        {
          "name": "D#3",
          "midi": 51,
          "time": 659.3326740000061,
          "velocity": 1,
          "duration": 0.16666650000001937
        },
        {
          "name": "D#4",
          "midi": 63,
          "time": 659.3326740000061,
          "velocity": 1,
          "duration": 0.16666650000001937
        },
        {
          "name": "D#4",
          "midi": 63,
          "time": 659.4993405000062,
          "velocity": 1,
          "duration": 0.16666650000001937
        },
        {
          "name": "D#3",
          "midi": 51,
          "time": 659.4993405000062,
          "velocity": 1,
          "duration": 0.16666650000001937
        },
        {
          "name": "A#3",
          "midi": 58,
          "time": 659.6660070000062,
          "velocity": 1,
          "duration": 0.16666650000001937
        },
        {
          "name": "A#2",
          "midi": 46,
          "time": 659.6660070000062,
          "velocity": 1,
          "duration": 0.16666650000001937
        },
        {
          "name": "A#4",
          "midi": 70,
          "time": 659.6660070000062,
          "velocity": 1,
          "duration": 0.33333300000003874
        },
        {
          "name": "A#3",
          "midi": 58,
          "time": 659.8326735000062,
          "velocity": 1,
          "duration": 0.16666650000001937
        },
        {
          "name": "A#2",
          "midi": 46,
          "time": 659.8326735000062,
          "velocity": 1,
          "duration": 0.16666650000001937
        },
        {
          "name": "A#4",
          "midi": 70,
          "time": 659.9993400000062,
          "velocity": 1,
          "duration": 0.33333300000003874
        },
        {
          "name": "D#3",
          "midi": 51,
          "time": 659.9993400000062,
          "velocity": 1,
          "duration": 0.16666650000001937
        },
        {
          "name": "D#4",
          "midi": 63,
          "time": 659.9993400000062,
          "velocity": 1,
          "duration": 0.16666650000001937
        },
        {
          "name": "D#4",
          "midi": 63,
          "time": 660.1660065000062,
          "velocity": 1,
          "duration": 0.16666650000001937
        },
        {
          "name": "D#3",
          "midi": 51,
          "time": 660.1660065000062,
          "velocity": 1,
          "duration": 0.16666650000001937
        },
        {
          "name": "G4",
          "midi": 67,
          "time": 660.3326730000063,
          "velocity": 1,
          "duration": 0.16666650000001937
        },
        {
          "name": "G3",
          "midi": 55,
          "time": 660.3326730000063,
          "velocity": 1,
          "duration": 0.16666650000001937
        },
        {
          "name": "A#4",
          "midi": 70,
          "time": 660.3326730000063,
          "velocity": 1,
          "duration": 0.33333300000003874
        },
        {
          "name": "G3",
          "midi": 55,
          "time": 660.4993395000063,
          "velocity": 1,
          "duration": 0.16666650000001937
        },
        {
          "name": "G4",
          "midi": 67,
          "time": 660.4993395000063,
          "velocity": 1,
          "duration": 0.16666650000001937
        },
        {
          "name": "A#4",
          "midi": 70,
          "time": 660.6660060000063,
          "velocity": 1,
          "duration": 0.33333300000003874
        },
        {
          "name": "A#3",
          "midi": 58,
          "time": 660.6660060000063,
          "velocity": 1,
          "duration": 0.16666650000001937
        },
        {
          "name": "A#3",
          "midi": 58,
          "time": 660.8326725000063,
          "velocity": 1,
          "duration": 0.16666650000001937
        },
        {
          "name": "A#4",
          "midi": 70,
          "time": 660.9993390000063,
          "velocity": 1,
          "duration": 0.33333300000003874
        },
        {
          "name": "A#3",
          "midi": 58,
          "time": 660.9993390000063,
          "velocity": 1,
          "duration": 0.16666650000001937
        },
        {
          "name": "A#3",
          "midi": 58,
          "time": 661.1660055000063,
          "velocity": 1,
          "duration": 0.16666650000001937
        },
        {
          "name": "A#4",
          "midi": 70,
          "time": 661.3326720000064,
          "velocity": 1,
          "duration": 0.33333300000003874
        },
        {
          "name": "A#3",
          "midi": 58,
          "time": 661.3326720000064,
          "velocity": 1,
          "duration": 0.16666650000001937
        },
        {
          "name": "A#3",
          "midi": 58,
          "time": 661.4993385000064,
          "velocity": 1,
          "duration": 0.16666650000001937
        },
        {
          "name": "A#4",
          "midi": 70,
          "time": 661.6660050000064,
          "velocity": 1,
          "duration": 0.33333300000003874
        },
        {
          "name": "A#3",
          "midi": 58,
          "time": 661.6660050000064,
          "velocity": 1,
          "duration": 0.16666650000001937
        },
        {
          "name": "A#3",
          "midi": 58,
          "time": 661.8326715000064,
          "velocity": 1,
          "duration": 0.16666650000001937
        },
        {
          "name": "F4",
          "midi": 65,
          "time": 661.9993380000064,
          "velocity": 1,
          "duration": 0.16666650000001937
        },
        {
          "name": "A#4",
          "midi": 70,
          "time": 661.9993380000064,
          "velocity": 1,
          "duration": 0.33333300000003874
        },
        {
          "name": "A#3",
          "midi": 58,
          "time": 662.1660045000065,
          "velocity": 1,
          "duration": 0.16666650000001937
        },
        {
          "name": "A#2",
          "midi": 46,
          "time": 662.1660045000065,
          "velocity": 1,
          "duration": 0.16666650000001937
        },
        {
          "name": "A#4",
          "midi": 70,
          "time": 662.3326710000065,
          "velocity": 1,
          "duration": 0.33333300000003874
        },
        {
          "name": "A#2",
          "midi": 46,
          "time": 662.3326710000065,
          "velocity": 1,
          "duration": 0.16666650000001937
        },
        {
          "name": "A#3",
          "midi": 58,
          "time": 662.3326710000065,
          "velocity": 1,
          "duration": 0.16666650000001937
        },
        {
          "name": "A#3",
          "midi": 58,
          "time": 662.4993375000065,
          "velocity": 1,
          "duration": 0.16666650000001937
        },
        {
          "name": "A#2",
          "midi": 46,
          "time": 662.4993375000065,
          "velocity": 1,
          "duration": 0.16666650000001937
        },
        {
          "name": "A#3",
          "midi": 58,
          "time": 662.6660040000065,
          "velocity": 1,
          "duration": 0.16666650000001937
        },
        {
          "name": "A#2",
          "midi": 46,
          "time": 662.6660040000065,
          "velocity": 1,
          "duration": 0.16666650000001937
        },
        {
          "name": "A#4",
          "midi": 70,
          "time": 662.6660040000065,
          "velocity": 1,
          "duration": 0.33333300000003874
        },
        {
          "name": "A#2",
          "midi": 46,
          "time": 662.8326705000065,
          "velocity": 1,
          "duration": 0.16666650000001937
        },
        {
          "name": "A#3",
          "midi": 58,
          "time": 662.8326705000065,
          "velocity": 1,
          "duration": 0.16666650000001937
        },
        {
          "name": "A#3",
          "midi": 58,
          "time": 662.9993370000066,
          "velocity": 1,
          "duration": 0.16666650000001937
        },
        {
          "name": "A#2",
          "midi": 46,
          "time": 662.9993370000066,
          "velocity": 1,
          "duration": 0.16666650000001937
        },
        {
          "name": "A#4",
          "midi": 70,
          "time": 662.9993370000066,
          "velocity": 1,
          "duration": 0.33333300000003874
        },
        {
          "name": "A#3",
          "midi": 58,
          "time": 663.1660035000066,
          "velocity": 1,
          "duration": 0.16666650000001937
        },
        {
          "name": "A#2",
          "midi": 46,
          "time": 663.1660035000066,
          "velocity": 1,
          "duration": 0.16666650000001937
        },
        {
          "name": "A#4",
          "midi": 70,
          "time": 663.3326700000066,
          "velocity": 1,
          "duration": 0.33333300000003874
        },
        {
          "name": "A#2",
          "midi": 46,
          "time": 663.3326700000066,
          "velocity": 1,
          "duration": 0.16666650000001937
        },
        {
          "name": "A#3",
          "midi": 58,
          "time": 663.3326700000066,
          "velocity": 1,
          "duration": 0.16666650000001937
        },
        {
          "name": "A#3",
          "midi": 58,
          "time": 663.4993365000066,
          "velocity": 1,
          "duration": 0.16666650000001937
        },
        {
          "name": "A#2",
          "midi": 46,
          "time": 663.4993365000066,
          "velocity": 1,
          "duration": 0.16666650000001937
        },
        {
          "name": "A#3",
          "midi": 58,
          "time": 663.6660030000066,
          "velocity": 1,
          "duration": 0.16666650000001937
        },
        {
          "name": "A#2",
          "midi": 46,
          "time": 663.6660030000066,
          "velocity": 1,
          "duration": 0.16666650000001937
        },
        {
          "name": "A#4",
          "midi": 70,
          "time": 663.6660030000066,
          "velocity": 1,
          "duration": 0.33333300000003874
        },
        {
          "name": "A#3",
          "midi": 58,
          "time": 663.8326695000067,
          "velocity": 1,
          "duration": 0.16666650000001937
        },
        {
          "name": "A#2",
          "midi": 46,
          "time": 663.8326695000067,
          "velocity": 1,
          "duration": 0.16666650000001937
        },
        {
          "name": "A#4",
          "midi": 70,
          "time": 663.9993360000067,
          "velocity": 1,
          "duration": 0.33333300000003874
        },
        {
          "name": "A#2",
          "midi": 46,
          "time": 663.9993360000067,
          "velocity": 1,
          "duration": 0.16666650000001937
        },
        {
          "name": "A#3",
          "midi": 58,
          "time": 663.9993360000067,
          "velocity": 1,
          "duration": 0.16666650000001937
        },
        {
          "name": "A#3",
          "midi": 58,
          "time": 664.1660025000067,
          "velocity": 1,
          "duration": 0.16666650000001937
        },
        {
          "name": "A#2",
          "midi": 46,
          "time": 664.1660025000067,
          "velocity": 1,
          "duration": 0.16666650000001937
        },
        {
          "name": "A#3",
          "midi": 58,
          "time": 664.3326690000067,
          "velocity": 1,
          "duration": 0.33333300000003874
        },
        {
          "name": "A#2",
          "midi": 46,
          "time": 664.3326690000067,
          "velocity": 1,
          "duration": 0.16666650000001937
        },
        {
          "name": "A#2",
          "midi": 46,
          "time": 664.4993355000067,
          "velocity": 1,
          "duration": 0.16666650000001937
        },
        {
          "name": "A#3",
          "midi": 58,
          "time": 664.6660020000068,
          "velocity": 1,
          "duration": 0.33333300000003874
        },
        {
          "name": "A#2",
          "midi": 46,
          "time": 664.6660020000068,
          "velocity": 1,
          "duration": 0.16666650000001937
        },
        {
          "name": "A#2",
          "midi": 46,
          "time": 664.8326685000068,
          "velocity": 1,
          "duration": 0.16666650000001937
        },
        {
          "name": "A#3",
          "midi": 58,
          "time": 664.9993350000068,
          "velocity": 1,
          "duration": 0.16666650000001937
        },
        {
          "name": "A#2",
          "midi": 46,
          "time": 664.9993350000068,
          "velocity": 1,
          "duration": 0.16666650000001937
        },
        {
          "name": "A#3",
          "midi": 58,
          "time": 665.1660015000068,
          "velocity": 1,
          "duration": 0.16666650000001937
        },
        {
          "name": "A#2",
          "midi": 46,
          "time": 665.1660015000068,
          "velocity": 1,
          "duration": 0.16666650000001937
        },
        {
          "name": "A#3",
          "midi": 58,
          "time": 665.3326680000068,
          "velocity": 1,
          "duration": 0.16666650000001937
        },
        {
          "name": "A#2",
          "midi": 46,
          "time": 665.3326680000068,
          "velocity": 1,
          "duration": 0.16666650000001937
        },
        {
          "name": "A#3",
          "midi": 58,
          "time": 665.4993345000069,
          "velocity": 1,
          "duration": 0.16666650000001937
        },
        {
          "name": "A#2",
          "midi": 46,
          "time": 665.4993345000069,
          "velocity": 1,
          "duration": 0.16666650000001937
        },
        {
          "name": "A#3",
          "midi": 58,
          "time": 665.6660010000069,
          "velocity": 1,
          "duration": 0.16666650000001937
        },
        {
          "name": "A#2",
          "midi": 46,
          "time": 665.6660010000069,
          "velocity": 1,
          "duration": 0.16666650000001937
        },
        {
          "name": "A#3",
          "midi": 58,
          "time": 665.8326675000069,
          "velocity": 1,
          "duration": 0.16666650000001937
        },
        {
          "name": "A#2",
          "midi": 46,
          "time": 665.8326675000069,
          "velocity": 1,
          "duration": 0.16666650000001937
        },
        {
          "name": "A#3",
          "midi": 58,
          "time": 665.9993340000069,
          "velocity": 1,
          "duration": 0.16666650000001937
        },
        {
          "name": "A#2",
          "midi": 46,
          "time": 665.9993340000069,
          "velocity": 1,
          "duration": 0.16666650000001937
        },
        {
          "name": "C#4",
          "midi": 61,
          "time": 665.9993340000069,
          "velocity": 1,
          "duration": 0.33333300000003874
        },
        {
          "name": "A#2",
          "midi": 46,
          "time": 666.1660005000069,
          "velocity": 1,
          "duration": 0.16666650000001937
        },
        {
          "name": "A#3",
          "midi": 58,
          "time": 666.1660005000069,
          "velocity": 1,
          "duration": 0.16666650000001937
        },
        {
          "name": "G4",
          "midi": 67,
          "time": 666.332667000007,
          "velocity": 1,
          "duration": 0.16666650000001937
        },
        {
          "name": "G3",
          "midi": 55,
          "time": 666.332667000007,
          "velocity": 1,
          "duration": 0.16666650000001937
        },
        {
          "name": "C#4",
          "midi": 61,
          "time": 666.332667000007,
          "velocity": 1,
          "duration": 0.33333300000003874
        },
        {
          "name": "G4",
          "midi": 67,
          "time": 666.499333500007,
          "velocity": 1,
          "duration": 0.16666650000001937
        },
        {
          "name": "G3",
          "midi": 55,
          "time": 666.499333500007,
          "velocity": 1,
          "duration": 0.16666650000001937
        },
        {
          "name": "G4",
          "midi": 67,
          "time": 666.666000000007,
          "velocity": 1,
          "duration": 0.16666650000001937
        },
        {
          "name": "G3",
          "midi": 55,
          "time": 666.666000000007,
          "velocity": 1,
          "duration": 0.16666650000001937
        },
        {
          "name": "G3",
          "midi": 55,
          "time": 666.832666500007,
          "velocity": 1,
          "duration": 0.16666650000001937
        },
        {
          "name": "G4",
          "midi": 67,
          "time": 666.832666500007,
          "velocity": 1,
          "duration": 0.16666650000001937
        },
        {
          "name": "G4",
          "midi": 67,
          "time": 666.999333000007,
          "velocity": 1,
          "duration": 0.9999990000000025
        },
        {
          "name": "G3",
          "midi": 55,
          "time": 666.999333000007,
          "velocity": 1,
          "duration": 0.9999990000000025
        },
        {
          "name": "C#4",
          "midi": 61,
          "time": 666.999333000007,
          "velocity": 1,
          "duration": 0.9999990000000025
        },
        {
          "name": "F4",
          "midi": 65,
          "time": 667.999332000007,
          "velocity": 1,
          "duration": 0.33333300000003874
        },
        {
          "name": "C4",
          "midi": 60,
          "time": 667.999332000007,
          "velocity": 1,
          "duration": 0.33333300000003874
        },
        {
          "name": "D#4",
          "midi": 63,
          "time": 668.3326650000071,
          "velocity": 1,
          "duration": 0.16666650000001937
        },
        {
          "name": "D#3",
          "midi": 51,
          "time": 668.3326650000071,
          "velocity": 1,
          "duration": 0.16666650000001937
        },
        {
          "name": "F4",
          "midi": 65,
          "time": 668.3326650000071,
          "velocity": 1,
          "duration": 0.16666650000001937
        },
        {
          "name": "F4",
          "midi": 65,
          "time": 668.4993315000071,
          "velocity": 1,
          "duration": 0.16666650000001937
        },
        {
          "name": "D#3",
          "midi": 51,
          "time": 668.4993315000071,
          "velocity": 1,
          "duration": 0.16666650000001937
        },
        {
          "name": "D#4",
          "midi": 63,
          "time": 668.4993315000071,
          "velocity": 1,
          "duration": 0.16666650000001937
        },
        {
          "name": "F4",
          "midi": 65,
          "time": 668.6659980000071,
          "velocity": 1,
          "duration": 0.33333300000003874
        },
        {
          "name": "D#3",
          "midi": 51,
          "time": 668.6659980000071,
          "velocity": 1,
          "duration": 0.33333300000003874
        },
        {
          "name": "D#4",
          "midi": 63,
          "time": 668.6659980000071,
          "velocity": 1,
          "duration": 0.33333300000003874
        },
        {
          "name": "D#4",
          "midi": 63,
          "time": 669.3326640000072,
          "velocity": 1,
          "duration": 0.16666650000001937
        },
        {
          "name": "D#3",
          "midi": 51,
          "time": 669.3326640000072,
          "velocity": 1,
          "duration": 0.16666650000001937
        },
        {
          "name": "D#4",
          "midi": 63,
          "time": 669.4993305000072,
          "velocity": 1,
          "duration": 0.16666650000001937
        },
        {
          "name": "D#3",
          "midi": 51,
          "time": 669.4993305000072,
          "velocity": 1,
          "duration": 0.16666650000001937
        },
        {
          "name": "D#4",
          "midi": 63,
          "time": 669.6659970000072,
          "velocity": 1,
          "duration": 0.33333300000003874
        },
        {
          "name": "D#3",
          "midi": 51,
          "time": 669.6659970000072,
          "velocity": 1,
          "duration": 0.33333300000003874
        },
        {
          "name": "D#4",
          "midi": 63,
          "time": 670.3326630000073,
          "velocity": 1,
          "duration": 0.16666650000001937
        },
        {
          "name": "D#3",
          "midi": 51,
          "time": 670.3326630000073,
          "velocity": 1,
          "duration": 0.16666650000001937
        },
        {
          "name": "G4",
          "midi": 67,
          "time": 670.3326630000073,
          "velocity": 1,
          "duration": 0.16666650000001937
        },
        {
          "name": "D#4",
          "midi": 63,
          "time": 670.4993295000073,
          "velocity": 1,
          "duration": 0.16666650000001937
        },
        {
          "name": "D#3",
          "midi": 51,
          "time": 670.4993295000073,
          "velocity": 1,
          "duration": 0.16666650000001937
        },
        {
          "name": "G4",
          "midi": 67,
          "time": 670.4993295000073,
          "velocity": 1,
          "duration": 0.16666650000001937
        },
        {
          "name": "G4",
          "midi": 67,
          "time": 670.6659960000073,
          "velocity": 1,
          "duration": 0.33333300000003874
        },
        {
          "name": "D#3",
          "midi": 51,
          "time": 670.6659960000073,
          "velocity": 1,
          "duration": 0.33333300000003874
        },
        {
          "name": "D#4",
          "midi": 63,
          "time": 670.6659960000073,
          "velocity": 1,
          "duration": 0.33333300000003874
        },
        {
          "name": "F4",
          "midi": 65,
          "time": 671.3326620000074,
          "velocity": 1,
          "duration": 0.16666650000001937
        },
        {
          "name": "G#4",
          "midi": 68,
          "time": 671.3326620000074,
          "velocity": 1,
          "duration": 0.16666650000001937
        },
        {
          "name": "F4",
          "midi": 65,
          "time": 671.4993285000074,
          "velocity": 1,
          "duration": 0.16666650000001937
        },
        {
          "name": "G#4",
          "midi": 68,
          "time": 671.4993285000074,
          "velocity": 1,
          "duration": 0.16666650000001937
        },
        {
          "name": "G#4",
          "midi": 68,
          "time": 671.6659950000075,
          "velocity": 1,
          "duration": 0.33333300000003874
        },
        {
          "name": "F4",
          "midi": 65,
          "time": 671.6659950000075,
          "velocity": 1,
          "duration": 0.33333300000003874
        },
        {
          "name": "D#4",
          "midi": 63,
          "time": 672.3326610000075,
          "velocity": 1,
          "duration": 0.16666650000001937
        },
        {
          "name": "D#3",
          "midi": 51,
          "time": 672.3326610000075,
          "velocity": 1,
          "duration": 0.16666650000001937
        },
        {
          "name": "G4",
          "midi": 67,
          "time": 672.3326610000075,
          "velocity": 1,
          "duration": 0.16666650000001937
        },
        {
          "name": "D#4",
          "midi": 63,
          "time": 672.4993275000076,
          "velocity": 1,
          "duration": 0.16666650000001937
        },
        {
          "name": "D#3",
          "midi": 51,
          "time": 672.4993275000076,
          "velocity": 1,
          "duration": 0.16666650000001937
        },
        {
          "name": "G4",
          "midi": 67,
          "time": 672.4993275000076,
          "velocity": 1,
          "duration": 0.16666650000001937
        },
        {
          "name": "G4",
          "midi": 67,
          "time": 672.6659940000076,
          "velocity": 1,
          "duration": 0.33333300000003874
        },
        {
          "name": "D#3",
          "midi": 51,
          "time": 672.6659940000076,
          "velocity": 1,
          "duration": 0.33333300000003874
        },
        {
          "name": "D#4",
          "midi": 63,
          "time": 672.6659940000076,
          "velocity": 1,
          "duration": 0.33333300000003874
        },
        {
          "name": "F4",
          "midi": 65,
          "time": 673.3326600000076,
          "velocity": 1,
          "duration": 0.16666650000001937
        },
        {
          "name": "D#3",
          "midi": 51,
          "time": 673.3326600000076,
          "velocity": 1,
          "duration": 0.16666650000001937
        },
        {
          "name": "D#4",
          "midi": 63,
          "time": 673.3326600000076,
          "velocity": 1,
          "duration": 0.16666650000001937
        },
        {
          "name": "F4",
          "midi": 65,
          "time": 673.4993265000077,
          "velocity": 1,
          "duration": 0.16666650000001937
        },
        {
          "name": "D#3",
          "midi": 51,
          "time": 673.4993265000077,
          "velocity": 1,
          "duration": 0.16666650000001937
        },
        {
          "name": "D#4",
          "midi": 63,
          "time": 673.4993265000077,
          "velocity": 1,
          "duration": 0.16666650000001937
        },
        {
          "name": "D#4",
          "midi": 63,
          "time": 673.6659930000077,
          "velocity": 1,
          "duration": 0.33333300000003874
        },
        {
          "name": "D#3",
          "midi": 51,
          "time": 673.6659930000077,
          "velocity": 1,
          "duration": 0.33333300000003874
        },
        {
          "name": "F4",
          "midi": 65,
          "time": 673.6659930000077,
          "velocity": 1,
          "duration": 0.33333300000003874
        },
        {
          "name": "G4",
          "midi": 67,
          "time": 673.9993260000077,
          "velocity": 1,
          "duration": 0.16666650000001937
        },
        {
          "name": "D#3",
          "midi": 51,
          "time": 673.9993260000077,
          "velocity": 1,
          "duration": 0.16666650000001937
        },
        {
          "name": "D#4",
          "midi": 63,
          "time": 673.9993260000077,
          "velocity": 1,
          "duration": 0.16666650000001937
        },
        {
          "name": "G4",
          "midi": 67,
          "time": 674.1659925000077,
          "velocity": 1,
          "duration": 0.16666650000001937
        },
        {
          "name": "D#4",
          "midi": 63,
          "time": 674.1659925000077,
          "velocity": 1,
          "duration": 0.16666650000001937
        },
        {
          "name": "A#3",
          "midi": 58,
          "time": 674.1659925000077,
          "velocity": 1,
          "duration": 0.16666650000001937
        },
        {
          "name": "A#3",
          "midi": 58,
          "time": 674.3326590000078,
          "velocity": 1,
          "duration": 0.16666650000001937
        },
        {
          "name": "D#4",
          "midi": 63,
          "time": 674.3326590000078,
          "velocity": 1,
          "duration": 0.16666650000001937
        },
        {
          "name": "G4",
          "midi": 67,
          "time": 674.3326590000078,
          "velocity": 1,
          "duration": 0.16666650000001937
        },
        {
          "name": "G4",
          "midi": 67,
          "time": 674.4993255000078,
          "velocity": 1,
          "duration": 0.16666650000001937
        },
        {
          "name": "D#4",
          "midi": 63,
          "time": 674.4993255000078,
          "velocity": 1,
          "duration": 0.16666650000001937
        },
        {
          "name": "A#3",
          "midi": 58,
          "time": 674.4993255000078,
          "velocity": 1,
          "duration": 0.16666650000001937
        },
        {
          "name": "G4",
          "midi": 67,
          "time": 674.6659920000078,
          "velocity": 1,
          "duration": 0.16666650000001937
        },
        {
          "name": "D#4",
          "midi": 63,
          "time": 674.6659920000078,
          "velocity": 1,
          "duration": 0.16666650000001937
        },
        {
          "name": "A#3",
          "midi": 58,
          "time": 674.6659920000078,
          "velocity": 1,
          "duration": 0.16666650000001937
        },
        {
          "name": "A#3",
          "midi": 58,
          "time": 674.8326585000078,
          "velocity": 1,
          "duration": 0.16666650000001937
        },
        {
          "name": "D#4",
          "midi": 63,
          "time": 674.8326585000078,
          "velocity": 1,
          "duration": 0.16666650000001937
        },
        {
          "name": "G4",
          "midi": 67,
          "time": 674.8326585000078,
          "velocity": 1,
          "duration": 0.16666650000001937
        },
        {
          "name": "F4",
          "midi": 65,
          "time": 674.9993250000078,
          "velocity": 1,
          "duration": 0.16666650000001937
        },
        {
          "name": "A#3",
          "midi": 58,
          "time": 674.9993250000078,
          "velocity": 1,
          "duration": 0.16666650000001937
        },
        {
          "name": "F4",
          "midi": 65,
          "time": 675.1659915000079,
          "velocity": 1,
          "duration": 0.16666650000001937
        },
        {
          "name": "A#3",
          "midi": 58,
          "time": 675.1659915000079,
          "velocity": 1,
          "duration": 0.16666650000001937
        },
        {
          "name": "A#3",
          "midi": 58,
          "time": 675.3326580000079,
          "velocity": 1,
          "duration": 0.16666650000001937
        },
        {
          "name": "F4",
          "midi": 65,
          "time": 675.3326580000079,
          "velocity": 1,
          "duration": 0.16666650000001937
        },
        {
          "name": "F4",
          "midi": 65,
          "time": 675.4993245000079,
          "velocity": 1,
          "duration": 0.16666650000001937
        },
        {
          "name": "A#3",
          "midi": 58,
          "time": 675.4993245000079,
          "velocity": 1,
          "duration": 0.16666650000001937
        },
        {
          "name": "F4",
          "midi": 65,
          "time": 675.6659910000079,
          "velocity": 1,
          "duration": 0.16666650000001937
        },
        {
          "name": "A#3",
          "midi": 58,
          "time": 675.6659910000079,
          "velocity": 1,
          "duration": 0.16666650000001937
        },
        {
          "name": "A#3",
          "midi": 58,
          "time": 675.8326575000079,
          "velocity": 1,
          "duration": 0.16666650000001937
        },
        {
          "name": "F4",
          "midi": 65,
          "time": 675.8326575000079,
          "velocity": 1,
          "duration": 0.16666650000001937
        },
        {
          "name": "D#4",
          "midi": 63,
          "time": 675.999324000008,
          "velocity": 1,
          "duration": 2.333331000000044
        },
        {
          "name": "D#3",
          "midi": 51,
          "time": 675.999324000008,
          "velocity": 1,
          "duration": 2.333331000000044
        },
        {
          "name": "A#2",
          "midi": 46,
          "time": 678.332655000008,
          "velocity": 1,
          "duration": 0.33333300000003874
        },
        {
          "name": "A#3",
          "midi": 58,
          "time": 678.332655000008,
          "velocity": 1,
          "duration": 0.33333300000003874
        },
        {
          "name": "A#3",
          "midi": 58,
          "time": 678.665988000008,
          "velocity": 1,
          "duration": 0.33333300000003874
        },
        {
          "name": "A#2",
          "midi": 46,
          "time": 678.665988000008,
          "velocity": 1,
          "duration": 0.33333300000003874
        },
        {
          "name": "A#3",
          "midi": 58,
          "time": 678.9993210000081,
          "velocity": 1,
          "duration": 0.33333300000003874
        },
        {
          "name": "A#2",
          "midi": 46,
          "time": 678.9993210000081,
          "velocity": 1,
          "duration": 0.33333300000003874
        },
        {
          "name": "A#3",
          "midi": 58,
          "time": 679.3326540000081,
          "velocity": 1,
          "duration": 0.33333300000003874
        },
        {
          "name": "A#2",
          "midi": 46,
          "time": 679.3326540000081,
          "velocity": 1,
          "duration": 0.33333300000003874
        },
        {
          "name": "A#2",
          "midi": 46,
          "time": 679.6659870000082,
          "velocity": 1,
          "duration": 0.33333300000003874
        },
        {
          "name": "A#3",
          "midi": 58,
          "time": 679.6659870000082,
          "velocity": 1,
          "duration": 0.33333300000003874
        },
        {
          "name": "D#4",
          "midi": 63,
          "time": 679.9993200000082,
          "velocity": 1,
          "duration": 0.33333300000003874
        },
        {
          "name": "D#3",
          "midi": 51,
          "time": 679.9993200000082,
          "velocity": 1,
          "duration": 0.33333300000003874
        },
        {
          "name": "F4",
          "midi": 65,
          "time": 684.3326490000082,
          "velocity": 1,
          "duration": 0.9999990000000025
        },
        {
          "name": "A#2",
          "midi": 46,
          "time": 684.3326490000082,
          "velocity": 1,
          "duration": 0.9999990000000025
        },
        {
          "name": "A#3",
          "midi": 58,
          "time": 684.3326490000082,
          "velocity": 1,
          "duration": 0.9999990000000025
        },
        {
          "name": "F4",
          "midi": 65,
          "time": 685.3326480000082,
          "velocity": 1,
          "duration": 0.9999990000000025
        },
        {
          "name": "A#2",
          "midi": 46,
          "time": 685.3326480000082,
          "velocity": 1,
          "duration": 0.9999990000000025
        },
        {
          "name": "A#3",
          "midi": 58,
          "time": 685.3326480000082,
          "velocity": 1,
          "duration": 0.9999990000000025
        },
        {
          "name": "A#3",
          "midi": 58,
          "time": 686.3326470000083,
          "velocity": 1,
          "duration": 0.6666659999999638
        },
        {
          "name": "A#2",
          "midi": 46,
          "time": 686.3326470000083,
          "velocity": 1,
          "duration": 0.6666659999999638
        },
        {
          "name": "F4",
          "midi": 65,
          "time": 686.3326470000083,
          "velocity": 1,
          "duration": 0.6666659999999638
        },
        {
          "name": "F4",
          "midi": 65,
          "time": 686.9993130000082,
          "velocity": 1,
          "duration": 0.6666659999999638
        },
        {
          "name": "A#2",
          "midi": 46,
          "time": 686.9993130000082,
          "velocity": 1,
          "duration": 0.6666659999999638
        },
        {
          "name": "A#3",
          "midi": 58,
          "time": 686.9993130000082,
          "velocity": 1,
          "duration": 0.6666659999999638
        },
        {
          "name": "F4",
          "midi": 65,
          "time": 687.6659790000082,
          "velocity": 1,
          "duration": 0.33333300000003874
        },
        {
          "name": "A#2",
          "midi": 46,
          "time": 687.6659790000082,
          "velocity": 1,
          "duration": 0.33333300000003874
        },
        {
          "name": "A#3",
          "midi": 58,
          "time": 687.6659790000082,
          "velocity": 1,
          "duration": 0.33333300000003874
        },
        {
          "name": "A#3",
          "midi": 58,
          "time": 687.9993120000082,
          "velocity": 1,
          "duration": 0.33333300000003874
        },
        {
          "name": "A#2",
          "midi": 46,
          "time": 687.9993120000082,
          "velocity": 1,
          "duration": 0.33333300000003874
        },
        {
          "name": "F4",
          "midi": 65,
          "time": 687.9993120000082,
          "velocity": 1,
          "duration": 0.33333300000003874
        },
        {
          "name": "G#4",
          "midi": 68,
          "time": 688.3326450000083,
          "velocity": 1,
          "duration": 0.33333300000003874
        },
        {
          "name": "A#2",
          "midi": 46,
          "time": 688.3326450000083,
          "velocity": 1,
          "duration": 0.33333300000003874
        },
        {
          "name": "F4",
          "midi": 65,
          "time": 688.3326450000083,
          "velocity": 1,
          "duration": 0.33333300000003874
        },
        {
          "name": "G#4",
          "midi": 68,
          "time": 688.6659780000083,
          "velocity": 1,
          "duration": 0.33333300000003874
        },
        {
          "name": "A#2",
          "midi": 46,
          "time": 688.6659780000083,
          "velocity": 1,
          "duration": 0.33333300000003874
        },
        {
          "name": "F4",
          "midi": 65,
          "time": 688.6659780000083,
          "velocity": 1,
          "duration": 0.33333300000003874
        },
        {
          "name": "F4",
          "midi": 65,
          "time": 688.9993110000083,
          "velocity": 1,
          "duration": 0.33333300000003874
        },
        {
          "name": "A#2",
          "midi": 46,
          "time": 688.9993110000083,
          "velocity": 1,
          "duration": 0.33333300000003874
        },
        {
          "name": "G#4",
          "midi": 68,
          "time": 688.9993110000083,
          "velocity": 1,
          "duration": 0.33333300000003874
        },
        {
          "name": "G#4",
          "midi": 68,
          "time": 689.3326440000084,
          "velocity": 1,
          "duration": 0.33333300000003874
        },
        {
          "name": "A#2",
          "midi": 46,
          "time": 689.3326440000084,
          "velocity": 1,
          "duration": 0.33333300000003874
        },
        {
          "name": "F4",
          "midi": 65,
          "time": 689.3326440000084,
          "velocity": 1,
          "duration": 0.33333300000003874
        },
        {
          "name": "G#4",
          "midi": 68,
          "time": 689.6659770000084,
          "velocity": 1,
          "duration": 0.33333300000003874
        },
        {
          "name": "A#2",
          "midi": 46,
          "time": 689.6659770000084,
          "velocity": 1,
          "duration": 0.33333300000003874
        },
        {
          "name": "F4",
          "midi": 65,
          "time": 689.6659770000084,
          "velocity": 1,
          "duration": 0.33333300000003874
        },
        {
          "name": "F4",
          "midi": 65,
          "time": 689.9993100000084,
          "velocity": 1,
          "duration": 0.33333300000003874
        },
        {
          "name": "A#2",
          "midi": 46,
          "time": 689.9993100000084,
          "velocity": 1,
          "duration": 0.33333300000003874
        },
        {
          "name": "G#4",
          "midi": 68,
          "time": 689.9993100000084,
          "velocity": 1,
          "duration": 0.33333300000003874
        },
        {
          "name": "G#4",
          "midi": 68,
          "time": 690.3326430000085,
          "velocity": 1,
          "duration": 0.33333300000003874
        },
        {
          "name": "A#2",
          "midi": 46,
          "time": 690.3326430000085,
          "velocity": 1,
          "duration": 0.33333300000003874
        },
        {
          "name": "F4",
          "midi": 65,
          "time": 690.3326430000085,
          "velocity": 1,
          "duration": 0.33333300000003874
        },
        {
          "name": "G#4",
          "midi": 68,
          "time": 690.6659760000085,
          "velocity": 1,
          "duration": 0.33333300000003874
        },
        {
          "name": "A#2",
          "midi": 46,
          "time": 690.6659760000085,
          "velocity": 1,
          "duration": 0.33333300000003874
        },
        {
          "name": "F4",
          "midi": 65,
          "time": 690.6659760000085,
          "velocity": 1,
          "duration": 0.33333300000003874
        },
        {
          "name": "F4",
          "midi": 65,
          "time": 690.9993090000086,
          "velocity": 1,
          "duration": 0.33333300000003874
        },
        {
          "name": "A#2",
          "midi": 46,
          "time": 690.9993090000086,
          "velocity": 1,
          "duration": 0.33333300000003874
        },
        {
          "name": "G#4",
          "midi": 68,
          "time": 690.9993090000086,
          "velocity": 1,
          "duration": 0.33333300000003874
        },
        {
          "name": "G#4",
          "midi": 68,
          "time": 691.3326420000086,
          "velocity": 1,
          "duration": 0.33333300000003874
        },
        {
          "name": "A#2",
          "midi": 46,
          "time": 691.3326420000086,
          "velocity": 1,
          "duration": 0.33333300000003874
        },
        {
          "name": "F4",
          "midi": 65,
          "time": 691.3326420000086,
          "velocity": 1,
          "duration": 0.33333300000003874
        },
        {
          "name": "G#4",
          "midi": 68,
          "time": 691.6659750000086,
          "velocity": 1,
          "duration": 0.33333300000003874
        },
        {
          "name": "A#2",
          "midi": 46,
          "time": 691.6659750000086,
          "velocity": 1,
          "duration": 0.33333300000003874
        },
        {
          "name": "F4",
          "midi": 65,
          "time": 691.6659750000086,
          "velocity": 1,
          "duration": 0.33333300000003874
        },
        {
          "name": "D#4",
          "midi": 63,
          "time": 691.9993080000087,
          "velocity": 1,
          "duration": 0.33333300000003874
        },
        {
          "name": "D#3",
          "midi": 51,
          "time": 691.9993080000087,
          "velocity": 1,
          "duration": 0.33333300000003874
        },
        {
          "name": "G4",
          "midi": 67,
          "time": 691.9993080000087,
          "velocity": 1,
          "duration": 0.33333300000003874
        },
        {
          "name": "G4",
          "midi": 67,
          "time": 692.9993070000087,
          "velocity": 1,
          "duration": 0.33333300000003874
        },
        {
          "name": "D#4",
          "midi": 63,
          "time": 692.9993070000087,
          "velocity": 1,
          "duration": 0.33333300000003874
        },
        {
          "name": "D#4",
          "midi": 63,
          "time": 693.9993060000087,
          "velocity": 1,
          "duration": 0.33333300000003874
        },
        {
          "name": "G3",
          "midi": 55,
          "time": 693.9993060000087,
          "velocity": 1,
          "duration": 0.33333300000003874
        }
      ],
      "controlChanges": {},
      "id": 5,
      "name": "",
      "instrumentNumber": 60,
      "instrument": "french horn",
      "instrumentFamily": "brass",
      "channelNumber": 5,
      "isPercussion": false
    },
    {
      "startTime": 0,
      "duration": 694.3326390000061,
      "length": 740,
      "notes": [
        {
          "name": "D#4",
          "midi": 63,
          "time": 0,
          "velocity": 1,
          "duration": 0.333333
        },
        {
          "name": "D#3",
          "midi": 51,
          "time": 0,
          "velocity": 1,
          "duration": 0.333333
        },
        {
          "name": "D#4",
          "midi": 63,
          "time": 0.999999,
          "velocity": 1,
          "duration": 0.333333
        },
        {
          "name": "D#3",
          "midi": 51,
          "time": 0.999999,
          "velocity": 1,
          "duration": 0.333333
        },
        {
          "name": "D#3",
          "midi": 51,
          "time": 35.999964,
          "velocity": 1,
          "duration": 0.6666659999999993
        },
        {
          "name": "G3",
          "midi": 55,
          "time": 36.66663,
          "velocity": 1,
          "duration": 0.3333330000000032
        },
        {
          "name": "D#3",
          "midi": 51,
          "time": 36.999963,
          "velocity": 1,
          "duration": 0.6666659999999993
        },
        {
          "name": "A#2",
          "midi": 46,
          "time": 37.666629,
          "velocity": 1,
          "duration": 0.3333330000000032
        },
        {
          "name": "D#3",
          "midi": 51,
          "time": 37.999962000000004,
          "velocity": 1,
          "duration": 0.3333330000000032
        },
        {
          "name": "G3",
          "midi": 55,
          "time": 38.33329500000001,
          "velocity": 1,
          "duration": 0.3333330000000032
        },
        {
          "name": "A#3",
          "midi": 58,
          "time": 38.66662800000001,
          "velocity": 1,
          "duration": 0.3333330000000032
        },
        {
          "name": "D#3",
          "midi": 51,
          "time": 38.99996100000001,
          "velocity": 1,
          "duration": 0.6666659999999993
        },
        {
          "name": "G3",
          "midi": 55,
          "time": 39.66662700000001,
          "velocity": 1,
          "duration": 0.3333330000000032
        },
        {
          "name": "G3",
          "midi": 55,
          "time": 39.999960000000016,
          "velocity": 1,
          "duration": 0.3333330000000032
        },
        {
          "name": "G3",
          "midi": 55,
          "time": 40.33329300000002,
          "velocity": 1,
          "duration": 0.3333330000000032
        },
        {
          "name": "G3",
          "midi": 55,
          "time": 40.66662600000002,
          "velocity": 1,
          "duration": 0.3333330000000032
        },
        {
          "name": "G3",
          "midi": 55,
          "time": 40.999959000000025,
          "velocity": 1,
          "duration": 0.6666659999999993
        },
        {
          "name": "D#4",
          "midi": 63,
          "time": 41.666625000000025,
          "velocity": 1,
          "duration": 0.3333330000000032
        },
        {
          "name": "D#3",
          "midi": 51,
          "time": 41.666625000000025,
          "velocity": 1,
          "duration": 0.3333330000000032
        },
        {
          "name": "D#4",
          "midi": 63,
          "time": 41.99995800000003,
          "velocity": 1,
          "duration": 0.9999990000000025
        },
        {
          "name": "D#3",
          "midi": 51,
          "time": 41.99995800000003,
          "velocity": 1,
          "duration": 0.9999990000000025
        },
        {
          "name": "A#3",
          "midi": 58,
          "time": 42.99995700000003,
          "velocity": 1,
          "duration": 0.9999990000000025
        },
        {
          "name": "A#2",
          "midi": 46,
          "time": 42.99995700000003,
          "velocity": 1,
          "duration": 0.9999990000000025
        },
        {
          "name": "F4",
          "midi": 65,
          "time": 43.99995600000003,
          "velocity": 1,
          "duration": 0.3333330000000032
        },
        {
          "name": "F4",
          "midi": 65,
          "time": 54.33327900000003,
          "velocity": 1,
          "duration": 0.49999950000000126
        },
        {
          "name": "F4",
          "midi": 65,
          "time": 54.833278500000034,
          "velocity": 1,
          "duration": 0.16666649999999805
        },
        {
          "name": "F4",
          "midi": 65,
          "time": 54.99994500000003,
          "velocity": 1,
          "duration": 0.3333330000000032
        },
        {
          "name": "F4",
          "midi": 65,
          "time": 55.333278000000035,
          "velocity": 1,
          "duration": 0.3333330000000032
        },
        {
          "name": "F4",
          "midi": 65,
          "time": 55.66661100000004,
          "velocity": 1,
          "duration": 0.3333330000000032
        },
        {
          "name": "A#3",
          "midi": 58,
          "time": 55.99994400000004,
          "velocity": 1,
          "duration": 0.3333330000000032
        },
        {
          "name": "D#4",
          "midi": 63,
          "time": 63.99993600000005,
          "velocity": 1,
          "duration": 0.3333329999999961
        },
        {
          "name": "D#3",
          "midi": 51,
          "time": 63.99993600000005,
          "velocity": 1,
          "duration": 0.3333329999999961
        },
        {
          "name": "D#3",
          "midi": 51,
          "time": 64.33326900000004,
          "velocity": 1,
          "duration": 0.3333329999999961
        },
        {
          "name": "D#4",
          "midi": 63,
          "time": 64.33326900000004,
          "velocity": 1,
          "duration": 0.3333329999999961
        },
        {
          "name": "D#4",
          "midi": 63,
          "time": 65.83326750000003,
          "velocity": 1,
          "duration": 0.16666650000000516
        },
        {
          "name": "D#3",
          "midi": 51,
          "time": 65.83326750000003,
          "velocity": 1,
          "duration": 0.16666650000000516
        },
        {
          "name": "A#3",
          "midi": 58,
          "time": 65.99993400000004,
          "velocity": 1,
          "duration": 0.3333329999999961
        },
        {
          "name": "A#2",
          "midi": 46,
          "time": 65.99993400000004,
          "velocity": 1,
          "duration": 0.3333329999999961
        },
        {
          "name": "A#3",
          "midi": 58,
          "time": 66.33326700000003,
          "velocity": 1,
          "duration": 0.3333329999999961
        },
        {
          "name": "A#2",
          "midi": 46,
          "time": 66.33326700000003,
          "velocity": 1,
          "duration": 0.3333329999999961
        },
        {
          "name": "G4",
          "midi": 67,
          "time": 67.83326550000002,
          "velocity": 1,
          "duration": 0.16666650000000516
        },
        {
          "name": "G3",
          "midi": 55,
          "time": 67.83326550000002,
          "velocity": 1,
          "duration": 0.16666650000000516
        },
        {
          "name": "F4",
          "midi": 65,
          "time": 67.99993200000003,
          "velocity": 1,
          "duration": 0.3333329999999961
        },
        {
          "name": "F4",
          "midi": 65,
          "time": 68.33326500000003,
          "velocity": 1,
          "duration": 0.3333329999999961
        },
        {
          "name": "F4",
          "midi": 65,
          "time": 69.83326350000002,
          "velocity": 1,
          "duration": 0.16666650000000516
        },
        {
          "name": "D#4",
          "midi": 63,
          "time": 69.99993000000002,
          "velocity": 1,
          "duration": 0.3333329999999961
        },
        {
          "name": "A#3",
          "midi": 58,
          "time": 72.33326100000002,
          "velocity": 1,
          "duration": 0.3333329999999961
        },
        {
          "name": "A#2",
          "midi": 46,
          "time": 72.33326100000002,
          "velocity": 1,
          "duration": 0.3333329999999961
        },
        {
          "name": "A#3",
          "midi": 58,
          "time": 72.66659400000002,
          "velocity": 1,
          "duration": 0.3333329999999961
        },
        {
          "name": "A#2",
          "midi": 46,
          "time": 72.66659400000002,
          "velocity": 1,
          "duration": 0.3333329999999961
        },
        {
          "name": "A#3",
          "midi": 58,
          "time": 72.99992700000001,
          "velocity": 1,
          "duration": 0.3333329999999961
        },
        {
          "name": "A#2",
          "midi": 46,
          "time": 72.99992700000001,
          "velocity": 1,
          "duration": 0.3333329999999961
        },
        {
          "name": "A#3",
          "midi": 58,
          "time": 73.33326000000001,
          "velocity": 1,
          "duration": 0.3333329999999961
        },
        {
          "name": "A#2",
          "midi": 46,
          "time": 73.33326000000001,
          "velocity": 1,
          "duration": 0.3333329999999961
        },
        {
          "name": "A#3",
          "midi": 58,
          "time": 73.666593,
          "velocity": 1,
          "duration": 0.3333329999999961
        },
        {
          "name": "A#2",
          "midi": 46,
          "time": 73.666593,
          "velocity": 1,
          "duration": 0.3333329999999961
        },
        {
          "name": "A#3",
          "midi": 58,
          "time": 73.999926,
          "velocity": 1,
          "duration": 0.3333329999999961
        },
        {
          "name": "A#2",
          "midi": 46,
          "time": 73.999926,
          "velocity": 1,
          "duration": 0.3333329999999961
        },
        {
          "name": "G3",
          "midi": 55,
          "time": 74.999925,
          "velocity": 1,
          "duration": 0.9999990000000025
        },
        {
          "name": "G4",
          "midi": 67,
          "time": 74.999925,
          "velocity": 1,
          "duration": 0.9999990000000025
        },
        {
          "name": "F4",
          "midi": 65,
          "time": 75.99992400000001,
          "velocity": 1,
          "duration": 0.3333329999999961
        },
        {
          "name": "F4",
          "midi": 65,
          "time": 77.999922,
          "velocity": 1,
          "duration": 2.333331000000001
        },
        {
          "name": "F4",
          "midi": 65,
          "time": 80.333253,
          "velocity": 1,
          "duration": 0.3333329999999961
        },
        {
          "name": "F4",
          "midi": 65,
          "time": 80.666586,
          "velocity": 1,
          "duration": 0.3333329999999961
        },
        {
          "name": "F4",
          "midi": 65,
          "time": 80.99991899999999,
          "velocity": 1,
          "duration": 0.3333329999999961
        },
        {
          "name": "F4",
          "midi": 65,
          "time": 81.33325199999999,
          "velocity": 1,
          "duration": 0.3333329999999961
        },
        {
          "name": "F4",
          "midi": 65,
          "time": 81.66658499999998,
          "velocity": 1,
          "duration": 0.3333329999999961
        },
        {
          "name": "A#3",
          "midi": 58,
          "time": 81.99991799999998,
          "velocity": 1,
          "duration": 0.3333329999999961
        },
        {
          "name": "A#2",
          "midi": 46,
          "time": 81.99991799999998,
          "velocity": 1,
          "duration": 0.3333329999999961
        },
        {
          "name": "F4",
          "midi": 65,
          "time": 108.33322499999997,
          "velocity": 1,
          "duration": 0.6666660000000064
        },
        {
          "name": "F4",
          "midi": 65,
          "time": 109.33322399999997,
          "velocity": 1,
          "duration": 0.6666660000000064
        },
        {
          "name": "F4",
          "midi": 65,
          "time": 110.33322299999998,
          "velocity": 1,
          "duration": 0.6666660000000064
        },
        {
          "name": "F4",
          "midi": 65,
          "time": 111.33322199999998,
          "velocity": 1,
          "duration": 0.3333329999999961
        },
        {
          "name": "F4",
          "midi": 65,
          "time": 111.66655499999997,
          "velocity": 1,
          "duration": 0.3333329999999961
        },
        {
          "name": "F4",
          "midi": 65,
          "time": 111.99988799999997,
          "velocity": 1,
          "duration": 3.3333300000000037
        },
        {
          "name": "F4",
          "midi": 65,
          "time": 115.33321799999997,
          "velocity": 1,
          "duration": 0.3333329999999961
        },
        {
          "name": "F4",
          "midi": 65,
          "time": 115.66655099999997,
          "velocity": 1,
          "duration": 0.3333329999999961
        },
        {
          "name": "F4",
          "midi": 65,
          "time": 115.99988399999997,
          "velocity": 1,
          "duration": 0.3333329999999961
        },
        {
          "name": "A#3",
          "midi": 58,
          "time": 116.33321699999996,
          "velocity": 1,
          "duration": 0.8333324999999974
        },
        {
          "name": "A#2",
          "midi": 46,
          "time": 116.33321699999996,
          "velocity": 1,
          "duration": 0.8333324999999974
        },
        {
          "name": "G3",
          "midi": 55,
          "time": 123.66654299999996,
          "velocity": 1,
          "duration": 0.3333329999999961
        },
        {
          "name": "D#3",
          "midi": 51,
          "time": 123.66654299999996,
          "velocity": 1,
          "duration": 0.3333329999999961
        },
        {
          "name": "A#3",
          "midi": 58,
          "time": 125.66654099999995,
          "velocity": 1,
          "duration": 0.3333329999999961
        },
        {
          "name": "A#2",
          "midi": 46,
          "time": 125.66654099999995,
          "velocity": 1,
          "duration": 0.3333329999999961
        },
        {
          "name": "D#4",
          "midi": 63,
          "time": 126.66653999999996,
          "velocity": 1,
          "duration": 0.3333329999999961
        },
        {
          "name": "D#3",
          "midi": 51,
          "time": 126.66653999999996,
          "velocity": 1,
          "duration": 0.3333329999999961
        },
        {
          "name": "A#3",
          "midi": 58,
          "time": 127.33320599999995,
          "velocity": 1,
          "duration": 0.3333329999999961
        },
        {
          "name": "A#2",
          "midi": 46,
          "time": 127.33320599999995,
          "velocity": 1,
          "duration": 0.3333329999999961
        },
        {
          "name": "A#2",
          "midi": 46,
          "time": 127.99987199999994,
          "velocity": 1,
          "duration": 0.3333329999999961
        },
        {
          "name": "A#3",
          "midi": 58,
          "time": 127.99987199999994,
          "velocity": 1,
          "duration": 0.3333329999999961
        },
        {
          "name": "A#3",
          "midi": 58,
          "time": 128.66653799999995,
          "velocity": 1,
          "duration": 0.3333330000000103
        },
        {
          "name": "A#2",
          "midi": 46,
          "time": 128.66653799999995,
          "velocity": 1,
          "duration": 0.3333330000000103
        },
        {
          "name": "A#3",
          "midi": 58,
          "time": 129.33320399999997,
          "velocity": 1,
          "duration": 0.3333330000000103
        },
        {
          "name": "A#2",
          "midi": 46,
          "time": 129.33320399999997,
          "velocity": 1,
          "duration": 0.3333330000000103
        },
        {
          "name": "A#3",
          "midi": 58,
          "time": 129.99987,
          "velocity": 1,
          "duration": 0.3333330000000103
        },
        {
          "name": "A#2",
          "midi": 46,
          "time": 129.99987,
          "velocity": 1,
          "duration": 0.3333330000000103
        },
        {
          "name": "A#3",
          "midi": 58,
          "time": 130.666536,
          "velocity": 1,
          "duration": 0.3333330000000103
        },
        {
          "name": "A#2",
          "midi": 46,
          "time": 130.666536,
          "velocity": 1,
          "duration": 0.3333330000000103
        },
        {
          "name": "F4",
          "midi": 65,
          "time": 141.99985800000002,
          "velocity": 1,
          "duration": 0.9999990000000025
        },
        {
          "name": "A#3",
          "midi": 58,
          "time": 142.99985700000002,
          "velocity": 1,
          "duration": 0.3333330000000103
        },
        {
          "name": "A#2",
          "midi": 46,
          "time": 142.99985700000002,
          "velocity": 1,
          "duration": 0.3333330000000103
        },
        {
          "name": "A#2",
          "midi": 46,
          "time": 143.99985600000002,
          "velocity": 1,
          "duration": 0.3333330000000103
        },
        {
          "name": "A#3",
          "midi": 58,
          "time": 143.99985600000002,
          "velocity": 1,
          "duration": 0.3333330000000103
        },
        {
          "name": "A#3",
          "midi": 58,
          "time": 144.99985500000003,
          "velocity": 1,
          "duration": 0.3333330000000103
        },
        {
          "name": "A#2",
          "midi": 46,
          "time": 144.99985500000003,
          "velocity": 1,
          "duration": 0.3333330000000103
        },
        {
          "name": "A#3",
          "midi": 58,
          "time": 145.99985400000003,
          "velocity": 1,
          "duration": 0.3333330000000103
        },
        {
          "name": "A#2",
          "midi": 46,
          "time": 145.99985400000003,
          "velocity": 1,
          "duration": 0.3333330000000103
        },
        {
          "name": "A#3",
          "midi": 58,
          "time": 146.33318700000004,
          "velocity": 1,
          "duration": 0.3333330000000103
        },
        {
          "name": "A#2",
          "midi": 46,
          "time": 146.33318700000004,
          "velocity": 1,
          "duration": 0.3333330000000103
        },
        {
          "name": "A#3",
          "midi": 58,
          "time": 146.66652000000005,
          "velocity": 1,
          "duration": 0.3333330000000103
        },
        {
          "name": "A#2",
          "midi": 46,
          "time": 146.66652000000005,
          "velocity": 1,
          "duration": 0.3333330000000103
        },
        {
          "name": "A#3",
          "midi": 58,
          "time": 146.99985300000006,
          "velocity": 1,
          "duration": 0.3333330000000103
        },
        {
          "name": "A#2",
          "midi": 46,
          "time": 146.99985300000006,
          "velocity": 1,
          "duration": 0.3333330000000103
        },
        {
          "name": "F4",
          "midi": 65,
          "time": 189.33314400000006,
          "velocity": 1,
          "duration": 0.3333330000000103
        },
        {
          "name": "F4",
          "midi": 65,
          "time": 189.66647700000007,
          "velocity": 1,
          "duration": 0.3333330000000103
        },
        {
          "name": "F4",
          "midi": 65,
          "time": 189.99981000000008,
          "velocity": 1,
          "duration": 0.3333330000000103
        },
        {
          "name": "F4",
          "midi": 65,
          "time": 190.3331430000001,
          "velocity": 1,
          "duration": 0.3333330000000103
        },
        {
          "name": "F4",
          "midi": 65,
          "time": 190.6664760000001,
          "velocity": 1,
          "duration": 0.3333330000000103
        },
        {
          "name": "F4",
          "midi": 65,
          "time": 190.9998090000001,
          "velocity": 1,
          "duration": 1.999998000000005
        },
        {
          "name": "G4",
          "midi": 67,
          "time": 192.99980700000012,
          "velocity": 1,
          "duration": 0.3333330000000103
        },
        {
          "name": "G4",
          "midi": 67,
          "time": 193.33314000000013,
          "velocity": 1,
          "duration": 0.3333330000000103
        },
        {
          "name": "G3",
          "midi": 55,
          "time": 193.33314000000013,
          "velocity": 1,
          "duration": 0.3333330000000103
        },
        {
          "name": "G3",
          "midi": 55,
          "time": 193.66647300000014,
          "velocity": 1,
          "duration": 0.3333330000000103
        },
        {
          "name": "G4",
          "midi": 67,
          "time": 193.66647300000014,
          "velocity": 1,
          "duration": 0.3333330000000103
        },
        {
          "name": "G4",
          "midi": 67,
          "time": 193.99980600000015,
          "velocity": 1,
          "duration": 0.3333330000000103
        },
        {
          "name": "G3",
          "midi": 55,
          "time": 193.99980600000015,
          "velocity": 1,
          "duration": 0.3333330000000103
        },
        {
          "name": "G4",
          "midi": 67,
          "time": 194.33313900000016,
          "velocity": 1,
          "duration": 0.3333330000000103
        },
        {
          "name": "G3",
          "midi": 55,
          "time": 194.33313900000016,
          "velocity": 1,
          "duration": 0.3333330000000103
        },
        {
          "name": "G4",
          "midi": 67,
          "time": 194.66647200000017,
          "velocity": 1,
          "duration": 0.3333330000000103
        },
        {
          "name": "G3",
          "midi": 55,
          "time": 194.66647200000017,
          "velocity": 1,
          "duration": 0.3333330000000103
        },
        {
          "name": "G4",
          "midi": 67,
          "time": 194.99980500000018,
          "velocity": 1,
          "duration": 1.999998000000005
        },
        {
          "name": "G3",
          "midi": 55,
          "time": 194.99980500000018,
          "velocity": 1,
          "duration": 1.999998000000005
        },
        {
          "name": "A#3",
          "midi": 58,
          "time": 201.33313200000018,
          "velocity": 1,
          "duration": 0.3333330000000103
        },
        {
          "name": "A#2",
          "midi": 46,
          "time": 201.33313200000018,
          "velocity": 1,
          "duration": 0.3333330000000103
        },
        {
          "name": "A#2",
          "midi": 46,
          "time": 201.6664650000002,
          "velocity": 1,
          "duration": 0.3333330000000103
        },
        {
          "name": "A#3",
          "midi": 58,
          "time": 201.6664650000002,
          "velocity": 1,
          "duration": 0.3333330000000103
        },
        {
          "name": "A#3",
          "midi": 58,
          "time": 201.9997980000002,
          "velocity": 1,
          "duration": 0.3333330000000103
        },
        {
          "name": "A#2",
          "midi": 46,
          "time": 201.9997980000002,
          "velocity": 1,
          "duration": 0.3333330000000103
        },
        {
          "name": "A#3",
          "midi": 58,
          "time": 202.3331310000002,
          "velocity": 1,
          "duration": 0.3333330000000103
        },
        {
          "name": "A#2",
          "midi": 46,
          "time": 202.3331310000002,
          "velocity": 1,
          "duration": 0.3333330000000103
        },
        {
          "name": "A#3",
          "midi": 58,
          "time": 202.66646400000022,
          "velocity": 1,
          "duration": 0.3333330000000103
        },
        {
          "name": "A#2",
          "midi": 46,
          "time": 202.66646400000022,
          "velocity": 1,
          "duration": 0.3333330000000103
        },
        {
          "name": "A#3",
          "midi": 58,
          "time": 202.99979700000023,
          "velocity": 1,
          "duration": 1.999998000000005
        },
        {
          "name": "A#2",
          "midi": 46,
          "time": 202.99979700000023,
          "velocity": 1,
          "duration": 1.999998000000005
        },
        {
          "name": "F4",
          "midi": 65,
          "time": 251.33308200000022,
          "velocity": 1,
          "duration": 1.999998000000005
        },
        {
          "name": "F4",
          "midi": 65,
          "time": 253.33308000000022,
          "velocity": 1,
          "duration": 0.6666659999999922
        },
        {
          "name": "F4",
          "midi": 65,
          "time": 253.99974600000021,
          "velocity": 1,
          "duration": 0.6666659999999922
        },
        {
          "name": "F4",
          "midi": 65,
          "time": 254.6664120000002,
          "velocity": 1,
          "duration": 0.6666659999999922
        },
        {
          "name": "F4",
          "midi": 65,
          "time": 255.3330780000002,
          "velocity": 1,
          "duration": 0.6666659999999922
        },
        {
          "name": "F4",
          "midi": 65,
          "time": 255.9997440000002,
          "velocity": 1,
          "duration": 0.6666660000000206
        },
        {
          "name": "F4",
          "midi": 65,
          "time": 256.6664100000002,
          "velocity": 1,
          "duration": 0.3333329999999819
        },
        {
          "name": "D#4",
          "midi": 63,
          "time": 263.3330700000002,
          "velocity": 1,
          "duration": 1.999998000000005
        },
        {
          "name": "D#3",
          "midi": 51,
          "time": 263.3330700000002,
          "velocity": 1,
          "duration": 1.999998000000005
        },
        {
          "name": "D#4",
          "midi": 63,
          "time": 265.3330680000002,
          "velocity": 1,
          "duration": 0.6666660000000206
        },
        {
          "name": "D#3",
          "midi": 51,
          "time": 265.3330680000002,
          "velocity": 1,
          "duration": 0.6666660000000206
        },
        {
          "name": "D#4",
          "midi": 63,
          "time": 265.9997340000002,
          "velocity": 1,
          "duration": 0.6666660000000206
        },
        {
          "name": "D#3",
          "midi": 51,
          "time": 265.9997340000002,
          "velocity": 1,
          "duration": 0.6666660000000206
        },
        {
          "name": "D#4",
          "midi": 63,
          "time": 266.66640000000024,
          "velocity": 1,
          "duration": 0.6666660000000206
        },
        {
          "name": "D#3",
          "midi": 51,
          "time": 266.66640000000024,
          "velocity": 1,
          "duration": 0.6666660000000206
        },
        {
          "name": "D#4",
          "midi": 63,
          "time": 267.33306600000026,
          "velocity": 1,
          "duration": 0.6666660000000206
        },
        {
          "name": "D#3",
          "midi": 51,
          "time": 267.33306600000026,
          "velocity": 1,
          "duration": 0.6666660000000206
        },
        {
          "name": "D#4",
          "midi": 63,
          "time": 267.9997320000003,
          "velocity": 1,
          "duration": 0.6666660000000206
        },
        {
          "name": "D#3",
          "midi": 51,
          "time": 267.9997320000003,
          "velocity": 1,
          "duration": 0.6666660000000206
        },
        {
          "name": "D#4",
          "midi": 63,
          "time": 268.6663980000003,
          "velocity": 1,
          "duration": 0.3333329999999819
        },
        {
          "name": "D#3",
          "midi": 51,
          "time": 268.6663980000003,
          "velocity": 1,
          "duration": 0.3333329999999819
        },
        {
          "name": "G4",
          "midi": 67,
          "time": 269.33306400000026,
          "velocity": 1,
          "duration": 1.999998000000005
        },
        {
          "name": "G3",
          "midi": 55,
          "time": 269.33306400000026,
          "velocity": 1,
          "duration": 1.999998000000005
        },
        {
          "name": "G3",
          "midi": 55,
          "time": 271.33306200000027,
          "velocity": 1,
          "duration": 0.6666660000000206
        },
        {
          "name": "G4",
          "midi": 67,
          "time": 271.33306200000027,
          "velocity": 1,
          "duration": 0.6666660000000206
        },
        {
          "name": "G4",
          "midi": 67,
          "time": 271.9997280000003,
          "velocity": 1,
          "duration": 0.6666660000000206
        },
        {
          "name": "G3",
          "midi": 55,
          "time": 271.9997280000003,
          "velocity": 1,
          "duration": 0.6666660000000206
        },
        {
          "name": "G4",
          "midi": 67,
          "time": 272.6663940000003,
          "velocity": 1,
          "duration": 0.6666660000000206
        },
        {
          "name": "G3",
          "midi": 55,
          "time": 272.6663940000003,
          "velocity": 1,
          "duration": 0.6666660000000206
        },
        {
          "name": "G4",
          "midi": 67,
          "time": 273.33306000000033,
          "velocity": 1,
          "duration": 0.6666660000000206
        },
        {
          "name": "G3",
          "midi": 55,
          "time": 273.33306000000033,
          "velocity": 1,
          "duration": 0.6666660000000206
        },
        {
          "name": "G4",
          "midi": 67,
          "time": 273.99972600000035,
          "velocity": 1,
          "duration": 0.6666660000000206
        },
        {
          "name": "G3",
          "midi": 55,
          "time": 273.99972600000035,
          "velocity": 1,
          "duration": 0.6666660000000206
        },
        {
          "name": "G4",
          "midi": 67,
          "time": 274.66639200000037,
          "velocity": 1,
          "duration": 0.3333329999999819
        },
        {
          "name": "G3",
          "midi": 55,
          "time": 274.66639200000037,
          "velocity": 1,
          "duration": 0.3333329999999819
        },
        {
          "name": "D#3",
          "midi": 51,
          "time": 275.33305800000034,
          "velocity": 1,
          "duration": 0.6666660000000206
        },
        {
          "name": "D#4",
          "midi": 63,
          "time": 275.33305800000034,
          "velocity": 1,
          "duration": 0.6666660000000206
        },
        {
          "name": "D#4",
          "midi": 63,
          "time": 275.99972400000036,
          "velocity": 1,
          "duration": 0.6666660000000206
        },
        {
          "name": "D#3",
          "midi": 51,
          "time": 275.99972400000036,
          "velocity": 1,
          "duration": 0.6666660000000206
        },
        {
          "name": "D#4",
          "midi": 63,
          "time": 276.6663900000004,
          "velocity": 1,
          "duration": 0.3333329999999819
        },
        {
          "name": "D#3",
          "midi": 51,
          "time": 276.6663900000004,
          "velocity": 1,
          "duration": 0.3333329999999819
        },
        {
          "name": "G3",
          "midi": 55,
          "time": 277.33305600000034,
          "velocity": 1,
          "duration": 0.6666660000000206
        },
        {
          "name": "G3",
          "midi": 55,
          "time": 277.99972200000036,
          "velocity": 1,
          "duration": 0.6666660000000206
        },
        {
          "name": "G3",
          "midi": 55,
          "time": 278.6663880000004,
          "velocity": 1,
          "duration": 0.3333329999999819
        },
        {
          "name": "F4",
          "midi": 65,
          "time": 278.99972100000036,
          "velocity": 1,
          "duration": 0.6666660000000206
        },
        {
          "name": "F4",
          "midi": 65,
          "time": 279.99972000000037,
          "velocity": 1,
          "duration": 0.6666660000000206
        },
        {
          "name": "F4",
          "midi": 65,
          "time": 280.99971900000037,
          "velocity": 1,
          "duration": 0.6666660000000206
        },
        {
          "name": "F4",
          "midi": 65,
          "time": 281.99971800000037,
          "velocity": 1,
          "duration": 0.6666660000000206
        },
        {
          "name": "F4",
          "midi": 65,
          "time": 282.6663840000004,
          "velocity": 1,
          "duration": 0.3333329999999819
        },
        {
          "name": "G4",
          "midi": 67,
          "time": 306.9996930000004,
          "velocity": 1,
          "duration": 2.333330999999987
        },
        {
          "name": "G3",
          "midi": 55,
          "time": 306.9996930000004,
          "velocity": 1,
          "duration": 2.333330999999987
        },
        {
          "name": "G4",
          "midi": 67,
          "time": 309.33302400000036,
          "velocity": 1,
          "duration": 0.3333329999999819
        },
        {
          "name": "G3",
          "midi": 55,
          "time": 309.33302400000036,
          "velocity": 1,
          "duration": 0.3333329999999819
        },
        {
          "name": "G3",
          "midi": 55,
          "time": 309.66635700000035,
          "velocity": 1,
          "duration": 0.3333329999999819
        },
        {
          "name": "G4",
          "midi": 67,
          "time": 309.66635700000035,
          "velocity": 1,
          "duration": 0.3333329999999819
        },
        {
          "name": "G4",
          "midi": 67,
          "time": 309.9996900000003,
          "velocity": 1,
          "duration": 0.3333329999999819
        },
        {
          "name": "G3",
          "midi": 55,
          "time": 309.9996900000003,
          "velocity": 1,
          "duration": 0.3333329999999819
        },
        {
          "name": "G4",
          "midi": 67,
          "time": 310.3330230000003,
          "velocity": 1,
          "duration": 0.3333329999999819
        },
        {
          "name": "G3",
          "midi": 55,
          "time": 310.3330230000003,
          "velocity": 1,
          "duration": 0.3333329999999819
        },
        {
          "name": "G4",
          "midi": 67,
          "time": 310.6663560000003,
          "velocity": 1,
          "duration": 2.6666640000000257
        },
        {
          "name": "G3",
          "midi": 55,
          "time": 310.6663560000003,
          "velocity": 1,
          "duration": 2.6666640000000257
        },
        {
          "name": "G3",
          "midi": 55,
          "time": 313.3330200000003,
          "velocity": 1,
          "duration": 0.3333329999999819
        },
        {
          "name": "G4",
          "midi": 67,
          "time": 313.3330200000003,
          "velocity": 1,
          "duration": 0.3333329999999819
        },
        {
          "name": "G4",
          "midi": 67,
          "time": 313.6663530000003,
          "velocity": 1,
          "duration": 0.3333329999999819
        },
        {
          "name": "G3",
          "midi": 55,
          "time": 313.6663530000003,
          "velocity": 1,
          "duration": 0.3333329999999819
        },
        {
          "name": "G4",
          "midi": 67,
          "time": 313.9996860000003,
          "velocity": 1,
          "duration": 0.3333329999999819
        },
        {
          "name": "G3",
          "midi": 55,
          "time": 313.9996860000003,
          "velocity": 1,
          "duration": 0.3333329999999819
        },
        {
          "name": "G4",
          "midi": 67,
          "time": 314.33301900000026,
          "velocity": 1,
          "duration": 0.3333329999999819
        },
        {
          "name": "G3",
          "midi": 55,
          "time": 314.33301900000026,
          "velocity": 1,
          "duration": 0.3333329999999819
        },
        {
          "name": "G4",
          "midi": 67,
          "time": 314.66635200000024,
          "velocity": 1,
          "duration": 0.6666660000000206
        },
        {
          "name": "G3",
          "midi": 55,
          "time": 314.66635200000024,
          "velocity": 1,
          "duration": 0.6666660000000206
        },
        {
          "name": "A#3",
          "midi": 58,
          "time": 318.99968100000024,
          "velocity": 1,
          "duration": 0.3333329999999819
        },
        {
          "name": "A#2",
          "midi": 46,
          "time": 318.99968100000024,
          "velocity": 1,
          "duration": 0.3333329999999819
        },
        {
          "name": "A#2",
          "midi": 46,
          "time": 319.3330140000002,
          "velocity": 1,
          "duration": 0.3333329999999819
        },
        {
          "name": "A#3",
          "midi": 58,
          "time": 319.3330140000002,
          "velocity": 1,
          "duration": 0.3333329999999819
        },
        {
          "name": "A#3",
          "midi": 58,
          "time": 319.6663470000002,
          "velocity": 1,
          "duration": 0.3333329999999819
        },
        {
          "name": "A#2",
          "midi": 46,
          "time": 319.6663470000002,
          "velocity": 1,
          "duration": 0.3333329999999819
        },
        {
          "name": "A#3",
          "midi": 58,
          "time": 319.9996800000002,
          "velocity": 1,
          "duration": 0.3333329999999819
        },
        {
          "name": "A#2",
          "midi": 46,
          "time": 319.9996800000002,
          "velocity": 1,
          "duration": 0.3333329999999819
        },
        {
          "name": "A#3",
          "midi": 58,
          "time": 320.33301300000016,
          "velocity": 1,
          "duration": 0.3333329999999819
        },
        {
          "name": "A#2",
          "midi": 46,
          "time": 320.33301300000016,
          "velocity": 1,
          "duration": 0.3333329999999819
        },
        {
          "name": "A#3",
          "midi": 58,
          "time": 320.66634600000015,
          "velocity": 1,
          "duration": 2.6666640000000257
        },
        {
          "name": "A#2",
          "midi": 46,
          "time": 320.66634600000015,
          "velocity": 1,
          "duration": 2.6666640000000257
        },
        {
          "name": "A#3",
          "midi": 58,
          "time": 323.3330100000002,
          "velocity": 1,
          "duration": 0.3333329999999819
        },
        {
          "name": "A#2",
          "midi": 46,
          "time": 323.3330100000002,
          "velocity": 1,
          "duration": 0.3333329999999819
        },
        {
          "name": "A#3",
          "midi": 58,
          "time": 323.66634300000015,
          "velocity": 1,
          "duration": 0.3333329999999819
        },
        {
          "name": "A#2",
          "midi": 46,
          "time": 323.66634300000015,
          "velocity": 1,
          "duration": 0.3333329999999819
        },
        {
          "name": "A#3",
          "midi": 58,
          "time": 323.99967600000014,
          "velocity": 1,
          "duration": 0.3333329999999819
        },
        {
          "name": "A#2",
          "midi": 46,
          "time": 323.99967600000014,
          "velocity": 1,
          "duration": 0.3333329999999819
        },
        {
          "name": "D#4",
          "midi": 63,
          "time": 324.3330090000001,
          "velocity": 1,
          "duration": 0.3333329999999819
        },
        {
          "name": "D#3",
          "midi": 51,
          "time": 324.3330090000001,
          "velocity": 1,
          "duration": 0.3333329999999819
        },
        {
          "name": "D#4",
          "midi": 63,
          "time": 324.6663420000001,
          "velocity": 1,
          "duration": 0.3333329999999819
        },
        {
          "name": "D#3",
          "midi": 51,
          "time": 324.6663420000001,
          "velocity": 1,
          "duration": 0.3333329999999819
        },
        {
          "name": "D#4",
          "midi": 63,
          "time": 324.9996750000001,
          "velocity": 1,
          "duration": 0.3333329999999819
        },
        {
          "name": "D#3",
          "midi": 51,
          "time": 324.9996750000001,
          "velocity": 1,
          "duration": 0.3333329999999819
        },
        {
          "name": "D#4",
          "midi": 63,
          "time": 364.99963500000007,
          "velocity": 1,
          "duration": 2.333330999999987
        },
        {
          "name": "D#3",
          "midi": 51,
          "time": 364.99963500000007,
          "velocity": 1,
          "duration": 2.333330999999987
        },
        {
          "name": "D#4",
          "midi": 63,
          "time": 367.33296600000006,
          "velocity": 1,
          "duration": 0.3333329999999819
        },
        {
          "name": "D#3",
          "midi": 51,
          "time": 367.33296600000006,
          "velocity": 1,
          "duration": 0.3333329999999819
        },
        {
          "name": "D#4",
          "midi": 63,
          "time": 367.66629900000004,
          "velocity": 1,
          "duration": 0.3333329999999819
        },
        {
          "name": "D#3",
          "midi": 51,
          "time": 367.66629900000004,
          "velocity": 1,
          "duration": 0.3333329999999819
        },
        {
          "name": "D#4",
          "midi": 63,
          "time": 367.999632,
          "velocity": 1,
          "duration": 0.3333329999999819
        },
        {
          "name": "D#3",
          "midi": 51,
          "time": 367.999632,
          "velocity": 1,
          "duration": 0.3333329999999819
        },
        {
          "name": "D#4",
          "midi": 63,
          "time": 368.332965,
          "velocity": 1,
          "duration": 0.3333329999999819
        },
        {
          "name": "D#3",
          "midi": 51,
          "time": 368.332965,
          "velocity": 1,
          "duration": 0.3333329999999819
        },
        {
          "name": "D#4",
          "midi": 63,
          "time": 368.666298,
          "velocity": 1,
          "duration": 0.3333329999999819
        },
        {
          "name": "D#3",
          "midi": 51,
          "time": 368.666298,
          "velocity": 1,
          "duration": 0.3333329999999819
        },
        {
          "name": "D#3",
          "midi": 51,
          "time": 368.99963099999997,
          "velocity": 1,
          "duration": 0.3333329999999819
        },
        {
          "name": "D#4",
          "midi": 63,
          "time": 368.99963099999997,
          "velocity": 1,
          "duration": 0.3333329999999819
        },
        {
          "name": "A#3",
          "midi": 58,
          "time": 398.9996009999999,
          "velocity": 1,
          "duration": 0.9999990000000025
        },
        {
          "name": "A#2",
          "midi": 46,
          "time": 398.9996009999999,
          "velocity": 1,
          "duration": 0.9999990000000025
        },
        {
          "name": "A#3",
          "midi": 58,
          "time": 399.99959999999993,
          "velocity": 1,
          "duration": 0.9999990000000025
        },
        {
          "name": "A#2",
          "midi": 46,
          "time": 399.99959999999993,
          "velocity": 1,
          "duration": 0.9999990000000025
        },
        {
          "name": "D#4",
          "midi": 63,
          "time": 400.99959899999993,
          "velocity": 1,
          "duration": 0.3333329999999819
        },
        {
          "name": "D#3",
          "midi": 51,
          "time": 400.99959899999993,
          "velocity": 1,
          "duration": 0.3333329999999819
        },
        {
          "name": "A#3",
          "midi": 58,
          "time": 431.6662349999999,
          "velocity": 1,
          "duration": 0.16666650000001937
        },
        {
          "name": "A#2",
          "midi": 46,
          "time": 431.6662349999999,
          "velocity": 1,
          "duration": 0.16666650000001937
        },
        {
          "name": "A#3",
          "midi": 58,
          "time": 431.83290149999993,
          "velocity": 1,
          "duration": 0.16666650000001937
        },
        {
          "name": "A#2",
          "midi": 46,
          "time": 431.83290149999993,
          "velocity": 1,
          "duration": 0.16666650000001937
        },
        {
          "name": "A#3",
          "midi": 58,
          "time": 431.99956799999995,
          "velocity": 1,
          "duration": 0.16666650000001937
        },
        {
          "name": "A#2",
          "midi": 46,
          "time": 431.99956799999995,
          "velocity": 1,
          "duration": 0.16666650000001937
        },
        {
          "name": "A#2",
          "midi": 46,
          "time": 432.1662345,
          "velocity": 1,
          "duration": 0.16666650000001937
        },
        {
          "name": "A#3",
          "midi": 58,
          "time": 432.1662345,
          "velocity": 1,
          "duration": 0.16666650000001937
        },
        {
          "name": "A#3",
          "midi": 58,
          "time": 432.332901,
          "velocity": 1,
          "duration": 0.16666650000001937
        },
        {
          "name": "A#2",
          "midi": 46,
          "time": 432.332901,
          "velocity": 1,
          "duration": 0.16666650000001937
        },
        {
          "name": "A#3",
          "midi": 58,
          "time": 432.4995675,
          "velocity": 1,
          "duration": 0.16666650000001937
        },
        {
          "name": "A#2",
          "midi": 46,
          "time": 432.4995675,
          "velocity": 1,
          "duration": 0.16666650000001937
        },
        {
          "name": "A#3",
          "midi": 58,
          "time": 432.66623400000003,
          "velocity": 1,
          "duration": 0.16666650000001937
        },
        {
          "name": "A#2",
          "midi": 46,
          "time": 432.66623400000003,
          "velocity": 1,
          "duration": 0.16666650000001937
        },
        {
          "name": "A#3",
          "midi": 58,
          "time": 432.83290050000005,
          "velocity": 1,
          "duration": 0.16666650000001937
        },
        {
          "name": "A#2",
          "midi": 46,
          "time": 432.83290050000005,
          "velocity": 1,
          "duration": 0.16666650000001937
        },
        {
          "name": "D#4",
          "midi": 63,
          "time": 432.99956700000007,
          "velocity": 1,
          "duration": 1.6666650000000232
        },
        {
          "name": "D#3",
          "midi": 51,
          "time": 432.99956700000007,
          "velocity": 1,
          "duration": 1.6666650000000232
        },
        {
          "name": "A#2",
          "midi": 46,
          "time": 434.6662320000001,
          "velocity": 1,
          "duration": 0.3333329999999819
        },
        {
          "name": "A#3",
          "midi": 58,
          "time": 434.6662320000001,
          "velocity": 1,
          "duration": 0.3333329999999819
        },
        {
          "name": "D#4",
          "midi": 63,
          "time": 434.9995650000001,
          "velocity": 1,
          "duration": 0.3333329999999819
        },
        {
          "name": "D#3",
          "midi": 51,
          "time": 434.9995650000001,
          "velocity": 1,
          "duration": 0.3333329999999819
        },
        {
          "name": "A#3",
          "midi": 58,
          "time": 435.33289800000006,
          "velocity": 1,
          "duration": 0.3333329999999819
        },
        {
          "name": "D#3",
          "midi": 51,
          "time": 435.33289800000006,
          "velocity": 1,
          "duration": 0.3333329999999819
        },
        {
          "name": "A#3",
          "midi": 58,
          "time": 435.66623100000004,
          "velocity": 1,
          "duration": 0.3333329999999819
        },
        {
          "name": "D#3",
          "midi": 51,
          "time": 435.66623100000004,
          "velocity": 1,
          "duration": 0.3333329999999819
        },
        {
          "name": "A#3",
          "midi": 58,
          "time": 435.999564,
          "velocity": 1,
          "duration": 0.3333329999999819
        },
        {
          "name": "D#3",
          "midi": 51,
          "time": 435.999564,
          "velocity": 1,
          "duration": 0.3333329999999819
        },
        {
          "name": "D#4",
          "midi": 63,
          "time": 437.332896,
          "velocity": 1,
          "duration": 0.3333329999999819
        },
        {
          "name": "D#3",
          "midi": 51,
          "time": 437.332896,
          "velocity": 1,
          "duration": 0.3333329999999819
        },
        {
          "name": "D#4",
          "midi": 63,
          "time": 437.666229,
          "velocity": 1,
          "duration": 0.3333329999999819
        },
        {
          "name": "D#3",
          "midi": 51,
          "time": 437.666229,
          "velocity": 1,
          "duration": 0.3333329999999819
        },
        {
          "name": "D#3",
          "midi": 51,
          "time": 437.99956199999997,
          "velocity": 1,
          "duration": 0.6666660000000206
        },
        {
          "name": "D#4",
          "midi": 63,
          "time": 437.99956199999997,
          "velocity": 1,
          "duration": 0.6666660000000206
        },
        {
          "name": "D#4",
          "midi": 63,
          "time": 438.666228,
          "velocity": 1,
          "duration": 0.3333329999999819
        },
        {
          "name": "D#3",
          "midi": 51,
          "time": 438.666228,
          "velocity": 1,
          "duration": 0.3333329999999819
        },
        {
          "name": "D#4",
          "midi": 63,
          "time": 438.99956099999997,
          "velocity": 1,
          "duration": 0.9999990000000025
        },
        {
          "name": "D#3",
          "midi": 51,
          "time": 438.99956099999997,
          "velocity": 1,
          "duration": 0.9999990000000025
        },
        {
          "name": "D#4",
          "midi": 63,
          "time": 439.99956,
          "velocity": 1,
          "duration": 0.9999990000000025
        },
        {
          "name": "D#3",
          "midi": 51,
          "time": 439.99956,
          "velocity": 1,
          "duration": 0.9999990000000025
        },
        {
          "name": "D#4",
          "midi": 63,
          "time": 440.999559,
          "velocity": 1,
          "duration": 1.3333319999999844
        },
        {
          "name": "D#3",
          "midi": 51,
          "time": 440.999559,
          "velocity": 1,
          "duration": 1.3333319999999844
        },
        {
          "name": "F4",
          "midi": 65,
          "time": 442.33289099999996,
          "velocity": 1,
          "duration": 0.3333329999999819
        },
        {
          "name": "A#3",
          "midi": 58,
          "time": 442.33289099999996,
          "velocity": 1,
          "duration": 0.3333329999999819
        },
        {
          "name": "A#3",
          "midi": 58,
          "time": 442.66622399999994,
          "velocity": 1,
          "duration": 0.3333329999999819
        },
        {
          "name": "F4",
          "midi": 65,
          "time": 442.66622399999994,
          "velocity": 1,
          "duration": 0.3333329999999819
        },
        {
          "name": "D#4",
          "midi": 63,
          "time": 442.9995569999999,
          "velocity": 1,
          "duration": 0.6666660000000206
        },
        {
          "name": "D#3",
          "midi": 51,
          "time": 442.9995569999999,
          "velocity": 1,
          "duration": 0.6666660000000206
        },
        {
          "name": "G4",
          "midi": 67,
          "time": 443.66622299999995,
          "velocity": 1,
          "duration": 0.3333329999999819
        },
        {
          "name": "G3",
          "midi": 55,
          "time": 443.66622299999995,
          "velocity": 1,
          "duration": 0.3333329999999819
        },
        {
          "name": "D#4",
          "midi": 63,
          "time": 443.9995559999999,
          "velocity": 1,
          "duration": 0.6666660000000206
        },
        {
          "name": "D#3",
          "midi": 51,
          "time": 443.9995559999999,
          "velocity": 1,
          "duration": 0.6666660000000206
        },
        {
          "name": "A#3",
          "midi": 58,
          "time": 444.66622199999995,
          "velocity": 1,
          "duration": 0.3333329999999819
        },
        {
          "name": "A#2",
          "midi": 46,
          "time": 444.66622199999995,
          "velocity": 1,
          "duration": 0.3333329999999819
        },
        {
          "name": "D#4",
          "midi": 63,
          "time": 444.99955499999993,
          "velocity": 1,
          "duration": 0.3333329999999819
        },
        {
          "name": "D#3",
          "midi": 51,
          "time": 444.99955499999993,
          "velocity": 1,
          "duration": 0.3333329999999819
        },
        {
          "name": "G3",
          "midi": 55,
          "time": 445.3328879999999,
          "velocity": 1,
          "duration": 0.3333329999999819
        },
        {
          "name": "A#3",
          "midi": 58,
          "time": 445.6662209999999,
          "velocity": 1,
          "duration": 0.3333329999999819
        },
        {
          "name": "D#3",
          "midi": 51,
          "time": 445.9995539999999,
          "velocity": 1,
          "duration": 0.6666660000000206
        },
        {
          "name": "G3",
          "midi": 55,
          "time": 446.6662199999999,
          "velocity": 1,
          "duration": 0.6666660000000206
        },
        {
          "name": "G4",
          "midi": 67,
          "time": 447.3328859999999,
          "velocity": 1,
          "duration": 0.3333329999999819
        },
        {
          "name": "G3",
          "midi": 55,
          "time": 447.3328859999999,
          "velocity": 1,
          "duration": 0.3333329999999819
        },
        {
          "name": "G4",
          "midi": 67,
          "time": 447.6662189999999,
          "velocity": 1,
          "duration": 0.3333329999999819
        },
        {
          "name": "G3",
          "midi": 55,
          "time": 447.6662189999999,
          "velocity": 1,
          "duration": 0.3333329999999819
        },
        {
          "name": "G4",
          "midi": 67,
          "time": 447.9995519999999,
          "velocity": 1,
          "duration": 0.3333329999999819
        },
        {
          "name": "G3",
          "midi": 55,
          "time": 447.9995519999999,
          "velocity": 1,
          "duration": 0.3333329999999819
        },
        {
          "name": "G3",
          "midi": 55,
          "time": 448.66621799999984,
          "velocity": 1,
          "duration": 0.3333329999999819
        },
        {
          "name": "G4",
          "midi": 67,
          "time": 448.66621799999984,
          "velocity": 1,
          "duration": 0.3333329999999819
        },
        {
          "name": "F4",
          "midi": 65,
          "time": 448.9995509999998,
          "velocity": 1,
          "duration": 0.3333329999999819
        },
        {
          "name": "D#4",
          "midi": 63,
          "time": 449.99954999999983,
          "velocity": 1,
          "duration": 0.3333329999999819
        },
        {
          "name": "D#3",
          "midi": 51,
          "time": 449.99954999999983,
          "velocity": 1,
          "duration": 0.3333329999999819
        },
        {
          "name": "A#3",
          "midi": 58,
          "time": 450.99954899999983,
          "velocity": 1,
          "duration": 0.3333329999999819
        },
        {
          "name": "A#2",
          "midi": 46,
          "time": 450.99954899999983,
          "velocity": 1,
          "duration": 0.3333329999999819
        },
        {
          "name": "A#3",
          "midi": 58,
          "time": 461.33287199999984,
          "velocity": 1,
          "duration": 0.49999950000000126
        },
        {
          "name": "A#2",
          "midi": 46,
          "time": 461.33287199999984,
          "velocity": 1,
          "duration": 0.49999950000000126
        },
        {
          "name": "A#3",
          "midi": 58,
          "time": 461.83287149999984,
          "velocity": 1,
          "duration": 0.16666650000001937
        },
        {
          "name": "A#2",
          "midi": 46,
          "time": 461.83287149999984,
          "velocity": 1,
          "duration": 0.16666650000001937
        },
        {
          "name": "A#3",
          "midi": 58,
          "time": 461.99953799999986,
          "velocity": 1,
          "duration": 0.3333329999999819
        },
        {
          "name": "A#2",
          "midi": 46,
          "time": 461.99953799999986,
          "velocity": 1,
          "duration": 0.3333329999999819
        },
        {
          "name": "A#3",
          "midi": 58,
          "time": 462.33287099999984,
          "velocity": 1,
          "duration": 0.3333329999999819
        },
        {
          "name": "A#2",
          "midi": 46,
          "time": 462.33287099999984,
          "velocity": 1,
          "duration": 0.3333329999999819
        },
        {
          "name": "A#2",
          "midi": 46,
          "time": 462.6662039999998,
          "velocity": 1,
          "duration": 0.3333329999999819
        },
        {
          "name": "A#3",
          "midi": 58,
          "time": 462.6662039999998,
          "velocity": 1,
          "duration": 0.3333329999999819
        },
        {
          "name": "D#4",
          "midi": 63,
          "time": 462.9995369999998,
          "velocity": 1,
          "duration": 0.3333329999999819
        },
        {
          "name": "D#3",
          "midi": 51,
          "time": 462.9995369999998,
          "velocity": 1,
          "duration": 0.3333329999999819
        },
        {
          "name": "F4",
          "midi": 65,
          "time": 470.99952899999977,
          "velocity": 1,
          "duration": 0.3333329999999819
        },
        {
          "name": "F4",
          "midi": 65,
          "time": 471.33286199999975,
          "velocity": 1,
          "duration": 0.3333329999999819
        },
        {
          "name": "F4",
          "midi": 65,
          "time": 472.83286049999975,
          "velocity": 1,
          "duration": 0.16666650000001937
        },
        {
          "name": "D#4",
          "midi": 63,
          "time": 472.9995269999998,
          "velocity": 1,
          "duration": 0.3333329999999819
        },
        {
          "name": "D#3",
          "midi": 51,
          "time": 472.9995269999998,
          "velocity": 1,
          "duration": 0.3333329999999819
        },
        {
          "name": "D#4",
          "midi": 63,
          "time": 473.33285999999976,
          "velocity": 1,
          "duration": 0.3333329999999819
        },
        {
          "name": "D#3",
          "midi": 51,
          "time": 473.33285999999976,
          "velocity": 1,
          "duration": 0.3333329999999819
        },
        {
          "name": "D#3",
          "midi": 51,
          "time": 474.83285849999976,
          "velocity": 1,
          "duration": 0.16666650000001937
        },
        {
          "name": "D#4",
          "midi": 63,
          "time": 474.83285849999976,
          "velocity": 1,
          "duration": 0.16666650000001937
        },
        {
          "name": "A#3",
          "midi": 58,
          "time": 474.9995249999998,
          "velocity": 1,
          "duration": 0.3333329999999819
        },
        {
          "name": "A#2",
          "midi": 46,
          "time": 474.9995249999998,
          "velocity": 1,
          "duration": 0.3333329999999819
        },
        {
          "name": "A#3",
          "midi": 58,
          "time": 475.33285799999976,
          "velocity": 1,
          "duration": 0.3333329999999819
        },
        {
          "name": "A#2",
          "midi": 46,
          "time": 475.33285799999976,
          "velocity": 1,
          "duration": 0.3333329999999819
        },
        {
          "name": "D#4",
          "midi": 63,
          "time": 479.33285399999977,
          "velocity": 1,
          "duration": 0.3333329999999819
        },
        {
          "name": "D#3",
          "midi": 51,
          "time": 479.33285399999977,
          "velocity": 1,
          "duration": 0.3333329999999819
        },
        {
          "name": "D#4",
          "midi": 63,
          "time": 479.66618699999975,
          "velocity": 1,
          "duration": 0.3333329999999819
        },
        {
          "name": "D#3",
          "midi": 51,
          "time": 479.66618699999975,
          "velocity": 1,
          "duration": 0.3333329999999819
        },
        {
          "name": "D#4",
          "midi": 63,
          "time": 479.99951999999973,
          "velocity": 1,
          "duration": 0.3333329999999819
        },
        {
          "name": "D#3",
          "midi": 51,
          "time": 479.99951999999973,
          "velocity": 1,
          "duration": 0.3333329999999819
        },
        {
          "name": "D#4",
          "midi": 63,
          "time": 480.3328529999997,
          "velocity": 1,
          "duration": 0.3333329999999819
        },
        {
          "name": "D#3",
          "midi": 51,
          "time": 480.3328529999997,
          "velocity": 1,
          "duration": 0.3333329999999819
        },
        {
          "name": "D#3",
          "midi": 51,
          "time": 480.6661859999997,
          "velocity": 1,
          "duration": 0.3333329999999819
        },
        {
          "name": "D#4",
          "midi": 63,
          "time": 480.6661859999997,
          "velocity": 1,
          "duration": 0.3333329999999819
        },
        {
          "name": "D#4",
          "midi": 63,
          "time": 480.9995189999997,
          "velocity": 1,
          "duration": 0.3333329999999819
        },
        {
          "name": "D#3",
          "midi": 51,
          "time": 480.9995189999997,
          "velocity": 1,
          "duration": 0.3333329999999819
        },
        {
          "name": "A#3",
          "midi": 58,
          "time": 484.99951499999963,
          "velocity": 1,
          "duration": 1.999998000000005
        },
        {
          "name": "A#2",
          "midi": 46,
          "time": 484.99951499999963,
          "velocity": 1,
          "duration": 1.999998000000005
        },
        {
          "name": "A#3",
          "midi": 58,
          "time": 486.99951299999964,
          "velocity": 1,
          "duration": 0.16666650000001937
        },
        {
          "name": "A#2",
          "midi": 46,
          "time": 486.99951299999964,
          "velocity": 1,
          "duration": 0.16666650000001937
        },
        {
          "name": "A#3",
          "midi": 58,
          "time": 487.16617949999966,
          "velocity": 1,
          "duration": 0.16666650000001937
        },
        {
          "name": "A#2",
          "midi": 46,
          "time": 487.16617949999966,
          "velocity": 1,
          "duration": 0.16666650000001937
        },
        {
          "name": "A#3",
          "midi": 58,
          "time": 487.3328459999997,
          "velocity": 1,
          "duration": 0.16666650000001937
        },
        {
          "name": "A#2",
          "midi": 46,
          "time": 487.3328459999997,
          "velocity": 1,
          "duration": 0.16666650000001937
        },
        {
          "name": "A#2",
          "midi": 46,
          "time": 487.4995124999997,
          "velocity": 1,
          "duration": 0.16666650000001937
        },
        {
          "name": "A#3",
          "midi": 58,
          "time": 487.4995124999997,
          "velocity": 1,
          "duration": 0.16666650000001937
        },
        {
          "name": "A#3",
          "midi": 58,
          "time": 487.6661789999997,
          "velocity": 1,
          "duration": 0.16666650000001937
        },
        {
          "name": "A#2",
          "midi": 46,
          "time": 487.6661789999997,
          "velocity": 1,
          "duration": 0.16666650000001937
        },
        {
          "name": "A#3",
          "midi": 58,
          "time": 487.83284549999973,
          "velocity": 1,
          "duration": 0.16666650000001937
        },
        {
          "name": "A#2",
          "midi": 46,
          "time": 487.83284549999973,
          "velocity": 1,
          "duration": 0.16666650000001937
        },
        {
          "name": "A#3",
          "midi": 58,
          "time": 487.99951199999975,
          "velocity": 1,
          "duration": 0.16666650000001937
        },
        {
          "name": "A#2",
          "midi": 46,
          "time": 487.99951199999975,
          "velocity": 1,
          "duration": 0.16666650000001937
        },
        {
          "name": "A#3",
          "midi": 58,
          "time": 488.1661784999998,
          "velocity": 1,
          "duration": 0.16666650000001937
        },
        {
          "name": "A#2",
          "midi": 46,
          "time": 488.1661784999998,
          "velocity": 1,
          "duration": 0.16666650000001937
        },
        {
          "name": "A#3",
          "midi": 58,
          "time": 488.3328449999998,
          "velocity": 1,
          "duration": 0.16666650000001937
        },
        {
          "name": "A#2",
          "midi": 46,
          "time": 488.3328449999998,
          "velocity": 1,
          "duration": 0.16666650000001937
        },
        {
          "name": "A#3",
          "midi": 58,
          "time": 488.4995114999998,
          "velocity": 1,
          "duration": 0.16666650000001937
        },
        {
          "name": "A#2",
          "midi": 46,
          "time": 488.4995114999998,
          "velocity": 1,
          "duration": 0.16666650000001937
        },
        {
          "name": "A#3",
          "midi": 58,
          "time": 488.66617799999983,
          "velocity": 1,
          "duration": 0.16666650000001937
        },
        {
          "name": "A#2",
          "midi": 46,
          "time": 488.66617799999983,
          "velocity": 1,
          "duration": 0.16666650000001937
        },
        {
          "name": "A#2",
          "midi": 46,
          "time": 488.83284449999985,
          "velocity": 1,
          "duration": 0.16666650000001937
        },
        {
          "name": "A#3",
          "midi": 58,
          "time": 488.83284449999985,
          "velocity": 1,
          "duration": 0.16666650000001937
        },
        {
          "name": "D#4",
          "midi": 63,
          "time": 488.99951099999987,
          "velocity": 1,
          "duration": 0.3333329999999819
        },
        {
          "name": "D#3",
          "midi": 51,
          "time": 488.99951099999987,
          "velocity": 1,
          "duration": 0.3333329999999819
        },
        {
          "name": "A#3",
          "midi": 58,
          "time": 515.3328179999999,
          "velocity": 1,
          "duration": 0.33333300000003874
        },
        {
          "name": "A#2",
          "midi": 46,
          "time": 515.3328179999999,
          "velocity": 1,
          "duration": 0.33333300000003874
        },
        {
          "name": "A#3",
          "midi": 58,
          "time": 516.3328169999999,
          "velocity": 1,
          "duration": 0.33333300000003874
        },
        {
          "name": "A#2",
          "midi": 46,
          "time": 516.3328169999999,
          "velocity": 1,
          "duration": 0.33333300000003874
        },
        {
          "name": "A#3",
          "midi": 58,
          "time": 517.3328159999999,
          "velocity": 1,
          "duration": 0.33333300000003874
        },
        {
          "name": "A#2",
          "midi": 46,
          "time": 517.3328159999999,
          "velocity": 1,
          "duration": 0.33333300000003874
        },
        {
          "name": "A#3",
          "midi": 58,
          "time": 518.3328149999999,
          "velocity": 1,
          "duration": 0.33333300000003874
        },
        {
          "name": "A#2",
          "midi": 46,
          "time": 518.3328149999999,
          "velocity": 1,
          "duration": 0.33333300000003874
        },
        {
          "name": "A#3",
          "midi": 58,
          "time": 518.6661479999999,
          "velocity": 1,
          "duration": 0.33333300000003874
        },
        {
          "name": "A#2",
          "midi": 46,
          "time": 518.6661479999999,
          "velocity": 1,
          "duration": 0.33333300000003874
        },
        {
          "name": "A#2",
          "midi": 46,
          "time": 518.999481,
          "velocity": 1,
          "duration": 0.9999990000000025
        },
        {
          "name": "A#3",
          "midi": 58,
          "time": 518.999481,
          "velocity": 1,
          "duration": 0.9999990000000025
        },
        {
          "name": "A#3",
          "midi": 58,
          "time": 519.99948,
          "velocity": 1,
          "duration": 0.9999990000000025
        },
        {
          "name": "A#2",
          "midi": 46,
          "time": 519.99948,
          "velocity": 1,
          "duration": 0.9999990000000025
        },
        {
          "name": "A#3",
          "midi": 58,
          "time": 520.999479,
          "velocity": 1,
          "duration": 0.9999990000000025
        },
        {
          "name": "A#2",
          "midi": 46,
          "time": 520.999479,
          "velocity": 1,
          "duration": 0.9999990000000025
        },
        {
          "name": "A#3",
          "midi": 58,
          "time": 521.999478,
          "velocity": 1,
          "duration": 0.33333300000003874
        },
        {
          "name": "A#2",
          "midi": 46,
          "time": 521.999478,
          "velocity": 1,
          "duration": 0.33333300000003874
        },
        {
          "name": "A#3",
          "midi": 58,
          "time": 522.332811,
          "velocity": 1,
          "duration": 0.33333300000003874
        },
        {
          "name": "A#2",
          "midi": 46,
          "time": 522.332811,
          "velocity": 1,
          "duration": 0.33333300000003874
        },
        {
          "name": "A#3",
          "midi": 58,
          "time": 522.666144,
          "velocity": 1,
          "duration": 0.33333300000003874
        },
        {
          "name": "A#2",
          "midi": 46,
          "time": 522.666144,
          "velocity": 1,
          "duration": 0.33333300000003874
        },
        {
          "name": "D#4",
          "midi": 63,
          "time": 522.9994770000001,
          "velocity": 1,
          "duration": 1.3333320000000413
        },
        {
          "name": "D#3",
          "midi": 51,
          "time": 522.9994770000001,
          "velocity": 1,
          "duration": 1.3333320000000413
        },
        {
          "name": "G3",
          "midi": 55,
          "time": 529.3328040000001,
          "velocity": 1,
          "duration": 0.33333300000003874
        },
        {
          "name": "G3",
          "midi": 55,
          "time": 529.6661370000002,
          "velocity": 1,
          "duration": 0.33333300000003874
        },
        {
          "name": "D#4",
          "midi": 63,
          "time": 530.3328030000002,
          "velocity": 1,
          "duration": 0.33333300000003874
        },
        {
          "name": "D#3",
          "midi": 51,
          "time": 530.3328030000002,
          "velocity": 1,
          "duration": 0.33333300000003874
        },
        {
          "name": "D#4",
          "midi": 63,
          "time": 530.6661360000003,
          "velocity": 1,
          "duration": 0.33333300000003874
        },
        {
          "name": "D#3",
          "midi": 51,
          "time": 530.6661360000003,
          "velocity": 1,
          "duration": 0.33333300000003874
        },
        {
          "name": "D#4",
          "midi": 63,
          "time": 531.3328020000004,
          "velocity": 1,
          "duration": 0.33333300000003874
        },
        {
          "name": "D#3",
          "midi": 51,
          "time": 531.3328020000004,
          "velocity": 1,
          "duration": 0.33333300000003874
        },
        {
          "name": "A#3",
          "midi": 58,
          "time": 531.6661350000004,
          "velocity": 1,
          "duration": 0.33333300000003874
        },
        {
          "name": "A#2",
          "midi": 46,
          "time": 531.6661350000004,
          "velocity": 1,
          "duration": 0.33333300000003874
        },
        {
          "name": "G3",
          "midi": 55,
          "time": 532.3328010000005,
          "velocity": 1,
          "duration": 0.33333300000003874
        },
        {
          "name": "G3",
          "midi": 55,
          "time": 532.6661340000005,
          "velocity": 1,
          "duration": 0.33333300000003874
        },
        {
          "name": "D#4",
          "midi": 63,
          "time": 533.3328000000006,
          "velocity": 1,
          "duration": 0.33333300000003874
        },
        {
          "name": "D#3",
          "midi": 51,
          "time": 533.3328000000006,
          "velocity": 1,
          "duration": 0.33333300000003874
        },
        {
          "name": "D#4",
          "midi": 63,
          "time": 533.6661330000006,
          "velocity": 1,
          "duration": 0.33333300000003874
        },
        {
          "name": "D#3",
          "midi": 51,
          "time": 533.6661330000006,
          "velocity": 1,
          "duration": 0.33333300000003874
        },
        {
          "name": "D#4",
          "midi": 63,
          "time": 534.3327990000007,
          "velocity": 1,
          "duration": 0.33333300000003874
        },
        {
          "name": "D#3",
          "midi": 51,
          "time": 534.3327990000007,
          "velocity": 1,
          "duration": 0.33333300000003874
        },
        {
          "name": "D#4",
          "midi": 63,
          "time": 534.9994650000008,
          "velocity": 1,
          "duration": 0.33333300000003874
        },
        {
          "name": "D#3",
          "midi": 51,
          "time": 534.9994650000008,
          "velocity": 1,
          "duration": 0.33333300000003874
        },
        {
          "name": "D#4",
          "midi": 63,
          "time": 535.6661310000009,
          "velocity": 1,
          "duration": 0.33333300000003874
        },
        {
          "name": "D#3",
          "midi": 51,
          "time": 535.6661310000009,
          "velocity": 1,
          "duration": 0.33333300000003874
        },
        {
          "name": "D#4",
          "midi": 63,
          "time": 536.3327970000009,
          "velocity": 1,
          "duration": 0.33333300000003874
        },
        {
          "name": "D#3",
          "midi": 51,
          "time": 536.3327970000009,
          "velocity": 1,
          "duration": 0.33333300000003874
        },
        {
          "name": "D#3",
          "midi": 51,
          "time": 536.999463000001,
          "velocity": 1,
          "duration": 0.33333300000003874
        },
        {
          "name": "D#4",
          "midi": 63,
          "time": 536.999463000001,
          "velocity": 1,
          "duration": 0.33333300000003874
        },
        {
          "name": "D#4",
          "midi": 63,
          "time": 537.6661290000011,
          "velocity": 1,
          "duration": 0.33333300000003874
        },
        {
          "name": "D#3",
          "midi": 51,
          "time": 537.6661290000011,
          "velocity": 1,
          "duration": 0.33333300000003874
        },
        {
          "name": "A#2",
          "midi": 46,
          "time": 548.4994515000011,
          "velocity": 1,
          "duration": 0.16666650000001937
        },
        {
          "name": "D#3",
          "midi": 51,
          "time": 548.6661180000011,
          "velocity": 1,
          "duration": 0.16666650000001937
        },
        {
          "name": "G3",
          "midi": 55,
          "time": 548.8327845000011,
          "velocity": 1,
          "duration": 0.16666650000001937
        },
        {
          "name": "A#3",
          "midi": 58,
          "time": 548.9994510000012,
          "velocity": 1,
          "duration": 0.9999990000000025
        },
        {
          "name": "D#3",
          "midi": 51,
          "time": 549.9994500000012,
          "velocity": 1,
          "duration": 0.33333300000003874
        },
        {
          "name": "D#3",
          "midi": 51,
          "time": 550.9994490000012,
          "velocity": 1,
          "duration": 0.33333300000003874
        },
        {
          "name": "D#4",
          "midi": 63,
          "time": 550.9994490000012,
          "velocity": 1,
          "duration": 0.33333300000003874
        },
        {
          "name": "D#4",
          "midi": 63,
          "time": 551.9994480000012,
          "velocity": 1,
          "duration": 0.33333300000003874
        },
        {
          "name": "D#3",
          "midi": 51,
          "time": 551.9994480000012,
          "velocity": 1,
          "duration": 0.33333300000003874
        },
        {
          "name": "D#4",
          "midi": 63,
          "time": 552.9994470000012,
          "velocity": 1,
          "duration": 0.33333300000003874
        },
        {
          "name": "D#3",
          "midi": 51,
          "time": 552.9994470000012,
          "velocity": 1,
          "duration": 0.33333300000003874
        },
        {
          "name": "D#4",
          "midi": 63,
          "time": 553.3327800000012,
          "velocity": 1,
          "duration": 0.33333300000003874
        },
        {
          "name": "D#3",
          "midi": 51,
          "time": 553.3327800000012,
          "velocity": 1,
          "duration": 0.33333300000003874
        },
        {
          "name": "D#4",
          "midi": 63,
          "time": 553.6661130000012,
          "velocity": 1,
          "duration": 0.33333300000003874
        },
        {
          "name": "D#3",
          "midi": 51,
          "time": 553.6661130000012,
          "velocity": 1,
          "duration": 0.33333300000003874
        },
        {
          "name": "D#4",
          "midi": 63,
          "time": 553.9994460000013,
          "velocity": 1,
          "duration": 0.33333300000003874
        },
        {
          "name": "D#3",
          "midi": 51,
          "time": 553.9994460000013,
          "velocity": 1,
          "duration": 0.33333300000003874
        },
        {
          "name": "F4",
          "midi": 65,
          "time": 559.9994400000013,
          "velocity": 1,
          "duration": 1.999998000000005
        },
        {
          "name": "G3",
          "midi": 55,
          "time": 563.9994360000013,
          "velocity": 1,
          "duration": 0.16666650000001937
        },
        {
          "name": "G3",
          "midi": 55,
          "time": 564.1661025000013,
          "velocity": 1,
          "duration": 0.16666650000001937
        },
        {
          "name": "G3",
          "midi": 55,
          "time": 564.3327690000013,
          "velocity": 1,
          "duration": 0.16666650000001937
        },
        {
          "name": "G3",
          "midi": 55,
          "time": 564.4994355000014,
          "velocity": 1,
          "duration": 0.16666650000001937
        },
        {
          "name": "G3",
          "midi": 55,
          "time": 564.6661020000014,
          "velocity": 1,
          "duration": 0.16666650000001937
        },
        {
          "name": "G3",
          "midi": 55,
          "time": 564.8327685000014,
          "velocity": 1,
          "duration": 0.16666650000001937
        },
        {
          "name": "G3",
          "midi": 55,
          "time": 564.9994350000014,
          "velocity": 1,
          "duration": 0.16666650000001937
        },
        {
          "name": "G3",
          "midi": 55,
          "time": 565.1661015000014,
          "velocity": 1,
          "duration": 0.16666650000001937
        },
        {
          "name": "G3",
          "midi": 55,
          "time": 565.3327680000015,
          "velocity": 1,
          "duration": 0.16666650000001937
        },
        {
          "name": "G3",
          "midi": 55,
          "time": 565.4994345000015,
          "velocity": 1,
          "duration": 0.16666650000001937
        },
        {
          "name": "G3",
          "midi": 55,
          "time": 565.6661010000015,
          "velocity": 1,
          "duration": 0.16666650000001937
        },
        {
          "name": "G3",
          "midi": 55,
          "time": 565.8327675000015,
          "velocity": 1,
          "duration": 0.16666650000001937
        },
        {
          "name": "G3",
          "midi": 55,
          "time": 565.9994340000015,
          "velocity": 1,
          "duration": 0.33333300000003874
        },
        {
          "name": "A#2",
          "midi": 46,
          "time": 629.9993700000016,
          "velocity": 1,
          "duration": 1.3333320000000413
        },
        {
          "name": "A#3",
          "midi": 58,
          "time": 629.9993700000016,
          "velocity": 1,
          "duration": 1.3333320000000413
        },
        {
          "name": "A#3",
          "midi": 58,
          "time": 631.3327020000016,
          "velocity": 1,
          "duration": 0.33333300000003874
        },
        {
          "name": "A#2",
          "midi": 46,
          "time": 631.3327020000016,
          "velocity": 1,
          "duration": 0.33333300000003874
        },
        {
          "name": "A#3",
          "midi": 58,
          "time": 631.6660350000017,
          "velocity": 1,
          "duration": 0.33333300000003874
        },
        {
          "name": "A#2",
          "midi": 46,
          "time": 631.6660350000017,
          "velocity": 1,
          "duration": 0.33333300000003874
        },
        {
          "name": "A#3",
          "midi": 58,
          "time": 631.9993680000017,
          "velocity": 1,
          "duration": 0.33333300000003874
        },
        {
          "name": "A#2",
          "midi": 46,
          "time": 631.9993680000017,
          "velocity": 1,
          "duration": 0.33333300000003874
        },
        {
          "name": "A#3",
          "midi": 58,
          "time": 632.3327010000017,
          "velocity": 1,
          "duration": 0.33333300000003874
        },
        {
          "name": "A#2",
          "midi": 46,
          "time": 632.3327010000017,
          "velocity": 1,
          "duration": 0.33333300000003874
        },
        {
          "name": "A#3",
          "midi": 58,
          "time": 632.6660340000018,
          "velocity": 1,
          "duration": 0.33333300000003874
        },
        {
          "name": "A#2",
          "midi": 46,
          "time": 632.6660340000018,
          "velocity": 1,
          "duration": 0.33333300000003874
        },
        {
          "name": "A#2",
          "midi": 46,
          "time": 632.9993670000018,
          "velocity": 1,
          "duration": 0.33333300000003874
        },
        {
          "name": "A#3",
          "midi": 58,
          "time": 632.9993670000018,
          "velocity": 1,
          "duration": 0.33333300000003874
        },
        {
          "name": "A#3",
          "midi": 58,
          "time": 633.3327000000019,
          "velocity": 1,
          "duration": 0.33333300000003874
        },
        {
          "name": "A#2",
          "midi": 46,
          "time": 633.3327000000019,
          "velocity": 1,
          "duration": 0.33333300000003874
        },
        {
          "name": "A#3",
          "midi": 58,
          "time": 633.6660330000019,
          "velocity": 1,
          "duration": 0.33333300000003874
        },
        {
          "name": "A#2",
          "midi": 46,
          "time": 633.6660330000019,
          "velocity": 1,
          "duration": 0.33333300000003874
        },
        {
          "name": "G3",
          "midi": 55,
          "time": 633.9993660000019,
          "velocity": 1,
          "duration": 0.33333300000003874
        },
        {
          "name": "D#3",
          "midi": 51,
          "time": 633.9993660000019,
          "velocity": 1,
          "duration": 0.33333300000003874
        },
        {
          "name": "A#3",
          "midi": 58,
          "time": 649.666017000002,
          "velocity": 1,
          "duration": 0.11111100000005081
        },
        {
          "name": "A#2",
          "midi": 46,
          "time": 649.666017000002,
          "velocity": 1,
          "duration": 0.11111100000005081
        },
        {
          "name": "A#3",
          "midi": 58,
          "time": 649.777128000002,
          "velocity": 1,
          "duration": 0.11111100000005081
        },
        {
          "name": "A#2",
          "midi": 46,
          "time": 649.777128000002,
          "velocity": 1,
          "duration": 0.11111100000005081
        },
        {
          "name": "A#3",
          "midi": 58,
          "time": 649.888239000002,
          "velocity": 1,
          "duration": 0.11111100000005081
        },
        {
          "name": "A#2",
          "midi": 46,
          "time": 649.888239000002,
          "velocity": 1,
          "duration": 0.11111100000005081
        },
        {
          "name": "A#2",
          "midi": 46,
          "time": 649.9993500000021,
          "velocity": 1,
          "duration": 0.33333300000003874
        },
        {
          "name": "A#3",
          "midi": 58,
          "time": 649.9993500000021,
          "velocity": 1,
          "duration": 0.33333300000003874
        },
        {
          "name": "A#3",
          "midi": 58,
          "time": 650.6660160000022,
          "velocity": 1,
          "duration": 0.11111100000005081
        },
        {
          "name": "A#2",
          "midi": 46,
          "time": 650.6660160000022,
          "velocity": 1,
          "duration": 0.11111100000005081
        },
        {
          "name": "A#3",
          "midi": 58,
          "time": 650.7771270000022,
          "velocity": 1,
          "duration": 0.11111100000005081
        },
        {
          "name": "A#2",
          "midi": 46,
          "time": 650.7771270000022,
          "velocity": 1,
          "duration": 0.11111100000005081
        },
        {
          "name": "A#3",
          "midi": 58,
          "time": 650.8882380000023,
          "velocity": 1,
          "duration": 0.11111100000005081
        },
        {
          "name": "A#2",
          "midi": 46,
          "time": 650.8882380000023,
          "velocity": 1,
          "duration": 0.11111100000005081
        },
        {
          "name": "A#3",
          "midi": 58,
          "time": 650.9993490000023,
          "velocity": 1,
          "duration": 0.33333300000003874
        },
        {
          "name": "A#2",
          "midi": 46,
          "time": 650.9993490000023,
          "velocity": 1,
          "duration": 0.33333300000003874
        },
        {
          "name": "A#3",
          "midi": 58,
          "time": 651.6660150000024,
          "velocity": 1,
          "duration": 0.11111100000005081
        },
        {
          "name": "A#2",
          "midi": 46,
          "time": 651.6660150000024,
          "velocity": 1,
          "duration": 0.11111100000005081
        },
        {
          "name": "A#3",
          "midi": 58,
          "time": 651.7771260000025,
          "velocity": 1,
          "duration": 0.11111100000005081
        },
        {
          "name": "A#2",
          "midi": 46,
          "time": 651.7771260000025,
          "velocity": 1,
          "duration": 0.11111100000005081
        },
        {
          "name": "A#2",
          "midi": 46,
          "time": 651.8882370000025,
          "velocity": 1,
          "duration": 0.11111100000005081
        },
        {
          "name": "A#3",
          "midi": 58,
          "time": 651.8882370000025,
          "velocity": 1,
          "duration": 0.11111100000005081
        },
        {
          "name": "A#3",
          "midi": 58,
          "time": 651.9993480000026,
          "velocity": 1,
          "duration": 0.33333300000003874
        },
        {
          "name": "A#2",
          "midi": 46,
          "time": 651.9993480000026,
          "velocity": 1,
          "duration": 0.33333300000003874
        },
        {
          "name": "A#3",
          "midi": 58,
          "time": 652.6660140000026,
          "velocity": 1,
          "duration": 0.11111100000005081
        },
        {
          "name": "A#2",
          "midi": 46,
          "time": 652.6660140000026,
          "velocity": 1,
          "duration": 0.11111100000005081
        },
        {
          "name": "A#3",
          "midi": 58,
          "time": 652.7771250000027,
          "velocity": 1,
          "duration": 0.11111100000005081
        },
        {
          "name": "A#2",
          "midi": 46,
          "time": 652.7771250000027,
          "velocity": 1,
          "duration": 0.11111100000005081
        },
        {
          "name": "A#3",
          "midi": 58,
          "time": 652.8882360000027,
          "velocity": 1,
          "duration": 0.11111100000005081
        },
        {
          "name": "A#2",
          "midi": 46,
          "time": 652.8882360000027,
          "velocity": 1,
          "duration": 0.11111100000005081
        },
        {
          "name": "A#3",
          "midi": 58,
          "time": 652.9993470000028,
          "velocity": 1,
          "duration": 0.33333300000003874
        },
        {
          "name": "A#2",
          "midi": 46,
          "time": 652.9993470000028,
          "velocity": 1,
          "duration": 0.33333300000003874
        },
        {
          "name": "A#3",
          "midi": 58,
          "time": 653.6660130000029,
          "velocity": 1,
          "duration": 0.11111100000005081
        },
        {
          "name": "A#2",
          "midi": 46,
          "time": 653.6660130000029,
          "velocity": 1,
          "duration": 0.11111100000005081
        },
        {
          "name": "A#3",
          "midi": 58,
          "time": 653.7771240000029,
          "velocity": 1,
          "duration": 0.11111100000005081
        },
        {
          "name": "A#2",
          "midi": 46,
          "time": 653.7771240000029,
          "velocity": 1,
          "duration": 0.11111100000005081
        },
        {
          "name": "A#2",
          "midi": 46,
          "time": 653.888235000003,
          "velocity": 1,
          "duration": 0.11111100000005081
        },
        {
          "name": "A#3",
          "midi": 58,
          "time": 653.888235000003,
          "velocity": 1,
          "duration": 0.11111100000005081
        },
        {
          "name": "A#3",
          "midi": 58,
          "time": 653.999346000003,
          "velocity": 1,
          "duration": 0.33333300000003874
        },
        {
          "name": "A#2",
          "midi": 46,
          "time": 653.999346000003,
          "velocity": 1,
          "duration": 0.33333300000003874
        },
        {
          "name": "A#3",
          "midi": 58,
          "time": 654.6660120000031,
          "velocity": 1,
          "duration": 0.11111100000005081
        },
        {
          "name": "A#2",
          "midi": 46,
          "time": 654.6660120000031,
          "velocity": 1,
          "duration": 0.11111100000005081
        },
        {
          "name": "A#3",
          "midi": 58,
          "time": 654.7771230000031,
          "velocity": 1,
          "duration": 0.11111100000005081
        },
        {
          "name": "A#2",
          "midi": 46,
          "time": 654.7771230000031,
          "velocity": 1,
          "duration": 0.11111100000005081
        },
        {
          "name": "A#3",
          "midi": 58,
          "time": 654.8882340000032,
          "velocity": 1,
          "duration": 0.11111100000005081
        },
        {
          "name": "A#2",
          "midi": 46,
          "time": 654.8882340000032,
          "velocity": 1,
          "duration": 0.11111100000005081
        },
        {
          "name": "A#3",
          "midi": 58,
          "time": 654.9993450000032,
          "velocity": 1,
          "duration": 0.33333300000003874
        },
        {
          "name": "A#2",
          "midi": 46,
          "time": 654.9993450000032,
          "velocity": 1,
          "duration": 0.33333300000003874
        },
        {
          "name": "A#3",
          "midi": 58,
          "time": 655.6660110000033,
          "velocity": 1,
          "duration": 0.11111100000005081
        },
        {
          "name": "A#2",
          "midi": 46,
          "time": 655.6660110000033,
          "velocity": 1,
          "duration": 0.11111100000005081
        },
        {
          "name": "A#2",
          "midi": 46,
          "time": 655.7771220000034,
          "velocity": 1,
          "duration": 0.11111100000005081
        },
        {
          "name": "A#3",
          "midi": 58,
          "time": 655.7771220000034,
          "velocity": 1,
          "duration": 0.11111100000005081
        },
        {
          "name": "A#3",
          "midi": 58,
          "time": 655.8882330000034,
          "velocity": 1,
          "duration": 0.11111100000005081
        },
        {
          "name": "A#2",
          "midi": 46,
          "time": 655.8882330000034,
          "velocity": 1,
          "duration": 0.11111100000005081
        },
        {
          "name": "A#3",
          "midi": 58,
          "time": 655.9993440000035,
          "velocity": 1,
          "duration": 0.33333300000003874
        },
        {
          "name": "A#2",
          "midi": 46,
          "time": 655.9993440000035,
          "velocity": 1,
          "duration": 0.33333300000003874
        },
        {
          "name": "A#3",
          "midi": 58,
          "time": 656.6660100000036,
          "velocity": 1,
          "duration": 0.11111100000005081
        },
        {
          "name": "A#2",
          "midi": 46,
          "time": 656.6660100000036,
          "velocity": 1,
          "duration": 0.11111100000005081
        },
        {
          "name": "A#3",
          "midi": 58,
          "time": 656.7771210000036,
          "velocity": 1,
          "duration": 0.11111100000005081
        },
        {
          "name": "A#2",
          "midi": 46,
          "time": 656.7771210000036,
          "velocity": 1,
          "duration": 0.11111100000005081
        },
        {
          "name": "A#3",
          "midi": 58,
          "time": 656.8882320000037,
          "velocity": 1,
          "duration": 0.11111100000005081
        },
        {
          "name": "A#2",
          "midi": 46,
          "time": 656.8882320000037,
          "velocity": 1,
          "duration": 0.11111100000005081
        },
        {
          "name": "A#3",
          "midi": 58,
          "time": 656.9993430000037,
          "velocity": 1,
          "duration": 0.33333300000003874
        },
        {
          "name": "A#2",
          "midi": 46,
          "time": 656.9993430000037,
          "velocity": 1,
          "duration": 0.33333300000003874
        },
        {
          "name": "A#2",
          "midi": 46,
          "time": 657.6660090000038,
          "velocity": 1,
          "duration": 0.11111100000005081
        },
        {
          "name": "A#3",
          "midi": 58,
          "time": 657.6660090000038,
          "velocity": 1,
          "duration": 0.11111100000005081
        },
        {
          "name": "A#3",
          "midi": 58,
          "time": 657.7771200000038,
          "velocity": 1,
          "duration": 0.11111100000005081
        },
        {
          "name": "A#2",
          "midi": 46,
          "time": 657.7771200000038,
          "velocity": 1,
          "duration": 0.11111100000005081
        },
        {
          "name": "A#3",
          "midi": 58,
          "time": 657.8882310000039,
          "velocity": 1,
          "duration": 0.11111100000005081
        },
        {
          "name": "A#2",
          "midi": 46,
          "time": 657.8882310000039,
          "velocity": 1,
          "duration": 0.11111100000005081
        },
        {
          "name": "D#4",
          "midi": 63,
          "time": 657.9993420000039,
          "velocity": 1,
          "duration": 0.6666659999999638
        },
        {
          "name": "D#3",
          "midi": 51,
          "time": 657.9993420000039,
          "velocity": 1,
          "duration": 0.6666659999999638
        },
        {
          "name": "G4",
          "midi": 67,
          "time": 658.6660080000039,
          "velocity": 1,
          "duration": 0.33333300000003874
        },
        {
          "name": "G3",
          "midi": 55,
          "time": 658.6660080000039,
          "velocity": 1,
          "duration": 0.33333300000003874
        },
        {
          "name": "D#4",
          "midi": 63,
          "time": 658.9993410000039,
          "velocity": 1,
          "duration": 0.6666659999999638
        },
        {
          "name": "D#3",
          "midi": 51,
          "time": 658.9993410000039,
          "velocity": 1,
          "duration": 0.6666659999999638
        },
        {
          "name": "A#3",
          "midi": 58,
          "time": 659.6660070000039,
          "velocity": 1,
          "duration": 0.33333300000003874
        },
        {
          "name": "A#2",
          "midi": 46,
          "time": 659.6660070000039,
          "velocity": 1,
          "duration": 0.33333300000003874
        },
        {
          "name": "D#3",
          "midi": 51,
          "time": 659.9993400000039,
          "velocity": 1,
          "duration": 0.33333300000003874
        },
        {
          "name": "D#4",
          "midi": 63,
          "time": 659.9993400000039,
          "velocity": 1,
          "duration": 0.33333300000003874
        },
        {
          "name": "G4",
          "midi": 67,
          "time": 660.332673000004,
          "velocity": 1,
          "duration": 0.33333300000003874
        },
        {
          "name": "G3",
          "midi": 55,
          "time": 660.332673000004,
          "velocity": 1,
          "duration": 0.33333300000003874
        },
        {
          "name": "A#3",
          "midi": 58,
          "time": 660.666006000004,
          "velocity": 1,
          "duration": 0.33333300000003874
        },
        {
          "name": "A#2",
          "midi": 46,
          "time": 660.666006000004,
          "velocity": 1,
          "duration": 0.33333300000003874
        },
        {
          "name": "A#3",
          "midi": 58,
          "time": 660.999339000004,
          "velocity": 1,
          "duration": 0.16666650000001937
        },
        {
          "name": "A#2",
          "midi": 46,
          "time": 660.999339000004,
          "velocity": 1,
          "duration": 0.16666650000001937
        },
        {
          "name": "A#3",
          "midi": 58,
          "time": 661.1660055000041,
          "velocity": 1,
          "duration": 0.16666650000001937
        },
        {
          "name": "A#2",
          "midi": 46,
          "time": 661.1660055000041,
          "velocity": 1,
          "duration": 0.16666650000001937
        },
        {
          "name": "A#3",
          "midi": 58,
          "time": 661.3326720000041,
          "velocity": 1,
          "duration": 0.16666650000001937
        },
        {
          "name": "A#2",
          "midi": 46,
          "time": 661.3326720000041,
          "velocity": 1,
          "duration": 0.16666650000001937
        },
        {
          "name": "A#3",
          "midi": 58,
          "time": 661.4993385000041,
          "velocity": 1,
          "duration": 0.16666650000001937
        },
        {
          "name": "A#2",
          "midi": 46,
          "time": 661.4993385000041,
          "velocity": 1,
          "duration": 0.16666650000001937
        },
        {
          "name": "A#2",
          "midi": 46,
          "time": 661.6660050000041,
          "velocity": 1,
          "duration": 0.16666650000001937
        },
        {
          "name": "A#3",
          "midi": 58,
          "time": 661.6660050000041,
          "velocity": 1,
          "duration": 0.16666650000001937
        },
        {
          "name": "A#3",
          "midi": 58,
          "time": 661.8326715000042,
          "velocity": 1,
          "duration": 0.16666650000001937
        },
        {
          "name": "A#2",
          "midi": 46,
          "time": 661.8326715000042,
          "velocity": 1,
          "duration": 0.16666650000001937
        },
        {
          "name": "A#3",
          "midi": 58,
          "time": 661.9993380000042,
          "velocity": 1,
          "duration": 0.16666650000001937
        },
        {
          "name": "A#2",
          "midi": 46,
          "time": 661.9993380000042,
          "velocity": 1,
          "duration": 0.16666650000001937
        },
        {
          "name": "A#3",
          "midi": 58,
          "time": 662.1660045000042,
          "velocity": 1,
          "duration": 0.16666650000001937
        },
        {
          "name": "A#2",
          "midi": 46,
          "time": 662.1660045000042,
          "velocity": 1,
          "duration": 0.16666650000001937
        },
        {
          "name": "A#3",
          "midi": 58,
          "time": 662.3326710000042,
          "velocity": 1,
          "duration": 0.16666650000001937
        },
        {
          "name": "A#2",
          "midi": 46,
          "time": 662.3326710000042,
          "velocity": 1,
          "duration": 0.16666650000001937
        },
        {
          "name": "A#3",
          "midi": 58,
          "time": 662.4993375000042,
          "velocity": 1,
          "duration": 0.16666650000001937
        },
        {
          "name": "A#2",
          "midi": 46,
          "time": 662.4993375000042,
          "velocity": 1,
          "duration": 0.16666650000001937
        },
        {
          "name": "A#3",
          "midi": 58,
          "time": 662.6660040000042,
          "velocity": 1,
          "duration": 0.16666650000001937
        },
        {
          "name": "A#2",
          "midi": 46,
          "time": 662.6660040000042,
          "velocity": 1,
          "duration": 0.16666650000001937
        },
        {
          "name": "A#2",
          "midi": 46,
          "time": 662.8326705000043,
          "velocity": 1,
          "duration": 0.16666650000001937
        },
        {
          "name": "A#3",
          "midi": 58,
          "time": 662.8326705000043,
          "velocity": 1,
          "duration": 0.16666650000001937
        },
        {
          "name": "A#3",
          "midi": 58,
          "time": 662.9993370000043,
          "velocity": 1,
          "duration": 0.16666650000001937
        },
        {
          "name": "A#2",
          "midi": 46,
          "time": 662.9993370000043,
          "velocity": 1,
          "duration": 0.16666650000001937
        },
        {
          "name": "A#3",
          "midi": 58,
          "time": 663.1660035000043,
          "velocity": 1,
          "duration": 0.16666650000001937
        },
        {
          "name": "A#2",
          "midi": 46,
          "time": 663.1660035000043,
          "velocity": 1,
          "duration": 0.16666650000001937
        },
        {
          "name": "A#3",
          "midi": 58,
          "time": 663.3326700000043,
          "velocity": 1,
          "duration": 0.16666650000001937
        },
        {
          "name": "A#2",
          "midi": 46,
          "time": 663.3326700000043,
          "velocity": 1,
          "duration": 0.16666650000001937
        },
        {
          "name": "A#3",
          "midi": 58,
          "time": 663.4993365000043,
          "velocity": 1,
          "duration": 0.16666650000001937
        },
        {
          "name": "A#2",
          "midi": 46,
          "time": 663.4993365000043,
          "velocity": 1,
          "duration": 0.16666650000001937
        },
        {
          "name": "A#3",
          "midi": 58,
          "time": 663.6660030000044,
          "velocity": 1,
          "duration": 0.16666650000001937
        },
        {
          "name": "A#2",
          "midi": 46,
          "time": 663.6660030000044,
          "velocity": 1,
          "duration": 0.16666650000001937
        },
        {
          "name": "A#3",
          "midi": 58,
          "time": 663.8326695000044,
          "velocity": 1,
          "duration": 0.16666650000001937
        },
        {
          "name": "A#2",
          "midi": 46,
          "time": 663.8326695000044,
          "velocity": 1,
          "duration": 0.16666650000001937
        },
        {
          "name": "A#2",
          "midi": 46,
          "time": 663.9993360000044,
          "velocity": 1,
          "duration": 0.16666650000001937
        },
        {
          "name": "A#3",
          "midi": 58,
          "time": 663.9993360000044,
          "velocity": 1,
          "duration": 0.16666650000001937
        },
        {
          "name": "A#3",
          "midi": 58,
          "time": 664.1660025000044,
          "velocity": 1,
          "duration": 0.16666650000001937
        },
        {
          "name": "A#2",
          "midi": 46,
          "time": 664.1660025000044,
          "velocity": 1,
          "duration": 0.16666650000001937
        },
        {
          "name": "A#3",
          "midi": 58,
          "time": 664.3326690000044,
          "velocity": 1,
          "duration": 0.16666650000001937
        },
        {
          "name": "A#2",
          "midi": 46,
          "time": 664.3326690000044,
          "velocity": 1,
          "duration": 0.16666650000001937
        },
        {
          "name": "A#3",
          "midi": 58,
          "time": 664.4993355000045,
          "velocity": 1,
          "duration": 0.16666650000001937
        },
        {
          "name": "A#2",
          "midi": 46,
          "time": 664.4993355000045,
          "velocity": 1,
          "duration": 0.16666650000001937
        },
        {
          "name": "A#3",
          "midi": 58,
          "time": 664.6660020000045,
          "velocity": 1,
          "duration": 0.16666650000001937
        },
        {
          "name": "A#2",
          "midi": 46,
          "time": 664.6660020000045,
          "velocity": 1,
          "duration": 0.16666650000001937
        },
        {
          "name": "A#3",
          "midi": 58,
          "time": 664.8326685000045,
          "velocity": 1,
          "duration": 0.16666650000001937
        },
        {
          "name": "A#2",
          "midi": 46,
          "time": 664.8326685000045,
          "velocity": 1,
          "duration": 0.16666650000001937
        },
        {
          "name": "A#3",
          "midi": 58,
          "time": 664.9993350000045,
          "velocity": 1,
          "duration": 0.16666650000001937
        },
        {
          "name": "A#2",
          "midi": 46,
          "time": 664.9993350000045,
          "velocity": 1,
          "duration": 0.16666650000001937
        },
        {
          "name": "A#2",
          "midi": 46,
          "time": 665.1660015000045,
          "velocity": 1,
          "duration": 0.16666650000001937
        },
        {
          "name": "A#3",
          "midi": 58,
          "time": 665.1660015000045,
          "velocity": 1,
          "duration": 0.16666650000001937
        },
        {
          "name": "A#3",
          "midi": 58,
          "time": 665.3326680000046,
          "velocity": 1,
          "duration": 0.16666650000001937
        },
        {
          "name": "A#2",
          "midi": 46,
          "time": 665.3326680000046,
          "velocity": 1,
          "duration": 0.16666650000001937
        },
        {
          "name": "A#3",
          "midi": 58,
          "time": 665.4993345000046,
          "velocity": 1,
          "duration": 0.16666650000001937
        },
        {
          "name": "A#2",
          "midi": 46,
          "time": 665.4993345000046,
          "velocity": 1,
          "duration": 0.16666650000001937
        },
        {
          "name": "A#3",
          "midi": 58,
          "time": 665.6660010000046,
          "velocity": 1,
          "duration": 0.16666650000001937
        },
        {
          "name": "A#2",
          "midi": 46,
          "time": 665.6660010000046,
          "velocity": 1,
          "duration": 0.16666650000001937
        },
        {
          "name": "A#3",
          "midi": 58,
          "time": 665.8326675000046,
          "velocity": 1,
          "duration": 0.16666650000001937
        },
        {
          "name": "A#2",
          "midi": 46,
          "time": 665.8326675000046,
          "velocity": 1,
          "duration": 0.16666650000001937
        },
        {
          "name": "A#3",
          "midi": 58,
          "time": 665.9993340000046,
          "velocity": 1,
          "duration": 0.33333300000003874
        },
        {
          "name": "A#2",
          "midi": 46,
          "time": 665.9993340000046,
          "velocity": 1,
          "duration": 0.33333300000003874
        },
        {
          "name": "C#4",
          "midi": 61,
          "time": 666.3326670000047,
          "velocity": 1,
          "duration": 0.33333300000003874
        },
        {
          "name": "C#4",
          "midi": 61,
          "time": 666.6660000000047,
          "velocity": 1,
          "duration": 0.33333300000003874
        },
        {
          "name": "C#4",
          "midi": 61,
          "time": 666.9993330000048,
          "velocity": 1,
          "duration": 0.9999990000000025
        },
        {
          "name": "D#4",
          "midi": 63,
          "time": 668.3326650000048,
          "velocity": 1,
          "duration": 0.16666650000001937
        },
        {
          "name": "D#3",
          "midi": 51,
          "time": 668.3326650000048,
          "velocity": 1,
          "duration": 0.16666650000001937
        },
        {
          "name": "D#4",
          "midi": 63,
          "time": 668.4993315000048,
          "velocity": 1,
          "duration": 0.16666650000001937
        },
        {
          "name": "D#3",
          "midi": 51,
          "time": 668.4993315000048,
          "velocity": 1,
          "duration": 0.16666650000001937
        },
        {
          "name": "D#4",
          "midi": 63,
          "time": 668.6659980000048,
          "velocity": 1,
          "duration": 0.33333300000003874
        },
        {
          "name": "D#3",
          "midi": 51,
          "time": 668.6659980000048,
          "velocity": 1,
          "duration": 0.33333300000003874
        },
        {
          "name": "D#4",
          "midi": 63,
          "time": 669.3326640000049,
          "velocity": 1,
          "duration": 0.16666650000001937
        },
        {
          "name": "D#3",
          "midi": 51,
          "time": 669.3326640000049,
          "velocity": 1,
          "duration": 0.16666650000001937
        },
        {
          "name": "D#4",
          "midi": 63,
          "time": 669.4993305000049,
          "velocity": 1,
          "duration": 0.16666650000001937
        },
        {
          "name": "D#3",
          "midi": 51,
          "time": 669.4993305000049,
          "velocity": 1,
          "duration": 0.16666650000001937
        },
        {
          "name": "D#4",
          "midi": 63,
          "time": 669.665997000005,
          "velocity": 1,
          "duration": 0.33333300000003874
        },
        {
          "name": "D#3",
          "midi": 51,
          "time": 669.665997000005,
          "velocity": 1,
          "duration": 0.33333300000003874
        },
        {
          "name": "D#3",
          "midi": 51,
          "time": 670.332663000005,
          "velocity": 1,
          "duration": 0.16666650000001937
        },
        {
          "name": "D#4",
          "midi": 63,
          "time": 670.332663000005,
          "velocity": 1,
          "duration": 0.16666650000001937
        },
        {
          "name": "D#4",
          "midi": 63,
          "time": 670.499329500005,
          "velocity": 1,
          "duration": 0.16666650000001937
        },
        {
          "name": "D#3",
          "midi": 51,
          "time": 670.499329500005,
          "velocity": 1,
          "duration": 0.16666650000001937
        },
        {
          "name": "D#4",
          "midi": 63,
          "time": 670.6659960000051,
          "velocity": 1,
          "duration": 0.33333300000003874
        },
        {
          "name": "D#3",
          "midi": 51,
          "time": 670.6659960000051,
          "velocity": 1,
          "duration": 0.33333300000003874
        },
        {
          "name": "F4",
          "midi": 65,
          "time": 671.3326620000051,
          "velocity": 1,
          "duration": 0.16666650000001937
        },
        {
          "name": "F4",
          "midi": 65,
          "time": 671.4993285000052,
          "velocity": 1,
          "duration": 0.16666650000001937
        },
        {
          "name": "F4",
          "midi": 65,
          "time": 671.6659950000052,
          "velocity": 1,
          "duration": 0.33333300000003874
        },
        {
          "name": "D#4",
          "midi": 63,
          "time": 673.3326600000053,
          "velocity": 1,
          "duration": 0.33333300000003874
        },
        {
          "name": "D#3",
          "midi": 51,
          "time": 673.3326600000053,
          "velocity": 1,
          "duration": 0.33333300000003874
        },
        {
          "name": "D#3",
          "midi": 51,
          "time": 673.6659930000053,
          "velocity": 1,
          "duration": 0.33333300000003874
        },
        {
          "name": "D#4",
          "midi": 63,
          "time": 673.6659930000053,
          "velocity": 1,
          "duration": 0.33333300000003874
        },
        {
          "name": "D#4",
          "midi": 63,
          "time": 673.9993260000053,
          "velocity": 1,
          "duration": 0.16666650000001937
        },
        {
          "name": "D#3",
          "midi": 51,
          "time": 673.9993260000053,
          "velocity": 1,
          "duration": 0.16666650000001937
        },
        {
          "name": "D#4",
          "midi": 63,
          "time": 674.1659925000054,
          "velocity": 1,
          "duration": 0.16666650000001937
        },
        {
          "name": "D#3",
          "midi": 51,
          "time": 674.1659925000054,
          "velocity": 1,
          "duration": 0.16666650000001937
        },
        {
          "name": "D#4",
          "midi": 63,
          "time": 674.3326590000054,
          "velocity": 1,
          "duration": 0.16666650000001937
        },
        {
          "name": "D#3",
          "midi": 51,
          "time": 674.3326590000054,
          "velocity": 1,
          "duration": 0.16666650000001937
        },
        {
          "name": "D#4",
          "midi": 63,
          "time": 674.4993255000054,
          "velocity": 1,
          "duration": 0.16666650000001937
        },
        {
          "name": "D#3",
          "midi": 51,
          "time": 674.4993255000054,
          "velocity": 1,
          "duration": 0.16666650000001937
        },
        {
          "name": "D#4",
          "midi": 63,
          "time": 674.6659920000054,
          "velocity": 1,
          "duration": 0.16666650000001937
        },
        {
          "name": "D#3",
          "midi": 51,
          "time": 674.6659920000054,
          "velocity": 1,
          "duration": 0.16666650000001937
        },
        {
          "name": "D#4",
          "midi": 63,
          "time": 674.8326585000054,
          "velocity": 1,
          "duration": 0.16666650000001937
        },
        {
          "name": "D#3",
          "midi": 51,
          "time": 674.8326585000054,
          "velocity": 1,
          "duration": 0.16666650000001937
        },
        {
          "name": "A#2",
          "midi": 46,
          "time": 674.9993250000055,
          "velocity": 1,
          "duration": 0.16666650000001937
        },
        {
          "name": "A#3",
          "midi": 58,
          "time": 674.9993250000055,
          "velocity": 1,
          "duration": 0.16666650000001937
        },
        {
          "name": "A#3",
          "midi": 58,
          "time": 675.1659915000055,
          "velocity": 1,
          "duration": 0.16666650000001937
        },
        {
          "name": "A#2",
          "midi": 46,
          "time": 675.1659915000055,
          "velocity": 1,
          "duration": 0.16666650000001937
        },
        {
          "name": "A#3",
          "midi": 58,
          "time": 675.3326580000055,
          "velocity": 1,
          "duration": 0.16666650000001937
        },
        {
          "name": "A#2",
          "midi": 46,
          "time": 675.3326580000055,
          "velocity": 1,
          "duration": 0.16666650000001937
        },
        {
          "name": "A#3",
          "midi": 58,
          "time": 675.4993245000055,
          "velocity": 1,
          "duration": 0.16666650000001937
        },
        {
          "name": "A#2",
          "midi": 46,
          "time": 675.4993245000055,
          "velocity": 1,
          "duration": 0.16666650000001937
        },
        {
          "name": "A#3",
          "midi": 58,
          "time": 675.6659910000055,
          "velocity": 1,
          "duration": 0.16666650000001937
        },
        {
          "name": "A#2",
          "midi": 46,
          "time": 675.6659910000055,
          "velocity": 1,
          "duration": 0.16666650000001937
        },
        {
          "name": "A#3",
          "midi": 58,
          "time": 675.8326575000056,
          "velocity": 1,
          "duration": 0.16666650000001937
        },
        {
          "name": "A#2",
          "midi": 46,
          "time": 675.8326575000056,
          "velocity": 1,
          "duration": 0.16666650000001937
        },
        {
          "name": "D#4",
          "midi": 63,
          "time": 675.9993240000056,
          "velocity": 1,
          "duration": 0.33333300000003874
        },
        {
          "name": "D#3",
          "midi": 51,
          "time": 675.9993240000056,
          "velocity": 1,
          "duration": 0.33333300000003874
        },
        {
          "name": "A#2",
          "midi": 46,
          "time": 684.3326490000056,
          "velocity": 1,
          "duration": 0.9999990000000025
        },
        {
          "name": "A#3",
          "midi": 58,
          "time": 684.3326490000056,
          "velocity": 1,
          "duration": 0.9999990000000025
        },
        {
          "name": "A#3",
          "midi": 58,
          "time": 685.3326480000056,
          "velocity": 1,
          "duration": 0.9999990000000025
        },
        {
          "name": "A#2",
          "midi": 46,
          "time": 685.3326480000056,
          "velocity": 1,
          "duration": 0.9999990000000025
        },
        {
          "name": "F4",
          "midi": 65,
          "time": 686.3326470000056,
          "velocity": 1,
          "duration": 0.6666659999999638
        },
        {
          "name": "A#3",
          "midi": 58,
          "time": 686.3326470000056,
          "velocity": 1,
          "duration": 0.6666659999999638
        },
        {
          "name": "F4",
          "midi": 65,
          "time": 686.9993130000056,
          "velocity": 1,
          "duration": 0.6666659999999638
        },
        {
          "name": "A#3",
          "midi": 58,
          "time": 686.9993130000056,
          "velocity": 1,
          "duration": 0.6666659999999638
        },
        {
          "name": "F4",
          "midi": 65,
          "time": 687.6659790000056,
          "velocity": 1,
          "duration": 0.33333300000003874
        },
        {
          "name": "A#3",
          "midi": 58,
          "time": 687.6659790000056,
          "velocity": 1,
          "duration": 0.33333300000003874
        },
        {
          "name": "A#3",
          "midi": 58,
          "time": 687.9993120000056,
          "velocity": 1,
          "duration": 0.33333300000003874
        },
        {
          "name": "F4",
          "midi": 65,
          "time": 687.9993120000056,
          "velocity": 1,
          "duration": 0.33333300000003874
        },
        {
          "name": "A#3",
          "midi": 58,
          "time": 688.3326450000056,
          "velocity": 1,
          "duration": 0.33333300000003874
        },
        {
          "name": "A#2",
          "midi": 46,
          "time": 688.3326450000056,
          "velocity": 1,
          "duration": 0.33333300000003874
        },
        {
          "name": "A#3",
          "midi": 58,
          "time": 688.6659780000057,
          "velocity": 1,
          "duration": 0.33333300000003874
        },
        {
          "name": "A#2",
          "midi": 46,
          "time": 688.6659780000057,
          "velocity": 1,
          "duration": 0.33333300000003874
        },
        {
          "name": "A#3",
          "midi": 58,
          "time": 688.9993110000057,
          "velocity": 1,
          "duration": 0.33333300000003874
        },
        {
          "name": "A#2",
          "midi": 46,
          "time": 688.9993110000057,
          "velocity": 1,
          "duration": 0.33333300000003874
        },
        {
          "name": "A#3",
          "midi": 58,
          "time": 689.3326440000058,
          "velocity": 1,
          "duration": 0.33333300000003874
        },
        {
          "name": "A#2",
          "midi": 46,
          "time": 689.3326440000058,
          "velocity": 1,
          "duration": 0.33333300000003874
        },
        {
          "name": "A#3",
          "midi": 58,
          "time": 689.6659770000058,
          "velocity": 1,
          "duration": 0.33333300000003874
        },
        {
          "name": "A#2",
          "midi": 46,
          "time": 689.6659770000058,
          "velocity": 1,
          "duration": 0.33333300000003874
        },
        {
          "name": "A#3",
          "midi": 58,
          "time": 689.9993100000058,
          "velocity": 1,
          "duration": 0.33333300000003874
        },
        {
          "name": "A#2",
          "midi": 46,
          "time": 689.9993100000058,
          "velocity": 1,
          "duration": 0.33333300000003874
        },
        {
          "name": "A#2",
          "midi": 46,
          "time": 690.3326430000059,
          "velocity": 1,
          "duration": 0.33333300000003874
        },
        {
          "name": "A#3",
          "midi": 58,
          "time": 690.3326430000059,
          "velocity": 1,
          "duration": 0.33333300000003874
        },
        {
          "name": "A#3",
          "midi": 58,
          "time": 690.6659760000059,
          "velocity": 1,
          "duration": 0.33333300000003874
        },
        {
          "name": "A#2",
          "midi": 46,
          "time": 690.6659760000059,
          "velocity": 1,
          "duration": 0.33333300000003874
        },
        {
          "name": "A#3",
          "midi": 58,
          "time": 690.999309000006,
          "velocity": 1,
          "duration": 0.33333300000003874
        },
        {
          "name": "A#2",
          "midi": 46,
          "time": 690.999309000006,
          "velocity": 1,
          "duration": 0.33333300000003874
        },
        {
          "name": "A#3",
          "midi": 58,
          "time": 691.332642000006,
          "velocity": 1,
          "duration": 0.33333300000003874
        },
        {
          "name": "A#2",
          "midi": 46,
          "time": 691.332642000006,
          "velocity": 1,
          "duration": 0.33333300000003874
        },
        {
          "name": "A#3",
          "midi": 58,
          "time": 691.665975000006,
          "velocity": 1,
          "duration": 0.33333300000003874
        },
        {
          "name": "A#2",
          "midi": 46,
          "time": 691.665975000006,
          "velocity": 1,
          "duration": 0.33333300000003874
        },
        {
          "name": "G3",
          "midi": 55,
          "time": 691.9993080000061,
          "velocity": 1,
          "duration": 0.33333300000003874
        },
        {
          "name": "D#3",
          "midi": 51,
          "time": 691.9993080000061,
          "velocity": 1,
          "duration": 0.33333300000003874
        },
        {
          "name": "D#4",
          "midi": 63,
          "time": 692.9993070000061,
          "velocity": 1,
          "duration": 0.33333300000003874
        },
        {
          "name": "D#3",
          "midi": 51,
          "time": 692.9993070000061,
          "velocity": 1,
          "duration": 0.33333300000003874
        },
        {
          "name": "D#4",
          "midi": 63,
          "time": 693.9993060000061,
          "velocity": 1,
          "duration": 0.33333300000003874
        },
        {
          "name": "D#3",
          "midi": 51,
          "time": 693.9993060000061,
          "velocity": 1,
          "duration": 0.33333300000003874
        }
      ],
      "controlChanges": {},
      "id": 6,
      "name": "",
      "instrumentNumber": 56,
      "instrument": "trumpet",
      "instrumentFamily": "brass",
      "channelNumber": 6,
      "isPercussion": false
    },
    {
      "startTime": 0,
      "duration": 694.3326390000036,
      "length": 284,
      "notes": [
        {
          "name": "D#3",
          "midi": 51,
          "time": 0,
          "velocity": 1,
          "duration": 0.333333
        },
        {
          "name": "D#3",
          "midi": 51,
          "time": 0.999999,
          "velocity": 1,
          "duration": 0.333333
        },
        {
          "name": "D#3",
          "midi": 51,
          "time": 35.999964,
          "velocity": 1,
          "duration": 0.3333330000000032
        },
        {
          "name": "D#3",
          "midi": 51,
          "time": 36.999963,
          "velocity": 1,
          "duration": 0.3333330000000032
        },
        {
          "name": "A#2",
          "midi": 46,
          "time": 37.66662900000001,
          "velocity": 1,
          "duration": 0.3333330000000032
        },
        {
          "name": "D#3",
          "midi": 51,
          "time": 37.99996200000001,
          "velocity": 1,
          "duration": 0.3333330000000032
        },
        {
          "name": "D#3",
          "midi": 51,
          "time": 38.333295000000014,
          "velocity": 1,
          "duration": 0.3333330000000032
        },
        {
          "name": "D#3",
          "midi": 51,
          "time": 38.66662800000002,
          "velocity": 1,
          "duration": 0.3333330000000032
        },
        {
          "name": "D#3",
          "midi": 51,
          "time": 38.99996100000002,
          "velocity": 1,
          "duration": 0.3333330000000032
        },
        {
          "name": "D#3",
          "midi": 51,
          "time": 39.66662700000003,
          "velocity": 1,
          "duration": 0.3333330000000032
        },
        {
          "name": "D#3",
          "midi": 51,
          "time": 39.99996000000003,
          "velocity": 1,
          "duration": 0.3333330000000032
        },
        {
          "name": "D#3",
          "midi": 51,
          "time": 40.33329300000003,
          "velocity": 1,
          "duration": 0.3333330000000032
        },
        {
          "name": "D#3",
          "midi": 51,
          "time": 40.666626000000036,
          "velocity": 1,
          "duration": 0.3333330000000032
        },
        {
          "name": "D#3",
          "midi": 51,
          "time": 40.99995900000004,
          "velocity": 1,
          "duration": 0.3333330000000032
        },
        {
          "name": "D#3",
          "midi": 51,
          "time": 41.666625000000046,
          "velocity": 1,
          "duration": 0.3333330000000032
        },
        {
          "name": "D#3",
          "midi": 51,
          "time": 41.99995800000005,
          "velocity": 1,
          "duration": 0.9999990000000025
        },
        {
          "name": "A#2",
          "midi": 46,
          "time": 42.99995700000005,
          "velocity": 1,
          "duration": 0.9999990000000025
        },
        {
          "name": "D#3",
          "midi": 51,
          "time": 63.999936000000055,
          "velocity": 1,
          "duration": 0.3333330000000032
        },
        {
          "name": "D#3",
          "midi": 51,
          "time": 64.33326900000006,
          "velocity": 1,
          "duration": 0.3333329999999961
        },
        {
          "name": "D#3",
          "midi": 51,
          "time": 65.83326750000005,
          "velocity": 1,
          "duration": 0.16666650000000516
        },
        {
          "name": "A#2",
          "midi": 46,
          "time": 65.99993400000005,
          "velocity": 1,
          "duration": 0.3333329999999961
        },
        {
          "name": "A#2",
          "midi": 46,
          "time": 66.33326700000005,
          "velocity": 1,
          "duration": 0.3333329999999961
        },
        {
          "name": "A#2",
          "midi": 46,
          "time": 72.33326100000005,
          "velocity": 1,
          "duration": 0.3333329999999961
        },
        {
          "name": "A#2",
          "midi": 46,
          "time": 72.66659400000005,
          "velocity": 1,
          "duration": 0.3333329999999961
        },
        {
          "name": "A#2",
          "midi": 46,
          "time": 72.99992700000004,
          "velocity": 1,
          "duration": 0.3333329999999961
        },
        {
          "name": "A#2",
          "midi": 46,
          "time": 73.33326000000004,
          "velocity": 1,
          "duration": 0.3333329999999961
        },
        {
          "name": "A#2",
          "midi": 46,
          "time": 73.66659300000003,
          "velocity": 1,
          "duration": 0.3333329999999961
        },
        {
          "name": "A#2",
          "midi": 46,
          "time": 73.99992600000003,
          "velocity": 1,
          "duration": 0.3333329999999961
        },
        {
          "name": "D#3",
          "midi": 51,
          "time": 74.99992500000003,
          "velocity": 1,
          "duration": 0.3333329999999961
        },
        {
          "name": "A#2",
          "midi": 46,
          "time": 107.99989200000003,
          "velocity": 1,
          "duration": 0.3333329999999961
        },
        {
          "name": "A#2",
          "midi": 46,
          "time": 108.99989100000003,
          "velocity": 1,
          "duration": 0.3333329999999961
        },
        {
          "name": "D#3",
          "midi": 51,
          "time": 109.99989000000004,
          "velocity": 1,
          "duration": 0.3333329999999961
        },
        {
          "name": "D#3",
          "midi": 51,
          "time": 110.99988900000004,
          "velocity": 1,
          "duration": 0.3333329999999961
        },
        {
          "name": "A#2",
          "midi": 46,
          "time": 111.99988800000004,
          "velocity": 1,
          "duration": 0.3333329999999961
        },
        {
          "name": "A#2",
          "midi": 46,
          "time": 112.33322100000004,
          "velocity": 1,
          "duration": 0.3333329999999961
        },
        {
          "name": "A#2",
          "midi": 46,
          "time": 113.33322000000004,
          "velocity": 1,
          "duration": 0.3333329999999961
        },
        {
          "name": "D#3",
          "midi": 51,
          "time": 114.33321900000004,
          "velocity": 1,
          "duration": 0.3333329999999961
        },
        {
          "name": "D#3",
          "midi": 51,
          "time": 115.33321800000004,
          "velocity": 1,
          "duration": 0.3333329999999961
        },
        {
          "name": "A#2",
          "midi": 46,
          "time": 115.99988400000004,
          "velocity": 1,
          "duration": 0.3333329999999961
        },
        {
          "name": "A#2",
          "midi": 46,
          "time": 116.33321700000003,
          "velocity": 1,
          "duration": 0.3333329999999961
        },
        {
          "name": "A#2",
          "midi": 46,
          "time": 116.66655000000003,
          "velocity": 1,
          "duration": 0.3333329999999961
        },
        {
          "name": "A#2",
          "midi": 46,
          "time": 116.99988300000003,
          "velocity": 1,
          "duration": 0.16666650000000516
        },
        {
          "name": "D#3",
          "midi": 51,
          "time": 123.66654300000003,
          "velocity": 1,
          "duration": 0.3333329999999961
        },
        {
          "name": "A#2",
          "midi": 46,
          "time": 125.66654100000002,
          "velocity": 1,
          "duration": 0.3333329999999961
        },
        {
          "name": "D#3",
          "midi": 51,
          "time": 126.66654000000003,
          "velocity": 1,
          "duration": 0.3333329999999961
        },
        {
          "name": "A#2",
          "midi": 46,
          "time": 127.33320600000002,
          "velocity": 1,
          "duration": 0.3333329999999961
        },
        {
          "name": "A#2",
          "midi": 46,
          "time": 127.99987200000001,
          "velocity": 1,
          "duration": 0.3333330000000103
        },
        {
          "name": "A#2",
          "midi": 46,
          "time": 128.66653800000003,
          "velocity": 1,
          "duration": 0.3333330000000103
        },
        {
          "name": "A#2",
          "midi": 46,
          "time": 129.33320400000005,
          "velocity": 1,
          "duration": 0.3333330000000103
        },
        {
          "name": "A#2",
          "midi": 46,
          "time": 129.99987000000007,
          "velocity": 1,
          "duration": 0.3333330000000103
        },
        {
          "name": "A#2",
          "midi": 46,
          "time": 130.6665360000001,
          "velocity": 1,
          "duration": 0.3333330000000103
        },
        {
          "name": "A#2",
          "midi": 46,
          "time": 142.9998570000001,
          "velocity": 1,
          "duration": 0.3333330000000103
        },
        {
          "name": "A#2",
          "midi": 46,
          "time": 143.9998560000001,
          "velocity": 1,
          "duration": 0.3333330000000103
        },
        {
          "name": "A#2",
          "midi": 46,
          "time": 144.9998550000001,
          "velocity": 1,
          "duration": 0.3333330000000103
        },
        {
          "name": "A#2",
          "midi": 46,
          "time": 145.9998540000001,
          "velocity": 1,
          "duration": 0.3333330000000103
        },
        {
          "name": "A#2",
          "midi": 46,
          "time": 146.33318700000012,
          "velocity": 1,
          "duration": 0.3333330000000103
        },
        {
          "name": "A#2",
          "midi": 46,
          "time": 146.66652000000013,
          "velocity": 1,
          "duration": 0.3333330000000103
        },
        {
          "name": "A#2",
          "midi": 46,
          "time": 146.99985300000014,
          "velocity": 1,
          "duration": 0.3333330000000103
        },
        {
          "name": "A#2",
          "midi": 46,
          "time": 200.99979900000017,
          "velocity": 1,
          "duration": 0.3333330000000103
        },
        {
          "name": "A#2",
          "midi": 46,
          "time": 201.99979800000017,
          "velocity": 1,
          "duration": 0.3333330000000103
        },
        {
          "name": "A#2",
          "midi": 46,
          "time": 202.99979700000017,
          "velocity": 1,
          "duration": 0.3333330000000103
        },
        {
          "name": "A#2",
          "midi": 46,
          "time": 203.99979600000017,
          "velocity": 1,
          "duration": 0.3333330000000103
        },
        {
          "name": "D#3",
          "midi": 51,
          "time": 263.3330700000002,
          "velocity": 1,
          "duration": 1.6666650000000232
        },
        {
          "name": "D#3",
          "midi": 51,
          "time": 264.9997350000002,
          "velocity": 1,
          "duration": 0.3333329999999819
        },
        {
          "name": "D#3",
          "midi": 51,
          "time": 265.3330680000002,
          "velocity": 1,
          "duration": 0.3333329999999819
        },
        {
          "name": "D#3",
          "midi": 51,
          "time": 265.99973400000016,
          "velocity": 1,
          "duration": 0.3333329999999819
        },
        {
          "name": "D#3",
          "midi": 51,
          "time": 266.6664000000001,
          "velocity": 1,
          "duration": 0.6666660000000206
        },
        {
          "name": "D#3",
          "midi": 51,
          "time": 267.33306600000014,
          "velocity": 1,
          "duration": 0.3333329999999819
        },
        {
          "name": "D#3",
          "midi": 51,
          "time": 267.9997320000001,
          "velocity": 1,
          "duration": 0.3333329999999819
        },
        {
          "name": "D#3",
          "midi": 51,
          "time": 268.6663980000001,
          "velocity": 1,
          "duration": 0.3333329999999819
        },
        {
          "name": "A#2",
          "midi": 46,
          "time": 269.33306400000004,
          "velocity": 1,
          "duration": 1.6666650000000232
        },
        {
          "name": "A#2",
          "midi": 46,
          "time": 270.99972900000006,
          "velocity": 1,
          "duration": 0.3333329999999819
        },
        {
          "name": "A#2",
          "midi": 46,
          "time": 271.33306200000004,
          "velocity": 1,
          "duration": 0.3333329999999819
        },
        {
          "name": "A#2",
          "midi": 46,
          "time": 271.999728,
          "velocity": 1,
          "duration": 0.3333329999999819
        },
        {
          "name": "A#2",
          "midi": 46,
          "time": 272.66639399999997,
          "velocity": 1,
          "duration": 0.6666660000000206
        },
        {
          "name": "A#2",
          "midi": 46,
          "time": 273.33306,
          "velocity": 1,
          "duration": 0.3333329999999819
        },
        {
          "name": "A#2",
          "midi": 46,
          "time": 273.99972599999995,
          "velocity": 1,
          "duration": 0.3333329999999819
        },
        {
          "name": "A#2",
          "midi": 46,
          "time": 274.6663919999999,
          "velocity": 1,
          "duration": 0.3333329999999819
        },
        {
          "name": "A#2",
          "midi": 46,
          "time": 318.9996809999999,
          "velocity": 1,
          "duration": 0.3333329999999819
        },
        {
          "name": "A#2",
          "midi": 46,
          "time": 319.3330139999999,
          "velocity": 1,
          "duration": 0.3333329999999819
        },
        {
          "name": "A#2",
          "midi": 46,
          "time": 319.66634699999986,
          "velocity": 1,
          "duration": 0.3333329999999819
        },
        {
          "name": "A#2",
          "midi": 46,
          "time": 319.99967999999984,
          "velocity": 1,
          "duration": 0.3333329999999819
        },
        {
          "name": "A#2",
          "midi": 46,
          "time": 320.3330129999998,
          "velocity": 1,
          "duration": 0.3333329999999819
        },
        {
          "name": "A#2",
          "midi": 46,
          "time": 320.6663459999998,
          "velocity": 1,
          "duration": 0.3333329999999819
        },
        {
          "name": "A#2",
          "midi": 46,
          "time": 320.9996789999998,
          "velocity": 1,
          "duration": 1.999998000000005
        },
        {
          "name": "A#2",
          "midi": 46,
          "time": 322.9996769999998,
          "velocity": 1,
          "duration": 0.3333329999999819
        },
        {
          "name": "A#2",
          "midi": 46,
          "time": 323.3330099999998,
          "velocity": 1,
          "duration": 0.3333329999999819
        },
        {
          "name": "A#2",
          "midi": 46,
          "time": 323.66634299999976,
          "velocity": 1,
          "duration": 0.3333329999999819
        },
        {
          "name": "A#2",
          "midi": 46,
          "time": 323.99967599999974,
          "velocity": 1,
          "duration": 0.3333329999999819
        },
        {
          "name": "D#3",
          "midi": 51,
          "time": 324.3330089999997,
          "velocity": 1,
          "duration": 0.3333329999999819
        },
        {
          "name": "D#3",
          "midi": 51,
          "time": 324.6663419999997,
          "velocity": 1,
          "duration": 0.3333329999999819
        },
        {
          "name": "D#3",
          "midi": 51,
          "time": 324.9996749999997,
          "velocity": 1,
          "duration": 0.3333329999999819
        },
        {
          "name": "D#3",
          "midi": 51,
          "time": 364.99963499999967,
          "velocity": 1,
          "duration": 2.333330999999987
        },
        {
          "name": "D#3",
          "midi": 51,
          "time": 367.33296599999966,
          "velocity": 1,
          "duration": 0.3333329999999819
        },
        {
          "name": "D#3",
          "midi": 51,
          "time": 367.66629899999964,
          "velocity": 1,
          "duration": 0.3333329999999819
        },
        {
          "name": "D#3",
          "midi": 51,
          "time": 367.9996319999996,
          "velocity": 1,
          "duration": 0.3333329999999819
        },
        {
          "name": "D#3",
          "midi": 51,
          "time": 368.3329649999996,
          "velocity": 1,
          "duration": 0.3333329999999819
        },
        {
          "name": "D#3",
          "midi": 51,
          "time": 368.6662979999996,
          "velocity": 1,
          "duration": 0.3333329999999819
        },
        {
          "name": "D#3",
          "midi": 51,
          "time": 368.99963099999957,
          "velocity": 1,
          "duration": 0.3333329999999819
        },
        {
          "name": "A#2",
          "midi": 46,
          "time": 398.99960099999953,
          "velocity": 1,
          "duration": 0.9999990000000025
        },
        {
          "name": "A#2",
          "midi": 46,
          "time": 399.99959999999953,
          "velocity": 1,
          "duration": 0.9999990000000025
        },
        {
          "name": "D#3",
          "midi": 51,
          "time": 400.99959899999953,
          "velocity": 1,
          "duration": 0.3333329999999819
        },
        {
          "name": "A#2",
          "midi": 46,
          "time": 431.6662349999995,
          "velocity": 1,
          "duration": 0.3333329999999819
        },
        {
          "name": "A#2",
          "midi": 46,
          "time": 431.9995679999995,
          "velocity": 1,
          "duration": 0.3333329999999819
        },
        {
          "name": "A#2",
          "midi": 46,
          "time": 432.3329009999995,
          "velocity": 1,
          "duration": 0.3333329999999819
        },
        {
          "name": "A#2",
          "midi": 46,
          "time": 432.66623399999946,
          "velocity": 1,
          "duration": 0.3333329999999819
        },
        {
          "name": "D#3",
          "midi": 51,
          "time": 432.99956699999944,
          "velocity": 1,
          "duration": 0.16666650000001937
        },
        {
          "name": "D#3",
          "midi": 51,
          "time": 433.16623349999946,
          "velocity": 1,
          "duration": 0.16666650000001937
        },
        {
          "name": "D#3",
          "midi": 51,
          "time": 433.3328999999995,
          "velocity": 1,
          "duration": 0.16666650000001937
        },
        {
          "name": "D#3",
          "midi": 51,
          "time": 433.4995664999995,
          "velocity": 1,
          "duration": 0.16666650000001937
        },
        {
          "name": "D#3",
          "midi": 51,
          "time": 433.6662329999995,
          "velocity": 1,
          "duration": 0.16666650000001937
        },
        {
          "name": "D#3",
          "midi": 51,
          "time": 433.83289949999954,
          "velocity": 1,
          "duration": 0.16666650000001937
        },
        {
          "name": "D#3",
          "midi": 51,
          "time": 433.99956599999956,
          "velocity": 1,
          "duration": 0.16666650000001937
        },
        {
          "name": "D#3",
          "midi": 51,
          "time": 434.1662324999996,
          "velocity": 1,
          "duration": 0.16666650000001937
        },
        {
          "name": "D#3",
          "midi": 51,
          "time": 434.3328989999996,
          "velocity": 1,
          "duration": 0.16666650000001937
        },
        {
          "name": "D#3",
          "midi": 51,
          "time": 434.4995654999996,
          "velocity": 1,
          "duration": 0.16666650000001937
        },
        {
          "name": "D#3",
          "midi": 51,
          "time": 434.66623199999964,
          "velocity": 1,
          "duration": 0.16666650000001937
        },
        {
          "name": "D#3",
          "midi": 51,
          "time": 434.83289849999966,
          "velocity": 1,
          "duration": 0.16666650000001937
        },
        {
          "name": "D#3",
          "midi": 51,
          "time": 434.9995649999997,
          "velocity": 1,
          "duration": 0.3333329999999819
        },
        {
          "name": "D#3",
          "midi": 51,
          "time": 435.33289799999966,
          "velocity": 1,
          "duration": 0.3333329999999819
        },
        {
          "name": "D#3",
          "midi": 51,
          "time": 435.66623099999964,
          "velocity": 1,
          "duration": 0.3333329999999819
        },
        {
          "name": "D#3",
          "midi": 51,
          "time": 435.9995639999996,
          "velocity": 1,
          "duration": 0.3333329999999819
        },
        {
          "name": "D#3",
          "midi": 51,
          "time": 437.3328959999996,
          "velocity": 1,
          "duration": 0.3333329999999819
        },
        {
          "name": "D#3",
          "midi": 51,
          "time": 437.6662289999996,
          "velocity": 1,
          "duration": 0.3333329999999819
        },
        {
          "name": "D#3",
          "midi": 51,
          "time": 437.99956199999957,
          "velocity": 1,
          "duration": 0.3333329999999819
        },
        {
          "name": "D#3",
          "midi": 51,
          "time": 438.66622799999953,
          "velocity": 1,
          "duration": 0.3333329999999819
        },
        {
          "name": "D#3",
          "midi": 51,
          "time": 438.9995609999995,
          "velocity": 1,
          "duration": 0.3333329999999819
        },
        {
          "name": "D#3",
          "midi": 51,
          "time": 439.9995599999995,
          "velocity": 1,
          "duration": 0.3333329999999819
        },
        {
          "name": "D#3",
          "midi": 51,
          "time": 440.9995589999995,
          "velocity": 1,
          "duration": 0.3333329999999819
        },
        {
          "name": "D#3",
          "midi": 51,
          "time": 441.9995579999995,
          "velocity": 1,
          "duration": 0.3333329999999819
        },
        {
          "name": "D#3",
          "midi": 51,
          "time": 442.3328909999995,
          "velocity": 1,
          "duration": 0.3333329999999819
        },
        {
          "name": "D#3",
          "midi": 51,
          "time": 442.6662239999995,
          "velocity": 1,
          "duration": 0.3333329999999819
        },
        {
          "name": "D#3",
          "midi": 51,
          "time": 442.99955699999947,
          "velocity": 1,
          "duration": 1.6666650000000232
        },
        {
          "name": "A#2",
          "midi": 46,
          "time": 444.6662219999995,
          "velocity": 1,
          "duration": 0.3333329999999819
        },
        {
          "name": "D#3",
          "midi": 51,
          "time": 444.9995549999995,
          "velocity": 1,
          "duration": 0.3333329999999819
        },
        {
          "name": "A#2",
          "midi": 46,
          "time": 445.33288799999946,
          "velocity": 1,
          "duration": 0.3333329999999819
        },
        {
          "name": "A#2",
          "midi": 46,
          "time": 445.66622099999944,
          "velocity": 1,
          "duration": 0.3333329999999819
        },
        {
          "name": "D#3",
          "midi": 51,
          "time": 445.9995539999994,
          "velocity": 1,
          "duration": 0.3333329999999819
        },
        {
          "name": "D#3",
          "midi": 51,
          "time": 446.6662199999994,
          "velocity": 1,
          "duration": 0.3333329999999819
        },
        {
          "name": "D#3",
          "midi": 51,
          "time": 446.99955299999937,
          "velocity": 1,
          "duration": 0.3333329999999819
        },
        {
          "name": "D#3",
          "midi": 51,
          "time": 447.33288599999935,
          "velocity": 1,
          "duration": 0.3333329999999819
        },
        {
          "name": "D#3",
          "midi": 51,
          "time": 447.66621899999933,
          "velocity": 1,
          "duration": 0.3333329999999819
        },
        {
          "name": "D#3",
          "midi": 51,
          "time": 447.9995519999993,
          "velocity": 1,
          "duration": 0.3333329999999819
        },
        {
          "name": "D#3",
          "midi": 51,
          "time": 449.9995499999993,
          "velocity": 1,
          "duration": 0.3333329999999819
        },
        {
          "name": "A#2",
          "midi": 46,
          "time": 450.9995489999993,
          "velocity": 1,
          "duration": 0.3333329999999819
        },
        {
          "name": "A#2",
          "midi": 46,
          "time": 461.3328719999993,
          "velocity": 1,
          "duration": 0.49999950000000126
        },
        {
          "name": "A#2",
          "midi": 46,
          "time": 461.8328714999993,
          "velocity": 1,
          "duration": 0.16666650000001937
        },
        {
          "name": "A#2",
          "midi": 46,
          "time": 461.99953799999935,
          "velocity": 1,
          "duration": 0.3333329999999819
        },
        {
          "name": "A#2",
          "midi": 46,
          "time": 462.33287099999933,
          "velocity": 1,
          "duration": 0.3333329999999819
        },
        {
          "name": "A#2",
          "midi": 46,
          "time": 462.6662039999993,
          "velocity": 1,
          "duration": 0.3333329999999819
        },
        {
          "name": "D#3",
          "midi": 51,
          "time": 462.9995369999993,
          "velocity": 1,
          "duration": 0.3333329999999819
        },
        {
          "name": "D#3",
          "midi": 51,
          "time": 472.99952699999926,
          "velocity": 1,
          "duration": 0.3333329999999819
        },
        {
          "name": "D#3",
          "midi": 51,
          "time": 473.33285999999924,
          "velocity": 1,
          "duration": 0.3333329999999819
        },
        {
          "name": "D#3",
          "midi": 51,
          "time": 474.83285849999925,
          "velocity": 1,
          "duration": 0.16666650000001937
        },
        {
          "name": "A#2",
          "midi": 46,
          "time": 474.99952499999927,
          "velocity": 1,
          "duration": 0.3333329999999819
        },
        {
          "name": "A#2",
          "midi": 46,
          "time": 475.33285799999925,
          "velocity": 1,
          "duration": 0.3333329999999819
        },
        {
          "name": "D#3",
          "midi": 51,
          "time": 479.3328539999992,
          "velocity": 1,
          "duration": 0.3333329999999819
        },
        {
          "name": "D#3",
          "midi": 51,
          "time": 479.6661869999992,
          "velocity": 1,
          "duration": 0.3333329999999819
        },
        {
          "name": "D#3",
          "midi": 51,
          "time": 479.99951999999917,
          "velocity": 1,
          "duration": 0.3333329999999819
        },
        {
          "name": "D#3",
          "midi": 51,
          "time": 480.33285299999915,
          "velocity": 1,
          "duration": 0.3333329999999819
        },
        {
          "name": "D#3",
          "midi": 51,
          "time": 480.66618599999913,
          "velocity": 1,
          "duration": 0.3333329999999819
        },
        {
          "name": "D#3",
          "midi": 51,
          "time": 480.9995189999991,
          "velocity": 1,
          "duration": 0.3333329999999819
        },
        {
          "name": "A#2",
          "midi": 46,
          "time": 484.99951499999906,
          "velocity": 1,
          "duration": 0.3333329999999819
        },
        {
          "name": "A#2",
          "midi": 46,
          "time": 486.99951299999907,
          "velocity": 1,
          "duration": 1.999998000000005
        },
        {
          "name": "D#3",
          "midi": 51,
          "time": 488.9995109999991,
          "velocity": 1,
          "duration": 0.3333329999999819
        },
        {
          "name": "A#2",
          "midi": 46,
          "time": 515.3328179999991,
          "velocity": 1,
          "duration": 0.33333300000003874
        },
        {
          "name": "A#2",
          "midi": 46,
          "time": 516.3328169999991,
          "velocity": 1,
          "duration": 0.33333300000003874
        },
        {
          "name": "A#2",
          "midi": 46,
          "time": 517.3328159999991,
          "velocity": 1,
          "duration": 0.33333300000003874
        },
        {
          "name": "A#2",
          "midi": 46,
          "time": 518.3328149999991,
          "velocity": 1,
          "duration": 0.33333300000003874
        },
        {
          "name": "A#2",
          "midi": 46,
          "time": 518.6661479999991,
          "velocity": 1,
          "duration": 0.33333300000003874
        },
        {
          "name": "A#2",
          "midi": 46,
          "time": 518.9994809999992,
          "velocity": 1,
          "duration": 0.33333300000003874
        },
        {
          "name": "A#2",
          "midi": 46,
          "time": 519.9994799999992,
          "velocity": 1,
          "duration": 0.33333300000003874
        },
        {
          "name": "A#2",
          "midi": 46,
          "time": 520.9994789999992,
          "velocity": 1,
          "duration": 0.33333300000003874
        },
        {
          "name": "A#2",
          "midi": 46,
          "time": 521.9994779999992,
          "velocity": 1,
          "duration": 0.33333300000003874
        },
        {
          "name": "A#2",
          "midi": 46,
          "time": 522.3328109999992,
          "velocity": 1,
          "duration": 0.33333300000003874
        },
        {
          "name": "A#2",
          "midi": 46,
          "time": 522.6661439999992,
          "velocity": 1,
          "duration": 0.33333300000003874
        },
        {
          "name": "D#3",
          "midi": 51,
          "time": 522.9994769999993,
          "velocity": 1,
          "duration": 0.33333300000003874
        },
        {
          "name": "D#3",
          "midi": 51,
          "time": 523.6661429999994,
          "velocity": 1,
          "duration": 0.08333325000000968
        },
        {
          "name": "D#3",
          "midi": 51,
          "time": 523.7494762499994,
          "velocity": 1,
          "duration": 0.08333325000000968
        },
        {
          "name": "D#3",
          "midi": 51,
          "time": 523.8328094999994,
          "velocity": 1,
          "duration": 0.08333325000000968
        },
        {
          "name": "D#3",
          "midi": 51,
          "time": 523.9161427499994,
          "velocity": 1,
          "duration": 0.08333325000000968
        },
        {
          "name": "D#3",
          "midi": 51,
          "time": 523.9994759999994,
          "velocity": 1,
          "duration": 0.33333300000003874
        },
        {
          "name": "D#3",
          "midi": 51,
          "time": 530.3328029999994,
          "velocity": 1,
          "duration": 0.33333300000003874
        },
        {
          "name": "D#3",
          "midi": 51,
          "time": 530.6661359999995,
          "velocity": 1,
          "duration": 0.33333300000003874
        },
        {
          "name": "D#3",
          "midi": 51,
          "time": 531.3328019999996,
          "velocity": 1,
          "duration": 0.33333300000003874
        },
        {
          "name": "A#2",
          "midi": 46,
          "time": 531.6661349999996,
          "velocity": 1,
          "duration": 0.33333300000003874
        },
        {
          "name": "D#3",
          "midi": 51,
          "time": 533.3327999999997,
          "velocity": 1,
          "duration": 0.33333300000003874
        },
        {
          "name": "D#3",
          "midi": 51,
          "time": 533.6661329999997,
          "velocity": 1,
          "duration": 0.33333300000003874
        },
        {
          "name": "D#3",
          "midi": 51,
          "time": 534.3327989999998,
          "velocity": 1,
          "duration": 0.33333300000003874
        },
        {
          "name": "D#3",
          "midi": 51,
          "time": 534.9994649999999,
          "velocity": 1,
          "duration": 0.33333300000003874
        },
        {
          "name": "D#3",
          "midi": 51,
          "time": 535.666131,
          "velocity": 1,
          "duration": 0.33333300000003874
        },
        {
          "name": "D#3",
          "midi": 51,
          "time": 536.332797,
          "velocity": 1,
          "duration": 0.33333300000003874
        },
        {
          "name": "D#3",
          "midi": 51,
          "time": 536.9994630000001,
          "velocity": 1,
          "duration": 0.33333300000003874
        },
        {
          "name": "D#3",
          "midi": 51,
          "time": 537.6661290000002,
          "velocity": 1,
          "duration": 0.33333300000003874
        },
        {
          "name": "A#2",
          "midi": 46,
          "time": 548.9994510000002,
          "velocity": 1,
          "duration": 0.9999990000000025
        },
        {
          "name": "D#3",
          "midi": 51,
          "time": 549.9994500000003,
          "velocity": 1,
          "duration": 0.33333300000003874
        },
        {
          "name": "D#3",
          "midi": 51,
          "time": 550.9994490000003,
          "velocity": 1,
          "duration": 0.33333300000003874
        },
        {
          "name": "D#3",
          "midi": 51,
          "time": 551.9994480000003,
          "velocity": 1,
          "duration": 0.33333300000003874
        },
        {
          "name": "D#3",
          "midi": 51,
          "time": 552.9994470000003,
          "velocity": 1,
          "duration": 0.33333300000003874
        },
        {
          "name": "D#3",
          "midi": 51,
          "time": 553.3327800000003,
          "velocity": 1,
          "duration": 0.33333300000003874
        },
        {
          "name": "D#3",
          "midi": 51,
          "time": 553.6661130000003,
          "velocity": 1,
          "duration": 0.33333300000003874
        },
        {
          "name": "D#3",
          "midi": 51,
          "time": 553.9994460000004,
          "velocity": 1,
          "duration": 0.33333300000003874
        },
        {
          "name": "D#3",
          "midi": 51,
          "time": 591.9994080000004,
          "velocity": 1,
          "duration": 0.33333300000003874
        },
        {
          "name": "D#3",
          "midi": 51,
          "time": 593.3327400000004,
          "velocity": 1,
          "duration": 0.33333300000003874
        },
        {
          "name": "D#3",
          "midi": 51,
          "time": 593.6660730000004,
          "velocity": 1,
          "duration": 0.33333300000003874
        },
        {
          "name": "A#2",
          "midi": 46,
          "time": 593.9994060000005,
          "velocity": 1,
          "duration": 0.33333300000003874
        },
        {
          "name": "A#2",
          "midi": 46,
          "time": 595.3327380000005,
          "velocity": 1,
          "duration": 0.33333300000003874
        },
        {
          "name": "A#2",
          "midi": 46,
          "time": 595.6660710000006,
          "velocity": 1,
          "duration": 0.33333300000003874
        },
        {
          "name": "D#3",
          "midi": 51,
          "time": 595.9994040000006,
          "velocity": 1,
          "duration": 0.33333300000003874
        },
        {
          "name": "D#3",
          "midi": 51,
          "time": 597.3327360000006,
          "velocity": 1,
          "duration": 0.33333300000003874
        },
        {
          "name": "D#3",
          "midi": 51,
          "time": 597.6660690000007,
          "velocity": 1,
          "duration": 0.33333300000003874
        },
        {
          "name": "A#2",
          "midi": 46,
          "time": 597.9994020000007,
          "velocity": 1,
          "duration": 0.33333300000003874
        },
        {
          "name": "A#2",
          "midi": 46,
          "time": 629.9993700000008,
          "velocity": 1,
          "duration": 0.33333300000003874
        },
        {
          "name": "A#2",
          "midi": 46,
          "time": 630.9993690000008,
          "velocity": 1,
          "duration": 0.33333300000003874
        },
        {
          "name": "A#2",
          "midi": 46,
          "time": 631.9993680000008,
          "velocity": 1,
          "duration": 0.33333300000003874
        },
        {
          "name": "A#2",
          "midi": 46,
          "time": 632.9993670000008,
          "velocity": 1,
          "duration": 0.33333300000003874
        },
        {
          "name": "D#3",
          "midi": 51,
          "time": 633.9993660000008,
          "velocity": 1,
          "duration": 0.33333300000003874
        },
        {
          "name": "A#2",
          "midi": 46,
          "time": 649.6660170000008,
          "velocity": 1,
          "duration": 0.11111100000005081
        },
        {
          "name": "A#2",
          "midi": 46,
          "time": 649.7771280000009,
          "velocity": 1,
          "duration": 0.11111100000005081
        },
        {
          "name": "A#2",
          "midi": 46,
          "time": 649.8882390000009,
          "velocity": 1,
          "duration": 0.11111100000005081
        },
        {
          "name": "A#2",
          "midi": 46,
          "time": 649.999350000001,
          "velocity": 1,
          "duration": 0.33333300000003874
        },
        {
          "name": "A#2",
          "midi": 46,
          "time": 650.666016000001,
          "velocity": 1,
          "duration": 0.11111100000005081
        },
        {
          "name": "A#2",
          "midi": 46,
          "time": 650.7771270000011,
          "velocity": 1,
          "duration": 0.11111100000005081
        },
        {
          "name": "A#2",
          "midi": 46,
          "time": 650.8882380000011,
          "velocity": 1,
          "duration": 0.11111100000005081
        },
        {
          "name": "A#2",
          "midi": 46,
          "time": 650.9993490000012,
          "velocity": 1,
          "duration": 0.33333300000003874
        },
        {
          "name": "A#2",
          "midi": 46,
          "time": 651.6660150000013,
          "velocity": 1,
          "duration": 0.11111100000005081
        },
        {
          "name": "A#2",
          "midi": 46,
          "time": 651.7771260000013,
          "velocity": 1,
          "duration": 0.11111100000005081
        },
        {
          "name": "A#2",
          "midi": 46,
          "time": 651.8882370000014,
          "velocity": 1,
          "duration": 0.11111100000005081
        },
        {
          "name": "A#2",
          "midi": 46,
          "time": 651.9993480000014,
          "velocity": 1,
          "duration": 0.33333300000003874
        },
        {
          "name": "A#2",
          "midi": 46,
          "time": 652.6660140000015,
          "velocity": 1,
          "duration": 0.11111100000005081
        },
        {
          "name": "A#2",
          "midi": 46,
          "time": 652.7771250000015,
          "velocity": 1,
          "duration": 0.11111100000005081
        },
        {
          "name": "A#2",
          "midi": 46,
          "time": 652.8882360000016,
          "velocity": 1,
          "duration": 0.11111100000005081
        },
        {
          "name": "A#2",
          "midi": 46,
          "time": 652.9993470000016,
          "velocity": 1,
          "duration": 0.33333300000003874
        },
        {
          "name": "A#2",
          "midi": 46,
          "time": 653.6660130000017,
          "velocity": 1,
          "duration": 0.11111100000005081
        },
        {
          "name": "A#2",
          "midi": 46,
          "time": 653.7771240000018,
          "velocity": 1,
          "duration": 0.11111100000005081
        },
        {
          "name": "A#2",
          "midi": 46,
          "time": 653.8882350000018,
          "velocity": 1,
          "duration": 0.11111100000005081
        },
        {
          "name": "A#2",
          "midi": 46,
          "time": 653.9993460000019,
          "velocity": 1,
          "duration": 0.33333300000003874
        },
        {
          "name": "A#2",
          "midi": 46,
          "time": 654.666012000002,
          "velocity": 1,
          "duration": 0.11111100000005081
        },
        {
          "name": "A#2",
          "midi": 46,
          "time": 654.777123000002,
          "velocity": 1,
          "duration": 0.11111100000005081
        },
        {
          "name": "A#2",
          "midi": 46,
          "time": 654.8882340000021,
          "velocity": 1,
          "duration": 0.11111100000005081
        },
        {
          "name": "A#2",
          "midi": 46,
          "time": 654.9993450000021,
          "velocity": 1,
          "duration": 0.33333300000003874
        },
        {
          "name": "A#2",
          "midi": 46,
          "time": 655.6660110000022,
          "velocity": 1,
          "duration": 0.11111100000005081
        },
        {
          "name": "A#2",
          "midi": 46,
          "time": 655.7771220000022,
          "velocity": 1,
          "duration": 0.11111100000005081
        },
        {
          "name": "A#2",
          "midi": 46,
          "time": 655.8882330000023,
          "velocity": 1,
          "duration": 0.11111100000005081
        },
        {
          "name": "A#2",
          "midi": 46,
          "time": 655.9993440000023,
          "velocity": 1,
          "duration": 0.33333300000003874
        },
        {
          "name": "A#2",
          "midi": 46,
          "time": 656.6660100000024,
          "velocity": 1,
          "duration": 0.11111100000005081
        },
        {
          "name": "A#2",
          "midi": 46,
          "time": 656.7771210000025,
          "velocity": 1,
          "duration": 0.11111100000005081
        },
        {
          "name": "A#2",
          "midi": 46,
          "time": 656.8882320000025,
          "velocity": 1,
          "duration": 0.11111100000005081
        },
        {
          "name": "A#2",
          "midi": 46,
          "time": 656.9993430000026,
          "velocity": 1,
          "duration": 0.33333300000003874
        },
        {
          "name": "A#2",
          "midi": 46,
          "time": 657.6660090000026,
          "velocity": 1,
          "duration": 0.11111100000005081
        },
        {
          "name": "A#2",
          "midi": 46,
          "time": 657.7771200000027,
          "velocity": 1,
          "duration": 0.11111100000005081
        },
        {
          "name": "A#2",
          "midi": 46,
          "time": 657.8882310000027,
          "velocity": 1,
          "duration": 0.11111100000005081
        },
        {
          "name": "D#3",
          "midi": 51,
          "time": 657.9993420000028,
          "velocity": 1,
          "duration": 3.99999600000001
        },
        {
          "name": "A#2",
          "midi": 46,
          "time": 661.9993380000028,
          "velocity": 1,
          "duration": 3.99999600000001
        },
        {
          "name": "A#2",
          "midi": 46,
          "time": 665.9993340000028,
          "velocity": 1,
          "duration": 0.33333300000003874
        },
        {
          "name": "A#2",
          "midi": 46,
          "time": 666.3326670000029,
          "velocity": 1,
          "duration": 0.33333300000003874
        },
        {
          "name": "A#2",
          "midi": 46,
          "time": 666.6660000000029,
          "velocity": 1,
          "duration": 0.33333300000003874
        },
        {
          "name": "A#2",
          "midi": 46,
          "time": 666.9993330000029,
          "velocity": 1,
          "duration": 0.33333300000003874
        },
        {
          "name": "D#3",
          "midi": 51,
          "time": 667.9993320000029,
          "velocity": 1,
          "duration": 0.33333300000003874
        },
        {
          "name": "D#3",
          "midi": 51,
          "time": 668.9993310000029,
          "velocity": 1,
          "duration": 0.33333300000003874
        },
        {
          "name": "D#3",
          "midi": 51,
          "time": 669.9993300000029,
          "velocity": 1,
          "duration": 0.33333300000003874
        },
        {
          "name": "D#3",
          "midi": 51,
          "time": 671.999328000003,
          "velocity": 1,
          "duration": 0.33333300000003874
        },
        {
          "name": "D#3",
          "midi": 51,
          "time": 672.999327000003,
          "velocity": 1,
          "duration": 0.33333300000003874
        },
        {
          "name": "A#2",
          "midi": 46,
          "time": 673.999326000003,
          "velocity": 1,
          "duration": 1.999998000000005
        },
        {
          "name": "A#2",
          "midi": 46,
          "time": 684.3326490000029,
          "velocity": 1,
          "duration": 0.33333300000003874
        },
        {
          "name": "A#2",
          "midi": 46,
          "time": 685.3326480000029,
          "velocity": 1,
          "duration": 0.33333300000003874
        },
        {
          "name": "A#2",
          "midi": 46,
          "time": 686.3326470000029,
          "velocity": 1,
          "duration": 0.33333300000003874
        },
        {
          "name": "A#2",
          "midi": 46,
          "time": 686.999313000003,
          "velocity": 1,
          "duration": 0.33333300000003874
        },
        {
          "name": "A#2",
          "midi": 46,
          "time": 687.6659790000031,
          "velocity": 1,
          "duration": 0.33333300000003874
        },
        {
          "name": "A#2",
          "midi": 46,
          "time": 687.9993120000031,
          "velocity": 1,
          "duration": 0.33333300000003874
        },
        {
          "name": "A#2",
          "midi": 46,
          "time": 688.3326450000031,
          "velocity": 1,
          "duration": 0.33333300000003874
        },
        {
          "name": "A#2",
          "midi": 46,
          "time": 688.6659780000032,
          "velocity": 1,
          "duration": 0.33333300000003874
        },
        {
          "name": "A#2",
          "midi": 46,
          "time": 688.9993110000032,
          "velocity": 1,
          "duration": 0.33333300000003874
        },
        {
          "name": "A#2",
          "midi": 46,
          "time": 689.3326440000033,
          "velocity": 1,
          "duration": 0.33333300000003874
        },
        {
          "name": "A#2",
          "midi": 46,
          "time": 689.6659770000033,
          "velocity": 1,
          "duration": 0.33333300000003874
        },
        {
          "name": "A#2",
          "midi": 46,
          "time": 689.9993100000033,
          "velocity": 1,
          "duration": 0.33333300000003874
        },
        {
          "name": "A#2",
          "midi": 46,
          "time": 690.3326430000034,
          "velocity": 1,
          "duration": 0.33333300000003874
        },
        {
          "name": "A#2",
          "midi": 46,
          "time": 690.6659760000034,
          "velocity": 1,
          "duration": 0.33333300000003874
        },
        {
          "name": "A#2",
          "midi": 46,
          "time": 690.9993090000034,
          "velocity": 1,
          "duration": 0.33333300000003874
        },
        {
          "name": "A#2",
          "midi": 46,
          "time": 691.3326420000035,
          "velocity": 1,
          "duration": 0.33333300000003874
        },
        {
          "name": "A#2",
          "midi": 46,
          "time": 691.6659750000035,
          "velocity": 1,
          "duration": 0.33333300000003874
        },
        {
          "name": "D#3",
          "midi": 51,
          "time": 691.9993080000036,
          "velocity": 1,
          "duration": 0.33333300000003874
        },
        {
          "name": "D#3",
          "midi": 51,
          "time": 692.9993070000036,
          "velocity": 1,
          "duration": 0.33333300000003874
        },
        {
          "name": "D#3",
          "midi": 51,
          "time": 693.9993060000036,
          "velocity": 1,
          "duration": 0.33333300000003874
        }
      ],
      "controlChanges": {},
      "id": 7,
      "name": "",
      "instrumentNumber": 47,
      "instrument": "timpani",
      "instrumentFamily": "strings",
      "channelNumber": 7,
      "isPercussion": false
    },
    {
      "startTime": 0,
      "duration": 694.332639000039,
      "length": 13407,
      "notes": [
        {
          "name": "G3",
          "midi": 55,
          "time": 0,
          "velocity": 1,
          "duration": 0.333333
        },
        {
          "name": "D#4",
          "midi": 63,
          "time": 0,
          "velocity": 1,
          "duration": 0.333333
        },
        {
          "name": "D#5",
          "midi": 75,
          "time": 0,
          "velocity": 1,
          "duration": 0.333333
        },
        {
          "name": "A#4",
          "midi": 70,
          "time": 0,
          "velocity": 1,
          "duration": 0.333333
        },
        {
          "name": "G5",
          "midi": 79,
          "time": 0,
          "velocity": 1,
          "duration": 0.333333
        },
        {
          "name": "D#3",
          "midi": 51,
          "time": 0,
          "velocity": 1,
          "duration": 0.333333
        },
        {
          "name": "G3",
          "midi": 55,
          "time": 0.999999,
          "velocity": 1,
          "duration": 0.333333
        },
        {
          "name": "D#4",
          "midi": 63,
          "time": 0.999999,
          "velocity": 1,
          "duration": 0.333333
        },
        {
          "name": "D#5",
          "midi": 75,
          "time": 0.999999,
          "velocity": 1,
          "duration": 0.333333
        },
        {
          "name": "A#4",
          "midi": 70,
          "time": 0.999999,
          "velocity": 1,
          "duration": 0.333333
        },
        {
          "name": "G5",
          "midi": 79,
          "time": 0.999999,
          "velocity": 1,
          "duration": 0.333333
        },
        {
          "name": "D#3",
          "midi": 51,
          "time": 0.999999,
          "velocity": 1,
          "duration": 0.333333
        },
        {
          "name": "D#3",
          "midi": 51,
          "time": 1.999998,
          "velocity": 1,
          "duration": 0.6666659999999995
        },
        {
          "name": "G4",
          "midi": 67,
          "time": 1.999998,
          "velocity": 1,
          "duration": 0.16666650000000005
        },
        {
          "name": "A#3",
          "midi": 58,
          "time": 1.999998,
          "velocity": 1,
          "duration": 0.16666650000000005
        },
        {
          "name": "G4",
          "midi": 67,
          "time": 2.1666645,
          "velocity": 1,
          "duration": 0.16666649999999983
        },
        {
          "name": "A#3",
          "midi": 58,
          "time": 2.1666645,
          "velocity": 1,
          "duration": 0.16666649999999983
        },
        {
          "name": "A#3",
          "midi": 58,
          "time": 2.333331,
          "velocity": 1,
          "duration": 0.16666649999999983
        },
        {
          "name": "G4",
          "midi": 67,
          "time": 2.333331,
          "velocity": 1,
          "duration": 0.16666649999999983
        },
        {
          "name": "G4",
          "midi": 67,
          "time": 2.4999974999999997,
          "velocity": 1,
          "duration": 0.16666649999999983
        },
        {
          "name": "A#3",
          "midi": 58,
          "time": 2.4999974999999997,
          "velocity": 1,
          "duration": 0.16666649999999983
        },
        {
          "name": "G3",
          "midi": 55,
          "time": 2.6666639999999995,
          "velocity": 1,
          "duration": 0.33333299999999966
        },
        {
          "name": "G4",
          "midi": 67,
          "time": 2.6666639999999995,
          "velocity": 1,
          "duration": 0.16666649999999983
        },
        {
          "name": "A#3",
          "midi": 58,
          "time": 2.6666639999999995,
          "velocity": 1,
          "duration": 0.16666649999999983
        },
        {
          "name": "G4",
          "midi": 67,
          "time": 2.8333304999999993,
          "velocity": 1,
          "duration": 0.16666649999999983
        },
        {
          "name": "A#3",
          "midi": 58,
          "time": 2.8333304999999993,
          "velocity": 1,
          "duration": 0.16666649999999983
        },
        {
          "name": "D#3",
          "midi": 51,
          "time": 2.999996999999999,
          "velocity": 1,
          "duration": 0.6666659999999993
        },
        {
          "name": "G4",
          "midi": 67,
          "time": 2.999996999999999,
          "velocity": 1,
          "duration": 0.16666649999999983
        },
        {
          "name": "A#3",
          "midi": 58,
          "time": 2.999996999999999,
          "velocity": 1,
          "duration": 0.16666649999999983
        },
        {
          "name": "G4",
          "midi": 67,
          "time": 3.166663499999999,
          "velocity": 1,
          "duration": 0.16666649999999983
        },
        {
          "name": "A#3",
          "midi": 58,
          "time": 3.166663499999999,
          "velocity": 1,
          "duration": 0.16666649999999983
        },
        {
          "name": "G4",
          "midi": 67,
          "time": 3.333329999999999,
          "velocity": 1,
          "duration": 0.16666649999999983
        },
        {
          "name": "A#3",
          "midi": 58,
          "time": 3.333329999999999,
          "velocity": 1,
          "duration": 0.16666649999999983
        },
        {
          "name": "A#3",
          "midi": 58,
          "time": 3.4999964999999986,
          "velocity": 1,
          "duration": 0.16666649999999983
        },
        {
          "name": "G4",
          "midi": 67,
          "time": 3.4999964999999986,
          "velocity": 1,
          "duration": 0.16666649999999983
        },
        {
          "name": "A#2",
          "midi": 46,
          "time": 3.6666629999999985,
          "velocity": 1,
          "duration": 0.33333299999999966
        },
        {
          "name": "G4",
          "midi": 67,
          "time": 3.6666629999999985,
          "velocity": 1,
          "duration": 0.16666649999999983
        },
        {
          "name": "A#3",
          "midi": 58,
          "time": 3.6666629999999985,
          "velocity": 1,
          "duration": 0.16666649999999983
        },
        {
          "name": "G4",
          "midi": 67,
          "time": 3.8333294999999983,
          "velocity": 1,
          "duration": 0.16666649999999983
        },
        {
          "name": "A#3",
          "midi": 58,
          "time": 3.8333294999999983,
          "velocity": 1,
          "duration": 0.16666649999999983
        },
        {
          "name": "A#3",
          "midi": 58,
          "time": 3.999995999999998,
          "velocity": 1,
          "duration": 0.16666650000000027
        },
        {
          "name": "G4",
          "midi": 67,
          "time": 3.999995999999998,
          "velocity": 1,
          "duration": 0.16666650000000027
        },
        {
          "name": "D#3",
          "midi": 51,
          "time": 3.999995999999998,
          "velocity": 1,
          "duration": 0.3333330000000001
        },
        {
          "name": "G4",
          "midi": 67,
          "time": 4.166662499999998,
          "velocity": 1,
          "duration": 0.16666649999999983
        },
        {
          "name": "A#3",
          "midi": 58,
          "time": 4.166662499999998,
          "velocity": 1,
          "duration": 0.16666649999999983
        },
        {
          "name": "G3",
          "midi": 55,
          "time": 4.333328999999998,
          "velocity": 1,
          "duration": 0.33333299999999966
        },
        {
          "name": "G4",
          "midi": 67,
          "time": 4.333328999999998,
          "velocity": 1,
          "duration": 0.16666649999999983
        },
        {
          "name": "A#3",
          "midi": 58,
          "time": 4.333328999999998,
          "velocity": 1,
          "duration": 0.16666649999999983
        },
        {
          "name": "G4",
          "midi": 67,
          "time": 4.499995499999998,
          "velocity": 1,
          "duration": 0.16666649999999983
        },
        {
          "name": "A#3",
          "midi": 58,
          "time": 4.499995499999998,
          "velocity": 1,
          "duration": 0.16666649999999983
        },
        {
          "name": "A#3",
          "midi": 58,
          "time": 4.666661999999998,
          "velocity": 1,
          "duration": 0.33333299999999966
        },
        {
          "name": "G4",
          "midi": 67,
          "time": 4.666661999999998,
          "velocity": 1,
          "duration": 0.16666649999999983
        },
        {
          "name": "G4",
          "midi": 67,
          "time": 4.833328499999998,
          "velocity": 1,
          "duration": 0.16666649999999983
        },
        {
          "name": "D#3",
          "midi": 51,
          "time": 4.9999949999999975,
          "velocity": 1,
          "duration": 0.6666659999999993
        },
        {
          "name": "G4",
          "midi": 67,
          "time": 4.9999949999999975,
          "velocity": 1,
          "duration": 0.16666649999999983
        },
        {
          "name": "A#3",
          "midi": 58,
          "time": 4.9999949999999975,
          "velocity": 1,
          "duration": 0.16666649999999983
        },
        {
          "name": "A#3",
          "midi": 58,
          "time": 5.166661499999997,
          "velocity": 1,
          "duration": 0.16666649999999983
        },
        {
          "name": "G4",
          "midi": 67,
          "time": 5.166661499999997,
          "velocity": 1,
          "duration": 0.16666649999999983
        },
        {
          "name": "G4",
          "midi": 67,
          "time": 5.333327999999997,
          "velocity": 1,
          "duration": 0.16666649999999983
        },
        {
          "name": "A#3",
          "midi": 58,
          "time": 5.333327999999997,
          "velocity": 1,
          "duration": 0.16666649999999983
        },
        {
          "name": "G4",
          "midi": 67,
          "time": 5.499994499999997,
          "velocity": 1,
          "duration": 0.16666649999999983
        },
        {
          "name": "A#3",
          "midi": 58,
          "time": 5.499994499999997,
          "velocity": 1,
          "duration": 0.16666649999999983
        },
        {
          "name": "D3",
          "midi": 50,
          "time": 5.666660999999997,
          "velocity": 1,
          "duration": 0.33333299999999966
        },
        {
          "name": "G4",
          "midi": 67,
          "time": 5.666660999999997,
          "velocity": 1,
          "duration": 0.16666649999999983
        },
        {
          "name": "A#3",
          "midi": 58,
          "time": 5.666660999999997,
          "velocity": 1,
          "duration": 0.16666649999999983
        },
        {
          "name": "A#3",
          "midi": 58,
          "time": 5.833327499999997,
          "velocity": 1,
          "duration": 0.16666649999999983
        },
        {
          "name": "G4",
          "midi": 67,
          "time": 5.833327499999997,
          "velocity": 1,
          "duration": 0.16666649999999983
        },
        {
          "name": "C#3",
          "midi": 49,
          "time": 5.9999939999999965,
          "velocity": 1,
          "duration": 1.999997999999998
        },
        {
          "name": "G4",
          "midi": 67,
          "time": 5.9999939999999965,
          "velocity": 1,
          "duration": 0.16666649999999983
        },
        {
          "name": "A#3",
          "midi": 58,
          "time": 5.9999939999999965,
          "velocity": 1,
          "duration": 0.16666649999999983
        },
        {
          "name": "G5",
          "midi": 79,
          "time": 6.166660499999996,
          "velocity": 1,
          "duration": 0.33333299999999966
        },
        {
          "name": "G4",
          "midi": 67,
          "time": 6.166660499999996,
          "velocity": 1,
          "duration": 0.16666649999999983
        },
        {
          "name": "A#3",
          "midi": 58,
          "time": 6.166660499999996,
          "velocity": 1,
          "duration": 0.16666649999999983
        },
        {
          "name": "G4",
          "midi": 67,
          "time": 6.333326999999996,
          "velocity": 1,
          "duration": 0.16666649999999983
        },
        {
          "name": "A#3",
          "midi": 58,
          "time": 6.333326999999996,
          "velocity": 1,
          "duration": 0.16666649999999983
        },
        {
          "name": "G5",
          "midi": 79,
          "time": 6.499993499999996,
          "velocity": 1,
          "duration": 0.33333299999999966
        },
        {
          "name": "G4",
          "midi": 67,
          "time": 6.499993499999996,
          "velocity": 1,
          "duration": 0.16666649999999983
        },
        {
          "name": "A#3",
          "midi": 58,
          "time": 6.499993499999996,
          "velocity": 1,
          "duration": 0.16666649999999983
        },
        {
          "name": "G4",
          "midi": 67,
          "time": 6.666659999999996,
          "velocity": 1,
          "duration": 0.16666649999999983
        },
        {
          "name": "A#3",
          "midi": 58,
          "time": 6.666659999999996,
          "velocity": 1,
          "duration": 0.16666649999999983
        },
        {
          "name": "A#3",
          "midi": 58,
          "time": 6.833326499999996,
          "velocity": 1,
          "duration": 0.16666649999999983
        },
        {
          "name": "G4",
          "midi": 67,
          "time": 6.833326499999996,
          "velocity": 1,
          "duration": 0.16666649999999983
        },
        {
          "name": "G5",
          "midi": 79,
          "time": 6.833326499999996,
          "velocity": 1,
          "duration": 0.33333299999999966
        },
        {
          "name": "G4",
          "midi": 67,
          "time": 6.9999929999999955,
          "velocity": 1,
          "duration": 0.16666649999999983
        },
        {
          "name": "A#3",
          "midi": 58,
          "time": 6.9999929999999955,
          "velocity": 1,
          "duration": 0.16666649999999983
        },
        {
          "name": "A#3",
          "midi": 58,
          "time": 7.166659499999995,
          "velocity": 1,
          "duration": 0.16666649999999983
        },
        {
          "name": "G4",
          "midi": 67,
          "time": 7.166659499999995,
          "velocity": 1,
          "duration": 0.16666649999999983
        },
        {
          "name": "G5",
          "midi": 79,
          "time": 7.166659499999995,
          "velocity": 1,
          "duration": 0.33333299999999966
        },
        {
          "name": "G4",
          "midi": 67,
          "time": 7.333325999999995,
          "velocity": 1,
          "duration": 0.16666649999999983
        },
        {
          "name": "A#3",
          "midi": 58,
          "time": 7.333325999999995,
          "velocity": 1,
          "duration": 0.16666649999999983
        },
        {
          "name": "G5",
          "midi": 79,
          "time": 7.499992499999995,
          "velocity": 1,
          "duration": 0.33333299999999966
        },
        {
          "name": "G4",
          "midi": 67,
          "time": 7.499992499999995,
          "velocity": 1,
          "duration": 0.16666649999999983
        },
        {
          "name": "A#3",
          "midi": 58,
          "time": 7.499992499999995,
          "velocity": 1,
          "duration": 0.16666649999999983
        },
        {
          "name": "G4",
          "midi": 67,
          "time": 7.666658999999995,
          "velocity": 1,
          "duration": 0.16666649999999983
        },
        {
          "name": "A#3",
          "midi": 58,
          "time": 7.666658999999995,
          "velocity": 1,
          "duration": 0.16666649999999983
        },
        {
          "name": "A#3",
          "midi": 58,
          "time": 7.833325499999995,
          "velocity": 1,
          "duration": 0.16666649999999983
        },
        {
          "name": "G4",
          "midi": 67,
          "time": 7.833325499999995,
          "velocity": 1,
          "duration": 0.16666649999999983
        },
        {
          "name": "G5",
          "midi": 79,
          "time": 7.833325499999995,
          "velocity": 1,
          "duration": 1.1666654999999997
        },
        {
          "name": "D3",
          "midi": 50,
          "time": 7.999991999999994,
          "velocity": 1,
          "duration": 1.6666649999999992
        },
        {
          "name": "G4",
          "midi": 67,
          "time": 7.999991999999994,
          "velocity": 1,
          "duration": 0.16666650000000072
        },
        {
          "name": "A#3",
          "midi": 58,
          "time": 7.999991999999994,
          "velocity": 1,
          "duration": 0.33333300000000055
        },
        {
          "name": "G4",
          "midi": 67,
          "time": 8.333324999999995,
          "velocity": 1,
          "duration": 0.16666649999999983
        },
        {
          "name": "A#3",
          "midi": 58,
          "time": 8.499991499999995,
          "velocity": 1,
          "duration": 0.16666649999999983
        },
        {
          "name": "G4",
          "midi": 67,
          "time": 8.666657999999995,
          "velocity": 1,
          "duration": 0.16666649999999983
        },
        {
          "name": "A#3",
          "midi": 58,
          "time": 8.833324499999994,
          "velocity": 1,
          "duration": 0.16666649999999983
        },
        {
          "name": "G#5",
          "midi": 80,
          "time": 8.999990999999994,
          "velocity": 1,
          "duration": 1.6666649999999983
        },
        {
          "name": "G4",
          "midi": 67,
          "time": 8.999990999999994,
          "velocity": 1,
          "duration": 0.16666649999999983
        },
        {
          "name": "G#4",
          "midi": 68,
          "time": 8.999990999999994,
          "velocity": 1,
          "duration": 1.6666649999999983
        },
        {
          "name": "A#3",
          "midi": 58,
          "time": 9.166657499999994,
          "velocity": 1,
          "duration": 0.16666649999999983
        },
        {
          "name": "G4",
          "midi": 67,
          "time": 9.333323999999994,
          "velocity": 1,
          "duration": 0.16666649999999983
        },
        {
          "name": "A#3",
          "midi": 58,
          "time": 9.499990499999994,
          "velocity": 1,
          "duration": 0.16666649999999983
        },
        {
          "name": "D3",
          "midi": 50,
          "time": 9.666656999999994,
          "velocity": 1,
          "duration": 0.33333299999999966
        },
        {
          "name": "G4",
          "midi": 67,
          "time": 9.666656999999994,
          "velocity": 1,
          "duration": 0.16666649999999983
        },
        {
          "name": "A#3",
          "midi": 58,
          "time": 9.833323499999993,
          "velocity": 1,
          "duration": 0.16666649999999983
        },
        {
          "name": "D#3",
          "midi": 51,
          "time": 9.999989999999993,
          "velocity": 1,
          "duration": 0.999998999999999
        },
        {
          "name": "D#4",
          "midi": 63,
          "time": 9.999989999999993,
          "velocity": 1,
          "duration": 0.16666649999999983
        },
        {
          "name": "A#3",
          "midi": 58,
          "time": 10.166656499999993,
          "velocity": 1,
          "duration": 0.16666649999999983
        },
        {
          "name": "D#4",
          "midi": 63,
          "time": 10.333322999999993,
          "velocity": 1,
          "duration": 0.16666649999999983
        },
        {
          "name": "A#3",
          "midi": 58,
          "time": 10.499989499999993,
          "velocity": 1,
          "duration": 0.16666649999999983
        },
        {
          "name": "G5",
          "midi": 79,
          "time": 10.666655999999993,
          "velocity": 1,
          "duration": 0.33333299999999966
        },
        {
          "name": "D#4",
          "midi": 63,
          "time": 10.666655999999993,
          "velocity": 1,
          "duration": 0.16666649999999983
        },
        {
          "name": "G4",
          "midi": 67,
          "time": 10.666655999999993,
          "velocity": 1,
          "duration": 0.33333299999999966
        },
        {
          "name": "A#3",
          "midi": 58,
          "time": 10.833322499999992,
          "velocity": 1,
          "duration": 0.16666649999999983
        },
        {
          "name": "F4",
          "midi": 65,
          "time": 10.999988999999992,
          "velocity": 1,
          "duration": 0.33333299999999966
        },
        {
          "name": "C4",
          "midi": 60,
          "time": 10.999988999999992,
          "velocity": 1,
          "duration": 0.16666649999999983
        },
        {
          "name": "F5",
          "midi": 77,
          "time": 10.999988999999992,
          "velocity": 1,
          "duration": 0.33333299999999966
        },
        {
          "name": "G#2",
          "midi": 44,
          "time": 10.999988999999992,
          "velocity": 1,
          "duration": 0.33333299999999966
        },
        {
          "name": "D#4",
          "midi": 63,
          "time": 11.166655499999992,
          "velocity": 1,
          "duration": 0.16666649999999983
        },
        {
          "name": "A#2",
          "midi": 46,
          "time": 11.333321999999992,
          "velocity": 1,
          "duration": 0.33333299999999966
        },
        {
          "name": "G5",
          "midi": 79,
          "time": 11.333321999999992,
          "velocity": 1,
          "duration": 0.33333299999999966
        },
        {
          "name": "A#3",
          "midi": 58,
          "time": 11.333321999999992,
          "velocity": 1,
          "duration": 0.16666649999999983
        },
        {
          "name": "G4",
          "midi": 67,
          "time": 11.333321999999992,
          "velocity": 1,
          "duration": 0.33333299999999966
        },
        {
          "name": "D#4",
          "midi": 63,
          "time": 11.499988499999992,
          "velocity": 1,
          "duration": 0.16666649999999983
        },
        {
          "name": "C3",
          "midi": 48,
          "time": 11.666654999999992,
          "velocity": 1,
          "duration": 0.33333299999999966
        },
        {
          "name": "G#5",
          "midi": 80,
          "time": 11.666654999999992,
          "velocity": 1,
          "duration": 0.33333299999999966
        },
        {
          "name": "G#3",
          "midi": 56,
          "time": 11.666654999999992,
          "velocity": 1,
          "duration": 0.16666649999999983
        },
        {
          "name": "G#4",
          "midi": 68,
          "time": 11.666654999999992,
          "velocity": 1,
          "duration": 0.33333299999999966
        },
        {
          "name": "D#4",
          "midi": 63,
          "time": 11.833321499999991,
          "velocity": 1,
          "duration": 0.16666649999999983
        },
        {
          "name": "G4",
          "midi": 67,
          "time": 11.999987999999991,
          "velocity": 1,
          "duration": 0.16666649999999983
        },
        {
          "name": "A#3",
          "midi": 58,
          "time": 11.999987999999991,
          "velocity": 1,
          "duration": 0.16666649999999983
        },
        {
          "name": "G5",
          "midi": 79,
          "time": 11.999987999999991,
          "velocity": 1,
          "duration": 0.16666649999999983
        },
        {
          "name": "A#2",
          "midi": 46,
          "time": 11.999987999999991,
          "velocity": 1,
          "duration": 1.3333319999999986
        },
        {
          "name": "A#5",
          "midi": 82,
          "time": 12.166654499999991,
          "velocity": 1,
          "duration": 0.16666649999999983
        },
        {
          "name": "D#4",
          "midi": 63,
          "time": 12.166654499999991,
          "velocity": 1,
          "duration": 0.16666649999999983
        },
        {
          "name": "A#4",
          "midi": 70,
          "time": 12.166654499999991,
          "velocity": 1,
          "duration": 0.16666649999999983
        },
        {
          "name": "G#5",
          "midi": 80,
          "time": 12.33332099999999,
          "velocity": 1,
          "duration": 0.16666649999999983
        },
        {
          "name": "G3",
          "midi": 55,
          "time": 12.33332099999999,
          "velocity": 1,
          "duration": 0.16666649999999983
        },
        {
          "name": "G#4",
          "midi": 68,
          "time": 12.33332099999999,
          "velocity": 1,
          "duration": 0.16666649999999983
        },
        {
          "name": "G5",
          "midi": 79,
          "time": 12.49998749999999,
          "velocity": 1,
          "duration": 0.16666649999999983
        },
        {
          "name": "A#3",
          "midi": 58,
          "time": 12.49998749999999,
          "velocity": 1,
          "duration": 0.16666649999999983
        },
        {
          "name": "G4",
          "midi": 67,
          "time": 12.49998749999999,
          "velocity": 1,
          "duration": 0.16666649999999983
        },
        {
          "name": "F5",
          "midi": 77,
          "time": 12.66665399999999,
          "velocity": 1,
          "duration": 0.16666649999999983
        },
        {
          "name": "G3",
          "midi": 55,
          "time": 12.66665399999999,
          "velocity": 1,
          "duration": 0.16666649999999983
        },
        {
          "name": "F4",
          "midi": 65,
          "time": 12.66665399999999,
          "velocity": 1,
          "duration": 0.16666649999999983
        },
        {
          "name": "D#4",
          "midi": 63,
          "time": 12.83332049999999,
          "velocity": 1,
          "duration": 0.16666649999999983
        },
        {
          "name": "A#3",
          "midi": 58,
          "time": 12.83332049999999,
          "velocity": 1,
          "duration": 0.16666649999999983
        },
        {
          "name": "D#5",
          "midi": 75,
          "time": 12.83332049999999,
          "velocity": 1,
          "duration": 0.16666649999999983
        },
        {
          "name": "D5",
          "midi": 74,
          "time": 12.99998699999999,
          "velocity": 1,
          "duration": 0.16666649999999983
        },
        {
          "name": "G#3",
          "midi": 56,
          "time": 12.99998699999999,
          "velocity": 1,
          "duration": 0.16666649999999983
        },
        {
          "name": "D4",
          "midi": 62,
          "time": 12.99998699999999,
          "velocity": 1,
          "duration": 0.16666649999999983
        },
        {
          "name": "A#4",
          "midi": 70,
          "time": 13.16665349999999,
          "velocity": 1,
          "duration": 0.16666649999999983
        },
        {
          "name": "A#3",
          "midi": 58,
          "time": 13.16665349999999,
          "velocity": 1,
          "duration": 0.16666649999999983
        },
        {
          "name": "D#4",
          "midi": 63,
          "time": 13.33331999999999,
          "velocity": 1,
          "duration": 0.16666649999999983
        },
        {
          "name": "G3",
          "midi": 55,
          "time": 13.33331999999999,
          "velocity": 1,
          "duration": 0.16666649999999983
        },
        {
          "name": "D#5",
          "midi": 75,
          "time": 13.33331999999999,
          "velocity": 1,
          "duration": 0.16666649999999983
        },
        {
          "name": "A#2",
          "midi": 46,
          "time": 13.33331999999999,
          "velocity": 1,
          "duration": 0.33333299999999966
        },
        {
          "name": "A#4",
          "midi": 70,
          "time": 13.49998649999999,
          "velocity": 1,
          "duration": 0.16666649999999983
        },
        {
          "name": "A#3",
          "midi": 58,
          "time": 13.49998649999999,
          "velocity": 1,
          "duration": 0.16666649999999983
        },
        {
          "name": "G#3",
          "midi": 56,
          "time": 13.66665299999999,
          "velocity": 1,
          "duration": 0.16666649999999983
        },
        {
          "name": "D4",
          "midi": 62,
          "time": 13.66665299999999,
          "velocity": 1,
          "duration": 0.16666649999999983
        },
        {
          "name": "G#4",
          "midi": 68,
          "time": 13.66665299999999,
          "velocity": 1,
          "duration": 0.16666649999999983
        },
        {
          "name": "A#2",
          "midi": 46,
          "time": 13.66665299999999,
          "velocity": 1,
          "duration": 0.33333299999999966
        },
        {
          "name": "F4",
          "midi": 65,
          "time": 13.83331949999999,
          "velocity": 1,
          "duration": 0.16666649999999983
        },
        {
          "name": "A#3",
          "midi": 58,
          "time": 13.83331949999999,
          "velocity": 1,
          "duration": 0.16666649999999983
        },
        {
          "name": "F3",
          "midi": 53,
          "time": 13.83331949999999,
          "velocity": 1,
          "duration": 0.16666649999999983
        },
        {
          "name": "G3",
          "midi": 55,
          "time": 13.99998599999999,
          "velocity": 1,
          "duration": 0.16666649999999983
        },
        {
          "name": "D#4",
          "midi": 63,
          "time": 13.99998599999999,
          "velocity": 1,
          "duration": 0.33333299999999966
        },
        {
          "name": "D#3",
          "midi": 51,
          "time": 13.99998599999999,
          "velocity": 1,
          "duration": 0.33333299999999966
        },
        {
          "name": "A#3",
          "midi": 58,
          "time": 14.166652499999989,
          "velocity": 1,
          "duration": 0.16666649999999983
        },
        {
          "name": "G3",
          "midi": 55,
          "time": 14.166652499999989,
          "velocity": 1,
          "duration": 0.16666649999999983
        },
        {
          "name": "A#3",
          "midi": 58,
          "time": 14.333318999999989,
          "velocity": 1,
          "duration": 0.16666649999999983
        },
        {
          "name": "G3",
          "midi": 55,
          "time": 14.333318999999989,
          "velocity": 1,
          "duration": 0.16666649999999983
        },
        {
          "name": "D#3",
          "midi": 51,
          "time": 14.333318999999989,
          "velocity": 1,
          "duration": 0.16666649999999983
        },
        {
          "name": "D#3",
          "midi": 51,
          "time": 14.499985499999989,
          "velocity": 1,
          "duration": 0.16666649999999983
        },
        {
          "name": "G3",
          "midi": 55,
          "time": 14.499985499999989,
          "velocity": 1,
          "duration": 0.16666649999999983
        },
        {
          "name": "A#3",
          "midi": 58,
          "time": 14.499985499999989,
          "velocity": 1,
          "duration": 0.16666649999999983
        },
        {
          "name": "A#3",
          "midi": 58,
          "time": 14.666651999999988,
          "velocity": 1,
          "duration": 0.16666649999999983
        },
        {
          "name": "G3",
          "midi": 55,
          "time": 14.666651999999988,
          "velocity": 1,
          "duration": 0.16666649999999983
        },
        {
          "name": "D#3",
          "midi": 51,
          "time": 14.666651999999988,
          "velocity": 1,
          "duration": 0.16666649999999983
        },
        {
          "name": "A#3",
          "midi": 58,
          "time": 14.833318499999988,
          "velocity": 1,
          "duration": 0.16666649999999983
        },
        {
          "name": "G3",
          "midi": 55,
          "time": 14.833318499999988,
          "velocity": 1,
          "duration": 0.16666649999999983
        },
        {
          "name": "D#3",
          "midi": 51,
          "time": 14.833318499999988,
          "velocity": 1,
          "duration": 0.16666649999999983
        },
        {
          "name": "A#3",
          "midi": 58,
          "time": 14.999984999999988,
          "velocity": 1,
          "duration": 0.16666649999999983
        },
        {
          "name": "G3",
          "midi": 55,
          "time": 14.999984999999988,
          "velocity": 1,
          "duration": 0.16666649999999983
        },
        {
          "name": "D#3",
          "midi": 51,
          "time": 14.999984999999988,
          "velocity": 1,
          "duration": 0.16666649999999983
        },
        {
          "name": "A#3",
          "midi": 58,
          "time": 15.166651499999988,
          "velocity": 1,
          "duration": 0.16666649999999983
        },
        {
          "name": "G3",
          "midi": 55,
          "time": 15.166651499999988,
          "velocity": 1,
          "duration": 0.16666649999999983
        },
        {
          "name": "D#3",
          "midi": 51,
          "time": 15.166651499999988,
          "velocity": 1,
          "duration": 0.16666649999999983
        },
        {
          "name": "D#3",
          "midi": 51,
          "time": 15.333317999999988,
          "velocity": 1,
          "duration": 0.16666649999999983
        },
        {
          "name": "G3",
          "midi": 55,
          "time": 15.333317999999988,
          "velocity": 1,
          "duration": 0.16666649999999983
        },
        {
          "name": "A#3",
          "midi": 58,
          "time": 15.333317999999988,
          "velocity": 1,
          "duration": 0.16666649999999983
        },
        {
          "name": "A#3",
          "midi": 58,
          "time": 15.499984499999988,
          "velocity": 1,
          "duration": 0.16666649999999983
        },
        {
          "name": "G3",
          "midi": 55,
          "time": 15.499984499999988,
          "velocity": 1,
          "duration": 0.16666649999999983
        },
        {
          "name": "D#3",
          "midi": 51,
          "time": 15.499984499999988,
          "velocity": 1,
          "duration": 0.16666649999999983
        },
        {
          "name": "A#3",
          "midi": 58,
          "time": 15.666650999999987,
          "velocity": 1,
          "duration": 0.16666649999999983
        },
        {
          "name": "G3",
          "midi": 55,
          "time": 15.666650999999987,
          "velocity": 1,
          "duration": 0.16666649999999983
        },
        {
          "name": "D#3",
          "midi": 51,
          "time": 15.666650999999987,
          "velocity": 1,
          "duration": 0.16666649999999983
        },
        {
          "name": "A#3",
          "midi": 58,
          "time": 15.833317499999987,
          "velocity": 1,
          "duration": 0.16666649999999983
        },
        {
          "name": "G3",
          "midi": 55,
          "time": 15.833317499999987,
          "velocity": 1,
          "duration": 0.16666649999999983
        },
        {
          "name": "D#3",
          "midi": 51,
          "time": 15.833317499999987,
          "velocity": 1,
          "duration": 0.16666649999999983
        },
        {
          "name": "A#3",
          "midi": 58,
          "time": 15.999983999999987,
          "velocity": 1,
          "duration": 0.1666665000000016
        },
        {
          "name": "G3",
          "midi": 55,
          "time": 15.999983999999987,
          "velocity": 1,
          "duration": 0.1666665000000016
        },
        {
          "name": "D#3",
          "midi": 51,
          "time": 15.999983999999987,
          "velocity": 1,
          "duration": 0.1666665000000016
        },
        {
          "name": "D#3",
          "midi": 51,
          "time": 16.16665049999999,
          "velocity": 1,
          "duration": 0.1666665000000016
        },
        {
          "name": "G3",
          "midi": 55,
          "time": 16.16665049999999,
          "velocity": 1,
          "duration": 0.1666665000000016
        },
        {
          "name": "A#3",
          "midi": 58,
          "time": 16.16665049999999,
          "velocity": 1,
          "duration": 0.1666665000000016
        },
        {
          "name": "A#3",
          "midi": 58,
          "time": 16.33331699999999,
          "velocity": 1,
          "duration": 0.1666665000000016
        },
        {
          "name": "G3",
          "midi": 55,
          "time": 16.33331699999999,
          "velocity": 1,
          "duration": 0.1666665000000016
        },
        {
          "name": "D#3",
          "midi": 51,
          "time": 16.33331699999999,
          "velocity": 1,
          "duration": 0.1666665000000016
        },
        {
          "name": "A#3",
          "midi": 58,
          "time": 16.499983499999992,
          "velocity": 1,
          "duration": 0.1666665000000016
        },
        {
          "name": "G3",
          "midi": 55,
          "time": 16.499983499999992,
          "velocity": 1,
          "duration": 0.1666665000000016
        },
        {
          "name": "D#3",
          "midi": 51,
          "time": 16.499983499999992,
          "velocity": 1,
          "duration": 0.1666665000000016
        },
        {
          "name": "D#3",
          "midi": 51,
          "time": 16.666649999999994,
          "velocity": 1,
          "duration": 0.1666665000000016
        },
        {
          "name": "G3",
          "midi": 55,
          "time": 16.666649999999994,
          "velocity": 1,
          "duration": 0.1666665000000016
        },
        {
          "name": "A#3",
          "midi": 58,
          "time": 16.666649999999994,
          "velocity": 1,
          "duration": 0.1666665000000016
        },
        {
          "name": "A#3",
          "midi": 58,
          "time": 16.833316499999995,
          "velocity": 1,
          "duration": 0.1666665000000016
        },
        {
          "name": "G3",
          "midi": 55,
          "time": 16.833316499999995,
          "velocity": 1,
          "duration": 0.1666665000000016
        },
        {
          "name": "D#3",
          "midi": 51,
          "time": 16.833316499999995,
          "velocity": 1,
          "duration": 0.1666665000000016
        },
        {
          "name": "A#3",
          "midi": 58,
          "time": 16.999982999999997,
          "velocity": 1,
          "duration": 0.1666665000000016
        },
        {
          "name": "G3",
          "midi": 55,
          "time": 16.999982999999997,
          "velocity": 1,
          "duration": 0.1666665000000016
        },
        {
          "name": "G3",
          "midi": 55,
          "time": 17.1666495,
          "velocity": 1,
          "duration": 0.1666665000000016
        },
        {
          "name": "A#3",
          "midi": 58,
          "time": 17.1666495,
          "velocity": 1,
          "duration": 0.1666665000000016
        },
        {
          "name": "C#4",
          "midi": 61,
          "time": 17.333316,
          "velocity": 1,
          "duration": 0.1666665000000016
        },
        {
          "name": "A#3",
          "midi": 58,
          "time": 17.333316,
          "velocity": 1,
          "duration": 0.1666665000000016
        },
        {
          "name": "G3",
          "midi": 55,
          "time": 17.333316,
          "velocity": 1,
          "duration": 0.1666665000000016
        },
        {
          "name": "C#4",
          "midi": 61,
          "time": 17.4999825,
          "velocity": 1,
          "duration": 0.1666665000000016
        },
        {
          "name": "A#3",
          "midi": 58,
          "time": 17.4999825,
          "velocity": 1,
          "duration": 0.1666665000000016
        },
        {
          "name": "G3",
          "midi": 55,
          "time": 17.4999825,
          "velocity": 1,
          "duration": 0.1666665000000016
        },
        {
          "name": "G3",
          "midi": 55,
          "time": 17.666649000000003,
          "velocity": 1,
          "duration": 0.1666665000000016
        },
        {
          "name": "A#3",
          "midi": 58,
          "time": 17.666649000000003,
          "velocity": 1,
          "duration": 0.1666665000000016
        },
        {
          "name": "C4",
          "midi": 60,
          "time": 17.666649000000003,
          "velocity": 1,
          "duration": 0.1666665000000016
        },
        {
          "name": "E5",
          "midi": 76,
          "time": 17.666649000000003,
          "velocity": 1,
          "duration": 0.3333330000000032
        },
        {
          "name": "C3",
          "midi": 48,
          "time": 17.666649000000003,
          "velocity": 1,
          "duration": 0.3333330000000032
        },
        {
          "name": "C4",
          "midi": 60,
          "time": 17.833315500000005,
          "velocity": 1,
          "duration": 0.1666665000000016
        },
        {
          "name": "A#3",
          "midi": 58,
          "time": 17.833315500000005,
          "velocity": 1,
          "duration": 0.1666665000000016
        },
        {
          "name": "G3",
          "midi": 55,
          "time": 17.833315500000005,
          "velocity": 1,
          "duration": 0.1666665000000016
        },
        {
          "name": "F3",
          "midi": 53,
          "time": 17.999982000000006,
          "velocity": 1,
          "duration": 0.3333330000000032
        },
        {
          "name": "G#3",
          "midi": 56,
          "time": 17.999982000000006,
          "velocity": 1,
          "duration": 0.1666665000000016
        },
        {
          "name": "C4",
          "midi": 60,
          "time": 17.999982000000006,
          "velocity": 1,
          "duration": 0.1666665000000016
        },
        {
          "name": "F5",
          "midi": 77,
          "time": 17.999982000000006,
          "velocity": 1,
          "duration": 0.3333330000000032
        },
        {
          "name": "C4",
          "midi": 60,
          "time": 18.166648500000008,
          "velocity": 1,
          "duration": 0.1666665000000016
        },
        {
          "name": "G#3",
          "midi": 56,
          "time": 18.166648500000008,
          "velocity": 1,
          "duration": 0.1666665000000016
        },
        {
          "name": "G#3",
          "midi": 56,
          "time": 18.33331500000001,
          "velocity": 1,
          "duration": 0.3333330000000032
        },
        {
          "name": "G#5",
          "midi": 80,
          "time": 18.33331500000001,
          "velocity": 1,
          "duration": 0.3333330000000032
        },
        {
          "name": "C4",
          "midi": 60,
          "time": 18.33331500000001,
          "velocity": 1,
          "duration": 0.1666665000000016
        },
        {
          "name": "F3",
          "midi": 53,
          "time": 18.33331500000001,
          "velocity": 1,
          "duration": 0.1666665000000016
        },
        {
          "name": "F3",
          "midi": 53,
          "time": 18.49998150000001,
          "velocity": 1,
          "duration": 0.1666665000000016
        },
        {
          "name": "C4",
          "midi": 60,
          "time": 18.49998150000001,
          "velocity": 1,
          "duration": 0.1666665000000016
        },
        {
          "name": "C4",
          "midi": 60,
          "time": 18.666648000000013,
          "velocity": 1,
          "duration": 0.3333330000000032
        },
        {
          "name": "C6",
          "midi": 84,
          "time": 18.666648000000013,
          "velocity": 1,
          "duration": 0.3333330000000032
        },
        {
          "name": "G#3",
          "midi": 56,
          "time": 18.666648000000013,
          "velocity": 1,
          "duration": 0.1666665000000016
        },
        {
          "name": "F3",
          "midi": 53,
          "time": 18.666648000000013,
          "velocity": 1,
          "duration": 0.1666665000000016
        },
        {
          "name": "G#3",
          "midi": 56,
          "time": 18.833314500000014,
          "velocity": 1,
          "duration": 0.1666665000000016
        },
        {
          "name": "F3",
          "midi": 53,
          "time": 18.833314500000014,
          "velocity": 1,
          "duration": 0.1666665000000016
        },
        {
          "name": "F3",
          "midi": 53,
          "time": 18.999981000000016,
          "velocity": 1,
          "duration": 0.3333330000000032
        },
        {
          "name": "G#3",
          "midi": 56,
          "time": 18.999981000000016,
          "velocity": 1,
          "duration": 0.1666665000000016
        },
        {
          "name": "C4",
          "midi": 60,
          "time": 18.999981000000016,
          "velocity": 1,
          "duration": 0.1666665000000016
        },
        {
          "name": "F5",
          "midi": 77,
          "time": 18.999981000000016,
          "velocity": 1,
          "duration": 0.3333330000000032
        },
        {
          "name": "C4",
          "midi": 60,
          "time": 19.166647500000018,
          "velocity": 1,
          "duration": 0.1666665000000016
        },
        {
          "name": "G#3",
          "midi": 56,
          "time": 19.166647500000018,
          "velocity": 1,
          "duration": 0.1666665000000016
        },
        {
          "name": "C#4",
          "midi": 61,
          "time": 19.33331400000002,
          "velocity": 1,
          "duration": 0.1666665000000016
        },
        {
          "name": "G#3",
          "midi": 56,
          "time": 19.33331400000002,
          "velocity": 1,
          "duration": 0.1666665000000016
        },
        {
          "name": "F3",
          "midi": 53,
          "time": 19.33331400000002,
          "velocity": 1,
          "duration": 0.1666665000000016
        },
        {
          "name": "F3",
          "midi": 53,
          "time": 19.49998050000002,
          "velocity": 1,
          "duration": 0.1666665000000016
        },
        {
          "name": "G#3",
          "midi": 56,
          "time": 19.49998050000002,
          "velocity": 1,
          "duration": 0.1666665000000016
        },
        {
          "name": "C#4",
          "midi": 61,
          "time": 19.49998050000002,
          "velocity": 1,
          "duration": 0.1666665000000016
        },
        {
          "name": "D#4",
          "midi": 63,
          "time": 19.666647000000022,
          "velocity": 1,
          "duration": 0.1666665000000016
        },
        {
          "name": "C#4",
          "midi": 61,
          "time": 19.666647000000022,
          "velocity": 1,
          "duration": 0.1666665000000016
        },
        {
          "name": "A#3",
          "midi": 58,
          "time": 19.666647000000022,
          "velocity": 1,
          "duration": 0.1666665000000016
        },
        {
          "name": "D#4",
          "midi": 63,
          "time": 19.833313500000024,
          "velocity": 1,
          "duration": 0.1666665000000016
        },
        {
          "name": "C#4",
          "midi": 61,
          "time": 19.833313500000024,
          "velocity": 1,
          "duration": 0.1666665000000016
        },
        {
          "name": "A#3",
          "midi": 58,
          "time": 19.833313500000024,
          "velocity": 1,
          "duration": 0.1666665000000016
        },
        {
          "name": "G#3",
          "midi": 56,
          "time": 19.999980000000026,
          "velocity": 1,
          "duration": 0.1666665000000016
        },
        {
          "name": "C4",
          "midi": 60,
          "time": 19.999980000000026,
          "velocity": 1,
          "duration": 0.1666665000000016
        },
        {
          "name": "D#4",
          "midi": 63,
          "time": 19.999980000000026,
          "velocity": 1,
          "duration": 0.1666665000000016
        },
        {
          "name": "D#4",
          "midi": 63,
          "time": 20.166646500000027,
          "velocity": 1,
          "duration": 0.1666665000000016
        },
        {
          "name": "C4",
          "midi": 60,
          "time": 20.166646500000027,
          "velocity": 1,
          "duration": 0.1666665000000016
        },
        {
          "name": "G#3",
          "midi": 56,
          "time": 20.166646500000027,
          "velocity": 1,
          "duration": 0.1666665000000016
        },
        {
          "name": "D#4",
          "midi": 63,
          "time": 20.33331300000003,
          "velocity": 1,
          "duration": 0.1666665000000016
        },
        {
          "name": "C4",
          "midi": 60,
          "time": 20.33331300000003,
          "velocity": 1,
          "duration": 0.1666665000000016
        },
        {
          "name": "G#3",
          "midi": 56,
          "time": 20.33331300000003,
          "velocity": 1,
          "duration": 0.1666665000000016
        },
        {
          "name": "G#3",
          "midi": 56,
          "time": 20.49997950000003,
          "velocity": 1,
          "duration": 0.1666665000000016
        },
        {
          "name": "C4",
          "midi": 60,
          "time": 20.49997950000003,
          "velocity": 1,
          "duration": 0.1666665000000016
        },
        {
          "name": "D#4",
          "midi": 63,
          "time": 20.49997950000003,
          "velocity": 1,
          "duration": 0.1666665000000016
        },
        {
          "name": "D#4",
          "midi": 63,
          "time": 20.666646000000032,
          "velocity": 1,
          "duration": 0.1666665000000016
        },
        {
          "name": "C4",
          "midi": 60,
          "time": 20.666646000000032,
          "velocity": 1,
          "duration": 0.1666665000000016
        },
        {
          "name": "G#3",
          "midi": 56,
          "time": 20.666646000000032,
          "velocity": 1,
          "duration": 0.1666665000000016
        },
        {
          "name": "D#4",
          "midi": 63,
          "time": 20.833312500000034,
          "velocity": 1,
          "duration": 0.1666665000000016
        },
        {
          "name": "C4",
          "midi": 60,
          "time": 20.833312500000034,
          "velocity": 1,
          "duration": 0.1666665000000016
        },
        {
          "name": "G#3",
          "midi": 56,
          "time": 20.833312500000034,
          "velocity": 1,
          "duration": 0.1666665000000016
        },
        {
          "name": "G#3",
          "midi": 56,
          "time": 20.999979000000035,
          "velocity": 1,
          "duration": 0.1666665000000016
        },
        {
          "name": "C4",
          "midi": 60,
          "time": 20.999979000000035,
          "velocity": 1,
          "duration": 0.1666665000000016
        },
        {
          "name": "D#4",
          "midi": 63,
          "time": 20.999979000000035,
          "velocity": 1,
          "duration": 0.1666665000000016
        },
        {
          "name": "D#4",
          "midi": 63,
          "time": 21.166645500000037,
          "velocity": 1,
          "duration": 0.1666665000000016
        },
        {
          "name": "C4",
          "midi": 60,
          "time": 21.166645500000037,
          "velocity": 1,
          "duration": 0.1666665000000016
        },
        {
          "name": "C3",
          "midi": 48,
          "time": 21.33331200000004,
          "velocity": 1,
          "duration": 0.3333330000000032
        },
        {
          "name": "D#4",
          "midi": 63,
          "time": 21.33331200000004,
          "velocity": 1,
          "duration": 0.1666665000000016
        },
        {
          "name": "C4",
          "midi": 60,
          "time": 21.33331200000004,
          "velocity": 1,
          "duration": 0.1666665000000016
        },
        {
          "name": "D#4",
          "midi": 63,
          "time": 21.49997850000004,
          "velocity": 1,
          "duration": 0.1666665000000016
        },
        {
          "name": "C4",
          "midi": 60,
          "time": 21.49997850000004,
          "velocity": 1,
          "duration": 0.1666665000000016
        },
        {
          "name": "B2",
          "midi": 47,
          "time": 21.66664500000004,
          "velocity": 1,
          "duration": 0.3333330000000032
        },
        {
          "name": "A5",
          "midi": 81,
          "time": 21.66664500000004,
          "velocity": 1,
          "duration": 0.3333330000000032
        },
        {
          "name": "D#4",
          "midi": 63,
          "time": 21.66664500000004,
          "velocity": 1,
          "duration": 0.1666665000000016
        },
        {
          "name": "B3",
          "midi": 59,
          "time": 21.66664500000004,
          "velocity": 1,
          "duration": 0.1666665000000016
        },
        {
          "name": "B3",
          "midi": 59,
          "time": 21.833311500000043,
          "velocity": 1,
          "duration": 0.1666665000000016
        },
        {
          "name": "D#4",
          "midi": 63,
          "time": 21.833311500000043,
          "velocity": 1,
          "duration": 0.1666665000000016
        },
        {
          "name": "A#2",
          "midi": 46,
          "time": 21.999978000000045,
          "velocity": 1,
          "duration": 1.666665000000009
        },
        {
          "name": "A#5",
          "midi": 82,
          "time": 21.999978000000045,
          "velocity": 1,
          "duration": 0.6666660000000064
        },
        {
          "name": "D4",
          "midi": 62,
          "time": 21.999978000000045,
          "velocity": 1,
          "duration": 0.1666665000000016
        },
        {
          "name": "A#3",
          "midi": 58,
          "time": 21.999978000000045,
          "velocity": 1,
          "duration": 1.3333320000000093
        },
        {
          "name": "D3",
          "midi": 50,
          "time": 22.333311000000048,
          "velocity": 1,
          "duration": 0.1666665000000016
        },
        {
          "name": "D4",
          "midi": 62,
          "time": 22.333311000000048,
          "velocity": 1,
          "duration": 0.1666665000000016
        },
        {
          "name": "F3",
          "midi": 53,
          "time": 22.49997750000005,
          "velocity": 1,
          "duration": 0.1666665000000016
        },
        {
          "name": "F4",
          "midi": 65,
          "time": 22.49997750000005,
          "velocity": 1,
          "duration": 0.1666665000000016
        },
        {
          "name": "F5",
          "midi": 77,
          "time": 22.66664400000005,
          "velocity": 1,
          "duration": 0.3333330000000032
        },
        {
          "name": "A#4",
          "midi": 70,
          "time": 22.66664400000005,
          "velocity": 1,
          "duration": 0.1666665000000016
        },
        {
          "name": "D5",
          "midi": 74,
          "time": 22.833310500000053,
          "velocity": 1,
          "duration": 0.1666665000000016
        },
        {
          "name": "D4",
          "midi": 62,
          "time": 22.833310500000053,
          "velocity": 1,
          "duration": 0.1666665000000016
        },
        {
          "name": "F4",
          "midi": 65,
          "time": 22.999977000000055,
          "velocity": 1,
          "duration": 0.33333299999999966
        },
        {
          "name": "D5",
          "midi": 74,
          "time": 22.999977000000055,
          "velocity": 1,
          "duration": 0.33333299999999966
        },
        {
          "name": "F5",
          "midi": 77,
          "time": 22.999977000000055,
          "velocity": 1,
          "duration": 0.33333299999999966
        },
        {
          "name": "A#4",
          "midi": 70,
          "time": 23.333310000000054,
          "velocity": 1,
          "duration": 0.33333299999999966
        },
        {
          "name": "F4",
          "midi": 65,
          "time": 23.333310000000054,
          "velocity": 1,
          "duration": 0.33333299999999966
        },
        {
          "name": "D3",
          "midi": 50,
          "time": 23.333310000000054,
          "velocity": 1,
          "duration": 0.33333299999999966
        },
        {
          "name": "A#2",
          "midi": 46,
          "time": 23.666643000000054,
          "velocity": 1,
          "duration": 0.6666659999999993
        },
        {
          "name": "G#4",
          "midi": 68,
          "time": 23.666643000000054,
          "velocity": 1,
          "duration": 0.33333299999999966
        },
        {
          "name": "D4",
          "midi": 62,
          "time": 23.666643000000054,
          "velocity": 1,
          "duration": 0.33333299999999966
        },
        {
          "name": "F3",
          "midi": 53,
          "time": 23.666643000000054,
          "velocity": 1,
          "duration": 0.33333299999999966
        },
        {
          "name": "G3",
          "midi": 55,
          "time": 23.999976000000053,
          "velocity": 1,
          "duration": 0.33333299999999966
        },
        {
          "name": "D#4",
          "midi": 63,
          "time": 23.999976000000053,
          "velocity": 1,
          "duration": 0.33333299999999966
        },
        {
          "name": "G4",
          "midi": 67,
          "time": 23.999976000000053,
          "velocity": 1,
          "duration": 0.33333299999999966
        },
        {
          "name": "A#2",
          "midi": 46,
          "time": 24.333309000000053,
          "velocity": 1,
          "duration": 0.6666659999999993
        },
        {
          "name": "D#5",
          "midi": 75,
          "time": 24.333309000000053,
          "velocity": 1,
          "duration": 0.33333299999999966
        },
        {
          "name": "C5",
          "midi": 72,
          "time": 24.333309000000053,
          "velocity": 1,
          "duration": 0.6666659999999993
        },
        {
          "name": "D#4",
          "midi": 63,
          "time": 24.333309000000053,
          "velocity": 1,
          "duration": 0.6666659999999993
        },
        {
          "name": "F#3",
          "midi": 54,
          "time": 24.333309000000053,
          "velocity": 1,
          "duration": 0.6666659999999993
        },
        {
          "name": "A4",
          "midi": 69,
          "time": 24.666642000000053,
          "velocity": 1,
          "duration": 0.33333299999999966
        },
        {
          "name": "A#2",
          "midi": 46,
          "time": 24.999975000000052,
          "velocity": 1,
          "duration": 0.6666659999999993
        },
        {
          "name": "A5",
          "midi": 81,
          "time": 24.999975000000052,
          "velocity": 1,
          "duration": 0.33333299999999966
        },
        {
          "name": "C5",
          "midi": 72,
          "time": 24.999975000000052,
          "velocity": 1,
          "duration": 0.6666659999999993
        },
        {
          "name": "D#4",
          "midi": 63,
          "time": 24.999975000000052,
          "velocity": 1,
          "duration": 0.6666659999999993
        },
        {
          "name": "F#3",
          "midi": 54,
          "time": 24.999975000000052,
          "velocity": 1,
          "duration": 0.6666659999999993
        },
        {
          "name": "A4",
          "midi": 69,
          "time": 25.333308000000052,
          "velocity": 1,
          "duration": 0.33333299999999966
        },
        {
          "name": "A#2",
          "midi": 46,
          "time": 25.66664100000005,
          "velocity": 1,
          "duration": 0.33333299999999966
        },
        {
          "name": "A5",
          "midi": 81,
          "time": 25.66664100000005,
          "velocity": 1,
          "duration": 0.33333299999999966
        },
        {
          "name": "C5",
          "midi": 72,
          "time": 25.66664100000005,
          "velocity": 1,
          "duration": 0.33333299999999966
        },
        {
          "name": "D#4",
          "midi": 63,
          "time": 25.66664100000005,
          "velocity": 1,
          "duration": 0.33333299999999966
        },
        {
          "name": "F#3",
          "midi": 54,
          "time": 25.66664100000005,
          "velocity": 1,
          "duration": 0.33333299999999966
        },
        {
          "name": "A#2",
          "midi": 46,
          "time": 25.99997400000005,
          "velocity": 1,
          "duration": 1.666665000000009
        },
        {
          "name": "A#5",
          "midi": 82,
          "time": 25.99997400000005,
          "velocity": 1,
          "duration": 0.6666660000000064
        },
        {
          "name": "A#4",
          "midi": 70,
          "time": 25.99997400000005,
          "velocity": 1,
          "duration": 0.1666665000000016
        },
        {
          "name": "D4",
          "midi": 62,
          "time": 25.99997400000005,
          "velocity": 1,
          "duration": 0.1666665000000016
        },
        {
          "name": "F3",
          "midi": 53,
          "time": 25.99997400000005,
          "velocity": 1,
          "duration": 0.3333330000000032
        },
        {
          "name": "A#3",
          "midi": 58,
          "time": 26.166640500000053,
          "velocity": 1,
          "duration": 0.1666665000000016
        },
        {
          "name": "A#3",
          "midi": 58,
          "time": 26.333307000000055,
          "velocity": 1,
          "duration": 0.9999990000000061
        },
        {
          "name": "D4",
          "midi": 62,
          "time": 26.333307000000055,
          "velocity": 1,
          "duration": 0.1666665000000016
        },
        {
          "name": "D3",
          "midi": 50,
          "time": 26.333307000000055,
          "velocity": 1,
          "duration": 0.1666665000000016
        },
        {
          "name": "F3",
          "midi": 53,
          "time": 26.499973500000056,
          "velocity": 1,
          "duration": 0.1666665000000016
        },
        {
          "name": "F4",
          "midi": 65,
          "time": 26.499973500000056,
          "velocity": 1,
          "duration": 0.1666665000000016
        },
        {
          "name": "F5",
          "midi": 77,
          "time": 26.666640000000058,
          "velocity": 1,
          "duration": 0.3333330000000032
        },
        {
          "name": "A#4",
          "midi": 70,
          "time": 26.666640000000058,
          "velocity": 1,
          "duration": 0.1666665000000016
        },
        {
          "name": "D4",
          "midi": 62,
          "time": 26.83330650000006,
          "velocity": 1,
          "duration": 0.1666665000000016
        },
        {
          "name": "D5",
          "midi": 74,
          "time": 26.83330650000006,
          "velocity": 1,
          "duration": 0.1666665000000016
        },
        {
          "name": "F5",
          "midi": 77,
          "time": 26.99997300000006,
          "velocity": 1,
          "duration": 0.33333299999999966
        },
        {
          "name": "D5",
          "midi": 74,
          "time": 26.99997300000006,
          "velocity": 1,
          "duration": 0.33333299999999966
        },
        {
          "name": "F4",
          "midi": 65,
          "time": 26.99997300000006,
          "velocity": 1,
          "duration": 0.33333299999999966
        },
        {
          "name": "A#4",
          "midi": 70,
          "time": 27.33330600000006,
          "velocity": 1,
          "duration": 0.33333299999999966
        },
        {
          "name": "D3",
          "midi": 50,
          "time": 27.33330600000006,
          "velocity": 1,
          "duration": 0.33333299999999966
        },
        {
          "name": "A#3",
          "midi": 58,
          "time": 27.66663900000006,
          "velocity": 1,
          "duration": 0.6666659999999993
        },
        {
          "name": "F4",
          "midi": 65,
          "time": 27.66663900000006,
          "velocity": 1,
          "duration": 0.6666659999999993
        },
        {
          "name": "D4",
          "midi": 62,
          "time": 27.66663900000006,
          "velocity": 1,
          "duration": 0.6666659999999993
        },
        {
          "name": "A#4",
          "midi": 70,
          "time": 27.66663900000006,
          "velocity": 1,
          "duration": 0.6666659999999993
        },
        {
          "name": "A#2",
          "midi": 46,
          "time": 27.66663900000006,
          "velocity": 1,
          "duration": 0.33333299999999966
        },
        {
          "name": "G#2",
          "midi": 44,
          "time": 27.99997200000006,
          "velocity": 1,
          "duration": 0.33333299999999966
        },
        {
          "name": "G#3",
          "midi": 56,
          "time": 27.99997200000006,
          "velocity": 1,
          "duration": 0.33333299999999966
        },
        {
          "name": "G#4",
          "midi": 68,
          "time": 28.33330500000006,
          "velocity": 1,
          "duration": 0.6666659999999993
        },
        {
          "name": "A#3",
          "midi": 58,
          "time": 28.33330500000006,
          "velocity": 1,
          "duration": 0.6666659999999993
        },
        {
          "name": "F4",
          "midi": 65,
          "time": 28.33330500000006,
          "velocity": 1,
          "duration": 0.6666659999999993
        },
        {
          "name": "D5",
          "midi": 74,
          "time": 28.33330500000006,
          "velocity": 1,
          "duration": 0.33333299999999966
        },
        {
          "name": "G#3",
          "midi": 56,
          "time": 28.33330500000006,
          "velocity": 1,
          "duration": 0.6666659999999993
        },
        {
          "name": "A#4",
          "midi": 70,
          "time": 28.66663800000006,
          "velocity": 1,
          "duration": 0.33333299999999966
        },
        {
          "name": "G#3",
          "midi": 56,
          "time": 28.99997100000006,
          "velocity": 1,
          "duration": 0.6666659999999993
        },
        {
          "name": "F5",
          "midi": 77,
          "time": 28.99997100000006,
          "velocity": 1,
          "duration": 0.33333299999999966
        },
        {
          "name": "F4",
          "midi": 65,
          "time": 28.99997100000006,
          "velocity": 1,
          "duration": 0.6666659999999993
        },
        {
          "name": "A#3",
          "midi": 58,
          "time": 28.99997100000006,
          "velocity": 1,
          "duration": 0.6666659999999993
        },
        {
          "name": "G#4",
          "midi": 68,
          "time": 28.99997100000006,
          "velocity": 1,
          "duration": 0.6666659999999993
        },
        {
          "name": "A#4",
          "midi": 70,
          "time": 29.33330400000006,
          "velocity": 1,
          "duration": 0.33333299999999966
        },
        {
          "name": "G#4",
          "midi": 68,
          "time": 29.66663700000006,
          "velocity": 1,
          "duration": 0.6666659999999993
        },
        {
          "name": "A#3",
          "midi": 58,
          "time": 29.66663700000006,
          "velocity": 1,
          "duration": 0.6666659999999993
        },
        {
          "name": "F4",
          "midi": 65,
          "time": 29.66663700000006,
          "velocity": 1,
          "duration": 0.6666659999999993
        },
        {
          "name": "A#4",
          "midi": 70,
          "time": 29.66663700000006,
          "velocity": 1,
          "duration": 0.6666659999999993
        },
        {
          "name": "A#5",
          "midi": 82,
          "time": 29.66663700000006,
          "velocity": 1,
          "duration": 0.6666659999999993
        },
        {
          "name": "G#3",
          "midi": 56,
          "time": 29.66663700000006,
          "velocity": 1,
          "duration": 0.6666659999999993
        },
        {
          "name": "G3",
          "midi": 55,
          "time": 30.333303000000058,
          "velocity": 1,
          "duration": 0.6666659999999993
        },
        {
          "name": "D#5",
          "midi": 75,
          "time": 30.333303000000058,
          "velocity": 1,
          "duration": 0.33333299999999966
        },
        {
          "name": "D#4",
          "midi": 63,
          "time": 30.333303000000058,
          "velocity": 1,
          "duration": 0.6666659999999993
        },
        {
          "name": "A#3",
          "midi": 58,
          "time": 30.333303000000058,
          "velocity": 1,
          "duration": 0.6666659999999993
        },
        {
          "name": "G4",
          "midi": 67,
          "time": 30.333303000000058,
          "velocity": 1,
          "duration": 0.6666659999999993
        },
        {
          "name": "A#4",
          "midi": 70,
          "time": 30.666636000000057,
          "velocity": 1,
          "duration": 0.33333299999999966
        },
        {
          "name": "G3",
          "midi": 55,
          "time": 30.999969000000057,
          "velocity": 1,
          "duration": 0.6666659999999993
        },
        {
          "name": "G5",
          "midi": 79,
          "time": 30.999969000000057,
          "velocity": 1,
          "duration": 0.33333299999999966
        },
        {
          "name": "D#4",
          "midi": 63,
          "time": 30.999969000000057,
          "velocity": 1,
          "duration": 0.6666659999999993
        },
        {
          "name": "A#3",
          "midi": 58,
          "time": 30.999969000000057,
          "velocity": 1,
          "duration": 0.6666659999999993
        },
        {
          "name": "G4",
          "midi": 67,
          "time": 30.999969000000057,
          "velocity": 1,
          "duration": 0.6666659999999993
        },
        {
          "name": "A#4",
          "midi": 70,
          "time": 31.333302000000057,
          "velocity": 1,
          "duration": 0.33333299999999966
        },
        {
          "name": "G4",
          "midi": 67,
          "time": 31.666635000000056,
          "velocity": 1,
          "duration": 0.6666659999999993
        },
        {
          "name": "A#3",
          "midi": 58,
          "time": 31.666635000000056,
          "velocity": 1,
          "duration": 0.6666659999999993
        },
        {
          "name": "D#4",
          "midi": 63,
          "time": 31.666635000000056,
          "velocity": 1,
          "duration": 0.6666659999999993
        },
        {
          "name": "A#4",
          "midi": 70,
          "time": 31.666635000000056,
          "velocity": 1,
          "duration": 0.6666659999999993
        },
        {
          "name": "A#5",
          "midi": 82,
          "time": 31.666635000000056,
          "velocity": 1,
          "duration": 0.6666659999999993
        },
        {
          "name": "G3",
          "midi": 55,
          "time": 31.666635000000056,
          "velocity": 1,
          "duration": 0.6666659999999993
        },
        {
          "name": "G#3",
          "midi": 56,
          "time": 32.333301000000056,
          "velocity": 1,
          "duration": 0.3333330000000032
        },
        {
          "name": "A#4",
          "midi": 70,
          "time": 32.333301000000056,
          "velocity": 1,
          "duration": 0.3333330000000032
        },
        {
          "name": "D4",
          "midi": 62,
          "time": 32.333301000000056,
          "velocity": 1,
          "duration": 0.3333330000000032
        },
        {
          "name": "A#3",
          "midi": 58,
          "time": 32.333301000000056,
          "velocity": 1,
          "duration": 0.3333330000000032
        },
        {
          "name": "G#4",
          "midi": 68,
          "time": 32.333301000000056,
          "velocity": 1,
          "duration": 0.3333330000000032
        },
        {
          "name": "G#4",
          "midi": 68,
          "time": 32.66663400000006,
          "velocity": 1,
          "duration": 0.6666659999999993
        },
        {
          "name": "A#3",
          "midi": 58,
          "time": 32.66663400000006,
          "velocity": 1,
          "duration": 0.6666659999999993
        },
        {
          "name": "D4",
          "midi": 62,
          "time": 32.66663400000006,
          "velocity": 1,
          "duration": 0.6666659999999993
        },
        {
          "name": "A#4",
          "midi": 70,
          "time": 32.66663400000006,
          "velocity": 1,
          "duration": 0.6666659999999993
        },
        {
          "name": "A#5",
          "midi": 82,
          "time": 32.66663400000006,
          "velocity": 1,
          "duration": 0.6666659999999993
        },
        {
          "name": "G#3",
          "midi": 56,
          "time": 32.66663400000006,
          "velocity": 1,
          "duration": 0.6666659999999993
        },
        {
          "name": "G4",
          "midi": 67,
          "time": 33.33330000000006,
          "velocity": 1,
          "duration": 0.3333330000000032
        },
        {
          "name": "A#3",
          "midi": 58,
          "time": 33.33330000000006,
          "velocity": 1,
          "duration": 0.3333330000000032
        },
        {
          "name": "D#4",
          "midi": 63,
          "time": 33.33330000000006,
          "velocity": 1,
          "duration": 0.3333330000000032
        },
        {
          "name": "A#4",
          "midi": 70,
          "time": 33.33330000000006,
          "velocity": 1,
          "duration": 0.3333330000000032
        },
        {
          "name": "G3",
          "midi": 55,
          "time": 33.33330000000006,
          "velocity": 1,
          "duration": 0.3333330000000032
        },
        {
          "name": "G4",
          "midi": 67,
          "time": 33.66663300000006,
          "velocity": 1,
          "duration": 0.3333330000000032
        },
        {
          "name": "A#3",
          "midi": 58,
          "time": 33.66663300000006,
          "velocity": 1,
          "duration": 0.3333330000000032
        },
        {
          "name": "D#4",
          "midi": 63,
          "time": 33.66663300000006,
          "velocity": 1,
          "duration": 0.3333330000000032
        },
        {
          "name": "A#4",
          "midi": 70,
          "time": 33.66663300000006,
          "velocity": 1,
          "duration": 0.6666660000000135
        },
        {
          "name": "A#5",
          "midi": 82,
          "time": 33.66663300000006,
          "velocity": 1,
          "duration": 0.6666660000000135
        },
        {
          "name": "G3",
          "midi": 55,
          "time": 33.66663300000006,
          "velocity": 1,
          "duration": 0.3333330000000032
        },
        {
          "name": "F3",
          "midi": 53,
          "time": 33.999966000000065,
          "velocity": 1,
          "duration": 0.16666650000000516
        },
        {
          "name": "G#4",
          "midi": 68,
          "time": 33.999966000000065,
          "velocity": 1,
          "duration": 0.08333325000000258
        },
        {
          "name": "A#3",
          "midi": 58,
          "time": 33.999966000000065,
          "velocity": 1,
          "duration": 0.08333325000000258
        },
        {
          "name": "D4",
          "midi": 62,
          "time": 33.999966000000065,
          "velocity": 1,
          "duration": 0.08333325000000258
        },
        {
          "name": "F4",
          "midi": 65,
          "time": 34.08329925000007,
          "velocity": 1,
          "duration": 0.08333325000000258
        },
        {
          "name": "G#5",
          "midi": 80,
          "time": 34.08329925000007,
          "velocity": 1,
          "duration": 0.08333325000000258
        },
        {
          "name": "F3",
          "midi": 53,
          "time": 34.16663250000007,
          "velocity": 1,
          "duration": 0.16666650000000516
        },
        {
          "name": "G#5",
          "midi": 80,
          "time": 34.16663250000007,
          "velocity": 1,
          "duration": 0.08333325000000258
        },
        {
          "name": "F4",
          "midi": 65,
          "time": 34.16663250000007,
          "velocity": 1,
          "duration": 0.08333325000000258
        },
        {
          "name": "G#5",
          "midi": 80,
          "time": 34.24996575000007,
          "velocity": 1,
          "duration": 0.08333325000000258
        },
        {
          "name": "F4",
          "midi": 65,
          "time": 34.24996575000007,
          "velocity": 1,
          "duration": 0.08333325000000258
        },
        {
          "name": "F4",
          "midi": 65,
          "time": 34.333299000000075,
          "velocity": 1,
          "duration": 0.08333325000000258
        },
        {
          "name": "G#5",
          "midi": 80,
          "time": 34.333299000000075,
          "velocity": 1,
          "duration": 0.08333325000000258
        },
        {
          "name": "A#4",
          "midi": 70,
          "time": 34.333299000000075,
          "velocity": 1,
          "duration": 0.08333325000000258
        },
        {
          "name": "F3",
          "midi": 53,
          "time": 34.333299000000075,
          "velocity": 1,
          "duration": 0.16666650000000516
        },
        {
          "name": "A#4",
          "midi": 70,
          "time": 34.41663225000008,
          "velocity": 1,
          "duration": 0.08333325000000258
        },
        {
          "name": "G#5",
          "midi": 80,
          "time": 34.41663225000008,
          "velocity": 1,
          "duration": 0.08333325000000258
        },
        {
          "name": "F4",
          "midi": 65,
          "time": 34.41663225000008,
          "velocity": 1,
          "duration": 0.08333325000000258
        },
        {
          "name": "D#4",
          "midi": 63,
          "time": 34.49996550000008,
          "velocity": 1,
          "duration": 0.08333325000000258
        },
        {
          "name": "G5",
          "midi": 79,
          "time": 34.49996550000008,
          "velocity": 1,
          "duration": 0.08333325000000258
        },
        {
          "name": "C5",
          "midi": 72,
          "time": 34.49996550000008,
          "velocity": 1,
          "duration": 0.08333325000000258
        },
        {
          "name": "F3",
          "midi": 53,
          "time": 34.49996550000008,
          "velocity": 1,
          "duration": 0.16666650000000516
        },
        {
          "name": "C5",
          "midi": 72,
          "time": 34.58329875000008,
          "velocity": 1,
          "duration": 0.08333325000000258
        },
        {
          "name": "G5",
          "midi": 79,
          "time": 34.58329875000008,
          "velocity": 1,
          "duration": 0.08333325000000258
        },
        {
          "name": "D#4",
          "midi": 63,
          "time": 34.58329875000008,
          "velocity": 1,
          "duration": 0.08333325000000258
        },
        {
          "name": "F3",
          "midi": 53,
          "time": 34.666632000000085,
          "velocity": 1,
          "duration": 0.16666650000000516
        },
        {
          "name": "D5",
          "midi": 74,
          "time": 34.666632000000085,
          "velocity": 1,
          "duration": 0.08333325000000258
        },
        {
          "name": "F5",
          "midi": 77,
          "time": 34.666632000000085,
          "velocity": 1,
          "duration": 0.08333325000000258
        },
        {
          "name": "D4",
          "midi": 62,
          "time": 34.666632000000085,
          "velocity": 1,
          "duration": 0.08333325000000258
        },
        {
          "name": "D5",
          "midi": 74,
          "time": 34.74996525000009,
          "velocity": 1,
          "duration": 0.08333325000000258
        },
        {
          "name": "F5",
          "midi": 77,
          "time": 34.74996525000009,
          "velocity": 1,
          "duration": 0.08333325000000258
        },
        {
          "name": "D4",
          "midi": 62,
          "time": 34.74996525000009,
          "velocity": 1,
          "duration": 0.08333325000000258
        },
        {
          "name": "C4",
          "midi": 60,
          "time": 34.83329850000009,
          "velocity": 1,
          "duration": 0.08333325000000258
        },
        {
          "name": "D#5",
          "midi": 75,
          "time": 34.83329850000009,
          "velocity": 1,
          "duration": 0.08333325000000258
        },
        {
          "name": "F3",
          "midi": 53,
          "time": 34.83329850000009,
          "velocity": 1,
          "duration": 0.16666650000000516
        },
        {
          "name": "D#5",
          "midi": 75,
          "time": 34.91663175000009,
          "velocity": 1,
          "duration": 0.08333325000000258
        },
        {
          "name": "C4",
          "midi": 60,
          "time": 34.91663175000009,
          "velocity": 1,
          "duration": 0.08333325000000258
        },
        {
          "name": "A#2",
          "midi": 46,
          "time": 34.999965000000095,
          "velocity": 1,
          "duration": 0.16666650000000516
        },
        {
          "name": "F5",
          "midi": 77,
          "time": 34.999965000000095,
          "velocity": 1,
          "duration": 0.08333325000000258
        },
        {
          "name": "D5",
          "midi": 74,
          "time": 34.999965000000095,
          "velocity": 1,
          "duration": 0.08333325000000258
        },
        {
          "name": "A#3",
          "midi": 58,
          "time": 34.999965000000095,
          "velocity": 1,
          "duration": 0.08333325000000258
        },
        {
          "name": "F5",
          "midi": 77,
          "time": 35.0832982500001,
          "velocity": 1,
          "duration": 0.08333325000000258
        },
        {
          "name": "D5",
          "midi": 74,
          "time": 35.0832982500001,
          "velocity": 1,
          "duration": 0.08333325000000258
        },
        {
          "name": "A#3",
          "midi": 58,
          "time": 35.0832982500001,
          "velocity": 1,
          "duration": 0.08333325000000258
        },
        {
          "name": "G#3",
          "midi": 56,
          "time": 35.1666315000001,
          "velocity": 1,
          "duration": 0.08333325000000258
        },
        {
          "name": "C5",
          "midi": 72,
          "time": 35.1666315000001,
          "velocity": 1,
          "duration": 0.08333325000000258
        },
        {
          "name": "G5",
          "midi": 79,
          "time": 35.1666315000001,
          "velocity": 1,
          "duration": 0.08333325000000258
        },
        {
          "name": "A#3",
          "midi": 58,
          "time": 35.1666315000001,
          "velocity": 1,
          "duration": 0.16666650000000516
        },
        {
          "name": "G5",
          "midi": 79,
          "time": 35.2499647500001,
          "velocity": 1,
          "duration": 0.08333325000000258
        },
        {
          "name": "C5",
          "midi": 72,
          "time": 35.2499647500001,
          "velocity": 1,
          "duration": 0.08333325000000258
        },
        {
          "name": "G#3",
          "midi": 56,
          "time": 35.2499647500001,
          "velocity": 1,
          "duration": 0.08333325000000258
        },
        {
          "name": "A#3",
          "midi": 58,
          "time": 35.333298000000106,
          "velocity": 1,
          "duration": 0.16666650000000516
        },
        {
          "name": "G#5",
          "midi": 80,
          "time": 35.333298000000106,
          "velocity": 1,
          "duration": 0.08333325000000258
        },
        {
          "name": "A#4",
          "midi": 70,
          "time": 35.333298000000106,
          "velocity": 1,
          "duration": 0.08333325000000258
        },
        {
          "name": "G3",
          "midi": 55,
          "time": 35.333298000000106,
          "velocity": 1,
          "duration": 0.08333325000000258
        },
        {
          "name": "G#5",
          "midi": 80,
          "time": 35.41663125000011,
          "velocity": 1,
          "duration": 0.08333325000000258
        },
        {
          "name": "A#4",
          "midi": 70,
          "time": 35.41663125000011,
          "velocity": 1,
          "duration": 0.08333325000000258
        },
        {
          "name": "G3",
          "midi": 55,
          "time": 35.41663125000011,
          "velocity": 1,
          "duration": 0.08333325000000258
        },
        {
          "name": "F3",
          "midi": 53,
          "time": 35.49996450000011,
          "velocity": 1,
          "duration": 0.08333325000000258
        },
        {
          "name": "G#4",
          "midi": 68,
          "time": 35.49996450000011,
          "velocity": 1,
          "duration": 0.08333325000000258
        },
        {
          "name": "A#5",
          "midi": 82,
          "time": 35.49996450000011,
          "velocity": 1,
          "duration": 0.08333325000000258
        },
        {
          "name": "A#3",
          "midi": 58,
          "time": 35.49996450000011,
          "velocity": 1,
          "duration": 0.16666650000000516
        },
        {
          "name": "A#5",
          "midi": 82,
          "time": 35.58329775000011,
          "velocity": 1,
          "duration": 0.08333325000000258
        },
        {
          "name": "G#4",
          "midi": 68,
          "time": 35.58329775000011,
          "velocity": 1,
          "duration": 0.08333325000000258
        },
        {
          "name": "F3",
          "midi": 53,
          "time": 35.58329775000011,
          "velocity": 1,
          "duration": 0.08333325000000258
        },
        {
          "name": "A#3",
          "midi": 58,
          "time": 35.666631000000116,
          "velocity": 1,
          "duration": 0.16666650000000516
        },
        {
          "name": "C6",
          "midi": 84,
          "time": 35.666631000000116,
          "velocity": 1,
          "duration": 0.08333325000000258
        },
        {
          "name": "G4",
          "midi": 67,
          "time": 35.666631000000116,
          "velocity": 1,
          "duration": 0.08333325000000258
        },
        {
          "name": "D#3",
          "midi": 51,
          "time": 35.666631000000116,
          "velocity": 1,
          "duration": 0.08333325000000258
        },
        {
          "name": "C6",
          "midi": 84,
          "time": 35.74996425000012,
          "velocity": 1,
          "duration": 0.08333325000000258
        },
        {
          "name": "G4",
          "midi": 67,
          "time": 35.74996425000012,
          "velocity": 1,
          "duration": 0.08333325000000258
        },
        {
          "name": "D#3",
          "midi": 51,
          "time": 35.74996425000012,
          "velocity": 1,
          "duration": 0.08333325000000258
        },
        {
          "name": "G#3",
          "midi": 56,
          "time": 35.83329750000012,
          "velocity": 1,
          "duration": 0.08333325000000258
        },
        {
          "name": "F4",
          "midi": 65,
          "time": 35.83329750000012,
          "velocity": 1,
          "duration": 0.08333325000000258
        },
        {
          "name": "D6",
          "midi": 86,
          "time": 35.83329750000012,
          "velocity": 1,
          "duration": 0.08333325000000258
        },
        {
          "name": "A#3",
          "midi": 58,
          "time": 35.83329750000012,
          "velocity": 1,
          "duration": 0.16666650000000516
        },
        {
          "name": "D6",
          "midi": 86,
          "time": 35.916630750000124,
          "velocity": 1,
          "duration": 0.08333325000000258
        },
        {
          "name": "F4",
          "midi": 65,
          "time": 35.916630750000124,
          "velocity": 1,
          "duration": 0.08333325000000258
        },
        {
          "name": "G#3",
          "midi": 56,
          "time": 35.916630750000124,
          "velocity": 1,
          "duration": 0.08333325000000258
        },
        {
          "name": "G3",
          "midi": 55,
          "time": 35.999964000000126,
          "velocity": 1,
          "duration": 0.3333330000000103
        },
        {
          "name": "D#4",
          "midi": 63,
          "time": 35.999964000000126,
          "velocity": 1,
          "duration": 0.08333325000000258
        },
        {
          "name": "D#6",
          "midi": 87,
          "time": 35.999964000000126,
          "velocity": 1,
          "duration": 0.08333325000000258
        },
        {
          "name": "D#3",
          "midi": 51,
          "time": 35.999964000000126,
          "velocity": 1,
          "duration": 0.6666660000000206
        },
        {
          "name": "D#6",
          "midi": 87,
          "time": 36.08329725000013,
          "velocity": 1,
          "duration": 0.08333325000000258
        },
        {
          "name": "G5",
          "midi": 79,
          "time": 36.08329725000013,
          "velocity": 1,
          "duration": 0.08333325000000258
        },
        {
          "name": "A#4",
          "midi": 70,
          "time": 36.08329725000013,
          "velocity": 1,
          "duration": 0.08333325000000258
        },
        {
          "name": "D#6",
          "midi": 87,
          "time": 36.16663050000013,
          "velocity": 1,
          "duration": 0.08333325000000258
        },
        {
          "name": "G5",
          "midi": 79,
          "time": 36.16663050000013,
          "velocity": 1,
          "duration": 0.08333325000000258
        },
        {
          "name": "A#4",
          "midi": 70,
          "time": 36.16663050000013,
          "velocity": 1,
          "duration": 0.08333325000000258
        },
        {
          "name": "A#4",
          "midi": 70,
          "time": 36.249963750000134,
          "velocity": 1,
          "duration": 0.08333325000000258
        },
        {
          "name": "G5",
          "midi": 79,
          "time": 36.249963750000134,
          "velocity": 1,
          "duration": 0.08333325000000258
        },
        {
          "name": "D#6",
          "midi": 87,
          "time": 36.249963750000134,
          "velocity": 1,
          "duration": 0.08333325000000258
        },
        {
          "name": "D#6",
          "midi": 87,
          "time": 36.33329700000014,
          "velocity": 1,
          "duration": 0.08333325000000258
        },
        {
          "name": "G5",
          "midi": 79,
          "time": 36.33329700000014,
          "velocity": 1,
          "duration": 0.08333325000000258
        },
        {
          "name": "A#4",
          "midi": 70,
          "time": 36.33329700000014,
          "velocity": 1,
          "duration": 0.08333325000000258
        },
        {
          "name": "D#4",
          "midi": 63,
          "time": 36.33329700000014,
          "velocity": 1,
          "duration": 0.3333330000000103
        },
        {
          "name": "D#6",
          "midi": 87,
          "time": 36.41663025000014,
          "velocity": 1,
          "duration": 0.08333325000000258
        },
        {
          "name": "G5",
          "midi": 79,
          "time": 36.41663025000014,
          "velocity": 1,
          "duration": 0.08333325000000258
        },
        {
          "name": "A#4",
          "midi": 70,
          "time": 36.41663025000014,
          "velocity": 1,
          "duration": 0.08333325000000258
        },
        {
          "name": "A#4",
          "midi": 70,
          "time": 36.49996350000014,
          "velocity": 1,
          "duration": 0.08333325000000258
        },
        {
          "name": "G5",
          "midi": 79,
          "time": 36.49996350000014,
          "velocity": 1,
          "duration": 0.08333325000000258
        },
        {
          "name": "D#6",
          "midi": 87,
          "time": 36.49996350000014,
          "velocity": 1,
          "duration": 0.08333325000000258
        },
        {
          "name": "D#6",
          "midi": 87,
          "time": 36.583296750000144,
          "velocity": 1,
          "duration": 0.08333325000000258
        },
        {
          "name": "G5",
          "midi": 79,
          "time": 36.583296750000144,
          "velocity": 1,
          "duration": 0.08333325000000258
        },
        {
          "name": "A#4",
          "midi": 70,
          "time": 36.583296750000144,
          "velocity": 1,
          "duration": 0.08333325000000258
        },
        {
          "name": "G4",
          "midi": 67,
          "time": 36.66663000000015,
          "velocity": 1,
          "duration": 0.3333330000000103
        },
        {
          "name": "A#4",
          "midi": 70,
          "time": 36.66663000000015,
          "velocity": 1,
          "duration": 0.08333325000000258
        },
        {
          "name": "G5",
          "midi": 79,
          "time": 36.66663000000015,
          "velocity": 1,
          "duration": 0.08333325000000258
        },
        {
          "name": "D#6",
          "midi": 87,
          "time": 36.66663000000015,
          "velocity": 1,
          "duration": 0.08333325000000258
        },
        {
          "name": "G3",
          "midi": 55,
          "time": 36.66663000000015,
          "velocity": 1,
          "duration": 0.3333330000000103
        },
        {
          "name": "D#6",
          "midi": 87,
          "time": 36.74996325000015,
          "velocity": 1,
          "duration": 0.08333325000000258
        },
        {
          "name": "G5",
          "midi": 79,
          "time": 36.74996325000015,
          "velocity": 1,
          "duration": 0.08333325000000258
        },
        {
          "name": "A#4",
          "midi": 70,
          "time": 36.74996325000015,
          "velocity": 1,
          "duration": 0.08333325000000258
        },
        {
          "name": "D#6",
          "midi": 87,
          "time": 36.83329650000015,
          "velocity": 1,
          "duration": 0.08333325000000258
        },
        {
          "name": "G5",
          "midi": 79,
          "time": 36.83329650000015,
          "velocity": 1,
          "duration": 0.08333325000000258
        },
        {
          "name": "A#4",
          "midi": 70,
          "time": 36.83329650000015,
          "velocity": 1,
          "duration": 0.08333325000000258
        },
        {
          "name": "D#6",
          "midi": 87,
          "time": 36.916629750000155,
          "velocity": 1,
          "duration": 0.08333325000000258
        },
        {
          "name": "G5",
          "midi": 79,
          "time": 36.916629750000155,
          "velocity": 1,
          "duration": 0.08333325000000258
        },
        {
          "name": "A#4",
          "midi": 70,
          "time": 36.916629750000155,
          "velocity": 1,
          "duration": 0.08333325000000258
        },
        {
          "name": "D#4",
          "midi": 63,
          "time": 36.99996300000016,
          "velocity": 1,
          "duration": 0.6666660000000206
        },
        {
          "name": "A#4",
          "midi": 70,
          "time": 36.99996300000016,
          "velocity": 1,
          "duration": 0.08333325000000258
        },
        {
          "name": "G5",
          "midi": 79,
          "time": 36.99996300000016,
          "velocity": 1,
          "duration": 0.08333325000000258
        },
        {
          "name": "D#6",
          "midi": 87,
          "time": 36.99996300000016,
          "velocity": 1,
          "duration": 0.08333325000000258
        },
        {
          "name": "D#3",
          "midi": 51,
          "time": 36.99996300000016,
          "velocity": 1,
          "duration": 0.6666660000000206
        },
        {
          "name": "D#6",
          "midi": 87,
          "time": 37.08329625000016,
          "velocity": 1,
          "duration": 0.08333325000000258
        },
        {
          "name": "G5",
          "midi": 79,
          "time": 37.08329625000016,
          "velocity": 1,
          "duration": 0.08333325000000258
        },
        {
          "name": "A#4",
          "midi": 70,
          "time": 37.08329625000016,
          "velocity": 1,
          "duration": 0.08333325000000258
        },
        {
          "name": "D#6",
          "midi": 87,
          "time": 37.16662950000016,
          "velocity": 1,
          "duration": 0.08333325000000258
        },
        {
          "name": "G5",
          "midi": 79,
          "time": 37.16662950000016,
          "velocity": 1,
          "duration": 0.08333325000000258
        },
        {
          "name": "A#4",
          "midi": 70,
          "time": 37.16662950000016,
          "velocity": 1,
          "duration": 0.08333325000000258
        },
        {
          "name": "D#6",
          "midi": 87,
          "time": 37.249962750000165,
          "velocity": 1,
          "duration": 0.08333325000000258
        },
        {
          "name": "G5",
          "midi": 79,
          "time": 37.249962750000165,
          "velocity": 1,
          "duration": 0.08333325000000258
        },
        {
          "name": "A#4",
          "midi": 70,
          "time": 37.249962750000165,
          "velocity": 1,
          "duration": 0.08333325000000258
        },
        {
          "name": "D#6",
          "midi": 87,
          "time": 37.33329600000017,
          "velocity": 1,
          "duration": 0.08333325000000258
        },
        {
          "name": "G5",
          "midi": 79,
          "time": 37.33329600000017,
          "velocity": 1,
          "duration": 0.08333325000000258
        },
        {
          "name": "A#4",
          "midi": 70,
          "time": 37.33329600000017,
          "velocity": 1,
          "duration": 0.08333325000000258
        },
        {
          "name": "A#4",
          "midi": 70,
          "time": 37.41662925000017,
          "velocity": 1,
          "duration": 0.08333325000000258
        },
        {
          "name": "G5",
          "midi": 79,
          "time": 37.41662925000017,
          "velocity": 1,
          "duration": 0.08333325000000258
        },
        {
          "name": "D#6",
          "midi": 87,
          "time": 37.41662925000017,
          "velocity": 1,
          "duration": 0.08333325000000258
        },
        {
          "name": "D#6",
          "midi": 87,
          "time": 37.49996250000017,
          "velocity": 1,
          "duration": 0.08333325000000258
        },
        {
          "name": "G5",
          "midi": 79,
          "time": 37.49996250000017,
          "velocity": 1,
          "duration": 0.08333325000000258
        },
        {
          "name": "A#4",
          "midi": 70,
          "time": 37.49996250000017,
          "velocity": 1,
          "duration": 0.08333325000000258
        },
        {
          "name": "D#6",
          "midi": 87,
          "time": 37.583295750000175,
          "velocity": 1,
          "duration": 0.08333325000000258
        },
        {
          "name": "G5",
          "midi": 79,
          "time": 37.583295750000175,
          "velocity": 1,
          "duration": 0.08333325000000258
        },
        {
          "name": "A#4",
          "midi": 70,
          "time": 37.583295750000175,
          "velocity": 1,
          "duration": 0.08333325000000258
        },
        {
          "name": "A#2",
          "midi": 46,
          "time": 37.66662900000018,
          "velocity": 1,
          "duration": 0.3333330000000103
        },
        {
          "name": "D#6",
          "midi": 87,
          "time": 37.66662900000018,
          "velocity": 1,
          "duration": 0.08333325000000258
        },
        {
          "name": "G5",
          "midi": 79,
          "time": 37.66662900000018,
          "velocity": 1,
          "duration": 0.08333325000000258
        },
        {
          "name": "A#4",
          "midi": 70,
          "time": 37.66662900000018,
          "velocity": 1,
          "duration": 0.08333325000000258
        },
        {
          "name": "A#3",
          "midi": 58,
          "time": 37.66662900000018,
          "velocity": 1,
          "duration": 0.3333330000000103
        },
        {
          "name": "A#4",
          "midi": 70,
          "time": 37.74996225000018,
          "velocity": 1,
          "duration": 0.08333325000000258
        },
        {
          "name": "G5",
          "midi": 79,
          "time": 37.74996225000018,
          "velocity": 1,
          "duration": 0.08333325000000258
        },
        {
          "name": "D#6",
          "midi": 87,
          "time": 37.74996225000018,
          "velocity": 1,
          "duration": 0.08333325000000258
        },
        {
          "name": "D#6",
          "midi": 87,
          "time": 37.83329550000018,
          "velocity": 1,
          "duration": 0.08333325000000258
        },
        {
          "name": "G5",
          "midi": 79,
          "time": 37.83329550000018,
          "velocity": 1,
          "duration": 0.08333325000000258
        },
        {
          "name": "A#4",
          "midi": 70,
          "time": 37.83329550000018,
          "velocity": 1,
          "duration": 0.08333325000000258
        },
        {
          "name": "D#6",
          "midi": 87,
          "time": 37.916628750000186,
          "velocity": 1,
          "duration": 0.08333325000000258
        },
        {
          "name": "G5",
          "midi": 79,
          "time": 37.916628750000186,
          "velocity": 1,
          "duration": 0.08333325000000258
        },
        {
          "name": "A#4",
          "midi": 70,
          "time": 37.916628750000186,
          "velocity": 1,
          "duration": 0.08333325000000258
        },
        {
          "name": "D#3",
          "midi": 51,
          "time": 37.99996200000019,
          "velocity": 1,
          "duration": 0.3333330000000103
        },
        {
          "name": "D#6",
          "midi": 87,
          "time": 37.99996200000019,
          "velocity": 1,
          "duration": 0.08333325000000258
        },
        {
          "name": "G5",
          "midi": 79,
          "time": 37.99996200000019,
          "velocity": 1,
          "duration": 0.08333325000000258
        },
        {
          "name": "A#4",
          "midi": 70,
          "time": 37.99996200000019,
          "velocity": 1,
          "duration": 0.08333325000000258
        },
        {
          "name": "D#4",
          "midi": 63,
          "time": 37.99996200000019,
          "velocity": 1,
          "duration": 0.3333330000000103
        },
        {
          "name": "A#4",
          "midi": 70,
          "time": 38.08329525000019,
          "velocity": 1,
          "duration": 0.08333325000000258
        },
        {
          "name": "G5",
          "midi": 79,
          "time": 38.08329525000019,
          "velocity": 1,
          "duration": 0.08333325000000258
        },
        {
          "name": "D#6",
          "midi": 87,
          "time": 38.08329525000019,
          "velocity": 1,
          "duration": 0.08333325000000258
        },
        {
          "name": "D#6",
          "midi": 87,
          "time": 38.16662850000019,
          "velocity": 1,
          "duration": 0.08333325000000258
        },
        {
          "name": "G5",
          "midi": 79,
          "time": 38.16662850000019,
          "velocity": 1,
          "duration": 0.08333325000000258
        },
        {
          "name": "A#4",
          "midi": 70,
          "time": 38.16662850000019,
          "velocity": 1,
          "duration": 0.08333325000000258
        },
        {
          "name": "D#6",
          "midi": 87,
          "time": 38.249961750000196,
          "velocity": 1,
          "duration": 0.08333325000000258
        },
        {
          "name": "G5",
          "midi": 79,
          "time": 38.249961750000196,
          "velocity": 1,
          "duration": 0.08333325000000258
        },
        {
          "name": "A#4",
          "midi": 70,
          "time": 38.249961750000196,
          "velocity": 1,
          "duration": 0.08333325000000258
        },
        {
          "name": "G4",
          "midi": 67,
          "time": 38.3332950000002,
          "velocity": 1,
          "duration": 0.3333330000000103
        },
        {
          "name": "A#4",
          "midi": 70,
          "time": 38.3332950000002,
          "velocity": 1,
          "duration": 0.08333325000000258
        },
        {
          "name": "G5",
          "midi": 79,
          "time": 38.3332950000002,
          "velocity": 1,
          "duration": 0.08333325000000258
        },
        {
          "name": "D#6",
          "midi": 87,
          "time": 38.3332950000002,
          "velocity": 1,
          "duration": 0.08333325000000258
        },
        {
          "name": "G3",
          "midi": 55,
          "time": 38.3332950000002,
          "velocity": 1,
          "duration": 0.3333330000000103
        },
        {
          "name": "D#6",
          "midi": 87,
          "time": 38.4166282500002,
          "velocity": 1,
          "duration": 0.08333325000000258
        },
        {
          "name": "G5",
          "midi": 79,
          "time": 38.4166282500002,
          "velocity": 1,
          "duration": 0.08333325000000258
        },
        {
          "name": "A#4",
          "midi": 70,
          "time": 38.4166282500002,
          "velocity": 1,
          "duration": 0.08333325000000258
        },
        {
          "name": "A#4",
          "midi": 70,
          "time": 38.499961500000204,
          "velocity": 1,
          "duration": 0.08333325000000258
        },
        {
          "name": "G5",
          "midi": 79,
          "time": 38.499961500000204,
          "velocity": 1,
          "duration": 0.08333325000000258
        },
        {
          "name": "D#6",
          "midi": 87,
          "time": 38.499961500000204,
          "velocity": 1,
          "duration": 0.08333325000000258
        },
        {
          "name": "D#6",
          "midi": 87,
          "time": 38.583294750000206,
          "velocity": 1,
          "duration": 0.08333325000000258
        },
        {
          "name": "G5",
          "midi": 79,
          "time": 38.583294750000206,
          "velocity": 1,
          "duration": 0.08333325000000258
        },
        {
          "name": "A#4",
          "midi": 70,
          "time": 38.583294750000206,
          "velocity": 1,
          "duration": 0.08333325000000258
        },
        {
          "name": "A#3",
          "midi": 58,
          "time": 38.66662800000021,
          "velocity": 1,
          "duration": 0.3333330000000103
        },
        {
          "name": "D#6",
          "midi": 87,
          "time": 38.66662800000021,
          "velocity": 1,
          "duration": 0.08333325000000258
        },
        {
          "name": "G5",
          "midi": 79,
          "time": 38.66662800000021,
          "velocity": 1,
          "duration": 0.08333325000000258
        },
        {
          "name": "A#4",
          "midi": 70,
          "time": 38.66662800000021,
          "velocity": 1,
          "duration": 0.3333330000000103
        },
        {
          "name": "D#6",
          "midi": 87,
          "time": 38.74996125000021,
          "velocity": 1,
          "duration": 0.08333325000000258
        },
        {
          "name": "G5",
          "midi": 79,
          "time": 38.74996125000021,
          "velocity": 1,
          "duration": 0.08333325000000258
        },
        {
          "name": "G5",
          "midi": 79,
          "time": 38.833294500000214,
          "velocity": 1,
          "duration": 0.08333325000000258
        },
        {
          "name": "D#6",
          "midi": 87,
          "time": 38.833294500000214,
          "velocity": 1,
          "duration": 0.08333325000000258
        },
        {
          "name": "D#6",
          "midi": 87,
          "time": 38.91662775000022,
          "velocity": 1,
          "duration": 0.08333325000000258
        },
        {
          "name": "G5",
          "midi": 79,
          "time": 38.91662775000022,
          "velocity": 1,
          "duration": 0.08333325000000258
        },
        {
          "name": "D#4",
          "midi": 63,
          "time": 38.99996100000022,
          "velocity": 1,
          "duration": 0.6666660000000206
        },
        {
          "name": "A#4",
          "midi": 70,
          "time": 38.99996100000022,
          "velocity": 1,
          "duration": 0.08333325000000258
        },
        {
          "name": "G5",
          "midi": 79,
          "time": 38.99996100000022,
          "velocity": 1,
          "duration": 0.08333325000000258
        },
        {
          "name": "D#6",
          "midi": 87,
          "time": 38.99996100000022,
          "velocity": 1,
          "duration": 0.08333325000000258
        },
        {
          "name": "D#3",
          "midi": 51,
          "time": 38.99996100000022,
          "velocity": 1,
          "duration": 0.6666660000000206
        },
        {
          "name": "D#6",
          "midi": 87,
          "time": 39.08329425000022,
          "velocity": 1,
          "duration": 0.08333325000000258
        },
        {
          "name": "G5",
          "midi": 79,
          "time": 39.08329425000022,
          "velocity": 1,
          "duration": 0.08333325000000258
        },
        {
          "name": "A#4",
          "midi": 70,
          "time": 39.08329425000022,
          "velocity": 1,
          "duration": 0.08333325000000258
        },
        {
          "name": "D#6",
          "midi": 87,
          "time": 39.166627500000224,
          "velocity": 1,
          "duration": 0.08333325000000258
        },
        {
          "name": "G5",
          "midi": 79,
          "time": 39.166627500000224,
          "velocity": 1,
          "duration": 0.08333325000000258
        },
        {
          "name": "A#4",
          "midi": 70,
          "time": 39.166627500000224,
          "velocity": 1,
          "duration": 0.08333325000000258
        },
        {
          "name": "A#4",
          "midi": 70,
          "time": 39.24996075000023,
          "velocity": 1,
          "duration": 0.08333325000000258
        },
        {
          "name": "G5",
          "midi": 79,
          "time": 39.24996075000023,
          "velocity": 1,
          "duration": 0.08333325000000258
        },
        {
          "name": "D#6",
          "midi": 87,
          "time": 39.24996075000023,
          "velocity": 1,
          "duration": 0.08333325000000258
        },
        {
          "name": "D#6",
          "midi": 87,
          "time": 39.33329400000023,
          "velocity": 1,
          "duration": 0.08333325000000258
        },
        {
          "name": "G5",
          "midi": 79,
          "time": 39.33329400000023,
          "velocity": 1,
          "duration": 0.08333325000000258
        },
        {
          "name": "A#4",
          "midi": 70,
          "time": 39.33329400000023,
          "velocity": 1,
          "duration": 0.08333325000000258
        },
        {
          "name": "D#6",
          "midi": 87,
          "time": 39.41662725000023,
          "velocity": 1,
          "duration": 0.08333325000000258
        },
        {
          "name": "G5",
          "midi": 79,
          "time": 39.41662725000023,
          "velocity": 1,
          "duration": 0.08333325000000258
        },
        {
          "name": "A#4",
          "midi": 70,
          "time": 39.41662725000023,
          "velocity": 1,
          "duration": 0.08333325000000258
        },
        {
          "name": "A#4",
          "midi": 70,
          "time": 39.499960500000235,
          "velocity": 1,
          "duration": 0.08333325000000258
        },
        {
          "name": "G5",
          "midi": 79,
          "time": 39.499960500000235,
          "velocity": 1,
          "duration": 0.08333325000000258
        },
        {
          "name": "D#6",
          "midi": 87,
          "time": 39.499960500000235,
          "velocity": 1,
          "duration": 0.08333325000000258
        },
        {
          "name": "D#6",
          "midi": 87,
          "time": 39.58329375000024,
          "velocity": 1,
          "duration": 0.08333325000000258
        },
        {
          "name": "G5",
          "midi": 79,
          "time": 39.58329375000024,
          "velocity": 1,
          "duration": 0.08333325000000258
        },
        {
          "name": "A#4",
          "midi": 70,
          "time": 39.58329375000024,
          "velocity": 1,
          "duration": 0.08333325000000258
        },
        {
          "name": "G3",
          "midi": 55,
          "time": 39.66662700000024,
          "velocity": 1,
          "duration": 0.3333330000000103
        },
        {
          "name": "B4",
          "midi": 71,
          "time": 39.66662700000024,
          "velocity": 1,
          "duration": 0.08333325000000258
        },
        {
          "name": "G5",
          "midi": 79,
          "time": 39.66662700000024,
          "velocity": 1,
          "duration": 0.08333325000000258
        },
        {
          "name": "D#6",
          "midi": 87,
          "time": 39.66662700000024,
          "velocity": 1,
          "duration": 0.08333325000000258
        },
        {
          "name": "G2",
          "midi": 43,
          "time": 39.66662700000024,
          "velocity": 1,
          "duration": 0.3333330000000103
        },
        {
          "name": "D#6",
          "midi": 87,
          "time": 39.74996025000024,
          "velocity": 1,
          "duration": 0.08333325000000258
        },
        {
          "name": "G5",
          "midi": 79,
          "time": 39.74996025000024,
          "velocity": 1,
          "duration": 0.08333325000000258
        },
        {
          "name": "B4",
          "midi": 71,
          "time": 39.74996025000024,
          "velocity": 1,
          "duration": 0.08333325000000258
        },
        {
          "name": "D#6",
          "midi": 87,
          "time": 39.833293500000245,
          "velocity": 1,
          "duration": 0.08333325000000258
        },
        {
          "name": "G5",
          "midi": 79,
          "time": 39.833293500000245,
          "velocity": 1,
          "duration": 0.08333325000000258
        },
        {
          "name": "B4",
          "midi": 71,
          "time": 39.833293500000245,
          "velocity": 1,
          "duration": 0.08333325000000258
        },
        {
          "name": "D#6",
          "midi": 87,
          "time": 39.91662675000025,
          "velocity": 1,
          "duration": 0.08333325000000258
        },
        {
          "name": "G5",
          "midi": 79,
          "time": 39.91662675000025,
          "velocity": 1,
          "duration": 0.08333325000000258
        },
        {
          "name": "B4",
          "midi": 71,
          "time": 39.91662675000025,
          "velocity": 1,
          "duration": 0.08333325000000258
        },
        {
          "name": "C4",
          "midi": 60,
          "time": 39.99996000000025,
          "velocity": 1,
          "duration": 0.3333330000000103
        },
        {
          "name": "C5",
          "midi": 72,
          "time": 39.99996000000025,
          "velocity": 1,
          "duration": 0.08333325000000258
        },
        {
          "name": "G5",
          "midi": 79,
          "time": 39.99996000000025,
          "velocity": 1,
          "duration": 0.08333325000000258
        },
        {
          "name": "D#6",
          "midi": 87,
          "time": 39.99996000000025,
          "velocity": 1,
          "duration": 0.08333325000000258
        },
        {
          "name": "C3",
          "midi": 48,
          "time": 39.99996000000025,
          "velocity": 1,
          "duration": 0.3333330000000103
        },
        {
          "name": "D#6",
          "midi": 87,
          "time": 40.08329325000025,
          "velocity": 1,
          "duration": 0.08333325000000258
        },
        {
          "name": "G5",
          "midi": 79,
          "time": 40.08329325000025,
          "velocity": 1,
          "duration": 0.08333325000000258
        },
        {
          "name": "C5",
          "midi": 72,
          "time": 40.08329325000025,
          "velocity": 1,
          "duration": 0.08333325000000258
        },
        {
          "name": "D#6",
          "midi": 87,
          "time": 40.166626500000255,
          "velocity": 1,
          "duration": 0.08333325000000258
        },
        {
          "name": "G5",
          "midi": 79,
          "time": 40.166626500000255,
          "velocity": 1,
          "duration": 0.08333325000000258
        },
        {
          "name": "C5",
          "midi": 72,
          "time": 40.166626500000255,
          "velocity": 1,
          "duration": 0.08333325000000258
        },
        {
          "name": "D#6",
          "midi": 87,
          "time": 40.24995975000026,
          "velocity": 1,
          "duration": 0.08333325000000258
        },
        {
          "name": "G5",
          "midi": 79,
          "time": 40.24995975000026,
          "velocity": 1,
          "duration": 0.08333325000000258
        },
        {
          "name": "C5",
          "midi": 72,
          "time": 40.24995975000026,
          "velocity": 1,
          "duration": 0.08333325000000258
        },
        {
          "name": "D#4",
          "midi": 63,
          "time": 40.33329300000026,
          "velocity": 1,
          "duration": 0.3333330000000103
        },
        {
          "name": "C5",
          "midi": 72,
          "time": 40.33329300000026,
          "velocity": 1,
          "duration": 0.08333325000000258
        },
        {
          "name": "G5",
          "midi": 79,
          "time": 40.33329300000026,
          "velocity": 1,
          "duration": 0.08333325000000258
        },
        {
          "name": "D#6",
          "midi": 87,
          "time": 40.33329300000026,
          "velocity": 1,
          "duration": 0.08333325000000258
        },
        {
          "name": "D#3",
          "midi": 51,
          "time": 40.33329300000026,
          "velocity": 1,
          "duration": 0.3333330000000103
        },
        {
          "name": "D#6",
          "midi": 87,
          "time": 40.41662625000026,
          "velocity": 1,
          "duration": 0.08333325000000258
        },
        {
          "name": "G5",
          "midi": 79,
          "time": 40.41662625000026,
          "velocity": 1,
          "duration": 0.08333325000000258
        },
        {
          "name": "C5",
          "midi": 72,
          "time": 40.41662625000026,
          "velocity": 1,
          "duration": 0.08333325000000258
        },
        {
          "name": "D#6",
          "midi": 87,
          "time": 40.499959500000266,
          "velocity": 1,
          "duration": 0.08333325000000258
        },
        {
          "name": "G5",
          "midi": 79,
          "time": 40.499959500000266,
          "velocity": 1,
          "duration": 0.08333325000000258
        },
        {
          "name": "C5",
          "midi": 72,
          "time": 40.499959500000266,
          "velocity": 1,
          "duration": 0.08333325000000258
        },
        {
          "name": "C5",
          "midi": 72,
          "time": 40.58329275000027,
          "velocity": 1,
          "duration": 0.08333325000000258
        },
        {
          "name": "G5",
          "midi": 79,
          "time": 40.58329275000027,
          "velocity": 1,
          "duration": 0.08333325000000258
        },
        {
          "name": "D#6",
          "midi": 87,
          "time": 40.58329275000027,
          "velocity": 1,
          "duration": 0.08333325000000258
        },
        {
          "name": "G3",
          "midi": 55,
          "time": 40.66662600000027,
          "velocity": 1,
          "duration": 0.3333330000000103
        },
        {
          "name": "D#6",
          "midi": 87,
          "time": 40.66662600000027,
          "velocity": 1,
          "duration": 0.08333325000000258
        },
        {
          "name": "G5",
          "midi": 79,
          "time": 40.66662600000027,
          "velocity": 1,
          "duration": 0.08333325000000258
        },
        {
          "name": "C5",
          "midi": 72,
          "time": 40.66662600000027,
          "velocity": 1,
          "duration": 0.08333325000000258
        },
        {
          "name": "G4",
          "midi": 67,
          "time": 40.66662600000027,
          "velocity": 1,
          "duration": 0.3333330000000103
        },
        {
          "name": "C5",
          "midi": 72,
          "time": 40.74995925000027,
          "velocity": 1,
          "duration": 0.08333325000000258
        },
        {
          "name": "G5",
          "midi": 79,
          "time": 40.74995925000027,
          "velocity": 1,
          "duration": 0.08333325000000258
        },
        {
          "name": "D#6",
          "midi": 87,
          "time": 40.74995925000027,
          "velocity": 1,
          "duration": 0.08333325000000258
        },
        {
          "name": "D#6",
          "midi": 87,
          "time": 40.833292500000276,
          "velocity": 1,
          "duration": 0.08333325000000258
        },
        {
          "name": "G5",
          "midi": 79,
          "time": 40.833292500000276,
          "velocity": 1,
          "duration": 0.08333325000000258
        },
        {
          "name": "C5",
          "midi": 72,
          "time": 40.833292500000276,
          "velocity": 1,
          "duration": 0.08333325000000258
        },
        {
          "name": "D#6",
          "midi": 87,
          "time": 40.91662575000028,
          "velocity": 1,
          "duration": 0.08333325000000258
        },
        {
          "name": "G5",
          "midi": 79,
          "time": 40.91662575000028,
          "velocity": 1,
          "duration": 0.08333325000000258
        },
        {
          "name": "C5",
          "midi": 72,
          "time": 40.91662575000028,
          "velocity": 1,
          "duration": 0.08333325000000258
        },
        {
          "name": "C3",
          "midi": 48,
          "time": 40.99995900000028,
          "velocity": 1,
          "duration": 0.6666660000000206
        },
        {
          "name": "D#6",
          "midi": 87,
          "time": 40.99995900000028,
          "velocity": 1,
          "duration": 0.08333325000000258
        },
        {
          "name": "G5",
          "midi": 79,
          "time": 40.99995900000028,
          "velocity": 1,
          "duration": 0.08333325000000258
        },
        {
          "name": "C5",
          "midi": 72,
          "time": 40.99995900000028,
          "velocity": 1,
          "duration": 0.08333325000000258
        },
        {
          "name": "C4",
          "midi": 60,
          "time": 40.99995900000028,
          "velocity": 1,
          "duration": 0.6666660000000206
        },
        {
          "name": "C5",
          "midi": 72,
          "time": 41.083292250000284,
          "velocity": 1,
          "duration": 0.08333325000000258
        },
        {
          "name": "G5",
          "midi": 79,
          "time": 41.083292250000284,
          "velocity": 1,
          "duration": 0.08333325000000258
        },
        {
          "name": "D#6",
          "midi": 87,
          "time": 41.083292250000284,
          "velocity": 1,
          "duration": 0.08333325000000258
        },
        {
          "name": "D#6",
          "midi": 87,
          "time": 41.166625500000286,
          "velocity": 1,
          "duration": 0.08333325000000258
        },
        {
          "name": "G5",
          "midi": 79,
          "time": 41.166625500000286,
          "velocity": 1,
          "duration": 0.08333325000000258
        },
        {
          "name": "C5",
          "midi": 72,
          "time": 41.166625500000286,
          "velocity": 1,
          "duration": 0.08333325000000258
        },
        {
          "name": "D#6",
          "midi": 87,
          "time": 41.24995875000029,
          "velocity": 1,
          "duration": 0.08333325000000258
        },
        {
          "name": "G5",
          "midi": 79,
          "time": 41.24995875000029,
          "velocity": 1,
          "duration": 0.08333325000000258
        },
        {
          "name": "C5",
          "midi": 72,
          "time": 41.24995875000029,
          "velocity": 1,
          "duration": 0.08333325000000258
        },
        {
          "name": "C5",
          "midi": 72,
          "time": 41.33329200000029,
          "velocity": 1,
          "duration": 0.08333325000000258
        },
        {
          "name": "G5",
          "midi": 79,
          "time": 41.33329200000029,
          "velocity": 1,
          "duration": 0.08333325000000258
        },
        {
          "name": "D#6",
          "midi": 87,
          "time": 41.33329200000029,
          "velocity": 1,
          "duration": 0.08333325000000258
        },
        {
          "name": "D#6",
          "midi": 87,
          "time": 41.416625250000294,
          "velocity": 1,
          "duration": 0.08333325000000258
        },
        {
          "name": "G5",
          "midi": 79,
          "time": 41.416625250000294,
          "velocity": 1,
          "duration": 0.08333325000000258
        },
        {
          "name": "C5",
          "midi": 72,
          "time": 41.416625250000294,
          "velocity": 1,
          "duration": 0.08333325000000258
        },
        {
          "name": "D#6",
          "midi": 87,
          "time": 41.4999585000003,
          "velocity": 1,
          "duration": 0.08333325000000258
        },
        {
          "name": "G5",
          "midi": 79,
          "time": 41.4999585000003,
          "velocity": 1,
          "duration": 0.08333325000000258
        },
        {
          "name": "C5",
          "midi": 72,
          "time": 41.4999585000003,
          "velocity": 1,
          "duration": 0.08333325000000258
        },
        {
          "name": "C5",
          "midi": 72,
          "time": 41.5832917500003,
          "velocity": 1,
          "duration": 0.08333325000000258
        },
        {
          "name": "G5",
          "midi": 79,
          "time": 41.5832917500003,
          "velocity": 1,
          "duration": 0.08333325000000258
        },
        {
          "name": "D#6",
          "midi": 87,
          "time": 41.5832917500003,
          "velocity": 1,
          "duration": 0.08333325000000258
        },
        {
          "name": "D#2",
          "midi": 39,
          "time": 41.6666250000003,
          "velocity": 1,
          "duration": 0.3333330000000103
        },
        {
          "name": "D#6",
          "midi": 87,
          "time": 41.6666250000003,
          "velocity": 1,
          "duration": 0.08333325000000258
        },
        {
          "name": "G5",
          "midi": 79,
          "time": 41.6666250000003,
          "velocity": 1,
          "duration": 0.08333325000000258
        },
        {
          "name": "A#4",
          "midi": 70,
          "time": 41.6666250000003,
          "velocity": 1,
          "duration": 0.08333325000000258
        },
        {
          "name": "C#4",
          "midi": 61,
          "time": 41.6666250000003,
          "velocity": 1,
          "duration": 0.08333325000000258
        },
        {
          "name": "D#6",
          "midi": 87,
          "time": 41.749958250000304,
          "velocity": 1,
          "duration": 0.08333325000000258
        },
        {
          "name": "G5",
          "midi": 79,
          "time": 41.749958250000304,
          "velocity": 1,
          "duration": 0.08333325000000258
        },
        {
          "name": "A#4",
          "midi": 70,
          "time": 41.749958250000304,
          "velocity": 1,
          "duration": 0.08333325000000258
        },
        {
          "name": "C#4",
          "midi": 61,
          "time": 41.749958250000304,
          "velocity": 1,
          "duration": 0.08333325000000258
        },
        {
          "name": "C#4",
          "midi": 61,
          "time": 41.83329150000031,
          "velocity": 1,
          "duration": 0.08333325000000258
        },
        {
          "name": "A#4",
          "midi": 70,
          "time": 41.83329150000031,
          "velocity": 1,
          "duration": 0.08333325000000258
        },
        {
          "name": "G5",
          "midi": 79,
          "time": 41.83329150000031,
          "velocity": 1,
          "duration": 0.08333325000000258
        },
        {
          "name": "D#6",
          "midi": 87,
          "time": 41.83329150000031,
          "velocity": 1,
          "duration": 0.08333325000000258
        },
        {
          "name": "D#6",
          "midi": 87,
          "time": 41.91662475000031,
          "velocity": 1,
          "duration": 0.08333325000000258
        },
        {
          "name": "G5",
          "midi": 79,
          "time": 41.91662475000031,
          "velocity": 1,
          "duration": 0.08333325000000258
        },
        {
          "name": "A#4",
          "midi": 70,
          "time": 41.91662475000031,
          "velocity": 1,
          "duration": 0.08333325000000258
        },
        {
          "name": "C#4",
          "midi": 61,
          "time": 41.91662475000031,
          "velocity": 1,
          "duration": 0.08333325000000258
        },
        {
          "name": "C4",
          "midi": 60,
          "time": 41.99995800000031,
          "velocity": 1,
          "duration": 0.08333325000000258
        },
        {
          "name": "C5",
          "midi": 72,
          "time": 41.99995800000031,
          "velocity": 1,
          "duration": 0.08333325000000258
        },
        {
          "name": "G#5",
          "midi": 80,
          "time": 41.99995800000031,
          "velocity": 1,
          "duration": 0.08333325000000258
        },
        {
          "name": "D#6",
          "midi": 87,
          "time": 41.99995800000031,
          "velocity": 1,
          "duration": 0.08333325000000258
        },
        {
          "name": "G#2",
          "midi": 44,
          "time": 41.99995800000031,
          "velocity": 1,
          "duration": 0.16666650000000516
        },
        {
          "name": "D#6",
          "midi": 87,
          "time": 42.083291250000315,
          "velocity": 1,
          "duration": 0.08333325000000258
        },
        {
          "name": "C5",
          "midi": 72,
          "time": 42.083291250000315,
          "velocity": 1,
          "duration": 0.08333325000000258
        },
        {
          "name": "C4",
          "midi": 60,
          "time": 42.083291250000315,
          "velocity": 1,
          "duration": 0.08333325000000258
        },
        {
          "name": "C4",
          "midi": 60,
          "time": 42.16662450000032,
          "velocity": 1,
          "duration": 0.08333325000000258
        },
        {
          "name": "C5",
          "midi": 72,
          "time": 42.16662450000032,
          "velocity": 1,
          "duration": 0.08333325000000258
        },
        {
          "name": "D#6",
          "midi": 87,
          "time": 42.16662450000032,
          "velocity": 1,
          "duration": 0.08333325000000258
        },
        {
          "name": "G#3",
          "midi": 56,
          "time": 42.16662450000032,
          "velocity": 1,
          "duration": 0.16666650000000516
        },
        {
          "name": "D#6",
          "midi": 87,
          "time": 42.24995775000032,
          "velocity": 1,
          "duration": 0.08333325000000258
        },
        {
          "name": "C5",
          "midi": 72,
          "time": 42.24995775000032,
          "velocity": 1,
          "duration": 0.08333325000000258
        },
        {
          "name": "C4",
          "midi": 60,
          "time": 42.24995775000032,
          "velocity": 1,
          "duration": 0.08333325000000258
        },
        {
          "name": "G#3",
          "midi": 56,
          "time": 42.33329100000032,
          "velocity": 1,
          "duration": 0.16666650000000516
        },
        {
          "name": "D#6",
          "midi": 87,
          "time": 42.33329100000032,
          "velocity": 1,
          "duration": 0.08333325000000258
        },
        {
          "name": "C5",
          "midi": 72,
          "time": 42.33329100000032,
          "velocity": 1,
          "duration": 0.08333325000000258
        },
        {
          "name": "C4",
          "midi": 60,
          "time": 42.33329100000032,
          "velocity": 1,
          "duration": 0.08333325000000258
        },
        {
          "name": "D#6",
          "midi": 87,
          "time": 42.416624250000325,
          "velocity": 1,
          "duration": 0.08333325000000258
        },
        {
          "name": "C5",
          "midi": 72,
          "time": 42.416624250000325,
          "velocity": 1,
          "duration": 0.08333325000000258
        },
        {
          "name": "C4",
          "midi": 60,
          "time": 42.416624250000325,
          "velocity": 1,
          "duration": 0.08333325000000258
        },
        {
          "name": "C4",
          "midi": 60,
          "time": 42.49995750000033,
          "velocity": 1,
          "duration": 0.08333325000000258
        },
        {
          "name": "C5",
          "midi": 72,
          "time": 42.49995750000033,
          "velocity": 1,
          "duration": 0.08333325000000258
        },
        {
          "name": "D#6",
          "midi": 87,
          "time": 42.49995750000033,
          "velocity": 1,
          "duration": 0.08333325000000258
        },
        {
          "name": "G#3",
          "midi": 56,
          "time": 42.49995750000033,
          "velocity": 1,
          "duration": 0.16666650000000516
        },
        {
          "name": "D#6",
          "midi": 87,
          "time": 42.58329075000033,
          "velocity": 1,
          "duration": 0.08333325000000258
        },
        {
          "name": "C5",
          "midi": 72,
          "time": 42.58329075000033,
          "velocity": 1,
          "duration": 0.08333325000000258
        },
        {
          "name": "C4",
          "midi": 60,
          "time": 42.58329075000033,
          "velocity": 1,
          "duration": 0.08333325000000258
        },
        {
          "name": "G#3",
          "midi": 56,
          "time": 42.66662400000033,
          "velocity": 1,
          "duration": 0.16666650000000516
        },
        {
          "name": "D#6",
          "midi": 87,
          "time": 42.66662400000033,
          "velocity": 1,
          "duration": 0.08333325000000258
        },
        {
          "name": "C5",
          "midi": 72,
          "time": 42.66662400000033,
          "velocity": 1,
          "duration": 0.08333325000000258
        },
        {
          "name": "C4",
          "midi": 60,
          "time": 42.66662400000033,
          "velocity": 1,
          "duration": 0.08333325000000258
        },
        {
          "name": "D#6",
          "midi": 87,
          "time": 42.749957250000335,
          "velocity": 1,
          "duration": 0.08333325000000258
        },
        {
          "name": "C5",
          "midi": 72,
          "time": 42.749957250000335,
          "velocity": 1,
          "duration": 0.08333325000000258
        },
        {
          "name": "C4",
          "midi": 60,
          "time": 42.749957250000335,
          "velocity": 1,
          "duration": 0.08333325000000258
        },
        {
          "name": "C4",
          "midi": 60,
          "time": 42.83329050000034,
          "velocity": 1,
          "duration": 0.08333325000000258
        },
        {
          "name": "C5",
          "midi": 72,
          "time": 42.83329050000034,
          "velocity": 1,
          "duration": 0.08333325000000258
        },
        {
          "name": "D#6",
          "midi": 87,
          "time": 42.83329050000034,
          "velocity": 1,
          "duration": 0.08333325000000258
        },
        {
          "name": "G#3",
          "midi": 56,
          "time": 42.83329050000034,
          "velocity": 1,
          "duration": 0.16666650000000516
        },
        {
          "name": "D#6",
          "midi": 87,
          "time": 42.91662375000034,
          "velocity": 1,
          "duration": 0.08333325000000258
        },
        {
          "name": "C5",
          "midi": 72,
          "time": 42.91662375000034,
          "velocity": 1,
          "duration": 0.08333325000000258
        },
        {
          "name": "C4",
          "midi": 60,
          "time": 42.91662375000034,
          "velocity": 1,
          "duration": 0.08333325000000258
        },
        {
          "name": "F#3",
          "midi": 54,
          "time": 42.99995700000034,
          "velocity": 1,
          "duration": 0.16666650000000516
        },
        {
          "name": "E6",
          "midi": 88,
          "time": 42.99995700000034,
          "velocity": 1,
          "duration": 0.08333325000000258
        },
        {
          "name": "C5",
          "midi": 72,
          "time": 42.99995700000034,
          "velocity": 1,
          "duration": 0.08333325000000258
        },
        {
          "name": "C4",
          "midi": 60,
          "time": 42.99995700000034,
          "velocity": 1,
          "duration": 0.08333325000000258
        },
        {
          "name": "E6",
          "midi": 88,
          "time": 43.083290250000346,
          "velocity": 1,
          "duration": 0.08333325000000258
        },
        {
          "name": "C5",
          "midi": 72,
          "time": 43.083290250000346,
          "velocity": 1,
          "duration": 0.08333325000000258
        },
        {
          "name": "C4",
          "midi": 60,
          "time": 43.083290250000346,
          "velocity": 1,
          "duration": 0.08333325000000258
        },
        {
          "name": "A#3",
          "midi": 58,
          "time": 43.16662350000035,
          "velocity": 1,
          "duration": 0.08333325000000258
        },
        {
          "name": "A#4",
          "midi": 70,
          "time": 43.16662350000035,
          "velocity": 1,
          "duration": 0.08333325000000258
        },
        {
          "name": "E6",
          "midi": 88,
          "time": 43.16662350000035,
          "velocity": 1,
          "duration": 0.08333325000000258
        },
        {
          "name": "F#3",
          "midi": 54,
          "time": 43.16662350000035,
          "velocity": 1,
          "duration": 0.16666650000000516
        },
        {
          "name": "E6",
          "midi": 88,
          "time": 43.24995675000035,
          "velocity": 1,
          "duration": 0.08333325000000258
        },
        {
          "name": "A#4",
          "midi": 70,
          "time": 43.24995675000035,
          "velocity": 1,
          "duration": 0.08333325000000258
        },
        {
          "name": "A#3",
          "midi": 58,
          "time": 43.24995675000035,
          "velocity": 1,
          "duration": 0.08333325000000258
        },
        {
          "name": "F#3",
          "midi": 54,
          "time": 43.33329000000035,
          "velocity": 1,
          "duration": 0.16666650000000516
        },
        {
          "name": "E6",
          "midi": 88,
          "time": 43.33329000000035,
          "velocity": 1,
          "duration": 0.08333325000000258
        },
        {
          "name": "A4",
          "midi": 69,
          "time": 43.33329000000035,
          "velocity": 1,
          "duration": 0.08333325000000258
        },
        {
          "name": "A3",
          "midi": 57,
          "time": 43.33329000000035,
          "velocity": 1,
          "duration": 0.08333325000000258
        },
        {
          "name": "E6",
          "midi": 88,
          "time": 43.416623250000356,
          "velocity": 1,
          "duration": 0.08333325000000258
        },
        {
          "name": "A4",
          "midi": 69,
          "time": 43.416623250000356,
          "velocity": 1,
          "duration": 0.08333325000000258
        },
        {
          "name": "A3",
          "midi": 57,
          "time": 43.416623250000356,
          "velocity": 1,
          "duration": 0.08333325000000258
        },
        {
          "name": "A#3",
          "midi": 58,
          "time": 43.49995650000036,
          "velocity": 1,
          "duration": 0.08333325000000258
        },
        {
          "name": "A#4",
          "midi": 70,
          "time": 43.49995650000036,
          "velocity": 1,
          "duration": 0.08333325000000258
        },
        {
          "name": "E6",
          "midi": 88,
          "time": 43.49995650000036,
          "velocity": 1,
          "duration": 0.08333325000000258
        },
        {
          "name": "F#3",
          "midi": 54,
          "time": 43.49995650000036,
          "velocity": 1,
          "duration": 0.16666650000000516
        },
        {
          "name": "E6",
          "midi": 88,
          "time": 43.58328975000036,
          "velocity": 1,
          "duration": 0.08333325000000258
        },
        {
          "name": "A#4",
          "midi": 70,
          "time": 43.58328975000036,
          "velocity": 1,
          "duration": 0.08333325000000258
        },
        {
          "name": "A#3",
          "midi": 58,
          "time": 43.58328975000036,
          "velocity": 1,
          "duration": 0.08333325000000258
        },
        {
          "name": "F#3",
          "midi": 54,
          "time": 43.666623000000364,
          "velocity": 1,
          "duration": 0.16666650000000516
        },
        {
          "name": "E6",
          "midi": 88,
          "time": 43.666623000000364,
          "velocity": 1,
          "duration": 0.08333325000000258
        },
        {
          "name": "C5",
          "midi": 72,
          "time": 43.666623000000364,
          "velocity": 1,
          "duration": 0.08333325000000258
        },
        {
          "name": "C4",
          "midi": 60,
          "time": 43.666623000000364,
          "velocity": 1,
          "duration": 0.08333325000000258
        },
        {
          "name": "E6",
          "midi": 88,
          "time": 43.749956250000366,
          "velocity": 1,
          "duration": 0.08333325000000258
        },
        {
          "name": "C5",
          "midi": 72,
          "time": 43.749956250000366,
          "velocity": 1,
          "duration": 0.08333325000000258
        },
        {
          "name": "C4",
          "midi": 60,
          "time": 43.749956250000366,
          "velocity": 1,
          "duration": 0.08333325000000258
        },
        {
          "name": "A#3",
          "midi": 58,
          "time": 43.83328950000037,
          "velocity": 1,
          "duration": 0.08333325000000258
        },
        {
          "name": "A#4",
          "midi": 70,
          "time": 43.83328950000037,
          "velocity": 1,
          "duration": 0.08333325000000258
        },
        {
          "name": "E6",
          "midi": 88,
          "time": 43.83328950000037,
          "velocity": 1,
          "duration": 0.08333325000000258
        },
        {
          "name": "F#3",
          "midi": 54,
          "time": 43.83328950000037,
          "velocity": 1,
          "duration": 0.16666650000000516
        },
        {
          "name": "E6",
          "midi": 88,
          "time": 43.91662275000037,
          "velocity": 1,
          "duration": 0.08333325000000258
        },
        {
          "name": "A#4",
          "midi": 70,
          "time": 43.91662275000037,
          "velocity": 1,
          "duration": 0.08333325000000258
        },
        {
          "name": "A#3",
          "midi": 58,
          "time": 43.91662275000037,
          "velocity": 1,
          "duration": 0.08333325000000258
        },
        {
          "name": "A3",
          "midi": 57,
          "time": 43.999956000000374,
          "velocity": 1,
          "duration": 0.16666649999999805
        },
        {
          "name": "A4",
          "midi": 69,
          "time": 43.999956000000374,
          "velocity": 1,
          "duration": 0.16666649999999805
        },
        {
          "name": "F6",
          "midi": 89,
          "time": 43.999956000000374,
          "velocity": 1,
          "duration": 0.3333329999999961
        },
        {
          "name": "F3",
          "midi": 53,
          "time": 43.999956000000374,
          "velocity": 1,
          "duration": 0.3333329999999961
        },
        {
          "name": "A3",
          "midi": 57,
          "time": 44.16662250000037,
          "velocity": 1,
          "duration": 0.16666649999999805
        },
        {
          "name": "C4",
          "midi": 60,
          "time": 44.33328900000037,
          "velocity": 1,
          "duration": 0.16666649999999805
        },
        {
          "name": "A3",
          "midi": 57,
          "time": 44.33328900000037,
          "velocity": 1,
          "duration": 0.16666649999999805
        },
        {
          "name": "A3",
          "midi": 57,
          "time": 44.49995550000037,
          "velocity": 1,
          "duration": 0.16666649999999805
        },
        {
          "name": "F3",
          "midi": 53,
          "time": 44.49995550000037,
          "velocity": 1,
          "duration": 0.16666649999999805
        },
        {
          "name": "A3",
          "midi": 57,
          "time": 44.666622000000366,
          "velocity": 1,
          "duration": 0.16666649999999805
        },
        {
          "name": "C4",
          "midi": 60,
          "time": 44.666622000000366,
          "velocity": 1,
          "duration": 0.16666649999999805
        },
        {
          "name": "A3",
          "midi": 57,
          "time": 44.833288500000364,
          "velocity": 1,
          "duration": 0.16666649999999805
        },
        {
          "name": "F3",
          "midi": 53,
          "time": 44.833288500000364,
          "velocity": 1,
          "duration": 0.16666649999999805
        },
        {
          "name": "C4",
          "midi": 60,
          "time": 44.99995500000036,
          "velocity": 1,
          "duration": 0.16666649999999805
        },
        {
          "name": "A3",
          "midi": 57,
          "time": 44.99995500000036,
          "velocity": 1,
          "duration": 0.16666649999999805
        },
        {
          "name": "A3",
          "midi": 57,
          "time": 45.16662150000036,
          "velocity": 1,
          "duration": 0.16666649999999805
        },
        {
          "name": "F3",
          "midi": 53,
          "time": 45.16662150000036,
          "velocity": 1,
          "duration": 0.16666649999999805
        },
        {
          "name": "A3",
          "midi": 57,
          "time": 45.33328800000036,
          "velocity": 1,
          "duration": 0.16666649999999805
        },
        {
          "name": "C4",
          "midi": 60,
          "time": 45.33328800000036,
          "velocity": 1,
          "duration": 0.16666649999999805
        },
        {
          "name": "A3",
          "midi": 57,
          "time": 45.49995450000036,
          "velocity": 1,
          "duration": 0.16666649999999805
        },
        {
          "name": "F3",
          "midi": 53,
          "time": 45.49995450000036,
          "velocity": 1,
          "duration": 0.16666649999999805
        },
        {
          "name": "C4",
          "midi": 60,
          "time": 45.666621000000355,
          "velocity": 1,
          "duration": 0.16666649999999805
        },
        {
          "name": "A3",
          "midi": 57,
          "time": 45.666621000000355,
          "velocity": 1,
          "duration": 0.16666649999999805
        },
        {
          "name": "A3",
          "midi": 57,
          "time": 45.83328750000035,
          "velocity": 1,
          "duration": 0.16666649999999805
        },
        {
          "name": "F3",
          "midi": 53,
          "time": 45.83328750000035,
          "velocity": 1,
          "duration": 0.16666649999999805
        },
        {
          "name": "A3",
          "midi": 57,
          "time": 45.99995400000035,
          "velocity": 1,
          "duration": 0.16666649999999805
        },
        {
          "name": "C4",
          "midi": 60,
          "time": 45.99995400000035,
          "velocity": 1,
          "duration": 0.16666649999999805
        },
        {
          "name": "F2",
          "midi": 41,
          "time": 45.99995400000035,
          "velocity": 1,
          "duration": 0.3333329999999961
        },
        {
          "name": "A3",
          "midi": 57,
          "time": 46.16662050000035,
          "velocity": 1,
          "duration": 0.16666649999999805
        },
        {
          "name": "F3",
          "midi": 53,
          "time": 46.16662050000035,
          "velocity": 1,
          "duration": 0.16666649999999805
        },
        {
          "name": "A2",
          "midi": 45,
          "time": 46.33328700000035,
          "velocity": 1,
          "duration": 0.3333329999999961
        },
        {
          "name": "C4",
          "midi": 60,
          "time": 46.33328700000035,
          "velocity": 1,
          "duration": 0.16666649999999805
        },
        {
          "name": "A3",
          "midi": 57,
          "time": 46.33328700000035,
          "velocity": 1,
          "duration": 0.16666649999999805
        },
        {
          "name": "F3",
          "midi": 53,
          "time": 46.499953500000345,
          "velocity": 1,
          "duration": 0.16666649999999805
        },
        {
          "name": "A3",
          "midi": 57,
          "time": 46.499953500000345,
          "velocity": 1,
          "duration": 0.16666649999999805
        },
        {
          "name": "C3",
          "midi": 48,
          "time": 46.66662000000034,
          "velocity": 1,
          "duration": 0.3333329999999961
        },
        {
          "name": "C4",
          "midi": 60,
          "time": 46.66662000000034,
          "velocity": 1,
          "duration": 0.16666649999999805
        },
        {
          "name": "A3",
          "midi": 57,
          "time": 46.66662000000034,
          "velocity": 1,
          "duration": 0.16666649999999805
        },
        {
          "name": "A3",
          "midi": 57,
          "time": 46.83328650000034,
          "velocity": 1,
          "duration": 0.16666649999999805
        },
        {
          "name": "F3",
          "midi": 53,
          "time": 46.83328650000034,
          "velocity": 1,
          "duration": 0.16666649999999805
        },
        {
          "name": "A3",
          "midi": 57,
          "time": 46.99995300000034,
          "velocity": 1,
          "duration": 0.16666649999999805
        },
        {
          "name": "C4",
          "midi": 60,
          "time": 46.99995300000034,
          "velocity": 1,
          "duration": 0.16666649999999805
        },
        {
          "name": "F3",
          "midi": 53,
          "time": 46.99995300000034,
          "velocity": 1,
          "duration": 0.3333329999999961
        },
        {
          "name": "A3",
          "midi": 57,
          "time": 47.16661950000034,
          "velocity": 1,
          "duration": 0.16666649999999805
        },
        {
          "name": "A3",
          "midi": 57,
          "time": 47.333286000000335,
          "velocity": 1,
          "duration": 0.3333329999999961
        },
        {
          "name": "D#6",
          "midi": 87,
          "time": 47.333286000000335,
          "velocity": 1,
          "duration": 0.49999949999999416
        },
        {
          "name": "C4",
          "midi": 60,
          "time": 47.333286000000335,
          "velocity": 1,
          "duration": 0.16666649999999805
        },
        {
          "name": "F3",
          "midi": 53,
          "time": 47.49995250000033,
          "velocity": 1,
          "duration": 0.16666649999999805
        },
        {
          "name": "C4",
          "midi": 60,
          "time": 47.66661900000033,
          "velocity": 1,
          "duration": 0.3333329999999961
        },
        {
          "name": "A3",
          "midi": 57,
          "time": 47.66661900000033,
          "velocity": 1,
          "duration": 0.16666649999999805
        },
        {
          "name": "F3",
          "midi": 53,
          "time": 47.83328550000033,
          "velocity": 1,
          "duration": 0.16666649999999805
        },
        {
          "name": "A3",
          "midi": 57,
          "time": 47.83328550000033,
          "velocity": 1,
          "duration": 0.16666649999999805
        },
        {
          "name": "D#5",
          "midi": 75,
          "time": 47.83328550000033,
          "velocity": 1,
          "duration": 0.16666649999999805
        },
        {
          "name": "F3",
          "midi": 53,
          "time": 47.99995200000033,
          "velocity": 1,
          "duration": 0.3333329999999961
        },
        {
          "name": "D5",
          "midi": 74,
          "time": 47.99995200000033,
          "velocity": 1,
          "duration": 0.3333329999999961
        },
        {
          "name": "D4",
          "midi": 62,
          "time": 47.99995200000033,
          "velocity": 1,
          "duration": 0.16666649999999805
        },
        {
          "name": "A#3",
          "midi": 58,
          "time": 47.99995200000033,
          "velocity": 1,
          "duration": 0.16666649999999805
        },
        {
          "name": "A#3",
          "midi": 58,
          "time": 48.166618500000325,
          "velocity": 1,
          "duration": 0.16666649999999805
        },
        {
          "name": "D4",
          "midi": 62,
          "time": 48.33328500000032,
          "velocity": 1,
          "duration": 0.16666649999999805
        },
        {
          "name": "A#3",
          "midi": 58,
          "time": 48.33328500000032,
          "velocity": 1,
          "duration": 0.16666649999999805
        },
        {
          "name": "A#3",
          "midi": 58,
          "time": 48.49995150000032,
          "velocity": 1,
          "duration": 0.16666649999999805
        },
        {
          "name": "F3",
          "midi": 53,
          "time": 48.49995150000032,
          "velocity": 1,
          "duration": 0.16666649999999805
        },
        {
          "name": "D4",
          "midi": 62,
          "time": 48.66661800000032,
          "velocity": 1,
          "duration": 0.16666649999999805
        },
        {
          "name": "A#3",
          "midi": 58,
          "time": 48.66661800000032,
          "velocity": 1,
          "duration": 0.16666649999999805
        },
        {
          "name": "F3",
          "midi": 53,
          "time": 48.83328450000032,
          "velocity": 1,
          "duration": 0.16666649999999805
        },
        {
          "name": "A#3",
          "midi": 58,
          "time": 48.83328450000032,
          "velocity": 1,
          "duration": 0.16666649999999805
        },
        {
          "name": "D4",
          "midi": 62,
          "time": 48.999951000000316,
          "velocity": 1,
          "duration": 0.16666649999999805
        },
        {
          "name": "A#3",
          "midi": 58,
          "time": 48.999951000000316,
          "velocity": 1,
          "duration": 0.16666649999999805
        },
        {
          "name": "A#3",
          "midi": 58,
          "time": 49.166617500000314,
          "velocity": 1,
          "duration": 0.16666649999999805
        },
        {
          "name": "F3",
          "midi": 53,
          "time": 49.166617500000314,
          "velocity": 1,
          "duration": 0.16666649999999805
        },
        {
          "name": "D4",
          "midi": 62,
          "time": 49.33328400000031,
          "velocity": 1,
          "duration": 0.16666649999999805
        },
        {
          "name": "A#3",
          "midi": 58,
          "time": 49.33328400000031,
          "velocity": 1,
          "duration": 0.16666649999999805
        },
        {
          "name": "A#3",
          "midi": 58,
          "time": 49.49995050000031,
          "velocity": 1,
          "duration": 0.16666649999999805
        },
        {
          "name": "F3",
          "midi": 53,
          "time": 49.49995050000031,
          "velocity": 1,
          "duration": 0.16666649999999805
        },
        {
          "name": "D4",
          "midi": 62,
          "time": 49.66661700000031,
          "velocity": 1,
          "duration": 0.16666649999999805
        },
        {
          "name": "A#3",
          "midi": 58,
          "time": 49.66661700000031,
          "velocity": 1,
          "duration": 0.16666649999999805
        },
        {
          "name": "A#3",
          "midi": 58,
          "time": 49.833283500000306,
          "velocity": 1,
          "duration": 0.16666649999999805
        },
        {
          "name": "F3",
          "midi": 53,
          "time": 49.833283500000306,
          "velocity": 1,
          "duration": 0.16666649999999805
        },
        {
          "name": "A#3",
          "midi": 58,
          "time": 49.999950000000304,
          "velocity": 1,
          "duration": 0.16666649999999805
        },
        {
          "name": "D4",
          "midi": 62,
          "time": 49.999950000000304,
          "velocity": 1,
          "duration": 0.16666649999999805
        },
        {
          "name": "F2",
          "midi": 41,
          "time": 49.999950000000304,
          "velocity": 1,
          "duration": 0.3333329999999961
        },
        {
          "name": "A#3",
          "midi": 58,
          "time": 50.1666165000003,
          "velocity": 1,
          "duration": 0.16666649999999805
        },
        {
          "name": "F3",
          "midi": 53,
          "time": 50.1666165000003,
          "velocity": 1,
          "duration": 0.16666649999999805
        },
        {
          "name": "A#2",
          "midi": 46,
          "time": 50.3332830000003,
          "velocity": 1,
          "duration": 0.3333329999999961
        },
        {
          "name": "D4",
          "midi": 62,
          "time": 50.3332830000003,
          "velocity": 1,
          "duration": 0.16666649999999805
        },
        {
          "name": "A#3",
          "midi": 58,
          "time": 50.3332830000003,
          "velocity": 1,
          "duration": 0.16666649999999805
        },
        {
          "name": "F3",
          "midi": 53,
          "time": 50.4999495000003,
          "velocity": 1,
          "duration": 0.16666649999999805
        },
        {
          "name": "A#3",
          "midi": 58,
          "time": 50.4999495000003,
          "velocity": 1,
          "duration": 0.16666649999999805
        },
        {
          "name": "D3",
          "midi": 50,
          "time": 50.666616000000296,
          "velocity": 1,
          "duration": 0.3333329999999961
        },
        {
          "name": "D4",
          "midi": 62,
          "time": 50.666616000000296,
          "velocity": 1,
          "duration": 0.16666649999999805
        },
        {
          "name": "A#3",
          "midi": 58,
          "time": 50.666616000000296,
          "velocity": 1,
          "duration": 0.16666649999999805
        },
        {
          "name": "A#3",
          "midi": 58,
          "time": 50.833282500000294,
          "velocity": 1,
          "duration": 0.16666649999999805
        },
        {
          "name": "F3",
          "midi": 53,
          "time": 50.833282500000294,
          "velocity": 1,
          "duration": 0.16666649999999805
        },
        {
          "name": "A#3",
          "midi": 58,
          "time": 50.99994900000029,
          "velocity": 1,
          "duration": 0.16666649999999805
        },
        {
          "name": "D4",
          "midi": 62,
          "time": 50.99994900000029,
          "velocity": 1,
          "duration": 0.16666649999999805
        },
        {
          "name": "F3",
          "midi": 53,
          "time": 50.99994900000029,
          "velocity": 1,
          "duration": 0.3333329999999961
        },
        {
          "name": "A#3",
          "midi": 58,
          "time": 51.16661550000029,
          "velocity": 1,
          "duration": 0.16666649999999805
        },
        {
          "name": "D4",
          "midi": 62,
          "time": 51.33328200000029,
          "velocity": 1,
          "duration": 0.3333329999999961
        },
        {
          "name": "A#5",
          "midi": 82,
          "time": 51.33328200000029,
          "velocity": 1,
          "duration": 0.49999949999999416
        },
        {
          "name": "A#3",
          "midi": 58,
          "time": 51.33328200000029,
          "velocity": 1,
          "duration": 0.16666649999999805
        },
        {
          "name": "A#3",
          "midi": 58,
          "time": 51.499948500000286,
          "velocity": 1,
          "duration": 0.16666649999999805
        },
        {
          "name": "F3",
          "midi": 53,
          "time": 51.499948500000286,
          "velocity": 1,
          "duration": 0.16666649999999805
        },
        {
          "name": "A#3",
          "midi": 58,
          "time": 51.666615000000284,
          "velocity": 1,
          "duration": 0.3333329999999961
        },
        {
          "name": "D4",
          "midi": 62,
          "time": 51.666615000000284,
          "velocity": 1,
          "duration": 0.16666649999999805
        },
        {
          "name": "F3",
          "midi": 53,
          "time": 51.83328150000028,
          "velocity": 1,
          "duration": 0.16666649999999805
        },
        {
          "name": "D5",
          "midi": 74,
          "time": 51.83328150000028,
          "velocity": 1,
          "duration": 0.16666649999999805
        },
        {
          "name": "F3",
          "midi": 53,
          "time": 51.99994800000028,
          "velocity": 1,
          "duration": 0.3333329999999961
        },
        {
          "name": "D#5",
          "midi": 75,
          "time": 51.99994800000028,
          "velocity": 1,
          "duration": 0.16666649999999805
        },
        {
          "name": "D#4",
          "midi": 63,
          "time": 51.99994800000028,
          "velocity": 1,
          "duration": 0.16666649999999805
        },
        {
          "name": "C4",
          "midi": 60,
          "time": 51.99994800000028,
          "velocity": 1,
          "duration": 0.3333329999999961
        },
        {
          "name": "A3",
          "midi": 57,
          "time": 52.16661450000028,
          "velocity": 1,
          "duration": 0.16666649999999805
        },
        {
          "name": "D#4",
          "midi": 63,
          "time": 52.33328100000028,
          "velocity": 1,
          "duration": 0.16666649999999805
        },
        {
          "name": "C4",
          "midi": 60,
          "time": 52.33328100000028,
          "velocity": 1,
          "duration": 0.16666649999999805
        },
        {
          "name": "C4",
          "midi": 60,
          "time": 52.499947500000275,
          "velocity": 1,
          "duration": 0.16666649999999805
        },
        {
          "name": "A3",
          "midi": 57,
          "time": 52.499947500000275,
          "velocity": 1,
          "duration": 0.16666649999999805
        },
        {
          "name": "D#4",
          "midi": 63,
          "time": 52.66661400000027,
          "velocity": 1,
          "duration": 0.16666649999999805
        },
        {
          "name": "C4",
          "midi": 60,
          "time": 52.66661400000027,
          "velocity": 1,
          "duration": 0.16666649999999805
        },
        {
          "name": "A3",
          "midi": 57,
          "time": 52.83328050000027,
          "velocity": 1,
          "duration": 0.16666649999999805
        },
        {
          "name": "C4",
          "midi": 60,
          "time": 52.83328050000027,
          "velocity": 1,
          "duration": 0.16666649999999805
        },
        {
          "name": "D#4",
          "midi": 63,
          "time": 52.99994700000027,
          "velocity": 1,
          "duration": 0.16666649999999805
        },
        {
          "name": "C4",
          "midi": 60,
          "time": 52.99994700000027,
          "velocity": 1,
          "duration": 0.16666649999999805
        },
        {
          "name": "C4",
          "midi": 60,
          "time": 53.16661350000027,
          "velocity": 1,
          "duration": 0.16666649999999805
        },
        {
          "name": "A3",
          "midi": 57,
          "time": 53.16661350000027,
          "velocity": 1,
          "duration": 0.16666649999999805
        },
        {
          "name": "D#4",
          "midi": 63,
          "time": 53.333280000000265,
          "velocity": 1,
          "duration": 0.16666649999999805
        },
        {
          "name": "C4",
          "midi": 60,
          "time": 53.333280000000265,
          "velocity": 1,
          "duration": 0.16666649999999805
        },
        {
          "name": "C4",
          "midi": 60,
          "time": 53.49994650000026,
          "velocity": 1,
          "duration": 0.16666649999999805
        },
        {
          "name": "A3",
          "midi": 57,
          "time": 53.49994650000026,
          "velocity": 1,
          "duration": 0.16666649999999805
        },
        {
          "name": "C4",
          "midi": 60,
          "time": 53.66661300000026,
          "velocity": 1,
          "duration": 0.16666649999999805
        },
        {
          "name": "D#4",
          "midi": 63,
          "time": 53.66661300000026,
          "velocity": 1,
          "duration": 0.16666649999999805
        },
        {
          "name": "C4",
          "midi": 60,
          "time": 53.83327950000026,
          "velocity": 1,
          "duration": 0.16666649999999805
        },
        {
          "name": "A3",
          "midi": 57,
          "time": 53.83327950000026,
          "velocity": 1,
          "duration": 0.16666649999999805
        },
        {
          "name": "D#4",
          "midi": 63,
          "time": 53.99994600000026,
          "velocity": 1,
          "duration": 0.3333330000000032
        },
        {
          "name": "C4",
          "midi": 60,
          "time": 53.99994600000026,
          "velocity": 1,
          "duration": 0.3333330000000032
        },
        {
          "name": "G4",
          "midi": 67,
          "time": 54.33327900000026,
          "velocity": 1,
          "duration": 0.49999950000000126
        },
        {
          "name": "G5",
          "midi": 79,
          "time": 54.33327900000026,
          "velocity": 1,
          "duration": 0.49999950000000126
        },
        {
          "name": "G3",
          "midi": 55,
          "time": 54.33327900000026,
          "velocity": 1,
          "duration": 0.49999950000000126
        },
        {
          "name": "F3",
          "midi": 53,
          "time": 54.83327850000026,
          "velocity": 1,
          "duration": 0.16666649999999805
        },
        {
          "name": "F5",
          "midi": 77,
          "time": 54.83327850000026,
          "velocity": 1,
          "duration": 0.16666649999999805
        },
        {
          "name": "F4",
          "midi": 65,
          "time": 54.83327850000026,
          "velocity": 1,
          "duration": 0.16666649999999805
        },
        {
          "name": "D#3",
          "midi": 51,
          "time": 54.99994500000026,
          "velocity": 1,
          "duration": 0.3333330000000032
        },
        {
          "name": "D#5",
          "midi": 75,
          "time": 54.99994500000026,
          "velocity": 1,
          "duration": 0.3333330000000032
        },
        {
          "name": "D#4",
          "midi": 63,
          "time": 54.99994500000026,
          "velocity": 1,
          "duration": 0.3333330000000032
        },
        {
          "name": "D4",
          "midi": 62,
          "time": 55.33327800000026,
          "velocity": 1,
          "duration": 0.3333330000000032
        },
        {
          "name": "D5",
          "midi": 74,
          "time": 55.33327800000026,
          "velocity": 1,
          "duration": 0.3333330000000032
        },
        {
          "name": "D3",
          "midi": 50,
          "time": 55.33327800000026,
          "velocity": 1,
          "duration": 0.3333330000000032
        },
        {
          "name": "C3",
          "midi": 48,
          "time": 55.666611000000266,
          "velocity": 1,
          "duration": 0.3333330000000032
        },
        {
          "name": "C5",
          "midi": 72,
          "time": 55.666611000000266,
          "velocity": 1,
          "duration": 0.3333330000000032
        },
        {
          "name": "C4",
          "midi": 60,
          "time": 55.666611000000266,
          "velocity": 1,
          "duration": 0.3333330000000032
        },
        {
          "name": "A#3",
          "midi": 58,
          "time": 55.99994400000027,
          "velocity": 1,
          "duration": 2.3333310000000083
        },
        {
          "name": "A#2",
          "midi": 46,
          "time": 55.99994400000027,
          "velocity": 1,
          "duration": 0.3333330000000032
        },
        {
          "name": "A#4",
          "midi": 70,
          "time": 55.99994400000027,
          "velocity": 1,
          "duration": 2.3333310000000083
        },
        {
          "name": "A3",
          "midi": 57,
          "time": 56.666610000000276,
          "velocity": 1,
          "duration": 0.16666649999999805
        },
        {
          "name": "G#3",
          "midi": 56,
          "time": 56.833276500000274,
          "velocity": 1,
          "duration": 0.16666649999999805
        },
        {
          "name": "G3",
          "midi": 55,
          "time": 56.99994300000027,
          "velocity": 1,
          "duration": 0.3333330000000032
        },
        {
          "name": "F3",
          "midi": 53,
          "time": 57.333276000000275,
          "velocity": 1,
          "duration": 0.3333330000000032
        },
        {
          "name": "D#3",
          "midi": 51,
          "time": 57.66660900000028,
          "velocity": 1,
          "duration": 0.3333330000000032
        },
        {
          "name": "D3",
          "midi": 50,
          "time": 57.99994200000028,
          "velocity": 1,
          "duration": 0.16666649999999805
        },
        {
          "name": "F3",
          "midi": 53,
          "time": 58.16660850000028,
          "velocity": 1,
          "duration": 0.16666649999999805
        },
        {
          "name": "F4",
          "midi": 65,
          "time": 58.16660850000028,
          "velocity": 1,
          "duration": 0.16666649999999805
        },
        {
          "name": "D#4",
          "midi": 63,
          "time": 58.33327500000028,
          "velocity": 1,
          "duration": 0.16666649999999805
        },
        {
          "name": "F4",
          "midi": 65,
          "time": 58.33327500000028,
          "velocity": 1,
          "duration": 0.3333329999999961
        },
        {
          "name": "F5",
          "midi": 77,
          "time": 58.33327500000028,
          "velocity": 1,
          "duration": 0.3333329999999961
        },
        {
          "name": "D#3",
          "midi": 51,
          "time": 58.33327500000028,
          "velocity": 1,
          "duration": 0.16666649999999805
        },
        {
          "name": "D3",
          "midi": 50,
          "time": 58.499941500000276,
          "velocity": 1,
          "duration": 0.16666649999999805
        },
        {
          "name": "D4",
          "midi": 62,
          "time": 58.499941500000276,
          "velocity": 1,
          "duration": 0.16666649999999805
        },
        {
          "name": "C3",
          "midi": 48,
          "time": 58.666608000000274,
          "velocity": 1,
          "duration": 0.16666649999999805
        },
        {
          "name": "F5",
          "midi": 77,
          "time": 58.666608000000274,
          "velocity": 1,
          "duration": 0.3333329999999961
        },
        {
          "name": "F4",
          "midi": 65,
          "time": 58.666608000000274,
          "velocity": 1,
          "duration": 0.3333329999999961
        },
        {
          "name": "C4",
          "midi": 60,
          "time": 58.666608000000274,
          "velocity": 1,
          "duration": 0.16666649999999805
        },
        {
          "name": "A#2",
          "midi": 46,
          "time": 58.83327450000027,
          "velocity": 1,
          "duration": 0.16666649999999805
        },
        {
          "name": "A#3",
          "midi": 58,
          "time": 58.83327450000027,
          "velocity": 1,
          "duration": 0.16666649999999805
        },
        {
          "name": "A2",
          "midi": 45,
          "time": 58.99994100000027,
          "velocity": 1,
          "duration": 0.16666649999999805
        },
        {
          "name": "F5",
          "midi": 77,
          "time": 58.99994100000027,
          "velocity": 1,
          "duration": 0.3333329999999961
        },
        {
          "name": "F4",
          "midi": 65,
          "time": 58.99994100000027,
          "velocity": 1,
          "duration": 0.3333329999999961
        },
        {
          "name": "A3",
          "midi": 57,
          "time": 58.99994100000027,
          "velocity": 1,
          "duration": 0.16666649999999805
        },
        {
          "name": "A#3",
          "midi": 58,
          "time": 59.16660750000027,
          "velocity": 1,
          "duration": 0.16666649999999805
        },
        {
          "name": "A#2",
          "midi": 46,
          "time": 59.16660750000027,
          "velocity": 1,
          "duration": 0.16666649999999805
        },
        {
          "name": "C3",
          "midi": 48,
          "time": 59.333274000000266,
          "velocity": 1,
          "duration": 0.16666649999999805
        },
        {
          "name": "F5",
          "midi": 77,
          "time": 59.333274000000266,
          "velocity": 1,
          "duration": 0.3333329999999961
        },
        {
          "name": "F4",
          "midi": 65,
          "time": 59.333274000000266,
          "velocity": 1,
          "duration": 0.3333329999999961
        },
        {
          "name": "C4",
          "midi": 60,
          "time": 59.333274000000266,
          "velocity": 1,
          "duration": 0.16666649999999805
        },
        {
          "name": "F2",
          "midi": 41,
          "time": 59.499940500000264,
          "velocity": 1,
          "duration": 0.16666649999999805
        },
        {
          "name": "F3",
          "midi": 53,
          "time": 59.499940500000264,
          "velocity": 1,
          "duration": 0.16666649999999805
        },
        {
          "name": "G2",
          "midi": 43,
          "time": 59.66660700000026,
          "velocity": 1,
          "duration": 0.16666649999999805
        },
        {
          "name": "F5",
          "midi": 77,
          "time": 59.66660700000026,
          "velocity": 1,
          "duration": 0.3333329999999961
        },
        {
          "name": "F4",
          "midi": 65,
          "time": 59.66660700000026,
          "velocity": 1,
          "duration": 0.3333329999999961
        },
        {
          "name": "G3",
          "midi": 55,
          "time": 59.66660700000026,
          "velocity": 1,
          "duration": 0.16666649999999805
        },
        {
          "name": "A2",
          "midi": 45,
          "time": 59.83327350000026,
          "velocity": 1,
          "duration": 0.16666649999999805
        },
        {
          "name": "A3",
          "midi": 57,
          "time": 59.83327350000026,
          "velocity": 1,
          "duration": 0.16666649999999805
        },
        {
          "name": "A#3",
          "midi": 58,
          "time": 59.99994000000026,
          "velocity": 1,
          "duration": 0.16666649999999805
        },
        {
          "name": "F4",
          "midi": 65,
          "time": 59.99994000000026,
          "velocity": 1,
          "duration": 0.16666649999999805
        },
        {
          "name": "F5",
          "midi": 77,
          "time": 59.99994000000026,
          "velocity": 1,
          "duration": 0.16666649999999805
        },
        {
          "name": "A#2",
          "midi": 46,
          "time": 59.99994000000026,
          "velocity": 1,
          "duration": 2.1666644999999747
        },
        {
          "name": "A#3",
          "midi": 58,
          "time": 60.166606500000256,
          "velocity": 1,
          "duration": 0.16666649999999805
        },
        {
          "name": "D5",
          "midi": 74,
          "time": 60.166606500000256,
          "velocity": 1,
          "duration": 0.16666649999999805
        },
        {
          "name": "A#4",
          "midi": 70,
          "time": 60.166606500000256,
          "velocity": 1,
          "duration": 0.16666649999999805
        },
        {
          "name": "A#4",
          "midi": 70,
          "time": 60.333273000000254,
          "velocity": 1,
          "duration": 0.16666649999999805
        },
        {
          "name": "A4",
          "midi": 69,
          "time": 60.333273000000254,
          "velocity": 1,
          "duration": 0.16666649999999805
        },
        {
          "name": "C5",
          "midi": 72,
          "time": 60.333273000000254,
          "velocity": 1,
          "duration": 0.16666649999999805
        },
        {
          "name": "A#3",
          "midi": 58,
          "time": 60.333273000000254,
          "velocity": 1,
          "duration": 0.16666649999999805
        },
        {
          "name": "A#3",
          "midi": 58,
          "time": 60.49993950000025,
          "velocity": 1,
          "duration": 0.16666649999999805
        },
        {
          "name": "D5",
          "midi": 74,
          "time": 60.49993950000025,
          "velocity": 1,
          "duration": 0.16666649999999805
        },
        {
          "name": "A#4",
          "midi": 70,
          "time": 60.49993950000025,
          "velocity": 1,
          "duration": 0.16666649999999805
        },
        {
          "name": "A4",
          "midi": 69,
          "time": 60.66660600000025,
          "velocity": 1,
          "duration": 0.16666649999999805
        },
        {
          "name": "C5",
          "midi": 72,
          "time": 60.66660600000025,
          "velocity": 1,
          "duration": 0.16666649999999805
        },
        {
          "name": "D#5",
          "midi": 75,
          "time": 60.66660600000025,
          "velocity": 1,
          "duration": 0.16666649999999805
        },
        {
          "name": "A3",
          "midi": 57,
          "time": 60.66660600000025,
          "velocity": 1,
          "duration": 0.16666649999999805
        },
        {
          "name": "G#3",
          "midi": 56,
          "time": 60.83327250000025,
          "velocity": 1,
          "duration": 0.16666649999999805
        },
        {
          "name": "F5",
          "midi": 77,
          "time": 60.83327250000025,
          "velocity": 1,
          "duration": 0.16666649999999805
        },
        {
          "name": "D5",
          "midi": 74,
          "time": 60.83327250000025,
          "velocity": 1,
          "duration": 0.16666649999999805
        },
        {
          "name": "G#4",
          "midi": 68,
          "time": 60.83327250000025,
          "velocity": 1,
          "duration": 0.16666649999999805
        },
        {
          "name": "G4",
          "midi": 67,
          "time": 60.999939000000246,
          "velocity": 1,
          "duration": 0.16666649999999805
        },
        {
          "name": "D#5",
          "midi": 75,
          "time": 60.999939000000246,
          "velocity": 1,
          "duration": 0.16666649999999805
        },
        {
          "name": "G5",
          "midi": 79,
          "time": 60.999939000000246,
          "velocity": 1,
          "duration": 0.16666649999999805
        },
        {
          "name": "G3",
          "midi": 55,
          "time": 60.999939000000246,
          "velocity": 1,
          "duration": 0.16666649999999805
        },
        {
          "name": "F3",
          "midi": 53,
          "time": 61.166605500000244,
          "velocity": 1,
          "duration": 0.16666649999999805
        },
        {
          "name": "A5",
          "midi": 81,
          "time": 61.166605500000244,
          "velocity": 1,
          "duration": 0.16666649999999805
        },
        {
          "name": "F5",
          "midi": 77,
          "time": 61.166605500000244,
          "velocity": 1,
          "duration": 0.16666649999999805
        },
        {
          "name": "F4",
          "midi": 65,
          "time": 61.166605500000244,
          "velocity": 1,
          "duration": 0.16666649999999805
        },
        {
          "name": "D#4",
          "midi": 63,
          "time": 61.33327200000024,
          "velocity": 1,
          "duration": 0.16666649999999805
        },
        {
          "name": "G5",
          "midi": 79,
          "time": 61.33327200000024,
          "velocity": 1,
          "duration": 0.16666649999999805
        },
        {
          "name": "A#5",
          "midi": 82,
          "time": 61.33327200000024,
          "velocity": 1,
          "duration": 0.16666649999999805
        },
        {
          "name": "D#3",
          "midi": 51,
          "time": 61.33327200000024,
          "velocity": 1,
          "duration": 0.16666649999999805
        },
        {
          "name": "G3",
          "midi": 55,
          "time": 61.49993850000024,
          "velocity": 1,
          "duration": 0.16666649999999805
        },
        {
          "name": "A#5",
          "midi": 82,
          "time": 61.49993850000024,
          "velocity": 1,
          "duration": 0.16666649999999805
        },
        {
          "name": "A#4",
          "midi": 70,
          "time": 61.49993850000024,
          "velocity": 1,
          "duration": 0.16666649999999805
        },
        {
          "name": "G4",
          "midi": 67,
          "time": 61.49993850000024,
          "velocity": 1,
          "duration": 0.16666649999999805
        },
        {
          "name": "F3",
          "midi": 53,
          "time": 61.66660500000024,
          "velocity": 1,
          "duration": 0.16666649999999805
        },
        {
          "name": "A#5",
          "midi": 82,
          "time": 61.66660500000024,
          "velocity": 1,
          "duration": 0.16666649999999805
        },
        {
          "name": "A4",
          "midi": 69,
          "time": 61.66660500000024,
          "velocity": 1,
          "duration": 0.16666649999999805
        },
        {
          "name": "F4",
          "midi": 65,
          "time": 61.66660500000024,
          "velocity": 1,
          "duration": 0.16666649999999805
        },
        {
          "name": "D#3",
          "midi": 51,
          "time": 61.83327150000024,
          "velocity": 1,
          "duration": 0.16666649999999805
        },
        {
          "name": "A#5",
          "midi": 82,
          "time": 61.83327150000024,
          "velocity": 1,
          "duration": 0.16666649999999805
        },
        {
          "name": "G4",
          "midi": 67,
          "time": 61.83327150000024,
          "velocity": 1,
          "duration": 0.16666649999999805
        },
        {
          "name": "D#4",
          "midi": 63,
          "time": 61.83327150000024,
          "velocity": 1,
          "duration": 0.16666649999999805
        },
        {
          "name": "D4",
          "midi": 62,
          "time": 61.999938000000235,
          "velocity": 1,
          "duration": 0.16666649999999805
        },
        {
          "name": "F4",
          "midi": 65,
          "time": 61.999938000000235,
          "velocity": 1,
          "duration": 0.16666649999999805
        },
        {
          "name": "A#5",
          "midi": 82,
          "time": 61.999938000000235,
          "velocity": 1,
          "duration": 0.16666649999999805
        },
        {
          "name": "D3",
          "midi": 50,
          "time": 61.999938000000235,
          "velocity": 1,
          "duration": 0.16666649999999805
        },
        {
          "name": "F3",
          "midi": 53,
          "time": 62.16660450000023,
          "velocity": 1,
          "duration": 0.16666649999999805
        },
        {
          "name": "A#5",
          "midi": 82,
          "time": 62.16660450000023,
          "velocity": 1,
          "duration": 0.16666649999999805
        },
        {
          "name": "A#4",
          "midi": 70,
          "time": 62.16660450000023,
          "velocity": 1,
          "duration": 0.16666649999999805
        },
        {
          "name": "D4",
          "midi": 62,
          "time": 62.16660450000023,
          "velocity": 1,
          "duration": 0.16666649999999805
        },
        {
          "name": "D#3",
          "midi": 51,
          "time": 62.33327100000023,
          "velocity": 1,
          "duration": 0.16666649999999805
        },
        {
          "name": "A5",
          "midi": 81,
          "time": 62.33327100000023,
          "velocity": 1,
          "duration": 0.16666649999999805
        },
        {
          "name": "A4",
          "midi": 69,
          "time": 62.33327100000023,
          "velocity": 1,
          "duration": 0.16666649999999805
        },
        {
          "name": "C4",
          "midi": 60,
          "time": 62.33327100000023,
          "velocity": 1,
          "duration": 0.16666649999999805
        },
        {
          "name": "F4",
          "midi": 65,
          "time": 62.49993750000023,
          "velocity": 1,
          "duration": 0.16666649999999805
        },
        {
          "name": "A#4",
          "midi": 70,
          "time": 62.49993750000023,
          "velocity": 1,
          "duration": 0.16666649999999805
        },
        {
          "name": "A#5",
          "midi": 82,
          "time": 62.49993750000023,
          "velocity": 1,
          "duration": 0.16666649999999805
        },
        {
          "name": "D3",
          "midi": 50,
          "time": 62.49993750000023,
          "velocity": 1,
          "duration": 0.16666649999999805
        },
        {
          "name": "C3",
          "midi": 48,
          "time": 62.66660400000023,
          "velocity": 1,
          "duration": 0.16666649999999805
        },
        {
          "name": "C6",
          "midi": 84,
          "time": 62.66660400000023,
          "velocity": 1,
          "duration": 0.16666649999999805
        },
        {
          "name": "C5",
          "midi": 72,
          "time": 62.66660400000023,
          "velocity": 1,
          "duration": 0.16666649999999805
        },
        {
          "name": "A4",
          "midi": 69,
          "time": 62.66660400000023,
          "velocity": 1,
          "duration": 0.16666649999999805
        },
        {
          "name": "A#2",
          "midi": 46,
          "time": 62.833270500000225,
          "velocity": 1,
          "duration": 0.16666649999999805
        },
        {
          "name": "D6",
          "midi": 86,
          "time": 62.833270500000225,
          "velocity": 1,
          "duration": 0.16666649999999805
        },
        {
          "name": "D5",
          "midi": 74,
          "time": 62.833270500000225,
          "velocity": 1,
          "duration": 0.16666649999999805
        },
        {
          "name": "A#4",
          "midi": 70,
          "time": 62.833270500000225,
          "velocity": 1,
          "duration": 0.16666649999999805
        },
        {
          "name": "C5",
          "midi": 72,
          "time": 62.99993700000022,
          "velocity": 1,
          "duration": 0.08333325000000258
        },
        {
          "name": "D#5",
          "midi": 75,
          "time": 62.99993700000022,
          "velocity": 1,
          "duration": 0.16666650000000516
        },
        {
          "name": "D#6",
          "midi": 87,
          "time": 62.99993700000022,
          "velocity": 1,
          "duration": 0.16666650000000516
        },
        {
          "name": "A2",
          "midi": 45,
          "time": 62.99993700000022,
          "velocity": 1,
          "duration": 0.16666650000000516
        },
        {
          "name": "C5",
          "midi": 72,
          "time": 63.083270250000226,
          "velocity": 1,
          "duration": 0.08333325000000258
        },
        {
          "name": "A#2",
          "midi": 46,
          "time": 63.16660350000023,
          "velocity": 1,
          "duration": 0.16666650000000516
        },
        {
          "name": "D#6",
          "midi": 87,
          "time": 63.16660350000023,
          "velocity": 1,
          "duration": 0.16666650000000516
        },
        {
          "name": "D#5",
          "midi": 75,
          "time": 63.16660350000023,
          "velocity": 1,
          "duration": 0.16666650000000516
        },
        {
          "name": "C5",
          "midi": 72,
          "time": 63.16660350000023,
          "velocity": 1,
          "duration": 0.08333325000000258
        },
        {
          "name": "C5",
          "midi": 72,
          "time": 63.24993675000023,
          "velocity": 1,
          "duration": 0.08333325000000258
        },
        {
          "name": "C3",
          "midi": 48,
          "time": 63.33327000000023,
          "velocity": 1,
          "duration": 0.16666650000000516
        },
        {
          "name": "D#6",
          "midi": 87,
          "time": 63.33327000000023,
          "velocity": 1,
          "duration": 0.16666650000000516
        },
        {
          "name": "D#5",
          "midi": 75,
          "time": 63.33327000000023,
          "velocity": 1,
          "duration": 0.16666650000000516
        },
        {
          "name": "C5",
          "midi": 72,
          "time": 63.33327000000023,
          "velocity": 1,
          "duration": 0.08333325000000258
        },
        {
          "name": "C5",
          "midi": 72,
          "time": 63.416603250000236,
          "velocity": 1,
          "duration": 0.08333325000000258
        },
        {
          "name": "C5",
          "midi": 72,
          "time": 63.49993650000024,
          "velocity": 1,
          "duration": 0.08333325000000258
        },
        {
          "name": "D#5",
          "midi": 75,
          "time": 63.49993650000024,
          "velocity": 1,
          "duration": 0.16666650000000516
        },
        {
          "name": "D#6",
          "midi": 87,
          "time": 63.49993650000024,
          "velocity": 1,
          "duration": 0.16666650000000516
        },
        {
          "name": "A#2",
          "midi": 46,
          "time": 63.49993650000024,
          "velocity": 1,
          "duration": 0.16666650000000516
        },
        {
          "name": "C5",
          "midi": 72,
          "time": 63.58326975000024,
          "velocity": 1,
          "duration": 0.08333325000000258
        },
        {
          "name": "A2",
          "midi": 45,
          "time": 63.666603000000244,
          "velocity": 1,
          "duration": 0.16666650000000516
        },
        {
          "name": "D#6",
          "midi": 87,
          "time": 63.666603000000244,
          "velocity": 1,
          "duration": 0.16666650000000516
        },
        {
          "name": "D#5",
          "midi": 75,
          "time": 63.666603000000244,
          "velocity": 1,
          "duration": 0.16666650000000516
        },
        {
          "name": "C5",
          "midi": 72,
          "time": 63.666603000000244,
          "velocity": 1,
          "duration": 0.08333325000000258
        },
        {
          "name": "C5",
          "midi": 72,
          "time": 63.749936250000246,
          "velocity": 1,
          "duration": 0.08333325000000258
        },
        {
          "name": "G2",
          "midi": 43,
          "time": 63.83326950000025,
          "velocity": 1,
          "duration": 0.16666650000000516
        },
        {
          "name": "D#6",
          "midi": 87,
          "time": 63.83326950000025,
          "velocity": 1,
          "duration": 0.16666650000000516
        },
        {
          "name": "D#5",
          "midi": 75,
          "time": 63.83326950000025,
          "velocity": 1,
          "duration": 0.16666650000000516
        },
        {
          "name": "C5",
          "midi": 72,
          "time": 63.83326950000025,
          "velocity": 1,
          "duration": 0.08333325000000258
        },
        {
          "name": "C5",
          "midi": 72,
          "time": 63.91660275000025,
          "velocity": 1,
          "duration": 0.08333325000000258
        },
        {
          "name": "C5",
          "midi": 72,
          "time": 63.999936000000254,
          "velocity": 1,
          "duration": 0.333332999999989
        },
        {
          "name": "D#5",
          "midi": 75,
          "time": 63.999936000000254,
          "velocity": 1,
          "duration": 0.333332999999989
        },
        {
          "name": "D#6",
          "midi": 87,
          "time": 63.999936000000254,
          "velocity": 1,
          "duration": 0.16666649999999805
        },
        {
          "name": "F#2",
          "midi": 42,
          "time": 63.999936000000254,
          "velocity": 1,
          "duration": 0.333332999999989
        },
        {
          "name": "C6",
          "midi": 84,
          "time": 64.16660250000025,
          "velocity": 1,
          "duration": 0.08333324999999547
        },
        {
          "name": "D6",
          "midi": 86,
          "time": 64.24993575000025,
          "velocity": 1,
          "duration": 0.08333324999999547
        },
        {
          "name": "F#3",
          "midi": 54,
          "time": 64.33326900000024,
          "velocity": 1,
          "duration": 0.3333329999999961
        },
        {
          "name": "C6",
          "midi": 84,
          "time": 64.33326900000024,
          "velocity": 1,
          "duration": 0.16666650000000516
        },
        {
          "name": "A4",
          "midi": 69,
          "time": 64.33326900000024,
          "velocity": 1,
          "duration": 0.3333329999999961
        },
        {
          "name": "D#4",
          "midi": 63,
          "time": 64.33326900000024,
          "velocity": 1,
          "duration": 0.3333329999999961
        },
        {
          "name": "C4",
          "midi": 60,
          "time": 64.33326900000024,
          "velocity": 1,
          "duration": 0.3333329999999961
        },
        {
          "name": "A5",
          "midi": 81,
          "time": 64.49993550000025,
          "velocity": 1,
          "duration": 0.08333324999999547
        },
        {
          "name": "A#5",
          "midi": 82,
          "time": 64.58326875000024,
          "velocity": 1,
          "duration": 0.08333324999999547
        },
        {
          "name": "A5",
          "midi": 81,
          "time": 64.66660200000024,
          "velocity": 1,
          "duration": 0.16666650000000516
        },
        {
          "name": "D#5",
          "midi": 75,
          "time": 64.83326850000024,
          "velocity": 1,
          "duration": 0.08333324999999547
        },
        {
          "name": "F5",
          "midi": 77,
          "time": 64.91660175000024,
          "velocity": 1,
          "duration": 0.08333324999999547
        },
        {
          "name": "D#5",
          "midi": 75,
          "time": 64.99993500000024,
          "velocity": 1,
          "duration": 0.16666650000000516
        },
        {
          "name": "C5",
          "midi": 72,
          "time": 65.16660150000024,
          "velocity": 1,
          "duration": 0.08333324999999547
        },
        {
          "name": "D#4",
          "midi": 63,
          "time": 65.16660150000024,
          "velocity": 1,
          "duration": 0.08333324999999547
        },
        {
          "name": "D5",
          "midi": 74,
          "time": 65.24993475000024,
          "velocity": 1,
          "duration": 0.08333324999999547
        },
        {
          "name": "F4",
          "midi": 65,
          "time": 65.24993475000024,
          "velocity": 1,
          "duration": 0.08333324999999547
        },
        {
          "name": "C5",
          "midi": 72,
          "time": 65.33326800000023,
          "velocity": 1,
          "duration": 0.16666650000000516
        },
        {
          "name": "D#4",
          "midi": 63,
          "time": 65.33326800000023,
          "velocity": 1,
          "duration": 0.16666650000000516
        },
        {
          "name": "A4",
          "midi": 69,
          "time": 65.49993450000024,
          "velocity": 1,
          "duration": 0.08333324999999547
        },
        {
          "name": "C4",
          "midi": 60,
          "time": 65.49993450000024,
          "velocity": 1,
          "duration": 0.08333324999999547
        },
        {
          "name": "A#4",
          "midi": 70,
          "time": 65.58326775000023,
          "velocity": 1,
          "duration": 0.08333324999999547
        },
        {
          "name": "D4",
          "midi": 62,
          "time": 65.58326775000023,
          "velocity": 1,
          "duration": 0.08333324999999547
        },
        {
          "name": "A4",
          "midi": 69,
          "time": 65.66660100000023,
          "velocity": 1,
          "duration": 0.16666650000000516
        },
        {
          "name": "C4",
          "midi": 60,
          "time": 65.66660100000023,
          "velocity": 1,
          "duration": 0.16666650000000516
        },
        {
          "name": "C4",
          "midi": 60,
          "time": 65.83326750000023,
          "velocity": 1,
          "duration": 0.16666650000000516
        },
        {
          "name": "A4",
          "midi": 69,
          "time": 65.83326750000023,
          "velocity": 1,
          "duration": 0.16666650000000516
        },
        {
          "name": "D#6",
          "midi": 87,
          "time": 65.83326750000023,
          "velocity": 1,
          "duration": 0.16666650000000516
        },
        {
          "name": "F#2",
          "midi": 42,
          "time": 65.83326750000023,
          "velocity": 1,
          "duration": 0.16666650000000516
        },
        {
          "name": "G2",
          "midi": 43,
          "time": 65.99993400000024,
          "velocity": 1,
          "duration": 0.3333329999999961
        },
        {
          "name": "D6",
          "midi": 86,
          "time": 65.99993400000024,
          "velocity": 1,
          "duration": 0.16666650000000516
        },
        {
          "name": "A#4",
          "midi": 70,
          "time": 65.99993400000024,
          "velocity": 1,
          "duration": 0.3333329999999961
        },
        {
          "name": "A#3",
          "midi": 58,
          "time": 65.99993400000024,
          "velocity": 1,
          "duration": 0.3333329999999961
        },
        {
          "name": "A#5",
          "midi": 82,
          "time": 66.16660050000024,
          "velocity": 1,
          "duration": 0.08333324999999547
        },
        {
          "name": "C6",
          "midi": 84,
          "time": 66.24993375000024,
          "velocity": 1,
          "duration": 0.08333324999999547
        },
        {
          "name": "G3",
          "midi": 55,
          "time": 66.33326700000023,
          "velocity": 1,
          "duration": 0.3333329999999961
        },
        {
          "name": "A#5",
          "midi": 82,
          "time": 66.33326700000023,
          "velocity": 1,
          "duration": 0.16666650000000516
        },
        {
          "name": "A#4",
          "midi": 70,
          "time": 66.33326700000023,
          "velocity": 1,
          "duration": 0.3333329999999961
        },
        {
          "name": "D4",
          "midi": 62,
          "time": 66.33326700000023,
          "velocity": 1,
          "duration": 0.3333329999999961
        },
        {
          "name": "A#3",
          "midi": 58,
          "time": 66.33326700000023,
          "velocity": 1,
          "duration": 0.3333329999999961
        },
        {
          "name": "G5",
          "midi": 79,
          "time": 66.49993350000024,
          "velocity": 1,
          "duration": 0.08333324999999547
        },
        {
          "name": "A5",
          "midi": 81,
          "time": 66.58326675000023,
          "velocity": 1,
          "duration": 0.08333324999999547
        },
        {
          "name": "G5",
          "midi": 79,
          "time": 66.66660000000023,
          "velocity": 1,
          "duration": 0.16666650000000516
        },
        {
          "name": "D5",
          "midi": 74,
          "time": 66.83326650000024,
          "velocity": 1,
          "duration": 0.08333324999999547
        },
        {
          "name": "D#5",
          "midi": 75,
          "time": 66.91659975000023,
          "velocity": 1,
          "duration": 0.08333324999999547
        },
        {
          "name": "D5",
          "midi": 74,
          "time": 66.99993300000023,
          "velocity": 1,
          "duration": 0.16666650000000516
        },
        {
          "name": "A#4",
          "midi": 70,
          "time": 67.16659950000023,
          "velocity": 1,
          "duration": 0.08333324999999547
        },
        {
          "name": "D4",
          "midi": 62,
          "time": 67.16659950000023,
          "velocity": 1,
          "duration": 0.08333324999999547
        },
        {
          "name": "D#4",
          "midi": 63,
          "time": 67.24993275000023,
          "velocity": 1,
          "duration": 0.08333324999999547
        },
        {
          "name": "C5",
          "midi": 72,
          "time": 67.24993275000023,
          "velocity": 1,
          "duration": 0.08333324999999547
        },
        {
          "name": "A#4",
          "midi": 70,
          "time": 67.33326600000022,
          "velocity": 1,
          "duration": 0.16666650000000516
        },
        {
          "name": "D4",
          "midi": 62,
          "time": 67.33326600000022,
          "velocity": 1,
          "duration": 0.16666650000000516
        },
        {
          "name": "G4",
          "midi": 67,
          "time": 67.49993250000023,
          "velocity": 1,
          "duration": 0.08333324999999547
        },
        {
          "name": "A#3",
          "midi": 58,
          "time": 67.49993250000023,
          "velocity": 1,
          "duration": 0.08333324999999547
        },
        {
          "name": "A4",
          "midi": 69,
          "time": 67.58326575000022,
          "velocity": 1,
          "duration": 0.08333324999999547
        },
        {
          "name": "C4",
          "midi": 60,
          "time": 67.58326575000022,
          "velocity": 1,
          "duration": 0.08333324999999547
        },
        {
          "name": "A#3",
          "midi": 58,
          "time": 67.66659900000022,
          "velocity": 1,
          "duration": 0.16666650000000516
        },
        {
          "name": "G4",
          "midi": 67,
          "time": 67.66659900000022,
          "velocity": 1,
          "duration": 0.16666650000000516
        },
        {
          "name": "G3",
          "midi": 55,
          "time": 67.83326550000022,
          "velocity": 1,
          "duration": 0.16666650000000516
        },
        {
          "name": "G5",
          "midi": 79,
          "time": 67.83326550000022,
          "velocity": 1,
          "duration": 0.16666650000000516
        },
        {
          "name": "A#4",
          "midi": 70,
          "time": 67.83326550000022,
          "velocity": 1,
          "duration": 0.16666650000000516
        },
        {
          "name": "D4",
          "midi": 62,
          "time": 67.83326550000022,
          "velocity": 1,
          "duration": 0.16666650000000516
        },
        {
          "name": "F3",
          "midi": 53,
          "time": 67.99993200000023,
          "velocity": 1,
          "duration": 0.3333329999999961
        },
        {
          "name": "G#5",
          "midi": 80,
          "time": 67.99993200000023,
          "velocity": 1,
          "duration": 0.16666650000000516
        },
        {
          "name": "B4",
          "midi": 71,
          "time": 67.99993200000023,
          "velocity": 1,
          "duration": 0.3333329999999961
        },
        {
          "name": "D4",
          "midi": 62,
          "time": 67.99993200000023,
          "velocity": 1,
          "duration": 0.3333329999999961
        },
        {
          "name": "G#4",
          "midi": 68,
          "time": 68.16659850000023,
          "velocity": 1,
          "duration": 0.08333324999999547
        },
        {
          "name": "A#4",
          "midi": 70,
          "time": 68.24993175000023,
          "velocity": 1,
          "duration": 0.08333324999999547
        },
        {
          "name": "D5",
          "midi": 74,
          "time": 68.33326500000022,
          "velocity": 1,
          "duration": 0.3333329999999961
        },
        {
          "name": "B4",
          "midi": 71,
          "time": 68.33326500000022,
          "velocity": 1,
          "duration": 0.3333329999999961
        },
        {
          "name": "G#5",
          "midi": 80,
          "time": 68.33326500000022,
          "velocity": 1,
          "duration": 0.3333329999999961
        },
        {
          "name": "G#4",
          "midi": 68,
          "time": 68.33326500000022,
          "velocity": 1,
          "duration": 0.16666650000000516
        },
        {
          "name": "F4",
          "midi": 65,
          "time": 68.33326500000022,
          "velocity": 1,
          "duration": 0.3333329999999961
        },
        {
          "name": "G4",
          "midi": 67,
          "time": 68.58326475000023,
          "velocity": 1,
          "duration": 0.08333324999999547
        },
        {
          "name": "F4",
          "midi": 65,
          "time": 68.66659800000022,
          "velocity": 1,
          "duration": 0.16666650000000516
        },
        {
          "name": "D4",
          "midi": 62,
          "time": 68.83326450000023,
          "velocity": 1,
          "duration": 0.08333324999999547
        },
        {
          "name": "D#4",
          "midi": 63,
          "time": 68.91659775000022,
          "velocity": 1,
          "duration": 0.08333324999999547
        },
        {
          "name": "D4",
          "midi": 62,
          "time": 68.99993100000022,
          "velocity": 1,
          "duration": 0.16666650000000516
        },
        {
          "name": "B3",
          "midi": 59,
          "time": 69.16659750000022,
          "velocity": 1,
          "duration": 0.08333324999999547
        },
        {
          "name": "D5",
          "midi": 74,
          "time": 69.16659750000022,
          "velocity": 1,
          "duration": 0.08333324999999547
        },
        {
          "name": "C4",
          "midi": 60,
          "time": 69.24993075000022,
          "velocity": 1,
          "duration": 0.08333324999999547
        },
        {
          "name": "D#5",
          "midi": 75,
          "time": 69.24993075000022,
          "velocity": 1,
          "duration": 0.08333324999999547
        },
        {
          "name": "B3",
          "midi": 59,
          "time": 69.33326400000021,
          "velocity": 1,
          "duration": 0.16666650000000516
        },
        {
          "name": "D5",
          "midi": 74,
          "time": 69.33326400000021,
          "velocity": 1,
          "duration": 0.16666650000000516
        },
        {
          "name": "G#3",
          "midi": 56,
          "time": 69.49993050000022,
          "velocity": 1,
          "duration": 0.16666649999999095
        },
        {
          "name": "D4",
          "midi": 62,
          "time": 69.49993050000022,
          "velocity": 1,
          "duration": 0.08333324999999547
        },
        {
          "name": "B4",
          "midi": 71,
          "time": 69.49993050000022,
          "velocity": 1,
          "duration": 0.08333324999999547
        },
        {
          "name": "F3",
          "midi": 53,
          "time": 69.49993050000022,
          "velocity": 1,
          "duration": 0.16666649999999095
        },
        {
          "name": "C5",
          "midi": 72,
          "time": 69.58326375000021,
          "velocity": 1,
          "duration": 0.08333324999999547
        },
        {
          "name": "D#4",
          "midi": 63,
          "time": 69.58326375000021,
          "velocity": 1,
          "duration": 0.08333324999999547
        },
        {
          "name": "F3",
          "midi": 53,
          "time": 69.66659700000021,
          "velocity": 1,
          "duration": 0.16666650000000516
        },
        {
          "name": "B4",
          "midi": 71,
          "time": 69.66659700000021,
          "velocity": 1,
          "duration": 0.16666650000000516
        },
        {
          "name": "D4",
          "midi": 62,
          "time": 69.66659700000021,
          "velocity": 1,
          "duration": 0.16666650000000516
        },
        {
          "name": "G#3",
          "midi": 56,
          "time": 69.66659700000021,
          "velocity": 1,
          "duration": 0.16666650000000516
        },
        {
          "name": "F4",
          "midi": 65,
          "time": 69.83326350000021,
          "velocity": 1,
          "duration": 0.16666650000000516
        },
        {
          "name": "D4",
          "midi": 62,
          "time": 69.83326350000021,
          "velocity": 1,
          "duration": 0.16666650000000516
        },
        {
          "name": "B4",
          "midi": 71,
          "time": 69.83326350000021,
          "velocity": 1,
          "duration": 0.16666650000000516
        },
        {
          "name": "G#5",
          "midi": 80,
          "time": 69.83326350000021,
          "velocity": 1,
          "duration": 0.16666650000000516
        },
        {
          "name": "F3",
          "midi": 53,
          "time": 69.83326350000021,
          "velocity": 1,
          "duration": 0.16666650000000516
        },
        {
          "name": "D#3",
          "midi": 51,
          "time": 69.99993000000022,
          "velocity": 1,
          "duration": 0.16666650000000516
        },
        {
          "name": "G5",
          "midi": 79,
          "time": 69.99993000000022,
          "velocity": 1,
          "duration": 0.16666650000000516
        },
        {
          "name": "C5",
          "midi": 72,
          "time": 69.99993000000022,
          "velocity": 1,
          "duration": 0.16666650000000516
        },
        {
          "name": "D#4",
          "midi": 63,
          "time": 69.99993000000022,
          "velocity": 1,
          "duration": 0.16666650000000516
        },
        {
          "name": "C4",
          "midi": 60,
          "time": 70.16659650000022,
          "velocity": 1,
          "duration": 0.3333329999999961
        },
        {
          "name": "G4",
          "midi": 67,
          "time": 70.16659650000022,
          "velocity": 1,
          "duration": 0.3333329999999961
        },
        {
          "name": "D#3",
          "midi": 51,
          "time": 70.16659650000022,
          "velocity": 1,
          "duration": 0.3333329999999961
        },
        {
          "name": "G#4",
          "midi": 68,
          "time": 70.24992975000022,
          "velocity": 1,
          "duration": 0.08333324999999547
        },
        {
          "name": "C4",
          "midi": 60,
          "time": 70.49992950000022,
          "velocity": 1,
          "duration": 0.16666650000000516
        },
        {
          "name": "C5",
          "midi": 72,
          "time": 70.49992950000022,
          "velocity": 1,
          "duration": 0.16666650000000516
        },
        {
          "name": "G5",
          "midi": 79,
          "time": 70.49992950000022,
          "velocity": 1,
          "duration": 0.16666650000000516
        },
        {
          "name": "D#3",
          "midi": 51,
          "time": 70.49992950000022,
          "velocity": 1,
          "duration": 0.16666650000000516
        },
        {
          "name": "F3",
          "midi": 53,
          "time": 70.66659600000023,
          "velocity": 1,
          "duration": 0.16666650000000516
        },
        {
          "name": "A5",
          "midi": 81,
          "time": 70.66659600000023,
          "velocity": 1,
          "duration": 0.16666650000000516
        },
        {
          "name": "C5",
          "midi": 72,
          "time": 70.66659600000023,
          "velocity": 1,
          "duration": 0.16666650000000516
        },
        {
          "name": "A3",
          "midi": 57,
          "time": 70.66659600000023,
          "velocity": 1,
          "duration": 0.16666650000000516
        },
        {
          "name": "F#3",
          "midi": 54,
          "time": 70.83326250000023,
          "velocity": 1,
          "duration": 0.16666650000000516
        },
        {
          "name": "A4",
          "midi": 69,
          "time": 70.83326250000023,
          "velocity": 1,
          "duration": 0.16666650000000516
        },
        {
          "name": "D5",
          "midi": 74,
          "time": 70.83326250000023,
          "velocity": 1,
          "duration": 0.16666650000000516
        },
        {
          "name": "D4",
          "midi": 62,
          "time": 70.83326250000023,
          "velocity": 1,
          "duration": 0.16666650000000516
        },
        {
          "name": "D4",
          "midi": 62,
          "time": 70.99992900000024,
          "velocity": 1,
          "duration": 0.16666650000000516
        },
        {
          "name": "D5",
          "midi": 74,
          "time": 70.99992900000024,
          "velocity": 1,
          "duration": 0.16666650000000516
        },
        {
          "name": "A#5",
          "midi": 82,
          "time": 70.99992900000024,
          "velocity": 1,
          "duration": 0.16666650000000516
        },
        {
          "name": "G3",
          "midi": 55,
          "time": 70.99992900000024,
          "velocity": 1,
          "duration": 0.16666650000000516
        },
        {
          "name": "G3",
          "midi": 55,
          "time": 71.16659550000024,
          "velocity": 1,
          "duration": 0.3333329999999961
        },
        {
          "name": "A#4",
          "midi": 70,
          "time": 71.16659550000024,
          "velocity": 1,
          "duration": 0.08333324999999547
        },
        {
          "name": "D#5",
          "midi": 75,
          "time": 71.16659550000024,
          "velocity": 1,
          "duration": 0.3333329999999961
        },
        {
          "name": "A#3",
          "midi": 58,
          "time": 71.16659550000024,
          "velocity": 1,
          "duration": 0.3333329999999961
        },
        {
          "name": "C5",
          "midi": 72,
          "time": 71.24992875000024,
          "velocity": 1,
          "duration": 0.08333324999999547
        },
        {
          "name": "A#4",
          "midi": 70,
          "time": 71.33326200000023,
          "velocity": 1,
          "duration": 0.16666650000000516
        },
        {
          "name": "G3",
          "midi": 55,
          "time": 71.49992850000024,
          "velocity": 1,
          "duration": 0.16666650000000516
        },
        {
          "name": "A#5",
          "midi": 82,
          "time": 71.49992850000024,
          "velocity": 1,
          "duration": 0.16666650000000516
        },
        {
          "name": "D#5",
          "midi": 75,
          "time": 71.49992850000024,
          "velocity": 1,
          "duration": 0.16666650000000516
        },
        {
          "name": "D#4",
          "midi": 63,
          "time": 71.49992850000024,
          "velocity": 1,
          "duration": 0.16666650000000516
        },
        {
          "name": "C4",
          "midi": 60,
          "time": 71.66659500000024,
          "velocity": 1,
          "duration": 0.16666650000000516
        },
        {
          "name": "D#5",
          "midi": 75,
          "time": 71.66659500000024,
          "velocity": 1,
          "duration": 0.16666650000000516
        },
        {
          "name": "C6",
          "midi": 84,
          "time": 71.66659500000024,
          "velocity": 1,
          "duration": 0.16666650000000516
        },
        {
          "name": "G#3",
          "midi": 56,
          "time": 71.66659500000024,
          "velocity": 1,
          "duration": 0.16666650000000516
        },
        {
          "name": "A3",
          "midi": 57,
          "time": 71.83326150000025,
          "velocity": 1,
          "duration": 0.16666650000000516
        },
        {
          "name": "C5",
          "midi": 72,
          "time": 71.83326150000025,
          "velocity": 1,
          "duration": 0.16666650000000516
        },
        {
          "name": "F5",
          "midi": 77,
          "time": 71.83326150000025,
          "velocity": 1,
          "duration": 0.16666650000000516
        },
        {
          "name": "F4",
          "midi": 65,
          "time": 71.83326150000025,
          "velocity": 1,
          "duration": 0.16666650000000516
        },
        {
          "name": "A#3",
          "midi": 58,
          "time": 71.99992800000025,
          "velocity": 1,
          "duration": 0.16666650000000516
        },
        {
          "name": "D6",
          "midi": 86,
          "time": 71.99992800000025,
          "velocity": 1,
          "duration": 0.16666650000000516
        },
        {
          "name": "F5",
          "midi": 77,
          "time": 71.99992800000025,
          "velocity": 1,
          "duration": 0.16666650000000516
        },
        {
          "name": "F4",
          "midi": 65,
          "time": 71.99992800000025,
          "velocity": 1,
          "duration": 0.16666650000000516
        },
        {
          "name": "A#4",
          "midi": 70,
          "time": 72.16659450000026,
          "velocity": 1,
          "duration": 0.16666650000000516
        },
        {
          "name": "D5",
          "midi": 74,
          "time": 72.16659450000026,
          "velocity": 1,
          "duration": 0.16666650000000516
        },
        {
          "name": "A#3",
          "midi": 58,
          "time": 72.16659450000026,
          "velocity": 1,
          "duration": 0.16666650000000516
        },
        {
          "name": "G#3",
          "midi": 56,
          "time": 72.33326100000026,
          "velocity": 1,
          "duration": 0.16666650000000516
        },
        {
          "name": "D6",
          "midi": 86,
          "time": 72.33326100000026,
          "velocity": 1,
          "duration": 0.16666650000000516
        },
        {
          "name": "A#5",
          "midi": 82,
          "time": 72.33326100000026,
          "velocity": 1,
          "duration": 0.16666650000000516
        },
        {
          "name": "G#4",
          "midi": 68,
          "time": 72.33326100000026,
          "velocity": 1,
          "duration": 0.16666650000000516
        },
        {
          "name": "G#3",
          "midi": 56,
          "time": 72.49992750000027,
          "velocity": 1,
          "duration": 0.16666650000000516
        },
        {
          "name": "D5",
          "midi": 74,
          "time": 72.49992750000027,
          "velocity": 1,
          "duration": 0.16666650000000516
        },
        {
          "name": "A#4",
          "midi": 70,
          "time": 72.49992750000027,
          "velocity": 1,
          "duration": 0.16666650000000516
        },
        {
          "name": "G#4",
          "midi": 68,
          "time": 72.49992750000027,
          "velocity": 1,
          "duration": 0.16666650000000516
        },
        {
          "name": "G4",
          "midi": 67,
          "time": 72.66659400000027,
          "velocity": 1,
          "duration": 0.16666650000000516
        },
        {
          "name": "A#5",
          "midi": 82,
          "time": 72.66659400000027,
          "velocity": 1,
          "duration": 0.16666650000000516
        },
        {
          "name": "D#6",
          "midi": 87,
          "time": 72.66659400000027,
          "velocity": 1,
          "duration": 0.16666650000000516
        },
        {
          "name": "G3",
          "midi": 55,
          "time": 72.66659400000027,
          "velocity": 1,
          "duration": 0.16666650000000516
        },
        {
          "name": "G3",
          "midi": 55,
          "time": 72.83326050000028,
          "velocity": 1,
          "duration": 0.16666650000000516
        },
        {
          "name": "D#5",
          "midi": 75,
          "time": 72.83326050000028,
          "velocity": 1,
          "duration": 0.16666650000000516
        },
        {
          "name": "A#4",
          "midi": 70,
          "time": 72.83326050000028,
          "velocity": 1,
          "duration": 0.16666650000000516
        },
        {
          "name": "G4",
          "midi": 67,
          "time": 72.83326050000028,
          "velocity": 1,
          "duration": 0.16666650000000516
        },
        {
          "name": "F#4",
          "midi": 66,
          "time": 72.99992700000028,
          "velocity": 1,
          "duration": 0.16666650000000516
        },
        {
          "name": "A#5",
          "midi": 82,
          "time": 72.99992700000028,
          "velocity": 1,
          "duration": 0.16666650000000516
        },
        {
          "name": "E6",
          "midi": 88,
          "time": 72.99992700000028,
          "velocity": 1,
          "duration": 0.16666650000000516
        },
        {
          "name": "F#3",
          "midi": 54,
          "time": 72.99992700000028,
          "velocity": 1,
          "duration": 0.16666650000000516
        },
        {
          "name": "F#3",
          "midi": 54,
          "time": 73.16659350000029,
          "velocity": 1,
          "duration": 0.16666650000000516
        },
        {
          "name": "E5",
          "midi": 76,
          "time": 73.16659350000029,
          "velocity": 1,
          "duration": 0.16666650000000516
        },
        {
          "name": "A#4",
          "midi": 70,
          "time": 73.16659350000029,
          "velocity": 1,
          "duration": 0.16666650000000516
        },
        {
          "name": "F#4",
          "midi": 66,
          "time": 73.16659350000029,
          "velocity": 1,
          "duration": 0.16666650000000516
        },
        {
          "name": "F4",
          "midi": 65,
          "time": 73.3332600000003,
          "velocity": 1,
          "duration": 0.16666650000000516
        },
        {
          "name": "A#5",
          "midi": 82,
          "time": 73.3332600000003,
          "velocity": 1,
          "duration": 0.16666650000000516
        },
        {
          "name": "F6",
          "midi": 89,
          "time": 73.3332600000003,
          "velocity": 1,
          "duration": 0.16666650000000516
        },
        {
          "name": "F3",
          "midi": 53,
          "time": 73.3332600000003,
          "velocity": 1,
          "duration": 0.16666650000000516
        },
        {
          "name": "F3",
          "midi": 53,
          "time": 73.4999265000003,
          "velocity": 1,
          "duration": 0.16666650000000516
        },
        {
          "name": "F5",
          "midi": 77,
          "time": 73.4999265000003,
          "velocity": 1,
          "duration": 0.16666650000000516
        },
        {
          "name": "A#4",
          "midi": 70,
          "time": 73.4999265000003,
          "velocity": 1,
          "duration": 0.16666650000000516
        },
        {
          "name": "F4",
          "midi": 65,
          "time": 73.4999265000003,
          "velocity": 1,
          "duration": 0.16666650000000516
        },
        {
          "name": "D4",
          "midi": 62,
          "time": 73.6665930000003,
          "velocity": 1,
          "duration": 0.16666650000000516
        },
        {
          "name": "A#5",
          "midi": 82,
          "time": 73.6665930000003,
          "velocity": 1,
          "duration": 0.16666650000000516
        },
        {
          "name": "F#6",
          "midi": 90,
          "time": 73.6665930000003,
          "velocity": 1,
          "duration": 0.16666650000000516
        },
        {
          "name": "D3",
          "midi": 50,
          "time": 73.6665930000003,
          "velocity": 1,
          "duration": 0.16666650000000516
        },
        {
          "name": "D3",
          "midi": 50,
          "time": 73.83325950000031,
          "velocity": 1,
          "duration": 0.16666650000000516
        },
        {
          "name": "F#5",
          "midi": 78,
          "time": 73.83325950000031,
          "velocity": 1,
          "duration": 0.16666650000000516
        },
        {
          "name": "A#4",
          "midi": 70,
          "time": 73.83325950000031,
          "velocity": 1,
          "duration": 0.16666650000000516
        },
        {
          "name": "D4",
          "midi": 62,
          "time": 73.83325950000031,
          "velocity": 1,
          "duration": 0.16666650000000516
        },
        {
          "name": "D4",
          "midi": 62,
          "time": 73.99992600000031,
          "velocity": 1,
          "duration": 0.08333324999999547
        },
        {
          "name": "A#5",
          "midi": 82,
          "time": 73.99992600000031,
          "velocity": 1,
          "duration": 0.08333324999999547
        },
        {
          "name": "G6",
          "midi": 91,
          "time": 73.99992600000031,
          "velocity": 1,
          "duration": 0.08333324999999547
        },
        {
          "name": "D#3",
          "midi": 51,
          "time": 73.99992600000031,
          "velocity": 1,
          "duration": 0.16666649999999095
        },
        {
          "name": "G6",
          "midi": 91,
          "time": 74.08325925000031,
          "velocity": 1,
          "duration": 0.08333324999999547
        },
        {
          "name": "A#4",
          "midi": 70,
          "time": 74.08325925000031,
          "velocity": 1,
          "duration": 0.08333324999999547
        },
        {
          "name": "A#3",
          "midi": 58,
          "time": 74.08325925000031,
          "velocity": 1,
          "duration": 0.08333324999999547
        },
        {
          "name": "D#3",
          "midi": 51,
          "time": 74.1665925000003,
          "velocity": 1,
          "duration": 0.16666649999999095
        },
        {
          "name": "F#6",
          "midi": 90,
          "time": 74.1665925000003,
          "velocity": 1,
          "duration": 0.08333324999999547
        },
        {
          "name": "A#4",
          "midi": 70,
          "time": 74.1665925000003,
          "velocity": 1,
          "duration": 0.08333324999999547
        },
        {
          "name": "A#3",
          "midi": 58,
          "time": 74.1665925000003,
          "velocity": 1,
          "duration": 0.08333324999999547
        },
        {
          "name": "F#6",
          "midi": 90,
          "time": 74.2499257500003,
          "velocity": 1,
          "duration": 0.08333324999999547
        },
        {
          "name": "A#4",
          "midi": 70,
          "time": 74.2499257500003,
          "velocity": 1,
          "duration": 0.08333324999999547
        },
        {
          "name": "A#3",
          "midi": 58,
          "time": 74.2499257500003,
          "velocity": 1,
          "duration": 0.08333324999999547
        },
        {
          "name": "A#3",
          "midi": 58,
          "time": 74.3332590000003,
          "velocity": 1,
          "duration": 0.08333324999999547
        },
        {
          "name": "A#4",
          "midi": 70,
          "time": 74.3332590000003,
          "velocity": 1,
          "duration": 0.08333324999999547
        },
        {
          "name": "G6",
          "midi": 91,
          "time": 74.3332590000003,
          "velocity": 1,
          "duration": 0.08333324999999547
        },
        {
          "name": "D#3",
          "midi": 51,
          "time": 74.3332590000003,
          "velocity": 1,
          "duration": 0.16666649999999095
        },
        {
          "name": "G6",
          "midi": 91,
          "time": 74.41659225000029,
          "velocity": 1,
          "duration": 0.08333324999999547
        },
        {
          "name": "A#4",
          "midi": 70,
          "time": 74.41659225000029,
          "velocity": 1,
          "duration": 0.08333324999999547
        },
        {
          "name": "A#3",
          "midi": 58,
          "time": 74.41659225000029,
          "velocity": 1,
          "duration": 0.08333324999999547
        },
        {
          "name": "D#3",
          "midi": 51,
          "time": 74.49992550000029,
          "velocity": 1,
          "duration": 0.16666649999999095
        },
        {
          "name": "F#6",
          "midi": 90,
          "time": 74.49992550000029,
          "velocity": 1,
          "duration": 0.08333324999999547
        },
        {
          "name": "A#4",
          "midi": 70,
          "time": 74.49992550000029,
          "velocity": 1,
          "duration": 0.08333324999999547
        },
        {
          "name": "A#3",
          "midi": 58,
          "time": 74.49992550000029,
          "velocity": 1,
          "duration": 0.08333324999999547
        },
        {
          "name": "F#6",
          "midi": 90,
          "time": 74.58325875000028,
          "velocity": 1,
          "duration": 0.08333324999999547
        },
        {
          "name": "A#4",
          "midi": 70,
          "time": 74.58325875000028,
          "velocity": 1,
          "duration": 0.08333324999999547
        },
        {
          "name": "A#3",
          "midi": 58,
          "time": 74.58325875000028,
          "velocity": 1,
          "duration": 0.08333324999999547
        },
        {
          "name": "B3",
          "midi": 59,
          "time": 74.66659200000028,
          "velocity": 1,
          "duration": 0.08333324999999547
        },
        {
          "name": "B4",
          "midi": 71,
          "time": 74.66659200000028,
          "velocity": 1,
          "duration": 0.08333324999999547
        },
        {
          "name": "F6",
          "midi": 89,
          "time": 74.66659200000028,
          "velocity": 1,
          "duration": 0.08333324999999547
        },
        {
          "name": "D#3",
          "midi": 51,
          "time": 74.66659200000028,
          "velocity": 1,
          "duration": 0.16666649999999095
        },
        {
          "name": "F6",
          "midi": 89,
          "time": 74.74992525000027,
          "velocity": 1,
          "duration": 0.08333324999999547
        },
        {
          "name": "B4",
          "midi": 71,
          "time": 74.74992525000027,
          "velocity": 1,
          "duration": 0.08333324999999547
        },
        {
          "name": "B3",
          "midi": 59,
          "time": 74.74992525000027,
          "velocity": 1,
          "duration": 0.08333324999999547
        },
        {
          "name": "D#3",
          "midi": 51,
          "time": 74.83325850000027,
          "velocity": 1,
          "duration": 0.16666649999999095
        },
        {
          "name": "D6",
          "midi": 86,
          "time": 74.83325850000027,
          "velocity": 1,
          "duration": 0.08333324999999547
        },
        {
          "name": "B4",
          "midi": 71,
          "time": 74.83325850000027,
          "velocity": 1,
          "duration": 0.08333324999999547
        },
        {
          "name": "B3",
          "midi": 59,
          "time": 74.83325850000027,
          "velocity": 1,
          "duration": 0.08333324999999547
        },
        {
          "name": "D6",
          "midi": 86,
          "time": 74.91659175000026,
          "velocity": 1,
          "duration": 0.08333324999999547
        },
        {
          "name": "B4",
          "midi": 71,
          "time": 74.91659175000026,
          "velocity": 1,
          "duration": 0.08333324999999547
        },
        {
          "name": "B3",
          "midi": 59,
          "time": 74.91659175000026,
          "velocity": 1,
          "duration": 0.08333324999999547
        },
        {
          "name": "C4",
          "midi": 60,
          "time": 74.99992500000026,
          "velocity": 1,
          "duration": 0.08333324999999547
        },
        {
          "name": "C5",
          "midi": 72,
          "time": 74.99992500000026,
          "velocity": 1,
          "duration": 0.08333324999999547
        },
        {
          "name": "D#6",
          "midi": 87,
          "time": 74.99992500000026,
          "velocity": 1,
          "duration": 0.08333324999999547
        },
        {
          "name": "D#3",
          "midi": 51,
          "time": 74.99992500000026,
          "velocity": 1,
          "duration": 0.16666649999999095
        },
        {
          "name": "D#6",
          "midi": 87,
          "time": 75.08325825000026,
          "velocity": 1,
          "duration": 0.08333324999999547
        },
        {
          "name": "C5",
          "midi": 72,
          "time": 75.08325825000026,
          "velocity": 1,
          "duration": 0.08333324999999547
        },
        {
          "name": "C4",
          "midi": 60,
          "time": 75.08325825000026,
          "velocity": 1,
          "duration": 0.08333324999999547
        },
        {
          "name": "D#3",
          "midi": 51,
          "time": 75.16659150000025,
          "velocity": 1,
          "duration": 0.16666649999999095
        },
        {
          "name": "D6",
          "midi": 86,
          "time": 75.16659150000025,
          "velocity": 1,
          "duration": 0.08333324999999547
        },
        {
          "name": "D5",
          "midi": 74,
          "time": 75.16659150000025,
          "velocity": 1,
          "duration": 0.08333324999999547
        },
        {
          "name": "B3",
          "midi": 59,
          "time": 75.16659150000025,
          "velocity": 1,
          "duration": 0.08333324999999547
        },
        {
          "name": "D6",
          "midi": 86,
          "time": 75.24992475000025,
          "velocity": 1,
          "duration": 0.08333324999999547
        },
        {
          "name": "D5",
          "midi": 74,
          "time": 75.24992475000025,
          "velocity": 1,
          "duration": 0.08333324999999547
        },
        {
          "name": "B3",
          "midi": 59,
          "time": 75.24992475000025,
          "velocity": 1,
          "duration": 0.08333324999999547
        },
        {
          "name": "D4",
          "midi": 62,
          "time": 75.33325800000024,
          "velocity": 1,
          "duration": 0.08333324999999547
        },
        {
          "name": "F5",
          "midi": 77,
          "time": 75.33325800000024,
          "velocity": 1,
          "duration": 0.08333324999999547
        },
        {
          "name": "F6",
          "midi": 89,
          "time": 75.33325800000024,
          "velocity": 1,
          "duration": 0.08333324999999547
        },
        {
          "name": "D#3",
          "midi": 51,
          "time": 75.33325800000024,
          "velocity": 1,
          "duration": 0.16666649999999095
        },
        {
          "name": "F6",
          "midi": 89,
          "time": 75.41659125000024,
          "velocity": 1,
          "duration": 0.08333324999999547
        },
        {
          "name": "F5",
          "midi": 77,
          "time": 75.41659125000024,
          "velocity": 1,
          "duration": 0.08333324999999547
        },
        {
          "name": "D4",
          "midi": 62,
          "time": 75.41659125000024,
          "velocity": 1,
          "duration": 0.08333324999999547
        },
        {
          "name": "D#3",
          "midi": 51,
          "time": 75.49992450000023,
          "velocity": 1,
          "duration": 0.16666649999999095
        },
        {
          "name": "D#6",
          "midi": 87,
          "time": 75.49992450000023,
          "velocity": 1,
          "duration": 0.08333324999999547
        },
        {
          "name": "D#5",
          "midi": 75,
          "time": 75.49992450000023,
          "velocity": 1,
          "duration": 0.08333324999999547
        },
        {
          "name": "C4",
          "midi": 60,
          "time": 75.49992450000023,
          "velocity": 1,
          "duration": 0.08333324999999547
        },
        {
          "name": "D#6",
          "midi": 87,
          "time": 75.58325775000023,
          "velocity": 1,
          "duration": 0.08333324999999547
        },
        {
          "name": "D#5",
          "midi": 75,
          "time": 75.58325775000023,
          "velocity": 1,
          "duration": 0.08333324999999547
        },
        {
          "name": "C4",
          "midi": 60,
          "time": 75.58325775000023,
          "velocity": 1,
          "duration": 0.08333324999999547
        },
        {
          "name": "F4",
          "midi": 65,
          "time": 75.66659100000022,
          "velocity": 1,
          "duration": 0.08333324999999547
        },
        {
          "name": "D5",
          "midi": 74,
          "time": 75.66659100000022,
          "velocity": 1,
          "duration": 0.08333324999999547
        },
        {
          "name": "D6",
          "midi": 86,
          "time": 75.66659100000022,
          "velocity": 1,
          "duration": 0.08333324999999547
        },
        {
          "name": "D#3",
          "midi": 51,
          "time": 75.66659100000022,
          "velocity": 1,
          "duration": 0.16666649999999095
        },
        {
          "name": "D6",
          "midi": 86,
          "time": 75.74992425000022,
          "velocity": 1,
          "duration": 0.08333324999999547
        },
        {
          "name": "D5",
          "midi": 74,
          "time": 75.74992425000022,
          "velocity": 1,
          "duration": 0.08333324999999547
        },
        {
          "name": "F4",
          "midi": 65,
          "time": 75.74992425000022,
          "velocity": 1,
          "duration": 0.08333324999999547
        },
        {
          "name": "D#3",
          "midi": 51,
          "time": 75.83325750000022,
          "velocity": 1,
          "duration": 0.16666649999999095
        },
        {
          "name": "C6",
          "midi": 84,
          "time": 75.83325750000022,
          "velocity": 1,
          "duration": 0.08333324999999547
        },
        {
          "name": "C5",
          "midi": 72,
          "time": 75.83325750000022,
          "velocity": 1,
          "duration": 0.08333324999999547
        },
        {
          "name": "D#4",
          "midi": 63,
          "time": 75.83325750000022,
          "velocity": 1,
          "duration": 0.08333324999999547
        },
        {
          "name": "C6",
          "midi": 84,
          "time": 75.91659075000021,
          "velocity": 1,
          "duration": 0.08333324999999547
        },
        {
          "name": "C5",
          "midi": 72,
          "time": 75.91659075000021,
          "velocity": 1,
          "duration": 0.08333324999999547
        },
        {
          "name": "D#4",
          "midi": 63,
          "time": 75.91659075000021,
          "velocity": 1,
          "duration": 0.08333324999999547
        },
        {
          "name": "D4",
          "midi": 62,
          "time": 75.9999240000002,
          "velocity": 1,
          "duration": 0.08333324999999547
        },
        {
          "name": "A#4",
          "midi": 70,
          "time": 75.9999240000002,
          "velocity": 1,
          "duration": 0.08333324999999547
        },
        {
          "name": "A#5",
          "midi": 82,
          "time": 75.9999240000002,
          "velocity": 1,
          "duration": 0.08333324999999547
        },
        {
          "name": "F3",
          "midi": 53,
          "time": 75.9999240000002,
          "velocity": 1,
          "duration": 0.16666649999999095
        },
        {
          "name": "A#5",
          "midi": 82,
          "time": 76.0832572500002,
          "velocity": 1,
          "duration": 0.08333324999999547
        },
        {
          "name": "A#4",
          "midi": 70,
          "time": 76.0832572500002,
          "velocity": 1,
          "duration": 0.08333324999999547
        },
        {
          "name": "D4",
          "midi": 62,
          "time": 76.0832572500002,
          "velocity": 1,
          "duration": 0.08333324999999547
        },
        {
          "name": "F3",
          "midi": 53,
          "time": 76.1665905000002,
          "velocity": 1,
          "duration": 0.16666649999999095
        },
        {
          "name": "F5",
          "midi": 77,
          "time": 76.1665905000002,
          "velocity": 1,
          "duration": 0.08333324999999547
        },
        {
          "name": "F4",
          "midi": 65,
          "time": 76.1665905000002,
          "velocity": 1,
          "duration": 0.08333324999999547
        },
        {
          "name": "F5",
          "midi": 77,
          "time": 76.24992375000019,
          "velocity": 1,
          "duration": 0.08333324999999547
        },
        {
          "name": "F4",
          "midi": 65,
          "time": 76.24992375000019,
          "velocity": 1,
          "duration": 0.08333324999999547
        },
        {
          "name": "E4",
          "midi": 64,
          "time": 76.33325700000019,
          "velocity": 1,
          "duration": 0.08333324999999547
        },
        {
          "name": "G4",
          "midi": 67,
          "time": 76.33325700000019,
          "velocity": 1,
          "duration": 0.08333324999999547
        },
        {
          "name": "G5",
          "midi": 79,
          "time": 76.33325700000019,
          "velocity": 1,
          "duration": 0.08333324999999547
        },
        {
          "name": "F3",
          "midi": 53,
          "time": 76.33325700000019,
          "velocity": 1,
          "duration": 0.16666649999999095
        },
        {
          "name": "G5",
          "midi": 79,
          "time": 76.41659025000018,
          "velocity": 1,
          "duration": 0.08333324999999547
        },
        {
          "name": "G4",
          "midi": 67,
          "time": 76.41659025000018,
          "velocity": 1,
          "duration": 0.08333324999999547
        },
        {
          "name": "E4",
          "midi": 64,
          "time": 76.41659025000018,
          "velocity": 1,
          "duration": 0.08333324999999547
        },
        {
          "name": "F3",
          "midi": 53,
          "time": 76.49992350000018,
          "velocity": 1,
          "duration": 0.16666649999999095
        },
        {
          "name": "A5",
          "midi": 81,
          "time": 76.49992350000018,
          "velocity": 1,
          "duration": 0.08333324999999547
        },
        {
          "name": "A4",
          "midi": 69,
          "time": 76.49992350000018,
          "velocity": 1,
          "duration": 0.08333324999999547
        },
        {
          "name": "D#4",
          "midi": 63,
          "time": 76.49992350000018,
          "velocity": 1,
          "duration": 0.08333324999999547
        },
        {
          "name": "A5",
          "midi": 81,
          "time": 76.58325675000017,
          "velocity": 1,
          "duration": 0.08333324999999547
        },
        {
          "name": "A4",
          "midi": 69,
          "time": 76.58325675000017,
          "velocity": 1,
          "duration": 0.08333324999999547
        },
        {
          "name": "D#4",
          "midi": 63,
          "time": 76.58325675000017,
          "velocity": 1,
          "duration": 0.08333324999999547
        },
        {
          "name": "D4",
          "midi": 62,
          "time": 76.66659000000017,
          "velocity": 1,
          "duration": 0.08333324999999547
        },
        {
          "name": "A#4",
          "midi": 70,
          "time": 76.66659000000017,
          "velocity": 1,
          "duration": 0.08333324999999547
        },
        {
          "name": "A#5",
          "midi": 82,
          "time": 76.66659000000017,
          "velocity": 1,
          "duration": 0.08333324999999547
        },
        {
          "name": "F3",
          "midi": 53,
          "time": 76.66659000000017,
          "velocity": 1,
          "duration": 0.16666649999999095
        },
        {
          "name": "A#5",
          "midi": 82,
          "time": 76.74992325000017,
          "velocity": 1,
          "duration": 0.08333324999999547
        },
        {
          "name": "A#4",
          "midi": 70,
          "time": 76.74992325000017,
          "velocity": 1,
          "duration": 0.08333324999999547
        },
        {
          "name": "D4",
          "midi": 62,
          "time": 76.74992325000017,
          "velocity": 1,
          "duration": 0.08333324999999547
        },
        {
          "name": "F3",
          "midi": 53,
          "time": 76.83325650000016,
          "velocity": 1,
          "duration": 0.16666649999999095
        },
        {
          "name": "C6",
          "midi": 84,
          "time": 76.83325650000016,
          "velocity": 1,
          "duration": 0.08333324999999547
        },
        {
          "name": "C5",
          "midi": 72,
          "time": 76.83325650000016,
          "velocity": 1,
          "duration": 0.08333324999999547
        },
        {
          "name": "C4",
          "midi": 60,
          "time": 76.83325650000016,
          "velocity": 1,
          "duration": 0.08333324999999547
        },
        {
          "name": "C6",
          "midi": 84,
          "time": 76.91658975000016,
          "velocity": 1,
          "duration": 0.08333324999999547
        },
        {
          "name": "C5",
          "midi": 72,
          "time": 76.91658975000016,
          "velocity": 1,
          "duration": 0.08333324999999547
        },
        {
          "name": "C4",
          "midi": 60,
          "time": 76.91658975000016,
          "velocity": 1,
          "duration": 0.08333324999999547
        },
        {
          "name": "A#3",
          "midi": 58,
          "time": 76.99992300000015,
          "velocity": 1,
          "duration": 0.08333324999999547
        },
        {
          "name": "D5",
          "midi": 74,
          "time": 76.99992300000015,
          "velocity": 1,
          "duration": 0.08333324999999547
        },
        {
          "name": "D6",
          "midi": 86,
          "time": 76.99992300000015,
          "velocity": 1,
          "duration": 0.08333324999999547
        },
        {
          "name": "F3",
          "midi": 53,
          "time": 76.99992300000015,
          "velocity": 1,
          "duration": 0.16666649999999095
        },
        {
          "name": "D6",
          "midi": 86,
          "time": 77.08325625000015,
          "velocity": 1,
          "duration": 0.08333324999999547
        },
        {
          "name": "D5",
          "midi": 74,
          "time": 77.08325625000015,
          "velocity": 1,
          "duration": 0.08333324999999547
        },
        {
          "name": "A#3",
          "midi": 58,
          "time": 77.08325625000015,
          "velocity": 1,
          "duration": 0.08333324999999547
        },
        {
          "name": "F3",
          "midi": 53,
          "time": 77.16658950000014,
          "velocity": 1,
          "duration": 0.16666649999999095
        },
        {
          "name": "D#6",
          "midi": 87,
          "time": 77.16658950000014,
          "velocity": 1,
          "duration": 0.08333324999999547
        },
        {
          "name": "D#5",
          "midi": 75,
          "time": 77.16658950000014,
          "velocity": 1,
          "duration": 0.08333324999999547
        },
        {
          "name": "C4",
          "midi": 60,
          "time": 77.16658950000014,
          "velocity": 1,
          "duration": 0.08333324999999547
        },
        {
          "name": "D#6",
          "midi": 87,
          "time": 77.24992275000014,
          "velocity": 1,
          "duration": 0.08333324999999547
        },
        {
          "name": "D#5",
          "midi": 75,
          "time": 77.24992275000014,
          "velocity": 1,
          "duration": 0.08333324999999547
        },
        {
          "name": "C4",
          "midi": 60,
          "time": 77.24992275000014,
          "velocity": 1,
          "duration": 0.08333324999999547
        },
        {
          "name": "C#4",
          "midi": 61,
          "time": 77.33325600000013,
          "velocity": 1,
          "duration": 0.08333324999999547
        },
        {
          "name": "E5",
          "midi": 76,
          "time": 77.33325600000013,
          "velocity": 1,
          "duration": 0.08333324999999547
        },
        {
          "name": "E6",
          "midi": 88,
          "time": 77.33325600000013,
          "velocity": 1,
          "duration": 0.08333324999999547
        },
        {
          "name": "F3",
          "midi": 53,
          "time": 77.33325600000013,
          "velocity": 1,
          "duration": 0.16666649999999095
        },
        {
          "name": "E6",
          "midi": 88,
          "time": 77.41658925000013,
          "velocity": 1,
          "duration": 0.08333324999999547
        },
        {
          "name": "E5",
          "midi": 76,
          "time": 77.41658925000013,
          "velocity": 1,
          "duration": 0.08333324999999547
        },
        {
          "name": "C#4",
          "midi": 61,
          "time": 77.41658925000013,
          "velocity": 1,
          "duration": 0.08333324999999547
        },
        {
          "name": "F3",
          "midi": 53,
          "time": 77.49992250000012,
          "velocity": 1,
          "duration": 0.16666649999999095
        },
        {
          "name": "F6",
          "midi": 89,
          "time": 77.49992250000012,
          "velocity": 1,
          "duration": 0.08333324999999547
        },
        {
          "name": "F5",
          "midi": 77,
          "time": 77.49992250000012,
          "velocity": 1,
          "duration": 0.08333324999999547
        },
        {
          "name": "D4",
          "midi": 62,
          "time": 77.49992250000012,
          "velocity": 1,
          "duration": 0.08333324999999547
        },
        {
          "name": "F6",
          "midi": 89,
          "time": 77.58325575000012,
          "velocity": 1,
          "duration": 0.08333324999999547
        },
        {
          "name": "F5",
          "midi": 77,
          "time": 77.58325575000012,
          "velocity": 1,
          "duration": 0.08333324999999547
        },
        {
          "name": "D4",
          "midi": 62,
          "time": 77.58325575000012,
          "velocity": 1,
          "duration": 0.08333324999999547
        },
        {
          "name": "C4",
          "midi": 60,
          "time": 77.66658900000012,
          "velocity": 1,
          "duration": 0.08333324999999547
        },
        {
          "name": "D#5",
          "midi": 75,
          "time": 77.66658900000012,
          "velocity": 1,
          "duration": 0.08333324999999547
        },
        {
          "name": "D#6",
          "midi": 87,
          "time": 77.66658900000012,
          "velocity": 1,
          "duration": 0.08333324999999547
        },
        {
          "name": "F3",
          "midi": 53,
          "time": 77.66658900000012,
          "velocity": 1,
          "duration": 0.16666649999999095
        },
        {
          "name": "D#6",
          "midi": 87,
          "time": 77.74992225000011,
          "velocity": 1,
          "duration": 0.08333324999999547
        },
        {
          "name": "D#5",
          "midi": 75,
          "time": 77.74992225000011,
          "velocity": 1,
          "duration": 0.08333324999999547
        },
        {
          "name": "C4",
          "midi": 60,
          "time": 77.74992225000011,
          "velocity": 1,
          "duration": 0.08333324999999547
        },
        {
          "name": "F3",
          "midi": 53,
          "time": 77.8332555000001,
          "velocity": 1,
          "duration": 0.16666649999999095
        },
        {
          "name": "D6",
          "midi": 86,
          "time": 77.8332555000001,
          "velocity": 1,
          "duration": 0.08333324999999547
        },
        {
          "name": "D5",
          "midi": 74,
          "time": 77.8332555000001,
          "velocity": 1,
          "duration": 0.08333324999999547
        },
        {
          "name": "A#3",
          "midi": 58,
          "time": 77.8332555000001,
          "velocity": 1,
          "duration": 0.08333324999999547
        },
        {
          "name": "D6",
          "midi": 86,
          "time": 77.9165887500001,
          "velocity": 1,
          "duration": 0.08333324999999547
        },
        {
          "name": "D5",
          "midi": 74,
          "time": 77.9165887500001,
          "velocity": 1,
          "duration": 0.08333324999999547
        },
        {
          "name": "A#3",
          "midi": 58,
          "time": 77.9165887500001,
          "velocity": 1,
          "duration": 0.08333324999999547
        },
        {
          "name": "A3",
          "midi": 57,
          "time": 77.9999220000001,
          "velocity": 1,
          "duration": 0.08333324999999547
        },
        {
          "name": "C5",
          "midi": 72,
          "time": 77.9999220000001,
          "velocity": 1,
          "duration": 0.08333324999999547
        },
        {
          "name": "C6",
          "midi": 84,
          "time": 77.9999220000001,
          "velocity": 1,
          "duration": 0.08333324999999547
        },
        {
          "name": "F2",
          "midi": 41,
          "time": 77.9999220000001,
          "velocity": 1,
          "duration": 0.16666649999999095
        },
        {
          "name": "C6",
          "midi": 84,
          "time": 78.0832552500001,
          "velocity": 1,
          "duration": 0.08333324999999547
        },
        {
          "name": "C5",
          "midi": 72,
          "time": 78.0832552500001,
          "velocity": 1,
          "duration": 0.08333324999999547
        },
        {
          "name": "C4",
          "midi": 60,
          "time": 78.0832552500001,
          "velocity": 1,
          "duration": 0.08333324999999547
        },
        {
          "name": "D#4",
          "midi": 63,
          "time": 78.0832552500001,
          "velocity": 1,
          "duration": 0.08333324999999547
        },
        {
          "name": "D#4",
          "midi": 63,
          "time": 78.16658850000009,
          "velocity": 1,
          "duration": 0.08333324999999547
        },
        {
          "name": "C4",
          "midi": 60,
          "time": 78.16658850000009,
          "velocity": 1,
          "duration": 0.08333324999999547
        },
        {
          "name": "D5",
          "midi": 74,
          "time": 78.16658850000009,
          "velocity": 1,
          "duration": 0.08333324999999547
        },
        {
          "name": "D6",
          "midi": 86,
          "time": 78.16658850000009,
          "velocity": 1,
          "duration": 0.08333324999999547
        },
        {
          "name": "F3",
          "midi": 53,
          "time": 78.16658850000009,
          "velocity": 1,
          "duration": 0.16666649999999095
        },
        {
          "name": "D6",
          "midi": 86,
          "time": 78.24992175000008,
          "velocity": 1,
          "duration": 0.08333324999999547
        },
        {
          "name": "D5",
          "midi": 74,
          "time": 78.24992175000008,
          "velocity": 1,
          "duration": 0.08333324999999547
        },
        {
          "name": "C4",
          "midi": 60,
          "time": 78.24992175000008,
          "velocity": 1,
          "duration": 0.08333324999999547
        },
        {
          "name": "D#4",
          "midi": 63,
          "time": 78.24992175000008,
          "velocity": 1,
          "duration": 0.08333324999999547
        },
        {
          "name": "D#4",
          "midi": 63,
          "time": 78.33325500000008,
          "velocity": 1,
          "duration": 0.08333324999999547
        },
        {
          "name": "C4",
          "midi": 60,
          "time": 78.33325500000008,
          "velocity": 1,
          "duration": 0.08333324999999547
        },
        {
          "name": "D#5",
          "midi": 75,
          "time": 78.33325500000008,
          "velocity": 1,
          "duration": 0.08333324999999547
        },
        {
          "name": "D#6",
          "midi": 87,
          "time": 78.33325500000008,
          "velocity": 1,
          "duration": 0.08333324999999547
        },
        {
          "name": "F3",
          "midi": 53,
          "time": 78.33325500000008,
          "velocity": 1,
          "duration": 0.16666649999999095
        },
        {
          "name": "D#6",
          "midi": 87,
          "time": 78.41658825000007,
          "velocity": 1,
          "duration": 0.08333324999999547
        },
        {
          "name": "D#5",
          "midi": 75,
          "time": 78.41658825000007,
          "velocity": 1,
          "duration": 0.08333324999999547
        },
        {
          "name": "C4",
          "midi": 60,
          "time": 78.41658825000007,
          "velocity": 1,
          "duration": 0.08333324999999547
        },
        {
          "name": "D#4",
          "midi": 63,
          "time": 78.41658825000007,
          "velocity": 1,
          "duration": 0.08333324999999547
        },
        {
          "name": "F3",
          "midi": 53,
          "time": 78.49992150000007,
          "velocity": 1,
          "duration": 0.16666649999999095
        },
        {
          "name": "D6",
          "midi": 86,
          "time": 78.49992150000007,
          "velocity": 1,
          "duration": 0.08333324999999547
        },
        {
          "name": "D5",
          "midi": 74,
          "time": 78.49992150000007,
          "velocity": 1,
          "duration": 0.08333324999999547
        },
        {
          "name": "C4",
          "midi": 60,
          "time": 78.49992150000007,
          "velocity": 1,
          "duration": 0.08333324999999547
        },
        {
          "name": "D#4",
          "midi": 63,
          "time": 78.49992150000007,
          "velocity": 1,
          "duration": 0.08333324999999547
        },
        {
          "name": "D#4",
          "midi": 63,
          "time": 78.58325475000007,
          "velocity": 1,
          "duration": 0.08333324999999547
        },
        {
          "name": "C4",
          "midi": 60,
          "time": 78.58325475000007,
          "velocity": 1,
          "duration": 0.08333324999999547
        },
        {
          "name": "D5",
          "midi": 74,
          "time": 78.58325475000007,
          "velocity": 1,
          "duration": 0.08333324999999547
        },
        {
          "name": "D6",
          "midi": 86,
          "time": 78.58325475000007,
          "velocity": 1,
          "duration": 0.08333324999999547
        },
        {
          "name": "F3",
          "midi": 53,
          "time": 78.66658800000006,
          "velocity": 1,
          "duration": 0.16666649999999095
        },
        {
          "name": "C6",
          "midi": 84,
          "time": 78.66658800000006,
          "velocity": 1,
          "duration": 0.08333324999999547
        },
        {
          "name": "C5",
          "midi": 72,
          "time": 78.66658800000006,
          "velocity": 1,
          "duration": 0.08333324999999547
        },
        {
          "name": "C4",
          "midi": 60,
          "time": 78.66658800000006,
          "velocity": 1,
          "duration": 0.08333324999999547
        },
        {
          "name": "D#4",
          "midi": 63,
          "time": 78.66658800000006,
          "velocity": 1,
          "duration": 0.08333324999999547
        },
        {
          "name": "C6",
          "midi": 84,
          "time": 78.74992125000006,
          "velocity": 1,
          "duration": 0.08333324999999547
        },
        {
          "name": "C5",
          "midi": 72,
          "time": 78.74992125000006,
          "velocity": 1,
          "duration": 0.08333324999999547
        },
        {
          "name": "C4",
          "midi": 60,
          "time": 78.74992125000006,
          "velocity": 1,
          "duration": 0.08333324999999547
        },
        {
          "name": "D#4",
          "midi": 63,
          "time": 78.74992125000006,
          "velocity": 1,
          "duration": 0.08333324999999547
        },
        {
          "name": "D#4",
          "midi": 63,
          "time": 78.83325450000005,
          "velocity": 1,
          "duration": 0.08333324999999547
        },
        {
          "name": "C4",
          "midi": 60,
          "time": 78.83325450000005,
          "velocity": 1,
          "duration": 0.08333324999999547
        },
        {
          "name": "A#4",
          "midi": 70,
          "time": 78.83325450000005,
          "velocity": 1,
          "duration": 0.08333324999999547
        },
        {
          "name": "A#5",
          "midi": 82,
          "time": 78.83325450000005,
          "velocity": 1,
          "duration": 0.08333324999999547
        },
        {
          "name": "F3",
          "midi": 53,
          "time": 78.83325450000005,
          "velocity": 1,
          "duration": 0.16666649999999095
        },
        {
          "name": "A#5",
          "midi": 82,
          "time": 78.91658775000005,
          "velocity": 1,
          "duration": 0.08333324999999547
        },
        {
          "name": "A#4",
          "midi": 70,
          "time": 78.91658775000005,
          "velocity": 1,
          "duration": 0.08333324999999547
        },
        {
          "name": "C4",
          "midi": 60,
          "time": 78.91658775000005,
          "velocity": 1,
          "duration": 0.08333324999999547
        },
        {
          "name": "D#4",
          "midi": 63,
          "time": 78.91658775000005,
          "velocity": 1,
          "duration": 0.08333324999999547
        },
        {
          "name": "F3",
          "midi": 53,
          "time": 78.99992100000004,
          "velocity": 1,
          "duration": 0.16666649999999095
        },
        {
          "name": "A5",
          "midi": 81,
          "time": 78.99992100000004,
          "velocity": 1,
          "duration": 0.08333324999999547
        },
        {
          "name": "A4",
          "midi": 69,
          "time": 78.99992100000004,
          "velocity": 1,
          "duration": 0.08333324999999547
        },
        {
          "name": "C4",
          "midi": 60,
          "time": 78.99992100000004,
          "velocity": 1,
          "duration": 0.08333324999999547
        },
        {
          "name": "D#4",
          "midi": 63,
          "time": 78.99992100000004,
          "velocity": 1,
          "duration": 0.08333324999999547
        },
        {
          "name": "D#4",
          "midi": 63,
          "time": 79.08325425000004,
          "velocity": 1,
          "duration": 0.08333324999999547
        },
        {
          "name": "C4",
          "midi": 60,
          "time": 79.08325425000004,
          "velocity": 1,
          "duration": 0.08333324999999547
        },
        {
          "name": "A4",
          "midi": 69,
          "time": 79.08325425000004,
          "velocity": 1,
          "duration": 0.08333324999999547
        },
        {
          "name": "A5",
          "midi": 81,
          "time": 79.08325425000004,
          "velocity": 1,
          "duration": 0.08333324999999547
        },
        {
          "name": "F3",
          "midi": 53,
          "time": 79.16658750000003,
          "velocity": 1,
          "duration": 0.16666649999999095
        },
        {
          "name": "A#5",
          "midi": 82,
          "time": 79.16658750000003,
          "velocity": 1,
          "duration": 0.08333324999999547
        },
        {
          "name": "A#4",
          "midi": 70,
          "time": 79.16658750000003,
          "velocity": 1,
          "duration": 0.08333324999999547
        },
        {
          "name": "C4",
          "midi": 60,
          "time": 79.16658750000003,
          "velocity": 1,
          "duration": 0.08333324999999547
        },
        {
          "name": "D#4",
          "midi": 63,
          "time": 79.16658750000003,
          "velocity": 1,
          "duration": 0.08333324999999547
        },
        {
          "name": "A#5",
          "midi": 82,
          "time": 79.24992075000003,
          "velocity": 1,
          "duration": 0.08333324999999547
        },
        {
          "name": "A#4",
          "midi": 70,
          "time": 79.24992075000003,
          "velocity": 1,
          "duration": 0.08333324999999547
        },
        {
          "name": "C4",
          "midi": 60,
          "time": 79.24992075000003,
          "velocity": 1,
          "duration": 0.08333324999999547
        },
        {
          "name": "D#4",
          "midi": 63,
          "time": 79.24992075000003,
          "velocity": 1,
          "duration": 0.08333324999999547
        },
        {
          "name": "D#4",
          "midi": 63,
          "time": 79.33325400000003,
          "velocity": 1,
          "duration": 0.08333324999999547
        },
        {
          "name": "C4",
          "midi": 60,
          "time": 79.33325400000003,
          "velocity": 1,
          "duration": 0.08333324999999547
        },
        {
          "name": "C5",
          "midi": 72,
          "time": 79.33325400000003,
          "velocity": 1,
          "duration": 0.08333324999999547
        },
        {
          "name": "C6",
          "midi": 84,
          "time": 79.33325400000003,
          "velocity": 1,
          "duration": 0.08333324999999547
        },
        {
          "name": "F3",
          "midi": 53,
          "time": 79.33325400000003,
          "velocity": 1,
          "duration": 0.16666649999999095
        },
        {
          "name": "C6",
          "midi": 84,
          "time": 79.41658725000002,
          "velocity": 1,
          "duration": 0.08333324999999547
        },
        {
          "name": "C5",
          "midi": 72,
          "time": 79.41658725000002,
          "velocity": 1,
          "duration": 0.08333324999999547
        },
        {
          "name": "C4",
          "midi": 60,
          "time": 79.41658725000002,
          "velocity": 1,
          "duration": 0.08333324999999547
        },
        {
          "name": "D#4",
          "midi": 63,
          "time": 79.41658725000002,
          "velocity": 1,
          "duration": 0.08333324999999547
        },
        {
          "name": "D#4",
          "midi": 63,
          "time": 79.49992050000002,
          "velocity": 1,
          "duration": 0.08333324999999547
        },
        {
          "name": "C4",
          "midi": 60,
          "time": 79.49992050000002,
          "velocity": 1,
          "duration": 0.08333324999999547
        },
        {
          "name": "A#4",
          "midi": 70,
          "time": 79.49992050000002,
          "velocity": 1,
          "duration": 0.08333324999999547
        },
        {
          "name": "A#5",
          "midi": 82,
          "time": 79.49992050000002,
          "velocity": 1,
          "duration": 0.08333324999999547
        },
        {
          "name": "F3",
          "midi": 53,
          "time": 79.49992050000002,
          "velocity": 1,
          "duration": 0.16666649999999095
        },
        {
          "name": "A#5",
          "midi": 82,
          "time": 79.58325375000001,
          "velocity": 1,
          "duration": 0.08333324999999547
        },
        {
          "name": "A#4",
          "midi": 70,
          "time": 79.58325375000001,
          "velocity": 1,
          "duration": 0.08333324999999547
        },
        {
          "name": "C4",
          "midi": 60,
          "time": 79.58325375000001,
          "velocity": 1,
          "duration": 0.08333324999999547
        },
        {
          "name": "D#4",
          "midi": 63,
          "time": 79.58325375000001,
          "velocity": 1,
          "duration": 0.08333324999999547
        },
        {
          "name": "D#4",
          "midi": 63,
          "time": 79.666587,
          "velocity": 1,
          "duration": 0.08333324999999547
        },
        {
          "name": "C4",
          "midi": 60,
          "time": 79.666587,
          "velocity": 1,
          "duration": 0.08333324999999547
        },
        {
          "name": "A4",
          "midi": 69,
          "time": 79.666587,
          "velocity": 1,
          "duration": 0.08333324999999547
        },
        {
          "name": "A5",
          "midi": 81,
          "time": 79.666587,
          "velocity": 1,
          "duration": 0.08333324999999547
        },
        {
          "name": "F3",
          "midi": 53,
          "time": 79.666587,
          "velocity": 1,
          "duration": 0.16666649999999095
        },
        {
          "name": "A5",
          "midi": 81,
          "time": 79.74992025,
          "velocity": 1,
          "duration": 0.08333324999999547
        },
        {
          "name": "A4",
          "midi": 69,
          "time": 79.74992025,
          "velocity": 1,
          "duration": 0.08333324999999547
        },
        {
          "name": "C4",
          "midi": 60,
          "time": 79.74992025,
          "velocity": 1,
          "duration": 0.08333324999999547
        },
        {
          "name": "D#4",
          "midi": 63,
          "time": 79.74992025,
          "velocity": 1,
          "duration": 0.08333324999999547
        },
        {
          "name": "F3",
          "midi": 53,
          "time": 79.8332535,
          "velocity": 1,
          "duration": 0.16666649999999095
        },
        {
          "name": "G5",
          "midi": 79,
          "time": 79.8332535,
          "velocity": 1,
          "duration": 0.08333324999999547
        },
        {
          "name": "G4",
          "midi": 67,
          "time": 79.8332535,
          "velocity": 1,
          "duration": 0.08333324999999547
        },
        {
          "name": "C4",
          "midi": 60,
          "time": 79.8332535,
          "velocity": 1,
          "duration": 0.08333324999999547
        },
        {
          "name": "D#4",
          "midi": 63,
          "time": 79.8332535,
          "velocity": 1,
          "duration": 0.08333324999999547
        },
        {
          "name": "D#4",
          "midi": 63,
          "time": 79.91658675,
          "velocity": 1,
          "duration": 0.08333324999999547
        },
        {
          "name": "C4",
          "midi": 60,
          "time": 79.91658675,
          "velocity": 1,
          "duration": 0.08333324999999547
        },
        {
          "name": "G4",
          "midi": 67,
          "time": 79.91658675,
          "velocity": 1,
          "duration": 0.08333324999999547
        },
        {
          "name": "G5",
          "midi": 79,
          "time": 79.91658675,
          "velocity": 1,
          "duration": 0.08333324999999547
        },
        {
          "name": "F3",
          "midi": 53,
          "time": 79.99991999999999,
          "velocity": 1,
          "duration": 0.16666649999999095
        },
        {
          "name": "F5",
          "midi": 77,
          "time": 79.99991999999999,
          "velocity": 1,
          "duration": 0.08333324999999547
        },
        {
          "name": "F4",
          "midi": 65,
          "time": 79.99991999999999,
          "velocity": 1,
          "duration": 0.08333324999999547
        },
        {
          "name": "A3",
          "midi": 57,
          "time": 79.99991999999999,
          "velocity": 1,
          "duration": 0.08333324999999547
        },
        {
          "name": "F5",
          "midi": 77,
          "time": 80.08325324999998,
          "velocity": 1,
          "duration": 0.08333324999999547
        },
        {
          "name": "F4",
          "midi": 65,
          "time": 80.08325324999998,
          "velocity": 1,
          "duration": 0.08333324999999547
        },
        {
          "name": "A3",
          "midi": 57,
          "time": 80.08325324999998,
          "velocity": 1,
          "duration": 0.08333324999999547
        },
        {
          "name": "E4",
          "midi": 64,
          "time": 80.16658649999998,
          "velocity": 1,
          "duration": 0.16666649999999095
        },
        {
          "name": "E5",
          "midi": 76,
          "time": 80.16658649999998,
          "velocity": 1,
          "duration": 0.08333324999999547
        },
        {
          "name": "E5",
          "midi": 76,
          "time": 80.24991974999998,
          "velocity": 1,
          "duration": 0.08333324999999547
        },
        {
          "name": "D#4",
          "midi": 63,
          "time": 80.33325299999997,
          "velocity": 1,
          "duration": 0.16666649999999095
        },
        {
          "name": "D#5",
          "midi": 75,
          "time": 80.33325299999997,
          "velocity": 1,
          "duration": 0.08333324999999547
        },
        {
          "name": "D#5",
          "midi": 75,
          "time": 80.41658624999997,
          "velocity": 1,
          "duration": 0.08333324999999547
        },
        {
          "name": "D4",
          "midi": 62,
          "time": 80.49991949999996,
          "velocity": 1,
          "duration": 0.16666649999999095
        },
        {
          "name": "D5",
          "midi": 74,
          "time": 80.49991949999996,
          "velocity": 1,
          "duration": 0.08333324999999547
        },
        {
          "name": "D5",
          "midi": 74,
          "time": 80.58325274999996,
          "velocity": 1,
          "duration": 0.08333324999999547
        },
        {
          "name": "C4",
          "midi": 60,
          "time": 80.66658599999995,
          "velocity": 1,
          "duration": 0.16666649999999095
        },
        {
          "name": "C5",
          "midi": 72,
          "time": 80.66658599999995,
          "velocity": 1,
          "duration": 0.08333324999999547
        },
        {
          "name": "C5",
          "midi": 72,
          "time": 80.74991924999995,
          "velocity": 1,
          "duration": 0.08333324999999547
        },
        {
          "name": "A#3",
          "midi": 58,
          "time": 80.83325249999994,
          "velocity": 1,
          "duration": 0.16666649999999095
        },
        {
          "name": "A#4",
          "midi": 70,
          "time": 80.83325249999994,
          "velocity": 1,
          "duration": 0.08333324999999547
        },
        {
          "name": "A#4",
          "midi": 70,
          "time": 80.91658574999994,
          "velocity": 1,
          "duration": 0.08333324999999547
        },
        {
          "name": "A3",
          "midi": 57,
          "time": 80.99991899999993,
          "velocity": 1,
          "duration": 0.16666649999999095
        },
        {
          "name": "A4",
          "midi": 69,
          "time": 80.99991899999993,
          "velocity": 1,
          "duration": 0.08333324999999547
        },
        {
          "name": "A4",
          "midi": 69,
          "time": 81.08325224999993,
          "velocity": 1,
          "duration": 0.08333324999999547
        },
        {
          "name": "G3",
          "midi": 55,
          "time": 81.16658549999993,
          "velocity": 1,
          "duration": 0.16666649999999095
        },
        {
          "name": "G4",
          "midi": 67,
          "time": 81.16658549999993,
          "velocity": 1,
          "duration": 0.08333324999999547
        },
        {
          "name": "G4",
          "midi": 67,
          "time": 81.24991874999992,
          "velocity": 1,
          "duration": 0.08333324999999547
        },
        {
          "name": "F3",
          "midi": 53,
          "time": 81.33325199999992,
          "velocity": 1,
          "duration": 0.16666649999999095
        },
        {
          "name": "F4",
          "midi": 65,
          "time": 81.33325199999992,
          "velocity": 1,
          "duration": 0.08333324999999547
        },
        {
          "name": "F4",
          "midi": 65,
          "time": 81.41658524999991,
          "velocity": 1,
          "duration": 0.08333324999999547
        },
        {
          "name": "D#3",
          "midi": 51,
          "time": 81.49991849999991,
          "velocity": 1,
          "duration": 0.16666649999999095
        },
        {
          "name": "D#4",
          "midi": 63,
          "time": 81.49991849999991,
          "velocity": 1,
          "duration": 0.08333324999999547
        },
        {
          "name": "D#4",
          "midi": 63,
          "time": 81.5832517499999,
          "velocity": 1,
          "duration": 0.08333324999999547
        },
        {
          "name": "D3",
          "midi": 50,
          "time": 81.6665849999999,
          "velocity": 1,
          "duration": 0.16666649999999095
        },
        {
          "name": "D4",
          "midi": 62,
          "time": 81.6665849999999,
          "velocity": 1,
          "duration": 0.08333324999999547
        },
        {
          "name": "D4",
          "midi": 62,
          "time": 81.7499182499999,
          "velocity": 1,
          "duration": 0.08333324999999547
        },
        {
          "name": "C3",
          "midi": 48,
          "time": 81.83325149999989,
          "velocity": 1,
          "duration": 0.16666649999999095
        },
        {
          "name": "C4",
          "midi": 60,
          "time": 81.83325149999989,
          "velocity": 1,
          "duration": 0.08333324999999547
        },
        {
          "name": "C4",
          "midi": 60,
          "time": 81.91658474999988,
          "velocity": 1,
          "duration": 0.08333324999999547
        },
        {
          "name": "A#2",
          "midi": 46,
          "time": 81.99991799999988,
          "velocity": 1,
          "duration": 0.3333329999999961
        },
        {
          "name": "A#3",
          "midi": 58,
          "time": 81.99991799999988,
          "velocity": 1,
          "duration": 0.3333329999999961
        },
        {
          "name": "D#3",
          "midi": 51,
          "time": 85.33324799999987,
          "velocity": 1,
          "duration": 0.3333329999999961
        },
        {
          "name": "D#3",
          "midi": 51,
          "time": 85.66658099999987,
          "velocity": 1,
          "duration": 0.3333329999999961
        },
        {
          "name": "C3",
          "midi": 48,
          "time": 85.99991399999986,
          "velocity": 1,
          "duration": 0.3333329999999961
        },
        {
          "name": "C4",
          "midi": 60,
          "time": 86.33324699999986,
          "velocity": 1,
          "duration": 0.3333329999999961
        },
        {
          "name": "D#5",
          "midi": 75,
          "time": 86.33324699999986,
          "velocity": 1,
          "duration": 0.3333329999999961
        },
        {
          "name": "G4",
          "midi": 67,
          "time": 86.33324699999986,
          "velocity": 1,
          "duration": 0.3333329999999961
        },
        {
          "name": "D#4",
          "midi": 63,
          "time": 86.33324699999986,
          "velocity": 1,
          "duration": 0.3333329999999961
        },
        {
          "name": "D#4",
          "midi": 63,
          "time": 86.66657999999985,
          "velocity": 1,
          "duration": 0.3333329999999961
        },
        {
          "name": "G#4",
          "midi": 68,
          "time": 86.66657999999985,
          "velocity": 1,
          "duration": 0.3333329999999961
        },
        {
          "name": "D#5",
          "midi": 75,
          "time": 86.66657999999985,
          "velocity": 1,
          "duration": 0.3333329999999961
        },
        {
          "name": "C4",
          "midi": 60,
          "time": 86.66657999999985,
          "velocity": 1,
          "duration": 0.3333329999999961
        },
        {
          "name": "C4",
          "midi": 60,
          "time": 86.99991299999985,
          "velocity": 1,
          "duration": 0.3333329999999961
        },
        {
          "name": "D#5",
          "midi": 75,
          "time": 86.99991299999985,
          "velocity": 1,
          "duration": 0.3333329999999961
        },
        {
          "name": "A4",
          "midi": 69,
          "time": 86.99991299999985,
          "velocity": 1,
          "duration": 0.3333329999999961
        },
        {
          "name": "D#4",
          "midi": 63,
          "time": 86.99991299999985,
          "velocity": 1,
          "duration": 0.3333329999999961
        },
        {
          "name": "C4",
          "midi": 60,
          "time": 87.33324599999985,
          "velocity": 1,
          "duration": 0.3333329999999961
        },
        {
          "name": "F5",
          "midi": 77,
          "time": 87.33324599999985,
          "velocity": 1,
          "duration": 0.3333329999999961
        },
        {
          "name": "A4",
          "midi": 69,
          "time": 87.33324599999985,
          "velocity": 1,
          "duration": 0.3333329999999961
        },
        {
          "name": "D#4",
          "midi": 63,
          "time": 87.33324599999985,
          "velocity": 1,
          "duration": 0.3333329999999961
        },
        {
          "name": "C4",
          "midi": 60,
          "time": 87.66657899999984,
          "velocity": 1,
          "duration": 0.3333329999999961
        },
        {
          "name": "F5",
          "midi": 77,
          "time": 87.66657899999984,
          "velocity": 1,
          "duration": 0.3333329999999961
        },
        {
          "name": "A4",
          "midi": 69,
          "time": 87.66657899999984,
          "velocity": 1,
          "duration": 0.3333329999999961
        },
        {
          "name": "D#4",
          "midi": 63,
          "time": 87.66657899999984,
          "velocity": 1,
          "duration": 0.3333329999999961
        },
        {
          "name": "D#4",
          "midi": 63,
          "time": 87.99991199999984,
          "velocity": 1,
          "duration": 0.3333329999999961
        },
        {
          "name": "A4",
          "midi": 69,
          "time": 87.99991199999984,
          "velocity": 1,
          "duration": 0.3333329999999961
        },
        {
          "name": "F5",
          "midi": 77,
          "time": 87.99991199999984,
          "velocity": 1,
          "duration": 0.3333329999999961
        },
        {
          "name": "C4",
          "midi": 60,
          "time": 87.99991199999984,
          "velocity": 1,
          "duration": 0.3333329999999961
        },
        {
          "name": "C4",
          "midi": 60,
          "time": 88.33324499999983,
          "velocity": 1,
          "duration": 0.6666659999999922
        },
        {
          "name": "F#5",
          "midi": 78,
          "time": 88.33324499999983,
          "velocity": 1,
          "duration": 0.3333329999999961
        },
        {
          "name": "A4",
          "midi": 69,
          "time": 88.33324499999983,
          "velocity": 1,
          "duration": 0.6666659999999922
        },
        {
          "name": "D#4",
          "midi": 63,
          "time": 88.33324499999983,
          "velocity": 1,
          "duration": 0.6666659999999922
        },
        {
          "name": "F3",
          "midi": 53,
          "time": 88.66657799999983,
          "velocity": 1,
          "duration": 0.3333329999999961
        },
        {
          "name": "G5",
          "midi": 79,
          "time": 88.66657799999983,
          "velocity": 1,
          "duration": 0.6666659999999922
        },
        {
          "name": "D#4",
          "midi": 63,
          "time": 88.99991099999983,
          "velocity": 1,
          "duration": 0.8333325000000116
        },
        {
          "name": "A4",
          "midi": 69,
          "time": 88.99991099999983,
          "velocity": 1,
          "duration": 0.8333325000000116
        },
        {
          "name": "C4",
          "midi": 60,
          "time": 88.99991099999983,
          "velocity": 1,
          "duration": 0.8333325000000116
        },
        {
          "name": "F3",
          "midi": 53,
          "time": 89.33324399999982,
          "velocity": 1,
          "duration": 0.3333330000000103
        },
        {
          "name": "F5",
          "midi": 77,
          "time": 89.33324399999982,
          "velocity": 1,
          "duration": 0.16666650000000516
        },
        {
          "name": "D#5",
          "midi": 75,
          "time": 89.49991049999983,
          "velocity": 1,
          "duration": 0.16666650000000516
        },
        {
          "name": "D5",
          "midi": 74,
          "time": 89.66657699999983,
          "velocity": 1,
          "duration": 0.16666650000000516
        },
        {
          "name": "F3",
          "midi": 53,
          "time": 89.66657699999983,
          "velocity": 1,
          "duration": 0.3333330000000103
        },
        {
          "name": "A3",
          "midi": 57,
          "time": 89.83324349999984,
          "velocity": 1,
          "duration": 0.16666650000000516
        },
        {
          "name": "C5",
          "midi": 72,
          "time": 89.83324349999984,
          "velocity": 1,
          "duration": 0.16666650000000516
        },
        {
          "name": "C4",
          "midi": 60,
          "time": 89.83324349999984,
          "velocity": 1,
          "duration": 0.16666650000000516
        },
        {
          "name": "A#3",
          "midi": 58,
          "time": 89.99990999999984,
          "velocity": 1,
          "duration": 0.3333329999999961
        },
        {
          "name": "A#2",
          "midi": 46,
          "time": 89.99990999999984,
          "velocity": 1,
          "duration": 0.3333329999999961
        },
        {
          "name": "A#4",
          "midi": 70,
          "time": 89.99990999999984,
          "velocity": 1,
          "duration": 0.3333329999999961
        },
        {
          "name": "D4",
          "midi": 62,
          "time": 89.99990999999984,
          "velocity": 1,
          "duration": 0.3333329999999961
        },
        {
          "name": "F3",
          "midi": 53,
          "time": 94.33323899999984,
          "velocity": 1,
          "duration": 0.3333329999999961
        },
        {
          "name": "C#3",
          "midi": 49,
          "time": 94.66657199999983,
          "velocity": 1,
          "duration": 0.3333329999999961
        },
        {
          "name": "C3",
          "midi": 48,
          "time": 94.99990499999983,
          "velocity": 1,
          "duration": 0.6666659999999922
        },
        {
          "name": "F4",
          "midi": 65,
          "time": 95.33323799999982,
          "velocity": 1,
          "duration": 0.3333329999999961
        },
        {
          "name": "G#3",
          "midi": 56,
          "time": 95.33323799999982,
          "velocity": 1,
          "duration": 0.3333329999999961
        },
        {
          "name": "D4",
          "midi": 62,
          "time": 95.33323799999982,
          "velocity": 1,
          "duration": 0.3333329999999961
        },
        {
          "name": "B2",
          "midi": 47,
          "time": 95.66657099999982,
          "velocity": 1,
          "duration": 0.3333329999999961
        },
        {
          "name": "F4",
          "midi": 65,
          "time": 95.66657099999982,
          "velocity": 1,
          "duration": 0.3333329999999961
        },
        {
          "name": "G#3",
          "midi": 56,
          "time": 95.66657099999982,
          "velocity": 1,
          "duration": 0.3333329999999961
        },
        {
          "name": "D4",
          "midi": 62,
          "time": 95.66657099999982,
          "velocity": 1,
          "duration": 0.3333329999999961
        },
        {
          "name": "C3",
          "midi": 48,
          "time": 95.99990399999982,
          "velocity": 1,
          "duration": 0.3333329999999961
        },
        {
          "name": "F4",
          "midi": 65,
          "time": 95.99990399999982,
          "velocity": 1,
          "duration": 0.6666659999999922
        },
        {
          "name": "A#3",
          "midi": 58,
          "time": 95.99990399999982,
          "velocity": 1,
          "duration": 0.9999989999999883
        },
        {
          "name": "G3",
          "midi": 55,
          "time": 95.99990399999982,
          "velocity": 1,
          "duration": 0.9999989999999883
        },
        {
          "name": "E4",
          "midi": 64,
          "time": 96.66656999999981,
          "velocity": 1,
          "duration": 0.3333329999999961
        },
        {
          "name": "F3",
          "midi": 53,
          "time": 98.3332349999998,
          "velocity": 1,
          "duration": 0.3333329999999961
        },
        {
          "name": "A4",
          "midi": 69,
          "time": 98.3332349999998,
          "velocity": 1,
          "duration": 0.3333329999999961
        },
        {
          "name": "F#4",
          "midi": 66,
          "time": 98.3332349999998,
          "velocity": 1,
          "duration": 0.3333329999999961
        },
        {
          "name": "C4",
          "midi": 60,
          "time": 98.3332349999998,
          "velocity": 1,
          "duration": 0.3333329999999961
        },
        {
          "name": "D#4",
          "midi": 63,
          "time": 98.3332349999998,
          "velocity": 1,
          "duration": 0.3333329999999961
        },
        {
          "name": "F3",
          "midi": 53,
          "time": 98.6665679999998,
          "velocity": 1,
          "duration": 0.3333329999999961
        },
        {
          "name": "A4",
          "midi": 69,
          "time": 98.6665679999998,
          "velocity": 1,
          "duration": 0.3333329999999961
        },
        {
          "name": "F#4",
          "midi": 66,
          "time": 98.6665679999998,
          "velocity": 1,
          "duration": 0.3333329999999961
        },
        {
          "name": "C4",
          "midi": 60,
          "time": 98.6665679999998,
          "velocity": 1,
          "duration": 0.3333329999999961
        },
        {
          "name": "D#4",
          "midi": 63,
          "time": 98.6665679999998,
          "velocity": 1,
          "duration": 0.3333329999999961
        },
        {
          "name": "F4",
          "midi": 65,
          "time": 99.33323399999979,
          "velocity": 1,
          "duration": 0.3333329999999961
        },
        {
          "name": "D4",
          "midi": 62,
          "time": 99.33323399999979,
          "velocity": 1,
          "duration": 0.3333329999999961
        },
        {
          "name": "A#4",
          "midi": 70,
          "time": 99.33323399999979,
          "velocity": 1,
          "duration": 0.3333329999999961
        },
        {
          "name": "F3",
          "midi": 53,
          "time": 99.33323399999979,
          "velocity": 1,
          "duration": 0.3333329999999961
        },
        {
          "name": "F3",
          "midi": 53,
          "time": 99.66656699999979,
          "velocity": 1,
          "duration": 0.3333329999999961
        },
        {
          "name": "B4",
          "midi": 71,
          "time": 99.66656699999979,
          "velocity": 1,
          "duration": 0.3333329999999961
        },
        {
          "name": "G#4",
          "midi": 68,
          "time": 99.66656699999979,
          "velocity": 1,
          "duration": 0.3333329999999961
        },
        {
          "name": "F4",
          "midi": 65,
          "time": 99.66656699999979,
          "velocity": 1,
          "duration": 0.3333329999999961
        },
        {
          "name": "F3",
          "midi": 53,
          "time": 100.33323299999978,
          "velocity": 1,
          "duration": 0.3333329999999961
        },
        {
          "name": "C5",
          "midi": 72,
          "time": 100.33323299999978,
          "velocity": 1,
          "duration": 0.3333329999999961
        },
        {
          "name": "A4",
          "midi": 69,
          "time": 100.33323299999978,
          "velocity": 1,
          "duration": 0.3333329999999961
        },
        {
          "name": "F4",
          "midi": 65,
          "time": 100.33323299999978,
          "velocity": 1,
          "duration": 0.3333329999999961
        },
        {
          "name": "F4",
          "midi": 65,
          "time": 100.66656599999978,
          "velocity": 1,
          "duration": 0.3333329999999961
        },
        {
          "name": "A#4",
          "midi": 70,
          "time": 100.66656599999978,
          "velocity": 1,
          "duration": 0.3333329999999961
        },
        {
          "name": "D5",
          "midi": 74,
          "time": 100.66656599999978,
          "velocity": 1,
          "duration": 0.3333329999999961
        },
        {
          "name": "F3",
          "midi": 53,
          "time": 100.66656599999978,
          "velocity": 1,
          "duration": 0.3333329999999961
        },
        {
          "name": "F3",
          "midi": 53,
          "time": 100.99989899999977,
          "velocity": 1,
          "duration": 0.3333329999999961
        },
        {
          "name": "D#5",
          "midi": 75,
          "time": 100.99989899999977,
          "velocity": 1,
          "duration": 0.3333329999999961
        },
        {
          "name": "C5",
          "midi": 72,
          "time": 100.99989899999977,
          "velocity": 1,
          "duration": 0.3333329999999961
        },
        {
          "name": "F4",
          "midi": 65,
          "time": 100.99989899999977,
          "velocity": 1,
          "duration": 0.3333329999999961
        },
        {
          "name": "F4",
          "midi": 65,
          "time": 101.33323199999977,
          "velocity": 1,
          "duration": 0.3333329999999961
        },
        {
          "name": "D5",
          "midi": 74,
          "time": 101.33323199999977,
          "velocity": 1,
          "duration": 0.3333329999999961
        },
        {
          "name": "F5",
          "midi": 77,
          "time": 101.33323199999977,
          "velocity": 1,
          "duration": 0.3333329999999961
        },
        {
          "name": "F3",
          "midi": 53,
          "time": 101.33323199999977,
          "velocity": 1,
          "duration": 0.3333329999999961
        },
        {
          "name": "F3",
          "midi": 53,
          "time": 101.66656499999976,
          "velocity": 1,
          "duration": 0.3333329999999961
        },
        {
          "name": "F#5",
          "midi": 78,
          "time": 101.66656499999976,
          "velocity": 1,
          "duration": 0.3333329999999961
        },
        {
          "name": "D5",
          "midi": 74,
          "time": 101.66656499999976,
          "velocity": 1,
          "duration": 0.3333329999999961
        },
        {
          "name": "F4",
          "midi": 65,
          "time": 101.66656499999976,
          "velocity": 1,
          "duration": 0.3333329999999961
        },
        {
          "name": "D#5",
          "midi": 75,
          "time": 101.99989799999976,
          "velocity": 1,
          "duration": 0.16666650000000516
        },
        {
          "name": "G5",
          "midi": 79,
          "time": 101.99989799999976,
          "velocity": 1,
          "duration": 0.16666650000000516
        },
        {
          "name": "F3",
          "midi": 53,
          "time": 101.99989799999976,
          "velocity": 1,
          "duration": 0.16666650000000516
        },
        {
          "name": "F3",
          "midi": 53,
          "time": 102.16656449999977,
          "velocity": 1,
          "duration": 0.16666650000000516
        },
        {
          "name": "F5",
          "midi": 77,
          "time": 102.16656449999977,
          "velocity": 1,
          "duration": 0.16666650000000516
        },
        {
          "name": "D5",
          "midi": 74,
          "time": 102.16656449999977,
          "velocity": 1,
          "duration": 0.16666650000000516
        },
        {
          "name": "F3",
          "midi": 53,
          "time": 102.33323099999977,
          "velocity": 1,
          "duration": 0.16666650000000516
        },
        {
          "name": "D#5",
          "midi": 75,
          "time": 102.33323099999977,
          "velocity": 1,
          "duration": 0.16666650000000516
        },
        {
          "name": "C5",
          "midi": 72,
          "time": 102.33323099999977,
          "velocity": 1,
          "duration": 0.16666650000000516
        },
        {
          "name": "A#4",
          "midi": 70,
          "time": 102.49989749999978,
          "velocity": 1,
          "duration": 0.16666650000000516
        },
        {
          "name": "D5",
          "midi": 74,
          "time": 102.49989749999978,
          "velocity": 1,
          "duration": 0.16666650000000516
        },
        {
          "name": "F3",
          "midi": 53,
          "time": 102.49989749999978,
          "velocity": 1,
          "duration": 0.16666650000000516
        },
        {
          "name": "D#4",
          "midi": 63,
          "time": 102.66656399999978,
          "velocity": 1,
          "duration": 0.16666650000000516
        },
        {
          "name": "F3",
          "midi": 53,
          "time": 102.66656399999978,
          "velocity": 1,
          "duration": 0.16666650000000516
        },
        {
          "name": "C5",
          "midi": 72,
          "time": 102.66656399999978,
          "velocity": 1,
          "duration": 0.16666650000000516
        },
        {
          "name": "A4",
          "midi": 69,
          "time": 102.66656399999978,
          "velocity": 1,
          "duration": 0.16666650000000516
        },
        {
          "name": "G4",
          "midi": 67,
          "time": 102.66656399999978,
          "velocity": 1,
          "duration": 0.16666650000000516
        },
        {
          "name": "F4",
          "midi": 65,
          "time": 102.83323049999979,
          "velocity": 1,
          "duration": 0.16666650000000516
        },
        {
          "name": "A#4",
          "midi": 70,
          "time": 102.83323049999979,
          "velocity": 1,
          "duration": 0.16666650000000516
        },
        {
          "name": "D5",
          "midi": 74,
          "time": 102.83323049999979,
          "velocity": 1,
          "duration": 0.16666650000000516
        },
        {
          "name": "F3",
          "midi": 53,
          "time": 102.83323049999979,
          "velocity": 1,
          "duration": 0.16666650000000516
        },
        {
          "name": "D4",
          "midi": 62,
          "time": 102.83323049999979,
          "velocity": 1,
          "duration": 0.16666650000000516
        },
        {
          "name": "C4",
          "midi": 60,
          "time": 102.99989699999979,
          "velocity": 1,
          "duration": 0.16666650000000516
        },
        {
          "name": "F3",
          "midi": 53,
          "time": 102.99989699999979,
          "velocity": 1,
          "duration": 0.16666650000000516
        },
        {
          "name": "D#5",
          "midi": 75,
          "time": 102.99989699999979,
          "velocity": 1,
          "duration": 0.16666650000000516
        },
        {
          "name": "C5",
          "midi": 72,
          "time": 102.99989699999979,
          "velocity": 1,
          "duration": 0.16666650000000516
        },
        {
          "name": "D#4",
          "midi": 63,
          "time": 102.99989699999979,
          "velocity": 1,
          "duration": 0.16666650000000516
        },
        {
          "name": "D4",
          "midi": 62,
          "time": 103.1665634999998,
          "velocity": 1,
          "duration": 0.16666650000000516
        },
        {
          "name": "F3",
          "midi": 53,
          "time": 103.1665634999998,
          "velocity": 1,
          "duration": 0.16666650000000516
        },
        {
          "name": "D5",
          "midi": 74,
          "time": 103.1665634999998,
          "velocity": 1,
          "duration": 0.16666650000000516
        },
        {
          "name": "A#4",
          "midi": 70,
          "time": 103.1665634999998,
          "velocity": 1,
          "duration": 0.16666650000000516
        },
        {
          "name": "F4",
          "midi": 65,
          "time": 103.1665634999998,
          "velocity": 1,
          "duration": 0.16666650000000516
        },
        {
          "name": "G4",
          "midi": 67,
          "time": 103.3332299999998,
          "velocity": 1,
          "duration": 0.16666650000000516
        },
        {
          "name": "A4",
          "midi": 69,
          "time": 103.3332299999998,
          "velocity": 1,
          "duration": 0.16666650000000516
        },
        {
          "name": "C5",
          "midi": 72,
          "time": 103.3332299999998,
          "velocity": 1,
          "duration": 0.16666650000000516
        },
        {
          "name": "F3",
          "midi": 53,
          "time": 103.3332299999998,
          "velocity": 1,
          "duration": 0.16666650000000516
        },
        {
          "name": "D#4",
          "midi": 63,
          "time": 103.3332299999998,
          "velocity": 1,
          "duration": 0.16666650000000516
        },
        {
          "name": "D4",
          "midi": 62,
          "time": 103.4998964999998,
          "velocity": 1,
          "duration": 0.16666650000000516
        },
        {
          "name": "F3",
          "midi": 53,
          "time": 103.4998964999998,
          "velocity": 1,
          "duration": 0.16666650000000516
        },
        {
          "name": "D5",
          "midi": 74,
          "time": 103.4998964999998,
          "velocity": 1,
          "duration": 0.16666650000000516
        },
        {
          "name": "A#4",
          "midi": 70,
          "time": 103.4998964999998,
          "velocity": 1,
          "duration": 0.16666650000000516
        },
        {
          "name": "F4",
          "midi": 65,
          "time": 103.4998964999998,
          "velocity": 1,
          "duration": 0.16666650000000516
        },
        {
          "name": "C4",
          "midi": 60,
          "time": 103.66656299999981,
          "velocity": 1,
          "duration": 0.16666650000000516
        },
        {
          "name": "F3",
          "midi": 53,
          "time": 103.66656299999981,
          "velocity": 1,
          "duration": 0.16666650000000516
        },
        {
          "name": "D#5",
          "midi": 75,
          "time": 103.66656299999981,
          "velocity": 1,
          "duration": 0.16666650000000516
        },
        {
          "name": "C5",
          "midi": 72,
          "time": 103.66656299999981,
          "velocity": 1,
          "duration": 0.16666650000000516
        },
        {
          "name": "D#4",
          "midi": 63,
          "time": 103.66656299999981,
          "velocity": 1,
          "duration": 0.16666650000000516
        },
        {
          "name": "D4",
          "midi": 62,
          "time": 103.83322949999982,
          "velocity": 1,
          "duration": 0.16666650000000516
        },
        {
          "name": "D5",
          "midi": 74,
          "time": 103.83322949999982,
          "velocity": 1,
          "duration": 0.16666650000000516
        },
        {
          "name": "F5",
          "midi": 77,
          "time": 103.83322949999982,
          "velocity": 1,
          "duration": 0.16666650000000516
        },
        {
          "name": "F3",
          "midi": 53,
          "time": 103.83322949999982,
          "velocity": 1,
          "duration": 0.16666650000000516
        },
        {
          "name": "A#3",
          "midi": 58,
          "time": 103.83322949999982,
          "velocity": 1,
          "duration": 0.16666650000000516
        },
        {
          "name": "A3",
          "midi": 57,
          "time": 103.99989599999982,
          "velocity": 1,
          "duration": 0.16666650000000516
        },
        {
          "name": "F3",
          "midi": 53,
          "time": 103.99989599999982,
          "velocity": 1,
          "duration": 0.16666650000000516
        },
        {
          "name": "G5",
          "midi": 79,
          "time": 103.99989599999982,
          "velocity": 1,
          "duration": 0.16666650000000516
        },
        {
          "name": "D#5",
          "midi": 75,
          "time": 103.99989599999982,
          "velocity": 1,
          "duration": 0.16666650000000516
        },
        {
          "name": "C4",
          "midi": 60,
          "time": 103.99989599999982,
          "velocity": 1,
          "duration": 0.16666650000000516
        },
        {
          "name": "A#3",
          "midi": 58,
          "time": 104.16656249999983,
          "velocity": 1,
          "duration": 0.16666650000000516
        },
        {
          "name": "F3",
          "midi": 53,
          "time": 104.16656249999983,
          "velocity": 1,
          "duration": 0.16666650000000516
        },
        {
          "name": "F5",
          "midi": 77,
          "time": 104.16656249999983,
          "velocity": 1,
          "duration": 0.16666650000000516
        },
        {
          "name": "D5",
          "midi": 74,
          "time": 104.16656249999983,
          "velocity": 1,
          "duration": 0.16666650000000516
        },
        {
          "name": "D4",
          "midi": 62,
          "time": 104.16656249999983,
          "velocity": 1,
          "duration": 0.16666650000000516
        },
        {
          "name": "D#4",
          "midi": 63,
          "time": 104.33322899999983,
          "velocity": 1,
          "duration": 0.16666650000000516
        },
        {
          "name": "C5",
          "midi": 72,
          "time": 104.33322899999983,
          "velocity": 1,
          "duration": 0.16666650000000516
        },
        {
          "name": "D#5",
          "midi": 75,
          "time": 104.33322899999983,
          "velocity": 1,
          "duration": 0.16666650000000516
        },
        {
          "name": "F3",
          "midi": 53,
          "time": 104.33322899999983,
          "velocity": 1,
          "duration": 0.16666650000000516
        },
        {
          "name": "C4",
          "midi": 60,
          "time": 104.33322899999983,
          "velocity": 1,
          "duration": 0.16666650000000516
        },
        {
          "name": "D4",
          "midi": 62,
          "time": 104.49989549999984,
          "velocity": 1,
          "duration": 0.16666650000000516
        },
        {
          "name": "F3",
          "midi": 53,
          "time": 104.49989549999984,
          "velocity": 1,
          "duration": 0.16666650000000516
        },
        {
          "name": "D5",
          "midi": 74,
          "time": 104.49989549999984,
          "velocity": 1,
          "duration": 0.16666650000000516
        },
        {
          "name": "A#4",
          "midi": 70,
          "time": 104.49989549999984,
          "velocity": 1,
          "duration": 0.16666650000000516
        },
        {
          "name": "F4",
          "midi": 65,
          "time": 104.49989549999984,
          "velocity": 1,
          "duration": 0.16666650000000516
        },
        {
          "name": "D#4",
          "midi": 63,
          "time": 104.66656199999984,
          "velocity": 1,
          "duration": 0.16666650000000516
        },
        {
          "name": "F3",
          "midi": 53,
          "time": 104.66656199999984,
          "velocity": 1,
          "duration": 0.16666650000000516
        },
        {
          "name": "C5",
          "midi": 72,
          "time": 104.66656199999984,
          "velocity": 1,
          "duration": 0.16666650000000516
        },
        {
          "name": "A4",
          "midi": 69,
          "time": 104.66656199999984,
          "velocity": 1,
          "duration": 0.16666650000000516
        },
        {
          "name": "G4",
          "midi": 67,
          "time": 104.66656199999984,
          "velocity": 1,
          "duration": 0.16666650000000516
        },
        {
          "name": "F4",
          "midi": 65,
          "time": 104.83322849999985,
          "velocity": 1,
          "duration": 0.16666650000000516
        },
        {
          "name": "A#4",
          "midi": 70,
          "time": 104.83322849999985,
          "velocity": 1,
          "duration": 0.16666650000000516
        },
        {
          "name": "D5",
          "midi": 74,
          "time": 104.83322849999985,
          "velocity": 1,
          "duration": 0.16666650000000516
        },
        {
          "name": "F3",
          "midi": 53,
          "time": 104.83322849999985,
          "velocity": 1,
          "duration": 0.16666650000000516
        },
        {
          "name": "D4",
          "midi": 62,
          "time": 104.83322849999985,
          "velocity": 1,
          "duration": 0.16666650000000516
        },
        {
          "name": "C4",
          "midi": 60,
          "time": 104.99989499999985,
          "velocity": 1,
          "duration": 0.16666650000000516
        },
        {
          "name": "F3",
          "midi": 53,
          "time": 104.99989499999985,
          "velocity": 1,
          "duration": 0.16666650000000516
        },
        {
          "name": "D#5",
          "midi": 75,
          "time": 104.99989499999985,
          "velocity": 1,
          "duration": 0.16666650000000516
        },
        {
          "name": "C5",
          "midi": 72,
          "time": 104.99989499999985,
          "velocity": 1,
          "duration": 0.16666650000000516
        },
        {
          "name": "D#4",
          "midi": 63,
          "time": 104.99989499999985,
          "velocity": 1,
          "duration": 0.16666650000000516
        },
        {
          "name": "F4",
          "midi": 65,
          "time": 105.16656149999986,
          "velocity": 1,
          "duration": 0.16666650000000516
        },
        {
          "name": "A#4",
          "midi": 70,
          "time": 105.16656149999986,
          "velocity": 1,
          "duration": 0.16666650000000516
        },
        {
          "name": "D5",
          "midi": 74,
          "time": 105.16656149999986,
          "velocity": 1,
          "duration": 0.16666650000000516
        },
        {
          "name": "F3",
          "midi": 53,
          "time": 105.16656149999986,
          "velocity": 1,
          "duration": 0.16666650000000516
        },
        {
          "name": "D4",
          "midi": 62,
          "time": 105.16656149999986,
          "velocity": 1,
          "duration": 0.16666650000000516
        },
        {
          "name": "D#4",
          "midi": 63,
          "time": 105.33322799999986,
          "velocity": 1,
          "duration": 0.16666650000000516
        },
        {
          "name": "F3",
          "midi": 53,
          "time": 105.33322799999986,
          "velocity": 1,
          "duration": 0.16666650000000516
        },
        {
          "name": "C5",
          "midi": 72,
          "time": 105.33322799999986,
          "velocity": 1,
          "duration": 0.16666650000000516
        },
        {
          "name": "A4",
          "midi": 69,
          "time": 105.33322799999986,
          "velocity": 1,
          "duration": 0.16666650000000516
        },
        {
          "name": "G4",
          "midi": 67,
          "time": 105.33322799999986,
          "velocity": 1,
          "duration": 0.16666650000000516
        },
        {
          "name": "F4",
          "midi": 65,
          "time": 105.49989449999987,
          "velocity": 1,
          "duration": 0.16666650000000516
        },
        {
          "name": "A#4",
          "midi": 70,
          "time": 105.49989449999987,
          "velocity": 1,
          "duration": 0.16666650000000516
        },
        {
          "name": "D5",
          "midi": 74,
          "time": 105.49989449999987,
          "velocity": 1,
          "duration": 0.16666650000000516
        },
        {
          "name": "F3",
          "midi": 53,
          "time": 105.49989449999987,
          "velocity": 1,
          "duration": 0.16666650000000516
        },
        {
          "name": "D4",
          "midi": 62,
          "time": 105.49989449999987,
          "velocity": 1,
          "duration": 0.16666650000000516
        },
        {
          "name": "C4",
          "midi": 60,
          "time": 105.66656099999987,
          "velocity": 1,
          "duration": 0.16666650000000516
        },
        {
          "name": "F3",
          "midi": 53,
          "time": 105.66656099999987,
          "velocity": 1,
          "duration": 0.16666650000000516
        },
        {
          "name": "D#5",
          "midi": 75,
          "time": 105.66656099999987,
          "velocity": 1,
          "duration": 0.16666650000000516
        },
        {
          "name": "C5",
          "midi": 72,
          "time": 105.66656099999987,
          "velocity": 1,
          "duration": 0.16666650000000516
        },
        {
          "name": "D#4",
          "midi": 63,
          "time": 105.66656099999987,
          "velocity": 1,
          "duration": 0.16666650000000516
        },
        {
          "name": "A#3",
          "midi": 58,
          "time": 105.83322749999988,
          "velocity": 1,
          "duration": 0.16666650000000516
        },
        {
          "name": "F3",
          "midi": 53,
          "time": 105.83322749999988,
          "velocity": 1,
          "duration": 0.16666650000000516
        },
        {
          "name": "F5",
          "midi": 77,
          "time": 105.83322749999988,
          "velocity": 1,
          "duration": 0.16666650000000516
        },
        {
          "name": "D5",
          "midi": 74,
          "time": 105.83322749999988,
          "velocity": 1,
          "duration": 0.16666650000000516
        },
        {
          "name": "D4",
          "midi": 62,
          "time": 105.83322749999988,
          "velocity": 1,
          "duration": 0.16666650000000516
        },
        {
          "name": "C4",
          "midi": 60,
          "time": 105.99989399999988,
          "velocity": 1,
          "duration": 0.16666650000000516
        },
        {
          "name": "D#5",
          "midi": 75,
          "time": 105.99989399999988,
          "velocity": 1,
          "duration": 0.16666650000000516
        },
        {
          "name": "G5",
          "midi": 79,
          "time": 105.99989399999988,
          "velocity": 1,
          "duration": 0.16666650000000516
        },
        {
          "name": "F3",
          "midi": 53,
          "time": 105.99989399999988,
          "velocity": 1,
          "duration": 0.16666650000000516
        },
        {
          "name": "A3",
          "midi": 57,
          "time": 105.99989399999988,
          "velocity": 1,
          "duration": 0.16666650000000516
        },
        {
          "name": "A#3",
          "midi": 58,
          "time": 106.16656049999989,
          "velocity": 1,
          "duration": 0.16666650000000516
        },
        {
          "name": "F3",
          "midi": 53,
          "time": 106.16656049999989,
          "velocity": 1,
          "duration": 0.16666650000000516
        },
        {
          "name": "F5",
          "midi": 77,
          "time": 106.16656049999989,
          "velocity": 1,
          "duration": 0.16666650000000516
        },
        {
          "name": "D5",
          "midi": 74,
          "time": 106.16656049999989,
          "velocity": 1,
          "duration": 0.16666650000000516
        },
        {
          "name": "D4",
          "midi": 62,
          "time": 106.16656049999989,
          "velocity": 1,
          "duration": 0.16666650000000516
        },
        {
          "name": "C4",
          "midi": 60,
          "time": 106.3332269999999,
          "velocity": 1,
          "duration": 0.16666650000000516
        },
        {
          "name": "F3",
          "midi": 53,
          "time": 106.3332269999999,
          "velocity": 1,
          "duration": 0.16666650000000516
        },
        {
          "name": "D#5",
          "midi": 75,
          "time": 106.3332269999999,
          "velocity": 1,
          "duration": 0.16666650000000516
        },
        {
          "name": "C5",
          "midi": 72,
          "time": 106.3332269999999,
          "velocity": 1,
          "duration": 0.16666650000000516
        },
        {
          "name": "D#4",
          "midi": 63,
          "time": 106.3332269999999,
          "velocity": 1,
          "duration": 0.16666650000000516
        },
        {
          "name": "F4",
          "midi": 65,
          "time": 106.4998934999999,
          "velocity": 1,
          "duration": 0.16666650000000516
        },
        {
          "name": "B4",
          "midi": 71,
          "time": 106.4998934999999,
          "velocity": 1,
          "duration": 0.16666650000000516
        },
        {
          "name": "D5",
          "midi": 74,
          "time": 106.4998934999999,
          "velocity": 1,
          "duration": 0.16666650000000516
        },
        {
          "name": "F3",
          "midi": 53,
          "time": 106.4998934999999,
          "velocity": 1,
          "duration": 0.16666650000000516
        },
        {
          "name": "D4",
          "midi": 62,
          "time": 106.4998934999999,
          "velocity": 1,
          "duration": 0.16666650000000516
        },
        {
          "name": "C4",
          "midi": 60,
          "time": 106.6665599999999,
          "velocity": 1,
          "duration": 0.16666650000000516
        },
        {
          "name": "F3",
          "midi": 53,
          "time": 106.6665599999999,
          "velocity": 1,
          "duration": 0.16666650000000516
        },
        {
          "name": "D#5",
          "midi": 75,
          "time": 106.6665599999999,
          "velocity": 1,
          "duration": 0.16666650000000516
        },
        {
          "name": "C5",
          "midi": 72,
          "time": 106.6665599999999,
          "velocity": 1,
          "duration": 0.16666650000000516
        },
        {
          "name": "D#4",
          "midi": 63,
          "time": 106.6665599999999,
          "velocity": 1,
          "duration": 0.16666650000000516
        },
        {
          "name": "A#3",
          "midi": 58,
          "time": 106.83322649999991,
          "velocity": 1,
          "duration": 0.16666650000000516
        },
        {
          "name": "F3",
          "midi": 53,
          "time": 106.83322649999991,
          "velocity": 1,
          "duration": 0.16666650000000516
        },
        {
          "name": "F5",
          "midi": 77,
          "time": 106.83322649999991,
          "velocity": 1,
          "duration": 0.16666650000000516
        },
        {
          "name": "D5",
          "midi": 74,
          "time": 106.83322649999991,
          "velocity": 1,
          "duration": 0.16666650000000516
        },
        {
          "name": "D4",
          "midi": 62,
          "time": 106.83322649999991,
          "velocity": 1,
          "duration": 0.16666650000000516
        },
        {
          "name": "C4",
          "midi": 60,
          "time": 106.99989299999991,
          "velocity": 1,
          "duration": 0.16666650000000516
        },
        {
          "name": "D#5",
          "midi": 75,
          "time": 106.99989299999991,
          "velocity": 1,
          "duration": 0.16666650000000516
        },
        {
          "name": "G5",
          "midi": 79,
          "time": 106.99989299999991,
          "velocity": 1,
          "duration": 0.16666650000000516
        },
        {
          "name": "F3",
          "midi": 53,
          "time": 106.99989299999991,
          "velocity": 1,
          "duration": 0.16666650000000516
        },
        {
          "name": "A3",
          "midi": 57,
          "time": 106.99989299999991,
          "velocity": 1,
          "duration": 0.16666650000000516
        },
        {
          "name": "G3",
          "midi": 55,
          "time": 107.16655949999992,
          "velocity": 1,
          "duration": 0.16666650000000516
        },
        {
          "name": "F3",
          "midi": 53,
          "time": 107.16655949999992,
          "velocity": 1,
          "duration": 0.16666650000000516
        },
        {
          "name": "A5",
          "midi": 81,
          "time": 107.16655949999992,
          "velocity": 1,
          "duration": 0.16666650000000516
        },
        {
          "name": "F5",
          "midi": 77,
          "time": 107.16655949999992,
          "velocity": 1,
          "duration": 0.16666650000000516
        },
        {
          "name": "A#3",
          "midi": 58,
          "time": 107.16655949999992,
          "velocity": 1,
          "duration": 0.16666650000000516
        },
        {
          "name": "A3",
          "midi": 57,
          "time": 107.33322599999993,
          "velocity": 1,
          "duration": 0.16666650000000516
        },
        {
          "name": "G5",
          "midi": 79,
          "time": 107.33322599999993,
          "velocity": 1,
          "duration": 0.16666650000000516
        },
        {
          "name": "A#5",
          "midi": 82,
          "time": 107.33322599999993,
          "velocity": 1,
          "duration": 0.16666650000000516
        },
        {
          "name": "F3",
          "midi": 53,
          "time": 107.33322599999993,
          "velocity": 1,
          "duration": 0.16666650000000516
        },
        {
          "name": "D#3",
          "midi": 51,
          "time": 107.49989249999993,
          "velocity": 1,
          "duration": 0.16666650000000516
        },
        {
          "name": "C6",
          "midi": 84,
          "time": 107.49989249999993,
          "velocity": 1,
          "duration": 0.16666650000000516
        },
        {
          "name": "A5",
          "midi": 81,
          "time": 107.49989249999993,
          "velocity": 1,
          "duration": 0.16666650000000516
        },
        {
          "name": "G3",
          "midi": 55,
          "time": 107.49989249999993,
          "velocity": 1,
          "duration": 0.16666650000000516
        },
        {
          "name": "F3",
          "midi": 53,
          "time": 107.66655899999994,
          "velocity": 1,
          "duration": 0.16666650000000516
        },
        {
          "name": "A#5",
          "midi": 82,
          "time": 107.66655899999994,
          "velocity": 1,
          "duration": 0.16666650000000516
        },
        {
          "name": "D6",
          "midi": 86,
          "time": 107.66655899999994,
          "velocity": 1,
          "duration": 0.16666650000000516
        },
        {
          "name": "D3",
          "midi": 50,
          "time": 107.66655899999994,
          "velocity": 1,
          "duration": 0.16666650000000516
        },
        {
          "name": "C3",
          "midi": 48,
          "time": 107.83322549999994,
          "velocity": 1,
          "duration": 0.16666650000000516
        },
        {
          "name": "D#6",
          "midi": 87,
          "time": 107.83322549999994,
          "velocity": 1,
          "duration": 0.16666650000000516
        },
        {
          "name": "C6",
          "midi": 84,
          "time": 107.83322549999994,
          "velocity": 1,
          "duration": 0.16666650000000516
        },
        {
          "name": "D#3",
          "midi": 51,
          "time": 107.83322549999994,
          "velocity": 1,
          "duration": 0.16666650000000516
        },
        {
          "name": "D3",
          "midi": 50,
          "time": 107.99989199999995,
          "velocity": 1,
          "duration": 0.16666650000000516
        },
        {
          "name": "D6",
          "midi": 86,
          "time": 107.99989199999995,
          "velocity": 1,
          "duration": 0.3333330000000103
        },
        {
          "name": "F6",
          "midi": 89,
          "time": 107.99989199999995,
          "velocity": 1,
          "duration": 0.6666660000000206
        },
        {
          "name": "A#2",
          "midi": 46,
          "time": 107.99989199999995,
          "velocity": 1,
          "duration": 0.16666650000000516
        },
        {
          "name": "F2",
          "midi": 41,
          "time": 108.16655849999995,
          "velocity": 1,
          "duration": 0.16666650000000516
        },
        {
          "name": "D3",
          "midi": 50,
          "time": 108.16655849999995,
          "velocity": 1,
          "duration": 0.16666650000000516
        },
        {
          "name": "F3",
          "midi": 53,
          "time": 108.33322499999996,
          "velocity": 1,
          "duration": 0.16666650000000516
        },
        {
          "name": "F5",
          "midi": 77,
          "time": 108.33322499999996,
          "velocity": 1,
          "duration": 0.3333330000000103
        },
        {
          "name": "A#2",
          "midi": 46,
          "time": 108.33322499999996,
          "velocity": 1,
          "duration": 0.16666650000000516
        },
        {
          "name": "F2",
          "midi": 41,
          "time": 108.49989149999996,
          "velocity": 1,
          "duration": 0.16666650000000516
        },
        {
          "name": "A#3",
          "midi": 58,
          "time": 108.49989149999996,
          "velocity": 1,
          "duration": 0.16666650000000516
        },
        {
          "name": "A#2",
          "midi": 46,
          "time": 108.66655799999997,
          "velocity": 1,
          "duration": 0.16666650000000516
        },
        {
          "name": "D6",
          "midi": 86,
          "time": 108.66655799999997,
          "velocity": 1,
          "duration": 0.3333330000000103
        },
        {
          "name": "D5",
          "midi": 74,
          "time": 108.66655799999997,
          "velocity": 1,
          "duration": 0.3333330000000103
        },
        {
          "name": "D4",
          "midi": 62,
          "time": 108.66655799999997,
          "velocity": 1,
          "duration": 0.16666650000000516
        },
        {
          "name": "F2",
          "midi": 41,
          "time": 108.83322449999997,
          "velocity": 1,
          "duration": 0.16666650000000516
        },
        {
          "name": "D3",
          "midi": 50,
          "time": 108.83322449999997,
          "velocity": 1,
          "duration": 0.16666650000000516
        },
        {
          "name": "A#4",
          "midi": 70,
          "time": 108.99989099999998,
          "velocity": 1,
          "duration": 0.3333330000000103
        },
        {
          "name": "A#5",
          "midi": 82,
          "time": 108.99989099999998,
          "velocity": 1,
          "duration": 0.3333330000000103
        },
        {
          "name": "A#2",
          "midi": 46,
          "time": 108.99989099999998,
          "velocity": 1,
          "duration": 0.16666650000000516
        },
        {
          "name": "F2",
          "midi": 41,
          "time": 109.16655749999998,
          "velocity": 1,
          "duration": 0.16666650000000516
        },
        {
          "name": "D3",
          "midi": 50,
          "time": 109.16655749999998,
          "velocity": 1,
          "duration": 0.16666650000000516
        },
        {
          "name": "A#2",
          "midi": 46,
          "time": 109.33322399999999,
          "velocity": 1,
          "duration": 0.16666650000000516
        },
        {
          "name": "D6",
          "midi": 86,
          "time": 109.33322399999999,
          "velocity": 1,
          "duration": 0.3333330000000103
        },
        {
          "name": "D5",
          "midi": 74,
          "time": 109.33322399999999,
          "velocity": 1,
          "duration": 0.3333330000000103
        },
        {
          "name": "F3",
          "midi": 53,
          "time": 109.33322399999999,
          "velocity": 1,
          "duration": 0.16666650000000516
        },
        {
          "name": "F2",
          "midi": 41,
          "time": 109.49989049999999,
          "velocity": 1,
          "duration": 0.16666650000000516
        },
        {
          "name": "A#3",
          "midi": 58,
          "time": 109.49989049999999,
          "velocity": 1,
          "duration": 0.16666650000000516
        },
        {
          "name": "D4",
          "midi": 62,
          "time": 109.666557,
          "velocity": 1,
          "duration": 0.16666650000000516
        },
        {
          "name": "F4",
          "midi": 65,
          "time": 109.666557,
          "velocity": 1,
          "duration": 0.3333330000000103
        },
        {
          "name": "F5",
          "midi": 77,
          "time": 109.666557,
          "velocity": 1,
          "duration": 0.3333330000000103
        },
        {
          "name": "A#2",
          "midi": 46,
          "time": 109.666557,
          "velocity": 1,
          "duration": 0.16666650000000516
        },
        {
          "name": "F2",
          "midi": 41,
          "time": 109.8332235,
          "velocity": 1,
          "duration": 0.16666650000000516
        },
        {
          "name": "D3",
          "midi": 50,
          "time": 109.8332235,
          "velocity": 1,
          "duration": 0.16666650000000516
        },
        {
          "name": "A2",
          "midi": 45,
          "time": 109.99989000000001,
          "velocity": 1,
          "duration": 0.16666650000000516
        },
        {
          "name": "C6",
          "midi": 84,
          "time": 109.99989000000001,
          "velocity": 1,
          "duration": 0.3333330000000103
        },
        {
          "name": "C5",
          "midi": 72,
          "time": 109.99989000000001,
          "velocity": 1,
          "duration": 0.3333330000000103
        },
        {
          "name": "F2",
          "midi": 41,
          "time": 110.16655650000001,
          "velocity": 1,
          "duration": 0.16666650000000516
        },
        {
          "name": "D#3",
          "midi": 51,
          "time": 110.16655650000001,
          "velocity": 1,
          "duration": 0.16666650000000516
        },
        {
          "name": "F3",
          "midi": 53,
          "time": 110.33322300000002,
          "velocity": 1,
          "duration": 0.16666650000000516
        },
        {
          "name": "D#5",
          "midi": 75,
          "time": 110.33322300000002,
          "velocity": 1,
          "duration": 0.3333330000000103
        },
        {
          "name": "D#6",
          "midi": 87,
          "time": 110.33322300000002,
          "velocity": 1,
          "duration": 0.3333330000000103
        },
        {
          "name": "A2",
          "midi": 45,
          "time": 110.33322300000002,
          "velocity": 1,
          "duration": 0.16666650000000516
        },
        {
          "name": "F2",
          "midi": 41,
          "time": 110.49988950000002,
          "velocity": 1,
          "duration": 0.16666650000000516
        },
        {
          "name": "A3",
          "midi": 57,
          "time": 110.49988950000002,
          "velocity": 1,
          "duration": 0.16666650000000516
        },
        {
          "name": "A2",
          "midi": 45,
          "time": 110.66655600000003,
          "velocity": 1,
          "duration": 0.16666650000000516
        },
        {
          "name": "F5",
          "midi": 77,
          "time": 110.66655600000003,
          "velocity": 1,
          "duration": 0.3333330000000103
        },
        {
          "name": "F4",
          "midi": 65,
          "time": 110.66655600000003,
          "velocity": 1,
          "duration": 0.3333330000000103
        },
        {
          "name": "C4",
          "midi": 60,
          "time": 110.66655600000003,
          "velocity": 1,
          "duration": 0.16666650000000516
        },
        {
          "name": "F2",
          "midi": 41,
          "time": 110.83322250000003,
          "velocity": 1,
          "duration": 0.16666650000000516
        },
        {
          "name": "D#3",
          "midi": 51,
          "time": 110.83322250000003,
          "velocity": 1,
          "duration": 0.16666650000000516
        },
        {
          "name": "A4",
          "midi": 69,
          "time": 110.99988900000004,
          "velocity": 1,
          "duration": 0.3333330000000103
        },
        {
          "name": "A5",
          "midi": 81,
          "time": 110.99988900000004,
          "velocity": 1,
          "duration": 0.3333330000000103
        },
        {
          "name": "C3",
          "midi": 48,
          "time": 110.99988900000004,
          "velocity": 1,
          "duration": 0.16666650000000516
        },
        {
          "name": "F2",
          "midi": 41,
          "time": 111.16655550000004,
          "velocity": 1,
          "duration": 0.16666650000000516
        },
        {
          "name": "D#3",
          "midi": 51,
          "time": 111.16655550000004,
          "velocity": 1,
          "duration": 0.16666650000000516
        },
        {
          "name": "D#3",
          "midi": 51,
          "time": 111.33322200000005,
          "velocity": 1,
          "duration": 0.16666650000000516
        },
        {
          "name": "C6",
          "midi": 84,
          "time": 111.33322200000005,
          "velocity": 1,
          "duration": 0.3333330000000103
        },
        {
          "name": "C5",
          "midi": 72,
          "time": 111.33322200000005,
          "velocity": 1,
          "duration": 0.3333330000000103
        },
        {
          "name": "A3",
          "midi": 57,
          "time": 111.33322200000005,
          "velocity": 1,
          "duration": 0.16666650000000516
        },
        {
          "name": "F2",
          "midi": 41,
          "time": 111.49988850000005,
          "velocity": 1,
          "duration": 0.16666650000000516
        },
        {
          "name": "C4",
          "midi": 60,
          "time": 111.49988850000005,
          "velocity": 1,
          "duration": 0.16666650000000516
        },
        {
          "name": "D#4",
          "midi": 63,
          "time": 111.66655500000006,
          "velocity": 1,
          "duration": 0.16666650000000516
        },
        {
          "name": "F4",
          "midi": 65,
          "time": 111.66655500000006,
          "velocity": 1,
          "duration": 0.3333330000000103
        },
        {
          "name": "F5",
          "midi": 77,
          "time": 111.66655500000006,
          "velocity": 1,
          "duration": 0.3333330000000103
        },
        {
          "name": "A2",
          "midi": 45,
          "time": 111.66655500000006,
          "velocity": 1,
          "duration": 0.16666650000000516
        },
        {
          "name": "F2",
          "midi": 41,
          "time": 111.83322150000006,
          "velocity": 1,
          "duration": 0.16666650000000516
        },
        {
          "name": "D#3",
          "midi": 51,
          "time": 111.83322150000006,
          "velocity": 1,
          "duration": 0.16666650000000516
        },
        {
          "name": "A#2",
          "midi": 46,
          "time": 111.99988800000007,
          "velocity": 1,
          "duration": 0.16666650000000516
        },
        {
          "name": "F6",
          "midi": 89,
          "time": 111.99988800000007,
          "velocity": 1,
          "duration": 0.16666650000000516
        },
        {
          "name": "F5",
          "midi": 77,
          "time": 111.99988800000007,
          "velocity": 1,
          "duration": 0.16666650000000516
        },
        {
          "name": "D5",
          "midi": 74,
          "time": 111.99988800000007,
          "velocity": 1,
          "duration": 0.16666650000000516
        },
        {
          "name": "D3",
          "midi": 50,
          "time": 111.99988800000007,
          "velocity": 1,
          "duration": 0.16666650000000516
        },
        {
          "name": "D3",
          "midi": 50,
          "time": 112.16655450000007,
          "velocity": 1,
          "duration": 0.08333324999999547
        },
        {
          "name": "D4",
          "midi": 62,
          "time": 112.16655450000007,
          "velocity": 1,
          "duration": 0.08333324999999547
        },
        {
          "name": "F5",
          "midi": 77,
          "time": 112.16655450000007,
          "velocity": 1,
          "duration": 0.16666649999999095
        },
        {
          "name": "F6",
          "midi": 89,
          "time": 112.16655450000007,
          "velocity": 1,
          "duration": 0.16666649999999095
        },
        {
          "name": "F2",
          "midi": 41,
          "time": 112.16655450000007,
          "velocity": 1,
          "duration": 0.16666649999999095
        },
        {
          "name": "D4",
          "midi": 62,
          "time": 112.24988775000007,
          "velocity": 1,
          "duration": 0.08333324999999547
        },
        {
          "name": "D3",
          "midi": 50,
          "time": 112.24988775000007,
          "velocity": 1,
          "duration": 0.08333324999999547
        },
        {
          "name": "A#2",
          "midi": 46,
          "time": 112.33322100000007,
          "velocity": 1,
          "duration": 0.16666649999999095
        },
        {
          "name": "F6",
          "midi": 89,
          "time": 112.33322100000007,
          "velocity": 1,
          "duration": 0.16666649999999095
        },
        {
          "name": "F5",
          "midi": 77,
          "time": 112.33322100000007,
          "velocity": 1,
          "duration": 0.16666649999999095
        },
        {
          "name": "F4",
          "midi": 65,
          "time": 112.33322100000007,
          "velocity": 1,
          "duration": 0.08333324999999547
        },
        {
          "name": "F3",
          "midi": 53,
          "time": 112.33322100000007,
          "velocity": 1,
          "duration": 0.08333324999999547
        },
        {
          "name": "F4",
          "midi": 65,
          "time": 112.41655425000006,
          "velocity": 1,
          "duration": 0.08333324999999547
        },
        {
          "name": "F3",
          "midi": 53,
          "time": 112.41655425000006,
          "velocity": 1,
          "duration": 0.08333324999999547
        },
        {
          "name": "A#3",
          "midi": 58,
          "time": 112.49988750000006,
          "velocity": 1,
          "duration": 0.08333324999999547
        },
        {
          "name": "A#4",
          "midi": 70,
          "time": 112.49988750000006,
          "velocity": 1,
          "duration": 0.08333324999999547
        },
        {
          "name": "F5",
          "midi": 77,
          "time": 112.49988750000006,
          "velocity": 1,
          "duration": 0.16666649999999095
        },
        {
          "name": "F6",
          "midi": 89,
          "time": 112.49988750000006,
          "velocity": 1,
          "duration": 0.16666649999999095
        },
        {
          "name": "F2",
          "midi": 41,
          "time": 112.49988750000006,
          "velocity": 1,
          "duration": 0.16666649999999095
        },
        {
          "name": "A#4",
          "midi": 70,
          "time": 112.58322075000005,
          "velocity": 1,
          "duration": 0.08333324999999547
        },
        {
          "name": "A#3",
          "midi": 58,
          "time": 112.58322075000005,
          "velocity": 1,
          "duration": 0.08333324999999547
        },
        {
          "name": "A#2",
          "midi": 46,
          "time": 112.66655400000005,
          "velocity": 1,
          "duration": 0.16666649999999095
        },
        {
          "name": "F6",
          "midi": 89,
          "time": 112.66655400000005,
          "velocity": 1,
          "duration": 0.16666649999999095
        },
        {
          "name": "F5",
          "midi": 77,
          "time": 112.66655400000005,
          "velocity": 1,
          "duration": 0.16666649999999095
        },
        {
          "name": "D5",
          "midi": 74,
          "time": 112.66655400000005,
          "velocity": 1,
          "duration": 0.08333324999999547
        },
        {
          "name": "D4",
          "midi": 62,
          "time": 112.66655400000005,
          "velocity": 1,
          "duration": 0.08333324999999547
        },
        {
          "name": "D5",
          "midi": 74,
          "time": 112.74988725000004,
          "velocity": 1,
          "duration": 0.08333324999999547
        },
        {
          "name": "D4",
          "midi": 62,
          "time": 112.74988725000004,
          "velocity": 1,
          "duration": 0.08333324999999547
        },
        {
          "name": "D3",
          "midi": 50,
          "time": 112.83322050000004,
          "velocity": 1,
          "duration": 0.08333324999999547
        },
        {
          "name": "D4",
          "midi": 62,
          "time": 112.83322050000004,
          "velocity": 1,
          "duration": 0.08333324999999547
        },
        {
          "name": "F5",
          "midi": 77,
          "time": 112.83322050000004,
          "velocity": 1,
          "duration": 0.16666649999999095
        },
        {
          "name": "F6",
          "midi": 89,
          "time": 112.83322050000004,
          "velocity": 1,
          "duration": 0.16666649999999095
        },
        {
          "name": "F2",
          "midi": 41,
          "time": 112.83322050000004,
          "velocity": 1,
          "duration": 0.16666649999999095
        },
        {
          "name": "D4",
          "midi": 62,
          "time": 112.91655375000003,
          "velocity": 1,
          "duration": 0.08333324999999547
        },
        {
          "name": "D3",
          "midi": 50,
          "time": 112.91655375000003,
          "velocity": 1,
          "duration": 0.08333324999999547
        },
        {
          "name": "A#2",
          "midi": 46,
          "time": 112.99988700000003,
          "velocity": 1,
          "duration": 0.16666650000000516
        },
        {
          "name": "F6",
          "midi": 89,
          "time": 112.99988700000003,
          "velocity": 1,
          "duration": 0.16666650000000516
        },
        {
          "name": "F5",
          "midi": 77,
          "time": 112.99988700000003,
          "velocity": 1,
          "duration": 0.16666650000000516
        },
        {
          "name": "D3",
          "midi": 50,
          "time": 113.16655350000003,
          "velocity": 1,
          "duration": 0.08333324999999547
        },
        {
          "name": "D4",
          "midi": 62,
          "time": 113.16655350000003,
          "velocity": 1,
          "duration": 0.08333324999999547
        },
        {
          "name": "F5",
          "midi": 77,
          "time": 113.16655350000003,
          "velocity": 1,
          "duration": 0.16666649999999095
        },
        {
          "name": "F6",
          "midi": 89,
          "time": 113.16655350000003,
          "velocity": 1,
          "duration": 0.16666649999999095
        },
        {
          "name": "F2",
          "midi": 41,
          "time": 113.16655350000003,
          "velocity": 1,
          "duration": 0.16666649999999095
        },
        {
          "name": "D4",
          "midi": 62,
          "time": 113.24988675000003,
          "velocity": 1,
          "duration": 0.08333324999999547
        },
        {
          "name": "D3",
          "midi": 50,
          "time": 113.24988675000003,
          "velocity": 1,
          "duration": 0.08333324999999547
        },
        {
          "name": "F3",
          "midi": 53,
          "time": 113.33322000000003,
          "velocity": 1,
          "duration": 0.08333324999999547
        },
        {
          "name": "F4",
          "midi": 65,
          "time": 113.33322000000003,
          "velocity": 1,
          "duration": 0.08333324999999547
        },
        {
          "name": "F5",
          "midi": 77,
          "time": 113.33322000000003,
          "velocity": 1,
          "duration": 0.16666649999999095
        },
        {
          "name": "F6",
          "midi": 89,
          "time": 113.33322000000003,
          "velocity": 1,
          "duration": 0.16666649999999095
        },
        {
          "name": "A#2",
          "midi": 46,
          "time": 113.33322000000003,
          "velocity": 1,
          "duration": 0.16666649999999095
        },
        {
          "name": "F4",
          "midi": 65,
          "time": 113.41655325000002,
          "velocity": 1,
          "duration": 0.08333324999999547
        },
        {
          "name": "F3",
          "midi": 53,
          "time": 113.41655325000002,
          "velocity": 1,
          "duration": 0.08333324999999547
        },
        {
          "name": "F2",
          "midi": 41,
          "time": 113.49988650000002,
          "velocity": 1,
          "duration": 0.16666649999999095
        },
        {
          "name": "F6",
          "midi": 89,
          "time": 113.49988650000002,
          "velocity": 1,
          "duration": 0.16666649999999095
        },
        {
          "name": "F5",
          "midi": 77,
          "time": 113.49988650000002,
          "velocity": 1,
          "duration": 0.16666649999999095
        },
        {
          "name": "A#4",
          "midi": 70,
          "time": 113.49988650000002,
          "velocity": 1,
          "duration": 0.08333324999999547
        },
        {
          "name": "A#3",
          "midi": 58,
          "time": 113.49988650000002,
          "velocity": 1,
          "duration": 0.08333324999999547
        },
        {
          "name": "A#4",
          "midi": 70,
          "time": 113.58321975000001,
          "velocity": 1,
          "duration": 0.08333324999999547
        },
        {
          "name": "A#3",
          "midi": 58,
          "time": 113.58321975000001,
          "velocity": 1,
          "duration": 0.08333324999999547
        },
        {
          "name": "D4",
          "midi": 62,
          "time": 113.66655300000001,
          "velocity": 1,
          "duration": 0.08333324999999547
        },
        {
          "name": "D5",
          "midi": 74,
          "time": 113.66655300000001,
          "velocity": 1,
          "duration": 0.08333324999999547
        },
        {
          "name": "F5",
          "midi": 77,
          "time": 113.66655300000001,
          "velocity": 1,
          "duration": 0.16666649999999095
        },
        {
          "name": "F6",
          "midi": 89,
          "time": 113.66655300000001,
          "velocity": 1,
          "duration": 0.16666649999999095
        },
        {
          "name": "A#2",
          "midi": 46,
          "time": 113.66655300000001,
          "velocity": 1,
          "duration": 0.16666649999999095
        },
        {
          "name": "D5",
          "midi": 74,
          "time": 113.74988625,
          "velocity": 1,
          "duration": 0.08333324999999547
        },
        {
          "name": "D4",
          "midi": 62,
          "time": 113.74988625,
          "velocity": 1,
          "duration": 0.08333324999999547
        },
        {
          "name": "F2",
          "midi": 41,
          "time": 113.8332195,
          "velocity": 1,
          "duration": 0.16666649999999095
        },
        {
          "name": "F6",
          "midi": 89,
          "time": 113.8332195,
          "velocity": 1,
          "duration": 0.16666649999999095
        },
        {
          "name": "F5",
          "midi": 77,
          "time": 113.8332195,
          "velocity": 1,
          "duration": 0.16666649999999095
        },
        {
          "name": "D4",
          "midi": 62,
          "time": 113.8332195,
          "velocity": 1,
          "duration": 0.08333324999999547
        },
        {
          "name": "D3",
          "midi": 50,
          "time": 113.8332195,
          "velocity": 1,
          "duration": 0.08333324999999547
        },
        {
          "name": "D4",
          "midi": 62,
          "time": 113.91655275,
          "velocity": 1,
          "duration": 0.08333324999999547
        },
        {
          "name": "D3",
          "midi": 50,
          "time": 113.91655275,
          "velocity": 1,
          "duration": 0.08333324999999547
        },
        {
          "name": "F5",
          "midi": 77,
          "time": 113.99988599999999,
          "velocity": 1,
          "duration": 0.16666650000000516
        },
        {
          "name": "F6",
          "midi": 89,
          "time": 113.99988599999999,
          "velocity": 1,
          "duration": 0.16666650000000516
        },
        {
          "name": "A2",
          "midi": 45,
          "time": 113.99988599999999,
          "velocity": 1,
          "duration": 0.16666650000000516
        },
        {
          "name": "F2",
          "midi": 41,
          "time": 114.1665525,
          "velocity": 1,
          "duration": 0.16666649999999095
        },
        {
          "name": "F6",
          "midi": 89,
          "time": 114.1665525,
          "velocity": 1,
          "duration": 0.16666649999999095
        },
        {
          "name": "F5",
          "midi": 77,
          "time": 114.1665525,
          "velocity": 1,
          "duration": 0.16666649999999095
        },
        {
          "name": "D#4",
          "midi": 63,
          "time": 114.1665525,
          "velocity": 1,
          "duration": 0.08333324999999547
        },
        {
          "name": "D#3",
          "midi": 51,
          "time": 114.1665525,
          "velocity": 1,
          "duration": 0.08333324999999547
        },
        {
          "name": "D#3",
          "midi": 51,
          "time": 114.24988574999999,
          "velocity": 1,
          "duration": 0.08333324999999547
        },
        {
          "name": "D#4",
          "midi": 63,
          "time": 114.24988574999999,
          "velocity": 1,
          "duration": 0.08333324999999547
        },
        {
          "name": "A2",
          "midi": 45,
          "time": 114.33321899999999,
          "velocity": 1,
          "duration": 0.16666649999999095
        },
        {
          "name": "F6",
          "midi": 89,
          "time": 114.33321899999999,
          "velocity": 1,
          "duration": 0.16666649999999095
        },
        {
          "name": "F5",
          "midi": 77,
          "time": 114.33321899999999,
          "velocity": 1,
          "duration": 0.16666649999999095
        },
        {
          "name": "F4",
          "midi": 65,
          "time": 114.33321899999999,
          "velocity": 1,
          "duration": 0.08333324999999547
        },
        {
          "name": "F3",
          "midi": 53,
          "time": 114.33321899999999,
          "velocity": 1,
          "duration": 0.08333324999999547
        },
        {
          "name": "F3",
          "midi": 53,
          "time": 114.41655224999998,
          "velocity": 1,
          "duration": 0.08333324999999547
        },
        {
          "name": "F4",
          "midi": 65,
          "time": 114.41655224999998,
          "velocity": 1,
          "duration": 0.08333324999999547
        },
        {
          "name": "F2",
          "midi": 41,
          "time": 114.49988549999998,
          "velocity": 1,
          "duration": 0.16666649999999095
        },
        {
          "name": "F6",
          "midi": 89,
          "time": 114.49988549999998,
          "velocity": 1,
          "duration": 0.16666649999999095
        },
        {
          "name": "F5",
          "midi": 77,
          "time": 114.49988549999998,
          "velocity": 1,
          "duration": 0.16666649999999095
        },
        {
          "name": "C5",
          "midi": 72,
          "time": 114.49988549999998,
          "velocity": 1,
          "duration": 0.08333324999999547
        },
        {
          "name": "C4",
          "midi": 60,
          "time": 114.49988549999998,
          "velocity": 1,
          "duration": 0.08333324999999547
        },
        {
          "name": "C5",
          "midi": 72,
          "time": 114.58321874999997,
          "velocity": 1,
          "duration": 0.08333324999999547
        },
        {
          "name": "C4",
          "midi": 60,
          "time": 114.58321874999997,
          "velocity": 1,
          "duration": 0.08333324999999547
        },
        {
          "name": "A2",
          "midi": 45,
          "time": 114.66655199999997,
          "velocity": 1,
          "duration": 0.16666649999999095
        },
        {
          "name": "F6",
          "midi": 89,
          "time": 114.66655199999997,
          "velocity": 1,
          "duration": 0.16666649999999095
        },
        {
          "name": "F5",
          "midi": 77,
          "time": 114.66655199999997,
          "velocity": 1,
          "duration": 0.16666649999999095
        },
        {
          "name": "D#5",
          "midi": 75,
          "time": 114.66655199999997,
          "velocity": 1,
          "duration": 0.08333324999999547
        },
        {
          "name": "D#4",
          "midi": 63,
          "time": 114.66655199999997,
          "velocity": 1,
          "duration": 0.08333324999999547
        },
        {
          "name": "D#4",
          "midi": 63,
          "time": 114.74988524999996,
          "velocity": 1,
          "duration": 0.08333324999999547
        },
        {
          "name": "D#5",
          "midi": 75,
          "time": 114.74988524999996,
          "velocity": 1,
          "duration": 0.08333324999999547
        },
        {
          "name": "F2",
          "midi": 41,
          "time": 114.83321849999996,
          "velocity": 1,
          "duration": 0.16666649999999095
        },
        {
          "name": "F6",
          "midi": 89,
          "time": 114.83321849999996,
          "velocity": 1,
          "duration": 0.16666649999999095
        },
        {
          "name": "F5",
          "midi": 77,
          "time": 114.83321849999996,
          "velocity": 1,
          "duration": 0.16666649999999095
        },
        {
          "name": "D#4",
          "midi": 63,
          "time": 114.83321849999996,
          "velocity": 1,
          "duration": 0.08333324999999547
        },
        {
          "name": "D#3",
          "midi": 51,
          "time": 114.83321849999996,
          "velocity": 1,
          "duration": 0.08333324999999547
        },
        {
          "name": "D#4",
          "midi": 63,
          "time": 114.91655174999995,
          "velocity": 1,
          "duration": 0.08333324999999547
        },
        {
          "name": "D#3",
          "midi": 51,
          "time": 114.91655174999995,
          "velocity": 1,
          "duration": 0.08333324999999547
        },
        {
          "name": "C3",
          "midi": 48,
          "time": 114.99988499999995,
          "velocity": 1,
          "duration": 0.16666650000000516
        },
        {
          "name": "F6",
          "midi": 89,
          "time": 114.99988499999995,
          "velocity": 1,
          "duration": 0.16666650000000516
        },
        {
          "name": "F5",
          "midi": 77,
          "time": 114.99988499999995,
          "velocity": 1,
          "duration": 0.16666650000000516
        },
        {
          "name": "D#3",
          "midi": 51,
          "time": 115.16655149999995,
          "velocity": 1,
          "duration": 0.08333324999999547
        },
        {
          "name": "D#4",
          "midi": 63,
          "time": 115.16655149999995,
          "velocity": 1,
          "duration": 0.08333324999999547
        },
        {
          "name": "F5",
          "midi": 77,
          "time": 115.16655149999995,
          "velocity": 1,
          "duration": 0.16666649999999095
        },
        {
          "name": "F6",
          "midi": 89,
          "time": 115.16655149999995,
          "velocity": 1,
          "duration": 0.16666649999999095
        },
        {
          "name": "F2",
          "midi": 41,
          "time": 115.16655149999995,
          "velocity": 1,
          "duration": 0.16666649999999095
        },
        {
          "name": "D#4",
          "midi": 63,
          "time": 115.24988474999995,
          "velocity": 1,
          "duration": 0.08333324999999547
        },
        {
          "name": "D#3",
          "midi": 51,
          "time": 115.24988474999995,
          "velocity": 1,
          "duration": 0.08333324999999547
        },
        {
          "name": "D#3",
          "midi": 51,
          "time": 115.33321799999995,
          "velocity": 1,
          "duration": 0.16666649999999095
        },
        {
          "name": "F6",
          "midi": 89,
          "time": 115.33321799999995,
          "velocity": 1,
          "duration": 0.16666649999999095
        },
        {
          "name": "F5",
          "midi": 77,
          "time": 115.33321799999995,
          "velocity": 1,
          "duration": 0.16666649999999095
        },
        {
          "name": "F4",
          "midi": 65,
          "time": 115.33321799999995,
          "velocity": 1,
          "duration": 0.08333324999999547
        },
        {
          "name": "F3",
          "midi": 53,
          "time": 115.33321799999995,
          "velocity": 1,
          "duration": 0.08333324999999547
        },
        {
          "name": "F4",
          "midi": 65,
          "time": 115.41655124999994,
          "velocity": 1,
          "duration": 0.08333324999999547
        },
        {
          "name": "F3",
          "midi": 53,
          "time": 115.41655124999994,
          "velocity": 1,
          "duration": 0.08333324999999547
        },
        {
          "name": "A3",
          "midi": 57,
          "time": 115.49988449999994,
          "velocity": 1,
          "duration": 0.08333324999999547
        },
        {
          "name": "A4",
          "midi": 69,
          "time": 115.49988449999994,
          "velocity": 1,
          "duration": 0.08333324999999547
        },
        {
          "name": "F5",
          "midi": 77,
          "time": 115.49988449999994,
          "velocity": 1,
          "duration": 0.16666649999999095
        },
        {
          "name": "F6",
          "midi": 89,
          "time": 115.49988449999994,
          "velocity": 1,
          "duration": 0.16666649999999095
        },
        {
          "name": "F3",
          "midi": 53,
          "time": 115.49988449999994,
          "velocity": 1,
          "duration": 0.16666649999999095
        },
        {
          "name": "A4",
          "midi": 69,
          "time": 115.58321774999993,
          "velocity": 1,
          "duration": 0.08333324999999547
        },
        {
          "name": "A3",
          "midi": 57,
          "time": 115.58321774999993,
          "velocity": 1,
          "duration": 0.08333324999999547
        },
        {
          "name": "D#3",
          "midi": 51,
          "time": 115.66655099999993,
          "velocity": 1,
          "duration": 0.16666649999999095
        },
        {
          "name": "F6",
          "midi": 89,
          "time": 115.66655099999993,
          "velocity": 1,
          "duration": 0.16666649999999095
        },
        {
          "name": "F5",
          "midi": 77,
          "time": 115.66655099999993,
          "velocity": 1,
          "duration": 0.16666649999999095
        },
        {
          "name": "C5",
          "midi": 72,
          "time": 115.66655099999993,
          "velocity": 1,
          "duration": 0.08333324999999547
        },
        {
          "name": "C4",
          "midi": 60,
          "time": 115.66655099999993,
          "velocity": 1,
          "duration": 0.08333324999999547
        },
        {
          "name": "C5",
          "midi": 72,
          "time": 115.74988424999992,
          "velocity": 1,
          "duration": 0.08333324999999547
        },
        {
          "name": "C4",
          "midi": 60,
          "time": 115.74988424999992,
          "velocity": 1,
          "duration": 0.08333324999999547
        },
        {
          "name": "A3",
          "midi": 57,
          "time": 115.83321749999992,
          "velocity": 1,
          "duration": 0.08333324999999547
        },
        {
          "name": "A4",
          "midi": 69,
          "time": 115.83321749999992,
          "velocity": 1,
          "duration": 0.08333324999999547
        },
        {
          "name": "F5",
          "midi": 77,
          "time": 115.83321749999992,
          "velocity": 1,
          "duration": 0.16666649999999095
        },
        {
          "name": "F6",
          "midi": 89,
          "time": 115.83321749999992,
          "velocity": 1,
          "duration": 0.16666649999999095
        },
        {
          "name": "F3",
          "midi": 53,
          "time": 115.83321749999992,
          "velocity": 1,
          "duration": 0.16666649999999095
        },
        {
          "name": "A4",
          "midi": 69,
          "time": 115.91655074999991,
          "velocity": 1,
          "duration": 0.08333324999999547
        },
        {
          "name": "A3",
          "midi": 57,
          "time": 115.91655074999991,
          "velocity": 1,
          "duration": 0.08333324999999547
        },
        {
          "name": "F4",
          "midi": 65,
          "time": 115.99988399999991,
          "velocity": 1,
          "duration": 0.3333329999999819
        },
        {
          "name": "A#3",
          "midi": 58,
          "time": 115.99988399999991,
          "velocity": 1,
          "duration": 0.3333329999999819
        },
        {
          "name": "A#4",
          "midi": 70,
          "time": 115.99988399999991,
          "velocity": 1,
          "duration": 0.08333324999999547
        },
        {
          "name": "F6",
          "midi": 89,
          "time": 115.99988399999991,
          "velocity": 1,
          "duration": 0.08333324999999547
        },
        {
          "name": "D3",
          "midi": 50,
          "time": 115.99988399999991,
          "velocity": 1,
          "duration": 0.8333324999999547
        },
        {
          "name": "F6",
          "midi": 89,
          "time": 116.0832172499999,
          "velocity": 1,
          "duration": 0.08333324999999547
        },
        {
          "name": "A#4",
          "midi": 70,
          "time": 116.0832172499999,
          "velocity": 1,
          "duration": 0.08333324999999547
        },
        {
          "name": "C#6",
          "midi": 85,
          "time": 116.1665504999999,
          "velocity": 1,
          "duration": 0.08333324999999547
        },
        {
          "name": "C#5",
          "midi": 73,
          "time": 116.1665504999999,
          "velocity": 1,
          "duration": 0.08333324999999547
        },
        {
          "name": "C#6",
          "midi": 85,
          "time": 116.2498837499999,
          "velocity": 1,
          "duration": 0.08333324999999547
        },
        {
          "name": "C#5",
          "midi": 73,
          "time": 116.2498837499999,
          "velocity": 1,
          "duration": 0.08333324999999547
        },
        {
          "name": "D5",
          "midi": 74,
          "time": 116.33321699999989,
          "velocity": 1,
          "duration": 0.08333324999999547
        },
        {
          "name": "D6",
          "midi": 86,
          "time": 116.33321699999989,
          "velocity": 1,
          "duration": 0.08333324999999547
        },
        {
          "name": "D6",
          "midi": 86,
          "time": 116.41655024999989,
          "velocity": 1,
          "duration": 0.08333324999999547
        },
        {
          "name": "D5",
          "midi": 74,
          "time": 116.41655024999989,
          "velocity": 1,
          "duration": 0.08333324999999547
        },
        {
          "name": "A5",
          "midi": 81,
          "time": 116.49988349999988,
          "velocity": 1,
          "duration": 0.08333324999999547
        },
        {
          "name": "A4",
          "midi": 69,
          "time": 116.49988349999988,
          "velocity": 1,
          "duration": 0.08333324999999547
        },
        {
          "name": "A5",
          "midi": 81,
          "time": 116.58321674999988,
          "velocity": 1,
          "duration": 0.08333324999999547
        },
        {
          "name": "A4",
          "midi": 69,
          "time": 116.58321674999988,
          "velocity": 1,
          "duration": 0.08333324999999547
        },
        {
          "name": "A#5",
          "midi": 82,
          "time": 116.66654999999987,
          "velocity": 1,
          "duration": 0.08333324999999547
        },
        {
          "name": "A#4",
          "midi": 70,
          "time": 116.66654999999987,
          "velocity": 1,
          "duration": 0.08333324999999547
        },
        {
          "name": "A#5",
          "midi": 82,
          "time": 116.74988324999987,
          "velocity": 1,
          "duration": 0.08333324999999547
        },
        {
          "name": "A#4",
          "midi": 70,
          "time": 116.74988324999987,
          "velocity": 1,
          "duration": 0.08333324999999547
        },
        {
          "name": "E4",
          "midi": 64,
          "time": 116.83321649999986,
          "velocity": 1,
          "duration": 0.08333324999999547
        },
        {
          "name": "E5",
          "midi": 76,
          "time": 116.83321649999986,
          "velocity": 1,
          "duration": 0.08333324999999547
        },
        {
          "name": "C#3",
          "midi": 49,
          "time": 116.83321649999986,
          "velocity": 1,
          "duration": 0.16666649999999095
        },
        {
          "name": "E5",
          "midi": 76,
          "time": 116.91654974999986,
          "velocity": 1,
          "duration": 0.08333324999999547
        },
        {
          "name": "E4",
          "midi": 64,
          "time": 116.91654974999986,
          "velocity": 1,
          "duration": 0.08333324999999547
        },
        {
          "name": "D3",
          "midi": 50,
          "time": 116.99988299999985,
          "velocity": 1,
          "duration": 0.16666649999999095
        },
        {
          "name": "F5",
          "midi": 77,
          "time": 116.99988299999985,
          "velocity": 1,
          "duration": 0.08333324999999547
        },
        {
          "name": "F4",
          "midi": 65,
          "time": 116.99988299999985,
          "velocity": 1,
          "duration": 0.08333324999999547
        },
        {
          "name": "F4",
          "midi": 65,
          "time": 117.08321624999985,
          "velocity": 1,
          "duration": 0.08333324999999547
        },
        {
          "name": "F5",
          "midi": 77,
          "time": 117.08321624999985,
          "velocity": 1,
          "duration": 0.08333324999999547
        },
        {
          "name": "A2",
          "midi": 45,
          "time": 117.16654949999985,
          "velocity": 1,
          "duration": 0.16666649999999095
        },
        {
          "name": "C#5",
          "midi": 73,
          "time": 117.16654949999985,
          "velocity": 1,
          "duration": 0.08333324999999547
        },
        {
          "name": "C#4",
          "midi": 61,
          "time": 117.16654949999985,
          "velocity": 1,
          "duration": 0.08333324999999547
        },
        {
          "name": "C#5",
          "midi": 73,
          "time": 117.24988274999984,
          "velocity": 1,
          "duration": 0.08333324999999547
        },
        {
          "name": "C#4",
          "midi": 61,
          "time": 117.24988274999984,
          "velocity": 1,
          "duration": 0.08333324999999547
        },
        {
          "name": "D4",
          "midi": 62,
          "time": 117.33321599999984,
          "velocity": 1,
          "duration": 0.08333324999999547
        },
        {
          "name": "D5",
          "midi": 74,
          "time": 117.33321599999984,
          "velocity": 1,
          "duration": 0.08333324999999547
        },
        {
          "name": "A#2",
          "midi": 46,
          "time": 117.33321599999984,
          "velocity": 1,
          "duration": 0.16666649999999095
        },
        {
          "name": "D5",
          "midi": 74,
          "time": 117.41654924999983,
          "velocity": 1,
          "duration": 0.08333324999999547
        },
        {
          "name": "D4",
          "midi": 62,
          "time": 117.41654924999983,
          "velocity": 1,
          "duration": 0.08333324999999547
        },
        {
          "name": "C3",
          "midi": 48,
          "time": 117.49988249999983,
          "velocity": 1,
          "duration": 0.16666649999999095
        },
        {
          "name": "A4",
          "midi": 69,
          "time": 117.49988249999983,
          "velocity": 1,
          "duration": 0.08333324999999547
        },
        {
          "name": "A3",
          "midi": 57,
          "time": 117.49988249999983,
          "velocity": 1,
          "duration": 0.08333324999999547
        },
        {
          "name": "D#3",
          "midi": 51,
          "time": 117.49988249999983,
          "velocity": 1,
          "duration": 0.08333324999999547
        },
        {
          "name": "D#3",
          "midi": 51,
          "time": 117.58321574999982,
          "velocity": 1,
          "duration": 0.08333324999999547
        },
        {
          "name": "A3",
          "midi": 57,
          "time": 117.58321574999982,
          "velocity": 1,
          "duration": 0.08333324999999547
        },
        {
          "name": "A4",
          "midi": 69,
          "time": 117.58321574999982,
          "velocity": 1,
          "duration": 0.08333324999999547
        },
        {
          "name": "C#3",
          "midi": 49,
          "time": 117.66654899999982,
          "velocity": 1,
          "duration": 0.16666649999999095
        },
        {
          "name": "A#4",
          "midi": 70,
          "time": 117.66654899999982,
          "velocity": 1,
          "duration": 0.08333324999999547
        },
        {
          "name": "A#3",
          "midi": 58,
          "time": 117.66654899999982,
          "velocity": 1,
          "duration": 0.08333324999999547
        },
        {
          "name": "E3",
          "midi": 52,
          "time": 117.66654899999982,
          "velocity": 1,
          "duration": 0.08333324999999547
        },
        {
          "name": "E3",
          "midi": 52,
          "time": 117.74988224999981,
          "velocity": 1,
          "duration": 0.08333324999999547
        },
        {
          "name": "A#3",
          "midi": 58,
          "time": 117.74988224999981,
          "velocity": 1,
          "duration": 0.08333324999999547
        },
        {
          "name": "A#4",
          "midi": 70,
          "time": 117.74988224999981,
          "velocity": 1,
          "duration": 0.08333324999999547
        },
        {
          "name": "D3",
          "midi": 50,
          "time": 117.83321549999981,
          "velocity": 1,
          "duration": 0.16666649999999095
        },
        {
          "name": "G#4",
          "midi": 68,
          "time": 117.83321549999981,
          "velocity": 1,
          "duration": 0.08333324999999547
        },
        {
          "name": "G#3",
          "midi": 56,
          "time": 117.83321549999981,
          "velocity": 1,
          "duration": 0.08333324999999547
        },
        {
          "name": "F3",
          "midi": 53,
          "time": 117.83321549999981,
          "velocity": 1,
          "duration": 0.08333324999999547
        },
        {
          "name": "G#4",
          "midi": 68,
          "time": 117.9165487499998,
          "velocity": 1,
          "duration": 0.08333324999999547
        },
        {
          "name": "G#3",
          "midi": 56,
          "time": 117.9165487499998,
          "velocity": 1,
          "duration": 0.08333324999999547
        },
        {
          "name": "F3",
          "midi": 53,
          "time": 117.9165487499998,
          "velocity": 1,
          "duration": 0.08333324999999547
        },
        {
          "name": "D#3",
          "midi": 51,
          "time": 117.9998819999998,
          "velocity": 1,
          "duration": 0.16666649999999095
        },
        {
          "name": "G4",
          "midi": 67,
          "time": 117.9998819999998,
          "velocity": 1,
          "duration": 0.08333324999999547
        },
        {
          "name": "G3",
          "midi": 55,
          "time": 117.9998819999998,
          "velocity": 1,
          "duration": 0.08333324999999547
        },
        {
          "name": "G3",
          "midi": 55,
          "time": 118.0832152499998,
          "velocity": 1,
          "duration": 0.08333324999999547
        },
        {
          "name": "G4",
          "midi": 67,
          "time": 118.0832152499998,
          "velocity": 1,
          "duration": 0.08333324999999547
        },
        {
          "name": "D3",
          "midi": 50,
          "time": 118.16654849999979,
          "velocity": 1,
          "duration": 0.16666649999999095
        },
        {
          "name": "B4",
          "midi": 71,
          "time": 118.16654849999979,
          "velocity": 1,
          "duration": 0.08333324999999547
        },
        {
          "name": "B3",
          "midi": 59,
          "time": 118.16654849999979,
          "velocity": 1,
          "duration": 0.08333324999999547
        },
        {
          "name": "F3",
          "midi": 53,
          "time": 118.16654849999979,
          "velocity": 1,
          "duration": 0.08333324999999547
        },
        {
          "name": "B4",
          "midi": 71,
          "time": 118.24988174999979,
          "velocity": 1,
          "duration": 0.08333324999999547
        },
        {
          "name": "B3",
          "midi": 59,
          "time": 118.24988174999979,
          "velocity": 1,
          "duration": 0.08333324999999547
        },
        {
          "name": "F3",
          "midi": 53,
          "time": 118.24988174999979,
          "velocity": 1,
          "duration": 0.08333324999999547
        },
        {
          "name": "C3",
          "midi": 48,
          "time": 118.33321499999978,
          "velocity": 1,
          "duration": 0.16666649999999095
        },
        {
          "name": "C5",
          "midi": 72,
          "time": 118.33321499999978,
          "velocity": 1,
          "duration": 0.08333324999999547
        },
        {
          "name": "C4",
          "midi": 60,
          "time": 118.33321499999978,
          "velocity": 1,
          "duration": 0.08333324999999547
        },
        {
          "name": "D#3",
          "midi": 51,
          "time": 118.33321499999978,
          "velocity": 1,
          "duration": 0.08333324999999547
        },
        {
          "name": "D#3",
          "midi": 51,
          "time": 118.41654824999978,
          "velocity": 1,
          "duration": 0.08333324999999547
        },
        {
          "name": "C4",
          "midi": 60,
          "time": 118.41654824999978,
          "velocity": 1,
          "duration": 0.08333324999999547
        },
        {
          "name": "C5",
          "midi": 72,
          "time": 118.41654824999978,
          "velocity": 1,
          "duration": 0.08333324999999547
        },
        {
          "name": "D3",
          "midi": 50,
          "time": 118.49988149999977,
          "velocity": 1,
          "duration": 0.16666649999999095
        },
        {
          "name": "A#4",
          "midi": 70,
          "time": 118.49988149999977,
          "velocity": 1,
          "duration": 0.08333324999999547
        },
        {
          "name": "A#3",
          "midi": 58,
          "time": 118.49988149999977,
          "velocity": 1,
          "duration": 0.08333324999999547
        },
        {
          "name": "G3",
          "midi": 55,
          "time": 118.49988149999977,
          "velocity": 1,
          "duration": 0.08333324999999547
        },
        {
          "name": "A#4",
          "midi": 70,
          "time": 118.58321474999977,
          "velocity": 1,
          "duration": 0.08333324999999547
        },
        {
          "name": "A#3",
          "midi": 58,
          "time": 118.58321474999977,
          "velocity": 1,
          "duration": 0.08333324999999547
        },
        {
          "name": "G3",
          "midi": 55,
          "time": 118.58321474999977,
          "velocity": 1,
          "duration": 0.08333324999999547
        },
        {
          "name": "F3",
          "midi": 53,
          "time": 118.66654799999976,
          "velocity": 1,
          "duration": 0.16666649999999095
        },
        {
          "name": "A4",
          "midi": 69,
          "time": 118.66654799999976,
          "velocity": 1,
          "duration": 0.08333324999999547
        },
        {
          "name": "A3",
          "midi": 57,
          "time": 118.66654799999976,
          "velocity": 1,
          "duration": 0.08333324999999547
        },
        {
          "name": "C3",
          "midi": 48,
          "time": 118.66654799999976,
          "velocity": 1,
          "duration": 0.08333324999999547
        },
        {
          "name": "C3",
          "midi": 48,
          "time": 118.74988124999976,
          "velocity": 1,
          "duration": 0.08333324999999547
        },
        {
          "name": "A3",
          "midi": 57,
          "time": 118.74988124999976,
          "velocity": 1,
          "duration": 0.08333324999999547
        },
        {
          "name": "A4",
          "midi": 69,
          "time": 118.74988124999976,
          "velocity": 1,
          "duration": 0.08333324999999547
        },
        {
          "name": "D#3",
          "midi": 51,
          "time": 118.83321449999976,
          "velocity": 1,
          "duration": 0.16666649999999095
        },
        {
          "name": "C#5",
          "midi": 73,
          "time": 118.83321449999976,
          "velocity": 1,
          "duration": 0.08333324999999547
        },
        {
          "name": "C#4",
          "midi": 61,
          "time": 118.83321449999976,
          "velocity": 1,
          "duration": 0.08333324999999547
        },
        {
          "name": "G3",
          "midi": 55,
          "time": 118.83321449999976,
          "velocity": 1,
          "duration": 0.08333324999999547
        },
        {
          "name": "C#5",
          "midi": 73,
          "time": 118.91654774999975,
          "velocity": 1,
          "duration": 0.08333324999999547
        },
        {
          "name": "C#4",
          "midi": 61,
          "time": 118.91654774999975,
          "velocity": 1,
          "duration": 0.08333324999999547
        },
        {
          "name": "G3",
          "midi": 55,
          "time": 118.91654774999975,
          "velocity": 1,
          "duration": 0.08333324999999547
        },
        {
          "name": "D3",
          "midi": 50,
          "time": 118.99988099999975,
          "velocity": 1,
          "duration": 0.16666649999999095
        },
        {
          "name": "D5",
          "midi": 74,
          "time": 118.99988099999975,
          "velocity": 1,
          "duration": 0.08333324999999547
        },
        {
          "name": "D4",
          "midi": 62,
          "time": 118.99988099999975,
          "velocity": 1,
          "duration": 0.08333324999999547
        },
        {
          "name": "F#3",
          "midi": 54,
          "time": 118.99988099999975,
          "velocity": 1,
          "duration": 0.08333324999999547
        },
        {
          "name": "F#3",
          "midi": 54,
          "time": 119.08321424999974,
          "velocity": 1,
          "duration": 0.08333324999999547
        },
        {
          "name": "D4",
          "midi": 62,
          "time": 119.08321424999974,
          "velocity": 1,
          "duration": 0.08333324999999547
        },
        {
          "name": "D5",
          "midi": 74,
          "time": 119.08321424999974,
          "velocity": 1,
          "duration": 0.08333324999999547
        },
        {
          "name": "F#3",
          "midi": 54,
          "time": 119.16654749999974,
          "velocity": 1,
          "duration": 0.16666649999999095
        },
        {
          "name": "C5",
          "midi": 72,
          "time": 119.16654749999974,
          "velocity": 1,
          "duration": 0.08333324999999547
        },
        {
          "name": "C4",
          "midi": 60,
          "time": 119.16654749999974,
          "velocity": 1,
          "duration": 0.08333324999999547
        },
        {
          "name": "A3",
          "midi": 57,
          "time": 119.16654749999974,
          "velocity": 1,
          "duration": 0.08333324999999547
        },
        {
          "name": "C5",
          "midi": 72,
          "time": 119.24988074999973,
          "velocity": 1,
          "duration": 0.08333324999999547
        },
        {
          "name": "C4",
          "midi": 60,
          "time": 119.24988074999973,
          "velocity": 1,
          "duration": 0.08333324999999547
        },
        {
          "name": "A3",
          "midi": 57,
          "time": 119.24988074999973,
          "velocity": 1,
          "duration": 0.08333324999999547
        },
        {
          "name": "G3",
          "midi": 55,
          "time": 119.33321399999973,
          "velocity": 1,
          "duration": 0.16666649999999095
        },
        {
          "name": "A#4",
          "midi": 70,
          "time": 119.33321399999973,
          "velocity": 1,
          "duration": 0.08333324999999547
        },
        {
          "name": "A#3",
          "midi": 58,
          "time": 119.33321399999973,
          "velocity": 1,
          "duration": 0.08333324999999547
        },
        {
          "name": "D3",
          "midi": 50,
          "time": 119.33321399999973,
          "velocity": 1,
          "duration": 0.08333324999999547
        },
        {
          "name": "D3",
          "midi": 50,
          "time": 119.41654724999972,
          "velocity": 1,
          "duration": 0.08333324999999547
        },
        {
          "name": "A#3",
          "midi": 58,
          "time": 119.41654724999972,
          "velocity": 1,
          "duration": 0.08333324999999547
        },
        {
          "name": "A#4",
          "midi": 70,
          "time": 119.41654724999972,
          "velocity": 1,
          "duration": 0.08333324999999547
        },
        {
          "name": "F3",
          "midi": 53,
          "time": 119.49988049999972,
          "velocity": 1,
          "duration": 0.16666649999999095
        },
        {
          "name": "D5",
          "midi": 74,
          "time": 119.49988049999972,
          "velocity": 1,
          "duration": 0.08333324999999547
        },
        {
          "name": "D4",
          "midi": 62,
          "time": 119.49988049999972,
          "velocity": 1,
          "duration": 0.08333324999999547
        },
        {
          "name": "G#3",
          "midi": 56,
          "time": 119.49988049999972,
          "velocity": 1,
          "duration": 0.08333324999999547
        },
        {
          "name": "D5",
          "midi": 74,
          "time": 119.58321374999971,
          "velocity": 1,
          "duration": 0.08333324999999547
        },
        {
          "name": "D4",
          "midi": 62,
          "time": 119.58321374999971,
          "velocity": 1,
          "duration": 0.08333324999999547
        },
        {
          "name": "G#3",
          "midi": 56,
          "time": 119.58321374999971,
          "velocity": 1,
          "duration": 0.08333324999999547
        },
        {
          "name": "D#3",
          "midi": 51,
          "time": 119.66654699999971,
          "velocity": 1,
          "duration": 0.16666649999999095
        },
        {
          "name": "D#5",
          "midi": 75,
          "time": 119.66654699999971,
          "velocity": 1,
          "duration": 0.08333324999999547
        },
        {
          "name": "D#4",
          "midi": 63,
          "time": 119.66654699999971,
          "velocity": 1,
          "duration": 0.08333324999999547
        },
        {
          "name": "G3",
          "midi": 55,
          "time": 119.66654699999971,
          "velocity": 1,
          "duration": 0.08333324999999547
        },
        {
          "name": "G3",
          "midi": 55,
          "time": 119.7498802499997,
          "velocity": 1,
          "duration": 0.08333324999999547
        },
        {
          "name": "D#4",
          "midi": 63,
          "time": 119.7498802499997,
          "velocity": 1,
          "duration": 0.08333324999999547
        },
        {
          "name": "D#5",
          "midi": 75,
          "time": 119.7498802499997,
          "velocity": 1,
          "duration": 0.08333324999999547
        },
        {
          "name": "G3",
          "midi": 55,
          "time": 119.8332134999997,
          "velocity": 1,
          "duration": 0.16666649999999095
        },
        {
          "name": "D5",
          "midi": 74,
          "time": 119.8332134999997,
          "velocity": 1,
          "duration": 0.08333324999999547
        },
        {
          "name": "D4",
          "midi": 62,
          "time": 119.8332134999997,
          "velocity": 1,
          "duration": 0.08333324999999547
        },
        {
          "name": "A#3",
          "midi": 58,
          "time": 119.8332134999997,
          "velocity": 1,
          "duration": 0.08333324999999547
        },
        {
          "name": "D5",
          "midi": 74,
          "time": 119.9165467499997,
          "velocity": 1,
          "duration": 0.08333324999999547
        },
        {
          "name": "D4",
          "midi": 62,
          "time": 119.9165467499997,
          "velocity": 1,
          "duration": 0.08333324999999547
        },
        {
          "name": "A#3",
          "midi": 58,
          "time": 119.9165467499997,
          "velocity": 1,
          "duration": 0.08333324999999547
        },
        {
          "name": "A3",
          "midi": 57,
          "time": 119.99987999999969,
          "velocity": 1,
          "duration": 0.16666649999999095
        },
        {
          "name": "C5",
          "midi": 72,
          "time": 119.99987999999969,
          "velocity": 1,
          "duration": 0.08333324999999547
        },
        {
          "name": "C4",
          "midi": 60,
          "time": 119.99987999999969,
          "velocity": 1,
          "duration": 0.08333324999999547
        },
        {
          "name": "D#3",
          "midi": 51,
          "time": 119.99987999999969,
          "velocity": 1,
          "duration": 0.08333324999999547
        },
        {
          "name": "D#3",
          "midi": 51,
          "time": 120.08321324999969,
          "velocity": 1,
          "duration": 0.08333324999999547
        },
        {
          "name": "C4",
          "midi": 60,
          "time": 120.08321324999969,
          "velocity": 1,
          "duration": 0.08333324999999547
        },
        {
          "name": "C5",
          "midi": 72,
          "time": 120.08321324999969,
          "velocity": 1,
          "duration": 0.08333324999999547
        },
        {
          "name": "G3",
          "midi": 55,
          "time": 120.16654649999968,
          "velocity": 1,
          "duration": 0.16666649999999095
        },
        {
          "name": "E5",
          "midi": 76,
          "time": 120.16654649999968,
          "velocity": 1,
          "duration": 0.08333324999999547
        },
        {
          "name": "E4",
          "midi": 64,
          "time": 120.16654649999968,
          "velocity": 1,
          "duration": 0.08333324999999547
        },
        {
          "name": "A#3",
          "midi": 58,
          "time": 120.16654649999968,
          "velocity": 1,
          "duration": 0.08333324999999547
        },
        {
          "name": "E5",
          "midi": 76,
          "time": 120.24987974999968,
          "velocity": 1,
          "duration": 0.08333324999999547
        },
        {
          "name": "E4",
          "midi": 64,
          "time": 120.24987974999968,
          "velocity": 1,
          "duration": 0.08333324999999547
        },
        {
          "name": "A#3",
          "midi": 58,
          "time": 120.24987974999968,
          "velocity": 1,
          "duration": 0.08333324999999547
        },
        {
          "name": "A3",
          "midi": 57,
          "time": 120.33321299999967,
          "velocity": 1,
          "duration": 0.08333324999999547
        },
        {
          "name": "F4",
          "midi": 65,
          "time": 120.33321299999967,
          "velocity": 1,
          "duration": 0.08333324999999547
        },
        {
          "name": "F5",
          "midi": 77,
          "time": 120.33321299999967,
          "velocity": 1,
          "duration": 0.08333324999999547
        },
        {
          "name": "F3",
          "midi": 53,
          "time": 120.33321299999967,
          "velocity": 1,
          "duration": 0.16666649999999095
        },
        {
          "name": "F5",
          "midi": 77,
          "time": 120.41654624999967,
          "velocity": 1,
          "duration": 0.08333324999999547
        },
        {
          "name": "F4",
          "midi": 65,
          "time": 120.41654624999967,
          "velocity": 1,
          "duration": 0.08333324999999547
        },
        {
          "name": "A3",
          "midi": 57,
          "time": 120.41654624999967,
          "velocity": 1,
          "duration": 0.08333324999999547
        },
        {
          "name": "C4",
          "midi": 60,
          "time": 120.49987949999966,
          "velocity": 1,
          "duration": 0.08333324999999547
        },
        {
          "name": "D#4",
          "midi": 63,
          "time": 120.49987949999966,
          "velocity": 1,
          "duration": 0.08333324999999547
        },
        {
          "name": "D#5",
          "midi": 75,
          "time": 120.49987949999966,
          "velocity": 1,
          "duration": 0.08333324999999547
        },
        {
          "name": "G#3",
          "midi": 56,
          "time": 120.49987949999966,
          "velocity": 1,
          "duration": 0.16666649999999095
        },
        {
          "name": "D#5",
          "midi": 75,
          "time": 120.58321274999966,
          "velocity": 1,
          "duration": 0.08333324999999547
        },
        {
          "name": "D#4",
          "midi": 63,
          "time": 120.58321274999966,
          "velocity": 1,
          "duration": 0.08333324999999547
        },
        {
          "name": "C4",
          "midi": 60,
          "time": 120.58321274999966,
          "velocity": 1,
          "duration": 0.08333324999999547
        },
        {
          "name": "A#3",
          "midi": 58,
          "time": 120.66654599999966,
          "velocity": 1,
          "duration": 0.16666649999999095
        },
        {
          "name": "D5",
          "midi": 74,
          "time": 120.66654599999966,
          "velocity": 1,
          "duration": 0.08333324999999547
        },
        {
          "name": "D4",
          "midi": 62,
          "time": 120.66654599999966,
          "velocity": 1,
          "duration": 0.08333324999999547
        },
        {
          "name": "F3",
          "midi": 53,
          "time": 120.66654599999966,
          "velocity": 1,
          "duration": 0.08333324999999547
        },
        {
          "name": "D5",
          "midi": 74,
          "time": 120.74987924999965,
          "velocity": 1,
          "duration": 0.08333324999999547
        },
        {
          "name": "D4",
          "midi": 62,
          "time": 120.74987924999965,
          "velocity": 1,
          "duration": 0.08333324999999547
        },
        {
          "name": "F3",
          "midi": 53,
          "time": 120.74987924999965,
          "velocity": 1,
          "duration": 0.08333324999999547
        },
        {
          "name": "C4",
          "midi": 60,
          "time": 120.83321249999965,
          "velocity": 1,
          "duration": 0.08333324999999547
        },
        {
          "name": "F#4",
          "midi": 66,
          "time": 120.83321249999965,
          "velocity": 1,
          "duration": 0.08333324999999547
        },
        {
          "name": "F#5",
          "midi": 78,
          "time": 120.83321249999965,
          "velocity": 1,
          "duration": 0.08333324999999547
        },
        {
          "name": "G#3",
          "midi": 56,
          "time": 120.83321249999965,
          "velocity": 1,
          "duration": 0.16666649999999095
        },
        {
          "name": "F#5",
          "midi": 78,
          "time": 120.91654574999964,
          "velocity": 1,
          "duration": 0.08333324999999547
        },
        {
          "name": "F#4",
          "midi": 66,
          "time": 120.91654574999964,
          "velocity": 1,
          "duration": 0.08333324999999547
        },
        {
          "name": "C4",
          "midi": 60,
          "time": 120.91654574999964,
          "velocity": 1,
          "duration": 0.08333324999999547
        },
        {
          "name": "G3",
          "midi": 55,
          "time": 120.99987899999964,
          "velocity": 1,
          "duration": 0.16666649999999095
        },
        {
          "name": "G5",
          "midi": 79,
          "time": 120.99987899999964,
          "velocity": 1,
          "duration": 0.08333324999999547
        },
        {
          "name": "G4",
          "midi": 67,
          "time": 120.99987899999964,
          "velocity": 1,
          "duration": 0.08333324999999547
        },
        {
          "name": "A#3",
          "midi": 58,
          "time": 120.99987899999964,
          "velocity": 1,
          "duration": 0.08333324999999547
        },
        {
          "name": "G5",
          "midi": 79,
          "time": 121.08321224999963,
          "velocity": 1,
          "duration": 0.08333324999999547
        },
        {
          "name": "G4",
          "midi": 67,
          "time": 121.08321224999963,
          "velocity": 1,
          "duration": 0.08333324999999547
        },
        {
          "name": "A#3",
          "midi": 58,
          "time": 121.08321224999963,
          "velocity": 1,
          "duration": 0.08333324999999547
        },
        {
          "name": "D4",
          "midi": 62,
          "time": 121.16654549999963,
          "velocity": 1,
          "duration": 0.08333324999999547
        },
        {
          "name": "A4",
          "midi": 69,
          "time": 121.16654549999963,
          "velocity": 1,
          "duration": 0.08333324999999547
        },
        {
          "name": "A5",
          "midi": 81,
          "time": 121.16654549999963,
          "velocity": 1,
          "duration": 0.08333324999999547
        },
        {
          "name": "F#3",
          "midi": 54,
          "time": 121.16654549999963,
          "velocity": 1,
          "duration": 0.16666649999999095
        },
        {
          "name": "A5",
          "midi": 81,
          "time": 121.24987874999962,
          "velocity": 1,
          "duration": 0.08333324999999547
        },
        {
          "name": "A4",
          "midi": 69,
          "time": 121.24987874999962,
          "velocity": 1,
          "duration": 0.08333324999999547
        },
        {
          "name": "D4",
          "midi": 62,
          "time": 121.24987874999962,
          "velocity": 1,
          "duration": 0.08333324999999547
        },
        {
          "name": "G3",
          "midi": 55,
          "time": 121.33321199999962,
          "velocity": 1,
          "duration": 0.16666649999999095
        },
        {
          "name": "A#5",
          "midi": 82,
          "time": 121.33321199999962,
          "velocity": 1,
          "duration": 0.08333324999999547
        },
        {
          "name": "A#4",
          "midi": 70,
          "time": 121.33321199999962,
          "velocity": 1,
          "duration": 0.08333324999999547
        },
        {
          "name": "A#5",
          "midi": 82,
          "time": 121.41654524999961,
          "velocity": 1,
          "duration": 0.08333324999999547
        },
        {
          "name": "A#4",
          "midi": 70,
          "time": 121.41654524999961,
          "velocity": 1,
          "duration": 0.08333324999999547
        },
        {
          "name": "G4",
          "midi": 67,
          "time": 121.41654524999961,
          "velocity": 1,
          "duration": 0.08333324999999547
        },
        {
          "name": "G4",
          "midi": 67,
          "time": 121.49987849999961,
          "velocity": 1,
          "duration": 0.08333324999999547
        },
        {
          "name": "B4",
          "midi": 71,
          "time": 121.49987849999961,
          "velocity": 1,
          "duration": 0.08333324999999547
        },
        {
          "name": "B5",
          "midi": 83,
          "time": 121.49987849999961,
          "velocity": 1,
          "duration": 0.08333324999999547
        },
        {
          "name": "F3",
          "midi": 53,
          "time": 121.49987849999961,
          "velocity": 1,
          "duration": 0.16666649999999095
        },
        {
          "name": "B5",
          "midi": 83,
          "time": 121.5832117499996,
          "velocity": 1,
          "duration": 0.08333324999999547
        },
        {
          "name": "B4",
          "midi": 71,
          "time": 121.5832117499996,
          "velocity": 1,
          "duration": 0.08333324999999547
        },
        {
          "name": "G4",
          "midi": 67,
          "time": 121.5832117499996,
          "velocity": 1,
          "duration": 0.08333324999999547
        },
        {
          "name": "E3",
          "midi": 52,
          "time": 121.6665449999996,
          "velocity": 1,
          "duration": 0.16666649999999095
        },
        {
          "name": "C6",
          "midi": 84,
          "time": 121.6665449999996,
          "velocity": 1,
          "duration": 0.08333324999999547
        },
        {
          "name": "C5",
          "midi": 72,
          "time": 121.6665449999996,
          "velocity": 1,
          "duration": 0.08333324999999547
        },
        {
          "name": "G4",
          "midi": 67,
          "time": 121.6665449999996,
          "velocity": 1,
          "duration": 0.08333324999999547
        },
        {
          "name": "C6",
          "midi": 84,
          "time": 121.7498782499996,
          "velocity": 1,
          "duration": 0.08333324999999547
        },
        {
          "name": "C5",
          "midi": 72,
          "time": 121.7498782499996,
          "velocity": 1,
          "duration": 0.08333324999999547
        },
        {
          "name": "G4",
          "midi": 67,
          "time": 121.7498782499996,
          "velocity": 1,
          "duration": 0.08333324999999547
        },
        {
          "name": "G4",
          "midi": 67,
          "time": 121.83321149999959,
          "velocity": 1,
          "duration": 0.08333324999999547
        },
        {
          "name": "C#5",
          "midi": 73,
          "time": 121.83321149999959,
          "velocity": 1,
          "duration": 0.08333324999999547
        },
        {
          "name": "C#6",
          "midi": 85,
          "time": 121.83321149999959,
          "velocity": 1,
          "duration": 0.08333324999999547
        },
        {
          "name": "D#3",
          "midi": 51,
          "time": 121.83321149999959,
          "velocity": 1,
          "duration": 0.16666649999999095
        },
        {
          "name": "C#6",
          "midi": 85,
          "time": 121.91654474999959,
          "velocity": 1,
          "duration": 0.08333324999999547
        },
        {
          "name": "C#5",
          "midi": 73,
          "time": 121.91654474999959,
          "velocity": 1,
          "duration": 0.08333324999999547
        },
        {
          "name": "G4",
          "midi": 67,
          "time": 121.91654474999959,
          "velocity": 1,
          "duration": 0.08333324999999547
        },
        {
          "name": "D3",
          "midi": 50,
          "time": 121.99987799999958,
          "velocity": 1,
          "duration": 0.3333329999999961
        },
        {
          "name": "D6",
          "midi": 86,
          "time": 121.99987799999958,
          "velocity": 1,
          "duration": 0.3333329999999961
        },
        {
          "name": "D5",
          "midi": 74,
          "time": 121.99987799999958,
          "velocity": 1,
          "duration": 0.3333329999999961
        },
        {
          "name": "F#4",
          "midi": 66,
          "time": 121.99987799999958,
          "velocity": 1,
          "duration": 0.3333329999999961
        },
        {
          "name": "F#4",
          "midi": 66,
          "time": 122.33321099999958,
          "velocity": 1,
          "duration": 0.3333329999999961
        },
        {
          "name": "D4",
          "midi": 62,
          "time": 122.33321099999958,
          "velocity": 1,
          "duration": 0.3333329999999961
        },
        {
          "name": "C5",
          "midi": 72,
          "time": 122.33321099999958,
          "velocity": 1,
          "duration": 0.3333329999999961
        },
        {
          "name": "A5",
          "midi": 81,
          "time": 122.33321099999958,
          "velocity": 1,
          "duration": 0.3333329999999961
        },
        {
          "name": "D5",
          "midi": 74,
          "time": 122.33321099999958,
          "velocity": 1,
          "duration": 0.3333329999999961
        },
        {
          "name": "C6",
          "midi": 84,
          "time": 122.33321099999958,
          "velocity": 1,
          "duration": 0.3333329999999961
        },
        {
          "name": "F#3",
          "midi": 54,
          "time": 122.33321099999958,
          "velocity": 1,
          "duration": 0.3333329999999961
        },
        {
          "name": "G4",
          "midi": 67,
          "time": 122.66654399999958,
          "velocity": 1,
          "duration": 0.3333329999999961
        },
        {
          "name": "D4",
          "midi": 62,
          "time": 122.66654399999958,
          "velocity": 1,
          "duration": 0.3333329999999961
        },
        {
          "name": "A#4",
          "midi": 70,
          "time": 122.66654399999958,
          "velocity": 1,
          "duration": 0.3333329999999961
        },
        {
          "name": "G5",
          "midi": 79,
          "time": 122.66654399999958,
          "velocity": 1,
          "duration": 0.3333329999999961
        },
        {
          "name": "D5",
          "midi": 74,
          "time": 122.66654399999958,
          "velocity": 1,
          "duration": 0.3333329999999961
        },
        {
          "name": "A#5",
          "midi": 82,
          "time": 122.66654399999958,
          "velocity": 1,
          "duration": 0.3333329999999961
        },
        {
          "name": "G3",
          "midi": 55,
          "time": 122.66654399999958,
          "velocity": 1,
          "duration": 0.3333329999999961
        },
        {
          "name": "D4",
          "midi": 62,
          "time": 123.33320999999957,
          "velocity": 1,
          "duration": 0.3333329999999961
        },
        {
          "name": "F4",
          "midi": 65,
          "time": 123.33320999999957,
          "velocity": 1,
          "duration": 0.3333329999999961
        },
        {
          "name": "B4",
          "midi": 71,
          "time": 123.33320999999957,
          "velocity": 1,
          "duration": 0.3333329999999961
        },
        {
          "name": "G#5",
          "midi": 80,
          "time": 123.33320999999957,
          "velocity": 1,
          "duration": 0.3333329999999961
        },
        {
          "name": "D3",
          "midi": 50,
          "time": 123.33320999999957,
          "velocity": 1,
          "duration": 0.3333329999999961
        },
        {
          "name": "D#3",
          "midi": 51,
          "time": 123.66654299999956,
          "velocity": 1,
          "duration": 0.3333329999999961
        },
        {
          "name": "G5",
          "midi": 79,
          "time": 123.66654299999956,
          "velocity": 1,
          "duration": 0.3333329999999961
        },
        {
          "name": "C5",
          "midi": 72,
          "time": 123.66654299999956,
          "velocity": 1,
          "duration": 0.3333329999999961
        },
        {
          "name": "D#4",
          "midi": 63,
          "time": 123.66654299999956,
          "velocity": 1,
          "duration": 0.3333329999999961
        },
        {
          "name": "E4",
          "midi": 64,
          "time": 124.33320899999956,
          "velocity": 1,
          "duration": 0.3333329999999961
        },
        {
          "name": "C5",
          "midi": 72,
          "time": 124.33320899999956,
          "velocity": 1,
          "duration": 0.3333329999999961
        },
        {
          "name": "G5",
          "midi": 79,
          "time": 124.33320899999956,
          "velocity": 1,
          "duration": 0.3333329999999961
        },
        {
          "name": "A#5",
          "midi": 82,
          "time": 124.33320899999956,
          "velocity": 1,
          "duration": 0.3333329999999961
        },
        {
          "name": "E3",
          "midi": 52,
          "time": 124.33320899999956,
          "velocity": 1,
          "duration": 0.3333329999999961
        },
        {
          "name": "F4",
          "midi": 65,
          "time": 124.66654199999955,
          "velocity": 1,
          "duration": 0.3333329999999961
        },
        {
          "name": "C5",
          "midi": 72,
          "time": 124.66654199999955,
          "velocity": 1,
          "duration": 0.3333329999999961
        },
        {
          "name": "F5",
          "midi": 77,
          "time": 124.66654199999955,
          "velocity": 1,
          "duration": 0.3333329999999961
        },
        {
          "name": "A5",
          "midi": 81,
          "time": 124.66654199999955,
          "velocity": 1,
          "duration": 0.3333329999999961
        },
        {
          "name": "F3",
          "midi": 53,
          "time": 124.66654199999955,
          "velocity": 1,
          "duration": 0.3333329999999961
        },
        {
          "name": "F#4",
          "midi": 66,
          "time": 125.33320799999954,
          "velocity": 1,
          "duration": 0.3333329999999961
        },
        {
          "name": "D4",
          "midi": 62,
          "time": 125.33320799999954,
          "velocity": 1,
          "duration": 0.3333329999999961
        },
        {
          "name": "C5",
          "midi": 72,
          "time": 125.33320799999954,
          "velocity": 1,
          "duration": 0.3333329999999961
        },
        {
          "name": "A5",
          "midi": 81,
          "time": 125.33320799999954,
          "velocity": 1,
          "duration": 0.3333329999999961
        },
        {
          "name": "D5",
          "midi": 74,
          "time": 125.33320799999954,
          "velocity": 1,
          "duration": 0.3333329999999961
        },
        {
          "name": "C6",
          "midi": 84,
          "time": 125.33320799999954,
          "velocity": 1,
          "duration": 0.3333329999999961
        },
        {
          "name": "F#3",
          "midi": 54,
          "time": 125.33320799999954,
          "velocity": 1,
          "duration": 0.3333329999999961
        },
        {
          "name": "G4",
          "midi": 67,
          "time": 125.66654099999954,
          "velocity": 1,
          "duration": 0.3333329999999961
        },
        {
          "name": "D4",
          "midi": 62,
          "time": 125.66654099999954,
          "velocity": 1,
          "duration": 0.3333329999999961
        },
        {
          "name": "A#4",
          "midi": 70,
          "time": 125.66654099999954,
          "velocity": 1,
          "duration": 0.3333329999999961
        },
        {
          "name": "G5",
          "midi": 79,
          "time": 125.66654099999954,
          "velocity": 1,
          "duration": 0.3333329999999961
        },
        {
          "name": "D5",
          "midi": 74,
          "time": 125.66654099999954,
          "velocity": 1,
          "duration": 0.3333329999999961
        },
        {
          "name": "A#5",
          "midi": 82,
          "time": 125.66654099999954,
          "velocity": 1,
          "duration": 0.3333329999999961
        },
        {
          "name": "G3",
          "midi": 55,
          "time": 125.66654099999954,
          "velocity": 1,
          "duration": 0.3333329999999961
        },
        {
          "name": "D4",
          "midi": 62,
          "time": 126.33320699999953,
          "velocity": 1,
          "duration": 0.3333329999999961
        },
        {
          "name": "F4",
          "midi": 65,
          "time": 126.33320699999953,
          "velocity": 1,
          "duration": 0.3333329999999961
        },
        {
          "name": "B4",
          "midi": 71,
          "time": 126.33320699999953,
          "velocity": 1,
          "duration": 0.3333329999999961
        },
        {
          "name": "G#5",
          "midi": 80,
          "time": 126.33320699999953,
          "velocity": 1,
          "duration": 0.3333329999999961
        },
        {
          "name": "D3",
          "midi": 50,
          "time": 126.33320699999953,
          "velocity": 1,
          "duration": 0.3333329999999961
        },
        {
          "name": "D#4",
          "midi": 63,
          "time": 126.66653999999953,
          "velocity": 1,
          "duration": 0.3333329999999961
        },
        {
          "name": "C5",
          "midi": 72,
          "time": 126.66653999999953,
          "velocity": 1,
          "duration": 0.3333329999999961
        },
        {
          "name": "G5",
          "midi": 79,
          "time": 126.66653999999953,
          "velocity": 1,
          "duration": 0.3333329999999961
        },
        {
          "name": "D#3",
          "midi": 51,
          "time": 126.66653999999953,
          "velocity": 1,
          "duration": 0.3333329999999961
        },
        {
          "name": "D4",
          "midi": 62,
          "time": 127.33320599999952,
          "velocity": 1,
          "duration": 0.3333329999999961
        },
        {
          "name": "E4",
          "midi": 64,
          "time": 127.33320599999952,
          "velocity": 1,
          "duration": 0.3333329999999961
        },
        {
          "name": "C5",
          "midi": 72,
          "time": 127.33320599999952,
          "velocity": 1,
          "duration": 0.3333329999999961
        },
        {
          "name": "G5",
          "midi": 79,
          "time": 127.33320599999952,
          "velocity": 1,
          "duration": 0.3333329999999961
        },
        {
          "name": "A#5",
          "midi": 82,
          "time": 127.33320599999952,
          "velocity": 1,
          "duration": 0.3333329999999961
        },
        {
          "name": "E3",
          "midi": 52,
          "time": 127.33320599999952,
          "velocity": 1,
          "duration": 0.3333329999999961
        },
        {
          "name": "D4",
          "midi": 62,
          "time": 127.99987199999951,
          "velocity": 1,
          "duration": 0.3333329999999961
        },
        {
          "name": "E4",
          "midi": 64,
          "time": 127.99987199999951,
          "velocity": 1,
          "duration": 0.3333329999999961
        },
        {
          "name": "C5",
          "midi": 72,
          "time": 127.99987199999951,
          "velocity": 1,
          "duration": 0.3333329999999961
        },
        {
          "name": "G5",
          "midi": 79,
          "time": 127.99987199999951,
          "velocity": 1,
          "duration": 0.3333329999999961
        },
        {
          "name": "A#5",
          "midi": 82,
          "time": 127.99987199999951,
          "velocity": 1,
          "duration": 0.3333329999999961
        },
        {
          "name": "E3",
          "midi": 52,
          "time": 127.99987199999951,
          "velocity": 1,
          "duration": 0.3333329999999961
        },
        {
          "name": "D4",
          "midi": 62,
          "time": 128.66653799999952,
          "velocity": 1,
          "duration": 0.3333330000000103
        },
        {
          "name": "E4",
          "midi": 64,
          "time": 128.66653799999952,
          "velocity": 1,
          "duration": 0.3333330000000103
        },
        {
          "name": "C5",
          "midi": 72,
          "time": 128.66653799999952,
          "velocity": 1,
          "duration": 0.3333330000000103
        },
        {
          "name": "G5",
          "midi": 79,
          "time": 128.66653799999952,
          "velocity": 1,
          "duration": 0.3333330000000103
        },
        {
          "name": "A#5",
          "midi": 82,
          "time": 128.66653799999952,
          "velocity": 1,
          "duration": 0.3333330000000103
        },
        {
          "name": "E3",
          "midi": 52,
          "time": 128.66653799999952,
          "velocity": 1,
          "duration": 0.3333330000000103
        },
        {
          "name": "D4",
          "midi": 62,
          "time": 129.33320399999954,
          "velocity": 1,
          "duration": 0.3333330000000103
        },
        {
          "name": "E4",
          "midi": 64,
          "time": 129.33320399999954,
          "velocity": 1,
          "duration": 0.3333330000000103
        },
        {
          "name": "C5",
          "midi": 72,
          "time": 129.33320399999954,
          "velocity": 1,
          "duration": 0.3333330000000103
        },
        {
          "name": "G5",
          "midi": 79,
          "time": 129.33320399999954,
          "velocity": 1,
          "duration": 0.3333330000000103
        },
        {
          "name": "A#5",
          "midi": 82,
          "time": 129.33320399999954,
          "velocity": 1,
          "duration": 0.3333330000000103
        },
        {
          "name": "E3",
          "midi": 52,
          "time": 129.33320399999954,
          "velocity": 1,
          "duration": 0.3333330000000103
        },
        {
          "name": "D4",
          "midi": 62,
          "time": 129.99986999999956,
          "velocity": 1,
          "duration": 0.3333330000000103
        },
        {
          "name": "E4",
          "midi": 64,
          "time": 129.99986999999956,
          "velocity": 1,
          "duration": 0.3333330000000103
        },
        {
          "name": "C5",
          "midi": 72,
          "time": 129.99986999999956,
          "velocity": 1,
          "duration": 0.3333330000000103
        },
        {
          "name": "G5",
          "midi": 79,
          "time": 129.99986999999956,
          "velocity": 1,
          "duration": 0.3333330000000103
        },
        {
          "name": "A#5",
          "midi": 82,
          "time": 129.99986999999956,
          "velocity": 1,
          "duration": 0.3333330000000103
        },
        {
          "name": "E3",
          "midi": 52,
          "time": 129.99986999999956,
          "velocity": 1,
          "duration": 0.3333330000000103
        },
        {
          "name": "D4",
          "midi": 62,
          "time": 130.66653599999958,
          "velocity": 1,
          "duration": 0.3333330000000103
        },
        {
          "name": "E4",
          "midi": 64,
          "time": 130.66653599999958,
          "velocity": 1,
          "duration": 0.3333330000000103
        },
        {
          "name": "C5",
          "midi": 72,
          "time": 130.66653599999958,
          "velocity": 1,
          "duration": 0.3333330000000103
        },
        {
          "name": "G5",
          "midi": 79,
          "time": 130.66653599999958,
          "velocity": 1,
          "duration": 0.3333330000000103
        },
        {
          "name": "A#5",
          "midi": 82,
          "time": 130.66653599999958,
          "velocity": 1,
          "duration": 0.3333330000000103
        },
        {
          "name": "E3",
          "midi": 52,
          "time": 130.66653599999958,
          "velocity": 1,
          "duration": 0.3333330000000103
        },
        {
          "name": "F3",
          "midi": 53,
          "time": 130.9998689999996,
          "velocity": 1,
          "duration": 0.3333330000000103
        },
        {
          "name": "A#3",
          "midi": 58,
          "time": 131.3332019999996,
          "velocity": 1,
          "duration": 0.3333330000000103
        },
        {
          "name": "D4",
          "midi": 62,
          "time": 131.6665349999996,
          "velocity": 1,
          "duration": 0.3333330000000103
        },
        {
          "name": "F#3",
          "midi": 54,
          "time": 131.99986799999962,
          "velocity": 1,
          "duration": 0.999999000000031
        },
        {
          "name": "A#4",
          "midi": 70,
          "time": 131.99986799999962,
          "velocity": 1,
          "duration": 0.3333330000000103
        },
        {
          "name": "E4",
          "midi": 64,
          "time": 131.99986799999962,
          "velocity": 1,
          "duration": 0.3333330000000103
        },
        {
          "name": "C#4",
          "midi": 61,
          "time": 132.33320099999963,
          "velocity": 1,
          "duration": 0.3333330000000103
        },
        {
          "name": "C#5",
          "midi": 73,
          "time": 132.33320099999963,
          "velocity": 1,
          "duration": 0.3333330000000103
        },
        {
          "name": "E5",
          "midi": 76,
          "time": 132.66653399999964,
          "velocity": 1,
          "duration": 0.3333330000000103
        },
        {
          "name": "A#3",
          "midi": 58,
          "time": 132.66653399999964,
          "velocity": 1,
          "duration": 0.3333330000000103
        },
        {
          "name": "F3",
          "midi": 53,
          "time": 132.99986699999965,
          "velocity": 1,
          "duration": 0.3333330000000103
        },
        {
          "name": "F5",
          "midi": 77,
          "time": 132.99986699999965,
          "velocity": 1,
          "duration": 0.9999990000000025
        },
        {
          "name": "D4",
          "midi": 62,
          "time": 132.99986699999965,
          "velocity": 1,
          "duration": 0.9999990000000025
        },
        {
          "name": "A#3",
          "midi": 58,
          "time": 132.99986699999965,
          "velocity": 1,
          "duration": 0.9999990000000025
        },
        {
          "name": "G3",
          "midi": 55,
          "time": 133.99986599999966,
          "velocity": 1,
          "duration": 1.3333320000000128
        },
        {
          "name": "E4",
          "midi": 64,
          "time": 133.99986599999966,
          "velocity": 1,
          "duration": 0.3333330000000103
        },
        {
          "name": "A#4",
          "midi": 70,
          "time": 133.99986599999966,
          "velocity": 1,
          "duration": 0.3333330000000103
        },
        {
          "name": "C#5",
          "midi": 73,
          "time": 134.33319899999967,
          "velocity": 1,
          "duration": 0.3333330000000103
        },
        {
          "name": "C#4",
          "midi": 61,
          "time": 134.33319899999967,
          "velocity": 1,
          "duration": 0.3333330000000103
        },
        {
          "name": "E5",
          "midi": 76,
          "time": 134.66653199999968,
          "velocity": 1,
          "duration": 0.6666659999999922
        },
        {
          "name": "A#3",
          "midi": 58,
          "time": 134.66653199999968,
          "velocity": 1,
          "duration": 0.49999950000000126
        },
        {
          "name": "G2",
          "midi": 43,
          "time": 134.9998649999997,
          "velocity": 1,
          "duration": 0.3333329999999819
        },
        {
          "name": "D#5",
          "midi": 75,
          "time": 135.33319799999967,
          "velocity": 1,
          "duration": 0.3333329999999819
        },
        {
          "name": "A#3",
          "midi": 58,
          "time": 135.33319799999967,
          "velocity": 1,
          "duration": 0.16666649999999095
        },
        {
          "name": "A#3",
          "midi": 58,
          "time": 135.49986449999966,
          "velocity": 1,
          "duration": 0.16666649999999095
        },
        {
          "name": "D#4",
          "midi": 63,
          "time": 135.49986449999966,
          "velocity": 1,
          "duration": 0.16666649999999095
        },
        {
          "name": "G2",
          "midi": 43,
          "time": 135.49986449999966,
          "velocity": 1,
          "duration": 0.16666649999999095
        },
        {
          "name": "A#2",
          "midi": 46,
          "time": 135.66653099999965,
          "velocity": 1,
          "duration": 0.16666649999999095
        },
        {
          "name": "C#5",
          "midi": 73,
          "time": 135.66653099999965,
          "velocity": 1,
          "duration": 0.6666659999999638
        },
        {
          "name": "G3",
          "midi": 55,
          "time": 135.66653099999965,
          "velocity": 1,
          "duration": 0.3333329999999819
        },
        {
          "name": "D#3",
          "midi": 51,
          "time": 135.83319749999964,
          "velocity": 1,
          "duration": 0.16666649999999095
        },
        {
          "name": "G#2",
          "midi": 44,
          "time": 135.99986399999963,
          "velocity": 1,
          "duration": 0.3333329999999819
        },
        {
          "name": "C4",
          "midi": 60,
          "time": 135.99986399999963,
          "velocity": 1,
          "duration": 0.3333329999999819
        },
        {
          "name": "G#3",
          "midi": 56,
          "time": 136.16653049999962,
          "velocity": 1,
          "duration": 0.16666649999999095
        },
        {
          "name": "B4",
          "midi": 71,
          "time": 136.33319699999961,
          "velocity": 1,
          "duration": 0.3333329999999819
        },
        {
          "name": "C4",
          "midi": 60,
          "time": 136.33319699999961,
          "velocity": 1,
          "duration": 0.16666649999999095
        },
        {
          "name": "C4",
          "midi": 60,
          "time": 136.4998634999996,
          "velocity": 1,
          "duration": 0.16666649999999095
        },
        {
          "name": "D#4",
          "midi": 63,
          "time": 136.4998634999996,
          "velocity": 1,
          "duration": 0.16666649999999095
        },
        {
          "name": "G#2",
          "midi": 44,
          "time": 136.4998634999996,
          "velocity": 1,
          "duration": 0.16666649999999095
        },
        {
          "name": "C3",
          "midi": 48,
          "time": 136.6665299999996,
          "velocity": 1,
          "duration": 0.16666649999999095
        },
        {
          "name": "C5",
          "midi": 72,
          "time": 136.6665299999996,
          "velocity": 1,
          "duration": 0.6666659999999638
        },
        {
          "name": "G#3",
          "midi": 56,
          "time": 136.6665299999996,
          "velocity": 1,
          "duration": 0.3333329999999819
        },
        {
          "name": "D#3",
          "midi": 51,
          "time": 136.8331964999996,
          "velocity": 1,
          "duration": 0.16666649999999095
        },
        {
          "name": "A2",
          "midi": 45,
          "time": 136.99986299999958,
          "velocity": 1,
          "duration": 0.3333329999999819
        },
        {
          "name": "C4",
          "midi": 60,
          "time": 136.99986299999958,
          "velocity": 1,
          "duration": 0.3333329999999819
        },
        {
          "name": "A3",
          "midi": 57,
          "time": 137.16652949999957,
          "velocity": 1,
          "duration": 0.16666649999999095
        },
        {
          "name": "F4",
          "midi": 65,
          "time": 137.33319599999956,
          "velocity": 1,
          "duration": 0.3333329999999819
        },
        {
          "name": "C4",
          "midi": 60,
          "time": 137.33319599999956,
          "velocity": 1,
          "duration": 0.16666649999999095
        },
        {
          "name": "C4",
          "midi": 60,
          "time": 137.49986249999955,
          "velocity": 1,
          "duration": 0.16666649999999095
        },
        {
          "name": "A2",
          "midi": 45,
          "time": 137.49986249999955,
          "velocity": 1,
          "duration": 0.16666649999999095
        },
        {
          "name": "C3",
          "midi": 48,
          "time": 137.66652899999954,
          "velocity": 1,
          "duration": 0.16666649999999095
        },
        {
          "name": "D#5",
          "midi": 75,
          "time": 137.66652899999954,
          "velocity": 1,
          "duration": 0.6666659999999638
        },
        {
          "name": "A3",
          "midi": 57,
          "time": 137.66652899999954,
          "velocity": 1,
          "duration": 0.3333329999999819
        },
        {
          "name": "F3",
          "midi": 53,
          "time": 137.83319549999953,
          "velocity": 1,
          "duration": 0.16666649999999095
        },
        {
          "name": "A#2",
          "midi": 46,
          "time": 137.99986199999952,
          "velocity": 1,
          "duration": 0.3333329999999819
        },
        {
          "name": "D4",
          "midi": 62,
          "time": 137.99986199999952,
          "velocity": 1,
          "duration": 0.3333329999999819
        },
        {
          "name": "A#3",
          "midi": 58,
          "time": 138.16652849999952,
          "velocity": 1,
          "duration": 0.16666649999999095
        },
        {
          "name": "C#5",
          "midi": 73,
          "time": 138.3331949999995,
          "velocity": 1,
          "duration": 0.3333329999999819
        },
        {
          "name": "D4",
          "midi": 62,
          "time": 138.3331949999995,
          "velocity": 1,
          "duration": 0.16666649999999095
        },
        {
          "name": "A#3",
          "midi": 58,
          "time": 138.4998614999995,
          "velocity": 1,
          "duration": 0.16666649999999095
        },
        {
          "name": "F4",
          "midi": 65,
          "time": 138.4998614999995,
          "velocity": 1,
          "duration": 0.16666649999999095
        },
        {
          "name": "F3",
          "midi": 53,
          "time": 138.6665279999995,
          "velocity": 1,
          "duration": 0.16666649999999095
        },
        {
          "name": "D5",
          "midi": 74,
          "time": 138.6665279999995,
          "velocity": 1,
          "duration": 0.49999950000000126
        },
        {
          "name": "A#4",
          "midi": 70,
          "time": 138.6665279999995,
          "velocity": 1,
          "duration": 0.16666649999999095
        },
        {
          "name": "F4",
          "midi": 65,
          "time": 138.6665279999995,
          "velocity": 1,
          "duration": 0.16666649999999095
        },
        {
          "name": "D4",
          "midi": 62,
          "time": 138.83319449999948,
          "velocity": 1,
          "duration": 0.16666649999999095
        },
        {
          "name": "F#4",
          "midi": 66,
          "time": 138.83319449999948,
          "velocity": 1,
          "duration": 0.16666649999999095
        },
        {
          "name": "D3",
          "midi": 50,
          "time": 138.83319449999948,
          "velocity": 1,
          "duration": 0.16666649999999095
        },
        {
          "name": "D#3",
          "midi": 51,
          "time": 138.99986099999947,
          "velocity": 1,
          "duration": 0.16666650000001937
        },
        {
          "name": "G4",
          "midi": 67,
          "time": 138.99986099999947,
          "velocity": 1,
          "duration": 0.08333325000000968
        },
        {
          "name": "D#4",
          "midi": 63,
          "time": 138.99986099999947,
          "velocity": 1,
          "duration": 0.16666650000001937
        },
        {
          "name": "G4",
          "midi": 67,
          "time": 139.08319424999948,
          "velocity": 1,
          "duration": 0.08333325000000968
        },
        {
          "name": "D#3",
          "midi": 51,
          "time": 139.1665274999995,
          "velocity": 1,
          "duration": 0.16666650000001937
        },
        {
          "name": "G3",
          "midi": 55,
          "time": 139.1665274999995,
          "velocity": 1,
          "duration": 0.08333325000000968
        },
        {
          "name": "F#4",
          "midi": 66,
          "time": 139.1665274999995,
          "velocity": 1,
          "duration": 0.16666650000001937
        },
        {
          "name": "G3",
          "midi": 55,
          "time": 139.2498607499995,
          "velocity": 1,
          "duration": 0.08333325000000968
        },
        {
          "name": "D#3",
          "midi": 51,
          "time": 139.3331939999995,
          "velocity": 1,
          "duration": 0.16666649999999095
        },
        {
          "name": "G4",
          "midi": 67,
          "time": 139.3331939999995,
          "velocity": 1,
          "duration": 0.16666649999999095
        },
        {
          "name": "D#4",
          "midi": 63,
          "time": 139.3331939999995,
          "velocity": 1,
          "duration": 0.16666649999999095
        },
        {
          "name": "D#3",
          "midi": 51,
          "time": 139.4998604999995,
          "velocity": 1,
          "duration": 0.16666650000001937
        },
        {
          "name": "B4",
          "midi": 71,
          "time": 139.4998604999995,
          "velocity": 1,
          "duration": 0.16666650000001937
        },
        {
          "name": "G4",
          "midi": 67,
          "time": 139.4998604999995,
          "velocity": 1,
          "duration": 0.08333325000000968
        },
        {
          "name": "D#4",
          "midi": 63,
          "time": 139.4998604999995,
          "velocity": 1,
          "duration": 0.16666650000001937
        },
        {
          "name": "G4",
          "midi": 67,
          "time": 139.5831937499995,
          "velocity": 1,
          "duration": 0.08333325000000968
        },
        {
          "name": "D#3",
          "midi": 51,
          "time": 139.66652699999952,
          "velocity": 1,
          "duration": 0.16666650000001937
        },
        {
          "name": "C5",
          "midi": 72,
          "time": 139.66652699999952,
          "velocity": 1,
          "duration": 0.16666650000001937
        },
        {
          "name": "G4",
          "midi": 67,
          "time": 139.66652699999952,
          "velocity": 1,
          "duration": 0.08333325000000968
        },
        {
          "name": "D#4",
          "midi": 63,
          "time": 139.66652699999952,
          "velocity": 1,
          "duration": 0.16666650000001937
        },
        {
          "name": "G4",
          "midi": 67,
          "time": 139.74986024999953,
          "velocity": 1,
          "duration": 0.08333325000000968
        },
        {
          "name": "D#3",
          "midi": 51,
          "time": 139.83319349999954,
          "velocity": 1,
          "duration": 0.16666650000001937
        },
        {
          "name": "D5",
          "midi": 74,
          "time": 139.83319349999954,
          "velocity": 1,
          "duration": 0.16666650000001937
        },
        {
          "name": "G4",
          "midi": 67,
          "time": 139.83319349999954,
          "velocity": 1,
          "duration": 0.08333325000000968
        },
        {
          "name": "D#4",
          "midi": 63,
          "time": 139.83319349999954,
          "velocity": 1,
          "duration": 0.16666650000001937
        },
        {
          "name": "G4",
          "midi": 67,
          "time": 139.91652674999955,
          "velocity": 1,
          "duration": 0.08333325000000968
        },
        {
          "name": "G3",
          "midi": 55,
          "time": 139.99985999999956,
          "velocity": 1,
          "duration": 0.16666650000001937
        },
        {
          "name": "D#4",
          "midi": 63,
          "time": 139.99985999999956,
          "velocity": 1,
          "duration": 0.08333325000000968
        },
        {
          "name": "D#5",
          "midi": 75,
          "time": 139.99985999999956,
          "velocity": 1,
          "duration": 0.16666650000001937
        },
        {
          "name": "C3",
          "midi": 48,
          "time": 139.99985999999956,
          "velocity": 1,
          "duration": 0.16666650000001937
        },
        {
          "name": "D#4",
          "midi": 63,
          "time": 140.08319324999957,
          "velocity": 1,
          "duration": 0.08333325000000968
        },
        {
          "name": "C3",
          "midi": 48,
          "time": 140.16652649999958,
          "velocity": 1,
          "duration": 0.16666650000001937
        },
        {
          "name": "F#5",
          "midi": 78,
          "time": 140.16652649999958,
          "velocity": 1,
          "duration": 0.16666650000001937
        },
        {
          "name": "D#4",
          "midi": 63,
          "time": 140.16652649999958,
          "velocity": 1,
          "duration": 0.08333325000000968
        },
        {
          "name": "G3",
          "midi": 55,
          "time": 140.16652649999958,
          "velocity": 1,
          "duration": 0.16666650000001937
        },
        {
          "name": "D#4",
          "midi": 63,
          "time": 140.2498597499996,
          "velocity": 1,
          "duration": 0.08333325000000968
        },
        {
          "name": "C3",
          "midi": 48,
          "time": 140.3331929999996,
          "velocity": 1,
          "duration": 0.16666650000001937
        },
        {
          "name": "G5",
          "midi": 79,
          "time": 140.3331929999996,
          "velocity": 1,
          "duration": 0.16666650000001937
        },
        {
          "name": "D#4",
          "midi": 63,
          "time": 140.3331929999996,
          "velocity": 1,
          "duration": 0.08333325000000968
        },
        {
          "name": "G3",
          "midi": 55,
          "time": 140.3331929999996,
          "velocity": 1,
          "duration": 0.16666650000001937
        },
        {
          "name": "D#4",
          "midi": 63,
          "time": 140.4165262499996,
          "velocity": 1,
          "duration": 0.08333325000000968
        },
        {
          "name": "G3",
          "midi": 55,
          "time": 140.49985949999962,
          "velocity": 1,
          "duration": 0.16666650000001937
        },
        {
          "name": "G4",
          "midi": 67,
          "time": 140.49985949999962,
          "velocity": 1,
          "duration": 0.08333325000000968
        },
        {
          "name": "D#5",
          "midi": 75,
          "time": 140.49985949999962,
          "velocity": 1,
          "duration": 0.16666650000001937
        },
        {
          "name": "C3",
          "midi": 48,
          "time": 140.49985949999962,
          "velocity": 1,
          "duration": 0.16666650000001937
        },
        {
          "name": "G4",
          "midi": 67,
          "time": 140.58319274999963,
          "velocity": 1,
          "duration": 0.08333325000000968
        },
        {
          "name": "D3",
          "midi": 50,
          "time": 140.66652599999964,
          "velocity": 1,
          "duration": 0.16666650000001937
        },
        {
          "name": "D5",
          "midi": 74,
          "time": 140.66652599999964,
          "velocity": 1,
          "duration": 0.16666650000001937
        },
        {
          "name": "F4",
          "midi": 65,
          "time": 140.66652599999964,
          "velocity": 1,
          "duration": 0.08333325000000968
        },
        {
          "name": "B3",
          "midi": 59,
          "time": 140.66652599999964,
          "velocity": 1,
          "duration": 0.16666650000001937
        },
        {
          "name": "F4",
          "midi": 65,
          "time": 140.74985924999964,
          "velocity": 1,
          "duration": 0.08333325000000968
        },
        {
          "name": "D#3",
          "midi": 51,
          "time": 140.83319249999965,
          "velocity": 1,
          "duration": 0.16666650000001937
        },
        {
          "name": "C5",
          "midi": 72,
          "time": 140.83319249999965,
          "velocity": 1,
          "duration": 0.16666650000001937
        },
        {
          "name": "D#4",
          "midi": 63,
          "time": 140.83319249999965,
          "velocity": 1,
          "duration": 0.08333325000000968
        },
        {
          "name": "C4",
          "midi": 60,
          "time": 140.83319249999965,
          "velocity": 1,
          "duration": 0.16666650000001937
        },
        {
          "name": "D#4",
          "midi": 63,
          "time": 140.91652574999966,
          "velocity": 1,
          "duration": 0.08333325000000968
        },
        {
          "name": "F4",
          "midi": 65,
          "time": 140.99985899999967,
          "velocity": 1,
          "duration": 0.08333325000000968
        },
        {
          "name": "D4",
          "midi": 62,
          "time": 140.99985899999967,
          "velocity": 1,
          "duration": 0.08333325000000968
        },
        {
          "name": "A#4",
          "midi": 70,
          "time": 140.99985899999967,
          "velocity": 1,
          "duration": 0.08333325000000968
        },
        {
          "name": "F3",
          "midi": 53,
          "time": 140.99985899999967,
          "velocity": 1,
          "duration": 0.16666650000001937
        },
        {
          "name": "A#4",
          "midi": 70,
          "time": 141.08319224999968,
          "velocity": 1,
          "duration": 0.08333325000000968
        },
        {
          "name": "D4",
          "midi": 62,
          "time": 141.08319224999968,
          "velocity": 1,
          "duration": 0.08333325000000968
        },
        {
          "name": "F4",
          "midi": 65,
          "time": 141.08319224999968,
          "velocity": 1,
          "duration": 0.08333325000000968
        },
        {
          "name": "F3",
          "midi": 53,
          "time": 141.1665254999997,
          "velocity": 1,
          "duration": 0.16666650000001937
        },
        {
          "name": "D5",
          "midi": 74,
          "time": 141.1665254999997,
          "velocity": 1,
          "duration": 0.08333325000000968
        },
        {
          "name": "A#3",
          "midi": 58,
          "time": 141.1665254999997,
          "velocity": 1,
          "duration": 0.08333325000000968
        },
        {
          "name": "F4",
          "midi": 65,
          "time": 141.1665254999997,
          "velocity": 1,
          "duration": 0.08333325000000968
        },
        {
          "name": "D5",
          "midi": 74,
          "time": 141.2498587499997,
          "velocity": 1,
          "duration": 0.08333325000000968
        },
        {
          "name": "A#3",
          "midi": 58,
          "time": 141.2498587499997,
          "velocity": 1,
          "duration": 0.08333325000000968
        },
        {
          "name": "F4",
          "midi": 65,
          "time": 141.2498587499997,
          "velocity": 1,
          "duration": 0.08333325000000968
        },
        {
          "name": "F4",
          "midi": 65,
          "time": 141.3331919999997,
          "velocity": 1,
          "duration": 0.08333325000000968
        },
        {
          "name": "D4",
          "midi": 62,
          "time": 141.3331919999997,
          "velocity": 1,
          "duration": 0.08333325000000968
        },
        {
          "name": "F5",
          "midi": 77,
          "time": 141.3331919999997,
          "velocity": 1,
          "duration": 0.08333325000000968
        },
        {
          "name": "F3",
          "midi": 53,
          "time": 141.3331919999997,
          "velocity": 1,
          "duration": 0.16666650000001937
        },
        {
          "name": "F5",
          "midi": 77,
          "time": 141.41652524999972,
          "velocity": 1,
          "duration": 0.08333325000000968
        },
        {
          "name": "D4",
          "midi": 62,
          "time": 141.41652524999972,
          "velocity": 1,
          "duration": 0.08333325000000968
        },
        {
          "name": "F4",
          "midi": 65,
          "time": 141.41652524999972,
          "velocity": 1,
          "duration": 0.08333325000000968
        },
        {
          "name": "F3",
          "midi": 53,
          "time": 141.49985849999973,
          "velocity": 1,
          "duration": 0.16666650000001937
        },
        {
          "name": "A#5",
          "midi": 82,
          "time": 141.49985849999973,
          "velocity": 1,
          "duration": 0.08333325000000968
        },
        {
          "name": "F4",
          "midi": 65,
          "time": 141.49985849999973,
          "velocity": 1,
          "duration": 0.08333325000000968
        },
        {
          "name": "A#5",
          "midi": 82,
          "time": 141.58319174999974,
          "velocity": 1,
          "duration": 0.08333325000000968
        },
        {
          "name": "F4",
          "midi": 65,
          "time": 141.58319174999974,
          "velocity": 1,
          "duration": 0.08333325000000968
        },
        {
          "name": "D4",
          "midi": 62,
          "time": 141.66652499999975,
          "velocity": 1,
          "duration": 0.08333325000000968
        },
        {
          "name": "A#4",
          "midi": 70,
          "time": 141.66652499999975,
          "velocity": 1,
          "duration": 0.08333325000000968
        },
        {
          "name": "D6",
          "midi": 86,
          "time": 141.66652499999975,
          "velocity": 1,
          "duration": 0.08333325000000968
        },
        {
          "name": "D3",
          "midi": 50,
          "time": 141.66652499999975,
          "velocity": 1,
          "duration": 0.16666650000001937
        },
        {
          "name": "D6",
          "midi": 86,
          "time": 141.74985824999976,
          "velocity": 1,
          "duration": 0.08333325000000968
        },
        {
          "name": "A#4",
          "midi": 70,
          "time": 141.74985824999976,
          "velocity": 1,
          "duration": 0.08333325000000968
        },
        {
          "name": "D4",
          "midi": 62,
          "time": 141.74985824999976,
          "velocity": 1,
          "duration": 0.08333325000000968
        },
        {
          "name": "A#2",
          "midi": 46,
          "time": 141.83319149999977,
          "velocity": 1,
          "duration": 0.16666650000001937
        },
        {
          "name": "F6",
          "midi": 89,
          "time": 141.83319149999977,
          "velocity": 1,
          "duration": 0.08333325000000968
        },
        {
          "name": "D5",
          "midi": 74,
          "time": 141.83319149999977,
          "velocity": 1,
          "duration": 0.08333325000000968
        },
        {
          "name": "A#3",
          "midi": 58,
          "time": 141.83319149999977,
          "velocity": 1,
          "duration": 0.08333325000000968
        },
        {
          "name": "F6",
          "midi": 89,
          "time": 141.91652474999978,
          "velocity": 1,
          "duration": 0.08333325000000968
        },
        {
          "name": "D5",
          "midi": 74,
          "time": 141.91652474999978,
          "velocity": 1,
          "duration": 0.08333325000000968
        },
        {
          "name": "A#3",
          "midi": 58,
          "time": 141.91652474999978,
          "velocity": 1,
          "duration": 0.08333325000000968
        },
        {
          "name": "A3",
          "midi": 57,
          "time": 141.9998579999998,
          "velocity": 1,
          "duration": 0.08333325000000968
        },
        {
          "name": "D#5",
          "midi": 75,
          "time": 141.9998579999998,
          "velocity": 1,
          "duration": 0.08333325000000968
        },
        {
          "name": "F6",
          "midi": 89,
          "time": 141.9998579999998,
          "velocity": 1,
          "duration": 0.08333325000000968
        },
        {
          "name": "F2",
          "midi": 41,
          "time": 141.9998579999998,
          "velocity": 1,
          "duration": 0.16666650000001937
        },
        {
          "name": "F6",
          "midi": 89,
          "time": 142.0831912499998,
          "velocity": 1,
          "duration": 0.08333325000000968
        },
        {
          "name": "D#5",
          "midi": 75,
          "time": 142.0831912499998,
          "velocity": 1,
          "duration": 0.08333325000000968
        },
        {
          "name": "A4",
          "midi": 69,
          "time": 142.0831912499998,
          "velocity": 1,
          "duration": 0.08333325000000968
        },
        {
          "name": "F3",
          "midi": 53,
          "time": 142.1665244999998,
          "velocity": 1,
          "duration": 0.16666650000001937
        },
        {
          "name": "F6",
          "midi": 89,
          "time": 142.1665244999998,
          "velocity": 1,
          "duration": 0.08333325000000968
        },
        {
          "name": "D#5",
          "midi": 75,
          "time": 142.1665244999998,
          "velocity": 1,
          "duration": 0.08333325000000968
        },
        {
          "name": "A4",
          "midi": 69,
          "time": 142.1665244999998,
          "velocity": 1,
          "duration": 0.08333325000000968
        },
        {
          "name": "F6",
          "midi": 89,
          "time": 142.24985774999982,
          "velocity": 1,
          "duration": 0.08333325000000968
        },
        {
          "name": "D#5",
          "midi": 75,
          "time": 142.24985774999982,
          "velocity": 1,
          "duration": 0.08333325000000968
        },
        {
          "name": "A4",
          "midi": 69,
          "time": 142.24985774999982,
          "velocity": 1,
          "duration": 0.08333325000000968
        },
        {
          "name": "A4",
          "midi": 69,
          "time": 142.33319099999983,
          "velocity": 1,
          "duration": 0.08333325000000968
        },
        {
          "name": "D#5",
          "midi": 75,
          "time": 142.33319099999983,
          "velocity": 1,
          "duration": 0.08333325000000968
        },
        {
          "name": "F6",
          "midi": 89,
          "time": 142.33319099999983,
          "velocity": 1,
          "duration": 0.08333325000000968
        },
        {
          "name": "F3",
          "midi": 53,
          "time": 142.33319099999983,
          "velocity": 1,
          "duration": 0.16666650000001937
        },
        {
          "name": "F6",
          "midi": 89,
          "time": 142.41652424999984,
          "velocity": 1,
          "duration": 0.08333325000000968
        },
        {
          "name": "D#5",
          "midi": 75,
          "time": 142.41652424999984,
          "velocity": 1,
          "duration": 0.08333325000000968
        },
        {
          "name": "A4",
          "midi": 69,
          "time": 142.41652424999984,
          "velocity": 1,
          "duration": 0.08333325000000968
        },
        {
          "name": "F3",
          "midi": 53,
          "time": 142.49985749999985,
          "velocity": 1,
          "duration": 0.16666650000001937
        },
        {
          "name": "F6",
          "midi": 89,
          "time": 142.49985749999985,
          "velocity": 1,
          "duration": 0.08333325000000968
        },
        {
          "name": "D#5",
          "midi": 75,
          "time": 142.49985749999985,
          "velocity": 1,
          "duration": 0.08333325000000968
        },
        {
          "name": "A4",
          "midi": 69,
          "time": 142.49985749999985,
          "velocity": 1,
          "duration": 0.08333325000000968
        },
        {
          "name": "F6",
          "midi": 89,
          "time": 142.58319074999986,
          "velocity": 1,
          "duration": 0.08333325000000968
        },
        {
          "name": "D#5",
          "midi": 75,
          "time": 142.58319074999986,
          "velocity": 1,
          "duration": 0.08333325000000968
        },
        {
          "name": "A4",
          "midi": 69,
          "time": 142.58319074999986,
          "velocity": 1,
          "duration": 0.08333325000000968
        },
        {
          "name": "A4",
          "midi": 69,
          "time": 142.66652399999987,
          "velocity": 1,
          "duration": 0.08333325000000968
        },
        {
          "name": "D#5",
          "midi": 75,
          "time": 142.66652399999987,
          "velocity": 1,
          "duration": 0.08333325000000968
        },
        {
          "name": "F6",
          "midi": 89,
          "time": 142.66652399999987,
          "velocity": 1,
          "duration": 0.08333325000000968
        },
        {
          "name": "F3",
          "midi": 53,
          "time": 142.66652399999987,
          "velocity": 1,
          "duration": 0.16666650000001937
        },
        {
          "name": "F6",
          "midi": 89,
          "time": 142.74985724999988,
          "velocity": 1,
          "duration": 0.08333325000000968
        },
        {
          "name": "D#5",
          "midi": 75,
          "time": 142.74985724999988,
          "velocity": 1,
          "duration": 0.08333325000000968
        },
        {
          "name": "A4",
          "midi": 69,
          "time": 142.74985724999988,
          "velocity": 1,
          "duration": 0.08333325000000968
        },
        {
          "name": "A4",
          "midi": 69,
          "time": 142.8331904999999,
          "velocity": 1,
          "duration": 0.08333325000000968
        },
        {
          "name": "D#5",
          "midi": 75,
          "time": 142.8331904999999,
          "velocity": 1,
          "duration": 0.08333325000000968
        },
        {
          "name": "F6",
          "midi": 89,
          "time": 142.8331904999999,
          "velocity": 1,
          "duration": 0.08333325000000968
        },
        {
          "name": "F3",
          "midi": 53,
          "time": 142.8331904999999,
          "velocity": 1,
          "duration": 0.16666650000001937
        },
        {
          "name": "F6",
          "midi": 89,
          "time": 142.9165237499999,
          "velocity": 1,
          "duration": 0.08333325000000968
        },
        {
          "name": "D#5",
          "midi": 75,
          "time": 142.9165237499999,
          "velocity": 1,
          "duration": 0.08333325000000968
        },
        {
          "name": "A4",
          "midi": 69,
          "time": 142.9165237499999,
          "velocity": 1,
          "duration": 0.08333325000000968
        },
        {
          "name": "A#4",
          "midi": 70,
          "time": 142.9998569999999,
          "velocity": 1,
          "duration": 0.3333330000000103
        },
        {
          "name": "D5",
          "midi": 74,
          "time": 142.9998569999999,
          "velocity": 1,
          "duration": 0.3333330000000103
        },
        {
          "name": "A#5",
          "midi": 82,
          "time": 142.9998569999999,
          "velocity": 1,
          "duration": 0.3333330000000103
        },
        {
          "name": "A#3",
          "midi": 58,
          "time": 142.9998569999999,
          "velocity": 1,
          "duration": 0.3333330000000103
        },
        {
          "name": "F4",
          "midi": 65,
          "time": 143.33318999999992,
          "velocity": 1,
          "duration": 0.3333330000000103
        },
        {
          "name": "F3",
          "midi": 53,
          "time": 143.33318999999992,
          "velocity": 1,
          "duration": 0.3333330000000103
        },
        {
          "name": "D4",
          "midi": 62,
          "time": 143.66652299999993,
          "velocity": 1,
          "duration": 0.3333330000000103
        },
        {
          "name": "D3",
          "midi": 50,
          "time": 143.66652299999993,
          "velocity": 1,
          "duration": 0.3333330000000103
        },
        {
          "name": "A#2",
          "midi": 46,
          "time": 143.99985599999994,
          "velocity": 1,
          "duration": 0.3333330000000103
        },
        {
          "name": "A#5",
          "midi": 82,
          "time": 143.99985599999994,
          "velocity": 1,
          "duration": 0.3333330000000103
        },
        {
          "name": "A#4",
          "midi": 70,
          "time": 143.99985599999994,
          "velocity": 1,
          "duration": 0.3333330000000103
        },
        {
          "name": "G4",
          "midi": 67,
          "time": 144.33318899999995,
          "velocity": 1,
          "duration": 0.3333330000000103
        },
        {
          "name": "G3",
          "midi": 55,
          "time": 144.33318899999995,
          "velocity": 1,
          "duration": 0.3333330000000103
        },
        {
          "name": "D#3",
          "midi": 51,
          "time": 144.66652199999996,
          "velocity": 1,
          "duration": 0.3333330000000103
        },
        {
          "name": "D#4",
          "midi": 63,
          "time": 144.66652199999996,
          "velocity": 1,
          "duration": 0.3333330000000103
        },
        {
          "name": "A#2",
          "midi": 46,
          "time": 144.99985499999997,
          "velocity": 1,
          "duration": 0.3333330000000103
        },
        {
          "name": "A#5",
          "midi": 82,
          "time": 144.99985499999997,
          "velocity": 1,
          "duration": 0.3333330000000103
        },
        {
          "name": "A#4",
          "midi": 70,
          "time": 144.99985499999997,
          "velocity": 1,
          "duration": 0.3333330000000103
        },
        {
          "name": "F4",
          "midi": 65,
          "time": 145.33318799999998,
          "velocity": 1,
          "duration": 0.3333330000000103
        },
        {
          "name": "F3",
          "midi": 53,
          "time": 145.33318799999998,
          "velocity": 1,
          "duration": 0.3333330000000103
        },
        {
          "name": "D4",
          "midi": 62,
          "time": 145.666521,
          "velocity": 1,
          "duration": 0.3333330000000103
        },
        {
          "name": "D3",
          "midi": 50,
          "time": 145.666521,
          "velocity": 1,
          "duration": 0.3333330000000103
        },
        {
          "name": "C4",
          "midi": 60,
          "time": 145.999854,
          "velocity": 1,
          "duration": 0.3333330000000103
        },
        {
          "name": "D#4",
          "midi": 63,
          "time": 145.999854,
          "velocity": 1,
          "duration": 0.3333330000000103
        },
        {
          "name": "F#4",
          "midi": 66,
          "time": 145.999854,
          "velocity": 1,
          "duration": 0.3333330000000103
        },
        {
          "name": "A4",
          "midi": 69,
          "time": 145.999854,
          "velocity": 1,
          "duration": 0.3333330000000103
        },
        {
          "name": "A#4",
          "midi": 70,
          "time": 145.999854,
          "velocity": 1,
          "duration": 0.3333330000000103
        },
        {
          "name": "A#5",
          "midi": 82,
          "time": 145.999854,
          "velocity": 1,
          "duration": 0.3333330000000103
        },
        {
          "name": "A#2",
          "midi": 46,
          "time": 145.999854,
          "velocity": 1,
          "duration": 0.3333330000000103
        },
        {
          "name": "A#2",
          "midi": 46,
          "time": 146.333187,
          "velocity": 1,
          "duration": 0.3333330000000103
        },
        {
          "name": "A#5",
          "midi": 82,
          "time": 146.333187,
          "velocity": 1,
          "duration": 0.3333330000000103
        },
        {
          "name": "A#4",
          "midi": 70,
          "time": 146.333187,
          "velocity": 1,
          "duration": 0.3333330000000103
        },
        {
          "name": "A4",
          "midi": 69,
          "time": 146.333187,
          "velocity": 1,
          "duration": 0.3333330000000103
        },
        {
          "name": "F#4",
          "midi": 66,
          "time": 146.333187,
          "velocity": 1,
          "duration": 0.3333330000000103
        },
        {
          "name": "D#4",
          "midi": 63,
          "time": 146.333187,
          "velocity": 1,
          "duration": 0.3333330000000103
        },
        {
          "name": "C4",
          "midi": 60,
          "time": 146.333187,
          "velocity": 1,
          "duration": 0.3333330000000103
        },
        {
          "name": "C4",
          "midi": 60,
          "time": 146.66652000000002,
          "velocity": 1,
          "duration": 0.3333330000000103
        },
        {
          "name": "D#4",
          "midi": 63,
          "time": 146.66652000000002,
          "velocity": 1,
          "duration": 0.3333330000000103
        },
        {
          "name": "F#4",
          "midi": 66,
          "time": 146.66652000000002,
          "velocity": 1,
          "duration": 0.3333330000000103
        },
        {
          "name": "A4",
          "midi": 69,
          "time": 146.66652000000002,
          "velocity": 1,
          "duration": 0.3333330000000103
        },
        {
          "name": "A#4",
          "midi": 70,
          "time": 146.66652000000002,
          "velocity": 1,
          "duration": 0.3333330000000103
        },
        {
          "name": "A#5",
          "midi": 82,
          "time": 146.66652000000002,
          "velocity": 1,
          "duration": 0.3333330000000103
        },
        {
          "name": "A#2",
          "midi": 46,
          "time": 146.66652000000002,
          "velocity": 1,
          "duration": 0.3333330000000103
        },
        {
          "name": "A#3",
          "midi": 58,
          "time": 146.99985300000003,
          "velocity": 1,
          "duration": 0.3333330000000103
        },
        {
          "name": "D4",
          "midi": 62,
          "time": 146.99985300000003,
          "velocity": 1,
          "duration": 0.3333330000000103
        },
        {
          "name": "A#4",
          "midi": 70,
          "time": 146.99985300000003,
          "velocity": 1,
          "duration": 0.6666660000000206
        },
        {
          "name": "A#5",
          "midi": 82,
          "time": 146.99985300000003,
          "velocity": 1,
          "duration": 0.6666660000000206
        },
        {
          "name": "A#2",
          "midi": 46,
          "time": 146.99985300000003,
          "velocity": 1,
          "duration": 4.666661999999974
        },
        {
          "name": "F5",
          "midi": 77,
          "time": 147.66651900000005,
          "velocity": 1,
          "duration": 0.3333330000000103
        },
        {
          "name": "D5",
          "midi": 74,
          "time": 147.66651900000005,
          "velocity": 1,
          "duration": 0.3333330000000103
        },
        {
          "name": "A#5",
          "midi": 82,
          "time": 147.99985200000006,
          "velocity": 1,
          "duration": 0.6666659999999922
        },
        {
          "name": "A#4",
          "midi": 70,
          "time": 147.99985200000006,
          "velocity": 1,
          "duration": 0.6666659999999922
        },
        {
          "name": "D3",
          "midi": 50,
          "time": 148.66651800000005,
          "velocity": 1,
          "duration": 0.16666649999999095
        },
        {
          "name": "F4",
          "midi": 65,
          "time": 148.66651800000005,
          "velocity": 1,
          "duration": 0.3333329999999819
        },
        {
          "name": "F5",
          "midi": 77,
          "time": 148.66651800000005,
          "velocity": 1,
          "duration": 0.3333329999999819
        },
        {
          "name": "F3",
          "midi": 53,
          "time": 148.83318450000004,
          "velocity": 1,
          "duration": 0.16666649999999095
        },
        {
          "name": "G#4",
          "midi": 68,
          "time": 148.99985100000004,
          "velocity": 1,
          "duration": 0.6666659999999922
        },
        {
          "name": "G#3",
          "midi": 56,
          "time": 148.99985100000004,
          "velocity": 1,
          "duration": 0.6666659999999922
        },
        {
          "name": "B3",
          "midi": 59,
          "time": 149.66651700000003,
          "velocity": 1,
          "duration": 0.3333330000000103
        },
        {
          "name": "B4",
          "midi": 71,
          "time": 149.66651700000003,
          "velocity": 1,
          "duration": 0.3333330000000103
        },
        {
          "name": "G#4",
          "midi": 68,
          "time": 149.99985000000004,
          "velocity": 1,
          "duration": 0.6666659999999638
        },
        {
          "name": "G#3",
          "midi": 56,
          "time": 149.99985000000004,
          "velocity": 1,
          "duration": 0.6666659999999638
        },
        {
          "name": "D4",
          "midi": 62,
          "time": 150.16651650000003,
          "velocity": 1,
          "duration": 0.16666649999999095
        },
        {
          "name": "F4",
          "midi": 65,
          "time": 150.33318300000002,
          "velocity": 1,
          "duration": 0.16666649999999095
        },
        {
          "name": "F3",
          "midi": 53,
          "time": 150.666516,
          "velocity": 1,
          "duration": 0.3333329999999819
        },
        {
          "name": "F4",
          "midi": 65,
          "time": 150.666516,
          "velocity": 1,
          "duration": 0.3333329999999819
        },
        {
          "name": "D5",
          "midi": 74,
          "time": 150.666516,
          "velocity": 1,
          "duration": 0.16666649999999095
        },
        {
          "name": "F5",
          "midi": 77,
          "time": 150.8331825,
          "velocity": 1,
          "duration": 0.16666649999999095
        },
        {
          "name": "G#5",
          "midi": 80,
          "time": 150.99984899999998,
          "velocity": 1,
          "duration": 0.3333330000000103
        },
        {
          "name": "D4",
          "midi": 62,
          "time": 150.99984899999998,
          "velocity": 1,
          "duration": 0.6666660000000206
        },
        {
          "name": "D3",
          "midi": 50,
          "time": 150.99984899999998,
          "velocity": 1,
          "duration": 0.6666660000000206
        },
        {
          "name": "B3",
          "midi": 59,
          "time": 151.666515,
          "velocity": 1,
          "duration": 0.3333330000000103
        },
        {
          "name": "B2",
          "midi": 47,
          "time": 151.666515,
          "velocity": 1,
          "duration": 0.3333330000000103
        },
        {
          "name": "A2",
          "midi": 45,
          "time": 151.99984800000001,
          "velocity": 1,
          "duration": 0.6666659999999922
        },
        {
          "name": "A3",
          "midi": 57,
          "time": 151.99984800000001,
          "velocity": 1,
          "duration": 0.6666659999999922
        },
        {
          "name": "A#3",
          "midi": 58,
          "time": 152.666514,
          "velocity": 1,
          "duration": 0.3333330000000103
        },
        {
          "name": "G#3",
          "midi": 56,
          "time": 152.666514,
          "velocity": 1,
          "duration": 0.3333330000000103
        },
        {
          "name": "D5",
          "midi": 74,
          "time": 152.666514,
          "velocity": 1,
          "duration": 0.3333330000000103
        },
        {
          "name": "A#2",
          "midi": 46,
          "time": 152.666514,
          "velocity": 1,
          "duration": 0.3333330000000103
        },
        {
          "name": "D#3",
          "midi": 51,
          "time": 152.99984700000002,
          "velocity": 1,
          "duration": 0.6666659999999638
        },
        {
          "name": "D#5",
          "midi": 75,
          "time": 152.99984700000002,
          "velocity": 1,
          "duration": 0.3333329999999819
        },
        {
          "name": "G3",
          "midi": 55,
          "time": 152.99984700000002,
          "velocity": 1,
          "duration": 0.16666649999999095
        },
        {
          "name": "G4",
          "midi": 67,
          "time": 153.1665135,
          "velocity": 1,
          "duration": 0.16666649999999095
        },
        {
          "name": "A#3",
          "midi": 58,
          "time": 153.1665135,
          "velocity": 1,
          "duration": 0.16666649999999095
        },
        {
          "name": "G4",
          "midi": 67,
          "time": 153.33318,
          "velocity": 1,
          "duration": 0.16666649999999095
        },
        {
          "name": "A#3",
          "midi": 58,
          "time": 153.33318,
          "velocity": 1,
          "duration": 0.16666649999999095
        },
        {
          "name": "G4",
          "midi": 67,
          "time": 153.4998465,
          "velocity": 1,
          "duration": 0.16666649999999095
        },
        {
          "name": "A#3",
          "midi": 58,
          "time": 153.4998465,
          "velocity": 1,
          "duration": 0.16666649999999095
        },
        {
          "name": "A#3",
          "midi": 58,
          "time": 153.66651299999998,
          "velocity": 1,
          "duration": 0.16666649999999095
        },
        {
          "name": "G4",
          "midi": 67,
          "time": 153.66651299999998,
          "velocity": 1,
          "duration": 0.16666649999999095
        },
        {
          "name": "G3",
          "midi": 55,
          "time": 153.66651299999998,
          "velocity": 1,
          "duration": 0.3333329999999819
        },
        {
          "name": "G4",
          "midi": 67,
          "time": 153.83317949999997,
          "velocity": 1,
          "duration": 0.16666649999999095
        },
        {
          "name": "A#3",
          "midi": 58,
          "time": 153.83317949999997,
          "velocity": 1,
          "duration": 0.16666649999999095
        },
        {
          "name": "D#3",
          "midi": 51,
          "time": 153.99984599999996,
          "velocity": 1,
          "duration": 0.6666659999999638
        },
        {
          "name": "G4",
          "midi": 67,
          "time": 153.99984599999996,
          "velocity": 1,
          "duration": 0.16666649999999095
        },
        {
          "name": "A#3",
          "midi": 58,
          "time": 153.99984599999996,
          "velocity": 1,
          "duration": 0.16666649999999095
        },
        {
          "name": "A#3",
          "midi": 58,
          "time": 154.16651249999995,
          "velocity": 1,
          "duration": 0.16666649999999095
        },
        {
          "name": "G4",
          "midi": 67,
          "time": 154.16651249999995,
          "velocity": 1,
          "duration": 0.16666649999999095
        },
        {
          "name": "G4",
          "midi": 67,
          "time": 154.33317899999994,
          "velocity": 1,
          "duration": 0.16666649999999095
        },
        {
          "name": "A#3",
          "midi": 58,
          "time": 154.33317899999994,
          "velocity": 1,
          "duration": 0.16666649999999095
        },
        {
          "name": "G4",
          "midi": 67,
          "time": 154.49984549999994,
          "velocity": 1,
          "duration": 0.16666649999999095
        },
        {
          "name": "A#3",
          "midi": 58,
          "time": 154.49984549999994,
          "velocity": 1,
          "duration": 0.16666649999999095
        },
        {
          "name": "A#2",
          "midi": 46,
          "time": 154.66651199999993,
          "velocity": 1,
          "duration": 0.3333329999999819
        },
        {
          "name": "G4",
          "midi": 67,
          "time": 154.66651199999993,
          "velocity": 1,
          "duration": 0.16666649999999095
        },
        {
          "name": "A#3",
          "midi": 58,
          "time": 154.66651199999993,
          "velocity": 1,
          "duration": 0.16666649999999095
        },
        {
          "name": "A#3",
          "midi": 58,
          "time": 154.83317849999992,
          "velocity": 1,
          "duration": 0.16666649999999095
        },
        {
          "name": "G4",
          "midi": 67,
          "time": 154.83317849999992,
          "velocity": 1,
          "duration": 0.16666649999999095
        },
        {
          "name": "A#2",
          "midi": 46,
          "time": 154.9998449999999,
          "velocity": 1,
          "duration": 0.6666660000000206
        },
        {
          "name": "G#5",
          "midi": 80,
          "time": 154.9998449999999,
          "velocity": 1,
          "duration": 0.3333330000000103
        },
        {
          "name": "D4",
          "midi": 62,
          "time": 154.9998449999999,
          "velocity": 1,
          "duration": 0.6666660000000206
        },
        {
          "name": "D3",
          "midi": 50,
          "time": 154.9998449999999,
          "velocity": 1,
          "duration": 0.6666660000000206
        },
        {
          "name": "B2",
          "midi": 47,
          "time": 155.66651099999993,
          "velocity": 1,
          "duration": 0.3333330000000103
        },
        {
          "name": "B3",
          "midi": 59,
          "time": 155.66651099999993,
          "velocity": 1,
          "duration": 0.3333330000000103
        },
        {
          "name": "A2",
          "midi": 45,
          "time": 155.99984399999994,
          "velocity": 1,
          "duration": 0.6666659999999922
        },
        {
          "name": "A3",
          "midi": 57,
          "time": 155.99984399999994,
          "velocity": 1,
          "duration": 0.6666659999999922
        },
        {
          "name": "A#3",
          "midi": 58,
          "time": 156.66650999999993,
          "velocity": 1,
          "duration": 0.3333330000000103
        },
        {
          "name": "G#3",
          "midi": 56,
          "time": 156.66650999999993,
          "velocity": 1,
          "duration": 0.3333330000000103
        },
        {
          "name": "A#2",
          "midi": 46,
          "time": 156.66650999999993,
          "velocity": 1,
          "duration": 0.3333330000000103
        },
        {
          "name": "G#2",
          "midi": 44,
          "time": 156.99984299999994,
          "velocity": 1,
          "duration": 1.999998000000005
        },
        {
          "name": "G#3",
          "midi": 56,
          "time": 156.99984299999994,
          "velocity": 1,
          "duration": 1.999998000000005
        },
        {
          "name": "G4",
          "midi": 67,
          "time": 157.66650899999993,
          "velocity": 1,
          "duration": 0.3333330000000103
        },
        {
          "name": "E4",
          "midi": 64,
          "time": 157.99984199999994,
          "velocity": 1,
          "duration": 0.6666659999999922
        },
        {
          "name": "C4",
          "midi": 60,
          "time": 157.99984199999994,
          "velocity": 1,
          "duration": 0.9999990000000025
        },
        {
          "name": "F4",
          "midi": 65,
          "time": 158.66650799999994,
          "velocity": 1,
          "duration": 0.3333330000000103
        },
        {
          "name": "G3",
          "midi": 55,
          "time": 158.99984099999995,
          "velocity": 1,
          "duration": 1.999998000000005
        },
        {
          "name": "B3",
          "midi": 59,
          "time": 158.99984099999995,
          "velocity": 1,
          "duration": 1.999998000000005
        },
        {
          "name": "F4",
          "midi": 65,
          "time": 158.99984099999995,
          "velocity": 1,
          "duration": 0.3333330000000103
        },
        {
          "name": "G2",
          "midi": 43,
          "time": 158.99984099999995,
          "velocity": 1,
          "duration": 1.999998000000005
        },
        {
          "name": "G#3",
          "midi": 56,
          "time": 160.99983899999995,
          "velocity": 1,
          "duration": 1.999998000000005
        },
        {
          "name": "C4",
          "midi": 60,
          "time": 160.99983899999995,
          "velocity": 1,
          "duration": 1.999998000000005
        },
        {
          "name": "G#2",
          "midi": 44,
          "time": 160.99983899999995,
          "velocity": 1,
          "duration": 1.999998000000005
        },
        {
          "name": "G4",
          "midi": 67,
          "time": 161.66650499999994,
          "velocity": 1,
          "duration": 0.3333330000000103
        },
        {
          "name": "E4",
          "midi": 64,
          "time": 161.99983799999995,
          "velocity": 1,
          "duration": 0.6666659999999922
        },
        {
          "name": "F4",
          "midi": 65,
          "time": 162.66650399999995,
          "velocity": 1,
          "duration": 0.3333330000000103
        },
        {
          "name": "G3",
          "midi": 55,
          "time": 162.99983699999996,
          "velocity": 1,
          "duration": 0.3333330000000103
        },
        {
          "name": "B3",
          "midi": 59,
          "time": 162.99983699999996,
          "velocity": 1,
          "duration": 0.3333330000000103
        },
        {
          "name": "F4",
          "midi": 65,
          "time": 162.99983699999996,
          "velocity": 1,
          "duration": 0.3333330000000103
        },
        {
          "name": "G2",
          "midi": 43,
          "time": 162.99983699999996,
          "velocity": 1,
          "duration": 0.3333330000000103
        },
        {
          "name": "F5",
          "midi": 77,
          "time": 163.66650299999998,
          "velocity": 1,
          "duration": 0.999999000000031
        },
        {
          "name": "D5",
          "midi": 74,
          "time": 163.66650299999998,
          "velocity": 1,
          "duration": 0.999999000000031
        },
        {
          "name": "B4",
          "midi": 71,
          "time": 163.66650299999998,
          "velocity": 1,
          "duration": 0.999999000000031
        },
        {
          "name": "G3",
          "midi": 55,
          "time": 163.999836,
          "velocity": 1,
          "duration": 0.3333330000000103
        },
        {
          "name": "D5",
          "midi": 74,
          "time": 164.666502,
          "velocity": 1,
          "duration": 0.999999000000031
        },
        {
          "name": "B4",
          "midi": 71,
          "time": 164.666502,
          "velocity": 1,
          "duration": 0.999999000000031
        },
        {
          "name": "F4",
          "midi": 65,
          "time": 164.666502,
          "velocity": 1,
          "duration": 0.999999000000031
        },
        {
          "name": "G3",
          "midi": 55,
          "time": 164.99983500000002,
          "velocity": 1,
          "duration": 0.3333330000000103
        },
        {
          "name": "B4",
          "midi": 71,
          "time": 165.66650100000004,
          "velocity": 1,
          "duration": 0.999999000000031
        },
        {
          "name": "F4",
          "midi": 65,
          "time": 165.66650100000004,
          "velocity": 1,
          "duration": 0.999999000000031
        },
        {
          "name": "D4",
          "midi": 62,
          "time": 165.66650100000004,
          "velocity": 1,
          "duration": 0.999999000000031
        },
        {
          "name": "G3",
          "midi": 55,
          "time": 165.99983400000005,
          "velocity": 1,
          "duration": 0.3333330000000103
        },
        {
          "name": "F4",
          "midi": 65,
          "time": 166.66650000000007,
          "velocity": 1,
          "duration": 0.999999000000031
        },
        {
          "name": "D4",
          "midi": 62,
          "time": 166.66650000000007,
          "velocity": 1,
          "duration": 0.999999000000031
        },
        {
          "name": "B3",
          "midi": 59,
          "time": 166.66650000000007,
          "velocity": 1,
          "duration": 0.6666660000000206
        },
        {
          "name": "G3",
          "midi": 55,
          "time": 166.99983300000008,
          "velocity": 1,
          "duration": 0.3333330000000103
        },
        {
          "name": "G3",
          "midi": 55,
          "time": 167.3331660000001,
          "velocity": 1,
          "duration": 0.3333330000000103
        },
        {
          "name": "D#4",
          "midi": 63,
          "time": 167.6664990000001,
          "velocity": 1,
          "duration": 0.999999000000031
        },
        {
          "name": "C4",
          "midi": 60,
          "time": 167.6664990000001,
          "velocity": 1,
          "duration": 0.999999000000031
        },
        {
          "name": "G#3",
          "midi": 56,
          "time": 167.6664990000001,
          "velocity": 1,
          "duration": 0.3333330000000103
        },
        {
          "name": "A3",
          "midi": 57,
          "time": 167.9998320000001,
          "velocity": 1,
          "duration": 0.999999000000031
        },
        {
          "name": "G2",
          "midi": 43,
          "time": 167.9998320000001,
          "velocity": 1,
          "duration": 0.3333330000000103
        },
        {
          "name": "F#4",
          "midi": 66,
          "time": 168.66649800000013,
          "velocity": 1,
          "duration": 0.3333330000000103
        },
        {
          "name": "D#4",
          "midi": 63,
          "time": 168.66649800000013,
          "velocity": 1,
          "duration": 0.3333330000000103
        },
        {
          "name": "C4",
          "midi": 60,
          "time": 168.66649800000013,
          "velocity": 1,
          "duration": 0.3333330000000103
        },
        {
          "name": "B3",
          "midi": 59,
          "time": 168.99983100000014,
          "velocity": 1,
          "duration": 0.16666649999999095
        },
        {
          "name": "D4",
          "midi": 62,
          "time": 168.99983100000014,
          "velocity": 1,
          "duration": 0.16666649999999095
        },
        {
          "name": "G4",
          "midi": 67,
          "time": 168.99983100000014,
          "velocity": 1,
          "duration": 0.3333329999999819
        },
        {
          "name": "G2",
          "midi": 43,
          "time": 168.99983100000014,
          "velocity": 1,
          "duration": 0.3333329999999819
        },
        {
          "name": "G3",
          "midi": 55,
          "time": 169.16649750000013,
          "velocity": 1,
          "duration": 0.16666649999999095
        },
        {
          "name": "D4",
          "midi": 62,
          "time": 169.33316400000012,
          "velocity": 1,
          "duration": 0.16666649999999095
        },
        {
          "name": "B3",
          "midi": 59,
          "time": 169.33316400000012,
          "velocity": 1,
          "duration": 0.16666649999999095
        },
        {
          "name": "G4",
          "midi": 67,
          "time": 169.49983050000012,
          "velocity": 1,
          "duration": 0.16666649999999095
        },
        {
          "name": "G3",
          "midi": 55,
          "time": 169.49983050000012,
          "velocity": 1,
          "duration": 0.16666649999999095
        },
        {
          "name": "D4",
          "midi": 62,
          "time": 169.6664970000001,
          "velocity": 1,
          "duration": 0.16666649999999095
        },
        {
          "name": "B3",
          "midi": 59,
          "time": 169.6664970000001,
          "velocity": 1,
          "duration": 0.16666649999999095
        },
        {
          "name": "G4",
          "midi": 67,
          "time": 169.8331635000001,
          "velocity": 1,
          "duration": 0.16666649999999095
        },
        {
          "name": "G3",
          "midi": 55,
          "time": 169.8331635000001,
          "velocity": 1,
          "duration": 0.16666649999999095
        },
        {
          "name": "B3",
          "midi": 59,
          "time": 169.9998300000001,
          "velocity": 1,
          "duration": 0.16666649999999095
        },
        {
          "name": "D4",
          "midi": 62,
          "time": 169.9998300000001,
          "velocity": 1,
          "duration": 0.16666649999999095
        },
        {
          "name": "G4",
          "midi": 67,
          "time": 169.9998300000001,
          "velocity": 1,
          "duration": 1.1666654999999366
        },
        {
          "name": "G3",
          "midi": 55,
          "time": 170.16649650000008,
          "velocity": 1,
          "duration": 0.16666649999999095
        },
        {
          "name": "D4",
          "midi": 62,
          "time": 170.33316300000007,
          "velocity": 1,
          "duration": 0.16666649999999095
        },
        {
          "name": "B3",
          "midi": 59,
          "time": 170.33316300000007,
          "velocity": 1,
          "duration": 0.16666649999999095
        },
        {
          "name": "G3",
          "midi": 55,
          "time": 170.49982950000006,
          "velocity": 1,
          "duration": 0.16666649999999095
        },
        {
          "name": "B3",
          "midi": 59,
          "time": 170.66649600000005,
          "velocity": 1,
          "duration": 0.16666649999999095
        },
        {
          "name": "D4",
          "midi": 62,
          "time": 170.66649600000005,
          "velocity": 1,
          "duration": 0.16666649999999095
        },
        {
          "name": "G3",
          "midi": 55,
          "time": 170.83316250000004,
          "velocity": 1,
          "duration": 0.16666649999999095
        },
        {
          "name": "B2",
          "midi": 47,
          "time": 170.99982900000003,
          "velocity": 1,
          "duration": 0.3333329999999819
        },
        {
          "name": "F4",
          "midi": 65,
          "time": 170.99982900000003,
          "velocity": 1,
          "duration": 0.16666649999999095
        },
        {
          "name": "D4",
          "midi": 62,
          "time": 170.99982900000003,
          "velocity": 1,
          "duration": 0.16666649999999095
        },
        {
          "name": "G3",
          "midi": 55,
          "time": 171.16649550000002,
          "velocity": 1,
          "duration": 0.16666649999999095
        },
        {
          "name": "G4",
          "midi": 67,
          "time": 171.16649550000002,
          "velocity": 1,
          "duration": 0.16666649999999095
        },
        {
          "name": "A4",
          "midi": 69,
          "time": 171.16649550000002,
          "velocity": 1,
          "duration": 0.16666649999999095
        },
        {
          "name": "B4",
          "midi": 71,
          "time": 171.33316200000002,
          "velocity": 1,
          "duration": 0.16666649999999095
        },
        {
          "name": "F4",
          "midi": 65,
          "time": 171.33316200000002,
          "velocity": 1,
          "duration": 0.16666649999999095
        },
        {
          "name": "D4",
          "midi": 62,
          "time": 171.33316200000002,
          "velocity": 1,
          "duration": 0.16666649999999095
        },
        {
          "name": "C5",
          "midi": 72,
          "time": 171.4998285,
          "velocity": 1,
          "duration": 0.16666649999999095
        },
        {
          "name": "G4",
          "midi": 67,
          "time": 171.4998285,
          "velocity": 1,
          "duration": 0.16666649999999095
        },
        {
          "name": "G3",
          "midi": 55,
          "time": 171.4998285,
          "velocity": 1,
          "duration": 0.16666649999999095
        },
        {
          "name": "D5",
          "midi": 74,
          "time": 171.666495,
          "velocity": 1,
          "duration": 0.16666649999999095
        },
        {
          "name": "F4",
          "midi": 65,
          "time": 171.666495,
          "velocity": 1,
          "duration": 0.16666649999999095
        },
        {
          "name": "D4",
          "midi": 62,
          "time": 171.666495,
          "velocity": 1,
          "duration": 0.16666649999999095
        },
        {
          "name": "E5",
          "midi": 76,
          "time": 171.8331615,
          "velocity": 1,
          "duration": 0.16666649999999095
        },
        {
          "name": "G4",
          "midi": 67,
          "time": 171.8331615,
          "velocity": 1,
          "duration": 0.16666649999999095
        },
        {
          "name": "G3",
          "midi": 55,
          "time": 171.8331615,
          "velocity": 1,
          "duration": 0.16666649999999095
        },
        {
          "name": "D4",
          "midi": 62,
          "time": 171.99982799999998,
          "velocity": 1,
          "duration": 0.16666649999999095
        },
        {
          "name": "F4",
          "midi": 65,
          "time": 171.99982799999998,
          "velocity": 1,
          "duration": 0.16666649999999095
        },
        {
          "name": "F5",
          "midi": 77,
          "time": 171.99982799999998,
          "velocity": 1,
          "duration": 0.3333329999999819
        },
        {
          "name": "G2",
          "midi": 43,
          "time": 171.99982799999998,
          "velocity": 1,
          "duration": 0.3333329999999819
        },
        {
          "name": "G4",
          "midi": 67,
          "time": 172.16649449999997,
          "velocity": 1,
          "duration": 0.16666649999999095
        },
        {
          "name": "G3",
          "midi": 55,
          "time": 172.16649449999997,
          "velocity": 1,
          "duration": 0.16666649999999095
        },
        {
          "name": "D6",
          "midi": 86,
          "time": 172.33316099999996,
          "velocity": 1,
          "duration": 0.49999949999997284
        },
        {
          "name": "D4",
          "midi": 62,
          "time": 172.33316099999996,
          "velocity": 1,
          "duration": 0.16666649999999095
        },
        {
          "name": "B3",
          "midi": 59,
          "time": 172.33316099999996,
          "velocity": 1,
          "duration": 0.16666649999999095
        },
        {
          "name": "G3",
          "midi": 55,
          "time": 172.49982749999995,
          "velocity": 1,
          "duration": 0.16666649999999095
        },
        {
          "name": "G4",
          "midi": 67,
          "time": 172.49982749999995,
          "velocity": 1,
          "duration": 0.16666649999999095
        },
        {
          "name": "D4",
          "midi": 62,
          "time": 172.66649399999994,
          "velocity": 1,
          "duration": 0.16666649999999095
        },
        {
          "name": "B3",
          "midi": 59,
          "time": 172.66649399999994,
          "velocity": 1,
          "duration": 0.16666649999999095
        },
        {
          "name": "F5",
          "midi": 77,
          "time": 172.83316049999993,
          "velocity": 1,
          "duration": 0.16666649999999095
        },
        {
          "name": "G4",
          "midi": 67,
          "time": 172.83316049999993,
          "velocity": 1,
          "duration": 0.16666649999999095
        },
        {
          "name": "G3",
          "midi": 55,
          "time": 172.83316049999993,
          "velocity": 1,
          "duration": 0.16666649999999095
        },
        {
          "name": "C4",
          "midi": 60,
          "time": 172.99982699999993,
          "velocity": 1,
          "duration": 0.16666649999999095
        },
        {
          "name": "E4",
          "midi": 64,
          "time": 172.99982699999993,
          "velocity": 1,
          "duration": 0.16666649999999095
        },
        {
          "name": "E5",
          "midi": 76,
          "time": 172.99982699999993,
          "velocity": 1,
          "duration": 0.3333329999999819
        },
        {
          "name": "C3",
          "midi": 48,
          "time": 172.99982699999993,
          "velocity": 1,
          "duration": 0.3333329999999819
        },
        {
          "name": "G4",
          "midi": 67,
          "time": 173.16649349999992,
          "velocity": 1,
          "duration": 0.16666649999999095
        },
        {
          "name": "G3",
          "midi": 55,
          "time": 173.16649349999992,
          "velocity": 1,
          "duration": 0.16666649999999095
        },
        {
          "name": "E4",
          "midi": 64,
          "time": 173.3331599999999,
          "velocity": 1,
          "duration": 0.16666649999999095
        },
        {
          "name": "C4",
          "midi": 60,
          "time": 173.3331599999999,
          "velocity": 1,
          "duration": 0.16666649999999095
        },
        {
          "name": "G4",
          "midi": 67,
          "time": 173.4998264999999,
          "velocity": 1,
          "duration": 0.16666649999999095
        },
        {
          "name": "G3",
          "midi": 55,
          "time": 173.4998264999999,
          "velocity": 1,
          "duration": 0.16666649999999095
        },
        {
          "name": "E4",
          "midi": 64,
          "time": 173.6664929999999,
          "velocity": 1,
          "duration": 0.16666649999999095
        },
        {
          "name": "C4",
          "midi": 60,
          "time": 173.6664929999999,
          "velocity": 1,
          "duration": 0.16666649999999095
        },
        {
          "name": "G4",
          "midi": 67,
          "time": 173.83315949999988,
          "velocity": 1,
          "duration": 0.16666649999999095
        },
        {
          "name": "G3",
          "midi": 55,
          "time": 173.83315949999988,
          "velocity": 1,
          "duration": 0.16666649999999095
        },
        {
          "name": "C4",
          "midi": 60,
          "time": 173.99982599999987,
          "velocity": 1,
          "duration": 0.16666649999999095
        },
        {
          "name": "E4",
          "midi": 64,
          "time": 173.99982599999987,
          "velocity": 1,
          "duration": 0.16666649999999095
        },
        {
          "name": "G4",
          "midi": 67,
          "time": 173.99982599999987,
          "velocity": 1,
          "duration": 1.1666654999999366
        },
        {
          "name": "G3",
          "midi": 55,
          "time": 174.16649249999986,
          "velocity": 1,
          "duration": 0.16666649999999095
        },
        {
          "name": "E4",
          "midi": 64,
          "time": 174.33315899999985,
          "velocity": 1,
          "duration": 0.16666649999999095
        },
        {
          "name": "C4",
          "midi": 60,
          "time": 174.33315899999985,
          "velocity": 1,
          "duration": 0.16666649999999095
        },
        {
          "name": "G3",
          "midi": 55,
          "time": 174.49982549999984,
          "velocity": 1,
          "duration": 0.16666649999999095
        },
        {
          "name": "C4",
          "midi": 60,
          "time": 174.66649199999983,
          "velocity": 1,
          "duration": 0.16666649999999095
        },
        {
          "name": "E4",
          "midi": 64,
          "time": 174.66649199999983,
          "velocity": 1,
          "duration": 0.16666649999999095
        },
        {
          "name": "G3",
          "midi": 55,
          "time": 174.83315849999983,
          "velocity": 1,
          "duration": 0.16666649999999095
        },
        {
          "name": "E3",
          "midi": 52,
          "time": 174.99982499999982,
          "velocity": 1,
          "duration": 0.3333329999999819
        },
        {
          "name": "E4",
          "midi": 64,
          "time": 174.99982499999982,
          "velocity": 1,
          "duration": 0.16666649999999095
        },
        {
          "name": "C4",
          "midi": 60,
          "time": 174.99982499999982,
          "velocity": 1,
          "duration": 0.16666649999999095
        },
        {
          "name": "G3",
          "midi": 55,
          "time": 175.1664914999998,
          "velocity": 1,
          "duration": 0.16666649999999095
        },
        {
          "name": "G4",
          "midi": 67,
          "time": 175.1664914999998,
          "velocity": 1,
          "duration": 0.16666649999999095
        },
        {
          "name": "B4",
          "midi": 71,
          "time": 175.1664914999998,
          "velocity": 1,
          "duration": 0.16666649999999095
        },
        {
          "name": "C5",
          "midi": 72,
          "time": 175.3331579999998,
          "velocity": 1,
          "duration": 0.16666649999999095
        },
        {
          "name": "E4",
          "midi": 64,
          "time": 175.3331579999998,
          "velocity": 1,
          "duration": 0.16666649999999095
        },
        {
          "name": "C4",
          "midi": 60,
          "time": 175.3331579999998,
          "velocity": 1,
          "duration": 0.16666649999999095
        },
        {
          "name": "D5",
          "midi": 74,
          "time": 175.4998244999998,
          "velocity": 1,
          "duration": 0.16666649999999095
        },
        {
          "name": "G4",
          "midi": 67,
          "time": 175.4998244999998,
          "velocity": 1,
          "duration": 0.16666649999999095
        },
        {
          "name": "G3",
          "midi": 55,
          "time": 175.4998244999998,
          "velocity": 1,
          "duration": 0.16666649999999095
        },
        {
          "name": "E5",
          "midi": 76,
          "time": 175.66649099999978,
          "velocity": 1,
          "duration": 0.16666649999999095
        },
        {
          "name": "E4",
          "midi": 64,
          "time": 175.66649099999978,
          "velocity": 1,
          "duration": 0.16666649999999095
        },
        {
          "name": "C4",
          "midi": 60,
          "time": 175.66649099999978,
          "velocity": 1,
          "duration": 0.16666649999999095
        },
        {
          "name": "F5",
          "midi": 77,
          "time": 175.83315749999977,
          "velocity": 1,
          "duration": 0.16666649999999095
        },
        {
          "name": "G4",
          "midi": 67,
          "time": 175.83315749999977,
          "velocity": 1,
          "duration": 0.16666649999999095
        },
        {
          "name": "G3",
          "midi": 55,
          "time": 175.83315749999977,
          "velocity": 1,
          "duration": 0.16666649999999095
        },
        {
          "name": "C4",
          "midi": 60,
          "time": 175.99982399999976,
          "velocity": 1,
          "duration": 0.16666649999999095
        },
        {
          "name": "E4",
          "midi": 64,
          "time": 175.99982399999976,
          "velocity": 1,
          "duration": 0.16666649999999095
        },
        {
          "name": "G5",
          "midi": 79,
          "time": 175.99982399999976,
          "velocity": 1,
          "duration": 0.3333329999999819
        },
        {
          "name": "C3",
          "midi": 48,
          "time": 175.99982399999976,
          "velocity": 1,
          "duration": 0.3333329999999819
        },
        {
          "name": "G4",
          "midi": 67,
          "time": 176.16649049999975,
          "velocity": 1,
          "duration": 0.16666649999999095
        },
        {
          "name": "G3",
          "midi": 55,
          "time": 176.16649049999975,
          "velocity": 1,
          "duration": 0.16666649999999095
        },
        {
          "name": "C6",
          "midi": 84,
          "time": 176.33315699999974,
          "velocity": 1,
          "duration": 0.49999949999997284
        },
        {
          "name": "E4",
          "midi": 64,
          "time": 176.33315699999974,
          "velocity": 1,
          "duration": 0.16666649999999095
        },
        {
          "name": "C4",
          "midi": 60,
          "time": 176.33315699999974,
          "velocity": 1,
          "duration": 0.16666649999999095
        },
        {
          "name": "G3",
          "midi": 55,
          "time": 176.49982349999974,
          "velocity": 1,
          "duration": 0.16666649999999095
        },
        {
          "name": "G4",
          "midi": 67,
          "time": 176.49982349999974,
          "velocity": 1,
          "duration": 0.16666649999999095
        },
        {
          "name": "E4",
          "midi": 64,
          "time": 176.66648999999973,
          "velocity": 1,
          "duration": 0.16666649999999095
        },
        {
          "name": "C4",
          "midi": 60,
          "time": 176.66648999999973,
          "velocity": 1,
          "duration": 0.16666649999999095
        },
        {
          "name": "E5",
          "midi": 76,
          "time": 176.83315649999972,
          "velocity": 1,
          "duration": 0.16666649999999095
        },
        {
          "name": "G4",
          "midi": 67,
          "time": 176.83315649999972,
          "velocity": 1,
          "duration": 0.16666649999999095
        },
        {
          "name": "G3",
          "midi": 55,
          "time": 176.83315649999972,
          "velocity": 1,
          "duration": 0.16666649999999095
        },
        {
          "name": "B3",
          "midi": 59,
          "time": 176.9998229999997,
          "velocity": 1,
          "duration": 0.16666649999999095
        },
        {
          "name": "F4",
          "midi": 65,
          "time": 176.9998229999997,
          "velocity": 1,
          "duration": 0.16666649999999095
        },
        {
          "name": "F5",
          "midi": 77,
          "time": 176.9998229999997,
          "velocity": 1,
          "duration": 0.3333329999999819
        },
        {
          "name": "D3",
          "midi": 50,
          "time": 176.9998229999997,
          "velocity": 1,
          "duration": 0.3333329999999819
        },
        {
          "name": "G4",
          "midi": 67,
          "time": 177.1664894999997,
          "velocity": 1,
          "duration": 0.16666649999999095
        },
        {
          "name": "G3",
          "midi": 55,
          "time": 177.1664894999997,
          "velocity": 1,
          "duration": 0.16666649999999095
        },
        {
          "name": "G5",
          "midi": 79,
          "time": 177.3331559999997,
          "velocity": 1,
          "duration": 0.49999949999997284
        },
        {
          "name": "F4",
          "midi": 65,
          "time": 177.3331559999997,
          "velocity": 1,
          "duration": 0.16666649999999095
        },
        {
          "name": "B3",
          "midi": 59,
          "time": 177.3331559999997,
          "velocity": 1,
          "duration": 0.16666649999999095
        },
        {
          "name": "G3",
          "midi": 55,
          "time": 177.49982249999968,
          "velocity": 1,
          "duration": 0.16666649999999095
        },
        {
          "name": "G4",
          "midi": 67,
          "time": 177.49982249999968,
          "velocity": 1,
          "duration": 0.16666649999999095
        },
        {
          "name": "F4",
          "midi": 65,
          "time": 177.66648899999967,
          "velocity": 1,
          "duration": 0.16666649999999095
        },
        {
          "name": "B3",
          "midi": 59,
          "time": 177.66648899999967,
          "velocity": 1,
          "duration": 0.16666649999999095
        },
        {
          "name": "F5",
          "midi": 77,
          "time": 177.83315549999966,
          "velocity": 1,
          "duration": 0.16666649999999095
        },
        {
          "name": "G4",
          "midi": 67,
          "time": 177.83315549999966,
          "velocity": 1,
          "duration": 0.16666649999999095
        },
        {
          "name": "G3",
          "midi": 55,
          "time": 177.83315549999966,
          "velocity": 1,
          "duration": 0.16666649999999095
        },
        {
          "name": "B3",
          "midi": 59,
          "time": 177.99982199999965,
          "velocity": 1,
          "duration": 0.16666649999999095
        },
        {
          "name": "F4",
          "midi": 65,
          "time": 177.99982199999965,
          "velocity": 1,
          "duration": 0.16666649999999095
        },
        {
          "name": "E5",
          "midi": 76,
          "time": 177.99982199999965,
          "velocity": 1,
          "duration": 0.3333329999999819
        },
        {
          "name": "G2",
          "midi": 43,
          "time": 177.99982199999965,
          "velocity": 1,
          "duration": 1.1666654999999366
        },
        {
          "name": "G4",
          "midi": 67,
          "time": 178.16648849999964,
          "velocity": 1,
          "duration": 0.16666649999999095
        },
        {
          "name": "G3",
          "midi": 55,
          "time": 178.16648849999964,
          "velocity": 1,
          "duration": 0.16666649999999095
        },
        {
          "name": "F5",
          "midi": 77,
          "time": 178.33315499999964,
          "velocity": 1,
          "duration": 0.49999949999997284
        },
        {
          "name": "F4",
          "midi": 65,
          "time": 178.33315499999964,
          "velocity": 1,
          "duration": 0.16666649999999095
        },
        {
          "name": "D4",
          "midi": 62,
          "time": 178.33315499999964,
          "velocity": 1,
          "duration": 0.16666649999999095
        },
        {
          "name": "G3",
          "midi": 55,
          "time": 178.49982149999963,
          "velocity": 1,
          "duration": 0.16666649999999095
        },
        {
          "name": "G4",
          "midi": 67,
          "time": 178.49982149999963,
          "velocity": 1,
          "duration": 0.16666649999999095
        },
        {
          "name": "F4",
          "midi": 65,
          "time": 178.66648799999962,
          "velocity": 1,
          "duration": 0.16666649999999095
        },
        {
          "name": "D4",
          "midi": 62,
          "time": 178.66648799999962,
          "velocity": 1,
          "duration": 0.16666649999999095
        },
        {
          "name": "D5",
          "midi": 74,
          "time": 178.8331544999996,
          "velocity": 1,
          "duration": 0.16666649999999095
        },
        {
          "name": "G4",
          "midi": 67,
          "time": 178.8331544999996,
          "velocity": 1,
          "duration": 0.16666649999999095
        },
        {
          "name": "G3",
          "midi": 55,
          "time": 178.8331544999996,
          "velocity": 1,
          "duration": 0.16666649999999095
        },
        {
          "name": "D4",
          "midi": 62,
          "time": 178.9998209999996,
          "velocity": 1,
          "duration": 0.16666649999999095
        },
        {
          "name": "F4",
          "midi": 65,
          "time": 178.9998209999996,
          "velocity": 1,
          "duration": 0.16666649999999095
        },
        {
          "name": "B4",
          "midi": 71,
          "time": 178.9998209999996,
          "velocity": 1,
          "duration": 0.3333329999999819
        },
        {
          "name": "A2",
          "midi": 45,
          "time": 179.1664874999996,
          "velocity": 1,
          "duration": 0.16666649999999095
        },
        {
          "name": "G4",
          "midi": 67,
          "time": 179.1664874999996,
          "velocity": 1,
          "duration": 0.16666649999999095
        },
        {
          "name": "G3",
          "midi": 55,
          "time": 179.1664874999996,
          "velocity": 1,
          "duration": 0.16666649999999095
        },
        {
          "name": "B2",
          "midi": 47,
          "time": 179.33315399999958,
          "velocity": 1,
          "duration": 0.16666649999999095
        },
        {
          "name": "D5",
          "midi": 74,
          "time": 179.33315399999958,
          "velocity": 1,
          "duration": 0.49999949999997284
        },
        {
          "name": "D4",
          "midi": 62,
          "time": 179.33315399999958,
          "velocity": 1,
          "duration": 0.16666649999999095
        },
        {
          "name": "B3",
          "midi": 59,
          "time": 179.33315399999958,
          "velocity": 1,
          "duration": 0.16666649999999095
        },
        {
          "name": "G3",
          "midi": 55,
          "time": 179.49982049999957,
          "velocity": 1,
          "duration": 0.16666649999999095
        },
        {
          "name": "G4",
          "midi": 67,
          "time": 179.49982049999957,
          "velocity": 1,
          "duration": 0.16666649999999095
        },
        {
          "name": "C3",
          "midi": 48,
          "time": 179.49982049999957,
          "velocity": 1,
          "duration": 0.16666649999999095
        },
        {
          "name": "D3",
          "midi": 50,
          "time": 179.66648699999956,
          "velocity": 1,
          "duration": 0.16666649999999095
        },
        {
          "name": "D4",
          "midi": 62,
          "time": 179.66648699999956,
          "velocity": 1,
          "duration": 0.16666649999999095
        },
        {
          "name": "B3",
          "midi": 59,
          "time": 179.66648699999956,
          "velocity": 1,
          "duration": 0.16666649999999095
        },
        {
          "name": "G3",
          "midi": 55,
          "time": 179.83315349999955,
          "velocity": 1,
          "duration": 0.16666649999999095
        },
        {
          "name": "G4",
          "midi": 67,
          "time": 179.83315349999955,
          "velocity": 1,
          "duration": 0.16666649999999095
        },
        {
          "name": "B4",
          "midi": 71,
          "time": 179.83315349999955,
          "velocity": 1,
          "duration": 0.16666649999999095
        },
        {
          "name": "E3",
          "midi": 52,
          "time": 179.83315349999955,
          "velocity": 1,
          "duration": 0.16666649999999095
        },
        {
          "name": "F3",
          "midi": 53,
          "time": 179.99981999999954,
          "velocity": 1,
          "duration": 0.16666649999999095
        },
        {
          "name": "G4",
          "midi": 67,
          "time": 179.99981999999954,
          "velocity": 1,
          "duration": 0.3333329999999819
        },
        {
          "name": "D4",
          "midi": 62,
          "time": 179.99981999999954,
          "velocity": 1,
          "duration": 0.16666649999999095
        },
        {
          "name": "B3",
          "midi": 59,
          "time": 179.99981999999954,
          "velocity": 1,
          "duration": 0.16666649999999095
        },
        {
          "name": "G3",
          "midi": 55,
          "time": 180.16648649999954,
          "velocity": 1,
          "duration": 0.16666649999999095
        },
        {
          "name": "D3",
          "midi": 50,
          "time": 180.16648649999954,
          "velocity": 1,
          "duration": 0.16666649999999095
        },
        {
          "name": "B2",
          "midi": 47,
          "time": 180.33315299999953,
          "velocity": 1,
          "duration": 0.16666649999999095
        },
        {
          "name": "D5",
          "midi": 74,
          "time": 180.33315299999953,
          "velocity": 1,
          "duration": 0.49999949999997284
        },
        {
          "name": "F4",
          "midi": 65,
          "time": 180.33315299999953,
          "velocity": 1,
          "duration": 0.16666649999999095
        },
        {
          "name": "D4",
          "midi": 62,
          "time": 180.33315299999953,
          "velocity": 1,
          "duration": 0.16666649999999095
        },
        {
          "name": "G3",
          "midi": 55,
          "time": 180.49981949999952,
          "velocity": 1,
          "duration": 0.16666649999999095
        },
        {
          "name": "G4",
          "midi": 67,
          "time": 180.49981949999952,
          "velocity": 1,
          "duration": 0.16666649999999095
        },
        {
          "name": "G2",
          "midi": 43,
          "time": 180.49981949999952,
          "velocity": 1,
          "duration": 0.16666649999999095
        },
        {
          "name": "A2",
          "midi": 45,
          "time": 180.6664859999995,
          "velocity": 1,
          "duration": 0.16666649999999095
        },
        {
          "name": "F4",
          "midi": 65,
          "time": 180.6664859999995,
          "velocity": 1,
          "duration": 0.16666649999999095
        },
        {
          "name": "D4",
          "midi": 62,
          "time": 180.6664859999995,
          "velocity": 1,
          "duration": 0.16666649999999095
        },
        {
          "name": "G3",
          "midi": 55,
          "time": 180.8331524999995,
          "velocity": 1,
          "duration": 0.16666649999999095
        },
        {
          "name": "G4",
          "midi": 67,
          "time": 180.8331524999995,
          "velocity": 1,
          "duration": 0.16666649999999095
        },
        {
          "name": "F4",
          "midi": 65,
          "time": 180.8331524999995,
          "velocity": 1,
          "duration": 0.16666649999999095
        },
        {
          "name": "B2",
          "midi": 47,
          "time": 180.8331524999995,
          "velocity": 1,
          "duration": 0.16666649999999095
        },
        {
          "name": "C3",
          "midi": 48,
          "time": 180.9998189999995,
          "velocity": 1,
          "duration": 0.6666660000000775
        },
        {
          "name": "D#4",
          "midi": 63,
          "time": 180.9998189999995,
          "velocity": 1,
          "duration": 0.33333300000003874
        },
        {
          "name": "C4",
          "midi": 60,
          "time": 180.9998189999995,
          "velocity": 1,
          "duration": 0.08333325000000968
        },
        {
          "name": "G4",
          "midi": 67,
          "time": 181.0831522499995,
          "velocity": 1,
          "duration": 0.08333325000000968
        },
        {
          "name": "C4",
          "midi": 60,
          "time": 181.0831522499995,
          "velocity": 1,
          "duration": 0.08333325000000968
        },
        {
          "name": "G4",
          "midi": 67,
          "time": 181.1664854999995,
          "velocity": 1,
          "duration": 0.08333325000000968
        },
        {
          "name": "C4",
          "midi": 60,
          "time": 181.1664854999995,
          "velocity": 1,
          "duration": 0.08333325000000968
        },
        {
          "name": "C4",
          "midi": 60,
          "time": 181.24981874999952,
          "velocity": 1,
          "duration": 0.08333325000000968
        },
        {
          "name": "G4",
          "midi": 67,
          "time": 181.24981874999952,
          "velocity": 1,
          "duration": 0.08333325000000968
        },
        {
          "name": "G4",
          "midi": 67,
          "time": 181.33315199999953,
          "velocity": 1,
          "duration": 0.08333325000000968
        },
        {
          "name": "D#4",
          "midi": 63,
          "time": 181.33315199999953,
          "velocity": 1,
          "duration": 0.08333325000000968
        },
        {
          "name": "C4",
          "midi": 60,
          "time": 181.33315199999953,
          "velocity": 1,
          "duration": 0.08333325000000968
        },
        {
          "name": "G4",
          "midi": 67,
          "time": 181.41648524999954,
          "velocity": 1,
          "duration": 0.08333325000000968
        },
        {
          "name": "D#4",
          "midi": 63,
          "time": 181.41648524999954,
          "velocity": 1,
          "duration": 0.08333325000000968
        },
        {
          "name": "C4",
          "midi": 60,
          "time": 181.41648524999954,
          "velocity": 1,
          "duration": 0.08333325000000968
        },
        {
          "name": "G4",
          "midi": 67,
          "time": 181.49981849999955,
          "velocity": 1,
          "duration": 0.08333325000000968
        },
        {
          "name": "D#4",
          "midi": 63,
          "time": 181.49981849999955,
          "velocity": 1,
          "duration": 0.08333325000000968
        },
        {
          "name": "C4",
          "midi": 60,
          "time": 181.49981849999955,
          "velocity": 1,
          "duration": 0.08333325000000968
        },
        {
          "name": "G4",
          "midi": 67,
          "time": 181.58315174999956,
          "velocity": 1,
          "duration": 0.08333325000000968
        },
        {
          "name": "D#4",
          "midi": 63,
          "time": 181.58315174999956,
          "velocity": 1,
          "duration": 0.08333325000000968
        },
        {
          "name": "C4",
          "midi": 60,
          "time": 181.58315174999956,
          "velocity": 1,
          "duration": 0.08333325000000968
        },
        {
          "name": "C4",
          "midi": 60,
          "time": 181.66648499999957,
          "velocity": 1,
          "duration": 0.08333325000000968
        },
        {
          "name": "D#4",
          "midi": 63,
          "time": 181.66648499999957,
          "velocity": 1,
          "duration": 0.08333325000000968
        },
        {
          "name": "G4",
          "midi": 67,
          "time": 181.66648499999957,
          "velocity": 1,
          "duration": 0.08333325000000968
        },
        {
          "name": "D#3",
          "midi": 51,
          "time": 181.66648499999957,
          "velocity": 1,
          "duration": 0.33333300000003874
        },
        {
          "name": "G4",
          "midi": 67,
          "time": 181.74981824999958,
          "velocity": 1,
          "duration": 0.08333325000000968
        },
        {
          "name": "D#4",
          "midi": 63,
          "time": 181.74981824999958,
          "velocity": 1,
          "duration": 0.08333325000000968
        },
        {
          "name": "C4",
          "midi": 60,
          "time": 181.74981824999958,
          "velocity": 1,
          "duration": 0.08333325000000968
        },
        {
          "name": "G4",
          "midi": 67,
          "time": 181.8331514999996,
          "velocity": 1,
          "duration": 0.08333325000000968
        },
        {
          "name": "D#4",
          "midi": 63,
          "time": 181.8331514999996,
          "velocity": 1,
          "duration": 0.08333325000000968
        },
        {
          "name": "C4",
          "midi": 60,
          "time": 181.8331514999996,
          "velocity": 1,
          "duration": 0.08333325000000968
        },
        {
          "name": "G4",
          "midi": 67,
          "time": 181.9164847499996,
          "velocity": 1,
          "duration": 0.08333325000000968
        },
        {
          "name": "D#4",
          "midi": 63,
          "time": 181.9164847499996,
          "velocity": 1,
          "duration": 0.08333325000000968
        },
        {
          "name": "C4",
          "midi": 60,
          "time": 181.9164847499996,
          "velocity": 1,
          "duration": 0.08333325000000968
        },
        {
          "name": "C4",
          "midi": 60,
          "time": 181.9998179999996,
          "velocity": 1,
          "duration": 0.08333325000000968
        },
        {
          "name": "D#4",
          "midi": 63,
          "time": 181.9998179999996,
          "velocity": 1,
          "duration": 0.08333325000000968
        },
        {
          "name": "G4",
          "midi": 67,
          "time": 181.9998179999996,
          "velocity": 1,
          "duration": 0.08333325000000968
        },
        {
          "name": "C3",
          "midi": 48,
          "time": 181.9998179999996,
          "velocity": 1,
          "duration": 0.6666660000000775
        },
        {
          "name": "G4",
          "midi": 67,
          "time": 182.08315124999962,
          "velocity": 1,
          "duration": 0.08333325000000968
        },
        {
          "name": "D#4",
          "midi": 63,
          "time": 182.08315124999962,
          "velocity": 1,
          "duration": 0.08333325000000968
        },
        {
          "name": "C4",
          "midi": 60,
          "time": 182.08315124999962,
          "velocity": 1,
          "duration": 0.08333325000000968
        },
        {
          "name": "G4",
          "midi": 67,
          "time": 182.16648449999963,
          "velocity": 1,
          "duration": 0.08333325000000968
        },
        {
          "name": "D#4",
          "midi": 63,
          "time": 182.16648449999963,
          "velocity": 1,
          "duration": 0.08333325000000968
        },
        {
          "name": "C4",
          "midi": 60,
          "time": 182.16648449999963,
          "velocity": 1,
          "duration": 0.08333325000000968
        },
        {
          "name": "G4",
          "midi": 67,
          "time": 182.24981774999964,
          "velocity": 1,
          "duration": 0.08333325000000968
        },
        {
          "name": "D#4",
          "midi": 63,
          "time": 182.24981774999964,
          "velocity": 1,
          "duration": 0.08333325000000968
        },
        {
          "name": "C4",
          "midi": 60,
          "time": 182.24981774999964,
          "velocity": 1,
          "duration": 0.08333325000000968
        },
        {
          "name": "G4",
          "midi": 67,
          "time": 182.33315099999965,
          "velocity": 1,
          "duration": 0.08333325000000968
        },
        {
          "name": "D#4",
          "midi": 63,
          "time": 182.33315099999965,
          "velocity": 1,
          "duration": 0.08333325000000968
        },
        {
          "name": "C4",
          "midi": 60,
          "time": 182.33315099999965,
          "velocity": 1,
          "duration": 0.08333325000000968
        },
        {
          "name": "C4",
          "midi": 60,
          "time": 182.41648424999966,
          "velocity": 1,
          "duration": 0.08333325000000968
        },
        {
          "name": "D#4",
          "midi": 63,
          "time": 182.41648424999966,
          "velocity": 1,
          "duration": 0.08333325000000968
        },
        {
          "name": "G4",
          "midi": 67,
          "time": 182.41648424999966,
          "velocity": 1,
          "duration": 0.08333325000000968
        },
        {
          "name": "G4",
          "midi": 67,
          "time": 182.49981749999966,
          "velocity": 1,
          "duration": 0.08333325000000968
        },
        {
          "name": "D#4",
          "midi": 63,
          "time": 182.49981749999966,
          "velocity": 1,
          "duration": 0.08333325000000968
        },
        {
          "name": "C4",
          "midi": 60,
          "time": 182.49981749999966,
          "velocity": 1,
          "duration": 0.08333325000000968
        },
        {
          "name": "G4",
          "midi": 67,
          "time": 182.58315074999967,
          "velocity": 1,
          "duration": 0.08333325000000968
        },
        {
          "name": "D#4",
          "midi": 63,
          "time": 182.58315074999967,
          "velocity": 1,
          "duration": 0.08333325000000968
        },
        {
          "name": "C4",
          "midi": 60,
          "time": 182.58315074999967,
          "velocity": 1,
          "duration": 0.08333325000000968
        },
        {
          "name": "G2",
          "midi": 43,
          "time": 182.66648399999968,
          "velocity": 1,
          "duration": 0.33333300000003874
        },
        {
          "name": "G4",
          "midi": 67,
          "time": 182.66648399999968,
          "velocity": 1,
          "duration": 0.33333300000003874
        },
        {
          "name": "D#4",
          "midi": 63,
          "time": 182.66648399999968,
          "velocity": 1,
          "duration": 0.08333325000000968
        },
        {
          "name": "C4",
          "midi": 60,
          "time": 182.66648399999968,
          "velocity": 1,
          "duration": 0.08333325000000968
        },
        {
          "name": "C4",
          "midi": 60,
          "time": 182.7498172499997,
          "velocity": 1,
          "duration": 0.08333325000000968
        },
        {
          "name": "D#4",
          "midi": 63,
          "time": 182.7498172499997,
          "velocity": 1,
          "duration": 0.08333325000000968
        },
        {
          "name": "D#4",
          "midi": 63,
          "time": 182.8331504999997,
          "velocity": 1,
          "duration": 0.08333325000000968
        },
        {
          "name": "C4",
          "midi": 60,
          "time": 182.8331504999997,
          "velocity": 1,
          "duration": 0.08333325000000968
        },
        {
          "name": "D#4",
          "midi": 63,
          "time": 182.9164837499997,
          "velocity": 1,
          "duration": 0.08333325000000968
        },
        {
          "name": "C4",
          "midi": 60,
          "time": 182.9164837499997,
          "velocity": 1,
          "duration": 0.08333325000000968
        },
        {
          "name": "C4",
          "midi": 60,
          "time": 182.99981699999972,
          "velocity": 1,
          "duration": 0.08333325000000968
        },
        {
          "name": "D#4",
          "midi": 63,
          "time": 182.99981699999972,
          "velocity": 1,
          "duration": 0.08333325000000968
        },
        {
          "name": "G4",
          "midi": 67,
          "time": 182.99981699999972,
          "velocity": 1,
          "duration": 0.08333325000000968
        },
        {
          "name": "C5",
          "midi": 72,
          "time": 182.99981699999972,
          "velocity": 1,
          "duration": 0.33333300000003874
        },
        {
          "name": "C3",
          "midi": 48,
          "time": 182.99981699999972,
          "velocity": 1,
          "duration": 0.33333300000003874
        },
        {
          "name": "G4",
          "midi": 67,
          "time": 183.08315024999973,
          "velocity": 1,
          "duration": 0.08333325000000968
        },
        {
          "name": "D#4",
          "midi": 63,
          "time": 183.08315024999973,
          "velocity": 1,
          "duration": 0.08333325000000968
        },
        {
          "name": "C4",
          "midi": 60,
          "time": 183.08315024999973,
          "velocity": 1,
          "duration": 0.08333325000000968
        },
        {
          "name": "C4",
          "midi": 60,
          "time": 183.16648349999974,
          "velocity": 1,
          "duration": 0.08333325000000968
        },
        {
          "name": "D#4",
          "midi": 63,
          "time": 183.16648349999974,
          "velocity": 1,
          "duration": 0.08333325000000968
        },
        {
          "name": "G4",
          "midi": 67,
          "time": 183.16648349999974,
          "velocity": 1,
          "duration": 0.08333325000000968
        },
        {
          "name": "G4",
          "midi": 67,
          "time": 183.24981674999975,
          "velocity": 1,
          "duration": 0.08333325000000968
        },
        {
          "name": "D#4",
          "midi": 63,
          "time": 183.24981674999975,
          "velocity": 1,
          "duration": 0.08333325000000968
        },
        {
          "name": "C4",
          "midi": 60,
          "time": 183.24981674999975,
          "velocity": 1,
          "duration": 0.08333325000000968
        },
        {
          "name": "D#5",
          "midi": 75,
          "time": 183.33314999999976,
          "velocity": 1,
          "duration": 0.33333300000003874
        },
        {
          "name": "G4",
          "midi": 67,
          "time": 183.33314999999976,
          "velocity": 1,
          "duration": 0.08333325000000968
        },
        {
          "name": "D#4",
          "midi": 63,
          "time": 183.33314999999976,
          "velocity": 1,
          "duration": 0.08333325000000968
        },
        {
          "name": "C4",
          "midi": 60,
          "time": 183.33314999999976,
          "velocity": 1,
          "duration": 0.08333325000000968
        },
        {
          "name": "G4",
          "midi": 67,
          "time": 183.41648324999977,
          "velocity": 1,
          "duration": 0.08333325000000968
        },
        {
          "name": "D#4",
          "midi": 63,
          "time": 183.41648324999977,
          "velocity": 1,
          "duration": 0.08333325000000968
        },
        {
          "name": "C4",
          "midi": 60,
          "time": 183.41648324999977,
          "velocity": 1,
          "duration": 0.08333325000000968
        },
        {
          "name": "G4",
          "midi": 67,
          "time": 183.49981649999978,
          "velocity": 1,
          "duration": 0.08333325000000968
        },
        {
          "name": "D#4",
          "midi": 63,
          "time": 183.49981649999978,
          "velocity": 1,
          "duration": 0.08333325000000968
        },
        {
          "name": "C4",
          "midi": 60,
          "time": 183.49981649999978,
          "velocity": 1,
          "duration": 0.08333325000000968
        },
        {
          "name": "C4",
          "midi": 60,
          "time": 183.5831497499998,
          "velocity": 1,
          "duration": 0.08333325000000968
        },
        {
          "name": "D#4",
          "midi": 63,
          "time": 183.5831497499998,
          "velocity": 1,
          "duration": 0.08333325000000968
        },
        {
          "name": "G4",
          "midi": 67,
          "time": 183.5831497499998,
          "velocity": 1,
          "duration": 0.08333325000000968
        },
        {
          "name": "G5",
          "midi": 79,
          "time": 183.6664829999998,
          "velocity": 1,
          "duration": 0.33333300000003874
        },
        {
          "name": "G4",
          "midi": 67,
          "time": 183.6664829999998,
          "velocity": 1,
          "duration": 0.08333325000000968
        },
        {
          "name": "D#4",
          "midi": 63,
          "time": 183.6664829999998,
          "velocity": 1,
          "duration": 0.08333325000000968
        },
        {
          "name": "C4",
          "midi": 60,
          "time": 183.6664829999998,
          "velocity": 1,
          "duration": 0.08333325000000968
        },
        {
          "name": "C4",
          "midi": 60,
          "time": 183.7498162499998,
          "velocity": 1,
          "duration": 0.08333325000000968
        },
        {
          "name": "D#4",
          "midi": 63,
          "time": 183.7498162499998,
          "velocity": 1,
          "duration": 0.08333325000000968
        },
        {
          "name": "G4",
          "midi": 67,
          "time": 183.7498162499998,
          "velocity": 1,
          "duration": 0.08333325000000968
        },
        {
          "name": "G4",
          "midi": 67,
          "time": 183.83314949999982,
          "velocity": 1,
          "duration": 0.08333325000000968
        },
        {
          "name": "D#4",
          "midi": 63,
          "time": 183.83314949999982,
          "velocity": 1,
          "duration": 0.08333325000000968
        },
        {
          "name": "C4",
          "midi": 60,
          "time": 183.83314949999982,
          "velocity": 1,
          "duration": 0.08333325000000968
        },
        {
          "name": "G4",
          "midi": 67,
          "time": 183.91648274999983,
          "velocity": 1,
          "duration": 0.08333325000000968
        },
        {
          "name": "D#4",
          "midi": 63,
          "time": 183.91648274999983,
          "velocity": 1,
          "duration": 0.08333325000000968
        },
        {
          "name": "C4",
          "midi": 60,
          "time": 183.91648274999983,
          "velocity": 1,
          "duration": 0.08333325000000968
        },
        {
          "name": "C4",
          "midi": 60,
          "time": 183.99981599999984,
          "velocity": 1,
          "duration": 0.08333325000000968
        },
        {
          "name": "D#4",
          "midi": 63,
          "time": 183.99981599999984,
          "velocity": 1,
          "duration": 0.08333325000000968
        },
        {
          "name": "G#4",
          "midi": 68,
          "time": 183.99981599999984,
          "velocity": 1,
          "duration": 0.08333325000000968
        },
        {
          "name": "G#5",
          "midi": 80,
          "time": 183.99981599999984,
          "velocity": 1,
          "duration": 1.333332000000155
        },
        {
          "name": "G#4",
          "midi": 68,
          "time": 184.08314924999985,
          "velocity": 1,
          "duration": 0.08333325000000968
        },
        {
          "name": "D#4",
          "midi": 63,
          "time": 184.08314924999985,
          "velocity": 1,
          "duration": 0.08333325000000968
        },
        {
          "name": "C4",
          "midi": 60,
          "time": 184.08314924999985,
          "velocity": 1,
          "duration": 0.08333325000000968
        },
        {
          "name": "G#4",
          "midi": 68,
          "time": 184.16648249999986,
          "velocity": 1,
          "duration": 0.08333325000000968
        },
        {
          "name": "D#4",
          "midi": 63,
          "time": 184.16648249999986,
          "velocity": 1,
          "duration": 0.08333325000000968
        },
        {
          "name": "C4",
          "midi": 60,
          "time": 184.16648249999986,
          "velocity": 1,
          "duration": 0.08333325000000968
        },
        {
          "name": "G#4",
          "midi": 68,
          "time": 184.24981574999987,
          "velocity": 1,
          "duration": 0.08333325000000968
        },
        {
          "name": "D#4",
          "midi": 63,
          "time": 184.24981574999987,
          "velocity": 1,
          "duration": 0.08333325000000968
        },
        {
          "name": "C4",
          "midi": 60,
          "time": 184.24981574999987,
          "velocity": 1,
          "duration": 0.08333325000000968
        },
        {
          "name": "G#4",
          "midi": 68,
          "time": 184.33314899999988,
          "velocity": 1,
          "duration": 0.08333325000000968
        },
        {
          "name": "D#4",
          "midi": 63,
          "time": 184.33314899999988,
          "velocity": 1,
          "duration": 0.08333325000000968
        },
        {
          "name": "C4",
          "midi": 60,
          "time": 184.33314899999988,
          "velocity": 1,
          "duration": 0.08333325000000968
        },
        {
          "name": "C4",
          "midi": 60,
          "time": 184.4164822499999,
          "velocity": 1,
          "duration": 0.08333325000000968
        },
        {
          "name": "D#4",
          "midi": 63,
          "time": 184.4164822499999,
          "velocity": 1,
          "duration": 0.08333325000000968
        },
        {
          "name": "G#4",
          "midi": 68,
          "time": 184.4164822499999,
          "velocity": 1,
          "duration": 0.08333325000000968
        },
        {
          "name": "G#4",
          "midi": 68,
          "time": 184.4998154999999,
          "velocity": 1,
          "duration": 0.08333325000000968
        },
        {
          "name": "D#4",
          "midi": 63,
          "time": 184.4998154999999,
          "velocity": 1,
          "duration": 0.08333325000000968
        },
        {
          "name": "C4",
          "midi": 60,
          "time": 184.4998154999999,
          "velocity": 1,
          "duration": 0.08333325000000968
        },
        {
          "name": "G#4",
          "midi": 68,
          "time": 184.5831487499999,
          "velocity": 1,
          "duration": 0.08333325000000968
        },
        {
          "name": "D#4",
          "midi": 63,
          "time": 184.5831487499999,
          "velocity": 1,
          "duration": 0.08333325000000968
        },
        {
          "name": "C4",
          "midi": 60,
          "time": 184.5831487499999,
          "velocity": 1,
          "duration": 0.08333325000000968
        },
        {
          "name": "C4",
          "midi": 60,
          "time": 184.66648199999992,
          "velocity": 1,
          "duration": 0.08333325000000968
        },
        {
          "name": "D#4",
          "midi": 63,
          "time": 184.66648199999992,
          "velocity": 1,
          "duration": 0.08333325000000968
        },
        {
          "name": "G#4",
          "midi": 68,
          "time": 184.66648199999992,
          "velocity": 1,
          "duration": 0.08333325000000968
        },
        {
          "name": "G#2",
          "midi": 44,
          "time": 184.66648199999992,
          "velocity": 1,
          "duration": 0.33333300000003874
        },
        {
          "name": "G#4",
          "midi": 68,
          "time": 184.74981524999993,
          "velocity": 1,
          "duration": 0.08333325000000968
        },
        {
          "name": "D#4",
          "midi": 63,
          "time": 184.74981524999993,
          "velocity": 1,
          "duration": 0.08333325000000968
        },
        {
          "name": "C4",
          "midi": 60,
          "time": 184.74981524999993,
          "velocity": 1,
          "duration": 0.08333325000000968
        },
        {
          "name": "C4",
          "midi": 60,
          "time": 184.83314849999994,
          "velocity": 1,
          "duration": 0.08333325000000968
        },
        {
          "name": "D#4",
          "midi": 63,
          "time": 184.83314849999994,
          "velocity": 1,
          "duration": 0.08333325000000968
        },
        {
          "name": "G#4",
          "midi": 68,
          "time": 184.83314849999994,
          "velocity": 1,
          "duration": 0.08333325000000968
        },
        {
          "name": "G#4",
          "midi": 68,
          "time": 184.91648174999995,
          "velocity": 1,
          "duration": 0.08333325000000968
        },
        {
          "name": "D#4",
          "midi": 63,
          "time": 184.91648174999995,
          "velocity": 1,
          "duration": 0.08333325000000968
        },
        {
          "name": "C4",
          "midi": 60,
          "time": 184.91648174999995,
          "velocity": 1,
          "duration": 0.08333325000000968
        },
        {
          "name": "C#4",
          "midi": 61,
          "time": 184.99981499999996,
          "velocity": 1,
          "duration": 0.08333325000000968
        },
        {
          "name": "E4",
          "midi": 64,
          "time": 184.99981499999996,
          "velocity": 1,
          "duration": 0.08333325000000968
        },
        {
          "name": "G#4",
          "midi": 68,
          "time": 184.99981499999996,
          "velocity": 1,
          "duration": 0.08333325000000968
        },
        {
          "name": "C#3",
          "midi": 49,
          "time": 184.99981499999996,
          "velocity": 1,
          "duration": 0.6666660000000775
        },
        {
          "name": "G#4",
          "midi": 68,
          "time": 185.08314824999997,
          "velocity": 1,
          "duration": 0.08333325000000968
        },
        {
          "name": "E4",
          "midi": 64,
          "time": 185.08314824999997,
          "velocity": 1,
          "duration": 0.08333325000000968
        },
        {
          "name": "C#4",
          "midi": 61,
          "time": 185.08314824999997,
          "velocity": 1,
          "duration": 0.08333325000000968
        },
        {
          "name": "G#4",
          "midi": 68,
          "time": 185.16648149999997,
          "velocity": 1,
          "duration": 0.08333325000000968
        },
        {
          "name": "E4",
          "midi": 64,
          "time": 185.16648149999997,
          "velocity": 1,
          "duration": 0.08333325000000968
        },
        {
          "name": "C#4",
          "midi": 61,
          "time": 185.16648149999997,
          "velocity": 1,
          "duration": 0.08333325000000968
        },
        {
          "name": "C#4",
          "midi": 61,
          "time": 185.24981474999998,
          "velocity": 1,
          "duration": 0.08333325000000968
        },
        {
          "name": "E4",
          "midi": 64,
          "time": 185.24981474999998,
          "velocity": 1,
          "duration": 0.08333325000000968
        },
        {
          "name": "G#4",
          "midi": 68,
          "time": 185.24981474999998,
          "velocity": 1,
          "duration": 0.08333325000000968
        },
        {
          "name": "G#4",
          "midi": 68,
          "time": 185.333148,
          "velocity": 1,
          "duration": 0.08333325000000968
        },
        {
          "name": "E4",
          "midi": 64,
          "time": 185.333148,
          "velocity": 1,
          "duration": 0.08333325000000968
        },
        {
          "name": "C#4",
          "midi": 61,
          "time": 185.333148,
          "velocity": 1,
          "duration": 0.08333325000000968
        },
        {
          "name": "G#4",
          "midi": 68,
          "time": 185.41648125,
          "velocity": 1,
          "duration": 0.08333325000000968
        },
        {
          "name": "E4",
          "midi": 64,
          "time": 185.41648125,
          "velocity": 1,
          "duration": 0.08333325000000968
        },
        {
          "name": "C#4",
          "midi": 61,
          "time": 185.41648125,
          "velocity": 1,
          "duration": 0.08333325000000968
        },
        {
          "name": "G#4",
          "midi": 68,
          "time": 185.4998145,
          "velocity": 1,
          "duration": 0.08333325000000968
        },
        {
          "name": "E4",
          "midi": 64,
          "time": 185.4998145,
          "velocity": 1,
          "duration": 0.08333325000000968
        },
        {
          "name": "C#4",
          "midi": 61,
          "time": 185.4998145,
          "velocity": 1,
          "duration": 0.08333325000000968
        },
        {
          "name": "G#4",
          "midi": 68,
          "time": 185.58314775000002,
          "velocity": 1,
          "duration": 0.08333325000000968
        },
        {
          "name": "E4",
          "midi": 64,
          "time": 185.58314775000002,
          "velocity": 1,
          "duration": 0.08333325000000968
        },
        {
          "name": "C#4",
          "midi": 61,
          "time": 185.58314775000002,
          "velocity": 1,
          "duration": 0.08333325000000968
        },
        {
          "name": "C#4",
          "midi": 61,
          "time": 185.66648100000003,
          "velocity": 1,
          "duration": 0.08333325000000968
        },
        {
          "name": "E4",
          "midi": 64,
          "time": 185.66648100000003,
          "velocity": 1,
          "duration": 0.08333325000000968
        },
        {
          "name": "G#4",
          "midi": 68,
          "time": 185.66648100000003,
          "velocity": 1,
          "duration": 0.08333325000000968
        },
        {
          "name": "E3",
          "midi": 52,
          "time": 185.66648100000003,
          "velocity": 1,
          "duration": 0.33333300000003874
        },
        {
          "name": "G#4",
          "midi": 68,
          "time": 185.74981425000004,
          "velocity": 1,
          "duration": 0.08333325000000968
        },
        {
          "name": "E4",
          "midi": 64,
          "time": 185.74981425000004,
          "velocity": 1,
          "duration": 0.08333325000000968
        },
        {
          "name": "C#4",
          "midi": 61,
          "time": 185.74981425000004,
          "velocity": 1,
          "duration": 0.08333325000000968
        },
        {
          "name": "G#4",
          "midi": 68,
          "time": 185.83314750000005,
          "velocity": 1,
          "duration": 0.08333325000000968
        },
        {
          "name": "E4",
          "midi": 64,
          "time": 185.83314750000005,
          "velocity": 1,
          "duration": 0.08333325000000968
        },
        {
          "name": "C#4",
          "midi": 61,
          "time": 185.83314750000005,
          "velocity": 1,
          "duration": 0.08333325000000968
        },
        {
          "name": "G#4",
          "midi": 68,
          "time": 185.91648075000006,
          "velocity": 1,
          "duration": 0.08333325000000968
        },
        {
          "name": "E4",
          "midi": 64,
          "time": 185.91648075000006,
          "velocity": 1,
          "duration": 0.08333325000000968
        },
        {
          "name": "C#4",
          "midi": 61,
          "time": 185.91648075000006,
          "velocity": 1,
          "duration": 0.08333325000000968
        },
        {
          "name": "C#4",
          "midi": 61,
          "time": 185.99981400000007,
          "velocity": 1,
          "duration": 0.08333325000000968
        },
        {
          "name": "E4",
          "midi": 64,
          "time": 185.99981400000007,
          "velocity": 1,
          "duration": 0.08333325000000968
        },
        {
          "name": "G#4",
          "midi": 68,
          "time": 185.99981400000007,
          "velocity": 1,
          "duration": 0.08333325000000968
        },
        {
          "name": "C#3",
          "midi": 49,
          "time": 185.99981400000007,
          "velocity": 1,
          "duration": 0.6666660000000775
        },
        {
          "name": "G#4",
          "midi": 68,
          "time": 186.08314725000008,
          "velocity": 1,
          "duration": 0.08333325000000968
        },
        {
          "name": "E4",
          "midi": 64,
          "time": 186.08314725000008,
          "velocity": 1,
          "duration": 0.08333325000000968
        },
        {
          "name": "C#4",
          "midi": 61,
          "time": 186.08314725000008,
          "velocity": 1,
          "duration": 0.08333325000000968
        },
        {
          "name": "G#4",
          "midi": 68,
          "time": 186.1664805000001,
          "velocity": 1,
          "duration": 0.08333325000000968
        },
        {
          "name": "E4",
          "midi": 64,
          "time": 186.1664805000001,
          "velocity": 1,
          "duration": 0.08333325000000968
        },
        {
          "name": "C#4",
          "midi": 61,
          "time": 186.1664805000001,
          "velocity": 1,
          "duration": 0.08333325000000968
        },
        {
          "name": "C#4",
          "midi": 61,
          "time": 186.2498137500001,
          "velocity": 1,
          "duration": 0.08333325000000968
        },
        {
          "name": "E4",
          "midi": 64,
          "time": 186.2498137500001,
          "velocity": 1,
          "duration": 0.08333325000000968
        },
        {
          "name": "G#4",
          "midi": 68,
          "time": 186.2498137500001,
          "velocity": 1,
          "duration": 0.08333325000000968
        },
        {
          "name": "G#4",
          "midi": 68,
          "time": 186.3331470000001,
          "velocity": 1,
          "duration": 0.08333325000000968
        },
        {
          "name": "E4",
          "midi": 64,
          "time": 186.3331470000001,
          "velocity": 1,
          "duration": 0.08333325000000968
        },
        {
          "name": "C#4",
          "midi": 61,
          "time": 186.3331470000001,
          "velocity": 1,
          "duration": 0.08333325000000968
        },
        {
          "name": "G#4",
          "midi": 68,
          "time": 186.41648025000012,
          "velocity": 1,
          "duration": 0.08333325000000968
        },
        {
          "name": "E4",
          "midi": 64,
          "time": 186.41648025000012,
          "velocity": 1,
          "duration": 0.08333325000000968
        },
        {
          "name": "C#4",
          "midi": 61,
          "time": 186.41648025000012,
          "velocity": 1,
          "duration": 0.08333325000000968
        },
        {
          "name": "C#4",
          "midi": 61,
          "time": 186.49981350000013,
          "velocity": 1,
          "duration": 0.08333325000000968
        },
        {
          "name": "E4",
          "midi": 64,
          "time": 186.49981350000013,
          "velocity": 1,
          "duration": 0.08333325000000968
        },
        {
          "name": "G#4",
          "midi": 68,
          "time": 186.49981350000013,
          "velocity": 1,
          "duration": 0.08333325000000968
        },
        {
          "name": "G#4",
          "midi": 68,
          "time": 186.58314675000014,
          "velocity": 1,
          "duration": 0.08333325000000968
        },
        {
          "name": "E4",
          "midi": 64,
          "time": 186.58314675000014,
          "velocity": 1,
          "duration": 0.08333325000000968
        },
        {
          "name": "C#4",
          "midi": 61,
          "time": 186.58314675000014,
          "velocity": 1,
          "duration": 0.08333325000000968
        },
        {
          "name": "G#2",
          "midi": 44,
          "time": 186.66648000000015,
          "velocity": 1,
          "duration": 0.33333300000003874
        },
        {
          "name": "G#4",
          "midi": 68,
          "time": 186.66648000000015,
          "velocity": 1,
          "duration": 0.33333300000003874
        },
        {
          "name": "E4",
          "midi": 64,
          "time": 186.66648000000015,
          "velocity": 1,
          "duration": 0.08333325000000968
        },
        {
          "name": "C#4",
          "midi": 61,
          "time": 186.66648000000015,
          "velocity": 1,
          "duration": 0.08333325000000968
        },
        {
          "name": "E4",
          "midi": 64,
          "time": 186.74981325000016,
          "velocity": 1,
          "duration": 0.08333325000000968
        },
        {
          "name": "C#4",
          "midi": 61,
          "time": 186.74981325000016,
          "velocity": 1,
          "duration": 0.08333325000000968
        },
        {
          "name": "C#4",
          "midi": 61,
          "time": 186.83314650000017,
          "velocity": 1,
          "duration": 0.08333325000000968
        },
        {
          "name": "E4",
          "midi": 64,
          "time": 186.83314650000017,
          "velocity": 1,
          "duration": 0.08333325000000968
        },
        {
          "name": "E4",
          "midi": 64,
          "time": 186.91647975000018,
          "velocity": 1,
          "duration": 0.08333325000000968
        },
        {
          "name": "C#4",
          "midi": 61,
          "time": 186.91647975000018,
          "velocity": 1,
          "duration": 0.08333325000000968
        },
        {
          "name": "C#3",
          "midi": 49,
          "time": 186.9998130000002,
          "velocity": 1,
          "duration": 0.33333300000003874
        },
        {
          "name": "C#5",
          "midi": 73,
          "time": 186.9998130000002,
          "velocity": 1,
          "duration": 0.33333300000003874
        },
        {
          "name": "G#4",
          "midi": 68,
          "time": 186.9998130000002,
          "velocity": 1,
          "duration": 0.08333325000000968
        },
        {
          "name": "E4",
          "midi": 64,
          "time": 186.9998130000002,
          "velocity": 1,
          "duration": 0.08333325000000968
        },
        {
          "name": "C#4",
          "midi": 61,
          "time": 186.9998130000002,
          "velocity": 1,
          "duration": 0.08333325000000968
        },
        {
          "name": "G#4",
          "midi": 68,
          "time": 187.0831462500002,
          "velocity": 1,
          "duration": 0.08333325000000968
        },
        {
          "name": "E4",
          "midi": 64,
          "time": 187.0831462500002,
          "velocity": 1,
          "duration": 0.08333325000000968
        },
        {
          "name": "C#4",
          "midi": 61,
          "time": 187.0831462500002,
          "velocity": 1,
          "duration": 0.08333325000000968
        },
        {
          "name": "C#4",
          "midi": 61,
          "time": 187.1664795000002,
          "velocity": 1,
          "duration": 0.08333325000000968
        },
        {
          "name": "E4",
          "midi": 64,
          "time": 187.1664795000002,
          "velocity": 1,
          "duration": 0.08333325000000968
        },
        {
          "name": "G#4",
          "midi": 68,
          "time": 187.1664795000002,
          "velocity": 1,
          "duration": 0.08333325000000968
        },
        {
          "name": "G#4",
          "midi": 68,
          "time": 187.24981275000022,
          "velocity": 1,
          "duration": 0.08333325000000968
        },
        {
          "name": "E4",
          "midi": 64,
          "time": 187.24981275000022,
          "velocity": 1,
          "duration": 0.08333325000000968
        },
        {
          "name": "C#4",
          "midi": 61,
          "time": 187.24981275000022,
          "velocity": 1,
          "duration": 0.08333325000000968
        },
        {
          "name": "E5",
          "midi": 76,
          "time": 187.33314600000023,
          "velocity": 1,
          "duration": 0.33333300000003874
        },
        {
          "name": "G#4",
          "midi": 68,
          "time": 187.33314600000023,
          "velocity": 1,
          "duration": 0.08333325000000968
        },
        {
          "name": "E4",
          "midi": 64,
          "time": 187.33314600000023,
          "velocity": 1,
          "duration": 0.08333325000000968
        },
        {
          "name": "C#4",
          "midi": 61,
          "time": 187.33314600000023,
          "velocity": 1,
          "duration": 0.08333325000000968
        },
        {
          "name": "G#4",
          "midi": 68,
          "time": 187.41647925000024,
          "velocity": 1,
          "duration": 0.08333325000000968
        },
        {
          "name": "E4",
          "midi": 64,
          "time": 187.41647925000024,
          "velocity": 1,
          "duration": 0.08333325000000968
        },
        {
          "name": "C#4",
          "midi": 61,
          "time": 187.41647925000024,
          "velocity": 1,
          "duration": 0.08333325000000968
        },
        {
          "name": "G#4",
          "midi": 68,
          "time": 187.49981250000025,
          "velocity": 1,
          "duration": 0.08333325000000968
        },
        {
          "name": "E4",
          "midi": 64,
          "time": 187.49981250000025,
          "velocity": 1,
          "duration": 0.08333325000000968
        },
        {
          "name": "C#4",
          "midi": 61,
          "time": 187.49981250000025,
          "velocity": 1,
          "duration": 0.08333325000000968
        },
        {
          "name": "C#4",
          "midi": 61,
          "time": 187.58314575000026,
          "velocity": 1,
          "duration": 0.08333325000000968
        },
        {
          "name": "E4",
          "midi": 64,
          "time": 187.58314575000026,
          "velocity": 1,
          "duration": 0.08333325000000968
        },
        {
          "name": "G#4",
          "midi": 68,
          "time": 187.58314575000026,
          "velocity": 1,
          "duration": 0.08333325000000968
        },
        {
          "name": "G#5",
          "midi": 80,
          "time": 187.66647900000027,
          "velocity": 1,
          "duration": 0.33333300000003874
        },
        {
          "name": "G#4",
          "midi": 68,
          "time": 187.66647900000027,
          "velocity": 1,
          "duration": 0.08333325000000968
        },
        {
          "name": "E4",
          "midi": 64,
          "time": 187.66647900000027,
          "velocity": 1,
          "duration": 0.08333325000000968
        },
        {
          "name": "C#4",
          "midi": 61,
          "time": 187.66647900000027,
          "velocity": 1,
          "duration": 0.08333325000000968
        },
        {
          "name": "C#4",
          "midi": 61,
          "time": 187.74981225000028,
          "velocity": 1,
          "duration": 0.08333325000000968
        },
        {
          "name": "E4",
          "midi": 64,
          "time": 187.74981225000028,
          "velocity": 1,
          "duration": 0.08333325000000968
        },
        {
          "name": "G#4",
          "midi": 68,
          "time": 187.74981225000028,
          "velocity": 1,
          "duration": 0.08333325000000968
        },
        {
          "name": "G#4",
          "midi": 68,
          "time": 187.83314550000028,
          "velocity": 1,
          "duration": 0.08333325000000968
        },
        {
          "name": "E4",
          "midi": 64,
          "time": 187.83314550000028,
          "velocity": 1,
          "duration": 0.08333325000000968
        },
        {
          "name": "C#4",
          "midi": 61,
          "time": 187.83314550000028,
          "velocity": 1,
          "duration": 0.08333325000000968
        },
        {
          "name": "G#4",
          "midi": 68,
          "time": 187.9164787500003,
          "velocity": 1,
          "duration": 0.08333325000000968
        },
        {
          "name": "E4",
          "midi": 64,
          "time": 187.9164787500003,
          "velocity": 1,
          "duration": 0.08333325000000968
        },
        {
          "name": "C#4",
          "midi": 61,
          "time": 187.9164787500003,
          "velocity": 1,
          "duration": 0.08333325000000968
        },
        {
          "name": "C#4",
          "midi": 61,
          "time": 187.9998120000003,
          "velocity": 1,
          "duration": 0.08333325000000968
        },
        {
          "name": "E4",
          "midi": 64,
          "time": 187.9998120000003,
          "velocity": 1,
          "duration": 0.08333325000000968
        },
        {
          "name": "A4",
          "midi": 69,
          "time": 187.9998120000003,
          "velocity": 1,
          "duration": 0.08333325000000968
        },
        {
          "name": "A5",
          "midi": 81,
          "time": 187.9998120000003,
          "velocity": 1,
          "duration": 1.1666655000001072
        },
        {
          "name": "A4",
          "midi": 69,
          "time": 188.0831452500003,
          "velocity": 1,
          "duration": 0.08333325000000968
        },
        {
          "name": "E4",
          "midi": 64,
          "time": 188.0831452500003,
          "velocity": 1,
          "duration": 0.08333325000000968
        },
        {
          "name": "C#4",
          "midi": 61,
          "time": 188.0831452500003,
          "velocity": 1,
          "duration": 0.08333325000000968
        },
        {
          "name": "A4",
          "midi": 69,
          "time": 188.16647850000032,
          "velocity": 1,
          "duration": 0.08333325000000968
        },
        {
          "name": "E4",
          "midi": 64,
          "time": 188.16647850000032,
          "velocity": 1,
          "duration": 0.08333325000000968
        },
        {
          "name": "C#4",
          "midi": 61,
          "time": 188.16647850000032,
          "velocity": 1,
          "duration": 0.08333325000000968
        },
        {
          "name": "A4",
          "midi": 69,
          "time": 188.24981175000033,
          "velocity": 1,
          "duration": 0.08333325000000968
        },
        {
          "name": "E4",
          "midi": 64,
          "time": 188.24981175000033,
          "velocity": 1,
          "duration": 0.08333325000000968
        },
        {
          "name": "C#4",
          "midi": 61,
          "time": 188.24981175000033,
          "velocity": 1,
          "duration": 0.08333325000000968
        },
        {
          "name": "A4",
          "midi": 69,
          "time": 188.33314500000034,
          "velocity": 1,
          "duration": 0.08333325000000968
        },
        {
          "name": "E4",
          "midi": 64,
          "time": 188.33314500000034,
          "velocity": 1,
          "duration": 0.08333325000000968
        },
        {
          "name": "C#4",
          "midi": 61,
          "time": 188.33314500000034,
          "velocity": 1,
          "duration": 0.08333325000000968
        },
        {
          "name": "C#4",
          "midi": 61,
          "time": 188.41647825000035,
          "velocity": 1,
          "duration": 0.08333325000000968
        },
        {
          "name": "E4",
          "midi": 64,
          "time": 188.41647825000035,
          "velocity": 1,
          "duration": 0.08333325000000968
        },
        {
          "name": "A4",
          "midi": 69,
          "time": 188.41647825000035,
          "velocity": 1,
          "duration": 0.08333325000000968
        },
        {
          "name": "A4",
          "midi": 69,
          "time": 188.49981150000036,
          "velocity": 1,
          "duration": 0.08333325000000968
        },
        {
          "name": "E4",
          "midi": 64,
          "time": 188.49981150000036,
          "velocity": 1,
          "duration": 0.08333325000000968
        },
        {
          "name": "C#4",
          "midi": 61,
          "time": 188.49981150000036,
          "velocity": 1,
          "duration": 0.08333325000000968
        },
        {
          "name": "A4",
          "midi": 69,
          "time": 188.58314475000037,
          "velocity": 1,
          "duration": 0.08333325000000968
        },
        {
          "name": "E4",
          "midi": 64,
          "time": 188.58314475000037,
          "velocity": 1,
          "duration": 0.08333325000000968
        },
        {
          "name": "C#4",
          "midi": 61,
          "time": 188.58314475000037,
          "velocity": 1,
          "duration": 0.08333325000000968
        },
        {
          "name": "C4",
          "midi": 60,
          "time": 188.66647800000038,
          "velocity": 1,
          "duration": 0.08333325000000968
        },
        {
          "name": "F4",
          "midi": 65,
          "time": 188.66647800000038,
          "velocity": 1,
          "duration": 0.08333325000000968
        },
        {
          "name": "A4",
          "midi": 69,
          "time": 188.66647800000038,
          "velocity": 1,
          "duration": 0.08333325000000968
        },
        {
          "name": "A2",
          "midi": 45,
          "time": 188.66647800000038,
          "velocity": 1,
          "duration": 0.33333300000003874
        },
        {
          "name": "A4",
          "midi": 69,
          "time": 188.7498112500004,
          "velocity": 1,
          "duration": 0.08333325000000968
        },
        {
          "name": "F4",
          "midi": 65,
          "time": 188.7498112500004,
          "velocity": 1,
          "duration": 0.08333325000000968
        },
        {
          "name": "C4",
          "midi": 60,
          "time": 188.7498112500004,
          "velocity": 1,
          "duration": 0.08333325000000968
        },
        {
          "name": "C4",
          "midi": 60,
          "time": 188.8331445000004,
          "velocity": 1,
          "duration": 0.08333325000000968
        },
        {
          "name": "F4",
          "midi": 65,
          "time": 188.8331445000004,
          "velocity": 1,
          "duration": 0.08333325000000968
        },
        {
          "name": "A4",
          "midi": 69,
          "time": 188.8331445000004,
          "velocity": 1,
          "duration": 0.08333325000000968
        },
        {
          "name": "A4",
          "midi": 69,
          "time": 188.9164777500004,
          "velocity": 1,
          "duration": 0.08333325000000968
        },
        {
          "name": "F4",
          "midi": 65,
          "time": 188.9164777500004,
          "velocity": 1,
          "duration": 0.08333325000000968
        },
        {
          "name": "C4",
          "midi": 60,
          "time": 188.9164777500004,
          "velocity": 1,
          "duration": 0.08333325000000968
        },
        {
          "name": "D3",
          "midi": 50,
          "time": 188.99981100000042,
          "velocity": 1,
          "duration": 0.6666660000000206
        },
        {
          "name": "A4",
          "midi": 69,
          "time": 188.99981100000042,
          "velocity": 1,
          "duration": 0.16666649999999095
        },
        {
          "name": "D4",
          "midi": 62,
          "time": 188.99981100000042,
          "velocity": 1,
          "duration": 0.6666660000000206
        },
        {
          "name": "F5",
          "midi": 77,
          "time": 189.1664775000004,
          "velocity": 1,
          "duration": 0.08333325000000968
        },
        {
          "name": "A5",
          "midi": 81,
          "time": 189.1664775000004,
          "velocity": 1,
          "duration": 0.3333330000000103
        },
        {
          "name": "A4",
          "midi": 69,
          "time": 189.1664775000004,
          "velocity": 1,
          "duration": 0.3333330000000103
        },
        {
          "name": "G5",
          "midi": 79,
          "time": 189.24981075000042,
          "velocity": 1,
          "duration": 0.08333325000000968
        },
        {
          "name": "F5",
          "midi": 77,
          "time": 189.33314400000043,
          "velocity": 1,
          "duration": 0.16666649999999095
        },
        {
          "name": "A4",
          "midi": 69,
          "time": 189.49981050000042,
          "velocity": 1,
          "duration": 0.3333330000000103
        },
        {
          "name": "A5",
          "midi": 81,
          "time": 189.49981050000042,
          "velocity": 1,
          "duration": 0.3333330000000103
        },
        {
          "name": "D5",
          "midi": 74,
          "time": 189.49981050000042,
          "velocity": 1,
          "duration": 0.08333325000000968
        },
        {
          "name": "E5",
          "midi": 76,
          "time": 189.58314375000043,
          "velocity": 1,
          "duration": 0.08333325000000968
        },
        {
          "name": "F3",
          "midi": 53,
          "time": 189.66647700000044,
          "velocity": 1,
          "duration": 0.3333330000000103
        },
        {
          "name": "D5",
          "midi": 74,
          "time": 189.66647700000044,
          "velocity": 1,
          "duration": 0.16666649999999095
        },
        {
          "name": "F4",
          "midi": 65,
          "time": 189.66647700000044,
          "velocity": 1,
          "duration": 0.3333330000000103
        },
        {
          "name": "A4",
          "midi": 69,
          "time": 189.83314350000043,
          "velocity": 1,
          "duration": 0.3333330000000103
        },
        {
          "name": "A5",
          "midi": 81,
          "time": 189.83314350000043,
          "velocity": 1,
          "duration": 0.3333330000000103
        },
        {
          "name": "A#4",
          "midi": 70,
          "time": 189.91647675000044,
          "velocity": 1,
          "duration": 0.08333325000000968
        },
        {
          "name": "D3",
          "midi": 50,
          "time": 189.99981000000045,
          "velocity": 1,
          "duration": 0.6666660000000206
        },
        {
          "name": "D4",
          "midi": 62,
          "time": 189.99981000000045,
          "velocity": 1,
          "duration": 0.6666660000000206
        },
        {
          "name": "A4",
          "midi": 69,
          "time": 190.16647650000044,
          "velocity": 1,
          "duration": 0.3333330000000103
        },
        {
          "name": "A5",
          "midi": 81,
          "time": 190.16647650000044,
          "velocity": 1,
          "duration": 0.3333330000000103
        },
        {
          "name": "F4",
          "midi": 65,
          "time": 190.16647650000044,
          "velocity": 1,
          "duration": 0.08333325000000968
        },
        {
          "name": "G4",
          "midi": 67,
          "time": 190.24980975000045,
          "velocity": 1,
          "duration": 0.08333325000000968
        },
        {
          "name": "F4",
          "midi": 65,
          "time": 190.33314300000046,
          "velocity": 1,
          "duration": 0.16666649999999095
        },
        {
          "name": "A5",
          "midi": 81,
          "time": 190.49980950000045,
          "velocity": 1,
          "duration": 0.3333330000000103
        },
        {
          "name": "A4",
          "midi": 69,
          "time": 190.49980950000045,
          "velocity": 1,
          "duration": 0.3333330000000103
        },
        {
          "name": "F4",
          "midi": 65,
          "time": 190.58314275000046,
          "velocity": 1,
          "duration": 0.08333325000000968
        },
        {
          "name": "A3",
          "midi": 57,
          "time": 190.66647600000047,
          "velocity": 1,
          "duration": 0.3333330000000103
        },
        {
          "name": "A2",
          "midi": 45,
          "time": 190.66647600000047,
          "velocity": 1,
          "duration": 0.3333330000000103
        },
        {
          "name": "D5",
          "midi": 74,
          "time": 190.83314250000046,
          "velocity": 1,
          "duration": 0.08333325000000968
        },
        {
          "name": "A5",
          "midi": 81,
          "time": 190.83314250000046,
          "velocity": 1,
          "duration": 0.3333330000000103
        },
        {
          "name": "A4",
          "midi": 69,
          "time": 190.83314250000046,
          "velocity": 1,
          "duration": 0.3333330000000103
        },
        {
          "name": "F5",
          "midi": 77,
          "time": 190.91647575000047,
          "velocity": 1,
          "duration": 0.08333325000000968
        },
        {
          "name": "D4",
          "midi": 62,
          "time": 190.99980900000048,
          "velocity": 1,
          "duration": 0.6666660000000206
        },
        {
          "name": "D3",
          "midi": 50,
          "time": 190.99980900000048,
          "velocity": 1,
          "duration": 0.6666660000000206
        },
        {
          "name": "A5",
          "midi": 81,
          "time": 191.16647550000047,
          "velocity": 1,
          "duration": 0.3333330000000103
        },
        {
          "name": "A4",
          "midi": 69,
          "time": 191.16647550000047,
          "velocity": 1,
          "duration": 0.3333330000000103
        },
        {
          "name": "F5",
          "midi": 77,
          "time": 191.16647550000047,
          "velocity": 1,
          "duration": 0.08333325000000968
        },
        {
          "name": "G5",
          "midi": 79,
          "time": 191.24980875000048,
          "velocity": 1,
          "duration": 0.08333325000000968
        },
        {
          "name": "F5",
          "midi": 77,
          "time": 191.3331420000005,
          "velocity": 1,
          "duration": 0.16666649999999095
        },
        {
          "name": "A5",
          "midi": 81,
          "time": 191.49980850000048,
          "velocity": 1,
          "duration": 0.3333330000000103
        },
        {
          "name": "A4",
          "midi": 69,
          "time": 191.49980850000048,
          "velocity": 1,
          "duration": 0.3333330000000103
        },
        {
          "name": "D5",
          "midi": 74,
          "time": 191.49980850000048,
          "velocity": 1,
          "duration": 0.08333325000000968
        },
        {
          "name": "E5",
          "midi": 76,
          "time": 191.5831417500005,
          "velocity": 1,
          "duration": 0.08333325000000968
        },
        {
          "name": "F4",
          "midi": 65,
          "time": 191.6664750000005,
          "velocity": 1,
          "duration": 0.3333330000000103
        },
        {
          "name": "D5",
          "midi": 74,
          "time": 191.6664750000005,
          "velocity": 1,
          "duration": 0.16666649999999095
        },
        {
          "name": "F3",
          "midi": 53,
          "time": 191.6664750000005,
          "velocity": 1,
          "duration": 0.3333330000000103
        },
        {
          "name": "A5",
          "midi": 81,
          "time": 191.8331415000005,
          "velocity": 1,
          "duration": 0.3333330000000103
        },
        {
          "name": "A4",
          "midi": 69,
          "time": 191.8331415000005,
          "velocity": 1,
          "duration": 0.3333330000000103
        },
        {
          "name": "A#4",
          "midi": 70,
          "time": 191.9164747500005,
          "velocity": 1,
          "duration": 0.08333325000000968
        },
        {
          "name": "D3",
          "midi": 50,
          "time": 191.9998080000005,
          "velocity": 1,
          "duration": 0.6666660000000206
        },
        {
          "name": "D4",
          "midi": 62,
          "time": 191.9998080000005,
          "velocity": 1,
          "duration": 0.6666660000000206
        },
        {
          "name": "A5",
          "midi": 81,
          "time": 192.1664745000005,
          "velocity": 1,
          "duration": 0.3333330000000103
        },
        {
          "name": "A4",
          "midi": 69,
          "time": 192.1664745000005,
          "velocity": 1,
          "duration": 0.3333330000000103
        },
        {
          "name": "F4",
          "midi": 65,
          "time": 192.1664745000005,
          "velocity": 1,
          "duration": 0.08333325000000968
        },
        {
          "name": "G4",
          "midi": 67,
          "time": 192.2498077500005,
          "velocity": 1,
          "duration": 0.08333325000000968
        },
        {
          "name": "F4",
          "midi": 65,
          "time": 192.33314100000052,
          "velocity": 1,
          "duration": 0.16666649999999095
        },
        {
          "name": "A5",
          "midi": 81,
          "time": 192.49980750000051,
          "velocity": 1,
          "duration": 0.3333330000000103
        },
        {
          "name": "A4",
          "midi": 69,
          "time": 192.49980750000051,
          "velocity": 1,
          "duration": 0.3333330000000103
        },
        {
          "name": "D5",
          "midi": 74,
          "time": 192.58314075000052,
          "velocity": 1,
          "duration": 0.08333325000000968
        },
        {
          "name": "A2",
          "midi": 45,
          "time": 192.66647400000053,
          "velocity": 1,
          "duration": 0.3333330000000103
        },
        {
          "name": "F5",
          "midi": 77,
          "time": 192.66647400000053,
          "velocity": 1,
          "duration": 0.16666649999999095
        },
        {
          "name": "A3",
          "midi": 57,
          "time": 192.66647400000053,
          "velocity": 1,
          "duration": 0.3333330000000103
        },
        {
          "name": "A5",
          "midi": 81,
          "time": 192.83314050000052,
          "velocity": 1,
          "duration": 0.3333330000000103
        },
        {
          "name": "A4",
          "midi": 69,
          "time": 192.83314050000052,
          "velocity": 1,
          "duration": 0.3333330000000103
        },
        {
          "name": "E5",
          "midi": 76,
          "time": 192.83314050000052,
          "velocity": 1,
          "duration": 0.08333325000000968
        },
        {
          "name": "D5",
          "midi": 74,
          "time": 192.91647375000053,
          "velocity": 1,
          "duration": 0.08333325000000968
        },
        {
          "name": "E3",
          "midi": 52,
          "time": 192.99980700000054,
          "velocity": 1,
          "duration": 0.6666660000000206
        },
        {
          "name": "C#5",
          "midi": 73,
          "time": 192.99980700000054,
          "velocity": 1,
          "duration": 0.16666649999999095
        },
        {
          "name": "G4",
          "midi": 67,
          "time": 193.16647350000054,
          "velocity": 1,
          "duration": 0.08333325000000968
        },
        {
          "name": "A5",
          "midi": 81,
          "time": 193.16647350000054,
          "velocity": 1,
          "duration": 0.3333330000000103
        },
        {
          "name": "A4",
          "midi": 69,
          "time": 193.16647350000054,
          "velocity": 1,
          "duration": 0.3333330000000103
        },
        {
          "name": "G4",
          "midi": 67,
          "time": 193.33314000000055,
          "velocity": 1,
          "duration": 0.16666649999999095
        },
        {
          "name": "A4",
          "midi": 69,
          "time": 193.49980650000055,
          "velocity": 1,
          "duration": 0.3333330000000103
        },
        {
          "name": "A5",
          "midi": 81,
          "time": 193.49980650000055,
          "velocity": 1,
          "duration": 0.3333330000000103
        },
        {
          "name": "E4",
          "midi": 64,
          "time": 193.49980650000055,
          "velocity": 1,
          "duration": 0.08333325000000968
        },
        {
          "name": "F4",
          "midi": 65,
          "time": 193.58313975000056,
          "velocity": 1,
          "duration": 0.08333325000000968
        },
        {
          "name": "G3",
          "midi": 55,
          "time": 193.66647300000056,
          "velocity": 1,
          "duration": 0.3333330000000103
        },
        {
          "name": "E4",
          "midi": 64,
          "time": 193.66647300000056,
          "velocity": 1,
          "duration": 0.16666649999999095
        },
        {
          "name": "A4",
          "midi": 69,
          "time": 193.83313950000056,
          "velocity": 1,
          "duration": 0.3333330000000103
        },
        {
          "name": "A5",
          "midi": 81,
          "time": 193.83313950000056,
          "velocity": 1,
          "duration": 0.3333330000000103
        },
        {
          "name": "C#4",
          "midi": 61,
          "time": 193.83313950000056,
          "velocity": 1,
          "duration": 0.08333325000000968
        },
        {
          "name": "D4",
          "midi": 62,
          "time": 193.91647275000057,
          "velocity": 1,
          "duration": 0.08333325000000968
        },
        {
          "name": "E3",
          "midi": 52,
          "time": 193.99980600000058,
          "velocity": 1,
          "duration": 0.6666660000000206
        },
        {
          "name": "C#4",
          "midi": 61,
          "time": 193.99980600000058,
          "velocity": 1,
          "duration": 0.16666649999999095
        },
        {
          "name": "A3",
          "midi": 57,
          "time": 194.16647250000057,
          "velocity": 1,
          "duration": 0.08333325000000968
        },
        {
          "name": "A5",
          "midi": 81,
          "time": 194.16647250000057,
          "velocity": 1,
          "duration": 0.3333330000000103
        },
        {
          "name": "A4",
          "midi": 69,
          "time": 194.16647250000057,
          "velocity": 1,
          "duration": 0.3333330000000103
        },
        {
          "name": "A#3",
          "midi": 58,
          "time": 194.24980575000058,
          "velocity": 1,
          "duration": 0.08333325000000968
        },
        {
          "name": "A3",
          "midi": 57,
          "time": 194.33313900000059,
          "velocity": 1,
          "duration": 0.16666649999999095
        },
        {
          "name": "A4",
          "midi": 69,
          "time": 194.49980550000058,
          "velocity": 1,
          "duration": 0.3333330000000103
        },
        {
          "name": "A5",
          "midi": 81,
          "time": 194.49980550000058,
          "velocity": 1,
          "duration": 0.3333330000000103
        },
        {
          "name": "C#4",
          "midi": 61,
          "time": 194.49980550000058,
          "velocity": 1,
          "duration": 0.08333325000000968
        },
        {
          "name": "E4",
          "midi": 64,
          "time": 194.5831387500006,
          "velocity": 1,
          "duration": 0.08333325000000968
        },
        {
          "name": "A2",
          "midi": 45,
          "time": 194.6664720000006,
          "velocity": 1,
          "duration": 0.3333330000000103
        },
        {
          "name": "G4",
          "midi": 67,
          "time": 194.6664720000006,
          "velocity": 1,
          "duration": 0.16666649999999095
        },
        {
          "name": "C#5",
          "midi": 73,
          "time": 194.8331385000006,
          "velocity": 1,
          "duration": 0.08333325000000968
        },
        {
          "name": "A5",
          "midi": 81,
          "time": 194.8331385000006,
          "velocity": 1,
          "duration": 0.3333330000000103
        },
        {
          "name": "A4",
          "midi": 69,
          "time": 194.8331385000006,
          "velocity": 1,
          "duration": 0.3333330000000103
        },
        {
          "name": "E5",
          "midi": 76,
          "time": 194.9164717500006,
          "velocity": 1,
          "duration": 0.08333325000000968
        },
        {
          "name": "E3",
          "midi": 52,
          "time": 194.9998050000006,
          "velocity": 1,
          "duration": 0.6666660000000206
        },
        {
          "name": "A5",
          "midi": 81,
          "time": 195.1664715000006,
          "velocity": 1,
          "duration": 0.3333330000000103
        },
        {
          "name": "A4",
          "midi": 69,
          "time": 195.1664715000006,
          "velocity": 1,
          "duration": 0.3333330000000103
        },
        {
          "name": "G4",
          "midi": 67,
          "time": 195.1664715000006,
          "velocity": 1,
          "duration": 0.08333325000000968
        },
        {
          "name": "G4",
          "midi": 67,
          "time": 195.33313800000062,
          "velocity": 1,
          "duration": 0.16666649999999095
        },
        {
          "name": "E4",
          "midi": 64,
          "time": 195.4998045000006,
          "velocity": 1,
          "duration": 0.08333325000000968
        },
        {
          "name": "A4",
          "midi": 69,
          "time": 195.4998045000006,
          "velocity": 1,
          "duration": 0.3333330000000103
        },
        {
          "name": "A5",
          "midi": 81,
          "time": 195.4998045000006,
          "velocity": 1,
          "duration": 0.3333330000000103
        },
        {
          "name": "F4",
          "midi": 65,
          "time": 195.58313775000062,
          "velocity": 1,
          "duration": 0.08333325000000968
        },
        {
          "name": "G3",
          "midi": 55,
          "time": 195.66647100000063,
          "velocity": 1,
          "duration": 0.3333330000000103
        },
        {
          "name": "E4",
          "midi": 64,
          "time": 195.66647100000063,
          "velocity": 1,
          "duration": 0.16666649999999095
        },
        {
          "name": "A5",
          "midi": 81,
          "time": 195.83313750000062,
          "velocity": 1,
          "duration": 0.3333330000000103
        },
        {
          "name": "A4",
          "midi": 69,
          "time": 195.83313750000062,
          "velocity": 1,
          "duration": 0.3333330000000103
        },
        {
          "name": "C#4",
          "midi": 61,
          "time": 195.83313750000062,
          "velocity": 1,
          "duration": 0.08333325000000968
        },
        {
          "name": "D4",
          "midi": 62,
          "time": 195.91647075000063,
          "velocity": 1,
          "duration": 0.08333325000000968
        },
        {
          "name": "E3",
          "midi": 52,
          "time": 195.99980400000064,
          "velocity": 1,
          "duration": 0.6666659999999922
        },
        {
          "name": "C#4",
          "midi": 61,
          "time": 195.99980400000064,
          "velocity": 1,
          "duration": 0.16666649999999095
        },
        {
          "name": "E4",
          "midi": 64,
          "time": 195.99980400000064,
          "velocity": 1,
          "duration": 0.6666659999999922
        },
        {
          "name": "A4",
          "midi": 69,
          "time": 196.16647050000063,
          "velocity": 1,
          "duration": 0.3333329999999819
        },
        {
          "name": "A5",
          "midi": 81,
          "time": 196.16647050000063,
          "velocity": 1,
          "duration": 0.3333329999999819
        },
        {
          "name": "C#5",
          "midi": 73,
          "time": 196.33313700000062,
          "velocity": 1,
          "duration": 0.16666649999999095
        },
        {
          "name": "A5",
          "midi": 81,
          "time": 196.4998035000006,
          "velocity": 1,
          "duration": 0.3333330000000103
        },
        {
          "name": "A4",
          "midi": 69,
          "time": 196.4998035000006,
          "velocity": 1,
          "duration": 0.3333330000000103
        },
        {
          "name": "E5",
          "midi": 76,
          "time": 196.4998035000006,
          "velocity": 1,
          "duration": 0.08333325000000968
        },
        {
          "name": "D5",
          "midi": 74,
          "time": 196.58313675000062,
          "velocity": 1,
          "duration": 0.08333325000000968
        },
        {
          "name": "G4",
          "midi": 67,
          "time": 196.66647000000063,
          "velocity": 1,
          "duration": 0.3333330000000103
        },
        {
          "name": "C#5",
          "midi": 73,
          "time": 196.66647000000063,
          "velocity": 1,
          "duration": 0.16666649999999095
        },
        {
          "name": "G3",
          "midi": 55,
          "time": 196.66647000000063,
          "velocity": 1,
          "duration": 0.3333330000000103
        },
        {
          "name": "A5",
          "midi": 81,
          "time": 196.83313650000062,
          "velocity": 1,
          "duration": 0.16666650000001937
        },
        {
          "name": "A4",
          "midi": 69,
          "time": 196.83313650000062,
          "velocity": 1,
          "duration": 0.16666650000001937
        },
        {
          "name": "E5",
          "midi": 76,
          "time": 196.83313650000062,
          "velocity": 1,
          "duration": 0.08333325000000968
        },
        {
          "name": "C#5",
          "midi": 73,
          "time": 196.91646975000063,
          "velocity": 1,
          "duration": 0.08333325000000968
        },
        {
          "name": "F#3",
          "midi": 54,
          "time": 196.99980300000064,
          "velocity": 1,
          "duration": 0.16666649999999095
        },
        {
          "name": "A5",
          "midi": 81,
          "time": 196.99980300000064,
          "velocity": 1,
          "duration": 0.49999950000000126
        },
        {
          "name": "A4",
          "midi": 69,
          "time": 196.99980300000064,
          "velocity": 1,
          "duration": 0.49999950000000126
        },
        {
          "name": "D5",
          "midi": 74,
          "time": 196.99980300000064,
          "velocity": 1,
          "duration": 0.16666649999999095
        },
        {
          "name": "F#4",
          "midi": 66,
          "time": 196.99980300000064,
          "velocity": 1,
          "duration": 0.16666649999999095
        },
        {
          "name": "F#4",
          "midi": 66,
          "time": 197.16646950000063,
          "velocity": 1,
          "duration": 0.16666650000001937
        },
        {
          "name": "D4",
          "midi": 62,
          "time": 197.16646950000063,
          "velocity": 1,
          "duration": 0.08333325000000968
        },
        {
          "name": "C4",
          "midi": 60,
          "time": 197.16646950000063,
          "velocity": 1,
          "duration": 0.16666650000001937
        },
        {
          "name": "D#4",
          "midi": 63,
          "time": 197.24980275000064,
          "velocity": 1,
          "duration": 0.08333325000000968
        },
        {
          "name": "C4",
          "midi": 60,
          "time": 197.33313600000065,
          "velocity": 1,
          "duration": 0.16666649999999095
        },
        {
          "name": "D4",
          "midi": 62,
          "time": 197.33313600000065,
          "velocity": 1,
          "duration": 0.16666649999999095
        },
        {
          "name": "F#4",
          "midi": 66,
          "time": 197.33313600000065,
          "velocity": 1,
          "duration": 0.16666649999999095
        },
        {
          "name": "A5",
          "midi": 81,
          "time": 197.49980250000064,
          "velocity": 1,
          "duration": 0.08333325000000968
        },
        {
          "name": "A5",
          "midi": 81,
          "time": 197.58313575000065,
          "velocity": 1,
          "duration": 0.08333325000000968
        },
        {
          "name": "F#5",
          "midi": 78,
          "time": 197.66646900000066,
          "velocity": 1,
          "duration": 0.08333325000000968
        },
        {
          "name": "F#5",
          "midi": 78,
          "time": 197.74980225000067,
          "velocity": 1,
          "duration": 0.08333325000000968
        },
        {
          "name": "D5",
          "midi": 74,
          "time": 197.83313550000068,
          "velocity": 1,
          "duration": 0.08333325000000968
        },
        {
          "name": "D5",
          "midi": 74,
          "time": 197.9164687500007,
          "velocity": 1,
          "duration": 0.08333325000000968
        },
        {
          "name": "G5",
          "midi": 79,
          "time": 197.9998020000007,
          "velocity": 1,
          "duration": 0.49999950000000126
        },
        {
          "name": "G4",
          "midi": 67,
          "time": 198.1664685000007,
          "velocity": 1,
          "duration": 0.16666650000001937
        },
        {
          "name": "D4",
          "midi": 62,
          "time": 198.1664685000007,
          "velocity": 1,
          "duration": 0.08333325000000968
        },
        {
          "name": "A#3",
          "midi": 58,
          "time": 198.1664685000007,
          "velocity": 1,
          "duration": 0.16666650000001937
        },
        {
          "name": "D#4",
          "midi": 63,
          "time": 198.2498017500007,
          "velocity": 1,
          "duration": 0.08333325000000968
        },
        {
          "name": "A#3",
          "midi": 58,
          "time": 198.3331350000007,
          "velocity": 1,
          "duration": 0.16666649999999095
        },
        {
          "name": "D4",
          "midi": 62,
          "time": 198.3331350000007,
          "velocity": 1,
          "duration": 0.16666649999999095
        },
        {
          "name": "G4",
          "midi": 67,
          "time": 198.3331350000007,
          "velocity": 1,
          "duration": 0.16666649999999095
        },
        {
          "name": "A#5",
          "midi": 82,
          "time": 198.4998015000007,
          "velocity": 1,
          "duration": 0.08333325000000968
        },
        {
          "name": "A#5",
          "midi": 82,
          "time": 198.5831347500007,
          "velocity": 1,
          "duration": 0.08333325000000968
        },
        {
          "name": "F5",
          "midi": 77,
          "time": 198.66646800000072,
          "velocity": 1,
          "duration": 0.08333325000000968
        },
        {
          "name": "F5",
          "midi": 77,
          "time": 198.74980125000073,
          "velocity": 1,
          "duration": 0.08333325000000968
        },
        {
          "name": "D5",
          "midi": 74,
          "time": 198.83313450000074,
          "velocity": 1,
          "duration": 0.08333325000000968
        },
        {
          "name": "D5",
          "midi": 74,
          "time": 198.91646775000075,
          "velocity": 1,
          "duration": 0.08333325000000968
        },
        {
          "name": "D4",
          "midi": 62,
          "time": 198.99980100000076,
          "velocity": 1,
          "duration": 0.33333300000003874
        },
        {
          "name": "C5",
          "midi": 72,
          "time": 198.99980100000076,
          "velocity": 1,
          "duration": 0.33333300000003874
        },
        {
          "name": "A5",
          "midi": 81,
          "time": 198.99980100000076,
          "velocity": 1,
          "duration": 0.08333325000000968
        },
        {
          "name": "F#3",
          "midi": 54,
          "time": 198.99980100000076,
          "velocity": 1,
          "duration": 0.33333300000003874
        },
        {
          "name": "A5",
          "midi": 81,
          "time": 199.08313425000077,
          "velocity": 1,
          "duration": 0.08333325000000968
        },
        {
          "name": "C6",
          "midi": 84,
          "time": 199.16646750000078,
          "velocity": 1,
          "duration": 0.08333325000000968
        },
        {
          "name": "C6",
          "midi": 84,
          "time": 199.2498007500008,
          "velocity": 1,
          "duration": 0.08333325000000968
        },
        {
          "name": "D#4",
          "midi": 63,
          "time": 199.2498007500008,
          "velocity": 1,
          "duration": 0.08333325000000968
        },
        {
          "name": "D4",
          "midi": 62,
          "time": 199.3331340000008,
          "velocity": 1,
          "duration": 0.16666650000001937
        },
        {
          "name": "A5",
          "midi": 81,
          "time": 199.3331340000008,
          "velocity": 1,
          "duration": 0.08333325000000968
        },
        {
          "name": "A5",
          "midi": 81,
          "time": 199.4164672500008,
          "velocity": 1,
          "duration": 0.08333325000000968
        },
        {
          "name": "D5",
          "midi": 74,
          "time": 199.49980050000082,
          "velocity": 1,
          "duration": 0.08333325000000968
        },
        {
          "name": "D4",
          "midi": 62,
          "time": 199.49980050000082,
          "velocity": 1,
          "duration": 0.08333325000000968
        },
        {
          "name": "D5",
          "midi": 74,
          "time": 199.58313375000083,
          "velocity": 1,
          "duration": 0.08333325000000968
        },
        {
          "name": "D#4",
          "midi": 63,
          "time": 199.58313375000083,
          "velocity": 1,
          "duration": 0.08333325000000968
        },
        {
          "name": "A5",
          "midi": 81,
          "time": 199.66646700000084,
          "velocity": 1,
          "duration": 0.08333325000000968
        },
        {
          "name": "D4",
          "midi": 62,
          "time": 199.66646700000084,
          "velocity": 1,
          "duration": 0.16666650000001937
        },
        {
          "name": "A5",
          "midi": 81,
          "time": 199.74980025000085,
          "velocity": 1,
          "duration": 0.08333325000000968
        },
        {
          "name": "C6",
          "midi": 84,
          "time": 199.83313350000086,
          "velocity": 1,
          "duration": 0.08333325000000968
        },
        {
          "name": "D4",
          "midi": 62,
          "time": 199.83313350000086,
          "velocity": 1,
          "duration": 0.08333325000000968
        },
        {
          "name": "C6",
          "midi": 84,
          "time": 199.91646675000086,
          "velocity": 1,
          "duration": 0.08333325000000968
        },
        {
          "name": "D#4",
          "midi": 63,
          "time": 199.91646675000086,
          "velocity": 1,
          "duration": 0.08333325000000968
        },
        {
          "name": "A5",
          "midi": 81,
          "time": 199.99980000000087,
          "velocity": 1,
          "duration": 0.08333325000000968
        },
        {
          "name": "D4",
          "midi": 62,
          "time": 199.99980000000087,
          "velocity": 1,
          "duration": 0.16666650000001937
        },
        {
          "name": "A5",
          "midi": 81,
          "time": 200.08313325000088,
          "velocity": 1,
          "duration": 0.08333325000000968
        },
        {
          "name": "A3",
          "midi": 57,
          "time": 200.1664665000009,
          "velocity": 1,
          "duration": 0.16666650000001937
        },
        {
          "name": "D4",
          "midi": 62,
          "time": 200.1664665000009,
          "velocity": 1,
          "duration": 0.08333325000000968
        },
        {
          "name": "D5",
          "midi": 74,
          "time": 200.1664665000009,
          "velocity": 1,
          "duration": 0.08333325000000968
        },
        {
          "name": "F#3",
          "midi": 54,
          "time": 200.1664665000009,
          "velocity": 1,
          "duration": 0.16666650000001937
        },
        {
          "name": "D5",
          "midi": 74,
          "time": 200.2497997500009,
          "velocity": 1,
          "duration": 0.08333325000000968
        },
        {
          "name": "D#4",
          "midi": 63,
          "time": 200.2497997500009,
          "velocity": 1,
          "duration": 0.08333325000000968
        },
        {
          "name": "A3",
          "midi": 57,
          "time": 200.3331330000009,
          "velocity": 1,
          "duration": 0.16666650000001937
        },
        {
          "name": "D4",
          "midi": 62,
          "time": 200.3331330000009,
          "velocity": 1,
          "duration": 0.16666650000001937
        },
        {
          "name": "A5",
          "midi": 81,
          "time": 200.3331330000009,
          "velocity": 1,
          "duration": 0.08333325000000968
        },
        {
          "name": "F#3",
          "midi": 54,
          "time": 200.3331330000009,
          "velocity": 1,
          "duration": 0.16666650000001937
        },
        {
          "name": "A5",
          "midi": 81,
          "time": 200.41646625000092,
          "velocity": 1,
          "duration": 0.08333325000000968
        },
        {
          "name": "F#3",
          "midi": 54,
          "time": 200.49979950000093,
          "velocity": 1,
          "duration": 0.16666650000001937
        },
        {
          "name": "C6",
          "midi": 84,
          "time": 200.49979950000093,
          "velocity": 1,
          "duration": 0.08333325000000968
        },
        {
          "name": "D4",
          "midi": 62,
          "time": 200.49979950000093,
          "velocity": 1,
          "duration": 0.08333325000000968
        },
        {
          "name": "A3",
          "midi": 57,
          "time": 200.49979950000093,
          "velocity": 1,
          "duration": 0.16666650000001937
        },
        {
          "name": "D#4",
          "midi": 63,
          "time": 200.58313275000094,
          "velocity": 1,
          "duration": 0.08333325000000968
        },
        {
          "name": "C6",
          "midi": 84,
          "time": 200.58313275000094,
          "velocity": 1,
          "duration": 0.08333325000000968
        },
        {
          "name": "F#3",
          "midi": 54,
          "time": 200.66646600000095,
          "velocity": 1,
          "duration": 0.16666650000001937
        },
        {
          "name": "A5",
          "midi": 81,
          "time": 200.66646600000095,
          "velocity": 1,
          "duration": 0.08333325000000968
        },
        {
          "name": "D4",
          "midi": 62,
          "time": 200.66646600000095,
          "velocity": 1,
          "duration": 0.16666650000001937
        },
        {
          "name": "A3",
          "midi": 57,
          "time": 200.66646600000095,
          "velocity": 1,
          "duration": 0.16666650000001937
        },
        {
          "name": "A5",
          "midi": 81,
          "time": 200.74979925000096,
          "velocity": 1,
          "duration": 0.08333325000000968
        },
        {
          "name": "A3",
          "midi": 57,
          "time": 200.83313250000097,
          "velocity": 1,
          "duration": 0.16666650000001937
        },
        {
          "name": "D4",
          "midi": 62,
          "time": 200.83313250000097,
          "velocity": 1,
          "duration": 0.16666650000001937
        },
        {
          "name": "D5",
          "midi": 74,
          "time": 200.83313250000097,
          "velocity": 1,
          "duration": 0.08333325000000968
        },
        {
          "name": "F#3",
          "midi": 54,
          "time": 200.83313250000097,
          "velocity": 1,
          "duration": 0.16666650000001937
        },
        {
          "name": "D5",
          "midi": 74,
          "time": 200.91646575000098,
          "velocity": 1,
          "duration": 0.08333325000000968
        },
        {
          "name": "G3",
          "midi": 55,
          "time": 200.999799000001,
          "velocity": 1,
          "duration": 0.6666660000000206
        },
        {
          "name": "D6",
          "midi": 86,
          "time": 200.999799000001,
          "velocity": 1,
          "duration": 0.16666649999999095
        },
        {
          "name": "A#4",
          "midi": 70,
          "time": 200.999799000001,
          "velocity": 1,
          "duration": 0.16666649999999095
        },
        {
          "name": "D4",
          "midi": 62,
          "time": 200.999799000001,
          "velocity": 1,
          "duration": 0.16666649999999095
        },
        {
          "name": "A#3",
          "midi": 58,
          "time": 200.999799000001,
          "velocity": 1,
          "duration": 0.3333330000000103
        },
        {
          "name": "A#5",
          "midi": 82,
          "time": 201.16646550000098,
          "velocity": 1,
          "duration": 0.08333325000000968
        },
        {
          "name": "D5",
          "midi": 74,
          "time": 201.16646550000098,
          "velocity": 1,
          "duration": 0.3333330000000103
        },
        {
          "name": "D4",
          "midi": 62,
          "time": 201.16646550000098,
          "velocity": 1,
          "duration": 0.3333330000000103
        },
        {
          "name": "C6",
          "midi": 84,
          "time": 201.249798750001,
          "velocity": 1,
          "duration": 0.08333325000000968
        },
        {
          "name": "A#5",
          "midi": 82,
          "time": 201.333132000001,
          "velocity": 1,
          "duration": 0.16666649999999095
        },
        {
          "name": "G5",
          "midi": 79,
          "time": 201.499798500001,
          "velocity": 1,
          "duration": 0.08333325000000968
        },
        {
          "name": "D5",
          "midi": 74,
          "time": 201.499798500001,
          "velocity": 1,
          "duration": 0.3333330000000103
        },
        {
          "name": "D4",
          "midi": 62,
          "time": 201.499798500001,
          "velocity": 1,
          "duration": 0.3333330000000103
        },
        {
          "name": "A5",
          "midi": 81,
          "time": 201.583131750001,
          "velocity": 1,
          "duration": 0.08333325000000968
        },
        {
          "name": "A#3",
          "midi": 58,
          "time": 201.666465000001,
          "velocity": 1,
          "duration": 0.3333330000000103
        },
        {
          "name": "G5",
          "midi": 79,
          "time": 201.666465000001,
          "velocity": 1,
          "duration": 0.16666649999999095
        },
        {
          "name": "D5",
          "midi": 74,
          "time": 201.833131500001,
          "velocity": 1,
          "duration": 0.3333330000000103
        },
        {
          "name": "D4",
          "midi": 62,
          "time": 201.833131500001,
          "velocity": 1,
          "duration": 0.3333330000000103
        },
        {
          "name": "D#5",
          "midi": 75,
          "time": 201.916464750001,
          "velocity": 1,
          "duration": 0.08333325000000968
        },
        {
          "name": "G3",
          "midi": 55,
          "time": 201.99979800000102,
          "velocity": 1,
          "duration": 0.6666660000000206
        },
        {
          "name": "A#4",
          "midi": 70,
          "time": 202.166464500001,
          "velocity": 1,
          "duration": 0.08333325000000968
        },
        {
          "name": "D5",
          "midi": 74,
          "time": 202.166464500001,
          "velocity": 1,
          "duration": 0.3333330000000103
        },
        {
          "name": "D4",
          "midi": 62,
          "time": 202.166464500001,
          "velocity": 1,
          "duration": 0.3333330000000103
        },
        {
          "name": "C5",
          "midi": 72,
          "time": 202.24979775000102,
          "velocity": 1,
          "duration": 0.08333325000000968
        },
        {
          "name": "A#4",
          "midi": 70,
          "time": 202.33313100000103,
          "velocity": 1,
          "duration": 0.16666649999999095
        },
        {
          "name": "D4",
          "midi": 62,
          "time": 202.49979750000102,
          "velocity": 1,
          "duration": 0.3333330000000103
        },
        {
          "name": "D5",
          "midi": 74,
          "time": 202.49979750000102,
          "velocity": 1,
          "duration": 0.3333330000000103
        },
        {
          "name": "G4",
          "midi": 67,
          "time": 202.49979750000102,
          "velocity": 1,
          "duration": 0.08333325000000968
        },
        {
          "name": "A#4",
          "midi": 70,
          "time": 202.58313075000103,
          "velocity": 1,
          "duration": 0.08333325000000968
        },
        {
          "name": "D3",
          "midi": 50,
          "time": 202.66646400000104,
          "velocity": 1,
          "duration": 0.3333330000000103
        },
        {
          "name": "D4",
          "midi": 62,
          "time": 202.83313050000103,
          "velocity": 1,
          "duration": 0.16666650000001937
        },
        {
          "name": "D5",
          "midi": 74,
          "time": 202.83313050000103,
          "velocity": 1,
          "duration": 0.16666650000001937
        },
        {
          "name": "G5",
          "midi": 79,
          "time": 202.83313050000103,
          "velocity": 1,
          "duration": 0.08333325000000968
        },
        {
          "name": "A#5",
          "midi": 82,
          "time": 202.91646375000104,
          "velocity": 1,
          "duration": 0.08333325000000968
        },
        {
          "name": "G3",
          "midi": 55,
          "time": 202.99979700000105,
          "velocity": 1,
          "duration": 0.6666660000000206
        },
        {
          "name": "D6",
          "midi": 86,
          "time": 202.99979700000105,
          "velocity": 1,
          "duration": 0.16666649999999095
        },
        {
          "name": "D5",
          "midi": 74,
          "time": 202.99979700000105,
          "velocity": 1,
          "duration": 0.16666649999999095
        },
        {
          "name": "A#5",
          "midi": 82,
          "time": 202.99979700000105,
          "velocity": 1,
          "duration": 0.16666649999999095
        },
        {
          "name": "D6",
          "midi": 86,
          "time": 203.16646350000104,
          "velocity": 1,
          "duration": 0.3333330000000103
        },
        {
          "name": "D5",
          "midi": 74,
          "time": 203.16646350000104,
          "velocity": 1,
          "duration": 0.3333330000000103
        },
        {
          "name": "A#4",
          "midi": 70,
          "time": 203.16646350000104,
          "velocity": 1,
          "duration": 0.08333325000000968
        },
        {
          "name": "C5",
          "midi": 72,
          "time": 203.24979675000105,
          "velocity": 1,
          "duration": 0.08333325000000968
        },
        {
          "name": "A#4",
          "midi": 70,
          "time": 203.33313000000106,
          "velocity": 1,
          "duration": 0.16666649999999095
        },
        {
          "name": "G4",
          "midi": 67,
          "time": 203.49979650000105,
          "velocity": 1,
          "duration": 0.08333325000000968
        },
        {
          "name": "D5",
          "midi": 74,
          "time": 203.49979650000105,
          "velocity": 1,
          "duration": 0.3333330000000103
        },
        {
          "name": "D6",
          "midi": 86,
          "time": 203.49979650000105,
          "velocity": 1,
          "duration": 0.3333330000000103
        },
        {
          "name": "A4",
          "midi": 69,
          "time": 203.58312975000106,
          "velocity": 1,
          "duration": 0.08333325000000968
        },
        {
          "name": "A#3",
          "midi": 58,
          "time": 203.66646300000107,
          "velocity": 1,
          "duration": 0.3333330000000103
        },
        {
          "name": "G4",
          "midi": 67,
          "time": 203.66646300000107,
          "velocity": 1,
          "duration": 0.16666649999999095
        },
        {
          "name": "D4",
          "midi": 62,
          "time": 203.83312950000106,
          "velocity": 1,
          "duration": 0.08333325000000968
        },
        {
          "name": "D5",
          "midi": 74,
          "time": 203.83312950000106,
          "velocity": 1,
          "duration": 0.3333330000000103
        },
        {
          "name": "D6",
          "midi": 86,
          "time": 203.83312950000106,
          "velocity": 1,
          "duration": 0.3333330000000103
        },
        {
          "name": "D#4",
          "midi": 63,
          "time": 203.91646275000107,
          "velocity": 1,
          "duration": 0.08333325000000968
        },
        {
          "name": "G3",
          "midi": 55,
          "time": 203.99979600000108,
          "velocity": 1,
          "duration": 0.6666660000000206
        },
        {
          "name": "D4",
          "midi": 62,
          "time": 203.99979600000108,
          "velocity": 1,
          "duration": 0.16666649999999095
        },
        {
          "name": "A#3",
          "midi": 58,
          "time": 204.16646250000107,
          "velocity": 1,
          "duration": 0.08333325000000968
        },
        {
          "name": "D5",
          "midi": 74,
          "time": 204.16646250000107,
          "velocity": 1,
          "duration": 0.3333330000000103
        },
        {
          "name": "D6",
          "midi": 86,
          "time": 204.16646250000107,
          "velocity": 1,
          "duration": 0.3333330000000103
        },
        {
          "name": "C4",
          "midi": 60,
          "time": 204.24979575000108,
          "velocity": 1,
          "duration": 0.08333325000000968
        },
        {
          "name": "A#3",
          "midi": 58,
          "time": 204.3331290000011,
          "velocity": 1,
          "duration": 0.16666649999999095
        },
        {
          "name": "D6",
          "midi": 86,
          "time": 204.49979550000108,
          "velocity": 1,
          "duration": 0.3333330000000103
        },
        {
          "name": "D5",
          "midi": 74,
          "time": 204.49979550000108,
          "velocity": 1,
          "duration": 0.3333330000000103
        },
        {
          "name": "G4",
          "midi": 67,
          "time": 204.49979550000108,
          "velocity": 1,
          "duration": 0.08333325000000968
        },
        {
          "name": "A4",
          "midi": 69,
          "time": 204.5831287500011,
          "velocity": 1,
          "duration": 0.08333325000000968
        },
        {
          "name": "D3",
          "midi": 50,
          "time": 204.6664620000011,
          "velocity": 1,
          "duration": 0.3333330000000103
        },
        {
          "name": "A#4",
          "midi": 70,
          "time": 204.6664620000011,
          "velocity": 1,
          "duration": 0.16666649999999095
        },
        {
          "name": "D6",
          "midi": 86,
          "time": 204.8331285000011,
          "velocity": 1,
          "duration": 0.3333330000000103
        },
        {
          "name": "D5",
          "midi": 74,
          "time": 204.8331285000011,
          "velocity": 1,
          "duration": 0.3333330000000103
        },
        {
          "name": "A4",
          "midi": 69,
          "time": 204.8331285000011,
          "velocity": 1,
          "duration": 0.08333325000000968
        },
        {
          "name": "G4",
          "midi": 67,
          "time": 204.9164617500011,
          "velocity": 1,
          "duration": 0.08333325000000968
        },
        {
          "name": "A3",
          "midi": 57,
          "time": 204.99979500000111,
          "velocity": 1,
          "duration": 0.6666660000000206
        },
        {
          "name": "F#4",
          "midi": 66,
          "time": 204.99979500000111,
          "velocity": 1,
          "duration": 0.16666649999999095
        },
        {
          "name": "C6",
          "midi": 84,
          "time": 205.1664615000011,
          "velocity": 1,
          "duration": 0.08333325000000968
        },
        {
          "name": "D5",
          "midi": 74,
          "time": 205.1664615000011,
          "velocity": 1,
          "duration": 0.3333330000000103
        },
        {
          "name": "D4",
          "midi": 62,
          "time": 205.1664615000011,
          "velocity": 1,
          "duration": 0.3333330000000103
        },
        {
          "name": "D6",
          "midi": 86,
          "time": 205.24979475000112,
          "velocity": 1,
          "duration": 0.08333325000000968
        },
        {
          "name": "C6",
          "midi": 84,
          "time": 205.33312800000112,
          "velocity": 1,
          "duration": 0.16666649999999095
        },
        {
          "name": "A5",
          "midi": 81,
          "time": 205.49979450000112,
          "velocity": 1,
          "duration": 0.08333325000000968
        },
        {
          "name": "D5",
          "midi": 74,
          "time": 205.49979450000112,
          "velocity": 1,
          "duration": 0.3333330000000103
        },
        {
          "name": "D4",
          "midi": 62,
          "time": 205.49979450000112,
          "velocity": 1,
          "duration": 0.3333330000000103
        },
        {
          "name": "A#5",
          "midi": 82,
          "time": 205.58312775000113,
          "velocity": 1,
          "duration": 0.08333325000000968
        },
        {
          "name": "C4",
          "midi": 60,
          "time": 205.66646100000114,
          "velocity": 1,
          "duration": 0.3333330000000103
        },
        {
          "name": "A5",
          "midi": 81,
          "time": 205.66646100000114,
          "velocity": 1,
          "duration": 0.16666649999999095
        },
        {
          "name": "F#5",
          "midi": 78,
          "time": 205.83312750000113,
          "velocity": 1,
          "duration": 0.08333325000000968
        },
        {
          "name": "D5",
          "midi": 74,
          "time": 205.83312750000113,
          "velocity": 1,
          "duration": 0.3333330000000103
        },
        {
          "name": "D4",
          "midi": 62,
          "time": 205.83312750000113,
          "velocity": 1,
          "duration": 0.3333330000000103
        },
        {
          "name": "G5",
          "midi": 79,
          "time": 205.91646075000114,
          "velocity": 1,
          "duration": 0.08333325000000968
        },
        {
          "name": "A3",
          "midi": 57,
          "time": 205.99979400000115,
          "velocity": 1,
          "duration": 0.6666660000000206
        },
        {
          "name": "F#5",
          "midi": 78,
          "time": 205.99979400000115,
          "velocity": 1,
          "duration": 0.16666649999999095
        },
        {
          "name": "D4",
          "midi": 62,
          "time": 206.16646050000114,
          "velocity": 1,
          "duration": 0.3333330000000103
        },
        {
          "name": "D5",
          "midi": 74,
          "time": 206.16646050000114,
          "velocity": 1,
          "duration": 0.3333330000000103
        },
        {
          "name": "D#4",
          "midi": 63,
          "time": 206.24979375000115,
          "velocity": 1,
          "duration": 0.08333325000000968
        },
        {
          "name": "F#4",
          "midi": 66,
          "time": 206.49979350000115,
          "velocity": 1,
          "duration": 0.08333325000000968
        },
        {
          "name": "D5",
          "midi": 74,
          "time": 206.49979350000115,
          "velocity": 1,
          "duration": 0.3333330000000103
        },
        {
          "name": "D4",
          "midi": 62,
          "time": 206.49979350000115,
          "velocity": 1,
          "duration": 0.3333330000000103
        },
        {
          "name": "A4",
          "midi": 69,
          "time": 206.58312675000116,
          "velocity": 1,
          "duration": 0.08333325000000968
        },
        {
          "name": "D3",
          "midi": 50,
          "time": 206.66646000000117,
          "velocity": 1,
          "duration": 0.3333330000000103
        },
        {
          "name": "F#5",
          "midi": 78,
          "time": 206.83312650000116,
          "velocity": 1,
          "duration": 0.08333325000000968
        },
        {
          "name": "D5",
          "midi": 74,
          "time": 206.83312650000116,
          "velocity": 1,
          "duration": 0.3333330000000103
        },
        {
          "name": "D4",
          "midi": 62,
          "time": 206.83312650000116,
          "velocity": 1,
          "duration": 0.3333330000000103
        },
        {
          "name": "A5",
          "midi": 81,
          "time": 206.91645975000117,
          "velocity": 1,
          "duration": 0.08333325000000968
        },
        {
          "name": "A3",
          "midi": 57,
          "time": 206.99979300000118,
          "velocity": 1,
          "duration": 0.6666660000000206
        },
        {
          "name": "D6",
          "midi": 86,
          "time": 206.99979300000118,
          "velocity": 1,
          "duration": 0.16666649999999095
        },
        {
          "name": "D6",
          "midi": 86,
          "time": 207.16645950000117,
          "velocity": 1,
          "duration": 0.3333330000000103
        },
        {
          "name": "D5",
          "midi": 74,
          "time": 207.16645950000117,
          "velocity": 1,
          "duration": 0.3333330000000103
        },
        {
          "name": "C5",
          "midi": 72,
          "time": 207.16645950000117,
          "velocity": 1,
          "duration": 0.08333325000000968
        },
        {
          "name": "C5",
          "midi": 72,
          "time": 207.3331260000012,
          "velocity": 1,
          "duration": 0.16666649999999095
        },
        {
          "name": "D6",
          "midi": 86,
          "time": 207.49979250000118,
          "velocity": 1,
          "duration": 0.3333330000000103
        },
        {
          "name": "D5",
          "midi": 74,
          "time": 207.49979250000118,
          "velocity": 1,
          "duration": 0.3333330000000103
        },
        {
          "name": "A4",
          "midi": 69,
          "time": 207.49979250000118,
          "velocity": 1,
          "duration": 0.08333325000000968
        },
        {
          "name": "A#4",
          "midi": 70,
          "time": 207.5831257500012,
          "velocity": 1,
          "duration": 0.08333325000000968
        },
        {
          "name": "C4",
          "midi": 60,
          "time": 207.6664590000012,
          "velocity": 1,
          "duration": 0.3333330000000103
        },
        {
          "name": "A4",
          "midi": 69,
          "time": 207.6664590000012,
          "velocity": 1,
          "duration": 0.16666649999999095
        },
        {
          "name": "D6",
          "midi": 86,
          "time": 207.8331255000012,
          "velocity": 1,
          "duration": 0.3333330000000103
        },
        {
          "name": "D5",
          "midi": 74,
          "time": 207.8331255000012,
          "velocity": 1,
          "duration": 0.3333330000000103
        },
        {
          "name": "F#4",
          "midi": 66,
          "time": 207.8331255000012,
          "velocity": 1,
          "duration": 0.08333325000000968
        },
        {
          "name": "G4",
          "midi": 67,
          "time": 207.9164587500012,
          "velocity": 1,
          "duration": 0.08333325000000968
        },
        {
          "name": "A3",
          "midi": 57,
          "time": 207.9997920000012,
          "velocity": 1,
          "duration": 0.6666660000000206
        },
        {
          "name": "F#4",
          "midi": 66,
          "time": 207.9997920000012,
          "velocity": 1,
          "duration": 0.16666649999999095
        },
        {
          "name": "D6",
          "midi": 86,
          "time": 208.1664585000012,
          "velocity": 1,
          "duration": 0.3333330000000103
        },
        {
          "name": "D5",
          "midi": 74,
          "time": 208.1664585000012,
          "velocity": 1,
          "duration": 0.3333330000000103
        },
        {
          "name": "A4",
          "midi": 69,
          "time": 208.1664585000012,
          "velocity": 1,
          "duration": 0.08333325000000968
        },
        {
          "name": "G4",
          "midi": 67,
          "time": 208.2497917500012,
          "velocity": 1,
          "duration": 0.08333325000000968
        },
        {
          "name": "F#4",
          "midi": 66,
          "time": 208.33312500000122,
          "velocity": 1,
          "duration": 0.16666649999999095
        },
        {
          "name": "A4",
          "midi": 69,
          "time": 208.4997915000012,
          "velocity": 1,
          "duration": 0.08333325000000968
        },
        {
          "name": "D5",
          "midi": 74,
          "time": 208.4997915000012,
          "velocity": 1,
          "duration": 0.3333330000000103
        },
        {
          "name": "D6",
          "midi": 86,
          "time": 208.4997915000012,
          "velocity": 1,
          "duration": 0.3333330000000103
        },
        {
          "name": "C4",
          "midi": 60,
          "time": 208.66645800000123,
          "velocity": 1,
          "duration": 0.3333330000000103
        },
        {
          "name": "F#5",
          "midi": 78,
          "time": 208.66645800000123,
          "velocity": 1,
          "duration": 0.16666649999999095
        },
        {
          "name": "A5",
          "midi": 81,
          "time": 208.83312450000122,
          "velocity": 1,
          "duration": 0.08333325000000968
        },
        {
          "name": "D5",
          "midi": 74,
          "time": 208.83312450000122,
          "velocity": 1,
          "duration": 0.16666650000001937
        },
        {
          "name": "D6",
          "midi": 86,
          "time": 208.83312450000122,
          "velocity": 1,
          "duration": 0.16666650000001937
        },
        {
          "name": "F#5",
          "midi": 78,
          "time": 208.91645775000123,
          "velocity": 1,
          "duration": 0.08333325000000968
        },
        {
          "name": "B3",
          "midi": 59,
          "time": 208.99979100000124,
          "velocity": 1,
          "duration": 0.16666649999999095
        },
        {
          "name": "D6",
          "midi": 86,
          "time": 208.99979100000124,
          "velocity": 1,
          "duration": 0.49999950000000126
        },
        {
          "name": "D5",
          "midi": 74,
          "time": 208.99979100000124,
          "velocity": 1,
          "duration": 0.49999950000000126
        },
        {
          "name": "G5",
          "midi": 79,
          "time": 208.99979100000124,
          "velocity": 1,
          "duration": 0.16666649999999095
        },
        {
          "name": "F4",
          "midi": 65,
          "time": 209.16645750000123,
          "velocity": 1,
          "duration": 0.16666650000001937
        },
        {
          "name": "G3",
          "midi": 55,
          "time": 209.16645750000123,
          "velocity": 1,
          "duration": 0.08333325000000968
        },
        {
          "name": "G#3",
          "midi": 56,
          "time": 209.24979075000124,
          "velocity": 1,
          "duration": 0.08333325000000968
        },
        {
          "name": "F4",
          "midi": 65,
          "time": 209.33312400000125,
          "velocity": 1,
          "duration": 0.16666649999999095
        },
        {
          "name": "G3",
          "midi": 55,
          "time": 209.33312400000125,
          "velocity": 1,
          "duration": 0.16666649999999095
        },
        {
          "name": "D5",
          "midi": 74,
          "time": 209.49979050000124,
          "velocity": 1,
          "duration": 0.08333325000000968
        },
        {
          "name": "D5",
          "midi": 74,
          "time": 209.58312375000125,
          "velocity": 1,
          "duration": 0.08333325000000968
        },
        {
          "name": "B4",
          "midi": 71,
          "time": 209.66645700000126,
          "velocity": 1,
          "duration": 0.08333325000000968
        },
        {
          "name": "B4",
          "midi": 71,
          "time": 209.74979025000127,
          "velocity": 1,
          "duration": 0.08333325000000968
        },
        {
          "name": "G4",
          "midi": 67,
          "time": 209.83312350000128,
          "velocity": 1,
          "duration": 0.08333325000000968
        },
        {
          "name": "G4",
          "midi": 67,
          "time": 209.9164567500013,
          "velocity": 1,
          "duration": 0.08333325000000968
        },
        {
          "name": "C5",
          "midi": 72,
          "time": 209.9997900000013,
          "velocity": 1,
          "duration": 0.49999950000000126
        },
        {
          "name": "D#4",
          "midi": 63,
          "time": 210.1664565000013,
          "velocity": 1,
          "duration": 0.16666650000001937
        },
        {
          "name": "G3",
          "midi": 55,
          "time": 210.1664565000013,
          "velocity": 1,
          "duration": 0.08333325000000968
        },
        {
          "name": "G#3",
          "midi": 56,
          "time": 210.2497897500013,
          "velocity": 1,
          "duration": 0.08333325000000968
        },
        {
          "name": "D#4",
          "midi": 63,
          "time": 210.3331230000013,
          "velocity": 1,
          "duration": 0.16666649999999095
        },
        {
          "name": "G3",
          "midi": 55,
          "time": 210.3331230000013,
          "velocity": 1,
          "duration": 0.16666649999999095
        },
        {
          "name": "D#5",
          "midi": 75,
          "time": 210.4997895000013,
          "velocity": 1,
          "duration": 0.08333325000000968
        },
        {
          "name": "D#5",
          "midi": 75,
          "time": 210.5831227500013,
          "velocity": 1,
          "duration": 0.08333325000000968
        },
        {
          "name": "C5",
          "midi": 72,
          "time": 210.66645600000132,
          "velocity": 1,
          "duration": 0.08333325000000968
        },
        {
          "name": "C5",
          "midi": 72,
          "time": 210.74978925000133,
          "velocity": 1,
          "duration": 0.08333325000000968
        },
        {
          "name": "G4",
          "midi": 67,
          "time": 210.83312250000134,
          "velocity": 1,
          "duration": 0.08333325000000968
        },
        {
          "name": "G4",
          "midi": 67,
          "time": 210.91645575000135,
          "velocity": 1,
          "duration": 0.08333325000000968
        },
        {
          "name": "G3",
          "midi": 55,
          "time": 210.99978900000136,
          "velocity": 1,
          "duration": 0.33333300000003874
        },
        {
          "name": "F4",
          "midi": 65,
          "time": 210.99978900000136,
          "velocity": 1,
          "duration": 0.33333300000003874
        },
        {
          "name": "D5",
          "midi": 74,
          "time": 210.99978900000136,
          "velocity": 1,
          "duration": 0.08333325000000968
        },
        {
          "name": "B3",
          "midi": 59,
          "time": 210.99978900000136,
          "velocity": 1,
          "duration": 0.33333300000003874
        },
        {
          "name": "D5",
          "midi": 74,
          "time": 211.08312225000137,
          "velocity": 1,
          "duration": 0.08333325000000968
        },
        {
          "name": "F5",
          "midi": 77,
          "time": 211.16645550000138,
          "velocity": 1,
          "duration": 0.08333325000000968
        },
        {
          "name": "F5",
          "midi": 77,
          "time": 211.2497887500014,
          "velocity": 1,
          "duration": 0.08333325000000968
        },
        {
          "name": "G#3",
          "midi": 56,
          "time": 211.2497887500014,
          "velocity": 1,
          "duration": 0.08333325000000968
        },
        {
          "name": "D5",
          "midi": 74,
          "time": 211.3331220000014,
          "velocity": 1,
          "duration": 0.08333325000000968
        },
        {
          "name": "G3",
          "midi": 55,
          "time": 211.3331220000014,
          "velocity": 1,
          "duration": 0.16666650000001937
        },
        {
          "name": "D5",
          "midi": 74,
          "time": 211.4164552500014,
          "velocity": 1,
          "duration": 0.08333325000000968
        },
        {
          "name": "G4",
          "midi": 67,
          "time": 211.49978850000142,
          "velocity": 1,
          "duration": 0.08333325000000968
        },
        {
          "name": "G3",
          "midi": 55,
          "time": 211.49978850000142,
          "velocity": 1,
          "duration": 0.08333325000000968
        },
        {
          "name": "G4",
          "midi": 67,
          "time": 211.58312175000142,
          "velocity": 1,
          "duration": 0.08333325000000968
        },
        {
          "name": "G#3",
          "midi": 56,
          "time": 211.58312175000142,
          "velocity": 1,
          "duration": 0.08333325000000968
        },
        {
          "name": "G3",
          "midi": 55,
          "time": 211.66645500000143,
          "velocity": 1,
          "duration": 0.16666650000001937
        },
        {
          "name": "D5",
          "midi": 74,
          "time": 211.66645500000143,
          "velocity": 1,
          "duration": 0.08333325000000968
        },
        {
          "name": "D5",
          "midi": 74,
          "time": 211.74978825000144,
          "velocity": 1,
          "duration": 0.08333325000000968
        },
        {
          "name": "F5",
          "midi": 77,
          "time": 211.83312150000145,
          "velocity": 1,
          "duration": 0.08333325000000968
        },
        {
          "name": "G3",
          "midi": 55,
          "time": 211.83312150000145,
          "velocity": 1,
          "duration": 0.08333325000000968
        },
        {
          "name": "F5",
          "midi": 77,
          "time": 211.91645475000146,
          "velocity": 1,
          "duration": 0.08333325000000968
        },
        {
          "name": "G#3",
          "midi": 56,
          "time": 211.91645475000146,
          "velocity": 1,
          "duration": 0.08333325000000968
        },
        {
          "name": "D5",
          "midi": 74,
          "time": 211.99978800000147,
          "velocity": 1,
          "duration": 0.08333325000000968
        },
        {
          "name": "G3",
          "midi": 55,
          "time": 211.99978800000147,
          "velocity": 1,
          "duration": 0.16666650000001937
        },
        {
          "name": "D5",
          "midi": 74,
          "time": 212.08312125000148,
          "velocity": 1,
          "duration": 0.08333325000000968
        },
        {
          "name": "B3",
          "midi": 59,
          "time": 212.1664545000015,
          "velocity": 1,
          "duration": 0.16666650000001937
        },
        {
          "name": "G4",
          "midi": 67,
          "time": 212.1664545000015,
          "velocity": 1,
          "duration": 0.08333325000000968
        },
        {
          "name": "G3",
          "midi": 55,
          "time": 212.1664545000015,
          "velocity": 1,
          "duration": 0.08333325000000968
        },
        {
          "name": "G4",
          "midi": 67,
          "time": 212.2497877500015,
          "velocity": 1,
          "duration": 0.08333325000000968
        },
        {
          "name": "G#3",
          "midi": 56,
          "time": 212.2497877500015,
          "velocity": 1,
          "duration": 0.08333325000000968
        },
        {
          "name": "G3",
          "midi": 55,
          "time": 212.3331210000015,
          "velocity": 1,
          "duration": 0.16666650000001937
        },
        {
          "name": "D5",
          "midi": 74,
          "time": 212.3331210000015,
          "velocity": 1,
          "duration": 0.08333325000000968
        },
        {
          "name": "B3",
          "midi": 59,
          "time": 212.3331210000015,
          "velocity": 1,
          "duration": 0.16666650000001937
        },
        {
          "name": "D5",
          "midi": 74,
          "time": 212.41645425000152,
          "velocity": 1,
          "duration": 0.08333325000000968
        },
        {
          "name": "B3",
          "midi": 59,
          "time": 212.49978750000153,
          "velocity": 1,
          "duration": 0.16666650000001937
        },
        {
          "name": "F5",
          "midi": 77,
          "time": 212.49978750000153,
          "velocity": 1,
          "duration": 0.08333325000000968
        },
        {
          "name": "G3",
          "midi": 55,
          "time": 212.49978750000153,
          "velocity": 1,
          "duration": 0.08333325000000968
        },
        {
          "name": "F5",
          "midi": 77,
          "time": 212.58312075000154,
          "velocity": 1,
          "duration": 0.08333325000000968
        },
        {
          "name": "G#3",
          "midi": 56,
          "time": 212.58312075000154,
          "velocity": 1,
          "duration": 0.08333325000000968
        },
        {
          "name": "B3",
          "midi": 59,
          "time": 212.66645400000155,
          "velocity": 1,
          "duration": 0.16666650000001937
        },
        {
          "name": "D5",
          "midi": 74,
          "time": 212.66645400000155,
          "velocity": 1,
          "duration": 0.08333325000000968
        },
        {
          "name": "G3",
          "midi": 55,
          "time": 212.66645400000155,
          "velocity": 1,
          "duration": 0.16666650000001937
        },
        {
          "name": "D5",
          "midi": 74,
          "time": 212.74978725000156,
          "velocity": 1,
          "duration": 0.08333325000000968
        },
        {
          "name": "G4",
          "midi": 67,
          "time": 212.83312050000157,
          "velocity": 1,
          "duration": 0.08333325000000968
        },
        {
          "name": "B3",
          "midi": 59,
          "time": 212.83312050000157,
          "velocity": 1,
          "duration": 0.16666650000001937
        },
        {
          "name": "G4",
          "midi": 67,
          "time": 212.91645375000158,
          "velocity": 1,
          "duration": 0.08333325000000968
        },
        {
          "name": "A#3",
          "midi": 58,
          "time": 212.9997870000016,
          "velocity": 1,
          "duration": 0.16666649999999095
        },
        {
          "name": "E5",
          "midi": 76,
          "time": 212.9997870000016,
          "velocity": 1,
          "duration": 0.49999950000000126
        },
        {
          "name": "A#3",
          "midi": 58,
          "time": 213.16645350000158,
          "velocity": 1,
          "duration": 0.16666650000001937
        },
        {
          "name": "C4",
          "midi": 60,
          "time": 213.16645350000158,
          "velocity": 1,
          "duration": 0.08333325000000968
        },
        {
          "name": "C5",
          "midi": 72,
          "time": 213.16645350000158,
          "velocity": 1,
          "duration": 0.16666650000001937
        },
        {
          "name": "C#4",
          "midi": 61,
          "time": 213.2497867500016,
          "velocity": 1,
          "duration": 0.08333325000000968
        },
        {
          "name": "A#3",
          "midi": 58,
          "time": 213.3331200000016,
          "velocity": 1,
          "duration": 0.16666649999999095
        },
        {
          "name": "C4",
          "midi": 60,
          "time": 213.3331200000016,
          "velocity": 1,
          "duration": 0.16666649999999095
        },
        {
          "name": "C5",
          "midi": 72,
          "time": 213.3331200000016,
          "velocity": 1,
          "duration": 0.16666649999999095
        },
        {
          "name": "G5",
          "midi": 79,
          "time": 213.4997865000016,
          "velocity": 1,
          "duration": 0.08333325000000968
        },
        {
          "name": "G5",
          "midi": 79,
          "time": 213.5831197500016,
          "velocity": 1,
          "duration": 0.08333325000000968
        },
        {
          "name": "E5",
          "midi": 76,
          "time": 213.6664530000016,
          "velocity": 1,
          "duration": 0.08333325000000968
        },
        {
          "name": "E5",
          "midi": 76,
          "time": 213.74978625000162,
          "velocity": 1,
          "duration": 0.08333325000000968
        },
        {
          "name": "C5",
          "midi": 72,
          "time": 213.83311950000163,
          "velocity": 1,
          "duration": 0.08333325000000968
        },
        {
          "name": "C5",
          "midi": 72,
          "time": 213.91645275000164,
          "velocity": 1,
          "duration": 0.08333325000000968
        },
        {
          "name": "F5",
          "midi": 77,
          "time": 213.99978600000165,
          "velocity": 1,
          "duration": 0.49999950000000126
        },
        {
          "name": "G#3",
          "midi": 56,
          "time": 214.16645250000164,
          "velocity": 1,
          "duration": 0.16666650000001937
        },
        {
          "name": "C4",
          "midi": 60,
          "time": 214.16645250000164,
          "velocity": 1,
          "duration": 0.08333325000000968
        },
        {
          "name": "F4",
          "midi": 65,
          "time": 214.16645250000164,
          "velocity": 1,
          "duration": 0.16666650000001937
        },
        {
          "name": "C#4",
          "midi": 61,
          "time": 214.24978575000165,
          "velocity": 1,
          "duration": 0.08333325000000968
        },
        {
          "name": "G#3",
          "midi": 56,
          "time": 214.33311900000166,
          "velocity": 1,
          "duration": 0.16666649999999095
        },
        {
          "name": "C4",
          "midi": 60,
          "time": 214.33311900000166,
          "velocity": 1,
          "duration": 0.16666649999999095
        },
        {
          "name": "F4",
          "midi": 65,
          "time": 214.33311900000166,
          "velocity": 1,
          "duration": 0.16666649999999095
        },
        {
          "name": "G#5",
          "midi": 80,
          "time": 214.49978550000165,
          "velocity": 1,
          "duration": 0.08333325000000968
        },
        {
          "name": "G#5",
          "midi": 80,
          "time": 214.58311875000166,
          "velocity": 1,
          "duration": 0.08333325000000968
        },
        {
          "name": "F5",
          "midi": 77,
          "time": 214.66645200000167,
          "velocity": 1,
          "duration": 0.08333325000000968
        },
        {
          "name": "F5",
          "midi": 77,
          "time": 214.74978525000168,
          "velocity": 1,
          "duration": 0.08333325000000968
        },
        {
          "name": "C5",
          "midi": 72,
          "time": 214.8331185000017,
          "velocity": 1,
          "duration": 0.08333325000000968
        },
        {
          "name": "C5",
          "midi": 72,
          "time": 214.9164517500017,
          "velocity": 1,
          "duration": 0.08333325000000968
        },
        {
          "name": "G5",
          "midi": 79,
          "time": 214.9997850000017,
          "velocity": 1,
          "duration": 0.08333325000000968
        },
        {
          "name": "G5",
          "midi": 79,
          "time": 215.08311825000172,
          "velocity": 1,
          "duration": 0.08333325000000968
        },
        {
          "name": "E3",
          "midi": 52,
          "time": 215.16645150000173,
          "velocity": 1,
          "duration": 0.16666650000001937
        },
        {
          "name": "A#5",
          "midi": 82,
          "time": 215.16645150000173,
          "velocity": 1,
          "duration": 0.08333325000000968
        },
        {
          "name": "C4",
          "midi": 60,
          "time": 215.16645150000173,
          "velocity": 1,
          "duration": 0.08333325000000968
        },
        {
          "name": "G4",
          "midi": 67,
          "time": 215.16645150000173,
          "velocity": 1,
          "duration": 0.16666650000001937
        },
        {
          "name": "A#5",
          "midi": 82,
          "time": 215.24978475000174,
          "velocity": 1,
          "duration": 0.08333325000000968
        },
        {
          "name": "C#4",
          "midi": 61,
          "time": 215.24978475000174,
          "velocity": 1,
          "duration": 0.08333325000000968
        },
        {
          "name": "G4",
          "midi": 67,
          "time": 215.33311800000175,
          "velocity": 1,
          "duration": 0.16666650000001937
        },
        {
          "name": "C4",
          "midi": 60,
          "time": 215.33311800000175,
          "velocity": 1,
          "duration": 0.16666650000001937
        },
        {
          "name": "G5",
          "midi": 79,
          "time": 215.33311800000175,
          "velocity": 1,
          "duration": 0.08333325000000968
        },
        {
          "name": "E3",
          "midi": 52,
          "time": 215.33311800000175,
          "velocity": 1,
          "duration": 0.16666650000001937
        },
        {
          "name": "G5",
          "midi": 79,
          "time": 215.41645125000176,
          "velocity": 1,
          "duration": 0.08333325000000968
        },
        {
          "name": "C5",
          "midi": 72,
          "time": 215.49978450000177,
          "velocity": 1,
          "duration": 0.08333325000000968
        },
        {
          "name": "C4",
          "midi": 60,
          "time": 215.49978450000177,
          "velocity": 1,
          "duration": 0.08333325000000968
        },
        {
          "name": "C5",
          "midi": 72,
          "time": 215.58311775000178,
          "velocity": 1,
          "duration": 0.08333325000000968
        },
        {
          "name": "C#4",
          "midi": 61,
          "time": 215.58311775000178,
          "velocity": 1,
          "duration": 0.08333325000000968
        },
        {
          "name": "G5",
          "midi": 79,
          "time": 215.66645100000179,
          "velocity": 1,
          "duration": 0.08333325000000968
        },
        {
          "name": "C4",
          "midi": 60,
          "time": 215.66645100000179,
          "velocity": 1,
          "duration": 0.16666650000001937
        },
        {
          "name": "G5",
          "midi": 79,
          "time": 215.7497842500018,
          "velocity": 1,
          "duration": 0.08333325000000968
        },
        {
          "name": "A#5",
          "midi": 82,
          "time": 215.8331175000018,
          "velocity": 1,
          "duration": 0.08333325000000968
        },
        {
          "name": "C4",
          "midi": 60,
          "time": 215.8331175000018,
          "velocity": 1,
          "duration": 0.08333325000000968
        },
        {
          "name": "A#5",
          "midi": 82,
          "time": 215.91645075000181,
          "velocity": 1,
          "duration": 0.08333325000000968
        },
        {
          "name": "C#4",
          "midi": 61,
          "time": 215.91645075000181,
          "velocity": 1,
          "duration": 0.08333325000000968
        },
        {
          "name": "C4",
          "midi": 60,
          "time": 215.99978400000182,
          "velocity": 1,
          "duration": 0.16666650000001937
        },
        {
          "name": "G5",
          "midi": 79,
          "time": 215.99978400000182,
          "velocity": 1,
          "duration": 0.08333325000000968
        },
        {
          "name": "G5",
          "midi": 79,
          "time": 216.08311725000183,
          "velocity": 1,
          "duration": 0.08333325000000968
        },
        {
          "name": "E3",
          "midi": 52,
          "time": 216.16645050000184,
          "velocity": 1,
          "duration": 0.16666650000001937
        },
        {
          "name": "C5",
          "midi": 72,
          "time": 216.16645050000184,
          "velocity": 1,
          "duration": 0.08333325000000968
        },
        {
          "name": "C4",
          "midi": 60,
          "time": 216.16645050000184,
          "velocity": 1,
          "duration": 0.08333325000000968
        },
        {
          "name": "E4",
          "midi": 64,
          "time": 216.16645050000184,
          "velocity": 1,
          "duration": 0.16666650000001937
        },
        {
          "name": "C#4",
          "midi": 61,
          "time": 216.24978375000185,
          "velocity": 1,
          "duration": 0.08333325000000968
        },
        {
          "name": "C5",
          "midi": 72,
          "time": 216.24978375000185,
          "velocity": 1,
          "duration": 0.08333325000000968
        },
        {
          "name": "E3",
          "midi": 52,
          "time": 216.33311700000186,
          "velocity": 1,
          "duration": 0.16666650000001937
        },
        {
          "name": "G5",
          "midi": 79,
          "time": 216.33311700000186,
          "velocity": 1,
          "duration": 0.08333325000000968
        },
        {
          "name": "C4",
          "midi": 60,
          "time": 216.33311700000186,
          "velocity": 1,
          "duration": 0.16666650000001937
        },
        {
          "name": "E4",
          "midi": 64,
          "time": 216.33311700000186,
          "velocity": 1,
          "duration": 0.16666650000001937
        },
        {
          "name": "G5",
          "midi": 79,
          "time": 216.41645025000187,
          "velocity": 1,
          "duration": 0.08333325000000968
        },
        {
          "name": "E4",
          "midi": 64,
          "time": 216.49978350000188,
          "velocity": 1,
          "duration": 0.16666650000001937
        },
        {
          "name": "C4",
          "midi": 60,
          "time": 216.49978350000188,
          "velocity": 1,
          "duration": 0.08333325000000968
        },
        {
          "name": "A#5",
          "midi": 82,
          "time": 216.49978350000188,
          "velocity": 1,
          "duration": 0.08333325000000968
        },
        {
          "name": "E3",
          "midi": 52,
          "time": 216.49978350000188,
          "velocity": 1,
          "duration": 0.16666650000001937
        },
        {
          "name": "A#5",
          "midi": 82,
          "time": 216.5831167500019,
          "velocity": 1,
          "duration": 0.08333325000000968
        },
        {
          "name": "C#4",
          "midi": 61,
          "time": 216.5831167500019,
          "velocity": 1,
          "duration": 0.08333325000000968
        },
        {
          "name": "E3",
          "midi": 52,
          "time": 216.6664500000019,
          "velocity": 1,
          "duration": 0.16666650000001937
        },
        {
          "name": "G5",
          "midi": 79,
          "time": 216.6664500000019,
          "velocity": 1,
          "duration": 0.08333325000000968
        },
        {
          "name": "C4",
          "midi": 60,
          "time": 216.6664500000019,
          "velocity": 1,
          "duration": 0.16666650000001937
        },
        {
          "name": "E4",
          "midi": 64,
          "time": 216.6664500000019,
          "velocity": 1,
          "duration": 0.16666650000001937
        },
        {
          "name": "G5",
          "midi": 79,
          "time": 216.7497832500019,
          "velocity": 1,
          "duration": 0.08333325000000968
        },
        {
          "name": "E3",
          "midi": 52,
          "time": 216.83311650000192,
          "velocity": 1,
          "duration": 0.16666650000001937
        },
        {
          "name": "C5",
          "midi": 72,
          "time": 216.83311650000192,
          "velocity": 1,
          "duration": 0.08333325000000968
        },
        {
          "name": "E4",
          "midi": 64,
          "time": 216.83311650000192,
          "velocity": 1,
          "duration": 0.16666650000001937
        },
        {
          "name": "C5",
          "midi": 72,
          "time": 216.91644975000193,
          "velocity": 1,
          "duration": 0.08333325000000968
        },
        {
          "name": "D#3",
          "midi": 51,
          "time": 216.99978300000194,
          "velocity": 1,
          "duration": 0.16666650000001937
        },
        {
          "name": "A5",
          "midi": 81,
          "time": 216.99978300000194,
          "velocity": 1,
          "duration": 0.08333325000000968
        },
        {
          "name": "D#4",
          "midi": 63,
          "time": 216.99978300000194,
          "velocity": 1,
          "duration": 0.16666650000001937
        },
        {
          "name": "A5",
          "midi": 81,
          "time": 217.08311625000195,
          "velocity": 1,
          "duration": 0.08333325000000968
        },
        {
          "name": "D#4",
          "midi": 63,
          "time": 217.16644950000196,
          "velocity": 1,
          "duration": 0.16666650000001937
        },
        {
          "name": "C6",
          "midi": 84,
          "time": 217.16644950000196,
          "velocity": 1,
          "duration": 0.08333325000000968
        },
        {
          "name": "F4",
          "midi": 65,
          "time": 217.16644950000196,
          "velocity": 1,
          "duration": 0.08333325000000968
        },
        {
          "name": "C5",
          "midi": 72,
          "time": 217.16644950000196,
          "velocity": 1,
          "duration": 0.16666650000001937
        },
        {
          "name": "C6",
          "midi": 84,
          "time": 217.24978275000197,
          "velocity": 1,
          "duration": 0.08333325000000968
        },
        {
          "name": "F#4",
          "midi": 66,
          "time": 217.24978275000197,
          "velocity": 1,
          "duration": 0.08333325000000968
        },
        {
          "name": "C5",
          "midi": 72,
          "time": 217.33311600000198,
          "velocity": 1,
          "duration": 0.16666650000001937
        },
        {
          "name": "F4",
          "midi": 65,
          "time": 217.33311600000198,
          "velocity": 1,
          "duration": 0.16666650000001937
        },
        {
          "name": "A5",
          "midi": 81,
          "time": 217.33311600000198,
          "velocity": 1,
          "duration": 0.08333325000000968
        },
        {
          "name": "D#4",
          "midi": 63,
          "time": 217.33311600000198,
          "velocity": 1,
          "duration": 0.16666650000001937
        },
        {
          "name": "A5",
          "midi": 81,
          "time": 217.416449250002,
          "velocity": 1,
          "duration": 0.08333325000000968
        },
        {
          "name": "F5",
          "midi": 77,
          "time": 217.499782500002,
          "velocity": 1,
          "duration": 0.08333325000000968
        },
        {
          "name": "F5",
          "midi": 77,
          "time": 217.583115750002,
          "velocity": 1,
          "duration": 0.08333325000000968
        },
        {
          "name": "A5",
          "midi": 81,
          "time": 217.66644900000202,
          "velocity": 1,
          "duration": 0.08333325000000968
        },
        {
          "name": "A5",
          "midi": 81,
          "time": 217.74978225000203,
          "velocity": 1,
          "duration": 0.08333325000000968
        },
        {
          "name": "C6",
          "midi": 84,
          "time": 217.83311550000204,
          "velocity": 1,
          "duration": 0.08333325000000968
        },
        {
          "name": "C6",
          "midi": 84,
          "time": 217.91644875000205,
          "velocity": 1,
          "duration": 0.08333325000000968
        },
        {
          "name": "A#5",
          "midi": 82,
          "time": 217.99978200000206,
          "velocity": 1,
          "duration": 0.08333325000000968
        },
        {
          "name": "A#5",
          "midi": 82,
          "time": 218.08311525000207,
          "velocity": 1,
          "duration": 0.08333325000000968
        },
        {
          "name": "C#4",
          "midi": 61,
          "time": 218.16644850000208,
          "velocity": 1,
          "duration": 0.16666650000001937
        },
        {
          "name": "C#6",
          "midi": 85,
          "time": 218.16644850000208,
          "velocity": 1,
          "duration": 0.08333325000000968
        },
        {
          "name": "A#4",
          "midi": 70,
          "time": 218.16644850000208,
          "velocity": 1,
          "duration": 0.08333325000000968
        },
        {
          "name": "F4",
          "midi": 65,
          "time": 218.16644850000208,
          "velocity": 1,
          "duration": 0.16666650000001937
        },
        {
          "name": "C5",
          "midi": 72,
          "time": 218.2497817500021,
          "velocity": 1,
          "duration": 0.08333325000000968
        },
        {
          "name": "C#6",
          "midi": 85,
          "time": 218.2497817500021,
          "velocity": 1,
          "duration": 0.08333325000000968
        },
        {
          "name": "C#4",
          "midi": 61,
          "time": 218.3331150000021,
          "velocity": 1,
          "duration": 0.16666650000001937
        },
        {
          "name": "A#5",
          "midi": 82,
          "time": 218.3331150000021,
          "velocity": 1,
          "duration": 0.08333325000000968
        },
        {
          "name": "A#4",
          "midi": 70,
          "time": 218.3331150000021,
          "velocity": 1,
          "duration": 0.16666650000001937
        },
        {
          "name": "F4",
          "midi": 65,
          "time": 218.3331150000021,
          "velocity": 1,
          "duration": 0.16666650000001937
        },
        {
          "name": "A#5",
          "midi": 82,
          "time": 218.4164482500021,
          "velocity": 1,
          "duration": 0.08333325000000968
        },
        {
          "name": "F5",
          "midi": 77,
          "time": 218.49978150000211,
          "velocity": 1,
          "duration": 0.08333325000000968
        },
        {
          "name": "F5",
          "midi": 77,
          "time": 218.58311475000212,
          "velocity": 1,
          "duration": 0.08333325000000968
        },
        {
          "name": "A#5",
          "midi": 82,
          "time": 218.66644800000213,
          "velocity": 1,
          "duration": 0.08333325000000968
        },
        {
          "name": "A#5",
          "midi": 82,
          "time": 218.74978125000214,
          "velocity": 1,
          "duration": 0.08333325000000968
        },
        {
          "name": "C#6",
          "midi": 85,
          "time": 218.83311450000215,
          "velocity": 1,
          "duration": 0.08333325000000968
        },
        {
          "name": "C#6",
          "midi": 85,
          "time": 218.91644775000216,
          "velocity": 1,
          "duration": 0.08333325000000968
        },
        {
          "name": "G5",
          "midi": 79,
          "time": 218.99978100000217,
          "velocity": 1,
          "duration": 0.08333325000000968
        },
        {
          "name": "G5",
          "midi": 79,
          "time": 219.08311425000218,
          "velocity": 1,
          "duration": 0.08333325000000968
        },
        {
          "name": "D#3",
          "midi": 51,
          "time": 219.1664475000022,
          "velocity": 1,
          "duration": 0.08333325000000968
        },
        {
          "name": "D#4",
          "midi": 63,
          "time": 219.1664475000022,
          "velocity": 1,
          "duration": 0.08333325000000968
        },
        {
          "name": "A#5",
          "midi": 82,
          "time": 219.1664475000022,
          "velocity": 1,
          "duration": 0.08333325000000968
        },
        {
          "name": "C#4",
          "midi": 61,
          "time": 219.1664475000022,
          "velocity": 1,
          "duration": 0.16666650000001937
        },
        {
          "name": "A#5",
          "midi": 82,
          "time": 219.2497807500022,
          "velocity": 1,
          "duration": 0.08333325000000968
        },
        {
          "name": "F4",
          "midi": 65,
          "time": 219.2497807500022,
          "velocity": 1,
          "duration": 0.08333325000000968
        },
        {
          "name": "F3",
          "midi": 53,
          "time": 219.2497807500022,
          "velocity": 1,
          "duration": 0.08333325000000968
        },
        {
          "name": "C#4",
          "midi": 61,
          "time": 219.3331140000022,
          "velocity": 1,
          "duration": 0.16666650000001937
        },
        {
          "name": "G5",
          "midi": 79,
          "time": 219.3331140000022,
          "velocity": 1,
          "duration": 0.08333325000000968
        },
        {
          "name": "D#4",
          "midi": 63,
          "time": 219.3331140000022,
          "velocity": 1,
          "duration": 0.16666650000001937
        },
        {
          "name": "D#3",
          "midi": 51,
          "time": 219.3331140000022,
          "velocity": 1,
          "duration": 0.16666650000001937
        },
        {
          "name": "G5",
          "midi": 79,
          "time": 219.41644725000222,
          "velocity": 1,
          "duration": 0.08333325000000968
        },
        {
          "name": "D#5",
          "midi": 75,
          "time": 219.49978050000223,
          "velocity": 1,
          "duration": 0.08333325000000968
        },
        {
          "name": "D#5",
          "midi": 75,
          "time": 219.58311375000224,
          "velocity": 1,
          "duration": 0.08333325000000968
        },
        {
          "name": "G5",
          "midi": 79,
          "time": 219.66644700000225,
          "velocity": 1,
          "duration": 0.08333325000000968
        },
        {
          "name": "G5",
          "midi": 79,
          "time": 219.74978025000226,
          "velocity": 1,
          "duration": 0.08333325000000968
        },
        {
          "name": "A#5",
          "midi": 82,
          "time": 219.83311350000227,
          "velocity": 1,
          "duration": 0.08333325000000968
        },
        {
          "name": "A#5",
          "midi": 82,
          "time": 219.91644675000228,
          "velocity": 1,
          "duration": 0.08333325000000968
        },
        {
          "name": "G#5",
          "midi": 80,
          "time": 219.9997800000023,
          "velocity": 1,
          "duration": 0.08333325000000968
        },
        {
          "name": "G#5",
          "midi": 80,
          "time": 220.0831132500023,
          "velocity": 1,
          "duration": 0.08333325000000968
        },
        {
          "name": "C3",
          "midi": 48,
          "time": 220.1664465000023,
          "velocity": 1,
          "duration": 0.16666650000001937
        },
        {
          "name": "C6",
          "midi": 84,
          "time": 220.1664465000023,
          "velocity": 1,
          "duration": 0.08333325000000968
        },
        {
          "name": "G#4",
          "midi": 68,
          "time": 220.1664465000023,
          "velocity": 1,
          "duration": 0.08333325000000968
        },
        {
          "name": "G#3",
          "midi": 56,
          "time": 220.1664465000023,
          "velocity": 1,
          "duration": 0.08333325000000968
        },
        {
          "name": "C6",
          "midi": 84,
          "time": 220.24977975000232,
          "velocity": 1,
          "duration": 0.08333325000000968
        },
        {
          "name": "A#4",
          "midi": 70,
          "time": 220.24977975000232,
          "velocity": 1,
          "duration": 0.08333325000000968
        },
        {
          "name": "A#3",
          "midi": 58,
          "time": 220.24977975000232,
          "velocity": 1,
          "duration": 0.08333325000000968
        },
        {
          "name": "G#3",
          "midi": 56,
          "time": 220.33311300000233,
          "velocity": 1,
          "duration": 0.16666650000001937
        },
        {
          "name": "G#4",
          "midi": 68,
          "time": 220.33311300000233,
          "velocity": 1,
          "duration": 0.16666650000001937
        },
        {
          "name": "G#5",
          "midi": 80,
          "time": 220.33311300000233,
          "velocity": 1,
          "duration": 0.08333325000000968
        },
        {
          "name": "C3",
          "midi": 48,
          "time": 220.33311300000233,
          "velocity": 1,
          "duration": 0.16666650000001937
        },
        {
          "name": "G#5",
          "midi": 80,
          "time": 220.41644625000234,
          "velocity": 1,
          "duration": 0.08333325000000968
        },
        {
          "name": "D#5",
          "midi": 75,
          "time": 220.49977950000235,
          "velocity": 1,
          "duration": 0.08333325000000968
        },
        {
          "name": "D#5",
          "midi": 75,
          "time": 220.58311275000236,
          "velocity": 1,
          "duration": 0.08333325000000968
        },
        {
          "name": "G#5",
          "midi": 80,
          "time": 220.66644600000237,
          "velocity": 1,
          "duration": 0.08333325000000968
        },
        {
          "name": "G#5",
          "midi": 80,
          "time": 220.74977925000238,
          "velocity": 1,
          "duration": 0.08333325000000968
        },
        {
          "name": "C6",
          "midi": 84,
          "time": 220.8331125000024,
          "velocity": 1,
          "duration": 0.08333325000000968
        },
        {
          "name": "C6",
          "midi": 84,
          "time": 220.9164457500024,
          "velocity": 1,
          "duration": 0.08333325000000968
        },
        {
          "name": "F2",
          "midi": 41,
          "time": 220.9997790000024,
          "velocity": 1,
          "duration": 0.16666650000001937
        },
        {
          "name": "G#5",
          "midi": 80,
          "time": 220.9997790000024,
          "velocity": 1,
          "duration": 0.08333325000000968
        },
        {
          "name": "G#4",
          "midi": 68,
          "time": 220.9997790000024,
          "velocity": 1,
          "duration": 0.16666650000001937
        },
        {
          "name": "F3",
          "midi": 53,
          "time": 220.9997790000024,
          "velocity": 1,
          "duration": 0.08333325000000968
        },
        {
          "name": "C#6",
          "midi": 85,
          "time": 221.08311225000242,
          "velocity": 1,
          "duration": 0.08333325000000968
        },
        {
          "name": "F4",
          "midi": 65,
          "time": 221.08311225000242,
          "velocity": 1,
          "duration": 0.08333325000000968
        },
        {
          "name": "F4",
          "midi": 65,
          "time": 221.16644550000242,
          "velocity": 1,
          "duration": 0.08333325000000968
        },
        {
          "name": "G#4",
          "midi": 68,
          "time": 221.16644550000242,
          "velocity": 1,
          "duration": 0.16666650000001937
        },
        {
          "name": "C#6",
          "midi": 85,
          "time": 221.16644550000242,
          "velocity": 1,
          "duration": 0.08333325000000968
        },
        {
          "name": "F3",
          "midi": 53,
          "time": 221.16644550000242,
          "velocity": 1,
          "duration": 0.16666650000001937
        },
        {
          "name": "C#6",
          "midi": 85,
          "time": 221.24977875000243,
          "velocity": 1,
          "duration": 0.08333325000000968
        },
        {
          "name": "F4",
          "midi": 65,
          "time": 221.24977875000243,
          "velocity": 1,
          "duration": 0.08333325000000968
        },
        {
          "name": "F3",
          "midi": 53,
          "time": 221.33311200000244,
          "velocity": 1,
          "duration": 0.16666650000001937
        },
        {
          "name": "C#6",
          "midi": 85,
          "time": 221.33311200000244,
          "velocity": 1,
          "duration": 0.08333325000000968
        },
        {
          "name": "G#4",
          "midi": 68,
          "time": 221.33311200000244,
          "velocity": 1,
          "duration": 0.16666650000001937
        },
        {
          "name": "F4",
          "midi": 65,
          "time": 221.33311200000244,
          "velocity": 1,
          "duration": 0.08333325000000968
        },
        {
          "name": "C#6",
          "midi": 85,
          "time": 221.41644525000245,
          "velocity": 1,
          "duration": 0.08333325000000968
        },
        {
          "name": "F4",
          "midi": 65,
          "time": 221.41644525000245,
          "velocity": 1,
          "duration": 0.08333325000000968
        },
        {
          "name": "F4",
          "midi": 65,
          "time": 221.49977850000246,
          "velocity": 1,
          "duration": 0.08333325000000968
        },
        {
          "name": "G#4",
          "midi": 68,
          "time": 221.49977850000246,
          "velocity": 1,
          "duration": 0.16666650000001937
        },
        {
          "name": "C#6",
          "midi": 85,
          "time": 221.49977850000246,
          "velocity": 1,
          "duration": 0.08333325000000968
        },
        {
          "name": "F3",
          "midi": 53,
          "time": 221.49977850000246,
          "velocity": 1,
          "duration": 0.16666650000001937
        },
        {
          "name": "C#6",
          "midi": 85,
          "time": 221.58311175000247,
          "velocity": 1,
          "duration": 0.08333325000000968
        },
        {
          "name": "F4",
          "midi": 65,
          "time": 221.58311175000247,
          "velocity": 1,
          "duration": 0.08333325000000968
        },
        {
          "name": "F4",
          "midi": 65,
          "time": 221.66644500000248,
          "velocity": 1,
          "duration": 0.08333325000000968
        },
        {
          "name": "G#4",
          "midi": 68,
          "time": 221.66644500000248,
          "velocity": 1,
          "duration": 0.16666650000001937
        },
        {
          "name": "C#6",
          "midi": 85,
          "time": 221.66644500000248,
          "velocity": 1,
          "duration": 0.08333325000000968
        },
        {
          "name": "F3",
          "midi": 53,
          "time": 221.66644500000248,
          "velocity": 1,
          "duration": 0.16666650000001937
        },
        {
          "name": "C#6",
          "midi": 85,
          "time": 221.7497782500025,
          "velocity": 1,
          "duration": 0.08333325000000968
        },
        {
          "name": "F4",
          "midi": 65,
          "time": 221.7497782500025,
          "velocity": 1,
          "duration": 0.08333325000000968
        },
        {
          "name": "F3",
          "midi": 53,
          "time": 221.8331115000025,
          "velocity": 1,
          "duration": 0.16666650000001937
        },
        {
          "name": "C#6",
          "midi": 85,
          "time": 221.8331115000025,
          "velocity": 1,
          "duration": 0.08333325000000968
        },
        {
          "name": "G#4",
          "midi": 68,
          "time": 221.8331115000025,
          "velocity": 1,
          "duration": 0.16666650000001937
        },
        {
          "name": "F4",
          "midi": 65,
          "time": 221.8331115000025,
          "velocity": 1,
          "duration": 0.08333325000000968
        },
        {
          "name": "F4",
          "midi": 65,
          "time": 221.9164447500025,
          "velocity": 1,
          "duration": 0.08333325000000968
        },
        {
          "name": "C#6",
          "midi": 85,
          "time": 221.9164447500025,
          "velocity": 1,
          "duration": 0.08333325000000968
        },
        {
          "name": "E3",
          "midi": 52,
          "time": 221.99977800000252,
          "velocity": 1,
          "duration": 0.16666650000001937
        },
        {
          "name": "D6",
          "midi": 86,
          "time": 221.99977800000252,
          "velocity": 1,
          "duration": 0.08333325000000968
        },
        {
          "name": "A#4",
          "midi": 70,
          "time": 221.99977800000252,
          "velocity": 1,
          "duration": 0.16666650000001937
        },
        {
          "name": "G#4",
          "midi": 68,
          "time": 221.99977800000252,
          "velocity": 1,
          "duration": 0.16666650000001937
        },
        {
          "name": "E4",
          "midi": 64,
          "time": 221.99977800000252,
          "velocity": 1,
          "duration": 0.08333325000000968
        },
        {
          "name": "D6",
          "midi": 86,
          "time": 222.08311125000253,
          "velocity": 1,
          "duration": 0.08333325000000968
        },
        {
          "name": "E4",
          "midi": 64,
          "time": 222.08311125000253,
          "velocity": 1,
          "duration": 0.08333325000000968
        },
        {
          "name": "E3",
          "midi": 52,
          "time": 222.16644450000254,
          "velocity": 1,
          "duration": 0.16666650000001937
        },
        {
          "name": "D6",
          "midi": 86,
          "time": 222.16644450000254,
          "velocity": 1,
          "duration": 0.08333325000000968
        },
        {
          "name": "A#4",
          "midi": 70,
          "time": 222.16644450000254,
          "velocity": 1,
          "duration": 0.16666650000001937
        },
        {
          "name": "G#4",
          "midi": 68,
          "time": 222.16644450000254,
          "velocity": 1,
          "duration": 0.16666650000001937
        },
        {
          "name": "E4",
          "midi": 64,
          "time": 222.16644450000254,
          "velocity": 1,
          "duration": 0.08333325000000968
        },
        {
          "name": "E4",
          "midi": 64,
          "time": 222.24977775000255,
          "velocity": 1,
          "duration": 0.08333325000000968
        },
        {
          "name": "D6",
          "midi": 86,
          "time": 222.24977775000255,
          "velocity": 1,
          "duration": 0.08333325000000968
        },
        {
          "name": "E3",
          "midi": 52,
          "time": 222.33311100000256,
          "velocity": 1,
          "duration": 0.16666650000001937
        },
        {
          "name": "D6",
          "midi": 86,
          "time": 222.33311100000256,
          "velocity": 1,
          "duration": 0.08333325000000968
        },
        {
          "name": "A#4",
          "midi": 70,
          "time": 222.33311100000256,
          "velocity": 1,
          "duration": 0.16666650000001937
        },
        {
          "name": "G#4",
          "midi": 68,
          "time": 222.33311100000256,
          "velocity": 1,
          "duration": 0.16666650000001937
        },
        {
          "name": "E4",
          "midi": 64,
          "time": 222.33311100000256,
          "velocity": 1,
          "duration": 0.08333325000000968
        },
        {
          "name": "D6",
          "midi": 86,
          "time": 222.41644425000257,
          "velocity": 1,
          "duration": 0.08333325000000968
        },
        {
          "name": "E4",
          "midi": 64,
          "time": 222.41644425000257,
          "velocity": 1,
          "duration": 0.08333325000000968
        },
        {
          "name": "E3",
          "midi": 52,
          "time": 222.49977750000258,
          "velocity": 1,
          "duration": 0.16666650000001937
        },
        {
          "name": "D6",
          "midi": 86,
          "time": 222.49977750000258,
          "velocity": 1,
          "duration": 0.08333325000000968
        },
        {
          "name": "A#4",
          "midi": 70,
          "time": 222.49977750000258,
          "velocity": 1,
          "duration": 0.16666650000001937
        },
        {
          "name": "G#4",
          "midi": 68,
          "time": 222.49977750000258,
          "velocity": 1,
          "duration": 0.16666650000001937
        },
        {
          "name": "E4",
          "midi": 64,
          "time": 222.49977750000258,
          "velocity": 1,
          "duration": 0.08333325000000968
        },
        {
          "name": "E4",
          "midi": 64,
          "time": 222.5831107500026,
          "velocity": 1,
          "duration": 0.08333325000000968
        },
        {
          "name": "D6",
          "midi": 86,
          "time": 222.5831107500026,
          "velocity": 1,
          "duration": 0.08333325000000968
        },
        {
          "name": "E3",
          "midi": 52,
          "time": 222.6664440000026,
          "velocity": 1,
          "duration": 0.16666650000001937
        },
        {
          "name": "D6",
          "midi": 86,
          "time": 222.6664440000026,
          "velocity": 1,
          "duration": 0.08333325000000968
        },
        {
          "name": "A#4",
          "midi": 70,
          "time": 222.6664440000026,
          "velocity": 1,
          "duration": 0.16666650000001937
        },
        {
          "name": "G#4",
          "midi": 68,
          "time": 222.6664440000026,
          "velocity": 1,
          "duration": 0.16666650000001937
        },
        {
          "name": "E4",
          "midi": 64,
          "time": 222.6664440000026,
          "velocity": 1,
          "duration": 0.08333325000000968
        },
        {
          "name": "D6",
          "midi": 86,
          "time": 222.7497772500026,
          "velocity": 1,
          "duration": 0.08333325000000968
        },
        {
          "name": "E4",
          "midi": 64,
          "time": 222.7497772500026,
          "velocity": 1,
          "duration": 0.08333325000000968
        },
        {
          "name": "E3",
          "midi": 52,
          "time": 222.83311050000262,
          "velocity": 1,
          "duration": 0.16666650000001937
        },
        {
          "name": "D6",
          "midi": 86,
          "time": 222.83311050000262,
          "velocity": 1,
          "duration": 0.08333325000000968
        },
        {
          "name": "A#4",
          "midi": 70,
          "time": 222.83311050000262,
          "velocity": 1,
          "duration": 0.16666650000001937
        },
        {
          "name": "G#4",
          "midi": 68,
          "time": 222.83311050000262,
          "velocity": 1,
          "duration": 0.16666650000001937
        },
        {
          "name": "E4",
          "midi": 64,
          "time": 222.83311050000262,
          "velocity": 1,
          "duration": 0.08333325000000968
        },
        {
          "name": "E4",
          "midi": 64,
          "time": 222.91644375000263,
          "velocity": 1,
          "duration": 0.08333325000000968
        },
        {
          "name": "D6",
          "midi": 86,
          "time": 222.91644375000263,
          "velocity": 1,
          "duration": 0.08333325000000968
        },
        {
          "name": "D#3",
          "midi": 51,
          "time": 222.99977700000264,
          "velocity": 1,
          "duration": 0.3333329999999819
        },
        {
          "name": "D#6",
          "midi": 87,
          "time": 222.99977700000264,
          "velocity": 1,
          "duration": 0.3333329999999819
        },
        {
          "name": "A#4",
          "midi": 70,
          "time": 222.99977700000264,
          "velocity": 1,
          "duration": 0.16666649999999095
        },
        {
          "name": "G4",
          "midi": 67,
          "time": 222.99977700000264,
          "velocity": 1,
          "duration": 0.16666649999999095
        },
        {
          "name": "D#4",
          "midi": 63,
          "time": 222.99977700000264,
          "velocity": 1,
          "duration": 0.16666649999999095
        },
        {
          "name": "D#4",
          "midi": 63,
          "time": 223.16644350000263,
          "velocity": 1,
          "duration": 0.16666649999999095
        },
        {
          "name": "A#3",
          "midi": 58,
          "time": 223.33311000000262,
          "velocity": 1,
          "duration": 0.16666649999999095
        },
        {
          "name": "G3",
          "midi": 55,
          "time": 223.33311000000262,
          "velocity": 1,
          "duration": 0.16666649999999095
        },
        {
          "name": "D#4",
          "midi": 63,
          "time": 223.4997765000026,
          "velocity": 1,
          "duration": 0.16666649999999095
        },
        {
          "name": "D#3",
          "midi": 51,
          "time": 223.4997765000026,
          "velocity": 1,
          "duration": 0.16666649999999095
        },
        {
          "name": "A#3",
          "midi": 58,
          "time": 223.6664430000026,
          "velocity": 1,
          "duration": 0.16666649999999095
        },
        {
          "name": "G3",
          "midi": 55,
          "time": 223.6664430000026,
          "velocity": 1,
          "duration": 0.16666649999999095
        },
        {
          "name": "D#3",
          "midi": 51,
          "time": 223.8331095000026,
          "velocity": 1,
          "duration": 0.16666649999999095
        },
        {
          "name": "D#4",
          "midi": 63,
          "time": 223.8331095000026,
          "velocity": 1,
          "duration": 0.16666649999999095
        },
        {
          "name": "D#4",
          "midi": 63,
          "time": 223.99977600000258,
          "velocity": 1,
          "duration": 1.1666654999999366
        },
        {
          "name": "A#3",
          "midi": 58,
          "time": 223.99977600000258,
          "velocity": 1,
          "duration": 0.16666649999999095
        },
        {
          "name": "G3",
          "midi": 55,
          "time": 223.99977600000258,
          "velocity": 1,
          "duration": 0.16666649999999095
        },
        {
          "name": "D#3",
          "midi": 51,
          "time": 224.16644250000257,
          "velocity": 1,
          "duration": 0.16666649999999095
        },
        {
          "name": "A#3",
          "midi": 58,
          "time": 224.33310900000257,
          "velocity": 1,
          "duration": 0.16666649999999095
        },
        {
          "name": "G3",
          "midi": 55,
          "time": 224.33310900000257,
          "velocity": 1,
          "duration": 0.16666649999999095
        },
        {
          "name": "D#3",
          "midi": 51,
          "time": 224.49977550000256,
          "velocity": 1,
          "duration": 0.16666649999999095
        },
        {
          "name": "A#3",
          "midi": 58,
          "time": 224.66644200000255,
          "velocity": 1,
          "duration": 0.16666649999999095
        },
        {
          "name": "G3",
          "midi": 55,
          "time": 224.66644200000255,
          "velocity": 1,
          "duration": 0.16666649999999095
        },
        {
          "name": "D#3",
          "midi": 51,
          "time": 224.83310850000254,
          "velocity": 1,
          "duration": 0.16666649999999095
        },
        {
          "name": "G3",
          "midi": 55,
          "time": 224.99977500000253,
          "velocity": 1,
          "duration": 0.3333329999999819
        },
        {
          "name": "A#3",
          "midi": 58,
          "time": 224.99977500000253,
          "velocity": 1,
          "duration": 0.16666649999999095
        },
        {
          "name": "G4",
          "midi": 67,
          "time": 225.16644150000252,
          "velocity": 1,
          "duration": 0.16666649999999095
        },
        {
          "name": "D#4",
          "midi": 63,
          "time": 225.16644150000252,
          "velocity": 1,
          "duration": 0.16666649999999095
        },
        {
          "name": "D#3",
          "midi": 51,
          "time": 225.16644150000252,
          "velocity": 1,
          "duration": 0.16666649999999095
        },
        {
          "name": "G#4",
          "midi": 68,
          "time": 225.3331080000025,
          "velocity": 1,
          "duration": 0.16666649999999095
        },
        {
          "name": "A#3",
          "midi": 58,
          "time": 225.3331080000025,
          "velocity": 1,
          "duration": 0.16666649999999095
        },
        {
          "name": "G3",
          "midi": 55,
          "time": 225.3331080000025,
          "velocity": 1,
          "duration": 0.16666649999999095
        },
        {
          "name": "A#4",
          "midi": 70,
          "time": 225.4997745000025,
          "velocity": 1,
          "duration": 0.16666649999999095
        },
        {
          "name": "D#4",
          "midi": 63,
          "time": 225.4997745000025,
          "velocity": 1,
          "duration": 0.16666649999999095
        },
        {
          "name": "D#3",
          "midi": 51,
          "time": 225.4997745000025,
          "velocity": 1,
          "duration": 0.16666649999999095
        },
        {
          "name": "C5",
          "midi": 72,
          "time": 225.6664410000025,
          "velocity": 1,
          "duration": 0.16666649999999095
        },
        {
          "name": "A#3",
          "midi": 58,
          "time": 225.6664410000025,
          "velocity": 1,
          "duration": 0.16666649999999095
        },
        {
          "name": "G3",
          "midi": 55,
          "time": 225.6664410000025,
          "velocity": 1,
          "duration": 0.16666649999999095
        },
        {
          "name": "D#3",
          "midi": 51,
          "time": 225.83310750000248,
          "velocity": 1,
          "duration": 0.16666649999999095
        },
        {
          "name": "D#4",
          "midi": 63,
          "time": 225.83310750000248,
          "velocity": 1,
          "duration": 0.16666649999999095
        },
        {
          "name": "C#5",
          "midi": 73,
          "time": 225.83310750000248,
          "velocity": 1,
          "duration": 0.16666649999999095
        },
        {
          "name": "D#3",
          "midi": 51,
          "time": 225.99977400000247,
          "velocity": 1,
          "duration": 0.3333329999999819
        },
        {
          "name": "D#5",
          "midi": 75,
          "time": 225.99977400000247,
          "velocity": 1,
          "duration": 0.3333329999999819
        },
        {
          "name": "A#3",
          "midi": 58,
          "time": 225.99977400000247,
          "velocity": 1,
          "duration": 0.16666649999999095
        },
        {
          "name": "G3",
          "midi": 55,
          "time": 225.99977400000247,
          "velocity": 1,
          "duration": 0.16666649999999095
        },
        {
          "name": "D#4",
          "midi": 63,
          "time": 226.16644050000247,
          "velocity": 1,
          "duration": 0.16666649999999095
        },
        {
          "name": "A#5",
          "midi": 82,
          "time": 226.33310700000246,
          "velocity": 1,
          "duration": 0.49999949999997284
        },
        {
          "name": "A#3",
          "midi": 58,
          "time": 226.33310700000246,
          "velocity": 1,
          "duration": 0.16666649999999095
        },
        {
          "name": "G3",
          "midi": 55,
          "time": 226.33310700000246,
          "velocity": 1,
          "duration": 0.16666649999999095
        },
        {
          "name": "D#4",
          "midi": 63,
          "time": 226.49977350000245,
          "velocity": 1,
          "duration": 0.16666649999999095
        },
        {
          "name": "D#3",
          "midi": 51,
          "time": 226.49977350000245,
          "velocity": 1,
          "duration": 0.16666649999999095
        },
        {
          "name": "A#3",
          "midi": 58,
          "time": 226.66644000000244,
          "velocity": 1,
          "duration": 0.16666649999999095
        },
        {
          "name": "G3",
          "midi": 55,
          "time": 226.66644000000244,
          "velocity": 1,
          "duration": 0.16666649999999095
        },
        {
          "name": "D#3",
          "midi": 51,
          "time": 226.83310650000243,
          "velocity": 1,
          "duration": 0.16666649999999095
        },
        {
          "name": "D#4",
          "midi": 63,
          "time": 226.83310650000243,
          "velocity": 1,
          "duration": 0.16666649999999095
        },
        {
          "name": "C#5",
          "midi": 73,
          "time": 226.83310650000243,
          "velocity": 1,
          "duration": 0.16666649999999095
        },
        {
          "name": "G#3",
          "midi": 56,
          "time": 226.99977300000242,
          "velocity": 1,
          "duration": 0.3333329999999819
        },
        {
          "name": "C5",
          "midi": 72,
          "time": 226.99977300000242,
          "velocity": 1,
          "duration": 0.3333329999999819
        },
        {
          "name": "C4",
          "midi": 60,
          "time": 226.99977300000242,
          "velocity": 1,
          "duration": 0.16666649999999095
        },
        {
          "name": "D#4",
          "midi": 63,
          "time": 227.1664395000024,
          "velocity": 1,
          "duration": 0.16666649999999095
        },
        {
          "name": "D#3",
          "midi": 51,
          "time": 227.1664395000024,
          "velocity": 1,
          "duration": 0.16666649999999095
        },
        {
          "name": "C4",
          "midi": 60,
          "time": 227.3331060000024,
          "velocity": 1,
          "duration": 0.16666649999999095
        },
        {
          "name": "G#3",
          "midi": 56,
          "time": 227.3331060000024,
          "velocity": 1,
          "duration": 0.16666649999999095
        },
        {
          "name": "D#4",
          "midi": 63,
          "time": 227.4997725000024,
          "velocity": 1,
          "duration": 0.16666649999999095
        },
        {
          "name": "D#3",
          "midi": 51,
          "time": 227.4997725000024,
          "velocity": 1,
          "duration": 0.16666649999999095
        },
        {
          "name": "C4",
          "midi": 60,
          "time": 227.66643900000238,
          "velocity": 1,
          "duration": 0.16666649999999095
        },
        {
          "name": "G#3",
          "midi": 56,
          "time": 227.66643900000238,
          "velocity": 1,
          "duration": 0.16666649999999095
        },
        {
          "name": "D#3",
          "midi": 51,
          "time": 227.83310550000238,
          "velocity": 1,
          "duration": 0.16666649999999095
        },
        {
          "name": "D#4",
          "midi": 63,
          "time": 227.83310550000238,
          "velocity": 1,
          "duration": 0.16666649999999095
        },
        {
          "name": "D#4",
          "midi": 63,
          "time": 227.99977200000237,
          "velocity": 1,
          "duration": 1.1666654999999366
        },
        {
          "name": "C4",
          "midi": 60,
          "time": 227.99977200000237,
          "velocity": 1,
          "duration": 0.16666649999999095
        },
        {
          "name": "G#3",
          "midi": 56,
          "time": 227.99977200000237,
          "velocity": 1,
          "duration": 0.16666649999999095
        },
        {
          "name": "D#3",
          "midi": 51,
          "time": 228.16643850000236,
          "velocity": 1,
          "duration": 0.16666649999999095
        },
        {
          "name": "C4",
          "midi": 60,
          "time": 228.33310500000235,
          "velocity": 1,
          "duration": 0.16666649999999095
        },
        {
          "name": "G#3",
          "midi": 56,
          "time": 228.33310500000235,
          "velocity": 1,
          "duration": 0.16666649999999095
        },
        {
          "name": "D#3",
          "midi": 51,
          "time": 228.49977150000234,
          "velocity": 1,
          "duration": 0.16666649999999095
        },
        {
          "name": "C4",
          "midi": 60,
          "time": 228.66643800000233,
          "velocity": 1,
          "duration": 0.16666649999999095
        },
        {
          "name": "G#3",
          "midi": 56,
          "time": 228.66643800000233,
          "velocity": 1,
          "duration": 0.16666649999999095
        },
        {
          "name": "D#3",
          "midi": 51,
          "time": 228.83310450000232,
          "velocity": 1,
          "duration": 0.16666649999999095
        },
        {
          "name": "G#3",
          "midi": 56,
          "time": 228.9997710000023,
          "velocity": 1,
          "duration": 0.16666649999999095
        },
        {
          "name": "C4",
          "midi": 60,
          "time": 228.9997710000023,
          "velocity": 1,
          "duration": 0.3333329999999819
        },
        {
          "name": "G4",
          "midi": 67,
          "time": 229.1664375000023,
          "velocity": 1,
          "duration": 0.16666649999999095
        },
        {
          "name": "D#4",
          "midi": 63,
          "time": 229.1664375000023,
          "velocity": 1,
          "duration": 0.16666649999999095
        },
        {
          "name": "D#3",
          "midi": 51,
          "time": 229.1664375000023,
          "velocity": 1,
          "duration": 0.16666649999999095
        },
        {
          "name": "G#4",
          "midi": 68,
          "time": 229.3331040000023,
          "velocity": 1,
          "duration": 0.16666649999999095
        },
        {
          "name": "C4",
          "midi": 60,
          "time": 229.3331040000023,
          "velocity": 1,
          "duration": 0.16666649999999095
        },
        {
          "name": "G#3",
          "midi": 56,
          "time": 229.3331040000023,
          "velocity": 1,
          "duration": 0.16666649999999095
        },
        {
          "name": "A#4",
          "midi": 70,
          "time": 229.49977050000228,
          "velocity": 1,
          "duration": 0.16666649999999095
        },
        {
          "name": "D#4",
          "midi": 63,
          "time": 229.49977050000228,
          "velocity": 1,
          "duration": 0.16666649999999095
        },
        {
          "name": "D#3",
          "midi": 51,
          "time": 229.49977050000228,
          "velocity": 1,
          "duration": 0.16666649999999095
        },
        {
          "name": "C5",
          "midi": 72,
          "time": 229.66643700000228,
          "velocity": 1,
          "duration": 0.16666649999999095
        },
        {
          "name": "C4",
          "midi": 60,
          "time": 229.66643700000228,
          "velocity": 1,
          "duration": 0.16666649999999095
        },
        {
          "name": "G#3",
          "midi": 56,
          "time": 229.66643700000228,
          "velocity": 1,
          "duration": 0.16666649999999095
        },
        {
          "name": "D#3",
          "midi": 51,
          "time": 229.83310350000227,
          "velocity": 1,
          "duration": 0.16666649999999095
        },
        {
          "name": "D#4",
          "midi": 63,
          "time": 229.83310350000227,
          "velocity": 1,
          "duration": 0.16666649999999095
        },
        {
          "name": "C#5",
          "midi": 73,
          "time": 229.83310350000227,
          "velocity": 1,
          "duration": 0.16666649999999095
        },
        {
          "name": "G#3",
          "midi": 56,
          "time": 229.99977000000226,
          "velocity": 1,
          "duration": 0.3333329999999819
        },
        {
          "name": "D#5",
          "midi": 75,
          "time": 229.99977000000226,
          "velocity": 1,
          "duration": 0.3333329999999819
        },
        {
          "name": "C4",
          "midi": 60,
          "time": 229.99977000000226,
          "velocity": 1,
          "duration": 0.16666649999999095
        },
        {
          "name": "D#3",
          "midi": 51,
          "time": 230.16643650000225,
          "velocity": 1,
          "duration": 0.16666649999999095
        },
        {
          "name": "D#4",
          "midi": 63,
          "time": 230.16643650000225,
          "velocity": 1,
          "duration": 0.16666649999999095
        },
        {
          "name": "G#5",
          "midi": 80,
          "time": 230.33310300000224,
          "velocity": 1,
          "duration": 0.49999949999997284
        },
        {
          "name": "C4",
          "midi": 60,
          "time": 230.33310300000224,
          "velocity": 1,
          "duration": 0.16666649999999095
        },
        {
          "name": "G#3",
          "midi": 56,
          "time": 230.33310300000224,
          "velocity": 1,
          "duration": 0.16666649999999095
        },
        {
          "name": "D#4",
          "midi": 63,
          "time": 230.49976950000223,
          "velocity": 1,
          "duration": 0.16666649999999095
        },
        {
          "name": "D#3",
          "midi": 51,
          "time": 230.49976950000223,
          "velocity": 1,
          "duration": 0.16666649999999095
        },
        {
          "name": "C4",
          "midi": 60,
          "time": 230.66643600000222,
          "velocity": 1,
          "duration": 0.16666649999999095
        },
        {
          "name": "G#3",
          "midi": 56,
          "time": 230.66643600000222,
          "velocity": 1,
          "duration": 0.16666649999999095
        },
        {
          "name": "D#3",
          "midi": 51,
          "time": 230.8331025000022,
          "velocity": 1,
          "duration": 0.16666649999999095
        },
        {
          "name": "D#4",
          "midi": 63,
          "time": 230.8331025000022,
          "velocity": 1,
          "duration": 0.16666649999999095
        },
        {
          "name": "C5",
          "midi": 72,
          "time": 230.8331025000022,
          "velocity": 1,
          "duration": 0.16666649999999095
        },
        {
          "name": "G3",
          "midi": 55,
          "time": 230.9997690000022,
          "velocity": 1,
          "duration": 0.3333329999999819
        },
        {
          "name": "C#5",
          "midi": 73,
          "time": 230.9997690000022,
          "velocity": 1,
          "duration": 0.3333329999999819
        },
        {
          "name": "C#4",
          "midi": 61,
          "time": 230.9997690000022,
          "velocity": 1,
          "duration": 0.16666649999999095
        },
        {
          "name": "A#3",
          "midi": 58,
          "time": 230.9997690000022,
          "velocity": 1,
          "duration": 0.16666649999999095
        },
        {
          "name": "D#3",
          "midi": 51,
          "time": 231.1664355000022,
          "velocity": 1,
          "duration": 0.16666649999999095
        },
        {
          "name": "D#4",
          "midi": 63,
          "time": 231.1664355000022,
          "velocity": 1,
          "duration": 0.16666649999999095
        },
        {
          "name": "D#5",
          "midi": 75,
          "time": 231.33310200000219,
          "velocity": 1,
          "duration": 0.49999949999997284
        },
        {
          "name": "A#3",
          "midi": 58,
          "time": 231.33310200000219,
          "velocity": 1,
          "duration": 0.16666649999999095
        },
        {
          "name": "G3",
          "midi": 55,
          "time": 231.33310200000219,
          "velocity": 1,
          "duration": 0.16666649999999095
        },
        {
          "name": "D#4",
          "midi": 63,
          "time": 231.49976850000218,
          "velocity": 1,
          "duration": 0.16666649999999095
        },
        {
          "name": "D#3",
          "midi": 51,
          "time": 231.49976850000218,
          "velocity": 1,
          "duration": 0.16666649999999095
        },
        {
          "name": "A#3",
          "midi": 58,
          "time": 231.66643500000217,
          "velocity": 1,
          "duration": 0.16666649999999095
        },
        {
          "name": "G3",
          "midi": 55,
          "time": 231.66643500000217,
          "velocity": 1,
          "duration": 0.16666649999999095
        },
        {
          "name": "D#3",
          "midi": 51,
          "time": 231.83310150000216,
          "velocity": 1,
          "duration": 0.16666649999999095
        },
        {
          "name": "D#4",
          "midi": 63,
          "time": 231.83310150000216,
          "velocity": 1,
          "duration": 0.16666649999999095
        },
        {
          "name": "D5",
          "midi": 74,
          "time": 231.83310150000216,
          "velocity": 1,
          "duration": 0.16666649999999095
        },
        {
          "name": "A#4",
          "midi": 70,
          "time": 231.99976800000215,
          "velocity": 1,
          "duration": 0.3333329999999819
        },
        {
          "name": "A#3",
          "midi": 58,
          "time": 231.99976800000215,
          "velocity": 1,
          "duration": 0.16666649999999095
        },
        {
          "name": "G3",
          "midi": 55,
          "time": 231.99976800000215,
          "velocity": 1,
          "duration": 0.16666649999999095
        },
        {
          "name": "D#4",
          "midi": 63,
          "time": 232.16643450000214,
          "velocity": 1,
          "duration": 0.16666649999999095
        },
        {
          "name": "D#3",
          "midi": 51,
          "time": 232.16643450000214,
          "velocity": 1,
          "duration": 0.16666649999999095
        },
        {
          "name": "C#5",
          "midi": 73,
          "time": 232.33310100000213,
          "velocity": 1,
          "duration": 0.49999949999997284
        },
        {
          "name": "A#3",
          "midi": 58,
          "time": 232.33310100000213,
          "velocity": 1,
          "duration": 0.16666649999999095
        },
        {
          "name": "G3",
          "midi": 55,
          "time": 232.33310100000213,
          "velocity": 1,
          "duration": 0.16666649999999095
        },
        {
          "name": "D#4",
          "midi": 63,
          "time": 232.49976750000212,
          "velocity": 1,
          "duration": 0.16666649999999095
        },
        {
          "name": "D#3",
          "midi": 51,
          "time": 232.49976750000212,
          "velocity": 1,
          "duration": 0.16666649999999095
        },
        {
          "name": "A#3",
          "midi": 58,
          "time": 232.6664340000021,
          "velocity": 1,
          "duration": 0.16666649999999095
        },
        {
          "name": "G3",
          "midi": 55,
          "time": 232.6664340000021,
          "velocity": 1,
          "duration": 0.16666649999999095
        },
        {
          "name": "D#3",
          "midi": 51,
          "time": 232.8331005000021,
          "velocity": 1,
          "duration": 0.16666649999999095
        },
        {
          "name": "D#4",
          "midi": 63,
          "time": 232.8331005000021,
          "velocity": 1,
          "duration": 0.16666649999999095
        },
        {
          "name": "A#4",
          "midi": 70,
          "time": 232.8331005000021,
          "velocity": 1,
          "duration": 0.16666649999999095
        },
        {
          "name": "D#3",
          "midi": 51,
          "time": 232.9997670000021,
          "velocity": 1,
          "duration": 1.1666654999999366
        },
        {
          "name": "G4",
          "midi": 67,
          "time": 232.9997670000021,
          "velocity": 1,
          "duration": 0.3333329999999819
        },
        {
          "name": "A#3",
          "midi": 58,
          "time": 232.9997670000021,
          "velocity": 1,
          "duration": 0.16666649999999095
        },
        {
          "name": "G3",
          "midi": 55,
          "time": 232.9997670000021,
          "velocity": 1,
          "duration": 0.16666649999999095
        },
        {
          "name": "D#4",
          "midi": 63,
          "time": 233.16643350000209,
          "velocity": 1,
          "duration": 0.16666649999999095
        },
        {
          "name": "A#4",
          "midi": 70,
          "time": 233.33310000000208,
          "velocity": 1,
          "duration": 0.49999949999997284
        },
        {
          "name": "A#3",
          "midi": 58,
          "time": 233.33310000000208,
          "velocity": 1,
          "duration": 0.16666649999999095
        },
        {
          "name": "G3",
          "midi": 55,
          "time": 233.33310000000208,
          "velocity": 1,
          "duration": 0.16666649999999095
        },
        {
          "name": "D#4",
          "midi": 63,
          "time": 233.49976650000207,
          "velocity": 1,
          "duration": 0.16666649999999095
        },
        {
          "name": "A#3",
          "midi": 58,
          "time": 233.66643300000206,
          "velocity": 1,
          "duration": 0.16666649999999095
        },
        {
          "name": "G3",
          "midi": 55,
          "time": 233.66643300000206,
          "velocity": 1,
          "duration": 0.16666649999999095
        },
        {
          "name": "D#4",
          "midi": 63,
          "time": 233.83309950000205,
          "velocity": 1,
          "duration": 0.16666649999999095
        },
        {
          "name": "G4",
          "midi": 67,
          "time": 233.83309950000205,
          "velocity": 1,
          "duration": 0.16666649999999095
        },
        {
          "name": "D#4",
          "midi": 63,
          "time": 233.99976600000204,
          "velocity": 1,
          "duration": 0.3333329999999819
        },
        {
          "name": "A#3",
          "midi": 58,
          "time": 233.99976600000204,
          "velocity": 1,
          "duration": 0.16666649999999095
        },
        {
          "name": "G3",
          "midi": 55,
          "time": 233.99976600000204,
          "velocity": 1,
          "duration": 0.16666649999999095
        },
        {
          "name": "F3",
          "midi": 53,
          "time": 234.16643250000203,
          "velocity": 1,
          "duration": 0.16666649999999095
        },
        {
          "name": "D#3",
          "midi": 51,
          "time": 234.16643250000203,
          "velocity": 1,
          "duration": 0.16666649999999095
        },
        {
          "name": "G3",
          "midi": 55,
          "time": 234.33309900000202,
          "velocity": 1,
          "duration": 0.16666649999999095
        },
        {
          "name": "A#3",
          "midi": 58,
          "time": 234.33309900000202,
          "velocity": 1,
          "duration": 0.16666649999999095
        },
        {
          "name": "A#4",
          "midi": 70,
          "time": 234.33309900000202,
          "velocity": 1,
          "duration": 0.49999949999997284
        },
        {
          "name": "D#3",
          "midi": 51,
          "time": 234.33309900000202,
          "velocity": 1,
          "duration": 0.16666649999999095
        },
        {
          "name": "C#3",
          "midi": 49,
          "time": 234.499765500002,
          "velocity": 1,
          "duration": 0.16666649999999095
        },
        {
          "name": "D#4",
          "midi": 63,
          "time": 234.499765500002,
          "velocity": 1,
          "duration": 0.16666649999999095
        },
        {
          "name": "D#3",
          "midi": 51,
          "time": 234.499765500002,
          "velocity": 1,
          "duration": 0.16666649999999095
        },
        {
          "name": "G3",
          "midi": 55,
          "time": 234.666432000002,
          "velocity": 1,
          "duration": 0.16666649999999095
        },
        {
          "name": "A#3",
          "midi": 58,
          "time": 234.666432000002,
          "velocity": 1,
          "duration": 0.16666649999999095
        },
        {
          "name": "C3",
          "midi": 48,
          "time": 234.666432000002,
          "velocity": 1,
          "duration": 0.16666649999999095
        },
        {
          "name": "A#2",
          "midi": 46,
          "time": 234.833098500002,
          "velocity": 1,
          "duration": 0.16666649999999095
        },
        {
          "name": "C#4",
          "midi": 61,
          "time": 234.833098500002,
          "velocity": 1,
          "duration": 0.16666649999999095
        },
        {
          "name": "D#4",
          "midi": 63,
          "time": 234.833098500002,
          "velocity": 1,
          "duration": 0.16666649999999095
        },
        {
          "name": "D#3",
          "midi": 51,
          "time": 234.833098500002,
          "velocity": 1,
          "duration": 0.16666649999999095
        },
        {
          "name": "G#3",
          "midi": 56,
          "time": 234.999765000002,
          "velocity": 1,
          "duration": 0.3333329999999819
        },
        {
          "name": "C4",
          "midi": 60,
          "time": 234.999765000002,
          "velocity": 1,
          "duration": 0.16666649999999095
        },
        {
          "name": "G#2",
          "midi": 44,
          "time": 234.999765000002,
          "velocity": 1,
          "duration": 0.3333329999999819
        },
        {
          "name": "C5",
          "midi": 72,
          "time": 235.16643150000198,
          "velocity": 1,
          "duration": 0.16666649999999095
        },
        {
          "name": "C4",
          "midi": 60,
          "time": 235.16643150000198,
          "velocity": 1,
          "duration": 0.16666649999999095
        },
        {
          "name": "C#4",
          "midi": 61,
          "time": 235.33309800000197,
          "velocity": 1,
          "duration": 0.49999949999997284
        },
        {
          "name": "G#4",
          "midi": 68,
          "time": 235.33309800000197,
          "velocity": 1,
          "duration": 0.16666649999999095
        },
        {
          "name": "D#4",
          "midi": 63,
          "time": 235.33309800000197,
          "velocity": 1,
          "duration": 0.16666649999999095
        },
        {
          "name": "C4",
          "midi": 60,
          "time": 235.49976450000196,
          "velocity": 1,
          "duration": 0.16666649999999095
        },
        {
          "name": "C5",
          "midi": 72,
          "time": 235.49976450000196,
          "velocity": 1,
          "duration": 0.16666649999999095
        },
        {
          "name": "G#4",
          "midi": 68,
          "time": 235.66643100000195,
          "velocity": 1,
          "duration": 0.16666649999999095
        },
        {
          "name": "D#4",
          "midi": 63,
          "time": 235.66643100000195,
          "velocity": 1,
          "duration": 0.16666649999999095
        },
        {
          "name": "C4",
          "midi": 60,
          "time": 235.83309750000194,
          "velocity": 1,
          "duration": 0.16666649999999095
        },
        {
          "name": "C5",
          "midi": 72,
          "time": 235.83309750000194,
          "velocity": 1,
          "duration": 0.16666649999999095
        },
        {
          "name": "C3",
          "midi": 48,
          "time": 235.99976400000193,
          "velocity": 1,
          "duration": 1.1666654999999366
        },
        {
          "name": "F4",
          "midi": 65,
          "time": 235.99976400000193,
          "velocity": 1,
          "duration": 0.16666649999999095
        },
        {
          "name": "G#4",
          "midi": 68,
          "time": 235.99976400000193,
          "velocity": 1,
          "duration": 0.16666649999999095
        },
        {
          "name": "B3",
          "midi": 59,
          "time": 235.99976400000193,
          "velocity": 1,
          "duration": 0.3333329999999819
        },
        {
          "name": "C5",
          "midi": 72,
          "time": 236.16643050000192,
          "velocity": 1,
          "duration": 0.16666649999999095
        },
        {
          "name": "C4",
          "midi": 60,
          "time": 236.16643050000192,
          "velocity": 1,
          "duration": 0.16666649999999095
        },
        {
          "name": "C4",
          "midi": 60,
          "time": 236.3330970000019,
          "velocity": 1,
          "duration": 0.49999949999997284
        },
        {
          "name": "G#4",
          "midi": 68,
          "time": 236.3330970000019,
          "velocity": 1,
          "duration": 0.16666649999999095
        },
        {
          "name": "F4",
          "midi": 65,
          "time": 236.3330970000019,
          "velocity": 1,
          "duration": 0.16666649999999095
        },
        {
          "name": "C5",
          "midi": 72,
          "time": 236.4997635000019,
          "velocity": 1,
          "duration": 0.16666649999999095
        },
        {
          "name": "G#4",
          "midi": 68,
          "time": 236.6664300000019,
          "velocity": 1,
          "duration": 0.16666649999999095
        },
        {
          "name": "F4",
          "midi": 65,
          "time": 236.6664300000019,
          "velocity": 1,
          "duration": 0.16666649999999095
        },
        {
          "name": "C4",
          "midi": 60,
          "time": 236.8330965000019,
          "velocity": 1,
          "duration": 0.16666649999999095
        },
        {
          "name": "C5",
          "midi": 72,
          "time": 236.8330965000019,
          "velocity": 1,
          "duration": 0.16666649999999095
        },
        {
          "name": "F3",
          "midi": 53,
          "time": 236.8330965000019,
          "velocity": 1,
          "duration": 0.16666649999999095
        },
        {
          "name": "E3",
          "midi": 52,
          "time": 236.99976300000188,
          "velocity": 1,
          "duration": 0.3333329999999819
        },
        {
          "name": "A#4",
          "midi": 70,
          "time": 236.99976300000188,
          "velocity": 1,
          "duration": 0.16666649999999095
        },
        {
          "name": "G4",
          "midi": 67,
          "time": 236.99976300000188,
          "velocity": 1,
          "duration": 0.16666649999999095
        },
        {
          "name": "C5",
          "midi": 72,
          "time": 237.16642950000187,
          "velocity": 1,
          "duration": 0.16666649999999095
        },
        {
          "name": "C4",
          "midi": 60,
          "time": 237.16642950000187,
          "velocity": 1,
          "duration": 0.16666649999999095
        },
        {
          "name": "D3",
          "midi": 50,
          "time": 237.16642950000187,
          "velocity": 1,
          "duration": 0.16666649999999095
        },
        {
          "name": "A#3",
          "midi": 58,
          "time": 237.33309600000186,
          "velocity": 1,
          "duration": 0.49999949999997284
        },
        {
          "name": "G4",
          "midi": 67,
          "time": 237.33309600000186,
          "velocity": 1,
          "duration": 0.16666649999999095
        },
        {
          "name": "E4",
          "midi": 64,
          "time": 237.33309600000186,
          "velocity": 1,
          "duration": 0.16666649999999095
        },
        {
          "name": "E3",
          "midi": 52,
          "time": 237.33309600000186,
          "velocity": 1,
          "duration": 0.16666649999999095
        },
        {
          "name": "F3",
          "midi": 53,
          "time": 237.49976250000185,
          "velocity": 1,
          "duration": 0.16666649999999095
        },
        {
          "name": "C4",
          "midi": 60,
          "time": 237.49976250000185,
          "velocity": 1,
          "duration": 0.16666649999999095
        },
        {
          "name": "C5",
          "midi": 72,
          "time": 237.49976250000185,
          "velocity": 1,
          "duration": 0.16666649999999095
        },
        {
          "name": "G4",
          "midi": 67,
          "time": 237.66642900000184,
          "velocity": 1,
          "duration": 0.16666649999999095
        },
        {
          "name": "E4",
          "midi": 64,
          "time": 237.66642900000184,
          "velocity": 1,
          "duration": 0.16666649999999095
        },
        {
          "name": "G3",
          "midi": 55,
          "time": 237.66642900000184,
          "velocity": 1,
          "duration": 0.16666649999999095
        },
        {
          "name": "G3",
          "midi": 55,
          "time": 237.83309550000183,
          "velocity": 1,
          "duration": 0.16666649999999095
        },
        {
          "name": "C5",
          "midi": 72,
          "time": 237.83309550000183,
          "velocity": 1,
          "duration": 0.16666649999999095
        },
        {
          "name": "C4",
          "midi": 60,
          "time": 237.83309550000183,
          "velocity": 1,
          "duration": 0.16666649999999095
        },
        {
          "name": "G#3",
          "midi": 56,
          "time": 237.83309550000183,
          "velocity": 1,
          "duration": 0.16666649999999095
        },
        {
          "name": "E3",
          "midi": 52,
          "time": 237.99976200000182,
          "velocity": 1,
          "duration": 0.3333329999999819
        },
        {
          "name": "A#4",
          "midi": 70,
          "time": 237.99976200000182,
          "velocity": 1,
          "duration": 0.16666649999999095
        },
        {
          "name": "G4",
          "midi": 67,
          "time": 237.99976200000182,
          "velocity": 1,
          "duration": 0.16666649999999095
        },
        {
          "name": "A#3",
          "midi": 58,
          "time": 237.99976200000182,
          "velocity": 1,
          "duration": 0.3333329999999819
        },
        {
          "name": "C4",
          "midi": 60,
          "time": 238.1664285000018,
          "velocity": 1,
          "duration": 0.16666649999999095
        },
        {
          "name": "C5",
          "midi": 72,
          "time": 238.1664285000018,
          "velocity": 1,
          "duration": 0.16666649999999095
        },
        {
          "name": "G3",
          "midi": 55,
          "time": 238.3330950000018,
          "velocity": 1,
          "duration": 0.49999949999997284
        },
        {
          "name": "C5",
          "midi": 72,
          "time": 238.3330950000018,
          "velocity": 1,
          "duration": 0.16666649999999095
        },
        {
          "name": "C4",
          "midi": 60,
          "time": 238.3330950000018,
          "velocity": 1,
          "duration": 0.16666649999999095
        },
        {
          "name": "G#3",
          "midi": 56,
          "time": 238.3330950000018,
          "velocity": 1,
          "duration": 0.16666649999999095
        },
        {
          "name": "C5",
          "midi": 72,
          "time": 238.4997615000018,
          "velocity": 1,
          "duration": 0.16666649999999095
        },
        {
          "name": "C4",
          "midi": 60,
          "time": 238.4997615000018,
          "velocity": 1,
          "duration": 0.16666649999999095
        },
        {
          "name": "C5",
          "midi": 72,
          "time": 238.6664280000018,
          "velocity": 1,
          "duration": 0.16666649999999095
        },
        {
          "name": "C4",
          "midi": 60,
          "time": 238.6664280000018,
          "velocity": 1,
          "duration": 0.16666649999999095
        },
        {
          "name": "F3",
          "midi": 53,
          "time": 238.6664280000018,
          "velocity": 1,
          "duration": 0.16666649999999095
        },
        {
          "name": "E3",
          "midi": 52,
          "time": 238.83309450000178,
          "velocity": 1,
          "duration": 0.16666649999999095
        },
        {
          "name": "C4",
          "midi": 60,
          "time": 238.83309450000178,
          "velocity": 1,
          "duration": 0.16666649999999095
        },
        {
          "name": "C5",
          "midi": 72,
          "time": 238.83309450000178,
          "velocity": 1,
          "duration": 0.16666649999999095
        },
        {
          "name": "C3",
          "midi": 48,
          "time": 238.83309450000178,
          "velocity": 1,
          "duration": 0.16666649999999095
        },
        {
          "name": "F3",
          "midi": 53,
          "time": 238.99976100000177,
          "velocity": 1,
          "duration": 0.3333330000000103
        },
        {
          "name": "C5",
          "midi": 72,
          "time": 238.99976100000177,
          "velocity": 1,
          "duration": 0.3333330000000103
        },
        {
          "name": "C4",
          "midi": 60,
          "time": 238.99976100000177,
          "velocity": 1,
          "duration": 0.3333330000000103
        },
        {
          "name": "G3",
          "midi": 55,
          "time": 239.24976075000177,
          "velocity": 1,
          "duration": 0.08333325000000968
        },
        {
          "name": "G#3",
          "midi": 56,
          "time": 239.33309400000178,
          "velocity": 1,
          "duration": 0.16666649999999095
        },
        {
          "name": "F4",
          "midi": 65,
          "time": 239.33309400000178,
          "velocity": 1,
          "duration": 0.49999949999997284
        },
        {
          "name": "F3",
          "midi": 53,
          "time": 239.49976050000177,
          "velocity": 1,
          "duration": 0.16666649999999095
        },
        {
          "name": "C#3",
          "midi": 49,
          "time": 239.66642700000176,
          "velocity": 1,
          "duration": 0.16666649999999095
        },
        {
          "name": "C3",
          "midi": 48,
          "time": 239.83309350000175,
          "velocity": 1,
          "duration": 0.16666649999999095
        },
        {
          "name": "G#3",
          "midi": 56,
          "time": 239.83309350000175,
          "velocity": 1,
          "duration": 0.16666649999999095
        },
        {
          "name": "B2",
          "midi": 47,
          "time": 239.99976000000174,
          "velocity": 1,
          "duration": 0.16666649999999095
        },
        {
          "name": "G3",
          "midi": 55,
          "time": 239.99976000000174,
          "velocity": 1,
          "duration": 0.3333329999999819
        },
        {
          "name": "G2",
          "midi": 43,
          "time": 240.16642650000173,
          "velocity": 1,
          "duration": 0.05555549999999698
        },
        {
          "name": "A2",
          "midi": 45,
          "time": 240.22198200000173,
          "velocity": 1,
          "duration": 0.05555549999999698
        },
        {
          "name": "B2",
          "midi": 47,
          "time": 240.27753750000173,
          "velocity": 1,
          "duration": 0.05555549999999698
        },
        {
          "name": "C3",
          "midi": 48,
          "time": 240.33309300000172,
          "velocity": 1,
          "duration": 0.16666649999999095
        },
        {
          "name": "D#4",
          "midi": 63,
          "time": 240.33309300000172,
          "velocity": 1,
          "duration": 0.49999949999997284
        },
        {
          "name": "D3",
          "midi": 50,
          "time": 240.49975950000172,
          "velocity": 1,
          "duration": 0.16666649999999095
        },
        {
          "name": "C3",
          "midi": 48,
          "time": 240.6664260000017,
          "velocity": 1,
          "duration": 0.16666649999999095
        },
        {
          "name": "A#2",
          "midi": 46,
          "time": 240.8330925000017,
          "velocity": 1,
          "duration": 0.16666649999999095
        },
        {
          "name": "D#4",
          "midi": 63,
          "time": 240.8330925000017,
          "velocity": 1,
          "duration": 0.16666649999999095
        },
        {
          "name": "D#4",
          "midi": 63,
          "time": 240.9997590000017,
          "velocity": 1,
          "duration": 0.08333325000000968
        },
        {
          "name": "F4",
          "midi": 65,
          "time": 240.9997590000017,
          "velocity": 1,
          "duration": 0.33333300000003874
        },
        {
          "name": "A2",
          "midi": 45,
          "time": 240.9997590000017,
          "velocity": 1,
          "duration": 0.16666650000001937
        },
        {
          "name": "C4",
          "midi": 60,
          "time": 241.0830922500017,
          "velocity": 1,
          "duration": 0.08333325000000968
        },
        {
          "name": "G3",
          "midi": 55,
          "time": 241.1664255000017,
          "velocity": 1,
          "duration": 0.08333325000000968
        },
        {
          "name": "B3",
          "midi": 59,
          "time": 241.1664255000017,
          "velocity": 1,
          "duration": 0.08333325000000968
        },
        {
          "name": "A3",
          "midi": 57,
          "time": 241.24975875000172,
          "velocity": 1,
          "duration": 0.08333325000000968
        },
        {
          "name": "C4",
          "midi": 60,
          "time": 241.24975875000172,
          "velocity": 1,
          "duration": 0.08333325000000968
        },
        {
          "name": "D4",
          "midi": 62,
          "time": 241.33309200000173,
          "velocity": 1,
          "duration": 0.16666649999999095
        },
        {
          "name": "D5",
          "midi": 74,
          "time": 241.33309200000173,
          "velocity": 1,
          "duration": 0.49999949999997284
        },
        {
          "name": "B3",
          "midi": 59,
          "time": 241.33309200000173,
          "velocity": 1,
          "duration": 0.16666649999999095
        },
        {
          "name": "G3",
          "midi": 55,
          "time": 241.49975850000172,
          "velocity": 1,
          "duration": 0.16666649999999095
        },
        {
          "name": "A#3",
          "midi": 58,
          "time": 241.49975850000172,
          "velocity": 1,
          "duration": 0.16666649999999095
        },
        {
          "name": "A3",
          "midi": 57,
          "time": 241.6664250000017,
          "velocity": 1,
          "duration": 0.16666649999999095
        },
        {
          "name": "C4",
          "midi": 60,
          "time": 241.6664250000017,
          "velocity": 1,
          "duration": 0.16666649999999095
        },
        {
          "name": "B3",
          "midi": 59,
          "time": 241.8330915000017,
          "velocity": 1,
          "duration": 0.16666649999999095
        },
        {
          "name": "F4",
          "midi": 65,
          "time": 241.8330915000017,
          "velocity": 1,
          "duration": 0.16666649999999095
        },
        {
          "name": "D4",
          "midi": 62,
          "time": 241.8330915000017,
          "velocity": 1,
          "duration": 0.16666649999999095
        },
        {
          "name": "C4",
          "midi": 60,
          "time": 241.9997580000017,
          "velocity": 1,
          "duration": 0.16666649999999095
        },
        {
          "name": "D#4",
          "midi": 63,
          "time": 241.9997580000017,
          "velocity": 1,
          "duration": 0.3333330000000103
        },
        {
          "name": "C4",
          "midi": 60,
          "time": 242.16642450000168,
          "velocity": 1,
          "duration": 0.08333325000000968
        },
        {
          "name": "D4",
          "midi": 62,
          "time": 242.2497577500017,
          "velocity": 1,
          "duration": 0.08333325000000968
        },
        {
          "name": "B3",
          "midi": 59,
          "time": 242.2497577500017,
          "velocity": 1,
          "duration": 0.08333325000000968
        },
        {
          "name": "C4",
          "midi": 60,
          "time": 242.3330910000017,
          "velocity": 1,
          "duration": 0.16666649999999095
        },
        {
          "name": "C5",
          "midi": 72,
          "time": 242.3330910000017,
          "velocity": 1,
          "duration": 0.49999949999997284
        },
        {
          "name": "D#4",
          "midi": 63,
          "time": 242.3330910000017,
          "velocity": 1,
          "duration": 0.16666649999999095
        },
        {
          "name": "D4",
          "midi": 62,
          "time": 242.4997575000017,
          "velocity": 1,
          "duration": 0.16666649999999095
        },
        {
          "name": "F#4",
          "midi": 66,
          "time": 242.4997575000017,
          "velocity": 1,
          "duration": 0.16666649999999095
        },
        {
          "name": "D#4",
          "midi": 63,
          "time": 242.66642400000168,
          "velocity": 1,
          "duration": 0.16666649999999095
        },
        {
          "name": "G4",
          "midi": 67,
          "time": 242.66642400000168,
          "velocity": 1,
          "duration": 0.16666649999999095
        },
        {
          "name": "F#4",
          "midi": 66,
          "time": 242.83309050000167,
          "velocity": 1,
          "duration": 0.16666649999999095
        },
        {
          "name": "D#4",
          "midi": 63,
          "time": 242.83309050000167,
          "velocity": 1,
          "duration": 0.16666649999999095
        },
        {
          "name": "A4",
          "midi": 69,
          "time": 242.83309050000167,
          "velocity": 1,
          "duration": 0.16666649999999095
        },
        {
          "name": "G4",
          "midi": 67,
          "time": 242.99975700000167,
          "velocity": 1,
          "duration": 0.3333330000000103
        },
        {
          "name": "A#4",
          "midi": 70,
          "time": 242.99975700000167,
          "velocity": 1,
          "duration": 0.3333330000000103
        },
        {
          "name": "D4",
          "midi": 62,
          "time": 242.99975700000167,
          "velocity": 1,
          "duration": 0.16666649999999095
        },
        {
          "name": "A4",
          "midi": 69,
          "time": 243.24975675000167,
          "velocity": 1,
          "duration": 0.08333325000000968
        },
        {
          "name": "G5",
          "midi": 79,
          "time": 243.33309000000168,
          "velocity": 1,
          "duration": 0.49999949999997284
        },
        {
          "name": "A#4",
          "midi": 70,
          "time": 243.33309000000168,
          "velocity": 1,
          "duration": 0.16666649999999095
        },
        {
          "name": "G4",
          "midi": 67,
          "time": 243.49975650000167,
          "velocity": 1,
          "duration": 0.16666649999999095
        },
        {
          "name": "D#4",
          "midi": 63,
          "time": 243.66642300000166,
          "velocity": 1,
          "duration": 0.16666649999999095
        },
        {
          "name": "A#4",
          "midi": 70,
          "time": 243.83308950000165,
          "velocity": 1,
          "duration": 0.16666649999999095
        },
        {
          "name": "D4",
          "midi": 62,
          "time": 243.83308950000165,
          "velocity": 1,
          "duration": 0.16666649999999095
        },
        {
          "name": "C4",
          "midi": 60,
          "time": 243.99975600000164,
          "velocity": 1,
          "duration": 0.16666649999999095
        },
        {
          "name": "A4",
          "midi": 69,
          "time": 243.99975600000164,
          "velocity": 1,
          "duration": 0.3333330000000103
        },
        {
          "name": "F#4",
          "midi": 66,
          "time": 244.16642250000163,
          "velocity": 1,
          "duration": 0.08333325000000968
        },
        {
          "name": "G4",
          "midi": 67,
          "time": 244.24975575000164,
          "velocity": 1,
          "duration": 0.08333325000000968
        },
        {
          "name": "F#5",
          "midi": 78,
          "time": 244.33308900000165,
          "velocity": 1,
          "duration": 0.49999949999997284
        },
        {
          "name": "A4",
          "midi": 69,
          "time": 244.33308900000165,
          "velocity": 1,
          "duration": 0.16666649999999095
        },
        {
          "name": "F#4",
          "midi": 66,
          "time": 244.49975550000164,
          "velocity": 1,
          "duration": 0.16666649999999095
        },
        {
          "name": "D4",
          "midi": 62,
          "time": 244.66642200000163,
          "velocity": 1,
          "duration": 0.16666649999999095
        },
        {
          "name": "D4",
          "midi": 62,
          "time": 244.83308850000162,
          "velocity": 1,
          "duration": 0.16666649999999095
        },
        {
          "name": "F5",
          "midi": 77,
          "time": 244.83308850000162,
          "velocity": 1,
          "duration": 0.16666649999999095
        },
        {
          "name": "C3",
          "midi": 48,
          "time": 244.83308850000162,
          "velocity": 1,
          "duration": 0.16666649999999095
        },
        {
          "name": "A#2",
          "midi": 46,
          "time": 244.9997550000016,
          "velocity": 1,
          "duration": 0.3333330000000103
        },
        {
          "name": "G5",
          "midi": 79,
          "time": 244.9997550000016,
          "velocity": 1,
          "duration": 0.16666649999999095
        },
        {
          "name": "D4",
          "midi": 62,
          "time": 244.9997550000016,
          "velocity": 1,
          "duration": 0.16666649999999095
        },
        {
          "name": "G5",
          "midi": 79,
          "time": 245.1664215000016,
          "velocity": 1,
          "duration": 0.08333325000000968
        },
        {
          "name": "G4",
          "midi": 67,
          "time": 245.1664215000016,
          "velocity": 1,
          "duration": 0.08333325000000968
        },
        {
          "name": "A5",
          "midi": 81,
          "time": 245.2497547500016,
          "velocity": 1,
          "duration": 0.08333325000000968
        },
        {
          "name": "A4",
          "midi": 69,
          "time": 245.2497547500016,
          "velocity": 1,
          "duration": 0.08333325000000968
        },
        {
          "name": "G3",
          "midi": 55,
          "time": 245.33308800000162,
          "velocity": 1,
          "duration": 0.49999949999997284
        },
        {
          "name": "A#5",
          "midi": 82,
          "time": 245.33308800000162,
          "velocity": 1,
          "duration": 0.16666649999999095
        },
        {
          "name": "A#4",
          "midi": 70,
          "time": 245.33308800000162,
          "velocity": 1,
          "duration": 0.16666649999999095
        },
        {
          "name": "D4",
          "midi": 62,
          "time": 245.33308800000162,
          "velocity": 1,
          "duration": 0.3333329999999819
        },
        {
          "name": "G4",
          "midi": 67,
          "time": 245.49975450000161,
          "velocity": 1,
          "duration": 0.16666649999999095
        },
        {
          "name": "G5",
          "midi": 79,
          "time": 245.49975450000161,
          "velocity": 1,
          "duration": 0.16666649999999095
        },
        {
          "name": "D#5",
          "midi": 75,
          "time": 245.6664210000016,
          "velocity": 1,
          "duration": 0.16666649999999095
        },
        {
          "name": "D#4",
          "midi": 63,
          "time": 245.6664210000016,
          "velocity": 1,
          "duration": 0.16666649999999095
        },
        {
          "name": "G4",
          "midi": 67,
          "time": 245.6664210000016,
          "velocity": 1,
          "duration": 0.49999949999997284
        },
        {
          "name": "A#2",
          "midi": 46,
          "time": 245.8330875000016,
          "velocity": 1,
          "duration": 0.16666649999999095
        },
        {
          "name": "D5",
          "midi": 74,
          "time": 245.8330875000016,
          "velocity": 1,
          "duration": 0.16666649999999095
        },
        {
          "name": "D4",
          "midi": 62,
          "time": 245.8330875000016,
          "velocity": 1,
          "duration": 0.16666649999999095
        },
        {
          "name": "A2",
          "midi": 45,
          "time": 245.9997540000016,
          "velocity": 1,
          "duration": 0.16666649999999095
        },
        {
          "name": "C5",
          "midi": 72,
          "time": 245.9997540000016,
          "velocity": 1,
          "duration": 0.16666649999999095
        },
        {
          "name": "C4",
          "midi": 60,
          "time": 245.9997540000016,
          "velocity": 1,
          "duration": 0.16666649999999095
        },
        {
          "name": "C4",
          "midi": 60,
          "time": 246.16642050000158,
          "velocity": 1,
          "duration": 0.16666649999999095
        },
        {
          "name": "A4",
          "midi": 69,
          "time": 246.16642050000158,
          "velocity": 1,
          "duration": 0.16666649999999095
        },
        {
          "name": "A5",
          "midi": 81,
          "time": 246.16642050000158,
          "velocity": 1,
          "duration": 0.16666649999999095
        },
        {
          "name": "F#3",
          "midi": 54,
          "time": 246.16642050000158,
          "velocity": 1,
          "duration": 0.16666649999999095
        },
        {
          "name": "G2",
          "midi": 43,
          "time": 246.33308700000157,
          "velocity": 1,
          "duration": 0.16666649999999095
        },
        {
          "name": "A#4",
          "midi": 70,
          "time": 246.33308700000157,
          "velocity": 1,
          "duration": 0.16666649999999095
        },
        {
          "name": "A#3",
          "midi": 58,
          "time": 246.33308700000157,
          "velocity": 1,
          "duration": 0.16666649999999095
        },
        {
          "name": "G4",
          "midi": 67,
          "time": 246.33308700000157,
          "velocity": 1,
          "duration": 0.16666649999999095
        },
        {
          "name": "G3",
          "midi": 55,
          "time": 246.49975350000156,
          "velocity": 1,
          "duration": 0.16666649999999095
        },
        {
          "name": "A#5",
          "midi": 82,
          "time": 246.49975350000156,
          "velocity": 1,
          "duration": 0.16666649999999095
        },
        {
          "name": "A#4",
          "midi": 70,
          "time": 246.49975350000156,
          "velocity": 1,
          "duration": 0.16666649999999095
        },
        {
          "name": "G3",
          "midi": 55,
          "time": 246.66642000000155,
          "velocity": 1,
          "duration": 0.16666649999999095
        },
        {
          "name": "A#4",
          "midi": 70,
          "time": 246.66642000000155,
          "velocity": 1,
          "duration": 0.16666649999999095
        },
        {
          "name": "A#5",
          "midi": 82,
          "time": 246.66642000000155,
          "velocity": 1,
          "duration": 0.16666649999999095
        },
        {
          "name": "D#3",
          "midi": 51,
          "time": 246.66642000000155,
          "velocity": 1,
          "duration": 0.16666649999999095
        },
        {
          "name": "D3",
          "midi": 50,
          "time": 246.83308650000154,
          "velocity": 1,
          "duration": 0.16666649999999095
        },
        {
          "name": "A#5",
          "midi": 82,
          "time": 246.83308650000154,
          "velocity": 1,
          "duration": 0.16666649999999095
        },
        {
          "name": "G5",
          "midi": 79,
          "time": 246.83308650000154,
          "velocity": 1,
          "duration": 0.16666649999999095
        },
        {
          "name": "F3",
          "midi": 53,
          "time": 246.83308650000154,
          "velocity": 1,
          "duration": 0.16666649999999095
        },
        {
          "name": "E3",
          "midi": 52,
          "time": 246.99975300000153,
          "velocity": 1,
          "duration": 0.3333330000000103
        },
        {
          "name": "G5",
          "midi": 79,
          "time": 246.99975300000153,
          "velocity": 1,
          "duration": 0.3333330000000103
        },
        {
          "name": "A#5",
          "midi": 82,
          "time": 246.99975300000153,
          "velocity": 1,
          "duration": 0.3333330000000103
        },
        {
          "name": "C#3",
          "midi": 49,
          "time": 246.99975300000153,
          "velocity": 1,
          "duration": 0.3333330000000103
        },
        {
          "name": "C#4",
          "midi": 61,
          "time": 247.33308600000154,
          "velocity": 1,
          "duration": 0.49999950000000126
        },
        {
          "name": "A#4",
          "midi": 70,
          "time": 247.33308600000154,
          "velocity": 1,
          "duration": 0.49999950000000126
        },
        {
          "name": "G4",
          "midi": 67,
          "time": 247.33308600000154,
          "velocity": 1,
          "duration": 0.49999950000000126
        },
        {
          "name": "E4",
          "midi": 64,
          "time": 247.33308600000154,
          "velocity": 1,
          "duration": 0.49999950000000126
        },
        {
          "name": "E4",
          "midi": 64,
          "time": 247.83308550000154,
          "velocity": 1,
          "duration": 0.16666649999999095
        },
        {
          "name": "G4",
          "midi": 67,
          "time": 247.83308550000154,
          "velocity": 1,
          "duration": 0.16666649999999095
        },
        {
          "name": "A#4",
          "midi": 70,
          "time": 247.83308550000154,
          "velocity": 1,
          "duration": 0.16666649999999095
        },
        {
          "name": "C#4",
          "midi": 61,
          "time": 247.83308550000154,
          "velocity": 1,
          "duration": 0.16666649999999095
        },
        {
          "name": "D4",
          "midi": 62,
          "time": 247.99975200000154,
          "velocity": 1,
          "duration": 0.3333330000000103
        },
        {
          "name": "D3",
          "midi": 50,
          "time": 247.99975200000154,
          "velocity": 1,
          "duration": 0.3333330000000103
        },
        {
          "name": "A4",
          "midi": 69,
          "time": 247.99975200000154,
          "velocity": 1,
          "duration": 0.3333330000000103
        },
        {
          "name": "F4",
          "midi": 65,
          "time": 247.99975200000154,
          "velocity": 1,
          "duration": 0.3333330000000103
        },
        {
          "name": "A5",
          "midi": 81,
          "time": 248.33308500000155,
          "velocity": 1,
          "duration": 0.49999950000000126
        },
        {
          "name": "F5",
          "midi": 77,
          "time": 248.33308500000155,
          "velocity": 1,
          "duration": 0.49999950000000126
        },
        {
          "name": "D3",
          "midi": 50,
          "time": 248.49975150000154,
          "velocity": 1,
          "duration": 0.08333325000000968
        },
        {
          "name": "F3",
          "midi": 53,
          "time": 248.49975150000154,
          "velocity": 1,
          "duration": 0.08333325000000968
        },
        {
          "name": "C#3",
          "midi": 49,
          "time": 248.58308475000155,
          "velocity": 1,
          "duration": 0.08333325000000968
        },
        {
          "name": "E3",
          "midi": 52,
          "time": 248.58308475000155,
          "velocity": 1,
          "duration": 0.08333325000000968
        },
        {
          "name": "F3",
          "midi": 53,
          "time": 248.66641800000156,
          "velocity": 1,
          "duration": 0.16666649999999095
        },
        {
          "name": "D3",
          "midi": 50,
          "time": 248.66641800000156,
          "velocity": 1,
          "duration": 0.16666649999999095
        },
        {
          "name": "C3",
          "midi": 48,
          "time": 248.83308450000155,
          "velocity": 1,
          "duration": 0.16666649999999095
        },
        {
          "name": "A5",
          "midi": 81,
          "time": 248.83308450000155,
          "velocity": 1,
          "duration": 0.16666649999999095
        },
        {
          "name": "F5",
          "midi": 77,
          "time": 248.83308450000155,
          "velocity": 1,
          "duration": 0.16666649999999095
        },
        {
          "name": "E3",
          "midi": 52,
          "time": 248.83308450000155,
          "velocity": 1,
          "duration": 0.16666649999999095
        },
        {
          "name": "B2",
          "midi": 47,
          "time": 248.99975100000154,
          "velocity": 1,
          "duration": 0.3333330000000103
        },
        {
          "name": "G5",
          "midi": 79,
          "time": 248.99975100000154,
          "velocity": 1,
          "duration": 0.3333330000000103
        },
        {
          "name": "F5",
          "midi": 77,
          "time": 248.99975100000154,
          "velocity": 1,
          "duration": 0.3333330000000103
        },
        {
          "name": "D3",
          "midi": 50,
          "time": 248.99975100000154,
          "velocity": 1,
          "duration": 0.3333330000000103
        },
        {
          "name": "G4",
          "midi": 67,
          "time": 249.33308400000155,
          "velocity": 1,
          "duration": 0.49999950000000126
        },
        {
          "name": "E4",
          "midi": 64,
          "time": 249.33308400000155,
          "velocity": 1,
          "duration": 0.49999950000000126
        },
        {
          "name": "E3",
          "midi": 52,
          "time": 249.49975050000154,
          "velocity": 1,
          "duration": 0.08333325000000968
        },
        {
          "name": "C#3",
          "midi": 49,
          "time": 249.49975050000154,
          "velocity": 1,
          "duration": 0.08333325000000968
        },
        {
          "name": "B2",
          "midi": 47,
          "time": 249.58308375000155,
          "velocity": 1,
          "duration": 0.08333325000000968
        },
        {
          "name": "E3",
          "midi": 52,
          "time": 249.58308375000155,
          "velocity": 1,
          "duration": 0.08333325000000968
        },
        {
          "name": "C#3",
          "midi": 49,
          "time": 249.66641700000156,
          "velocity": 1,
          "duration": 0.16666649999999095
        },
        {
          "name": "E3",
          "midi": 52,
          "time": 249.66641700000156,
          "velocity": 1,
          "duration": 0.16666649999999095
        },
        {
          "name": "A2",
          "midi": 45,
          "time": 249.83308350000155,
          "velocity": 1,
          "duration": 0.16666649999999095
        },
        {
          "name": "G4",
          "midi": 67,
          "time": 249.83308350000155,
          "velocity": 1,
          "duration": 0.16666649999999095
        },
        {
          "name": "E4",
          "midi": 64,
          "time": 249.83308350000155,
          "velocity": 1,
          "duration": 0.16666649999999095
        },
        {
          "name": "C#3",
          "midi": 49,
          "time": 249.83308350000155,
          "velocity": 1,
          "duration": 0.16666649999999095
        },
        {
          "name": "F3",
          "midi": 53,
          "time": 249.99975000000154,
          "velocity": 1,
          "duration": 0.16666649999999095
        },
        {
          "name": "D4",
          "midi": 62,
          "time": 249.99975000000154,
          "velocity": 1,
          "duration": 0.3333330000000103
        },
        {
          "name": "F4",
          "midi": 65,
          "time": 249.99975000000154,
          "velocity": 1,
          "duration": 0.3333330000000103
        },
        {
          "name": "D3",
          "midi": 50,
          "time": 249.99975000000154,
          "velocity": 1,
          "duration": 0.16666649999999095
        },
        {
          "name": "D3",
          "midi": 50,
          "time": 250.16641650000153,
          "velocity": 1,
          "duration": 0.08333325000000968
        },
        {
          "name": "A4",
          "midi": 69,
          "time": 250.16641650000153,
          "velocity": 1,
          "duration": 0.16666650000001937
        },
        {
          "name": "C#3",
          "midi": 49,
          "time": 250.24974975000154,
          "velocity": 1,
          "duration": 0.08333325000000968
        },
        {
          "name": "F4",
          "midi": 65,
          "time": 250.33308300000155,
          "velocity": 1,
          "duration": 0.16666649999999095
        },
        {
          "name": "D5",
          "midi": 74,
          "time": 250.33308300000155,
          "velocity": 1,
          "duration": 0.49999949999997284
        },
        {
          "name": "F5",
          "midi": 77,
          "time": 250.33308300000155,
          "velocity": 1,
          "duration": 0.49999949999997284
        },
        {
          "name": "D3",
          "midi": 50,
          "time": 250.33308300000155,
          "velocity": 1,
          "duration": 0.16666649999999095
        },
        {
          "name": "C3",
          "midi": 48,
          "time": 250.49974950000154,
          "velocity": 1,
          "duration": 0.16666649999999095
        },
        {
          "name": "E4",
          "midi": 64,
          "time": 250.49974950000154,
          "velocity": 1,
          "duration": 0.16666649999999095
        },
        {
          "name": "D4",
          "midi": 62,
          "time": 250.66641600000153,
          "velocity": 1,
          "duration": 0.16666649999999095
        },
        {
          "name": "A#2",
          "midi": 46,
          "time": 250.66641600000153,
          "velocity": 1,
          "duration": 0.16666649999999095
        },
        {
          "name": "A2",
          "midi": 45,
          "time": 250.83308250000152,
          "velocity": 1,
          "duration": 0.16666649999999095
        },
        {
          "name": "F5",
          "midi": 77,
          "time": 250.83308250000152,
          "velocity": 1,
          "duration": 0.16666649999999095
        },
        {
          "name": "D5",
          "midi": 74,
          "time": 250.83308250000152,
          "velocity": 1,
          "duration": 0.16666649999999095
        },
        {
          "name": "C4",
          "midi": 60,
          "time": 250.83308250000152,
          "velocity": 1,
          "duration": 0.16666649999999095
        },
        {
          "name": "G#2",
          "midi": 44,
          "time": 250.99974900000151,
          "velocity": 1,
          "duration": 0.3333330000000103
        },
        {
          "name": "F5",
          "midi": 77,
          "time": 250.99974900000151,
          "velocity": 1,
          "duration": 0.3333330000000103
        },
        {
          "name": "D5",
          "midi": 74,
          "time": 250.99974900000151,
          "velocity": 1,
          "duration": 0.3333330000000103
        },
        {
          "name": "B3",
          "midi": 59,
          "time": 250.99974900000151,
          "velocity": 1,
          "duration": 0.3333330000000103
        },
        {
          "name": "G#3",
          "midi": 56,
          "time": 251.33308200000153,
          "velocity": 1,
          "duration": 1.999998000000005
        },
        {
          "name": "B3",
          "midi": 59,
          "time": 251.33308200000153,
          "velocity": 1,
          "duration": 1.999998000000005
        },
        {
          "name": "F5",
          "midi": 77,
          "time": 251.33308200000153,
          "velocity": 1,
          "duration": 0.49999950000000126
        },
        {
          "name": "D3",
          "midi": 50,
          "time": 251.33308200000153,
          "velocity": 1,
          "duration": 1.999998000000005
        },
        {
          "name": "F4",
          "midi": 65,
          "time": 251.83308150000153,
          "velocity": 1,
          "duration": 0.16666649999999095
        },
        {
          "name": "F4",
          "midi": 65,
          "time": 251.99974800000152,
          "velocity": 1,
          "duration": 0.3333330000000103
        },
        {
          "name": "F5",
          "midi": 77,
          "time": 252.33308100000153,
          "velocity": 1,
          "duration": 0.49999950000000126
        },
        {
          "name": "F4",
          "midi": 65,
          "time": 252.83308050000153,
          "velocity": 1,
          "duration": 0.16666649999999095
        },
        {
          "name": "F4",
          "midi": 65,
          "time": 252.99974700000152,
          "velocity": 1,
          "duration": 0.3333330000000103
        },
        {
          "name": "F3",
          "midi": 53,
          "time": 253.33308000000153,
          "velocity": 1,
          "duration": 0.6666660000000206
        },
        {
          "name": "B3",
          "midi": 59,
          "time": 253.33308000000153,
          "velocity": 1,
          "duration": 0.6666660000000206
        },
        {
          "name": "G#4",
          "midi": 68,
          "time": 253.33308000000153,
          "velocity": 1,
          "duration": 0.6666660000000206
        },
        {
          "name": "F5",
          "midi": 77,
          "time": 253.33308000000153,
          "velocity": 1,
          "duration": 0.3333330000000103
        },
        {
          "name": "D3",
          "midi": 50,
          "time": 253.33308000000153,
          "velocity": 1,
          "duration": 0.6666660000000206
        },
        {
          "name": "B4",
          "midi": 71,
          "time": 253.66641300000154,
          "velocity": 1,
          "duration": 0.3333330000000103
        },
        {
          "name": "D3",
          "midi": 50,
          "time": 253.99974600000155,
          "velocity": 1,
          "duration": 0.6666660000000206
        },
        {
          "name": "G#5",
          "midi": 80,
          "time": 253.99974600000155,
          "velocity": 1,
          "duration": 0.3333330000000103
        },
        {
          "name": "G#4",
          "midi": 68,
          "time": 253.99974600000155,
          "velocity": 1,
          "duration": 0.6666660000000206
        },
        {
          "name": "B3",
          "midi": 59,
          "time": 253.99974600000155,
          "velocity": 1,
          "duration": 0.6666660000000206
        },
        {
          "name": "F3",
          "midi": 53,
          "time": 253.99974600000155,
          "velocity": 1,
          "duration": 0.6666660000000206
        },
        {
          "name": "B4",
          "midi": 71,
          "time": 254.33307900000156,
          "velocity": 1,
          "duration": 0.3333330000000103
        },
        {
          "name": "F3",
          "midi": 53,
          "time": 254.66641200000157,
          "velocity": 1,
          "duration": 0.6666659999999922
        },
        {
          "name": "B3",
          "midi": 59,
          "time": 254.66641200000157,
          "velocity": 1,
          "duration": 0.6666659999999922
        },
        {
          "name": "G#4",
          "midi": 68,
          "time": 254.66641200000157,
          "velocity": 1,
          "duration": 0.6666659999999922
        },
        {
          "name": "B5",
          "midi": 83,
          "time": 254.66641200000157,
          "velocity": 1,
          "duration": 0.6666659999999922
        },
        {
          "name": "D3",
          "midi": 50,
          "time": 254.66641200000157,
          "velocity": 1,
          "duration": 0.6666659999999922
        },
        {
          "name": "F3",
          "midi": 53,
          "time": 255.33307800000156,
          "velocity": 1,
          "duration": 0.6666660000000206
        },
        {
          "name": "B3",
          "midi": 59,
          "time": 255.33307800000156,
          "velocity": 1,
          "duration": 0.6666660000000206
        },
        {
          "name": "G#4",
          "midi": 68,
          "time": 255.33307800000156,
          "velocity": 1,
          "duration": 0.6666660000000206
        },
        {
          "name": "F5",
          "midi": 77,
          "time": 255.33307800000156,
          "velocity": 1,
          "duration": 0.3333330000000103
        },
        {
          "name": "D3",
          "midi": 50,
          "time": 255.33307800000156,
          "velocity": 1,
          "duration": 0.6666660000000206
        },
        {
          "name": "B4",
          "midi": 71,
          "time": 255.66641100000157,
          "velocity": 1,
          "duration": 0.3333330000000103
        },
        {
          "name": "F3",
          "midi": 53,
          "time": 255.99974400000158,
          "velocity": 1,
          "duration": 0.6666659999999922
        },
        {
          "name": "B3",
          "midi": 59,
          "time": 255.99974400000158,
          "velocity": 1,
          "duration": 0.6666659999999922
        },
        {
          "name": "G#4",
          "midi": 68,
          "time": 255.99974400000158,
          "velocity": 1,
          "duration": 0.6666659999999922
        },
        {
          "name": "G#5",
          "midi": 80,
          "time": 255.99974400000158,
          "velocity": 1,
          "duration": 0.3333330000000103
        },
        {
          "name": "D3",
          "midi": 50,
          "time": 255.99974400000158,
          "velocity": 1,
          "duration": 0.6666659999999922
        },
        {
          "name": "B4",
          "midi": 71,
          "time": 256.3330770000016,
          "velocity": 1,
          "duration": 0.3333329999999819
        },
        {
          "name": "D3",
          "midi": 50,
          "time": 256.6664100000016,
          "velocity": 1,
          "duration": 0.3333329999999819
        },
        {
          "name": "B5",
          "midi": 83,
          "time": 256.6664100000016,
          "velocity": 1,
          "duration": 0.3333329999999819
        },
        {
          "name": "G#4",
          "midi": 68,
          "time": 256.6664100000016,
          "velocity": 1,
          "duration": 0.3333329999999819
        },
        {
          "name": "B3",
          "midi": 59,
          "time": 256.6664100000016,
          "velocity": 1,
          "duration": 0.3333329999999819
        },
        {
          "name": "F3",
          "midi": 53,
          "time": 256.6664100000016,
          "velocity": 1,
          "duration": 0.3333329999999819
        },
        {
          "name": "E3",
          "midi": 52,
          "time": 256.99974300000156,
          "velocity": 1,
          "duration": 2.333330999999987
        },
        {
          "name": "C4",
          "midi": 60,
          "time": 256.99974300000156,
          "velocity": 1,
          "duration": 1.999998000000005
        },
        {
          "name": "A4",
          "midi": 69,
          "time": 256.99974300000156,
          "velocity": 1,
          "duration": 1.999998000000005
        },
        {
          "name": "E4",
          "midi": 64,
          "time": 256.99974300000156,
          "velocity": 1,
          "duration": 0.3333329999999819
        },
        {
          "name": "C2",
          "midi": 36,
          "time": 256.99974300000156,
          "velocity": 1,
          "duration": 0.3333329999999819
        },
        {
          "name": "C3",
          "midi": 48,
          "time": 256.99974300000156,
          "velocity": 1,
          "duration": 0.3333329999999819
        },
        {
          "name": "C3",
          "midi": 48,
          "time": 257.33307600000154,
          "velocity": 1,
          "duration": 1.999998000000005
        },
        {
          "name": "E5",
          "midi": 76,
          "time": 257.33307600000154,
          "velocity": 1,
          "duration": 0.49999950000000126
        },
        {
          "name": "E4",
          "midi": 64,
          "time": 257.83307550000154,
          "velocity": 1,
          "duration": 0.16666650000001937
        },
        {
          "name": "E4",
          "midi": 64,
          "time": 257.99974200000156,
          "velocity": 1,
          "duration": 0.3333329999999819
        },
        {
          "name": "E5",
          "midi": 76,
          "time": 258.33307500000154,
          "velocity": 1,
          "duration": 0.49999950000000126
        },
        {
          "name": "E4",
          "midi": 64,
          "time": 258.83307450000154,
          "velocity": 1,
          "duration": 0.16666650000001937
        },
        {
          "name": "C4",
          "midi": 60,
          "time": 258.99974100000156,
          "velocity": 1,
          "duration": 0.3333329999999819
        },
        {
          "name": "A4",
          "midi": 69,
          "time": 258.99974100000156,
          "velocity": 1,
          "duration": 0.3333329999999819
        },
        {
          "name": "E4",
          "midi": 64,
          "time": 258.99974100000156,
          "velocity": 1,
          "duration": 0.3333329999999819
        },
        {
          "name": "C3",
          "midi": 48,
          "time": 259.33307400000155,
          "velocity": 1,
          "duration": 0.6666659999999638
        },
        {
          "name": "E5",
          "midi": 76,
          "time": 259.33307400000155,
          "velocity": 1,
          "duration": 0.3333329999999819
        },
        {
          "name": "A4",
          "midi": 69,
          "time": 259.33307400000155,
          "velocity": 1,
          "duration": 0.6666659999999638
        },
        {
          "name": "C4",
          "midi": 60,
          "time": 259.33307400000155,
          "velocity": 1,
          "duration": 0.6666659999999638
        },
        {
          "name": "E3",
          "midi": 52,
          "time": 259.33307400000155,
          "velocity": 1,
          "duration": 0.6666659999999638
        },
        {
          "name": "C3",
          "midi": 48,
          "time": 259.9997400000015,
          "velocity": 1,
          "duration": 0.6666659999999638
        },
        {
          "name": "A5",
          "midi": 81,
          "time": 259.9997400000015,
          "velocity": 1,
          "duration": 0.3333329999999819
        },
        {
          "name": "A4",
          "midi": 69,
          "time": 259.9997400000015,
          "velocity": 1,
          "duration": 0.6666659999999638
        },
        {
          "name": "C4",
          "midi": 60,
          "time": 259.9997400000015,
          "velocity": 1,
          "duration": 0.6666659999999638
        },
        {
          "name": "E3",
          "midi": 52,
          "time": 259.9997400000015,
          "velocity": 1,
          "duration": 0.6666659999999638
        },
        {
          "name": "C3",
          "midi": 48,
          "time": 260.6664060000015,
          "velocity": 1,
          "duration": 0.6666660000000206
        },
        {
          "name": "A5",
          "midi": 81,
          "time": 260.6664060000015,
          "velocity": 1,
          "duration": 0.6666660000000206
        },
        {
          "name": "A4",
          "midi": 69,
          "time": 260.6664060000015,
          "velocity": 1,
          "duration": 0.6666660000000206
        },
        {
          "name": "C4",
          "midi": 60,
          "time": 260.6664060000015,
          "velocity": 1,
          "duration": 0.6666660000000206
        },
        {
          "name": "E3",
          "midi": 52,
          "time": 260.6664060000015,
          "velocity": 1,
          "duration": 0.6666660000000206
        },
        {
          "name": "E3",
          "midi": 52,
          "time": 261.3330720000015,
          "velocity": 1,
          "duration": 0.6666659999999638
        },
        {
          "name": "C4",
          "midi": 60,
          "time": 261.3330720000015,
          "velocity": 1,
          "duration": 0.6666659999999638
        },
        {
          "name": "A4",
          "midi": 69,
          "time": 261.3330720000015,
          "velocity": 1,
          "duration": 0.6666659999999638
        },
        {
          "name": "E5",
          "midi": 76,
          "time": 261.3330720000015,
          "velocity": 1,
          "duration": 0.3333329999999819
        },
        {
          "name": "C3",
          "midi": 48,
          "time": 261.3330720000015,
          "velocity": 1,
          "duration": 0.6666659999999638
        },
        {
          "name": "E3",
          "midi": 52,
          "time": 261.99973800000146,
          "velocity": 1,
          "duration": 0.6666659999999638
        },
        {
          "name": "C4",
          "midi": 60,
          "time": 261.99973800000146,
          "velocity": 1,
          "duration": 0.6666659999999638
        },
        {
          "name": "A4",
          "midi": 69,
          "time": 261.99973800000146,
          "velocity": 1,
          "duration": 0.6666659999999638
        },
        {
          "name": "A5",
          "midi": 81,
          "time": 261.99973800000146,
          "velocity": 1,
          "duration": 0.3333329999999819
        },
        {
          "name": "C3",
          "midi": 48,
          "time": 261.99973800000146,
          "velocity": 1,
          "duration": 0.6666659999999638
        },
        {
          "name": "C3",
          "midi": 48,
          "time": 262.6664040000014,
          "velocity": 1,
          "duration": 0.3333329999999819
        },
        {
          "name": "A5",
          "midi": 81,
          "time": 262.6664040000014,
          "velocity": 1,
          "duration": 0.6666659999999638
        },
        {
          "name": "E4",
          "midi": 64,
          "time": 262.6664040000014,
          "velocity": 1,
          "duration": 0.3333329999999819
        },
        {
          "name": "E3",
          "midi": 52,
          "time": 262.6664040000014,
          "velocity": 1,
          "duration": 0.3333329999999819
        },
        {
          "name": "F#3",
          "midi": 54,
          "time": 262.9997370000014,
          "velocity": 1,
          "duration": 2.333330999999987
        },
        {
          "name": "D#4",
          "midi": 63,
          "time": 262.9997370000014,
          "velocity": 1,
          "duration": 2.333330999999987
        },
        {
          "name": "B2",
          "midi": 47,
          "time": 262.9997370000014,
          "velocity": 1,
          "duration": 0.3333329999999819
        },
        {
          "name": "B3",
          "midi": 59,
          "time": 263.3330700000014,
          "velocity": 1,
          "duration": 1.999998000000005
        },
        {
          "name": "A5",
          "midi": 81,
          "time": 263.3330700000014,
          "velocity": 1,
          "duration": 0.49999950000000126
        },
        {
          "name": "A4",
          "midi": 69,
          "time": 263.8330695000014,
          "velocity": 1,
          "duration": 0.16666650000001937
        },
        {
          "name": "A4",
          "midi": 69,
          "time": 263.9997360000014,
          "velocity": 1,
          "duration": 0.3333329999999819
        },
        {
          "name": "A5",
          "midi": 81,
          "time": 264.3330690000014,
          "velocity": 1,
          "duration": 0.49999950000000126
        },
        {
          "name": "A4",
          "midi": 69,
          "time": 264.8330685000014,
          "velocity": 1,
          "duration": 0.16666650000001937
        },
        {
          "name": "A4",
          "midi": 69,
          "time": 264.9997350000014,
          "velocity": 1,
          "duration": 0.3333329999999819
        },
        {
          "name": "B2",
          "midi": 47,
          "time": 265.3330680000014,
          "velocity": 1,
          "duration": 0.6666659999999638
        },
        {
          "name": "D#5",
          "midi": 75,
          "time": 265.3330680000014,
          "velocity": 1,
          "duration": 0.3333329999999819
        },
        {
          "name": "D#4",
          "midi": 63,
          "time": 265.3330680000014,
          "velocity": 1,
          "duration": 0.6666659999999638
        },
        {
          "name": "F#3",
          "midi": 54,
          "time": 265.3330680000014,
          "velocity": 1,
          "duration": 0.6666659999999638
        },
        {
          "name": "A4",
          "midi": 69,
          "time": 265.6664010000014,
          "velocity": 1,
          "duration": 0.3333329999999819
        },
        {
          "name": "B2",
          "midi": 47,
          "time": 265.99973400000135,
          "velocity": 1,
          "duration": 0.6666659999999638
        },
        {
          "name": "F#5",
          "midi": 78,
          "time": 265.99973400000135,
          "velocity": 1,
          "duration": 0.3333329999999819
        },
        {
          "name": "F#4",
          "midi": 66,
          "time": 265.99973400000135,
          "velocity": 1,
          "duration": 0.6666659999999638
        },
        {
          "name": "D#3",
          "midi": 51,
          "time": 265.99973400000135,
          "velocity": 1,
          "duration": 0.6666659999999638
        },
        {
          "name": "A4",
          "midi": 69,
          "time": 266.33306700000134,
          "velocity": 1,
          "duration": 0.3333329999999819
        },
        {
          "name": "F#3",
          "midi": 54,
          "time": 266.6664000000013,
          "velocity": 1,
          "duration": 0.6666660000000206
        },
        {
          "name": "D#4",
          "midi": 63,
          "time": 266.6664000000013,
          "velocity": 1,
          "duration": 0.6666660000000206
        },
        {
          "name": "A5",
          "midi": 81,
          "time": 266.6664000000013,
          "velocity": 1,
          "duration": 0.6666660000000206
        },
        {
          "name": "B2",
          "midi": 47,
          "time": 266.6664000000013,
          "velocity": 1,
          "duration": 0.6666660000000206
        },
        {
          "name": "B2",
          "midi": 47,
          "time": 267.33306600000134,
          "velocity": 1,
          "duration": 0.6666659999999638
        },
        {
          "name": "D#5",
          "midi": 75,
          "time": 267.33306600000134,
          "velocity": 1,
          "duration": 0.3333329999999819
        },
        {
          "name": "D#4",
          "midi": 63,
          "time": 267.33306600000134,
          "velocity": 1,
          "duration": 0.6666659999999638
        },
        {
          "name": "F#3",
          "midi": 54,
          "time": 267.33306600000134,
          "velocity": 1,
          "duration": 0.6666659999999638
        },
        {
          "name": "A4",
          "midi": 69,
          "time": 267.6663990000013,
          "velocity": 1,
          "duration": 0.3333329999999819
        },
        {
          "name": "D#3",
          "midi": 51,
          "time": 267.9997320000013,
          "velocity": 1,
          "duration": 0.6666659999999638
        },
        {
          "name": "F#4",
          "midi": 66,
          "time": 267.9997320000013,
          "velocity": 1,
          "duration": 0.6666659999999638
        },
        {
          "name": "F#5",
          "midi": 78,
          "time": 267.9997320000013,
          "velocity": 1,
          "duration": 0.3333329999999819
        },
        {
          "name": "B2",
          "midi": 47,
          "time": 267.9997320000013,
          "velocity": 1,
          "duration": 0.6666659999999638
        },
        {
          "name": "A4",
          "midi": 69,
          "time": 268.3330650000013,
          "velocity": 1,
          "duration": 0.3333329999999819
        },
        {
          "name": "B2",
          "midi": 47,
          "time": 268.66639800000127,
          "velocity": 1,
          "duration": 0.3333329999999819
        },
        {
          "name": "A5",
          "midi": 81,
          "time": 268.66639800000127,
          "velocity": 1,
          "duration": 0.3333329999999819
        },
        {
          "name": "D#4",
          "midi": 63,
          "time": 268.66639800000127,
          "velocity": 1,
          "duration": 0.3333329999999819
        },
        {
          "name": "F#3",
          "midi": 54,
          "time": 268.66639800000127,
          "velocity": 1,
          "duration": 0.3333329999999819
        },
        {
          "name": "A#2",
          "midi": 46,
          "time": 268.99973100000125,
          "velocity": 1,
          "duration": 0.3333329999999819
        },
        {
          "name": "G4",
          "midi": 67,
          "time": 268.99973100000125,
          "velocity": 1,
          "duration": 0.3333329999999819
        },
        {
          "name": "E4",
          "midi": 64,
          "time": 268.99973100000125,
          "velocity": 1,
          "duration": 0.3333329999999819
        },
        {
          "name": "C#3",
          "midi": 49,
          "time": 268.99973100000125,
          "velocity": 1,
          "duration": 2.333330999999987
        },
        {
          "name": "E5",
          "midi": 76,
          "time": 269.33306400000123,
          "velocity": 1,
          "duration": 0.49999950000000126
        },
        {
          "name": "G5",
          "midi": 79,
          "time": 269.33306400000123,
          "velocity": 1,
          "duration": 0.49999950000000126
        },
        {
          "name": "A#3",
          "midi": 58,
          "time": 269.33306400000123,
          "velocity": 1,
          "duration": 1.999998000000005
        },
        {
          "name": "G4",
          "midi": 67,
          "time": 269.83306350000123,
          "velocity": 1,
          "duration": 0.16666650000001937
        },
        {
          "name": "E4",
          "midi": 64,
          "time": 269.83306350000123,
          "velocity": 1,
          "duration": 0.16666650000001937
        },
        {
          "name": "G4",
          "midi": 67,
          "time": 269.99973000000125,
          "velocity": 1,
          "duration": 0.3333329999999819
        },
        {
          "name": "E4",
          "midi": 64,
          "time": 269.99973000000125,
          "velocity": 1,
          "duration": 0.3333329999999819
        },
        {
          "name": "G5",
          "midi": 79,
          "time": 270.33306300000123,
          "velocity": 1,
          "duration": 0.49999950000000126
        },
        {
          "name": "E5",
          "midi": 76,
          "time": 270.33306300000123,
          "velocity": 1,
          "duration": 0.49999950000000126
        },
        {
          "name": "G4",
          "midi": 67,
          "time": 270.83306250000123,
          "velocity": 1,
          "duration": 0.16666650000001937
        },
        {
          "name": "E4",
          "midi": 64,
          "time": 270.83306250000123,
          "velocity": 1,
          "duration": 0.16666650000001937
        },
        {
          "name": "E4",
          "midi": 64,
          "time": 270.99972900000125,
          "velocity": 1,
          "duration": 0.3333329999999819
        },
        {
          "name": "G4",
          "midi": 67,
          "time": 270.99972900000125,
          "velocity": 1,
          "duration": 0.3333329999999819
        },
        {
          "name": "A#3",
          "midi": 58,
          "time": 271.33306200000123,
          "velocity": 1,
          "duration": 0.6666659999999638
        },
        {
          "name": "G5",
          "midi": 79,
          "time": 271.33306200000123,
          "velocity": 1,
          "duration": 0.3333329999999819
        },
        {
          "name": "E4",
          "midi": 64,
          "time": 271.33306200000123,
          "velocity": 1,
          "duration": 0.6666659999999638
        },
        {
          "name": "C#3",
          "midi": 49,
          "time": 271.33306200000123,
          "velocity": 1,
          "duration": 0.6666659999999638
        },
        {
          "name": "E5",
          "midi": 76,
          "time": 271.6663950000012,
          "velocity": 1,
          "duration": 0.3333329999999819
        },
        {
          "name": "A#3",
          "midi": 58,
          "time": 271.9997280000012,
          "velocity": 1,
          "duration": 0.6666659999999638
        },
        {
          "name": "C#6",
          "midi": 85,
          "time": 271.9997280000012,
          "velocity": 1,
          "duration": 0.3333329999999819
        },
        {
          "name": "E4",
          "midi": 64,
          "time": 271.9997280000012,
          "velocity": 1,
          "duration": 0.6666659999999638
        },
        {
          "name": "G3",
          "midi": 55,
          "time": 271.9997280000012,
          "velocity": 1,
          "duration": 0.6666659999999638
        },
        {
          "name": "E5",
          "midi": 76,
          "time": 272.3330610000012,
          "velocity": 1,
          "duration": 0.3333329999999819
        },
        {
          "name": "C#3",
          "midi": 49,
          "time": 272.66639400000116,
          "velocity": 1,
          "duration": 0.6666660000000206
        },
        {
          "name": "G4",
          "midi": 67,
          "time": 272.66639400000116,
          "velocity": 1,
          "duration": 0.6666660000000206
        },
        {
          "name": "E6",
          "midi": 88,
          "time": 272.66639400000116,
          "velocity": 1,
          "duration": 0.6666660000000206
        },
        {
          "name": "A#3",
          "midi": 58,
          "time": 272.66639400000116,
          "velocity": 1,
          "duration": 0.6666660000000206
        },
        {
          "name": "A#3",
          "midi": 58,
          "time": 273.3330600000012,
          "velocity": 1,
          "duration": 0.6666659999999638
        },
        {
          "name": "G5",
          "midi": 79,
          "time": 273.3330600000012,
          "velocity": 1,
          "duration": 0.3333329999999819
        },
        {
          "name": "E4",
          "midi": 64,
          "time": 273.3330600000012,
          "velocity": 1,
          "duration": 0.6666659999999638
        },
        {
          "name": "C#3",
          "midi": 49,
          "time": 273.3330600000012,
          "velocity": 1,
          "duration": 0.6666659999999638
        },
        {
          "name": "E5",
          "midi": 76,
          "time": 273.66639300000116,
          "velocity": 1,
          "duration": 0.3333329999999819
        },
        {
          "name": "G3",
          "midi": 55,
          "time": 273.99972600000115,
          "velocity": 1,
          "duration": 0.6666659999999638
        },
        {
          "name": "E4",
          "midi": 64,
          "time": 273.99972600000115,
          "velocity": 1,
          "duration": 0.6666659999999638
        },
        {
          "name": "C#6",
          "midi": 85,
          "time": 273.99972600000115,
          "velocity": 1,
          "duration": 0.3333329999999819
        },
        {
          "name": "A#3",
          "midi": 58,
          "time": 273.99972600000115,
          "velocity": 1,
          "duration": 0.6666659999999638
        },
        {
          "name": "E5",
          "midi": 76,
          "time": 274.33305900000113,
          "velocity": 1,
          "duration": 0.3333329999999819
        },
        {
          "name": "A#3",
          "midi": 58,
          "time": 274.6663920000011,
          "velocity": 1,
          "duration": 0.3333329999999819
        },
        {
          "name": "E6",
          "midi": 88,
          "time": 274.6663920000011,
          "velocity": 1,
          "duration": 0.3333329999999819
        },
        {
          "name": "G4",
          "midi": 67,
          "time": 274.6663920000011,
          "velocity": 1,
          "duration": 0.3333329999999819
        },
        {
          "name": "C#3",
          "midi": 49,
          "time": 274.6663920000011,
          "velocity": 1,
          "duration": 0.3333329999999819
        },
        {
          "name": "A2",
          "midi": 45,
          "time": 274.9997250000011,
          "velocity": 1,
          "duration": 0.3333329999999819
        },
        {
          "name": "C3",
          "midi": 48,
          "time": 274.9997250000011,
          "velocity": 1,
          "duration": 0.3333329999999819
        },
        {
          "name": "C4",
          "midi": 60,
          "time": 275.3330580000011,
          "velocity": 1,
          "duration": 0.6666660000000206
        },
        {
          "name": "F#5",
          "midi": 78,
          "time": 275.3330580000011,
          "velocity": 1,
          "duration": 0.6666660000000206
        },
        {
          "name": "D#6",
          "midi": 87,
          "time": 275.3330580000011,
          "velocity": 1,
          "duration": 0.6666660000000206
        },
        {
          "name": "A3",
          "midi": 57,
          "time": 275.3330580000011,
          "velocity": 1,
          "duration": 0.6666660000000206
        },
        {
          "name": "A3",
          "midi": 57,
          "time": 275.9997240000011,
          "velocity": 1,
          "duration": 0.6666660000000206
        },
        {
          "name": "D#6",
          "midi": 87,
          "time": 275.9997240000011,
          "velocity": 1,
          "duration": 0.6666660000000206
        },
        {
          "name": "F#5",
          "midi": 78,
          "time": 275.9997240000011,
          "velocity": 1,
          "duration": 0.6666660000000206
        },
        {
          "name": "C4",
          "midi": 60,
          "time": 275.9997240000011,
          "velocity": 1,
          "duration": 0.6666660000000206
        },
        {
          "name": "C4",
          "midi": 60,
          "time": 276.6663900000011,
          "velocity": 1,
          "duration": 0.3333329999999819
        },
        {
          "name": "F#5",
          "midi": 78,
          "time": 276.6663900000011,
          "velocity": 1,
          "duration": 0.3333329999999819
        },
        {
          "name": "D#6",
          "midi": 87,
          "time": 276.6663900000011,
          "velocity": 1,
          "duration": 0.3333329999999819
        },
        {
          "name": "A3",
          "midi": 57,
          "time": 276.6663900000011,
          "velocity": 1,
          "duration": 0.3333329999999819
        },
        {
          "name": "G2",
          "midi": 43,
          "time": 276.9997230000011,
          "velocity": 1,
          "duration": 0.3333329999999819
        },
        {
          "name": "C3",
          "midi": 48,
          "time": 276.9997230000011,
          "velocity": 1,
          "duration": 0.3333329999999819
        },
        {
          "name": "C4",
          "midi": 60,
          "time": 277.3330560000011,
          "velocity": 1,
          "duration": 0.6666660000000206
        },
        {
          "name": "E4",
          "midi": 64,
          "time": 277.3330560000011,
          "velocity": 1,
          "duration": 0.6666660000000206
        },
        {
          "name": "C5",
          "midi": 72,
          "time": 277.3330560000011,
          "velocity": 1,
          "duration": 0.6666660000000206
        },
        {
          "name": "G5",
          "midi": 79,
          "time": 277.3330560000011,
          "velocity": 1,
          "duration": 0.6666660000000206
        },
        {
          "name": "E6",
          "midi": 88,
          "time": 277.3330560000011,
          "velocity": 1,
          "duration": 0.6666660000000206
        },
        {
          "name": "G3",
          "midi": 55,
          "time": 277.3330560000011,
          "velocity": 1,
          "duration": 0.6666660000000206
        },
        {
          "name": "G3",
          "midi": 55,
          "time": 277.9997220000011,
          "velocity": 1,
          "duration": 0.6666660000000206
        },
        {
          "name": "E6",
          "midi": 88,
          "time": 277.9997220000011,
          "velocity": 1,
          "duration": 0.6666660000000206
        },
        {
          "name": "G5",
          "midi": 79,
          "time": 277.9997220000011,
          "velocity": 1,
          "duration": 0.6666660000000206
        },
        {
          "name": "C5",
          "midi": 72,
          "time": 277.9997220000011,
          "velocity": 1,
          "duration": 0.6666660000000206
        },
        {
          "name": "E4",
          "midi": 64,
          "time": 277.9997220000011,
          "velocity": 1,
          "duration": 0.6666660000000206
        },
        {
          "name": "C4",
          "midi": 60,
          "time": 277.9997220000011,
          "velocity": 1,
          "duration": 0.6666660000000206
        },
        {
          "name": "C4",
          "midi": 60,
          "time": 278.6663880000011,
          "velocity": 1,
          "duration": 0.3333329999999819
        },
        {
          "name": "E4",
          "midi": 64,
          "time": 278.6663880000011,
          "velocity": 1,
          "duration": 0.3333329999999819
        },
        {
          "name": "C5",
          "midi": 72,
          "time": 278.6663880000011,
          "velocity": 1,
          "duration": 0.3333329999999819
        },
        {
          "name": "G5",
          "midi": 79,
          "time": 278.6663880000011,
          "velocity": 1,
          "duration": 0.3333329999999819
        },
        {
          "name": "E6",
          "midi": 88,
          "time": 278.6663880000011,
          "velocity": 1,
          "duration": 0.3333329999999819
        },
        {
          "name": "G3",
          "midi": 55,
          "time": 278.6663880000011,
          "velocity": 1,
          "duration": 0.3333329999999819
        },
        {
          "name": "A2",
          "midi": 45,
          "time": 278.9997210000011,
          "velocity": 1,
          "duration": 0.3333329999999819
        },
        {
          "name": "C3",
          "midi": 48,
          "time": 278.9997210000011,
          "velocity": 1,
          "duration": 0.3333329999999819
        },
        {
          "name": "C4",
          "midi": 60,
          "time": 279.3330540000011,
          "velocity": 1,
          "duration": 0.6666660000000206
        },
        {
          "name": "E4",
          "midi": 64,
          "time": 279.3330540000011,
          "velocity": 1,
          "duration": 0.6666660000000206
        },
        {
          "name": "C5",
          "midi": 72,
          "time": 279.3330540000011,
          "velocity": 1,
          "duration": 0.6666660000000206
        },
        {
          "name": "E5",
          "midi": 76,
          "time": 279.3330540000011,
          "velocity": 1,
          "duration": 0.6666660000000206
        },
        {
          "name": "F6",
          "midi": 89,
          "time": 279.3330540000011,
          "velocity": 1,
          "duration": 0.6666660000000206
        },
        {
          "name": "A3",
          "midi": 57,
          "time": 279.3330540000011,
          "velocity": 1,
          "duration": 0.6666660000000206
        },
        {
          "name": "C4",
          "midi": 60,
          "time": 280.3330530000011,
          "velocity": 1,
          "duration": 0.6666660000000206
        },
        {
          "name": "E4",
          "midi": 64,
          "time": 280.3330530000011,
          "velocity": 1,
          "duration": 0.6666660000000206
        },
        {
          "name": "C5",
          "midi": 72,
          "time": 280.3330530000011,
          "velocity": 1,
          "duration": 0.6666660000000206
        },
        {
          "name": "E5",
          "midi": 76,
          "time": 280.3330530000011,
          "velocity": 1,
          "duration": 0.6666660000000206
        },
        {
          "name": "F6",
          "midi": 89,
          "time": 280.3330530000011,
          "velocity": 1,
          "duration": 0.6666660000000206
        },
        {
          "name": "A3",
          "midi": 57,
          "time": 280.3330530000011,
          "velocity": 1,
          "duration": 0.6666660000000206
        },
        {
          "name": "A3",
          "midi": 57,
          "time": 281.3330520000011,
          "velocity": 1,
          "duration": 0.6666660000000206
        },
        {
          "name": "F6",
          "midi": 89,
          "time": 281.3330520000011,
          "velocity": 1,
          "duration": 0.6666660000000206
        },
        {
          "name": "E5",
          "midi": 76,
          "time": 281.3330520000011,
          "velocity": 1,
          "duration": 0.6666660000000206
        },
        {
          "name": "C5",
          "midi": 72,
          "time": 281.3330520000011,
          "velocity": 1,
          "duration": 0.6666660000000206
        },
        {
          "name": "E4",
          "midi": 64,
          "time": 281.3330520000011,
          "velocity": 1,
          "duration": 0.6666660000000206
        },
        {
          "name": "C4",
          "midi": 60,
          "time": 281.3330520000011,
          "velocity": 1,
          "duration": 0.6666660000000206
        },
        {
          "name": "C4",
          "midi": 60,
          "time": 281.9997180000011,
          "velocity": 1,
          "duration": 0.6666660000000206
        },
        {
          "name": "E4",
          "midi": 64,
          "time": 281.9997180000011,
          "velocity": 1,
          "duration": 0.6666660000000206
        },
        {
          "name": "C5",
          "midi": 72,
          "time": 281.9997180000011,
          "velocity": 1,
          "duration": 0.6666660000000206
        },
        {
          "name": "E5",
          "midi": 76,
          "time": 281.9997180000011,
          "velocity": 1,
          "duration": 0.6666660000000206
        },
        {
          "name": "F6",
          "midi": 89,
          "time": 281.9997180000011,
          "velocity": 1,
          "duration": 0.6666660000000206
        },
        {
          "name": "A3",
          "midi": 57,
          "time": 281.9997180000011,
          "velocity": 1,
          "duration": 0.6666660000000206
        },
        {
          "name": "C4",
          "midi": 60,
          "time": 282.66638400000113,
          "velocity": 1,
          "duration": 0.3333329999999819
        },
        {
          "name": "E4",
          "midi": 64,
          "time": 282.66638400000113,
          "velocity": 1,
          "duration": 0.3333329999999819
        },
        {
          "name": "C5",
          "midi": 72,
          "time": 282.66638400000113,
          "velocity": 1,
          "duration": 0.3333329999999819
        },
        {
          "name": "E5",
          "midi": 76,
          "time": 282.66638400000113,
          "velocity": 1,
          "duration": 0.3333329999999819
        },
        {
          "name": "F6",
          "midi": 89,
          "time": 282.66638400000113,
          "velocity": 1,
          "duration": 0.3333329999999819
        },
        {
          "name": "A3",
          "midi": 57,
          "time": 282.66638400000113,
          "velocity": 1,
          "duration": 0.3333329999999819
        },
        {
          "name": "B2",
          "midi": 47,
          "time": 283.3330500000011,
          "velocity": 1,
          "duration": 0.3333329999999819
        },
        {
          "name": "D#4",
          "midi": 63,
          "time": 283.3330500000011,
          "velocity": 1,
          "duration": 0.3333329999999819
        },
        {
          "name": "C4",
          "midi": 60,
          "time": 283.3330500000011,
          "velocity": 1,
          "duration": 0.3333329999999819
        },
        {
          "name": "A3",
          "midi": 57,
          "time": 283.3330500000011,
          "velocity": 1,
          "duration": 0.3333329999999819
        },
        {
          "name": "F#3",
          "midi": 54,
          "time": 283.3330500000011,
          "velocity": 1,
          "duration": 0.3333329999999819
        },
        {
          "name": "F#3",
          "midi": 54,
          "time": 283.6663830000011,
          "velocity": 1,
          "duration": 0.3333329999999819
        },
        {
          "name": "A3",
          "midi": 57,
          "time": 283.6663830000011,
          "velocity": 1,
          "duration": 0.3333329999999819
        },
        {
          "name": "C4",
          "midi": 60,
          "time": 283.6663830000011,
          "velocity": 1,
          "duration": 0.3333329999999819
        },
        {
          "name": "D#4",
          "midi": 63,
          "time": 283.6663830000011,
          "velocity": 1,
          "duration": 0.3333329999999819
        },
        {
          "name": "B2",
          "midi": 47,
          "time": 283.6663830000011,
          "velocity": 1,
          "duration": 0.3333329999999819
        },
        {
          "name": "B2",
          "midi": 47,
          "time": 283.99971600000106,
          "velocity": 1,
          "duration": 0.3333329999999819
        },
        {
          "name": "D#4",
          "midi": 63,
          "time": 283.99971600000106,
          "velocity": 1,
          "duration": 0.3333329999999819
        },
        {
          "name": "C4",
          "midi": 60,
          "time": 283.99971600000106,
          "velocity": 1,
          "duration": 0.3333329999999819
        },
        {
          "name": "A3",
          "midi": 57,
          "time": 283.99971600000106,
          "velocity": 1,
          "duration": 0.3333329999999819
        },
        {
          "name": "F#3",
          "midi": 54,
          "time": 283.99971600000106,
          "velocity": 1,
          "duration": 0.3333329999999819
        },
        {
          "name": "F#3",
          "midi": 54,
          "time": 284.33304900000104,
          "velocity": 1,
          "duration": 0.3333329999999819
        },
        {
          "name": "A3",
          "midi": 57,
          "time": 284.33304900000104,
          "velocity": 1,
          "duration": 0.3333329999999819
        },
        {
          "name": "C4",
          "midi": 60,
          "time": 284.33304900000104,
          "velocity": 1,
          "duration": 0.3333329999999819
        },
        {
          "name": "D#4",
          "midi": 63,
          "time": 284.33304900000104,
          "velocity": 1,
          "duration": 0.3333329999999819
        },
        {
          "name": "B2",
          "midi": 47,
          "time": 284.33304900000104,
          "velocity": 1,
          "duration": 0.3333329999999819
        },
        {
          "name": "F#3",
          "midi": 54,
          "time": 284.666382000001,
          "velocity": 1,
          "duration": 0.3333329999999819
        },
        {
          "name": "A3",
          "midi": 57,
          "time": 284.666382000001,
          "velocity": 1,
          "duration": 0.3333329999999819
        },
        {
          "name": "C4",
          "midi": 60,
          "time": 284.666382000001,
          "velocity": 1,
          "duration": 0.3333329999999819
        },
        {
          "name": "D#4",
          "midi": 63,
          "time": 284.666382000001,
          "velocity": 1,
          "duration": 0.3333329999999819
        },
        {
          "name": "B2",
          "midi": 47,
          "time": 284.666382000001,
          "velocity": 1,
          "duration": 0.3333329999999819
        },
        {
          "name": "B2",
          "midi": 47,
          "time": 284.999715000001,
          "velocity": 1,
          "duration": 0.3333329999999819
        },
        {
          "name": "D#4",
          "midi": 63,
          "time": 284.999715000001,
          "velocity": 1,
          "duration": 0.3333329999999819
        },
        {
          "name": "C4",
          "midi": 60,
          "time": 284.999715000001,
          "velocity": 1,
          "duration": 0.3333329999999819
        },
        {
          "name": "A3",
          "midi": 57,
          "time": 284.999715000001,
          "velocity": 1,
          "duration": 0.3333329999999819
        },
        {
          "name": "F#3",
          "midi": 54,
          "time": 284.999715000001,
          "velocity": 1,
          "duration": 0.3333329999999819
        },
        {
          "name": "F#3",
          "midi": 54,
          "time": 285.333048000001,
          "velocity": 1,
          "duration": 0.3333329999999819
        },
        {
          "name": "A3",
          "midi": 57,
          "time": 285.333048000001,
          "velocity": 1,
          "duration": 0.3333329999999819
        },
        {
          "name": "B3",
          "midi": 59,
          "time": 285.333048000001,
          "velocity": 1,
          "duration": 0.3333329999999819
        },
        {
          "name": "D#4",
          "midi": 63,
          "time": 285.333048000001,
          "velocity": 1,
          "duration": 0.3333329999999819
        },
        {
          "name": "B2",
          "midi": 47,
          "time": 285.333048000001,
          "velocity": 1,
          "duration": 0.3333329999999819
        },
        {
          "name": "B2",
          "midi": 47,
          "time": 285.66638100000097,
          "velocity": 1,
          "duration": 0.3333329999999819
        },
        {
          "name": "D#4",
          "midi": 63,
          "time": 285.66638100000097,
          "velocity": 1,
          "duration": 0.3333329999999819
        },
        {
          "name": "B3",
          "midi": 59,
          "time": 285.66638100000097,
          "velocity": 1,
          "duration": 0.3333329999999819
        },
        {
          "name": "A3",
          "midi": 57,
          "time": 285.66638100000097,
          "velocity": 1,
          "duration": 0.3333329999999819
        },
        {
          "name": "F#3",
          "midi": 54,
          "time": 285.66638100000097,
          "velocity": 1,
          "duration": 0.3333329999999819
        },
        {
          "name": "F#3",
          "midi": 54,
          "time": 285.99971400000095,
          "velocity": 1,
          "duration": 0.3333329999999819
        },
        {
          "name": "A3",
          "midi": 57,
          "time": 285.99971400000095,
          "velocity": 1,
          "duration": 0.3333329999999819
        },
        {
          "name": "B3",
          "midi": 59,
          "time": 285.99971400000095,
          "velocity": 1,
          "duration": 0.3333329999999819
        },
        {
          "name": "D#4",
          "midi": 63,
          "time": 285.99971400000095,
          "velocity": 1,
          "duration": 0.3333329999999819
        },
        {
          "name": "B2",
          "midi": 47,
          "time": 285.99971400000095,
          "velocity": 1,
          "duration": 0.3333329999999819
        },
        {
          "name": "F#3",
          "midi": 54,
          "time": 286.33304700000093,
          "velocity": 1,
          "duration": 0.3333329999999819
        },
        {
          "name": "A3",
          "midi": 57,
          "time": 286.33304700000093,
          "velocity": 1,
          "duration": 0.3333329999999819
        },
        {
          "name": "B3",
          "midi": 59,
          "time": 286.33304700000093,
          "velocity": 1,
          "duration": 0.3333329999999819
        },
        {
          "name": "D#4",
          "midi": 63,
          "time": 286.33304700000093,
          "velocity": 1,
          "duration": 0.3333329999999819
        },
        {
          "name": "B2",
          "midi": 47,
          "time": 286.33304700000093,
          "velocity": 1,
          "duration": 0.3333329999999819
        },
        {
          "name": "B2",
          "midi": 47,
          "time": 286.6663800000009,
          "velocity": 1,
          "duration": 0.3333329999999819
        },
        {
          "name": "D#4",
          "midi": 63,
          "time": 286.6663800000009,
          "velocity": 1,
          "duration": 0.3333329999999819
        },
        {
          "name": "B3",
          "midi": 59,
          "time": 286.6663800000009,
          "velocity": 1,
          "duration": 0.3333329999999819
        },
        {
          "name": "A3",
          "midi": 57,
          "time": 286.6663800000009,
          "velocity": 1,
          "duration": 0.3333329999999819
        },
        {
          "name": "F#3",
          "midi": 54,
          "time": 286.6663800000009,
          "velocity": 1,
          "duration": 0.3333329999999819
        },
        {
          "name": "E3",
          "midi": 52,
          "time": 286.9997130000009,
          "velocity": 1,
          "duration": 0.33333300000003874
        },
        {
          "name": "E4",
          "midi": 64,
          "time": 286.9997130000009,
          "velocity": 1,
          "duration": 0.16666650000001937
        },
        {
          "name": "B3",
          "midi": 59,
          "time": 286.9997130000009,
          "velocity": 1,
          "duration": 0.33333300000003874
        },
        {
          "name": "G3",
          "midi": 55,
          "time": 286.9997130000009,
          "velocity": 1,
          "duration": 0.33333300000003874
        },
        {
          "name": "B4",
          "midi": 71,
          "time": 287.1663795000009,
          "velocity": 1,
          "duration": 0.33333300000003874
        },
        {
          "name": "E4",
          "midi": 64,
          "time": 287.33304600000093,
          "velocity": 1,
          "duration": 0.33333300000003874
        },
        {
          "name": "B4",
          "midi": 71,
          "time": 287.49971250000095,
          "velocity": 1,
          "duration": 0.33333300000003874
        },
        {
          "name": "F#4",
          "midi": 66,
          "time": 287.666379000001,
          "velocity": 1,
          "duration": 0.33333300000003874
        },
        {
          "name": "B4",
          "midi": 71,
          "time": 287.833045500001,
          "velocity": 1,
          "duration": 0.33333300000003874
        },
        {
          "name": "G4",
          "midi": 67,
          "time": 287.999712000001,
          "velocity": 1,
          "duration": 0.4999995000000581
        },
        {
          "name": "B4",
          "midi": 71,
          "time": 288.16637850000103,
          "velocity": 1,
          "duration": 0.33333300000003874
        },
        {
          "name": "E3",
          "midi": 52,
          "time": 288.33304500000105,
          "velocity": 1,
          "duration": 0.33333300000003874
        },
        {
          "name": "F#4",
          "midi": 66,
          "time": 288.49971150000107,
          "velocity": 1,
          "duration": 0.16666650000001937
        },
        {
          "name": "B4",
          "midi": 71,
          "time": 288.49971150000107,
          "velocity": 1,
          "duration": 0.33333300000003874
        },
        {
          "name": "E4",
          "midi": 64,
          "time": 288.6663780000011,
          "velocity": 1,
          "duration": 0.33333300000003874
        },
        {
          "name": "E3",
          "midi": 52,
          "time": 288.6663780000011,
          "velocity": 1,
          "duration": 0.33333300000003874
        },
        {
          "name": "B4",
          "midi": 71,
          "time": 288.8330445000011,
          "velocity": 1,
          "duration": 0.33333300000003874
        },
        {
          "name": "D#4",
          "midi": 63,
          "time": 288.9997110000011,
          "velocity": 1,
          "duration": 0.33333300000003874
        },
        {
          "name": "B2",
          "midi": 47,
          "time": 288.9997110000011,
          "velocity": 1,
          "duration": 0.33333300000003874
        },
        {
          "name": "B5",
          "midi": 83,
          "time": 289.16637750000115,
          "velocity": 1,
          "duration": 0.33333300000003874
        },
        {
          "name": "D4",
          "midi": 62,
          "time": 289.33304400000117,
          "velocity": 1,
          "duration": 0.33333300000003874
        },
        {
          "name": "B5",
          "midi": 83,
          "time": 289.4997105000012,
          "velocity": 1,
          "duration": 0.33333300000003874
        },
        {
          "name": "C#4",
          "midi": 61,
          "time": 289.6663770000012,
          "velocity": 1,
          "duration": 0.33333300000003874
        },
        {
          "name": "B5",
          "midi": 83,
          "time": 289.8330435000012,
          "velocity": 1,
          "duration": 0.33333300000003874
        },
        {
          "name": "B3",
          "midi": 59,
          "time": 289.99971000000124,
          "velocity": 1,
          "duration": 0.6666660000000775
        },
        {
          "name": "B5",
          "midi": 83,
          "time": 290.16637650000126,
          "velocity": 1,
          "duration": 0.33333300000003874
        },
        {
          "name": "B2",
          "midi": 47,
          "time": 290.3330430000013,
          "velocity": 1,
          "duration": 0.33333300000003874
        },
        {
          "name": "B5",
          "midi": 83,
          "time": 290.4997095000013,
          "velocity": 1,
          "duration": 0.33333300000003874
        },
        {
          "name": "C#4",
          "midi": 61,
          "time": 290.6663760000013,
          "velocity": 1,
          "duration": 0.16666650000001937
        },
        {
          "name": "B2",
          "midi": 47,
          "time": 290.6663760000013,
          "velocity": 1,
          "duration": 0.33333300000003874
        },
        {
          "name": "D#4",
          "midi": 63,
          "time": 290.83304250000134,
          "velocity": 1,
          "duration": 0.16666650000001937
        },
        {
          "name": "B5",
          "midi": 83,
          "time": 290.83304250000134,
          "velocity": 1,
          "duration": 0.33333300000003874
        },
        {
          "name": "E4",
          "midi": 64,
          "time": 290.99970900000136,
          "velocity": 1,
          "duration": 0.33333300000003874
        },
        {
          "name": "E3",
          "midi": 52,
          "time": 290.99970900000136,
          "velocity": 1,
          "duration": 0.33333300000003874
        },
        {
          "name": "B4",
          "midi": 71,
          "time": 291.1663755000014,
          "velocity": 1,
          "duration": 0.33333300000003874
        },
        {
          "name": "E4",
          "midi": 64,
          "time": 291.3330420000014,
          "velocity": 1,
          "duration": 0.33333300000003874
        },
        {
          "name": "B4",
          "midi": 71,
          "time": 291.4997085000014,
          "velocity": 1,
          "duration": 0.33333300000003874
        },
        {
          "name": "F#4",
          "midi": 66,
          "time": 291.66637500000144,
          "velocity": 1,
          "duration": 0.33333300000003874
        },
        {
          "name": "B4",
          "midi": 71,
          "time": 291.83304150000146,
          "velocity": 1,
          "duration": 0.33333300000003874
        },
        {
          "name": "G4",
          "midi": 67,
          "time": 291.9997080000015,
          "velocity": 1,
          "duration": 0.4999995000000581
        },
        {
          "name": "B4",
          "midi": 71,
          "time": 292.1663745000015,
          "velocity": 1,
          "duration": 0.33333300000003874
        },
        {
          "name": "E3",
          "midi": 52,
          "time": 292.3330410000015,
          "velocity": 1,
          "duration": 0.33333300000003874
        },
        {
          "name": "F#4",
          "midi": 66,
          "time": 292.49970750000153,
          "velocity": 1,
          "duration": 0.16666650000001937
        },
        {
          "name": "B4",
          "midi": 71,
          "time": 292.49970750000153,
          "velocity": 1,
          "duration": 0.33333300000003874
        },
        {
          "name": "E4",
          "midi": 64,
          "time": 292.66637400000155,
          "velocity": 1,
          "duration": 0.33333300000003874
        },
        {
          "name": "E3",
          "midi": 52,
          "time": 292.66637400000155,
          "velocity": 1,
          "duration": 0.33333300000003874
        },
        {
          "name": "B4",
          "midi": 71,
          "time": 292.8330405000016,
          "velocity": 1,
          "duration": 0.33333300000003874
        },
        {
          "name": "D#4",
          "midi": 63,
          "time": 292.9997070000016,
          "velocity": 1,
          "duration": 0.33333300000003874
        },
        {
          "name": "B2",
          "midi": 47,
          "time": 292.9997070000016,
          "velocity": 1,
          "duration": 0.33333300000003874
        },
        {
          "name": "B5",
          "midi": 83,
          "time": 293.1663735000016,
          "velocity": 1,
          "duration": 0.33333300000003874
        },
        {
          "name": "D4",
          "midi": 62,
          "time": 293.33304000000163,
          "velocity": 1,
          "duration": 0.33333300000003874
        },
        {
          "name": "B5",
          "midi": 83,
          "time": 293.49970650000165,
          "velocity": 1,
          "duration": 0.33333300000003874
        },
        {
          "name": "C#4",
          "midi": 61,
          "time": 293.66637300000167,
          "velocity": 1,
          "duration": 0.33333300000003874
        },
        {
          "name": "B5",
          "midi": 83,
          "time": 293.8330395000017,
          "velocity": 1,
          "duration": 0.33333300000003874
        },
        {
          "name": "B3",
          "midi": 59,
          "time": 293.9997060000017,
          "velocity": 1,
          "duration": 0.6666660000000775
        },
        {
          "name": "A5",
          "midi": 81,
          "time": 294.1663725000017,
          "velocity": 1,
          "duration": 0.16666650000001937
        },
        {
          "name": "F4",
          "midi": 65,
          "time": 294.1663725000017,
          "velocity": 1,
          "duration": 0.16666650000001937
        },
        {
          "name": "E4",
          "midi": 64,
          "time": 294.33303900000175,
          "velocity": 1,
          "duration": 0.16666650000001937
        },
        {
          "name": "G#5",
          "midi": 80,
          "time": 294.33303900000175,
          "velocity": 1,
          "duration": 0.16666650000001937
        },
        {
          "name": "B2",
          "midi": 47,
          "time": 294.33303900000175,
          "velocity": 1,
          "duration": 0.33333300000003874
        },
        {
          "name": "F5",
          "midi": 77,
          "time": 294.49970550000177,
          "velocity": 1,
          "duration": 0.16666650000001937
        },
        {
          "name": "F4",
          "midi": 65,
          "time": 294.49970550000177,
          "velocity": 1,
          "duration": 0.16666650000001937
        },
        {
          "name": "E4",
          "midi": 64,
          "time": 294.6663720000018,
          "velocity": 1,
          "duration": 0.33333300000003874
        },
        {
          "name": "E3",
          "midi": 52,
          "time": 294.6663720000018,
          "velocity": 1,
          "duration": 0.33333300000003874
        },
        {
          "name": "E5",
          "midi": 76,
          "time": 294.6663720000018,
          "velocity": 1,
          "duration": 0.16666650000001937
        },
        {
          "name": "D5",
          "midi": 74,
          "time": 294.8330385000018,
          "velocity": 1,
          "duration": 0.16666650000001937
        },
        {
          "name": "D4",
          "midi": 62,
          "time": 294.8330385000018,
          "velocity": 1,
          "duration": 0.16666650000001937
        },
        {
          "name": "A3",
          "midi": 57,
          "time": 294.9997050000018,
          "velocity": 1,
          "duration": 0.33333300000003874
        },
        {
          "name": "A2",
          "midi": 45,
          "time": 294.9997050000018,
          "velocity": 1,
          "duration": 0.33333300000003874
        },
        {
          "name": "C5",
          "midi": 72,
          "time": 294.9997050000018,
          "velocity": 1,
          "duration": 0.33333300000003874
        },
        {
          "name": "C4",
          "midi": 60,
          "time": 294.9997050000018,
          "velocity": 1,
          "duration": 0.16666650000001937
        },
        {
          "name": "E3",
          "midi": 52,
          "time": 295.16637150000184,
          "velocity": 1,
          "duration": 0.33333300000003874
        },
        {
          "name": "E4",
          "midi": 64,
          "time": 295.16637150000184,
          "velocity": 1,
          "duration": 0.33333300000003874
        },
        {
          "name": "A4",
          "midi": 69,
          "time": 295.33303800000186,
          "velocity": 1,
          "duration": 0.33333300000003874
        },
        {
          "name": "E4",
          "midi": 64,
          "time": 295.4997045000019,
          "velocity": 1,
          "duration": 0.33333300000003874
        },
        {
          "name": "E3",
          "midi": 52,
          "time": 295.4997045000019,
          "velocity": 1,
          "duration": 0.33333300000003874
        },
        {
          "name": "G#4",
          "midi": 68,
          "time": 295.6663710000019,
          "velocity": 1,
          "duration": 0.33333300000003874
        },
        {
          "name": "E4",
          "midi": 64,
          "time": 295.8330375000019,
          "velocity": 1,
          "duration": 0.33333300000003874
        },
        {
          "name": "E3",
          "midi": 52,
          "time": 295.8330375000019,
          "velocity": 1,
          "duration": 0.33333300000003874
        },
        {
          "name": "A4",
          "midi": 69,
          "time": 295.99970400000194,
          "velocity": 1,
          "duration": 0.4999995000000581
        },
        {
          "name": "E4",
          "midi": 64,
          "time": 296.16637050000196,
          "velocity": 1,
          "duration": 0.33333300000003874
        },
        {
          "name": "E3",
          "midi": 52,
          "time": 296.16637050000196,
          "velocity": 1,
          "duration": 0.33333300000003874
        },
        {
          "name": "A3",
          "midi": 57,
          "time": 296.333037000002,
          "velocity": 1,
          "duration": 0.33333300000003874
        },
        {
          "name": "E3",
          "midi": 52,
          "time": 296.499703500002,
          "velocity": 1,
          "duration": 0.33333300000003874
        },
        {
          "name": "E4",
          "midi": 64,
          "time": 296.499703500002,
          "velocity": 1,
          "duration": 0.33333300000003874
        },
        {
          "name": "B4",
          "midi": 71,
          "time": 296.499703500002,
          "velocity": 1,
          "duration": 0.16666650000001937
        },
        {
          "name": "A3",
          "midi": 57,
          "time": 296.666370000002,
          "velocity": 1,
          "duration": 0.33333300000003874
        },
        {
          "name": "C5",
          "midi": 72,
          "time": 296.666370000002,
          "velocity": 1,
          "duration": 0.33333300000003874
        },
        {
          "name": "E4",
          "midi": 64,
          "time": 296.83303650000204,
          "velocity": 1,
          "duration": 0.33333300000003874
        },
        {
          "name": "E3",
          "midi": 52,
          "time": 296.83303650000204,
          "velocity": 1,
          "duration": 0.4999995000000581
        },
        {
          "name": "B4",
          "midi": 71,
          "time": 296.99970300000206,
          "velocity": 1,
          "duration": 0.33333300000003874
        },
        {
          "name": "E5",
          "midi": 76,
          "time": 297.1663695000021,
          "velocity": 1,
          "duration": 0.6666660000000775
        },
        {
          "name": "E4",
          "midi": 64,
          "time": 297.1663695000021,
          "velocity": 1,
          "duration": 0.33333300000003874
        },
        {
          "name": "E4",
          "midi": 64,
          "time": 297.4997025000021,
          "velocity": 1,
          "duration": 0.33333300000003874
        },
        {
          "name": "D#5",
          "midi": 75,
          "time": 297.66636900000213,
          "velocity": 1,
          "duration": 0.33333300000003874
        },
        {
          "name": "E5",
          "midi": 76,
          "time": 297.83303550000215,
          "velocity": 1,
          "duration": 0.6666660000000775
        },
        {
          "name": "E4",
          "midi": 64,
          "time": 297.83303550000215,
          "velocity": 1,
          "duration": 0.33333300000003874
        },
        {
          "name": "E4",
          "midi": 64,
          "time": 298.1663685000022,
          "velocity": 1,
          "duration": 0.33333300000003874
        },
        {
          "name": "E3",
          "midi": 52,
          "time": 298.3330350000022,
          "velocity": 1,
          "duration": 0.33333300000003874
        },
        {
          "name": "D5",
          "midi": 74,
          "time": 298.49970150000223,
          "velocity": 1,
          "duration": 0.16666650000001937
        },
        {
          "name": "E5",
          "midi": 76,
          "time": 298.49970150000223,
          "velocity": 1,
          "duration": 0.33333300000003874
        },
        {
          "name": "E4",
          "midi": 64,
          "time": 298.49970150000223,
          "velocity": 1,
          "duration": 0.33333300000003874
        },
        {
          "name": "E3",
          "midi": 52,
          "time": 298.66636800000225,
          "velocity": 1,
          "duration": 0.33333300000003874
        },
        {
          "name": "C5",
          "midi": 72,
          "time": 298.66636800000225,
          "velocity": 1,
          "duration": 0.16666650000001937
        },
        {
          "name": "E4",
          "midi": 64,
          "time": 298.83303450000227,
          "velocity": 1,
          "duration": 0.33333300000003874
        },
        {
          "name": "E5",
          "midi": 76,
          "time": 298.83303450000227,
          "velocity": 1,
          "duration": 0.33333300000003874
        },
        {
          "name": "B4",
          "midi": 71,
          "time": 298.83303450000227,
          "velocity": 1,
          "duration": 0.16666650000001937
        },
        {
          "name": "A3",
          "midi": 57,
          "time": 298.9997010000023,
          "velocity": 1,
          "duration": 0.33333300000003874
        },
        {
          "name": "C5",
          "midi": 72,
          "time": 298.9997010000023,
          "velocity": 1,
          "duration": 0.33333300000003874
        },
        {
          "name": "E4",
          "midi": 64,
          "time": 299.1663675000023,
          "velocity": 1,
          "duration": 0.33333300000003874
        },
        {
          "name": "E3",
          "midi": 52,
          "time": 299.1663675000023,
          "velocity": 1,
          "duration": 0.33333300000003874
        },
        {
          "name": "A4",
          "midi": 69,
          "time": 299.3330340000023,
          "velocity": 1,
          "duration": 0.33333300000003874
        },
        {
          "name": "E4",
          "midi": 64,
          "time": 299.49970050000235,
          "velocity": 1,
          "duration": 0.33333300000003874
        },
        {
          "name": "E3",
          "midi": 52,
          "time": 299.49970050000235,
          "velocity": 1,
          "duration": 0.33333300000003874
        },
        {
          "name": "G#4",
          "midi": 68,
          "time": 299.66636700000237,
          "velocity": 1,
          "duration": 0.33333300000003874
        },
        {
          "name": "E4",
          "midi": 64,
          "time": 299.8330335000024,
          "velocity": 1,
          "duration": 0.33333300000003874
        },
        {
          "name": "E3",
          "midi": 52,
          "time": 299.8330335000024,
          "velocity": 1,
          "duration": 0.33333300000003874
        },
        {
          "name": "A4",
          "midi": 69,
          "time": 299.9997000000024,
          "velocity": 1,
          "duration": 0.4999995000000581
        },
        {
          "name": "E4",
          "midi": 64,
          "time": 300.1663665000024,
          "velocity": 1,
          "duration": 0.33333300000003874
        },
        {
          "name": "E3",
          "midi": 52,
          "time": 300.1663665000024,
          "velocity": 1,
          "duration": 0.33333300000003874
        },
        {
          "name": "A3",
          "midi": 57,
          "time": 300.33303300000244,
          "velocity": 1,
          "duration": 0.33333300000003874
        },
        {
          "name": "B4",
          "midi": 71,
          "time": 300.49969950000246,
          "velocity": 1,
          "duration": 0.16666650000001937
        },
        {
          "name": "E4",
          "midi": 64,
          "time": 300.49969950000246,
          "velocity": 1,
          "duration": 0.33333300000003874
        },
        {
          "name": "E3",
          "midi": 52,
          "time": 300.49969950000246,
          "velocity": 1,
          "duration": 0.33333300000003874
        },
        {
          "name": "A3",
          "midi": 57,
          "time": 300.6663660000025,
          "velocity": 1,
          "duration": 0.33333300000003874
        },
        {
          "name": "C5",
          "midi": 72,
          "time": 300.6663660000025,
          "velocity": 1,
          "duration": 0.33333300000003874
        },
        {
          "name": "E4",
          "midi": 64,
          "time": 300.8330325000025,
          "velocity": 1,
          "duration": 0.33333300000003874
        },
        {
          "name": "E3",
          "midi": 52,
          "time": 300.8330325000025,
          "velocity": 1,
          "duration": 0.4999995000000581
        },
        {
          "name": "B4",
          "midi": 71,
          "time": 300.9996990000025,
          "velocity": 1,
          "duration": 0.33333300000003874
        },
        {
          "name": "E5",
          "midi": 76,
          "time": 301.16636550000254,
          "velocity": 1,
          "duration": 0.6666660000000775
        },
        {
          "name": "E4",
          "midi": 64,
          "time": 301.16636550000254,
          "velocity": 1,
          "duration": 0.33333300000003874
        },
        {
          "name": "E4",
          "midi": 64,
          "time": 301.4996985000026,
          "velocity": 1,
          "duration": 0.33333300000003874
        },
        {
          "name": "D#5",
          "midi": 75,
          "time": 301.6663650000026,
          "velocity": 1,
          "duration": 0.33333300000003874
        },
        {
          "name": "E5",
          "midi": 76,
          "time": 301.8330315000026,
          "velocity": 1,
          "duration": 0.33333300000003874
        },
        {
          "name": "E4",
          "midi": 64,
          "time": 301.8330315000026,
          "velocity": 1,
          "duration": 0.33333300000003874
        },
        {
          "name": "E3",
          "midi": 52,
          "time": 302.16636450000266,
          "velocity": 1,
          "duration": 0.16666650000001937
        },
        {
          "name": "E5",
          "midi": 76,
          "time": 302.16636450000266,
          "velocity": 1,
          "duration": 0.16666650000001937
        },
        {
          "name": "E4",
          "midi": 64,
          "time": 302.16636450000266,
          "velocity": 1,
          "duration": 0.16666650000001937
        },
        {
          "name": "G3",
          "midi": 55,
          "time": 302.3330310000027,
          "velocity": 1,
          "duration": 0.16666650000001937
        },
        {
          "name": "G4",
          "midi": 67,
          "time": 302.3330310000027,
          "velocity": 1,
          "duration": 0.16666650000001937
        },
        {
          "name": "G5",
          "midi": 79,
          "time": 302.3330310000027,
          "velocity": 1,
          "duration": 0.16666650000001937
        },
        {
          "name": "F3",
          "midi": 53,
          "time": 302.4996975000027,
          "velocity": 1,
          "duration": 0.16666650000001937
        },
        {
          "name": "F4",
          "midi": 65,
          "time": 302.4996975000027,
          "velocity": 1,
          "duration": 0.16666650000001937
        },
        {
          "name": "F5",
          "midi": 77,
          "time": 302.4996975000027,
          "velocity": 1,
          "duration": 0.16666650000001937
        },
        {
          "name": "E3",
          "midi": 52,
          "time": 302.6663640000027,
          "velocity": 1,
          "duration": 0.16666650000001937
        },
        {
          "name": "E5",
          "midi": 76,
          "time": 302.6663640000027,
          "velocity": 1,
          "duration": 0.16666650000001937
        },
        {
          "name": "E4",
          "midi": 64,
          "time": 302.6663640000027,
          "velocity": 1,
          "duration": 0.16666650000001937
        },
        {
          "name": "D3",
          "midi": 50,
          "time": 302.83303050000274,
          "velocity": 1,
          "duration": 0.16666650000001937
        },
        {
          "name": "D4",
          "midi": 62,
          "time": 302.83303050000274,
          "velocity": 1,
          "duration": 0.16666650000001937
        },
        {
          "name": "D5",
          "midi": 74,
          "time": 302.83303050000274,
          "velocity": 1,
          "duration": 0.16666650000001937
        },
        {
          "name": "C3",
          "midi": 48,
          "time": 302.99969700000275,
          "velocity": 1,
          "duration": 0.6666660000000206
        },
        {
          "name": "C5",
          "midi": 72,
          "time": 302.99969700000275,
          "velocity": 1,
          "duration": 0.08333325000000968
        },
        {
          "name": "C4",
          "midi": 60,
          "time": 302.99969700000275,
          "velocity": 1,
          "duration": 0.08333325000000968
        },
        {
          "name": "C4",
          "midi": 60,
          "time": 303.08303025000276,
          "velocity": 1,
          "duration": 0.08333325000000968
        },
        {
          "name": "C4",
          "midi": 60,
          "time": 303.1663635000028,
          "velocity": 1,
          "duration": 0.08333325000000968
        },
        {
          "name": "C4",
          "midi": 60,
          "time": 303.2496967500028,
          "velocity": 1,
          "duration": 0.08333325000000968
        },
        {
          "name": "C4",
          "midi": 60,
          "time": 303.3330300000028,
          "velocity": 1,
          "duration": 0.3333329999999819
        },
        {
          "name": "E3",
          "midi": 52,
          "time": 303.6663630000028,
          "velocity": 1,
          "duration": 0.3333329999999819
        },
        {
          "name": "E4",
          "midi": 64,
          "time": 303.6663630000028,
          "velocity": 1,
          "duration": 0.3333329999999819
        },
        {
          "name": "C4",
          "midi": 60,
          "time": 303.99969600000276,
          "velocity": 1,
          "duration": 0.6666660000000206
        },
        {
          "name": "C3",
          "midi": 48,
          "time": 303.99969600000276,
          "velocity": 1,
          "duration": 0.6666660000000206
        },
        {
          "name": "G2",
          "midi": 43,
          "time": 304.6663620000028,
          "velocity": 1,
          "duration": 0.3333329999999819
        },
        {
          "name": "G3",
          "midi": 55,
          "time": 304.6663620000028,
          "velocity": 1,
          "duration": 0.3333329999999819
        },
        {
          "name": "C3",
          "midi": 48,
          "time": 304.99969500000276,
          "velocity": 1,
          "duration": 0.3333329999999819
        },
        {
          "name": "C4",
          "midi": 60,
          "time": 304.99969500000276,
          "velocity": 1,
          "duration": 0.3333329999999819
        },
        {
          "name": "E4",
          "midi": 64,
          "time": 305.33302800000274,
          "velocity": 1,
          "duration": 0.3333329999999819
        },
        {
          "name": "E3",
          "midi": 52,
          "time": 305.33302800000274,
          "velocity": 1,
          "duration": 0.3333329999999819
        },
        {
          "name": "G3",
          "midi": 55,
          "time": 305.6663610000027,
          "velocity": 1,
          "duration": 0.3333329999999819
        },
        {
          "name": "G4",
          "midi": 67,
          "time": 305.6663610000027,
          "velocity": 1,
          "duration": 0.3333329999999819
        },
        {
          "name": "C3",
          "midi": 48,
          "time": 305.9996940000027,
          "velocity": 1,
          "duration": 0.6666660000000206
        },
        {
          "name": "C4",
          "midi": 60,
          "time": 305.9996940000027,
          "velocity": 1,
          "duration": 0.6666660000000206
        },
        {
          "name": "G3",
          "midi": 55,
          "time": 306.6663600000027,
          "velocity": 1,
          "duration": 0.3333329999999819
        },
        {
          "name": "G2",
          "midi": 43,
          "time": 306.6663600000027,
          "velocity": 1,
          "duration": 0.3333329999999819
        },
        {
          "name": "C4",
          "midi": 60,
          "time": 306.9996930000027,
          "velocity": 1,
          "duration": 0.33333300000003874
        },
        {
          "name": "C3",
          "midi": 48,
          "time": 306.9996930000027,
          "velocity": 1,
          "duration": 0.33333300000003874
        },
        {
          "name": "E4",
          "midi": 64,
          "time": 307.0830262500027,
          "velocity": 1,
          "duration": 0.08333325000000968
        },
        {
          "name": "G3",
          "midi": 55,
          "time": 307.0830262500027,
          "velocity": 1,
          "duration": 0.08333325000000968
        },
        {
          "name": "E4",
          "midi": 64,
          "time": 307.1663595000027,
          "velocity": 1,
          "duration": 0.08333325000000968
        },
        {
          "name": "G3",
          "midi": 55,
          "time": 307.1663595000027,
          "velocity": 1,
          "duration": 0.08333325000000968
        },
        {
          "name": "E4",
          "midi": 64,
          "time": 307.24969275000274,
          "velocity": 1,
          "duration": 0.08333325000000968
        },
        {
          "name": "G3",
          "midi": 55,
          "time": 307.24969275000274,
          "velocity": 1,
          "duration": 0.08333325000000968
        },
        {
          "name": "E3",
          "midi": 52,
          "time": 307.33302600000275,
          "velocity": 1,
          "duration": 0.33333300000003874
        },
        {
          "name": "G3",
          "midi": 55,
          "time": 307.33302600000275,
          "velocity": 1,
          "duration": 0.08333325000000968
        },
        {
          "name": "E4",
          "midi": 64,
          "time": 307.33302600000275,
          "velocity": 1,
          "duration": 0.08333325000000968
        },
        {
          "name": "E4",
          "midi": 64,
          "time": 307.41635925000276,
          "velocity": 1,
          "duration": 0.08333325000000968
        },
        {
          "name": "G3",
          "midi": 55,
          "time": 307.41635925000276,
          "velocity": 1,
          "duration": 0.08333325000000968
        },
        {
          "name": "E4",
          "midi": 64,
          "time": 307.49969250000277,
          "velocity": 1,
          "duration": 0.08333325000000968
        },
        {
          "name": "G3",
          "midi": 55,
          "time": 307.49969250000277,
          "velocity": 1,
          "duration": 0.08333325000000968
        },
        {
          "name": "E4",
          "midi": 64,
          "time": 307.5830257500028,
          "velocity": 1,
          "duration": 0.08333325000000968
        },
        {
          "name": "G3",
          "midi": 55,
          "time": 307.5830257500028,
          "velocity": 1,
          "duration": 0.08333325000000968
        },
        {
          "name": "G3",
          "midi": 55,
          "time": 307.6663590000028,
          "velocity": 1,
          "duration": 0.33333300000003874
        },
        {
          "name": "E4",
          "midi": 64,
          "time": 307.6663590000028,
          "velocity": 1,
          "duration": 0.08333325000000968
        },
        {
          "name": "G4",
          "midi": 67,
          "time": 307.6663590000028,
          "velocity": 1,
          "duration": 0.08333325000000968
        },
        {
          "name": "G4",
          "midi": 67,
          "time": 307.7496922500028,
          "velocity": 1,
          "duration": 0.08333325000000968
        },
        {
          "name": "E4",
          "midi": 64,
          "time": 307.7496922500028,
          "velocity": 1,
          "duration": 0.08333325000000968
        },
        {
          "name": "G4",
          "midi": 67,
          "time": 307.8330255000028,
          "velocity": 1,
          "duration": 0.08333325000000968
        },
        {
          "name": "E4",
          "midi": 64,
          "time": 307.8330255000028,
          "velocity": 1,
          "duration": 0.08333325000000968
        },
        {
          "name": "G4",
          "midi": 67,
          "time": 307.9163587500028,
          "velocity": 1,
          "duration": 0.08333325000000968
        },
        {
          "name": "E4",
          "midi": 64,
          "time": 307.9163587500028,
          "velocity": 1,
          "duration": 0.08333325000000968
        },
        {
          "name": "C4",
          "midi": 60,
          "time": 307.9996920000028,
          "velocity": 1,
          "duration": 0.33333300000003874
        },
        {
          "name": "G3",
          "midi": 55,
          "time": 307.9996920000028,
          "velocity": 1,
          "duration": 0.08333325000000968
        },
        {
          "name": "E4",
          "midi": 64,
          "time": 307.9996920000028,
          "velocity": 1,
          "duration": 0.08333325000000968
        },
        {
          "name": "C5",
          "midi": 72,
          "time": 307.9996920000028,
          "velocity": 1,
          "duration": 0.08333325000000968
        },
        {
          "name": "C5",
          "midi": 72,
          "time": 308.08302525000283,
          "velocity": 1,
          "duration": 0.08333325000000968
        },
        {
          "name": "E4",
          "midi": 64,
          "time": 308.08302525000283,
          "velocity": 1,
          "duration": 0.08333325000000968
        },
        {
          "name": "G3",
          "midi": 55,
          "time": 308.08302525000283,
          "velocity": 1,
          "duration": 0.08333325000000968
        },
        {
          "name": "C5",
          "midi": 72,
          "time": 308.16635850000284,
          "velocity": 1,
          "duration": 0.08333325000000968
        },
        {
          "name": "E4",
          "midi": 64,
          "time": 308.16635850000284,
          "velocity": 1,
          "duration": 0.08333325000000968
        },
        {
          "name": "G3",
          "midi": 55,
          "time": 308.16635850000284,
          "velocity": 1,
          "duration": 0.08333325000000968
        },
        {
          "name": "C5",
          "midi": 72,
          "time": 308.24969175000285,
          "velocity": 1,
          "duration": 0.08333325000000968
        },
        {
          "name": "E4",
          "midi": 64,
          "time": 308.24969175000285,
          "velocity": 1,
          "duration": 0.08333325000000968
        },
        {
          "name": "G3",
          "midi": 55,
          "time": 308.24969175000285,
          "velocity": 1,
          "duration": 0.08333325000000968
        },
        {
          "name": "E4",
          "midi": 64,
          "time": 308.33302500000286,
          "velocity": 1,
          "duration": 0.33333300000003874
        },
        {
          "name": "G3",
          "midi": 55,
          "time": 308.33302500000286,
          "velocity": 1,
          "duration": 0.08333325000000968
        },
        {
          "name": "E5",
          "midi": 76,
          "time": 308.33302500000286,
          "velocity": 1,
          "duration": 0.08333325000000968
        },
        {
          "name": "E5",
          "midi": 76,
          "time": 308.4163582500029,
          "velocity": 1,
          "duration": 0.08333325000000968
        },
        {
          "name": "G3",
          "midi": 55,
          "time": 308.4163582500029,
          "velocity": 1,
          "duration": 0.08333325000000968
        },
        {
          "name": "E5",
          "midi": 76,
          "time": 308.4996915000029,
          "velocity": 1,
          "duration": 0.08333325000000968
        },
        {
          "name": "G3",
          "midi": 55,
          "time": 308.4996915000029,
          "velocity": 1,
          "duration": 0.08333325000000968
        },
        {
          "name": "G3",
          "midi": 55,
          "time": 308.5830247500029,
          "velocity": 1,
          "duration": 0.08333325000000968
        },
        {
          "name": "E5",
          "midi": 76,
          "time": 308.5830247500029,
          "velocity": 1,
          "duration": 0.08333325000000968
        },
        {
          "name": "G4",
          "midi": 67,
          "time": 308.6663580000029,
          "velocity": 1,
          "duration": 0.4999995000000581
        },
        {
          "name": "G5",
          "midi": 79,
          "time": 308.6663580000029,
          "velocity": 1,
          "duration": 0.08333325000000968
        },
        {
          "name": "E4",
          "midi": 64,
          "time": 308.6663580000029,
          "velocity": 1,
          "duration": 0.08333325000000968
        },
        {
          "name": "G3",
          "midi": 55,
          "time": 308.6663580000029,
          "velocity": 1,
          "duration": 0.08333325000000968
        },
        {
          "name": "G3",
          "midi": 55,
          "time": 308.7496912500029,
          "velocity": 1,
          "duration": 0.08333325000000968
        },
        {
          "name": "E4",
          "midi": 64,
          "time": 308.7496912500029,
          "velocity": 1,
          "duration": 0.08333325000000968
        },
        {
          "name": "G5",
          "midi": 79,
          "time": 308.7496912500029,
          "velocity": 1,
          "duration": 0.08333325000000968
        },
        {
          "name": "G5",
          "midi": 79,
          "time": 308.8330245000029,
          "velocity": 1,
          "duration": 0.08333325000000968
        },
        {
          "name": "E4",
          "midi": 64,
          "time": 308.8330245000029,
          "velocity": 1,
          "duration": 0.08333325000000968
        },
        {
          "name": "G3",
          "midi": 55,
          "time": 308.8330245000029,
          "velocity": 1,
          "duration": 0.08333325000000968
        },
        {
          "name": "G5",
          "midi": 79,
          "time": 308.91635775000293,
          "velocity": 1,
          "duration": 0.08333325000000968
        },
        {
          "name": "E4",
          "midi": 64,
          "time": 308.91635775000293,
          "velocity": 1,
          "duration": 0.08333325000000968
        },
        {
          "name": "G3",
          "midi": 55,
          "time": 308.91635775000293,
          "velocity": 1,
          "duration": 0.08333325000000968
        },
        {
          "name": "G5",
          "midi": 79,
          "time": 308.99969100000294,
          "velocity": 1,
          "duration": 0.08333325000000968
        },
        {
          "name": "F4",
          "midi": 65,
          "time": 308.99969100000294,
          "velocity": 1,
          "duration": 0.08333325000000968
        },
        {
          "name": "G3",
          "midi": 55,
          "time": 308.99969100000294,
          "velocity": 1,
          "duration": 0.08333325000000968
        },
        {
          "name": "G3",
          "midi": 55,
          "time": 309.08302425000295,
          "velocity": 1,
          "duration": 0.08333325000000968
        },
        {
          "name": "F4",
          "midi": 65,
          "time": 309.08302425000295,
          "velocity": 1,
          "duration": 0.08333325000000968
        },
        {
          "name": "G5",
          "midi": 79,
          "time": 309.08302425000295,
          "velocity": 1,
          "duration": 0.08333325000000968
        },
        {
          "name": "F4",
          "midi": 65,
          "time": 309.16635750000296,
          "velocity": 1,
          "duration": 0.16666650000001937
        },
        {
          "name": "F5",
          "midi": 77,
          "time": 309.16635750000296,
          "velocity": 1,
          "duration": 0.08333325000000968
        },
        {
          "name": "G3",
          "midi": 55,
          "time": 309.16635750000296,
          "velocity": 1,
          "duration": 0.08333325000000968
        },
        {
          "name": "G3",
          "midi": 55,
          "time": 309.24969075000297,
          "velocity": 1,
          "duration": 0.08333325000000968
        },
        {
          "name": "F5",
          "midi": 77,
          "time": 309.24969075000297,
          "velocity": 1,
          "duration": 0.08333325000000968
        },
        {
          "name": "D4",
          "midi": 62,
          "time": 309.333024000003,
          "velocity": 1,
          "duration": 0.16666650000001937
        },
        {
          "name": "D5",
          "midi": 74,
          "time": 309.333024000003,
          "velocity": 1,
          "duration": 0.08333325000000968
        },
        {
          "name": "F4",
          "midi": 65,
          "time": 309.333024000003,
          "velocity": 1,
          "duration": 0.08333325000000968
        },
        {
          "name": "G3",
          "midi": 55,
          "time": 309.333024000003,
          "velocity": 1,
          "duration": 0.08333325000000968
        },
        {
          "name": "G3",
          "midi": 55,
          "time": 309.416357250003,
          "velocity": 1,
          "duration": 0.08333325000000968
        },
        {
          "name": "F4",
          "midi": 65,
          "time": 309.416357250003,
          "velocity": 1,
          "duration": 0.08333325000000968
        },
        {
          "name": "D5",
          "midi": 74,
          "time": 309.416357250003,
          "velocity": 1,
          "duration": 0.08333325000000968
        },
        {
          "name": "B3",
          "midi": 59,
          "time": 309.499690500003,
          "velocity": 1,
          "duration": 0.16666650000001937
        },
        {
          "name": "B4",
          "midi": 71,
          "time": 309.499690500003,
          "velocity": 1,
          "duration": 0.08333325000000968
        },
        {
          "name": "F4",
          "midi": 65,
          "time": 309.499690500003,
          "velocity": 1,
          "duration": 0.08333325000000968
        },
        {
          "name": "G3",
          "midi": 55,
          "time": 309.499690500003,
          "velocity": 1,
          "duration": 0.08333325000000968
        },
        {
          "name": "B4",
          "midi": 71,
          "time": 309.583023750003,
          "velocity": 1,
          "duration": 0.08333325000000968
        },
        {
          "name": "F4",
          "midi": 65,
          "time": 309.583023750003,
          "velocity": 1,
          "duration": 0.08333325000000968
        },
        {
          "name": "G3",
          "midi": 55,
          "time": 309.583023750003,
          "velocity": 1,
          "duration": 0.08333325000000968
        },
        {
          "name": "G3",
          "midi": 55,
          "time": 309.666357000003,
          "velocity": 1,
          "duration": 0.16666650000001937
        },
        {
          "name": "F4",
          "midi": 65,
          "time": 309.666357000003,
          "velocity": 1,
          "duration": 0.08333325000000968
        },
        {
          "name": "G4",
          "midi": 67,
          "time": 309.666357000003,
          "velocity": 1,
          "duration": 0.08333325000000968
        },
        {
          "name": "G4",
          "midi": 67,
          "time": 309.749690250003,
          "velocity": 1,
          "duration": 0.08333325000000968
        },
        {
          "name": "F4",
          "midi": 65,
          "time": 309.749690250003,
          "velocity": 1,
          "duration": 0.08333325000000968
        },
        {
          "name": "F3",
          "midi": 53,
          "time": 309.83302350000304,
          "velocity": 1,
          "duration": 0.16666650000001937
        },
        {
          "name": "G3",
          "midi": 55,
          "time": 309.83302350000304,
          "velocity": 1,
          "duration": 0.08333325000000968
        },
        {
          "name": "F4",
          "midi": 65,
          "time": 309.83302350000304,
          "velocity": 1,
          "duration": 0.08333325000000968
        },
        {
          "name": "F4",
          "midi": 65,
          "time": 309.91635675000305,
          "velocity": 1,
          "duration": 0.08333325000000968
        },
        {
          "name": "G3",
          "midi": 55,
          "time": 309.91635675000305,
          "velocity": 1,
          "duration": 0.08333325000000968
        },
        {
          "name": "D3",
          "midi": 50,
          "time": 309.99969000000306,
          "velocity": 1,
          "duration": 0.16666650000001937
        },
        {
          "name": "G3",
          "midi": 55,
          "time": 309.99969000000306,
          "velocity": 1,
          "duration": 0.08333325000000968
        },
        {
          "name": "F4",
          "midi": 65,
          "time": 309.99969000000306,
          "velocity": 1,
          "duration": 0.08333325000000968
        },
        {
          "name": "D4",
          "midi": 62,
          "time": 309.99969000000306,
          "velocity": 1,
          "duration": 0.08333325000000968
        },
        {
          "name": "D4",
          "midi": 62,
          "time": 310.08302325000307,
          "velocity": 1,
          "duration": 0.08333325000000968
        },
        {
          "name": "F4",
          "midi": 65,
          "time": 310.08302325000307,
          "velocity": 1,
          "duration": 0.08333325000000968
        },
        {
          "name": "G3",
          "midi": 55,
          "time": 310.08302325000307,
          "velocity": 1,
          "duration": 0.08333325000000968
        },
        {
          "name": "F4",
          "midi": 65,
          "time": 310.1663565000031,
          "velocity": 1,
          "duration": 0.16666650000001937
        },
        {
          "name": "G3",
          "midi": 55,
          "time": 310.1663565000031,
          "velocity": 1,
          "duration": 0.08333325000000968
        },
        {
          "name": "F3",
          "midi": 53,
          "time": 310.1663565000031,
          "velocity": 1,
          "duration": 0.16666650000001937
        },
        {
          "name": "G3",
          "midi": 55,
          "time": 310.2496897500031,
          "velocity": 1,
          "duration": 0.08333325000000968
        },
        {
          "name": "D4",
          "midi": 62,
          "time": 310.3330230000031,
          "velocity": 1,
          "duration": 0.16666650000001937
        },
        {
          "name": "G3",
          "midi": 55,
          "time": 310.3330230000031,
          "velocity": 1,
          "duration": 0.08333325000000968
        },
        {
          "name": "F4",
          "midi": 65,
          "time": 310.3330230000031,
          "velocity": 1,
          "duration": 0.08333325000000968
        },
        {
          "name": "D3",
          "midi": 50,
          "time": 310.3330230000031,
          "velocity": 1,
          "duration": 0.16666650000001937
        },
        {
          "name": "F4",
          "midi": 65,
          "time": 310.4163562500031,
          "velocity": 1,
          "duration": 0.08333325000000968
        },
        {
          "name": "G3",
          "midi": 55,
          "time": 310.4163562500031,
          "velocity": 1,
          "duration": 0.08333325000000968
        },
        {
          "name": "B2",
          "midi": 47,
          "time": 310.4996895000031,
          "velocity": 1,
          "duration": 0.16666650000001937
        },
        {
          "name": "B3",
          "midi": 59,
          "time": 310.4996895000031,
          "velocity": 1,
          "duration": 0.16666650000001937
        },
        {
          "name": "F4",
          "midi": 65,
          "time": 310.4996895000031,
          "velocity": 1,
          "duration": 0.08333325000000968
        },
        {
          "name": "G3",
          "midi": 55,
          "time": 310.4996895000031,
          "velocity": 1,
          "duration": 0.08333325000000968
        },
        {
          "name": "G3",
          "midi": 55,
          "time": 310.5830227500031,
          "velocity": 1,
          "duration": 0.08333325000000968
        },
        {
          "name": "F4",
          "midi": 65,
          "time": 310.5830227500031,
          "velocity": 1,
          "duration": 0.08333325000000968
        },
        {
          "name": "G2",
          "midi": 43,
          "time": 310.66635600000313,
          "velocity": 1,
          "duration": 0.16666650000001937
        },
        {
          "name": "G3",
          "midi": 55,
          "time": 310.66635600000313,
          "velocity": 1,
          "duration": 0.16666650000001937
        },
        {
          "name": "F4",
          "midi": 65,
          "time": 310.66635600000313,
          "velocity": 1,
          "duration": 0.08333325000000968
        },
        {
          "name": "F4",
          "midi": 65,
          "time": 310.74968925000314,
          "velocity": 1,
          "duration": 0.08333325000000968
        },
        {
          "name": "B3",
          "midi": 59,
          "time": 310.83302250000315,
          "velocity": 1,
          "duration": 0.16666650000001937
        },
        {
          "name": "G3",
          "midi": 55,
          "time": 310.83302250000315,
          "velocity": 1,
          "duration": 0.08333325000000968
        },
        {
          "name": "F4",
          "midi": 65,
          "time": 310.83302250000315,
          "velocity": 1,
          "duration": 0.08333325000000968
        },
        {
          "name": "B2",
          "midi": 47,
          "time": 310.83302250000315,
          "velocity": 1,
          "duration": 0.16666650000001937
        },
        {
          "name": "F4",
          "midi": 65,
          "time": 310.91635575000316,
          "velocity": 1,
          "duration": 0.08333325000000968
        },
        {
          "name": "G3",
          "midi": 55,
          "time": 310.91635575000316,
          "velocity": 1,
          "duration": 0.08333325000000968
        },
        {
          "name": "C4",
          "midi": 60,
          "time": 310.9996890000032,
          "velocity": 1,
          "duration": 0.33333300000003874
        },
        {
          "name": "G3",
          "midi": 55,
          "time": 310.9996890000032,
          "velocity": 1,
          "duration": 0.08333325000000968
        },
        {
          "name": "D#4",
          "midi": 63,
          "time": 310.9996890000032,
          "velocity": 1,
          "duration": 0.08333325000000968
        },
        {
          "name": "C3",
          "midi": 48,
          "time": 310.9996890000032,
          "velocity": 1,
          "duration": 0.33333300000003874
        },
        {
          "name": "D#4",
          "midi": 63,
          "time": 311.0830222500032,
          "velocity": 1,
          "duration": 0.08333325000000968
        },
        {
          "name": "G3",
          "midi": 55,
          "time": 311.0830222500032,
          "velocity": 1,
          "duration": 0.08333325000000968
        },
        {
          "name": "D#4",
          "midi": 63,
          "time": 311.1663555000032,
          "velocity": 1,
          "duration": 0.08333325000000968
        },
        {
          "name": "G3",
          "midi": 55,
          "time": 311.1663555000032,
          "velocity": 1,
          "duration": 0.08333325000000968
        },
        {
          "name": "G3",
          "midi": 55,
          "time": 311.2496887500032,
          "velocity": 1,
          "duration": 0.08333325000000968
        },
        {
          "name": "D#4",
          "midi": 63,
          "time": 311.2496887500032,
          "velocity": 1,
          "duration": 0.08333325000000968
        },
        {
          "name": "D#3",
          "midi": 51,
          "time": 311.3330220000032,
          "velocity": 1,
          "duration": 0.33333300000003874
        },
        {
          "name": "D#4",
          "midi": 63,
          "time": 311.3330220000032,
          "velocity": 1,
          "duration": 0.08333325000000968
        },
        {
          "name": "G3",
          "midi": 55,
          "time": 311.3330220000032,
          "velocity": 1,
          "duration": 0.08333325000000968
        },
        {
          "name": "G3",
          "midi": 55,
          "time": 311.4163552500032,
          "velocity": 1,
          "duration": 0.08333325000000968
        },
        {
          "name": "D#4",
          "midi": 63,
          "time": 311.4163552500032,
          "velocity": 1,
          "duration": 0.08333325000000968
        },
        {
          "name": "D#4",
          "midi": 63,
          "time": 311.49968850000323,
          "velocity": 1,
          "duration": 0.08333325000000968
        },
        {
          "name": "G3",
          "midi": 55,
          "time": 311.49968850000323,
          "velocity": 1,
          "duration": 0.08333325000000968
        },
        {
          "name": "D#4",
          "midi": 63,
          "time": 311.58302175000324,
          "velocity": 1,
          "duration": 0.08333325000000968
        },
        {
          "name": "G3",
          "midi": 55,
          "time": 311.58302175000324,
          "velocity": 1,
          "duration": 0.08333325000000968
        },
        {
          "name": "G3",
          "midi": 55,
          "time": 311.66635500000325,
          "velocity": 1,
          "duration": 0.33333300000003874
        },
        {
          "name": "D#4",
          "midi": 63,
          "time": 311.66635500000325,
          "velocity": 1,
          "duration": 0.08333325000000968
        },
        {
          "name": "G4",
          "midi": 67,
          "time": 311.66635500000325,
          "velocity": 1,
          "duration": 0.08333325000000968
        },
        {
          "name": "G4",
          "midi": 67,
          "time": 311.74968825000326,
          "velocity": 1,
          "duration": 0.08333325000000968
        },
        {
          "name": "D#4",
          "midi": 63,
          "time": 311.74968825000326,
          "velocity": 1,
          "duration": 0.08333325000000968
        },
        {
          "name": "G4",
          "midi": 67,
          "time": 311.83302150000327,
          "velocity": 1,
          "duration": 0.08333325000000968
        },
        {
          "name": "D#4",
          "midi": 63,
          "time": 311.83302150000327,
          "velocity": 1,
          "duration": 0.08333325000000968
        },
        {
          "name": "G4",
          "midi": 67,
          "time": 311.9163547500033,
          "velocity": 1,
          "duration": 0.08333325000000968
        },
        {
          "name": "D#4",
          "midi": 63,
          "time": 311.9163547500033,
          "velocity": 1,
          "duration": 0.08333325000000968
        },
        {
          "name": "C4",
          "midi": 60,
          "time": 311.9996880000033,
          "velocity": 1,
          "duration": 0.33333300000003874
        },
        {
          "name": "G3",
          "midi": 55,
          "time": 311.9996880000033,
          "velocity": 1,
          "duration": 0.08333325000000968
        },
        {
          "name": "D#4",
          "midi": 63,
          "time": 311.9996880000033,
          "velocity": 1,
          "duration": 0.08333325000000968
        },
        {
          "name": "C5",
          "midi": 72,
          "time": 311.9996880000033,
          "velocity": 1,
          "duration": 0.08333325000000968
        },
        {
          "name": "C5",
          "midi": 72,
          "time": 312.0830212500033,
          "velocity": 1,
          "duration": 0.08333325000000968
        },
        {
          "name": "D#4",
          "midi": 63,
          "time": 312.0830212500033,
          "velocity": 1,
          "duration": 0.08333325000000968
        },
        {
          "name": "G3",
          "midi": 55,
          "time": 312.0830212500033,
          "velocity": 1,
          "duration": 0.08333325000000968
        },
        {
          "name": "C5",
          "midi": 72,
          "time": 312.1663545000033,
          "velocity": 1,
          "duration": 0.08333325000000968
        },
        {
          "name": "D#4",
          "midi": 63,
          "time": 312.1663545000033,
          "velocity": 1,
          "duration": 0.08333325000000968
        },
        {
          "name": "G3",
          "midi": 55,
          "time": 312.1663545000033,
          "velocity": 1,
          "duration": 0.08333325000000968
        },
        {
          "name": "C5",
          "midi": 72,
          "time": 312.2496877500033,
          "velocity": 1,
          "duration": 0.08333325000000968
        },
        {
          "name": "D#4",
          "midi": 63,
          "time": 312.2496877500033,
          "velocity": 1,
          "duration": 0.08333325000000968
        },
        {
          "name": "G3",
          "midi": 55,
          "time": 312.2496877500033,
          "velocity": 1,
          "duration": 0.08333325000000968
        },
        {
          "name": "D#4",
          "midi": 63,
          "time": 312.3330210000033,
          "velocity": 1,
          "duration": 0.33333300000003874
        },
        {
          "name": "G3",
          "midi": 55,
          "time": 312.3330210000033,
          "velocity": 1,
          "duration": 0.08333325000000968
        },
        {
          "name": "D#5",
          "midi": 75,
          "time": 312.3330210000033,
          "velocity": 1,
          "duration": 0.08333325000000968
        },
        {
          "name": "D#5",
          "midi": 75,
          "time": 312.41635425000334,
          "velocity": 1,
          "duration": 0.08333325000000968
        },
        {
          "name": "G3",
          "midi": 55,
          "time": 312.41635425000334,
          "velocity": 1,
          "duration": 0.08333325000000968
        },
        {
          "name": "D#5",
          "midi": 75,
          "time": 312.49968750000335,
          "velocity": 1,
          "duration": 0.08333325000000968
        },
        {
          "name": "G3",
          "midi": 55,
          "time": 312.49968750000335,
          "velocity": 1,
          "duration": 0.08333325000000968
        },
        {
          "name": "D#5",
          "midi": 75,
          "time": 312.58302075000336,
          "velocity": 1,
          "duration": 0.08333325000000968
        },
        {
          "name": "G3",
          "midi": 55,
          "time": 312.58302075000336,
          "velocity": 1,
          "duration": 0.08333325000000968
        },
        {
          "name": "G4",
          "midi": 67,
          "time": 312.66635400000337,
          "velocity": 1,
          "duration": 0.4999995000000581
        },
        {
          "name": "G3",
          "midi": 55,
          "time": 312.66635400000337,
          "velocity": 1,
          "duration": 0.08333325000000968
        },
        {
          "name": "D#4",
          "midi": 63,
          "time": 312.66635400000337,
          "velocity": 1,
          "duration": 0.08333325000000968
        },
        {
          "name": "G5",
          "midi": 79,
          "time": 312.66635400000337,
          "velocity": 1,
          "duration": 0.08333325000000968
        },
        {
          "name": "G5",
          "midi": 79,
          "time": 312.7496872500034,
          "velocity": 1,
          "duration": 0.08333325000000968
        },
        {
          "name": "D#4",
          "midi": 63,
          "time": 312.7496872500034,
          "velocity": 1,
          "duration": 0.08333325000000968
        },
        {
          "name": "G3",
          "midi": 55,
          "time": 312.7496872500034,
          "velocity": 1,
          "duration": 0.08333325000000968
        },
        {
          "name": "G5",
          "midi": 79,
          "time": 312.8330205000034,
          "velocity": 1,
          "duration": 0.08333325000000968
        },
        {
          "name": "D#4",
          "midi": 63,
          "time": 312.8330205000034,
          "velocity": 1,
          "duration": 0.08333325000000968
        },
        {
          "name": "G3",
          "midi": 55,
          "time": 312.8330205000034,
          "velocity": 1,
          "duration": 0.08333325000000968
        },
        {
          "name": "G5",
          "midi": 79,
          "time": 312.9163537500034,
          "velocity": 1,
          "duration": 0.08333325000000968
        },
        {
          "name": "D#4",
          "midi": 63,
          "time": 312.9163537500034,
          "velocity": 1,
          "duration": 0.08333325000000968
        },
        {
          "name": "G3",
          "midi": 55,
          "time": 312.9163537500034,
          "velocity": 1,
          "duration": 0.08333325000000968
        },
        {
          "name": "G3",
          "midi": 55,
          "time": 312.9996870000034,
          "velocity": 1,
          "duration": 0.08333325000000968
        },
        {
          "name": "F4",
          "midi": 65,
          "time": 312.9996870000034,
          "velocity": 1,
          "duration": 0.08333325000000968
        },
        {
          "name": "G5",
          "midi": 79,
          "time": 312.9996870000034,
          "velocity": 1,
          "duration": 0.08333325000000968
        },
        {
          "name": "G5",
          "midi": 79,
          "time": 313.0830202500034,
          "velocity": 1,
          "duration": 0.08333325000000968
        },
        {
          "name": "F4",
          "midi": 65,
          "time": 313.0830202500034,
          "velocity": 1,
          "duration": 0.08333325000000968
        },
        {
          "name": "G3",
          "midi": 55,
          "time": 313.0830202500034,
          "velocity": 1,
          "duration": 0.08333325000000968
        },
        {
          "name": "F4",
          "midi": 65,
          "time": 313.1663535000034,
          "velocity": 1,
          "duration": 0.16666650000001937
        },
        {
          "name": "G3",
          "midi": 55,
          "time": 313.1663535000034,
          "velocity": 1,
          "duration": 0.08333325000000968
        },
        {
          "name": "F5",
          "midi": 77,
          "time": 313.1663535000034,
          "velocity": 1,
          "duration": 0.08333325000000968
        },
        {
          "name": "F5",
          "midi": 77,
          "time": 313.24968675000343,
          "velocity": 1,
          "duration": 0.08333325000000968
        },
        {
          "name": "G3",
          "midi": 55,
          "time": 313.24968675000343,
          "velocity": 1,
          "duration": 0.08333325000000968
        },
        {
          "name": "D4",
          "midi": 62,
          "time": 313.33302000000344,
          "velocity": 1,
          "duration": 0.16666650000001937
        },
        {
          "name": "G3",
          "midi": 55,
          "time": 313.33302000000344,
          "velocity": 1,
          "duration": 0.08333325000000968
        },
        {
          "name": "F4",
          "midi": 65,
          "time": 313.33302000000344,
          "velocity": 1,
          "duration": 0.08333325000000968
        },
        {
          "name": "D5",
          "midi": 74,
          "time": 313.33302000000344,
          "velocity": 1,
          "duration": 0.08333325000000968
        },
        {
          "name": "D5",
          "midi": 74,
          "time": 313.41635325000345,
          "velocity": 1,
          "duration": 0.08333325000000968
        },
        {
          "name": "F4",
          "midi": 65,
          "time": 313.41635325000345,
          "velocity": 1,
          "duration": 0.08333325000000968
        },
        {
          "name": "G3",
          "midi": 55,
          "time": 313.41635325000345,
          "velocity": 1,
          "duration": 0.08333325000000968
        },
        {
          "name": "B3",
          "midi": 59,
          "time": 313.49968650000346,
          "velocity": 1,
          "duration": 0.16666650000001937
        },
        {
          "name": "G3",
          "midi": 55,
          "time": 313.49968650000346,
          "velocity": 1,
          "duration": 0.08333325000000968
        },
        {
          "name": "F4",
          "midi": 65,
          "time": 313.49968650000346,
          "velocity": 1,
          "duration": 0.08333325000000968
        },
        {
          "name": "B4",
          "midi": 71,
          "time": 313.49968650000346,
          "velocity": 1,
          "duration": 0.08333325000000968
        },
        {
          "name": "B4",
          "midi": 71,
          "time": 313.5830197500035,
          "velocity": 1,
          "duration": 0.08333325000000968
        },
        {
          "name": "F4",
          "midi": 65,
          "time": 313.5830197500035,
          "velocity": 1,
          "duration": 0.08333325000000968
        },
        {
          "name": "G3",
          "midi": 55,
          "time": 313.5830197500035,
          "velocity": 1,
          "duration": 0.08333325000000968
        },
        {
          "name": "G3",
          "midi": 55,
          "time": 313.6663530000035,
          "velocity": 1,
          "duration": 0.16666650000001937
        },
        {
          "name": "F4",
          "midi": 65,
          "time": 313.6663530000035,
          "velocity": 1,
          "duration": 0.08333325000000968
        },
        {
          "name": "G4",
          "midi": 67,
          "time": 313.6663530000035,
          "velocity": 1,
          "duration": 0.08333325000000968
        },
        {
          "name": "G4",
          "midi": 67,
          "time": 313.7496862500035,
          "velocity": 1,
          "duration": 0.08333325000000968
        },
        {
          "name": "F4",
          "midi": 65,
          "time": 313.7496862500035,
          "velocity": 1,
          "duration": 0.08333325000000968
        },
        {
          "name": "F3",
          "midi": 53,
          "time": 313.8330195000035,
          "velocity": 1,
          "duration": 0.16666650000001937
        },
        {
          "name": "G3",
          "midi": 55,
          "time": 313.8330195000035,
          "velocity": 1,
          "duration": 0.08333325000000968
        },
        {
          "name": "F4",
          "midi": 65,
          "time": 313.8330195000035,
          "velocity": 1,
          "duration": 0.08333325000000968
        },
        {
          "name": "F4",
          "midi": 65,
          "time": 313.9163527500035,
          "velocity": 1,
          "duration": 0.08333325000000968
        },
        {
          "name": "G3",
          "midi": 55,
          "time": 313.9163527500035,
          "velocity": 1,
          "duration": 0.08333325000000968
        },
        {
          "name": "D3",
          "midi": 50,
          "time": 313.9996860000035,
          "velocity": 1,
          "duration": 0.16666650000001937
        },
        {
          "name": "G3",
          "midi": 55,
          "time": 313.9996860000035,
          "velocity": 1,
          "duration": 0.08333325000000968
        },
        {
          "name": "F4",
          "midi": 65,
          "time": 313.9996860000035,
          "velocity": 1,
          "duration": 0.08333325000000968
        },
        {
          "name": "D4",
          "midi": 62,
          "time": 313.9996860000035,
          "velocity": 1,
          "duration": 0.08333325000000968
        },
        {
          "name": "D4",
          "midi": 62,
          "time": 314.08301925000353,
          "velocity": 1,
          "duration": 0.08333325000000968
        },
        {
          "name": "F4",
          "midi": 65,
          "time": 314.08301925000353,
          "velocity": 1,
          "duration": 0.08333325000000968
        },
        {
          "name": "G3",
          "midi": 55,
          "time": 314.08301925000353,
          "velocity": 1,
          "duration": 0.08333325000000968
        },
        {
          "name": "F4",
          "midi": 65,
          "time": 314.16635250000354,
          "velocity": 1,
          "duration": 0.16666650000001937
        },
        {
          "name": "G3",
          "midi": 55,
          "time": 314.16635250000354,
          "velocity": 1,
          "duration": 0.08333325000000968
        },
        {
          "name": "F3",
          "midi": 53,
          "time": 314.16635250000354,
          "velocity": 1,
          "duration": 0.16666650000001937
        },
        {
          "name": "G3",
          "midi": 55,
          "time": 314.24968575000355,
          "velocity": 1,
          "duration": 0.08333325000000968
        },
        {
          "name": "D4",
          "midi": 62,
          "time": 314.33301900000356,
          "velocity": 1,
          "duration": 0.16666650000001937
        },
        {
          "name": "G3",
          "midi": 55,
          "time": 314.33301900000356,
          "velocity": 1,
          "duration": 0.08333325000000968
        },
        {
          "name": "F4",
          "midi": 65,
          "time": 314.33301900000356,
          "velocity": 1,
          "duration": 0.08333325000000968
        },
        {
          "name": "D3",
          "midi": 50,
          "time": 314.33301900000356,
          "velocity": 1,
          "duration": 0.16666650000001937
        },
        {
          "name": "F4",
          "midi": 65,
          "time": 314.41635225000357,
          "velocity": 1,
          "duration": 0.08333325000000968
        },
        {
          "name": "G3",
          "midi": 55,
          "time": 314.41635225000357,
          "velocity": 1,
          "duration": 0.08333325000000968
        },
        {
          "name": "B2",
          "midi": 47,
          "time": 314.4996855000036,
          "velocity": 1,
          "duration": 0.16666650000001937
        },
        {
          "name": "B3",
          "midi": 59,
          "time": 314.4996855000036,
          "velocity": 1,
          "duration": 0.16666650000001937
        },
        {
          "name": "F4",
          "midi": 65,
          "time": 314.4996855000036,
          "velocity": 1,
          "duration": 0.08333325000000968
        },
        {
          "name": "G3",
          "midi": 55,
          "time": 314.4996855000036,
          "velocity": 1,
          "duration": 0.08333325000000968
        },
        {
          "name": "G3",
          "midi": 55,
          "time": 314.5830187500036,
          "velocity": 1,
          "duration": 0.08333325000000968
        },
        {
          "name": "F4",
          "midi": 65,
          "time": 314.5830187500036,
          "velocity": 1,
          "duration": 0.08333325000000968
        },
        {
          "name": "G2",
          "midi": 43,
          "time": 314.6663520000036,
          "velocity": 1,
          "duration": 0.16666650000001937
        },
        {
          "name": "G3",
          "midi": 55,
          "time": 314.6663520000036,
          "velocity": 1,
          "duration": 0.16666650000001937
        },
        {
          "name": "F4",
          "midi": 65,
          "time": 314.6663520000036,
          "velocity": 1,
          "duration": 0.08333325000000968
        },
        {
          "name": "F4",
          "midi": 65,
          "time": 314.7496852500036,
          "velocity": 1,
          "duration": 0.08333325000000968
        },
        {
          "name": "B2",
          "midi": 47,
          "time": 314.8330185000036,
          "velocity": 1,
          "duration": 0.16666650000001937
        },
        {
          "name": "B3",
          "midi": 59,
          "time": 314.8330185000036,
          "velocity": 1,
          "duration": 0.16666650000001937
        },
        {
          "name": "F4",
          "midi": 65,
          "time": 314.8330185000036,
          "velocity": 1,
          "duration": 0.08333325000000968
        },
        {
          "name": "G3",
          "midi": 55,
          "time": 314.8330185000036,
          "velocity": 1,
          "duration": 0.08333325000000968
        },
        {
          "name": "G3",
          "midi": 55,
          "time": 314.9163517500036,
          "velocity": 1,
          "duration": 0.08333325000000968
        },
        {
          "name": "F4",
          "midi": 65,
          "time": 314.9163517500036,
          "velocity": 1,
          "duration": 0.08333325000000968
        },
        {
          "name": "C3",
          "midi": 48,
          "time": 314.99968500000364,
          "velocity": 1,
          "duration": 0.3333329999999819
        },
        {
          "name": "C4",
          "midi": 60,
          "time": 314.99968500000364,
          "velocity": 1,
          "duration": 0.3333329999999819
        },
        {
          "name": "D#4",
          "midi": 63,
          "time": 314.99968500000364,
          "velocity": 1,
          "duration": 0.08333325000000968
        },
        {
          "name": "G3",
          "midi": 55,
          "time": 314.99968500000364,
          "velocity": 1,
          "duration": 0.08333325000000968
        },
        {
          "name": "D#3",
          "midi": 51,
          "time": 315.3330180000036,
          "velocity": 1,
          "duration": 0.33333300000003874
        },
        {
          "name": "D#4",
          "midi": 63,
          "time": 315.3330180000036,
          "velocity": 1,
          "duration": 0.08333325000000968
        },
        {
          "name": "D#4",
          "midi": 63,
          "time": 315.41635125000363,
          "velocity": 1,
          "duration": 0.08333325000000968
        },
        {
          "name": "D#4",
          "midi": 63,
          "time": 315.49968450000364,
          "velocity": 1,
          "duration": 0.08333325000000968
        },
        {
          "name": "D#4",
          "midi": 63,
          "time": 315.58301775000365,
          "velocity": 1,
          "duration": 0.08333325000000968
        },
        {
          "name": "G3",
          "midi": 55,
          "time": 315.66635100000366,
          "velocity": 1,
          "duration": 0.33333300000003874
        },
        {
          "name": "G4",
          "midi": 67,
          "time": 315.66635100000366,
          "velocity": 1,
          "duration": 0.08333325000000968
        },
        {
          "name": "G4",
          "midi": 67,
          "time": 315.74968425000367,
          "velocity": 1,
          "duration": 0.08333325000000968
        },
        {
          "name": "G4",
          "midi": 67,
          "time": 315.8330175000037,
          "velocity": 1,
          "duration": 0.08333325000000968
        },
        {
          "name": "G4",
          "midi": 67,
          "time": 315.9163507500037,
          "velocity": 1,
          "duration": 0.08333325000000968
        },
        {
          "name": "G#3",
          "midi": 56,
          "time": 315.9996840000037,
          "velocity": 1,
          "duration": 0.6666660000000775
        },
        {
          "name": "G#4",
          "midi": 68,
          "time": 315.9996840000037,
          "velocity": 1,
          "duration": 0.08333325000000968
        },
        {
          "name": "G#4",
          "midi": 68,
          "time": 316.0830172500037,
          "velocity": 1,
          "duration": 0.08333325000000968
        },
        {
          "name": "G#4",
          "midi": 68,
          "time": 316.1663505000037,
          "velocity": 1,
          "duration": 0.08333325000000968
        },
        {
          "name": "G#4",
          "midi": 68,
          "time": 316.2496837500037,
          "velocity": 1,
          "duration": 0.08333325000000968
        },
        {
          "name": "G#4",
          "midi": 68,
          "time": 316.33301700000374,
          "velocity": 1,
          "duration": 0.08333325000000968
        },
        {
          "name": "G#4",
          "midi": 68,
          "time": 316.41635025000375,
          "velocity": 1,
          "duration": 0.08333325000000968
        },
        {
          "name": "G#4",
          "midi": 68,
          "time": 316.49968350000375,
          "velocity": 1,
          "duration": 0.08333325000000968
        },
        {
          "name": "G#4",
          "midi": 68,
          "time": 316.58301675000376,
          "velocity": 1,
          "duration": 0.08333325000000968
        },
        {
          "name": "C3",
          "midi": 48,
          "time": 316.6663500000038,
          "velocity": 1,
          "duration": 0.33333300000003874
        },
        {
          "name": "C4",
          "midi": 60,
          "time": 316.6663500000038,
          "velocity": 1,
          "duration": 0.08333325000000968
        },
        {
          "name": "C4",
          "midi": 60,
          "time": 316.7496832500038,
          "velocity": 1,
          "duration": 0.08333325000000968
        },
        {
          "name": "C4",
          "midi": 60,
          "time": 316.8330165000038,
          "velocity": 1,
          "duration": 0.08333325000000968
        },
        {
          "name": "C4",
          "midi": 60,
          "time": 316.9163497500038,
          "velocity": 1,
          "duration": 0.08333325000000968
        },
        {
          "name": "C#3",
          "midi": 49,
          "time": 316.9996830000038,
          "velocity": 1,
          "duration": 0.33333300000003874
        },
        {
          "name": "C#4",
          "midi": 61,
          "time": 316.9996830000038,
          "velocity": 1,
          "duration": 0.08333325000000968
        },
        {
          "name": "C#4",
          "midi": 61,
          "time": 317.0830162500038,
          "velocity": 1,
          "duration": 0.08333325000000968
        },
        {
          "name": "C#4",
          "midi": 61,
          "time": 317.16634950000383,
          "velocity": 1,
          "duration": 0.08333325000000968
        },
        {
          "name": "C#4",
          "midi": 61,
          "time": 317.24968275000384,
          "velocity": 1,
          "duration": 0.08333325000000968
        },
        {
          "name": "F3",
          "midi": 53,
          "time": 317.33301600000385,
          "velocity": 1,
          "duration": 0.33333300000003874
        },
        {
          "name": "F4",
          "midi": 65,
          "time": 317.33301600000385,
          "velocity": 1,
          "duration": 0.08333325000000968
        },
        {
          "name": "F4",
          "midi": 65,
          "time": 317.41634925000386,
          "velocity": 1,
          "duration": 0.08333325000000968
        },
        {
          "name": "F4",
          "midi": 65,
          "time": 317.49968250000387,
          "velocity": 1,
          "duration": 0.08333325000000968
        },
        {
          "name": "F4",
          "midi": 65,
          "time": 317.5830157500039,
          "velocity": 1,
          "duration": 0.08333325000000968
        },
        {
          "name": "A3",
          "midi": 57,
          "time": 317.6663490000039,
          "velocity": 1,
          "duration": 0.33333300000003874
        },
        {
          "name": "A4",
          "midi": 69,
          "time": 317.6663490000039,
          "velocity": 1,
          "duration": 0.08333325000000968
        },
        {
          "name": "A4",
          "midi": 69,
          "time": 317.7496822500039,
          "velocity": 1,
          "duration": 0.08333325000000968
        },
        {
          "name": "A4",
          "midi": 69,
          "time": 317.8330155000039,
          "velocity": 1,
          "duration": 0.08333325000000968
        },
        {
          "name": "A4",
          "midi": 69,
          "time": 317.9163487500039,
          "velocity": 1,
          "duration": 0.08333325000000968
        },
        {
          "name": "A#3",
          "midi": 58,
          "time": 317.99968200000393,
          "velocity": 1,
          "duration": 0.6666660000000775
        },
        {
          "name": "A#4",
          "midi": 70,
          "time": 317.99968200000393,
          "velocity": 1,
          "duration": 0.08333325000000968
        },
        {
          "name": "A#4",
          "midi": 70,
          "time": 318.08301525000394,
          "velocity": 1,
          "duration": 0.08333325000000968
        },
        {
          "name": "A#4",
          "midi": 70,
          "time": 318.16634850000395,
          "velocity": 1,
          "duration": 0.08333325000000968
        },
        {
          "name": "A#4",
          "midi": 70,
          "time": 318.24968175000396,
          "velocity": 1,
          "duration": 0.08333325000000968
        },
        {
          "name": "A#4",
          "midi": 70,
          "time": 318.33301500000397,
          "velocity": 1,
          "duration": 0.08333325000000968
        },
        {
          "name": "A#4",
          "midi": 70,
          "time": 318.416348250004,
          "velocity": 1,
          "duration": 0.08333325000000968
        },
        {
          "name": "A#4",
          "midi": 70,
          "time": 318.499681500004,
          "velocity": 1,
          "duration": 0.08333325000000968
        },
        {
          "name": "A#4",
          "midi": 70,
          "time": 318.583014750004,
          "velocity": 1,
          "duration": 0.08333325000000968
        },
        {
          "name": "D3",
          "midi": 50,
          "time": 318.666348000004,
          "velocity": 1,
          "duration": 0.33333300000003874
        },
        {
          "name": "D4",
          "midi": 62,
          "time": 318.666348000004,
          "velocity": 1,
          "duration": 0.08333325000000968
        },
        {
          "name": "D4",
          "midi": 62,
          "time": 318.749681250004,
          "velocity": 1,
          "duration": 0.08333325000000968
        },
        {
          "name": "D4",
          "midi": 62,
          "time": 318.833014500004,
          "velocity": 1,
          "duration": 0.08333325000000968
        },
        {
          "name": "D4",
          "midi": 62,
          "time": 318.91634775000404,
          "velocity": 1,
          "duration": 0.08333325000000968
        },
        {
          "name": "D#3",
          "midi": 51,
          "time": 318.99968100000405,
          "velocity": 1,
          "duration": 0.33333300000003874
        },
        {
          "name": "D#4",
          "midi": 63,
          "time": 318.99968100000405,
          "velocity": 1,
          "duration": 0.08333325000000968
        },
        {
          "name": "D#4",
          "midi": 63,
          "time": 319.08301425000406,
          "velocity": 1,
          "duration": 0.08333325000000968
        },
        {
          "name": "G4",
          "midi": 67,
          "time": 319.08301425000406,
          "velocity": 1,
          "duration": 0.08333325000000968
        },
        {
          "name": "A#3",
          "midi": 58,
          "time": 319.08301425000406,
          "velocity": 1,
          "duration": 0.08333325000000968
        },
        {
          "name": "D#4",
          "midi": 63,
          "time": 319.16634750000406,
          "velocity": 1,
          "duration": 0.08333325000000968
        },
        {
          "name": "G4",
          "midi": 67,
          "time": 319.16634750000406,
          "velocity": 1,
          "duration": 0.08333325000000968
        },
        {
          "name": "A#3",
          "midi": 58,
          "time": 319.16634750000406,
          "velocity": 1,
          "duration": 0.08333325000000968
        },
        {
          "name": "D#4",
          "midi": 63,
          "time": 319.2496807500041,
          "velocity": 1,
          "duration": 0.08333325000000968
        },
        {
          "name": "G4",
          "midi": 67,
          "time": 319.2496807500041,
          "velocity": 1,
          "duration": 0.08333325000000968
        },
        {
          "name": "A#3",
          "midi": 58,
          "time": 319.2496807500041,
          "velocity": 1,
          "duration": 0.08333325000000968
        },
        {
          "name": "G3",
          "midi": 55,
          "time": 319.3330140000041,
          "velocity": 1,
          "duration": 0.33333300000003874
        },
        {
          "name": "A#3",
          "midi": 58,
          "time": 319.3330140000041,
          "velocity": 1,
          "duration": 0.08333325000000968
        },
        {
          "name": "G4",
          "midi": 67,
          "time": 319.3330140000041,
          "velocity": 1,
          "duration": 0.08333325000000968
        },
        {
          "name": "G2",
          "midi": 43,
          "time": 319.3330140000041,
          "velocity": 1,
          "duration": 0.33333300000003874
        },
        {
          "name": "G4",
          "midi": 67,
          "time": 319.4163472500041,
          "velocity": 1,
          "duration": 0.08333325000000968
        },
        {
          "name": "A#3",
          "midi": 58,
          "time": 319.4163472500041,
          "velocity": 1,
          "duration": 0.08333325000000968
        },
        {
          "name": "G4",
          "midi": 67,
          "time": 319.4996805000041,
          "velocity": 1,
          "duration": 0.08333325000000968
        },
        {
          "name": "A#3",
          "midi": 58,
          "time": 319.4996805000041,
          "velocity": 1,
          "duration": 0.08333325000000968
        },
        {
          "name": "G4",
          "midi": 67,
          "time": 319.5830137500041,
          "velocity": 1,
          "duration": 0.08333325000000968
        },
        {
          "name": "A#3",
          "midi": 58,
          "time": 319.5830137500041,
          "velocity": 1,
          "duration": 0.08333325000000968
        },
        {
          "name": "A#3",
          "midi": 58,
          "time": 319.6663470000041,
          "velocity": 1,
          "duration": 0.33333300000003874
        },
        {
          "name": "G4",
          "midi": 67,
          "time": 319.6663470000041,
          "velocity": 1,
          "duration": 0.08333325000000968
        },
        {
          "name": "A#4",
          "midi": 70,
          "time": 319.6663470000041,
          "velocity": 1,
          "duration": 0.08333325000000968
        },
        {
          "name": "A#2",
          "midi": 46,
          "time": 319.6663470000041,
          "velocity": 1,
          "duration": 0.33333300000003874
        },
        {
          "name": "A#4",
          "midi": 70,
          "time": 319.74968025000413,
          "velocity": 1,
          "duration": 0.08333325000000968
        },
        {
          "name": "G4",
          "midi": 67,
          "time": 319.74968025000413,
          "velocity": 1,
          "duration": 0.08333325000000968
        },
        {
          "name": "A#4",
          "midi": 70,
          "time": 319.83301350000414,
          "velocity": 1,
          "duration": 0.08333325000000968
        },
        {
          "name": "G4",
          "midi": 67,
          "time": 319.83301350000414,
          "velocity": 1,
          "duration": 0.08333325000000968
        },
        {
          "name": "A#4",
          "midi": 70,
          "time": 319.91634675000415,
          "velocity": 1,
          "duration": 0.08333325000000968
        },
        {
          "name": "G4",
          "midi": 67,
          "time": 319.91634675000415,
          "velocity": 1,
          "duration": 0.08333325000000968
        },
        {
          "name": "D#4",
          "midi": 63,
          "time": 319.99968000000416,
          "velocity": 1,
          "duration": 0.33333300000003874
        },
        {
          "name": "A#3",
          "midi": 58,
          "time": 319.99968000000416,
          "velocity": 1,
          "duration": 0.08333325000000968
        },
        {
          "name": "G4",
          "midi": 67,
          "time": 319.99968000000416,
          "velocity": 1,
          "duration": 0.08333325000000968
        },
        {
          "name": "D#5",
          "midi": 75,
          "time": 319.99968000000416,
          "velocity": 1,
          "duration": 0.08333325000000968
        },
        {
          "name": "D#3",
          "midi": 51,
          "time": 319.99968000000416,
          "velocity": 1,
          "duration": 0.33333300000003874
        },
        {
          "name": "D#5",
          "midi": 75,
          "time": 320.08301325000417,
          "velocity": 1,
          "duration": 0.08333325000000968
        },
        {
          "name": "G4",
          "midi": 67,
          "time": 320.08301325000417,
          "velocity": 1,
          "duration": 0.08333325000000968
        },
        {
          "name": "A#3",
          "midi": 58,
          "time": 320.08301325000417,
          "velocity": 1,
          "duration": 0.08333325000000968
        },
        {
          "name": "D#5",
          "midi": 75,
          "time": 320.1663465000042,
          "velocity": 1,
          "duration": 0.08333325000000968
        },
        {
          "name": "G4",
          "midi": 67,
          "time": 320.1663465000042,
          "velocity": 1,
          "duration": 0.08333325000000968
        },
        {
          "name": "A#3",
          "midi": 58,
          "time": 320.1663465000042,
          "velocity": 1,
          "duration": 0.08333325000000968
        },
        {
          "name": "D#5",
          "midi": 75,
          "time": 320.2496797500042,
          "velocity": 1,
          "duration": 0.08333325000000968
        },
        {
          "name": "G4",
          "midi": 67,
          "time": 320.2496797500042,
          "velocity": 1,
          "duration": 0.08333325000000968
        },
        {
          "name": "A#3",
          "midi": 58,
          "time": 320.2496797500042,
          "velocity": 1,
          "duration": 0.08333325000000968
        },
        {
          "name": "G4",
          "midi": 67,
          "time": 320.3330130000042,
          "velocity": 1,
          "duration": 0.33333300000003874
        },
        {
          "name": "A#3",
          "midi": 58,
          "time": 320.3330130000042,
          "velocity": 1,
          "duration": 0.08333325000000968
        },
        {
          "name": "G5",
          "midi": 79,
          "time": 320.3330130000042,
          "velocity": 1,
          "duration": 0.08333325000000968
        },
        {
          "name": "G3",
          "midi": 55,
          "time": 320.3330130000042,
          "velocity": 1,
          "duration": 0.33333300000003874
        },
        {
          "name": "G5",
          "midi": 79,
          "time": 320.4163462500042,
          "velocity": 1,
          "duration": 0.08333325000000968
        },
        {
          "name": "A#3",
          "midi": 58,
          "time": 320.4163462500042,
          "velocity": 1,
          "duration": 0.08333325000000968
        },
        {
          "name": "G5",
          "midi": 79,
          "time": 320.4996795000042,
          "velocity": 1,
          "duration": 0.08333325000000968
        },
        {
          "name": "A#3",
          "midi": 58,
          "time": 320.4996795000042,
          "velocity": 1,
          "duration": 0.08333325000000968
        },
        {
          "name": "A#3",
          "midi": 58,
          "time": 320.58301275000423,
          "velocity": 1,
          "duration": 0.08333325000000968
        },
        {
          "name": "G5",
          "midi": 79,
          "time": 320.58301275000423,
          "velocity": 1,
          "duration": 0.08333325000000968
        },
        {
          "name": "A#3",
          "midi": 58,
          "time": 320.66634600000424,
          "velocity": 1,
          "duration": 0.4999995000000581
        },
        {
          "name": "A#5",
          "midi": 82,
          "time": 320.66634600000424,
          "velocity": 1,
          "duration": 0.08333325000000968
        },
        {
          "name": "G4",
          "midi": 67,
          "time": 320.66634600000424,
          "velocity": 1,
          "duration": 0.08333325000000968
        },
        {
          "name": "A#4",
          "midi": 70,
          "time": 320.66634600000424,
          "velocity": 1,
          "duration": 0.4999995000000581
        },
        {
          "name": "G4",
          "midi": 67,
          "time": 320.74967925000425,
          "velocity": 1,
          "duration": 0.08333325000000968
        },
        {
          "name": "A#5",
          "midi": 82,
          "time": 320.74967925000425,
          "velocity": 1,
          "duration": 0.08333325000000968
        },
        {
          "name": "A#5",
          "midi": 82,
          "time": 320.83301250000426,
          "velocity": 1,
          "duration": 0.08333325000000968
        },
        {
          "name": "G4",
          "midi": 67,
          "time": 320.83301250000426,
          "velocity": 1,
          "duration": 0.08333325000000968
        },
        {
          "name": "A#5",
          "midi": 82,
          "time": 320.91634575000427,
          "velocity": 1,
          "duration": 0.08333325000000968
        },
        {
          "name": "G4",
          "midi": 67,
          "time": 320.91634575000427,
          "velocity": 1,
          "duration": 0.08333325000000968
        },
        {
          "name": "A#5",
          "midi": 82,
          "time": 320.9996790000043,
          "velocity": 1,
          "duration": 0.08333325000000968
        },
        {
          "name": "G#4",
          "midi": 68,
          "time": 320.9996790000043,
          "velocity": 1,
          "duration": 0.08333325000000968
        },
        {
          "name": "G#4",
          "midi": 68,
          "time": 321.0830122500043,
          "velocity": 1,
          "duration": 0.08333325000000968
        },
        {
          "name": "A#5",
          "midi": 82,
          "time": 321.0830122500043,
          "velocity": 1,
          "duration": 0.08333325000000968
        },
        {
          "name": "G#3",
          "midi": 56,
          "time": 321.1663455000043,
          "velocity": 1,
          "duration": 0.16666650000001937
        },
        {
          "name": "G#5",
          "midi": 80,
          "time": 321.1663455000043,
          "velocity": 1,
          "duration": 0.08333325000000968
        },
        {
          "name": "G#4",
          "midi": 68,
          "time": 321.1663455000043,
          "velocity": 1,
          "duration": 0.16666650000001937
        },
        {
          "name": "A#3",
          "midi": 58,
          "time": 321.1663455000043,
          "velocity": 1,
          "duration": 0.08333325000000968
        },
        {
          "name": "A#3",
          "midi": 58,
          "time": 321.2496787500043,
          "velocity": 1,
          "duration": 0.08333325000000968
        },
        {
          "name": "G#5",
          "midi": 80,
          "time": 321.2496787500043,
          "velocity": 1,
          "duration": 0.08333325000000968
        },
        {
          "name": "F3",
          "midi": 53,
          "time": 321.3330120000043,
          "velocity": 1,
          "duration": 0.16666650000001937
        },
        {
          "name": "F5",
          "midi": 77,
          "time": 321.3330120000043,
          "velocity": 1,
          "duration": 0.08333325000000968
        },
        {
          "name": "G#4",
          "midi": 68,
          "time": 321.3330120000043,
          "velocity": 1,
          "duration": 0.08333325000000968
        },
        {
          "name": "A#3",
          "midi": 58,
          "time": 321.3330120000043,
          "velocity": 1,
          "duration": 0.08333325000000968
        },
        {
          "name": "F4",
          "midi": 65,
          "time": 321.3330120000043,
          "velocity": 1,
          "duration": 0.16666650000001937
        },
        {
          "name": "A#3",
          "midi": 58,
          "time": 321.4163452500043,
          "velocity": 1,
          "duration": 0.08333325000000968
        },
        {
          "name": "G#4",
          "midi": 68,
          "time": 321.4163452500043,
          "velocity": 1,
          "duration": 0.08333325000000968
        },
        {
          "name": "F5",
          "midi": 77,
          "time": 321.4163452500043,
          "velocity": 1,
          "duration": 0.08333325000000968
        },
        {
          "name": "D3",
          "midi": 50,
          "time": 321.49967850000434,
          "velocity": 1,
          "duration": 0.16666650000001937
        },
        {
          "name": "D5",
          "midi": 74,
          "time": 321.49967850000434,
          "velocity": 1,
          "duration": 0.08333325000000968
        },
        {
          "name": "G#4",
          "midi": 68,
          "time": 321.49967850000434,
          "velocity": 1,
          "duration": 0.08333325000000968
        },
        {
          "name": "A#3",
          "midi": 58,
          "time": 321.49967850000434,
          "velocity": 1,
          "duration": 0.08333325000000968
        },
        {
          "name": "D4",
          "midi": 62,
          "time": 321.49967850000434,
          "velocity": 1,
          "duration": 0.16666650000001937
        },
        {
          "name": "D5",
          "midi": 74,
          "time": 321.58301175000435,
          "velocity": 1,
          "duration": 0.08333325000000968
        },
        {
          "name": "G#4",
          "midi": 68,
          "time": 321.58301175000435,
          "velocity": 1,
          "duration": 0.08333325000000968
        },
        {
          "name": "A#3",
          "midi": 58,
          "time": 321.58301175000435,
          "velocity": 1,
          "duration": 0.08333325000000968
        },
        {
          "name": "A#3",
          "midi": 58,
          "time": 321.66634500000436,
          "velocity": 1,
          "duration": 0.16666650000001937
        },
        {
          "name": "G#4",
          "midi": 68,
          "time": 321.66634500000436,
          "velocity": 1,
          "duration": 0.08333325000000968
        },
        {
          "name": "A#4",
          "midi": 70,
          "time": 321.66634500000436,
          "velocity": 1,
          "duration": 0.08333325000000968
        },
        {
          "name": "A#2",
          "midi": 46,
          "time": 321.66634500000436,
          "velocity": 1,
          "duration": 0.16666650000001937
        },
        {
          "name": "A#4",
          "midi": 70,
          "time": 321.74967825000437,
          "velocity": 1,
          "duration": 0.08333325000000968
        },
        {
          "name": "G#4",
          "midi": 68,
          "time": 321.74967825000437,
          "velocity": 1,
          "duration": 0.08333325000000968
        },
        {
          "name": "G#3",
          "midi": 56,
          "time": 321.8330115000044,
          "velocity": 1,
          "duration": 0.16666650000001937
        },
        {
          "name": "A#3",
          "midi": 58,
          "time": 321.8330115000044,
          "velocity": 1,
          "duration": 0.08333325000000968
        },
        {
          "name": "G#4",
          "midi": 68,
          "time": 321.8330115000044,
          "velocity": 1,
          "duration": 0.08333325000000968
        },
        {
          "name": "G#2",
          "midi": 44,
          "time": 321.8330115000044,
          "velocity": 1,
          "duration": 0.16666650000001937
        },
        {
          "name": "G#4",
          "midi": 68,
          "time": 321.9163447500044,
          "velocity": 1,
          "duration": 0.08333325000000968
        },
        {
          "name": "A#3",
          "midi": 58,
          "time": 321.9163447500044,
          "velocity": 1,
          "duration": 0.08333325000000968
        },
        {
          "name": "F3",
          "midi": 53,
          "time": 321.9996780000044,
          "velocity": 1,
          "duration": 0.16666650000001937
        },
        {
          "name": "A#3",
          "midi": 58,
          "time": 321.9996780000044,
          "velocity": 1,
          "duration": 0.08333325000000968
        },
        {
          "name": "G#4",
          "midi": 68,
          "time": 321.9996780000044,
          "velocity": 1,
          "duration": 0.08333325000000968
        },
        {
          "name": "F4",
          "midi": 65,
          "time": 321.9996780000044,
          "velocity": 1,
          "duration": 0.08333325000000968
        },
        {
          "name": "F2",
          "midi": 41,
          "time": 321.9996780000044,
          "velocity": 1,
          "duration": 0.16666650000001937
        },
        {
          "name": "F4",
          "midi": 65,
          "time": 322.0830112500044,
          "velocity": 1,
          "duration": 0.08333325000000968
        },
        {
          "name": "G#4",
          "midi": 68,
          "time": 322.0830112500044,
          "velocity": 1,
          "duration": 0.08333325000000968
        },
        {
          "name": "A#3",
          "midi": 58,
          "time": 322.0830112500044,
          "velocity": 1,
          "duration": 0.08333325000000968
        },
        {
          "name": "G#4",
          "midi": 68,
          "time": 322.1663445000044,
          "velocity": 1,
          "duration": 0.16666650000001937
        },
        {
          "name": "A#3",
          "midi": 58,
          "time": 322.1663445000044,
          "velocity": 1,
          "duration": 0.08333325000000968
        },
        {
          "name": "G#3",
          "midi": 56,
          "time": 322.1663445000044,
          "velocity": 1,
          "duration": 0.16666650000001937
        },
        {
          "name": "A#3",
          "midi": 58,
          "time": 322.2496777500044,
          "velocity": 1,
          "duration": 0.08333325000000968
        },
        {
          "name": "F4",
          "midi": 65,
          "time": 322.33301100000443,
          "velocity": 1,
          "duration": 0.16666650000001937
        },
        {
          "name": "A#3",
          "midi": 58,
          "time": 322.33301100000443,
          "velocity": 1,
          "duration": 0.08333325000000968
        },
        {
          "name": "G#4",
          "midi": 68,
          "time": 322.33301100000443,
          "velocity": 1,
          "duration": 0.08333325000000968
        },
        {
          "name": "F3",
          "midi": 53,
          "time": 322.33301100000443,
          "velocity": 1,
          "duration": 0.16666650000001937
        },
        {
          "name": "G#4",
          "midi": 68,
          "time": 322.41634425000444,
          "velocity": 1,
          "duration": 0.08333325000000968
        },
        {
          "name": "A#3",
          "midi": 58,
          "time": 322.41634425000444,
          "velocity": 1,
          "duration": 0.08333325000000968
        },
        {
          "name": "D3",
          "midi": 50,
          "time": 322.49967750000445,
          "velocity": 1,
          "duration": 0.16666650000001937
        },
        {
          "name": "D4",
          "midi": 62,
          "time": 322.49967750000445,
          "velocity": 1,
          "duration": 0.16666650000001937
        },
        {
          "name": "G#4",
          "midi": 68,
          "time": 322.49967750000445,
          "velocity": 1,
          "duration": 0.08333325000000968
        },
        {
          "name": "A#3",
          "midi": 58,
          "time": 322.49967750000445,
          "velocity": 1,
          "duration": 0.08333325000000968
        },
        {
          "name": "A#3",
          "midi": 58,
          "time": 322.58301075000446,
          "velocity": 1,
          "duration": 0.08333325000000968
        },
        {
          "name": "G#4",
          "midi": 68,
          "time": 322.58301075000446,
          "velocity": 1,
          "duration": 0.08333325000000968
        },
        {
          "name": "A#2",
          "midi": 46,
          "time": 322.6663440000045,
          "velocity": 1,
          "duration": 0.16666650000001937
        },
        {
          "name": "A#3",
          "midi": 58,
          "time": 322.6663440000045,
          "velocity": 1,
          "duration": 0.16666650000001937
        },
        {
          "name": "G#4",
          "midi": 68,
          "time": 322.6663440000045,
          "velocity": 1,
          "duration": 0.08333325000000968
        },
        {
          "name": "G#4",
          "midi": 68,
          "time": 322.7496772500045,
          "velocity": 1,
          "duration": 0.08333325000000968
        },
        {
          "name": "D3",
          "midi": 50,
          "time": 322.8330105000045,
          "velocity": 1,
          "duration": 0.16666650000001937
        },
        {
          "name": "D4",
          "midi": 62,
          "time": 322.8330105000045,
          "velocity": 1,
          "duration": 0.16666650000001937
        },
        {
          "name": "G#4",
          "midi": 68,
          "time": 322.8330105000045,
          "velocity": 1,
          "duration": 0.08333325000000968
        },
        {
          "name": "A#3",
          "midi": 58,
          "time": 322.8330105000045,
          "velocity": 1,
          "duration": 0.08333325000000968
        },
        {
          "name": "A#3",
          "midi": 58,
          "time": 322.9163437500045,
          "velocity": 1,
          "duration": 0.08333325000000968
        },
        {
          "name": "G#4",
          "midi": 68,
          "time": 322.9163437500045,
          "velocity": 1,
          "duration": 0.08333325000000968
        },
        {
          "name": "D#3",
          "midi": 51,
          "time": 322.9996770000045,
          "velocity": 1,
          "duration": 0.3333329999999819
        },
        {
          "name": "D#4",
          "midi": 63,
          "time": 322.9996770000045,
          "velocity": 1,
          "duration": 0.3333329999999819
        },
        {
          "name": "F#4",
          "midi": 66,
          "time": 322.9996770000045,
          "velocity": 1,
          "duration": 0.08333325000000968
        },
        {
          "name": "A#3",
          "midi": 58,
          "time": 322.9996770000045,
          "velocity": 1,
          "duration": 0.08333325000000968
        },
        {
          "name": "F#3",
          "midi": 54,
          "time": 323.3330100000045,
          "velocity": 1,
          "duration": 0.33333300000003874
        },
        {
          "name": "F#4",
          "midi": 66,
          "time": 323.3330100000045,
          "velocity": 1,
          "duration": 0.08333325000000968
        },
        {
          "name": "F#2",
          "midi": 42,
          "time": 323.3330100000045,
          "velocity": 1,
          "duration": 0.33333300000003874
        },
        {
          "name": "F#4",
          "midi": 66,
          "time": 323.4163432500045,
          "velocity": 1,
          "duration": 0.08333325000000968
        },
        {
          "name": "F#4",
          "midi": 66,
          "time": 323.4996765000045,
          "velocity": 1,
          "duration": 0.08333325000000968
        },
        {
          "name": "F#4",
          "midi": 66,
          "time": 323.5830097500045,
          "velocity": 1,
          "duration": 0.08333325000000968
        },
        {
          "name": "A#2",
          "midi": 46,
          "time": 323.66634300000453,
          "velocity": 1,
          "duration": 0.33333300000003874
        },
        {
          "name": "A#4",
          "midi": 70,
          "time": 323.66634300000453,
          "velocity": 1,
          "duration": 0.08333325000000968
        },
        {
          "name": "A#3",
          "midi": 58,
          "time": 323.66634300000453,
          "velocity": 1,
          "duration": 0.33333300000003874
        },
        {
          "name": "A#4",
          "midi": 70,
          "time": 323.74967625000454,
          "velocity": 1,
          "duration": 0.08333325000000968
        },
        {
          "name": "A#4",
          "midi": 70,
          "time": 323.83300950000455,
          "velocity": 1,
          "duration": 0.08333325000000968
        },
        {
          "name": "A#4",
          "midi": 70,
          "time": 323.91634275000456,
          "velocity": 1,
          "duration": 0.08333325000000968
        },
        {
          "name": "D#3",
          "midi": 51,
          "time": 323.99967600000457,
          "velocity": 1,
          "duration": 0.33333300000003874
        },
        {
          "name": "D#5",
          "midi": 75,
          "time": 323.99967600000457,
          "velocity": 1,
          "duration": 0.08333325000000968
        },
        {
          "name": "D#4",
          "midi": 63,
          "time": 323.99967600000457,
          "velocity": 1,
          "duration": 0.33333300000003874
        },
        {
          "name": "D#5",
          "midi": 75,
          "time": 324.0830092500046,
          "velocity": 1,
          "duration": 0.08333325000000968
        },
        {
          "name": "D#5",
          "midi": 75,
          "time": 324.1663425000046,
          "velocity": 1,
          "duration": 0.08333325000000968
        },
        {
          "name": "D#5",
          "midi": 75,
          "time": 324.2496757500046,
          "velocity": 1,
          "duration": 0.08333325000000968
        },
        {
          "name": "F#4",
          "midi": 66,
          "time": 324.3330090000046,
          "velocity": 1,
          "duration": 0.33333300000003874
        },
        {
          "name": "F#5",
          "midi": 78,
          "time": 324.3330090000046,
          "velocity": 1,
          "duration": 0.08333325000000968
        },
        {
          "name": "F#3",
          "midi": 54,
          "time": 324.3330090000046,
          "velocity": 1,
          "duration": 0.33333300000003874
        },
        {
          "name": "F#5",
          "midi": 78,
          "time": 324.4163422500046,
          "velocity": 1,
          "duration": 0.08333325000000968
        },
        {
          "name": "F#5",
          "midi": 78,
          "time": 324.4996755000046,
          "velocity": 1,
          "duration": 0.08333325000000968
        },
        {
          "name": "F#5",
          "midi": 78,
          "time": 324.58300875000464,
          "velocity": 1,
          "duration": 0.08333325000000968
        },
        {
          "name": "A#3",
          "midi": 58,
          "time": 324.66634200000465,
          "velocity": 1,
          "duration": 0.33333300000003874
        },
        {
          "name": "A#5",
          "midi": 82,
          "time": 324.66634200000465,
          "velocity": 1,
          "duration": 0.08333325000000968
        },
        {
          "name": "A#4",
          "midi": 70,
          "time": 324.66634200000465,
          "velocity": 1,
          "duration": 0.33333300000003874
        },
        {
          "name": "A#5",
          "midi": 82,
          "time": 324.74967525000466,
          "velocity": 1,
          "duration": 0.08333325000000968
        },
        {
          "name": "A#5",
          "midi": 82,
          "time": 324.83300850000467,
          "velocity": 1,
          "duration": 0.08333325000000968
        },
        {
          "name": "A#5",
          "midi": 82,
          "time": 324.9163417500047,
          "velocity": 1,
          "duration": 0.08333325000000968
        },
        {
          "name": "D#4",
          "midi": 63,
          "time": 324.9996750000047,
          "velocity": 1,
          "duration": 0.33333300000003874
        },
        {
          "name": "D#6",
          "midi": 87,
          "time": 324.9996750000047,
          "velocity": 1,
          "duration": 0.16666650000001937
        },
        {
          "name": "D#5",
          "midi": 75,
          "time": 324.9996750000047,
          "velocity": 1,
          "duration": 0.33333300000003874
        },
        {
          "name": "A#4",
          "midi": 70,
          "time": 325.1663415000047,
          "velocity": 1,
          "duration": 0.33333300000003874
        },
        {
          "name": "A#3",
          "midi": 58,
          "time": 325.1663415000047,
          "velocity": 1,
          "duration": 0.33333300000003874
        },
        {
          "name": "D#4",
          "midi": 63,
          "time": 325.3330080000047,
          "velocity": 1,
          "duration": 0.33333300000003874
        },
        {
          "name": "A#4",
          "midi": 70,
          "time": 325.49967450000474,
          "velocity": 1,
          "duration": 0.33333300000003874
        },
        {
          "name": "A#3",
          "midi": 58,
          "time": 325.49967450000474,
          "velocity": 1,
          "duration": 0.33333300000003874
        },
        {
          "name": "F4",
          "midi": 65,
          "time": 325.66634100000476,
          "velocity": 1,
          "duration": 0.33333300000003874
        },
        {
          "name": "A#3",
          "midi": 58,
          "time": 325.8330075000048,
          "velocity": 1,
          "duration": 0.33333300000003874
        },
        {
          "name": "A#4",
          "midi": 70,
          "time": 325.8330075000048,
          "velocity": 1,
          "duration": 0.33333300000003874
        },
        {
          "name": "F#4",
          "midi": 66,
          "time": 325.9996740000048,
          "velocity": 1,
          "duration": 0.4999995000000581
        },
        {
          "name": "A#4",
          "midi": 70,
          "time": 326.1663405000048,
          "velocity": 1,
          "duration": 0.33333300000003874
        },
        {
          "name": "A#3",
          "midi": 58,
          "time": 326.1663405000048,
          "velocity": 1,
          "duration": 0.33333300000003874
        },
        {
          "name": "D#3",
          "midi": 51,
          "time": 326.33300700000484,
          "velocity": 1,
          "duration": 0.33333300000003874
        },
        {
          "name": "F4",
          "midi": 65,
          "time": 326.49967350000486,
          "velocity": 1,
          "duration": 0.16666650000001937
        },
        {
          "name": "A#4",
          "midi": 70,
          "time": 326.49967350000486,
          "velocity": 1,
          "duration": 0.33333300000003874
        },
        {
          "name": "A#3",
          "midi": 58,
          "time": 326.49967350000486,
          "velocity": 1,
          "duration": 0.33333300000003874
        },
        {
          "name": "D#4",
          "midi": 63,
          "time": 326.6663400000049,
          "velocity": 1,
          "duration": 0.33333300000003874
        },
        {
          "name": "D#3",
          "midi": 51,
          "time": 326.6663400000049,
          "velocity": 1,
          "duration": 0.33333300000003874
        },
        {
          "name": "A#4",
          "midi": 70,
          "time": 326.8330065000049,
          "velocity": 1,
          "duration": 0.33333300000003874
        },
        {
          "name": "A#3",
          "midi": 58,
          "time": 326.8330065000049,
          "velocity": 1,
          "duration": 0.33333300000003874
        },
        {
          "name": "A#2",
          "midi": 46,
          "time": 326.9996730000049,
          "velocity": 1,
          "duration": 0.33333300000003874
        },
        {
          "name": "D4",
          "midi": 62,
          "time": 326.9996730000049,
          "velocity": 1,
          "duration": 0.33333300000003874
        },
        {
          "name": "A#5",
          "midi": 82,
          "time": 327.16633950000494,
          "velocity": 1,
          "duration": 0.33333300000003874
        },
        {
          "name": "A#4",
          "midi": 70,
          "time": 327.16633950000494,
          "velocity": 1,
          "duration": 0.33333300000003874
        },
        {
          "name": "C#4",
          "midi": 61,
          "time": 327.33300600000496,
          "velocity": 1,
          "duration": 0.33333300000003874
        },
        {
          "name": "A#5",
          "midi": 82,
          "time": 327.499672500005,
          "velocity": 1,
          "duration": 0.33333300000003874
        },
        {
          "name": "A#4",
          "midi": 70,
          "time": 327.499672500005,
          "velocity": 1,
          "duration": 0.33333300000003874
        },
        {
          "name": "C4",
          "midi": 60,
          "time": 327.666339000005,
          "velocity": 1,
          "duration": 0.33333300000003874
        },
        {
          "name": "A#4",
          "midi": 70,
          "time": 327.833005500005,
          "velocity": 1,
          "duration": 0.33333300000003874
        },
        {
          "name": "A#5",
          "midi": 82,
          "time": 327.833005500005,
          "velocity": 1,
          "duration": 0.33333300000003874
        },
        {
          "name": "A#3",
          "midi": 58,
          "time": 327.99967200000503,
          "velocity": 1,
          "duration": 0.6666660000000206
        },
        {
          "name": "A#5",
          "midi": 82,
          "time": 328.16633850000505,
          "velocity": 1,
          "duration": 0.3333329999999819
        },
        {
          "name": "A#4",
          "midi": 70,
          "time": 328.16633850000505,
          "velocity": 1,
          "duration": 0.3333329999999819
        },
        {
          "name": "A#4",
          "midi": 70,
          "time": 328.49967150000504,
          "velocity": 1,
          "duration": 0.33333300000003874
        },
        {
          "name": "A#5",
          "midi": 82,
          "time": 328.49967150000504,
          "velocity": 1,
          "duration": 0.33333300000003874
        },
        {
          "name": "C4",
          "midi": 60,
          "time": 328.66633800000506,
          "velocity": 1,
          "duration": 0.16666650000001937
        },
        {
          "name": "A#3",
          "midi": 58,
          "time": 328.66633800000506,
          "velocity": 1,
          "duration": 0.33333300000003874
        },
        {
          "name": "D4",
          "midi": 62,
          "time": 328.8330045000051,
          "velocity": 1,
          "duration": 0.16666650000001937
        },
        {
          "name": "A#5",
          "midi": 82,
          "time": 328.8330045000051,
          "velocity": 1,
          "duration": 0.33333300000003874
        },
        {
          "name": "A#4",
          "midi": 70,
          "time": 328.8330045000051,
          "velocity": 1,
          "duration": 0.33333300000003874
        },
        {
          "name": "D#4",
          "midi": 63,
          "time": 328.9996710000051,
          "velocity": 1,
          "duration": 0.33333300000003874
        },
        {
          "name": "A#4",
          "midi": 70,
          "time": 329.1663375000051,
          "velocity": 1,
          "duration": 0.33333300000003874
        },
        {
          "name": "A#3",
          "midi": 58,
          "time": 329.1663375000051,
          "velocity": 1,
          "duration": 0.33333300000003874
        },
        {
          "name": "A#4",
          "midi": 70,
          "time": 329.49967050000515,
          "velocity": 1,
          "duration": 0.3333329999999819
        },
        {
          "name": "A#3",
          "midi": 58,
          "time": 329.49967050000515,
          "velocity": 1,
          "duration": 0.3333329999999819
        },
        {
          "name": "A#4",
          "midi": 70,
          "time": 329.83300350000513,
          "velocity": 1,
          "duration": 0.3333329999999819
        },
        {
          "name": "A#3",
          "midi": 58,
          "time": 329.83300350000513,
          "velocity": 1,
          "duration": 0.3333329999999819
        },
        {
          "name": "B4",
          "midi": 71,
          "time": 330.1663365000051,
          "velocity": 1,
          "duration": 0.33333300000003874
        },
        {
          "name": "B3",
          "midi": 59,
          "time": 330.1663365000051,
          "velocity": 1,
          "duration": 0.33333300000003874
        },
        {
          "name": "D#3",
          "midi": 51,
          "time": 330.33300300000514,
          "velocity": 1,
          "duration": 0.33333300000003874
        },
        {
          "name": "F#4",
          "midi": 66,
          "time": 330.33300300000514,
          "velocity": 1,
          "duration": 0.33333300000003874
        },
        {
          "name": "B4",
          "midi": 71,
          "time": 330.49966950000515,
          "velocity": 1,
          "duration": 0.33333300000003874
        },
        {
          "name": "B3",
          "midi": 59,
          "time": 330.49966950000515,
          "velocity": 1,
          "duration": 0.33333300000003874
        },
        {
          "name": "D#3",
          "midi": 51,
          "time": 330.6663360000052,
          "velocity": 1,
          "duration": 0.33333300000003874
        },
        {
          "name": "F#4",
          "midi": 66,
          "time": 330.6663360000052,
          "velocity": 1,
          "duration": 0.33333300000003874
        },
        {
          "name": "B4",
          "midi": 71,
          "time": 330.8330025000052,
          "velocity": 1,
          "duration": 0.33333300000003874
        },
        {
          "name": "B3",
          "midi": 59,
          "time": 330.8330025000052,
          "velocity": 1,
          "duration": 0.33333300000003874
        },
        {
          "name": "G#4",
          "midi": 68,
          "time": 330.9996690000052,
          "velocity": 1,
          "duration": 0.49999950000000126
        },
        {
          "name": "F3",
          "midi": 53,
          "time": 330.9996690000052,
          "velocity": 1,
          "duration": 0.9999990000000594
        },
        {
          "name": "G#3",
          "midi": 56,
          "time": 331.16633550000523,
          "velocity": 1,
          "duration": 0.3333329999999819
        },
        {
          "name": "G#4",
          "midi": 68,
          "time": 331.4996685000052,
          "velocity": 1,
          "duration": 0.33333300000003874
        },
        {
          "name": "G#3",
          "midi": 56,
          "time": 331.4996685000052,
          "velocity": 1,
          "duration": 0.33333300000003874
        },
        {
          "name": "C#4",
          "midi": 61,
          "time": 331.66633500000523,
          "velocity": 1,
          "duration": 0.33333300000003874
        },
        {
          "name": "G#4",
          "midi": 68,
          "time": 331.83300150000525,
          "velocity": 1,
          "duration": 0.33333300000003874
        },
        {
          "name": "G#3",
          "midi": 56,
          "time": 331.83300150000525,
          "velocity": 1,
          "duration": 0.33333300000003874
        },
        {
          "name": "C#3",
          "midi": 49,
          "time": 331.9996680000053,
          "velocity": 1,
          "duration": 0.9999990000001162
        },
        {
          "name": "B3",
          "midi": 59,
          "time": 331.9996680000053,
          "velocity": 1,
          "duration": 0.33333300000003874
        },
        {
          "name": "F3",
          "midi": 53,
          "time": 332.1663345000053,
          "velocity": 1,
          "duration": 0.33333300000003874
        },
        {
          "name": "F4",
          "midi": 65,
          "time": 332.1663345000053,
          "velocity": 1,
          "duration": 0.33333300000003874
        },
        {
          "name": "F4",
          "midi": 65,
          "time": 332.49966750000533,
          "velocity": 1,
          "duration": 0.33333300000003874
        },
        {
          "name": "F3",
          "midi": 53,
          "time": 332.49966750000533,
          "velocity": 1,
          "duration": 0.33333300000003874
        },
        {
          "name": "B3",
          "midi": 59,
          "time": 332.66633400000535,
          "velocity": 1,
          "duration": 0.33333300000003874
        },
        {
          "name": "F4",
          "midi": 65,
          "time": 332.83300050000537,
          "velocity": 1,
          "duration": 0.16666650000001937
        },
        {
          "name": "F3",
          "midi": 53,
          "time": 332.83300050000537,
          "velocity": 1,
          "duration": 0.16666650000001937
        },
        {
          "name": "F#3",
          "midi": 54,
          "time": 332.9996670000054,
          "velocity": 1,
          "duration": 1.9999980000002324
        },
        {
          "name": "F#4",
          "midi": 66,
          "time": 332.9996670000054,
          "velocity": 1,
          "duration": 0.33333300000003874
        },
        {
          "name": "A#3",
          "midi": 58,
          "time": 332.9996670000054,
          "velocity": 1,
          "duration": 1.9999980000002324
        },
        {
          "name": "C#3",
          "midi": 49,
          "time": 333.1663335000054,
          "velocity": 1,
          "duration": 0.16666650000001937
        },
        {
          "name": "F#4",
          "midi": 66,
          "time": 333.3330000000054,
          "velocity": 1,
          "duration": 0.33333300000003874
        },
        {
          "name": "C#3",
          "midi": 49,
          "time": 333.49966650000545,
          "velocity": 1,
          "duration": 0.16666650000001937
        },
        {
          "name": "G#4",
          "midi": 68,
          "time": 333.66633300000547,
          "velocity": 1,
          "duration": 0.33333300000003874
        },
        {
          "name": "C#3",
          "midi": 49,
          "time": 333.8329995000055,
          "velocity": 1,
          "duration": 0.16666650000001937
        },
        {
          "name": "A#4",
          "midi": 70,
          "time": 333.9996660000055,
          "velocity": 1,
          "duration": 0.4999995000000581
        },
        {
          "name": "C#3",
          "midi": 49,
          "time": 334.1663325000055,
          "velocity": 1,
          "duration": 0.16666650000001937
        },
        {
          "name": "G#4",
          "midi": 68,
          "time": 334.49966550000556,
          "velocity": 1,
          "duration": 0.16666650000001937
        },
        {
          "name": "C#3",
          "midi": 49,
          "time": 334.49966550000556,
          "velocity": 1,
          "duration": 0.16666650000001937
        },
        {
          "name": "F#4",
          "midi": 66,
          "time": 334.6663320000056,
          "velocity": 1,
          "duration": 0.33333300000003874
        },
        {
          "name": "C#3",
          "midi": 49,
          "time": 334.8329985000056,
          "velocity": 1,
          "duration": 0.16666650000001937
        },
        {
          "name": "G#3",
          "midi": 56,
          "time": 334.9996650000056,
          "velocity": 1,
          "duration": 0.9999990000001162
        },
        {
          "name": "B3",
          "midi": 59,
          "time": 334.9996650000056,
          "velocity": 1,
          "duration": 0.33333300000003874
        },
        {
          "name": "F4",
          "midi": 65,
          "time": 334.9996650000056,
          "velocity": 1,
          "duration": 1.9999980000002324
        },
        {
          "name": "C#3",
          "midi": 49,
          "time": 335.16633150000564,
          "velocity": 1,
          "duration": 0.16666650000001937
        },
        {
          "name": "B4",
          "midi": 71,
          "time": 335.33299800000566,
          "velocity": 1,
          "duration": 0.33333300000003874
        },
        {
          "name": "C#3",
          "midi": 49,
          "time": 335.4996645000057,
          "velocity": 1,
          "duration": 0.16666650000001937
        },
        {
          "name": "C#5",
          "midi": 73,
          "time": 335.6663310000057,
          "velocity": 1,
          "duration": 0.33333300000003874
        },
        {
          "name": "C#3",
          "midi": 49,
          "time": 335.8329975000057,
          "velocity": 1,
          "duration": 0.16666650000001937
        },
        {
          "name": "C#3",
          "midi": 49,
          "time": 335.99966400000574,
          "velocity": 1,
          "duration": 0.9999990000001162
        },
        {
          "name": "D#5",
          "midi": 75,
          "time": 335.99966400000574,
          "velocity": 1,
          "duration": 0.4999995000000581
        },
        {
          "name": "G#3",
          "midi": 56,
          "time": 335.99966400000574,
          "velocity": 1,
          "duration": 0.16666650000001937
        },
        {
          "name": "G#3",
          "midi": 56,
          "time": 336.3329970000058,
          "velocity": 1,
          "duration": 0.16666650000001937
        },
        {
          "name": "C#5",
          "midi": 73,
          "time": 336.4996635000058,
          "velocity": 1,
          "duration": 0.16666650000001937
        },
        {
          "name": "B4",
          "midi": 71,
          "time": 336.6663300000058,
          "velocity": 1,
          "duration": 0.33333300000003874
        },
        {
          "name": "G#3",
          "midi": 56,
          "time": 336.6663300000058,
          "velocity": 1,
          "duration": 0.16666650000001937
        },
        {
          "name": "F#3",
          "midi": 54,
          "time": 336.99966300000585,
          "velocity": 1,
          "duration": 0.33333300000003874
        },
        {
          "name": "F#4",
          "midi": 66,
          "time": 336.99966300000585,
          "velocity": 1,
          "duration": 0.16666650000001937
        },
        {
          "name": "A#4",
          "midi": 70,
          "time": 336.99966300000585,
          "velocity": 1,
          "duration": 0.16666650000001937
        },
        {
          "name": "A#4",
          "midi": 70,
          "time": 337.1663295000059,
          "velocity": 1,
          "duration": 0.33333300000003874
        },
        {
          "name": "F#4",
          "midi": 66,
          "time": 337.1663295000059,
          "velocity": 1,
          "duration": 0.33333300000003874
        },
        {
          "name": "A#3",
          "midi": 58,
          "time": 337.1663295000059,
          "velocity": 1,
          "duration": 0.33333300000003874
        },
        {
          "name": "C#4",
          "midi": 61,
          "time": 337.1663295000059,
          "velocity": 1,
          "duration": 0.33333300000003874
        },
        {
          "name": "F#3",
          "midi": 54,
          "time": 337.3329960000059,
          "velocity": 1,
          "duration": 0.33333300000003874
        },
        {
          "name": "A#4",
          "midi": 70,
          "time": 337.4996625000059,
          "velocity": 1,
          "duration": 0.33333300000003874
        },
        {
          "name": "F#4",
          "midi": 66,
          "time": 337.4996625000059,
          "velocity": 1,
          "duration": 0.33333300000003874
        },
        {
          "name": "A#3",
          "midi": 58,
          "time": 337.4996625000059,
          "velocity": 1,
          "duration": 0.33333300000003874
        },
        {
          "name": "C#4",
          "midi": 61,
          "time": 337.4996625000059,
          "velocity": 1,
          "duration": 0.33333300000003874
        },
        {
          "name": "G#3",
          "midi": 56,
          "time": 337.66632900000593,
          "velocity": 1,
          "duration": 0.33333300000003874
        },
        {
          "name": "A#4",
          "midi": 70,
          "time": 337.83299550000595,
          "velocity": 1,
          "duration": 0.33333300000003874
        },
        {
          "name": "F#4",
          "midi": 66,
          "time": 337.83299550000595,
          "velocity": 1,
          "duration": 0.33333300000003874
        },
        {
          "name": "A#3",
          "midi": 58,
          "time": 337.83299550000595,
          "velocity": 1,
          "duration": 0.6666660000000206
        },
        {
          "name": "C#4",
          "midi": 61,
          "time": 337.83299550000595,
          "velocity": 1,
          "duration": 0.33333300000003874
        },
        {
          "name": "A#4",
          "midi": 70,
          "time": 338.166328500006,
          "velocity": 1,
          "duration": 0.3333329999999819
        },
        {
          "name": "F#4",
          "midi": 66,
          "time": 338.166328500006,
          "velocity": 1,
          "duration": 0.3333329999999819
        },
        {
          "name": "C#4",
          "midi": 61,
          "time": 338.166328500006,
          "velocity": 1,
          "duration": 0.3333329999999819
        },
        {
          "name": "C#4",
          "midi": 61,
          "time": 338.49966150000597,
          "velocity": 1,
          "duration": 0.33333300000003874
        },
        {
          "name": "A#3",
          "midi": 58,
          "time": 338.49966150000597,
          "velocity": 1,
          "duration": 0.33333300000003874
        },
        {
          "name": "F#4",
          "midi": 66,
          "time": 338.49966150000597,
          "velocity": 1,
          "duration": 0.33333300000003874
        },
        {
          "name": "A#4",
          "midi": 70,
          "time": 338.49966150000597,
          "velocity": 1,
          "duration": 0.33333300000003874
        },
        {
          "name": "G#3",
          "midi": 56,
          "time": 338.49966150000597,
          "velocity": 1,
          "duration": 0.16666650000001937
        },
        {
          "name": "F#3",
          "midi": 54,
          "time": 338.666328000006,
          "velocity": 1,
          "duration": 0.33333300000003874
        },
        {
          "name": "C#4",
          "midi": 61,
          "time": 338.832994500006,
          "velocity": 1,
          "duration": 0.16666650000001937
        },
        {
          "name": "A#3",
          "midi": 58,
          "time": 338.832994500006,
          "velocity": 1,
          "duration": 0.16666650000001937
        },
        {
          "name": "F#4",
          "midi": 66,
          "time": 338.832994500006,
          "velocity": 1,
          "duration": 0.16666650000001937
        },
        {
          "name": "A#4",
          "midi": 70,
          "time": 338.832994500006,
          "velocity": 1,
          "duration": 0.33333300000003874
        },
        {
          "name": "F3",
          "midi": 53,
          "time": 338.99966100000603,
          "velocity": 1,
          "duration": 0.9999990000000025
        },
        {
          "name": "G#4",
          "midi": 68,
          "time": 338.99966100000603,
          "velocity": 1,
          "duration": 0.16666650000001937
        },
        {
          "name": "A#3",
          "midi": 58,
          "time": 338.99966100000603,
          "velocity": 1,
          "duration": 0.16666650000001937
        },
        {
          "name": "D4",
          "midi": 62,
          "time": 338.99966100000603,
          "velocity": 1,
          "duration": 0.16666650000001937
        },
        {
          "name": "D4",
          "midi": 62,
          "time": 339.16632750000605,
          "velocity": 1,
          "duration": 0.3333329999999819
        },
        {
          "name": "A#3",
          "midi": 58,
          "time": 339.16632750000605,
          "velocity": 1,
          "duration": 0.3333329999999819
        },
        {
          "name": "G#4",
          "midi": 68,
          "time": 339.16632750000605,
          "velocity": 1,
          "duration": 0.3333329999999819
        },
        {
          "name": "A#4",
          "midi": 70,
          "time": 339.16632750000605,
          "velocity": 1,
          "duration": 0.3333329999999819
        },
        {
          "name": "A#4",
          "midi": 70,
          "time": 339.49966050000603,
          "velocity": 1,
          "duration": 0.3333329999999819
        },
        {
          "name": "G#4",
          "midi": 68,
          "time": 339.49966050000603,
          "velocity": 1,
          "duration": 0.3333329999999819
        },
        {
          "name": "A#3",
          "midi": 58,
          "time": 339.49966050000603,
          "velocity": 1,
          "duration": 0.3333329999999819
        },
        {
          "name": "D4",
          "midi": 62,
          "time": 339.49966050000603,
          "velocity": 1,
          "duration": 0.3333329999999819
        },
        {
          "name": "D4",
          "midi": 62,
          "time": 339.832993500006,
          "velocity": 1,
          "duration": 0.16666650000001937
        },
        {
          "name": "A#3",
          "midi": 58,
          "time": 339.832993500006,
          "velocity": 1,
          "duration": 0.16666650000001937
        },
        {
          "name": "G#4",
          "midi": 68,
          "time": 339.832993500006,
          "velocity": 1,
          "duration": 0.16666650000001937
        },
        {
          "name": "A#4",
          "midi": 70,
          "time": 339.832993500006,
          "velocity": 1,
          "duration": 0.33333300000003874
        },
        {
          "name": "D#3",
          "midi": 51,
          "time": 339.99966000000603,
          "velocity": 1,
          "duration": 0.9999990000000025
        },
        {
          "name": "F#4",
          "midi": 66,
          "time": 339.99966000000603,
          "velocity": 1,
          "duration": 0.16666650000001937
        },
        {
          "name": "A#3",
          "midi": 58,
          "time": 339.99966000000603,
          "velocity": 1,
          "duration": 0.16666650000001937
        },
        {
          "name": "D#4",
          "midi": 63,
          "time": 339.99966000000603,
          "velocity": 1,
          "duration": 0.16666650000001937
        },
        {
          "name": "A#4",
          "midi": 70,
          "time": 340.16632650000605,
          "velocity": 1,
          "duration": 0.3333329999999819
        },
        {
          "name": "F#4",
          "midi": 66,
          "time": 340.16632650000605,
          "velocity": 1,
          "duration": 0.3333329999999819
        },
        {
          "name": "A#3",
          "midi": 58,
          "time": 340.16632650000605,
          "velocity": 1,
          "duration": 0.3333329999999819
        },
        {
          "name": "D#4",
          "midi": 63,
          "time": 340.16632650000605,
          "velocity": 1,
          "duration": 0.3333329999999819
        },
        {
          "name": "D#4",
          "midi": 63,
          "time": 340.49965950000603,
          "velocity": 1,
          "duration": 0.3333329999999819
        },
        {
          "name": "A#3",
          "midi": 58,
          "time": 340.49965950000603,
          "velocity": 1,
          "duration": 0.3333329999999819
        },
        {
          "name": "F#4",
          "midi": 66,
          "time": 340.49965950000603,
          "velocity": 1,
          "duration": 0.3333329999999819
        },
        {
          "name": "A#4",
          "midi": 70,
          "time": 340.49965950000603,
          "velocity": 1,
          "duration": 0.3333329999999819
        },
        {
          "name": "A#4",
          "midi": 70,
          "time": 340.832992500006,
          "velocity": 1,
          "duration": 0.16666650000001937
        },
        {
          "name": "F#4",
          "midi": 66,
          "time": 340.832992500006,
          "velocity": 1,
          "duration": 0.16666650000001937
        },
        {
          "name": "A#3",
          "midi": 58,
          "time": 340.832992500006,
          "velocity": 1,
          "duration": 0.16666650000001937
        },
        {
          "name": "D#4",
          "midi": 63,
          "time": 340.832992500006,
          "velocity": 1,
          "duration": 0.16666650000001937
        },
        {
          "name": "A#2",
          "midi": 46,
          "time": 340.99965900000603,
          "velocity": 1,
          "duration": 0.33333300000003874
        },
        {
          "name": "A#4",
          "midi": 70,
          "time": 340.99965900000603,
          "velocity": 1,
          "duration": 0.08333325000000968
        },
        {
          "name": "D4",
          "midi": 62,
          "time": 340.99965900000603,
          "velocity": 1,
          "duration": 0.33333300000003874
        },
        {
          "name": "F4",
          "midi": 65,
          "time": 340.99965900000603,
          "velocity": 1,
          "duration": 0.08333325000000968
        },
        {
          "name": "A#3",
          "midi": 58,
          "time": 340.99965900000603,
          "velocity": 1,
          "duration": 0.08333325000000968
        },
        {
          "name": "A#3",
          "midi": 58,
          "time": 341.08299225000604,
          "velocity": 1,
          "duration": 0.08333325000000968
        },
        {
          "name": "F4",
          "midi": 65,
          "time": 341.08299225000604,
          "velocity": 1,
          "duration": 0.08333325000000968
        },
        {
          "name": "A#4",
          "midi": 70,
          "time": 341.08299225000604,
          "velocity": 1,
          "duration": 0.08333325000000968
        },
        {
          "name": "A#4",
          "midi": 70,
          "time": 341.16632550000605,
          "velocity": 1,
          "duration": 0.08333325000000968
        },
        {
          "name": "F4",
          "midi": 65,
          "time": 341.16632550000605,
          "velocity": 1,
          "duration": 0.08333325000000968
        },
        {
          "name": "A#3",
          "midi": 58,
          "time": 341.16632550000605,
          "velocity": 1,
          "duration": 0.08333325000000968
        },
        {
          "name": "A#4",
          "midi": 70,
          "time": 341.24965875000606,
          "velocity": 1,
          "duration": 0.08333325000000968
        },
        {
          "name": "F4",
          "midi": 65,
          "time": 341.24965875000606,
          "velocity": 1,
          "duration": 0.08333325000000968
        },
        {
          "name": "A#3",
          "midi": 58,
          "time": 341.24965875000606,
          "velocity": 1,
          "duration": 0.08333325000000968
        },
        {
          "name": "D4",
          "midi": 62,
          "time": 341.3329920000061,
          "velocity": 1,
          "duration": 0.33333300000003874
        },
        {
          "name": "A#3",
          "midi": 58,
          "time": 341.3329920000061,
          "velocity": 1,
          "duration": 0.08333325000000968
        },
        {
          "name": "F4",
          "midi": 65,
          "time": 341.3329920000061,
          "velocity": 1,
          "duration": 0.08333325000000968
        },
        {
          "name": "A#4",
          "midi": 70,
          "time": 341.3329920000061,
          "velocity": 1,
          "duration": 0.08333325000000968
        },
        {
          "name": "D3",
          "midi": 50,
          "time": 341.3329920000061,
          "velocity": 1,
          "duration": 0.33333300000003874
        },
        {
          "name": "A#4",
          "midi": 70,
          "time": 341.4163252500061,
          "velocity": 1,
          "duration": 0.08333325000000968
        },
        {
          "name": "F4",
          "midi": 65,
          "time": 341.4163252500061,
          "velocity": 1,
          "duration": 0.08333325000000968
        },
        {
          "name": "A#3",
          "midi": 58,
          "time": 341.4163252500061,
          "velocity": 1,
          "duration": 0.08333325000000968
        },
        {
          "name": "A#3",
          "midi": 58,
          "time": 341.4996585000061,
          "velocity": 1,
          "duration": 0.08333325000000968
        },
        {
          "name": "F4",
          "midi": 65,
          "time": 341.4996585000061,
          "velocity": 1,
          "duration": 0.08333325000000968
        },
        {
          "name": "A#4",
          "midi": 70,
          "time": 341.4996585000061,
          "velocity": 1,
          "duration": 0.08333325000000968
        },
        {
          "name": "A#4",
          "midi": 70,
          "time": 341.5829917500061,
          "velocity": 1,
          "duration": 0.08333325000000968
        },
        {
          "name": "F4",
          "midi": 65,
          "time": 341.5829917500061,
          "velocity": 1,
          "duration": 0.08333325000000968
        },
        {
          "name": "A#3",
          "midi": 58,
          "time": 341.5829917500061,
          "velocity": 1,
          "duration": 0.08333325000000968
        },
        {
          "name": "A#3",
          "midi": 58,
          "time": 341.6663250000061,
          "velocity": 1,
          "duration": 0.33333300000003874
        },
        {
          "name": "F4",
          "midi": 65,
          "time": 341.6663250000061,
          "velocity": 1,
          "duration": 0.08333325000000968
        },
        {
          "name": "D4",
          "midi": 62,
          "time": 341.6663250000061,
          "velocity": 1,
          "duration": 0.08333325000000968
        },
        {
          "name": "A#4",
          "midi": 70,
          "time": 341.6663250000061,
          "velocity": 1,
          "duration": 0.08333325000000968
        },
        {
          "name": "A#2",
          "midi": 46,
          "time": 341.6663250000061,
          "velocity": 1,
          "duration": 0.33333300000003874
        },
        {
          "name": "A#4",
          "midi": 70,
          "time": 341.7496582500061,
          "velocity": 1,
          "duration": 0.08333325000000968
        },
        {
          "name": "D4",
          "midi": 62,
          "time": 341.7496582500061,
          "velocity": 1,
          "duration": 0.08333325000000968
        },
        {
          "name": "F4",
          "midi": 65,
          "time": 341.7496582500061,
          "velocity": 1,
          "duration": 0.08333325000000968
        },
        {
          "name": "F4",
          "midi": 65,
          "time": 341.83299150000613,
          "velocity": 1,
          "duration": 0.08333325000000968
        },
        {
          "name": "D4",
          "midi": 62,
          "time": 341.83299150000613,
          "velocity": 1,
          "duration": 0.08333325000000968
        },
        {
          "name": "A#4",
          "midi": 70,
          "time": 341.83299150000613,
          "velocity": 1,
          "duration": 0.08333325000000968
        },
        {
          "name": "A#4",
          "midi": 70,
          "time": 341.91632475000614,
          "velocity": 1,
          "duration": 0.08333325000000968
        },
        {
          "name": "D4",
          "midi": 62,
          "time": 341.91632475000614,
          "velocity": 1,
          "duration": 0.08333325000000968
        },
        {
          "name": "F4",
          "midi": 65,
          "time": 341.91632475000614,
          "velocity": 1,
          "duration": 0.08333325000000968
        },
        {
          "name": "F4",
          "midi": 65,
          "time": 341.99965800000615,
          "velocity": 1,
          "duration": 0.33333300000003874
        },
        {
          "name": "A#3",
          "midi": 58,
          "time": 341.99965800000615,
          "velocity": 1,
          "duration": 0.08333325000000968
        },
        {
          "name": "D4",
          "midi": 62,
          "time": 341.99965800000615,
          "velocity": 1,
          "duration": 0.08333325000000968
        },
        {
          "name": "A#4",
          "midi": 70,
          "time": 341.99965800000615,
          "velocity": 1,
          "duration": 0.08333325000000968
        },
        {
          "name": "F3",
          "midi": 53,
          "time": 341.99965800000615,
          "velocity": 1,
          "duration": 0.33333300000003874
        },
        {
          "name": "A#4",
          "midi": 70,
          "time": 342.08299125000616,
          "velocity": 1,
          "duration": 0.08333325000000968
        },
        {
          "name": "D4",
          "midi": 62,
          "time": 342.08299125000616,
          "velocity": 1,
          "duration": 0.08333325000000968
        },
        {
          "name": "A#3",
          "midi": 58,
          "time": 342.08299125000616,
          "velocity": 1,
          "duration": 0.08333325000000968
        },
        {
          "name": "A#4",
          "midi": 70,
          "time": 342.16632450000617,
          "velocity": 1,
          "duration": 0.08333325000000968
        },
        {
          "name": "D4",
          "midi": 62,
          "time": 342.16632450000617,
          "velocity": 1,
          "duration": 0.08333325000000968
        },
        {
          "name": "A#3",
          "midi": 58,
          "time": 342.16632450000617,
          "velocity": 1,
          "duration": 0.08333325000000968
        },
        {
          "name": "A#3",
          "midi": 58,
          "time": 342.2496577500062,
          "velocity": 1,
          "duration": 0.08333325000000968
        },
        {
          "name": "D4",
          "midi": 62,
          "time": 342.2496577500062,
          "velocity": 1,
          "duration": 0.08333325000000968
        },
        {
          "name": "A#4",
          "midi": 70,
          "time": 342.2496577500062,
          "velocity": 1,
          "duration": 0.08333325000000968
        },
        {
          "name": "A#2",
          "midi": 46,
          "time": 342.3329910000062,
          "velocity": 1,
          "duration": 0.33333300000003874
        },
        {
          "name": "A#4",
          "midi": 70,
          "time": 342.3329910000062,
          "velocity": 1,
          "duration": 0.08333325000000968
        },
        {
          "name": "D4",
          "midi": 62,
          "time": 342.3329910000062,
          "velocity": 1,
          "duration": 0.08333325000000968
        },
        {
          "name": "F4",
          "midi": 65,
          "time": 342.3329910000062,
          "velocity": 1,
          "duration": 0.08333325000000968
        },
        {
          "name": "A#3",
          "midi": 58,
          "time": 342.3329910000062,
          "velocity": 1,
          "duration": 0.33333300000003874
        },
        {
          "name": "F4",
          "midi": 65,
          "time": 342.4163242500062,
          "velocity": 1,
          "duration": 0.08333325000000968
        },
        {
          "name": "D4",
          "midi": 62,
          "time": 342.4163242500062,
          "velocity": 1,
          "duration": 0.08333325000000968
        },
        {
          "name": "A#4",
          "midi": 70,
          "time": 342.4163242500062,
          "velocity": 1,
          "duration": 0.08333325000000968
        },
        {
          "name": "A#4",
          "midi": 70,
          "time": 342.4996575000062,
          "velocity": 1,
          "duration": 0.08333325000000968
        },
        {
          "name": "D4",
          "midi": 62,
          "time": 342.4996575000062,
          "velocity": 1,
          "duration": 0.08333325000000968
        },
        {
          "name": "F4",
          "midi": 65,
          "time": 342.4996575000062,
          "velocity": 1,
          "duration": 0.08333325000000968
        },
        {
          "name": "F4",
          "midi": 65,
          "time": 342.5829907500062,
          "velocity": 1,
          "duration": 0.08333325000000968
        },
        {
          "name": "D4",
          "midi": 62,
          "time": 342.5829907500062,
          "velocity": 1,
          "duration": 0.08333325000000968
        },
        {
          "name": "A#4",
          "midi": 70,
          "time": 342.5829907500062,
          "velocity": 1,
          "duration": 0.08333325000000968
        },
        {
          "name": "A#3",
          "midi": 58,
          "time": 342.6663240000062,
          "velocity": 1,
          "duration": 0.33333300000003874
        },
        {
          "name": "A#4",
          "midi": 70,
          "time": 342.6663240000062,
          "velocity": 1,
          "duration": 0.33333300000003874
        },
        {
          "name": "D4",
          "midi": 62,
          "time": 342.6663240000062,
          "velocity": 1,
          "duration": 0.08333325000000968
        },
        {
          "name": "F4",
          "midi": 65,
          "time": 342.6663240000062,
          "velocity": 1,
          "duration": 0.08333325000000968
        },
        {
          "name": "D4",
          "midi": 62,
          "time": 342.74965725000624,
          "velocity": 1,
          "duration": 0.08333325000000968
        },
        {
          "name": "F4",
          "midi": 65,
          "time": 342.74965725000624,
          "velocity": 1,
          "duration": 0.08333325000000968
        },
        {
          "name": "F4",
          "midi": 65,
          "time": 342.83299050000625,
          "velocity": 1,
          "duration": 0.08333325000000968
        },
        {
          "name": "D4",
          "midi": 62,
          "time": 342.83299050000625,
          "velocity": 1,
          "duration": 0.08333325000000968
        },
        {
          "name": "D4",
          "midi": 62,
          "time": 342.91632375000626,
          "velocity": 1,
          "duration": 0.08333325000000968
        },
        {
          "name": "F4",
          "midi": 65,
          "time": 342.91632375000626,
          "velocity": 1,
          "duration": 0.08333325000000968
        },
        {
          "name": "A#3",
          "midi": 58,
          "time": 342.99965700000627,
          "velocity": 1,
          "duration": 0.33333300000003874
        },
        {
          "name": "F4",
          "midi": 65,
          "time": 342.99965700000627,
          "velocity": 1,
          "duration": 0.08333325000000968
        },
        {
          "name": "D4",
          "midi": 62,
          "time": 342.99965700000627,
          "velocity": 1,
          "duration": 0.08333325000000968
        },
        {
          "name": "A#4",
          "midi": 70,
          "time": 342.99965700000627,
          "velocity": 1,
          "duration": 0.08333325000000968
        },
        {
          "name": "A#2",
          "midi": 46,
          "time": 342.99965700000627,
          "velocity": 1,
          "duration": 0.33333300000003874
        },
        {
          "name": "A#4",
          "midi": 70,
          "time": 343.0829902500063,
          "velocity": 1,
          "duration": 0.08333325000000968
        },
        {
          "name": "D4",
          "midi": 62,
          "time": 343.0829902500063,
          "velocity": 1,
          "duration": 0.08333325000000968
        },
        {
          "name": "F4",
          "midi": 65,
          "time": 343.0829902500063,
          "velocity": 1,
          "duration": 0.08333325000000968
        },
        {
          "name": "F4",
          "midi": 65,
          "time": 343.1663235000063,
          "velocity": 1,
          "duration": 0.08333325000000968
        },
        {
          "name": "D4",
          "midi": 62,
          "time": 343.1663235000063,
          "velocity": 1,
          "duration": 0.08333325000000968
        },
        {
          "name": "A#4",
          "midi": 70,
          "time": 343.1663235000063,
          "velocity": 1,
          "duration": 0.08333325000000968
        },
        {
          "name": "A#4",
          "midi": 70,
          "time": 343.2496567500063,
          "velocity": 1,
          "duration": 0.08333325000000968
        },
        {
          "name": "D4",
          "midi": 62,
          "time": 343.2496567500063,
          "velocity": 1,
          "duration": 0.08333325000000968
        },
        {
          "name": "F4",
          "midi": 65,
          "time": 343.2496567500063,
          "velocity": 1,
          "duration": 0.08333325000000968
        },
        {
          "name": "D4",
          "midi": 62,
          "time": 343.3329900000063,
          "velocity": 1,
          "duration": 0.33333300000003874
        },
        {
          "name": "A#4",
          "midi": 70,
          "time": 343.3329900000063,
          "velocity": 1,
          "duration": 0.08333325000000968
        },
        {
          "name": "F4",
          "midi": 65,
          "time": 343.3329900000063,
          "velocity": 1,
          "duration": 0.08333325000000968
        },
        {
          "name": "A#3",
          "midi": 58,
          "time": 343.3329900000063,
          "velocity": 1,
          "duration": 0.08333325000000968
        },
        {
          "name": "D5",
          "midi": 74,
          "time": 343.3329900000063,
          "velocity": 1,
          "duration": 0.33333300000003874
        },
        {
          "name": "A#3",
          "midi": 58,
          "time": 343.4163232500063,
          "velocity": 1,
          "duration": 0.08333325000000968
        },
        {
          "name": "F4",
          "midi": 65,
          "time": 343.4163232500063,
          "velocity": 1,
          "duration": 0.08333325000000968
        },
        {
          "name": "A#4",
          "midi": 70,
          "time": 343.4163232500063,
          "velocity": 1,
          "duration": 0.08333325000000968
        },
        {
          "name": "A#4",
          "midi": 70,
          "time": 343.4996565000063,
          "velocity": 1,
          "duration": 0.08333325000000968
        },
        {
          "name": "F4",
          "midi": 65,
          "time": 343.4996565000063,
          "velocity": 1,
          "duration": 0.08333325000000968
        },
        {
          "name": "A#3",
          "midi": 58,
          "time": 343.4996565000063,
          "velocity": 1,
          "duration": 0.08333325000000968
        },
        {
          "name": "A#4",
          "midi": 70,
          "time": 343.58298975000633,
          "velocity": 1,
          "duration": 0.08333325000000968
        },
        {
          "name": "F4",
          "midi": 65,
          "time": 343.58298975000633,
          "velocity": 1,
          "duration": 0.08333325000000968
        },
        {
          "name": "A#3",
          "midi": 58,
          "time": 343.58298975000633,
          "velocity": 1,
          "duration": 0.08333325000000968
        },
        {
          "name": "A#3",
          "midi": 58,
          "time": 343.66632300000634,
          "velocity": 1,
          "duration": 0.33333300000003874
        },
        {
          "name": "F4",
          "midi": 65,
          "time": 343.66632300000634,
          "velocity": 1,
          "duration": 0.08333325000000968
        },
        {
          "name": "D4",
          "midi": 62,
          "time": 343.66632300000634,
          "velocity": 1,
          "duration": 0.08333325000000968
        },
        {
          "name": "A#4",
          "midi": 70,
          "time": 343.66632300000634,
          "velocity": 1,
          "duration": 0.08333325000000968
        },
        {
          "name": "A#2",
          "midi": 46,
          "time": 343.66632300000634,
          "velocity": 1,
          "duration": 0.33333300000003874
        },
        {
          "name": "A#4",
          "midi": 70,
          "time": 343.74965625000635,
          "velocity": 1,
          "duration": 0.08333325000000968
        },
        {
          "name": "D4",
          "midi": 62,
          "time": 343.74965625000635,
          "velocity": 1,
          "duration": 0.08333325000000968
        },
        {
          "name": "F4",
          "midi": 65,
          "time": 343.74965625000635,
          "velocity": 1,
          "duration": 0.08333325000000968
        },
        {
          "name": "F4",
          "midi": 65,
          "time": 343.83298950000636,
          "velocity": 1,
          "duration": 0.08333325000000968
        },
        {
          "name": "D4",
          "midi": 62,
          "time": 343.83298950000636,
          "velocity": 1,
          "duration": 0.08333325000000968
        },
        {
          "name": "A#4",
          "midi": 70,
          "time": 343.83298950000636,
          "velocity": 1,
          "duration": 0.08333325000000968
        },
        {
          "name": "A#4",
          "midi": 70,
          "time": 343.9163227500064,
          "velocity": 1,
          "duration": 0.08333325000000968
        },
        {
          "name": "D4",
          "midi": 62,
          "time": 343.9163227500064,
          "velocity": 1,
          "duration": 0.08333325000000968
        },
        {
          "name": "F4",
          "midi": 65,
          "time": 343.9163227500064,
          "velocity": 1,
          "duration": 0.08333325000000968
        },
        {
          "name": "F4",
          "midi": 65,
          "time": 343.9996560000064,
          "velocity": 1,
          "duration": 0.9999990000001162
        },
        {
          "name": "A#3",
          "midi": 58,
          "time": 343.9996560000064,
          "velocity": 1,
          "duration": 0.08333325000000968
        },
        {
          "name": "D4",
          "midi": 62,
          "time": 343.9996560000064,
          "velocity": 1,
          "duration": 0.08333325000000968
        },
        {
          "name": "A#4",
          "midi": 70,
          "time": 343.9996560000064,
          "velocity": 1,
          "duration": 0.08333325000000968
        },
        {
          "name": "A#4",
          "midi": 70,
          "time": 344.0829892500064,
          "velocity": 1,
          "duration": 0.08333325000000968
        },
        {
          "name": "D4",
          "midi": 62,
          "time": 344.0829892500064,
          "velocity": 1,
          "duration": 0.08333325000000968
        },
        {
          "name": "A#3",
          "midi": 58,
          "time": 344.0829892500064,
          "velocity": 1,
          "duration": 0.08333325000000968
        },
        {
          "name": "A#4",
          "midi": 70,
          "time": 344.1663225000064,
          "velocity": 1,
          "duration": 0.08333325000000968
        },
        {
          "name": "D4",
          "midi": 62,
          "time": 344.1663225000064,
          "velocity": 1,
          "duration": 0.08333325000000968
        },
        {
          "name": "A#3",
          "midi": 58,
          "time": 344.1663225000064,
          "velocity": 1,
          "duration": 0.08333325000000968
        },
        {
          "name": "A#4",
          "midi": 70,
          "time": 344.2496557500064,
          "velocity": 1,
          "duration": 0.08333325000000968
        },
        {
          "name": "D4",
          "midi": 62,
          "time": 344.2496557500064,
          "velocity": 1,
          "duration": 0.08333325000000968
        },
        {
          "name": "A#3",
          "midi": 58,
          "time": 344.2496557500064,
          "velocity": 1,
          "duration": 0.08333325000000968
        },
        {
          "name": "D5",
          "midi": 74,
          "time": 344.3329890000064,
          "velocity": 1,
          "duration": 0.08333325000000968
        },
        {
          "name": "D4",
          "midi": 62,
          "time": 344.3329890000064,
          "velocity": 1,
          "duration": 0.08333325000000968
        },
        {
          "name": "A#3",
          "midi": 58,
          "time": 344.3329890000064,
          "velocity": 1,
          "duration": 0.08333325000000968
        },
        {
          "name": "A#3",
          "midi": 58,
          "time": 344.41632225000643,
          "velocity": 1,
          "duration": 0.08333325000000968
        },
        {
          "name": "D4",
          "midi": 62,
          "time": 344.41632225000643,
          "velocity": 1,
          "duration": 0.08333325000000968
        },
        {
          "name": "D5",
          "midi": 74,
          "time": 344.41632225000643,
          "velocity": 1,
          "duration": 0.08333325000000968
        },
        {
          "name": "D5",
          "midi": 74,
          "time": 344.49965550000644,
          "velocity": 1,
          "duration": 0.08333325000000968
        },
        {
          "name": "D4",
          "midi": 62,
          "time": 344.49965550000644,
          "velocity": 1,
          "duration": 0.08333325000000968
        },
        {
          "name": "A#3",
          "midi": 58,
          "time": 344.49965550000644,
          "velocity": 1,
          "duration": 0.08333325000000968
        },
        {
          "name": "D5",
          "midi": 74,
          "time": 344.58298875000645,
          "velocity": 1,
          "duration": 0.08333325000000968
        },
        {
          "name": "D4",
          "midi": 62,
          "time": 344.58298875000645,
          "velocity": 1,
          "duration": 0.08333325000000968
        },
        {
          "name": "A#3",
          "midi": 58,
          "time": 344.58298875000645,
          "velocity": 1,
          "duration": 0.08333325000000968
        },
        {
          "name": "A#3",
          "midi": 58,
          "time": 344.66632200000646,
          "velocity": 1,
          "duration": 0.08333325000000968
        },
        {
          "name": "D4",
          "midi": 62,
          "time": 344.66632200000646,
          "velocity": 1,
          "duration": 0.08333325000000968
        },
        {
          "name": "F5",
          "midi": 77,
          "time": 344.66632200000646,
          "velocity": 1,
          "duration": 0.08333325000000968
        },
        {
          "name": "F5",
          "midi": 77,
          "time": 344.74965525000647,
          "velocity": 1,
          "duration": 0.08333325000000968
        },
        {
          "name": "D4",
          "midi": 62,
          "time": 344.74965525000647,
          "velocity": 1,
          "duration": 0.08333325000000968
        },
        {
          "name": "A#3",
          "midi": 58,
          "time": 344.74965525000647,
          "velocity": 1,
          "duration": 0.08333325000000968
        },
        {
          "name": "F5",
          "midi": 77,
          "time": 344.8329885000065,
          "velocity": 1,
          "duration": 0.08333325000000968
        },
        {
          "name": "D4",
          "midi": 62,
          "time": 344.8329885000065,
          "velocity": 1,
          "duration": 0.08333325000000968
        },
        {
          "name": "A#3",
          "midi": 58,
          "time": 344.8329885000065,
          "velocity": 1,
          "duration": 0.08333325000000968
        },
        {
          "name": "A#3",
          "midi": 58,
          "time": 344.9163217500065,
          "velocity": 1,
          "duration": 0.08333325000000968
        },
        {
          "name": "D4",
          "midi": 62,
          "time": 344.9163217500065,
          "velocity": 1,
          "duration": 0.08333325000000968
        },
        {
          "name": "F5",
          "midi": 77,
          "time": 344.9163217500065,
          "velocity": 1,
          "duration": 0.08333325000000968
        },
        {
          "name": "A#2",
          "midi": 46,
          "time": 344.9996550000065,
          "velocity": 1,
          "duration": 0.33333300000003874
        },
        {
          "name": "A#4",
          "midi": 70,
          "time": 344.9996550000065,
          "velocity": 1,
          "duration": 0.08333325000000968
        },
        {
          "name": "D#4",
          "midi": 63,
          "time": 344.9996550000065,
          "velocity": 1,
          "duration": 0.08333325000000968
        },
        {
          "name": "F#4",
          "midi": 66,
          "time": 344.9996550000065,
          "velocity": 1,
          "duration": 0.08333325000000968
        },
        {
          "name": "A#3",
          "midi": 58,
          "time": 344.9996550000065,
          "velocity": 1,
          "duration": 0.33333300000003874
        },
        {
          "name": "F#4",
          "midi": 66,
          "time": 345.0829882500065,
          "velocity": 1,
          "duration": 0.08333325000000968
        },
        {
          "name": "D#4",
          "midi": 63,
          "time": 345.0829882500065,
          "velocity": 1,
          "duration": 0.08333325000000968
        },
        {
          "name": "A#4",
          "midi": 70,
          "time": 345.0829882500065,
          "velocity": 1,
          "duration": 0.08333325000000968
        },
        {
          "name": "A#4",
          "midi": 70,
          "time": 345.1663215000065,
          "velocity": 1,
          "duration": 0.08333325000000968
        },
        {
          "name": "D#4",
          "midi": 63,
          "time": 345.1663215000065,
          "velocity": 1,
          "duration": 0.08333325000000968
        },
        {
          "name": "F#4",
          "midi": 66,
          "time": 345.1663215000065,
          "velocity": 1,
          "duration": 0.08333325000000968
        },
        {
          "name": "F#4",
          "midi": 66,
          "time": 345.2496547500065,
          "velocity": 1,
          "duration": 0.08333325000000968
        },
        {
          "name": "D#4",
          "midi": 63,
          "time": 345.2496547500065,
          "velocity": 1,
          "duration": 0.08333325000000968
        },
        {
          "name": "A#4",
          "midi": 70,
          "time": 345.2496547500065,
          "velocity": 1,
          "duration": 0.08333325000000968
        },
        {
          "name": "D#3",
          "midi": 51,
          "time": 345.33298800000654,
          "velocity": 1,
          "duration": 0.33333300000003874
        },
        {
          "name": "A#4",
          "midi": 70,
          "time": 345.33298800000654,
          "velocity": 1,
          "duration": 0.08333325000000968
        },
        {
          "name": "D#4",
          "midi": 63,
          "time": 345.33298800000654,
          "velocity": 1,
          "duration": 0.33333300000003874
        },
        {
          "name": "F#4",
          "midi": 66,
          "time": 345.33298800000654,
          "velocity": 1,
          "duration": 0.08333325000000968
        },
        {
          "name": "A#3",
          "midi": 58,
          "time": 345.33298800000654,
          "velocity": 1,
          "duration": 0.08333325000000968
        },
        {
          "name": "A#4",
          "midi": 70,
          "time": 345.41632125000655,
          "velocity": 1,
          "duration": 0.08333325000000968
        },
        {
          "name": "F#4",
          "midi": 66,
          "time": 345.41632125000655,
          "velocity": 1,
          "duration": 0.08333325000000968
        },
        {
          "name": "A#3",
          "midi": 58,
          "time": 345.41632125000655,
          "velocity": 1,
          "duration": 0.08333325000000968
        },
        {
          "name": "A#3",
          "midi": 58,
          "time": 345.49965450000656,
          "velocity": 1,
          "duration": 0.08333325000000968
        },
        {
          "name": "F#4",
          "midi": 66,
          "time": 345.49965450000656,
          "velocity": 1,
          "duration": 0.08333325000000968
        },
        {
          "name": "A#4",
          "midi": 70,
          "time": 345.49965450000656,
          "velocity": 1,
          "duration": 0.08333325000000968
        },
        {
          "name": "A#4",
          "midi": 70,
          "time": 345.58298775000657,
          "velocity": 1,
          "duration": 0.08333325000000968
        },
        {
          "name": "F#4",
          "midi": 66,
          "time": 345.58298775000657,
          "velocity": 1,
          "duration": 0.08333325000000968
        },
        {
          "name": "A#3",
          "midi": 58,
          "time": 345.58298775000657,
          "velocity": 1,
          "duration": 0.08333325000000968
        },
        {
          "name": "A#3",
          "midi": 58,
          "time": 345.6663210000066,
          "velocity": 1,
          "duration": 0.33333300000003874
        },
        {
          "name": "F#4",
          "midi": 66,
          "time": 345.6663210000066,
          "velocity": 1,
          "duration": 0.08333325000000968
        },
        {
          "name": "D#4",
          "midi": 63,
          "time": 345.6663210000066,
          "velocity": 1,
          "duration": 0.08333325000000968
        },
        {
          "name": "A#4",
          "midi": 70,
          "time": 345.6663210000066,
          "velocity": 1,
          "duration": 0.08333325000000968
        },
        {
          "name": "A#2",
          "midi": 46,
          "time": 345.6663210000066,
          "velocity": 1,
          "duration": 0.33333300000003874
        },
        {
          "name": "A#4",
          "midi": 70,
          "time": 345.7496542500066,
          "velocity": 1,
          "duration": 0.08333325000000968
        },
        {
          "name": "D#4",
          "midi": 63,
          "time": 345.7496542500066,
          "velocity": 1,
          "duration": 0.08333325000000968
        },
        {
          "name": "F#4",
          "midi": 66,
          "time": 345.7496542500066,
          "velocity": 1,
          "duration": 0.08333325000000968
        },
        {
          "name": "F#4",
          "midi": 66,
          "time": 345.8329875000066,
          "velocity": 1,
          "duration": 0.08333325000000968
        },
        {
          "name": "D#4",
          "midi": 63,
          "time": 345.8329875000066,
          "velocity": 1,
          "duration": 0.08333325000000968
        },
        {
          "name": "A#4",
          "midi": 70,
          "time": 345.8329875000066,
          "velocity": 1,
          "duration": 0.08333325000000968
        },
        {
          "name": "A#4",
          "midi": 70,
          "time": 345.9163207500066,
          "velocity": 1,
          "duration": 0.08333325000000968
        },
        {
          "name": "D#4",
          "midi": 63,
          "time": 345.9163207500066,
          "velocity": 1,
          "duration": 0.08333325000000968
        },
        {
          "name": "F#4",
          "midi": 66,
          "time": 345.9163207500066,
          "velocity": 1,
          "duration": 0.08333325000000968
        },
        {
          "name": "F#3",
          "midi": 54,
          "time": 345.9996540000066,
          "velocity": 1,
          "duration": 0.33333300000003874
        },
        {
          "name": "A#4",
          "midi": 70,
          "time": 345.9996540000066,
          "velocity": 1,
          "duration": 0.08333325000000968
        },
        {
          "name": "D#4",
          "midi": 63,
          "time": 345.9996540000066,
          "velocity": 1,
          "duration": 0.08333325000000968
        },
        {
          "name": "F#4",
          "midi": 66,
          "time": 345.9996540000066,
          "velocity": 1,
          "duration": 0.33333300000003874
        },
        {
          "name": "A#3",
          "midi": 58,
          "time": 345.9996540000066,
          "velocity": 1,
          "duration": 0.08333325000000968
        },
        {
          "name": "A#3",
          "midi": 58,
          "time": 346.0829872500066,
          "velocity": 1,
          "duration": 0.08333325000000968
        },
        {
          "name": "D#4",
          "midi": 63,
          "time": 346.0829872500066,
          "velocity": 1,
          "duration": 0.08333325000000968
        },
        {
          "name": "A#4",
          "midi": 70,
          "time": 346.0829872500066,
          "velocity": 1,
          "duration": 0.08333325000000968
        },
        {
          "name": "A#4",
          "midi": 70,
          "time": 346.16632050000663,
          "velocity": 1,
          "duration": 0.08333325000000968
        },
        {
          "name": "D#4",
          "midi": 63,
          "time": 346.16632050000663,
          "velocity": 1,
          "duration": 0.08333325000000968
        },
        {
          "name": "A#3",
          "midi": 58,
          "time": 346.16632050000663,
          "velocity": 1,
          "duration": 0.08333325000000968
        },
        {
          "name": "A#4",
          "midi": 70,
          "time": 346.24965375000664,
          "velocity": 1,
          "duration": 0.08333325000000968
        },
        {
          "name": "D#4",
          "midi": 63,
          "time": 346.24965375000664,
          "velocity": 1,
          "duration": 0.08333325000000968
        },
        {
          "name": "A#3",
          "midi": 58,
          "time": 346.24965375000664,
          "velocity": 1,
          "duration": 0.08333325000000968
        },
        {
          "name": "A#3",
          "midi": 58,
          "time": 346.33298700000665,
          "velocity": 1,
          "duration": 0.33333300000003874
        },
        {
          "name": "F#4",
          "midi": 66,
          "time": 346.33298700000665,
          "velocity": 1,
          "duration": 0.08333325000000968
        },
        {
          "name": "D#4",
          "midi": 63,
          "time": 346.33298700000665,
          "velocity": 1,
          "duration": 0.08333325000000968
        },
        {
          "name": "A#4",
          "midi": 70,
          "time": 346.33298700000665,
          "velocity": 1,
          "duration": 0.08333325000000968
        },
        {
          "name": "A#2",
          "midi": 46,
          "time": 346.33298700000665,
          "velocity": 1,
          "duration": 0.33333300000003874
        },
        {
          "name": "A#4",
          "midi": 70,
          "time": 346.41632025000666,
          "velocity": 1,
          "duration": 0.08333325000000968
        },
        {
          "name": "D#4",
          "midi": 63,
          "time": 346.41632025000666,
          "velocity": 1,
          "duration": 0.08333325000000968
        },
        {
          "name": "F#4",
          "midi": 66,
          "time": 346.41632025000666,
          "velocity": 1,
          "duration": 0.08333325000000968
        },
        {
          "name": "F#4",
          "midi": 66,
          "time": 346.4996535000067,
          "velocity": 1,
          "duration": 0.08333325000000968
        },
        {
          "name": "D#4",
          "midi": 63,
          "time": 346.4996535000067,
          "velocity": 1,
          "duration": 0.08333325000000968
        },
        {
          "name": "A#4",
          "midi": 70,
          "time": 346.4996535000067,
          "velocity": 1,
          "duration": 0.08333325000000968
        },
        {
          "name": "A#4",
          "midi": 70,
          "time": 346.5829867500067,
          "velocity": 1,
          "duration": 0.08333325000000968
        },
        {
          "name": "D#4",
          "midi": 63,
          "time": 346.5829867500067,
          "velocity": 1,
          "duration": 0.08333325000000968
        },
        {
          "name": "F#4",
          "midi": 66,
          "time": 346.5829867500067,
          "velocity": 1,
          "duration": 0.08333325000000968
        },
        {
          "name": "A#4",
          "midi": 70,
          "time": 346.6663200000067,
          "velocity": 1,
          "duration": 0.33333300000003874
        },
        {
          "name": "A#3",
          "midi": 58,
          "time": 346.6663200000067,
          "velocity": 1,
          "duration": 0.33333300000003874
        },
        {
          "name": "F#4",
          "midi": 66,
          "time": 346.6663200000067,
          "velocity": 1,
          "duration": 0.08333325000000968
        },
        {
          "name": "D#4",
          "midi": 63,
          "time": 346.6663200000067,
          "velocity": 1,
          "duration": 0.08333325000000968
        },
        {
          "name": "D#4",
          "midi": 63,
          "time": 346.7496532500067,
          "velocity": 1,
          "duration": 0.08333325000000968
        },
        {
          "name": "F#4",
          "midi": 66,
          "time": 346.7496532500067,
          "velocity": 1,
          "duration": 0.08333325000000968
        },
        {
          "name": "F#4",
          "midi": 66,
          "time": 346.8329865000067,
          "velocity": 1,
          "duration": 0.08333325000000968
        },
        {
          "name": "D#4",
          "midi": 63,
          "time": 346.8329865000067,
          "velocity": 1,
          "duration": 0.08333325000000968
        },
        {
          "name": "D#4",
          "midi": 63,
          "time": 346.9163197500067,
          "velocity": 1,
          "duration": 0.08333325000000968
        },
        {
          "name": "F#4",
          "midi": 66,
          "time": 346.9163197500067,
          "velocity": 1,
          "duration": 0.08333325000000968
        },
        {
          "name": "A#3",
          "midi": 58,
          "time": 346.99965300000673,
          "velocity": 1,
          "duration": 0.33333300000003874
        },
        {
          "name": "F#4",
          "midi": 66,
          "time": 346.99965300000673,
          "velocity": 1,
          "duration": 0.08333325000000968
        },
        {
          "name": "D#4",
          "midi": 63,
          "time": 346.99965300000673,
          "velocity": 1,
          "duration": 0.08333325000000968
        },
        {
          "name": "A#4",
          "midi": 70,
          "time": 346.99965300000673,
          "velocity": 1,
          "duration": 0.08333325000000968
        },
        {
          "name": "A#2",
          "midi": 46,
          "time": 346.99965300000673,
          "velocity": 1,
          "duration": 0.33333300000003874
        },
        {
          "name": "A#4",
          "midi": 70,
          "time": 347.08298625000674,
          "velocity": 1,
          "duration": 0.08333325000000968
        },
        {
          "name": "D#4",
          "midi": 63,
          "time": 347.08298625000674,
          "velocity": 1,
          "duration": 0.08333325000000968
        },
        {
          "name": "F#4",
          "midi": 66,
          "time": 347.08298625000674,
          "velocity": 1,
          "duration": 0.08333325000000968
        },
        {
          "name": "A#4",
          "midi": 70,
          "time": 347.16631950000675,
          "velocity": 1,
          "duration": 0.08333325000000968
        },
        {
          "name": "D#4",
          "midi": 63,
          "time": 347.16631950000675,
          "velocity": 1,
          "duration": 0.08333325000000968
        },
        {
          "name": "F#4",
          "midi": 66,
          "time": 347.16631950000675,
          "velocity": 1,
          "duration": 0.08333325000000968
        },
        {
          "name": "F#4",
          "midi": 66,
          "time": 347.24965275000676,
          "velocity": 1,
          "duration": 0.08333325000000968
        },
        {
          "name": "D#4",
          "midi": 63,
          "time": 347.24965275000676,
          "velocity": 1,
          "duration": 0.08333325000000968
        },
        {
          "name": "A#4",
          "midi": 70,
          "time": 347.24965275000676,
          "velocity": 1,
          "duration": 0.08333325000000968
        },
        {
          "name": "D#4",
          "midi": 63,
          "time": 347.33298600000677,
          "velocity": 1,
          "duration": 0.33333300000003874
        },
        {
          "name": "A#4",
          "midi": 70,
          "time": 347.33298600000677,
          "velocity": 1,
          "duration": 0.08333325000000968
        },
        {
          "name": "F#4",
          "midi": 66,
          "time": 347.33298600000677,
          "velocity": 1,
          "duration": 0.08333325000000968
        },
        {
          "name": "A#3",
          "midi": 58,
          "time": 347.33298600000677,
          "velocity": 1,
          "duration": 0.08333325000000968
        },
        {
          "name": "D#5",
          "midi": 75,
          "time": 347.33298600000677,
          "velocity": 1,
          "duration": 0.33333300000003874
        },
        {
          "name": "A#3",
          "midi": 58,
          "time": 347.4163192500068,
          "velocity": 1,
          "duration": 0.08333325000000968
        },
        {
          "name": "F#4",
          "midi": 66,
          "time": 347.4163192500068,
          "velocity": 1,
          "duration": 0.08333325000000968
        },
        {
          "name": "A#4",
          "midi": 70,
          "time": 347.4163192500068,
          "velocity": 1,
          "duration": 0.08333325000000968
        },
        {
          "name": "A#4",
          "midi": 70,
          "time": 347.4996525000068,
          "velocity": 1,
          "duration": 0.08333325000000968
        },
        {
          "name": "F#4",
          "midi": 66,
          "time": 347.4996525000068,
          "velocity": 1,
          "duration": 0.08333325000000968
        },
        {
          "name": "A#3",
          "midi": 58,
          "time": 347.4996525000068,
          "velocity": 1,
          "duration": 0.08333325000000968
        },
        {
          "name": "A#3",
          "midi": 58,
          "time": 347.5829857500068,
          "velocity": 1,
          "duration": 0.08333325000000968
        },
        {
          "name": "F#4",
          "midi": 66,
          "time": 347.5829857500068,
          "velocity": 1,
          "duration": 0.08333325000000968
        },
        {
          "name": "A#4",
          "midi": 70,
          "time": 347.5829857500068,
          "velocity": 1,
          "duration": 0.08333325000000968
        },
        {
          "name": "A#2",
          "midi": 46,
          "time": 347.6663190000068,
          "velocity": 1,
          "duration": 0.33333300000003874
        },
        {
          "name": "A#4",
          "midi": 70,
          "time": 347.6663190000068,
          "velocity": 1,
          "duration": 0.08333325000000968
        },
        {
          "name": "D#4",
          "midi": 63,
          "time": 347.6663190000068,
          "velocity": 1,
          "duration": 0.08333325000000968
        },
        {
          "name": "F#4",
          "midi": 66,
          "time": 347.6663190000068,
          "velocity": 1,
          "duration": 0.08333325000000968
        },
        {
          "name": "A#3",
          "midi": 58,
          "time": 347.6663190000068,
          "velocity": 1,
          "duration": 0.33333300000003874
        },
        {
          "name": "A#4",
          "midi": 70,
          "time": 347.7496522500068,
          "velocity": 1,
          "duration": 0.08333325000000968
        },
        {
          "name": "D#4",
          "midi": 63,
          "time": 347.7496522500068,
          "velocity": 1,
          "duration": 0.08333325000000968
        },
        {
          "name": "F#4",
          "midi": 66,
          "time": 347.7496522500068,
          "velocity": 1,
          "duration": 0.08333325000000968
        },
        {
          "name": "F#4",
          "midi": 66,
          "time": 347.8329855000068,
          "velocity": 1,
          "duration": 0.08333325000000968
        },
        {
          "name": "D#4",
          "midi": 63,
          "time": 347.8329855000068,
          "velocity": 1,
          "duration": 0.08333325000000968
        },
        {
          "name": "A#4",
          "midi": 70,
          "time": 347.8329855000068,
          "velocity": 1,
          "duration": 0.08333325000000968
        },
        {
          "name": "A#4",
          "midi": 70,
          "time": 347.91631875000684,
          "velocity": 1,
          "duration": 0.08333325000000968
        },
        {
          "name": "D#4",
          "midi": 63,
          "time": 347.91631875000684,
          "velocity": 1,
          "duration": 0.08333325000000968
        },
        {
          "name": "F#4",
          "midi": 66,
          "time": 347.91631875000684,
          "velocity": 1,
          "duration": 0.08333325000000968
        },
        {
          "name": "F#4",
          "midi": 66,
          "time": 347.99965200000685,
          "velocity": 1,
          "duration": 0.9999990000001162
        },
        {
          "name": "A#4",
          "midi": 70,
          "time": 347.99965200000685,
          "velocity": 1,
          "duration": 0.08333325000000968
        },
        {
          "name": "D#4",
          "midi": 63,
          "time": 347.99965200000685,
          "velocity": 1,
          "duration": 0.08333325000000968
        },
        {
          "name": "A#3",
          "midi": 58,
          "time": 347.99965200000685,
          "velocity": 1,
          "duration": 0.08333325000000968
        },
        {
          "name": "A#4",
          "midi": 70,
          "time": 348.08298525000686,
          "velocity": 1,
          "duration": 0.08333325000000968
        },
        {
          "name": "D#4",
          "midi": 63,
          "time": 348.08298525000686,
          "velocity": 1,
          "duration": 0.08333325000000968
        },
        {
          "name": "A#3",
          "midi": 58,
          "time": 348.08298525000686,
          "velocity": 1,
          "duration": 0.08333325000000968
        },
        {
          "name": "A#3",
          "midi": 58,
          "time": 348.16631850000687,
          "velocity": 1,
          "duration": 0.08333325000000968
        },
        {
          "name": "D#4",
          "midi": 63,
          "time": 348.16631850000687,
          "velocity": 1,
          "duration": 0.08333325000000968
        },
        {
          "name": "A#4",
          "midi": 70,
          "time": 348.16631850000687,
          "velocity": 1,
          "duration": 0.08333325000000968
        },
        {
          "name": "A#4",
          "midi": 70,
          "time": 348.2496517500069,
          "velocity": 1,
          "duration": 0.08333325000000968
        },
        {
          "name": "D#4",
          "midi": 63,
          "time": 348.2496517500069,
          "velocity": 1,
          "duration": 0.08333325000000968
        },
        {
          "name": "A#3",
          "midi": 58,
          "time": 348.2496517500069,
          "velocity": 1,
          "duration": 0.08333325000000968
        },
        {
          "name": "D#5",
          "midi": 75,
          "time": 348.3329850000069,
          "velocity": 1,
          "duration": 0.08333325000000968
        },
        {
          "name": "D#4",
          "midi": 63,
          "time": 348.3329850000069,
          "velocity": 1,
          "duration": 0.08333325000000968
        },
        {
          "name": "A#3",
          "midi": 58,
          "time": 348.3329850000069,
          "velocity": 1,
          "duration": 0.08333325000000968
        },
        {
          "name": "D#5",
          "midi": 75,
          "time": 348.4163182500069,
          "velocity": 1,
          "duration": 0.08333325000000968
        },
        {
          "name": "D#4",
          "midi": 63,
          "time": 348.4163182500069,
          "velocity": 1,
          "duration": 0.08333325000000968
        },
        {
          "name": "A#3",
          "midi": 58,
          "time": 348.4163182500069,
          "velocity": 1,
          "duration": 0.08333325000000968
        },
        {
          "name": "D#5",
          "midi": 75,
          "time": 348.4996515000069,
          "velocity": 1,
          "duration": 0.08333325000000968
        },
        {
          "name": "D#4",
          "midi": 63,
          "time": 348.4996515000069,
          "velocity": 1,
          "duration": 0.08333325000000968
        },
        {
          "name": "A#3",
          "midi": 58,
          "time": 348.4996515000069,
          "velocity": 1,
          "duration": 0.08333325000000968
        },
        {
          "name": "A#3",
          "midi": 58,
          "time": 348.5829847500069,
          "velocity": 1,
          "duration": 0.08333325000000968
        },
        {
          "name": "D#4",
          "midi": 63,
          "time": 348.5829847500069,
          "velocity": 1,
          "duration": 0.08333325000000968
        },
        {
          "name": "D#5",
          "midi": 75,
          "time": 348.5829847500069,
          "velocity": 1,
          "duration": 0.08333325000000968
        },
        {
          "name": "F#5",
          "midi": 78,
          "time": 348.6663180000069,
          "velocity": 1,
          "duration": 0.08333325000000968
        },
        {
          "name": "D#4",
          "midi": 63,
          "time": 348.6663180000069,
          "velocity": 1,
          "duration": 0.08333325000000968
        },
        {
          "name": "A#3",
          "midi": 58,
          "time": 348.6663180000069,
          "velocity": 1,
          "duration": 0.08333325000000968
        },
        {
          "name": "F#5",
          "midi": 78,
          "time": 348.74965125000693,
          "velocity": 1,
          "duration": 0.08333325000000968
        },
        {
          "name": "D#4",
          "midi": 63,
          "time": 348.74965125000693,
          "velocity": 1,
          "duration": 0.08333325000000968
        },
        {
          "name": "A#3",
          "midi": 58,
          "time": 348.74965125000693,
          "velocity": 1,
          "duration": 0.08333325000000968
        },
        {
          "name": "A#3",
          "midi": 58,
          "time": 348.83298450000694,
          "velocity": 1,
          "duration": 0.08333325000000968
        },
        {
          "name": "D#4",
          "midi": 63,
          "time": 348.83298450000694,
          "velocity": 1,
          "duration": 0.08333325000000968
        },
        {
          "name": "F#5",
          "midi": 78,
          "time": 348.83298450000694,
          "velocity": 1,
          "duration": 0.08333325000000968
        },
        {
          "name": "F#5",
          "midi": 78,
          "time": 348.91631775000695,
          "velocity": 1,
          "duration": 0.08333325000000968
        },
        {
          "name": "D#4",
          "midi": 63,
          "time": 348.91631775000695,
          "velocity": 1,
          "duration": 0.08333325000000968
        },
        {
          "name": "A#3",
          "midi": 58,
          "time": 348.91631775000695,
          "velocity": 1,
          "duration": 0.08333325000000968
        },
        {
          "name": "C3",
          "midi": 48,
          "time": 348.99965100000696,
          "velocity": 1,
          "duration": 0.33333300000003874
        },
        {
          "name": "G#3",
          "midi": 56,
          "time": 348.99965100000696,
          "velocity": 1,
          "duration": 0.08333325000000968
        },
        {
          "name": "F#4",
          "midi": 66,
          "time": 348.99965100000696,
          "velocity": 1,
          "duration": 0.08333325000000968
        },
        {
          "name": "G#4",
          "midi": 68,
          "time": 348.99965100000696,
          "velocity": 1,
          "duration": 0.08333325000000968
        },
        {
          "name": "C2",
          "midi": 36,
          "time": 348.99965100000696,
          "velocity": 1,
          "duration": 0.33333300000003874
        },
        {
          "name": "G#4",
          "midi": 68,
          "time": 349.082984250007,
          "velocity": 1,
          "duration": 0.08333325000000968
        },
        {
          "name": "F#4",
          "midi": 66,
          "time": 349.082984250007,
          "velocity": 1,
          "duration": 0.08333325000000968
        },
        {
          "name": "G#3",
          "midi": 56,
          "time": 349.082984250007,
          "velocity": 1,
          "duration": 0.08333325000000968
        },
        {
          "name": "G#4",
          "midi": 68,
          "time": 349.166317500007,
          "velocity": 1,
          "duration": 0.08333325000000968
        },
        {
          "name": "F#4",
          "midi": 66,
          "time": 349.166317500007,
          "velocity": 1,
          "duration": 0.08333325000000968
        },
        {
          "name": "G#3",
          "midi": 56,
          "time": 349.166317500007,
          "velocity": 1,
          "duration": 0.08333325000000968
        },
        {
          "name": "G#4",
          "midi": 68,
          "time": 349.249650750007,
          "velocity": 1,
          "duration": 0.08333325000000968
        },
        {
          "name": "F#4",
          "midi": 66,
          "time": 349.249650750007,
          "velocity": 1,
          "duration": 0.08333325000000968
        },
        {
          "name": "G#3",
          "midi": 56,
          "time": 349.249650750007,
          "velocity": 1,
          "duration": 0.08333325000000968
        },
        {
          "name": "D#3",
          "midi": 51,
          "time": 349.332984000007,
          "velocity": 1,
          "duration": 0.33333300000003874
        },
        {
          "name": "G#3",
          "midi": 56,
          "time": 349.332984000007,
          "velocity": 1,
          "duration": 0.08333325000000968
        },
        {
          "name": "F#4",
          "midi": 66,
          "time": 349.332984000007,
          "velocity": 1,
          "duration": 0.08333325000000968
        },
        {
          "name": "G#4",
          "midi": 68,
          "time": 349.332984000007,
          "velocity": 1,
          "duration": 0.08333325000000968
        },
        {
          "name": "D#2",
          "midi": 39,
          "time": 349.332984000007,
          "velocity": 1,
          "duration": 0.33333300000003874
        },
        {
          "name": "G#4",
          "midi": 68,
          "time": 349.416317250007,
          "velocity": 1,
          "duration": 0.08333325000000968
        },
        {
          "name": "F#4",
          "midi": 66,
          "time": 349.416317250007,
          "velocity": 1,
          "duration": 0.08333325000000968
        },
        {
          "name": "G#3",
          "midi": 56,
          "time": 349.416317250007,
          "velocity": 1,
          "duration": 0.08333325000000968
        },
        {
          "name": "G#4",
          "midi": 68,
          "time": 349.499650500007,
          "velocity": 1,
          "duration": 0.08333325000000968
        },
        {
          "name": "F#4",
          "midi": 66,
          "time": 349.499650500007,
          "velocity": 1,
          "duration": 0.08333325000000968
        },
        {
          "name": "G#3",
          "midi": 56,
          "time": 349.499650500007,
          "velocity": 1,
          "duration": 0.08333325000000968
        },
        {
          "name": "G#4",
          "midi": 68,
          "time": 349.58298375000703,
          "velocity": 1,
          "duration": 0.08333325000000968
        },
        {
          "name": "F#4",
          "midi": 66,
          "time": 349.58298375000703,
          "velocity": 1,
          "duration": 0.08333325000000968
        },
        {
          "name": "G#3",
          "midi": 56,
          "time": 349.58298375000703,
          "velocity": 1,
          "duration": 0.08333325000000968
        },
        {
          "name": "C3",
          "midi": 48,
          "time": 349.66631700000704,
          "velocity": 1,
          "duration": 0.33333300000003874
        },
        {
          "name": "G#3",
          "midi": 56,
          "time": 349.66631700000704,
          "velocity": 1,
          "duration": 0.08333325000000968
        },
        {
          "name": "F#4",
          "midi": 66,
          "time": 349.66631700000704,
          "velocity": 1,
          "duration": 0.08333325000000968
        },
        {
          "name": "G#4",
          "midi": 68,
          "time": 349.66631700000704,
          "velocity": 1,
          "duration": 0.08333325000000968
        },
        {
          "name": "C2",
          "midi": 36,
          "time": 349.66631700000704,
          "velocity": 1,
          "duration": 0.33333300000003874
        },
        {
          "name": "G#4",
          "midi": 68,
          "time": 349.74965025000705,
          "velocity": 1,
          "duration": 0.08333325000000968
        },
        {
          "name": "F#4",
          "midi": 66,
          "time": 349.74965025000705,
          "velocity": 1,
          "duration": 0.08333325000000968
        },
        {
          "name": "G#3",
          "midi": 56,
          "time": 349.74965025000705,
          "velocity": 1,
          "duration": 0.08333325000000968
        },
        {
          "name": "G#4",
          "midi": 68,
          "time": 349.83298350000706,
          "velocity": 1,
          "duration": 0.08333325000000968
        },
        {
          "name": "F#4",
          "midi": 66,
          "time": 349.83298350000706,
          "velocity": 1,
          "duration": 0.08333325000000968
        },
        {
          "name": "G#3",
          "midi": 56,
          "time": 349.83298350000706,
          "velocity": 1,
          "duration": 0.08333325000000968
        },
        {
          "name": "G#4",
          "midi": 68,
          "time": 349.91631675000707,
          "velocity": 1,
          "duration": 0.08333325000000968
        },
        {
          "name": "F#4",
          "midi": 66,
          "time": 349.91631675000707,
          "velocity": 1,
          "duration": 0.08333325000000968
        },
        {
          "name": "G#3",
          "midi": 56,
          "time": 349.91631675000707,
          "velocity": 1,
          "duration": 0.08333325000000968
        },
        {
          "name": "G#3",
          "midi": 56,
          "time": 349.9996500000071,
          "velocity": 1,
          "duration": 0.33333300000003874
        },
        {
          "name": "F#4",
          "midi": 66,
          "time": 349.9996500000071,
          "velocity": 1,
          "duration": 0.08333325000000968
        },
        {
          "name": "G#4",
          "midi": 68,
          "time": 349.9996500000071,
          "velocity": 1,
          "duration": 0.08333325000000968
        },
        {
          "name": "G#2",
          "midi": 44,
          "time": 349.9996500000071,
          "velocity": 1,
          "duration": 0.33333300000003874
        },
        {
          "name": "G#4",
          "midi": 68,
          "time": 350.0829832500071,
          "velocity": 1,
          "duration": 0.08333325000000968
        },
        {
          "name": "F#4",
          "midi": 66,
          "time": 350.0829832500071,
          "velocity": 1,
          "duration": 0.08333325000000968
        },
        {
          "name": "G#4",
          "midi": 68,
          "time": 350.1663165000071,
          "velocity": 1,
          "duration": 0.08333325000000968
        },
        {
          "name": "F#4",
          "midi": 66,
          "time": 350.1663165000071,
          "velocity": 1,
          "duration": 0.08333325000000968
        },
        {
          "name": "G#4",
          "midi": 68,
          "time": 350.2496497500071,
          "velocity": 1,
          "duration": 0.08333325000000968
        },
        {
          "name": "F#4",
          "midi": 66,
          "time": 350.2496497500071,
          "velocity": 1,
          "duration": 0.08333325000000968
        },
        {
          "name": "C3",
          "midi": 48,
          "time": 350.3329830000071,
          "velocity": 1,
          "duration": 0.33333300000003874
        },
        {
          "name": "G#3",
          "midi": 56,
          "time": 350.3329830000071,
          "velocity": 1,
          "duration": 0.08333325000000968
        },
        {
          "name": "F#4",
          "midi": 66,
          "time": 350.3329830000071,
          "velocity": 1,
          "duration": 0.08333325000000968
        },
        {
          "name": "G#4",
          "midi": 68,
          "time": 350.3329830000071,
          "velocity": 1,
          "duration": 0.08333325000000968
        },
        {
          "name": "C2",
          "midi": 36,
          "time": 350.3329830000071,
          "velocity": 1,
          "duration": 0.33333300000003874
        },
        {
          "name": "G#4",
          "midi": 68,
          "time": 350.4163162500071,
          "velocity": 1,
          "duration": 0.08333325000000968
        },
        {
          "name": "F#4",
          "midi": 66,
          "time": 350.4163162500071,
          "velocity": 1,
          "duration": 0.08333325000000968
        },
        {
          "name": "G#3",
          "midi": 56,
          "time": 350.4163162500071,
          "velocity": 1,
          "duration": 0.08333325000000968
        },
        {
          "name": "G#4",
          "midi": 68,
          "time": 350.49964950000714,
          "velocity": 1,
          "duration": 0.08333325000000968
        },
        {
          "name": "F#4",
          "midi": 66,
          "time": 350.49964950000714,
          "velocity": 1,
          "duration": 0.08333325000000968
        },
        {
          "name": "G#3",
          "midi": 56,
          "time": 350.49964950000714,
          "velocity": 1,
          "duration": 0.08333325000000968
        },
        {
          "name": "G#3",
          "midi": 56,
          "time": 350.58298275000715,
          "velocity": 1,
          "duration": 0.08333325000000968
        },
        {
          "name": "F#4",
          "midi": 66,
          "time": 350.58298275000715,
          "velocity": 1,
          "duration": 0.08333325000000968
        },
        {
          "name": "G#4",
          "midi": 68,
          "time": 350.58298275000715,
          "velocity": 1,
          "duration": 0.08333325000000968
        },
        {
          "name": "C3",
          "midi": 48,
          "time": 350.66631600000716,
          "velocity": 1,
          "duration": 0.33333300000003874
        },
        {
          "name": "C4",
          "midi": 60,
          "time": 350.66631600000716,
          "velocity": 1,
          "duration": 0.33333300000003874
        },
        {
          "name": "G#4",
          "midi": 68,
          "time": 350.66631600000716,
          "velocity": 1,
          "duration": 0.08333325000000968
        },
        {
          "name": "F#4",
          "midi": 66,
          "time": 350.66631600000716,
          "velocity": 1,
          "duration": 0.08333325000000968
        },
        {
          "name": "G#3",
          "midi": 56,
          "time": 350.66631600000716,
          "velocity": 1,
          "duration": 0.08333325000000968
        },
        {
          "name": "G#3",
          "midi": 56,
          "time": 350.74964925000717,
          "velocity": 1,
          "duration": 0.08333325000000968
        },
        {
          "name": "F#4",
          "midi": 66,
          "time": 350.74964925000717,
          "velocity": 1,
          "duration": 0.08333325000000968
        },
        {
          "name": "G#4",
          "midi": 68,
          "time": 350.74964925000717,
          "velocity": 1,
          "duration": 0.08333325000000968
        },
        {
          "name": "G#4",
          "midi": 68,
          "time": 350.8329825000072,
          "velocity": 1,
          "duration": 0.08333325000000968
        },
        {
          "name": "F#4",
          "midi": 66,
          "time": 350.8329825000072,
          "velocity": 1,
          "duration": 0.08333325000000968
        },
        {
          "name": "G#3",
          "midi": 56,
          "time": 350.8329825000072,
          "velocity": 1,
          "duration": 0.08333325000000968
        },
        {
          "name": "G#4",
          "midi": 68,
          "time": 350.9163157500072,
          "velocity": 1,
          "duration": 0.08333325000000968
        },
        {
          "name": "F#4",
          "midi": 66,
          "time": 350.9163157500072,
          "velocity": 1,
          "duration": 0.08333325000000968
        },
        {
          "name": "G#3",
          "midi": 56,
          "time": 350.9163157500072,
          "velocity": 1,
          "duration": 0.08333325000000968
        },
        {
          "name": "C2",
          "midi": 36,
          "time": 350.9996490000072,
          "velocity": 1,
          "duration": 0.33333300000003874
        },
        {
          "name": "C3",
          "midi": 48,
          "time": 350.9996490000072,
          "velocity": 1,
          "duration": 0.33333300000003874
        },
        {
          "name": "G#4",
          "midi": 68,
          "time": 350.9996490000072,
          "velocity": 1,
          "duration": 0.08333325000000968
        },
        {
          "name": "F#4",
          "midi": 66,
          "time": 350.9996490000072,
          "velocity": 1,
          "duration": 0.08333325000000968
        },
        {
          "name": "G#3",
          "midi": 56,
          "time": 350.9996490000072,
          "velocity": 1,
          "duration": 0.08333325000000968
        },
        {
          "name": "G#3",
          "midi": 56,
          "time": 351.0829822500072,
          "velocity": 1,
          "duration": 0.08333325000000968
        },
        {
          "name": "F#4",
          "midi": 66,
          "time": 351.0829822500072,
          "velocity": 1,
          "duration": 0.08333325000000968
        },
        {
          "name": "G#4",
          "midi": 68,
          "time": 351.0829822500072,
          "velocity": 1,
          "duration": 0.08333325000000968
        },
        {
          "name": "G#4",
          "midi": 68,
          "time": 351.1663155000072,
          "velocity": 1,
          "duration": 0.08333325000000968
        },
        {
          "name": "F#4",
          "midi": 66,
          "time": 351.1663155000072,
          "velocity": 1,
          "duration": 0.08333325000000968
        },
        {
          "name": "G#3",
          "midi": 56,
          "time": 351.1663155000072,
          "velocity": 1,
          "duration": 0.08333325000000968
        },
        {
          "name": "G#4",
          "midi": 68,
          "time": 351.2496487500072,
          "velocity": 1,
          "duration": 0.08333325000000968
        },
        {
          "name": "F#4",
          "midi": 66,
          "time": 351.2496487500072,
          "velocity": 1,
          "duration": 0.08333325000000968
        },
        {
          "name": "G#3",
          "midi": 56,
          "time": 351.2496487500072,
          "velocity": 1,
          "duration": 0.08333325000000968
        },
        {
          "name": "D#4",
          "midi": 63,
          "time": 351.33298200000723,
          "velocity": 1,
          "duration": 0.33333300000003874
        },
        {
          "name": "G#3",
          "midi": 56,
          "time": 351.33298200000723,
          "velocity": 1,
          "duration": 0.08333325000000968
        },
        {
          "name": "F#4",
          "midi": 66,
          "time": 351.33298200000723,
          "velocity": 1,
          "duration": 0.08333325000000968
        },
        {
          "name": "G#4",
          "midi": 68,
          "time": 351.33298200000723,
          "velocity": 1,
          "duration": 0.08333325000000968
        },
        {
          "name": "D#3",
          "midi": 51,
          "time": 351.33298200000723,
          "velocity": 1,
          "duration": 0.33333300000003874
        },
        {
          "name": "G#4",
          "midi": 68,
          "time": 351.41631525000724,
          "velocity": 1,
          "duration": 0.08333325000000968
        },
        {
          "name": "F#4",
          "midi": 66,
          "time": 351.41631525000724,
          "velocity": 1,
          "duration": 0.08333325000000968
        },
        {
          "name": "G#3",
          "midi": 56,
          "time": 351.41631525000724,
          "velocity": 1,
          "duration": 0.08333325000000968
        },
        {
          "name": "G#3",
          "midi": 56,
          "time": 351.49964850000725,
          "velocity": 1,
          "duration": 0.08333325000000968
        },
        {
          "name": "F#4",
          "midi": 66,
          "time": 351.49964850000725,
          "velocity": 1,
          "duration": 0.08333325000000968
        },
        {
          "name": "G#4",
          "midi": 68,
          "time": 351.49964850000725,
          "velocity": 1,
          "duration": 0.08333325000000968
        },
        {
          "name": "G#4",
          "midi": 68,
          "time": 351.58298175000726,
          "velocity": 1,
          "duration": 0.08333325000000968
        },
        {
          "name": "F#4",
          "midi": 66,
          "time": 351.58298175000726,
          "velocity": 1,
          "duration": 0.08333325000000968
        },
        {
          "name": "G#3",
          "midi": 56,
          "time": 351.58298175000726,
          "velocity": 1,
          "duration": 0.08333325000000968
        },
        {
          "name": "C2",
          "midi": 36,
          "time": 351.6663150000073,
          "velocity": 1,
          "duration": 0.33333300000003874
        },
        {
          "name": "C3",
          "midi": 48,
          "time": 351.6663150000073,
          "velocity": 1,
          "duration": 0.33333300000003874
        },
        {
          "name": "G#4",
          "midi": 68,
          "time": 351.6663150000073,
          "velocity": 1,
          "duration": 0.08333325000000968
        },
        {
          "name": "F#4",
          "midi": 66,
          "time": 351.6663150000073,
          "velocity": 1,
          "duration": 0.08333325000000968
        },
        {
          "name": "G#3",
          "midi": 56,
          "time": 351.6663150000073,
          "velocity": 1,
          "duration": 0.08333325000000968
        },
        {
          "name": "G#4",
          "midi": 68,
          "time": 351.7496482500073,
          "velocity": 1,
          "duration": 0.08333325000000968
        },
        {
          "name": "F#4",
          "midi": 66,
          "time": 351.7496482500073,
          "velocity": 1,
          "duration": 0.08333325000000968
        },
        {
          "name": "G#3",
          "midi": 56,
          "time": 351.7496482500073,
          "velocity": 1,
          "duration": 0.08333325000000968
        },
        {
          "name": "G#3",
          "midi": 56,
          "time": 351.8329815000073,
          "velocity": 1,
          "duration": 0.08333325000000968
        },
        {
          "name": "F#4",
          "midi": 66,
          "time": 351.8329815000073,
          "velocity": 1,
          "duration": 0.08333325000000968
        },
        {
          "name": "G#4",
          "midi": 68,
          "time": 351.8329815000073,
          "velocity": 1,
          "duration": 0.08333325000000968
        },
        {
          "name": "G#4",
          "midi": 68,
          "time": 351.9163147500073,
          "velocity": 1,
          "duration": 0.08333325000000968
        },
        {
          "name": "F#4",
          "midi": 66,
          "time": 351.9163147500073,
          "velocity": 1,
          "duration": 0.08333325000000968
        },
        {
          "name": "G#3",
          "midi": 56,
          "time": 351.9163147500073,
          "velocity": 1,
          "duration": 0.08333325000000968
        },
        {
          "name": "G#4",
          "midi": 68,
          "time": 351.9996480000073,
          "velocity": 1,
          "duration": 0.9999990000001162
        },
        {
          "name": "C4",
          "midi": 60,
          "time": 351.9996480000073,
          "velocity": 1,
          "duration": 0.08333325000000968
        },
        {
          "name": "G#3",
          "midi": 56,
          "time": 351.9996480000073,
          "velocity": 1,
          "duration": 0.9999990000001162
        },
        {
          "name": "C4",
          "midi": 60,
          "time": 352.0829812500073,
          "velocity": 1,
          "duration": 0.08333325000000968
        },
        {
          "name": "C4",
          "midi": 60,
          "time": 352.16631450000733,
          "velocity": 1,
          "duration": 0.08333325000000968
        },
        {
          "name": "C4",
          "midi": 60,
          "time": 352.24964775000734,
          "velocity": 1,
          "duration": 0.08333325000000968
        },
        {
          "name": "C4",
          "midi": 60,
          "time": 352.33298100000735,
          "velocity": 1,
          "duration": 0.08333325000000968
        },
        {
          "name": "D#5",
          "midi": 75,
          "time": 352.33298100000735,
          "velocity": 1,
          "duration": 0.08333325000000968
        },
        {
          "name": "D#5",
          "midi": 75,
          "time": 352.41631425000736,
          "velocity": 1,
          "duration": 0.08333325000000968
        },
        {
          "name": "C4",
          "midi": 60,
          "time": 352.41631425000736,
          "velocity": 1,
          "duration": 0.08333325000000968
        },
        {
          "name": "D#5",
          "midi": 75,
          "time": 352.49964750000737,
          "velocity": 1,
          "duration": 0.08333325000000968
        },
        {
          "name": "C4",
          "midi": 60,
          "time": 352.49964750000737,
          "velocity": 1,
          "duration": 0.08333325000000968
        },
        {
          "name": "D#5",
          "midi": 75,
          "time": 352.5829807500074,
          "velocity": 1,
          "duration": 0.08333325000000968
        },
        {
          "name": "C4",
          "midi": 60,
          "time": 352.5829807500074,
          "velocity": 1,
          "duration": 0.08333325000000968
        },
        {
          "name": "F#5",
          "midi": 78,
          "time": 352.6663140000074,
          "velocity": 1,
          "duration": 0.08333325000000968
        },
        {
          "name": "C4",
          "midi": 60,
          "time": 352.6663140000074,
          "velocity": 1,
          "duration": 0.08333325000000968
        },
        {
          "name": "C4",
          "midi": 60,
          "time": 352.7496472500074,
          "velocity": 1,
          "duration": 0.08333325000000968
        },
        {
          "name": "F#5",
          "midi": 78,
          "time": 352.7496472500074,
          "velocity": 1,
          "duration": 0.08333325000000968
        },
        {
          "name": "F#5",
          "midi": 78,
          "time": 352.8329805000074,
          "velocity": 1,
          "duration": 0.08333325000000968
        },
        {
          "name": "C4",
          "midi": 60,
          "time": 352.8329805000074,
          "velocity": 1,
          "duration": 0.08333325000000968
        },
        {
          "name": "F#5",
          "midi": 78,
          "time": 352.9163137500074,
          "velocity": 1,
          "duration": 0.08333325000000968
        },
        {
          "name": "C4",
          "midi": 60,
          "time": 352.9163137500074,
          "velocity": 1,
          "duration": 0.08333325000000968
        },
        {
          "name": "C#3",
          "midi": 49,
          "time": 352.9996470000074,
          "velocity": 1,
          "duration": 0.33333300000003874
        },
        {
          "name": "G#3",
          "midi": 56,
          "time": 352.9996470000074,
          "velocity": 1,
          "duration": 0.08333325000000968
        },
        {
          "name": "F4",
          "midi": 65,
          "time": 352.9996470000074,
          "velocity": 1,
          "duration": 0.08333325000000968
        },
        {
          "name": "G#4",
          "midi": 68,
          "time": 352.9996470000074,
          "velocity": 1,
          "duration": 0.08333325000000968
        },
        {
          "name": "C#2",
          "midi": 37,
          "time": 352.9996470000074,
          "velocity": 1,
          "duration": 0.33333300000003874
        },
        {
          "name": "G#4",
          "midi": 68,
          "time": 353.08298025000744,
          "velocity": 1,
          "duration": 0.08333325000000968
        },
        {
          "name": "F4",
          "midi": 65,
          "time": 353.08298025000744,
          "velocity": 1,
          "duration": 0.08333325000000968
        },
        {
          "name": "G#3",
          "midi": 56,
          "time": 353.08298025000744,
          "velocity": 1,
          "duration": 0.08333325000000968
        },
        {
          "name": "G#4",
          "midi": 68,
          "time": 353.16631350000745,
          "velocity": 1,
          "duration": 0.08333325000000968
        },
        {
          "name": "F4",
          "midi": 65,
          "time": 353.16631350000745,
          "velocity": 1,
          "duration": 0.08333325000000968
        },
        {
          "name": "G#3",
          "midi": 56,
          "time": 353.16631350000745,
          "velocity": 1,
          "duration": 0.08333325000000968
        },
        {
          "name": "G#4",
          "midi": 68,
          "time": 353.24964675000746,
          "velocity": 1,
          "duration": 0.08333325000000968
        },
        {
          "name": "F4",
          "midi": 65,
          "time": 353.24964675000746,
          "velocity": 1,
          "duration": 0.08333325000000968
        },
        {
          "name": "G#3",
          "midi": 56,
          "time": 353.24964675000746,
          "velocity": 1,
          "duration": 0.08333325000000968
        },
        {
          "name": "F3",
          "midi": 53,
          "time": 353.33298000000747,
          "velocity": 1,
          "duration": 0.33333300000003874
        },
        {
          "name": "G#3",
          "midi": 56,
          "time": 353.33298000000747,
          "velocity": 1,
          "duration": 0.08333325000000968
        },
        {
          "name": "F4",
          "midi": 65,
          "time": 353.33298000000747,
          "velocity": 1,
          "duration": 0.08333325000000968
        },
        {
          "name": "G#4",
          "midi": 68,
          "time": 353.33298000000747,
          "velocity": 1,
          "duration": 0.08333325000000968
        },
        {
          "name": "F2",
          "midi": 41,
          "time": 353.33298000000747,
          "velocity": 1,
          "duration": 0.33333300000003874
        },
        {
          "name": "G#4",
          "midi": 68,
          "time": 353.4163132500075,
          "velocity": 1,
          "duration": 0.08333325000000968
        },
        {
          "name": "F4",
          "midi": 65,
          "time": 353.4163132500075,
          "velocity": 1,
          "duration": 0.08333325000000968
        },
        {
          "name": "G#3",
          "midi": 56,
          "time": 353.4163132500075,
          "velocity": 1,
          "duration": 0.08333325000000968
        },
        {
          "name": "G#4",
          "midi": 68,
          "time": 353.4996465000075,
          "velocity": 1,
          "duration": 0.08333325000000968
        },
        {
          "name": "F4",
          "midi": 65,
          "time": 353.4996465000075,
          "velocity": 1,
          "duration": 0.08333325000000968
        },
        {
          "name": "G#3",
          "midi": 56,
          "time": 353.4996465000075,
          "velocity": 1,
          "duration": 0.08333325000000968
        },
        {
          "name": "G#4",
          "midi": 68,
          "time": 353.5829797500075,
          "velocity": 1,
          "duration": 0.08333325000000968
        },
        {
          "name": "F4",
          "midi": 65,
          "time": 353.5829797500075,
          "velocity": 1,
          "duration": 0.08333325000000968
        },
        {
          "name": "G#3",
          "midi": 56,
          "time": 353.5829797500075,
          "velocity": 1,
          "duration": 0.08333325000000968
        },
        {
          "name": "C#3",
          "midi": 49,
          "time": 353.6663130000075,
          "velocity": 1,
          "duration": 0.33333300000003874
        },
        {
          "name": "G#3",
          "midi": 56,
          "time": 353.6663130000075,
          "velocity": 1,
          "duration": 0.08333325000000968
        },
        {
          "name": "F4",
          "midi": 65,
          "time": 353.6663130000075,
          "velocity": 1,
          "duration": 0.08333325000000968
        },
        {
          "name": "G#4",
          "midi": 68,
          "time": 353.6663130000075,
          "velocity": 1,
          "duration": 0.08333325000000968
        },
        {
          "name": "C#2",
          "midi": 37,
          "time": 353.6663130000075,
          "velocity": 1,
          "duration": 0.33333300000003874
        },
        {
          "name": "G#4",
          "midi": 68,
          "time": 353.7496462500075,
          "velocity": 1,
          "duration": 0.08333325000000968
        },
        {
          "name": "F4",
          "midi": 65,
          "time": 353.7496462500075,
          "velocity": 1,
          "duration": 0.08333325000000968
        },
        {
          "name": "G#3",
          "midi": 56,
          "time": 353.7496462500075,
          "velocity": 1,
          "duration": 0.08333325000000968
        },
        {
          "name": "G#4",
          "midi": 68,
          "time": 353.8329795000075,
          "velocity": 1,
          "duration": 0.08333325000000968
        },
        {
          "name": "F4",
          "midi": 65,
          "time": 353.8329795000075,
          "velocity": 1,
          "duration": 0.08333325000000968
        },
        {
          "name": "G#3",
          "midi": 56,
          "time": 353.8329795000075,
          "velocity": 1,
          "duration": 0.08333325000000968
        },
        {
          "name": "G#4",
          "midi": 68,
          "time": 353.91631275000753,
          "velocity": 1,
          "duration": 0.08333325000000968
        },
        {
          "name": "F4",
          "midi": 65,
          "time": 353.91631275000753,
          "velocity": 1,
          "duration": 0.08333325000000968
        },
        {
          "name": "G#3",
          "midi": 56,
          "time": 353.91631275000753,
          "velocity": 1,
          "duration": 0.08333325000000968
        },
        {
          "name": "G#3",
          "midi": 56,
          "time": 353.99964600000754,
          "velocity": 1,
          "duration": 0.33333300000003874
        },
        {
          "name": "F4",
          "midi": 65,
          "time": 353.99964600000754,
          "velocity": 1,
          "duration": 0.08333325000000968
        },
        {
          "name": "G#4",
          "midi": 68,
          "time": 353.99964600000754,
          "velocity": 1,
          "duration": 0.08333325000000968
        },
        {
          "name": "G#2",
          "midi": 44,
          "time": 353.99964600000754,
          "velocity": 1,
          "duration": 0.33333300000003874
        },
        {
          "name": "G#4",
          "midi": 68,
          "time": 354.08297925000755,
          "velocity": 1,
          "duration": 0.08333325000000968
        },
        {
          "name": "F4",
          "midi": 65,
          "time": 354.08297925000755,
          "velocity": 1,
          "duration": 0.08333325000000968
        },
        {
          "name": "G#4",
          "midi": 68,
          "time": 354.16631250000756,
          "velocity": 1,
          "duration": 0.08333325000000968
        },
        {
          "name": "F4",
          "midi": 65,
          "time": 354.16631250000756,
          "velocity": 1,
          "duration": 0.08333325000000968
        },
        {
          "name": "G#4",
          "midi": 68,
          "time": 354.2496457500076,
          "velocity": 1,
          "duration": 0.08333325000000968
        },
        {
          "name": "F4",
          "midi": 65,
          "time": 354.2496457500076,
          "velocity": 1,
          "duration": 0.08333325000000968
        },
        {
          "name": "C#3",
          "midi": 49,
          "time": 354.3329790000076,
          "velocity": 1,
          "duration": 0.33333300000003874
        },
        {
          "name": "G#3",
          "midi": 56,
          "time": 354.3329790000076,
          "velocity": 1,
          "duration": 0.08333325000000968
        },
        {
          "name": "F4",
          "midi": 65,
          "time": 354.3329790000076,
          "velocity": 1,
          "duration": 0.08333325000000968
        },
        {
          "name": "G#4",
          "midi": 68,
          "time": 354.3329790000076,
          "velocity": 1,
          "duration": 0.08333325000000968
        },
        {
          "name": "C#2",
          "midi": 37,
          "time": 354.3329790000076,
          "velocity": 1,
          "duration": 0.33333300000003874
        },
        {
          "name": "G#4",
          "midi": 68,
          "time": 354.4163122500076,
          "velocity": 1,
          "duration": 0.08333325000000968
        },
        {
          "name": "F4",
          "midi": 65,
          "time": 354.4163122500076,
          "velocity": 1,
          "duration": 0.08333325000000968
        },
        {
          "name": "G#3",
          "midi": 56,
          "time": 354.4163122500076,
          "velocity": 1,
          "duration": 0.08333325000000968
        },
        {
          "name": "G#4",
          "midi": 68,
          "time": 354.4996455000076,
          "velocity": 1,
          "duration": 0.08333325000000968
        },
        {
          "name": "F4",
          "midi": 65,
          "time": 354.4996455000076,
          "velocity": 1,
          "duration": 0.08333325000000968
        },
        {
          "name": "G#3",
          "midi": 56,
          "time": 354.4996455000076,
          "velocity": 1,
          "duration": 0.08333325000000968
        },
        {
          "name": "G#3",
          "midi": 56,
          "time": 354.5829787500076,
          "velocity": 1,
          "duration": 0.08333325000000968
        },
        {
          "name": "F4",
          "midi": 65,
          "time": 354.5829787500076,
          "velocity": 1,
          "duration": 0.08333325000000968
        },
        {
          "name": "G#4",
          "midi": 68,
          "time": 354.5829787500076,
          "velocity": 1,
          "duration": 0.08333325000000968
        },
        {
          "name": "C#3",
          "midi": 49,
          "time": 354.6663120000076,
          "velocity": 1,
          "duration": 0.33333300000003874
        },
        {
          "name": "C#4",
          "midi": 61,
          "time": 354.6663120000076,
          "velocity": 1,
          "duration": 0.33333300000003874
        },
        {
          "name": "G#4",
          "midi": 68,
          "time": 354.6663120000076,
          "velocity": 1,
          "duration": 0.08333325000000968
        },
        {
          "name": "F4",
          "midi": 65,
          "time": 354.6663120000076,
          "velocity": 1,
          "duration": 0.08333325000000968
        },
        {
          "name": "G#3",
          "midi": 56,
          "time": 354.6663120000076,
          "velocity": 1,
          "duration": 0.08333325000000968
        },
        {
          "name": "G#3",
          "midi": 56,
          "time": 354.74964525000763,
          "velocity": 1,
          "duration": 0.08333325000000968
        },
        {
          "name": "F4",
          "midi": 65,
          "time": 354.74964525000763,
          "velocity": 1,
          "duration": 0.08333325000000968
        },
        {
          "name": "G#4",
          "midi": 68,
          "time": 354.74964525000763,
          "velocity": 1,
          "duration": 0.08333325000000968
        },
        {
          "name": "G#4",
          "midi": 68,
          "time": 354.83297850000764,
          "velocity": 1,
          "duration": 0.08333325000000968
        },
        {
          "name": "F4",
          "midi": 65,
          "time": 354.83297850000764,
          "velocity": 1,
          "duration": 0.08333325000000968
        },
        {
          "name": "G#3",
          "midi": 56,
          "time": 354.83297850000764,
          "velocity": 1,
          "duration": 0.08333325000000968
        },
        {
          "name": "G#4",
          "midi": 68,
          "time": 354.91631175000765,
          "velocity": 1,
          "duration": 0.08333325000000968
        },
        {
          "name": "F4",
          "midi": 65,
          "time": 354.91631175000765,
          "velocity": 1,
          "duration": 0.08333325000000968
        },
        {
          "name": "G#3",
          "midi": 56,
          "time": 354.91631175000765,
          "velocity": 1,
          "duration": 0.08333325000000968
        },
        {
          "name": "C#2",
          "midi": 37,
          "time": 354.99964500000766,
          "velocity": 1,
          "duration": 0.33333300000003874
        },
        {
          "name": "C#3",
          "midi": 49,
          "time": 354.99964500000766,
          "velocity": 1,
          "duration": 0.33333300000003874
        },
        {
          "name": "G#4",
          "midi": 68,
          "time": 354.99964500000766,
          "velocity": 1,
          "duration": 0.08333325000000968
        },
        {
          "name": "F4",
          "midi": 65,
          "time": 354.99964500000766,
          "velocity": 1,
          "duration": 0.08333325000000968
        },
        {
          "name": "G#3",
          "midi": 56,
          "time": 354.99964500000766,
          "velocity": 1,
          "duration": 0.08333325000000968
        },
        {
          "name": "G#3",
          "midi": 56,
          "time": 355.08297825000767,
          "velocity": 1,
          "duration": 0.08333325000000968
        },
        {
          "name": "F4",
          "midi": 65,
          "time": 355.08297825000767,
          "velocity": 1,
          "duration": 0.08333325000000968
        },
        {
          "name": "G#4",
          "midi": 68,
          "time": 355.08297825000767,
          "velocity": 1,
          "duration": 0.08333325000000968
        },
        {
          "name": "G#4",
          "midi": 68,
          "time": 355.1663115000077,
          "velocity": 1,
          "duration": 0.08333325000000968
        },
        {
          "name": "F4",
          "midi": 65,
          "time": 355.1663115000077,
          "velocity": 1,
          "duration": 0.08333325000000968
        },
        {
          "name": "G#3",
          "midi": 56,
          "time": 355.1663115000077,
          "velocity": 1,
          "duration": 0.08333325000000968
        },
        {
          "name": "G#4",
          "midi": 68,
          "time": 355.2496447500077,
          "velocity": 1,
          "duration": 0.08333325000000968
        },
        {
          "name": "F4",
          "midi": 65,
          "time": 355.2496447500077,
          "velocity": 1,
          "duration": 0.08333325000000968
        },
        {
          "name": "G#3",
          "midi": 56,
          "time": 355.2496447500077,
          "velocity": 1,
          "duration": 0.08333325000000968
        },
        {
          "name": "F4",
          "midi": 65,
          "time": 355.3329780000077,
          "velocity": 1,
          "duration": 0.33333300000003874
        },
        {
          "name": "G#3",
          "midi": 56,
          "time": 355.3329780000077,
          "velocity": 1,
          "duration": 0.08333325000000968
        },
        {
          "name": "G#4",
          "midi": 68,
          "time": 355.3329780000077,
          "velocity": 1,
          "duration": 0.08333325000000968
        },
        {
          "name": "F3",
          "midi": 53,
          "time": 355.3329780000077,
          "velocity": 1,
          "duration": 0.33333300000003874
        },
        {
          "name": "G#4",
          "midi": 68,
          "time": 355.4163112500077,
          "velocity": 1,
          "duration": 0.08333325000000968
        },
        {
          "name": "G#3",
          "midi": 56,
          "time": 355.4163112500077,
          "velocity": 1,
          "duration": 0.08333325000000968
        },
        {
          "name": "G#3",
          "midi": 56,
          "time": 355.4996445000077,
          "velocity": 1,
          "duration": 0.08333325000000968
        },
        {
          "name": "G#4",
          "midi": 68,
          "time": 355.4996445000077,
          "velocity": 1,
          "duration": 0.08333325000000968
        },
        {
          "name": "G#4",
          "midi": 68,
          "time": 355.58297775000773,
          "velocity": 1,
          "duration": 0.08333325000000968
        },
        {
          "name": "G#3",
          "midi": 56,
          "time": 355.58297775000773,
          "velocity": 1,
          "duration": 0.08333325000000968
        },
        {
          "name": "C#2",
          "midi": 37,
          "time": 355.66631100000774,
          "velocity": 1,
          "duration": 0.33333300000003874
        },
        {
          "name": "C#3",
          "midi": 49,
          "time": 355.66631100000774,
          "velocity": 1,
          "duration": 0.33333300000003874
        },
        {
          "name": "G#4",
          "midi": 68,
          "time": 355.66631100000774,
          "velocity": 1,
          "duration": 0.08333325000000968
        },
        {
          "name": "F4",
          "midi": 65,
          "time": 355.66631100000774,
          "velocity": 1,
          "duration": 0.08333325000000968
        },
        {
          "name": "G#3",
          "midi": 56,
          "time": 355.66631100000774,
          "velocity": 1,
          "duration": 0.08333325000000968
        },
        {
          "name": "G#4",
          "midi": 68,
          "time": 355.74964425000775,
          "velocity": 1,
          "duration": 0.08333325000000968
        },
        {
          "name": "F4",
          "midi": 65,
          "time": 355.74964425000775,
          "velocity": 1,
          "duration": 0.08333325000000968
        },
        {
          "name": "G#3",
          "midi": 56,
          "time": 355.74964425000775,
          "velocity": 1,
          "duration": 0.08333325000000968
        },
        {
          "name": "G#3",
          "midi": 56,
          "time": 355.83297750000776,
          "velocity": 1,
          "duration": 0.08333325000000968
        },
        {
          "name": "F4",
          "midi": 65,
          "time": 355.83297750000776,
          "velocity": 1,
          "duration": 0.08333325000000968
        },
        {
          "name": "G#4",
          "midi": 68,
          "time": 355.83297750000776,
          "velocity": 1,
          "duration": 0.08333325000000968
        },
        {
          "name": "G#4",
          "midi": 68,
          "time": 355.91631075000777,
          "velocity": 1,
          "duration": 0.08333325000000968
        },
        {
          "name": "F4",
          "midi": 65,
          "time": 355.91631075000777,
          "velocity": 1,
          "duration": 0.08333325000000968
        },
        {
          "name": "G#3",
          "midi": 56,
          "time": 355.91631075000777,
          "velocity": 1,
          "duration": 0.08333325000000968
        },
        {
          "name": "G#3",
          "midi": 56,
          "time": 355.9996440000078,
          "velocity": 1,
          "duration": 0.9999990000001162
        },
        {
          "name": "C#5",
          "midi": 73,
          "time": 355.9996440000078,
          "velocity": 1,
          "duration": 0.08333325000000968
        },
        {
          "name": "F4",
          "midi": 65,
          "time": 355.9996440000078,
          "velocity": 1,
          "duration": 0.08333325000000968
        },
        {
          "name": "G#4",
          "midi": 68,
          "time": 355.9996440000078,
          "velocity": 1,
          "duration": 0.9999990000001162
        },
        {
          "name": "C#5",
          "midi": 73,
          "time": 356.0829772500078,
          "velocity": 1,
          "duration": 0.08333325000000968
        },
        {
          "name": "F4",
          "midi": 65,
          "time": 356.0829772500078,
          "velocity": 1,
          "duration": 0.08333325000000968
        },
        {
          "name": "F4",
          "midi": 65,
          "time": 356.1663105000078,
          "velocity": 1,
          "duration": 0.08333325000000968
        },
        {
          "name": "C#5",
          "midi": 73,
          "time": 356.1663105000078,
          "velocity": 1,
          "duration": 0.08333325000000968
        },
        {
          "name": "C#5",
          "midi": 73,
          "time": 356.2496437500078,
          "velocity": 1,
          "duration": 0.08333325000000968
        },
        {
          "name": "F4",
          "midi": 65,
          "time": 356.2496437500078,
          "velocity": 1,
          "duration": 0.08333325000000968
        },
        {
          "name": "F5",
          "midi": 77,
          "time": 356.3329770000078,
          "velocity": 1,
          "duration": 0.08333325000000968
        },
        {
          "name": "F4",
          "midi": 65,
          "time": 356.3329770000078,
          "velocity": 1,
          "duration": 0.08333325000000968
        },
        {
          "name": "F5",
          "midi": 77,
          "time": 356.4163102500078,
          "velocity": 1,
          "duration": 0.08333325000000968
        },
        {
          "name": "F4",
          "midi": 65,
          "time": 356.4163102500078,
          "velocity": 1,
          "duration": 0.08333325000000968
        },
        {
          "name": "F5",
          "midi": 77,
          "time": 356.49964350000783,
          "velocity": 1,
          "duration": 0.08333325000000968
        },
        {
          "name": "F4",
          "midi": 65,
          "time": 356.49964350000783,
          "velocity": 1,
          "duration": 0.08333325000000968
        },
        {
          "name": "F4",
          "midi": 65,
          "time": 356.58297675000784,
          "velocity": 1,
          "duration": 0.08333325000000968
        },
        {
          "name": "F5",
          "midi": 77,
          "time": 356.58297675000784,
          "velocity": 1,
          "duration": 0.08333325000000968
        },
        {
          "name": "G#5",
          "midi": 80,
          "time": 356.66631000000785,
          "velocity": 1,
          "duration": 0.08333325000000968
        },
        {
          "name": "F4",
          "midi": 65,
          "time": 356.66631000000785,
          "velocity": 1,
          "duration": 0.08333325000000968
        },
        {
          "name": "G#5",
          "midi": 80,
          "time": 356.74964325000786,
          "velocity": 1,
          "duration": 0.08333325000000968
        },
        {
          "name": "F4",
          "midi": 65,
          "time": 356.74964325000786,
          "velocity": 1,
          "duration": 0.08333325000000968
        },
        {
          "name": "F4",
          "midi": 65,
          "time": 356.8329765000079,
          "velocity": 1,
          "duration": 0.08333325000000968
        },
        {
          "name": "G#5",
          "midi": 80,
          "time": 356.8329765000079,
          "velocity": 1,
          "duration": 0.08333325000000968
        },
        {
          "name": "G#5",
          "midi": 80,
          "time": 356.9163097500079,
          "velocity": 1,
          "duration": 0.08333325000000968
        },
        {
          "name": "F4",
          "midi": 65,
          "time": 356.9163097500079,
          "velocity": 1,
          "duration": 0.08333325000000968
        },
        {
          "name": "D3",
          "midi": 50,
          "time": 356.9996430000079,
          "velocity": 1,
          "duration": 0.33333300000003874
        },
        {
          "name": "A#3",
          "midi": 58,
          "time": 356.9996430000079,
          "velocity": 1,
          "duration": 0.08333325000000968
        },
        {
          "name": "F4",
          "midi": 65,
          "time": 356.9996430000079,
          "velocity": 1,
          "duration": 0.08333325000000968
        },
        {
          "name": "A#4",
          "midi": 70,
          "time": 356.9996430000079,
          "velocity": 1,
          "duration": 0.08333325000000968
        },
        {
          "name": "D2",
          "midi": 38,
          "time": 356.9996430000079,
          "velocity": 1,
          "duration": 0.33333300000003874
        },
        {
          "name": "A#4",
          "midi": 70,
          "time": 357.0829762500079,
          "velocity": 1,
          "duration": 0.08333325000000968
        },
        {
          "name": "F4",
          "midi": 65,
          "time": 357.0829762500079,
          "velocity": 1,
          "duration": 0.08333325000000968
        },
        {
          "name": "A#3",
          "midi": 58,
          "time": 357.0829762500079,
          "velocity": 1,
          "duration": 0.08333325000000968
        },
        {
          "name": "A#4",
          "midi": 70,
          "time": 357.1663095000079,
          "velocity": 1,
          "duration": 0.08333325000000968
        },
        {
          "name": "F4",
          "midi": 65,
          "time": 357.1663095000079,
          "velocity": 1,
          "duration": 0.08333325000000968
        },
        {
          "name": "A#3",
          "midi": 58,
          "time": 357.1663095000079,
          "velocity": 1,
          "duration": 0.08333325000000968
        },
        {
          "name": "A#4",
          "midi": 70,
          "time": 357.2496427500079,
          "velocity": 1,
          "duration": 0.08333325000000968
        },
        {
          "name": "F4",
          "midi": 65,
          "time": 357.2496427500079,
          "velocity": 1,
          "duration": 0.08333325000000968
        },
        {
          "name": "A#3",
          "midi": 58,
          "time": 357.2496427500079,
          "velocity": 1,
          "duration": 0.08333325000000968
        },
        {
          "name": "F3",
          "midi": 53,
          "time": 357.33297600000793,
          "velocity": 1,
          "duration": 0.33333300000003874
        },
        {
          "name": "A#3",
          "midi": 58,
          "time": 357.33297600000793,
          "velocity": 1,
          "duration": 0.08333325000000968
        },
        {
          "name": "F4",
          "midi": 65,
          "time": 357.33297600000793,
          "velocity": 1,
          "duration": 0.08333325000000968
        },
        {
          "name": "A#4",
          "midi": 70,
          "time": 357.33297600000793,
          "velocity": 1,
          "duration": 0.08333325000000968
        },
        {
          "name": "F2",
          "midi": 41,
          "time": 357.33297600000793,
          "velocity": 1,
          "duration": 0.33333300000003874
        },
        {
          "name": "A#4",
          "midi": 70,
          "time": 357.41630925000794,
          "velocity": 1,
          "duration": 0.08333325000000968
        },
        {
          "name": "F4",
          "midi": 65,
          "time": 357.41630925000794,
          "velocity": 1,
          "duration": 0.08333325000000968
        },
        {
          "name": "A#3",
          "midi": 58,
          "time": 357.41630925000794,
          "velocity": 1,
          "duration": 0.08333325000000968
        },
        {
          "name": "A#4",
          "midi": 70,
          "time": 357.49964250000795,
          "velocity": 1,
          "duration": 0.08333325000000968
        },
        {
          "name": "F4",
          "midi": 65,
          "time": 357.49964250000795,
          "velocity": 1,
          "duration": 0.08333325000000968
        },
        {
          "name": "A#3",
          "midi": 58,
          "time": 357.49964250000795,
          "velocity": 1,
          "duration": 0.08333325000000968
        },
        {
          "name": "A#3",
          "midi": 58,
          "time": 357.58297575000796,
          "velocity": 1,
          "duration": 0.08333325000000968
        },
        {
          "name": "F4",
          "midi": 65,
          "time": 357.58297575000796,
          "velocity": 1,
          "duration": 0.08333325000000968
        },
        {
          "name": "A#4",
          "midi": 70,
          "time": 357.58297575000796,
          "velocity": 1,
          "duration": 0.08333325000000968
        },
        {
          "name": "D2",
          "midi": 38,
          "time": 357.66630900000797,
          "velocity": 1,
          "duration": 0.33333300000003874
        },
        {
          "name": "D3",
          "midi": 50,
          "time": 357.66630900000797,
          "velocity": 1,
          "duration": 0.33333300000003874
        },
        {
          "name": "A#4",
          "midi": 70,
          "time": 357.66630900000797,
          "velocity": 1,
          "duration": 0.08333325000000968
        },
        {
          "name": "F4",
          "midi": 65,
          "time": 357.66630900000797,
          "velocity": 1,
          "duration": 0.08333325000000968
        },
        {
          "name": "A#3",
          "midi": 58,
          "time": 357.66630900000797,
          "velocity": 1,
          "duration": 0.08333325000000968
        },
        {
          "name": "A#3",
          "midi": 58,
          "time": 357.749642250008,
          "velocity": 1,
          "duration": 0.08333325000000968
        },
        {
          "name": "F4",
          "midi": 65,
          "time": 357.749642250008,
          "velocity": 1,
          "duration": 0.08333325000000968
        },
        {
          "name": "A#4",
          "midi": 70,
          "time": 357.749642250008,
          "velocity": 1,
          "duration": 0.08333325000000968
        },
        {
          "name": "A#4",
          "midi": 70,
          "time": 357.832975500008,
          "velocity": 1,
          "duration": 0.08333325000000968
        },
        {
          "name": "F4",
          "midi": 65,
          "time": 357.832975500008,
          "velocity": 1,
          "duration": 0.08333325000000968
        },
        {
          "name": "A#3",
          "midi": 58,
          "time": 357.832975500008,
          "velocity": 1,
          "duration": 0.08333325000000968
        },
        {
          "name": "A#4",
          "midi": 70,
          "time": 357.916308750008,
          "velocity": 1,
          "duration": 0.08333325000000968
        },
        {
          "name": "F4",
          "midi": 65,
          "time": 357.916308750008,
          "velocity": 1,
          "duration": 0.08333325000000968
        },
        {
          "name": "A#3",
          "midi": 58,
          "time": 357.916308750008,
          "velocity": 1,
          "duration": 0.08333325000000968
        },
        {
          "name": "A#2",
          "midi": 46,
          "time": 357.999642000008,
          "velocity": 1,
          "duration": 0.33333300000003874
        },
        {
          "name": "A#3",
          "midi": 58,
          "time": 357.999642000008,
          "velocity": 1,
          "duration": 0.33333300000003874
        },
        {
          "name": "A#4",
          "midi": 70,
          "time": 357.999642000008,
          "velocity": 1,
          "duration": 0.08333325000000968
        },
        {
          "name": "G#4",
          "midi": 68,
          "time": 357.999642000008,
          "velocity": 1,
          "duration": 0.08333325000000968
        },
        {
          "name": "G#4",
          "midi": 68,
          "time": 358.082975250008,
          "velocity": 1,
          "duration": 0.08333325000000968
        },
        {
          "name": "A#4",
          "midi": 70,
          "time": 358.082975250008,
          "velocity": 1,
          "duration": 0.08333325000000968
        },
        {
          "name": "A#4",
          "midi": 70,
          "time": 358.16630850000803,
          "velocity": 1,
          "duration": 0.08333325000000968
        },
        {
          "name": "G#4",
          "midi": 68,
          "time": 358.16630850000803,
          "velocity": 1,
          "duration": 0.08333325000000968
        },
        {
          "name": "A#4",
          "midi": 70,
          "time": 358.24964175000804,
          "velocity": 1,
          "duration": 0.08333325000000968
        },
        {
          "name": "G#4",
          "midi": 68,
          "time": 358.24964175000804,
          "velocity": 1,
          "duration": 0.08333325000000968
        },
        {
          "name": "D3",
          "midi": 50,
          "time": 358.33297500000805,
          "velocity": 1,
          "duration": 0.33333300000003874
        },
        {
          "name": "A#3",
          "midi": 58,
          "time": 358.33297500000805,
          "velocity": 1,
          "duration": 0.08333325000000968
        },
        {
          "name": "G#4",
          "midi": 68,
          "time": 358.33297500000805,
          "velocity": 1,
          "duration": 0.08333325000000968
        },
        {
          "name": "A#4",
          "midi": 70,
          "time": 358.33297500000805,
          "velocity": 1,
          "duration": 0.08333325000000968
        },
        {
          "name": "D2",
          "midi": 38,
          "time": 358.33297500000805,
          "velocity": 1,
          "duration": 0.33333300000003874
        },
        {
          "name": "A#4",
          "midi": 70,
          "time": 358.41630825000806,
          "velocity": 1,
          "duration": 0.08333325000000968
        },
        {
          "name": "G#4",
          "midi": 68,
          "time": 358.41630825000806,
          "velocity": 1,
          "duration": 0.08333325000000968
        },
        {
          "name": "A#3",
          "midi": 58,
          "time": 358.41630825000806,
          "velocity": 1,
          "duration": 0.08333325000000968
        },
        {
          "name": "A#3",
          "midi": 58,
          "time": 358.49964150000807,
          "velocity": 1,
          "duration": 0.08333325000000968
        },
        {
          "name": "G#4",
          "midi": 68,
          "time": 358.49964150000807,
          "velocity": 1,
          "duration": 0.08333325000000968
        },
        {
          "name": "A#4",
          "midi": 70,
          "time": 358.49964150000807,
          "velocity": 1,
          "duration": 0.08333325000000968
        },
        {
          "name": "A#4",
          "midi": 70,
          "time": 358.5829747500081,
          "velocity": 1,
          "duration": 0.08333325000000968
        },
        {
          "name": "G#4",
          "midi": 68,
          "time": 358.5829747500081,
          "velocity": 1,
          "duration": 0.08333325000000968
        },
        {
          "name": "A#3",
          "midi": 58,
          "time": 358.5829747500081,
          "velocity": 1,
          "duration": 0.08333325000000968
        },
        {
          "name": "D3",
          "midi": 50,
          "time": 358.6663080000081,
          "velocity": 1,
          "duration": 0.33333300000003874
        },
        {
          "name": "D4",
          "midi": 62,
          "time": 358.6663080000081,
          "velocity": 1,
          "duration": 0.33333300000003874
        },
        {
          "name": "A#4",
          "midi": 70,
          "time": 358.6663080000081,
          "velocity": 1,
          "duration": 0.08333325000000968
        },
        {
          "name": "G#4",
          "midi": 68,
          "time": 358.6663080000081,
          "velocity": 1,
          "duration": 0.08333325000000968
        },
        {
          "name": "A#3",
          "midi": 58,
          "time": 358.6663080000081,
          "velocity": 1,
          "duration": 0.08333325000000968
        },
        {
          "name": "A#4",
          "midi": 70,
          "time": 358.7496412500081,
          "velocity": 1,
          "duration": 0.08333325000000968
        },
        {
          "name": "G#4",
          "midi": 68,
          "time": 358.7496412500081,
          "velocity": 1,
          "duration": 0.08333325000000968
        },
        {
          "name": "A#3",
          "midi": 58,
          "time": 358.7496412500081,
          "velocity": 1,
          "duration": 0.08333325000000968
        },
        {
          "name": "A#3",
          "midi": 58,
          "time": 358.8329745000081,
          "velocity": 1,
          "duration": 0.08333325000000968
        },
        {
          "name": "G#4",
          "midi": 68,
          "time": 358.8329745000081,
          "velocity": 1,
          "duration": 0.08333325000000968
        },
        {
          "name": "A#4",
          "midi": 70,
          "time": 358.8329745000081,
          "velocity": 1,
          "duration": 0.08333325000000968
        },
        {
          "name": "A#4",
          "midi": 70,
          "time": 358.9163077500081,
          "velocity": 1,
          "duration": 0.08333325000000968
        },
        {
          "name": "G#4",
          "midi": 68,
          "time": 358.9163077500081,
          "velocity": 1,
          "duration": 0.08333325000000968
        },
        {
          "name": "A#3",
          "midi": 58,
          "time": 358.9163077500081,
          "velocity": 1,
          "duration": 0.08333325000000968
        },
        {
          "name": "D3",
          "midi": 50,
          "time": 358.9996410000081,
          "velocity": 1,
          "duration": 0.33333300000003874
        },
        {
          "name": "A#3",
          "midi": 58,
          "time": 358.9996410000081,
          "velocity": 1,
          "duration": 0.08333325000000968
        },
        {
          "name": "G#4",
          "midi": 68,
          "time": 358.9996410000081,
          "velocity": 1,
          "duration": 0.08333325000000968
        },
        {
          "name": "A#4",
          "midi": 70,
          "time": 358.9996410000081,
          "velocity": 1,
          "duration": 0.08333325000000968
        },
        {
          "name": "D2",
          "midi": 38,
          "time": 358.9996410000081,
          "velocity": 1,
          "duration": 0.33333300000003874
        },
        {
          "name": "A#4",
          "midi": 70,
          "time": 359.08297425000814,
          "velocity": 1,
          "duration": 0.08333325000000968
        },
        {
          "name": "G#4",
          "midi": 68,
          "time": 359.08297425000814,
          "velocity": 1,
          "duration": 0.08333325000000968
        },
        {
          "name": "A#3",
          "midi": 58,
          "time": 359.08297425000814,
          "velocity": 1,
          "duration": 0.08333325000000968
        },
        {
          "name": "A#4",
          "midi": 70,
          "time": 359.16630750000814,
          "velocity": 1,
          "duration": 0.08333325000000968
        },
        {
          "name": "G#4",
          "midi": 68,
          "time": 359.16630750000814,
          "velocity": 1,
          "duration": 0.08333325000000968
        },
        {
          "name": "A#3",
          "midi": 58,
          "time": 359.16630750000814,
          "velocity": 1,
          "duration": 0.08333325000000968
        },
        {
          "name": "A#3",
          "midi": 58,
          "time": 359.24964075000815,
          "velocity": 1,
          "duration": 0.08333325000000968
        },
        {
          "name": "G#4",
          "midi": 68,
          "time": 359.24964075000815,
          "velocity": 1,
          "duration": 0.08333325000000968
        },
        {
          "name": "A#4",
          "midi": 70,
          "time": 359.24964075000815,
          "velocity": 1,
          "duration": 0.08333325000000968
        },
        {
          "name": "F3",
          "midi": 53,
          "time": 359.33297400000816,
          "velocity": 1,
          "duration": 0.33333300000003874
        },
        {
          "name": "A#4",
          "midi": 70,
          "time": 359.33297400000816,
          "velocity": 1,
          "duration": 0.08333325000000968
        },
        {
          "name": "G#4",
          "midi": 68,
          "time": 359.33297400000816,
          "velocity": 1,
          "duration": 0.08333325000000968
        },
        {
          "name": "A#3",
          "midi": 58,
          "time": 359.33297400000816,
          "velocity": 1,
          "duration": 0.08333325000000968
        },
        {
          "name": "F4",
          "midi": 65,
          "time": 359.33297400000816,
          "velocity": 1,
          "duration": 0.33333300000003874
        },
        {
          "name": "A#3",
          "midi": 58,
          "time": 359.4163072500082,
          "velocity": 1,
          "duration": 0.08333325000000968
        },
        {
          "name": "G#4",
          "midi": 68,
          "time": 359.4163072500082,
          "velocity": 1,
          "duration": 0.08333325000000968
        },
        {
          "name": "A#4",
          "midi": 70,
          "time": 359.4163072500082,
          "velocity": 1,
          "duration": 0.08333325000000968
        },
        {
          "name": "A#4",
          "midi": 70,
          "time": 359.4996405000082,
          "velocity": 1,
          "duration": 0.08333325000000968
        },
        {
          "name": "G#4",
          "midi": 68,
          "time": 359.4996405000082,
          "velocity": 1,
          "duration": 0.08333325000000968
        },
        {
          "name": "A#3",
          "midi": 58,
          "time": 359.4996405000082,
          "velocity": 1,
          "duration": 0.08333325000000968
        },
        {
          "name": "A#4",
          "midi": 70,
          "time": 359.5829737500082,
          "velocity": 1,
          "duration": 0.08333325000000968
        },
        {
          "name": "G#4",
          "midi": 68,
          "time": 359.5829737500082,
          "velocity": 1,
          "duration": 0.08333325000000968
        },
        {
          "name": "A#3",
          "midi": 58,
          "time": 359.5829737500082,
          "velocity": 1,
          "duration": 0.08333325000000968
        },
        {
          "name": "D3",
          "midi": 50,
          "time": 359.6663070000082,
          "velocity": 1,
          "duration": 0.33333300000003874
        },
        {
          "name": "A#3",
          "midi": 58,
          "time": 359.6663070000082,
          "velocity": 1,
          "duration": 0.08333325000000968
        },
        {
          "name": "G#4",
          "midi": 68,
          "time": 359.6663070000082,
          "velocity": 1,
          "duration": 0.08333325000000968
        },
        {
          "name": "A#4",
          "midi": 70,
          "time": 359.6663070000082,
          "velocity": 1,
          "duration": 0.08333325000000968
        },
        {
          "name": "D2",
          "midi": 38,
          "time": 359.6663070000082,
          "velocity": 1,
          "duration": 0.33333300000003874
        },
        {
          "name": "A#4",
          "midi": 70,
          "time": 359.7496402500082,
          "velocity": 1,
          "duration": 0.08333325000000968
        },
        {
          "name": "G#4",
          "midi": 68,
          "time": 359.7496402500082,
          "velocity": 1,
          "duration": 0.08333325000000968
        },
        {
          "name": "A#3",
          "midi": 58,
          "time": 359.7496402500082,
          "velocity": 1,
          "duration": 0.08333325000000968
        },
        {
          "name": "A#4",
          "midi": 70,
          "time": 359.8329735000082,
          "velocity": 1,
          "duration": 0.08333325000000968
        },
        {
          "name": "G#4",
          "midi": 68,
          "time": 359.8329735000082,
          "velocity": 1,
          "duration": 0.08333325000000968
        },
        {
          "name": "A#3",
          "midi": 58,
          "time": 359.8329735000082,
          "velocity": 1,
          "duration": 0.08333325000000968
        },
        {
          "name": "A#4",
          "midi": 70,
          "time": 359.91630675000823,
          "velocity": 1,
          "duration": 0.08333325000000968
        },
        {
          "name": "G#4",
          "midi": 68,
          "time": 359.91630675000823,
          "velocity": 1,
          "duration": 0.08333325000000968
        },
        {
          "name": "A#3",
          "midi": 58,
          "time": 359.91630675000823,
          "velocity": 1,
          "duration": 0.08333325000000968
        },
        {
          "name": "A#4",
          "midi": 70,
          "time": 359.99964000000824,
          "velocity": 1,
          "duration": 0.9999990000001162
        },
        {
          "name": "A#3",
          "midi": 58,
          "time": 359.99964000000824,
          "velocity": 1,
          "duration": 0.9999990000001162
        },
        {
          "name": "G#4",
          "midi": 68,
          "time": 359.99964000000824,
          "velocity": 1,
          "duration": 0.08333325000000968
        },
        {
          "name": "F5",
          "midi": 77,
          "time": 359.99964000000824,
          "velocity": 1,
          "duration": 0.08333325000000968
        },
        {
          "name": "F5",
          "midi": 77,
          "time": 360.08297325000825,
          "velocity": 1,
          "duration": 0.08333325000000968
        },
        {
          "name": "G#4",
          "midi": 68,
          "time": 360.08297325000825,
          "velocity": 1,
          "duration": 0.08333325000000968
        },
        {
          "name": "F5",
          "midi": 77,
          "time": 360.16630650000826,
          "velocity": 1,
          "duration": 0.08333325000000968
        },
        {
          "name": "G#4",
          "midi": 68,
          "time": 360.16630650000826,
          "velocity": 1,
          "duration": 0.08333325000000968
        },
        {
          "name": "F5",
          "midi": 77,
          "time": 360.24963975000827,
          "velocity": 1,
          "duration": 0.08333325000000968
        },
        {
          "name": "G#4",
          "midi": 68,
          "time": 360.24963975000827,
          "velocity": 1,
          "duration": 0.08333325000000968
        },
        {
          "name": "G#5",
          "midi": 80,
          "time": 360.3329730000083,
          "velocity": 1,
          "duration": 0.08333325000000968
        },
        {
          "name": "G#4",
          "midi": 68,
          "time": 360.3329730000083,
          "velocity": 1,
          "duration": 0.08333325000000968
        },
        {
          "name": "G#4",
          "midi": 68,
          "time": 360.4163062500083,
          "velocity": 1,
          "duration": 0.08333325000000968
        },
        {
          "name": "G#5",
          "midi": 80,
          "time": 360.4163062500083,
          "velocity": 1,
          "duration": 0.08333325000000968
        },
        {
          "name": "G#5",
          "midi": 80,
          "time": 360.4996395000083,
          "velocity": 1,
          "duration": 0.08333325000000968
        },
        {
          "name": "G#4",
          "midi": 68,
          "time": 360.4996395000083,
          "velocity": 1,
          "duration": 0.08333325000000968
        },
        {
          "name": "G#5",
          "midi": 80,
          "time": 360.5829727500083,
          "velocity": 1,
          "duration": 0.08333325000000968
        },
        {
          "name": "G#4",
          "midi": 68,
          "time": 360.5829727500083,
          "velocity": 1,
          "duration": 0.08333325000000968
        },
        {
          "name": "A#5",
          "midi": 82,
          "time": 360.6663060000083,
          "velocity": 1,
          "duration": 0.08333325000000968
        },
        {
          "name": "G#4",
          "midi": 68,
          "time": 360.6663060000083,
          "velocity": 1,
          "duration": 0.08333325000000968
        },
        {
          "name": "A#5",
          "midi": 82,
          "time": 360.74963925000833,
          "velocity": 1,
          "duration": 0.08333325000000968
        },
        {
          "name": "G#4",
          "midi": 68,
          "time": 360.74963925000833,
          "velocity": 1,
          "duration": 0.08333325000000968
        },
        {
          "name": "G#4",
          "midi": 68,
          "time": 360.83297250000834,
          "velocity": 1,
          "duration": 0.08333325000000968
        },
        {
          "name": "A#5",
          "midi": 82,
          "time": 360.83297250000834,
          "velocity": 1,
          "duration": 0.08333325000000968
        },
        {
          "name": "A#5",
          "midi": 82,
          "time": 360.91630575000835,
          "velocity": 1,
          "duration": 0.08333325000000968
        },
        {
          "name": "G#4",
          "midi": 68,
          "time": 360.91630575000835,
          "velocity": 1,
          "duration": 0.08333325000000968
        },
        {
          "name": "D#3",
          "midi": 51,
          "time": 360.99963900000836,
          "velocity": 1,
          "duration": 0.33333300000003874
        },
        {
          "name": "A#3",
          "midi": 58,
          "time": 360.99963900000836,
          "velocity": 1,
          "duration": 0.08333325000000968
        },
        {
          "name": "F#4",
          "midi": 66,
          "time": 360.99963900000836,
          "velocity": 1,
          "duration": 0.08333325000000968
        },
        {
          "name": "D#4",
          "midi": 63,
          "time": 360.99963900000836,
          "velocity": 1,
          "duration": 0.08333325000000968
        },
        {
          "name": "A#4",
          "midi": 70,
          "time": 360.99963900000836,
          "velocity": 1,
          "duration": 0.08333325000000968
        },
        {
          "name": "D#2",
          "midi": 39,
          "time": 360.99963900000836,
          "velocity": 1,
          "duration": 0.33333300000003874
        },
        {
          "name": "A#4",
          "midi": 70,
          "time": 361.08297225000837,
          "velocity": 1,
          "duration": 0.08333325000000968
        },
        {
          "name": "D#4",
          "midi": 63,
          "time": 361.08297225000837,
          "velocity": 1,
          "duration": 0.08333325000000968
        },
        {
          "name": "F#4",
          "midi": 66,
          "time": 361.08297225000837,
          "velocity": 1,
          "duration": 0.08333325000000968
        },
        {
          "name": "A#3",
          "midi": 58,
          "time": 361.08297225000837,
          "velocity": 1,
          "duration": 0.08333325000000968
        },
        {
          "name": "A#3",
          "midi": 58,
          "time": 361.1663055000084,
          "velocity": 1,
          "duration": 0.08333325000000968
        },
        {
          "name": "F#4",
          "midi": 66,
          "time": 361.1663055000084,
          "velocity": 1,
          "duration": 0.08333325000000968
        },
        {
          "name": "D#4",
          "midi": 63,
          "time": 361.1663055000084,
          "velocity": 1,
          "duration": 0.08333325000000968
        },
        {
          "name": "A#4",
          "midi": 70,
          "time": 361.1663055000084,
          "velocity": 1,
          "duration": 0.08333325000000968
        },
        {
          "name": "A#4",
          "midi": 70,
          "time": 361.2496387500084,
          "velocity": 1,
          "duration": 0.08333325000000968
        },
        {
          "name": "D#4",
          "midi": 63,
          "time": 361.2496387500084,
          "velocity": 1,
          "duration": 0.08333325000000968
        },
        {
          "name": "F#4",
          "midi": 66,
          "time": 361.2496387500084,
          "velocity": 1,
          "duration": 0.08333325000000968
        },
        {
          "name": "A#3",
          "midi": 58,
          "time": 361.2496387500084,
          "velocity": 1,
          "duration": 0.08333325000000968
        },
        {
          "name": "F#2",
          "midi": 42,
          "time": 361.3329720000084,
          "velocity": 1,
          "duration": 0.33333300000003874
        },
        {
          "name": "F#3",
          "midi": 54,
          "time": 361.3329720000084,
          "velocity": 1,
          "duration": 0.33333300000003874
        },
        {
          "name": "A#4",
          "midi": 70,
          "time": 361.3329720000084,
          "velocity": 1,
          "duration": 0.08333325000000968
        },
        {
          "name": "D#4",
          "midi": 63,
          "time": 361.3329720000084,
          "velocity": 1,
          "duration": 0.08333325000000968
        },
        {
          "name": "F#4",
          "midi": 66,
          "time": 361.3329720000084,
          "velocity": 1,
          "duration": 0.08333325000000968
        },
        {
          "name": "A#3",
          "midi": 58,
          "time": 361.3329720000084,
          "velocity": 1,
          "duration": 0.08333325000000968
        },
        {
          "name": "A#3",
          "midi": 58,
          "time": 361.4163052500084,
          "velocity": 1,
          "duration": 0.08333325000000968
        },
        {
          "name": "F#4",
          "midi": 66,
          "time": 361.4163052500084,
          "velocity": 1,
          "duration": 0.08333325000000968
        },
        {
          "name": "D#4",
          "midi": 63,
          "time": 361.4163052500084,
          "velocity": 1,
          "duration": 0.08333325000000968
        },
        {
          "name": "A#4",
          "midi": 70,
          "time": 361.4163052500084,
          "velocity": 1,
          "duration": 0.08333325000000968
        },
        {
          "name": "A#4",
          "midi": 70,
          "time": 361.4996385000084,
          "velocity": 1,
          "duration": 0.08333325000000968
        },
        {
          "name": "D#4",
          "midi": 63,
          "time": 361.4996385000084,
          "velocity": 1,
          "duration": 0.08333325000000968
        },
        {
          "name": "F#4",
          "midi": 66,
          "time": 361.4996385000084,
          "velocity": 1,
          "duration": 0.08333325000000968
        },
        {
          "name": "A#3",
          "midi": 58,
          "time": 361.4996385000084,
          "velocity": 1,
          "duration": 0.08333325000000968
        },
        {
          "name": "A#4",
          "midi": 70,
          "time": 361.5829717500084,
          "velocity": 1,
          "duration": 0.08333325000000968
        },
        {
          "name": "D#4",
          "midi": 63,
          "time": 361.5829717500084,
          "velocity": 1,
          "duration": 0.08333325000000968
        },
        {
          "name": "F#4",
          "midi": 66,
          "time": 361.5829717500084,
          "velocity": 1,
          "duration": 0.08333325000000968
        },
        {
          "name": "A#3",
          "midi": 58,
          "time": 361.5829717500084,
          "velocity": 1,
          "duration": 0.08333325000000968
        },
        {
          "name": "D#3",
          "midi": 51,
          "time": 361.66630500000844,
          "velocity": 1,
          "duration": 0.33333300000003874
        },
        {
          "name": "A#3",
          "midi": 58,
          "time": 361.66630500000844,
          "velocity": 1,
          "duration": 0.08333325000000968
        },
        {
          "name": "F#4",
          "midi": 66,
          "time": 361.66630500000844,
          "velocity": 1,
          "duration": 0.08333325000000968
        },
        {
          "name": "D#4",
          "midi": 63,
          "time": 361.66630500000844,
          "velocity": 1,
          "duration": 0.08333325000000968
        },
        {
          "name": "A#4",
          "midi": 70,
          "time": 361.66630500000844,
          "velocity": 1,
          "duration": 0.08333325000000968
        },
        {
          "name": "D#2",
          "midi": 39,
          "time": 361.66630500000844,
          "velocity": 1,
          "duration": 0.33333300000003874
        },
        {
          "name": "A#4",
          "midi": 70,
          "time": 361.74963825000845,
          "velocity": 1,
          "duration": 0.08333325000000968
        },
        {
          "name": "D#4",
          "midi": 63,
          "time": 361.74963825000845,
          "velocity": 1,
          "duration": 0.08333325000000968
        },
        {
          "name": "F#4",
          "midi": 66,
          "time": 361.74963825000845,
          "velocity": 1,
          "duration": 0.08333325000000968
        },
        {
          "name": "A#3",
          "midi": 58,
          "time": 361.74963825000845,
          "velocity": 1,
          "duration": 0.08333325000000968
        },
        {
          "name": "A#3",
          "midi": 58,
          "time": 361.83297150000845,
          "velocity": 1,
          "duration": 0.08333325000000968
        },
        {
          "name": "F#4",
          "midi": 66,
          "time": 361.83297150000845,
          "velocity": 1,
          "duration": 0.08333325000000968
        },
        {
          "name": "D#4",
          "midi": 63,
          "time": 361.83297150000845,
          "velocity": 1,
          "duration": 0.08333325000000968
        },
        {
          "name": "A#4",
          "midi": 70,
          "time": 361.83297150000845,
          "velocity": 1,
          "duration": 0.08333325000000968
        },
        {
          "name": "A#4",
          "midi": 70,
          "time": 361.91630475000846,
          "velocity": 1,
          "duration": 0.08333325000000968
        },
        {
          "name": "D#4",
          "midi": 63,
          "time": 361.91630475000846,
          "velocity": 1,
          "duration": 0.08333325000000968
        },
        {
          "name": "F#4",
          "midi": 66,
          "time": 361.91630475000846,
          "velocity": 1,
          "duration": 0.08333325000000968
        },
        {
          "name": "A#3",
          "midi": 58,
          "time": 361.91630475000846,
          "velocity": 1,
          "duration": 0.08333325000000968
        },
        {
          "name": "A#3",
          "midi": 58,
          "time": 361.9996380000085,
          "velocity": 1,
          "duration": 0.33333300000003874
        },
        {
          "name": "F#4",
          "midi": 66,
          "time": 361.9996380000085,
          "velocity": 1,
          "duration": 0.08333325000000968
        },
        {
          "name": "D#4",
          "midi": 63,
          "time": 361.9996380000085,
          "velocity": 1,
          "duration": 0.08333325000000968
        },
        {
          "name": "A#4",
          "midi": 70,
          "time": 361.9996380000085,
          "velocity": 1,
          "duration": 0.08333325000000968
        },
        {
          "name": "A#2",
          "midi": 46,
          "time": 361.9996380000085,
          "velocity": 1,
          "duration": 0.33333300000003874
        },
        {
          "name": "A#4",
          "midi": 70,
          "time": 362.0829712500085,
          "velocity": 1,
          "duration": 0.08333325000000968
        },
        {
          "name": "D#4",
          "midi": 63,
          "time": 362.0829712500085,
          "velocity": 1,
          "duration": 0.08333325000000968
        },
        {
          "name": "F#4",
          "midi": 66,
          "time": 362.0829712500085,
          "velocity": 1,
          "duration": 0.08333325000000968
        },
        {
          "name": "F#4",
          "midi": 66,
          "time": 362.1663045000085,
          "velocity": 1,
          "duration": 0.08333325000000968
        },
        {
          "name": "D#4",
          "midi": 63,
          "time": 362.1663045000085,
          "velocity": 1,
          "duration": 0.08333325000000968
        },
        {
          "name": "A#4",
          "midi": 70,
          "time": 362.1663045000085,
          "velocity": 1,
          "duration": 0.08333325000000968
        },
        {
          "name": "A#4",
          "midi": 70,
          "time": 362.2496377500085,
          "velocity": 1,
          "duration": 0.08333325000000968
        },
        {
          "name": "D#4",
          "midi": 63,
          "time": 362.2496377500085,
          "velocity": 1,
          "duration": 0.08333325000000968
        },
        {
          "name": "F#4",
          "midi": 66,
          "time": 362.2496377500085,
          "velocity": 1,
          "duration": 0.08333325000000968
        },
        {
          "name": "D#3",
          "midi": 51,
          "time": 362.3329710000085,
          "velocity": 1,
          "duration": 0.33333300000003874
        },
        {
          "name": "A#3",
          "midi": 58,
          "time": 362.3329710000085,
          "velocity": 1,
          "duration": 0.08333325000000968
        },
        {
          "name": "F#4",
          "midi": 66,
          "time": 362.3329710000085,
          "velocity": 1,
          "duration": 0.08333325000000968
        },
        {
          "name": "D#4",
          "midi": 63,
          "time": 362.3329710000085,
          "velocity": 1,
          "duration": 0.08333325000000968
        },
        {
          "name": "A#4",
          "midi": 70,
          "time": 362.3329710000085,
          "velocity": 1,
          "duration": 0.08333325000000968
        },
        {
          "name": "D#2",
          "midi": 39,
          "time": 362.3329710000085,
          "velocity": 1,
          "duration": 0.33333300000003874
        },
        {
          "name": "A#4",
          "midi": 70,
          "time": 362.4163042500085,
          "velocity": 1,
          "duration": 0.08333325000000968
        },
        {
          "name": "D#4",
          "midi": 63,
          "time": 362.4163042500085,
          "velocity": 1,
          "duration": 0.08333325000000968
        },
        {
          "name": "F#4",
          "midi": 66,
          "time": 362.4163042500085,
          "velocity": 1,
          "duration": 0.08333325000000968
        },
        {
          "name": "A#3",
          "midi": 58,
          "time": 362.4163042500085,
          "velocity": 1,
          "duration": 0.08333325000000968
        },
        {
          "name": "A#4",
          "midi": 70,
          "time": 362.49963750000853,
          "velocity": 1,
          "duration": 0.08333325000000968
        },
        {
          "name": "D#4",
          "midi": 63,
          "time": 362.49963750000853,
          "velocity": 1,
          "duration": 0.08333325000000968
        },
        {
          "name": "F#4",
          "midi": 66,
          "time": 362.49963750000853,
          "velocity": 1,
          "duration": 0.08333325000000968
        },
        {
          "name": "A#3",
          "midi": 58,
          "time": 362.49963750000853,
          "velocity": 1,
          "duration": 0.08333325000000968
        },
        {
          "name": "A#3",
          "midi": 58,
          "time": 362.58297075000854,
          "velocity": 1,
          "duration": 0.08333325000000968
        },
        {
          "name": "F#4",
          "midi": 66,
          "time": 362.58297075000854,
          "velocity": 1,
          "duration": 0.08333325000000968
        },
        {
          "name": "D#4",
          "midi": 63,
          "time": 362.58297075000854,
          "velocity": 1,
          "duration": 0.08333325000000968
        },
        {
          "name": "A#4",
          "midi": 70,
          "time": 362.58297075000854,
          "velocity": 1,
          "duration": 0.08333325000000968
        },
        {
          "name": "D#3",
          "midi": 51,
          "time": 362.66630400000855,
          "velocity": 1,
          "duration": 0.33333300000003874
        },
        {
          "name": "D#4",
          "midi": 63,
          "time": 362.66630400000855,
          "velocity": 1,
          "duration": 0.33333300000003874
        },
        {
          "name": "A#4",
          "midi": 70,
          "time": 362.66630400000855,
          "velocity": 1,
          "duration": 0.08333325000000968
        },
        {
          "name": "F#4",
          "midi": 66,
          "time": 362.66630400000855,
          "velocity": 1,
          "duration": 0.08333325000000968
        },
        {
          "name": "A#3",
          "midi": 58,
          "time": 362.66630400000855,
          "velocity": 1,
          "duration": 0.08333325000000968
        },
        {
          "name": "A#4",
          "midi": 70,
          "time": 362.74963725000856,
          "velocity": 1,
          "duration": 0.08333325000000968
        },
        {
          "name": "F#4",
          "midi": 66,
          "time": 362.74963725000856,
          "velocity": 1,
          "duration": 0.08333325000000968
        },
        {
          "name": "A#3",
          "midi": 58,
          "time": 362.74963725000856,
          "velocity": 1,
          "duration": 0.08333325000000968
        },
        {
          "name": "A#3",
          "midi": 58,
          "time": 362.83297050000857,
          "velocity": 1,
          "duration": 0.08333325000000968
        },
        {
          "name": "F#4",
          "midi": 66,
          "time": 362.83297050000857,
          "velocity": 1,
          "duration": 0.08333325000000968
        },
        {
          "name": "A#4",
          "midi": 70,
          "time": 362.83297050000857,
          "velocity": 1,
          "duration": 0.08333325000000968
        },
        {
          "name": "A#4",
          "midi": 70,
          "time": 362.9163037500086,
          "velocity": 1,
          "duration": 0.08333325000000968
        },
        {
          "name": "F#4",
          "midi": 66,
          "time": 362.9163037500086,
          "velocity": 1,
          "duration": 0.08333325000000968
        },
        {
          "name": "A#3",
          "midi": 58,
          "time": 362.9163037500086,
          "velocity": 1,
          "duration": 0.08333325000000968
        },
        {
          "name": "D#2",
          "midi": 39,
          "time": 362.9996370000086,
          "velocity": 1,
          "duration": 0.33333300000003874
        },
        {
          "name": "D#3",
          "midi": 51,
          "time": 362.9996370000086,
          "velocity": 1,
          "duration": 0.33333300000003874
        },
        {
          "name": "A#4",
          "midi": 70,
          "time": 362.9996370000086,
          "velocity": 1,
          "duration": 0.08333325000000968
        },
        {
          "name": "D#4",
          "midi": 63,
          "time": 362.9996370000086,
          "velocity": 1,
          "duration": 0.08333325000000968
        },
        {
          "name": "F#4",
          "midi": 66,
          "time": 362.9996370000086,
          "velocity": 1,
          "duration": 0.08333325000000968
        },
        {
          "name": "A#3",
          "midi": 58,
          "time": 362.9996370000086,
          "velocity": 1,
          "duration": 0.08333325000000968
        },
        {
          "name": "A#3",
          "midi": 58,
          "time": 363.0829702500086,
          "velocity": 1,
          "duration": 0.08333325000000968
        },
        {
          "name": "F#4",
          "midi": 66,
          "time": 363.0829702500086,
          "velocity": 1,
          "duration": 0.08333325000000968
        },
        {
          "name": "D#4",
          "midi": 63,
          "time": 363.0829702500086,
          "velocity": 1,
          "duration": 0.08333325000000968
        },
        {
          "name": "A#4",
          "midi": 70,
          "time": 363.0829702500086,
          "velocity": 1,
          "duration": 0.08333325000000968
        },
        {
          "name": "A#4",
          "midi": 70,
          "time": 363.1663035000086,
          "velocity": 1,
          "duration": 0.08333325000000968
        },
        {
          "name": "D#4",
          "midi": 63,
          "time": 363.1663035000086,
          "velocity": 1,
          "duration": 0.08333325000000968
        },
        {
          "name": "F#4",
          "midi": 66,
          "time": 363.1663035000086,
          "velocity": 1,
          "duration": 0.08333325000000968
        },
        {
          "name": "A#3",
          "midi": 58,
          "time": 363.1663035000086,
          "velocity": 1,
          "duration": 0.08333325000000968
        },
        {
          "name": "A#4",
          "midi": 70,
          "time": 363.2496367500086,
          "velocity": 1,
          "duration": 0.08333325000000968
        },
        {
          "name": "D#4",
          "midi": 63,
          "time": 363.2496367500086,
          "velocity": 1,
          "duration": 0.08333325000000968
        },
        {
          "name": "F#4",
          "midi": 66,
          "time": 363.2496367500086,
          "velocity": 1,
          "duration": 0.08333325000000968
        },
        {
          "name": "A#3",
          "midi": 58,
          "time": 363.2496367500086,
          "velocity": 1,
          "duration": 0.08333325000000968
        },
        {
          "name": "F#4",
          "midi": 66,
          "time": 363.33297000000863,
          "velocity": 1,
          "duration": 0.33333300000003874
        },
        {
          "name": "A#3",
          "midi": 58,
          "time": 363.33297000000863,
          "velocity": 1,
          "duration": 0.08333325000000968
        },
        {
          "name": "D#4",
          "midi": 63,
          "time": 363.33297000000863,
          "velocity": 1,
          "duration": 0.08333325000000968
        },
        {
          "name": "A#4",
          "midi": 70,
          "time": 363.33297000000863,
          "velocity": 1,
          "duration": 0.08333325000000968
        },
        {
          "name": "F#3",
          "midi": 54,
          "time": 363.33297000000863,
          "velocity": 1,
          "duration": 0.33333300000003874
        },
        {
          "name": "A#4",
          "midi": 70,
          "time": 363.41630325000864,
          "velocity": 1,
          "duration": 0.08333325000000968
        },
        {
          "name": "D#4",
          "midi": 63,
          "time": 363.41630325000864,
          "velocity": 1,
          "duration": 0.08333325000000968
        },
        {
          "name": "A#3",
          "midi": 58,
          "time": 363.41630325000864,
          "velocity": 1,
          "duration": 0.08333325000000968
        },
        {
          "name": "A#3",
          "midi": 58,
          "time": 363.49963650000865,
          "velocity": 1,
          "duration": 0.08333325000000968
        },
        {
          "name": "D#4",
          "midi": 63,
          "time": 363.49963650000865,
          "velocity": 1,
          "duration": 0.08333325000000968
        },
        {
          "name": "A#4",
          "midi": 70,
          "time": 363.49963650000865,
          "velocity": 1,
          "duration": 0.08333325000000968
        },
        {
          "name": "A#4",
          "midi": 70,
          "time": 363.58296975000866,
          "velocity": 1,
          "duration": 0.08333325000000968
        },
        {
          "name": "D#4",
          "midi": 63,
          "time": 363.58296975000866,
          "velocity": 1,
          "duration": 0.08333325000000968
        },
        {
          "name": "A#3",
          "midi": 58,
          "time": 363.58296975000866,
          "velocity": 1,
          "duration": 0.08333325000000968
        },
        {
          "name": "D#3",
          "midi": 51,
          "time": 363.66630300000867,
          "velocity": 1,
          "duration": 0.33333300000003874
        },
        {
          "name": "A#3",
          "midi": 58,
          "time": 363.66630300000867,
          "velocity": 1,
          "duration": 0.08333325000000968
        },
        {
          "name": "F#4",
          "midi": 66,
          "time": 363.66630300000867,
          "velocity": 1,
          "duration": 0.08333325000000968
        },
        {
          "name": "D#4",
          "midi": 63,
          "time": 363.66630300000867,
          "velocity": 1,
          "duration": 0.08333325000000968
        },
        {
          "name": "A#4",
          "midi": 70,
          "time": 363.66630300000867,
          "velocity": 1,
          "duration": 0.08333325000000968
        },
        {
          "name": "D#2",
          "midi": 39,
          "time": 363.66630300000867,
          "velocity": 1,
          "duration": 0.33333300000003874
        },
        {
          "name": "A#4",
          "midi": 70,
          "time": 363.7496362500087,
          "velocity": 1,
          "duration": 0.08333325000000968
        },
        {
          "name": "D#4",
          "midi": 63,
          "time": 363.7496362500087,
          "velocity": 1,
          "duration": 0.08333325000000968
        },
        {
          "name": "F#4",
          "midi": 66,
          "time": 363.7496362500087,
          "velocity": 1,
          "duration": 0.08333325000000968
        },
        {
          "name": "A#3",
          "midi": 58,
          "time": 363.7496362500087,
          "velocity": 1,
          "duration": 0.08333325000000968
        },
        {
          "name": "A#3",
          "midi": 58,
          "time": 363.8329695000087,
          "velocity": 1,
          "duration": 0.08333325000000968
        },
        {
          "name": "F#4",
          "midi": 66,
          "time": 363.8329695000087,
          "velocity": 1,
          "duration": 0.08333325000000968
        },
        {
          "name": "D#4",
          "midi": 63,
          "time": 363.8329695000087,
          "velocity": 1,
          "duration": 0.08333325000000968
        },
        {
          "name": "A#4",
          "midi": 70,
          "time": 363.8329695000087,
          "velocity": 1,
          "duration": 0.08333325000000968
        },
        {
          "name": "A#4",
          "midi": 70,
          "time": 363.9163027500087,
          "velocity": 1,
          "duration": 0.08333325000000968
        },
        {
          "name": "D#4",
          "midi": 63,
          "time": 363.9163027500087,
          "velocity": 1,
          "duration": 0.08333325000000968
        },
        {
          "name": "F#4",
          "midi": 66,
          "time": 363.9163027500087,
          "velocity": 1,
          "duration": 0.08333325000000968
        },
        {
          "name": "A#3",
          "midi": 58,
          "time": 363.9163027500087,
          "velocity": 1,
          "duration": 0.08333325000000968
        },
        {
          "name": "A#4",
          "midi": 70,
          "time": 363.9996360000087,
          "velocity": 1,
          "duration": 0.9999990000001162
        },
        {
          "name": "A#3",
          "midi": 58,
          "time": 363.9996360000087,
          "velocity": 1,
          "duration": 0.9999990000001162
        },
        {
          "name": "F#4",
          "midi": 66,
          "time": 363.9996360000087,
          "velocity": 1,
          "duration": 0.08333325000000968
        },
        {
          "name": "D#5",
          "midi": 75,
          "time": 363.9996360000087,
          "velocity": 1,
          "duration": 0.08333325000000968
        },
        {
          "name": "D#5",
          "midi": 75,
          "time": 364.0829692500087,
          "velocity": 1,
          "duration": 0.08333325000000968
        },
        {
          "name": "F#4",
          "midi": 66,
          "time": 364.0829692500087,
          "velocity": 1,
          "duration": 0.08333325000000968
        },
        {
          "name": "D#5",
          "midi": 75,
          "time": 364.1663025000087,
          "velocity": 1,
          "duration": 0.08333325000000968
        },
        {
          "name": "F#4",
          "midi": 66,
          "time": 364.1663025000087,
          "velocity": 1,
          "duration": 0.08333325000000968
        },
        {
          "name": "D#5",
          "midi": 75,
          "time": 364.24963575000874,
          "velocity": 1,
          "duration": 0.08333325000000968
        },
        {
          "name": "F#4",
          "midi": 66,
          "time": 364.24963575000874,
          "velocity": 1,
          "duration": 0.08333325000000968
        },
        {
          "name": "F#4",
          "midi": 66,
          "time": 364.33296900000875,
          "velocity": 1,
          "duration": 0.08333325000000968
        },
        {
          "name": "F#5",
          "midi": 78,
          "time": 364.33296900000875,
          "velocity": 1,
          "duration": 0.08333325000000968
        },
        {
          "name": "F#5",
          "midi": 78,
          "time": 364.41630225000875,
          "velocity": 1,
          "duration": 0.08333325000000968
        },
        {
          "name": "F#4",
          "midi": 66,
          "time": 364.41630225000875,
          "velocity": 1,
          "duration": 0.08333325000000968
        },
        {
          "name": "F#5",
          "midi": 78,
          "time": 364.49963550000876,
          "velocity": 1,
          "duration": 0.08333325000000968
        },
        {
          "name": "F#4",
          "midi": 66,
          "time": 364.49963550000876,
          "velocity": 1,
          "duration": 0.08333325000000968
        },
        {
          "name": "F#5",
          "midi": 78,
          "time": 364.5829687500088,
          "velocity": 1,
          "duration": 0.08333325000000968
        },
        {
          "name": "F#4",
          "midi": 66,
          "time": 364.5829687500088,
          "velocity": 1,
          "duration": 0.08333325000000968
        },
        {
          "name": "A#5",
          "midi": 82,
          "time": 364.6663020000088,
          "velocity": 1,
          "duration": 0.08333325000000968
        },
        {
          "name": "F#4",
          "midi": 66,
          "time": 364.6663020000088,
          "velocity": 1,
          "duration": 0.08333325000000968
        },
        {
          "name": "F#4",
          "midi": 66,
          "time": 364.7496352500088,
          "velocity": 1,
          "duration": 0.08333325000000968
        },
        {
          "name": "A#5",
          "midi": 82,
          "time": 364.7496352500088,
          "velocity": 1,
          "duration": 0.08333325000000968
        },
        {
          "name": "A#5",
          "midi": 82,
          "time": 364.8329685000088,
          "velocity": 1,
          "duration": 0.08333325000000968
        },
        {
          "name": "F#4",
          "midi": 66,
          "time": 364.8329685000088,
          "velocity": 1,
          "duration": 0.08333325000000968
        },
        {
          "name": "A#5",
          "midi": 82,
          "time": 364.9163017500088,
          "velocity": 1,
          "duration": 0.08333325000000968
        },
        {
          "name": "F#4",
          "midi": 66,
          "time": 364.9163017500088,
          "velocity": 1,
          "duration": 0.08333325000000968
        },
        {
          "name": "B3",
          "midi": 59,
          "time": 364.9996350000088,
          "velocity": 1,
          "duration": 0.33333300000003874
        },
        {
          "name": "D#4",
          "midi": 63,
          "time": 364.9996350000088,
          "velocity": 1,
          "duration": 0.08333325000000968
        },
        {
          "name": "B4",
          "midi": 71,
          "time": 364.9996350000088,
          "velocity": 1,
          "duration": 0.08333325000000968
        },
        {
          "name": "B5",
          "midi": 83,
          "time": 364.9996350000088,
          "velocity": 1,
          "duration": 0.08333325000000968
        },
        {
          "name": "B2",
          "midi": 47,
          "time": 364.9996350000088,
          "velocity": 1,
          "duration": 0.33333300000003874
        },
        {
          "name": "B5",
          "midi": 83,
          "time": 365.08296825000883,
          "velocity": 1,
          "duration": 0.08333325000000968
        },
        {
          "name": "B4",
          "midi": 71,
          "time": 365.08296825000883,
          "velocity": 1,
          "duration": 0.08333325000000968
        },
        {
          "name": "D#4",
          "midi": 63,
          "time": 365.08296825000883,
          "velocity": 1,
          "duration": 0.08333325000000968
        },
        {
          "name": "D#4",
          "midi": 63,
          "time": 365.16630150000884,
          "velocity": 1,
          "duration": 0.08333325000000968
        },
        {
          "name": "B4",
          "midi": 71,
          "time": 365.16630150000884,
          "velocity": 1,
          "duration": 0.08333325000000968
        },
        {
          "name": "B5",
          "midi": 83,
          "time": 365.16630150000884,
          "velocity": 1,
          "duration": 0.08333325000000968
        },
        {
          "name": "B5",
          "midi": 83,
          "time": 365.24963475000885,
          "velocity": 1,
          "duration": 0.08333325000000968
        },
        {
          "name": "B4",
          "midi": 71,
          "time": 365.24963475000885,
          "velocity": 1,
          "duration": 0.08333325000000968
        },
        {
          "name": "D#4",
          "midi": 63,
          "time": 365.24963475000885,
          "velocity": 1,
          "duration": 0.08333325000000968
        },
        {
          "name": "D#3",
          "midi": 51,
          "time": 365.33296800000886,
          "velocity": 1,
          "duration": 0.33333300000003874
        },
        {
          "name": "B5",
          "midi": 83,
          "time": 365.33296800000886,
          "velocity": 1,
          "duration": 0.08333325000000968
        },
        {
          "name": "B4",
          "midi": 71,
          "time": 365.33296800000886,
          "velocity": 1,
          "duration": 0.08333325000000968
        },
        {
          "name": "F#4",
          "midi": 66,
          "time": 365.33296800000886,
          "velocity": 1,
          "duration": 0.08333325000000968
        },
        {
          "name": "D#4",
          "midi": 63,
          "time": 365.33296800000886,
          "velocity": 1,
          "duration": 0.33333300000003874
        },
        {
          "name": "B5",
          "midi": 83,
          "time": 365.41630125000887,
          "velocity": 1,
          "duration": 0.08333325000000968
        },
        {
          "name": "B4",
          "midi": 71,
          "time": 365.41630125000887,
          "velocity": 1,
          "duration": 0.08333325000000968
        },
        {
          "name": "F#4",
          "midi": 66,
          "time": 365.41630125000887,
          "velocity": 1,
          "duration": 0.08333325000000968
        },
        {
          "name": "F#4",
          "midi": 66,
          "time": 365.4996345000089,
          "velocity": 1,
          "duration": 0.08333325000000968
        },
        {
          "name": "B4",
          "midi": 71,
          "time": 365.4996345000089,
          "velocity": 1,
          "duration": 0.08333325000000968
        },
        {
          "name": "B5",
          "midi": 83,
          "time": 365.4996345000089,
          "velocity": 1,
          "duration": 0.08333325000000968
        },
        {
          "name": "B5",
          "midi": 83,
          "time": 365.5829677500089,
          "velocity": 1,
          "duration": 0.08333325000000968
        },
        {
          "name": "B4",
          "midi": 71,
          "time": 365.5829677500089,
          "velocity": 1,
          "duration": 0.08333325000000968
        },
        {
          "name": "F#4",
          "midi": 66,
          "time": 365.5829677500089,
          "velocity": 1,
          "duration": 0.08333325000000968
        },
        {
          "name": "B3",
          "midi": 59,
          "time": 365.6663010000089,
          "velocity": 1,
          "duration": 0.33333300000003874
        },
        {
          "name": "D#4",
          "midi": 63,
          "time": 365.6663010000089,
          "velocity": 1,
          "duration": 0.08333325000000968
        },
        {
          "name": "B4",
          "midi": 71,
          "time": 365.6663010000089,
          "velocity": 1,
          "duration": 0.08333325000000968
        },
        {
          "name": "B5",
          "midi": 83,
          "time": 365.6663010000089,
          "velocity": 1,
          "duration": 0.08333325000000968
        },
        {
          "name": "B2",
          "midi": 47,
          "time": 365.6663010000089,
          "velocity": 1,
          "duration": 0.33333300000003874
        },
        {
          "name": "B5",
          "midi": 83,
          "time": 365.7496342500089,
          "velocity": 1,
          "duration": 0.08333325000000968
        },
        {
          "name": "B4",
          "midi": 71,
          "time": 365.7496342500089,
          "velocity": 1,
          "duration": 0.08333325000000968
        },
        {
          "name": "D#4",
          "midi": 63,
          "time": 365.7496342500089,
          "velocity": 1,
          "duration": 0.08333325000000968
        },
        {
          "name": "B5",
          "midi": 83,
          "time": 365.8329675000089,
          "velocity": 1,
          "duration": 0.08333325000000968
        },
        {
          "name": "B4",
          "midi": 71,
          "time": 365.8329675000089,
          "velocity": 1,
          "duration": 0.08333325000000968
        },
        {
          "name": "D#4",
          "midi": 63,
          "time": 365.8329675000089,
          "velocity": 1,
          "duration": 0.08333325000000968
        },
        {
          "name": "D#4",
          "midi": 63,
          "time": 365.91630075000893,
          "velocity": 1,
          "duration": 0.08333325000000968
        },
        {
          "name": "B4",
          "midi": 71,
          "time": 365.91630075000893,
          "velocity": 1,
          "duration": 0.08333325000000968
        },
        {
          "name": "B5",
          "midi": 83,
          "time": 365.91630075000893,
          "velocity": 1,
          "duration": 0.08333325000000968
        },
        {
          "name": "F#3",
          "midi": 54,
          "time": 365.99963400000894,
          "velocity": 1,
          "duration": 0.33333300000003874
        },
        {
          "name": "B5",
          "midi": 83,
          "time": 365.99963400000894,
          "velocity": 1,
          "duration": 0.08333325000000968
        },
        {
          "name": "B4",
          "midi": 71,
          "time": 365.99963400000894,
          "velocity": 1,
          "duration": 0.08333325000000968
        },
        {
          "name": "F#4",
          "midi": 66,
          "time": 365.99963400000894,
          "velocity": 1,
          "duration": 0.33333300000003874
        },
        {
          "name": "B4",
          "midi": 71,
          "time": 366.08296725000895,
          "velocity": 1,
          "duration": 0.08333325000000968
        },
        {
          "name": "B5",
          "midi": 83,
          "time": 366.08296725000895,
          "velocity": 1,
          "duration": 0.08333325000000968
        },
        {
          "name": "B5",
          "midi": 83,
          "time": 366.16630050000896,
          "velocity": 1,
          "duration": 0.08333325000000968
        },
        {
          "name": "B4",
          "midi": 71,
          "time": 366.16630050000896,
          "velocity": 1,
          "duration": 0.08333325000000968
        },
        {
          "name": "B5",
          "midi": 83,
          "time": 366.24963375000897,
          "velocity": 1,
          "duration": 0.08333325000000968
        },
        {
          "name": "B4",
          "midi": 71,
          "time": 366.24963375000897,
          "velocity": 1,
          "duration": 0.08333325000000968
        },
        {
          "name": "B3",
          "midi": 59,
          "time": 366.332967000009,
          "velocity": 1,
          "duration": 0.33333300000003874
        },
        {
          "name": "D#4",
          "midi": 63,
          "time": 366.332967000009,
          "velocity": 1,
          "duration": 0.08333325000000968
        },
        {
          "name": "B4",
          "midi": 71,
          "time": 366.332967000009,
          "velocity": 1,
          "duration": 0.08333325000000968
        },
        {
          "name": "B5",
          "midi": 83,
          "time": 366.332967000009,
          "velocity": 1,
          "duration": 0.08333325000000968
        },
        {
          "name": "B2",
          "midi": 47,
          "time": 366.332967000009,
          "velocity": 1,
          "duration": 0.33333300000003874
        },
        {
          "name": "B5",
          "midi": 83,
          "time": 366.416300250009,
          "velocity": 1,
          "duration": 0.08333325000000968
        },
        {
          "name": "B4",
          "midi": 71,
          "time": 366.416300250009,
          "velocity": 1,
          "duration": 0.08333325000000968
        },
        {
          "name": "D#4",
          "midi": 63,
          "time": 366.416300250009,
          "velocity": 1,
          "duration": 0.08333325000000968
        },
        {
          "name": "B5",
          "midi": 83,
          "time": 366.499633500009,
          "velocity": 1,
          "duration": 0.08333325000000968
        },
        {
          "name": "B4",
          "midi": 71,
          "time": 366.499633500009,
          "velocity": 1,
          "duration": 0.08333325000000968
        },
        {
          "name": "D#4",
          "midi": 63,
          "time": 366.499633500009,
          "velocity": 1,
          "duration": 0.08333325000000968
        },
        {
          "name": "B5",
          "midi": 83,
          "time": 366.582966750009,
          "velocity": 1,
          "duration": 0.08333325000000968
        },
        {
          "name": "B4",
          "midi": 71,
          "time": 366.582966750009,
          "velocity": 1,
          "duration": 0.08333325000000968
        },
        {
          "name": "D#4",
          "midi": 63,
          "time": 366.582966750009,
          "velocity": 1,
          "duration": 0.08333325000000968
        },
        {
          "name": "B4",
          "midi": 71,
          "time": 366.666300000009,
          "velocity": 1,
          "duration": 0.33333300000003874
        },
        {
          "name": "D#5",
          "midi": 75,
          "time": 366.666300000009,
          "velocity": 1,
          "duration": 0.08333325000000968
        },
        {
          "name": "B5",
          "midi": 83,
          "time": 366.666300000009,
          "velocity": 1,
          "duration": 0.08333325000000968
        },
        {
          "name": "B3",
          "midi": 59,
          "time": 366.666300000009,
          "velocity": 1,
          "duration": 0.33333300000003874
        },
        {
          "name": "B5",
          "midi": 83,
          "time": 366.749633250009,
          "velocity": 1,
          "duration": 0.08333325000000968
        },
        {
          "name": "D#5",
          "midi": 75,
          "time": 366.749633250009,
          "velocity": 1,
          "duration": 0.08333325000000968
        },
        {
          "name": "B5",
          "midi": 83,
          "time": 366.83296650000904,
          "velocity": 1,
          "duration": 0.08333325000000968
        },
        {
          "name": "D#5",
          "midi": 75,
          "time": 366.83296650000904,
          "velocity": 1,
          "duration": 0.08333325000000968
        },
        {
          "name": "B5",
          "midi": 83,
          "time": 366.91629975000905,
          "velocity": 1,
          "duration": 0.08333325000000968
        },
        {
          "name": "D#5",
          "midi": 75,
          "time": 366.91629975000905,
          "velocity": 1,
          "duration": 0.08333325000000968
        },
        {
          "name": "B3",
          "midi": 59,
          "time": 366.99963300000906,
          "velocity": 1,
          "duration": 0.33333300000003874
        },
        {
          "name": "D#4",
          "midi": 63,
          "time": 366.99963300000906,
          "velocity": 1,
          "duration": 0.08333325000000968
        },
        {
          "name": "B4",
          "midi": 71,
          "time": 366.99963300000906,
          "velocity": 1,
          "duration": 0.08333325000000968
        },
        {
          "name": "B5",
          "midi": 83,
          "time": 366.99963300000906,
          "velocity": 1,
          "duration": 0.08333325000000968
        },
        {
          "name": "B2",
          "midi": 47,
          "time": 366.99963300000906,
          "velocity": 1,
          "duration": 0.33333300000003874
        },
        {
          "name": "B5",
          "midi": 83,
          "time": 367.08296625000906,
          "velocity": 1,
          "duration": 0.08333325000000968
        },
        {
          "name": "B4",
          "midi": 71,
          "time": 367.08296625000906,
          "velocity": 1,
          "duration": 0.08333325000000968
        },
        {
          "name": "D#4",
          "midi": 63,
          "time": 367.08296625000906,
          "velocity": 1,
          "duration": 0.08333325000000968
        },
        {
          "name": "B5",
          "midi": 83,
          "time": 367.1662995000091,
          "velocity": 1,
          "duration": 0.08333325000000968
        },
        {
          "name": "B4",
          "midi": 71,
          "time": 367.1662995000091,
          "velocity": 1,
          "duration": 0.08333325000000968
        },
        {
          "name": "D#4",
          "midi": 63,
          "time": 367.1662995000091,
          "velocity": 1,
          "duration": 0.08333325000000968
        },
        {
          "name": "B5",
          "midi": 83,
          "time": 367.2496327500091,
          "velocity": 1,
          "duration": 0.08333325000000968
        },
        {
          "name": "B4",
          "midi": 71,
          "time": 367.2496327500091,
          "velocity": 1,
          "duration": 0.08333325000000968
        },
        {
          "name": "D#4",
          "midi": 63,
          "time": 367.2496327500091,
          "velocity": 1,
          "duration": 0.08333325000000968
        },
        {
          "name": "D#5",
          "midi": 75,
          "time": 367.3329660000091,
          "velocity": 1,
          "duration": 0.33333300000003874
        },
        {
          "name": "F#5",
          "midi": 78,
          "time": 367.3329660000091,
          "velocity": 1,
          "duration": 0.08333325000000968
        },
        {
          "name": "B4",
          "midi": 71,
          "time": 367.3329660000091,
          "velocity": 1,
          "duration": 0.08333325000000968
        },
        {
          "name": "B5",
          "midi": 83,
          "time": 367.3329660000091,
          "velocity": 1,
          "duration": 0.08333325000000968
        },
        {
          "name": "D#4",
          "midi": 63,
          "time": 367.3329660000091,
          "velocity": 1,
          "duration": 0.33333300000003874
        },
        {
          "name": "B5",
          "midi": 83,
          "time": 367.4162992500091,
          "velocity": 1,
          "duration": 0.08333325000000968
        },
        {
          "name": "B4",
          "midi": 71,
          "time": 367.4162992500091,
          "velocity": 1,
          "duration": 0.08333325000000968
        },
        {
          "name": "F#5",
          "midi": 78,
          "time": 367.4162992500091,
          "velocity": 1,
          "duration": 0.08333325000000968
        },
        {
          "name": "F#5",
          "midi": 78,
          "time": 367.4996325000091,
          "velocity": 1,
          "duration": 0.08333325000000968
        },
        {
          "name": "B4",
          "midi": 71,
          "time": 367.4996325000091,
          "velocity": 1,
          "duration": 0.08333325000000968
        },
        {
          "name": "B5",
          "midi": 83,
          "time": 367.4996325000091,
          "velocity": 1,
          "duration": 0.08333325000000968
        },
        {
          "name": "B5",
          "midi": 83,
          "time": 367.5829657500091,
          "velocity": 1,
          "duration": 0.08333325000000968
        },
        {
          "name": "B4",
          "midi": 71,
          "time": 367.5829657500091,
          "velocity": 1,
          "duration": 0.08333325000000968
        },
        {
          "name": "F#5",
          "midi": 78,
          "time": 367.5829657500091,
          "velocity": 1,
          "duration": 0.08333325000000968
        },
        {
          "name": "B3",
          "midi": 59,
          "time": 367.66629900000913,
          "velocity": 1,
          "duration": 0.33333300000003874
        },
        {
          "name": "D#5",
          "midi": 75,
          "time": 367.66629900000913,
          "velocity": 1,
          "duration": 0.08333325000000968
        },
        {
          "name": "F#5",
          "midi": 78,
          "time": 367.66629900000913,
          "velocity": 1,
          "duration": 0.08333325000000968
        },
        {
          "name": "B4",
          "midi": 71,
          "time": 367.66629900000913,
          "velocity": 1,
          "duration": 0.08333325000000968
        },
        {
          "name": "B5",
          "midi": 83,
          "time": 367.66629900000913,
          "velocity": 1,
          "duration": 0.08333325000000968
        },
        {
          "name": "B2",
          "midi": 47,
          "time": 367.66629900000913,
          "velocity": 1,
          "duration": 0.33333300000003874
        },
        {
          "name": "B5",
          "midi": 83,
          "time": 367.74963225000914,
          "velocity": 1,
          "duration": 0.08333325000000968
        },
        {
          "name": "B4",
          "midi": 71,
          "time": 367.74963225000914,
          "velocity": 1,
          "duration": 0.08333325000000968
        },
        {
          "name": "F#5",
          "midi": 78,
          "time": 367.74963225000914,
          "velocity": 1,
          "duration": 0.08333325000000968
        },
        {
          "name": "D#5",
          "midi": 75,
          "time": 367.74963225000914,
          "velocity": 1,
          "duration": 0.08333325000000968
        },
        {
          "name": "B5",
          "midi": 83,
          "time": 367.83296550000915,
          "velocity": 1,
          "duration": 0.08333325000000968
        },
        {
          "name": "B4",
          "midi": 71,
          "time": 367.83296550000915,
          "velocity": 1,
          "duration": 0.08333325000000968
        },
        {
          "name": "F#5",
          "midi": 78,
          "time": 367.83296550000915,
          "velocity": 1,
          "duration": 0.08333325000000968
        },
        {
          "name": "D#5",
          "midi": 75,
          "time": 367.83296550000915,
          "velocity": 1,
          "duration": 0.08333325000000968
        },
        {
          "name": "D#5",
          "midi": 75,
          "time": 367.91629875000916,
          "velocity": 1,
          "duration": 0.08333325000000968
        },
        {
          "name": "F#5",
          "midi": 78,
          "time": 367.91629875000916,
          "velocity": 1,
          "duration": 0.08333325000000968
        },
        {
          "name": "B4",
          "midi": 71,
          "time": 367.91629875000916,
          "velocity": 1,
          "duration": 0.08333325000000968
        },
        {
          "name": "B5",
          "midi": 83,
          "time": 367.91629875000916,
          "velocity": 1,
          "duration": 0.08333325000000968
        },
        {
          "name": "F#4",
          "midi": 66,
          "time": 367.99963200000917,
          "velocity": 1,
          "duration": 0.16666650000001937
        },
        {
          "name": "B5",
          "midi": 83,
          "time": 367.99963200000917,
          "velocity": 1,
          "duration": 0.08333325000000968
        },
        {
          "name": "B4",
          "midi": 71,
          "time": 367.99963200000917,
          "velocity": 1,
          "duration": 0.08333325000000968
        },
        {
          "name": "F#5",
          "midi": 78,
          "time": 367.99963200000917,
          "velocity": 1,
          "duration": 0.16666650000001937
        },
        {
          "name": "D#5",
          "midi": 75,
          "time": 367.99963200000917,
          "velocity": 1,
          "duration": 0.08333325000000968
        },
        {
          "name": "B5",
          "midi": 83,
          "time": 368.0829652500092,
          "velocity": 1,
          "duration": 0.08333325000000968
        },
        {
          "name": "B4",
          "midi": 71,
          "time": 368.0829652500092,
          "velocity": 1,
          "duration": 0.08333325000000968
        },
        {
          "name": "D#5",
          "midi": 75,
          "time": 368.0829652500092,
          "velocity": 1,
          "duration": 0.08333325000000968
        },
        {
          "name": "D#5",
          "midi": 75,
          "time": 368.1662985000092,
          "velocity": 1,
          "duration": 0.16666650000001937
        },
        {
          "name": "F#5",
          "midi": 78,
          "time": 368.1662985000092,
          "velocity": 1,
          "duration": 0.08333325000000968
        },
        {
          "name": "B4",
          "midi": 71,
          "time": 368.1662985000092,
          "velocity": 1,
          "duration": 0.08333325000000968
        },
        {
          "name": "B5",
          "midi": 83,
          "time": 368.1662985000092,
          "velocity": 1,
          "duration": 0.08333325000000968
        },
        {
          "name": "D#4",
          "midi": 63,
          "time": 368.1662985000092,
          "velocity": 1,
          "duration": 0.16666650000001937
        },
        {
          "name": "B5",
          "midi": 83,
          "time": 368.2496317500092,
          "velocity": 1,
          "duration": 0.08333325000000968
        },
        {
          "name": "B4",
          "midi": 71,
          "time": 368.2496317500092,
          "velocity": 1,
          "duration": 0.08333325000000968
        },
        {
          "name": "F#5",
          "midi": 78,
          "time": 368.2496317500092,
          "velocity": 1,
          "duration": 0.08333325000000968
        },
        {
          "name": "B4",
          "midi": 71,
          "time": 368.3329650000092,
          "velocity": 1,
          "duration": 0.16666650000001937
        },
        {
          "name": "D#5",
          "midi": 75,
          "time": 368.3329650000092,
          "velocity": 1,
          "duration": 0.08333325000000968
        },
        {
          "name": "F#5",
          "midi": 78,
          "time": 368.3329650000092,
          "velocity": 1,
          "duration": 0.08333325000000968
        },
        {
          "name": "B5",
          "midi": 83,
          "time": 368.3329650000092,
          "velocity": 1,
          "duration": 0.08333325000000968
        },
        {
          "name": "B3",
          "midi": 59,
          "time": 368.3329650000092,
          "velocity": 1,
          "duration": 0.16666650000001937
        },
        {
          "name": "D#5",
          "midi": 75,
          "time": 368.4162982500092,
          "velocity": 1,
          "duration": 0.08333325000000968
        },
        {
          "name": "F#5",
          "midi": 78,
          "time": 368.4162982500092,
          "velocity": 1,
          "duration": 0.08333325000000968
        },
        {
          "name": "B5",
          "midi": 83,
          "time": 368.4162982500092,
          "velocity": 1,
          "duration": 0.08333325000000968
        },
        {
          "name": "F#3",
          "midi": 54,
          "time": 368.49963150000923,
          "velocity": 1,
          "duration": 0.16666650000001937
        },
        {
          "name": "B5",
          "midi": 83,
          "time": 368.49963150000923,
          "velocity": 1,
          "duration": 0.08333325000000968
        },
        {
          "name": "B4",
          "midi": 71,
          "time": 368.49963150000923,
          "velocity": 1,
          "duration": 0.08333325000000968
        },
        {
          "name": "F#5",
          "midi": 78,
          "time": 368.49963150000923,
          "velocity": 1,
          "duration": 0.08333325000000968
        },
        {
          "name": "D#5",
          "midi": 75,
          "time": 368.49963150000923,
          "velocity": 1,
          "duration": 0.08333325000000968
        },
        {
          "name": "F#4",
          "midi": 66,
          "time": 368.49963150000923,
          "velocity": 1,
          "duration": 0.16666650000001937
        },
        {
          "name": "B5",
          "midi": 83,
          "time": 368.58296475000924,
          "velocity": 1,
          "duration": 0.08333325000000968
        },
        {
          "name": "B4",
          "midi": 71,
          "time": 368.58296475000924,
          "velocity": 1,
          "duration": 0.08333325000000968
        },
        {
          "name": "F#5",
          "midi": 78,
          "time": 368.58296475000924,
          "velocity": 1,
          "duration": 0.08333325000000968
        },
        {
          "name": "D#5",
          "midi": 75,
          "time": 368.58296475000924,
          "velocity": 1,
          "duration": 0.08333325000000968
        },
        {
          "name": "D#4",
          "midi": 63,
          "time": 368.66629800000925,
          "velocity": 1,
          "duration": 0.16666650000001937
        },
        {
          "name": "D#5",
          "midi": 75,
          "time": 368.66629800000925,
          "velocity": 1,
          "duration": 0.08333325000000968
        },
        {
          "name": "F#5",
          "midi": 78,
          "time": 368.66629800000925,
          "velocity": 1,
          "duration": 0.08333325000000968
        },
        {
          "name": "B4",
          "midi": 71,
          "time": 368.66629800000925,
          "velocity": 1,
          "duration": 0.08333325000000968
        },
        {
          "name": "B5",
          "midi": 83,
          "time": 368.66629800000925,
          "velocity": 1,
          "duration": 0.08333325000000968
        },
        {
          "name": "D#3",
          "midi": 51,
          "time": 368.66629800000925,
          "velocity": 1,
          "duration": 0.16666650000001937
        },
        {
          "name": "B5",
          "midi": 83,
          "time": 368.74963125000926,
          "velocity": 1,
          "duration": 0.08333325000000968
        },
        {
          "name": "B4",
          "midi": 71,
          "time": 368.74963125000926,
          "velocity": 1,
          "duration": 0.08333325000000968
        },
        {
          "name": "F#5",
          "midi": 78,
          "time": 368.74963125000926,
          "velocity": 1,
          "duration": 0.08333325000000968
        },
        {
          "name": "D#5",
          "midi": 75,
          "time": 368.74963125000926,
          "velocity": 1,
          "duration": 0.08333325000000968
        },
        {
          "name": "F#4",
          "midi": 66,
          "time": 368.83296450000927,
          "velocity": 1,
          "duration": 0.16666650000001937
        },
        {
          "name": "D#5",
          "midi": 75,
          "time": 368.83296450000927,
          "velocity": 1,
          "duration": 0.08333325000000968
        },
        {
          "name": "F#5",
          "midi": 78,
          "time": 368.83296450000927,
          "velocity": 1,
          "duration": 0.08333325000000968
        },
        {
          "name": "B4",
          "midi": 71,
          "time": 368.83296450000927,
          "velocity": 1,
          "duration": 0.08333325000000968
        },
        {
          "name": "B5",
          "midi": 83,
          "time": 368.83296450000927,
          "velocity": 1,
          "duration": 0.08333325000000968
        },
        {
          "name": "F#3",
          "midi": 54,
          "time": 368.83296450000927,
          "velocity": 1,
          "duration": 0.16666650000001937
        },
        {
          "name": "D#5",
          "midi": 75,
          "time": 368.9162977500093,
          "velocity": 1,
          "duration": 0.08333325000000968
        },
        {
          "name": "F#5",
          "midi": 78,
          "time": 368.9162977500093,
          "velocity": 1,
          "duration": 0.08333325000000968
        },
        {
          "name": "B4",
          "midi": 71,
          "time": 368.9162977500093,
          "velocity": 1,
          "duration": 0.08333325000000968
        },
        {
          "name": "B5",
          "midi": 83,
          "time": 368.9162977500093,
          "velocity": 1,
          "duration": 0.08333325000000968
        },
        {
          "name": "B2",
          "midi": 47,
          "time": 368.9996310000093,
          "velocity": 1,
          "duration": 0.3333329999999819
        },
        {
          "name": "B5",
          "midi": 83,
          "time": 368.9996310000093,
          "velocity": 1,
          "duration": 0.3333329999999819
        },
        {
          "name": "B4",
          "midi": 71,
          "time": 368.9996310000093,
          "velocity": 1,
          "duration": 0.3333329999999819
        },
        {
          "name": "F#5",
          "midi": 78,
          "time": 368.9996310000093,
          "velocity": 1,
          "duration": 0.3333329999999819
        },
        {
          "name": "D#5",
          "midi": 75,
          "time": 368.9996310000093,
          "velocity": 1,
          "duration": 0.3333329999999819
        },
        {
          "name": "B3",
          "midi": 59,
          "time": 368.9996310000093,
          "velocity": 1,
          "duration": 0.3333329999999819
        },
        {
          "name": "B2",
          "midi": 47,
          "time": 371.9996280000093,
          "velocity": 1,
          "duration": 0.3333329999999819
        },
        {
          "name": "B3",
          "midi": 59,
          "time": 371.9996280000093,
          "velocity": 1,
          "duration": 0.3333329999999819
        },
        {
          "name": "D#4",
          "midi": 63,
          "time": 372.3329610000093,
          "velocity": 1,
          "duration": 0.3333329999999819
        },
        {
          "name": "D#3",
          "midi": 51,
          "time": 372.3329610000093,
          "velocity": 1,
          "duration": 0.3333329999999819
        },
        {
          "name": "F#3",
          "midi": 54,
          "time": 372.66629400000926,
          "velocity": 1,
          "duration": 0.3333329999999819
        },
        {
          "name": "F#4",
          "midi": 66,
          "time": 372.66629400000926,
          "velocity": 1,
          "duration": 0.3333329999999819
        },
        {
          "name": "C3",
          "midi": 48,
          "time": 375.99962400000925,
          "velocity": 1,
          "duration": 0.3333329999999819
        },
        {
          "name": "C4",
          "midi": 60,
          "time": 375.99962400000925,
          "velocity": 1,
          "duration": 0.3333329999999819
        },
        {
          "name": "D#3",
          "midi": 51,
          "time": 376.33295700000923,
          "velocity": 1,
          "duration": 0.3333329999999819
        },
        {
          "name": "D#4",
          "midi": 63,
          "time": 376.33295700000923,
          "velocity": 1,
          "duration": 0.3333329999999819
        },
        {
          "name": "A3",
          "midi": 57,
          "time": 376.6662900000092,
          "velocity": 1,
          "duration": 0.3333329999999819
        },
        {
          "name": "A4",
          "midi": 69,
          "time": 376.6662900000092,
          "velocity": 1,
          "duration": 0.3333329999999819
        },
        {
          "name": "D3",
          "midi": 50,
          "time": 377.4996225000092,
          "velocity": 1,
          "duration": 0.16666650000001937
        },
        {
          "name": "D4",
          "midi": 62,
          "time": 377.4996225000092,
          "velocity": 1,
          "duration": 0.16666650000001937
        },
        {
          "name": "F3",
          "midi": 53,
          "time": 377.6662890000092,
          "velocity": 1,
          "duration": 0.16666650000001937
        },
        {
          "name": "F4",
          "midi": 65,
          "time": 377.6662890000092,
          "velocity": 1,
          "duration": 0.16666650000001937
        },
        {
          "name": "A#3",
          "midi": 58,
          "time": 377.83295550000923,
          "velocity": 1,
          "duration": 0.16666650000001937
        },
        {
          "name": "A#4",
          "midi": 70,
          "time": 377.83295550000923,
          "velocity": 1,
          "duration": 0.16666650000001937
        },
        {
          "name": "D3",
          "midi": 50,
          "time": 378.49962150000925,
          "velocity": 1,
          "duration": 0.16666650000001937
        },
        {
          "name": "D4",
          "midi": 62,
          "time": 378.49962150000925,
          "velocity": 1,
          "duration": 0.16666650000001937
        },
        {
          "name": "F3",
          "midi": 53,
          "time": 378.6662880000093,
          "velocity": 1,
          "duration": 0.16666650000001937
        },
        {
          "name": "F4",
          "midi": 65,
          "time": 378.6662880000093,
          "velocity": 1,
          "duration": 0.16666650000001937
        },
        {
          "name": "A#3",
          "midi": 58,
          "time": 378.8329545000093,
          "velocity": 1,
          "duration": 0.16666650000001937
        },
        {
          "name": "A#4",
          "midi": 70,
          "time": 378.8329545000093,
          "velocity": 1,
          "duration": 0.16666650000001937
        },
        {
          "name": "D#3",
          "midi": 51,
          "time": 379.4996205000093,
          "velocity": 1,
          "duration": 0.16666650000001937
        },
        {
          "name": "D#4",
          "midi": 63,
          "time": 379.4996205000093,
          "velocity": 1,
          "duration": 0.16666650000001937
        },
        {
          "name": "F#3",
          "midi": 54,
          "time": 379.66628700000933,
          "velocity": 1,
          "duration": 0.16666650000001937
        },
        {
          "name": "F#4",
          "midi": 66,
          "time": 379.66628700000933,
          "velocity": 1,
          "duration": 0.16666650000001937
        },
        {
          "name": "A#3",
          "midi": 58,
          "time": 379.83295350000935,
          "velocity": 1,
          "duration": 0.16666650000001937
        },
        {
          "name": "A#4",
          "midi": 70,
          "time": 379.83295350000935,
          "velocity": 1,
          "duration": 0.16666650000001937
        },
        {
          "name": "D#3",
          "midi": 51,
          "time": 380.4996195000094,
          "velocity": 1,
          "duration": 0.16666650000001937
        },
        {
          "name": "D#4",
          "midi": 63,
          "time": 380.4996195000094,
          "velocity": 1,
          "duration": 0.16666650000001937
        },
        {
          "name": "F#3",
          "midi": 54,
          "time": 380.6662860000094,
          "velocity": 1,
          "duration": 0.16666650000001937
        },
        {
          "name": "F#4",
          "midi": 66,
          "time": 380.6662860000094,
          "velocity": 1,
          "duration": 0.16666650000001937
        },
        {
          "name": "A#3",
          "midi": 58,
          "time": 380.8329525000094,
          "velocity": 1,
          "duration": 0.16666650000001937
        },
        {
          "name": "A#4",
          "midi": 70,
          "time": 380.8329525000094,
          "velocity": 1,
          "duration": 0.16666650000001937
        },
        {
          "name": "A#3",
          "midi": 58,
          "time": 381.66628500000945,
          "velocity": 1,
          "duration": 0.3333329999999819
        },
        {
          "name": "A#2",
          "midi": 46,
          "time": 381.66628500000945,
          "velocity": 1,
          "duration": 0.3333329999999819
        },
        {
          "name": "A#2",
          "midi": 46,
          "time": 382.66628400000945,
          "velocity": 1,
          "duration": 0.3333329999999819
        },
        {
          "name": "A#3",
          "midi": 58,
          "time": 382.66628400000945,
          "velocity": 1,
          "duration": 0.3333329999999819
        },
        {
          "name": "A#2",
          "midi": 46,
          "time": 383.66628300000946,
          "velocity": 1,
          "duration": 0.3333329999999819
        },
        {
          "name": "A#3",
          "midi": 58,
          "time": 383.66628300000946,
          "velocity": 1,
          "duration": 0.3333329999999819
        },
        {
          "name": "A#3",
          "midi": 58,
          "time": 384.66628200000946,
          "velocity": 1,
          "duration": 0.3333329999999819
        },
        {
          "name": "A#2",
          "midi": 46,
          "time": 384.66628200000946,
          "velocity": 1,
          "duration": 0.3333329999999819
        },
        {
          "name": "B4",
          "midi": 71,
          "time": 384.99961500000944,
          "velocity": 1,
          "duration": 0.08333325000000968
        },
        {
          "name": "G#4",
          "midi": 68,
          "time": 384.99961500000944,
          "velocity": 1,
          "duration": 0.08333325000000968
        },
        {
          "name": "B4",
          "midi": 71,
          "time": 385.08294825000945,
          "velocity": 1,
          "duration": 0.08333325000000968
        },
        {
          "name": "G#4",
          "midi": 68,
          "time": 385.08294825000945,
          "velocity": 1,
          "duration": 0.08333325000000968
        },
        {
          "name": "B4",
          "midi": 71,
          "time": 385.16628150000946,
          "velocity": 1,
          "duration": 0.08333325000000968
        },
        {
          "name": "G#4",
          "midi": 68,
          "time": 385.16628150000946,
          "velocity": 1,
          "duration": 0.08333325000000968
        },
        {
          "name": "B4",
          "midi": 71,
          "time": 385.24961475000947,
          "velocity": 1,
          "duration": 0.08333325000000968
        },
        {
          "name": "G#4",
          "midi": 68,
          "time": 385.24961475000947,
          "velocity": 1,
          "duration": 0.08333325000000968
        },
        {
          "name": "B4",
          "midi": 71,
          "time": 385.3329480000095,
          "velocity": 1,
          "duration": 0.08333325000000968
        },
        {
          "name": "G#4",
          "midi": 68,
          "time": 385.3329480000095,
          "velocity": 1,
          "duration": 0.08333325000000968
        },
        {
          "name": "B4",
          "midi": 71,
          "time": 385.4162812500095,
          "velocity": 1,
          "duration": 0.08333325000000968
        },
        {
          "name": "G#4",
          "midi": 68,
          "time": 385.4162812500095,
          "velocity": 1,
          "duration": 0.08333325000000968
        },
        {
          "name": "G#4",
          "midi": 68,
          "time": 385.4996145000095,
          "velocity": 1,
          "duration": 0.08333325000000968
        },
        {
          "name": "B4",
          "midi": 71,
          "time": 385.4996145000095,
          "velocity": 1,
          "duration": 0.08333325000000968
        },
        {
          "name": "B4",
          "midi": 71,
          "time": 385.5829477500095,
          "velocity": 1,
          "duration": 0.08333325000000968
        },
        {
          "name": "G#4",
          "midi": 68,
          "time": 385.5829477500095,
          "velocity": 1,
          "duration": 0.08333325000000968
        },
        {
          "name": "B4",
          "midi": 71,
          "time": 385.6662810000095,
          "velocity": 1,
          "duration": 0.08333325000000968
        },
        {
          "name": "G#4",
          "midi": 68,
          "time": 385.6662810000095,
          "velocity": 1,
          "duration": 0.08333325000000968
        },
        {
          "name": "B4",
          "midi": 71,
          "time": 385.74961425000953,
          "velocity": 1,
          "duration": 0.08333325000000968
        },
        {
          "name": "G#4",
          "midi": 68,
          "time": 385.74961425000953,
          "velocity": 1,
          "duration": 0.08333325000000968
        },
        {
          "name": "B4",
          "midi": 71,
          "time": 385.83294750000954,
          "velocity": 1,
          "duration": 0.08333325000000968
        },
        {
          "name": "G#4",
          "midi": 68,
          "time": 385.83294750000954,
          "velocity": 1,
          "duration": 0.08333325000000968
        },
        {
          "name": "G#4",
          "midi": 68,
          "time": 385.91628075000955,
          "velocity": 1,
          "duration": 0.08333325000000968
        },
        {
          "name": "B4",
          "midi": 71,
          "time": 385.91628075000955,
          "velocity": 1,
          "duration": 0.08333325000000968
        },
        {
          "name": "B4",
          "midi": 71,
          "time": 385.99961400000956,
          "velocity": 1,
          "duration": 0.08333325000000968
        },
        {
          "name": "G#4",
          "midi": 68,
          "time": 385.99961400000956,
          "velocity": 1,
          "duration": 0.08333325000000968
        },
        {
          "name": "B4",
          "midi": 71,
          "time": 386.08294725000957,
          "velocity": 1,
          "duration": 0.08333325000000968
        },
        {
          "name": "G#4",
          "midi": 68,
          "time": 386.08294725000957,
          "velocity": 1,
          "duration": 0.08333325000000968
        },
        {
          "name": "B4",
          "midi": 71,
          "time": 386.1662805000096,
          "velocity": 1,
          "duration": 0.08333325000000968
        },
        {
          "name": "G#4",
          "midi": 68,
          "time": 386.1662805000096,
          "velocity": 1,
          "duration": 0.08333325000000968
        },
        {
          "name": "G#4",
          "midi": 68,
          "time": 386.2496137500096,
          "velocity": 1,
          "duration": 0.08333325000000968
        },
        {
          "name": "B4",
          "midi": 71,
          "time": 386.2496137500096,
          "velocity": 1,
          "duration": 0.08333325000000968
        },
        {
          "name": "B4",
          "midi": 71,
          "time": 386.3329470000096,
          "velocity": 1,
          "duration": 0.08333325000000968
        },
        {
          "name": "G#4",
          "midi": 68,
          "time": 386.3329470000096,
          "velocity": 1,
          "duration": 0.08333325000000968
        },
        {
          "name": "B4",
          "midi": 71,
          "time": 386.4162802500096,
          "velocity": 1,
          "duration": 0.08333325000000968
        },
        {
          "name": "G#4",
          "midi": 68,
          "time": 386.4162802500096,
          "velocity": 1,
          "duration": 0.08333325000000968
        },
        {
          "name": "B4",
          "midi": 71,
          "time": 386.4996135000096,
          "velocity": 1,
          "duration": 0.08333325000000968
        },
        {
          "name": "G#4",
          "midi": 68,
          "time": 386.4996135000096,
          "velocity": 1,
          "duration": 0.08333325000000968
        },
        {
          "name": "B4",
          "midi": 71,
          "time": 386.5829467500096,
          "velocity": 1,
          "duration": 0.08333325000000968
        },
        {
          "name": "G#4",
          "midi": 68,
          "time": 386.5829467500096,
          "velocity": 1,
          "duration": 0.08333325000000968
        },
        {
          "name": "B4",
          "midi": 71,
          "time": 386.66628000000964,
          "velocity": 1,
          "duration": 0.08333325000000968
        },
        {
          "name": "G#4",
          "midi": 68,
          "time": 386.66628000000964,
          "velocity": 1,
          "duration": 0.08333325000000968
        },
        {
          "name": "B4",
          "midi": 71,
          "time": 386.74961325000965,
          "velocity": 1,
          "duration": 0.08333325000000968
        },
        {
          "name": "G#4",
          "midi": 68,
          "time": 386.74961325000965,
          "velocity": 1,
          "duration": 0.08333325000000968
        },
        {
          "name": "B4",
          "midi": 71,
          "time": 386.83294650000965,
          "velocity": 1,
          "duration": 0.08333325000000968
        },
        {
          "name": "G#4",
          "midi": 68,
          "time": 386.83294650000965,
          "velocity": 1,
          "duration": 0.08333325000000968
        },
        {
          "name": "G#4",
          "midi": 68,
          "time": 386.91627975000966,
          "velocity": 1,
          "duration": 0.08333325000000968
        },
        {
          "name": "B4",
          "midi": 71,
          "time": 386.91627975000966,
          "velocity": 1,
          "duration": 0.08333325000000968
        },
        {
          "name": "A#2",
          "midi": 46,
          "time": 387.6662790000097,
          "velocity": 1,
          "duration": 0.3333329999999819
        },
        {
          "name": "A#3",
          "midi": 58,
          "time": 387.6662790000097,
          "velocity": 1,
          "duration": 0.3333329999999819
        },
        {
          "name": "A#2",
          "midi": 46,
          "time": 388.6662780000097,
          "velocity": 1,
          "duration": 0.3333329999999819
        },
        {
          "name": "A#3",
          "midi": 58,
          "time": 388.6662780000097,
          "velocity": 1,
          "duration": 0.3333329999999819
        },
        {
          "name": "A#4",
          "midi": 70,
          "time": 388.9996110000097,
          "velocity": 1,
          "duration": 0.08333325000000968
        },
        {
          "name": "G#4",
          "midi": 68,
          "time": 388.9996110000097,
          "velocity": 1,
          "duration": 0.08333325000000968
        },
        {
          "name": "A#4",
          "midi": 70,
          "time": 389.0829442500097,
          "velocity": 1,
          "duration": 0.08333325000000968
        },
        {
          "name": "G#4",
          "midi": 68,
          "time": 389.0829442500097,
          "velocity": 1,
          "duration": 0.08333325000000968
        },
        {
          "name": "G#4",
          "midi": 68,
          "time": 389.1662775000097,
          "velocity": 1,
          "duration": 0.08333325000000968
        },
        {
          "name": "A#4",
          "midi": 70,
          "time": 389.1662775000097,
          "velocity": 1,
          "duration": 0.08333325000000968
        },
        {
          "name": "A#4",
          "midi": 70,
          "time": 389.2496107500097,
          "velocity": 1,
          "duration": 0.08333325000000968
        },
        {
          "name": "G#4",
          "midi": 68,
          "time": 389.2496107500097,
          "velocity": 1,
          "duration": 0.08333325000000968
        },
        {
          "name": "A#4",
          "midi": 70,
          "time": 389.3329440000097,
          "velocity": 1,
          "duration": 0.08333325000000968
        },
        {
          "name": "G#4",
          "midi": 68,
          "time": 389.3329440000097,
          "velocity": 1,
          "duration": 0.08333325000000968
        },
        {
          "name": "A#4",
          "midi": 70,
          "time": 389.4162772500097,
          "velocity": 1,
          "duration": 0.08333325000000968
        },
        {
          "name": "G#4",
          "midi": 68,
          "time": 389.4162772500097,
          "velocity": 1,
          "duration": 0.08333325000000968
        },
        {
          "name": "A#4",
          "midi": 70,
          "time": 389.49961050000974,
          "velocity": 1,
          "duration": 0.08333325000000968
        },
        {
          "name": "G#4",
          "midi": 68,
          "time": 389.49961050000974,
          "velocity": 1,
          "duration": 0.08333325000000968
        },
        {
          "name": "A#4",
          "midi": 70,
          "time": 389.58294375000975,
          "velocity": 1,
          "duration": 0.08333325000000968
        },
        {
          "name": "G#4",
          "midi": 68,
          "time": 389.58294375000975,
          "velocity": 1,
          "duration": 0.08333325000000968
        },
        {
          "name": "A#4",
          "midi": 70,
          "time": 389.66627700000976,
          "velocity": 1,
          "duration": 0.08333325000000968
        },
        {
          "name": "G#4",
          "midi": 68,
          "time": 389.66627700000976,
          "velocity": 1,
          "duration": 0.08333325000000968
        },
        {
          "name": "A#4",
          "midi": 70,
          "time": 389.74961025000977,
          "velocity": 1,
          "duration": 0.08333325000000968
        },
        {
          "name": "G#4",
          "midi": 68,
          "time": 389.74961025000977,
          "velocity": 1,
          "duration": 0.08333325000000968
        },
        {
          "name": "G#4",
          "midi": 68,
          "time": 389.8329435000098,
          "velocity": 1,
          "duration": 0.08333325000000968
        },
        {
          "name": "A#4",
          "midi": 70,
          "time": 389.8329435000098,
          "velocity": 1,
          "duration": 0.08333325000000968
        },
        {
          "name": "A#4",
          "midi": 70,
          "time": 389.9162767500098,
          "velocity": 1,
          "duration": 0.08333325000000968
        },
        {
          "name": "G#4",
          "midi": 68,
          "time": 389.9162767500098,
          "velocity": 1,
          "duration": 0.08333325000000968
        },
        {
          "name": "A#4",
          "midi": 70,
          "time": 389.9996100000098,
          "velocity": 1,
          "duration": 0.08333325000000968
        },
        {
          "name": "G#4",
          "midi": 68,
          "time": 389.9996100000098,
          "velocity": 1,
          "duration": 0.08333325000000968
        },
        {
          "name": "A#4",
          "midi": 70,
          "time": 390.0829432500098,
          "velocity": 1,
          "duration": 0.08333325000000968
        },
        {
          "name": "G#4",
          "midi": 68,
          "time": 390.0829432500098,
          "velocity": 1,
          "duration": 0.08333325000000968
        },
        {
          "name": "A#4",
          "midi": 70,
          "time": 390.1662765000098,
          "velocity": 1,
          "duration": 0.08333325000000968
        },
        {
          "name": "G#4",
          "midi": 68,
          "time": 390.1662765000098,
          "velocity": 1,
          "duration": 0.08333325000000968
        },
        {
          "name": "G#4",
          "midi": 68,
          "time": 390.2496097500098,
          "velocity": 1,
          "duration": 0.08333325000000968
        },
        {
          "name": "A#4",
          "midi": 70,
          "time": 390.2496097500098,
          "velocity": 1,
          "duration": 0.08333325000000968
        },
        {
          "name": "A#4",
          "midi": 70,
          "time": 390.33294300000983,
          "velocity": 1,
          "duration": 0.08333325000000968
        },
        {
          "name": "G#4",
          "midi": 68,
          "time": 390.33294300000983,
          "velocity": 1,
          "duration": 0.08333325000000968
        },
        {
          "name": "A#4",
          "midi": 70,
          "time": 390.41627625000984,
          "velocity": 1,
          "duration": 0.08333325000000968
        },
        {
          "name": "G#4",
          "midi": 68,
          "time": 390.41627625000984,
          "velocity": 1,
          "duration": 0.08333325000000968
        },
        {
          "name": "A#4",
          "midi": 70,
          "time": 390.49960950000985,
          "velocity": 1,
          "duration": 0.08333325000000968
        },
        {
          "name": "G#4",
          "midi": 68,
          "time": 390.49960950000985,
          "velocity": 1,
          "duration": 0.08333325000000968
        },
        {
          "name": "G#4",
          "midi": 68,
          "time": 390.58294275000986,
          "velocity": 1,
          "duration": 0.08333325000000968
        },
        {
          "name": "A#4",
          "midi": 70,
          "time": 390.58294275000986,
          "velocity": 1,
          "duration": 0.08333325000000968
        },
        {
          "name": "A#4",
          "midi": 70,
          "time": 390.6662760000099,
          "velocity": 1,
          "duration": 0.08333325000000968
        },
        {
          "name": "G#4",
          "midi": 68,
          "time": 390.6662760000099,
          "velocity": 1,
          "duration": 0.08333325000000968
        },
        {
          "name": "A#4",
          "midi": 70,
          "time": 390.7496092500099,
          "velocity": 1,
          "duration": 0.08333325000000968
        },
        {
          "name": "G#4",
          "midi": 68,
          "time": 390.7496092500099,
          "velocity": 1,
          "duration": 0.08333325000000968
        },
        {
          "name": "A#4",
          "midi": 70,
          "time": 390.8329425000099,
          "velocity": 1,
          "duration": 0.08333325000000968
        },
        {
          "name": "G#4",
          "midi": 68,
          "time": 390.8329425000099,
          "velocity": 1,
          "duration": 0.08333325000000968
        },
        {
          "name": "A#4",
          "midi": 70,
          "time": 390.9162757500099,
          "velocity": 1,
          "duration": 0.08333325000000968
        },
        {
          "name": "G#4",
          "midi": 68,
          "time": 390.9162757500099,
          "velocity": 1,
          "duration": 0.08333325000000968
        },
        {
          "name": "A#2",
          "midi": 46,
          "time": 391.66627500000993,
          "velocity": 1,
          "duration": 0.3333329999999819
        },
        {
          "name": "A#3",
          "midi": 58,
          "time": 391.66627500000993,
          "velocity": 1,
          "duration": 0.3333329999999819
        },
        {
          "name": "A#3",
          "midi": 58,
          "time": 392.66627400000993,
          "velocity": 1,
          "duration": 0.3333329999999819
        },
        {
          "name": "A#2",
          "midi": 46,
          "time": 392.66627400000993,
          "velocity": 1,
          "duration": 0.3333329999999819
        },
        {
          "name": "B4",
          "midi": 71,
          "time": 392.9996070000099,
          "velocity": 1,
          "duration": 0.08333325000000968
        },
        {
          "name": "G#4",
          "midi": 68,
          "time": 392.9996070000099,
          "velocity": 1,
          "duration": 0.08333325000000968
        },
        {
          "name": "B4",
          "midi": 71,
          "time": 393.0829402500099,
          "velocity": 1,
          "duration": 0.08333325000000968
        },
        {
          "name": "G#4",
          "midi": 68,
          "time": 393.0829402500099,
          "velocity": 1,
          "duration": 0.08333325000000968
        },
        {
          "name": "B4",
          "midi": 71,
          "time": 393.16627350000994,
          "velocity": 1,
          "duration": 0.08333325000000968
        },
        {
          "name": "G#4",
          "midi": 68,
          "time": 393.16627350000994,
          "velocity": 1,
          "duration": 0.08333325000000968
        },
        {
          "name": "B4",
          "midi": 71,
          "time": 393.24960675000995,
          "velocity": 1,
          "duration": 0.08333325000000968
        },
        {
          "name": "G#4",
          "midi": 68,
          "time": 393.24960675000995,
          "velocity": 1,
          "duration": 0.08333325000000968
        },
        {
          "name": "B4",
          "midi": 71,
          "time": 393.33294000000996,
          "velocity": 1,
          "duration": 0.08333325000000968
        },
        {
          "name": "G#4",
          "midi": 68,
          "time": 393.33294000000996,
          "velocity": 1,
          "duration": 0.08333325000000968
        },
        {
          "name": "B4",
          "midi": 71,
          "time": 393.41627325000997,
          "velocity": 1,
          "duration": 0.08333325000000968
        },
        {
          "name": "G#4",
          "midi": 68,
          "time": 393.41627325000997,
          "velocity": 1,
          "duration": 0.08333325000000968
        },
        {
          "name": "G#4",
          "midi": 68,
          "time": 393.49960650001,
          "velocity": 1,
          "duration": 0.08333325000000968
        },
        {
          "name": "B4",
          "midi": 71,
          "time": 393.49960650001,
          "velocity": 1,
          "duration": 0.08333325000000968
        },
        {
          "name": "B4",
          "midi": 71,
          "time": 393.58293975001,
          "velocity": 1,
          "duration": 0.08333325000000968
        },
        {
          "name": "G#4",
          "midi": 68,
          "time": 393.58293975001,
          "velocity": 1,
          "duration": 0.08333325000000968
        },
        {
          "name": "B4",
          "midi": 71,
          "time": 393.66627300001,
          "velocity": 1,
          "duration": 0.08333325000000968
        },
        {
          "name": "G#4",
          "midi": 68,
          "time": 393.66627300001,
          "velocity": 1,
          "duration": 0.08333325000000968
        },
        {
          "name": "B4",
          "midi": 71,
          "time": 393.74960625001,
          "velocity": 1,
          "duration": 0.08333325000000968
        },
        {
          "name": "G#4",
          "midi": 68,
          "time": 393.74960625001,
          "velocity": 1,
          "duration": 0.08333325000000968
        },
        {
          "name": "B4",
          "midi": 71,
          "time": 393.83293950001,
          "velocity": 1,
          "duration": 0.08333325000000968
        },
        {
          "name": "G#4",
          "midi": 68,
          "time": 393.83293950001,
          "velocity": 1,
          "duration": 0.08333325000000968
        },
        {
          "name": "B4",
          "midi": 71,
          "time": 393.91627275001,
          "velocity": 1,
          "duration": 0.08333325000000968
        },
        {
          "name": "G#4",
          "midi": 68,
          "time": 393.91627275001,
          "velocity": 1,
          "duration": 0.08333325000000968
        },
        {
          "name": "B4",
          "midi": 71,
          "time": 393.99960600001003,
          "velocity": 1,
          "duration": 0.08333325000000968
        },
        {
          "name": "G#4",
          "midi": 68,
          "time": 393.99960600001003,
          "velocity": 1,
          "duration": 0.08333325000000968
        },
        {
          "name": "G#4",
          "midi": 68,
          "time": 394.08293925001004,
          "velocity": 1,
          "duration": 0.08333325000000968
        },
        {
          "name": "B4",
          "midi": 71,
          "time": 394.08293925001004,
          "velocity": 1,
          "duration": 0.08333325000000968
        },
        {
          "name": "B4",
          "midi": 71,
          "time": 394.16627250001005,
          "velocity": 1,
          "duration": 0.08333325000000968
        },
        {
          "name": "G#4",
          "midi": 68,
          "time": 394.16627250001005,
          "velocity": 1,
          "duration": 0.08333325000000968
        },
        {
          "name": "B4",
          "midi": 71,
          "time": 394.24960575001006,
          "velocity": 1,
          "duration": 0.08333325000000968
        },
        {
          "name": "G#4",
          "midi": 68,
          "time": 394.24960575001006,
          "velocity": 1,
          "duration": 0.08333325000000968
        },
        {
          "name": "B4",
          "midi": 71,
          "time": 394.3329390000101,
          "velocity": 1,
          "duration": 0.08333325000000968
        },
        {
          "name": "G#4",
          "midi": 68,
          "time": 394.3329390000101,
          "velocity": 1,
          "duration": 0.08333325000000968
        },
        {
          "name": "B4",
          "midi": 71,
          "time": 394.4162722500101,
          "velocity": 1,
          "duration": 0.08333325000000968
        },
        {
          "name": "G#4",
          "midi": 68,
          "time": 394.4162722500101,
          "velocity": 1,
          "duration": 0.08333325000000968
        },
        {
          "name": "G#4",
          "midi": 68,
          "time": 394.4996055000101,
          "velocity": 1,
          "duration": 0.08333325000000968
        },
        {
          "name": "B4",
          "midi": 71,
          "time": 394.4996055000101,
          "velocity": 1,
          "duration": 0.08333325000000968
        },
        {
          "name": "B4",
          "midi": 71,
          "time": 394.5829387500101,
          "velocity": 1,
          "duration": 0.08333325000000968
        },
        {
          "name": "G#4",
          "midi": 68,
          "time": 394.5829387500101,
          "velocity": 1,
          "duration": 0.08333325000000968
        },
        {
          "name": "B4",
          "midi": 71,
          "time": 394.6662720000101,
          "velocity": 1,
          "duration": 0.08333325000000968
        },
        {
          "name": "G#4",
          "midi": 68,
          "time": 394.6662720000101,
          "velocity": 1,
          "duration": 0.08333325000000968
        },
        {
          "name": "B4",
          "midi": 71,
          "time": 394.7496052500101,
          "velocity": 1,
          "duration": 0.08333325000000968
        },
        {
          "name": "G#4",
          "midi": 68,
          "time": 394.7496052500101,
          "velocity": 1,
          "duration": 0.08333325000000968
        },
        {
          "name": "G#4",
          "midi": 68,
          "time": 394.83293850001013,
          "velocity": 1,
          "duration": 0.08333325000000968
        },
        {
          "name": "B4",
          "midi": 71,
          "time": 394.83293850001013,
          "velocity": 1,
          "duration": 0.08333325000000968
        },
        {
          "name": "B4",
          "midi": 71,
          "time": 394.91627175001014,
          "velocity": 1,
          "duration": 0.08333325000000968
        },
        {
          "name": "G#4",
          "midi": 68,
          "time": 394.91627175001014,
          "velocity": 1,
          "duration": 0.08333325000000968
        },
        {
          "name": "A#4",
          "midi": 70,
          "time": 394.99960500001015,
          "velocity": 1,
          "duration": 0.08333325000000968
        },
        {
          "name": "G#4",
          "midi": 68,
          "time": 394.99960500001015,
          "velocity": 1,
          "duration": 0.08333325000000968
        },
        {
          "name": "A#4",
          "midi": 70,
          "time": 395.08293825001016,
          "velocity": 1,
          "duration": 0.08333325000000968
        },
        {
          "name": "G#4",
          "midi": 68,
          "time": 395.08293825001016,
          "velocity": 1,
          "duration": 0.08333325000000968
        },
        {
          "name": "A#4",
          "midi": 70,
          "time": 395.16627150001017,
          "velocity": 1,
          "duration": 0.08333325000000968
        },
        {
          "name": "G#4",
          "midi": 68,
          "time": 395.16627150001017,
          "velocity": 1,
          "duration": 0.08333325000000968
        },
        {
          "name": "A#4",
          "midi": 70,
          "time": 395.2496047500102,
          "velocity": 1,
          "duration": 0.08333325000000968
        },
        {
          "name": "G#4",
          "midi": 68,
          "time": 395.2496047500102,
          "velocity": 1,
          "duration": 0.08333325000000968
        },
        {
          "name": "A#4",
          "midi": 70,
          "time": 395.3329380000102,
          "velocity": 1,
          "duration": 0.08333325000000968
        },
        {
          "name": "G#4",
          "midi": 68,
          "time": 395.3329380000102,
          "velocity": 1,
          "duration": 0.08333325000000968
        },
        {
          "name": "A#4",
          "midi": 70,
          "time": 395.4162712500102,
          "velocity": 1,
          "duration": 0.08333325000000968
        },
        {
          "name": "G#4",
          "midi": 68,
          "time": 395.4162712500102,
          "velocity": 1,
          "duration": 0.08333325000000968
        },
        {
          "name": "G#4",
          "midi": 68,
          "time": 395.4996045000102,
          "velocity": 1,
          "duration": 0.08333325000000968
        },
        {
          "name": "A#4",
          "midi": 70,
          "time": 395.4996045000102,
          "velocity": 1,
          "duration": 0.08333325000000968
        },
        {
          "name": "A#4",
          "midi": 70,
          "time": 395.5829377500102,
          "velocity": 1,
          "duration": 0.08333325000000968
        },
        {
          "name": "G#4",
          "midi": 68,
          "time": 395.5829377500102,
          "velocity": 1,
          "duration": 0.08333325000000968
        },
        {
          "name": "A#4",
          "midi": 70,
          "time": 395.6662710000102,
          "velocity": 1,
          "duration": 0.08333325000000968
        },
        {
          "name": "G#4",
          "midi": 68,
          "time": 395.6662710000102,
          "velocity": 1,
          "duration": 0.08333325000000968
        },
        {
          "name": "A#4",
          "midi": 70,
          "time": 395.74960425001024,
          "velocity": 1,
          "duration": 0.08333325000000968
        },
        {
          "name": "G#4",
          "midi": 68,
          "time": 395.74960425001024,
          "velocity": 1,
          "duration": 0.08333325000000968
        },
        {
          "name": "A#4",
          "midi": 70,
          "time": 395.83293750001025,
          "velocity": 1,
          "duration": 0.08333325000000968
        },
        {
          "name": "G#4",
          "midi": 68,
          "time": 395.83293750001025,
          "velocity": 1,
          "duration": 0.08333325000000968
        },
        {
          "name": "A#4",
          "midi": 70,
          "time": 395.91627075001026,
          "velocity": 1,
          "duration": 0.08333325000000968
        },
        {
          "name": "G#4",
          "midi": 68,
          "time": 395.91627075001026,
          "velocity": 1,
          "duration": 0.08333325000000968
        },
        {
          "name": "A#4",
          "midi": 70,
          "time": 395.99960400001027,
          "velocity": 1,
          "duration": 0.08333325000000968
        },
        {
          "name": "G#4",
          "midi": 68,
          "time": 395.99960400001027,
          "velocity": 1,
          "duration": 0.08333325000000968
        },
        {
          "name": "A#4",
          "midi": 70,
          "time": 396.0829372500103,
          "velocity": 1,
          "duration": 0.08333325000000968
        },
        {
          "name": "G#4",
          "midi": 68,
          "time": 396.0829372500103,
          "velocity": 1,
          "duration": 0.08333325000000968
        },
        {
          "name": "G#4",
          "midi": 68,
          "time": 396.1662705000103,
          "velocity": 1,
          "duration": 0.08333325000000968
        },
        {
          "name": "A#4",
          "midi": 70,
          "time": 396.1662705000103,
          "velocity": 1,
          "duration": 0.08333325000000968
        },
        {
          "name": "A#4",
          "midi": 70,
          "time": 396.2496037500103,
          "velocity": 1,
          "duration": 0.08333325000000968
        },
        {
          "name": "G#4",
          "midi": 68,
          "time": 396.2496037500103,
          "velocity": 1,
          "duration": 0.08333325000000968
        },
        {
          "name": "A#4",
          "midi": 70,
          "time": 396.3329370000103,
          "velocity": 1,
          "duration": 0.08333325000000968
        },
        {
          "name": "G#4",
          "midi": 68,
          "time": 396.3329370000103,
          "velocity": 1,
          "duration": 0.08333325000000968
        },
        {
          "name": "A#4",
          "midi": 70,
          "time": 396.4162702500103,
          "velocity": 1,
          "duration": 0.08333325000000968
        },
        {
          "name": "G#4",
          "midi": 68,
          "time": 396.4162702500103,
          "velocity": 1,
          "duration": 0.08333325000000968
        },
        {
          "name": "A#4",
          "midi": 70,
          "time": 396.4996035000103,
          "velocity": 1,
          "duration": 0.08333325000000968
        },
        {
          "name": "G#4",
          "midi": 68,
          "time": 396.4996035000103,
          "velocity": 1,
          "duration": 0.08333325000000968
        },
        {
          "name": "A#4",
          "midi": 70,
          "time": 396.58293675001033,
          "velocity": 1,
          "duration": 0.08333325000000968
        },
        {
          "name": "G#4",
          "midi": 68,
          "time": 396.58293675001033,
          "velocity": 1,
          "duration": 0.08333325000000968
        },
        {
          "name": "A#4",
          "midi": 70,
          "time": 396.66627000001034,
          "velocity": 1,
          "duration": 0.08333325000000968
        },
        {
          "name": "G#4",
          "midi": 68,
          "time": 396.66627000001034,
          "velocity": 1,
          "duration": 0.08333325000000968
        },
        {
          "name": "A#4",
          "midi": 70,
          "time": 396.74960325001035,
          "velocity": 1,
          "duration": 0.08333325000000968
        },
        {
          "name": "G#4",
          "midi": 68,
          "time": 396.74960325001035,
          "velocity": 1,
          "duration": 0.08333325000000968
        },
        {
          "name": "G#4",
          "midi": 68,
          "time": 396.83293650001036,
          "velocity": 1,
          "duration": 0.08333325000000968
        },
        {
          "name": "A#4",
          "midi": 70,
          "time": 396.83293650001036,
          "velocity": 1,
          "duration": 0.08333325000000968
        },
        {
          "name": "A#4",
          "midi": 70,
          "time": 396.9162697500104,
          "velocity": 1,
          "duration": 0.08333325000000968
        },
        {
          "name": "G#4",
          "midi": 68,
          "time": 396.9162697500104,
          "velocity": 1,
          "duration": 0.08333325000000968
        },
        {
          "name": "A#4",
          "midi": 70,
          "time": 396.9996030000104,
          "velocity": 1,
          "duration": 0.08333325000000968
        },
        {
          "name": "G#4",
          "midi": 68,
          "time": 396.9996030000104,
          "velocity": 1,
          "duration": 0.08333325000000968
        },
        {
          "name": "A#4",
          "midi": 70,
          "time": 397.0829362500104,
          "velocity": 1,
          "duration": 0.08333325000000968
        },
        {
          "name": "G#4",
          "midi": 68,
          "time": 397.0829362500104,
          "velocity": 1,
          "duration": 0.08333325000000968
        },
        {
          "name": "A#4",
          "midi": 70,
          "time": 397.1662695000104,
          "velocity": 1,
          "duration": 0.08333325000000968
        },
        {
          "name": "G#4",
          "midi": 68,
          "time": 397.1662695000104,
          "velocity": 1,
          "duration": 0.08333325000000968
        },
        {
          "name": "A#4",
          "midi": 70,
          "time": 397.2496027500104,
          "velocity": 1,
          "duration": 0.08333325000000968
        },
        {
          "name": "G#4",
          "midi": 68,
          "time": 397.2496027500104,
          "velocity": 1,
          "duration": 0.08333325000000968
        },
        {
          "name": "A#4",
          "midi": 70,
          "time": 397.3329360000104,
          "velocity": 1,
          "duration": 0.08333325000000968
        },
        {
          "name": "G#4",
          "midi": 68,
          "time": 397.3329360000104,
          "velocity": 1,
          "duration": 0.08333325000000968
        },
        {
          "name": "A#4",
          "midi": 70,
          "time": 397.41626925001043,
          "velocity": 1,
          "duration": 0.08333325000000968
        },
        {
          "name": "G#4",
          "midi": 68,
          "time": 397.41626925001043,
          "velocity": 1,
          "duration": 0.08333325000000968
        },
        {
          "name": "G#4",
          "midi": 68,
          "time": 397.49960250001044,
          "velocity": 1,
          "duration": 0.08333325000000968
        },
        {
          "name": "A#4",
          "midi": 70,
          "time": 397.49960250001044,
          "velocity": 1,
          "duration": 0.08333325000000968
        },
        {
          "name": "A#4",
          "midi": 70,
          "time": 397.58293575001045,
          "velocity": 1,
          "duration": 0.08333325000000968
        },
        {
          "name": "G#4",
          "midi": 68,
          "time": 397.58293575001045,
          "velocity": 1,
          "duration": 0.08333325000000968
        },
        {
          "name": "A#4",
          "midi": 70,
          "time": 397.66626900001046,
          "velocity": 1,
          "duration": 0.08333325000000968
        },
        {
          "name": "G#4",
          "midi": 68,
          "time": 397.66626900001046,
          "velocity": 1,
          "duration": 0.08333325000000968
        },
        {
          "name": "A#4",
          "midi": 70,
          "time": 397.74960225001047,
          "velocity": 1,
          "duration": 0.08333325000000968
        },
        {
          "name": "G#4",
          "midi": 68,
          "time": 397.74960225001047,
          "velocity": 1,
          "duration": 0.08333325000000968
        },
        {
          "name": "A#4",
          "midi": 70,
          "time": 397.8329355000105,
          "velocity": 1,
          "duration": 0.08333325000000968
        },
        {
          "name": "G#4",
          "midi": 68,
          "time": 397.8329355000105,
          "velocity": 1,
          "duration": 0.08333325000000968
        },
        {
          "name": "A#4",
          "midi": 70,
          "time": 397.9162687500105,
          "velocity": 1,
          "duration": 0.08333325000000968
        },
        {
          "name": "G#4",
          "midi": 68,
          "time": 397.9162687500105,
          "velocity": 1,
          "duration": 0.08333325000000968
        },
        {
          "name": "A#4",
          "midi": 70,
          "time": 397.9996020000105,
          "velocity": 1,
          "duration": 0.08333325000000968
        },
        {
          "name": "G#4",
          "midi": 68,
          "time": 397.9996020000105,
          "velocity": 1,
          "duration": 0.08333325000000968
        },
        {
          "name": "A#4",
          "midi": 70,
          "time": 398.0829352500105,
          "velocity": 1,
          "duration": 0.08333325000000968
        },
        {
          "name": "G#4",
          "midi": 68,
          "time": 398.0829352500105,
          "velocity": 1,
          "duration": 0.08333325000000968
        },
        {
          "name": "G#4",
          "midi": 68,
          "time": 398.1662685000105,
          "velocity": 1,
          "duration": 0.08333325000000968
        },
        {
          "name": "A#4",
          "midi": 70,
          "time": 398.1662685000105,
          "velocity": 1,
          "duration": 0.08333325000000968
        },
        {
          "name": "A#4",
          "midi": 70,
          "time": 398.2496017500105,
          "velocity": 1,
          "duration": 0.08333325000000968
        },
        {
          "name": "G#4",
          "midi": 68,
          "time": 398.2496017500105,
          "velocity": 1,
          "duration": 0.08333325000000968
        },
        {
          "name": "A#4",
          "midi": 70,
          "time": 398.33293500001054,
          "velocity": 1,
          "duration": 0.08333325000000968
        },
        {
          "name": "G#4",
          "midi": 68,
          "time": 398.33293500001054,
          "velocity": 1,
          "duration": 0.08333325000000968
        },
        {
          "name": "A#4",
          "midi": 70,
          "time": 398.41626825001055,
          "velocity": 1,
          "duration": 0.08333325000000968
        },
        {
          "name": "G#4",
          "midi": 68,
          "time": 398.41626825001055,
          "velocity": 1,
          "duration": 0.08333325000000968
        },
        {
          "name": "A#4",
          "midi": 70,
          "time": 398.49960150001056,
          "velocity": 1,
          "duration": 0.08333325000000968
        },
        {
          "name": "G#4",
          "midi": 68,
          "time": 398.49960150001056,
          "velocity": 1,
          "duration": 0.08333325000000968
        },
        {
          "name": "A#4",
          "midi": 70,
          "time": 398.58293475001057,
          "velocity": 1,
          "duration": 0.08333325000000968
        },
        {
          "name": "G#4",
          "midi": 68,
          "time": 398.58293475001057,
          "velocity": 1,
          "duration": 0.08333325000000968
        },
        {
          "name": "A#4",
          "midi": 70,
          "time": 398.6662680000106,
          "velocity": 1,
          "duration": 0.08333325000000968
        },
        {
          "name": "G#4",
          "midi": 68,
          "time": 398.6662680000106,
          "velocity": 1,
          "duration": 0.08333325000000968
        },
        {
          "name": "A#4",
          "midi": 70,
          "time": 398.7496012500106,
          "velocity": 1,
          "duration": 0.08333325000000968
        },
        {
          "name": "G#4",
          "midi": 68,
          "time": 398.7496012500106,
          "velocity": 1,
          "duration": 0.08333325000000968
        },
        {
          "name": "G#4",
          "midi": 68,
          "time": 398.8329345000106,
          "velocity": 1,
          "duration": 0.08333325000000968
        },
        {
          "name": "A#4",
          "midi": 70,
          "time": 398.8329345000106,
          "velocity": 1,
          "duration": 0.08333325000000968
        },
        {
          "name": "A#4",
          "midi": 70,
          "time": 398.9162677500106,
          "velocity": 1,
          "duration": 0.08333325000000968
        },
        {
          "name": "G#4",
          "midi": 68,
          "time": 398.9162677500106,
          "velocity": 1,
          "duration": 0.08333325000000968
        },
        {
          "name": "A#2",
          "midi": 46,
          "time": 398.9996010000106,
          "velocity": 1,
          "duration": 0.16666650000001937
        },
        {
          "name": "D5",
          "midi": 74,
          "time": 398.9996010000106,
          "velocity": 1,
          "duration": 0.08333325000000968
        },
        {
          "name": "G#4",
          "midi": 68,
          "time": 398.9996010000106,
          "velocity": 1,
          "duration": 0.08333325000000968
        },
        {
          "name": "A#3",
          "midi": 58,
          "time": 398.9996010000106,
          "velocity": 1,
          "duration": 0.08333325000000968
        },
        {
          "name": "F4",
          "midi": 65,
          "time": 399.0829342500106,
          "velocity": 1,
          "duration": 0.08333325000000968
        },
        {
          "name": "G#4",
          "midi": 68,
          "time": 399.0829342500106,
          "velocity": 1,
          "duration": 0.08333325000000968
        },
        {
          "name": "D5",
          "midi": 74,
          "time": 399.0829342500106,
          "velocity": 1,
          "duration": 0.08333325000000968
        },
        {
          "name": "A#3",
          "midi": 58,
          "time": 399.16626750001063,
          "velocity": 1,
          "duration": 0.16666650000001937
        },
        {
          "name": "D5",
          "midi": 74,
          "time": 399.16626750001063,
          "velocity": 1,
          "duration": 0.08333325000000968
        },
        {
          "name": "G#4",
          "midi": 68,
          "time": 399.16626750001063,
          "velocity": 1,
          "duration": 0.08333325000000968
        },
        {
          "name": "F4",
          "midi": 65,
          "time": 399.16626750001063,
          "velocity": 1,
          "duration": 0.08333325000000968
        },
        {
          "name": "F4",
          "midi": 65,
          "time": 399.24960075001064,
          "velocity": 1,
          "duration": 0.08333325000000968
        },
        {
          "name": "G#4",
          "midi": 68,
          "time": 399.24960075001064,
          "velocity": 1,
          "duration": 0.08333325000000968
        },
        {
          "name": "D5",
          "midi": 74,
          "time": 399.24960075001064,
          "velocity": 1,
          "duration": 0.08333325000000968
        },
        {
          "name": "A#3",
          "midi": 58,
          "time": 399.33293400001065,
          "velocity": 1,
          "duration": 0.16666650000001937
        },
        {
          "name": "D5",
          "midi": 74,
          "time": 399.33293400001065,
          "velocity": 1,
          "duration": 0.08333325000000968
        },
        {
          "name": "G#4",
          "midi": 68,
          "time": 399.33293400001065,
          "velocity": 1,
          "duration": 0.08333325000000968
        },
        {
          "name": "F4",
          "midi": 65,
          "time": 399.33293400001065,
          "velocity": 1,
          "duration": 0.08333325000000968
        },
        {
          "name": "D5",
          "midi": 74,
          "time": 399.41626725001066,
          "velocity": 1,
          "duration": 0.08333325000000968
        },
        {
          "name": "G#4",
          "midi": 68,
          "time": 399.41626725001066,
          "velocity": 1,
          "duration": 0.08333325000000968
        },
        {
          "name": "F4",
          "midi": 65,
          "time": 399.41626725001066,
          "velocity": 1,
          "duration": 0.08333325000000968
        },
        {
          "name": "A#3",
          "midi": 58,
          "time": 399.4996005000107,
          "velocity": 1,
          "duration": 0.16666650000001937
        },
        {
          "name": "D5",
          "midi": 74,
          "time": 399.4996005000107,
          "velocity": 1,
          "duration": 0.08333325000000968
        },
        {
          "name": "G#4",
          "midi": 68,
          "time": 399.4996005000107,
          "velocity": 1,
          "duration": 0.08333325000000968
        },
        {
          "name": "F4",
          "midi": 65,
          "time": 399.4996005000107,
          "velocity": 1,
          "duration": 0.08333325000000968
        },
        {
          "name": "F4",
          "midi": 65,
          "time": 399.5829337500107,
          "velocity": 1,
          "duration": 0.08333325000000968
        },
        {
          "name": "G#4",
          "midi": 68,
          "time": 399.5829337500107,
          "velocity": 1,
          "duration": 0.08333325000000968
        },
        {
          "name": "D5",
          "midi": 74,
          "time": 399.5829337500107,
          "velocity": 1,
          "duration": 0.08333325000000968
        },
        {
          "name": "A#3",
          "midi": 58,
          "time": 399.6662670000107,
          "velocity": 1,
          "duration": 0.16666650000001937
        },
        {
          "name": "D5",
          "midi": 74,
          "time": 399.6662670000107,
          "velocity": 1,
          "duration": 0.08333325000000968
        },
        {
          "name": "G#4",
          "midi": 68,
          "time": 399.6662670000107,
          "velocity": 1,
          "duration": 0.08333325000000968
        },
        {
          "name": "F4",
          "midi": 65,
          "time": 399.6662670000107,
          "velocity": 1,
          "duration": 0.08333325000000968
        },
        {
          "name": "D5",
          "midi": 74,
          "time": 399.7496002500107,
          "velocity": 1,
          "duration": 0.08333325000000968
        },
        {
          "name": "G#4",
          "midi": 68,
          "time": 399.7496002500107,
          "velocity": 1,
          "duration": 0.08333325000000968
        },
        {
          "name": "F4",
          "midi": 65,
          "time": 399.7496002500107,
          "velocity": 1,
          "duration": 0.08333325000000968
        },
        {
          "name": "A#3",
          "midi": 58,
          "time": 399.8329335000107,
          "velocity": 1,
          "duration": 0.16666650000001937
        },
        {
          "name": "D5",
          "midi": 74,
          "time": 399.8329335000107,
          "velocity": 1,
          "duration": 0.08333325000000968
        },
        {
          "name": "G#4",
          "midi": 68,
          "time": 399.8329335000107,
          "velocity": 1,
          "duration": 0.08333325000000968
        },
        {
          "name": "F4",
          "midi": 65,
          "time": 399.8329335000107,
          "velocity": 1,
          "duration": 0.08333325000000968
        },
        {
          "name": "F4",
          "midi": 65,
          "time": 399.9162667500107,
          "velocity": 1,
          "duration": 0.08333325000000968
        },
        {
          "name": "G#4",
          "midi": 68,
          "time": 399.9162667500107,
          "velocity": 1,
          "duration": 0.08333325000000968
        },
        {
          "name": "D5",
          "midi": 74,
          "time": 399.9162667500107,
          "velocity": 1,
          "duration": 0.08333325000000968
        },
        {
          "name": "A#4",
          "midi": 70,
          "time": 399.99960000001073,
          "velocity": 1,
          "duration": 0.08333325000000968
        },
        {
          "name": "F4",
          "midi": 65,
          "time": 399.99960000001073,
          "velocity": 1,
          "duration": 0.08333325000000968
        },
        {
          "name": "D5",
          "midi": 74,
          "time": 399.99960000001073,
          "velocity": 1,
          "duration": 0.08333325000000968
        },
        {
          "name": "G#5",
          "midi": 80,
          "time": 399.99960000001073,
          "velocity": 1,
          "duration": 0.08333325000000968
        },
        {
          "name": "A#3",
          "midi": 58,
          "time": 399.99960000001073,
          "velocity": 1,
          "duration": 0.16666650000001937
        },
        {
          "name": "G#5",
          "midi": 80,
          "time": 400.08293325001074,
          "velocity": 1,
          "duration": 0.08333325000000968
        },
        {
          "name": "A#4",
          "midi": 70,
          "time": 400.08293325001074,
          "velocity": 1,
          "duration": 0.08333325000000968
        },
        {
          "name": "D5",
          "midi": 74,
          "time": 400.08293325001074,
          "velocity": 1,
          "duration": 0.08333325000000968
        },
        {
          "name": "F4",
          "midi": 65,
          "time": 400.08293325001074,
          "velocity": 1,
          "duration": 0.08333325000000968
        },
        {
          "name": "A#4",
          "midi": 70,
          "time": 400.16626650001075,
          "velocity": 1,
          "duration": 0.08333325000000968
        },
        {
          "name": "F4",
          "midi": 65,
          "time": 400.16626650001075,
          "velocity": 1,
          "duration": 0.08333325000000968
        },
        {
          "name": "D5",
          "midi": 74,
          "time": 400.16626650001075,
          "velocity": 1,
          "duration": 0.08333325000000968
        },
        {
          "name": "G#5",
          "midi": 80,
          "time": 400.16626650001075,
          "velocity": 1,
          "duration": 0.08333325000000968
        },
        {
          "name": "A#3",
          "midi": 58,
          "time": 400.16626650001075,
          "velocity": 1,
          "duration": 0.16666650000001937
        },
        {
          "name": "G#5",
          "midi": 80,
          "time": 400.24959975001076,
          "velocity": 1,
          "duration": 0.08333325000000968
        },
        {
          "name": "A#4",
          "midi": 70,
          "time": 400.24959975001076,
          "velocity": 1,
          "duration": 0.08333325000000968
        },
        {
          "name": "D5",
          "midi": 74,
          "time": 400.24959975001076,
          "velocity": 1,
          "duration": 0.08333325000000968
        },
        {
          "name": "F4",
          "midi": 65,
          "time": 400.24959975001076,
          "velocity": 1,
          "duration": 0.08333325000000968
        },
        {
          "name": "A#4",
          "midi": 70,
          "time": 400.33293300001077,
          "velocity": 1,
          "duration": 0.08333325000000968
        },
        {
          "name": "F4",
          "midi": 65,
          "time": 400.33293300001077,
          "velocity": 1,
          "duration": 0.08333325000000968
        },
        {
          "name": "D5",
          "midi": 74,
          "time": 400.33293300001077,
          "velocity": 1,
          "duration": 0.08333325000000968
        },
        {
          "name": "G#5",
          "midi": 80,
          "time": 400.33293300001077,
          "velocity": 1,
          "duration": 0.08333325000000968
        },
        {
          "name": "A#3",
          "midi": 58,
          "time": 400.33293300001077,
          "velocity": 1,
          "duration": 0.16666650000001937
        },
        {
          "name": "A#4",
          "midi": 70,
          "time": 400.4162662500108,
          "velocity": 1,
          "duration": 0.08333325000000968
        },
        {
          "name": "F4",
          "midi": 65,
          "time": 400.4162662500108,
          "velocity": 1,
          "duration": 0.08333325000000968
        },
        {
          "name": "D5",
          "midi": 74,
          "time": 400.4162662500108,
          "velocity": 1,
          "duration": 0.08333325000000968
        },
        {
          "name": "G#5",
          "midi": 80,
          "time": 400.4162662500108,
          "velocity": 1,
          "duration": 0.08333325000000968
        },
        {
          "name": "A#4",
          "midi": 70,
          "time": 400.4995995000108,
          "velocity": 1,
          "duration": 0.08333325000000968
        },
        {
          "name": "F4",
          "midi": 65,
          "time": 400.4995995000108,
          "velocity": 1,
          "duration": 0.08333325000000968
        },
        {
          "name": "D5",
          "midi": 74,
          "time": 400.4995995000108,
          "velocity": 1,
          "duration": 0.08333325000000968
        },
        {
          "name": "G#5",
          "midi": 80,
          "time": 400.4995995000108,
          "velocity": 1,
          "duration": 0.08333325000000968
        },
        {
          "name": "A#3",
          "midi": 58,
          "time": 400.4995995000108,
          "velocity": 1,
          "duration": 0.16666650000001937
        },
        {
          "name": "G#5",
          "midi": 80,
          "time": 400.5829327500108,
          "velocity": 1,
          "duration": 0.08333325000000968
        },
        {
          "name": "A#4",
          "midi": 70,
          "time": 400.5829327500108,
          "velocity": 1,
          "duration": 0.08333325000000968
        },
        {
          "name": "D5",
          "midi": 74,
          "time": 400.5829327500108,
          "velocity": 1,
          "duration": 0.08333325000000968
        },
        {
          "name": "F4",
          "midi": 65,
          "time": 400.5829327500108,
          "velocity": 1,
          "duration": 0.08333325000000968
        },
        {
          "name": "A#4",
          "midi": 70,
          "time": 400.6662660000108,
          "velocity": 1,
          "duration": 0.08333325000000968
        },
        {
          "name": "F4",
          "midi": 65,
          "time": 400.6662660000108,
          "velocity": 1,
          "duration": 0.08333325000000968
        },
        {
          "name": "D5",
          "midi": 74,
          "time": 400.6662660000108,
          "velocity": 1,
          "duration": 0.08333325000000968
        },
        {
          "name": "G#5",
          "midi": 80,
          "time": 400.6662660000108,
          "velocity": 1,
          "duration": 0.08333325000000968
        },
        {
          "name": "A#3",
          "midi": 58,
          "time": 400.6662660000108,
          "velocity": 1,
          "duration": 0.16666650000001937
        },
        {
          "name": "G#5",
          "midi": 80,
          "time": 400.7495992500108,
          "velocity": 1,
          "duration": 0.08333325000000968
        },
        {
          "name": "A#4",
          "midi": 70,
          "time": 400.7495992500108,
          "velocity": 1,
          "duration": 0.08333325000000968
        },
        {
          "name": "D5",
          "midi": 74,
          "time": 400.7495992500108,
          "velocity": 1,
          "duration": 0.08333325000000968
        },
        {
          "name": "F4",
          "midi": 65,
          "time": 400.7495992500108,
          "velocity": 1,
          "duration": 0.08333325000000968
        },
        {
          "name": "A#4",
          "midi": 70,
          "time": 400.8329325000108,
          "velocity": 1,
          "duration": 0.08333325000000968
        },
        {
          "name": "F4",
          "midi": 65,
          "time": 400.8329325000108,
          "velocity": 1,
          "duration": 0.08333325000000968
        },
        {
          "name": "D5",
          "midi": 74,
          "time": 400.8329325000108,
          "velocity": 1,
          "duration": 0.08333325000000968
        },
        {
          "name": "G#5",
          "midi": 80,
          "time": 400.8329325000108,
          "velocity": 1,
          "duration": 0.08333325000000968
        },
        {
          "name": "A#3",
          "midi": 58,
          "time": 400.8329325000108,
          "velocity": 1,
          "duration": 0.16666650000001937
        },
        {
          "name": "G#5",
          "midi": 80,
          "time": 400.91626575001084,
          "velocity": 1,
          "duration": 0.08333325000000968
        },
        {
          "name": "A#4",
          "midi": 70,
          "time": 400.91626575001084,
          "velocity": 1,
          "duration": 0.08333325000000968
        },
        {
          "name": "D5",
          "midi": 74,
          "time": 400.91626575001084,
          "velocity": 1,
          "duration": 0.08333325000000968
        },
        {
          "name": "F4",
          "midi": 65,
          "time": 400.91626575001084,
          "velocity": 1,
          "duration": 0.08333325000000968
        },
        {
          "name": "D#4",
          "midi": 63,
          "time": 400.99959900001085,
          "velocity": 1,
          "duration": 0.33333300000003874
        },
        {
          "name": "G4",
          "midi": 67,
          "time": 400.99959900001085,
          "velocity": 1,
          "duration": 0.16666650000001937
        },
        {
          "name": "D#5",
          "midi": 75,
          "time": 400.99959900001085,
          "velocity": 1,
          "duration": 0.16666650000001937
        },
        {
          "name": "G3",
          "midi": 55,
          "time": 400.99959900001085,
          "velocity": 1,
          "duration": 0.33333300000003874
        },
        {
          "name": "A#4",
          "midi": 70,
          "time": 400.99959900001085,
          "velocity": 1,
          "duration": 0.33333300000003874
        },
        {
          "name": "G5",
          "midi": 79,
          "time": 400.99959900001085,
          "velocity": 1,
          "duration": 0.33333300000003874
        },
        {
          "name": "D#3",
          "midi": 51,
          "time": 400.99959900001085,
          "velocity": 1,
          "duration": 0.6666660000000775
        },
        {
          "name": "G4",
          "midi": 67,
          "time": 401.16626550001087,
          "velocity": 1,
          "duration": 0.16666650000001937
        },
        {
          "name": "A#3",
          "midi": 58,
          "time": 401.16626550001087,
          "velocity": 1,
          "duration": 0.16666650000001937
        },
        {
          "name": "G4",
          "midi": 67,
          "time": 401.3329320000109,
          "velocity": 1,
          "duration": 0.16666650000001937
        },
        {
          "name": "A#3",
          "midi": 58,
          "time": 401.3329320000109,
          "velocity": 1,
          "duration": 0.16666650000001937
        },
        {
          "name": "A#3",
          "midi": 58,
          "time": 401.4995985000109,
          "velocity": 1,
          "duration": 0.16666650000001937
        },
        {
          "name": "G4",
          "midi": 67,
          "time": 401.4995985000109,
          "velocity": 1,
          "duration": 0.16666650000001937
        },
        {
          "name": "G3",
          "midi": 55,
          "time": 401.6662650000109,
          "velocity": 1,
          "duration": 0.33333300000003874
        },
        {
          "name": "G4",
          "midi": 67,
          "time": 401.6662650000109,
          "velocity": 1,
          "duration": 0.16666650000001937
        },
        {
          "name": "A#3",
          "midi": 58,
          "time": 401.6662650000109,
          "velocity": 1,
          "duration": 0.16666650000001937
        },
        {
          "name": "G4",
          "midi": 67,
          "time": 401.83293150001094,
          "velocity": 1,
          "duration": 0.16666650000001937
        },
        {
          "name": "A#3",
          "midi": 58,
          "time": 401.83293150001094,
          "velocity": 1,
          "duration": 0.16666650000001937
        },
        {
          "name": "D#3",
          "midi": 51,
          "time": 401.99959800001096,
          "velocity": 1,
          "duration": 0.6666660000000775
        },
        {
          "name": "G4",
          "midi": 67,
          "time": 401.99959800001096,
          "velocity": 1,
          "duration": 0.16666650000001937
        },
        {
          "name": "A#3",
          "midi": 58,
          "time": 401.99959800001096,
          "velocity": 1,
          "duration": 0.16666650000001937
        },
        {
          "name": "A#3",
          "midi": 58,
          "time": 402.166264500011,
          "velocity": 1,
          "duration": 0.16666650000001937
        },
        {
          "name": "G4",
          "midi": 67,
          "time": 402.166264500011,
          "velocity": 1,
          "duration": 0.16666650000001937
        },
        {
          "name": "G4",
          "midi": 67,
          "time": 402.332931000011,
          "velocity": 1,
          "duration": 0.16666650000001937
        },
        {
          "name": "A#3",
          "midi": 58,
          "time": 402.332931000011,
          "velocity": 1,
          "duration": 0.16666650000001937
        },
        {
          "name": "G4",
          "midi": 67,
          "time": 402.499597500011,
          "velocity": 1,
          "duration": 0.16666650000001937
        },
        {
          "name": "A#3",
          "midi": 58,
          "time": 402.499597500011,
          "velocity": 1,
          "duration": 0.16666650000001937
        },
        {
          "name": "A#2",
          "midi": 46,
          "time": 402.66626400001104,
          "velocity": 1,
          "duration": 0.33333300000003874
        },
        {
          "name": "G4",
          "midi": 67,
          "time": 402.66626400001104,
          "velocity": 1,
          "duration": 0.16666650000001937
        },
        {
          "name": "A#3",
          "midi": 58,
          "time": 402.66626400001104,
          "velocity": 1,
          "duration": 0.16666650000001937
        },
        {
          "name": "G4",
          "midi": 67,
          "time": 402.83293050001106,
          "velocity": 1,
          "duration": 0.16666650000001937
        },
        {
          "name": "A#3",
          "midi": 58,
          "time": 402.83293050001106,
          "velocity": 1,
          "duration": 0.16666650000001937
        },
        {
          "name": "D#3",
          "midi": 51,
          "time": 402.9995970000111,
          "velocity": 1,
          "duration": 0.33333300000003874
        },
        {
          "name": "G4",
          "midi": 67,
          "time": 402.9995970000111,
          "velocity": 1,
          "duration": 0.16666650000001937
        },
        {
          "name": "A#3",
          "midi": 58,
          "time": 402.9995970000111,
          "velocity": 1,
          "duration": 0.16666650000001937
        },
        {
          "name": "G4",
          "midi": 67,
          "time": 403.1662635000111,
          "velocity": 1,
          "duration": 0.16666650000001937
        },
        {
          "name": "A#3",
          "midi": 58,
          "time": 403.1662635000111,
          "velocity": 1,
          "duration": 0.16666650000001937
        },
        {
          "name": "A#3",
          "midi": 58,
          "time": 403.3329300000111,
          "velocity": 1,
          "duration": 0.16666650000001937
        },
        {
          "name": "G4",
          "midi": 67,
          "time": 403.3329300000111,
          "velocity": 1,
          "duration": 0.16666650000001937
        },
        {
          "name": "G3",
          "midi": 55,
          "time": 403.3329300000111,
          "velocity": 1,
          "duration": 0.33333300000003874
        },
        {
          "name": "G4",
          "midi": 67,
          "time": 403.49959650001114,
          "velocity": 1,
          "duration": 0.16666650000001937
        },
        {
          "name": "A#3",
          "midi": 58,
          "time": 403.49959650001114,
          "velocity": 1,
          "duration": 0.16666650000001937
        },
        {
          "name": "A#3",
          "midi": 58,
          "time": 403.66626300001116,
          "velocity": 1,
          "duration": 0.33333300000003874
        },
        {
          "name": "G4",
          "midi": 67,
          "time": 403.66626300001116,
          "velocity": 1,
          "duration": 0.16666650000001937
        },
        {
          "name": "G4",
          "midi": 67,
          "time": 403.8329295000112,
          "velocity": 1,
          "duration": 0.16666650000001937
        },
        {
          "name": "D#3",
          "midi": 51,
          "time": 403.9995960000112,
          "velocity": 1,
          "duration": 0.6666660000000775
        },
        {
          "name": "G4",
          "midi": 67,
          "time": 403.9995960000112,
          "velocity": 1,
          "duration": 0.16666650000001937
        },
        {
          "name": "A#3",
          "midi": 58,
          "time": 403.9995960000112,
          "velocity": 1,
          "duration": 0.16666650000001937
        },
        {
          "name": "G4",
          "midi": 67,
          "time": 404.1662625000112,
          "velocity": 1,
          "duration": 0.16666650000001937
        },
        {
          "name": "A#3",
          "midi": 58,
          "time": 404.1662625000112,
          "velocity": 1,
          "duration": 0.16666650000001937
        },
        {
          "name": "G4",
          "midi": 67,
          "time": 404.33292900001123,
          "velocity": 1,
          "duration": 0.16666650000001937
        },
        {
          "name": "A#3",
          "midi": 58,
          "time": 404.33292900001123,
          "velocity": 1,
          "duration": 0.16666650000001937
        },
        {
          "name": "A#3",
          "midi": 58,
          "time": 404.49959550001125,
          "velocity": 1,
          "duration": 0.16666650000001937
        },
        {
          "name": "G4",
          "midi": 67,
          "time": 404.49959550001125,
          "velocity": 1,
          "duration": 0.16666650000001937
        },
        {
          "name": "D3",
          "midi": 50,
          "time": 404.6662620000113,
          "velocity": 1,
          "duration": 0.33333300000003874
        },
        {
          "name": "G4",
          "midi": 67,
          "time": 404.6662620000113,
          "velocity": 1,
          "duration": 0.16666650000001937
        },
        {
          "name": "A#3",
          "midi": 58,
          "time": 404.6662620000113,
          "velocity": 1,
          "duration": 0.16666650000001937
        },
        {
          "name": "G4",
          "midi": 67,
          "time": 404.8329285000113,
          "velocity": 1,
          "duration": 0.16666650000001937
        },
        {
          "name": "A#3",
          "midi": 58,
          "time": 404.8329285000113,
          "velocity": 1,
          "duration": 0.16666650000001937
        },
        {
          "name": "C#3",
          "midi": 49,
          "time": 404.9995950000113,
          "velocity": 1,
          "duration": 1.9999980000002324
        },
        {
          "name": "G4",
          "midi": 67,
          "time": 404.9995950000113,
          "velocity": 1,
          "duration": 0.16666650000001937
        },
        {
          "name": "A#3",
          "midi": 58,
          "time": 404.9995950000113,
          "velocity": 1,
          "duration": 0.16666650000001937
        },
        {
          "name": "G5",
          "midi": 79,
          "time": 405.16626150001133,
          "velocity": 1,
          "duration": 0.33333300000003874
        },
        {
          "name": "A#3",
          "midi": 58,
          "time": 405.16626150001133,
          "velocity": 1,
          "duration": 0.16666650000001937
        },
        {
          "name": "G4",
          "midi": 67,
          "time": 405.16626150001133,
          "velocity": 1,
          "duration": 0.33333300000003874
        },
        {
          "name": "E4",
          "midi": 64,
          "time": 405.33292800001135,
          "velocity": 1,
          "duration": 0.16666650000001937
        },
        {
          "name": "G5",
          "midi": 79,
          "time": 405.49959450001137,
          "velocity": 1,
          "duration": 0.33333300000003874
        },
        {
          "name": "A#3",
          "midi": 58,
          "time": 405.49959450001137,
          "velocity": 1,
          "duration": 0.16666650000001937
        },
        {
          "name": "G4",
          "midi": 67,
          "time": 405.49959450001137,
          "velocity": 1,
          "duration": 0.33333300000003874
        },
        {
          "name": "E4",
          "midi": 64,
          "time": 405.6662610000114,
          "velocity": 1,
          "duration": 0.16666650000001937
        },
        {
          "name": "G5",
          "midi": 79,
          "time": 405.8329275000114,
          "velocity": 1,
          "duration": 0.33333300000003874
        },
        {
          "name": "A#3",
          "midi": 58,
          "time": 405.8329275000114,
          "velocity": 1,
          "duration": 0.16666650000001937
        },
        {
          "name": "G4",
          "midi": 67,
          "time": 405.8329275000114,
          "velocity": 1,
          "duration": 0.33333300000003874
        },
        {
          "name": "E4",
          "midi": 64,
          "time": 405.9995940000114,
          "velocity": 1,
          "duration": 0.16666650000001937
        },
        {
          "name": "G4",
          "midi": 67,
          "time": 406.16626050001145,
          "velocity": 1,
          "duration": 0.33333300000003874
        },
        {
          "name": "A#3",
          "midi": 58,
          "time": 406.16626050001145,
          "velocity": 1,
          "duration": 0.16666650000001937
        },
        {
          "name": "G5",
          "midi": 79,
          "time": 406.16626050001145,
          "velocity": 1,
          "duration": 0.33333300000003874
        },
        {
          "name": "E4",
          "midi": 64,
          "time": 406.33292700001147,
          "velocity": 1,
          "duration": 0.16666650000001937
        },
        {
          "name": "G5",
          "midi": 79,
          "time": 406.4995935000115,
          "velocity": 1,
          "duration": 0.33333300000003874
        },
        {
          "name": "A#3",
          "midi": 58,
          "time": 406.4995935000115,
          "velocity": 1,
          "duration": 0.16666650000001937
        },
        {
          "name": "G4",
          "midi": 67,
          "time": 406.4995935000115,
          "velocity": 1,
          "duration": 0.33333300000003874
        },
        {
          "name": "E4",
          "midi": 64,
          "time": 406.6662600000115,
          "velocity": 1,
          "duration": 0.16666650000001937
        },
        {
          "name": "G4",
          "midi": 67,
          "time": 406.8329265000115,
          "velocity": 1,
          "duration": 1.1666655000001356
        },
        {
          "name": "A#3",
          "midi": 58,
          "time": 406.8329265000115,
          "velocity": 1,
          "duration": 0.16666650000001937
        },
        {
          "name": "G5",
          "midi": 79,
          "time": 406.8329265000115,
          "velocity": 1,
          "duration": 1.1666655000001356
        },
        {
          "name": "C3",
          "midi": 48,
          "time": 406.99959300001154,
          "velocity": 1,
          "duration": 1.9999980000002324
        },
        {
          "name": "E4",
          "midi": 64,
          "time": 406.99959300001154,
          "velocity": 1,
          "duration": 0.16666650000001937
        },
        {
          "name": "A#3",
          "midi": 58,
          "time": 407.16625950001156,
          "velocity": 1,
          "duration": 0.16666650000001937
        },
        {
          "name": "C4",
          "midi": 60,
          "time": 407.3329260000116,
          "velocity": 1,
          "duration": 0.16666650000001937
        },
        {
          "name": "A#3",
          "midi": 58,
          "time": 407.4995925000116,
          "velocity": 1,
          "duration": 0.16666650000001937
        },
        {
          "name": "C4",
          "midi": 60,
          "time": 407.6662590000116,
          "velocity": 1,
          "duration": 0.16666650000001937
        },
        {
          "name": "A#3",
          "midi": 58,
          "time": 407.83292550001164,
          "velocity": 1,
          "duration": 0.16666650000001937
        },
        {
          "name": "F5",
          "midi": 77,
          "time": 407.99959200001166,
          "velocity": 1,
          "duration": 1.333332000000155
        },
        {
          "name": "A3",
          "midi": 57,
          "time": 407.99959200001166,
          "velocity": 1,
          "duration": 0.16666650000001937
        },
        {
          "name": "F4",
          "midi": 65,
          "time": 407.99959200001166,
          "velocity": 1,
          "duration": 1.333332000000155
        },
        {
          "name": "C4",
          "midi": 60,
          "time": 408.1662585000117,
          "velocity": 1,
          "duration": 0.16666650000001937
        },
        {
          "name": "A3",
          "midi": 57,
          "time": 408.3329250000117,
          "velocity": 1,
          "duration": 0.16666650000001937
        },
        {
          "name": "C4",
          "midi": 60,
          "time": 408.4995915000117,
          "velocity": 1,
          "duration": 0.16666650000001937
        },
        {
          "name": "A3",
          "midi": 57,
          "time": 408.66625800001174,
          "velocity": 1,
          "duration": 0.16666650000001937
        },
        {
          "name": "C4",
          "midi": 60,
          "time": 408.83292450001176,
          "velocity": 1,
          "duration": 0.16666650000001937
        },
        {
          "name": "C3",
          "midi": 48,
          "time": 408.9995910000118,
          "velocity": 1,
          "duration": 1.333332000000155
        },
        {
          "name": "G3",
          "midi": 55,
          "time": 408.9995910000118,
          "velocity": 1,
          "duration": 0.16666650000001937
        },
        {
          "name": "C4",
          "midi": 60,
          "time": 409.1662575000118,
          "velocity": 1,
          "duration": 0.16666650000001937
        },
        {
          "name": "E5",
          "midi": 76,
          "time": 409.3329240000118,
          "velocity": 1,
          "duration": 0.33333300000003874
        },
        {
          "name": "G3",
          "midi": 55,
          "time": 409.3329240000118,
          "velocity": 1,
          "duration": 0.16666650000001937
        },
        {
          "name": "E4",
          "midi": 64,
          "time": 409.3329240000118,
          "velocity": 1,
          "duration": 0.33333300000003874
        },
        {
          "name": "C4",
          "midi": 60,
          "time": 409.49959050001183,
          "velocity": 1,
          "duration": 0.16666650000001937
        },
        {
          "name": "D5",
          "midi": 74,
          "time": 409.66625700001185,
          "velocity": 1,
          "duration": 0.33333300000003874
        },
        {
          "name": "G3",
          "midi": 55,
          "time": 409.66625700001185,
          "velocity": 1,
          "duration": 0.16666650000001937
        },
        {
          "name": "D4",
          "midi": 62,
          "time": 409.66625700001185,
          "velocity": 1,
          "duration": 0.33333300000003874
        },
        {
          "name": "C4",
          "midi": 60,
          "time": 409.8329235000119,
          "velocity": 1,
          "duration": 0.16666650000001937
        },
        {
          "name": "E5",
          "midi": 76,
          "time": 409.9995900000119,
          "velocity": 1,
          "duration": 0.9618045937501165
        },
        {
          "name": "G3",
          "midi": 55,
          "time": 409.9995900000119,
          "velocity": 1,
          "duration": 0.16666650000001937
        },
        {
          "name": "E4",
          "midi": 64,
          "time": 409.9995900000119,
          "velocity": 1,
          "duration": 0.9618045937501165
        },
        {
          "name": "C4",
          "midi": 60,
          "time": 410.1662565000119,
          "velocity": 1,
          "duration": 0.16666650000001937
        },
        {
          "name": "C3",
          "midi": 48,
          "time": 410.33292300001193,
          "velocity": 1,
          "duration": 0.33333300000003874
        },
        {
          "name": "A#3",
          "midi": 58,
          "time": 410.33292300001193,
          "velocity": 1,
          "duration": 0.16666650000001937
        },
        {
          "name": "C4",
          "midi": 60,
          "time": 410.49958950001195,
          "velocity": 1,
          "duration": 0.16666650000001937
        },
        {
          "name": "C3",
          "midi": 48,
          "time": 410.66625600001197,
          "velocity": 1,
          "duration": 0.33333300000003874
        },
        {
          "name": "A#3",
          "midi": 58,
          "time": 410.66625600001197,
          "velocity": 1,
          "duration": 0.16666650000001937
        },
        {
          "name": "D5",
          "midi": 74,
          "time": 410.711394843762,
          "velocity": 1,
          "duration": 0.018229148437512777
        },
        {
          "name": "D4",
          "midi": 62,
          "time": 410.711394843762,
          "velocity": 1,
          "duration": 0.018229148437512777
        },
        {
          "name": "C4",
          "midi": 60,
          "time": 410.832922500012,
          "velocity": 1,
          "duration": 0.16666650000001937
        },
        {
          "name": "F3",
          "midi": 53,
          "time": 410.999589000012,
          "velocity": 1,
          "duration": 0.33333300000003874
        },
        {
          "name": "F5",
          "midi": 77,
          "time": 410.999589000012,
          "velocity": 1,
          "duration": 0.16666650000001937
        },
        {
          "name": "A3",
          "midi": 57,
          "time": 410.999589000012,
          "velocity": 1,
          "duration": 0.16666650000001937
        },
        {
          "name": "F4",
          "midi": 65,
          "time": 410.999589000012,
          "velocity": 1,
          "duration": 0.16666650000001937
        },
        {
          "name": "A3",
          "midi": 57,
          "time": 411.166255500012,
          "velocity": 1,
          "duration": 0.16666650000001937
        },
        {
          "name": "C4",
          "midi": 60,
          "time": 411.166255500012,
          "velocity": 1,
          "duration": 0.16666650000001937
        },
        {
          "name": "C4",
          "midi": 60,
          "time": 411.33292200001205,
          "velocity": 1,
          "duration": 0.16666650000001937
        },
        {
          "name": "A3",
          "midi": 57,
          "time": 411.33292200001205,
          "velocity": 1,
          "duration": 0.16666650000001937
        },
        {
          "name": "F3",
          "midi": 53,
          "time": 411.33292200001205,
          "velocity": 1,
          "duration": 0.16666650000001937
        },
        {
          "name": "C4",
          "midi": 60,
          "time": 411.49958850001207,
          "velocity": 1,
          "duration": 0.16666650000001937
        },
        {
          "name": "A3",
          "midi": 57,
          "time": 411.49958850001207,
          "velocity": 1,
          "duration": 0.16666650000001937
        },
        {
          "name": "F3",
          "midi": 53,
          "time": 411.49958850001207,
          "velocity": 1,
          "duration": 0.16666650000001937
        },
        {
          "name": "F3",
          "midi": 53,
          "time": 411.6662550000121,
          "velocity": 1,
          "duration": 0.16666650000001937
        },
        {
          "name": "A3",
          "midi": 57,
          "time": 411.6662550000121,
          "velocity": 1,
          "duration": 0.16666650000001937
        },
        {
          "name": "C4",
          "midi": 60,
          "time": 411.6662550000121,
          "velocity": 1,
          "duration": 0.16666650000001937
        },
        {
          "name": "C4",
          "midi": 60,
          "time": 411.8329215000121,
          "velocity": 1,
          "duration": 0.16666650000001937
        },
        {
          "name": "A3",
          "midi": 57,
          "time": 411.8329215000121,
          "velocity": 1,
          "duration": 0.16666650000001937
        },
        {
          "name": "F3",
          "midi": 53,
          "time": 411.8329215000121,
          "velocity": 1,
          "duration": 0.16666650000001937
        },
        {
          "name": "C4",
          "midi": 60,
          "time": 411.9995880000121,
          "velocity": 1,
          "duration": 0.16666650000001937
        },
        {
          "name": "A3",
          "midi": 57,
          "time": 411.9995880000121,
          "velocity": 1,
          "duration": 0.16666650000001937
        },
        {
          "name": "F3",
          "midi": 53,
          "time": 411.9995880000121,
          "velocity": 1,
          "duration": 0.16666650000001937
        },
        {
          "name": "C4",
          "midi": 60,
          "time": 412.16625450001214,
          "velocity": 1,
          "duration": 0.16666650000001937
        },
        {
          "name": "A3",
          "midi": 57,
          "time": 412.16625450001214,
          "velocity": 1,
          "duration": 0.16666650000001937
        },
        {
          "name": "F3",
          "midi": 53,
          "time": 412.16625450001214,
          "velocity": 1,
          "duration": 0.16666650000001937
        },
        {
          "name": "C4",
          "midi": 60,
          "time": 412.33292100001216,
          "velocity": 1,
          "duration": 0.16666650000001937
        },
        {
          "name": "A3",
          "midi": 57,
          "time": 412.33292100001216,
          "velocity": 1,
          "duration": 0.16666650000001937
        },
        {
          "name": "F3",
          "midi": 53,
          "time": 412.33292100001216,
          "velocity": 1,
          "duration": 0.16666650000001937
        },
        {
          "name": "F3",
          "midi": 53,
          "time": 412.4995875000122,
          "velocity": 1,
          "duration": 0.16666650000001937
        },
        {
          "name": "A3",
          "midi": 57,
          "time": 412.4995875000122,
          "velocity": 1,
          "duration": 0.16666650000001937
        },
        {
          "name": "C4",
          "midi": 60,
          "time": 412.4995875000122,
          "velocity": 1,
          "duration": 0.16666650000001937
        },
        {
          "name": "C4",
          "midi": 60,
          "time": 412.6662540000122,
          "velocity": 1,
          "duration": 0.16666650000001937
        },
        {
          "name": "A3",
          "midi": 57,
          "time": 412.6662540000122,
          "velocity": 1,
          "duration": 0.16666650000001937
        },
        {
          "name": "F3",
          "midi": 53,
          "time": 412.6662540000122,
          "velocity": 1,
          "duration": 0.16666650000001937
        },
        {
          "name": "C4",
          "midi": 60,
          "time": 412.8329205000122,
          "velocity": 1,
          "duration": 0.16666650000001937
        },
        {
          "name": "A3",
          "midi": 57,
          "time": 412.8329205000122,
          "velocity": 1,
          "duration": 0.16666650000001937
        },
        {
          "name": "F3",
          "midi": 53,
          "time": 412.8329205000122,
          "velocity": 1,
          "duration": 0.16666650000001937
        },
        {
          "name": "F3",
          "midi": 53,
          "time": 412.99958700001224,
          "velocity": 1,
          "duration": 0.33333300000003874
        },
        {
          "name": "A3",
          "midi": 57,
          "time": 412.99958700001224,
          "velocity": 1,
          "duration": 0.16666650000001937
        },
        {
          "name": "C4",
          "midi": 60,
          "time": 412.99958700001224,
          "velocity": 1,
          "duration": 0.16666650000001937
        },
        {
          "name": "C4",
          "midi": 60,
          "time": 413.16625350001226,
          "velocity": 1,
          "duration": 0.16666650000001937
        },
        {
          "name": "A3",
          "midi": 57,
          "time": 413.16625350001226,
          "velocity": 1,
          "duration": 0.16666650000001937
        },
        {
          "name": "F3",
          "midi": 53,
          "time": 413.3329200000123,
          "velocity": 1,
          "duration": 0.16666650000001937
        },
        {
          "name": "A3",
          "midi": 57,
          "time": 413.3329200000123,
          "velocity": 1,
          "duration": 0.16666650000001937
        },
        {
          "name": "C4",
          "midi": 60,
          "time": 413.3329200000123,
          "velocity": 1,
          "duration": 0.16666650000001937
        },
        {
          "name": "C4",
          "midi": 60,
          "time": 413.4995865000123,
          "velocity": 1,
          "duration": 0.16666650000001937
        },
        {
          "name": "A3",
          "midi": 57,
          "time": 413.4995865000123,
          "velocity": 1,
          "duration": 0.16666650000001937
        },
        {
          "name": "F3",
          "midi": 53,
          "time": 413.4995865000123,
          "velocity": 1,
          "duration": 0.16666650000001937
        },
        {
          "name": "C3",
          "midi": 48,
          "time": 413.6662530000123,
          "velocity": 1,
          "duration": 0.33333300000003874
        },
        {
          "name": "C4",
          "midi": 60,
          "time": 413.6662530000123,
          "velocity": 1,
          "duration": 0.16666650000001937
        },
        {
          "name": "A3",
          "midi": 57,
          "time": 413.6662530000123,
          "velocity": 1,
          "duration": 0.16666650000001937
        },
        {
          "name": "F3",
          "midi": 53,
          "time": 413.6662530000123,
          "velocity": 1,
          "duration": 0.16666650000001937
        },
        {
          "name": "C4",
          "midi": 60,
          "time": 413.83291950001234,
          "velocity": 1,
          "duration": 0.16666650000001937
        },
        {
          "name": "A3",
          "midi": 57,
          "time": 413.83291950001234,
          "velocity": 1,
          "duration": 0.16666650000001937
        },
        {
          "name": "F3",
          "midi": 53,
          "time": 413.83291950001234,
          "velocity": 1,
          "duration": 0.16666650000001937
        },
        {
          "name": "F3",
          "midi": 53,
          "time": 413.99958600001236,
          "velocity": 1,
          "duration": 0.33333300000003874
        },
        {
          "name": "A3",
          "midi": 57,
          "time": 413.99958600001236,
          "velocity": 1,
          "duration": 0.16666650000001937
        },
        {
          "name": "C4",
          "midi": 60,
          "time": 413.99958600001236,
          "velocity": 1,
          "duration": 0.16666650000001937
        },
        {
          "name": "C4",
          "midi": 60,
          "time": 414.1662525000124,
          "velocity": 1,
          "duration": 0.16666650000001937
        },
        {
          "name": "A3",
          "midi": 57,
          "time": 414.1662525000124,
          "velocity": 1,
          "duration": 0.16666650000001937
        },
        {
          "name": "A3",
          "midi": 57,
          "time": 414.3329190000124,
          "velocity": 1,
          "duration": 0.33333300000003874
        },
        {
          "name": "C4",
          "midi": 60,
          "time": 414.3329190000124,
          "velocity": 1,
          "duration": 0.16666650000001937
        },
        {
          "name": "F3",
          "midi": 53,
          "time": 414.3329190000124,
          "velocity": 1,
          "duration": 0.16666650000001937
        },
        {
          "name": "C4",
          "midi": 60,
          "time": 414.4995855000124,
          "velocity": 1,
          "duration": 0.16666650000001937
        },
        {
          "name": "F3",
          "midi": 53,
          "time": 414.4995855000124,
          "velocity": 1,
          "duration": 0.16666650000001937
        },
        {
          "name": "F3",
          "midi": 53,
          "time": 414.66625200001243,
          "velocity": 1,
          "duration": 0.16666650000001937
        },
        {
          "name": "A3",
          "midi": 57,
          "time": 414.66625200001243,
          "velocity": 1,
          "duration": 0.16666650000001937
        },
        {
          "name": "C4",
          "midi": 60,
          "time": 414.66625200001243,
          "velocity": 1,
          "duration": 0.33333300000003874
        },
        {
          "name": "A3",
          "midi": 57,
          "time": 414.83291850001245,
          "velocity": 1,
          "duration": 0.16666650000001937
        },
        {
          "name": "F3",
          "midi": 53,
          "time": 414.83291850001245,
          "velocity": 1,
          "duration": 0.16666650000001937
        },
        {
          "name": "E3",
          "midi": 52,
          "time": 414.9995850000125,
          "velocity": 1,
          "duration": 0.16666650000001937
        },
        {
          "name": "G3",
          "midi": 55,
          "time": 414.9995850000125,
          "velocity": 1,
          "duration": 0.16666650000001937
        },
        {
          "name": "A#3",
          "midi": 58,
          "time": 414.9995850000125,
          "velocity": 1,
          "duration": 0.16666650000001937
        },
        {
          "name": "C4",
          "midi": 60,
          "time": 414.9995850000125,
          "velocity": 1,
          "duration": 0.33333300000003874
        },
        {
          "name": "A#3",
          "midi": 58,
          "time": 415.1662515000125,
          "velocity": 1,
          "duration": 0.16666650000001937
        },
        {
          "name": "G3",
          "midi": 55,
          "time": 415.1662515000125,
          "velocity": 1,
          "duration": 0.16666650000001937
        },
        {
          "name": "E3",
          "midi": 52,
          "time": 415.1662515000125,
          "velocity": 1,
          "duration": 0.16666650000001937
        },
        {
          "name": "E3",
          "midi": 52,
          "time": 415.3329180000125,
          "velocity": 1,
          "duration": 0.16666650000001937
        },
        {
          "name": "G3",
          "midi": 55,
          "time": 415.3329180000125,
          "velocity": 1,
          "duration": 0.16666650000001937
        },
        {
          "name": "A#3",
          "midi": 58,
          "time": 415.3329180000125,
          "velocity": 1,
          "duration": 0.16666650000001937
        },
        {
          "name": "C4",
          "midi": 60,
          "time": 415.3329180000125,
          "velocity": 1,
          "duration": 0.16666650000001937
        },
        {
          "name": "C4",
          "midi": 60,
          "time": 415.49958450001253,
          "velocity": 1,
          "duration": 0.16666650000001937
        },
        {
          "name": "A#3",
          "midi": 58,
          "time": 415.49958450001253,
          "velocity": 1,
          "duration": 0.16666650000001937
        },
        {
          "name": "G3",
          "midi": 55,
          "time": 415.49958450001253,
          "velocity": 1,
          "duration": 0.16666650000001937
        },
        {
          "name": "E3",
          "midi": 52,
          "time": 415.49958450001253,
          "velocity": 1,
          "duration": 0.16666650000001937
        },
        {
          "name": "A#3",
          "midi": 58,
          "time": 415.66625100001255,
          "velocity": 1,
          "duration": 0.33333300000003874
        },
        {
          "name": "C4",
          "midi": 60,
          "time": 415.66625100001255,
          "velocity": 1,
          "duration": 0.16666650000001937
        },
        {
          "name": "G3",
          "midi": 55,
          "time": 415.66625100001255,
          "velocity": 1,
          "duration": 0.16666650000001937
        },
        {
          "name": "E3",
          "midi": 52,
          "time": 415.66625100001255,
          "velocity": 1,
          "duration": 0.16666650000001937
        },
        {
          "name": "E3",
          "midi": 52,
          "time": 415.83291750001257,
          "velocity": 1,
          "duration": 0.16666650000001937
        },
        {
          "name": "G3",
          "midi": 55,
          "time": 415.83291750001257,
          "velocity": 1,
          "duration": 0.16666650000001937
        },
        {
          "name": "C4",
          "midi": 60,
          "time": 415.83291750001257,
          "velocity": 1,
          "duration": 0.16666650000001937
        },
        {
          "name": "G3",
          "midi": 55,
          "time": 415.9995840000126,
          "velocity": 1,
          "duration": 0.33333300000003874
        },
        {
          "name": "C4",
          "midi": 60,
          "time": 415.9995840000126,
          "velocity": 1,
          "duration": 0.16666650000001937
        },
        {
          "name": "A#3",
          "midi": 58,
          "time": 415.9995840000126,
          "velocity": 1,
          "duration": 0.16666650000001937
        },
        {
          "name": "E3",
          "midi": 52,
          "time": 415.9995840000126,
          "velocity": 1,
          "duration": 0.16666650000001937
        },
        {
          "name": "C4",
          "midi": 60,
          "time": 416.1662505000126,
          "velocity": 1,
          "duration": 0.16666650000001937
        },
        {
          "name": "A#3",
          "midi": 58,
          "time": 416.1662505000126,
          "velocity": 1,
          "duration": 0.16666650000001937
        },
        {
          "name": "E3",
          "midi": 52,
          "time": 416.1662505000126,
          "velocity": 1,
          "duration": 0.16666650000001937
        },
        {
          "name": "E3",
          "midi": 52,
          "time": 416.3329170000126,
          "velocity": 1,
          "duration": 0.33333300000003874
        },
        {
          "name": "G3",
          "midi": 55,
          "time": 416.3329170000126,
          "velocity": 1,
          "duration": 0.16666650000001937
        },
        {
          "name": "A#3",
          "midi": 58,
          "time": 416.3329170000126,
          "velocity": 1,
          "duration": 0.16666650000001937
        },
        {
          "name": "C4",
          "midi": 60,
          "time": 416.3329170000126,
          "velocity": 1,
          "duration": 0.16666650000001937
        },
        {
          "name": "C4",
          "midi": 60,
          "time": 416.49958350001265,
          "velocity": 1,
          "duration": 0.16666650000001937
        },
        {
          "name": "A#3",
          "midi": 58,
          "time": 416.49958350001265,
          "velocity": 1,
          "duration": 0.16666650000001937
        },
        {
          "name": "G3",
          "midi": 55,
          "time": 416.49958350001265,
          "velocity": 1,
          "duration": 0.16666650000001937
        },
        {
          "name": "E3",
          "midi": 52,
          "time": 416.66625000001267,
          "velocity": 1,
          "duration": 0.16666650000001937
        },
        {
          "name": "G3",
          "midi": 55,
          "time": 416.66625000001267,
          "velocity": 1,
          "duration": 0.16666650000001937
        },
        {
          "name": "A#3",
          "midi": 58,
          "time": 416.66625000001267,
          "velocity": 1,
          "duration": 0.16666650000001937
        },
        {
          "name": "C4",
          "midi": 60,
          "time": 416.66625000001267,
          "velocity": 1,
          "duration": 0.16666650000001937
        },
        {
          "name": "C3",
          "midi": 48,
          "time": 416.66625000001267,
          "velocity": 1,
          "duration": 0.33333300000003874
        },
        {
          "name": "C4",
          "midi": 60,
          "time": 416.8329165000127,
          "velocity": 1,
          "duration": 0.16666650000001937
        },
        {
          "name": "A#3",
          "midi": 58,
          "time": 416.8329165000127,
          "velocity": 1,
          "duration": 0.16666650000001937
        },
        {
          "name": "G3",
          "midi": 55,
          "time": 416.8329165000127,
          "velocity": 1,
          "duration": 0.16666650000001937
        },
        {
          "name": "E3",
          "midi": 52,
          "time": 416.8329165000127,
          "velocity": 1,
          "duration": 0.16666650000001937
        },
        {
          "name": "F3",
          "midi": 53,
          "time": 416.9995830000127,
          "velocity": 1,
          "duration": 0.33333300000003874
        },
        {
          "name": "A3",
          "midi": 57,
          "time": 416.9995830000127,
          "velocity": 1,
          "duration": 0.16666650000001937
        },
        {
          "name": "C4",
          "midi": 60,
          "time": 416.9995830000127,
          "velocity": 1,
          "duration": 0.16666650000001937
        },
        {
          "name": "C4",
          "midi": 60,
          "time": 417.1662495000127,
          "velocity": 1,
          "duration": 0.16666650000001937
        },
        {
          "name": "A3",
          "midi": 57,
          "time": 417.1662495000127,
          "velocity": 1,
          "duration": 0.16666650000001937
        },
        {
          "name": "C4",
          "midi": 60,
          "time": 417.33291600001274,
          "velocity": 1,
          "duration": 0.16666650000001937
        },
        {
          "name": "A3",
          "midi": 57,
          "time": 417.33291600001274,
          "velocity": 1,
          "duration": 0.16666650000001937
        },
        {
          "name": "F3",
          "midi": 53,
          "time": 417.33291600001274,
          "velocity": 1,
          "duration": 0.16666650000001937
        },
        {
          "name": "C4",
          "midi": 60,
          "time": 417.49958250001276,
          "velocity": 1,
          "duration": 0.16666650000001937
        },
        {
          "name": "A3",
          "midi": 57,
          "time": 417.49958250001276,
          "velocity": 1,
          "duration": 0.16666650000001937
        },
        {
          "name": "F3",
          "midi": 53,
          "time": 417.49958250001276,
          "velocity": 1,
          "duration": 0.16666650000001937
        },
        {
          "name": "C4",
          "midi": 60,
          "time": 417.6662490000128,
          "velocity": 1,
          "duration": 0.16666650000001937
        },
        {
          "name": "A3",
          "midi": 57,
          "time": 417.6662490000128,
          "velocity": 1,
          "duration": 0.16666650000001937
        },
        {
          "name": "F3",
          "midi": 53,
          "time": 417.6662490000128,
          "velocity": 1,
          "duration": 0.16666650000001937
        },
        {
          "name": "F3",
          "midi": 53,
          "time": 417.8329155000128,
          "velocity": 1,
          "duration": 0.16666650000001937
        },
        {
          "name": "A3",
          "midi": 57,
          "time": 417.8329155000128,
          "velocity": 1,
          "duration": 0.16666650000001937
        },
        {
          "name": "C4",
          "midi": 60,
          "time": 417.8329155000128,
          "velocity": 1,
          "duration": 0.16666650000001937
        },
        {
          "name": "C4",
          "midi": 60,
          "time": 417.9995820000128,
          "velocity": 1,
          "duration": 0.16666650000001937
        },
        {
          "name": "G#3",
          "midi": 56,
          "time": 417.9995820000128,
          "velocity": 1,
          "duration": 0.16666650000001937
        },
        {
          "name": "F3",
          "midi": 53,
          "time": 417.9995820000128,
          "velocity": 1,
          "duration": 0.16666650000001937
        },
        {
          "name": "C4",
          "midi": 60,
          "time": 418.16624850001284,
          "velocity": 1,
          "duration": 0.16666650000001937
        },
        {
          "name": "G#3",
          "midi": 56,
          "time": 418.16624850001284,
          "velocity": 1,
          "duration": 0.16666650000001937
        },
        {
          "name": "F3",
          "midi": 53,
          "time": 418.16624850001284,
          "velocity": 1,
          "duration": 0.16666650000001937
        },
        {
          "name": "C4",
          "midi": 60,
          "time": 418.33291500001286,
          "velocity": 1,
          "duration": 0.16666650000001937
        },
        {
          "name": "G#3",
          "midi": 56,
          "time": 418.33291500001286,
          "velocity": 1,
          "duration": 0.16666650000001937
        },
        {
          "name": "F3",
          "midi": 53,
          "time": 418.33291500001286,
          "velocity": 1,
          "duration": 0.16666650000001937
        },
        {
          "name": "C4",
          "midi": 60,
          "time": 418.4995815000129,
          "velocity": 1,
          "duration": 0.16666650000001937
        },
        {
          "name": "G#3",
          "midi": 56,
          "time": 418.4995815000129,
          "velocity": 1,
          "duration": 0.16666650000001937
        },
        {
          "name": "F3",
          "midi": 53,
          "time": 418.4995815000129,
          "velocity": 1,
          "duration": 0.16666650000001937
        },
        {
          "name": "F3",
          "midi": 53,
          "time": 418.6662480000129,
          "velocity": 1,
          "duration": 0.16666650000001937
        },
        {
          "name": "G#3",
          "midi": 56,
          "time": 418.6662480000129,
          "velocity": 1,
          "duration": 0.16666650000001937
        },
        {
          "name": "C4",
          "midi": 60,
          "time": 418.6662480000129,
          "velocity": 1,
          "duration": 0.16666650000001937
        },
        {
          "name": "C4",
          "midi": 60,
          "time": 418.8329145000129,
          "velocity": 1,
          "duration": 0.16666650000001937
        },
        {
          "name": "G#3",
          "midi": 56,
          "time": 418.8329145000129,
          "velocity": 1,
          "duration": 0.16666650000001937
        },
        {
          "name": "F3",
          "midi": 53,
          "time": 418.8329145000129,
          "velocity": 1,
          "duration": 0.16666650000001937
        },
        {
          "name": "F3",
          "midi": 53,
          "time": 418.99958100001294,
          "velocity": 1,
          "duration": 0.16666650000001937
        },
        {
          "name": "G#3",
          "midi": 56,
          "time": 418.99958100001294,
          "velocity": 1,
          "duration": 0.16666650000001937
        },
        {
          "name": "C#4",
          "midi": 61,
          "time": 418.99958100001294,
          "velocity": 1,
          "duration": 0.6666660000000775
        },
        {
          "name": "C#3",
          "midi": 49,
          "time": 418.99958100001294,
          "velocity": 1,
          "duration": 0.33333300000003874
        },
        {
          "name": "G#3",
          "midi": 56,
          "time": 419.16624750001296,
          "velocity": 1,
          "duration": 0.16666650000001937
        },
        {
          "name": "F3",
          "midi": 53,
          "time": 419.16624750001296,
          "velocity": 1,
          "duration": 0.16666650000001937
        },
        {
          "name": "G#3",
          "midi": 56,
          "time": 419.332914000013,
          "velocity": 1,
          "duration": 0.16666650000001937
        },
        {
          "name": "F3",
          "midi": 53,
          "time": 419.332914000013,
          "velocity": 1,
          "duration": 0.16666650000001937
        },
        {
          "name": "C#3",
          "midi": 49,
          "time": 419.332914000013,
          "velocity": 1,
          "duration": 0.16666650000001937
        },
        {
          "name": "C#3",
          "midi": 49,
          "time": 419.499580500013,
          "velocity": 1,
          "duration": 0.16666650000001937
        },
        {
          "name": "F3",
          "midi": 53,
          "time": 419.499580500013,
          "velocity": 1,
          "duration": 0.16666650000001937
        },
        {
          "name": "G#3",
          "midi": 56,
          "time": 419.499580500013,
          "velocity": 1,
          "duration": 0.16666650000001937
        },
        {
          "name": "F4",
          "midi": 65,
          "time": 419.666247000013,
          "velocity": 1,
          "duration": 0.33333300000003874
        },
        {
          "name": "G#3",
          "midi": 56,
          "time": 419.666247000013,
          "velocity": 1,
          "duration": 0.16666650000001937
        },
        {
          "name": "F3",
          "midi": 53,
          "time": 419.666247000013,
          "velocity": 1,
          "duration": 0.16666650000001937
        },
        {
          "name": "C#3",
          "midi": 49,
          "time": 419.666247000013,
          "velocity": 1,
          "duration": 0.16666650000001937
        },
        {
          "name": "C#3",
          "midi": 49,
          "time": 419.83291350001303,
          "velocity": 1,
          "duration": 0.16666650000001937
        },
        {
          "name": "F3",
          "midi": 53,
          "time": 419.83291350001303,
          "velocity": 1,
          "duration": 0.16666650000001937
        },
        {
          "name": "G#3",
          "midi": 56,
          "time": 419.83291350001303,
          "velocity": 1,
          "duration": 0.16666650000001937
        },
        {
          "name": "C#4",
          "midi": 61,
          "time": 419.99958000001305,
          "velocity": 1,
          "duration": 0.6666660000000775
        },
        {
          "name": "G#3",
          "midi": 56,
          "time": 419.99958000001305,
          "velocity": 1,
          "duration": 0.16666650000001937
        },
        {
          "name": "F3",
          "midi": 53,
          "time": 419.99958000001305,
          "velocity": 1,
          "duration": 0.16666650000001937
        },
        {
          "name": "C#3",
          "midi": 49,
          "time": 419.99958000001305,
          "velocity": 1,
          "duration": 0.16666650000001937
        },
        {
          "name": "G#3",
          "midi": 56,
          "time": 420.1662465000131,
          "velocity": 1,
          "duration": 0.16666650000001937
        },
        {
          "name": "F3",
          "midi": 53,
          "time": 420.1662465000131,
          "velocity": 1,
          "duration": 0.16666650000001937
        },
        {
          "name": "C#3",
          "midi": 49,
          "time": 420.1662465000131,
          "velocity": 1,
          "duration": 0.16666650000001937
        },
        {
          "name": "C#3",
          "midi": 49,
          "time": 420.3329130000131,
          "velocity": 1,
          "duration": 0.16666650000001937
        },
        {
          "name": "F3",
          "midi": 53,
          "time": 420.3329130000131,
          "velocity": 1,
          "duration": 0.16666650000001937
        },
        {
          "name": "G#3",
          "midi": 56,
          "time": 420.3329130000131,
          "velocity": 1,
          "duration": 0.16666650000001937
        },
        {
          "name": "G#3",
          "midi": 56,
          "time": 420.4995795000131,
          "velocity": 1,
          "duration": 0.16666650000001937
        },
        {
          "name": "F3",
          "midi": 53,
          "time": 420.4995795000131,
          "velocity": 1,
          "duration": 0.16666650000001937
        },
        {
          "name": "C#3",
          "midi": 49,
          "time": 420.4995795000131,
          "velocity": 1,
          "duration": 0.16666650000001937
        },
        {
          "name": "G#3",
          "midi": 56,
          "time": 420.66624600001313,
          "velocity": 1,
          "duration": 0.33333300000003874
        },
        {
          "name": "F3",
          "midi": 53,
          "time": 420.66624600001313,
          "velocity": 1,
          "duration": 0.16666650000001937
        },
        {
          "name": "C#3",
          "midi": 49,
          "time": 420.66624600001313,
          "velocity": 1,
          "duration": 0.16666650000001937
        },
        {
          "name": "F3",
          "midi": 53,
          "time": 420.83291250001315,
          "velocity": 1,
          "duration": 0.16666650000001937
        },
        {
          "name": "C#3",
          "midi": 49,
          "time": 420.83291250001315,
          "velocity": 1,
          "duration": 0.16666650000001937
        },
        {
          "name": "C#3",
          "midi": 49,
          "time": 420.99957900001317,
          "velocity": 1,
          "duration": 0.33333300000003874
        },
        {
          "name": "F3",
          "midi": 53,
          "time": 420.99957900001317,
          "velocity": 1,
          "duration": 0.16666650000001937
        },
        {
          "name": "G#3",
          "midi": 56,
          "time": 420.99957900001317,
          "velocity": 1,
          "duration": 0.16666650000001937
        },
        {
          "name": "C#4",
          "midi": 61,
          "time": 420.99957900001317,
          "velocity": 1,
          "duration": 0.33333300000003874
        },
        {
          "name": "G#3",
          "midi": 56,
          "time": 421.1662455000132,
          "velocity": 1,
          "duration": 0.16666650000001937
        },
        {
          "name": "F3",
          "midi": 53,
          "time": 421.1662455000132,
          "velocity": 1,
          "duration": 0.16666650000001937
        },
        {
          "name": "G#3",
          "midi": 56,
          "time": 421.3329120000132,
          "velocity": 1,
          "duration": 0.16666650000001937
        },
        {
          "name": "F3",
          "midi": 53,
          "time": 421.3329120000132,
          "velocity": 1,
          "duration": 0.16666650000001937
        },
        {
          "name": "C#3",
          "midi": 49,
          "time": 421.3329120000132,
          "velocity": 1,
          "duration": 0.16666650000001937
        },
        {
          "name": "C#3",
          "midi": 49,
          "time": 421.49957850001323,
          "velocity": 1,
          "duration": 0.16666650000001937
        },
        {
          "name": "F3",
          "midi": 53,
          "time": 421.49957850001323,
          "velocity": 1,
          "duration": 0.16666650000001937
        },
        {
          "name": "G#3",
          "midi": 56,
          "time": 421.49957850001323,
          "velocity": 1,
          "duration": 0.16666650000001937
        },
        {
          "name": "C#4",
          "midi": 61,
          "time": 421.66624500001325,
          "velocity": 1,
          "duration": 0.33333300000003874
        },
        {
          "name": "G#4",
          "midi": 68,
          "time": 421.66624500001325,
          "velocity": 1,
          "duration": 0.33333300000003874
        },
        {
          "name": "G#3",
          "midi": 56,
          "time": 421.66624500001325,
          "velocity": 1,
          "duration": 0.16666650000001937
        },
        {
          "name": "F3",
          "midi": 53,
          "time": 421.66624500001325,
          "velocity": 1,
          "duration": 0.16666650000001937
        },
        {
          "name": "C#3",
          "midi": 49,
          "time": 421.66624500001325,
          "velocity": 1,
          "duration": 0.16666650000001937
        },
        {
          "name": "C#3",
          "midi": 49,
          "time": 421.83291150001327,
          "velocity": 1,
          "duration": 0.16666650000001937
        },
        {
          "name": "F3",
          "midi": 53,
          "time": 421.83291150001327,
          "velocity": 1,
          "duration": 0.16666650000001937
        },
        {
          "name": "G#3",
          "midi": 56,
          "time": 421.83291150001327,
          "velocity": 1,
          "duration": 0.16666650000001937
        },
        {
          "name": "G#3",
          "midi": 56,
          "time": 421.9995780000133,
          "velocity": 1,
          "duration": 0.33333300000003874
        },
        {
          "name": "C#5",
          "midi": 73,
          "time": 421.9995780000133,
          "velocity": 1,
          "duration": 0.33333300000003874
        },
        {
          "name": "F3",
          "midi": 53,
          "time": 421.9995780000133,
          "velocity": 1,
          "duration": 0.16666650000001937
        },
        {
          "name": "C#3",
          "midi": 49,
          "time": 421.9995780000133,
          "velocity": 1,
          "duration": 0.16666650000001937
        },
        {
          "name": "F3",
          "midi": 53,
          "time": 422.1662445000133,
          "velocity": 1,
          "duration": 0.16666650000001937
        },
        {
          "name": "C#3",
          "midi": 49,
          "time": 422.1662445000133,
          "velocity": 1,
          "duration": 0.16666650000001937
        },
        {
          "name": "C#3",
          "midi": 49,
          "time": 422.3329110000133,
          "velocity": 1,
          "duration": 0.16666650000001937
        },
        {
          "name": "F3",
          "midi": 53,
          "time": 422.3329110000133,
          "velocity": 1,
          "duration": 0.33333300000003874
        },
        {
          "name": "G#3",
          "midi": 56,
          "time": 422.3329110000133,
          "velocity": 1,
          "duration": 0.16666650000001937
        },
        {
          "name": "F5",
          "midi": 77,
          "time": 422.3329110000133,
          "velocity": 1,
          "duration": 0.33333300000003874
        },
        {
          "name": "G#3",
          "midi": 56,
          "time": 422.49957750001334,
          "velocity": 1,
          "duration": 0.16666650000001937
        },
        {
          "name": "C#3",
          "midi": 49,
          "time": 422.49957750001334,
          "velocity": 1,
          "duration": 0.16666650000001937
        },
        {
          "name": "C#3",
          "midi": 49,
          "time": 422.66624400001336,
          "velocity": 1,
          "duration": 0.33333300000003874
        },
        {
          "name": "F3",
          "midi": 53,
          "time": 422.66624400001336,
          "velocity": 1,
          "duration": 0.16666650000001937
        },
        {
          "name": "G#3",
          "midi": 56,
          "time": 422.66624400001336,
          "velocity": 1,
          "duration": 0.16666650000001937
        },
        {
          "name": "G#5",
          "midi": 80,
          "time": 422.66624400001336,
          "velocity": 1,
          "duration": 0.33333300000003874
        },
        {
          "name": "G#3",
          "midi": 56,
          "time": 422.8329105000134,
          "velocity": 1,
          "duration": 0.16666650000001937
        },
        {
          "name": "F3",
          "midi": 53,
          "time": 422.8329105000134,
          "velocity": 1,
          "duration": 0.16666650000001937
        },
        {
          "name": "D#3",
          "midi": 51,
          "time": 422.9995770000134,
          "velocity": 1,
          "duration": 0.16666650000001937
        },
        {
          "name": "F#3",
          "midi": 54,
          "time": 422.9995770000134,
          "velocity": 1,
          "duration": 0.16666650000001937
        },
        {
          "name": "G#3",
          "midi": 56,
          "time": 422.9995770000134,
          "velocity": 1,
          "duration": 0.16666650000001937
        },
        {
          "name": "G#5",
          "midi": 80,
          "time": 422.9995770000134,
          "velocity": 1,
          "duration": 0.33333300000003874
        },
        {
          "name": "C3",
          "midi": 48,
          "time": 422.9995770000134,
          "velocity": 1,
          "duration": 0.33333300000003874
        },
        {
          "name": "G#3",
          "midi": 56,
          "time": 423.1662435000134,
          "velocity": 1,
          "duration": 0.16666650000001937
        },
        {
          "name": "F#3",
          "midi": 54,
          "time": 423.1662435000134,
          "velocity": 1,
          "duration": 0.16666650000001937
        },
        {
          "name": "D#3",
          "midi": 51,
          "time": 423.1662435000134,
          "velocity": 1,
          "duration": 0.16666650000001937
        },
        {
          "name": "G#3",
          "midi": 56,
          "time": 423.33291000001344,
          "velocity": 1,
          "duration": 0.16666650000001937
        },
        {
          "name": "F#3",
          "midi": 54,
          "time": 423.33291000001344,
          "velocity": 1,
          "duration": 0.16666650000001937
        },
        {
          "name": "D#3",
          "midi": 51,
          "time": 423.33291000001344,
          "velocity": 1,
          "duration": 0.16666650000001937
        },
        {
          "name": "G#3",
          "midi": 56,
          "time": 423.49957650001346,
          "velocity": 1,
          "duration": 0.16666650000001937
        },
        {
          "name": "F#3",
          "midi": 54,
          "time": 423.49957650001346,
          "velocity": 1,
          "duration": 0.16666650000001937
        },
        {
          "name": "D#3",
          "midi": 51,
          "time": 423.49957650001346,
          "velocity": 1,
          "duration": 0.16666650000001937
        },
        {
          "name": "D#3",
          "midi": 51,
          "time": 423.6662430000135,
          "velocity": 1,
          "duration": 0.16666650000001937
        },
        {
          "name": "F#3",
          "midi": 54,
          "time": 423.6662430000135,
          "velocity": 1,
          "duration": 0.16666650000001937
        },
        {
          "name": "G#3",
          "midi": 56,
          "time": 423.6662430000135,
          "velocity": 1,
          "duration": 0.16666650000001937
        },
        {
          "name": "F#5",
          "midi": 78,
          "time": 423.6662430000135,
          "velocity": 1,
          "duration": 0.33333300000003874
        },
        {
          "name": "C3",
          "midi": 48,
          "time": 423.6662430000135,
          "velocity": 1,
          "duration": 0.33333300000003874
        },
        {
          "name": "G#3",
          "midi": 56,
          "time": 423.8329095000135,
          "velocity": 1,
          "duration": 0.16666650000001937
        },
        {
          "name": "F#3",
          "midi": 54,
          "time": 423.8329095000135,
          "velocity": 1,
          "duration": 0.16666650000001937
        },
        {
          "name": "D#3",
          "midi": 51,
          "time": 423.8329095000135,
          "velocity": 1,
          "duration": 0.16666650000001937
        },
        {
          "name": "D#3",
          "midi": 51,
          "time": 423.9995760000135,
          "velocity": 1,
          "duration": 0.33333300000003874
        },
        {
          "name": "F#3",
          "midi": 54,
          "time": 423.9995760000135,
          "velocity": 1,
          "duration": 0.16666650000001937
        },
        {
          "name": "G#3",
          "midi": 56,
          "time": 423.9995760000135,
          "velocity": 1,
          "duration": 0.16666650000001937
        },
        {
          "name": "D#5",
          "midi": 75,
          "time": 423.9995760000135,
          "velocity": 1,
          "duration": 0.33333300000003874
        },
        {
          "name": "G#3",
          "midi": 56,
          "time": 424.16624250001354,
          "velocity": 1,
          "duration": 0.16666650000001937
        },
        {
          "name": "F#3",
          "midi": 54,
          "time": 424.16624250001354,
          "velocity": 1,
          "duration": 0.16666650000001937
        },
        {
          "name": "D#3",
          "midi": 51,
          "time": 424.33290900001356,
          "velocity": 1,
          "duration": 0.16666650000001937
        },
        {
          "name": "F#3",
          "midi": 54,
          "time": 424.33290900001356,
          "velocity": 1,
          "duration": 0.16666650000001937
        },
        {
          "name": "G#3",
          "midi": 56,
          "time": 424.33290900001356,
          "velocity": 1,
          "duration": 0.33333300000003874
        },
        {
          "name": "C5",
          "midi": 72,
          "time": 424.33290900001356,
          "velocity": 1,
          "duration": 0.33333300000003874
        },
        {
          "name": "F#3",
          "midi": 54,
          "time": 424.4995755000136,
          "velocity": 1,
          "duration": 0.16666650000001937
        },
        {
          "name": "D#3",
          "midi": 51,
          "time": 424.4995755000136,
          "velocity": 1,
          "duration": 0.16666650000001937
        },
        {
          "name": "D#3",
          "midi": 51,
          "time": 424.6662420000136,
          "velocity": 1,
          "duration": 0.16666650000001937
        },
        {
          "name": "F#3",
          "midi": 54,
          "time": 424.6662420000136,
          "velocity": 1,
          "duration": 0.16666650000001937
        },
        {
          "name": "G#3",
          "midi": 56,
          "time": 424.6662420000136,
          "velocity": 1,
          "duration": 0.16666650000001937
        },
        {
          "name": "F#4",
          "midi": 66,
          "time": 424.6662420000136,
          "velocity": 1,
          "duration": 0.33333300000003874
        },
        {
          "name": "C4",
          "midi": 60,
          "time": 424.6662420000136,
          "velocity": 1,
          "duration": 0.33333300000003874
        },
        {
          "name": "G#3",
          "midi": 56,
          "time": 424.8329085000136,
          "velocity": 1,
          "duration": 0.16666650000001937
        },
        {
          "name": "F#3",
          "midi": 54,
          "time": 424.8329085000136,
          "velocity": 1,
          "duration": 0.16666650000001937
        },
        {
          "name": "D#3",
          "midi": 51,
          "time": 424.8329085000136,
          "velocity": 1,
          "duration": 0.16666650000001937
        },
        {
          "name": "C#3",
          "midi": 49,
          "time": 424.99957500001364,
          "velocity": 1,
          "duration": 0.16666650000001937
        },
        {
          "name": "F3",
          "midi": 53,
          "time": 424.99957500001364,
          "velocity": 1,
          "duration": 0.16666650000001937
        },
        {
          "name": "G#3",
          "midi": 56,
          "time": 424.99957500001364,
          "velocity": 1,
          "duration": 0.16666650000001937
        },
        {
          "name": "F4",
          "midi": 65,
          "time": 424.99957500001364,
          "velocity": 1,
          "duration": 0.33333300000003874
        },
        {
          "name": "C#4",
          "midi": 61,
          "time": 424.99957500001364,
          "velocity": 1,
          "duration": 0.33333300000003874
        },
        {
          "name": "G#4",
          "midi": 68,
          "time": 425.16624150001365,
          "velocity": 1,
          "duration": 0.33333300000003874
        },
        {
          "name": "C#3",
          "midi": 49,
          "time": 425.16624150001365,
          "velocity": 1,
          "duration": 0.33333300000003874
        },
        {
          "name": "C#3",
          "midi": 49,
          "time": 425.4995745000137,
          "velocity": 1,
          "duration": 0.3333329999999819
        },
        {
          "name": "F4",
          "midi": 65,
          "time": 425.4995745000137,
          "velocity": 1,
          "duration": 0.3333329999999819
        },
        {
          "name": "G#4",
          "midi": 68,
          "time": 425.4995745000137,
          "velocity": 1,
          "duration": 0.3333329999999819
        },
        {
          "name": "C#3",
          "midi": 49,
          "time": 425.8329075000137,
          "velocity": 1,
          "duration": 0.16666650000001937
        },
        {
          "name": "G#4",
          "midi": 68,
          "time": 425.8329075000137,
          "velocity": 1,
          "duration": 0.33333300000003874
        },
        {
          "name": "F4",
          "midi": 65,
          "time": 425.8329075000137,
          "velocity": 1,
          "duration": 0.16666650000001937
        },
        {
          "name": "B2",
          "midi": 47,
          "time": 425.9995740000137,
          "velocity": 1,
          "duration": 0.16666650000001937
        },
        {
          "name": "D#4",
          "midi": 63,
          "time": 425.9995740000137,
          "velocity": 1,
          "duration": 0.16666650000001937
        },
        {
          "name": "D#3",
          "midi": 51,
          "time": 425.9995740000137,
          "velocity": 1,
          "duration": 0.16666650000001937
        },
        {
          "name": "D#3",
          "midi": 51,
          "time": 426.1662405000137,
          "velocity": 1,
          "duration": 0.33333300000003874
        },
        {
          "name": "G#4",
          "midi": 68,
          "time": 426.1662405000137,
          "velocity": 1,
          "duration": 0.33333300000003874
        },
        {
          "name": "D#4",
          "midi": 63,
          "time": 426.1662405000137,
          "velocity": 1,
          "duration": 0.33333300000003874
        },
        {
          "name": "B2",
          "midi": 47,
          "time": 426.1662405000137,
          "velocity": 1,
          "duration": 0.16666650000001937
        },
        {
          "name": "B2",
          "midi": 47,
          "time": 426.33290700001373,
          "velocity": 1,
          "duration": 0.16666650000001937
        },
        {
          "name": "D#3",
          "midi": 51,
          "time": 426.49957350001375,
          "velocity": 1,
          "duration": 0.33333300000003874
        },
        {
          "name": "G#4",
          "midi": 68,
          "time": 426.49957350001375,
          "velocity": 1,
          "duration": 0.33333300000003874
        },
        {
          "name": "D#4",
          "midi": 63,
          "time": 426.49957350001375,
          "velocity": 1,
          "duration": 0.33333300000003874
        },
        {
          "name": "B2",
          "midi": 47,
          "time": 426.49957350001375,
          "velocity": 1,
          "duration": 0.16666650000001937
        },
        {
          "name": "B2",
          "midi": 47,
          "time": 426.6662400000138,
          "velocity": 1,
          "duration": 0.16666650000001937
        },
        {
          "name": "D#3",
          "midi": 51,
          "time": 426.8329065000138,
          "velocity": 1,
          "duration": 0.16666650000001937
        },
        {
          "name": "G#4",
          "midi": 68,
          "time": 426.8329065000138,
          "velocity": 1,
          "duration": 0.24999975000002905
        },
        {
          "name": "D#4",
          "midi": 63,
          "time": 426.8329065000138,
          "velocity": 1,
          "duration": 0.16666650000001937
        },
        {
          "name": "B2",
          "midi": 47,
          "time": 426.8329065000138,
          "velocity": 1,
          "duration": 0.16666650000001937
        },
        {
          "name": "A#2",
          "midi": 46,
          "time": 426.9995730000138,
          "velocity": 1,
          "duration": 0.6666660000000775
        },
        {
          "name": "D4",
          "midi": 62,
          "time": 426.9995730000138,
          "velocity": 1,
          "duration": 0.08333325000000968
        },
        {
          "name": "F3",
          "midi": 53,
          "time": 426.9995730000138,
          "velocity": 1,
          "duration": 0.33333300000003874
        },
        {
          "name": "D4",
          "midi": 62,
          "time": 427.0829062500138,
          "velocity": 1,
          "duration": 0.08333325000000968
        },
        {
          "name": "F4",
          "midi": 65,
          "time": 427.0829062500138,
          "velocity": 1,
          "duration": 0.08333325000000968
        },
        {
          "name": "A#3",
          "midi": 58,
          "time": 427.0829062500138,
          "velocity": 1,
          "duration": 0.08333325000000968
        },
        {
          "name": "G#4",
          "midi": 68,
          "time": 427.0829062500138,
          "velocity": 1,
          "duration": 0.08333325000000968
        },
        {
          "name": "G#4",
          "midi": 68,
          "time": 427.16623950001383,
          "velocity": 1,
          "duration": 0.08333325000000968
        },
        {
          "name": "A#3",
          "midi": 58,
          "time": 427.16623950001383,
          "velocity": 1,
          "duration": 0.08333325000000968
        },
        {
          "name": "F4",
          "midi": 65,
          "time": 427.16623950001383,
          "velocity": 1,
          "duration": 0.08333325000000968
        },
        {
          "name": "D4",
          "midi": 62,
          "time": 427.16623950001383,
          "velocity": 1,
          "duration": 0.08333325000000968
        },
        {
          "name": "D4",
          "midi": 62,
          "time": 427.24957275001384,
          "velocity": 1,
          "duration": 0.08333325000000968
        },
        {
          "name": "F4",
          "midi": 65,
          "time": 427.24957275001384,
          "velocity": 1,
          "duration": 0.08333325000000968
        },
        {
          "name": "A#3",
          "midi": 58,
          "time": 427.24957275001384,
          "velocity": 1,
          "duration": 0.08333325000000968
        },
        {
          "name": "G#4",
          "midi": 68,
          "time": 427.24957275001384,
          "velocity": 1,
          "duration": 0.08333325000000968
        },
        {
          "name": "G#4",
          "midi": 68,
          "time": 427.33290600001385,
          "velocity": 1,
          "duration": 0.08333325000000968
        },
        {
          "name": "A#3",
          "midi": 58,
          "time": 427.33290600001385,
          "velocity": 1,
          "duration": 0.33333300000003874
        },
        {
          "name": "F4",
          "midi": 65,
          "time": 427.33290600001385,
          "velocity": 1,
          "duration": 0.08333325000000968
        },
        {
          "name": "D4",
          "midi": 62,
          "time": 427.33290600001385,
          "velocity": 1,
          "duration": 0.08333325000000968
        },
        {
          "name": "D4",
          "midi": 62,
          "time": 427.41623925001386,
          "velocity": 1,
          "duration": 0.08333325000000968
        },
        {
          "name": "F4",
          "midi": 65,
          "time": 427.41623925001386,
          "velocity": 1,
          "duration": 0.08333325000000968
        },
        {
          "name": "G#4",
          "midi": 68,
          "time": 427.41623925001386,
          "velocity": 1,
          "duration": 0.08333325000000968
        },
        {
          "name": "G#4",
          "midi": 68,
          "time": 427.49957250001387,
          "velocity": 1,
          "duration": 0.08333325000000968
        },
        {
          "name": "F4",
          "midi": 65,
          "time": 427.49957250001387,
          "velocity": 1,
          "duration": 0.08333325000000968
        },
        {
          "name": "D4",
          "midi": 62,
          "time": 427.49957250001387,
          "velocity": 1,
          "duration": 0.08333325000000968
        },
        {
          "name": "G#4",
          "midi": 68,
          "time": 427.5829057500139,
          "velocity": 1,
          "duration": 0.08333325000000968
        },
        {
          "name": "F4",
          "midi": 65,
          "time": 427.5829057500139,
          "velocity": 1,
          "duration": 0.08333325000000968
        },
        {
          "name": "D4",
          "midi": 62,
          "time": 427.5829057500139,
          "velocity": 1,
          "duration": 0.08333325000000968
        },
        {
          "name": "D4",
          "midi": 62,
          "time": 427.6662390000139,
          "velocity": 1,
          "duration": 0.33333300000003874
        },
        {
          "name": "F4",
          "midi": 65,
          "time": 427.6662390000139,
          "velocity": 1,
          "duration": 0.08333325000000968
        },
        {
          "name": "A#3",
          "midi": 58,
          "time": 427.6662390000139,
          "velocity": 1,
          "duration": 0.08333325000000968
        },
        {
          "name": "G#4",
          "midi": 68,
          "time": 427.6662390000139,
          "velocity": 1,
          "duration": 0.08333325000000968
        },
        {
          "name": "D3",
          "midi": 50,
          "time": 427.6662390000139,
          "velocity": 1,
          "duration": 0.33333300000003874
        },
        {
          "name": "G#4",
          "midi": 68,
          "time": 427.7495722500139,
          "velocity": 1,
          "duration": 0.08333325000000968
        },
        {
          "name": "A#3",
          "midi": 58,
          "time": 427.7495722500139,
          "velocity": 1,
          "duration": 0.08333325000000968
        },
        {
          "name": "F4",
          "midi": 65,
          "time": 427.7495722500139,
          "velocity": 1,
          "duration": 0.08333325000000968
        },
        {
          "name": "F4",
          "midi": 65,
          "time": 427.8329055000139,
          "velocity": 1,
          "duration": 0.08333325000000968
        },
        {
          "name": "A#3",
          "midi": 58,
          "time": 427.8329055000139,
          "velocity": 1,
          "duration": 0.08333325000000968
        },
        {
          "name": "G#4",
          "midi": 68,
          "time": 427.8329055000139,
          "velocity": 1,
          "duration": 0.08333325000000968
        },
        {
          "name": "G#4",
          "midi": 68,
          "time": 427.9162387500139,
          "velocity": 1,
          "duration": 0.08333325000000968
        },
        {
          "name": "A#3",
          "midi": 58,
          "time": 427.9162387500139,
          "velocity": 1,
          "duration": 0.08333325000000968
        },
        {
          "name": "F4",
          "midi": 65,
          "time": 427.9162387500139,
          "velocity": 1,
          "duration": 0.08333325000000968
        },
        {
          "name": "A#3",
          "midi": 58,
          "time": 427.9995720000139,
          "velocity": 1,
          "duration": 0.6666660000000775
        },
        {
          "name": "D4",
          "midi": 62,
          "time": 427.9995720000139,
          "velocity": 1,
          "duration": 0.08333325000000968
        },
        {
          "name": "F4",
          "midi": 65,
          "time": 427.9995720000139,
          "velocity": 1,
          "duration": 0.08333325000000968
        },
        {
          "name": "G#4",
          "midi": 68,
          "time": 427.9995720000139,
          "velocity": 1,
          "duration": 0.08333325000000968
        },
        {
          "name": "A#2",
          "midi": 46,
          "time": 427.9995720000139,
          "velocity": 1,
          "duration": 0.6666660000000775
        },
        {
          "name": "G#4",
          "midi": 68,
          "time": 428.08290525001394,
          "velocity": 1,
          "duration": 0.08333325000000968
        },
        {
          "name": "F4",
          "midi": 65,
          "time": 428.08290525001394,
          "velocity": 1,
          "duration": 0.08333325000000968
        },
        {
          "name": "D4",
          "midi": 62,
          "time": 428.08290525001394,
          "velocity": 1,
          "duration": 0.08333325000000968
        },
        {
          "name": "G#4",
          "midi": 68,
          "time": 428.16623850001395,
          "velocity": 1,
          "duration": 0.08333325000000968
        },
        {
          "name": "F4",
          "midi": 65,
          "time": 428.16623850001395,
          "velocity": 1,
          "duration": 0.08333325000000968
        },
        {
          "name": "D4",
          "midi": 62,
          "time": 428.16623850001395,
          "velocity": 1,
          "duration": 0.08333325000000968
        },
        {
          "name": "D4",
          "midi": 62,
          "time": 428.24957175001396,
          "velocity": 1,
          "duration": 0.08333325000000968
        },
        {
          "name": "F4",
          "midi": 65,
          "time": 428.24957175001396,
          "velocity": 1,
          "duration": 0.08333325000000968
        },
        {
          "name": "G#4",
          "midi": 68,
          "time": 428.24957175001396,
          "velocity": 1,
          "duration": 0.08333325000000968
        },
        {
          "name": "G#4",
          "midi": 68,
          "time": 428.33290500001397,
          "velocity": 1,
          "duration": 0.08333325000000968
        },
        {
          "name": "F4",
          "midi": 65,
          "time": 428.33290500001397,
          "velocity": 1,
          "duration": 0.08333325000000968
        },
        {
          "name": "D4",
          "midi": 62,
          "time": 428.33290500001397,
          "velocity": 1,
          "duration": 0.08333325000000968
        },
        {
          "name": "G#4",
          "midi": 68,
          "time": 428.416238250014,
          "velocity": 1,
          "duration": 0.08333325000000968
        },
        {
          "name": "F4",
          "midi": 65,
          "time": 428.416238250014,
          "velocity": 1,
          "duration": 0.08333325000000968
        },
        {
          "name": "D4",
          "midi": 62,
          "time": 428.416238250014,
          "velocity": 1,
          "duration": 0.08333325000000968
        },
        {
          "name": "G#4",
          "midi": 68,
          "time": 428.499571500014,
          "velocity": 1,
          "duration": 0.08333325000000968
        },
        {
          "name": "F4",
          "midi": 65,
          "time": 428.499571500014,
          "velocity": 1,
          "duration": 0.08333325000000968
        },
        {
          "name": "D4",
          "midi": 62,
          "time": 428.499571500014,
          "velocity": 1,
          "duration": 0.08333325000000968
        },
        {
          "name": "D4",
          "midi": 62,
          "time": 428.582904750014,
          "velocity": 1,
          "duration": 0.08333325000000968
        },
        {
          "name": "F4",
          "midi": 65,
          "time": 428.582904750014,
          "velocity": 1,
          "duration": 0.08333325000000968
        },
        {
          "name": "G#4",
          "midi": 68,
          "time": 428.582904750014,
          "velocity": 1,
          "duration": 0.08333325000000968
        },
        {
          "name": "F2",
          "midi": 41,
          "time": 428.666238000014,
          "velocity": 1,
          "duration": 0.33333300000003874
        },
        {
          "name": "G#4",
          "midi": 68,
          "time": 428.666238000014,
          "velocity": 1,
          "duration": 0.08333325000000968
        },
        {
          "name": "A#3",
          "midi": 58,
          "time": 428.666238000014,
          "velocity": 1,
          "duration": 0.08333325000000968
        },
        {
          "name": "F4",
          "midi": 65,
          "time": 428.666238000014,
          "velocity": 1,
          "duration": 0.08333325000000968
        },
        {
          "name": "D4",
          "midi": 62,
          "time": 428.666238000014,
          "velocity": 1,
          "duration": 0.08333325000000968
        },
        {
          "name": "F3",
          "midi": 53,
          "time": 428.666238000014,
          "velocity": 1,
          "duration": 0.33333300000003874
        },
        {
          "name": "G#4",
          "midi": 68,
          "time": 428.749571250014,
          "velocity": 1,
          "duration": 0.08333325000000968
        },
        {
          "name": "A#3",
          "midi": 58,
          "time": 428.749571250014,
          "velocity": 1,
          "duration": 0.08333325000000968
        },
        {
          "name": "F4",
          "midi": 65,
          "time": 428.749571250014,
          "velocity": 1,
          "duration": 0.08333325000000968
        },
        {
          "name": "D4",
          "midi": 62,
          "time": 428.749571250014,
          "velocity": 1,
          "duration": 0.08333325000000968
        },
        {
          "name": "D4",
          "midi": 62,
          "time": 428.832904500014,
          "velocity": 1,
          "duration": 0.08333325000000968
        },
        {
          "name": "F4",
          "midi": 65,
          "time": 428.832904500014,
          "velocity": 1,
          "duration": 0.08333325000000968
        },
        {
          "name": "A#3",
          "midi": 58,
          "time": 428.832904500014,
          "velocity": 1,
          "duration": 0.08333325000000968
        },
        {
          "name": "G#4",
          "midi": 68,
          "time": 428.832904500014,
          "velocity": 1,
          "duration": 0.08333325000000968
        },
        {
          "name": "G#4",
          "midi": 68,
          "time": 428.91623775001403,
          "velocity": 1,
          "duration": 0.08333325000000968
        },
        {
          "name": "A#3",
          "midi": 58,
          "time": 428.91623775001403,
          "velocity": 1,
          "duration": 0.08333325000000968
        },
        {
          "name": "F4",
          "midi": 65,
          "time": 428.91623775001403,
          "velocity": 1,
          "duration": 0.08333325000000968
        },
        {
          "name": "D4",
          "midi": 62,
          "time": 428.91623775001403,
          "velocity": 1,
          "duration": 0.08333325000000968
        },
        {
          "name": "A#2",
          "midi": 46,
          "time": 428.99957100001404,
          "velocity": 1,
          "duration": 0.16666650000001937
        },
        {
          "name": "G#4",
          "midi": 68,
          "time": 428.99957100001404,
          "velocity": 1,
          "duration": 0.08333325000000968
        },
        {
          "name": "A#3",
          "midi": 58,
          "time": 428.99957100001404,
          "velocity": 1,
          "duration": 0.16666650000001937
        },
        {
          "name": "F4",
          "midi": 65,
          "time": 428.99957100001404,
          "velocity": 1,
          "duration": 0.08333325000000968
        },
        {
          "name": "D4",
          "midi": 62,
          "time": 428.99957100001404,
          "velocity": 1,
          "duration": 0.08333325000000968
        },
        {
          "name": "D4",
          "midi": 62,
          "time": 429.08290425001405,
          "velocity": 1,
          "duration": 0.08333325000000968
        },
        {
          "name": "F4",
          "midi": 65,
          "time": 429.08290425001405,
          "velocity": 1,
          "duration": 0.08333325000000968
        },
        {
          "name": "G#4",
          "midi": 68,
          "time": 429.08290425001405,
          "velocity": 1,
          "duration": 0.08333325000000968
        },
        {
          "name": "D3",
          "midi": 50,
          "time": 429.16623750001406,
          "velocity": 1,
          "duration": 0.16666650000001937
        },
        {
          "name": "G#4",
          "midi": 68,
          "time": 429.16623750001406,
          "velocity": 1,
          "duration": 0.08333325000000968
        },
        {
          "name": "A#3",
          "midi": 58,
          "time": 429.16623750001406,
          "velocity": 1,
          "duration": 0.08333325000000968
        },
        {
          "name": "F4",
          "midi": 65,
          "time": 429.16623750001406,
          "velocity": 1,
          "duration": 0.08333325000000968
        },
        {
          "name": "D4",
          "midi": 62,
          "time": 429.16623750001406,
          "velocity": 1,
          "duration": 0.16666650000001937
        },
        {
          "name": "G#4",
          "midi": 68,
          "time": 429.2495707500141,
          "velocity": 1,
          "duration": 0.08333325000000968
        },
        {
          "name": "A#3",
          "midi": 58,
          "time": 429.2495707500141,
          "velocity": 1,
          "duration": 0.08333325000000968
        },
        {
          "name": "F4",
          "midi": 65,
          "time": 429.2495707500141,
          "velocity": 1,
          "duration": 0.08333325000000968
        },
        {
          "name": "F4",
          "midi": 65,
          "time": 429.3329040000141,
          "velocity": 1,
          "duration": 0.16666650000001937
        },
        {
          "name": "D4",
          "midi": 62,
          "time": 429.3329040000141,
          "velocity": 1,
          "duration": 0.08333325000000968
        },
        {
          "name": "A#3",
          "midi": 58,
          "time": 429.3329040000141,
          "velocity": 1,
          "duration": 0.08333325000000968
        },
        {
          "name": "G#4",
          "midi": 68,
          "time": 429.3329040000141,
          "velocity": 1,
          "duration": 0.08333325000000968
        },
        {
          "name": "F3",
          "midi": 53,
          "time": 429.3329040000141,
          "velocity": 1,
          "duration": 0.16666650000001937
        },
        {
          "name": "G#4",
          "midi": 68,
          "time": 429.4162372500141,
          "velocity": 1,
          "duration": 0.08333325000000968
        },
        {
          "name": "A#3",
          "midi": 58,
          "time": 429.4162372500141,
          "velocity": 1,
          "duration": 0.08333325000000968
        },
        {
          "name": "D4",
          "midi": 62,
          "time": 429.4162372500141,
          "velocity": 1,
          "duration": 0.08333325000000968
        },
        {
          "name": "A#3",
          "midi": 58,
          "time": 429.4995705000141,
          "velocity": 1,
          "duration": 0.16666650000001937
        },
        {
          "name": "D4",
          "midi": 62,
          "time": 429.4995705000141,
          "velocity": 1,
          "duration": 0.08333325000000968
        },
        {
          "name": "F4",
          "midi": 65,
          "time": 429.4995705000141,
          "velocity": 1,
          "duration": 0.08333325000000968
        },
        {
          "name": "G#4",
          "midi": 68,
          "time": 429.4995705000141,
          "velocity": 1,
          "duration": 0.08333325000000968
        },
        {
          "name": "A#2",
          "midi": 46,
          "time": 429.4995705000141,
          "velocity": 1,
          "duration": 0.16666650000001937
        },
        {
          "name": "D4",
          "midi": 62,
          "time": 429.5829037500141,
          "velocity": 1,
          "duration": 0.08333325000000968
        },
        {
          "name": "F4",
          "midi": 65,
          "time": 429.5829037500141,
          "velocity": 1,
          "duration": 0.08333325000000968
        },
        {
          "name": "G#4",
          "midi": 68,
          "time": 429.5829037500141,
          "velocity": 1,
          "duration": 0.08333325000000968
        },
        {
          "name": "D3",
          "midi": 50,
          "time": 429.6662370000141,
          "velocity": 1,
          "duration": 0.16666650000001937
        },
        {
          "name": "G#4",
          "midi": 68,
          "time": 429.6662370000141,
          "velocity": 1,
          "duration": 0.08333325000000968
        },
        {
          "name": "A#3",
          "midi": 58,
          "time": 429.6662370000141,
          "velocity": 1,
          "duration": 0.08333325000000968
        },
        {
          "name": "F4",
          "midi": 65,
          "time": 429.6662370000141,
          "velocity": 1,
          "duration": 0.08333325000000968
        },
        {
          "name": "D4",
          "midi": 62,
          "time": 429.6662370000141,
          "velocity": 1,
          "duration": 0.16666650000001937
        },
        {
          "name": "G#4",
          "midi": 68,
          "time": 429.74957025001413,
          "velocity": 1,
          "duration": 0.08333325000000968
        },
        {
          "name": "A#3",
          "midi": 58,
          "time": 429.74957025001413,
          "velocity": 1,
          "duration": 0.08333325000000968
        },
        {
          "name": "F4",
          "midi": 65,
          "time": 429.74957025001413,
          "velocity": 1,
          "duration": 0.08333325000000968
        },
        {
          "name": "F4",
          "midi": 65,
          "time": 429.83290350001414,
          "velocity": 1,
          "duration": 0.16666650000001937
        },
        {
          "name": "D4",
          "midi": 62,
          "time": 429.83290350001414,
          "velocity": 1,
          "duration": 0.08333325000000968
        },
        {
          "name": "A#3",
          "midi": 58,
          "time": 429.83290350001414,
          "velocity": 1,
          "duration": 0.08333325000000968
        },
        {
          "name": "G#4",
          "midi": 68,
          "time": 429.83290350001414,
          "velocity": 1,
          "duration": 0.08333325000000968
        },
        {
          "name": "F3",
          "midi": 53,
          "time": 429.83290350001414,
          "velocity": 1,
          "duration": 0.16666650000001937
        },
        {
          "name": "G#4",
          "midi": 68,
          "time": 429.91623675001415,
          "velocity": 1,
          "duration": 0.08333325000000968
        },
        {
          "name": "A#3",
          "midi": 58,
          "time": 429.91623675001415,
          "velocity": 1,
          "duration": 0.08333325000000968
        },
        {
          "name": "D4",
          "midi": 62,
          "time": 429.91623675001415,
          "velocity": 1,
          "duration": 0.08333325000000968
        },
        {
          "name": "G#4",
          "midi": 68,
          "time": 429.99957000001416,
          "velocity": 1,
          "duration": 0.16666650000001937
        },
        {
          "name": "D4",
          "midi": 62,
          "time": 429.99957000001416,
          "velocity": 1,
          "duration": 0.08333325000000968
        },
        {
          "name": "F4",
          "midi": 65,
          "time": 429.99957000001416,
          "velocity": 1,
          "duration": 0.08333325000000968
        },
        {
          "name": "A#3",
          "midi": 58,
          "time": 429.99957000001416,
          "velocity": 1,
          "duration": 0.08333325000000968
        },
        {
          "name": "G#3",
          "midi": 56,
          "time": 429.99957000001416,
          "velocity": 1,
          "duration": 0.16666650000001937
        },
        {
          "name": "D4",
          "midi": 62,
          "time": 430.08290325001417,
          "velocity": 1,
          "duration": 0.08333325000000968
        },
        {
          "name": "F4",
          "midi": 65,
          "time": 430.08290325001417,
          "velocity": 1,
          "duration": 0.08333325000000968
        },
        {
          "name": "A#3",
          "midi": 58,
          "time": 430.08290325001417,
          "velocity": 1,
          "duration": 0.08333325000000968
        },
        {
          "name": "D3",
          "midi": 50,
          "time": 430.1662365000142,
          "velocity": 1,
          "duration": 0.16666650000001937
        },
        {
          "name": "G#4",
          "midi": 68,
          "time": 430.1662365000142,
          "velocity": 1,
          "duration": 0.08333325000000968
        },
        {
          "name": "A#3",
          "midi": 58,
          "time": 430.1662365000142,
          "velocity": 1,
          "duration": 0.08333325000000968
        },
        {
          "name": "F4",
          "midi": 65,
          "time": 430.1662365000142,
          "velocity": 1,
          "duration": 0.08333325000000968
        },
        {
          "name": "D4",
          "midi": 62,
          "time": 430.1662365000142,
          "velocity": 1,
          "duration": 0.16666650000001937
        },
        {
          "name": "G#4",
          "midi": 68,
          "time": 430.2495697500142,
          "velocity": 1,
          "duration": 0.08333325000000968
        },
        {
          "name": "A#3",
          "midi": 58,
          "time": 430.2495697500142,
          "velocity": 1,
          "duration": 0.08333325000000968
        },
        {
          "name": "F4",
          "midi": 65,
          "time": 430.2495697500142,
          "velocity": 1,
          "duration": 0.08333325000000968
        },
        {
          "name": "F4",
          "midi": 65,
          "time": 430.3329030000142,
          "velocity": 1,
          "duration": 0.16666650000001937
        },
        {
          "name": "D4",
          "midi": 62,
          "time": 430.3329030000142,
          "velocity": 1,
          "duration": 0.08333325000000968
        },
        {
          "name": "A#3",
          "midi": 58,
          "time": 430.3329030000142,
          "velocity": 1,
          "duration": 0.08333325000000968
        },
        {
          "name": "G#4",
          "midi": 68,
          "time": 430.3329030000142,
          "velocity": 1,
          "duration": 0.08333325000000968
        },
        {
          "name": "F3",
          "midi": 53,
          "time": 430.3329030000142,
          "velocity": 1,
          "duration": 0.16666650000001937
        },
        {
          "name": "G#4",
          "midi": 68,
          "time": 430.4162362500142,
          "velocity": 1,
          "duration": 0.08333325000000968
        },
        {
          "name": "A#3",
          "midi": 58,
          "time": 430.4162362500142,
          "velocity": 1,
          "duration": 0.08333325000000968
        },
        {
          "name": "D4",
          "midi": 62,
          "time": 430.4162362500142,
          "velocity": 1,
          "duration": 0.08333325000000968
        },
        {
          "name": "G#4",
          "midi": 68,
          "time": 430.4995695000142,
          "velocity": 1,
          "duration": 0.16666650000001937
        },
        {
          "name": "D4",
          "midi": 62,
          "time": 430.4995695000142,
          "velocity": 1,
          "duration": 0.08333325000000968
        },
        {
          "name": "F4",
          "midi": 65,
          "time": 430.4995695000142,
          "velocity": 1,
          "duration": 0.08333325000000968
        },
        {
          "name": "A#3",
          "midi": 58,
          "time": 430.4995695000142,
          "velocity": 1,
          "duration": 0.08333325000000968
        },
        {
          "name": "G#3",
          "midi": 56,
          "time": 430.4995695000142,
          "velocity": 1,
          "duration": 0.16666650000001937
        },
        {
          "name": "D4",
          "midi": 62,
          "time": 430.5829027500142,
          "velocity": 1,
          "duration": 0.08333325000000968
        },
        {
          "name": "F4",
          "midi": 65,
          "time": 430.5829027500142,
          "velocity": 1,
          "duration": 0.08333325000000968
        },
        {
          "name": "A#3",
          "midi": 58,
          "time": 430.5829027500142,
          "velocity": 1,
          "duration": 0.08333325000000968
        },
        {
          "name": "C4",
          "midi": 60,
          "time": 430.66623600001424,
          "velocity": 1,
          "duration": 0.16666650000001937
        },
        {
          "name": "G#4",
          "midi": 68,
          "time": 430.66623600001424,
          "velocity": 1,
          "duration": 0.08333325000000968
        },
        {
          "name": "A#3",
          "midi": 58,
          "time": 430.66623600001424,
          "velocity": 1,
          "duration": 0.08333325000000968
        },
        {
          "name": "F4",
          "midi": 65,
          "time": 430.66623600001424,
          "velocity": 1,
          "duration": 0.08333325000000968
        },
        {
          "name": "D4",
          "midi": 62,
          "time": 430.66623600001424,
          "velocity": 1,
          "duration": 0.08333325000000968
        },
        {
          "name": "C5",
          "midi": 72,
          "time": 430.66623600001424,
          "velocity": 1,
          "duration": 0.16666650000001937
        },
        {
          "name": "G#4",
          "midi": 68,
          "time": 430.74956925001425,
          "velocity": 1,
          "duration": 0.08333325000000968
        },
        {
          "name": "A#3",
          "midi": 58,
          "time": 430.74956925001425,
          "velocity": 1,
          "duration": 0.08333325000000968
        },
        {
          "name": "F4",
          "midi": 65,
          "time": 430.74956925001425,
          "velocity": 1,
          "duration": 0.08333325000000968
        },
        {
          "name": "D4",
          "midi": 62,
          "time": 430.74956925001425,
          "velocity": 1,
          "duration": 0.08333325000000968
        },
        {
          "name": "A#4",
          "midi": 70,
          "time": 430.83290250001426,
          "velocity": 1,
          "duration": 0.16666650000001937
        },
        {
          "name": "D4",
          "midi": 62,
          "time": 430.83290250001426,
          "velocity": 1,
          "duration": 0.08333325000000968
        },
        {
          "name": "F4",
          "midi": 65,
          "time": 430.83290250001426,
          "velocity": 1,
          "duration": 0.08333325000000968
        },
        {
          "name": "A#3",
          "midi": 58,
          "time": 430.83290250001426,
          "velocity": 1,
          "duration": 0.16666650000001937
        },
        {
          "name": "G#4",
          "midi": 68,
          "time": 430.83290250001426,
          "velocity": 1,
          "duration": 0.08333325000000968
        },
        {
          "name": "G#4",
          "midi": 68,
          "time": 430.91623575001427,
          "velocity": 1,
          "duration": 0.08333325000000968
        },
        {
          "name": "F4",
          "midi": 65,
          "time": 430.91623575001427,
          "velocity": 1,
          "duration": 0.08333325000000968
        },
        {
          "name": "D4",
          "midi": 62,
          "time": 430.91623575001427,
          "velocity": 1,
          "duration": 0.08333325000000968
        },
        {
          "name": "G#4",
          "midi": 68,
          "time": 430.9995690000143,
          "velocity": 1,
          "duration": 0.16666650000001937
        },
        {
          "name": "D4",
          "midi": 62,
          "time": 430.9995690000143,
          "velocity": 1,
          "duration": 0.08333325000000968
        },
        {
          "name": "F4",
          "midi": 65,
          "time": 430.9995690000143,
          "velocity": 1,
          "duration": 0.08333325000000968
        },
        {
          "name": "A#3",
          "midi": 58,
          "time": 430.9995690000143,
          "velocity": 1,
          "duration": 0.08333325000000968
        },
        {
          "name": "G#3",
          "midi": 56,
          "time": 430.9995690000143,
          "velocity": 1,
          "duration": 0.16666650000001937
        },
        {
          "name": "D4",
          "midi": 62,
          "time": 431.0829022500143,
          "velocity": 1,
          "duration": 0.08333325000000968
        },
        {
          "name": "F4",
          "midi": 65,
          "time": 431.0829022500143,
          "velocity": 1,
          "duration": 0.08333325000000968
        },
        {
          "name": "A#3",
          "midi": 58,
          "time": 431.0829022500143,
          "velocity": 1,
          "duration": 0.08333325000000968
        },
        {
          "name": "A#3",
          "midi": 58,
          "time": 431.1662355000143,
          "velocity": 1,
          "duration": 0.16666650000001937
        },
        {
          "name": "G#4",
          "midi": 68,
          "time": 431.1662355000143,
          "velocity": 1,
          "duration": 0.08333325000000968
        },
        {
          "name": "F4",
          "midi": 65,
          "time": 431.1662355000143,
          "velocity": 1,
          "duration": 0.08333325000000968
        },
        {
          "name": "D4",
          "midi": 62,
          "time": 431.1662355000143,
          "velocity": 1,
          "duration": 0.08333325000000968
        },
        {
          "name": "A#4",
          "midi": 70,
          "time": 431.1662355000143,
          "velocity": 1,
          "duration": 0.16666650000001937
        },
        {
          "name": "G#4",
          "midi": 68,
          "time": 431.2495687500143,
          "velocity": 1,
          "duration": 0.08333325000000968
        },
        {
          "name": "F4",
          "midi": 65,
          "time": 431.2495687500143,
          "velocity": 1,
          "duration": 0.08333325000000968
        },
        {
          "name": "D4",
          "midi": 62,
          "time": 431.2495687500143,
          "velocity": 1,
          "duration": 0.08333325000000968
        },
        {
          "name": "G#4",
          "midi": 68,
          "time": 431.3329020000143,
          "velocity": 1,
          "duration": 0.16666650000001937
        },
        {
          "name": "D4",
          "midi": 62,
          "time": 431.3329020000143,
          "velocity": 1,
          "duration": 0.08333325000000968
        },
        {
          "name": "F4",
          "midi": 65,
          "time": 431.3329020000143,
          "velocity": 1,
          "duration": 0.08333325000000968
        },
        {
          "name": "A#3",
          "midi": 58,
          "time": 431.3329020000143,
          "velocity": 1,
          "duration": 0.08333325000000968
        },
        {
          "name": "G#3",
          "midi": 56,
          "time": 431.3329020000143,
          "velocity": 1,
          "duration": 0.16666650000001937
        },
        {
          "name": "A#3",
          "midi": 58,
          "time": 431.4162352500143,
          "velocity": 1,
          "duration": 0.08333325000000968
        },
        {
          "name": "F4",
          "midi": 65,
          "time": 431.4162352500143,
          "velocity": 1,
          "duration": 0.08333325000000968
        },
        {
          "name": "D4",
          "midi": 62,
          "time": 431.4162352500143,
          "velocity": 1,
          "duration": 0.08333325000000968
        },
        {
          "name": "G4",
          "midi": 67,
          "time": 431.49956850001433,
          "velocity": 1,
          "duration": 0.16666650000001937
        },
        {
          "name": "D4",
          "midi": 62,
          "time": 431.49956850001433,
          "velocity": 1,
          "duration": 0.08333325000000968
        },
        {
          "name": "F4",
          "midi": 65,
          "time": 431.49956850001433,
          "velocity": 1,
          "duration": 0.08333325000000968
        },
        {
          "name": "A#3",
          "midi": 58,
          "time": 431.49956850001433,
          "velocity": 1,
          "duration": 0.08333325000000968
        },
        {
          "name": "G#4",
          "midi": 68,
          "time": 431.49956850001433,
          "velocity": 1,
          "duration": 0.08333325000000968
        },
        {
          "name": "G3",
          "midi": 55,
          "time": 431.49956850001433,
          "velocity": 1,
          "duration": 0.16666650000001937
        },
        {
          "name": "D4",
          "midi": 62,
          "time": 431.58290175001434,
          "velocity": 1,
          "duration": 0.08333325000000968
        },
        {
          "name": "F4",
          "midi": 65,
          "time": 431.58290175001434,
          "velocity": 1,
          "duration": 0.08333325000000968
        },
        {
          "name": "A#3",
          "midi": 58,
          "time": 431.58290175001434,
          "velocity": 1,
          "duration": 0.08333325000000968
        },
        {
          "name": "G#4",
          "midi": 68,
          "time": 431.58290175001434,
          "velocity": 1,
          "duration": 0.08333325000000968
        },
        {
          "name": "F3",
          "midi": 53,
          "time": 431.66623500001435,
          "velocity": 1,
          "duration": 0.16666650000001937
        },
        {
          "name": "A#4",
          "midi": 70,
          "time": 431.66623500001435,
          "velocity": 1,
          "duration": 0.08333325000000968
        },
        {
          "name": "G#4",
          "midi": 68,
          "time": 431.66623500001435,
          "velocity": 1,
          "duration": 0.08333325000000968
        },
        {
          "name": "F4",
          "midi": 65,
          "time": 431.66623500001435,
          "velocity": 1,
          "duration": 0.16666650000001937
        },
        {
          "name": "A#4",
          "midi": 70,
          "time": 431.74956825001436,
          "velocity": 1,
          "duration": 0.08333325000000968
        },
        {
          "name": "G#4",
          "midi": 68,
          "time": 431.74956825001436,
          "velocity": 1,
          "duration": 0.08333325000000968
        },
        {
          "name": "D#3",
          "midi": 51,
          "time": 431.8329015000144,
          "velocity": 1,
          "duration": 0.16666650000001937
        },
        {
          "name": "C5",
          "midi": 72,
          "time": 431.8329015000144,
          "velocity": 1,
          "duration": 0.08333325000000968
        },
        {
          "name": "G4",
          "midi": 67,
          "time": 431.8329015000144,
          "velocity": 1,
          "duration": 0.08333325000000968
        },
        {
          "name": "D#4",
          "midi": 63,
          "time": 431.8329015000144,
          "velocity": 1,
          "duration": 0.16666650000001937
        },
        {
          "name": "G4",
          "midi": 67,
          "time": 431.9162347500144,
          "velocity": 1,
          "duration": 0.08333325000000968
        },
        {
          "name": "C5",
          "midi": 72,
          "time": 431.9162347500144,
          "velocity": 1,
          "duration": 0.08333325000000968
        },
        {
          "name": "D3",
          "midi": 50,
          "time": 431.9995680000144,
          "velocity": 1,
          "duration": 0.16666650000001937
        },
        {
          "name": "D5",
          "midi": 74,
          "time": 431.9995680000144,
          "velocity": 1,
          "duration": 0.08333325000000968
        },
        {
          "name": "F4",
          "midi": 65,
          "time": 431.9995680000144,
          "velocity": 1,
          "duration": 0.08333325000000968
        },
        {
          "name": "D4",
          "midi": 62,
          "time": 431.9995680000144,
          "velocity": 1,
          "duration": 0.16666650000001937
        },
        {
          "name": "D5",
          "midi": 74,
          "time": 432.0829012500144,
          "velocity": 1,
          "duration": 0.08333325000000968
        },
        {
          "name": "F4",
          "midi": 65,
          "time": 432.0829012500144,
          "velocity": 1,
          "duration": 0.08333325000000968
        },
        {
          "name": "C4",
          "midi": 60,
          "time": 432.1662345000144,
          "velocity": 1,
          "duration": 0.16666650000001937
        },
        {
          "name": "D#4",
          "midi": 63,
          "time": 432.1662345000144,
          "velocity": 1,
          "duration": 0.08333325000000968
        },
        {
          "name": "D#5",
          "midi": 75,
          "time": 432.1662345000144,
          "velocity": 1,
          "duration": 0.08333325000000968
        },
        {
          "name": "C3",
          "midi": 48,
          "time": 432.1662345000144,
          "velocity": 1,
          "duration": 0.16666650000001937
        },
        {
          "name": "D#5",
          "midi": 75,
          "time": 432.2495677500144,
          "velocity": 1,
          "duration": 0.08333325000000968
        },
        {
          "name": "D#4",
          "midi": 63,
          "time": 432.2495677500144,
          "velocity": 1,
          "duration": 0.08333325000000968
        },
        {
          "name": "A#3",
          "midi": 58,
          "time": 432.33290100001443,
          "velocity": 1,
          "duration": 0.16666650000001937
        },
        {
          "name": "D4",
          "midi": 62,
          "time": 432.33290100001443,
          "velocity": 1,
          "duration": 0.08333325000000968
        },
        {
          "name": "F5",
          "midi": 77,
          "time": 432.33290100001443,
          "velocity": 1,
          "duration": 0.08333325000000968
        },
        {
          "name": "A#2",
          "midi": 46,
          "time": 432.33290100001443,
          "velocity": 1,
          "duration": 0.16666650000001937
        },
        {
          "name": "F5",
          "midi": 77,
          "time": 432.41623425001444,
          "velocity": 1,
          "duration": 0.08333325000000968
        },
        {
          "name": "D4",
          "midi": 62,
          "time": 432.41623425001444,
          "velocity": 1,
          "duration": 0.08333325000000968
        },
        {
          "name": "A#3",
          "midi": 58,
          "time": 432.49956750001445,
          "velocity": 1,
          "duration": 0.16666650000001937
        },
        {
          "name": "G5",
          "midi": 79,
          "time": 432.49956750001445,
          "velocity": 1,
          "duration": 0.08333325000000968
        },
        {
          "name": "D#4",
          "midi": 63,
          "time": 432.49956750001445,
          "velocity": 1,
          "duration": 0.08333325000000968
        },
        {
          "name": "A#4",
          "midi": 70,
          "time": 432.49956750001445,
          "velocity": 1,
          "duration": 0.16666650000001937
        },
        {
          "name": "G5",
          "midi": 79,
          "time": 432.58290075001446,
          "velocity": 1,
          "duration": 0.08333325000000968
        },
        {
          "name": "D#4",
          "midi": 63,
          "time": 432.58290075001446,
          "velocity": 1,
          "duration": 0.08333325000000968
        },
        {
          "name": "A#4",
          "midi": 70,
          "time": 432.66623400001447,
          "velocity": 1,
          "duration": 0.16666650000001937
        },
        {
          "name": "F4",
          "midi": 65,
          "time": 432.66623400001447,
          "velocity": 1,
          "duration": 0.08333325000000968
        },
        {
          "name": "G#5",
          "midi": 80,
          "time": 432.66623400001447,
          "velocity": 1,
          "duration": 0.08333325000000968
        },
        {
          "name": "A#3",
          "midi": 58,
          "time": 432.66623400001447,
          "velocity": 1,
          "duration": 0.16666650000001937
        },
        {
          "name": "G#5",
          "midi": 80,
          "time": 432.7495672500145,
          "velocity": 1,
          "duration": 0.08333325000000968
        },
        {
          "name": "F4",
          "midi": 65,
          "time": 432.7495672500145,
          "velocity": 1,
          "duration": 0.08333325000000968
        },
        {
          "name": "A#4",
          "midi": 70,
          "time": 432.8329005000145,
          "velocity": 1,
          "duration": 0.16666650000001937
        },
        {
          "name": "G#4",
          "midi": 68,
          "time": 432.8329005000145,
          "velocity": 1,
          "duration": 0.08333325000000968
        },
        {
          "name": "D5",
          "midi": 74,
          "time": 432.8329005000145,
          "velocity": 1,
          "duration": 0.08333325000000968
        },
        {
          "name": "A#3",
          "midi": 58,
          "time": 432.8329005000145,
          "velocity": 1,
          "duration": 0.16666650000001937
        },
        {
          "name": "D5",
          "midi": 74,
          "time": 432.9162337500145,
          "velocity": 1,
          "duration": 0.08333325000000968
        },
        {
          "name": "G#4",
          "midi": 68,
          "time": 432.9162337500145,
          "velocity": 1,
          "duration": 0.08333325000000968
        },
        {
          "name": "D#3",
          "midi": 51,
          "time": 432.9995670000145,
          "velocity": 1,
          "duration": 0.16666650000001937
        },
        {
          "name": "D#5",
          "midi": 75,
          "time": 432.9995670000145,
          "velocity": 1,
          "duration": 0.08333325000000968
        },
        {
          "name": "G4",
          "midi": 67,
          "time": 432.9995670000145,
          "velocity": 1,
          "duration": 0.08333325000000968
        },
        {
          "name": "D#4",
          "midi": 63,
          "time": 432.9995670000145,
          "velocity": 1,
          "duration": 0.08333325000000968
        },
        {
          "name": "G3",
          "midi": 55,
          "time": 433.0829002500145,
          "velocity": 1,
          "duration": 0.08333325000000968
        },
        {
          "name": "A#3",
          "midi": 58,
          "time": 433.0829002500145,
          "velocity": 1,
          "duration": 0.08333325000000968
        },
        {
          "name": "D#4",
          "midi": 63,
          "time": 433.0829002500145,
          "velocity": 1,
          "duration": 0.08333325000000968
        },
        {
          "name": "D#5",
          "midi": 75,
          "time": 433.0829002500145,
          "velocity": 1,
          "duration": 0.08333325000000968
        },
        {
          "name": "D#3",
          "midi": 51,
          "time": 433.1662335000145,
          "velocity": 1,
          "duration": 0.16666650000001937
        },
        {
          "name": "D#5",
          "midi": 75,
          "time": 433.1662335000145,
          "velocity": 1,
          "duration": 0.08333325000000968
        },
        {
          "name": "D#4",
          "midi": 63,
          "time": 433.1662335000145,
          "velocity": 1,
          "duration": 0.08333325000000968
        },
        {
          "name": "A#3",
          "midi": 58,
          "time": 433.1662335000145,
          "velocity": 1,
          "duration": 0.08333325000000968
        },
        {
          "name": "G3",
          "midi": 55,
          "time": 433.1662335000145,
          "velocity": 1,
          "duration": 0.08333325000000968
        },
        {
          "name": "D#5",
          "midi": 75,
          "time": 433.24956675001454,
          "velocity": 1,
          "duration": 0.08333325000000968
        },
        {
          "name": "D#4",
          "midi": 63,
          "time": 433.24956675001454,
          "velocity": 1,
          "duration": 0.08333325000000968
        },
        {
          "name": "A#3",
          "midi": 58,
          "time": 433.24956675001454,
          "velocity": 1,
          "duration": 0.08333325000000968
        },
        {
          "name": "G3",
          "midi": 55,
          "time": 433.24956675001454,
          "velocity": 1,
          "duration": 0.08333325000000968
        },
        {
          "name": "G3",
          "midi": 55,
          "time": 433.33290000001455,
          "velocity": 1,
          "duration": 0.08333325000000968
        },
        {
          "name": "A#3",
          "midi": 58,
          "time": 433.33290000001455,
          "velocity": 1,
          "duration": 0.08333325000000968
        },
        {
          "name": "D#4",
          "midi": 63,
          "time": 433.33290000001455,
          "velocity": 1,
          "duration": 0.08333325000000968
        },
        {
          "name": "D#5",
          "midi": 75,
          "time": 433.33290000001455,
          "velocity": 1,
          "duration": 0.08333325000000968
        },
        {
          "name": "D#3",
          "midi": 51,
          "time": 433.33290000001455,
          "velocity": 1,
          "duration": 0.16666650000001937
        },
        {
          "name": "D#5",
          "midi": 75,
          "time": 433.41623325001456,
          "velocity": 1,
          "duration": 0.08333325000000968
        },
        {
          "name": "D#4",
          "midi": 63,
          "time": 433.41623325001456,
          "velocity": 1,
          "duration": 0.08333325000000968
        },
        {
          "name": "A#3",
          "midi": 58,
          "time": 433.41623325001456,
          "velocity": 1,
          "duration": 0.08333325000000968
        },
        {
          "name": "G3",
          "midi": 55,
          "time": 433.41623325001456,
          "velocity": 1,
          "duration": 0.08333325000000968
        },
        {
          "name": "D#3",
          "midi": 51,
          "time": 433.49956650001457,
          "velocity": 1,
          "duration": 0.16666650000001937
        },
        {
          "name": "D#5",
          "midi": 75,
          "time": 433.49956650001457,
          "velocity": 1,
          "duration": 0.08333325000000968
        },
        {
          "name": "D#4",
          "midi": 63,
          "time": 433.49956650001457,
          "velocity": 1,
          "duration": 0.08333325000000968
        },
        {
          "name": "A#3",
          "midi": 58,
          "time": 433.49956650001457,
          "velocity": 1,
          "duration": 0.08333325000000968
        },
        {
          "name": "G3",
          "midi": 55,
          "time": 433.49956650001457,
          "velocity": 1,
          "duration": 0.08333325000000968
        },
        {
          "name": "G3",
          "midi": 55,
          "time": 433.5828997500146,
          "velocity": 1,
          "duration": 0.08333325000000968
        },
        {
          "name": "A#3",
          "midi": 58,
          "time": 433.5828997500146,
          "velocity": 1,
          "duration": 0.08333325000000968
        },
        {
          "name": "D#4",
          "midi": 63,
          "time": 433.5828997500146,
          "velocity": 1,
          "duration": 0.08333325000000968
        },
        {
          "name": "D#5",
          "midi": 75,
          "time": 433.5828997500146,
          "velocity": 1,
          "duration": 0.08333325000000968
        },
        {
          "name": "D#3",
          "midi": 51,
          "time": 433.6662330000146,
          "velocity": 1,
          "duration": 0.16666650000001937
        },
        {
          "name": "G5",
          "midi": 79,
          "time": 433.6662330000146,
          "velocity": 1,
          "duration": 0.08333325000000968
        },
        {
          "name": "G4",
          "midi": 67,
          "time": 433.6662330000146,
          "velocity": 1,
          "duration": 0.08333325000000968
        },
        {
          "name": "A#3",
          "midi": 58,
          "time": 433.6662330000146,
          "velocity": 1,
          "duration": 0.08333325000000968
        },
        {
          "name": "G3",
          "midi": 55,
          "time": 433.6662330000146,
          "velocity": 1,
          "duration": 0.08333325000000968
        },
        {
          "name": "G5",
          "midi": 79,
          "time": 433.7495662500146,
          "velocity": 1,
          "duration": 0.08333325000000968
        },
        {
          "name": "G4",
          "midi": 67,
          "time": 433.7495662500146,
          "velocity": 1,
          "duration": 0.08333325000000968
        },
        {
          "name": "A#3",
          "midi": 58,
          "time": 433.7495662500146,
          "velocity": 1,
          "duration": 0.08333325000000968
        },
        {
          "name": "G3",
          "midi": 55,
          "time": 433.7495662500146,
          "velocity": 1,
          "duration": 0.08333325000000968
        },
        {
          "name": "G3",
          "midi": 55,
          "time": 433.8328995000146,
          "velocity": 1,
          "duration": 0.08333325000000968
        },
        {
          "name": "A#3",
          "midi": 58,
          "time": 433.8328995000146,
          "velocity": 1,
          "duration": 0.08333325000000968
        },
        {
          "name": "G4",
          "midi": 67,
          "time": 433.8328995000146,
          "velocity": 1,
          "duration": 0.08333325000000968
        },
        {
          "name": "G5",
          "midi": 79,
          "time": 433.8328995000146,
          "velocity": 1,
          "duration": 0.08333325000000968
        },
        {
          "name": "D#3",
          "midi": 51,
          "time": 433.8328995000146,
          "velocity": 1,
          "duration": 0.16666650000001937
        },
        {
          "name": "G5",
          "midi": 79,
          "time": 433.9162327500146,
          "velocity": 1,
          "duration": 0.08333325000000968
        },
        {
          "name": "G4",
          "midi": 67,
          "time": 433.9162327500146,
          "velocity": 1,
          "duration": 0.08333325000000968
        },
        {
          "name": "A#3",
          "midi": 58,
          "time": 433.9162327500146,
          "velocity": 1,
          "duration": 0.08333325000000968
        },
        {
          "name": "G3",
          "midi": 55,
          "time": 433.9162327500146,
          "velocity": 1,
          "duration": 0.08333325000000968
        },
        {
          "name": "G3",
          "midi": 55,
          "time": 433.9995660000146,
          "velocity": 1,
          "duration": 0.08333325000000968
        },
        {
          "name": "A#3",
          "midi": 58,
          "time": 433.9995660000146,
          "velocity": 1,
          "duration": 0.08333325000000968
        },
        {
          "name": "D#4",
          "midi": 63,
          "time": 433.9995660000146,
          "velocity": 1,
          "duration": 0.08333325000000968
        },
        {
          "name": "D#5",
          "midi": 75,
          "time": 433.9995660000146,
          "velocity": 1,
          "duration": 0.08333325000000968
        },
        {
          "name": "D#3",
          "midi": 51,
          "time": 433.9995660000146,
          "velocity": 1,
          "duration": 0.16666650000001937
        },
        {
          "name": "D#5",
          "midi": 75,
          "time": 434.08289925001463,
          "velocity": 1,
          "duration": 0.08333325000000968
        },
        {
          "name": "D#4",
          "midi": 63,
          "time": 434.08289925001463,
          "velocity": 1,
          "duration": 0.08333325000000968
        },
        {
          "name": "A#3",
          "midi": 58,
          "time": 434.08289925001463,
          "velocity": 1,
          "duration": 0.08333325000000968
        },
        {
          "name": "G3",
          "midi": 55,
          "time": 434.08289925001463,
          "velocity": 1,
          "duration": 0.08333325000000968
        },
        {
          "name": "G3",
          "midi": 55,
          "time": 434.16623250001464,
          "velocity": 1,
          "duration": 0.08333325000000968
        },
        {
          "name": "A#3",
          "midi": 58,
          "time": 434.16623250001464,
          "velocity": 1,
          "duration": 0.08333325000000968
        },
        {
          "name": "D#4",
          "midi": 63,
          "time": 434.16623250001464,
          "velocity": 1,
          "duration": 0.08333325000000968
        },
        {
          "name": "D#5",
          "midi": 75,
          "time": 434.16623250001464,
          "velocity": 1,
          "duration": 0.08333325000000968
        },
        {
          "name": "D#3",
          "midi": 51,
          "time": 434.16623250001464,
          "velocity": 1,
          "duration": 0.16666650000001937
        },
        {
          "name": "D#5",
          "midi": 75,
          "time": 434.24956575001465,
          "velocity": 1,
          "duration": 0.08333325000000968
        },
        {
          "name": "D#4",
          "midi": 63,
          "time": 434.24956575001465,
          "velocity": 1,
          "duration": 0.08333325000000968
        },
        {
          "name": "A#3",
          "midi": 58,
          "time": 434.24956575001465,
          "velocity": 1,
          "duration": 0.08333325000000968
        },
        {
          "name": "G3",
          "midi": 55,
          "time": 434.24956575001465,
          "velocity": 1,
          "duration": 0.08333325000000968
        },
        {
          "name": "D#3",
          "midi": 51,
          "time": 434.33289900001466,
          "velocity": 1,
          "duration": 0.16666650000001937
        },
        {
          "name": "D#5",
          "midi": 75,
          "time": 434.33289900001466,
          "velocity": 1,
          "duration": 0.08333325000000968
        },
        {
          "name": "D#4",
          "midi": 63,
          "time": 434.33289900001466,
          "velocity": 1,
          "duration": 0.08333325000000968
        },
        {
          "name": "A#3",
          "midi": 58,
          "time": 434.33289900001466,
          "velocity": 1,
          "duration": 0.08333325000000968
        },
        {
          "name": "G3",
          "midi": 55,
          "time": 434.33289900001466,
          "velocity": 1,
          "duration": 0.08333325000000968
        },
        {
          "name": "G3",
          "midi": 55,
          "time": 434.4162322500147,
          "velocity": 1,
          "duration": 0.08333325000000968
        },
        {
          "name": "A#3",
          "midi": 58,
          "time": 434.4162322500147,
          "velocity": 1,
          "duration": 0.08333325000000968
        },
        {
          "name": "D#4",
          "midi": 63,
          "time": 434.4162322500147,
          "velocity": 1,
          "duration": 0.08333325000000968
        },
        {
          "name": "D#5",
          "midi": 75,
          "time": 434.4162322500147,
          "velocity": 1,
          "duration": 0.08333325000000968
        },
        {
          "name": "D#3",
          "midi": 51,
          "time": 434.4995655000147,
          "velocity": 1,
          "duration": 0.16666650000001937
        },
        {
          "name": "D#5",
          "midi": 75,
          "time": 434.4995655000147,
          "velocity": 1,
          "duration": 0.08333325000000968
        },
        {
          "name": "D#4",
          "midi": 63,
          "time": 434.4995655000147,
          "velocity": 1,
          "duration": 0.08333325000000968
        },
        {
          "name": "A#3",
          "midi": 58,
          "time": 434.4995655000147,
          "velocity": 1,
          "duration": 0.08333325000000968
        },
        {
          "name": "G3",
          "midi": 55,
          "time": 434.4995655000147,
          "velocity": 1,
          "duration": 0.08333325000000968
        },
        {
          "name": "D#5",
          "midi": 75,
          "time": 434.5828987500147,
          "velocity": 1,
          "duration": 0.08333325000000968
        },
        {
          "name": "D#4",
          "midi": 63,
          "time": 434.5828987500147,
          "velocity": 1,
          "duration": 0.08333325000000968
        },
        {
          "name": "A#3",
          "midi": 58,
          "time": 434.5828987500147,
          "velocity": 1,
          "duration": 0.08333325000000968
        },
        {
          "name": "G3",
          "midi": 55,
          "time": 434.5828987500147,
          "velocity": 1,
          "duration": 0.08333325000000968
        },
        {
          "name": "G3",
          "midi": 55,
          "time": 434.6662320000147,
          "velocity": 1,
          "duration": 0.08333325000000968
        },
        {
          "name": "A#3",
          "midi": 58,
          "time": 434.6662320000147,
          "velocity": 1,
          "duration": 0.08333325000000968
        },
        {
          "name": "A#4",
          "midi": 70,
          "time": 434.6662320000147,
          "velocity": 1,
          "duration": 0.08333325000000968
        },
        {
          "name": "D#3",
          "midi": 51,
          "time": 434.6662320000147,
          "velocity": 1,
          "duration": 0.16666650000001937
        },
        {
          "name": "A#4",
          "midi": 70,
          "time": 434.7495652500147,
          "velocity": 1,
          "duration": 0.08333325000000968
        },
        {
          "name": "A#3",
          "midi": 58,
          "time": 434.7495652500147,
          "velocity": 1,
          "duration": 0.08333325000000968
        },
        {
          "name": "G3",
          "midi": 55,
          "time": 434.7495652500147,
          "velocity": 1,
          "duration": 0.08333325000000968
        },
        {
          "name": "G3",
          "midi": 55,
          "time": 434.8328985000147,
          "velocity": 1,
          "duration": 0.08333325000000968
        },
        {
          "name": "A#3",
          "midi": 58,
          "time": 434.8328985000147,
          "velocity": 1,
          "duration": 0.08333325000000968
        },
        {
          "name": "A#4",
          "midi": 70,
          "time": 434.8328985000147,
          "velocity": 1,
          "duration": 0.08333325000000968
        },
        {
          "name": "D#3",
          "midi": 51,
          "time": 434.8328985000147,
          "velocity": 1,
          "duration": 0.16666650000001937
        },
        {
          "name": "A#4",
          "midi": 70,
          "time": 434.91623175001473,
          "velocity": 1,
          "duration": 0.08333325000000968
        },
        {
          "name": "A#3",
          "midi": 58,
          "time": 434.91623175001473,
          "velocity": 1,
          "duration": 0.08333325000000968
        },
        {
          "name": "G3",
          "midi": 55,
          "time": 434.91623175001473,
          "velocity": 1,
          "duration": 0.08333325000000968
        },
        {
          "name": "G3",
          "midi": 55,
          "time": 434.99956500001474,
          "velocity": 1,
          "duration": 0.08333325000000968
        },
        {
          "name": "A#3",
          "midi": 58,
          "time": 434.99956500001474,
          "velocity": 1,
          "duration": 0.08333325000000968
        },
        {
          "name": "D#4",
          "midi": 63,
          "time": 434.99956500001474,
          "velocity": 1,
          "duration": 0.08333325000000968
        },
        {
          "name": "D#5",
          "midi": 75,
          "time": 434.99956500001474,
          "velocity": 1,
          "duration": 0.08333325000000968
        },
        {
          "name": "D#3",
          "midi": 51,
          "time": 434.99956500001474,
          "velocity": 1,
          "duration": 0.16666650000001937
        },
        {
          "name": "D#5",
          "midi": 75,
          "time": 435.08289825001475,
          "velocity": 1,
          "duration": 0.08333325000000968
        },
        {
          "name": "D#4",
          "midi": 63,
          "time": 435.08289825001475,
          "velocity": 1,
          "duration": 0.08333325000000968
        },
        {
          "name": "A#3",
          "midi": 58,
          "time": 435.08289825001475,
          "velocity": 1,
          "duration": 0.08333325000000968
        },
        {
          "name": "G3",
          "midi": 55,
          "time": 435.08289825001475,
          "velocity": 1,
          "duration": 0.08333325000000968
        },
        {
          "name": "D#3",
          "midi": 51,
          "time": 435.16623150001476,
          "velocity": 1,
          "duration": 0.16666650000001937
        },
        {
          "name": "D#5",
          "midi": 75,
          "time": 435.16623150001476,
          "velocity": 1,
          "duration": 0.08333325000000968
        },
        {
          "name": "D#4",
          "midi": 63,
          "time": 435.16623150001476,
          "velocity": 1,
          "duration": 0.08333325000000968
        },
        {
          "name": "A#3",
          "midi": 58,
          "time": 435.16623150001476,
          "velocity": 1,
          "duration": 0.08333325000000968
        },
        {
          "name": "G3",
          "midi": 55,
          "time": 435.16623150001476,
          "velocity": 1,
          "duration": 0.08333325000000968
        },
        {
          "name": "G3",
          "midi": 55,
          "time": 435.24956475001477,
          "velocity": 1,
          "duration": 0.08333325000000968
        },
        {
          "name": "A#3",
          "midi": 58,
          "time": 435.24956475001477,
          "velocity": 1,
          "duration": 0.08333325000000968
        },
        {
          "name": "D#4",
          "midi": 63,
          "time": 435.24956475001477,
          "velocity": 1,
          "duration": 0.08333325000000968
        },
        {
          "name": "D#5",
          "midi": 75,
          "time": 435.24956475001477,
          "velocity": 1,
          "duration": 0.08333325000000968
        },
        {
          "name": "D#3",
          "midi": 51,
          "time": 435.3328980000148,
          "velocity": 1,
          "duration": 0.16666650000001937
        },
        {
          "name": "G5",
          "midi": 79,
          "time": 435.3328980000148,
          "velocity": 1,
          "duration": 0.08333325000000968
        },
        {
          "name": "G4",
          "midi": 67,
          "time": 435.3328980000148,
          "velocity": 1,
          "duration": 0.08333325000000968
        },
        {
          "name": "A#3",
          "midi": 58,
          "time": 435.3328980000148,
          "velocity": 1,
          "duration": 0.08333325000000968
        },
        {
          "name": "G3",
          "midi": 55,
          "time": 435.3328980000148,
          "velocity": 1,
          "duration": 0.08333325000000968
        },
        {
          "name": "G5",
          "midi": 79,
          "time": 435.4162312500148,
          "velocity": 1,
          "duration": 0.08333325000000968
        },
        {
          "name": "G4",
          "midi": 67,
          "time": 435.4162312500148,
          "velocity": 1,
          "duration": 0.08333325000000968
        },
        {
          "name": "A#3",
          "midi": 58,
          "time": 435.4162312500148,
          "velocity": 1,
          "duration": 0.08333325000000968
        },
        {
          "name": "G3",
          "midi": 55,
          "time": 435.4162312500148,
          "velocity": 1,
          "duration": 0.08333325000000968
        },
        {
          "name": "G3",
          "midi": 55,
          "time": 435.4995645000148,
          "velocity": 1,
          "duration": 0.08333325000000968
        },
        {
          "name": "A#3",
          "midi": 58,
          "time": 435.4995645000148,
          "velocity": 1,
          "duration": 0.08333325000000968
        },
        {
          "name": "G4",
          "midi": 67,
          "time": 435.4995645000148,
          "velocity": 1,
          "duration": 0.08333325000000968
        },
        {
          "name": "G5",
          "midi": 79,
          "time": 435.4995645000148,
          "velocity": 1,
          "duration": 0.08333325000000968
        },
        {
          "name": "D#3",
          "midi": 51,
          "time": 435.4995645000148,
          "velocity": 1,
          "duration": 0.16666650000001937
        },
        {
          "name": "G5",
          "midi": 79,
          "time": 435.5828977500148,
          "velocity": 1,
          "duration": 0.08333325000000968
        },
        {
          "name": "G4",
          "midi": 67,
          "time": 435.5828977500148,
          "velocity": 1,
          "duration": 0.08333325000000968
        },
        {
          "name": "A#3",
          "midi": 58,
          "time": 435.5828977500148,
          "velocity": 1,
          "duration": 0.08333325000000968
        },
        {
          "name": "G3",
          "midi": 55,
          "time": 435.5828977500148,
          "velocity": 1,
          "duration": 0.08333325000000968
        },
        {
          "name": "D#3",
          "midi": 51,
          "time": 435.6662310000148,
          "velocity": 1,
          "duration": 0.16666650000001937
        },
        {
          "name": "A#5",
          "midi": 82,
          "time": 435.6662310000148,
          "velocity": 1,
          "duration": 0.08333325000000968
        },
        {
          "name": "A#4",
          "midi": 70,
          "time": 435.6662310000148,
          "velocity": 1,
          "duration": 0.08333325000000968
        },
        {
          "name": "A#3",
          "midi": 58,
          "time": 435.6662310000148,
          "velocity": 1,
          "duration": 0.08333325000000968
        },
        {
          "name": "G3",
          "midi": 55,
          "time": 435.6662310000148,
          "velocity": 1,
          "duration": 0.08333325000000968
        },
        {
          "name": "G3",
          "midi": 55,
          "time": 435.7495642500148,
          "velocity": 1,
          "duration": 0.08333325000000968
        },
        {
          "name": "A#3",
          "midi": 58,
          "time": 435.7495642500148,
          "velocity": 1,
          "duration": 0.08333325000000968
        },
        {
          "name": "A#4",
          "midi": 70,
          "time": 435.7495642500148,
          "velocity": 1,
          "duration": 0.08333325000000968
        },
        {
          "name": "A#5",
          "midi": 82,
          "time": 435.7495642500148,
          "velocity": 1,
          "duration": 0.08333325000000968
        },
        {
          "name": "D#3",
          "midi": 51,
          "time": 435.83289750001484,
          "velocity": 1,
          "duration": 0.16666650000001937
        },
        {
          "name": "A#5",
          "midi": 82,
          "time": 435.83289750001484,
          "velocity": 1,
          "duration": 0.08333325000000968
        },
        {
          "name": "A#4",
          "midi": 70,
          "time": 435.83289750001484,
          "velocity": 1,
          "duration": 0.08333325000000968
        },
        {
          "name": "A#3",
          "midi": 58,
          "time": 435.83289750001484,
          "velocity": 1,
          "duration": 0.08333325000000968
        },
        {
          "name": "G3",
          "midi": 55,
          "time": 435.83289750001484,
          "velocity": 1,
          "duration": 0.08333325000000968
        },
        {
          "name": "A#5",
          "midi": 82,
          "time": 435.91623075001485,
          "velocity": 1,
          "duration": 0.08333325000000968
        },
        {
          "name": "A#4",
          "midi": 70,
          "time": 435.91623075001485,
          "velocity": 1,
          "duration": 0.08333325000000968
        },
        {
          "name": "A#3",
          "midi": 58,
          "time": 435.91623075001485,
          "velocity": 1,
          "duration": 0.08333325000000968
        },
        {
          "name": "G3",
          "midi": 55,
          "time": 435.91623075001485,
          "velocity": 1,
          "duration": 0.08333325000000968
        },
        {
          "name": "G3",
          "midi": 55,
          "time": 435.99956400001486,
          "velocity": 1,
          "duration": 0.08333325000000968
        },
        {
          "name": "A#3",
          "midi": 58,
          "time": 435.99956400001486,
          "velocity": 1,
          "duration": 0.08333325000000968
        },
        {
          "name": "D#4",
          "midi": 63,
          "time": 435.99956400001486,
          "velocity": 1,
          "duration": 0.08333325000000968
        },
        {
          "name": "D#5",
          "midi": 75,
          "time": 435.99956400001486,
          "velocity": 1,
          "duration": 0.08333325000000968
        },
        {
          "name": "D#3",
          "midi": 51,
          "time": 435.99956400001486,
          "velocity": 1,
          "duration": 0.16666650000001937
        },
        {
          "name": "D#5",
          "midi": 75,
          "time": 436.08289725001487,
          "velocity": 1,
          "duration": 0.08333325000000968
        },
        {
          "name": "D#4",
          "midi": 63,
          "time": 436.08289725001487,
          "velocity": 1,
          "duration": 0.08333325000000968
        },
        {
          "name": "A#3",
          "midi": 58,
          "time": 436.08289725001487,
          "velocity": 1,
          "duration": 0.08333325000000968
        },
        {
          "name": "G3",
          "midi": 55,
          "time": 436.08289725001487,
          "velocity": 1,
          "duration": 0.08333325000000968
        },
        {
          "name": "G3",
          "midi": 55,
          "time": 436.1662305000149,
          "velocity": 1,
          "duration": 0.08333325000000968
        },
        {
          "name": "A#3",
          "midi": 58,
          "time": 436.1662305000149,
          "velocity": 1,
          "duration": 0.08333325000000968
        },
        {
          "name": "D#4",
          "midi": 63,
          "time": 436.1662305000149,
          "velocity": 1,
          "duration": 0.08333325000000968
        },
        {
          "name": "D#5",
          "midi": 75,
          "time": 436.1662305000149,
          "velocity": 1,
          "duration": 0.08333325000000968
        },
        {
          "name": "D#3",
          "midi": 51,
          "time": 436.1662305000149,
          "velocity": 1,
          "duration": 0.16666650000001937
        },
        {
          "name": "D#5",
          "midi": 75,
          "time": 436.2495637500149,
          "velocity": 1,
          "duration": 0.08333325000000968
        },
        {
          "name": "D#4",
          "midi": 63,
          "time": 436.2495637500149,
          "velocity": 1,
          "duration": 0.08333325000000968
        },
        {
          "name": "A#3",
          "midi": 58,
          "time": 436.2495637500149,
          "velocity": 1,
          "duration": 0.08333325000000968
        },
        {
          "name": "G3",
          "midi": 55,
          "time": 436.2495637500149,
          "velocity": 1,
          "duration": 0.08333325000000968
        },
        {
          "name": "G3",
          "midi": 55,
          "time": 436.3328970000149,
          "velocity": 1,
          "duration": 0.08333325000000968
        },
        {
          "name": "A#3",
          "midi": 58,
          "time": 436.3328970000149,
          "velocity": 1,
          "duration": 0.08333325000000968
        },
        {
          "name": "D#4",
          "midi": 63,
          "time": 436.3328970000149,
          "velocity": 1,
          "duration": 0.08333325000000968
        },
        {
          "name": "D#5",
          "midi": 75,
          "time": 436.3328970000149,
          "velocity": 1,
          "duration": 0.08333325000000968
        },
        {
          "name": "D#3",
          "midi": 51,
          "time": 436.3328970000149,
          "velocity": 1,
          "duration": 0.16666650000001937
        },
        {
          "name": "D#5",
          "midi": 75,
          "time": 436.4162302500149,
          "velocity": 1,
          "duration": 0.08333325000000968
        },
        {
          "name": "D#4",
          "midi": 63,
          "time": 436.4162302500149,
          "velocity": 1,
          "duration": 0.08333325000000968
        },
        {
          "name": "A#3",
          "midi": 58,
          "time": 436.4162302500149,
          "velocity": 1,
          "duration": 0.08333325000000968
        },
        {
          "name": "G3",
          "midi": 55,
          "time": 436.4162302500149,
          "velocity": 1,
          "duration": 0.08333325000000968
        },
        {
          "name": "D#3",
          "midi": 51,
          "time": 436.4995635000149,
          "velocity": 1,
          "duration": 0.16666650000001937
        },
        {
          "name": "D#5",
          "midi": 75,
          "time": 436.4995635000149,
          "velocity": 1,
          "duration": 0.08333325000000968
        },
        {
          "name": "D#4",
          "midi": 63,
          "time": 436.4995635000149,
          "velocity": 1,
          "duration": 0.08333325000000968
        },
        {
          "name": "A#3",
          "midi": 58,
          "time": 436.4995635000149,
          "velocity": 1,
          "duration": 0.08333325000000968
        },
        {
          "name": "G3",
          "midi": 55,
          "time": 436.4995635000149,
          "velocity": 1,
          "duration": 0.08333325000000968
        },
        {
          "name": "G3",
          "midi": 55,
          "time": 436.5828967500149,
          "velocity": 1,
          "duration": 0.08333325000000968
        },
        {
          "name": "A#3",
          "midi": 58,
          "time": 436.5828967500149,
          "velocity": 1,
          "duration": 0.08333325000000968
        },
        {
          "name": "D#4",
          "midi": 63,
          "time": 436.5828967500149,
          "velocity": 1,
          "duration": 0.08333325000000968
        },
        {
          "name": "D#5",
          "midi": 75,
          "time": 436.5828967500149,
          "velocity": 1,
          "duration": 0.08333325000000968
        },
        {
          "name": "D#3",
          "midi": 51,
          "time": 436.66623000001493,
          "velocity": 1,
          "duration": 0.16666650000001937
        },
        {
          "name": "E5",
          "midi": 76,
          "time": 436.66623000001493,
          "velocity": 1,
          "duration": 0.08333325000000968
        },
        {
          "name": "E4",
          "midi": 64,
          "time": 436.66623000001493,
          "velocity": 1,
          "duration": 0.08333325000000968
        },
        {
          "name": "C#4",
          "midi": 61,
          "time": 436.66623000001493,
          "velocity": 1,
          "duration": 0.08333325000000968
        },
        {
          "name": "G3",
          "midi": 55,
          "time": 436.66623000001493,
          "velocity": 1,
          "duration": 0.08333325000000968
        },
        {
          "name": "E5",
          "midi": 76,
          "time": 436.74956325001494,
          "velocity": 1,
          "duration": 0.08333325000000968
        },
        {
          "name": "E4",
          "midi": 64,
          "time": 436.74956325001494,
          "velocity": 1,
          "duration": 0.08333325000000968
        },
        {
          "name": "C#4",
          "midi": 61,
          "time": 436.74956325001494,
          "velocity": 1,
          "duration": 0.08333325000000968
        },
        {
          "name": "G3",
          "midi": 55,
          "time": 436.74956325001494,
          "velocity": 1,
          "duration": 0.08333325000000968
        },
        {
          "name": "G3",
          "midi": 55,
          "time": 436.83289650001495,
          "velocity": 1,
          "duration": 0.08333325000000968
        },
        {
          "name": "C#4",
          "midi": 61,
          "time": 436.83289650001495,
          "velocity": 1,
          "duration": 0.08333325000000968
        },
        {
          "name": "E4",
          "midi": 64,
          "time": 436.83289650001495,
          "velocity": 1,
          "duration": 0.08333325000000968
        },
        {
          "name": "E5",
          "midi": 76,
          "time": 436.83289650001495,
          "velocity": 1,
          "duration": 0.08333325000000968
        },
        {
          "name": "D#3",
          "midi": 51,
          "time": 436.83289650001495,
          "velocity": 1,
          "duration": 0.16666650000001937
        },
        {
          "name": "E5",
          "midi": 76,
          "time": 436.91622975001496,
          "velocity": 1,
          "duration": 0.08333325000000968
        },
        {
          "name": "E4",
          "midi": 64,
          "time": 436.91622975001496,
          "velocity": 1,
          "duration": 0.08333325000000968
        },
        {
          "name": "C#4",
          "midi": 61,
          "time": 436.91622975001496,
          "velocity": 1,
          "duration": 0.08333325000000968
        },
        {
          "name": "G3",
          "midi": 55,
          "time": 436.91622975001496,
          "velocity": 1,
          "duration": 0.08333325000000968
        },
        {
          "name": "G#3",
          "midi": 56,
          "time": 436.999563000015,
          "velocity": 1,
          "duration": 0.08333325000000968
        },
        {
          "name": "C4",
          "midi": 60,
          "time": 436.999563000015,
          "velocity": 1,
          "duration": 0.08333325000000968
        },
        {
          "name": "F4",
          "midi": 65,
          "time": 436.999563000015,
          "velocity": 1,
          "duration": 0.08333325000000968
        },
        {
          "name": "F5",
          "midi": 77,
          "time": 436.999563000015,
          "velocity": 1,
          "duration": 0.08333325000000968
        },
        {
          "name": "D#3",
          "midi": 51,
          "time": 436.999563000015,
          "velocity": 1,
          "duration": 0.16666650000001937
        },
        {
          "name": "F5",
          "midi": 77,
          "time": 437.082896250015,
          "velocity": 1,
          "duration": 0.08333325000000968
        },
        {
          "name": "F4",
          "midi": 65,
          "time": 437.082896250015,
          "velocity": 1,
          "duration": 0.08333325000000968
        },
        {
          "name": "C4",
          "midi": 60,
          "time": 437.082896250015,
          "velocity": 1,
          "duration": 0.08333325000000968
        },
        {
          "name": "G#3",
          "midi": 56,
          "time": 437.082896250015,
          "velocity": 1,
          "duration": 0.08333325000000968
        },
        {
          "name": "G#3",
          "midi": 56,
          "time": 437.166229500015,
          "velocity": 1,
          "duration": 0.08333325000000968
        },
        {
          "name": "C4",
          "midi": 60,
          "time": 437.166229500015,
          "velocity": 1,
          "duration": 0.08333325000000968
        },
        {
          "name": "F4",
          "midi": 65,
          "time": 437.166229500015,
          "velocity": 1,
          "duration": 0.08333325000000968
        },
        {
          "name": "F5",
          "midi": 77,
          "time": 437.166229500015,
          "velocity": 1,
          "duration": 0.08333325000000968
        },
        {
          "name": "D#3",
          "midi": 51,
          "time": 437.166229500015,
          "velocity": 1,
          "duration": 0.16666650000001937
        },
        {
          "name": "F5",
          "midi": 77,
          "time": 437.249562750015,
          "velocity": 1,
          "duration": 0.08333325000000968
        },
        {
          "name": "F4",
          "midi": 65,
          "time": 437.249562750015,
          "velocity": 1,
          "duration": 0.08333325000000968
        },
        {
          "name": "C4",
          "midi": 60,
          "time": 437.249562750015,
          "velocity": 1,
          "duration": 0.08333325000000968
        },
        {
          "name": "G#3",
          "midi": 56,
          "time": 437.249562750015,
          "velocity": 1,
          "duration": 0.08333325000000968
        },
        {
          "name": "D#3",
          "midi": 51,
          "time": 437.332896000015,
          "velocity": 1,
          "duration": 0.16666650000001937
        },
        {
          "name": "G#5",
          "midi": 80,
          "time": 437.332896000015,
          "velocity": 1,
          "duration": 0.08333325000000968
        },
        {
          "name": "G#4",
          "midi": 68,
          "time": 437.332896000015,
          "velocity": 1,
          "duration": 0.08333325000000968
        },
        {
          "name": "C4",
          "midi": 60,
          "time": 437.332896000015,
          "velocity": 1,
          "duration": 0.08333325000000968
        },
        {
          "name": "G#3",
          "midi": 56,
          "time": 437.332896000015,
          "velocity": 1,
          "duration": 0.08333325000000968
        },
        {
          "name": "G#3",
          "midi": 56,
          "time": 437.416229250015,
          "velocity": 1,
          "duration": 0.08333325000000968
        },
        {
          "name": "C4",
          "midi": 60,
          "time": 437.416229250015,
          "velocity": 1,
          "duration": 0.08333325000000968
        },
        {
          "name": "G#4",
          "midi": 68,
          "time": 437.416229250015,
          "velocity": 1,
          "duration": 0.08333325000000968
        },
        {
          "name": "G#5",
          "midi": 80,
          "time": 437.416229250015,
          "velocity": 1,
          "duration": 0.08333325000000968
        },
        {
          "name": "D#3",
          "midi": 51,
          "time": 437.49956250001503,
          "velocity": 1,
          "duration": 0.16666650000001937
        },
        {
          "name": "G#5",
          "midi": 80,
          "time": 437.49956250001503,
          "velocity": 1,
          "duration": 0.08333325000000968
        },
        {
          "name": "G#4",
          "midi": 68,
          "time": 437.49956250001503,
          "velocity": 1,
          "duration": 0.08333325000000968
        },
        {
          "name": "C4",
          "midi": 60,
          "time": 437.49956250001503,
          "velocity": 1,
          "duration": 0.08333325000000968
        },
        {
          "name": "G#3",
          "midi": 56,
          "time": 437.49956250001503,
          "velocity": 1,
          "duration": 0.08333325000000968
        },
        {
          "name": "G#5",
          "midi": 80,
          "time": 437.58289575001504,
          "velocity": 1,
          "duration": 0.08333325000000968
        },
        {
          "name": "G#4",
          "midi": 68,
          "time": 437.58289575001504,
          "velocity": 1,
          "duration": 0.08333325000000968
        },
        {
          "name": "C4",
          "midi": 60,
          "time": 437.58289575001504,
          "velocity": 1,
          "duration": 0.08333325000000968
        },
        {
          "name": "G#3",
          "midi": 56,
          "time": 437.58289575001504,
          "velocity": 1,
          "duration": 0.08333325000000968
        },
        {
          "name": "G#3",
          "midi": 56,
          "time": 437.66622900001505,
          "velocity": 1,
          "duration": 0.08333325000000968
        },
        {
          "name": "C4",
          "midi": 60,
          "time": 437.66622900001505,
          "velocity": 1,
          "duration": 0.08333325000000968
        },
        {
          "name": "C5",
          "midi": 72,
          "time": 437.66622900001505,
          "velocity": 1,
          "duration": 0.08333325000000968
        },
        {
          "name": "C6",
          "midi": 84,
          "time": 437.66622900001505,
          "velocity": 1,
          "duration": 0.08333325000000968
        },
        {
          "name": "D#3",
          "midi": 51,
          "time": 437.66622900001505,
          "velocity": 1,
          "duration": 0.16666650000001937
        },
        {
          "name": "C6",
          "midi": 84,
          "time": 437.74956225001506,
          "velocity": 1,
          "duration": 0.08333325000000968
        },
        {
          "name": "C5",
          "midi": 72,
          "time": 437.74956225001506,
          "velocity": 1,
          "duration": 0.08333325000000968
        },
        {
          "name": "C4",
          "midi": 60,
          "time": 437.74956225001506,
          "velocity": 1,
          "duration": 0.08333325000000968
        },
        {
          "name": "G#3",
          "midi": 56,
          "time": 437.74956225001506,
          "velocity": 1,
          "duration": 0.08333325000000968
        },
        {
          "name": "D#3",
          "midi": 51,
          "time": 437.83289550001507,
          "velocity": 1,
          "duration": 0.16666650000001937
        },
        {
          "name": "C6",
          "midi": 84,
          "time": 437.83289550001507,
          "velocity": 1,
          "duration": 0.08333325000000968
        },
        {
          "name": "C5",
          "midi": 72,
          "time": 437.83289550001507,
          "velocity": 1,
          "duration": 0.08333325000000968
        },
        {
          "name": "C4",
          "midi": 60,
          "time": 437.83289550001507,
          "velocity": 1,
          "duration": 0.08333325000000968
        },
        {
          "name": "G#3",
          "midi": 56,
          "time": 437.83289550001507,
          "velocity": 1,
          "duration": 0.08333325000000968
        },
        {
          "name": "G#3",
          "midi": 56,
          "time": 437.9162287500151,
          "velocity": 1,
          "duration": 0.08333325000000968
        },
        {
          "name": "C4",
          "midi": 60,
          "time": 437.9162287500151,
          "velocity": 1,
          "duration": 0.08333325000000968
        },
        {
          "name": "C5",
          "midi": 72,
          "time": 437.9162287500151,
          "velocity": 1,
          "duration": 0.08333325000000968
        },
        {
          "name": "C6",
          "midi": 84,
          "time": 437.9162287500151,
          "velocity": 1,
          "duration": 0.08333325000000968
        },
        {
          "name": "D#3",
          "midi": 51,
          "time": 437.9995620000151,
          "velocity": 1,
          "duration": 0.16666650000001937
        },
        {
          "name": "F5",
          "midi": 77,
          "time": 437.9995620000151,
          "velocity": 1,
          "duration": 0.08333325000000968
        },
        {
          "name": "F4",
          "midi": 65,
          "time": 437.9995620000151,
          "velocity": 1,
          "duration": 0.08333325000000968
        },
        {
          "name": "C4",
          "midi": 60,
          "time": 437.9995620000151,
          "velocity": 1,
          "duration": 0.08333325000000968
        },
        {
          "name": "G#3",
          "midi": 56,
          "time": 437.9995620000151,
          "velocity": 1,
          "duration": 0.08333325000000968
        },
        {
          "name": "F5",
          "midi": 77,
          "time": 438.0828952500151,
          "velocity": 1,
          "duration": 0.08333325000000968
        },
        {
          "name": "F4",
          "midi": 65,
          "time": 438.0828952500151,
          "velocity": 1,
          "duration": 0.08333325000000968
        },
        {
          "name": "C4",
          "midi": 60,
          "time": 438.0828952500151,
          "velocity": 1,
          "duration": 0.08333325000000968
        },
        {
          "name": "G#3",
          "midi": 56,
          "time": 438.0828952500151,
          "velocity": 1,
          "duration": 0.08333325000000968
        },
        {
          "name": "G#3",
          "midi": 56,
          "time": 438.1662285000151,
          "velocity": 1,
          "duration": 0.08333325000000968
        },
        {
          "name": "C4",
          "midi": 60,
          "time": 438.1662285000151,
          "velocity": 1,
          "duration": 0.08333325000000968
        },
        {
          "name": "F4",
          "midi": 65,
          "time": 438.1662285000151,
          "velocity": 1,
          "duration": 0.08333325000000968
        },
        {
          "name": "F5",
          "midi": 77,
          "time": 438.1662285000151,
          "velocity": 1,
          "duration": 0.08333325000000968
        },
        {
          "name": "D#3",
          "midi": 51,
          "time": 438.1662285000151,
          "velocity": 1,
          "duration": 0.16666650000001937
        },
        {
          "name": "F5",
          "midi": 77,
          "time": 438.2495617500151,
          "velocity": 1,
          "duration": 0.08333325000000968
        },
        {
          "name": "F4",
          "midi": 65,
          "time": 438.2495617500151,
          "velocity": 1,
          "duration": 0.08333325000000968
        },
        {
          "name": "C4",
          "midi": 60,
          "time": 438.2495617500151,
          "velocity": 1,
          "duration": 0.08333325000000968
        },
        {
          "name": "G#3",
          "midi": 56,
          "time": 438.2495617500151,
          "velocity": 1,
          "duration": 0.08333325000000968
        },
        {
          "name": "G#3",
          "midi": 56,
          "time": 438.3328950000151,
          "velocity": 1,
          "duration": 0.08333325000000968
        },
        {
          "name": "C4",
          "midi": 60,
          "time": 438.3328950000151,
          "velocity": 1,
          "duration": 0.08333325000000968
        },
        {
          "name": "F4",
          "midi": 65,
          "time": 438.3328950000151,
          "velocity": 1,
          "duration": 0.08333325000000968
        },
        {
          "name": "F5",
          "midi": 77,
          "time": 438.3328950000151,
          "velocity": 1,
          "duration": 0.08333325000000968
        },
        {
          "name": "D#3",
          "midi": 51,
          "time": 438.3328950000151,
          "velocity": 1,
          "duration": 0.16666650000001937
        },
        {
          "name": "F5",
          "midi": 77,
          "time": 438.41622825001514,
          "velocity": 1,
          "duration": 0.08333325000000968
        },
        {
          "name": "F4",
          "midi": 65,
          "time": 438.41622825001514,
          "velocity": 1,
          "duration": 0.08333325000000968
        },
        {
          "name": "C4",
          "midi": 60,
          "time": 438.41622825001514,
          "velocity": 1,
          "duration": 0.08333325000000968
        },
        {
          "name": "G#3",
          "midi": 56,
          "time": 438.41622825001514,
          "velocity": 1,
          "duration": 0.08333325000000968
        },
        {
          "name": "G#3",
          "midi": 56,
          "time": 438.49956150001515,
          "velocity": 1,
          "duration": 0.08333325000000968
        },
        {
          "name": "C4",
          "midi": 60,
          "time": 438.49956150001515,
          "velocity": 1,
          "duration": 0.08333325000000968
        },
        {
          "name": "F4",
          "midi": 65,
          "time": 438.49956150001515,
          "velocity": 1,
          "duration": 0.08333325000000968
        },
        {
          "name": "F5",
          "midi": 77,
          "time": 438.49956150001515,
          "velocity": 1,
          "duration": 0.08333325000000968
        },
        {
          "name": "D#3",
          "midi": 51,
          "time": 438.49956150001515,
          "velocity": 1,
          "duration": 0.16666650000001937
        },
        {
          "name": "F5",
          "midi": 77,
          "time": 438.58289475001516,
          "velocity": 1,
          "duration": 0.08333325000000968
        },
        {
          "name": "F4",
          "midi": 65,
          "time": 438.58289475001516,
          "velocity": 1,
          "duration": 0.08333325000000968
        },
        {
          "name": "C4",
          "midi": 60,
          "time": 438.58289475001516,
          "velocity": 1,
          "duration": 0.08333325000000968
        },
        {
          "name": "G#3",
          "midi": 56,
          "time": 438.58289475001516,
          "velocity": 1,
          "duration": 0.08333325000000968
        },
        {
          "name": "D#3",
          "midi": 51,
          "time": 438.66622800001517,
          "velocity": 1,
          "duration": 0.16666650000001937
        },
        {
          "name": "F#5",
          "midi": 78,
          "time": 438.66622800001517,
          "velocity": 1,
          "duration": 0.08333325000000968
        },
        {
          "name": "F#4",
          "midi": 66,
          "time": 438.66622800001517,
          "velocity": 1,
          "duration": 0.08333325000000968
        },
        {
          "name": "C4",
          "midi": 60,
          "time": 438.66622800001517,
          "velocity": 1,
          "duration": 0.08333325000000968
        },
        {
          "name": "A3",
          "midi": 57,
          "time": 438.66622800001517,
          "velocity": 1,
          "duration": 0.08333325000000968
        },
        {
          "name": "A3",
          "midi": 57,
          "time": 438.7495612500152,
          "velocity": 1,
          "duration": 0.08333325000000968
        },
        {
          "name": "C4",
          "midi": 60,
          "time": 438.7495612500152,
          "velocity": 1,
          "duration": 0.08333325000000968
        },
        {
          "name": "F#4",
          "midi": 66,
          "time": 438.7495612500152,
          "velocity": 1,
          "duration": 0.08333325000000968
        },
        {
          "name": "F#5",
          "midi": 78,
          "time": 438.7495612500152,
          "velocity": 1,
          "duration": 0.08333325000000968
        },
        {
          "name": "D#3",
          "midi": 51,
          "time": 438.8328945000152,
          "velocity": 1,
          "duration": 0.16666650000001937
        },
        {
          "name": "F#5",
          "midi": 78,
          "time": 438.8328945000152,
          "velocity": 1,
          "duration": 0.08333325000000968
        },
        {
          "name": "F#4",
          "midi": 66,
          "time": 438.8328945000152,
          "velocity": 1,
          "duration": 0.08333325000000968
        },
        {
          "name": "C4",
          "midi": 60,
          "time": 438.8328945000152,
          "velocity": 1,
          "duration": 0.08333325000000968
        },
        {
          "name": "A3",
          "midi": 57,
          "time": 438.8328945000152,
          "velocity": 1,
          "duration": 0.08333325000000968
        },
        {
          "name": "F#5",
          "midi": 78,
          "time": 438.9162277500152,
          "velocity": 1,
          "duration": 0.08333325000000968
        },
        {
          "name": "F#4",
          "midi": 66,
          "time": 438.9162277500152,
          "velocity": 1,
          "duration": 0.08333325000000968
        },
        {
          "name": "C4",
          "midi": 60,
          "time": 438.9162277500152,
          "velocity": 1,
          "duration": 0.08333325000000968
        },
        {
          "name": "A3",
          "midi": 57,
          "time": 438.9162277500152,
          "velocity": 1,
          "duration": 0.08333325000000968
        },
        {
          "name": "A#3",
          "midi": 58,
          "time": 438.9995610000152,
          "velocity": 1,
          "duration": 0.08333325000000968
        },
        {
          "name": "C#4",
          "midi": 61,
          "time": 438.9995610000152,
          "velocity": 1,
          "duration": 0.08333325000000968
        },
        {
          "name": "G4",
          "midi": 67,
          "time": 438.9995610000152,
          "velocity": 1,
          "duration": 0.08333325000000968
        },
        {
          "name": "G5",
          "midi": 79,
          "time": 438.9995610000152,
          "velocity": 1,
          "duration": 0.08333325000000968
        },
        {
          "name": "D#3",
          "midi": 51,
          "time": 438.9995610000152,
          "velocity": 1,
          "duration": 0.16666650000001937
        },
        {
          "name": "G5",
          "midi": 79,
          "time": 439.0828942500152,
          "velocity": 1,
          "duration": 0.08333325000000968
        },
        {
          "name": "G4",
          "midi": 67,
          "time": 439.0828942500152,
          "velocity": 1,
          "duration": 0.08333325000000968
        },
        {
          "name": "C#4",
          "midi": 61,
          "time": 439.0828942500152,
          "velocity": 1,
          "duration": 0.08333325000000968
        },
        {
          "name": "A#3",
          "midi": 58,
          "time": 439.0828942500152,
          "velocity": 1,
          "duration": 0.08333325000000968
        },
        {
          "name": "A#3",
          "midi": 58,
          "time": 439.1662275000152,
          "velocity": 1,
          "duration": 0.08333325000000968
        },
        {
          "name": "C#4",
          "midi": 61,
          "time": 439.1662275000152,
          "velocity": 1,
          "duration": 0.08333325000000968
        },
        {
          "name": "G4",
          "midi": 67,
          "time": 439.1662275000152,
          "velocity": 1,
          "duration": 0.08333325000000968
        },
        {
          "name": "G5",
          "midi": 79,
          "time": 439.1662275000152,
          "velocity": 1,
          "duration": 0.08333325000000968
        },
        {
          "name": "D#3",
          "midi": 51,
          "time": 439.1662275000152,
          "velocity": 1,
          "duration": 0.16666650000001937
        },
        {
          "name": "G5",
          "midi": 79,
          "time": 439.24956075001523,
          "velocity": 1,
          "duration": 0.08333325000000968
        },
        {
          "name": "G4",
          "midi": 67,
          "time": 439.24956075001523,
          "velocity": 1,
          "duration": 0.08333325000000968
        },
        {
          "name": "C#4",
          "midi": 61,
          "time": 439.24956075001523,
          "velocity": 1,
          "duration": 0.08333325000000968
        },
        {
          "name": "A#3",
          "midi": 58,
          "time": 439.24956075001523,
          "velocity": 1,
          "duration": 0.08333325000000968
        },
        {
          "name": "A#3",
          "midi": 58,
          "time": 439.33289400001524,
          "velocity": 1,
          "duration": 0.08333325000000968
        },
        {
          "name": "C#4",
          "midi": 61,
          "time": 439.33289400001524,
          "velocity": 1,
          "duration": 0.08333325000000968
        },
        {
          "name": "A#4",
          "midi": 70,
          "time": 439.33289400001524,
          "velocity": 1,
          "duration": 0.08333325000000968
        },
        {
          "name": "A#5",
          "midi": 82,
          "time": 439.33289400001524,
          "velocity": 1,
          "duration": 0.08333325000000968
        },
        {
          "name": "D#3",
          "midi": 51,
          "time": 439.33289400001524,
          "velocity": 1,
          "duration": 0.16666650000001937
        },
        {
          "name": "A#5",
          "midi": 82,
          "time": 439.41622725001525,
          "velocity": 1,
          "duration": 0.08333325000000968
        },
        {
          "name": "A#4",
          "midi": 70,
          "time": 439.41622725001525,
          "velocity": 1,
          "duration": 0.08333325000000968
        },
        {
          "name": "C#4",
          "midi": 61,
          "time": 439.41622725001525,
          "velocity": 1,
          "duration": 0.08333325000000968
        },
        {
          "name": "A#3",
          "midi": 58,
          "time": 439.41622725001525,
          "velocity": 1,
          "duration": 0.08333325000000968
        },
        {
          "name": "D#3",
          "midi": 51,
          "time": 439.49956050001526,
          "velocity": 1,
          "duration": 0.16666650000001937
        },
        {
          "name": "A#5",
          "midi": 82,
          "time": 439.49956050001526,
          "velocity": 1,
          "duration": 0.08333325000000968
        },
        {
          "name": "A#4",
          "midi": 70,
          "time": 439.49956050001526,
          "velocity": 1,
          "duration": 0.08333325000000968
        },
        {
          "name": "C#4",
          "midi": 61,
          "time": 439.49956050001526,
          "velocity": 1,
          "duration": 0.08333325000000968
        },
        {
          "name": "A#3",
          "midi": 58,
          "time": 439.49956050001526,
          "velocity": 1,
          "duration": 0.08333325000000968
        },
        {
          "name": "A#3",
          "midi": 58,
          "time": 439.5828937500153,
          "velocity": 1,
          "duration": 0.08333325000000968
        },
        {
          "name": "C#4",
          "midi": 61,
          "time": 439.5828937500153,
          "velocity": 1,
          "duration": 0.08333325000000968
        },
        {
          "name": "A#4",
          "midi": 70,
          "time": 439.5828937500153,
          "velocity": 1,
          "duration": 0.08333325000000968
        },
        {
          "name": "A#5",
          "midi": 82,
          "time": 439.5828937500153,
          "velocity": 1,
          "duration": 0.08333325000000968
        },
        {
          "name": "D#3",
          "midi": 51,
          "time": 439.6662270000153,
          "velocity": 1,
          "duration": 0.16666650000001937
        },
        {
          "name": "C#6",
          "midi": 85,
          "time": 439.6662270000153,
          "velocity": 1,
          "duration": 0.08333325000000968
        },
        {
          "name": "C#5",
          "midi": 73,
          "time": 439.6662270000153,
          "velocity": 1,
          "duration": 0.08333325000000968
        },
        {
          "name": "G4",
          "midi": 67,
          "time": 439.6662270000153,
          "velocity": 1,
          "duration": 0.08333325000000968
        },
        {
          "name": "A#3",
          "midi": 58,
          "time": 439.6662270000153,
          "velocity": 1,
          "duration": 0.08333325000000968
        },
        {
          "name": "C#6",
          "midi": 85,
          "time": 439.7495602500153,
          "velocity": 1,
          "duration": 0.08333325000000968
        },
        {
          "name": "C#5",
          "midi": 73,
          "time": 439.7495602500153,
          "velocity": 1,
          "duration": 0.08333325000000968
        },
        {
          "name": "G4",
          "midi": 67,
          "time": 439.7495602500153,
          "velocity": 1,
          "duration": 0.08333325000000968
        },
        {
          "name": "A#3",
          "midi": 58,
          "time": 439.7495602500153,
          "velocity": 1,
          "duration": 0.08333325000000968
        },
        {
          "name": "A#3",
          "midi": 58,
          "time": 439.8328935000153,
          "velocity": 1,
          "duration": 0.08333325000000968
        },
        {
          "name": "G4",
          "midi": 67,
          "time": 439.8328935000153,
          "velocity": 1,
          "duration": 0.08333325000000968
        },
        {
          "name": "C#5",
          "midi": 73,
          "time": 439.8328935000153,
          "velocity": 1,
          "duration": 0.08333325000000968
        },
        {
          "name": "C#6",
          "midi": 85,
          "time": 439.8328935000153,
          "velocity": 1,
          "duration": 0.08333325000000968
        },
        {
          "name": "D#3",
          "midi": 51,
          "time": 439.8328935000153,
          "velocity": 1,
          "duration": 0.16666650000001937
        },
        {
          "name": "C#6",
          "midi": 85,
          "time": 439.9162267500153,
          "velocity": 1,
          "duration": 0.08333325000000968
        },
        {
          "name": "C#5",
          "midi": 73,
          "time": 439.9162267500153,
          "velocity": 1,
          "duration": 0.08333325000000968
        },
        {
          "name": "G4",
          "midi": 67,
          "time": 439.9162267500153,
          "velocity": 1,
          "duration": 0.08333325000000968
        },
        {
          "name": "A#3",
          "midi": 58,
          "time": 439.9162267500153,
          "velocity": 1,
          "duration": 0.08333325000000968
        },
        {
          "name": "D#3",
          "midi": 51,
          "time": 439.9995600000153,
          "velocity": 1,
          "duration": 0.16666650000001937
        },
        {
          "name": "G#5",
          "midi": 80,
          "time": 439.9995600000153,
          "velocity": 1,
          "duration": 0.08333325000000968
        },
        {
          "name": "G#4",
          "midi": 68,
          "time": 439.9995600000153,
          "velocity": 1,
          "duration": 0.08333325000000968
        },
        {
          "name": "C#4",
          "midi": 61,
          "time": 439.9995600000153,
          "velocity": 1,
          "duration": 0.08333325000000968
        },
        {
          "name": "A#3",
          "midi": 58,
          "time": 439.9995600000153,
          "velocity": 1,
          "duration": 0.08333325000000968
        },
        {
          "name": "A#3",
          "midi": 58,
          "time": 440.08289325001533,
          "velocity": 1,
          "duration": 0.08333325000000968
        },
        {
          "name": "C#4",
          "midi": 61,
          "time": 440.08289325001533,
          "velocity": 1,
          "duration": 0.08333325000000968
        },
        {
          "name": "G#4",
          "midi": 68,
          "time": 440.08289325001533,
          "velocity": 1,
          "duration": 0.08333325000000968
        },
        {
          "name": "G#5",
          "midi": 80,
          "time": 440.08289325001533,
          "velocity": 1,
          "duration": 0.08333325000000968
        },
        {
          "name": "D#3",
          "midi": 51,
          "time": 440.16622650001534,
          "velocity": 1,
          "duration": 0.16666650000001937
        },
        {
          "name": "G#5",
          "midi": 80,
          "time": 440.16622650001534,
          "velocity": 1,
          "duration": 0.08333325000000968
        },
        {
          "name": "G#4",
          "midi": 68,
          "time": 440.16622650001534,
          "velocity": 1,
          "duration": 0.08333325000000968
        },
        {
          "name": "C#4",
          "midi": 61,
          "time": 440.16622650001534,
          "velocity": 1,
          "duration": 0.08333325000000968
        },
        {
          "name": "A#3",
          "midi": 58,
          "time": 440.16622650001534,
          "velocity": 1,
          "duration": 0.08333325000000968
        },
        {
          "name": "G#5",
          "midi": 80,
          "time": 440.24955975001535,
          "velocity": 1,
          "duration": 0.08333325000000968
        },
        {
          "name": "G#4",
          "midi": 68,
          "time": 440.24955975001535,
          "velocity": 1,
          "duration": 0.08333325000000968
        },
        {
          "name": "C#4",
          "midi": 61,
          "time": 440.24955975001535,
          "velocity": 1,
          "duration": 0.08333325000000968
        },
        {
          "name": "A#3",
          "midi": 58,
          "time": 440.24955975001535,
          "velocity": 1,
          "duration": 0.08333325000000968
        },
        {
          "name": "A#3",
          "midi": 58,
          "time": 440.33289300001536,
          "velocity": 1,
          "duration": 0.08333325000000968
        },
        {
          "name": "C#4",
          "midi": 61,
          "time": 440.33289300001536,
          "velocity": 1,
          "duration": 0.08333325000000968
        },
        {
          "name": "C5",
          "midi": 72,
          "time": 440.33289300001536,
          "velocity": 1,
          "duration": 0.08333325000000968
        },
        {
          "name": "C6",
          "midi": 84,
          "time": 440.33289300001536,
          "velocity": 1,
          "duration": 0.08333325000000968
        },
        {
          "name": "D#3",
          "midi": 51,
          "time": 440.33289300001536,
          "velocity": 1,
          "duration": 0.16666650000001937
        },
        {
          "name": "C6",
          "midi": 84,
          "time": 440.41622625001537,
          "velocity": 1,
          "duration": 0.08333325000000968
        },
        {
          "name": "C5",
          "midi": 72,
          "time": 440.41622625001537,
          "velocity": 1,
          "duration": 0.08333325000000968
        },
        {
          "name": "C#4",
          "midi": 61,
          "time": 440.41622625001537,
          "velocity": 1,
          "duration": 0.08333325000000968
        },
        {
          "name": "A#3",
          "midi": 58,
          "time": 440.41622625001537,
          "velocity": 1,
          "duration": 0.08333325000000968
        },
        {
          "name": "A#3",
          "midi": 58,
          "time": 440.4995595000154,
          "velocity": 1,
          "duration": 0.08333325000000968
        },
        {
          "name": "C#4",
          "midi": 61,
          "time": 440.4995595000154,
          "velocity": 1,
          "duration": 0.08333325000000968
        },
        {
          "name": "C5",
          "midi": 72,
          "time": 440.4995595000154,
          "velocity": 1,
          "duration": 0.08333325000000968
        },
        {
          "name": "C6",
          "midi": 84,
          "time": 440.4995595000154,
          "velocity": 1,
          "duration": 0.08333325000000968
        },
        {
          "name": "D#3",
          "midi": 51,
          "time": 440.4995595000154,
          "velocity": 1,
          "duration": 0.16666650000001937
        },
        {
          "name": "C6",
          "midi": 84,
          "time": 440.5828927500154,
          "velocity": 1,
          "duration": 0.08333325000000968
        },
        {
          "name": "C5",
          "midi": 72,
          "time": 440.5828927500154,
          "velocity": 1,
          "duration": 0.08333325000000968
        },
        {
          "name": "C#4",
          "midi": 61,
          "time": 440.5828927500154,
          "velocity": 1,
          "duration": 0.08333325000000968
        },
        {
          "name": "A#3",
          "midi": 58,
          "time": 440.5828927500154,
          "velocity": 1,
          "duration": 0.08333325000000968
        },
        {
          "name": "A#3",
          "midi": 58,
          "time": 440.6662260000154,
          "velocity": 1,
          "duration": 0.08333325000000968
        },
        {
          "name": "G4",
          "midi": 67,
          "time": 440.6662260000154,
          "velocity": 1,
          "duration": 0.08333325000000968
        },
        {
          "name": "D#5",
          "midi": 75,
          "time": 440.6662260000154,
          "velocity": 1,
          "duration": 0.08333325000000968
        },
        {
          "name": "D#6",
          "midi": 87,
          "time": 440.6662260000154,
          "velocity": 1,
          "duration": 0.08333325000000968
        },
        {
          "name": "D#3",
          "midi": 51,
          "time": 440.6662260000154,
          "velocity": 1,
          "duration": 0.16666650000001937
        },
        {
          "name": "D#6",
          "midi": 87,
          "time": 440.7495592500154,
          "velocity": 1,
          "duration": 0.08333325000000968
        },
        {
          "name": "D#5",
          "midi": 75,
          "time": 440.7495592500154,
          "velocity": 1,
          "duration": 0.08333325000000968
        },
        {
          "name": "G4",
          "midi": 67,
          "time": 440.7495592500154,
          "velocity": 1,
          "duration": 0.08333325000000968
        },
        {
          "name": "A#3",
          "midi": 58,
          "time": 440.7495592500154,
          "velocity": 1,
          "duration": 0.08333325000000968
        },
        {
          "name": "D#3",
          "midi": 51,
          "time": 440.8328925000154,
          "velocity": 1,
          "duration": 0.16666650000001937
        },
        {
          "name": "D#6",
          "midi": 87,
          "time": 440.8328925000154,
          "velocity": 1,
          "duration": 0.08333325000000968
        },
        {
          "name": "D#5",
          "midi": 75,
          "time": 440.8328925000154,
          "velocity": 1,
          "duration": 0.08333325000000968
        },
        {
          "name": "G4",
          "midi": 67,
          "time": 440.8328925000154,
          "velocity": 1,
          "duration": 0.08333325000000968
        },
        {
          "name": "A#3",
          "midi": 58,
          "time": 440.8328925000154,
          "velocity": 1,
          "duration": 0.08333325000000968
        },
        {
          "name": "A#3",
          "midi": 58,
          "time": 440.9162257500154,
          "velocity": 1,
          "duration": 0.08333325000000968
        },
        {
          "name": "G4",
          "midi": 67,
          "time": 440.9162257500154,
          "velocity": 1,
          "duration": 0.08333325000000968
        },
        {
          "name": "D#5",
          "midi": 75,
          "time": 440.9162257500154,
          "velocity": 1,
          "duration": 0.08333325000000968
        },
        {
          "name": "D#6",
          "midi": 87,
          "time": 440.9162257500154,
          "velocity": 1,
          "duration": 0.08333325000000968
        },
        {
          "name": "D#3",
          "midi": 51,
          "time": 440.99955900001544,
          "velocity": 1,
          "duration": 0.16666650000001937
        },
        {
          "name": "G#5",
          "midi": 80,
          "time": 440.99955900001544,
          "velocity": 1,
          "duration": 0.08333325000000968
        },
        {
          "name": "G#4",
          "midi": 68,
          "time": 440.99955900001544,
          "velocity": 1,
          "duration": 0.08333325000000968
        },
        {
          "name": "D#4",
          "midi": 63,
          "time": 440.99955900001544,
          "velocity": 1,
          "duration": 0.08333325000000968
        },
        {
          "name": "B3",
          "midi": 59,
          "time": 440.99955900001544,
          "velocity": 1,
          "duration": 0.08333325000000968
        },
        {
          "name": "G#5",
          "midi": 80,
          "time": 441.08289225001545,
          "velocity": 1,
          "duration": 0.08333325000000968
        },
        {
          "name": "G#4",
          "midi": 68,
          "time": 441.08289225001545,
          "velocity": 1,
          "duration": 0.08333325000000968
        },
        {
          "name": "D#4",
          "midi": 63,
          "time": 441.08289225001545,
          "velocity": 1,
          "duration": 0.08333325000000968
        },
        {
          "name": "B3",
          "midi": 59,
          "time": 441.08289225001545,
          "velocity": 1,
          "duration": 0.08333325000000968
        },
        {
          "name": "B3",
          "midi": 59,
          "time": 441.16622550001546,
          "velocity": 1,
          "duration": 0.08333325000000968
        },
        {
          "name": "D#4",
          "midi": 63,
          "time": 441.16622550001546,
          "velocity": 1,
          "duration": 0.08333325000000968
        },
        {
          "name": "G#4",
          "midi": 68,
          "time": 441.16622550001546,
          "velocity": 1,
          "duration": 0.08333325000000968
        },
        {
          "name": "G#5",
          "midi": 80,
          "time": 441.16622550001546,
          "velocity": 1,
          "duration": 0.08333325000000968
        },
        {
          "name": "D#3",
          "midi": 51,
          "time": 441.16622550001546,
          "velocity": 1,
          "duration": 0.16666650000001937
        },
        {
          "name": "G#5",
          "midi": 80,
          "time": 441.24955875001547,
          "velocity": 1,
          "duration": 0.08333325000000968
        },
        {
          "name": "G#4",
          "midi": 68,
          "time": 441.24955875001547,
          "velocity": 1,
          "duration": 0.08333325000000968
        },
        {
          "name": "D#4",
          "midi": 63,
          "time": 441.24955875001547,
          "velocity": 1,
          "duration": 0.08333325000000968
        },
        {
          "name": "B3",
          "midi": 59,
          "time": 441.24955875001547,
          "velocity": 1,
          "duration": 0.08333325000000968
        },
        {
          "name": "B3",
          "midi": 59,
          "time": 441.3328920000155,
          "velocity": 1,
          "duration": 0.08333325000000968
        },
        {
          "name": "G#4",
          "midi": 68,
          "time": 441.3328920000155,
          "velocity": 1,
          "duration": 0.08333325000000968
        },
        {
          "name": "D5",
          "midi": 74,
          "time": 441.3328920000155,
          "velocity": 1,
          "duration": 0.08333325000000968
        },
        {
          "name": "D6",
          "midi": 86,
          "time": 441.3328920000155,
          "velocity": 1,
          "duration": 0.08333325000000968
        },
        {
          "name": "D#3",
          "midi": 51,
          "time": 441.3328920000155,
          "velocity": 1,
          "duration": 0.16666650000001937
        },
        {
          "name": "D6",
          "midi": 86,
          "time": 441.4162252500155,
          "velocity": 1,
          "duration": 0.08333325000000968
        },
        {
          "name": "D5",
          "midi": 74,
          "time": 441.4162252500155,
          "velocity": 1,
          "duration": 0.08333325000000968
        },
        {
          "name": "G#4",
          "midi": 68,
          "time": 441.4162252500155,
          "velocity": 1,
          "duration": 0.08333325000000968
        },
        {
          "name": "B3",
          "midi": 59,
          "time": 441.4162252500155,
          "velocity": 1,
          "duration": 0.08333325000000968
        },
        {
          "name": "B3",
          "midi": 59,
          "time": 441.4995585000155,
          "velocity": 1,
          "duration": 0.08333325000000968
        },
        {
          "name": "G#4",
          "midi": 68,
          "time": 441.4995585000155,
          "velocity": 1,
          "duration": 0.08333325000000968
        },
        {
          "name": "D5",
          "midi": 74,
          "time": 441.4995585000155,
          "velocity": 1,
          "duration": 0.08333325000000968
        },
        {
          "name": "D6",
          "midi": 86,
          "time": 441.4995585000155,
          "velocity": 1,
          "duration": 0.08333325000000968
        },
        {
          "name": "D#3",
          "midi": 51,
          "time": 441.4995585000155,
          "velocity": 1,
          "duration": 0.16666650000001937
        },
        {
          "name": "D6",
          "midi": 86,
          "time": 441.5828917500155,
          "velocity": 1,
          "duration": 0.08333325000000968
        },
        {
          "name": "D5",
          "midi": 74,
          "time": 441.5828917500155,
          "velocity": 1,
          "duration": 0.08333325000000968
        },
        {
          "name": "G#4",
          "midi": 68,
          "time": 441.5828917500155,
          "velocity": 1,
          "duration": 0.08333325000000968
        },
        {
          "name": "B3",
          "midi": 59,
          "time": 441.5828917500155,
          "velocity": 1,
          "duration": 0.08333325000000968
        },
        {
          "name": "D#3",
          "midi": 51,
          "time": 441.6662250000155,
          "velocity": 1,
          "duration": 0.16666650000001937
        },
        {
          "name": "F6",
          "midi": 89,
          "time": 441.6662250000155,
          "velocity": 1,
          "duration": 0.08333325000000968
        },
        {
          "name": "F5",
          "midi": 77,
          "time": 441.6662250000155,
          "velocity": 1,
          "duration": 0.08333325000000968
        },
        {
          "name": "G#4",
          "midi": 68,
          "time": 441.6662250000155,
          "velocity": 1,
          "duration": 0.08333325000000968
        },
        {
          "name": "B3",
          "midi": 59,
          "time": 441.6662250000155,
          "velocity": 1,
          "duration": 0.08333325000000968
        },
        {
          "name": "B3",
          "midi": 59,
          "time": 441.7495582500155,
          "velocity": 1,
          "duration": 0.08333325000000968
        },
        {
          "name": "G#4",
          "midi": 68,
          "time": 441.7495582500155,
          "velocity": 1,
          "duration": 0.08333325000000968
        },
        {
          "name": "F5",
          "midi": 77,
          "time": 441.7495582500155,
          "velocity": 1,
          "duration": 0.08333325000000968
        },
        {
          "name": "F6",
          "midi": 89,
          "time": 441.7495582500155,
          "velocity": 1,
          "duration": 0.08333325000000968
        },
        {
          "name": "D#3",
          "midi": 51,
          "time": 441.83289150001553,
          "velocity": 1,
          "duration": 0.16666650000001937
        },
        {
          "name": "F6",
          "midi": 89,
          "time": 441.83289150001553,
          "velocity": 1,
          "duration": 0.08333325000000968
        },
        {
          "name": "F5",
          "midi": 77,
          "time": 441.83289150001553,
          "velocity": 1,
          "duration": 0.08333325000000968
        },
        {
          "name": "G#4",
          "midi": 68,
          "time": 441.83289150001553,
          "velocity": 1,
          "duration": 0.08333325000000968
        },
        {
          "name": "B3",
          "midi": 59,
          "time": 441.83289150001553,
          "velocity": 1,
          "duration": 0.08333325000000968
        },
        {
          "name": "F6",
          "midi": 89,
          "time": 441.91622475001554,
          "velocity": 1,
          "duration": 0.08333325000000968
        },
        {
          "name": "F5",
          "midi": 77,
          "time": 441.91622475001554,
          "velocity": 1,
          "duration": 0.08333325000000968
        },
        {
          "name": "G#4",
          "midi": 68,
          "time": 441.91622475001554,
          "velocity": 1,
          "duration": 0.08333325000000968
        },
        {
          "name": "B3",
          "midi": 59,
          "time": 441.91622475001554,
          "velocity": 1,
          "duration": 0.08333325000000968
        },
        {
          "name": "B3",
          "midi": 59,
          "time": 441.99955800001555,
          "velocity": 1,
          "duration": 0.08333325000000968
        },
        {
          "name": "F4",
          "midi": 65,
          "time": 441.99955800001555,
          "velocity": 1,
          "duration": 0.08333325000000968
        },
        {
          "name": "G#5",
          "midi": 80,
          "time": 441.99955800001555,
          "velocity": 1,
          "duration": 0.08333325000000968
        },
        {
          "name": "G#6",
          "midi": 92,
          "time": 441.99955800001555,
          "velocity": 1,
          "duration": 0.08333325000000968
        },
        {
          "name": "D#3",
          "midi": 51,
          "time": 441.99955800001555,
          "velocity": 1,
          "duration": 0.16666650000001937
        },
        {
          "name": "G#6",
          "midi": 92,
          "time": 442.08289125001556,
          "velocity": 1,
          "duration": 0.08333325000000968
        },
        {
          "name": "G#5",
          "midi": 80,
          "time": 442.08289125001556,
          "velocity": 1,
          "duration": 0.08333325000000968
        },
        {
          "name": "F4",
          "midi": 65,
          "time": 442.08289125001556,
          "velocity": 1,
          "duration": 0.08333325000000968
        },
        {
          "name": "B3",
          "midi": 59,
          "time": 442.08289125001556,
          "velocity": 1,
          "duration": 0.08333325000000968
        },
        {
          "name": "D#3",
          "midi": 51,
          "time": 442.1662245000156,
          "velocity": 1,
          "duration": 0.16666650000001937
        },
        {
          "name": "G#6",
          "midi": 92,
          "time": 442.1662245000156,
          "velocity": 1,
          "duration": 0.08333325000000968
        },
        {
          "name": "G#5",
          "midi": 80,
          "time": 442.1662245000156,
          "velocity": 1,
          "duration": 0.08333325000000968
        },
        {
          "name": "F4",
          "midi": 65,
          "time": 442.1662245000156,
          "velocity": 1,
          "duration": 0.08333325000000968
        },
        {
          "name": "B3",
          "midi": 59,
          "time": 442.1662245000156,
          "velocity": 1,
          "duration": 0.08333325000000968
        },
        {
          "name": "B3",
          "midi": 59,
          "time": 442.2495577500156,
          "velocity": 1,
          "duration": 0.08333325000000968
        },
        {
          "name": "F4",
          "midi": 65,
          "time": 442.2495577500156,
          "velocity": 1,
          "duration": 0.08333325000000968
        },
        {
          "name": "G#5",
          "midi": 80,
          "time": 442.2495577500156,
          "velocity": 1,
          "duration": 0.08333325000000968
        },
        {
          "name": "G#6",
          "midi": 92,
          "time": 442.2495577500156,
          "velocity": 1,
          "duration": 0.08333325000000968
        },
        {
          "name": "D#3",
          "midi": 51,
          "time": 442.3328910000156,
          "velocity": 1,
          "duration": 0.16666650000001937
        },
        {
          "name": "G#6",
          "midi": 92,
          "time": 442.3328910000156,
          "velocity": 1,
          "duration": 0.08333325000000968
        },
        {
          "name": "G#5",
          "midi": 80,
          "time": 442.3328910000156,
          "velocity": 1,
          "duration": 0.08333325000000968
        },
        {
          "name": "F4",
          "midi": 65,
          "time": 442.3328910000156,
          "velocity": 1,
          "duration": 0.08333325000000968
        },
        {
          "name": "A#3",
          "midi": 58,
          "time": 442.3328910000156,
          "velocity": 1,
          "duration": 0.08333325000000968
        },
        {
          "name": "G#6",
          "midi": 92,
          "time": 442.4162242500156,
          "velocity": 1,
          "duration": 0.08333325000000968
        },
        {
          "name": "G#5",
          "midi": 80,
          "time": 442.4162242500156,
          "velocity": 1,
          "duration": 0.08333325000000968
        },
        {
          "name": "F4",
          "midi": 65,
          "time": 442.4162242500156,
          "velocity": 1,
          "duration": 0.08333325000000968
        },
        {
          "name": "A#3",
          "midi": 58,
          "time": 442.4162242500156,
          "velocity": 1,
          "duration": 0.08333325000000968
        },
        {
          "name": "A#3",
          "midi": 58,
          "time": 442.4995575000156,
          "velocity": 1,
          "duration": 0.08333325000000968
        },
        {
          "name": "F4",
          "midi": 65,
          "time": 442.4995575000156,
          "velocity": 1,
          "duration": 0.08333325000000968
        },
        {
          "name": "G#5",
          "midi": 80,
          "time": 442.4995575000156,
          "velocity": 1,
          "duration": 0.08333325000000968
        },
        {
          "name": "G#6",
          "midi": 92,
          "time": 442.4995575000156,
          "velocity": 1,
          "duration": 0.08333325000000968
        },
        {
          "name": "D#3",
          "midi": 51,
          "time": 442.4995575000156,
          "velocity": 1,
          "duration": 0.16666650000001937
        },
        {
          "name": "G#6",
          "midi": 92,
          "time": 442.5828907500156,
          "velocity": 1,
          "duration": 0.08333325000000968
        },
        {
          "name": "G#5",
          "midi": 80,
          "time": 442.5828907500156,
          "velocity": 1,
          "duration": 0.08333325000000968
        },
        {
          "name": "F4",
          "midi": 65,
          "time": 442.5828907500156,
          "velocity": 1,
          "duration": 0.08333325000000968
        },
        {
          "name": "A#3",
          "midi": 58,
          "time": 442.5828907500156,
          "velocity": 1,
          "duration": 0.08333325000000968
        },
        {
          "name": "A#3",
          "midi": 58,
          "time": 442.66622400001563,
          "velocity": 1,
          "duration": 0.08333325000000968
        },
        {
          "name": "F4",
          "midi": 65,
          "time": 442.66622400001563,
          "velocity": 1,
          "duration": 0.08333325000000968
        },
        {
          "name": "G#5",
          "midi": 80,
          "time": 442.66622400001563,
          "velocity": 1,
          "duration": 0.08333325000000968
        },
        {
          "name": "G#6",
          "midi": 92,
          "time": 442.66622400001563,
          "velocity": 1,
          "duration": 0.08333325000000968
        },
        {
          "name": "D#3",
          "midi": 51,
          "time": 442.66622400001563,
          "velocity": 1,
          "duration": 0.16666650000001937
        },
        {
          "name": "G#6",
          "midi": 92,
          "time": 442.74955725001564,
          "velocity": 1,
          "duration": 0.08333325000000968
        },
        {
          "name": "G#5",
          "midi": 80,
          "time": 442.74955725001564,
          "velocity": 1,
          "duration": 0.08333325000000968
        },
        {
          "name": "F4",
          "midi": 65,
          "time": 442.74955725001564,
          "velocity": 1,
          "duration": 0.08333325000000968
        },
        {
          "name": "A#3",
          "midi": 58,
          "time": 442.74955725001564,
          "velocity": 1,
          "duration": 0.08333325000000968
        },
        {
          "name": "A#3",
          "midi": 58,
          "time": 442.83289050001565,
          "velocity": 1,
          "duration": 0.08333325000000968
        },
        {
          "name": "F4",
          "midi": 65,
          "time": 442.83289050001565,
          "velocity": 1,
          "duration": 0.08333325000000968
        },
        {
          "name": "G#5",
          "midi": 80,
          "time": 442.83289050001565,
          "velocity": 1,
          "duration": 0.08333325000000968
        },
        {
          "name": "G#6",
          "midi": 92,
          "time": 442.83289050001565,
          "velocity": 1,
          "duration": 0.08333325000000968
        },
        {
          "name": "D#3",
          "midi": 51,
          "time": 442.83289050001565,
          "velocity": 1,
          "duration": 0.16666650000001937
        },
        {
          "name": "G#6",
          "midi": 92,
          "time": 442.91622375001566,
          "velocity": 1,
          "duration": 0.08333325000000968
        },
        {
          "name": "G#5",
          "midi": 80,
          "time": 442.91622375001566,
          "velocity": 1,
          "duration": 0.08333325000000968
        },
        {
          "name": "F4",
          "midi": 65,
          "time": 442.91622375001566,
          "velocity": 1,
          "duration": 0.08333325000000968
        },
        {
          "name": "A#3",
          "midi": 58,
          "time": 442.91622375001566,
          "velocity": 1,
          "duration": 0.08333325000000968
        },
        {
          "name": "D#3",
          "midi": 51,
          "time": 442.99955700001567,
          "velocity": 1,
          "duration": 0.16666650000001937
        },
        {
          "name": "G6",
          "midi": 91,
          "time": 442.99955700001567,
          "velocity": 1,
          "duration": 0.08333325000000968
        },
        {
          "name": "G5",
          "midi": 79,
          "time": 442.99955700001567,
          "velocity": 1,
          "duration": 0.08333325000000968
        },
        {
          "name": "D#4",
          "midi": 63,
          "time": 442.99955700001567,
          "velocity": 1,
          "duration": 0.16666650000001937
        },
        {
          "name": "A#3",
          "midi": 58,
          "time": 442.99955700001567,
          "velocity": 1,
          "duration": 0.16666650000001937
        },
        {
          "name": "D#5",
          "midi": 75,
          "time": 443.0828902500157,
          "velocity": 1,
          "duration": 0.08333325000000968
        },
        {
          "name": "D#6",
          "midi": 87,
          "time": 443.0828902500157,
          "velocity": 1,
          "duration": 0.08333325000000968
        },
        {
          "name": "G6",
          "midi": 91,
          "time": 443.0828902500157,
          "velocity": 1,
          "duration": 0.08333325000000968
        },
        {
          "name": "D#3",
          "midi": 51,
          "time": 443.1662235000157,
          "velocity": 1,
          "duration": 0.16666650000001937
        },
        {
          "name": "G6",
          "midi": 91,
          "time": 443.1662235000157,
          "velocity": 1,
          "duration": 0.08333325000000968
        },
        {
          "name": "D#6",
          "midi": 87,
          "time": 443.1662235000157,
          "velocity": 1,
          "duration": 0.08333325000000968
        },
        {
          "name": "D#5",
          "midi": 75,
          "time": 443.1662235000157,
          "velocity": 1,
          "duration": 0.08333325000000968
        },
        {
          "name": "D#4",
          "midi": 63,
          "time": 443.1662235000157,
          "velocity": 1,
          "duration": 0.16666650000001937
        },
        {
          "name": "G6",
          "midi": 91,
          "time": 443.2495567500157,
          "velocity": 1,
          "duration": 0.08333325000000968
        },
        {
          "name": "D#6",
          "midi": 87,
          "time": 443.2495567500157,
          "velocity": 1,
          "duration": 0.08333325000000968
        },
        {
          "name": "D#5",
          "midi": 75,
          "time": 443.2495567500157,
          "velocity": 1,
          "duration": 0.08333325000000968
        },
        {
          "name": "D#4",
          "midi": 63,
          "time": 443.3328900000157,
          "velocity": 1,
          "duration": 0.16666650000001937
        },
        {
          "name": "D#5",
          "midi": 75,
          "time": 443.3328900000157,
          "velocity": 1,
          "duration": 0.08333325000000968
        },
        {
          "name": "D#6",
          "midi": 87,
          "time": 443.3328900000157,
          "velocity": 1,
          "duration": 0.08333325000000968
        },
        {
          "name": "G6",
          "midi": 91,
          "time": 443.3328900000157,
          "velocity": 1,
          "duration": 0.08333325000000968
        },
        {
          "name": "D#3",
          "midi": 51,
          "time": 443.3328900000157,
          "velocity": 1,
          "duration": 0.16666650000001937
        },
        {
          "name": "G6",
          "midi": 91,
          "time": 443.4162232500157,
          "velocity": 1,
          "duration": 0.08333325000000968
        },
        {
          "name": "D#6",
          "midi": 87,
          "time": 443.4162232500157,
          "velocity": 1,
          "duration": 0.08333325000000968
        },
        {
          "name": "D#5",
          "midi": 75,
          "time": 443.4162232500157,
          "velocity": 1,
          "duration": 0.08333325000000968
        },
        {
          "name": "D#4",
          "midi": 63,
          "time": 443.49955650001573,
          "velocity": 1,
          "duration": 0.16666650000001937
        },
        {
          "name": "D#5",
          "midi": 75,
          "time": 443.49955650001573,
          "velocity": 1,
          "duration": 0.08333325000000968
        },
        {
          "name": "D#6",
          "midi": 87,
          "time": 443.49955650001573,
          "velocity": 1,
          "duration": 0.08333325000000968
        },
        {
          "name": "G6",
          "midi": 91,
          "time": 443.49955650001573,
          "velocity": 1,
          "duration": 0.08333325000000968
        },
        {
          "name": "D#3",
          "midi": 51,
          "time": 443.49955650001573,
          "velocity": 1,
          "duration": 0.16666650000001937
        },
        {
          "name": "G6",
          "midi": 91,
          "time": 443.58288975001574,
          "velocity": 1,
          "duration": 0.08333325000000968
        },
        {
          "name": "D#6",
          "midi": 87,
          "time": 443.58288975001574,
          "velocity": 1,
          "duration": 0.08333325000000968
        },
        {
          "name": "D#5",
          "midi": 75,
          "time": 443.58288975001574,
          "velocity": 1,
          "duration": 0.08333325000000968
        },
        {
          "name": "G4",
          "midi": 67,
          "time": 443.66622300001575,
          "velocity": 1,
          "duration": 0.16666650000001937
        },
        {
          "name": "D#5",
          "midi": 75,
          "time": 443.66622300001575,
          "velocity": 1,
          "duration": 0.08333325000000968
        },
        {
          "name": "D#6",
          "midi": 87,
          "time": 443.66622300001575,
          "velocity": 1,
          "duration": 0.08333325000000968
        },
        {
          "name": "G6",
          "midi": 91,
          "time": 443.66622300001575,
          "velocity": 1,
          "duration": 0.08333325000000968
        },
        {
          "name": "G3",
          "midi": 55,
          "time": 443.66622300001575,
          "velocity": 1,
          "duration": 0.16666650000001937
        },
        {
          "name": "G6",
          "midi": 91,
          "time": 443.74955625001576,
          "velocity": 1,
          "duration": 0.08333325000000968
        },
        {
          "name": "D#6",
          "midi": 87,
          "time": 443.74955625001576,
          "velocity": 1,
          "duration": 0.08333325000000968
        },
        {
          "name": "D#5",
          "midi": 75,
          "time": 443.74955625001576,
          "velocity": 1,
          "duration": 0.08333325000000968
        },
        {
          "name": "G4",
          "midi": 67,
          "time": 443.83288950001577,
          "velocity": 1,
          "duration": 0.16666650000001937
        },
        {
          "name": "D#5",
          "midi": 75,
          "time": 443.83288950001577,
          "velocity": 1,
          "duration": 0.08333325000000968
        },
        {
          "name": "D#6",
          "midi": 87,
          "time": 443.83288950001577,
          "velocity": 1,
          "duration": 0.08333325000000968
        },
        {
          "name": "G6",
          "midi": 91,
          "time": 443.83288950001577,
          "velocity": 1,
          "duration": 0.08333325000000968
        },
        {
          "name": "G3",
          "midi": 55,
          "time": 443.83288950001577,
          "velocity": 1,
          "duration": 0.16666650000001937
        },
        {
          "name": "G6",
          "midi": 91,
          "time": 443.9162227500158,
          "velocity": 1,
          "duration": 0.08333325000000968
        },
        {
          "name": "D#6",
          "midi": 87,
          "time": 443.9162227500158,
          "velocity": 1,
          "duration": 0.08333325000000968
        },
        {
          "name": "D#5",
          "midi": 75,
          "time": 443.9162227500158,
          "velocity": 1,
          "duration": 0.08333325000000968
        },
        {
          "name": "D#4",
          "midi": 63,
          "time": 443.9995560000158,
          "velocity": 1,
          "duration": 0.16666650000001937
        },
        {
          "name": "D#5",
          "midi": 75,
          "time": 443.9995560000158,
          "velocity": 1,
          "duration": 0.08333325000000968
        },
        {
          "name": "D#6",
          "midi": 87,
          "time": 443.9995560000158,
          "velocity": 1,
          "duration": 0.08333325000000968
        },
        {
          "name": "G6",
          "midi": 91,
          "time": 443.9995560000158,
          "velocity": 1,
          "duration": 0.08333325000000968
        },
        {
          "name": "D#3",
          "midi": 51,
          "time": 443.9995560000158,
          "velocity": 1,
          "duration": 0.16666650000001937
        },
        {
          "name": "G6",
          "midi": 91,
          "time": 444.0828892500158,
          "velocity": 1,
          "duration": 0.08333325000000968
        },
        {
          "name": "D#6",
          "midi": 87,
          "time": 444.0828892500158,
          "velocity": 1,
          "duration": 0.08333325000000968
        },
        {
          "name": "D#5",
          "midi": 75,
          "time": 444.0828892500158,
          "velocity": 1,
          "duration": 0.08333325000000968
        },
        {
          "name": "D#4",
          "midi": 63,
          "time": 444.1662225000158,
          "velocity": 1,
          "duration": 0.16666650000001937
        },
        {
          "name": "D#5",
          "midi": 75,
          "time": 444.1662225000158,
          "velocity": 1,
          "duration": 0.08333325000000968
        },
        {
          "name": "D#6",
          "midi": 87,
          "time": 444.1662225000158,
          "velocity": 1,
          "duration": 0.08333325000000968
        },
        {
          "name": "G6",
          "midi": 91,
          "time": 444.1662225000158,
          "velocity": 1,
          "duration": 0.08333325000000968
        },
        {
          "name": "D#3",
          "midi": 51,
          "time": 444.1662225000158,
          "velocity": 1,
          "duration": 0.16666650000001937
        },
        {
          "name": "G6",
          "midi": 91,
          "time": 444.2495557500158,
          "velocity": 1,
          "duration": 0.08333325000000968
        },
        {
          "name": "D#6",
          "midi": 87,
          "time": 444.2495557500158,
          "velocity": 1,
          "duration": 0.08333325000000968
        },
        {
          "name": "D#5",
          "midi": 75,
          "time": 444.2495557500158,
          "velocity": 1,
          "duration": 0.08333325000000968
        },
        {
          "name": "D#4",
          "midi": 63,
          "time": 444.3328890000158,
          "velocity": 1,
          "duration": 0.16666650000001937
        },
        {
          "name": "D#5",
          "midi": 75,
          "time": 444.3328890000158,
          "velocity": 1,
          "duration": 0.08333325000000968
        },
        {
          "name": "D#6",
          "midi": 87,
          "time": 444.3328890000158,
          "velocity": 1,
          "duration": 0.08333325000000968
        },
        {
          "name": "G6",
          "midi": 91,
          "time": 444.3328890000158,
          "velocity": 1,
          "duration": 0.08333325000000968
        },
        {
          "name": "D#3",
          "midi": 51,
          "time": 444.3328890000158,
          "velocity": 1,
          "duration": 0.16666650000001937
        },
        {
          "name": "G6",
          "midi": 91,
          "time": 444.41622225001584,
          "velocity": 1,
          "duration": 0.08333325000000968
        },
        {
          "name": "D#6",
          "midi": 87,
          "time": 444.41622225001584,
          "velocity": 1,
          "duration": 0.08333325000000968
        },
        {
          "name": "D#5",
          "midi": 75,
          "time": 444.41622225001584,
          "velocity": 1,
          "duration": 0.08333325000000968
        },
        {
          "name": "D#4",
          "midi": 63,
          "time": 444.49955550001584,
          "velocity": 1,
          "duration": 0.16666650000001937
        },
        {
          "name": "D#5",
          "midi": 75,
          "time": 444.49955550001584,
          "velocity": 1,
          "duration": 0.08333325000000968
        },
        {
          "name": "D#6",
          "midi": 87,
          "time": 444.49955550001584,
          "velocity": 1,
          "duration": 0.08333325000000968
        },
        {
          "name": "G6",
          "midi": 91,
          "time": 444.49955550001584,
          "velocity": 1,
          "duration": 0.08333325000000968
        },
        {
          "name": "D#3",
          "midi": 51,
          "time": 444.49955550001584,
          "velocity": 1,
          "duration": 0.16666650000001937
        },
        {
          "name": "G6",
          "midi": 91,
          "time": 444.58288875001585,
          "velocity": 1,
          "duration": 0.08333325000000968
        },
        {
          "name": "D#6",
          "midi": 87,
          "time": 444.58288875001585,
          "velocity": 1,
          "duration": 0.08333325000000968
        },
        {
          "name": "D#5",
          "midi": 75,
          "time": 444.58288875001585,
          "velocity": 1,
          "duration": 0.08333325000000968
        },
        {
          "name": "A#3",
          "midi": 58,
          "time": 444.66622200001586,
          "velocity": 1,
          "duration": 0.16666650000001937
        },
        {
          "name": "D#5",
          "midi": 75,
          "time": 444.66622200001586,
          "velocity": 1,
          "duration": 0.08333325000000968
        },
        {
          "name": "D#6",
          "midi": 87,
          "time": 444.66622200001586,
          "velocity": 1,
          "duration": 0.08333325000000968
        },
        {
          "name": "G6",
          "midi": 91,
          "time": 444.66622200001586,
          "velocity": 1,
          "duration": 0.08333325000000968
        },
        {
          "name": "A#2",
          "midi": 46,
          "time": 444.66622200001586,
          "velocity": 1,
          "duration": 0.16666650000001937
        },
        {
          "name": "G6",
          "midi": 91,
          "time": 444.7495552500159,
          "velocity": 1,
          "duration": 0.08333325000000968
        },
        {
          "name": "D#6",
          "midi": 87,
          "time": 444.7495552500159,
          "velocity": 1,
          "duration": 0.08333325000000968
        },
        {
          "name": "D#5",
          "midi": 75,
          "time": 444.7495552500159,
          "velocity": 1,
          "duration": 0.08333325000000968
        },
        {
          "name": "A#2",
          "midi": 46,
          "time": 444.8328885000159,
          "velocity": 1,
          "duration": 0.16666650000001937
        },
        {
          "name": "G6",
          "midi": 91,
          "time": 444.8328885000159,
          "velocity": 1,
          "duration": 0.08333325000000968
        },
        {
          "name": "D#6",
          "midi": 87,
          "time": 444.8328885000159,
          "velocity": 1,
          "duration": 0.08333325000000968
        },
        {
          "name": "D#5",
          "midi": 75,
          "time": 444.8328885000159,
          "velocity": 1,
          "duration": 0.08333325000000968
        },
        {
          "name": "A#3",
          "midi": 58,
          "time": 444.8328885000159,
          "velocity": 1,
          "duration": 0.16666650000001937
        },
        {
          "name": "D#5",
          "midi": 75,
          "time": 444.9162217500159,
          "velocity": 1,
          "duration": 0.08333325000000968
        },
        {
          "name": "D#6",
          "midi": 87,
          "time": 444.9162217500159,
          "velocity": 1,
          "duration": 0.08333325000000968
        },
        {
          "name": "G6",
          "midi": 91,
          "time": 444.9162217500159,
          "velocity": 1,
          "duration": 0.08333325000000968
        },
        {
          "name": "D#3",
          "midi": 51,
          "time": 444.9995550000159,
          "velocity": 1,
          "duration": 0.16666650000001937
        },
        {
          "name": "G6",
          "midi": 91,
          "time": 444.9995550000159,
          "velocity": 1,
          "duration": 0.08333325000000968
        },
        {
          "name": "D#6",
          "midi": 87,
          "time": 444.9995550000159,
          "velocity": 1,
          "duration": 0.08333325000000968
        },
        {
          "name": "D#5",
          "midi": 75,
          "time": 444.9995550000159,
          "velocity": 1,
          "duration": 0.08333325000000968
        },
        {
          "name": "D#4",
          "midi": 63,
          "time": 444.9995550000159,
          "velocity": 1,
          "duration": 0.16666650000001937
        },
        {
          "name": "G6",
          "midi": 91,
          "time": 445.0828882500159,
          "velocity": 1,
          "duration": 0.08333325000000968
        },
        {
          "name": "D#6",
          "midi": 87,
          "time": 445.0828882500159,
          "velocity": 1,
          "duration": 0.08333325000000968
        },
        {
          "name": "D#5",
          "midi": 75,
          "time": 445.0828882500159,
          "velocity": 1,
          "duration": 0.08333325000000968
        },
        {
          "name": "D#4",
          "midi": 63,
          "time": 445.1662215000159,
          "velocity": 1,
          "duration": 0.16666650000001937
        },
        {
          "name": "D#5",
          "midi": 75,
          "time": 445.1662215000159,
          "velocity": 1,
          "duration": 0.08333325000000968
        },
        {
          "name": "D#6",
          "midi": 87,
          "time": 445.1662215000159,
          "velocity": 1,
          "duration": 0.08333325000000968
        },
        {
          "name": "G6",
          "midi": 91,
          "time": 445.1662215000159,
          "velocity": 1,
          "duration": 0.08333325000000968
        },
        {
          "name": "D#3",
          "midi": 51,
          "time": 445.1662215000159,
          "velocity": 1,
          "duration": 0.16666650000001937
        },
        {
          "name": "G6",
          "midi": 91,
          "time": 445.24955475001593,
          "velocity": 1,
          "duration": 0.08333325000000968
        },
        {
          "name": "D#6",
          "midi": 87,
          "time": 445.24955475001593,
          "velocity": 1,
          "duration": 0.08333325000000968
        },
        {
          "name": "D#5",
          "midi": 75,
          "time": 445.24955475001593,
          "velocity": 1,
          "duration": 0.08333325000000968
        },
        {
          "name": "G4",
          "midi": 67,
          "time": 445.33288800001594,
          "velocity": 1,
          "duration": 0.16666650000001937
        },
        {
          "name": "D#5",
          "midi": 75,
          "time": 445.33288800001594,
          "velocity": 1,
          "duration": 0.08333325000000968
        },
        {
          "name": "D#6",
          "midi": 87,
          "time": 445.33288800001594,
          "velocity": 1,
          "duration": 0.08333325000000968
        },
        {
          "name": "G6",
          "midi": 91,
          "time": 445.33288800001594,
          "velocity": 1,
          "duration": 0.08333325000000968
        },
        {
          "name": "G3",
          "midi": 55,
          "time": 445.33288800001594,
          "velocity": 1,
          "duration": 0.16666650000001937
        },
        {
          "name": "G6",
          "midi": 91,
          "time": 445.41622125001595,
          "velocity": 1,
          "duration": 0.08333325000000968
        },
        {
          "name": "D#6",
          "midi": 87,
          "time": 445.41622125001595,
          "velocity": 1,
          "duration": 0.08333325000000968
        },
        {
          "name": "D#5",
          "midi": 75,
          "time": 445.41622125001595,
          "velocity": 1,
          "duration": 0.08333325000000968
        },
        {
          "name": "G4",
          "midi": 67,
          "time": 445.49955450001596,
          "velocity": 1,
          "duration": 0.16666650000001937
        },
        {
          "name": "D#5",
          "midi": 75,
          "time": 445.49955450001596,
          "velocity": 1,
          "duration": 0.08333325000000968
        },
        {
          "name": "D#6",
          "midi": 87,
          "time": 445.49955450001596,
          "velocity": 1,
          "duration": 0.08333325000000968
        },
        {
          "name": "G6",
          "midi": 91,
          "time": 445.49955450001596,
          "velocity": 1,
          "duration": 0.08333325000000968
        },
        {
          "name": "G3",
          "midi": 55,
          "time": 445.49955450001596,
          "velocity": 1,
          "duration": 0.16666650000001937
        },
        {
          "name": "G6",
          "midi": 91,
          "time": 445.58288775001597,
          "velocity": 1,
          "duration": 0.08333325000000968
        },
        {
          "name": "D#6",
          "midi": 87,
          "time": 445.58288775001597,
          "velocity": 1,
          "duration": 0.08333325000000968
        },
        {
          "name": "D#5",
          "midi": 75,
          "time": 445.58288775001597,
          "velocity": 1,
          "duration": 0.08333325000000968
        },
        {
          "name": "A#4",
          "midi": 70,
          "time": 445.666221000016,
          "velocity": 1,
          "duration": 0.16666650000001937
        },
        {
          "name": "D#5",
          "midi": 75,
          "time": 445.666221000016,
          "velocity": 1,
          "duration": 0.08333325000000968
        },
        {
          "name": "D#6",
          "midi": 87,
          "time": 445.666221000016,
          "velocity": 1,
          "duration": 0.08333325000000968
        },
        {
          "name": "G6",
          "midi": 91,
          "time": 445.666221000016,
          "velocity": 1,
          "duration": 0.08333325000000968
        },
        {
          "name": "A#3",
          "midi": 58,
          "time": 445.666221000016,
          "velocity": 1,
          "duration": 0.16666650000001937
        },
        {
          "name": "G6",
          "midi": 91,
          "time": 445.749554250016,
          "velocity": 1,
          "duration": 0.08333325000000968
        },
        {
          "name": "D#6",
          "midi": 87,
          "time": 445.749554250016,
          "velocity": 1,
          "duration": 0.08333325000000968
        },
        {
          "name": "D#5",
          "midi": 75,
          "time": 445.749554250016,
          "velocity": 1,
          "duration": 0.08333325000000968
        },
        {
          "name": "A#4",
          "midi": 70,
          "time": 445.832887500016,
          "velocity": 1,
          "duration": 0.16666650000001937
        },
        {
          "name": "D#5",
          "midi": 75,
          "time": 445.832887500016,
          "velocity": 1,
          "duration": 0.08333325000000968
        },
        {
          "name": "D#6",
          "midi": 87,
          "time": 445.832887500016,
          "velocity": 1,
          "duration": 0.08333325000000968
        },
        {
          "name": "G6",
          "midi": 91,
          "time": 445.832887500016,
          "velocity": 1,
          "duration": 0.08333325000000968
        },
        {
          "name": "A#3",
          "midi": 58,
          "time": 445.832887500016,
          "velocity": 1,
          "duration": 0.16666650000001937
        },
        {
          "name": "G6",
          "midi": 91,
          "time": 445.916220750016,
          "velocity": 1,
          "duration": 0.08333325000000968
        },
        {
          "name": "D#6",
          "midi": 87,
          "time": 445.916220750016,
          "velocity": 1,
          "duration": 0.08333325000000968
        },
        {
          "name": "D#5",
          "midi": 75,
          "time": 445.916220750016,
          "velocity": 1,
          "duration": 0.08333325000000968
        },
        {
          "name": "D#3",
          "midi": 51,
          "time": 445.999554000016,
          "velocity": 1,
          "duration": 0.16666650000001937
        },
        {
          "name": "G6",
          "midi": 91,
          "time": 445.999554000016,
          "velocity": 1,
          "duration": 0.08333325000000968
        },
        {
          "name": "D#6",
          "midi": 87,
          "time": 445.999554000016,
          "velocity": 1,
          "duration": 0.08333325000000968
        },
        {
          "name": "D#5",
          "midi": 75,
          "time": 445.999554000016,
          "velocity": 1,
          "duration": 0.08333325000000968
        },
        {
          "name": "D#4",
          "midi": 63,
          "time": 445.999554000016,
          "velocity": 1,
          "duration": 0.16666650000001937
        },
        {
          "name": "D#5",
          "midi": 75,
          "time": 446.08288725001603,
          "velocity": 1,
          "duration": 0.08333325000000968
        },
        {
          "name": "D#6",
          "midi": 87,
          "time": 446.08288725001603,
          "velocity": 1,
          "duration": 0.08333325000000968
        },
        {
          "name": "G6",
          "midi": 91,
          "time": 446.08288725001603,
          "velocity": 1,
          "duration": 0.08333325000000968
        },
        {
          "name": "D#3",
          "midi": 51,
          "time": 446.16622050001604,
          "velocity": 1,
          "duration": 0.16666650000001937
        },
        {
          "name": "G6",
          "midi": 91,
          "time": 446.16622050001604,
          "velocity": 1,
          "duration": 0.08333325000000968
        },
        {
          "name": "D#6",
          "midi": 87,
          "time": 446.16622050001604,
          "velocity": 1,
          "duration": 0.08333325000000968
        },
        {
          "name": "D#5",
          "midi": 75,
          "time": 446.16622050001604,
          "velocity": 1,
          "duration": 0.08333325000000968
        },
        {
          "name": "D#4",
          "midi": 63,
          "time": 446.16622050001604,
          "velocity": 1,
          "duration": 0.16666650000001937
        },
        {
          "name": "G6",
          "midi": 91,
          "time": 446.24955375001605,
          "velocity": 1,
          "duration": 0.08333325000000968
        },
        {
          "name": "D#6",
          "midi": 87,
          "time": 446.24955375001605,
          "velocity": 1,
          "duration": 0.08333325000000968
        },
        {
          "name": "D#5",
          "midi": 75,
          "time": 446.24955375001605,
          "velocity": 1,
          "duration": 0.08333325000000968
        },
        {
          "name": "D#4",
          "midi": 63,
          "time": 446.33288700001606,
          "velocity": 1,
          "duration": 0.16666650000001937
        },
        {
          "name": "D#5",
          "midi": 75,
          "time": 446.33288700001606,
          "velocity": 1,
          "duration": 0.08333325000000968
        },
        {
          "name": "D#6",
          "midi": 87,
          "time": 446.33288700001606,
          "velocity": 1,
          "duration": 0.08333325000000968
        },
        {
          "name": "G6",
          "midi": 91,
          "time": 446.33288700001606,
          "velocity": 1,
          "duration": 0.08333325000000968
        },
        {
          "name": "D#3",
          "midi": 51,
          "time": 446.33288700001606,
          "velocity": 1,
          "duration": 0.16666650000001937
        },
        {
          "name": "G6",
          "midi": 91,
          "time": 446.41622025001607,
          "velocity": 1,
          "duration": 0.08333325000000968
        },
        {
          "name": "D#6",
          "midi": 87,
          "time": 446.41622025001607,
          "velocity": 1,
          "duration": 0.08333325000000968
        },
        {
          "name": "D#5",
          "midi": 75,
          "time": 446.41622025001607,
          "velocity": 1,
          "duration": 0.08333325000000968
        },
        {
          "name": "D#4",
          "midi": 63,
          "time": 446.4995535000161,
          "velocity": 1,
          "duration": 0.16666650000001937
        },
        {
          "name": "D#5",
          "midi": 75,
          "time": 446.4995535000161,
          "velocity": 1,
          "duration": 0.08333325000000968
        },
        {
          "name": "D#6",
          "midi": 87,
          "time": 446.4995535000161,
          "velocity": 1,
          "duration": 0.08333325000000968
        },
        {
          "name": "G6",
          "midi": 91,
          "time": 446.4995535000161,
          "velocity": 1,
          "duration": 0.08333325000000968
        },
        {
          "name": "D#3",
          "midi": 51,
          "time": 446.4995535000161,
          "velocity": 1,
          "duration": 0.16666650000001937
        },
        {
          "name": "G6",
          "midi": 91,
          "time": 446.5828867500161,
          "velocity": 1,
          "duration": 0.08333325000000968
        },
        {
          "name": "D#6",
          "midi": 87,
          "time": 446.5828867500161,
          "velocity": 1,
          "duration": 0.08333325000000968
        },
        {
          "name": "D#5",
          "midi": 75,
          "time": 446.5828867500161,
          "velocity": 1,
          "duration": 0.08333325000000968
        },
        {
          "name": "G3",
          "midi": 55,
          "time": 446.6662200000161,
          "velocity": 1,
          "duration": 0.16666650000001937
        },
        {
          "name": "D#5",
          "midi": 75,
          "time": 446.6662200000161,
          "velocity": 1,
          "duration": 0.08333325000000968
        },
        {
          "name": "D#6",
          "midi": 87,
          "time": 446.6662200000161,
          "velocity": 1,
          "duration": 0.08333325000000968
        },
        {
          "name": "G6",
          "midi": 91,
          "time": 446.6662200000161,
          "velocity": 1,
          "duration": 0.08333325000000968
        },
        {
          "name": "G2",
          "midi": 43,
          "time": 446.6662200000161,
          "velocity": 1,
          "duration": 0.16666650000001937
        },
        {
          "name": "G6",
          "midi": 91,
          "time": 446.7495532500161,
          "velocity": 1,
          "duration": 0.08333325000000968
        },
        {
          "name": "D#6",
          "midi": 87,
          "time": 446.7495532500161,
          "velocity": 1,
          "duration": 0.08333325000000968
        },
        {
          "name": "D#5",
          "midi": 75,
          "time": 446.7495532500161,
          "velocity": 1,
          "duration": 0.08333325000000968
        },
        {
          "name": "G3",
          "midi": 55,
          "time": 446.8328865000161,
          "velocity": 1,
          "duration": 0.16666650000001937
        },
        {
          "name": "D#5",
          "midi": 75,
          "time": 446.8328865000161,
          "velocity": 1,
          "duration": 0.08333325000000968
        },
        {
          "name": "D#6",
          "midi": 87,
          "time": 446.8328865000161,
          "velocity": 1,
          "duration": 0.08333325000000968
        },
        {
          "name": "G6",
          "midi": 91,
          "time": 446.8328865000161,
          "velocity": 1,
          "duration": 0.08333325000000968
        },
        {
          "name": "G2",
          "midi": 43,
          "time": 446.8328865000161,
          "velocity": 1,
          "duration": 0.16666650000001937
        },
        {
          "name": "G6",
          "midi": 91,
          "time": 446.9162197500161,
          "velocity": 1,
          "duration": 0.08333325000000968
        },
        {
          "name": "D#6",
          "midi": 87,
          "time": 446.9162197500161,
          "velocity": 1,
          "duration": 0.08333325000000968
        },
        {
          "name": "D#5",
          "midi": 75,
          "time": 446.9162197500161,
          "velocity": 1,
          "duration": 0.08333325000000968
        },
        {
          "name": "C4",
          "midi": 60,
          "time": 446.99955300001614,
          "velocity": 1,
          "duration": 0.16666650000001937
        },
        {
          "name": "D#5",
          "midi": 75,
          "time": 446.99955300001614,
          "velocity": 1,
          "duration": 0.08333325000000968
        },
        {
          "name": "D#6",
          "midi": 87,
          "time": 446.99955300001614,
          "velocity": 1,
          "duration": 0.08333325000000968
        },
        {
          "name": "G6",
          "midi": 91,
          "time": 446.99955300001614,
          "velocity": 1,
          "duration": 0.08333325000000968
        },
        {
          "name": "C3",
          "midi": 48,
          "time": 446.99955300001614,
          "velocity": 1,
          "duration": 0.16666650000001937
        },
        {
          "name": "G6",
          "midi": 91,
          "time": 447.08288625001614,
          "velocity": 1,
          "duration": 0.08333325000000968
        },
        {
          "name": "D#6",
          "midi": 87,
          "time": 447.08288625001614,
          "velocity": 1,
          "duration": 0.08333325000000968
        },
        {
          "name": "D#5",
          "midi": 75,
          "time": 447.08288625001614,
          "velocity": 1,
          "duration": 0.08333325000000968
        },
        {
          "name": "C4",
          "midi": 60,
          "time": 447.16621950001615,
          "velocity": 1,
          "duration": 0.16666650000001937
        },
        {
          "name": "D#5",
          "midi": 75,
          "time": 447.16621950001615,
          "velocity": 1,
          "duration": 0.08333325000000968
        },
        {
          "name": "D#6",
          "midi": 87,
          "time": 447.16621950001615,
          "velocity": 1,
          "duration": 0.08333325000000968
        },
        {
          "name": "G6",
          "midi": 91,
          "time": 447.16621950001615,
          "velocity": 1,
          "duration": 0.08333325000000968
        },
        {
          "name": "C3",
          "midi": 48,
          "time": 447.16621950001615,
          "velocity": 1,
          "duration": 0.16666650000001937
        },
        {
          "name": "G6",
          "midi": 91,
          "time": 447.24955275001616,
          "velocity": 1,
          "duration": 0.08333325000000968
        },
        {
          "name": "D#6",
          "midi": 87,
          "time": 447.24955275001616,
          "velocity": 1,
          "duration": 0.08333325000000968
        },
        {
          "name": "D#5",
          "midi": 75,
          "time": 447.24955275001616,
          "velocity": 1,
          "duration": 0.08333325000000968
        },
        {
          "name": "D#4",
          "midi": 63,
          "time": 447.3328860000162,
          "velocity": 1,
          "duration": 0.16666650000001937
        },
        {
          "name": "D#5",
          "midi": 75,
          "time": 447.3328860000162,
          "velocity": 1,
          "duration": 0.08333325000000968
        },
        {
          "name": "D#6",
          "midi": 87,
          "time": 447.3328860000162,
          "velocity": 1,
          "duration": 0.08333325000000968
        },
        {
          "name": "G6",
          "midi": 91,
          "time": 447.3328860000162,
          "velocity": 1,
          "duration": 0.08333325000000968
        },
        {
          "name": "D#3",
          "midi": 51,
          "time": 447.3328860000162,
          "velocity": 1,
          "duration": 0.16666650000001937
        },
        {
          "name": "G6",
          "midi": 91,
          "time": 447.4162192500162,
          "velocity": 1,
          "duration": 0.08333325000000968
        },
        {
          "name": "D#6",
          "midi": 87,
          "time": 447.4162192500162,
          "velocity": 1,
          "duration": 0.08333325000000968
        },
        {
          "name": "D#5",
          "midi": 75,
          "time": 447.4162192500162,
          "velocity": 1,
          "duration": 0.08333325000000968
        },
        {
          "name": "D#4",
          "midi": 63,
          "time": 447.4995525000162,
          "velocity": 1,
          "duration": 0.16666650000001937
        },
        {
          "name": "D#5",
          "midi": 75,
          "time": 447.4995525000162,
          "velocity": 1,
          "duration": 0.08333325000000968
        },
        {
          "name": "D#6",
          "midi": 87,
          "time": 447.4995525000162,
          "velocity": 1,
          "duration": 0.08333325000000968
        },
        {
          "name": "G6",
          "midi": 91,
          "time": 447.4995525000162,
          "velocity": 1,
          "duration": 0.08333325000000968
        },
        {
          "name": "D#3",
          "midi": 51,
          "time": 447.4995525000162,
          "velocity": 1,
          "duration": 0.16666650000001937
        },
        {
          "name": "G6",
          "midi": 91,
          "time": 447.5828857500162,
          "velocity": 1,
          "duration": 0.08333325000000968
        },
        {
          "name": "D#6",
          "midi": 87,
          "time": 447.5828857500162,
          "velocity": 1,
          "duration": 0.08333325000000968
        },
        {
          "name": "D#5",
          "midi": 75,
          "time": 447.5828857500162,
          "velocity": 1,
          "duration": 0.08333325000000968
        },
        {
          "name": "G4",
          "midi": 67,
          "time": 447.6662190000162,
          "velocity": 1,
          "duration": 0.16666650000001937
        },
        {
          "name": "D#5",
          "midi": 75,
          "time": 447.6662190000162,
          "velocity": 1,
          "duration": 0.08333325000000968
        },
        {
          "name": "D#6",
          "midi": 87,
          "time": 447.6662190000162,
          "velocity": 1,
          "duration": 0.08333325000000968
        },
        {
          "name": "G6",
          "midi": 91,
          "time": 447.6662190000162,
          "velocity": 1,
          "duration": 0.08333325000000968
        },
        {
          "name": "G3",
          "midi": 55,
          "time": 447.6662190000162,
          "velocity": 1,
          "duration": 0.16666650000001937
        },
        {
          "name": "G6",
          "midi": 91,
          "time": 447.7495522500162,
          "velocity": 1,
          "duration": 0.08333325000000968
        },
        {
          "name": "D#6",
          "midi": 87,
          "time": 447.7495522500162,
          "velocity": 1,
          "duration": 0.08333325000000968
        },
        {
          "name": "D#5",
          "midi": 75,
          "time": 447.7495522500162,
          "velocity": 1,
          "duration": 0.08333325000000968
        },
        {
          "name": "G3",
          "midi": 55,
          "time": 447.83288550001623,
          "velocity": 1,
          "duration": 0.16666650000001937
        },
        {
          "name": "G6",
          "midi": 91,
          "time": 447.83288550001623,
          "velocity": 1,
          "duration": 0.08333325000000968
        },
        {
          "name": "D#6",
          "midi": 87,
          "time": 447.83288550001623,
          "velocity": 1,
          "duration": 0.08333325000000968
        },
        {
          "name": "D#5",
          "midi": 75,
          "time": 447.83288550001623,
          "velocity": 1,
          "duration": 0.08333325000000968
        },
        {
          "name": "G4",
          "midi": 67,
          "time": 447.83288550001623,
          "velocity": 1,
          "duration": 0.16666650000001937
        },
        {
          "name": "D#5",
          "midi": 75,
          "time": 447.91621875001624,
          "velocity": 1,
          "duration": 0.08333325000000968
        },
        {
          "name": "D#6",
          "midi": 87,
          "time": 447.91621875001624,
          "velocity": 1,
          "duration": 0.08333325000000968
        },
        {
          "name": "G6",
          "midi": 91,
          "time": 447.91621875001624,
          "velocity": 1,
          "duration": 0.08333325000000968
        },
        {
          "name": "C3",
          "midi": 48,
          "time": 447.99955200001625,
          "velocity": 1,
          "duration": 0.16666650000001937
        },
        {
          "name": "G6",
          "midi": 91,
          "time": 447.99955200001625,
          "velocity": 1,
          "duration": 0.08333325000000968
        },
        {
          "name": "D#6",
          "midi": 87,
          "time": 447.99955200001625,
          "velocity": 1,
          "duration": 0.08333325000000968
        },
        {
          "name": "C4",
          "midi": 60,
          "time": 447.99955200001625,
          "velocity": 1,
          "duration": 0.16666650000001937
        },
        {
          "name": "G6",
          "midi": 91,
          "time": 448.08288525001626,
          "velocity": 1,
          "duration": 0.08333325000000968
        },
        {
          "name": "D#5",
          "midi": 75,
          "time": 448.08288525001626,
          "velocity": 1,
          "duration": 0.08333325000000968
        },
        {
          "name": "C4",
          "midi": 60,
          "time": 448.16621850001627,
          "velocity": 1,
          "duration": 0.16666650000001937
        },
        {
          "name": "D#5",
          "midi": 75,
          "time": 448.16621850001627,
          "velocity": 1,
          "duration": 0.08333325000000968
        },
        {
          "name": "G6",
          "midi": 91,
          "time": 448.16621850001627,
          "velocity": 1,
          "duration": 0.08333325000000968
        },
        {
          "name": "C3",
          "midi": 48,
          "time": 448.16621850001627,
          "velocity": 1,
          "duration": 0.16666650000001937
        },
        {
          "name": "G6",
          "midi": 91,
          "time": 448.2495517500163,
          "velocity": 1,
          "duration": 0.08333325000000968
        },
        {
          "name": "D#5",
          "midi": 75,
          "time": 448.2495517500163,
          "velocity": 1,
          "duration": 0.08333325000000968
        },
        {
          "name": "C4",
          "midi": 60,
          "time": 448.3328850000163,
          "velocity": 1,
          "duration": 0.16666650000001937
        },
        {
          "name": "D#5",
          "midi": 75,
          "time": 448.3328850000163,
          "velocity": 1,
          "duration": 0.08333325000000968
        },
        {
          "name": "G6",
          "midi": 91,
          "time": 448.3328850000163,
          "velocity": 1,
          "duration": 0.08333325000000968
        },
        {
          "name": "C3",
          "midi": 48,
          "time": 448.3328850000163,
          "velocity": 1,
          "duration": 0.16666650000001937
        },
        {
          "name": "G6",
          "midi": 91,
          "time": 448.4162182500163,
          "velocity": 1,
          "duration": 0.08333325000000968
        },
        {
          "name": "D#5",
          "midi": 75,
          "time": 448.4162182500163,
          "velocity": 1,
          "duration": 0.08333325000000968
        },
        {
          "name": "C3",
          "midi": 48,
          "time": 448.4995515000163,
          "velocity": 1,
          "duration": 0.16666650000001937
        },
        {
          "name": "G6",
          "midi": 91,
          "time": 448.4995515000163,
          "velocity": 1,
          "duration": 0.08333325000000968
        },
        {
          "name": "D#5",
          "midi": 75,
          "time": 448.4995515000163,
          "velocity": 1,
          "duration": 0.08333325000000968
        },
        {
          "name": "C4",
          "midi": 60,
          "time": 448.4995515000163,
          "velocity": 1,
          "duration": 0.16666650000001937
        },
        {
          "name": "G6",
          "midi": 91,
          "time": 448.5828847500163,
          "velocity": 1,
          "duration": 0.08333325000000968
        },
        {
          "name": "D#5",
          "midi": 75,
          "time": 448.5828847500163,
          "velocity": 1,
          "duration": 0.08333325000000968
        },
        {
          "name": "C4",
          "midi": 60,
          "time": 448.66621800001633,
          "velocity": 1,
          "duration": 0.16666650000001937
        },
        {
          "name": "E5",
          "midi": 76,
          "time": 448.66621800001633,
          "velocity": 1,
          "duration": 0.08333325000000968
        },
        {
          "name": "G6",
          "midi": 91,
          "time": 448.66621800001633,
          "velocity": 1,
          "duration": 0.08333325000000968
        },
        {
          "name": "A#2",
          "midi": 46,
          "time": 448.66621800001633,
          "velocity": 1,
          "duration": 0.16666650000001937
        },
        {
          "name": "G6",
          "midi": 91,
          "time": 448.74955125001634,
          "velocity": 1,
          "duration": 0.08333325000000968
        },
        {
          "name": "E5",
          "midi": 76,
          "time": 448.74955125001634,
          "velocity": 1,
          "duration": 0.08333325000000968
        },
        {
          "name": "C4",
          "midi": 60,
          "time": 448.83288450001635,
          "velocity": 1,
          "duration": 0.16666650000001937
        },
        {
          "name": "E5",
          "midi": 76,
          "time": 448.83288450001635,
          "velocity": 1,
          "duration": 0.08333325000000968
        },
        {
          "name": "G6",
          "midi": 91,
          "time": 448.83288450001635,
          "velocity": 1,
          "duration": 0.08333325000000968
        },
        {
          "name": "A#2",
          "midi": 46,
          "time": 448.83288450001635,
          "velocity": 1,
          "duration": 0.16666650000001937
        },
        {
          "name": "G6",
          "midi": 91,
          "time": 448.91621775001636,
          "velocity": 1,
          "duration": 0.08333325000000968
        },
        {
          "name": "E5",
          "midi": 76,
          "time": 448.91621775001636,
          "velocity": 1,
          "duration": 0.08333325000000968
        },
        {
          "name": "G#2",
          "midi": 44,
          "time": 448.99955100001637,
          "velocity": 1,
          "duration": 0.16666650000001937
        },
        {
          "name": "G6",
          "midi": 91,
          "time": 448.99955100001637,
          "velocity": 1,
          "duration": 0.08333325000000968
        },
        {
          "name": "G5",
          "midi": 79,
          "time": 448.99955100001637,
          "velocity": 1,
          "duration": 0.08333325000000968
        },
        {
          "name": "C4",
          "midi": 60,
          "time": 448.99955100001637,
          "velocity": 1,
          "duration": 0.16666650000001937
        },
        {
          "name": "G5",
          "midi": 79,
          "time": 449.0828842500164,
          "velocity": 1,
          "duration": 0.08333325000000968
        },
        {
          "name": "G6",
          "midi": 91,
          "time": 449.0828842500164,
          "velocity": 1,
          "duration": 0.08333325000000968
        },
        {
          "name": "G#3",
          "midi": 56,
          "time": 449.1662175000164,
          "velocity": 1,
          "duration": 0.16666650000001937
        },
        {
          "name": "F6",
          "midi": 89,
          "time": 449.1662175000164,
          "velocity": 1,
          "duration": 0.08333325000000968
        },
        {
          "name": "F5",
          "midi": 77,
          "time": 449.1662175000164,
          "velocity": 1,
          "duration": 0.08333325000000968
        },
        {
          "name": "C5",
          "midi": 72,
          "time": 449.1662175000164,
          "velocity": 1,
          "duration": 0.16666650000001937
        },
        {
          "name": "F6",
          "midi": 89,
          "time": 449.2495507500164,
          "velocity": 1,
          "duration": 0.08333325000000968
        },
        {
          "name": "F5",
          "midi": 77,
          "time": 449.2495507500164,
          "velocity": 1,
          "duration": 0.08333325000000968
        },
        {
          "name": "C5",
          "midi": 72,
          "time": 449.3328840000164,
          "velocity": 1,
          "duration": 0.16666650000001937
        },
        {
          "name": "E5",
          "midi": 76,
          "time": 449.3328840000164,
          "velocity": 1,
          "duration": 0.08333325000000968
        },
        {
          "name": "E6",
          "midi": 88,
          "time": 449.3328840000164,
          "velocity": 1,
          "duration": 0.08333325000000968
        },
        {
          "name": "G#3",
          "midi": 56,
          "time": 449.3328840000164,
          "velocity": 1,
          "duration": 0.16666650000001937
        },
        {
          "name": "E6",
          "midi": 88,
          "time": 449.4162172500164,
          "velocity": 1,
          "duration": 0.08333325000000968
        },
        {
          "name": "E5",
          "midi": 76,
          "time": 449.4162172500164,
          "velocity": 1,
          "duration": 0.08333325000000968
        },
        {
          "name": "C5",
          "midi": 72,
          "time": 449.4995505000164,
          "velocity": 1,
          "duration": 0.16666650000001937
        },
        {
          "name": "F5",
          "midi": 77,
          "time": 449.4995505000164,
          "velocity": 1,
          "duration": 0.08333325000000968
        },
        {
          "name": "F6",
          "midi": 89,
          "time": 449.4995505000164,
          "velocity": 1,
          "duration": 0.08333325000000968
        },
        {
          "name": "G#3",
          "midi": 56,
          "time": 449.4995505000164,
          "velocity": 1,
          "duration": 0.16666650000001937
        },
        {
          "name": "F6",
          "midi": 89,
          "time": 449.58288375001644,
          "velocity": 1,
          "duration": 0.08333325000000968
        },
        {
          "name": "F5",
          "midi": 77,
          "time": 449.58288375001644,
          "velocity": 1,
          "duration": 0.08333325000000968
        },
        {
          "name": "G#3",
          "midi": 56,
          "time": 449.66621700001645,
          "velocity": 1,
          "duration": 0.16666650000001937
        },
        {
          "name": "G6",
          "midi": 91,
          "time": 449.66621700001645,
          "velocity": 1,
          "duration": 0.08333325000000968
        },
        {
          "name": "G5",
          "midi": 79,
          "time": 449.66621700001645,
          "velocity": 1,
          "duration": 0.08333325000000968
        },
        {
          "name": "C5",
          "midi": 72,
          "time": 449.66621700001645,
          "velocity": 1,
          "duration": 0.16666650000001937
        },
        {
          "name": "G6",
          "midi": 91,
          "time": 449.74955025001645,
          "velocity": 1,
          "duration": 0.08333325000000968
        },
        {
          "name": "G5",
          "midi": 79,
          "time": 449.74955025001645,
          "velocity": 1,
          "duration": 0.08333325000000968
        },
        {
          "name": "C5",
          "midi": 72,
          "time": 449.83288350001646,
          "velocity": 1,
          "duration": 0.16666650000001937
        },
        {
          "name": "F5",
          "midi": 77,
          "time": 449.83288350001646,
          "velocity": 1,
          "duration": 0.08333325000000968
        },
        {
          "name": "F6",
          "midi": 89,
          "time": 449.83288350001646,
          "velocity": 1,
          "duration": 0.08333325000000968
        },
        {
          "name": "G#3",
          "midi": 56,
          "time": 449.83288350001646,
          "velocity": 1,
          "duration": 0.16666650000001937
        },
        {
          "name": "F6",
          "midi": 89,
          "time": 449.9162167500165,
          "velocity": 1,
          "duration": 0.08333325000000968
        },
        {
          "name": "F5",
          "midi": 77,
          "time": 449.9162167500165,
          "velocity": 1,
          "duration": 0.08333325000000968
        },
        {
          "name": "C5",
          "midi": 72,
          "time": 449.9995500000165,
          "velocity": 1,
          "duration": 0.16666650000001937
        },
        {
          "name": "F5",
          "midi": 77,
          "time": 449.9995500000165,
          "velocity": 1,
          "duration": 0.08333325000000968
        },
        {
          "name": "F6",
          "midi": 89,
          "time": 449.9995500000165,
          "velocity": 1,
          "duration": 0.08333325000000968
        },
        {
          "name": "A2",
          "midi": 45,
          "time": 449.9995500000165,
          "velocity": 1,
          "duration": 0.16666650000001937
        },
        {
          "name": "F6",
          "midi": 89,
          "time": 450.0828832500165,
          "velocity": 1,
          "duration": 0.08333325000000968
        },
        {
          "name": "F5",
          "midi": 77,
          "time": 450.0828832500165,
          "velocity": 1,
          "duration": 0.08333325000000968
        },
        {
          "name": "A3",
          "midi": 57,
          "time": 450.1662165000165,
          "velocity": 1,
          "duration": 0.16666650000001937
        },
        {
          "name": "D#6",
          "midi": 87,
          "time": 450.1662165000165,
          "velocity": 1,
          "duration": 0.08333325000000968
        },
        {
          "name": "D#5",
          "midi": 75,
          "time": 450.1662165000165,
          "velocity": 1,
          "duration": 0.08333325000000968
        },
        {
          "name": "C4",
          "midi": 60,
          "time": 450.1662165000165,
          "velocity": 1,
          "duration": 0.16666650000001937
        },
        {
          "name": "D#5",
          "midi": 75,
          "time": 450.2495497500165,
          "velocity": 1,
          "duration": 0.08333325000000968
        },
        {
          "name": "D#6",
          "midi": 87,
          "time": 450.2495497500165,
          "velocity": 1,
          "duration": 0.08333325000000968
        },
        {
          "name": "A3",
          "midi": 57,
          "time": 450.3328830000165,
          "velocity": 1,
          "duration": 0.16666650000001937
        },
        {
          "name": "D6",
          "midi": 86,
          "time": 450.3328830000165,
          "velocity": 1,
          "duration": 0.08333325000000968
        },
        {
          "name": "D5",
          "midi": 74,
          "time": 450.3328830000165,
          "velocity": 1,
          "duration": 0.08333325000000968
        },
        {
          "name": "C4",
          "midi": 60,
          "time": 450.3328830000165,
          "velocity": 1,
          "duration": 0.16666650000001937
        },
        {
          "name": "D6",
          "midi": 86,
          "time": 450.41621625001653,
          "velocity": 1,
          "duration": 0.08333325000000968
        },
        {
          "name": "D5",
          "midi": 74,
          "time": 450.41621625001653,
          "velocity": 1,
          "duration": 0.08333325000000968
        },
        {
          "name": "C4",
          "midi": 60,
          "time": 450.49954950001654,
          "velocity": 1,
          "duration": 0.16666650000001937
        },
        {
          "name": "D#5",
          "midi": 75,
          "time": 450.49954950001654,
          "velocity": 1,
          "duration": 0.08333325000000968
        },
        {
          "name": "D#6",
          "midi": 87,
          "time": 450.49954950001654,
          "velocity": 1,
          "duration": 0.08333325000000968
        },
        {
          "name": "A3",
          "midi": 57,
          "time": 450.49954950001654,
          "velocity": 1,
          "duration": 0.16666650000001937
        },
        {
          "name": "D#6",
          "midi": 87,
          "time": 450.58288275001655,
          "velocity": 1,
          "duration": 0.08333325000000968
        },
        {
          "name": "D#5",
          "midi": 75,
          "time": 450.58288275001655,
          "velocity": 1,
          "duration": 0.08333325000000968
        },
        {
          "name": "C4",
          "midi": 60,
          "time": 450.66621600001656,
          "velocity": 1,
          "duration": 0.16666650000001937
        },
        {
          "name": "F5",
          "midi": 77,
          "time": 450.66621600001656,
          "velocity": 1,
          "duration": 0.08333325000000968
        },
        {
          "name": "F6",
          "midi": 89,
          "time": 450.66621600001656,
          "velocity": 1,
          "duration": 0.08333325000000968
        },
        {
          "name": "A3",
          "midi": 57,
          "time": 450.66621600001656,
          "velocity": 1,
          "duration": 0.16666650000001937
        },
        {
          "name": "F6",
          "midi": 89,
          "time": 450.74954925001657,
          "velocity": 1,
          "duration": 0.08333325000000968
        },
        {
          "name": "F5",
          "midi": 77,
          "time": 450.74954925001657,
          "velocity": 1,
          "duration": 0.08333325000000968
        },
        {
          "name": "A3",
          "midi": 57,
          "time": 450.8328825000166,
          "velocity": 1,
          "duration": 0.16666650000001937
        },
        {
          "name": "D#6",
          "midi": 87,
          "time": 450.8328825000166,
          "velocity": 1,
          "duration": 0.08333325000000968
        },
        {
          "name": "D#5",
          "midi": 75,
          "time": 450.8328825000166,
          "velocity": 1,
          "duration": 0.08333325000000968
        },
        {
          "name": "C4",
          "midi": 60,
          "time": 450.8328825000166,
          "velocity": 1,
          "duration": 0.16666650000001937
        },
        {
          "name": "D#6",
          "midi": 87,
          "time": 450.9162157500166,
          "velocity": 1,
          "duration": 0.08333325000000968
        },
        {
          "name": "D#5",
          "midi": 75,
          "time": 450.9162157500166,
          "velocity": 1,
          "duration": 0.08333325000000968
        },
        {
          "name": "F3",
          "midi": 53,
          "time": 450.9995490000166,
          "velocity": 1,
          "duration": 0.16666650000001937
        },
        {
          "name": "D5",
          "midi": 74,
          "time": 450.9995490000166,
          "velocity": 1,
          "duration": 0.16666650000001937
        },
        {
          "name": "D6",
          "midi": 86,
          "time": 450.9995490000166,
          "velocity": 1,
          "duration": 0.33333300000003874
        },
        {
          "name": "A#3",
          "midi": 58,
          "time": 450.9995490000166,
          "velocity": 1,
          "duration": 0.33333300000003874
        },
        {
          "name": "A#4",
          "midi": 70,
          "time": 451.1662155000166,
          "velocity": 1,
          "duration": 0.16666650000001937
        },
        {
          "name": "F4",
          "midi": 65,
          "time": 451.33288200001664,
          "velocity": 1,
          "duration": 0.16666650000001937
        },
        {
          "name": "D4",
          "midi": 62,
          "time": 451.33288200001664,
          "velocity": 1,
          "duration": 0.16666650000001937
        },
        {
          "name": "A#4",
          "midi": 70,
          "time": 451.49954850001666,
          "velocity": 1,
          "duration": 0.16666650000001937
        },
        {
          "name": "A#3",
          "midi": 58,
          "time": 451.49954850001666,
          "velocity": 1,
          "duration": 0.16666650000001937
        },
        {
          "name": "F4",
          "midi": 65,
          "time": 451.6662150000167,
          "velocity": 1,
          "duration": 0.16666650000001937
        },
        {
          "name": "D4",
          "midi": 62,
          "time": 451.6662150000167,
          "velocity": 1,
          "duration": 0.16666650000001937
        },
        {
          "name": "A#4",
          "midi": 70,
          "time": 451.8328815000167,
          "velocity": 1,
          "duration": 0.16666650000001937
        },
        {
          "name": "A#3",
          "midi": 58,
          "time": 451.8328815000167,
          "velocity": 1,
          "duration": 0.16666650000001937
        },
        {
          "name": "F4",
          "midi": 65,
          "time": 451.9995480000167,
          "velocity": 1,
          "duration": 0.16666650000001937
        },
        {
          "name": "D4",
          "midi": 62,
          "time": 451.9995480000167,
          "velocity": 1,
          "duration": 0.16666650000001937
        },
        {
          "name": "A#3",
          "midi": 58,
          "time": 452.16621450001674,
          "velocity": 1,
          "duration": 0.16666650000001937
        },
        {
          "name": "A#4",
          "midi": 70,
          "time": 452.16621450001674,
          "velocity": 1,
          "duration": 0.16666650000001937
        },
        {
          "name": "F4",
          "midi": 65,
          "time": 452.33288100001676,
          "velocity": 1,
          "duration": 0.16666650000001937
        },
        {
          "name": "D4",
          "midi": 62,
          "time": 452.33288100001676,
          "velocity": 1,
          "duration": 0.16666650000001937
        },
        {
          "name": "A#4",
          "midi": 70,
          "time": 452.4995475000168,
          "velocity": 1,
          "duration": 0.16666650000001937
        },
        {
          "name": "A#3",
          "midi": 58,
          "time": 452.4995475000168,
          "velocity": 1,
          "duration": 0.16666650000001937
        },
        {
          "name": "F4",
          "midi": 65,
          "time": 452.6662140000168,
          "velocity": 1,
          "duration": 0.16666650000001937
        },
        {
          "name": "D4",
          "midi": 62,
          "time": 452.6662140000168,
          "velocity": 1,
          "duration": 0.16666650000001937
        },
        {
          "name": "A#3",
          "midi": 58,
          "time": 452.8328805000168,
          "velocity": 1,
          "duration": 0.16666650000001937
        },
        {
          "name": "A#4",
          "midi": 70,
          "time": 452.8328805000168,
          "velocity": 1,
          "duration": 0.16666650000001937
        },
        {
          "name": "A#2",
          "midi": 46,
          "time": 452.99954700001683,
          "velocity": 1,
          "duration": 0.33333300000003874
        },
        {
          "name": "F4",
          "midi": 65,
          "time": 452.99954700001683,
          "velocity": 1,
          "duration": 0.16666650000001937
        },
        {
          "name": "D4",
          "midi": 62,
          "time": 452.99954700001683,
          "velocity": 1,
          "duration": 0.16666650000001937
        },
        {
          "name": "A#4",
          "midi": 70,
          "time": 453.16621350001685,
          "velocity": 1,
          "duration": 0.16666650000001937
        },
        {
          "name": "A#3",
          "midi": 58,
          "time": 453.16621350001685,
          "velocity": 1,
          "duration": 0.16666650000001937
        },
        {
          "name": "D4",
          "midi": 62,
          "time": 453.33288000001687,
          "velocity": 1,
          "duration": 0.16666650000001937
        },
        {
          "name": "F4",
          "midi": 65,
          "time": 453.33288000001687,
          "velocity": 1,
          "duration": 0.16666650000001937
        },
        {
          "name": "D3",
          "midi": 50,
          "time": 453.33288000001687,
          "velocity": 1,
          "duration": 0.33333300000003874
        },
        {
          "name": "A#4",
          "midi": 70,
          "time": 453.4995465000169,
          "velocity": 1,
          "duration": 0.16666650000001937
        },
        {
          "name": "A#3",
          "midi": 58,
          "time": 453.4995465000169,
          "velocity": 1,
          "duration": 0.16666650000001937
        },
        {
          "name": "F3",
          "midi": 53,
          "time": 453.6662130000169,
          "velocity": 1,
          "duration": 0.33333300000003874
        },
        {
          "name": "F4",
          "midi": 65,
          "time": 453.6662130000169,
          "velocity": 1,
          "duration": 0.16666650000001937
        },
        {
          "name": "D4",
          "midi": 62,
          "time": 453.6662130000169,
          "velocity": 1,
          "duration": 0.16666650000001937
        },
        {
          "name": "A#3",
          "midi": 58,
          "time": 453.83287950001693,
          "velocity": 1,
          "duration": 0.16666650000001937
        },
        {
          "name": "A#4",
          "midi": 70,
          "time": 453.83287950001693,
          "velocity": 1,
          "duration": 0.16666650000001937
        },
        {
          "name": "A#3",
          "midi": 58,
          "time": 453.99954600001695,
          "velocity": 1,
          "duration": 0.33333300000003874
        },
        {
          "name": "F4",
          "midi": 65,
          "time": 453.99954600001695,
          "velocity": 1,
          "duration": 0.16666650000001937
        },
        {
          "name": "D4",
          "midi": 62,
          "time": 453.99954600001695,
          "velocity": 1,
          "duration": 0.16666650000001937
        },
        {
          "name": "A#4",
          "midi": 70,
          "time": 454.16621250001697,
          "velocity": 1,
          "duration": 0.16666650000001937
        },
        {
          "name": "F4",
          "midi": 65,
          "time": 454.332879000017,
          "velocity": 1,
          "duration": 0.16666650000001937
        },
        {
          "name": "G#4",
          "midi": 68,
          "time": 454.332879000017,
          "velocity": 1,
          "duration": 0.16666650000001937
        },
        {
          "name": "F5",
          "midi": 77,
          "time": 454.332879000017,
          "velocity": 1,
          "duration": 0.4999995000000581
        },
        {
          "name": "D4",
          "midi": 62,
          "time": 454.332879000017,
          "velocity": 1,
          "duration": 0.33333300000003874
        },
        {
          "name": "A#4",
          "midi": 70,
          "time": 454.499545500017,
          "velocity": 1,
          "duration": 0.16666650000001937
        },
        {
          "name": "A#3",
          "midi": 58,
          "time": 454.499545500017,
          "velocity": 1,
          "duration": 0.16666650000001937
        },
        {
          "name": "F4",
          "midi": 65,
          "time": 454.666212000017,
          "velocity": 1,
          "duration": 0.33333300000003874
        },
        {
          "name": "G#4",
          "midi": 68,
          "time": 454.666212000017,
          "velocity": 1,
          "duration": 0.16666650000001937
        },
        {
          "name": "D4",
          "midi": 62,
          "time": 454.666212000017,
          "velocity": 1,
          "duration": 0.16666650000001937
        },
        {
          "name": "G#4",
          "midi": 68,
          "time": 454.83287850001705,
          "velocity": 1,
          "duration": 0.16666650000001937
        },
        {
          "name": "A#4",
          "midi": 70,
          "time": 454.83287850001705,
          "velocity": 1,
          "duration": 0.16666650000001937
        },
        {
          "name": "A#3",
          "midi": 58,
          "time": 454.83287850001705,
          "velocity": 1,
          "duration": 0.16666650000001937
        },
        {
          "name": "D#4",
          "midi": 63,
          "time": 454.99954500001706,
          "velocity": 1,
          "duration": 0.16666650000001937
        },
        {
          "name": "G4",
          "midi": 67,
          "time": 454.99954500001706,
          "velocity": 1,
          "duration": 0.33333300000003874
        },
        {
          "name": "A#2",
          "midi": 46,
          "time": 454.99954500001706,
          "velocity": 1,
          "duration": 0.33333300000003874
        },
        {
          "name": "A#4",
          "midi": 70,
          "time": 455.1662115000171,
          "velocity": 1,
          "duration": 0.16666650000001937
        },
        {
          "name": "A#3",
          "midi": 58,
          "time": 455.1662115000171,
          "velocity": 1,
          "duration": 0.16666650000001937
        },
        {
          "name": "G4",
          "midi": 67,
          "time": 455.3328780000171,
          "velocity": 1,
          "duration": 0.16666650000001937
        },
        {
          "name": "D#4",
          "midi": 63,
          "time": 455.3328780000171,
          "velocity": 1,
          "duration": 0.16666650000001937
        },
        {
          "name": "A#4",
          "midi": 70,
          "time": 455.4995445000171,
          "velocity": 1,
          "duration": 0.16666650000001937
        },
        {
          "name": "A#3",
          "midi": 58,
          "time": 455.4995445000171,
          "velocity": 1,
          "duration": 0.16666650000001937
        },
        {
          "name": "G4",
          "midi": 67,
          "time": 455.66621100001714,
          "velocity": 1,
          "duration": 0.16666650000001937
        },
        {
          "name": "D#4",
          "midi": 63,
          "time": 455.66621100001714,
          "velocity": 1,
          "duration": 0.16666650000001937
        },
        {
          "name": "A#4",
          "midi": 70,
          "time": 455.83287750001716,
          "velocity": 1,
          "duration": 0.16666650000001937
        },
        {
          "name": "A#3",
          "midi": 58,
          "time": 455.83287750001716,
          "velocity": 1,
          "duration": 0.16666650000001937
        },
        {
          "name": "G4",
          "midi": 67,
          "time": 455.9995440000172,
          "velocity": 1,
          "duration": 0.16666650000001937
        },
        {
          "name": "D#4",
          "midi": 63,
          "time": 455.9995440000172,
          "velocity": 1,
          "duration": 0.16666650000001937
        },
        {
          "name": "A#3",
          "midi": 58,
          "time": 456.1662105000172,
          "velocity": 1,
          "duration": 0.16666650000001937
        },
        {
          "name": "A#4",
          "midi": 70,
          "time": 456.1662105000172,
          "velocity": 1,
          "duration": 0.16666650000001937
        },
        {
          "name": "G4",
          "midi": 67,
          "time": 456.3328770000172,
          "velocity": 1,
          "duration": 0.16666650000001937
        },
        {
          "name": "D#4",
          "midi": 63,
          "time": 456.3328770000172,
          "velocity": 1,
          "duration": 0.16666650000001937
        },
        {
          "name": "A#4",
          "midi": 70,
          "time": 456.49954350001724,
          "velocity": 1,
          "duration": 0.16666650000001937
        },
        {
          "name": "A#3",
          "midi": 58,
          "time": 456.49954350001724,
          "velocity": 1,
          "duration": 0.16666650000001937
        },
        {
          "name": "G4",
          "midi": 67,
          "time": 456.66621000001726,
          "velocity": 1,
          "duration": 0.16666650000001937
        },
        {
          "name": "D#4",
          "midi": 63,
          "time": 456.66621000001726,
          "velocity": 1,
          "duration": 0.16666650000001937
        },
        {
          "name": "A#3",
          "midi": 58,
          "time": 456.8328765000173,
          "velocity": 1,
          "duration": 0.16666650000001937
        },
        {
          "name": "A#4",
          "midi": 70,
          "time": 456.8328765000173,
          "velocity": 1,
          "duration": 0.16666650000001937
        },
        {
          "name": "A#2",
          "midi": 46,
          "time": 456.9995430000173,
          "velocity": 1,
          "duration": 0.33333300000003874
        },
        {
          "name": "G4",
          "midi": 67,
          "time": 456.9995430000173,
          "velocity": 1,
          "duration": 0.16666650000001937
        },
        {
          "name": "D#4",
          "midi": 63,
          "time": 456.9995430000173,
          "velocity": 1,
          "duration": 0.16666650000001937
        },
        {
          "name": "A#4",
          "midi": 70,
          "time": 457.1662095000173,
          "velocity": 1,
          "duration": 0.16666650000001937
        },
        {
          "name": "A#3",
          "midi": 58,
          "time": 457.1662095000173,
          "velocity": 1,
          "duration": 0.16666650000001937
        },
        {
          "name": "D#4",
          "midi": 63,
          "time": 457.33287600001734,
          "velocity": 1,
          "duration": 0.16666650000001937
        },
        {
          "name": "G4",
          "midi": 67,
          "time": 457.33287600001734,
          "velocity": 1,
          "duration": 0.16666650000001937
        },
        {
          "name": "D#3",
          "midi": 51,
          "time": 457.33287600001734,
          "velocity": 1,
          "duration": 0.33333300000003874
        },
        {
          "name": "A#4",
          "midi": 70,
          "time": 457.49954250001736,
          "velocity": 1,
          "duration": 0.16666650000001937
        },
        {
          "name": "A#3",
          "midi": 58,
          "time": 457.49954250001736,
          "velocity": 1,
          "duration": 0.16666650000001937
        },
        {
          "name": "G3",
          "midi": 55,
          "time": 457.6662090000174,
          "velocity": 1,
          "duration": 0.33333300000003874
        },
        {
          "name": "G4",
          "midi": 67,
          "time": 457.6662090000174,
          "velocity": 1,
          "duration": 0.16666650000001937
        },
        {
          "name": "D#4",
          "midi": 63,
          "time": 457.6662090000174,
          "velocity": 1,
          "duration": 0.16666650000001937
        },
        {
          "name": "A#3",
          "midi": 58,
          "time": 457.8328755000174,
          "velocity": 1,
          "duration": 0.16666650000001937
        },
        {
          "name": "A#4",
          "midi": 70,
          "time": 457.8328755000174,
          "velocity": 1,
          "duration": 0.16666650000001937
        },
        {
          "name": "A#3",
          "midi": 58,
          "time": 457.9995420000174,
          "velocity": 1,
          "duration": 0.33333300000003874
        },
        {
          "name": "G4",
          "midi": 67,
          "time": 457.9995420000174,
          "velocity": 1,
          "duration": 0.16666650000001937
        },
        {
          "name": "D#4",
          "midi": 63,
          "time": 457.9995420000174,
          "velocity": 1,
          "duration": 0.16666650000001937
        },
        {
          "name": "A#4",
          "midi": 70,
          "time": 458.16620850001743,
          "velocity": 1,
          "duration": 0.16666650000001937
        },
        {
          "name": "D#4",
          "midi": 63,
          "time": 458.33287500001745,
          "velocity": 1,
          "duration": 0.16666650000001937
        },
        {
          "name": "G4",
          "midi": 67,
          "time": 458.33287500001745,
          "velocity": 1,
          "duration": 0.33333300000003874
        },
        {
          "name": "D#5",
          "midi": 75,
          "time": 458.33287500001745,
          "velocity": 1,
          "duration": 0.4999995000000581
        },
        {
          "name": "A#4",
          "midi": 70,
          "time": 458.4995415000175,
          "velocity": 1,
          "duration": 0.16666650000001937
        },
        {
          "name": "A#3",
          "midi": 58,
          "time": 458.4995415000175,
          "velocity": 1,
          "duration": 0.16666650000001937
        },
        {
          "name": "D#4",
          "midi": 63,
          "time": 458.6662080000175,
          "velocity": 1,
          "duration": 0.33333300000003874
        },
        {
          "name": "G4",
          "midi": 67,
          "time": 458.6662080000175,
          "velocity": 1,
          "duration": 0.16666650000001937
        },
        {
          "name": "G4",
          "midi": 67,
          "time": 458.8328745000175,
          "velocity": 1,
          "duration": 0.16666650000001937
        },
        {
          "name": "A#4",
          "midi": 70,
          "time": 458.8328745000175,
          "velocity": 1,
          "duration": 0.16666650000001937
        },
        {
          "name": "A#3",
          "midi": 58,
          "time": 458.8328745000175,
          "velocity": 1,
          "duration": 0.16666650000001937
        },
        {
          "name": "D4",
          "midi": 62,
          "time": 458.99954100001753,
          "velocity": 1,
          "duration": 0.33333300000003874
        },
        {
          "name": "F4",
          "midi": 65,
          "time": 458.99954100001753,
          "velocity": 1,
          "duration": 0.16666650000001937
        },
        {
          "name": "G#4",
          "midi": 68,
          "time": 458.99954100001753,
          "velocity": 1,
          "duration": 0.16666650000001937
        },
        {
          "name": "A#3",
          "midi": 58,
          "time": 458.99954100001753,
          "velocity": 1,
          "duration": 0.33333300000003874
        },
        {
          "name": "F4",
          "midi": 65,
          "time": 459.16620750001755,
          "velocity": 1,
          "duration": 0.16666650000001937
        },
        {
          "name": "G#4",
          "midi": 68,
          "time": 459.33287400001757,
          "velocity": 1,
          "duration": 0.16666650000001937
        },
        {
          "name": "F4",
          "midi": 65,
          "time": 459.33287400001757,
          "velocity": 1,
          "duration": 0.16666650000001937
        },
        {
          "name": "F4",
          "midi": 65,
          "time": 459.4995405000176,
          "velocity": 1,
          "duration": 0.16666650000001937
        },
        {
          "name": "D4",
          "midi": 62,
          "time": 459.4995405000176,
          "velocity": 1,
          "duration": 0.16666650000001937
        },
        {
          "name": "F4",
          "midi": 65,
          "time": 459.6662070000176,
          "velocity": 1,
          "duration": 0.16666650000001937
        },
        {
          "name": "G#4",
          "midi": 68,
          "time": 459.6662070000176,
          "velocity": 1,
          "duration": 0.16666650000001937
        },
        {
          "name": "F4",
          "midi": 65,
          "time": 459.8328735000176,
          "velocity": 1,
          "duration": 0.16666650000001937
        },
        {
          "name": "D4",
          "midi": 62,
          "time": 459.8328735000176,
          "velocity": 1,
          "duration": 0.16666650000001937
        },
        {
          "name": "G#4",
          "midi": 68,
          "time": 459.99954000001765,
          "velocity": 1,
          "duration": 0.16666650000001937
        },
        {
          "name": "F4",
          "midi": 65,
          "time": 459.99954000001765,
          "velocity": 1,
          "duration": 0.16666650000001937
        },
        {
          "name": "F4",
          "midi": 65,
          "time": 460.16620650001767,
          "velocity": 1,
          "duration": 0.16666650000001937
        },
        {
          "name": "D4",
          "midi": 62,
          "time": 460.16620650001767,
          "velocity": 1,
          "duration": 0.16666650000001937
        },
        {
          "name": "F4",
          "midi": 65,
          "time": 460.3328730000177,
          "velocity": 1,
          "duration": 0.16666650000001937
        },
        {
          "name": "G#4",
          "midi": 68,
          "time": 460.3328730000177,
          "velocity": 1,
          "duration": 0.16666650000001937
        },
        {
          "name": "F4",
          "midi": 65,
          "time": 460.4995395000177,
          "velocity": 1,
          "duration": 0.16666650000001937
        },
        {
          "name": "D4",
          "midi": 62,
          "time": 460.4995395000177,
          "velocity": 1,
          "duration": 0.16666650000001937
        },
        {
          "name": "G#4",
          "midi": 68,
          "time": 460.6662060000177,
          "velocity": 1,
          "duration": 0.16666650000001937
        },
        {
          "name": "F4",
          "midi": 65,
          "time": 460.6662060000177,
          "velocity": 1,
          "duration": 0.16666650000001937
        },
        {
          "name": "F4",
          "midi": 65,
          "time": 460.83287250001774,
          "velocity": 1,
          "duration": 0.16666650000001937
        },
        {
          "name": "D4",
          "midi": 62,
          "time": 460.83287250001774,
          "velocity": 1,
          "duration": 0.16666650000001937
        },
        {
          "name": "G#4",
          "midi": 68,
          "time": 460.99953900001776,
          "velocity": 1,
          "duration": 0.3333329999999819
        },
        {
          "name": "F4",
          "midi": 65,
          "time": 460.99953900001776,
          "velocity": 1,
          "duration": 0.3333329999999819
        },
        {
          "name": "C4",
          "midi": 60,
          "time": 461.33287200001774,
          "velocity": 1,
          "duration": 0.49999950000000126
        },
        {
          "name": "C6",
          "midi": 84,
          "time": 461.33287200001774,
          "velocity": 1,
          "duration": 0.49999950000000126
        },
        {
          "name": "C5",
          "midi": 72,
          "time": 461.33287200001774,
          "velocity": 1,
          "duration": 0.49999950000000126
        },
        {
          "name": "A#4",
          "midi": 70,
          "time": 461.83287150001775,
          "velocity": 1,
          "duration": 0.16666650000001937
        },
        {
          "name": "A#5",
          "midi": 82,
          "time": 461.83287150001775,
          "velocity": 1,
          "duration": 0.16666650000001937
        },
        {
          "name": "A#3",
          "midi": 58,
          "time": 461.83287150001775,
          "velocity": 1,
          "duration": 0.16666650000001937
        },
        {
          "name": "G#3",
          "midi": 56,
          "time": 461.99953800001776,
          "velocity": 1,
          "duration": 0.3333329999999819
        },
        {
          "name": "G#5",
          "midi": 80,
          "time": 461.99953800001776,
          "velocity": 1,
          "duration": 0.3333329999999819
        },
        {
          "name": "G#4",
          "midi": 68,
          "time": 461.99953800001776,
          "velocity": 1,
          "duration": 0.3333329999999819
        },
        {
          "name": "G3",
          "midi": 55,
          "time": 462.33287100001775,
          "velocity": 1,
          "duration": 0.3333329999999819
        },
        {
          "name": "G5",
          "midi": 79,
          "time": 462.33287100001775,
          "velocity": 1,
          "duration": 0.3333329999999819
        },
        {
          "name": "G4",
          "midi": 67,
          "time": 462.33287100001775,
          "velocity": 1,
          "duration": 0.3333329999999819
        },
        {
          "name": "F4",
          "midi": 65,
          "time": 462.66620400001773,
          "velocity": 1,
          "duration": 0.3333329999999819
        },
        {
          "name": "F5",
          "midi": 77,
          "time": 462.66620400001773,
          "velocity": 1,
          "duration": 0.3333329999999819
        },
        {
          "name": "F3",
          "midi": 53,
          "time": 462.66620400001773,
          "velocity": 1,
          "duration": 0.3333329999999819
        },
        {
          "name": "D#4",
          "midi": 63,
          "time": 462.9995370000177,
          "velocity": 1,
          "duration": 2.333330999999987
        },
        {
          "name": "D#3",
          "midi": 51,
          "time": 462.9995370000177,
          "velocity": 1,
          "duration": 0.3333329999999819
        },
        {
          "name": "D#5",
          "midi": 75,
          "time": 462.9995370000177,
          "velocity": 1,
          "duration": 2.333330999999987
        },
        {
          "name": "D4",
          "midi": 62,
          "time": 463.6662030000177,
          "velocity": 1,
          "duration": 0.16666650000001937
        },
        {
          "name": "C#4",
          "midi": 61,
          "time": 463.8328695000177,
          "velocity": 1,
          "duration": 0.16666650000001937
        },
        {
          "name": "C4",
          "midi": 60,
          "time": 463.9995360000177,
          "velocity": 1,
          "duration": 0.3333329999999819
        },
        {
          "name": "A#3",
          "midi": 58,
          "time": 464.3328690000177,
          "velocity": 1,
          "duration": 0.3333329999999819
        },
        {
          "name": "G#3",
          "midi": 56,
          "time": 464.6662020000177,
          "velocity": 1,
          "duration": 0.3333329999999819
        },
        {
          "name": "G3",
          "midi": 55,
          "time": 464.99953500001766,
          "velocity": 1,
          "duration": 0.16666650000001937
        },
        {
          "name": "A#3",
          "midi": 58,
          "time": 465.1662015000177,
          "velocity": 1,
          "duration": 0.16666650000001937
        },
        {
          "name": "G#3",
          "midi": 56,
          "time": 465.3328680000177,
          "velocity": 1,
          "duration": 0.16666650000001937
        },
        {
          "name": "A#5",
          "midi": 82,
          "time": 465.3328680000177,
          "velocity": 1,
          "duration": 0.33333300000003874
        },
        {
          "name": "A#4",
          "midi": 70,
          "time": 465.3328680000177,
          "velocity": 1,
          "duration": 0.33333300000003874
        },
        {
          "name": "G3",
          "midi": 55,
          "time": 465.4995345000177,
          "velocity": 1,
          "duration": 0.16666650000001937
        },
        {
          "name": "F3",
          "midi": 53,
          "time": 465.66620100001774,
          "velocity": 1,
          "duration": 0.16666650000001937
        },
        {
          "name": "A#4",
          "midi": 70,
          "time": 465.66620100001774,
          "velocity": 1,
          "duration": 0.33333300000003874
        },
        {
          "name": "A#5",
          "midi": 82,
          "time": 465.66620100001774,
          "velocity": 1,
          "duration": 0.33333300000003874
        },
        {
          "name": "D#3",
          "midi": 51,
          "time": 465.83286750001776,
          "velocity": 1,
          "duration": 0.16666650000001937
        },
        {
          "name": "D3",
          "midi": 50,
          "time": 465.9995340000178,
          "velocity": 1,
          "duration": 0.16666650000001937
        },
        {
          "name": "A#5",
          "midi": 82,
          "time": 465.9995340000178,
          "velocity": 1,
          "duration": 0.33333300000003874
        },
        {
          "name": "A#4",
          "midi": 70,
          "time": 465.9995340000178,
          "velocity": 1,
          "duration": 0.33333300000003874
        },
        {
          "name": "A#3",
          "midi": 58,
          "time": 466.1662005000178,
          "velocity": 1,
          "duration": 0.16666650000001937
        },
        {
          "name": "D#3",
          "midi": 51,
          "time": 466.1662005000178,
          "velocity": 1,
          "duration": 0.16666650000001937
        },
        {
          "name": "F3",
          "midi": 53,
          "time": 466.3328670000178,
          "velocity": 1,
          "duration": 0.16666650000001937
        },
        {
          "name": "A#5",
          "midi": 82,
          "time": 466.3328670000178,
          "velocity": 1,
          "duration": 0.33333300000003874
        },
        {
          "name": "A#4",
          "midi": 70,
          "time": 466.3328670000178,
          "velocity": 1,
          "duration": 0.33333300000003874
        },
        {
          "name": "A#3",
          "midi": 58,
          "time": 466.3328670000178,
          "velocity": 1,
          "duration": 0.16666650000001937
        },
        {
          "name": "A#2",
          "midi": 46,
          "time": 466.49953350001783,
          "velocity": 1,
          "duration": 0.16666650000001937
        },
        {
          "name": "A#3",
          "midi": 58,
          "time": 466.49953350001783,
          "velocity": 1,
          "duration": 0.16666650000001937
        },
        {
          "name": "A#3",
          "midi": 58,
          "time": 466.66620000001785,
          "velocity": 1,
          "duration": 0.16666650000001937
        },
        {
          "name": "A#4",
          "midi": 70,
          "time": 466.66620000001785,
          "velocity": 1,
          "duration": 0.33333300000003874
        },
        {
          "name": "A#5",
          "midi": 82,
          "time": 466.66620000001785,
          "velocity": 1,
          "duration": 0.33333300000003874
        },
        {
          "name": "C3",
          "midi": 48,
          "time": 466.66620000001785,
          "velocity": 1,
          "duration": 0.16666650000001937
        },
        {
          "name": "D3",
          "midi": 50,
          "time": 466.8328665000179,
          "velocity": 1,
          "duration": 0.16666650000001937
        },
        {
          "name": "A#3",
          "midi": 58,
          "time": 466.8328665000179,
          "velocity": 1,
          "duration": 0.16666650000001937
        },
        {
          "name": "D#3",
          "midi": 51,
          "time": 466.9995330000179,
          "velocity": 1,
          "duration": 2.166664500000252
        },
        {
          "name": "A#5",
          "midi": 82,
          "time": 466.9995330000179,
          "velocity": 1,
          "duration": 0.16666650000001937
        },
        {
          "name": "A#4",
          "midi": 70,
          "time": 466.9995330000179,
          "velocity": 1,
          "duration": 0.16666650000001937
        },
        {
          "name": "A#3",
          "midi": 58,
          "time": 466.9995330000179,
          "velocity": 1,
          "duration": 0.16666650000001937
        },
        {
          "name": "D#4",
          "midi": 63,
          "time": 467.1661995000179,
          "velocity": 1,
          "duration": 0.16666650000001937
        },
        {
          "name": "G5",
          "midi": 79,
          "time": 467.1661995000179,
          "velocity": 1,
          "duration": 0.16666650000001937
        },
        {
          "name": "D#4",
          "midi": 63,
          "time": 467.33286600001793,
          "velocity": 1,
          "duration": 0.16666650000001937
        },
        {
          "name": "D4",
          "midi": 62,
          "time": 467.33286600001793,
          "velocity": 1,
          "duration": 0.16666650000001937
        },
        {
          "name": "F5",
          "midi": 77,
          "time": 467.33286600001793,
          "velocity": 1,
          "duration": 0.16666650000001937
        },
        {
          "name": "D#4",
          "midi": 63,
          "time": 467.49953250001795,
          "velocity": 1,
          "duration": 0.16666650000001937
        },
        {
          "name": "G5",
          "midi": 79,
          "time": 467.49953250001795,
          "velocity": 1,
          "duration": 0.16666650000001937
        },
        {
          "name": "D4",
          "midi": 62,
          "time": 467.66619900001797,
          "velocity": 1,
          "duration": 0.16666650000001937
        },
        {
          "name": "G#5",
          "midi": 80,
          "time": 467.66619900001797,
          "velocity": 1,
          "duration": 0.16666650000001937
        },
        {
          "name": "F4",
          "midi": 65,
          "time": 467.66619900001797,
          "velocity": 1,
          "duration": 0.16666650000001937
        },
        {
          "name": "C#4",
          "midi": 61,
          "time": 467.832865500018,
          "velocity": 1,
          "duration": 0.16666650000001937
        },
        {
          "name": "A#5",
          "midi": 82,
          "time": 467.832865500018,
          "velocity": 1,
          "duration": 0.16666650000001937
        },
        {
          "name": "G4",
          "midi": 67,
          "time": 467.832865500018,
          "velocity": 1,
          "duration": 0.16666650000001937
        },
        {
          "name": "C4",
          "midi": 60,
          "time": 467.999532000018,
          "velocity": 1,
          "duration": 0.16666650000001937
        },
        {
          "name": "G#4",
          "midi": 68,
          "time": 467.999532000018,
          "velocity": 1,
          "duration": 0.16666650000001937
        },
        {
          "name": "C6",
          "midi": 84,
          "time": 467.999532000018,
          "velocity": 1,
          "duration": 0.16666650000001937
        },
        {
          "name": "A#3",
          "midi": 58,
          "time": 468.166198500018,
          "velocity": 1,
          "duration": 0.16666650000001937
        },
        {
          "name": "D6",
          "midi": 86,
          "time": 468.166198500018,
          "velocity": 1,
          "duration": 0.16666650000001937
        },
        {
          "name": "A#4",
          "midi": 70,
          "time": 468.166198500018,
          "velocity": 1,
          "duration": 0.16666650000001937
        },
        {
          "name": "G#3",
          "midi": 56,
          "time": 468.33286500001805,
          "velocity": 1,
          "duration": 0.16666650000001937
        },
        {
          "name": "C5",
          "midi": 72,
          "time": 468.33286500001805,
          "velocity": 1,
          "duration": 0.16666650000001937
        },
        {
          "name": "D#6",
          "midi": 87,
          "time": 468.33286500001805,
          "velocity": 1,
          "duration": 0.16666650000001937
        },
        {
          "name": "C4",
          "midi": 60,
          "time": 468.49953150001807,
          "velocity": 1,
          "duration": 0.16666650000001937
        },
        {
          "name": "D#6",
          "midi": 87,
          "time": 468.49953150001807,
          "velocity": 1,
          "duration": 0.16666650000001937
        },
        {
          "name": "D#5",
          "midi": 75,
          "time": 468.49953150001807,
          "velocity": 1,
          "duration": 0.16666650000001937
        },
        {
          "name": "A#3",
          "midi": 58,
          "time": 468.6661980000181,
          "velocity": 1,
          "duration": 0.16666650000001937
        },
        {
          "name": "D5",
          "midi": 74,
          "time": 468.6661980000181,
          "velocity": 1,
          "duration": 0.16666650000001937
        },
        {
          "name": "D#6",
          "midi": 87,
          "time": 468.6661980000181,
          "velocity": 1,
          "duration": 0.16666650000001937
        },
        {
          "name": "G#3",
          "midi": 56,
          "time": 468.8328645000181,
          "velocity": 1,
          "duration": 0.16666650000001937
        },
        {
          "name": "D#6",
          "midi": 87,
          "time": 468.8328645000181,
          "velocity": 1,
          "duration": 0.16666650000001937
        },
        {
          "name": "C5",
          "midi": 72,
          "time": 468.8328645000181,
          "velocity": 1,
          "duration": 0.16666650000001937
        },
        {
          "name": "G3",
          "midi": 55,
          "time": 468.9995310000181,
          "velocity": 1,
          "duration": 0.16666650000001937
        },
        {
          "name": "D#6",
          "midi": 87,
          "time": 468.9995310000181,
          "velocity": 1,
          "duration": 0.16666650000001937
        },
        {
          "name": "A#4",
          "midi": 70,
          "time": 468.9995310000181,
          "velocity": 1,
          "duration": 0.16666650000001937
        },
        {
          "name": "A#4",
          "midi": 70,
          "time": 469.16619750001814,
          "velocity": 1,
          "duration": 0.16666650000001937
        },
        {
          "name": "G4",
          "midi": 67,
          "time": 469.16619750001814,
          "velocity": 1,
          "duration": 0.16666650000001937
        },
        {
          "name": "D#5",
          "midi": 75,
          "time": 469.16619750001814,
          "velocity": 1,
          "duration": 0.16666650000001937
        },
        {
          "name": "A#3",
          "midi": 58,
          "time": 469.16619750001814,
          "velocity": 1,
          "duration": 0.16666650000001937
        },
        {
          "name": "G#3",
          "midi": 56,
          "time": 469.33286400001816,
          "velocity": 1,
          "duration": 0.16666650000001937
        },
        {
          "name": "D5",
          "midi": 74,
          "time": 469.33286400001816,
          "velocity": 1,
          "duration": 0.16666650000001937
        },
        {
          "name": "F4",
          "midi": 65,
          "time": 469.33286400001816,
          "velocity": 1,
          "duration": 0.16666650000001937
        },
        {
          "name": "A#4",
          "midi": 70,
          "time": 469.33286400001816,
          "velocity": 1,
          "duration": 0.16666650000001937
        },
        {
          "name": "G3",
          "midi": 55,
          "time": 469.4995305000182,
          "velocity": 1,
          "duration": 0.16666650000001937
        },
        {
          "name": "D#5",
          "midi": 75,
          "time": 469.4995305000182,
          "velocity": 1,
          "duration": 0.16666650000001937
        },
        {
          "name": "G4",
          "midi": 67,
          "time": 469.4995305000182,
          "velocity": 1,
          "duration": 0.16666650000001937
        },
        {
          "name": "A#4",
          "midi": 70,
          "time": 469.4995305000182,
          "velocity": 1,
          "duration": 0.16666650000001937
        },
        {
          "name": "G#4",
          "midi": 68,
          "time": 469.6661970000182,
          "velocity": 1,
          "duration": 0.16666650000001937
        },
        {
          "name": "D5",
          "midi": 74,
          "time": 469.6661970000182,
          "velocity": 1,
          "duration": 0.16666650000001937
        },
        {
          "name": "F5",
          "midi": 77,
          "time": 469.6661970000182,
          "velocity": 1,
          "duration": 0.16666650000001937
        },
        {
          "name": "F3",
          "midi": 53,
          "time": 469.6661970000182,
          "velocity": 1,
          "duration": 0.16666650000001937
        },
        {
          "name": "D#3",
          "midi": 51,
          "time": 469.8328635000182,
          "velocity": 1,
          "duration": 0.16666650000001937
        },
        {
          "name": "G5",
          "midi": 79,
          "time": 469.8328635000182,
          "velocity": 1,
          "duration": 0.16666650000001937
        },
        {
          "name": "D#5",
          "midi": 75,
          "time": 469.8328635000182,
          "velocity": 1,
          "duration": 0.16666650000001937
        },
        {
          "name": "G4",
          "midi": 67,
          "time": 469.8328635000182,
          "velocity": 1,
          "duration": 0.16666650000001937
        },
        {
          "name": "F4",
          "midi": 65,
          "time": 469.99953000001824,
          "velocity": 1,
          "duration": 0.16666650000001937
        },
        {
          "name": "F5",
          "midi": 77,
          "time": 469.99953000001824,
          "velocity": 1,
          "duration": 0.16666650000001937
        },
        {
          "name": "G#5",
          "midi": 80,
          "time": 469.99953000001824,
          "velocity": 1,
          "duration": 0.16666650000001937
        },
        {
          "name": "D3",
          "midi": 50,
          "time": 469.99953000001824,
          "velocity": 1,
          "duration": 0.16666650000001937
        },
        {
          "name": "D#3",
          "midi": 51,
          "time": 470.16619650001826,
          "velocity": 1,
          "duration": 0.16666650000001937
        },
        {
          "name": "G#5",
          "midi": 80,
          "time": 470.16619650001826,
          "velocity": 1,
          "duration": 0.16666650000001937
        },
        {
          "name": "G5",
          "midi": 79,
          "time": 470.16619650001826,
          "velocity": 1,
          "duration": 0.16666650000001937
        },
        {
          "name": "D#4",
          "midi": 63,
          "time": 470.16619650001826,
          "velocity": 1,
          "duration": 0.16666650000001937
        },
        {
          "name": "D4",
          "midi": 62,
          "time": 470.3328630000183,
          "velocity": 1,
          "duration": 0.16666650000001937
        },
        {
          "name": "G#5",
          "midi": 80,
          "time": 470.3328630000183,
          "velocity": 1,
          "duration": 0.16666650000001937
        },
        {
          "name": "F3",
          "midi": 53,
          "time": 470.3328630000183,
          "velocity": 1,
          "duration": 0.16666650000001937
        },
        {
          "name": "D#3",
          "midi": 51,
          "time": 470.4995295000183,
          "velocity": 1,
          "duration": 0.16666650000001937
        },
        {
          "name": "G#5",
          "midi": 80,
          "time": 470.4995295000183,
          "velocity": 1,
          "duration": 0.16666650000001937
        },
        {
          "name": "G5",
          "midi": 79,
          "time": 470.4995295000183,
          "velocity": 1,
          "duration": 0.16666650000001937
        },
        {
          "name": "D#4",
          "midi": 63,
          "time": 470.4995295000183,
          "velocity": 1,
          "duration": 0.16666650000001937
        },
        {
          "name": "D3",
          "midi": 50,
          "time": 470.6661960000183,
          "velocity": 1,
          "duration": 0.16666650000001937
        },
        {
          "name": "G#5",
          "midi": 80,
          "time": 470.6661960000183,
          "velocity": 1,
          "duration": 0.16666650000001937
        },
        {
          "name": "F5",
          "midi": 77,
          "time": 470.6661960000183,
          "velocity": 1,
          "duration": 0.16666650000001937
        },
        {
          "name": "F4",
          "midi": 65,
          "time": 470.6661960000183,
          "velocity": 1,
          "duration": 0.16666650000001937
        },
        {
          "name": "F4",
          "midi": 65,
          "time": 470.83286250001834,
          "velocity": 1,
          "duration": 0.16666650000001937
        },
        {
          "name": "D#5",
          "midi": 75,
          "time": 470.83286250001834,
          "velocity": 1,
          "duration": 0.16666650000001937
        },
        {
          "name": "G#5",
          "midi": 80,
          "time": 470.83286250001834,
          "velocity": 1,
          "duration": 0.16666650000001937
        },
        {
          "name": "C3",
          "midi": 48,
          "time": 470.83286250001834,
          "velocity": 1,
          "duration": 0.16666650000001937
        },
        {
          "name": "B2",
          "midi": 47,
          "time": 470.99952900001836,
          "velocity": 1,
          "duration": 0.33333300000003874
        },
        {
          "name": "G#5",
          "midi": 80,
          "time": 470.99952900001836,
          "velocity": 1,
          "duration": 0.16666650000001937
        },
        {
          "name": "D5",
          "midi": 74,
          "time": 470.99952900001836,
          "velocity": 1,
          "duration": 0.33333300000003874
        },
        {
          "name": "F4",
          "midi": 65,
          "time": 470.99952900001836,
          "velocity": 1,
          "duration": 0.33333300000003874
        },
        {
          "name": "F5",
          "midi": 77,
          "time": 471.1661955000184,
          "velocity": 1,
          "duration": 0.08333325000000968
        },
        {
          "name": "G5",
          "midi": 79,
          "time": 471.2495287500184,
          "velocity": 1,
          "duration": 0.08333325000000968
        },
        {
          "name": "B3",
          "midi": 59,
          "time": 471.3328620000184,
          "velocity": 1,
          "duration": 0.33333300000003874
        },
        {
          "name": "G5",
          "midi": 79,
          "time": 471.3328620000184,
          "velocity": 1,
          "duration": 0.16666650000001937
        },
        {
          "name": "G#4",
          "midi": 68,
          "time": 471.3328620000184,
          "velocity": 1,
          "duration": 0.33333300000003874
        },
        {
          "name": "D4",
          "midi": 62,
          "time": 471.3328620000184,
          "velocity": 1,
          "duration": 0.33333300000003874
        },
        {
          "name": "D5",
          "midi": 74,
          "time": 471.4995285000184,
          "velocity": 1,
          "duration": 0.08333325000000968
        },
        {
          "name": "D#5",
          "midi": 75,
          "time": 471.5828617500184,
          "velocity": 1,
          "duration": 0.08333325000000968
        },
        {
          "name": "D5",
          "midi": 74,
          "time": 471.66619500001843,
          "velocity": 1,
          "duration": 0.16666650000001937
        },
        {
          "name": "G#4",
          "midi": 68,
          "time": 471.83286150001845,
          "velocity": 1,
          "duration": 0.08333325000000968
        },
        {
          "name": "A#4",
          "midi": 70,
          "time": 471.91619475001846,
          "velocity": 1,
          "duration": 0.08333325000000968
        },
        {
          "name": "G#4",
          "midi": 68,
          "time": 471.9995280000185,
          "velocity": 1,
          "duration": 0.16666650000001937
        },
        {
          "name": "F4",
          "midi": 65,
          "time": 472.1661945000185,
          "velocity": 1,
          "duration": 0.08333325000000968
        },
        {
          "name": "G4",
          "midi": 67,
          "time": 472.2495277500185,
          "velocity": 1,
          "duration": 0.08333325000000968
        },
        {
          "name": "F4",
          "midi": 65,
          "time": 472.3328610000185,
          "velocity": 1,
          "duration": 0.16666650000001937
        },
        {
          "name": "D4",
          "midi": 62,
          "time": 472.49952750001853,
          "velocity": 1,
          "duration": 0.08333325000000968
        },
        {
          "name": "D#4",
          "midi": 63,
          "time": 472.58286075001854,
          "velocity": 1,
          "duration": 0.08333325000000968
        },
        {
          "name": "D4",
          "midi": 62,
          "time": 472.66619400001855,
          "velocity": 1,
          "duration": 0.16666650000001937
        },
        {
          "name": "B2",
          "midi": 47,
          "time": 472.83286050001857,
          "velocity": 1,
          "duration": 0.16666650000001937
        },
        {
          "name": "G#5",
          "midi": 80,
          "time": 472.83286050001857,
          "velocity": 1,
          "duration": 0.16666650000001937
        },
        {
          "name": "D5",
          "midi": 74,
          "time": 472.83286050001857,
          "velocity": 1,
          "duration": 0.16666650000001937
        },
        {
          "name": "B3",
          "midi": 59,
          "time": 472.83286050001857,
          "velocity": 1,
          "duration": 0.16666650000001937
        },
        {
          "name": "C4",
          "midi": 60,
          "time": 472.9995270000186,
          "velocity": 1,
          "duration": 0.33333300000003874
        },
        {
          "name": "D#5",
          "midi": 75,
          "time": 472.9995270000186,
          "velocity": 1,
          "duration": 0.33333300000003874
        },
        {
          "name": "G5",
          "midi": 79,
          "time": 472.9995270000186,
          "velocity": 1,
          "duration": 0.16666650000001937
        },
        {
          "name": "C3",
          "midi": 48,
          "time": 472.9995270000186,
          "velocity": 1,
          "duration": 0.33333300000003874
        },
        {
          "name": "F5",
          "midi": 77,
          "time": 473.2495267500186,
          "velocity": 1,
          "duration": 0.08333325000000968
        },
        {
          "name": "C4",
          "midi": 60,
          "time": 473.3328600000186,
          "velocity": 1,
          "duration": 0.33333300000003874
        },
        {
          "name": "D#5",
          "midi": 75,
          "time": 473.3328600000186,
          "velocity": 1,
          "duration": 0.16666650000001937
        },
        {
          "name": "D#4",
          "midi": 63,
          "time": 473.3328600000186,
          "velocity": 1,
          "duration": 0.33333300000003874
        },
        {
          "name": "C5",
          "midi": 72,
          "time": 473.3328600000186,
          "velocity": 1,
          "duration": 0.33333300000003874
        },
        {
          "name": "D5",
          "midi": 74,
          "time": 473.58285975001866,
          "velocity": 1,
          "duration": 0.08333325000000968
        },
        {
          "name": "C5",
          "midi": 72,
          "time": 473.66619300001867,
          "velocity": 1,
          "duration": 0.16666650000001937
        },
        {
          "name": "G4",
          "midi": 67,
          "time": 473.8328595000187,
          "velocity": 1,
          "duration": 0.08333325000000968
        },
        {
          "name": "G#4",
          "midi": 68,
          "time": 473.9161927500187,
          "velocity": 1,
          "duration": 0.08333325000000968
        },
        {
          "name": "G4",
          "midi": 67,
          "time": 473.9995260000187,
          "velocity": 1,
          "duration": 0.16666650000001937
        },
        {
          "name": "D#4",
          "midi": 63,
          "time": 474.1661925000187,
          "velocity": 1,
          "duration": 0.08333325000000968
        },
        {
          "name": "F4",
          "midi": 65,
          "time": 474.24952575001873,
          "velocity": 1,
          "duration": 0.08333325000000968
        },
        {
          "name": "D#4",
          "midi": 63,
          "time": 474.33285900001874,
          "velocity": 1,
          "duration": 0.16666650000001937
        },
        {
          "name": "C4",
          "midi": 60,
          "time": 474.49952550001876,
          "velocity": 1,
          "duration": 0.08333325000000968
        },
        {
          "name": "D4",
          "midi": 62,
          "time": 474.5828587500188,
          "velocity": 1,
          "duration": 0.08333325000000968
        },
        {
          "name": "C4",
          "midi": 60,
          "time": 474.6661920000188,
          "velocity": 1,
          "duration": 0.16666650000001937
        },
        {
          "name": "C3",
          "midi": 48,
          "time": 474.8328585000188,
          "velocity": 1,
          "duration": 0.16666650000001937
        },
        {
          "name": "G5",
          "midi": 79,
          "time": 474.8328585000188,
          "velocity": 1,
          "duration": 0.16666650000001937
        },
        {
          "name": "D#4",
          "midi": 63,
          "time": 474.8328585000188,
          "velocity": 1,
          "duration": 0.16666650000001937
        },
        {
          "name": "C4",
          "midi": 60,
          "time": 474.8328585000188,
          "velocity": 1,
          "duration": 0.16666650000001937
        },
        {
          "name": "A#3",
          "midi": 58,
          "time": 474.9995250000188,
          "velocity": 1,
          "duration": 0.33333300000003874
        },
        {
          "name": "E4",
          "midi": 64,
          "time": 474.9995250000188,
          "velocity": 1,
          "duration": 0.33333300000003874
        },
        {
          "name": "C#6",
          "midi": 85,
          "time": 474.9995250000188,
          "velocity": 1,
          "duration": 0.16666650000001937
        },
        {
          "name": "A#2",
          "midi": 46,
          "time": 474.9995250000188,
          "velocity": 1,
          "duration": 0.33333300000003874
        },
        {
          "name": "C#5",
          "midi": 73,
          "time": 475.16619150001884,
          "velocity": 1,
          "duration": 0.08333325000000968
        },
        {
          "name": "D#5",
          "midi": 75,
          "time": 475.24952475001885,
          "velocity": 1,
          "duration": 0.08333325000000968
        },
        {
          "name": "G4",
          "midi": 67,
          "time": 475.33285800001886,
          "velocity": 1,
          "duration": 0.33333300000003874
        },
        {
          "name": "C#5",
          "midi": 73,
          "time": 475.33285800001886,
          "velocity": 1,
          "duration": 0.33333300000003874
        },
        {
          "name": "A#3",
          "midi": 58,
          "time": 475.33285800001886,
          "velocity": 1,
          "duration": 0.33333300000003874
        },
        {
          "name": "A#4",
          "midi": 70,
          "time": 475.4995245000189,
          "velocity": 1,
          "duration": 0.08333325000000968
        },
        {
          "name": "C5",
          "midi": 72,
          "time": 475.5828577500189,
          "velocity": 1,
          "duration": 0.08333325000000968
        },
        {
          "name": "A#4",
          "midi": 70,
          "time": 475.6661910000189,
          "velocity": 1,
          "duration": 0.16666650000001937
        },
        {
          "name": "G4",
          "midi": 67,
          "time": 475.8328575000189,
          "velocity": 1,
          "duration": 0.08333325000000968
        },
        {
          "name": "G#4",
          "midi": 68,
          "time": 475.9161907500189,
          "velocity": 1,
          "duration": 0.08333325000000968
        },
        {
          "name": "G4",
          "midi": 67,
          "time": 475.99952400001894,
          "velocity": 1,
          "duration": 0.16666650000001937
        },
        {
          "name": "E4",
          "midi": 64,
          "time": 476.16619050001896,
          "velocity": 1,
          "duration": 0.08333325000000968
        },
        {
          "name": "F4",
          "midi": 65,
          "time": 476.24952375001897,
          "velocity": 1,
          "duration": 0.08333325000000968
        },
        {
          "name": "E4",
          "midi": 64,
          "time": 476.332857000019,
          "velocity": 1,
          "duration": 0.16666650000001937
        },
        {
          "name": "E4",
          "midi": 64,
          "time": 476.499523500019,
          "velocity": 1,
          "duration": 0.08333325000000968
        },
        {
          "name": "F4",
          "midi": 65,
          "time": 476.582856750019,
          "velocity": 1,
          "duration": 0.08333325000000968
        },
        {
          "name": "E4",
          "midi": 64,
          "time": 476.666190000019,
          "velocity": 1,
          "duration": 0.16666650000001937
        },
        {
          "name": "A#2",
          "midi": 46,
          "time": 476.83285650001903,
          "velocity": 1,
          "duration": 0.16666650000001937
        },
        {
          "name": "C#5",
          "midi": 73,
          "time": 476.83285650001903,
          "velocity": 1,
          "duration": 0.16666650000001937
        },
        {
          "name": "G4",
          "midi": 67,
          "time": 476.83285650001903,
          "velocity": 1,
          "duration": 0.16666650000001937
        },
        {
          "name": "E3",
          "midi": 52,
          "time": 476.83285650001903,
          "velocity": 1,
          "duration": 0.16666650000001937
        },
        {
          "name": "G#2",
          "midi": 44,
          "time": 476.99952300001905,
          "velocity": 1,
          "duration": 0.16666650000001937
        },
        {
          "name": "C5",
          "midi": 72,
          "time": 476.99952300001905,
          "velocity": 1,
          "duration": 0.16666650000001937
        },
        {
          "name": "G#4",
          "midi": 68,
          "time": 476.99952300001905,
          "velocity": 1,
          "duration": 0.16666650000001937
        },
        {
          "name": "F3",
          "midi": 53,
          "time": 476.99952300001905,
          "velocity": 1,
          "duration": 0.16666650000001937
        },
        {
          "name": "F3",
          "midi": 53,
          "time": 477.1661895000191,
          "velocity": 1,
          "duration": 0.33333300000003874
        },
        {
          "name": "C4",
          "midi": 60,
          "time": 477.1661895000191,
          "velocity": 1,
          "duration": 0.33333300000003874
        },
        {
          "name": "G#2",
          "midi": 44,
          "time": 477.1661895000191,
          "velocity": 1,
          "duration": 0.33333300000003874
        },
        {
          "name": "C#4",
          "midi": 61,
          "time": 477.2495227500191,
          "velocity": 1,
          "duration": 0.08333325000000968
        },
        {
          "name": "F3",
          "midi": 53,
          "time": 477.4995225000191,
          "velocity": 1,
          "duration": 0.16666650000001937
        },
        {
          "name": "D#4",
          "midi": 63,
          "time": 477.4995225000191,
          "velocity": 1,
          "duration": 0.16666650000001937
        },
        {
          "name": "C5",
          "midi": 72,
          "time": 477.4995225000191,
          "velocity": 1,
          "duration": 0.16666650000001937
        },
        {
          "name": "A2",
          "midi": 45,
          "time": 477.4995225000191,
          "velocity": 1,
          "duration": 0.16666650000001937
        },
        {
          "name": "A#2",
          "midi": 46,
          "time": 477.66618900001913,
          "velocity": 1,
          "duration": 0.16666650000001937
        },
        {
          "name": "D5",
          "midi": 74,
          "time": 477.66618900001913,
          "velocity": 1,
          "duration": 0.16666650000001937
        },
        {
          "name": "D4",
          "midi": 62,
          "time": 477.66618900001913,
          "velocity": 1,
          "duration": 0.16666650000001937
        },
        {
          "name": "F3",
          "midi": 53,
          "time": 477.66618900001913,
          "velocity": 1,
          "duration": 0.16666650000001937
        },
        {
          "name": "G3",
          "midi": 55,
          "time": 477.83285550001915,
          "velocity": 1,
          "duration": 0.16666650000001937
        },
        {
          "name": "F4",
          "midi": 65,
          "time": 477.83285550001915,
          "velocity": 1,
          "duration": 0.16666650000001937
        },
        {
          "name": "D4",
          "midi": 62,
          "time": 477.83285550001915,
          "velocity": 1,
          "duration": 0.16666650000001937
        },
        {
          "name": "B2",
          "midi": 47,
          "time": 477.83285550001915,
          "velocity": 1,
          "duration": 0.16666650000001937
        },
        {
          "name": "C3",
          "midi": 48,
          "time": 477.99952200001917,
          "velocity": 1,
          "duration": 0.16666650000001937
        },
        {
          "name": "D#5",
          "midi": 75,
          "time": 477.99952200001917,
          "velocity": 1,
          "duration": 0.16666650000001937
        },
        {
          "name": "D#4",
          "midi": 63,
          "time": 477.99952200001917,
          "velocity": 1,
          "duration": 0.16666650000001937
        },
        {
          "name": "G3",
          "midi": 55,
          "time": 477.99952200001917,
          "velocity": 1,
          "duration": 0.16666650000001937
        },
        {
          "name": "C4",
          "midi": 60,
          "time": 478.1661885000192,
          "velocity": 1,
          "duration": 0.33333300000003874
        },
        {
          "name": "G#4",
          "midi": 68,
          "time": 478.1661885000192,
          "velocity": 1,
          "duration": 0.33333300000003874
        },
        {
          "name": "D#4",
          "midi": 63,
          "time": 478.1661885000192,
          "velocity": 1,
          "duration": 0.08333325000000968
        },
        {
          "name": "C3",
          "midi": 48,
          "time": 478.1661885000192,
          "velocity": 1,
          "duration": 0.33333300000003874
        },
        {
          "name": "F4",
          "midi": 65,
          "time": 478.2495217500192,
          "velocity": 1,
          "duration": 0.08333325000000968
        },
        {
          "name": "D#4",
          "midi": 63,
          "time": 478.3328550000192,
          "velocity": 1,
          "duration": 0.16666650000001937
        },
        {
          "name": "C4",
          "midi": 60,
          "time": 478.4995215000192,
          "velocity": 1,
          "duration": 0.16666650000001937
        },
        {
          "name": "G#4",
          "midi": 68,
          "time": 478.4995215000192,
          "velocity": 1,
          "duration": 0.16666650000001937
        },
        {
          "name": "D#5",
          "midi": 75,
          "time": 478.4995215000192,
          "velocity": 1,
          "duration": 0.16666650000001937
        },
        {
          "name": "C3",
          "midi": 48,
          "time": 478.4995215000192,
          "velocity": 1,
          "duration": 0.16666650000001937
        },
        {
          "name": "D3",
          "midi": 50,
          "time": 478.66618800001925,
          "velocity": 1,
          "duration": 0.16666650000001937
        },
        {
          "name": "F5",
          "midi": 77,
          "time": 478.66618800001925,
          "velocity": 1,
          "duration": 0.16666650000001937
        },
        {
          "name": "G#4",
          "midi": 68,
          "time": 478.66618800001925,
          "velocity": 1,
          "duration": 0.16666650000001937
        },
        {
          "name": "A#3",
          "midi": 58,
          "time": 478.66618800001925,
          "velocity": 1,
          "duration": 0.16666650000001937
        },
        {
          "name": "D3",
          "midi": 50,
          "time": 478.83285450001927,
          "velocity": 1,
          "duration": 0.16666650000001937
        },
        {
          "name": "F4",
          "midi": 65,
          "time": 478.83285450001927,
          "velocity": 1,
          "duration": 0.16666650000001937
        },
        {
          "name": "G#4",
          "midi": 68,
          "time": 478.83285450001927,
          "velocity": 1,
          "duration": 0.16666650000001937
        },
        {
          "name": "A#3",
          "midi": 58,
          "time": 478.83285450001927,
          "velocity": 1,
          "duration": 0.16666650000001937
        },
        {
          "name": "D#4",
          "midi": 63,
          "time": 478.9995210000193,
          "velocity": 1,
          "duration": 0.16666650000001937
        },
        {
          "name": "G4",
          "midi": 67,
          "time": 478.9995210000193,
          "velocity": 1,
          "duration": 0.16666650000001937
        },
        {
          "name": "G5",
          "midi": 79,
          "time": 478.9995210000193,
          "velocity": 1,
          "duration": 0.16666650000001937
        },
        {
          "name": "D#3",
          "midi": 51,
          "time": 478.9995210000193,
          "velocity": 1,
          "duration": 0.16666650000001937
        },
        {
          "name": "D#3",
          "midi": 51,
          "time": 479.1661875000193,
          "velocity": 1,
          "duration": 0.16666650000001937
        },
        {
          "name": "G4",
          "midi": 67,
          "time": 479.1661875000193,
          "velocity": 1,
          "duration": 0.16666650000001937
        },
        {
          "name": "D#4",
          "midi": 63,
          "time": 479.1661875000193,
          "velocity": 1,
          "duration": 0.16666650000001937
        },
        {
          "name": "C#4",
          "midi": 61,
          "time": 479.3328540000193,
          "velocity": 1,
          "duration": 0.16666650000001937
        },
        {
          "name": "G5",
          "midi": 79,
          "time": 479.3328540000193,
          "velocity": 1,
          "duration": 0.16666650000001937
        },
        {
          "name": "D#5",
          "midi": 75,
          "time": 479.3328540000193,
          "velocity": 1,
          "duration": 0.16666650000001937
        },
        {
          "name": "A#4",
          "midi": 70,
          "time": 479.3328540000193,
          "velocity": 1,
          "duration": 0.16666650000001937
        },
        {
          "name": "A#4",
          "midi": 70,
          "time": 479.49952050001934,
          "velocity": 1,
          "duration": 0.16666650000001937
        },
        {
          "name": "D#4",
          "midi": 63,
          "time": 479.49952050001934,
          "velocity": 1,
          "duration": 0.16666650000001937
        },
        {
          "name": "G4",
          "midi": 67,
          "time": 479.49952050001934,
          "velocity": 1,
          "duration": 0.16666650000001937
        },
        {
          "name": "C#4",
          "midi": 61,
          "time": 479.49952050001934,
          "velocity": 1,
          "duration": 0.16666650000001937
        },
        {
          "name": "C4",
          "midi": 60,
          "time": 479.66618700001936,
          "velocity": 1,
          "duration": 0.16666650000001937
        },
        {
          "name": "G#5",
          "midi": 80,
          "time": 479.66618700001936,
          "velocity": 1,
          "duration": 0.16666650000001937
        },
        {
          "name": "D#5",
          "midi": 75,
          "time": 479.66618700001936,
          "velocity": 1,
          "duration": 0.16666650000001937
        },
        {
          "name": "G#4",
          "midi": 68,
          "time": 479.66618700001936,
          "velocity": 1,
          "duration": 0.16666650000001937
        },
        {
          "name": "C4",
          "midi": 60,
          "time": 479.8328535000194,
          "velocity": 1,
          "duration": 0.16666650000001937
        },
        {
          "name": "G#4",
          "midi": 68,
          "time": 479.8328535000194,
          "velocity": 1,
          "duration": 0.16666650000001937
        },
        {
          "name": "D#4",
          "midi": 63,
          "time": 479.8328535000194,
          "velocity": 1,
          "duration": 0.16666650000001937
        },
        {
          "name": "F#4",
          "midi": 66,
          "time": 479.9995200000194,
          "velocity": 1,
          "duration": 0.16666650000001937
        },
        {
          "name": "D#5",
          "midi": 75,
          "time": 479.9995200000194,
          "velocity": 1,
          "duration": 0.16666650000001937
        },
        {
          "name": "A5",
          "midi": 81,
          "time": 479.9995200000194,
          "velocity": 1,
          "duration": 0.16666650000001937
        },
        {
          "name": "B3",
          "midi": 59,
          "time": 479.9995200000194,
          "velocity": 1,
          "duration": 0.16666650000001937
        },
        {
          "name": "B3",
          "midi": 59,
          "time": 480.1661865000194,
          "velocity": 1,
          "duration": 0.16666650000001937
        },
        {
          "name": "A4",
          "midi": 69,
          "time": 480.1661865000194,
          "velocity": 1,
          "duration": 0.16666650000001937
        },
        {
          "name": "D#4",
          "midi": 63,
          "time": 480.1661865000194,
          "velocity": 1,
          "duration": 0.16666650000001937
        },
        {
          "name": "F#4",
          "midi": 66,
          "time": 480.1661865000194,
          "velocity": 1,
          "duration": 0.16666650000001937
        },
        {
          "name": "A#3",
          "midi": 58,
          "time": 480.33285300001944,
          "velocity": 1,
          "duration": 0.16666650000001937
        },
        {
          "name": "A#5",
          "midi": 82,
          "time": 480.33285300001944,
          "velocity": 1,
          "duration": 0.16666650000001937
        },
        {
          "name": "D#5",
          "midi": 75,
          "time": 480.33285300001944,
          "velocity": 1,
          "duration": 0.16666650000001937
        },
        {
          "name": "G4",
          "midi": 67,
          "time": 480.33285300001944,
          "velocity": 1,
          "duration": 0.16666650000001937
        },
        {
          "name": "G4",
          "midi": 67,
          "time": 480.49951950001946,
          "velocity": 1,
          "duration": 0.16666650000001937
        },
        {
          "name": "D#4",
          "midi": 63,
          "time": 480.49951950001946,
          "velocity": 1,
          "duration": 0.16666650000001937
        },
        {
          "name": "A#4",
          "midi": 70,
          "time": 480.49951950001946,
          "velocity": 1,
          "duration": 0.16666650000001937
        },
        {
          "name": "A#3",
          "midi": 58,
          "time": 480.49951950001946,
          "velocity": 1,
          "duration": 0.16666650000001937
        },
        {
          "name": "G3",
          "midi": 55,
          "time": 480.6661860000195,
          "velocity": 1,
          "duration": 0.16666650000001937
        },
        {
          "name": "B5",
          "midi": 83,
          "time": 480.6661860000195,
          "velocity": 1,
          "duration": 0.16666650000001937
        },
        {
          "name": "D#5",
          "midi": 75,
          "time": 480.6661860000195,
          "velocity": 1,
          "duration": 0.16666650000001937
        },
        {
          "name": "D#4",
          "midi": 63,
          "time": 480.6661860000195,
          "velocity": 1,
          "duration": 0.16666650000001937
        },
        {
          "name": "D#4",
          "midi": 63,
          "time": 480.8328525000195,
          "velocity": 1,
          "duration": 0.16666650000001937
        },
        {
          "name": "B4",
          "midi": 71,
          "time": 480.8328525000195,
          "velocity": 1,
          "duration": 0.16666650000001937
        },
        {
          "name": "G3",
          "midi": 55,
          "time": 480.8328525000195,
          "velocity": 1,
          "duration": 0.16666650000001937
        },
        {
          "name": "G#3",
          "midi": 56,
          "time": 480.9995190000195,
          "velocity": 1,
          "duration": 0.16666650000001937
        },
        {
          "name": "C6",
          "midi": 84,
          "time": 480.9995190000195,
          "velocity": 1,
          "duration": 0.08333325000000968
        },
        {
          "name": "C5",
          "midi": 72,
          "time": 480.9995190000195,
          "velocity": 1,
          "duration": 0.08333325000000968
        },
        {
          "name": "D#4",
          "midi": 63,
          "time": 480.9995190000195,
          "velocity": 1,
          "duration": 0.08333325000000968
        },
        {
          "name": "D#3",
          "midi": 51,
          "time": 481.0828522500195,
          "velocity": 1,
          "duration": 0.08333325000000968
        },
        {
          "name": "C5",
          "midi": 72,
          "time": 481.0828522500195,
          "velocity": 1,
          "duration": 0.08333325000000968
        },
        {
          "name": "C6",
          "midi": 84,
          "time": 481.0828522500195,
          "velocity": 1,
          "duration": 0.08333325000000968
        },
        {
          "name": "G#2",
          "midi": 44,
          "time": 481.16618550001954,
          "velocity": 1,
          "duration": 0.16666650000001937
        },
        {
          "name": "B5",
          "midi": 83,
          "time": 481.16618550001954,
          "velocity": 1,
          "duration": 0.08333325000000968
        },
        {
          "name": "B4",
          "midi": 71,
          "time": 481.16618550001954,
          "velocity": 1,
          "duration": 0.08333325000000968
        },
        {
          "name": "D#3",
          "midi": 51,
          "time": 481.16618550001954,
          "velocity": 1,
          "duration": 0.08333325000000968
        },
        {
          "name": "B5",
          "midi": 83,
          "time": 481.24951875001955,
          "velocity": 1,
          "duration": 0.08333325000000968
        },
        {
          "name": "B4",
          "midi": 71,
          "time": 481.24951875001955,
          "velocity": 1,
          "duration": 0.08333325000000968
        },
        {
          "name": "D#3",
          "midi": 51,
          "time": 481.24951875001955,
          "velocity": 1,
          "duration": 0.08333325000000968
        },
        {
          "name": "G#2",
          "midi": 44,
          "time": 481.33285200001956,
          "velocity": 1,
          "duration": 0.16666650000001937
        },
        {
          "name": "C6",
          "midi": 84,
          "time": 481.33285200001956,
          "velocity": 1,
          "duration": 0.08333325000000968
        },
        {
          "name": "C5",
          "midi": 72,
          "time": 481.33285200001956,
          "velocity": 1,
          "duration": 0.08333325000000968
        },
        {
          "name": "D#3",
          "midi": 51,
          "time": 481.33285200001956,
          "velocity": 1,
          "duration": 0.08333325000000968
        },
        {
          "name": "D#3",
          "midi": 51,
          "time": 481.41618525001957,
          "velocity": 1,
          "duration": 0.08333325000000968
        },
        {
          "name": "C5",
          "midi": 72,
          "time": 481.41618525001957,
          "velocity": 1,
          "duration": 0.08333325000000968
        },
        {
          "name": "C6",
          "midi": 84,
          "time": 481.41618525001957,
          "velocity": 1,
          "duration": 0.08333325000000968
        },
        {
          "name": "G#2",
          "midi": 44,
          "time": 481.4995185000196,
          "velocity": 1,
          "duration": 0.16666650000001937
        },
        {
          "name": "B5",
          "midi": 83,
          "time": 481.4995185000196,
          "velocity": 1,
          "duration": 0.08333325000000968
        },
        {
          "name": "B4",
          "midi": 71,
          "time": 481.4995185000196,
          "velocity": 1,
          "duration": 0.08333325000000968
        },
        {
          "name": "D#3",
          "midi": 51,
          "time": 481.4995185000196,
          "velocity": 1,
          "duration": 0.08333325000000968
        },
        {
          "name": "B5",
          "midi": 83,
          "time": 481.5828517500196,
          "velocity": 1,
          "duration": 0.08333325000000968
        },
        {
          "name": "B4",
          "midi": 71,
          "time": 481.5828517500196,
          "velocity": 1,
          "duration": 0.08333325000000968
        },
        {
          "name": "D#3",
          "midi": 51,
          "time": 481.5828517500196,
          "velocity": 1,
          "duration": 0.08333325000000968
        },
        {
          "name": "G#2",
          "midi": 44,
          "time": 481.6661850000196,
          "velocity": 1,
          "duration": 0.16666650000001937
        },
        {
          "name": "C6",
          "midi": 84,
          "time": 481.6661850000196,
          "velocity": 1,
          "duration": 0.08333325000000968
        },
        {
          "name": "C5",
          "midi": 72,
          "time": 481.6661850000196,
          "velocity": 1,
          "duration": 0.08333325000000968
        },
        {
          "name": "E3",
          "midi": 52,
          "time": 481.6661850000196,
          "velocity": 1,
          "duration": 0.08333325000000968
        },
        {
          "name": "E3",
          "midi": 52,
          "time": 481.7495182500196,
          "velocity": 1,
          "duration": 0.08333325000000968
        },
        {
          "name": "C5",
          "midi": 72,
          "time": 481.7495182500196,
          "velocity": 1,
          "duration": 0.08333325000000968
        },
        {
          "name": "C6",
          "midi": 84,
          "time": 481.7495182500196,
          "velocity": 1,
          "duration": 0.08333325000000968
        },
        {
          "name": "G#2",
          "midi": 44,
          "time": 481.8328515000196,
          "velocity": 1,
          "duration": 0.16666650000001937
        },
        {
          "name": "G5",
          "midi": 79,
          "time": 481.8328515000196,
          "velocity": 1,
          "duration": 0.08333325000000968
        },
        {
          "name": "G4",
          "midi": 67,
          "time": 481.8328515000196,
          "velocity": 1,
          "duration": 0.08333325000000968
        },
        {
          "name": "E3",
          "midi": 52,
          "time": 481.8328515000196,
          "velocity": 1,
          "duration": 0.08333325000000968
        },
        {
          "name": "G5",
          "midi": 79,
          "time": 481.9161847500196,
          "velocity": 1,
          "duration": 0.08333325000000968
        },
        {
          "name": "G4",
          "midi": 67,
          "time": 481.9161847500196,
          "velocity": 1,
          "duration": 0.08333325000000968
        },
        {
          "name": "E3",
          "midi": 52,
          "time": 481.9161847500196,
          "velocity": 1,
          "duration": 0.08333325000000968
        },
        {
          "name": "G#2",
          "midi": 44,
          "time": 481.99951800001963,
          "velocity": 1,
          "duration": 0.16666650000001937
        },
        {
          "name": "G#5",
          "midi": 80,
          "time": 481.99951800001963,
          "velocity": 1,
          "duration": 0.08333325000000968
        },
        {
          "name": "G#4",
          "midi": 68,
          "time": 481.99951800001963,
          "velocity": 1,
          "duration": 0.08333325000000968
        },
        {
          "name": "F3",
          "midi": 53,
          "time": 481.99951800001963,
          "velocity": 1,
          "duration": 0.08333325000000968
        },
        {
          "name": "F3",
          "midi": 53,
          "time": 482.08285125001964,
          "velocity": 1,
          "duration": 0.08333325000000968
        },
        {
          "name": "G#4",
          "midi": 68,
          "time": 482.08285125001964,
          "velocity": 1,
          "duration": 0.08333325000000968
        },
        {
          "name": "G#5",
          "midi": 80,
          "time": 482.08285125001964,
          "velocity": 1,
          "duration": 0.08333325000000968
        },
        {
          "name": "G#2",
          "midi": 44,
          "time": 482.16618450001965,
          "velocity": 1,
          "duration": 0.16666650000001937
        },
        {
          "name": "G5",
          "midi": 79,
          "time": 482.16618450001965,
          "velocity": 1,
          "duration": 0.08333325000000968
        },
        {
          "name": "G4",
          "midi": 67,
          "time": 482.16618450001965,
          "velocity": 1,
          "duration": 0.08333325000000968
        },
        {
          "name": "E3",
          "midi": 52,
          "time": 482.16618450001965,
          "velocity": 1,
          "duration": 0.08333325000000968
        },
        {
          "name": "G5",
          "midi": 79,
          "time": 482.24951775001966,
          "velocity": 1,
          "duration": 0.08333325000000968
        },
        {
          "name": "G4",
          "midi": 67,
          "time": 482.24951775001966,
          "velocity": 1,
          "duration": 0.08333325000000968
        },
        {
          "name": "E3",
          "midi": 52,
          "time": 482.24951775001966,
          "velocity": 1,
          "duration": 0.08333325000000968
        },
        {
          "name": "G#2",
          "midi": 44,
          "time": 482.3328510000197,
          "velocity": 1,
          "duration": 0.16666650000001937
        },
        {
          "name": "A#5",
          "midi": 82,
          "time": 482.3328510000197,
          "velocity": 1,
          "duration": 0.08333325000000968
        },
        {
          "name": "A#4",
          "midi": 70,
          "time": 482.3328510000197,
          "velocity": 1,
          "duration": 0.08333325000000968
        },
        {
          "name": "G3",
          "midi": 55,
          "time": 482.3328510000197,
          "velocity": 1,
          "duration": 0.08333325000000968
        },
        {
          "name": "G3",
          "midi": 55,
          "time": 482.4161842500197,
          "velocity": 1,
          "duration": 0.08333325000000968
        },
        {
          "name": "A#4",
          "midi": 70,
          "time": 482.4161842500197,
          "velocity": 1,
          "duration": 0.08333325000000968
        },
        {
          "name": "A#5",
          "midi": 82,
          "time": 482.4161842500197,
          "velocity": 1,
          "duration": 0.08333325000000968
        },
        {
          "name": "G#2",
          "midi": 44,
          "time": 482.4995175000197,
          "velocity": 1,
          "duration": 0.16666650000001937
        },
        {
          "name": "G#5",
          "midi": 80,
          "time": 482.4995175000197,
          "velocity": 1,
          "duration": 0.08333325000000968
        },
        {
          "name": "G#4",
          "midi": 68,
          "time": 482.4995175000197,
          "velocity": 1,
          "duration": 0.08333325000000968
        },
        {
          "name": "F3",
          "midi": 53,
          "time": 482.4995175000197,
          "velocity": 1,
          "duration": 0.08333325000000968
        },
        {
          "name": "G#5",
          "midi": 80,
          "time": 482.5828507500197,
          "velocity": 1,
          "duration": 0.08333325000000968
        },
        {
          "name": "G#4",
          "midi": 68,
          "time": 482.5828507500197,
          "velocity": 1,
          "duration": 0.08333325000000968
        },
        {
          "name": "F3",
          "midi": 53,
          "time": 482.5828507500197,
          "velocity": 1,
          "duration": 0.08333325000000968
        },
        {
          "name": "G#2",
          "midi": 44,
          "time": 482.6661840000197,
          "velocity": 1,
          "duration": 0.16666650000001937
        },
        {
          "name": "G5",
          "midi": 79,
          "time": 482.6661840000197,
          "velocity": 1,
          "duration": 0.08333325000000968
        },
        {
          "name": "G4",
          "midi": 67,
          "time": 482.6661840000197,
          "velocity": 1,
          "duration": 0.08333325000000968
        },
        {
          "name": "A#3",
          "midi": 58,
          "time": 482.6661840000197,
          "velocity": 1,
          "duration": 0.08333325000000968
        },
        {
          "name": "A#3",
          "midi": 58,
          "time": 482.7495172500197,
          "velocity": 1,
          "duration": 0.08333325000000968
        },
        {
          "name": "G4",
          "midi": 67,
          "time": 482.7495172500197,
          "velocity": 1,
          "duration": 0.08333325000000968
        },
        {
          "name": "G5",
          "midi": 79,
          "time": 482.7495172500197,
          "velocity": 1,
          "duration": 0.08333325000000968
        },
        {
          "name": "G#2",
          "midi": 44,
          "time": 482.83285050001973,
          "velocity": 1,
          "duration": 0.16666650000001937
        },
        {
          "name": "F5",
          "midi": 77,
          "time": 482.83285050001973,
          "velocity": 1,
          "duration": 0.08333325000000968
        },
        {
          "name": "F4",
          "midi": 65,
          "time": 482.83285050001973,
          "velocity": 1,
          "duration": 0.08333325000000968
        },
        {
          "name": "G#3",
          "midi": 56,
          "time": 482.83285050001973,
          "velocity": 1,
          "duration": 0.08333325000000968
        },
        {
          "name": "G#3",
          "midi": 56,
          "time": 482.91618375001974,
          "velocity": 1,
          "duration": 0.08333325000000968
        },
        {
          "name": "F4",
          "midi": 65,
          "time": 482.91618375001974,
          "velocity": 1,
          "duration": 0.08333325000000968
        },
        {
          "name": "F5",
          "midi": 77,
          "time": 482.91618375001974,
          "velocity": 1,
          "duration": 0.08333325000000968
        },
        {
          "name": "A#2",
          "midi": 46,
          "time": 482.99951700001975,
          "velocity": 1,
          "duration": 0.16666650000001937
        },
        {
          "name": "D#5",
          "midi": 75,
          "time": 482.99951700001975,
          "velocity": 1,
          "duration": 0.08333325000000968
        },
        {
          "name": "D#4",
          "midi": 63,
          "time": 482.99951700001975,
          "velocity": 1,
          "duration": 0.08333325000000968
        },
        {
          "name": "G3",
          "midi": 55,
          "time": 482.99951700001975,
          "velocity": 1,
          "duration": 0.08333325000000968
        },
        {
          "name": "D#3",
          "midi": 51,
          "time": 482.99951700001975,
          "velocity": 1,
          "duration": 0.08333325000000968
        },
        {
          "name": "D#3",
          "midi": 51,
          "time": 483.08285025001976,
          "velocity": 1,
          "duration": 0.08333325000000968
        },
        {
          "name": "G3",
          "midi": 55,
          "time": 483.08285025001976,
          "velocity": 1,
          "duration": 0.08333325000000968
        },
        {
          "name": "D#4",
          "midi": 63,
          "time": 483.08285025001976,
          "velocity": 1,
          "duration": 0.08333325000000968
        },
        {
          "name": "D#5",
          "midi": 75,
          "time": 483.08285025001976,
          "velocity": 1,
          "duration": 0.08333325000000968
        },
        {
          "name": "A#2",
          "midi": 46,
          "time": 483.16618350001977,
          "velocity": 1,
          "duration": 0.16666650000001937
        },
        {
          "name": "A#4",
          "midi": 70,
          "time": 483.16618350001977,
          "velocity": 1,
          "duration": 0.08333325000000968
        },
        {
          "name": "A#3",
          "midi": 58,
          "time": 483.16618350001977,
          "velocity": 1,
          "duration": 0.08333325000000968
        },
        {
          "name": "G3",
          "midi": 55,
          "time": 483.16618350001977,
          "velocity": 1,
          "duration": 0.08333325000000968
        },
        {
          "name": "D#3",
          "midi": 51,
          "time": 483.16618350001977,
          "velocity": 1,
          "duration": 0.08333325000000968
        },
        {
          "name": "A#4",
          "midi": 70,
          "time": 483.2495167500198,
          "velocity": 1,
          "duration": 0.08333325000000968
        },
        {
          "name": "A#3",
          "midi": 58,
          "time": 483.2495167500198,
          "velocity": 1,
          "duration": 0.08333325000000968
        },
        {
          "name": "G3",
          "midi": 55,
          "time": 483.2495167500198,
          "velocity": 1,
          "duration": 0.08333325000000968
        },
        {
          "name": "D#3",
          "midi": 51,
          "time": 483.2495167500198,
          "velocity": 1,
          "duration": 0.08333325000000968
        },
        {
          "name": "D#3",
          "midi": 51,
          "time": 483.3328500000198,
          "velocity": 1,
          "duration": 0.08333325000000968
        },
        {
          "name": "G3",
          "midi": 55,
          "time": 483.3328500000198,
          "velocity": 1,
          "duration": 0.08333325000000968
        },
        {
          "name": "C4",
          "midi": 60,
          "time": 483.3328500000198,
          "velocity": 1,
          "duration": 0.08333325000000968
        },
        {
          "name": "C5",
          "midi": 72,
          "time": 483.3328500000198,
          "velocity": 1,
          "duration": 0.08333325000000968
        },
        {
          "name": "A#2",
          "midi": 46,
          "time": 483.3328500000198,
          "velocity": 1,
          "duration": 0.16666650000001937
        },
        {
          "name": "C5",
          "midi": 72,
          "time": 483.4161832500198,
          "velocity": 1,
          "duration": 0.08333325000000968
        },
        {
          "name": "C4",
          "midi": 60,
          "time": 483.4161832500198,
          "velocity": 1,
          "duration": 0.08333325000000968
        },
        {
          "name": "G3",
          "midi": 55,
          "time": 483.4161832500198,
          "velocity": 1,
          "duration": 0.08333325000000968
        },
        {
          "name": "D#3",
          "midi": 51,
          "time": 483.4161832500198,
          "velocity": 1,
          "duration": 0.08333325000000968
        },
        {
          "name": "D#3",
          "midi": 51,
          "time": 483.4995165000198,
          "velocity": 1,
          "duration": 0.08333325000000968
        },
        {
          "name": "G3",
          "midi": 55,
          "time": 483.4995165000198,
          "velocity": 1,
          "duration": 0.08333325000000968
        },
        {
          "name": "D4",
          "midi": 62,
          "time": 483.4995165000198,
          "velocity": 1,
          "duration": 0.08333325000000968
        },
        {
          "name": "D5",
          "midi": 74,
          "time": 483.4995165000198,
          "velocity": 1,
          "duration": 0.08333325000000968
        },
        {
          "name": "A#2",
          "midi": 46,
          "time": 483.4995165000198,
          "velocity": 1,
          "duration": 0.16666650000001937
        },
        {
          "name": "D5",
          "midi": 74,
          "time": 483.5828497500198,
          "velocity": 1,
          "duration": 0.08333325000000968
        },
        {
          "name": "D4",
          "midi": 62,
          "time": 483.5828497500198,
          "velocity": 1,
          "duration": 0.08333325000000968
        },
        {
          "name": "G3",
          "midi": 55,
          "time": 483.5828497500198,
          "velocity": 1,
          "duration": 0.08333325000000968
        },
        {
          "name": "D#3",
          "midi": 51,
          "time": 483.5828497500198,
          "velocity": 1,
          "duration": 0.08333325000000968
        },
        {
          "name": "D#3",
          "midi": 51,
          "time": 483.6661830000198,
          "velocity": 1,
          "duration": 0.08333325000000968
        },
        {
          "name": "G3",
          "midi": 55,
          "time": 483.6661830000198,
          "velocity": 1,
          "duration": 0.08333325000000968
        },
        {
          "name": "D#4",
          "midi": 63,
          "time": 483.6661830000198,
          "velocity": 1,
          "duration": 0.08333325000000968
        },
        {
          "name": "D#5",
          "midi": 75,
          "time": 483.6661830000198,
          "velocity": 1,
          "duration": 0.08333325000000968
        },
        {
          "name": "A#2",
          "midi": 46,
          "time": 483.6661830000198,
          "velocity": 1,
          "duration": 0.16666650000001937
        },
        {
          "name": "D#5",
          "midi": 75,
          "time": 483.74951625001984,
          "velocity": 1,
          "duration": 0.08333325000000968
        },
        {
          "name": "D#4",
          "midi": 63,
          "time": 483.74951625001984,
          "velocity": 1,
          "duration": 0.08333325000000968
        },
        {
          "name": "G3",
          "midi": 55,
          "time": 483.74951625001984,
          "velocity": 1,
          "duration": 0.08333325000000968
        },
        {
          "name": "D#3",
          "midi": 51,
          "time": 483.74951625001984,
          "velocity": 1,
          "duration": 0.08333325000000968
        },
        {
          "name": "A#2",
          "midi": 46,
          "time": 483.83284950001985,
          "velocity": 1,
          "duration": 0.16666650000001937
        },
        {
          "name": "F5",
          "midi": 77,
          "time": 483.83284950001985,
          "velocity": 1,
          "duration": 0.08333325000000968
        },
        {
          "name": "F4",
          "midi": 65,
          "time": 483.83284950001985,
          "velocity": 1,
          "duration": 0.08333325000000968
        },
        {
          "name": "G3",
          "midi": 55,
          "time": 483.83284950001985,
          "velocity": 1,
          "duration": 0.08333325000000968
        },
        {
          "name": "D#3",
          "midi": 51,
          "time": 483.83284950001985,
          "velocity": 1,
          "duration": 0.08333325000000968
        },
        {
          "name": "D#3",
          "midi": 51,
          "time": 483.91618275001986,
          "velocity": 1,
          "duration": 0.08333325000000968
        },
        {
          "name": "G3",
          "midi": 55,
          "time": 483.91618275001986,
          "velocity": 1,
          "duration": 0.08333325000000968
        },
        {
          "name": "F4",
          "midi": 65,
          "time": 483.91618275001986,
          "velocity": 1,
          "duration": 0.08333325000000968
        },
        {
          "name": "F5",
          "midi": 77,
          "time": 483.91618275001986,
          "velocity": 1,
          "duration": 0.08333325000000968
        },
        {
          "name": "A#2",
          "midi": 46,
          "time": 483.99951600001987,
          "velocity": 1,
          "duration": 0.16666650000001937
        },
        {
          "name": "G5",
          "midi": 79,
          "time": 483.99951600001987,
          "velocity": 1,
          "duration": 0.08333325000000968
        },
        {
          "name": "G4",
          "midi": 67,
          "time": 483.99951600001987,
          "velocity": 1,
          "duration": 0.08333325000000968
        },
        {
          "name": "G3",
          "midi": 55,
          "time": 483.99951600001987,
          "velocity": 1,
          "duration": 0.08333325000000968
        },
        {
          "name": "D#3",
          "midi": 51,
          "time": 483.99951600001987,
          "velocity": 1,
          "duration": 0.08333325000000968
        },
        {
          "name": "G5",
          "midi": 79,
          "time": 484.0828492500199,
          "velocity": 1,
          "duration": 0.08333325000000968
        },
        {
          "name": "G4",
          "midi": 67,
          "time": 484.0828492500199,
          "velocity": 1,
          "duration": 0.08333325000000968
        },
        {
          "name": "G3",
          "midi": 55,
          "time": 484.0828492500199,
          "velocity": 1,
          "duration": 0.08333325000000968
        },
        {
          "name": "D#3",
          "midi": 51,
          "time": 484.0828492500199,
          "velocity": 1,
          "duration": 0.08333325000000968
        },
        {
          "name": "D#3",
          "midi": 51,
          "time": 484.1661825000199,
          "velocity": 1,
          "duration": 0.08333325000000968
        },
        {
          "name": "G3",
          "midi": 55,
          "time": 484.1661825000199,
          "velocity": 1,
          "duration": 0.08333325000000968
        },
        {
          "name": "G#4",
          "midi": 68,
          "time": 484.1661825000199,
          "velocity": 1,
          "duration": 0.08333325000000968
        },
        {
          "name": "G#5",
          "midi": 80,
          "time": 484.1661825000199,
          "velocity": 1,
          "duration": 0.08333325000000968
        },
        {
          "name": "A#2",
          "midi": 46,
          "time": 484.1661825000199,
          "velocity": 1,
          "duration": 0.16666650000001937
        },
        {
          "name": "G#5",
          "midi": 80,
          "time": 484.2495157500199,
          "velocity": 1,
          "duration": 0.08333325000000968
        },
        {
          "name": "G#4",
          "midi": 68,
          "time": 484.2495157500199,
          "velocity": 1,
          "duration": 0.08333325000000968
        },
        {
          "name": "G3",
          "midi": 55,
          "time": 484.2495157500199,
          "velocity": 1,
          "duration": 0.08333325000000968
        },
        {
          "name": "D#3",
          "midi": 51,
          "time": 484.2495157500199,
          "velocity": 1,
          "duration": 0.08333325000000968
        },
        {
          "name": "A#2",
          "midi": 46,
          "time": 484.3328490000199,
          "velocity": 1,
          "duration": 0.16666650000001937
        },
        {
          "name": "A5",
          "midi": 81,
          "time": 484.3328490000199,
          "velocity": 1,
          "duration": 0.08333325000000968
        },
        {
          "name": "A4",
          "midi": 69,
          "time": 484.3328490000199,
          "velocity": 1,
          "duration": 0.08333325000000968
        },
        {
          "name": "G3",
          "midi": 55,
          "time": 484.3328490000199,
          "velocity": 1,
          "duration": 0.08333325000000968
        },
        {
          "name": "D#3",
          "midi": 51,
          "time": 484.3328490000199,
          "velocity": 1,
          "duration": 0.08333325000000968
        },
        {
          "name": "D#3",
          "midi": 51,
          "time": 484.4161822500199,
          "velocity": 1,
          "duration": 0.08333325000000968
        },
        {
          "name": "G3",
          "midi": 55,
          "time": 484.4161822500199,
          "velocity": 1,
          "duration": 0.08333325000000968
        },
        {
          "name": "A4",
          "midi": 69,
          "time": 484.4161822500199,
          "velocity": 1,
          "duration": 0.08333325000000968
        },
        {
          "name": "A5",
          "midi": 81,
          "time": 484.4161822500199,
          "velocity": 1,
          "duration": 0.08333325000000968
        },
        {
          "name": "A#2",
          "midi": 46,
          "time": 484.4995155000199,
          "velocity": 1,
          "duration": 0.16666650000001937
        },
        {
          "name": "A#5",
          "midi": 82,
          "time": 484.4995155000199,
          "velocity": 1,
          "duration": 0.08333325000000968
        },
        {
          "name": "A#4",
          "midi": 70,
          "time": 484.4995155000199,
          "velocity": 1,
          "duration": 0.08333325000000968
        },
        {
          "name": "G3",
          "midi": 55,
          "time": 484.4995155000199,
          "velocity": 1,
          "duration": 0.08333325000000968
        },
        {
          "name": "D#3",
          "midi": 51,
          "time": 484.4995155000199,
          "velocity": 1,
          "duration": 0.08333325000000968
        },
        {
          "name": "A#5",
          "midi": 82,
          "time": 484.58284875001993,
          "velocity": 1,
          "duration": 0.08333325000000968
        },
        {
          "name": "A#4",
          "midi": 70,
          "time": 484.58284875001993,
          "velocity": 1,
          "duration": 0.08333325000000968
        },
        {
          "name": "G3",
          "midi": 55,
          "time": 484.58284875001993,
          "velocity": 1,
          "duration": 0.08333325000000968
        },
        {
          "name": "D#3",
          "midi": 51,
          "time": 484.58284875001993,
          "velocity": 1,
          "duration": 0.08333325000000968
        },
        {
          "name": "D#3",
          "midi": 51,
          "time": 484.66618200001994,
          "velocity": 1,
          "duration": 0.08333325000000968
        },
        {
          "name": "G3",
          "midi": 55,
          "time": 484.66618200001994,
          "velocity": 1,
          "duration": 0.08333325000000968
        },
        {
          "name": "G#4",
          "midi": 68,
          "time": 484.66618200001994,
          "velocity": 1,
          "duration": 0.08333325000000968
        },
        {
          "name": "G#5",
          "midi": 80,
          "time": 484.66618200001994,
          "velocity": 1,
          "duration": 0.08333325000000968
        },
        {
          "name": "A#2",
          "midi": 46,
          "time": 484.66618200001994,
          "velocity": 1,
          "duration": 0.16666650000001937
        },
        {
          "name": "G#5",
          "midi": 80,
          "time": 484.74951525001995,
          "velocity": 1,
          "duration": 0.08333325000000968
        },
        {
          "name": "G#4",
          "midi": 68,
          "time": 484.74951525001995,
          "velocity": 1,
          "duration": 0.08333325000000968
        },
        {
          "name": "G3",
          "midi": 55,
          "time": 484.74951525001995,
          "velocity": 1,
          "duration": 0.08333325000000968
        },
        {
          "name": "D#3",
          "midi": 51,
          "time": 484.74951525001995,
          "velocity": 1,
          "duration": 0.08333325000000968
        },
        {
          "name": "D#3",
          "midi": 51,
          "time": 484.83284850001996,
          "velocity": 1,
          "duration": 0.08333325000000968
        },
        {
          "name": "G3",
          "midi": 55,
          "time": 484.83284850001996,
          "velocity": 1,
          "duration": 0.08333325000000968
        },
        {
          "name": "G4",
          "midi": 67,
          "time": 484.83284850001996,
          "velocity": 1,
          "duration": 0.08333325000000968
        },
        {
          "name": "G5",
          "midi": 79,
          "time": 484.83284850001996,
          "velocity": 1,
          "duration": 0.08333325000000968
        },
        {
          "name": "A#2",
          "midi": 46,
          "time": 484.83284850001996,
          "velocity": 1,
          "duration": 0.16666650000001937
        },
        {
          "name": "G5",
          "midi": 79,
          "time": 484.91618175002,
          "velocity": 1,
          "duration": 0.08333325000000968
        },
        {
          "name": "G4",
          "midi": 67,
          "time": 484.91618175002,
          "velocity": 1,
          "duration": 0.08333325000000968
        },
        {
          "name": "G3",
          "midi": 55,
          "time": 484.91618175002,
          "velocity": 1,
          "duration": 0.08333325000000968
        },
        {
          "name": "D#3",
          "midi": 51,
          "time": 484.91618175002,
          "velocity": 1,
          "duration": 0.08333325000000968
        },
        {
          "name": "D3",
          "midi": 50,
          "time": 484.99951500002,
          "velocity": 1,
          "duration": 0.33333300000003874
        },
        {
          "name": "G#3",
          "midi": 56,
          "time": 484.99951500002,
          "velocity": 1,
          "duration": 0.33333300000003874
        },
        {
          "name": "F4",
          "midi": 65,
          "time": 484.99951500002,
          "velocity": 1,
          "duration": 0.08333325000000968
        },
        {
          "name": "F5",
          "midi": 77,
          "time": 484.99951500002,
          "velocity": 1,
          "duration": 0.08333325000000968
        },
        {
          "name": "A#2",
          "midi": 46,
          "time": 484.99951500002,
          "velocity": 1,
          "duration": 0.33333300000003874
        },
        {
          "name": "F5",
          "midi": 77,
          "time": 485.08284825002,
          "velocity": 1,
          "duration": 0.08333325000000968
        },
        {
          "name": "F4",
          "midi": 65,
          "time": 485.08284825002,
          "velocity": 1,
          "duration": 0.08333325000000968
        },
        {
          "name": "G5",
          "midi": 79,
          "time": 485.16618150002,
          "velocity": 1,
          "duration": 0.08333325000000968
        },
        {
          "name": "G4",
          "midi": 67,
          "time": 485.16618150002,
          "velocity": 1,
          "duration": 0.08333325000000968
        },
        {
          "name": "G5",
          "midi": 79,
          "time": 485.24951475002,
          "velocity": 1,
          "duration": 0.08333325000000968
        },
        {
          "name": "G4",
          "midi": 67,
          "time": 485.24951475002,
          "velocity": 1,
          "duration": 0.08333325000000968
        },
        {
          "name": "G#5",
          "midi": 80,
          "time": 485.33284800002,
          "velocity": 1,
          "duration": 0.08333325000000968
        },
        {
          "name": "G#4",
          "midi": 68,
          "time": 485.33284800002,
          "velocity": 1,
          "duration": 0.08333325000000968
        },
        {
          "name": "G#5",
          "midi": 80,
          "time": 485.41618125002003,
          "velocity": 1,
          "duration": 0.08333325000000968
        },
        {
          "name": "G#4",
          "midi": 68,
          "time": 485.41618125002003,
          "velocity": 1,
          "duration": 0.08333325000000968
        },
        {
          "name": "G4",
          "midi": 67,
          "time": 485.49951450002004,
          "velocity": 1,
          "duration": 0.08333325000000968
        },
        {
          "name": "G5",
          "midi": 79,
          "time": 485.49951450002004,
          "velocity": 1,
          "duration": 0.08333325000000968
        },
        {
          "name": "G5",
          "midi": 79,
          "time": 485.58284775002005,
          "velocity": 1,
          "duration": 0.08333325000000968
        },
        {
          "name": "G4",
          "midi": 67,
          "time": 485.58284775002005,
          "velocity": 1,
          "duration": 0.08333325000000968
        },
        {
          "name": "F5",
          "midi": 77,
          "time": 485.66618100002006,
          "velocity": 1,
          "duration": 0.08333325000000968
        },
        {
          "name": "F4",
          "midi": 65,
          "time": 485.66618100002006,
          "velocity": 1,
          "duration": 0.08333325000000968
        },
        {
          "name": "F5",
          "midi": 77,
          "time": 485.74951425002007,
          "velocity": 1,
          "duration": 0.08333325000000968
        },
        {
          "name": "F4",
          "midi": 65,
          "time": 485.74951425002007,
          "velocity": 1,
          "duration": 0.08333325000000968
        },
        {
          "name": "D#5",
          "midi": 75,
          "time": 485.8328475000201,
          "velocity": 1,
          "duration": 0.08333325000000968
        },
        {
          "name": "D#4",
          "midi": 63,
          "time": 485.8328475000201,
          "velocity": 1,
          "duration": 0.08333325000000968
        },
        {
          "name": "D#5",
          "midi": 75,
          "time": 485.9161807500201,
          "velocity": 1,
          "duration": 0.08333325000000968
        },
        {
          "name": "D#4",
          "midi": 63,
          "time": 485.9161807500201,
          "velocity": 1,
          "duration": 0.08333325000000968
        },
        {
          "name": "D5",
          "midi": 74,
          "time": 485.9995140000201,
          "velocity": 1,
          "duration": 0.08333325000000968
        },
        {
          "name": "D4",
          "midi": 62,
          "time": 485.9995140000201,
          "velocity": 1,
          "duration": 0.08333325000000968
        },
        {
          "name": "D4",
          "midi": 62,
          "time": 486.0828472500201,
          "velocity": 1,
          "duration": 0.08333325000000968
        },
        {
          "name": "D5",
          "midi": 74,
          "time": 486.0828472500201,
          "velocity": 1,
          "duration": 0.08333325000000968
        },
        {
          "name": "D#5",
          "midi": 75,
          "time": 486.1661805000201,
          "velocity": 1,
          "duration": 0.08333325000000968
        },
        {
          "name": "D#4",
          "midi": 63,
          "time": 486.1661805000201,
          "velocity": 1,
          "duration": 0.08333325000000968
        },
        {
          "name": "D#5",
          "midi": 75,
          "time": 486.2495137500201,
          "velocity": 1,
          "duration": 0.08333325000000968
        },
        {
          "name": "D#4",
          "midi": 63,
          "time": 486.2495137500201,
          "velocity": 1,
          "duration": 0.08333325000000968
        },
        {
          "name": "F4",
          "midi": 65,
          "time": 486.33284700002014,
          "velocity": 1,
          "duration": 0.08333325000000968
        },
        {
          "name": "F5",
          "midi": 77,
          "time": 486.33284700002014,
          "velocity": 1,
          "duration": 0.08333325000000968
        },
        {
          "name": "F5",
          "midi": 77,
          "time": 486.41618025002015,
          "velocity": 1,
          "duration": 0.08333325000000968
        },
        {
          "name": "F4",
          "midi": 65,
          "time": 486.41618025002015,
          "velocity": 1,
          "duration": 0.08333325000000968
        },
        {
          "name": "D#5",
          "midi": 75,
          "time": 486.49951350002016,
          "velocity": 1,
          "duration": 0.08333325000000968
        },
        {
          "name": "D#4",
          "midi": 63,
          "time": 486.49951350002016,
          "velocity": 1,
          "duration": 0.08333325000000968
        },
        {
          "name": "D#4",
          "midi": 63,
          "time": 486.58284675002017,
          "velocity": 1,
          "duration": 0.08333325000000968
        },
        {
          "name": "D#5",
          "midi": 75,
          "time": 486.58284675002017,
          "velocity": 1,
          "duration": 0.08333325000000968
        },
        {
          "name": "D5",
          "midi": 74,
          "time": 486.6661800000202,
          "velocity": 1,
          "duration": 0.08333325000000968
        },
        {
          "name": "D4",
          "midi": 62,
          "time": 486.6661800000202,
          "velocity": 1,
          "duration": 0.08333325000000968
        },
        {
          "name": "D5",
          "midi": 74,
          "time": 486.7495132500202,
          "velocity": 1,
          "duration": 0.08333325000000968
        },
        {
          "name": "D4",
          "midi": 62,
          "time": 486.7495132500202,
          "velocity": 1,
          "duration": 0.08333325000000968
        },
        {
          "name": "C5",
          "midi": 72,
          "time": 486.8328465000202,
          "velocity": 1,
          "duration": 0.08333325000000968
        },
        {
          "name": "C4",
          "midi": 60,
          "time": 486.8328465000202,
          "velocity": 1,
          "duration": 0.08333325000000968
        },
        {
          "name": "C5",
          "midi": 72,
          "time": 486.9161797500202,
          "velocity": 1,
          "duration": 0.08333325000000968
        },
        {
          "name": "C4",
          "midi": 60,
          "time": 486.9161797500202,
          "velocity": 1,
          "duration": 0.08333325000000968
        },
        {
          "name": "A#3",
          "midi": 58,
          "time": 486.9995130000202,
          "velocity": 1,
          "duration": 0.16666650000001937
        },
        {
          "name": "A#4",
          "midi": 70,
          "time": 486.9995130000202,
          "velocity": 1,
          "duration": 0.08333325000000968
        },
        {
          "name": "A#4",
          "midi": 70,
          "time": 487.0828462500202,
          "velocity": 1,
          "duration": 0.08333325000000968
        },
        {
          "name": "A3",
          "midi": 57,
          "time": 487.16617950002023,
          "velocity": 1,
          "duration": 0.16666650000001937
        },
        {
          "name": "A5",
          "midi": 81,
          "time": 487.16617950002023,
          "velocity": 1,
          "duration": 0.08333325000000968
        },
        {
          "name": "A4",
          "midi": 69,
          "time": 487.16617950002023,
          "velocity": 1,
          "duration": 0.08333325000000968
        },
        {
          "name": "A5",
          "midi": 81,
          "time": 487.24951275002024,
          "velocity": 1,
          "duration": 0.08333325000000968
        },
        {
          "name": "A4",
          "midi": 69,
          "time": 487.24951275002024,
          "velocity": 1,
          "duration": 0.08333325000000968
        },
        {
          "name": "G#3",
          "midi": 56,
          "time": 487.33284600002025,
          "velocity": 1,
          "duration": 0.16666650000001937
        },
        {
          "name": "G#4",
          "midi": 68,
          "time": 487.33284600002025,
          "velocity": 1,
          "duration": 0.08333325000000968
        },
        {
          "name": "G#5",
          "midi": 80,
          "time": 487.33284600002025,
          "velocity": 1,
          "duration": 0.08333325000000968
        },
        {
          "name": "G#5",
          "midi": 80,
          "time": 487.41617925002026,
          "velocity": 1,
          "duration": 0.08333325000000968
        },
        {
          "name": "G#4",
          "midi": 68,
          "time": 487.41617925002026,
          "velocity": 1,
          "duration": 0.08333325000000968
        },
        {
          "name": "G3",
          "midi": 55,
          "time": 487.4995125000203,
          "velocity": 1,
          "duration": 0.16666650000001937
        },
        {
          "name": "G5",
          "midi": 79,
          "time": 487.4995125000203,
          "velocity": 1,
          "duration": 0.08333325000000968
        },
        {
          "name": "G4",
          "midi": 67,
          "time": 487.4995125000203,
          "velocity": 1,
          "duration": 0.08333325000000968
        },
        {
          "name": "G5",
          "midi": 79,
          "time": 487.5828457500203,
          "velocity": 1,
          "duration": 0.08333325000000968
        },
        {
          "name": "G4",
          "midi": 67,
          "time": 487.5828457500203,
          "velocity": 1,
          "duration": 0.08333325000000968
        },
        {
          "name": "F3",
          "midi": 53,
          "time": 487.6661790000203,
          "velocity": 1,
          "duration": 0.16666650000001937
        },
        {
          "name": "F4",
          "midi": 65,
          "time": 487.6661790000203,
          "velocity": 1,
          "duration": 0.08333325000000968
        },
        {
          "name": "F5",
          "midi": 77,
          "time": 487.6661790000203,
          "velocity": 1,
          "duration": 0.08333325000000968
        },
        {
          "name": "F5",
          "midi": 77,
          "time": 487.7495122500203,
          "velocity": 1,
          "duration": 0.08333325000000968
        },
        {
          "name": "F4",
          "midi": 65,
          "time": 487.7495122500203,
          "velocity": 1,
          "duration": 0.08333325000000968
        },
        {
          "name": "D#3",
          "midi": 51,
          "time": 487.8328455000203,
          "velocity": 1,
          "duration": 0.16666650000001937
        },
        {
          "name": "D#5",
          "midi": 75,
          "time": 487.8328455000203,
          "velocity": 1,
          "duration": 0.08333325000000968
        },
        {
          "name": "D#4",
          "midi": 63,
          "time": 487.8328455000203,
          "velocity": 1,
          "duration": 0.08333325000000968
        },
        {
          "name": "D#5",
          "midi": 75,
          "time": 487.9161787500203,
          "velocity": 1,
          "duration": 0.08333325000000968
        },
        {
          "name": "D#4",
          "midi": 63,
          "time": 487.9161787500203,
          "velocity": 1,
          "duration": 0.08333325000000968
        },
        {
          "name": "D3",
          "midi": 50,
          "time": 487.99951200002033,
          "velocity": 1,
          "duration": 0.16666650000001937
        },
        {
          "name": "D4",
          "midi": 62,
          "time": 487.99951200002033,
          "velocity": 1,
          "duration": 0.08333325000000968
        },
        {
          "name": "D5",
          "midi": 74,
          "time": 487.99951200002033,
          "velocity": 1,
          "duration": 0.08333325000000968
        },
        {
          "name": "D5",
          "midi": 74,
          "time": 488.08284525002034,
          "velocity": 1,
          "duration": 0.08333325000000968
        },
        {
          "name": "D4",
          "midi": 62,
          "time": 488.08284525002034,
          "velocity": 1,
          "duration": 0.08333325000000968
        },
        {
          "name": "C3",
          "midi": 48,
          "time": 488.16617850002035,
          "velocity": 1,
          "duration": 0.16666650000001937
        },
        {
          "name": "C5",
          "midi": 72,
          "time": 488.16617850002035,
          "velocity": 1,
          "duration": 0.08333325000000968
        },
        {
          "name": "C4",
          "midi": 60,
          "time": 488.16617850002035,
          "velocity": 1,
          "duration": 0.08333325000000968
        },
        {
          "name": "C5",
          "midi": 72,
          "time": 488.24951175002036,
          "velocity": 1,
          "duration": 0.08333325000000968
        },
        {
          "name": "C4",
          "midi": 60,
          "time": 488.24951175002036,
          "velocity": 1,
          "duration": 0.08333325000000968
        },
        {
          "name": "A#3",
          "midi": 58,
          "time": 488.33284500002037,
          "velocity": 1,
          "duration": 0.08333325000000968
        },
        {
          "name": "A#4",
          "midi": 70,
          "time": 488.33284500002037,
          "velocity": 1,
          "duration": 0.08333325000000968
        },
        {
          "name": "A#2",
          "midi": 46,
          "time": 488.33284500002037,
          "velocity": 1,
          "duration": 0.16666650000001937
        },
        {
          "name": "A#4",
          "midi": 70,
          "time": 488.4161782500204,
          "velocity": 1,
          "duration": 0.08333325000000968
        },
        {
          "name": "A#3",
          "midi": 58,
          "time": 488.4161782500204,
          "velocity": 1,
          "duration": 0.08333325000000968
        },
        {
          "name": "G#2",
          "midi": 44,
          "time": 488.4995115000204,
          "velocity": 1,
          "duration": 0.16666650000001937
        },
        {
          "name": "G#3",
          "midi": 56,
          "time": 488.4995115000204,
          "velocity": 1,
          "duration": 0.16666650000001937
        },
        {
          "name": "G#4",
          "midi": 68,
          "time": 488.4995115000204,
          "velocity": 1,
          "duration": 0.08333325000000968
        },
        {
          "name": "G#4",
          "midi": 68,
          "time": 488.5828447500204,
          "velocity": 1,
          "duration": 0.08333325000000968
        },
        {
          "name": "G3",
          "midi": 55,
          "time": 488.6661780000204,
          "velocity": 1,
          "duration": 0.16666650000001937
        },
        {
          "name": "G4",
          "midi": 67,
          "time": 488.6661780000204,
          "velocity": 1,
          "duration": 0.08333325000000968
        },
        {
          "name": "G2",
          "midi": 43,
          "time": 488.6661780000204,
          "velocity": 1,
          "duration": 0.16666650000001937
        },
        {
          "name": "G4",
          "midi": 67,
          "time": 488.7495112500204,
          "velocity": 1,
          "duration": 0.08333325000000968
        },
        {
          "name": "F2",
          "midi": 41,
          "time": 488.8328445000204,
          "velocity": 1,
          "duration": 0.16666650000001937
        },
        {
          "name": "F3",
          "midi": 53,
          "time": 488.8328445000204,
          "velocity": 1,
          "duration": 0.16666650000001937
        },
        {
          "name": "F4",
          "midi": 65,
          "time": 488.8328445000204,
          "velocity": 1,
          "duration": 0.08333325000000968
        },
        {
          "name": "F4",
          "midi": 65,
          "time": 488.91617775002044,
          "velocity": 1,
          "duration": 0.08333325000000968
        },
        {
          "name": "D#3",
          "midi": 51,
          "time": 488.99951100002045,
          "velocity": 1,
          "duration": 0.3333329999999819
        },
        {
          "name": "D#4",
          "midi": 63,
          "time": 488.99951100002045,
          "velocity": 1,
          "duration": 0.3333329999999819
        },
        {
          "name": "D#2",
          "midi": 39,
          "time": 488.99951100002045,
          "velocity": 1,
          "duration": 0.3333329999999819
        },
        {
          "name": "G#3",
          "midi": 56,
          "time": 492.33284100002044,
          "velocity": 1,
          "duration": 0.3333329999999819
        },
        {
          "name": "G#3",
          "midi": 56,
          "time": 492.6661740000204,
          "velocity": 1,
          "duration": 0.3333329999999819
        },
        {
          "name": "F3",
          "midi": 53,
          "time": 492.9995070000204,
          "velocity": 1,
          "duration": 0.3333329999999819
        },
        {
          "name": "F3",
          "midi": 53,
          "time": 493.3328400000204,
          "velocity": 1,
          "duration": 0.3333329999999819
        },
        {
          "name": "G#4",
          "midi": 68,
          "time": 493.3328400000204,
          "velocity": 1,
          "duration": 0.3333329999999819
        },
        {
          "name": "C4",
          "midi": 60,
          "time": 493.3328400000204,
          "velocity": 1,
          "duration": 0.3333329999999819
        },
        {
          "name": "G#3",
          "midi": 56,
          "time": 493.3328400000204,
          "velocity": 1,
          "duration": 0.3333329999999819
        },
        {
          "name": "F3",
          "midi": 53,
          "time": 493.66617300002036,
          "velocity": 1,
          "duration": 0.3333329999999819
        },
        {
          "name": "G#4",
          "midi": 68,
          "time": 493.66617300002036,
          "velocity": 1,
          "duration": 0.3333329999999819
        },
        {
          "name": "C#4",
          "midi": 61,
          "time": 493.66617300002036,
          "velocity": 1,
          "duration": 0.3333329999999819
        },
        {
          "name": "G#3",
          "midi": 56,
          "time": 493.66617300002036,
          "velocity": 1,
          "duration": 0.3333329999999819
        },
        {
          "name": "G#3",
          "midi": 56,
          "time": 493.99950600002035,
          "velocity": 1,
          "duration": 0.3333329999999819
        },
        {
          "name": "D4",
          "midi": 62,
          "time": 493.99950600002035,
          "velocity": 1,
          "duration": 0.3333329999999819
        },
        {
          "name": "G#4",
          "midi": 68,
          "time": 493.99950600002035,
          "velocity": 1,
          "duration": 0.3333329999999819
        },
        {
          "name": "F3",
          "midi": 53,
          "time": 493.99950600002035,
          "velocity": 1,
          "duration": 0.3333329999999819
        },
        {
          "name": "F3",
          "midi": 53,
          "time": 494.33283900002033,
          "velocity": 1,
          "duration": 0.3333329999999819
        },
        {
          "name": "A#4",
          "midi": 70,
          "time": 494.33283900002033,
          "velocity": 1,
          "duration": 0.3333329999999819
        },
        {
          "name": "D4",
          "midi": 62,
          "time": 494.33283900002033,
          "velocity": 1,
          "duration": 0.3333329999999819
        },
        {
          "name": "G#3",
          "midi": 56,
          "time": 494.33283900002033,
          "velocity": 1,
          "duration": 0.3333329999999819
        },
        {
          "name": "F3",
          "midi": 53,
          "time": 494.6661720000203,
          "velocity": 1,
          "duration": 0.3333329999999819
        },
        {
          "name": "A#4",
          "midi": 70,
          "time": 494.6661720000203,
          "velocity": 1,
          "duration": 0.3333329999999819
        },
        {
          "name": "D4",
          "midi": 62,
          "time": 494.6661720000203,
          "velocity": 1,
          "duration": 0.3333329999999819
        },
        {
          "name": "G#3",
          "midi": 56,
          "time": 494.6661720000203,
          "velocity": 1,
          "duration": 0.3333329999999819
        },
        {
          "name": "F3",
          "midi": 53,
          "time": 494.9995050000203,
          "velocity": 1,
          "duration": 0.3333329999999819
        },
        {
          "name": "A#4",
          "midi": 70,
          "time": 494.9995050000203,
          "velocity": 1,
          "duration": 0.3333329999999819
        },
        {
          "name": "D4",
          "midi": 62,
          "time": 494.9995050000203,
          "velocity": 1,
          "duration": 0.3333329999999819
        },
        {
          "name": "G#3",
          "midi": 56,
          "time": 494.9995050000203,
          "velocity": 1,
          "duration": 0.3333329999999819
        },
        {
          "name": "G#3",
          "midi": 56,
          "time": 495.3328380000203,
          "velocity": 1,
          "duration": 0.6666659999999638
        },
        {
          "name": "D4",
          "midi": 62,
          "time": 495.3328380000203,
          "velocity": 1,
          "duration": 0.6666659999999638
        },
        {
          "name": "B4",
          "midi": 71,
          "time": 495.3328380000203,
          "velocity": 1,
          "duration": 0.3333329999999819
        },
        {
          "name": "F3",
          "midi": 53,
          "time": 495.3328380000203,
          "velocity": 1,
          "duration": 0.6666659999999638
        },
        {
          "name": "A#2",
          "midi": 46,
          "time": 495.66617100002026,
          "velocity": 1,
          "duration": 0.3333329999999819
        },
        {
          "name": "C5",
          "midi": 72,
          "time": 495.66617100002026,
          "velocity": 1,
          "duration": 0.6666659999999638
        },
        {
          "name": "F3",
          "midi": 53,
          "time": 495.99950400002024,
          "velocity": 1,
          "duration": 0.83333250000004
        },
        {
          "name": "D4",
          "midi": 62,
          "time": 495.99950400002024,
          "velocity": 1,
          "duration": 0.83333250000004
        },
        {
          "name": "G#3",
          "midi": 56,
          "time": 495.99950400002024,
          "velocity": 1,
          "duration": 0.83333250000004
        },
        {
          "name": "A#4",
          "midi": 70,
          "time": 496.3328370000202,
          "velocity": 1,
          "duration": 0.16666650000001937
        },
        {
          "name": "A#2",
          "midi": 46,
          "time": 496.3328370000202,
          "velocity": 1,
          "duration": 0.33333300000003874
        },
        {
          "name": "G#4",
          "midi": 68,
          "time": 496.49950350002024,
          "velocity": 1,
          "duration": 0.16666650000001937
        },
        {
          "name": "A#2",
          "midi": 46,
          "time": 496.66617000002026,
          "velocity": 1,
          "duration": 0.33333300000003874
        },
        {
          "name": "G4",
          "midi": 67,
          "time": 496.66617000002026,
          "velocity": 1,
          "duration": 0.16666650000001937
        },
        {
          "name": "D3",
          "midi": 50,
          "time": 496.8328365000203,
          "velocity": 1,
          "duration": 0.16666650000001937
        },
        {
          "name": "G#3",
          "midi": 56,
          "time": 496.8328365000203,
          "velocity": 1,
          "duration": 0.16666650000001937
        },
        {
          "name": "F4",
          "midi": 65,
          "time": 496.8328365000203,
          "velocity": 1,
          "duration": 0.16666650000001937
        },
        {
          "name": "D#3",
          "midi": 51,
          "time": 496.9995030000203,
          "velocity": 1,
          "duration": 0.3333329999999819
        },
        {
          "name": "D#4",
          "midi": 63,
          "time": 496.9995030000203,
          "velocity": 1,
          "duration": 0.3333329999999819
        },
        {
          "name": "G3",
          "midi": 55,
          "time": 496.9995030000203,
          "velocity": 1,
          "duration": 0.3333329999999819
        },
        {
          "name": "D#3",
          "midi": 51,
          "time": 497.3328360000203,
          "velocity": 1,
          "duration": 0.3333329999999819
        },
        {
          "name": "A#2",
          "midi": 46,
          "time": 501.3328320000203,
          "velocity": 1,
          "duration": 0.3333329999999819
        },
        {
          "name": "F#2",
          "midi": 42,
          "time": 501.66616500002027,
          "velocity": 1,
          "duration": 0.3333329999999819
        },
        {
          "name": "F2",
          "midi": 41,
          "time": 501.99949800002025,
          "velocity": 1,
          "duration": 0.6666659999999638
        },
        {
          "name": "A#4",
          "midi": 70,
          "time": 502.33283100002024,
          "velocity": 1,
          "duration": 0.3333329999999819
        },
        {
          "name": "G4",
          "midi": 67,
          "time": 502.33283100002024,
          "velocity": 1,
          "duration": 0.3333329999999819
        },
        {
          "name": "C#4",
          "midi": 61,
          "time": 502.33283100002024,
          "velocity": 1,
          "duration": 0.3333329999999819
        },
        {
          "name": "C#4",
          "midi": 61,
          "time": 502.6661640000202,
          "velocity": 1,
          "duration": 0.3333329999999819
        },
        {
          "name": "G4",
          "midi": 67,
          "time": 502.6661640000202,
          "velocity": 1,
          "duration": 0.3333329999999819
        },
        {
          "name": "A#4",
          "midi": 70,
          "time": 502.6661640000202,
          "velocity": 1,
          "duration": 0.3333329999999819
        },
        {
          "name": "E2",
          "midi": 40,
          "time": 502.6661640000202,
          "velocity": 1,
          "duration": 0.3333329999999819
        },
        {
          "name": "A#4",
          "midi": 70,
          "time": 502.9994970000202,
          "velocity": 1,
          "duration": 0.6666660000000206
        },
        {
          "name": "D#4",
          "midi": 63,
          "time": 502.9994970000202,
          "velocity": 1,
          "duration": 0.9999990000000025
        },
        {
          "name": "C4",
          "midi": 60,
          "time": 502.9994970000202,
          "velocity": 1,
          "duration": 0.9999990000000025
        },
        {
          "name": "A4",
          "midi": 69,
          "time": 503.6661630000202,
          "velocity": 1,
          "duration": 0.3333329999999819
        },
        {
          "name": "A#2",
          "midi": 46,
          "time": 505.3328280000202,
          "velocity": 1,
          "duration": 0.3333329999999819
        },
        {
          "name": "D4",
          "midi": 62,
          "time": 505.3328280000202,
          "velocity": 1,
          "duration": 0.3333329999999819
        },
        {
          "name": "B3",
          "midi": 59,
          "time": 505.3328280000202,
          "velocity": 1,
          "duration": 0.3333329999999819
        },
        {
          "name": "G#3",
          "midi": 56,
          "time": 505.3328280000202,
          "velocity": 1,
          "duration": 0.3333329999999819
        },
        {
          "name": "F3",
          "midi": 53,
          "time": 505.3328280000202,
          "velocity": 1,
          "duration": 0.3333329999999819
        },
        {
          "name": "F3",
          "midi": 53,
          "time": 505.66616100002017,
          "velocity": 1,
          "duration": 0.3333329999999819
        },
        {
          "name": "G#3",
          "midi": 56,
          "time": 505.66616100002017,
          "velocity": 1,
          "duration": 0.3333329999999819
        },
        {
          "name": "B3",
          "midi": 59,
          "time": 505.66616100002017,
          "velocity": 1,
          "duration": 0.3333329999999819
        },
        {
          "name": "D4",
          "midi": 62,
          "time": 505.66616100002017,
          "velocity": 1,
          "duration": 0.3333329999999819
        },
        {
          "name": "A#2",
          "midi": 46,
          "time": 505.66616100002017,
          "velocity": 1,
          "duration": 0.3333329999999819
        },
        {
          "name": "A#2",
          "midi": 46,
          "time": 506.33282700002013,
          "velocity": 1,
          "duration": 0.3333329999999819
        },
        {
          "name": "D#4",
          "midi": 63,
          "time": 506.33282700002013,
          "velocity": 1,
          "duration": 0.3333329999999819
        },
        {
          "name": "A#3",
          "midi": 58,
          "time": 506.33282700002013,
          "velocity": 1,
          "duration": 0.3333329999999819
        },
        {
          "name": "G3",
          "midi": 55,
          "time": 506.33282700002013,
          "velocity": 1,
          "duration": 0.3333329999999819
        },
        {
          "name": "A#2",
          "midi": 46,
          "time": 506.6661600000201,
          "velocity": 1,
          "duration": 0.3333329999999819
        },
        {
          "name": "E4",
          "midi": 64,
          "time": 506.6661600000201,
          "velocity": 1,
          "duration": 0.3333329999999819
        },
        {
          "name": "C#4",
          "midi": 61,
          "time": 506.6661600000201,
          "velocity": 1,
          "duration": 0.3333329999999819
        },
        {
          "name": "A#3",
          "midi": 58,
          "time": 506.6661600000201,
          "velocity": 1,
          "duration": 0.3333329999999819
        },
        {
          "name": "G3",
          "midi": 55,
          "time": 506.6661600000201,
          "velocity": 1,
          "duration": 0.3333329999999819
        },
        {
          "name": "A#3",
          "midi": 58,
          "time": 507.3328260000201,
          "velocity": 1,
          "duration": 0.3333329999999819
        },
        {
          "name": "D4",
          "midi": 62,
          "time": 507.3328260000201,
          "velocity": 1,
          "duration": 0.3333329999999819
        },
        {
          "name": "F4",
          "midi": 65,
          "time": 507.3328260000201,
          "velocity": 1,
          "duration": 0.3333329999999819
        },
        {
          "name": "A#2",
          "midi": 46,
          "time": 507.3328260000201,
          "velocity": 1,
          "duration": 0.3333329999999819
        },
        {
          "name": "A#2",
          "midi": 46,
          "time": 507.66615900002006,
          "velocity": 1,
          "duration": 0.3333329999999819
        },
        {
          "name": "G4",
          "midi": 67,
          "time": 507.66615900002006,
          "velocity": 1,
          "duration": 0.3333329999999819
        },
        {
          "name": "D#4",
          "midi": 63,
          "time": 507.66615900002006,
          "velocity": 1,
          "duration": 0.3333329999999819
        },
        {
          "name": "A#3",
          "midi": 58,
          "time": 507.66615900002006,
          "velocity": 1,
          "duration": 0.3333329999999819
        },
        {
          "name": "A#2",
          "midi": 46,
          "time": 507.99949200002004,
          "velocity": 1,
          "duration": 0.3333329999999819
        },
        {
          "name": "G#4",
          "midi": 68,
          "time": 507.99949200002004,
          "velocity": 1,
          "duration": 0.3333329999999819
        },
        {
          "name": "F4",
          "midi": 65,
          "time": 507.99949200002004,
          "velocity": 1,
          "duration": 0.3333329999999819
        },
        {
          "name": "A#3",
          "midi": 58,
          "time": 507.99949200002004,
          "velocity": 1,
          "duration": 0.3333329999999819
        },
        {
          "name": "A#3",
          "midi": 58,
          "time": 508.33282500002,
          "velocity": 1,
          "duration": 0.3333329999999819
        },
        {
          "name": "G4",
          "midi": 67,
          "time": 508.33282500002,
          "velocity": 1,
          "duration": 0.3333329999999819
        },
        {
          "name": "A#4",
          "midi": 70,
          "time": 508.33282500002,
          "velocity": 1,
          "duration": 0.3333329999999819
        },
        {
          "name": "A#2",
          "midi": 46,
          "time": 508.33282500002,
          "velocity": 1,
          "duration": 0.3333329999999819
        },
        {
          "name": "A#2",
          "midi": 46,
          "time": 508.66615800002,
          "velocity": 1,
          "duration": 0.3333329999999819
        },
        {
          "name": "B4",
          "midi": 71,
          "time": 508.66615800002,
          "velocity": 1,
          "duration": 0.3333329999999819
        },
        {
          "name": "G4",
          "midi": 67,
          "time": 508.66615800002,
          "velocity": 1,
          "duration": 0.3333329999999819
        },
        {
          "name": "A#3",
          "midi": 58,
          "time": 508.66615800002,
          "velocity": 1,
          "duration": 0.3333329999999819
        },
        {
          "name": "A#2",
          "midi": 46,
          "time": 508.99949100002,
          "velocity": 1,
          "duration": 0.16666650000001937
        },
        {
          "name": "C5",
          "midi": 72,
          "time": 508.99949100002,
          "velocity": 1,
          "duration": 0.16666650000001937
        },
        {
          "name": "G#4",
          "midi": 68,
          "time": 508.99949100002,
          "velocity": 1,
          "duration": 0.16666650000001937
        },
        {
          "name": "A#3",
          "midi": 58,
          "time": 508.99949100002,
          "velocity": 1,
          "duration": 0.16666650000001937
        },
        {
          "name": "A#3",
          "midi": 58,
          "time": 509.16615750002,
          "velocity": 1,
          "duration": 0.16666650000001937
        },
        {
          "name": "G4",
          "midi": 67,
          "time": 509.16615750002,
          "velocity": 1,
          "duration": 0.16666650000001937
        },
        {
          "name": "A#4",
          "midi": 70,
          "time": 509.16615750002,
          "velocity": 1,
          "duration": 0.16666650000001937
        },
        {
          "name": "A#2",
          "midi": 46,
          "time": 509.16615750002,
          "velocity": 1,
          "duration": 0.16666650000001937
        },
        {
          "name": "A#2",
          "midi": 46,
          "time": 509.33282400002,
          "velocity": 1,
          "duration": 0.16666650000001937
        },
        {
          "name": "G#4",
          "midi": 68,
          "time": 509.33282400002,
          "velocity": 1,
          "duration": 0.16666650000001937
        },
        {
          "name": "F4",
          "midi": 65,
          "time": 509.33282400002,
          "velocity": 1,
          "duration": 0.16666650000001937
        },
        {
          "name": "A#3",
          "midi": 58,
          "time": 509.33282400002,
          "velocity": 1,
          "duration": 0.16666650000001937
        },
        {
          "name": "A#2",
          "midi": 46,
          "time": 509.49949050002004,
          "velocity": 1,
          "duration": 0.16666650000001937
        },
        {
          "name": "G4",
          "midi": 67,
          "time": 509.49949050002004,
          "velocity": 1,
          "duration": 0.16666650000001937
        },
        {
          "name": "D#4",
          "midi": 63,
          "time": 509.49949050002004,
          "velocity": 1,
          "duration": 0.16666650000001937
        },
        {
          "name": "A#3",
          "midi": 58,
          "time": 509.49949050002004,
          "velocity": 1,
          "duration": 0.16666650000001937
        },
        {
          "name": "C4",
          "midi": 60,
          "time": 509.66615700002006,
          "velocity": 1,
          "duration": 0.16666650000001937
        },
        {
          "name": "D4",
          "midi": 62,
          "time": 509.66615700002006,
          "velocity": 1,
          "duration": 0.16666650000001937
        },
        {
          "name": "F4",
          "midi": 65,
          "time": 509.66615700002006,
          "velocity": 1,
          "duration": 0.16666650000001937
        },
        {
          "name": "A#2",
          "midi": 46,
          "time": 509.66615700002006,
          "velocity": 1,
          "duration": 0.16666650000001937
        },
        {
          "name": "G#3",
          "midi": 56,
          "time": 509.66615700002006,
          "velocity": 1,
          "duration": 0.16666650000001937
        },
        {
          "name": "G3",
          "midi": 55,
          "time": 509.8328235000201,
          "velocity": 1,
          "duration": 0.16666650000001937
        },
        {
          "name": "A#2",
          "midi": 46,
          "time": 509.8328235000201,
          "velocity": 1,
          "duration": 0.16666650000001937
        },
        {
          "name": "G4",
          "midi": 67,
          "time": 509.8328235000201,
          "velocity": 1,
          "duration": 0.16666650000001937
        },
        {
          "name": "D#4",
          "midi": 63,
          "time": 509.8328235000201,
          "velocity": 1,
          "duration": 0.16666650000001937
        },
        {
          "name": "A#3",
          "midi": 58,
          "time": 509.8328235000201,
          "velocity": 1,
          "duration": 0.16666650000001937
        },
        {
          "name": "F3",
          "midi": 53,
          "time": 509.9994900000201,
          "velocity": 1,
          "duration": 0.16666650000001937
        },
        {
          "name": "A#2",
          "midi": 46,
          "time": 509.9994900000201,
          "velocity": 1,
          "duration": 0.16666650000001937
        },
        {
          "name": "G#4",
          "midi": 68,
          "time": 509.9994900000201,
          "velocity": 1,
          "duration": 0.16666650000001937
        },
        {
          "name": "F4",
          "midi": 65,
          "time": 509.9994900000201,
          "velocity": 1,
          "duration": 0.16666650000001937
        },
        {
          "name": "G#3",
          "midi": 56,
          "time": 509.9994900000201,
          "velocity": 1,
          "duration": 0.16666650000001937
        },
        {
          "name": "A#3",
          "midi": 58,
          "time": 510.1661565000201,
          "velocity": 1,
          "duration": 0.16666650000001937
        },
        {
          "name": "D#4",
          "midi": 63,
          "time": 510.1661565000201,
          "velocity": 1,
          "duration": 0.16666650000001937
        },
        {
          "name": "G4",
          "midi": 67,
          "time": 510.1661565000201,
          "velocity": 1,
          "duration": 0.16666650000001937
        },
        {
          "name": "A#2",
          "midi": 46,
          "time": 510.1661565000201,
          "velocity": 1,
          "duration": 0.16666650000001937
        },
        {
          "name": "G3",
          "midi": 55,
          "time": 510.1661565000201,
          "velocity": 1,
          "duration": 0.16666650000001937
        },
        {
          "name": "G#3",
          "midi": 56,
          "time": 510.33282300002014,
          "velocity": 1,
          "duration": 0.16666650000001937
        },
        {
          "name": "A#2",
          "midi": 46,
          "time": 510.33282300002014,
          "velocity": 1,
          "duration": 0.16666650000001937
        },
        {
          "name": "F4",
          "midi": 65,
          "time": 510.33282300002014,
          "velocity": 1,
          "duration": 0.16666650000001937
        },
        {
          "name": "D4",
          "midi": 62,
          "time": 510.33282300002014,
          "velocity": 1,
          "duration": 0.16666650000001937
        },
        {
          "name": "C4",
          "midi": 60,
          "time": 510.33282300002014,
          "velocity": 1,
          "duration": 0.16666650000001937
        },
        {
          "name": "A#3",
          "midi": 58,
          "time": 510.49948950002016,
          "velocity": 1,
          "duration": 0.16666650000001937
        },
        {
          "name": "D#4",
          "midi": 63,
          "time": 510.49948950002016,
          "velocity": 1,
          "duration": 0.16666650000001937
        },
        {
          "name": "G4",
          "midi": 67,
          "time": 510.49948950002016,
          "velocity": 1,
          "duration": 0.16666650000001937
        },
        {
          "name": "A#2",
          "midi": 46,
          "time": 510.49948950002016,
          "velocity": 1,
          "duration": 0.16666650000001937
        },
        {
          "name": "G3",
          "midi": 55,
          "time": 510.49948950002016,
          "velocity": 1,
          "duration": 0.16666650000001937
        },
        {
          "name": "F3",
          "midi": 53,
          "time": 510.6661560000202,
          "velocity": 1,
          "duration": 0.16666650000001937
        },
        {
          "name": "A#2",
          "midi": 46,
          "time": 510.6661560000202,
          "velocity": 1,
          "duration": 0.16666650000001937
        },
        {
          "name": "G#4",
          "midi": 68,
          "time": 510.6661560000202,
          "velocity": 1,
          "duration": 0.16666650000001937
        },
        {
          "name": "F4",
          "midi": 65,
          "time": 510.6661560000202,
          "velocity": 1,
          "duration": 0.16666650000001937
        },
        {
          "name": "G#3",
          "midi": 56,
          "time": 510.6661560000202,
          "velocity": 1,
          "duration": 0.16666650000001937
        },
        {
          "name": "G3",
          "midi": 55,
          "time": 510.8328225000202,
          "velocity": 1,
          "duration": 0.16666650000001937
        },
        {
          "name": "G4",
          "midi": 67,
          "time": 510.8328225000202,
          "velocity": 1,
          "duration": 0.16666650000001937
        },
        {
          "name": "A#4",
          "midi": 70,
          "time": 510.8328225000202,
          "velocity": 1,
          "duration": 0.16666650000001937
        },
        {
          "name": "A#2",
          "midi": 46,
          "time": 510.8328225000202,
          "velocity": 1,
          "duration": 0.16666650000001937
        },
        {
          "name": "D#3",
          "midi": 51,
          "time": 510.8328225000202,
          "velocity": 1,
          "duration": 0.16666650000001937
        },
        {
          "name": "D3",
          "midi": 50,
          "time": 510.9994890000202,
          "velocity": 1,
          "duration": 0.16666650000001937
        },
        {
          "name": "A#2",
          "midi": 46,
          "time": 510.9994890000202,
          "velocity": 1,
          "duration": 0.16666650000001937
        },
        {
          "name": "C5",
          "midi": 72,
          "time": 510.9994890000202,
          "velocity": 1,
          "duration": 0.16666650000001937
        },
        {
          "name": "G#4",
          "midi": 68,
          "time": 510.9994890000202,
          "velocity": 1,
          "duration": 0.16666650000001937
        },
        {
          "name": "F3",
          "midi": 53,
          "time": 510.9994890000202,
          "velocity": 1,
          "duration": 0.16666650000001937
        },
        {
          "name": "D#3",
          "midi": 51,
          "time": 511.16615550002024,
          "velocity": 1,
          "duration": 0.16666650000001937
        },
        {
          "name": "A#2",
          "midi": 46,
          "time": 511.16615550002024,
          "velocity": 1,
          "duration": 0.16666650000001937
        },
        {
          "name": "A#4",
          "midi": 70,
          "time": 511.16615550002024,
          "velocity": 1,
          "duration": 0.16666650000001937
        },
        {
          "name": "G4",
          "midi": 67,
          "time": 511.16615550002024,
          "velocity": 1,
          "duration": 0.16666650000001937
        },
        {
          "name": "G3",
          "midi": 55,
          "time": 511.16615550002024,
          "velocity": 1,
          "duration": 0.16666650000001937
        },
        {
          "name": "G#3",
          "midi": 56,
          "time": 511.33282200002026,
          "velocity": 1,
          "duration": 0.16666650000001937
        },
        {
          "name": "F4",
          "midi": 65,
          "time": 511.33282200002026,
          "velocity": 1,
          "duration": 0.16666650000001937
        },
        {
          "name": "G#4",
          "midi": 68,
          "time": 511.33282200002026,
          "velocity": 1,
          "duration": 0.16666650000001937
        },
        {
          "name": "A#2",
          "midi": 46,
          "time": 511.33282200002026,
          "velocity": 1,
          "duration": 0.16666650000001937
        },
        {
          "name": "F3",
          "midi": 53,
          "time": 511.33282200002026,
          "velocity": 1,
          "duration": 0.16666650000001937
        },
        {
          "name": "G3",
          "midi": 55,
          "time": 511.4994885000203,
          "velocity": 1,
          "duration": 0.16666650000001937
        },
        {
          "name": "A#2",
          "midi": 46,
          "time": 511.4994885000203,
          "velocity": 1,
          "duration": 0.16666650000001937
        },
        {
          "name": "G4",
          "midi": 67,
          "time": 511.4994885000203,
          "velocity": 1,
          "duration": 0.16666650000001937
        },
        {
          "name": "D#4",
          "midi": 63,
          "time": 511.4994885000203,
          "velocity": 1,
          "duration": 0.16666650000001937
        },
        {
          "name": "A#3",
          "midi": 58,
          "time": 511.4994885000203,
          "velocity": 1,
          "duration": 0.16666650000001937
        },
        {
          "name": "G#3",
          "midi": 56,
          "time": 511.6661550000203,
          "velocity": 1,
          "duration": 0.16666650000001937
        },
        {
          "name": "A#2",
          "midi": 46,
          "time": 511.6661550000203,
          "velocity": 1,
          "duration": 0.16666650000001937
        },
        {
          "name": "F4",
          "midi": 65,
          "time": 511.6661550000203,
          "velocity": 1,
          "duration": 0.16666650000001937
        },
        {
          "name": "D4",
          "midi": 62,
          "time": 511.6661550000203,
          "velocity": 1,
          "duration": 0.16666650000001937
        },
        {
          "name": "C4",
          "midi": 60,
          "time": 511.6661550000203,
          "velocity": 1,
          "duration": 0.16666650000001937
        },
        {
          "name": "A#3",
          "midi": 58,
          "time": 511.8328215000203,
          "velocity": 1,
          "duration": 0.16666650000001937
        },
        {
          "name": "D#4",
          "midi": 63,
          "time": 511.8328215000203,
          "velocity": 1,
          "duration": 0.16666650000001937
        },
        {
          "name": "G4",
          "midi": 67,
          "time": 511.8328215000203,
          "velocity": 1,
          "duration": 0.16666650000001937
        },
        {
          "name": "A#2",
          "midi": 46,
          "time": 511.8328215000203,
          "velocity": 1,
          "duration": 0.16666650000001937
        },
        {
          "name": "G3",
          "midi": 55,
          "time": 511.8328215000203,
          "velocity": 1,
          "duration": 0.16666650000001937
        },
        {
          "name": "F3",
          "midi": 53,
          "time": 511.99948800002034,
          "velocity": 1,
          "duration": 0.16666649999996253
        },
        {
          "name": "A#2",
          "midi": 46,
          "time": 511.99948800002034,
          "velocity": 1,
          "duration": 0.16666649999996253
        },
        {
          "name": "G#4",
          "midi": 68,
          "time": 511.99948800002034,
          "velocity": 1,
          "duration": 0.16666649999996253
        },
        {
          "name": "F4",
          "midi": 65,
          "time": 511.99948800002034,
          "velocity": 1,
          "duration": 0.16666649999996253
        },
        {
          "name": "G#3",
          "midi": 56,
          "time": 511.99948800002034,
          "velocity": 1,
          "duration": 0.16666649999996253
        },
        {
          "name": "G3",
          "midi": 55,
          "time": 512.1661545000203,
          "velocity": 1,
          "duration": 0.16666650000001937
        },
        {
          "name": "A#2",
          "midi": 46,
          "time": 512.1661545000203,
          "velocity": 1,
          "duration": 0.16666650000001937
        },
        {
          "name": "G4",
          "midi": 67,
          "time": 512.1661545000203,
          "velocity": 1,
          "duration": 0.16666650000001937
        },
        {
          "name": "D#4",
          "midi": 63,
          "time": 512.1661545000203,
          "velocity": 1,
          "duration": 0.16666650000001937
        },
        {
          "name": "A#3",
          "midi": 58,
          "time": 512.1661545000203,
          "velocity": 1,
          "duration": 0.16666650000001937
        },
        {
          "name": "C4",
          "midi": 60,
          "time": 512.3328210000203,
          "velocity": 1,
          "duration": 0.16666650000001937
        },
        {
          "name": "D4",
          "midi": 62,
          "time": 512.3328210000203,
          "velocity": 1,
          "duration": 0.16666650000001937
        },
        {
          "name": "F4",
          "midi": 65,
          "time": 512.3328210000203,
          "velocity": 1,
          "duration": 0.16666650000001937
        },
        {
          "name": "A#2",
          "midi": 46,
          "time": 512.3328210000203,
          "velocity": 1,
          "duration": 0.16666650000001937
        },
        {
          "name": "G#3",
          "midi": 56,
          "time": 512.3328210000203,
          "velocity": 1,
          "duration": 0.16666650000001937
        },
        {
          "name": "G3",
          "midi": 55,
          "time": 512.4994875000203,
          "velocity": 1,
          "duration": 0.16666650000001937
        },
        {
          "name": "A#2",
          "midi": 46,
          "time": 512.4994875000203,
          "velocity": 1,
          "duration": 0.16666650000001937
        },
        {
          "name": "G4",
          "midi": 67,
          "time": 512.4994875000203,
          "velocity": 1,
          "duration": 0.16666650000001937
        },
        {
          "name": "D#4",
          "midi": 63,
          "time": 512.4994875000203,
          "velocity": 1,
          "duration": 0.16666650000001937
        },
        {
          "name": "A#3",
          "midi": 58,
          "time": 512.4994875000203,
          "velocity": 1,
          "duration": 0.16666650000001937
        },
        {
          "name": "G#3",
          "midi": 56,
          "time": 512.6661540000204,
          "velocity": 1,
          "duration": 0.16666650000001937
        },
        {
          "name": "F4",
          "midi": 65,
          "time": 512.6661540000204,
          "velocity": 1,
          "duration": 0.16666650000001937
        },
        {
          "name": "G#4",
          "midi": 68,
          "time": 512.6661540000204,
          "velocity": 1,
          "duration": 0.16666650000001937
        },
        {
          "name": "A#2",
          "midi": 46,
          "time": 512.6661540000204,
          "velocity": 1,
          "duration": 0.16666650000001937
        },
        {
          "name": "F3",
          "midi": 53,
          "time": 512.6661540000204,
          "velocity": 1,
          "duration": 0.16666650000001937
        },
        {
          "name": "D#3",
          "midi": 51,
          "time": 512.8328205000204,
          "velocity": 1,
          "duration": 0.16666650000001937
        },
        {
          "name": "A#2",
          "midi": 46,
          "time": 512.8328205000204,
          "velocity": 1,
          "duration": 0.16666650000001937
        },
        {
          "name": "A#4",
          "midi": 70,
          "time": 512.8328205000204,
          "velocity": 1,
          "duration": 0.16666650000001937
        },
        {
          "name": "G4",
          "midi": 67,
          "time": 512.8328205000204,
          "velocity": 1,
          "duration": 0.16666650000001937
        },
        {
          "name": "G3",
          "midi": 55,
          "time": 512.8328205000204,
          "velocity": 1,
          "duration": 0.16666650000001937
        },
        {
          "name": "F3",
          "midi": 53,
          "time": 512.9994870000204,
          "velocity": 1,
          "duration": 0.16666650000001937
        },
        {
          "name": "G#4",
          "midi": 68,
          "time": 512.9994870000204,
          "velocity": 1,
          "duration": 0.16666650000001937
        },
        {
          "name": "C5",
          "midi": 72,
          "time": 512.9994870000204,
          "velocity": 1,
          "duration": 0.16666650000001937
        },
        {
          "name": "A#2",
          "midi": 46,
          "time": 512.9994870000204,
          "velocity": 1,
          "duration": 0.16666650000001937
        },
        {
          "name": "D3",
          "midi": 50,
          "time": 512.9994870000204,
          "velocity": 1,
          "duration": 0.16666650000001937
        },
        {
          "name": "D#3",
          "midi": 51,
          "time": 513.1661535000204,
          "velocity": 1,
          "duration": 0.16666650000001937
        },
        {
          "name": "A#2",
          "midi": 46,
          "time": 513.1661535000204,
          "velocity": 1,
          "duration": 0.16666650000001937
        },
        {
          "name": "A#4",
          "midi": 70,
          "time": 513.1661535000204,
          "velocity": 1,
          "duration": 0.16666650000001937
        },
        {
          "name": "G4",
          "midi": 67,
          "time": 513.1661535000204,
          "velocity": 1,
          "duration": 0.16666650000001937
        },
        {
          "name": "G3",
          "midi": 55,
          "time": 513.1661535000204,
          "velocity": 1,
          "duration": 0.16666650000001937
        },
        {
          "name": "F3",
          "midi": 53,
          "time": 513.3328200000204,
          "velocity": 1,
          "duration": 0.16666650000001937
        },
        {
          "name": "A#2",
          "midi": 46,
          "time": 513.3328200000204,
          "velocity": 1,
          "duration": 0.16666650000001937
        },
        {
          "name": "G#4",
          "midi": 68,
          "time": 513.3328200000204,
          "velocity": 1,
          "duration": 0.16666650000001937
        },
        {
          "name": "F4",
          "midi": 65,
          "time": 513.3328200000204,
          "velocity": 1,
          "duration": 0.16666650000001937
        },
        {
          "name": "G#3",
          "midi": 56,
          "time": 513.3328200000204,
          "velocity": 1,
          "duration": 0.16666650000001937
        },
        {
          "name": "A#3",
          "midi": 58,
          "time": 513.4994865000205,
          "velocity": 1,
          "duration": 0.16666650000001937
        },
        {
          "name": "E4",
          "midi": 64,
          "time": 513.4994865000205,
          "velocity": 1,
          "duration": 0.16666650000001937
        },
        {
          "name": "G4",
          "midi": 67,
          "time": 513.4994865000205,
          "velocity": 1,
          "duration": 0.16666650000001937
        },
        {
          "name": "A#2",
          "midi": 46,
          "time": 513.4994865000205,
          "velocity": 1,
          "duration": 0.16666650000001937
        },
        {
          "name": "G3",
          "midi": 55,
          "time": 513.4994865000205,
          "velocity": 1,
          "duration": 0.16666650000001937
        },
        {
          "name": "F3",
          "midi": 53,
          "time": 513.6661530000205,
          "velocity": 1,
          "duration": 0.16666650000001937
        },
        {
          "name": "A#2",
          "midi": 46,
          "time": 513.6661530000205,
          "velocity": 1,
          "duration": 0.16666650000001937
        },
        {
          "name": "G#4",
          "midi": 68,
          "time": 513.6661530000205,
          "velocity": 1,
          "duration": 0.16666650000001937
        },
        {
          "name": "F4",
          "midi": 65,
          "time": 513.6661530000205,
          "velocity": 1,
          "duration": 0.16666650000001937
        },
        {
          "name": "G#3",
          "midi": 56,
          "time": 513.6661530000205,
          "velocity": 1,
          "duration": 0.16666650000001937
        },
        {
          "name": "G3",
          "midi": 55,
          "time": 513.8328195000205,
          "velocity": 1,
          "duration": 0.16666650000001937
        },
        {
          "name": "G4",
          "midi": 67,
          "time": 513.8328195000205,
          "velocity": 1,
          "duration": 0.16666650000001937
        },
        {
          "name": "A#4",
          "midi": 70,
          "time": 513.8328195000205,
          "velocity": 1,
          "duration": 0.16666650000001937
        },
        {
          "name": "A#2",
          "midi": 46,
          "time": 513.8328195000205,
          "velocity": 1,
          "duration": 0.16666650000001937
        },
        {
          "name": "D#3",
          "midi": 51,
          "time": 513.8328195000205,
          "velocity": 1,
          "duration": 0.16666650000001937
        },
        {
          "name": "D3",
          "midi": 50,
          "time": 513.9994860000205,
          "velocity": 1,
          "duration": 0.16666650000001937
        },
        {
          "name": "A#2",
          "midi": 46,
          "time": 513.9994860000205,
          "velocity": 1,
          "duration": 0.16666650000001937
        },
        {
          "name": "C5",
          "midi": 72,
          "time": 513.9994860000205,
          "velocity": 1,
          "duration": 0.16666650000001937
        },
        {
          "name": "G#4",
          "midi": 68,
          "time": 513.9994860000205,
          "velocity": 1,
          "duration": 0.16666650000001937
        },
        {
          "name": "F3",
          "midi": 53,
          "time": 513.9994860000205,
          "velocity": 1,
          "duration": 0.16666650000001937
        },
        {
          "name": "D#3",
          "midi": 51,
          "time": 514.1661525000205,
          "velocity": 1,
          "duration": 0.16666650000001937
        },
        {
          "name": "A#4",
          "midi": 70,
          "time": 514.1661525000205,
          "velocity": 1,
          "duration": 0.16666650000001937
        },
        {
          "name": "D5",
          "midi": 74,
          "time": 514.1661525000205,
          "velocity": 1,
          "duration": 0.16666650000001937
        },
        {
          "name": "A#2",
          "midi": 46,
          "time": 514.1661525000205,
          "velocity": 1,
          "duration": 0.16666650000001937
        },
        {
          "name": "C3",
          "midi": 48,
          "time": 514.1661525000205,
          "velocity": 1,
          "duration": 0.16666650000001937
        },
        {
          "name": "A#2",
          "midi": 46,
          "time": 514.3328190000205,
          "velocity": 1,
          "duration": 0.16666650000001937
        },
        {
          "name": "D#5",
          "midi": 75,
          "time": 514.3328190000205,
          "velocity": 1,
          "duration": 0.16666650000001937
        },
        {
          "name": "C5",
          "midi": 72,
          "time": 514.3328190000205,
          "velocity": 1,
          "duration": 0.16666650000001937
        },
        {
          "name": "D3",
          "midi": 50,
          "time": 514.3328190000205,
          "velocity": 1,
          "duration": 0.16666650000001937
        },
        {
          "name": "G#2",
          "midi": 44,
          "time": 514.4994855000206,
          "velocity": 1,
          "duration": 0.16666650000001937
        },
        {
          "name": "G#3",
          "midi": 56,
          "time": 514.4994855000206,
          "velocity": 1,
          "duration": 0.16666650000001937
        },
        {
          "name": "F5",
          "midi": 77,
          "time": 514.4994855000206,
          "velocity": 1,
          "duration": 0.16666650000001937
        },
        {
          "name": "D5",
          "midi": 74,
          "time": 514.4994855000206,
          "velocity": 1,
          "duration": 0.16666650000001937
        },
        {
          "name": "C4",
          "midi": 60,
          "time": 514.4994855000206,
          "velocity": 1,
          "duration": 0.16666650000001937
        },
        {
          "name": "A#3",
          "midi": 58,
          "time": 514.6661520000206,
          "velocity": 1,
          "duration": 0.16666650000001937
        },
        {
          "name": "D#5",
          "midi": 75,
          "time": 514.6661520000206,
          "velocity": 1,
          "duration": 0.16666650000001937
        },
        {
          "name": "G5",
          "midi": 79,
          "time": 514.6661520000206,
          "velocity": 1,
          "duration": 0.16666650000001937
        },
        {
          "name": "G3",
          "midi": 55,
          "time": 514.6661520000206,
          "velocity": 1,
          "duration": 0.16666650000001937
        },
        {
          "name": "G2",
          "midi": 43,
          "time": 514.6661520000206,
          "velocity": 1,
          "duration": 0.16666650000001937
        },
        {
          "name": "F2",
          "midi": 41,
          "time": 514.8328185000206,
          "velocity": 1,
          "duration": 0.16666650000001937
        },
        {
          "name": "F3",
          "midi": 53,
          "time": 514.8328185000206,
          "velocity": 1,
          "duration": 0.16666650000001937
        },
        {
          "name": "G#5",
          "midi": 80,
          "time": 514.8328185000206,
          "velocity": 1,
          "duration": 0.16666650000001937
        },
        {
          "name": "F5",
          "midi": 77,
          "time": 514.8328185000206,
          "velocity": 1,
          "duration": 0.16666650000001937
        },
        {
          "name": "G#3",
          "midi": 56,
          "time": 514.8328185000206,
          "velocity": 1,
          "duration": 0.16666650000001937
        },
        {
          "name": "G3",
          "midi": 55,
          "time": 514.9994850000206,
          "velocity": 1,
          "duration": 0.16666650000001937
        },
        {
          "name": "G5",
          "midi": 79,
          "time": 514.9994850000206,
          "velocity": 1,
          "duration": 0.33333300000003874
        },
        {
          "name": "A#5",
          "midi": 82,
          "time": 514.9994850000206,
          "velocity": 1,
          "duration": 0.6666660000000775
        },
        {
          "name": "D#3",
          "midi": 51,
          "time": 514.9994850000206,
          "velocity": 1,
          "duration": 0.16666650000001937
        },
        {
          "name": "D#2",
          "midi": 39,
          "time": 514.9994850000206,
          "velocity": 1,
          "duration": 0.16666650000001937
        },
        {
          "name": "A#2",
          "midi": 46,
          "time": 515.1661515000206,
          "velocity": 1,
          "duration": 0.16666650000001937
        },
        {
          "name": "G3",
          "midi": 55,
          "time": 515.1661515000206,
          "velocity": 1,
          "duration": 0.16666650000001937
        },
        {
          "name": "A#3",
          "midi": 58,
          "time": 515.3328180000207,
          "velocity": 1,
          "duration": 0.16666650000001937
        },
        {
          "name": "A#4",
          "midi": 70,
          "time": 515.3328180000207,
          "velocity": 1,
          "duration": 0.33333300000003874
        },
        {
          "name": "D#3",
          "midi": 51,
          "time": 515.3328180000207,
          "velocity": 1,
          "duration": 0.16666650000001937
        },
        {
          "name": "A#2",
          "midi": 46,
          "time": 515.4994845000207,
          "velocity": 1,
          "duration": 0.16666650000001937
        },
        {
          "name": "D#4",
          "midi": 63,
          "time": 515.4994845000207,
          "velocity": 1,
          "duration": 0.16666650000001937
        },
        {
          "name": "G4",
          "midi": 67,
          "time": 515.6661510000207,
          "velocity": 1,
          "duration": 0.33333300000003874
        },
        {
          "name": "G5",
          "midi": 79,
          "time": 515.6661510000207,
          "velocity": 1,
          "duration": 0.33333300000003874
        },
        {
          "name": "D#3",
          "midi": 51,
          "time": 515.6661510000207,
          "velocity": 1,
          "duration": 0.16666650000001937
        },
        {
          "name": "A#2",
          "midi": 46,
          "time": 515.8328175000207,
          "velocity": 1,
          "duration": 0.16666650000001937
        },
        {
          "name": "G3",
          "midi": 55,
          "time": 515.8328175000207,
          "velocity": 1,
          "duration": 0.16666650000001937
        },
        {
          "name": "D#3",
          "midi": 51,
          "time": 515.9994840000207,
          "velocity": 1,
          "duration": 0.16666650000001937
        },
        {
          "name": "D#5",
          "midi": 75,
          "time": 515.9994840000207,
          "velocity": 1,
          "duration": 0.33333300000003874
        },
        {
          "name": "D#4",
          "midi": 63,
          "time": 515.9994840000207,
          "velocity": 1,
          "duration": 0.33333300000003874
        },
        {
          "name": "A#3",
          "midi": 58,
          "time": 516.1661505000208,
          "velocity": 1,
          "duration": 0.16666650000001937
        },
        {
          "name": "A#2",
          "midi": 46,
          "time": 516.1661505000208,
          "velocity": 1,
          "duration": 0.16666650000001937
        },
        {
          "name": "D#3",
          "midi": 51,
          "time": 516.3328170000208,
          "velocity": 1,
          "duration": 0.16666650000001937
        },
        {
          "name": "G5",
          "midi": 79,
          "time": 516.3328170000208,
          "velocity": 1,
          "duration": 0.33333300000003874
        },
        {
          "name": "G4",
          "midi": 67,
          "time": 516.3328170000208,
          "velocity": 1,
          "duration": 0.33333300000003874
        },
        {
          "name": "D#4",
          "midi": 63,
          "time": 516.3328170000208,
          "velocity": 1,
          "duration": 0.16666650000001937
        },
        {
          "name": "G3",
          "midi": 55,
          "time": 516.4994835000208,
          "velocity": 1,
          "duration": 0.16666650000001937
        },
        {
          "name": "A#2",
          "midi": 46,
          "time": 516.4994835000208,
          "velocity": 1,
          "duration": 0.16666650000001937
        },
        {
          "name": "A#3",
          "midi": 58,
          "time": 516.6661500000208,
          "velocity": 1,
          "duration": 0.33333300000003874
        },
        {
          "name": "D#3",
          "midi": 51,
          "time": 516.6661500000208,
          "velocity": 1,
          "duration": 0.16666650000001937
        },
        {
          "name": "A#4",
          "midi": 70,
          "time": 516.6661500000208,
          "velocity": 1,
          "duration": 0.33333300000003874
        },
        {
          "name": "A#2",
          "midi": 46,
          "time": 516.8328165000208,
          "velocity": 1,
          "duration": 0.16666650000001937
        },
        {
          "name": "D3",
          "midi": 50,
          "time": 516.9994830000209,
          "velocity": 1,
          "duration": 0.16666650000001937
        },
        {
          "name": "F5",
          "midi": 77,
          "time": 516.9994830000209,
          "velocity": 1,
          "duration": 0.33333300000003874
        },
        {
          "name": "F4",
          "midi": 65,
          "time": 516.9994830000209,
          "velocity": 1,
          "duration": 0.33333300000003874
        },
        {
          "name": "A#2",
          "midi": 46,
          "time": 517.1661495000209,
          "velocity": 1,
          "duration": 0.16666650000001937
        },
        {
          "name": "A#3",
          "midi": 58,
          "time": 517.1661495000209,
          "velocity": 1,
          "duration": 0.16666650000001937
        },
        {
          "name": "F4",
          "midi": 65,
          "time": 517.3328160000209,
          "velocity": 1,
          "duration": 0.16666650000001937
        },
        {
          "name": "G#4",
          "midi": 68,
          "time": 517.3328160000209,
          "velocity": 1,
          "duration": 0.33333300000003874
        },
        {
          "name": "G#5",
          "midi": 80,
          "time": 517.3328160000209,
          "velocity": 1,
          "duration": 0.33333300000003874
        },
        {
          "name": "D3",
          "midi": 50,
          "time": 517.3328160000209,
          "velocity": 1,
          "duration": 0.16666650000001937
        },
        {
          "name": "F3",
          "midi": 53,
          "time": 517.3328160000209,
          "velocity": 1,
          "duration": 0.16666650000001937
        },
        {
          "name": "G#3",
          "midi": 56,
          "time": 517.4994825000209,
          "velocity": 1,
          "duration": 0.16666650000001937
        },
        {
          "name": "A#2",
          "midi": 46,
          "time": 517.4994825000209,
          "velocity": 1,
          "duration": 0.16666650000001937
        },
        {
          "name": "A#4",
          "midi": 70,
          "time": 517.6661490000209,
          "velocity": 1,
          "duration": 0.33333300000003874
        },
        {
          "name": "A#3",
          "midi": 58,
          "time": 517.6661490000209,
          "velocity": 1,
          "duration": 0.33333300000003874
        },
        {
          "name": "D3",
          "midi": 50,
          "time": 517.6661490000209,
          "velocity": 1,
          "duration": 0.16666650000001937
        },
        {
          "name": "A#2",
          "midi": 46,
          "time": 517.832815500021,
          "velocity": 1,
          "duration": 0.16666650000001937
        },
        {
          "name": "F3",
          "midi": 53,
          "time": 517.999482000021,
          "velocity": 1,
          "duration": 0.16666650000001937
        },
        {
          "name": "D5",
          "midi": 74,
          "time": 517.999482000021,
          "velocity": 1,
          "duration": 0.33333300000003874
        },
        {
          "name": "D4",
          "midi": 62,
          "time": 517.999482000021,
          "velocity": 1,
          "duration": 0.33333300000003874
        },
        {
          "name": "A#2",
          "midi": 46,
          "time": 518.166148500021,
          "velocity": 1,
          "duration": 0.16666650000001937
        },
        {
          "name": "A#3",
          "midi": 58,
          "time": 518.166148500021,
          "velocity": 1,
          "duration": 0.16666650000001937
        },
        {
          "name": "D4",
          "midi": 62,
          "time": 518.332815000021,
          "velocity": 1,
          "duration": 0.16666650000001937
        },
        {
          "name": "F4",
          "midi": 65,
          "time": 518.332815000021,
          "velocity": 1,
          "duration": 0.33333300000003874
        },
        {
          "name": "F5",
          "midi": 77,
          "time": 518.332815000021,
          "velocity": 1,
          "duration": 0.33333300000003874
        },
        {
          "name": "G#3",
          "midi": 56,
          "time": 518.332815000021,
          "velocity": 1,
          "duration": 0.16666650000001937
        },
        {
          "name": "D3",
          "midi": 50,
          "time": 518.332815000021,
          "velocity": 1,
          "duration": 0.16666650000001937
        },
        {
          "name": "F3",
          "midi": 53,
          "time": 518.499481500021,
          "velocity": 1,
          "duration": 0.16666650000001937
        },
        {
          "name": "A#2",
          "midi": 46,
          "time": 518.499481500021,
          "velocity": 1,
          "duration": 0.16666650000001937
        },
        {
          "name": "A#3",
          "midi": 58,
          "time": 518.666148000021,
          "velocity": 1,
          "duration": 0.33333300000003874
        },
        {
          "name": "D3",
          "midi": 50,
          "time": 518.666148000021,
          "velocity": 1,
          "duration": 0.16666650000001937
        },
        {
          "name": "A#4",
          "midi": 70,
          "time": 518.666148000021,
          "velocity": 1,
          "duration": 0.33333300000003874
        },
        {
          "name": "G#3",
          "midi": 56,
          "time": 518.8328145000211,
          "velocity": 1,
          "duration": 0.16666650000001937
        },
        {
          "name": "A#2",
          "midi": 46,
          "time": 518.8328145000211,
          "velocity": 1,
          "duration": 0.16666650000001937
        },
        {
          "name": "G#4",
          "midi": 68,
          "time": 518.8328145000211,
          "velocity": 1,
          "duration": 0.16666650000001937
        },
        {
          "name": "G4",
          "midi": 67,
          "time": 518.9994810000211,
          "velocity": 1,
          "duration": 0.16666650000001937
        },
        {
          "name": "A#4",
          "midi": 70,
          "time": 518.9994810000211,
          "velocity": 1,
          "duration": 0.08333325000000968
        },
        {
          "name": "A#5",
          "midi": 82,
          "time": 518.9994810000211,
          "velocity": 1,
          "duration": 0.08333325000000968
        },
        {
          "name": "D#3",
          "midi": 51,
          "time": 518.9994810000211,
          "velocity": 1,
          "duration": 0.16666650000001937
        },
        {
          "name": "G3",
          "midi": 55,
          "time": 518.9994810000211,
          "velocity": 1,
          "duration": 0.16666650000001937
        },
        {
          "name": "A#5",
          "midi": 82,
          "time": 519.0828142500211,
          "velocity": 1,
          "duration": 0.08333325000000968
        },
        {
          "name": "A#4",
          "midi": 70,
          "time": 519.0828142500211,
          "velocity": 1,
          "duration": 0.08333325000000968
        },
        {
          "name": "G3",
          "midi": 55,
          "time": 519.1661475000211,
          "velocity": 1,
          "duration": 0.08333325000000968
        },
        {
          "name": "G4",
          "midi": 67,
          "time": 519.1661475000211,
          "velocity": 1,
          "duration": 0.08333325000000968
        },
        {
          "name": "A#4",
          "midi": 70,
          "time": 519.1661475000211,
          "velocity": 1,
          "duration": 0.08333325000000968
        },
        {
          "name": "A#5",
          "midi": 82,
          "time": 519.1661475000211,
          "velocity": 1,
          "duration": 0.08333325000000968
        },
        {
          "name": "A#2",
          "midi": 46,
          "time": 519.1661475000211,
          "velocity": 1,
          "duration": 0.16666650000001937
        },
        {
          "name": "A#5",
          "midi": 82,
          "time": 519.2494807500211,
          "velocity": 1,
          "duration": 0.08333325000000968
        },
        {
          "name": "A#4",
          "midi": 70,
          "time": 519.2494807500211,
          "velocity": 1,
          "duration": 0.08333325000000968
        },
        {
          "name": "G4",
          "midi": 67,
          "time": 519.2494807500211,
          "velocity": 1,
          "duration": 0.08333325000000968
        },
        {
          "name": "G3",
          "midi": 55,
          "time": 519.2494807500211,
          "velocity": 1,
          "duration": 0.08333325000000968
        },
        {
          "name": "A#3",
          "midi": 58,
          "time": 519.3328140000211,
          "velocity": 1,
          "duration": 0.08333325000000968
        },
        {
          "name": "A#4",
          "midi": 70,
          "time": 519.3328140000211,
          "velocity": 1,
          "duration": 0.08333325000000968
        },
        {
          "name": "A#5",
          "midi": 82,
          "time": 519.3328140000211,
          "velocity": 1,
          "duration": 0.08333325000000968
        },
        {
          "name": "D#3",
          "midi": 51,
          "time": 519.3328140000211,
          "velocity": 1,
          "duration": 0.16666650000001937
        },
        {
          "name": "A#5",
          "midi": 82,
          "time": 519.4161472500211,
          "velocity": 1,
          "duration": 0.08333325000000968
        },
        {
          "name": "A#4",
          "midi": 70,
          "time": 519.4161472500211,
          "velocity": 1,
          "duration": 0.08333325000000968
        },
        {
          "name": "A#3",
          "midi": 58,
          "time": 519.4161472500211,
          "velocity": 1,
          "duration": 0.08333325000000968
        },
        {
          "name": "A#2",
          "midi": 46,
          "time": 519.4994805000211,
          "velocity": 1,
          "duration": 0.16666650000001937
        },
        {
          "name": "A#5",
          "midi": 82,
          "time": 519.4994805000211,
          "velocity": 1,
          "duration": 0.08333325000000968
        },
        {
          "name": "A#4",
          "midi": 70,
          "time": 519.4994805000211,
          "velocity": 1,
          "duration": 0.08333325000000968
        },
        {
          "name": "D#5",
          "midi": 75,
          "time": 519.4994805000211,
          "velocity": 1,
          "duration": 0.08333325000000968
        },
        {
          "name": "D#4",
          "midi": 63,
          "time": 519.4994805000211,
          "velocity": 1,
          "duration": 0.08333325000000968
        },
        {
          "name": "D#4",
          "midi": 63,
          "time": 519.5828137500212,
          "velocity": 1,
          "duration": 0.08333325000000968
        },
        {
          "name": "D#5",
          "midi": 75,
          "time": 519.5828137500212,
          "velocity": 1,
          "duration": 0.08333325000000968
        },
        {
          "name": "A#4",
          "midi": 70,
          "time": 519.5828137500212,
          "velocity": 1,
          "duration": 0.08333325000000968
        },
        {
          "name": "A#5",
          "midi": 82,
          "time": 519.5828137500212,
          "velocity": 1,
          "duration": 0.08333325000000968
        },
        {
          "name": "D#3",
          "midi": 51,
          "time": 519.6661470000212,
          "velocity": 1,
          "duration": 0.16666650000001937
        },
        {
          "name": "A#5",
          "midi": 82,
          "time": 519.6661470000212,
          "velocity": 1,
          "duration": 0.08333325000000968
        },
        {
          "name": "A#4",
          "midi": 70,
          "time": 519.6661470000212,
          "velocity": 1,
          "duration": 0.08333325000000968
        },
        {
          "name": "G5",
          "midi": 79,
          "time": 519.6661470000212,
          "velocity": 1,
          "duration": 0.08333325000000968
        },
        {
          "name": "G4",
          "midi": 67,
          "time": 519.6661470000212,
          "velocity": 1,
          "duration": 0.08333325000000968
        },
        {
          "name": "A#5",
          "midi": 82,
          "time": 519.7494802500212,
          "velocity": 1,
          "duration": 0.08333325000000968
        },
        {
          "name": "A#4",
          "midi": 70,
          "time": 519.7494802500212,
          "velocity": 1,
          "duration": 0.08333325000000968
        },
        {
          "name": "G5",
          "midi": 79,
          "time": 519.7494802500212,
          "velocity": 1,
          "duration": 0.08333325000000968
        },
        {
          "name": "G4",
          "midi": 67,
          "time": 519.7494802500212,
          "velocity": 1,
          "duration": 0.08333325000000968
        },
        {
          "name": "G3",
          "midi": 55,
          "time": 519.8328135000212,
          "velocity": 1,
          "duration": 0.08333325000000968
        },
        {
          "name": "G4",
          "midi": 67,
          "time": 519.8328135000212,
          "velocity": 1,
          "duration": 0.08333325000000968
        },
        {
          "name": "A#4",
          "midi": 70,
          "time": 519.8328135000212,
          "velocity": 1,
          "duration": 0.08333325000000968
        },
        {
          "name": "A#5",
          "midi": 82,
          "time": 519.8328135000212,
          "velocity": 1,
          "duration": 0.08333325000000968
        },
        {
          "name": "A#2",
          "midi": 46,
          "time": 519.8328135000212,
          "velocity": 1,
          "duration": 0.16666650000001937
        },
        {
          "name": "A#5",
          "midi": 82,
          "time": 519.9161467500212,
          "velocity": 1,
          "duration": 0.08333325000000968
        },
        {
          "name": "A#4",
          "midi": 70,
          "time": 519.9161467500212,
          "velocity": 1,
          "duration": 0.08333325000000968
        },
        {
          "name": "G4",
          "midi": 67,
          "time": 519.9161467500212,
          "velocity": 1,
          "duration": 0.08333325000000968
        },
        {
          "name": "G3",
          "midi": 55,
          "time": 519.9161467500212,
          "velocity": 1,
          "duration": 0.08333325000000968
        },
        {
          "name": "D#3",
          "midi": 51,
          "time": 519.9994800000212,
          "velocity": 1,
          "duration": 0.16666650000001937
        },
        {
          "name": "A#5",
          "midi": 82,
          "time": 519.9994800000212,
          "velocity": 1,
          "duration": 0.08333325000000968
        },
        {
          "name": "A#4",
          "midi": 70,
          "time": 519.9994800000212,
          "velocity": 1,
          "duration": 0.08333325000000968
        },
        {
          "name": "A#5",
          "midi": 82,
          "time": 520.0828132500212,
          "velocity": 1,
          "duration": 0.08333325000000968
        },
        {
          "name": "A#4",
          "midi": 70,
          "time": 520.0828132500212,
          "velocity": 1,
          "duration": 0.08333325000000968
        },
        {
          "name": "G3",
          "midi": 55,
          "time": 520.1661465000212,
          "velocity": 1,
          "duration": 0.08333325000000968
        },
        {
          "name": "G4",
          "midi": 67,
          "time": 520.1661465000212,
          "velocity": 1,
          "duration": 0.08333325000000968
        },
        {
          "name": "A#4",
          "midi": 70,
          "time": 520.1661465000212,
          "velocity": 1,
          "duration": 0.08333325000000968
        },
        {
          "name": "A#5",
          "midi": 82,
          "time": 520.1661465000212,
          "velocity": 1,
          "duration": 0.08333325000000968
        },
        {
          "name": "A#2",
          "midi": 46,
          "time": 520.1661465000212,
          "velocity": 1,
          "duration": 0.16666650000001937
        },
        {
          "name": "A#5",
          "midi": 82,
          "time": 520.2494797500212,
          "velocity": 1,
          "duration": 0.08333325000000968
        },
        {
          "name": "A#4",
          "midi": 70,
          "time": 520.2494797500212,
          "velocity": 1,
          "duration": 0.08333325000000968
        },
        {
          "name": "G4",
          "midi": 67,
          "time": 520.2494797500212,
          "velocity": 1,
          "duration": 0.08333325000000968
        },
        {
          "name": "G3",
          "midi": 55,
          "time": 520.2494797500212,
          "velocity": 1,
          "duration": 0.08333325000000968
        },
        {
          "name": "D#3",
          "midi": 51,
          "time": 520.3328130000212,
          "velocity": 1,
          "duration": 0.16666650000001937
        },
        {
          "name": "A#5",
          "midi": 82,
          "time": 520.3328130000212,
          "velocity": 1,
          "duration": 0.08333325000000968
        },
        {
          "name": "A#4",
          "midi": 70,
          "time": 520.3328130000212,
          "velocity": 1,
          "duration": 0.08333325000000968
        },
        {
          "name": "A#3",
          "midi": 58,
          "time": 520.3328130000212,
          "velocity": 1,
          "duration": 0.08333325000000968
        },
        {
          "name": "A#3",
          "midi": 58,
          "time": 520.4161462500213,
          "velocity": 1,
          "duration": 0.08333325000000968
        },
        {
          "name": "A#4",
          "midi": 70,
          "time": 520.4161462500213,
          "velocity": 1,
          "duration": 0.08333325000000968
        },
        {
          "name": "A#5",
          "midi": 82,
          "time": 520.4161462500213,
          "velocity": 1,
          "duration": 0.08333325000000968
        },
        {
          "name": "A#2",
          "midi": 46,
          "time": 520.4994795000213,
          "velocity": 1,
          "duration": 0.16666650000001937
        },
        {
          "name": "A#5",
          "midi": 82,
          "time": 520.4994795000213,
          "velocity": 1,
          "duration": 0.08333325000000968
        },
        {
          "name": "A#4",
          "midi": 70,
          "time": 520.4994795000213,
          "velocity": 1,
          "duration": 0.08333325000000968
        },
        {
          "name": "D#5",
          "midi": 75,
          "time": 520.4994795000213,
          "velocity": 1,
          "duration": 0.08333325000000968
        },
        {
          "name": "D#4",
          "midi": 63,
          "time": 520.4994795000213,
          "velocity": 1,
          "duration": 0.08333325000000968
        },
        {
          "name": "A#5",
          "midi": 82,
          "time": 520.5828127500213,
          "velocity": 1,
          "duration": 0.08333325000000968
        },
        {
          "name": "A#4",
          "midi": 70,
          "time": 520.5828127500213,
          "velocity": 1,
          "duration": 0.08333325000000968
        },
        {
          "name": "D#5",
          "midi": 75,
          "time": 520.5828127500213,
          "velocity": 1,
          "duration": 0.08333325000000968
        },
        {
          "name": "D#4",
          "midi": 63,
          "time": 520.5828127500213,
          "velocity": 1,
          "duration": 0.08333325000000968
        },
        {
          "name": "G4",
          "midi": 67,
          "time": 520.6661460000213,
          "velocity": 1,
          "duration": 0.08333325000000968
        },
        {
          "name": "G5",
          "midi": 79,
          "time": 520.6661460000213,
          "velocity": 1,
          "duration": 0.08333325000000968
        },
        {
          "name": "A#4",
          "midi": 70,
          "time": 520.6661460000213,
          "velocity": 1,
          "duration": 0.08333325000000968
        },
        {
          "name": "A#5",
          "midi": 82,
          "time": 520.6661460000213,
          "velocity": 1,
          "duration": 0.08333325000000968
        },
        {
          "name": "D#3",
          "midi": 51,
          "time": 520.6661460000213,
          "velocity": 1,
          "duration": 0.16666650000001937
        },
        {
          "name": "A#5",
          "midi": 82,
          "time": 520.7494792500213,
          "velocity": 1,
          "duration": 0.08333325000000968
        },
        {
          "name": "A#4",
          "midi": 70,
          "time": 520.7494792500213,
          "velocity": 1,
          "duration": 0.08333325000000968
        },
        {
          "name": "G5",
          "midi": 79,
          "time": 520.7494792500213,
          "velocity": 1,
          "duration": 0.08333325000000968
        },
        {
          "name": "G4",
          "midi": 67,
          "time": 520.7494792500213,
          "velocity": 1,
          "duration": 0.08333325000000968
        },
        {
          "name": "G3",
          "midi": 55,
          "time": 520.8328125000213,
          "velocity": 1,
          "duration": 0.08333325000000968
        },
        {
          "name": "G4",
          "midi": 67,
          "time": 520.8328125000213,
          "velocity": 1,
          "duration": 0.08333325000000968
        },
        {
          "name": "A#4",
          "midi": 70,
          "time": 520.8328125000213,
          "velocity": 1,
          "duration": 0.08333325000000968
        },
        {
          "name": "A#5",
          "midi": 82,
          "time": 520.8328125000213,
          "velocity": 1,
          "duration": 0.08333325000000968
        },
        {
          "name": "A#2",
          "midi": 46,
          "time": 520.8328125000213,
          "velocity": 1,
          "duration": 0.16666650000001937
        },
        {
          "name": "A#5",
          "midi": 82,
          "time": 520.9161457500213,
          "velocity": 1,
          "duration": 0.08333325000000968
        },
        {
          "name": "A#4",
          "midi": 70,
          "time": 520.9161457500213,
          "velocity": 1,
          "duration": 0.08333325000000968
        },
        {
          "name": "G4",
          "midi": 67,
          "time": 520.9161457500213,
          "velocity": 1,
          "duration": 0.08333325000000968
        },
        {
          "name": "G3",
          "midi": 55,
          "time": 520.9161457500213,
          "velocity": 1,
          "duration": 0.08333325000000968
        },
        {
          "name": "A#4",
          "midi": 70,
          "time": 520.9994790000213,
          "velocity": 1,
          "duration": 0.08333325000000968
        },
        {
          "name": "A#5",
          "midi": 82,
          "time": 520.9994790000213,
          "velocity": 1,
          "duration": 0.08333325000000968
        },
        {
          "name": "D3",
          "midi": 50,
          "time": 520.9994790000213,
          "velocity": 1,
          "duration": 0.16666650000001937
        },
        {
          "name": "A#5",
          "midi": 82,
          "time": 521.0828122500213,
          "velocity": 1,
          "duration": 0.08333325000000968
        },
        {
          "name": "A#4",
          "midi": 70,
          "time": 521.0828122500213,
          "velocity": 1,
          "duration": 0.08333325000000968
        },
        {
          "name": "G#3",
          "midi": 56,
          "time": 521.1661455000213,
          "velocity": 1,
          "duration": 0.08333325000000968
        },
        {
          "name": "G#4",
          "midi": 68,
          "time": 521.1661455000213,
          "velocity": 1,
          "duration": 0.08333325000000968
        },
        {
          "name": "A#4",
          "midi": 70,
          "time": 521.1661455000213,
          "velocity": 1,
          "duration": 0.08333325000000968
        },
        {
          "name": "A#5",
          "midi": 82,
          "time": 521.1661455000213,
          "velocity": 1,
          "duration": 0.08333325000000968
        },
        {
          "name": "A#2",
          "midi": 46,
          "time": 521.1661455000213,
          "velocity": 1,
          "duration": 0.16666650000001937
        },
        {
          "name": "A#5",
          "midi": 82,
          "time": 521.2494787500214,
          "velocity": 1,
          "duration": 0.08333325000000968
        },
        {
          "name": "A#4",
          "midi": 70,
          "time": 521.2494787500214,
          "velocity": 1,
          "duration": 0.08333325000000968
        },
        {
          "name": "G#4",
          "midi": 68,
          "time": 521.2494787500214,
          "velocity": 1,
          "duration": 0.08333325000000968
        },
        {
          "name": "G#3",
          "midi": 56,
          "time": 521.2494787500214,
          "velocity": 1,
          "duration": 0.08333325000000968
        },
        {
          "name": "A#3",
          "midi": 58,
          "time": 521.3328120000214,
          "velocity": 1,
          "duration": 0.08333325000000968
        },
        {
          "name": "A#4",
          "midi": 70,
          "time": 521.3328120000214,
          "velocity": 1,
          "duration": 0.08333325000000968
        },
        {
          "name": "A#5",
          "midi": 82,
          "time": 521.3328120000214,
          "velocity": 1,
          "duration": 0.08333325000000968
        },
        {
          "name": "D3",
          "midi": 50,
          "time": 521.3328120000214,
          "velocity": 1,
          "duration": 0.16666650000001937
        },
        {
          "name": "A#5",
          "midi": 82,
          "time": 521.4161452500214,
          "velocity": 1,
          "duration": 0.08333325000000968
        },
        {
          "name": "A#4",
          "midi": 70,
          "time": 521.4161452500214,
          "velocity": 1,
          "duration": 0.08333325000000968
        },
        {
          "name": "A#3",
          "midi": 58,
          "time": 521.4161452500214,
          "velocity": 1,
          "duration": 0.08333325000000968
        },
        {
          "name": "A#2",
          "midi": 46,
          "time": 521.4994785000214,
          "velocity": 1,
          "duration": 0.16666650000001937
        },
        {
          "name": "A#5",
          "midi": 82,
          "time": 521.4994785000214,
          "velocity": 1,
          "duration": 0.08333325000000968
        },
        {
          "name": "A#4",
          "midi": 70,
          "time": 521.4994785000214,
          "velocity": 1,
          "duration": 0.08333325000000968
        },
        {
          "name": "D5",
          "midi": 74,
          "time": 521.4994785000214,
          "velocity": 1,
          "duration": 0.08333325000000968
        },
        {
          "name": "D4",
          "midi": 62,
          "time": 521.4994785000214,
          "velocity": 1,
          "duration": 0.08333325000000968
        },
        {
          "name": "D4",
          "midi": 62,
          "time": 521.5828117500214,
          "velocity": 1,
          "duration": 0.08333325000000968
        },
        {
          "name": "D5",
          "midi": 74,
          "time": 521.5828117500214,
          "velocity": 1,
          "duration": 0.08333325000000968
        },
        {
          "name": "A#4",
          "midi": 70,
          "time": 521.5828117500214,
          "velocity": 1,
          "duration": 0.08333325000000968
        },
        {
          "name": "A#5",
          "midi": 82,
          "time": 521.5828117500214,
          "velocity": 1,
          "duration": 0.08333325000000968
        },
        {
          "name": "D3",
          "midi": 50,
          "time": 521.6661450000214,
          "velocity": 1,
          "duration": 0.16666650000001937
        },
        {
          "name": "A#5",
          "midi": 82,
          "time": 521.6661450000214,
          "velocity": 1,
          "duration": 0.08333325000000968
        },
        {
          "name": "A#4",
          "midi": 70,
          "time": 521.6661450000214,
          "velocity": 1,
          "duration": 0.08333325000000968
        },
        {
          "name": "F5",
          "midi": 77,
          "time": 521.6661450000214,
          "velocity": 1,
          "duration": 0.08333325000000968
        },
        {
          "name": "F4",
          "midi": 65,
          "time": 521.6661450000214,
          "velocity": 1,
          "duration": 0.08333325000000968
        },
        {
          "name": "A#5",
          "midi": 82,
          "time": 521.7494782500214,
          "velocity": 1,
          "duration": 0.08333325000000968
        },
        {
          "name": "A#4",
          "midi": 70,
          "time": 521.7494782500214,
          "velocity": 1,
          "duration": 0.08333325000000968
        },
        {
          "name": "F5",
          "midi": 77,
          "time": 521.7494782500214,
          "velocity": 1,
          "duration": 0.08333325000000968
        },
        {
          "name": "F4",
          "midi": 65,
          "time": 521.7494782500214,
          "velocity": 1,
          "duration": 0.08333325000000968
        },
        {
          "name": "G#3",
          "midi": 56,
          "time": 521.8328115000214,
          "velocity": 1,
          "duration": 0.08333325000000968
        },
        {
          "name": "G#4",
          "midi": 68,
          "time": 521.8328115000214,
          "velocity": 1,
          "duration": 0.08333325000000968
        },
        {
          "name": "A#4",
          "midi": 70,
          "time": 521.8328115000214,
          "velocity": 1,
          "duration": 0.08333325000000968
        },
        {
          "name": "A#5",
          "midi": 82,
          "time": 521.8328115000214,
          "velocity": 1,
          "duration": 0.08333325000000968
        },
        {
          "name": "A#2",
          "midi": 46,
          "time": 521.8328115000214,
          "velocity": 1,
          "duration": 0.16666650000001937
        },
        {
          "name": "A#5",
          "midi": 82,
          "time": 521.9161447500214,
          "velocity": 1,
          "duration": 0.08333325000000968
        },
        {
          "name": "A#4",
          "midi": 70,
          "time": 521.9161447500214,
          "velocity": 1,
          "duration": 0.08333325000000968
        },
        {
          "name": "G#4",
          "midi": 68,
          "time": 521.9161447500214,
          "velocity": 1,
          "duration": 0.08333325000000968
        },
        {
          "name": "G#3",
          "midi": 56,
          "time": 521.9161447500214,
          "velocity": 1,
          "duration": 0.08333325000000968
        },
        {
          "name": "F3",
          "midi": 53,
          "time": 521.9994780000214,
          "velocity": 1,
          "duration": 0.16666650000001937
        },
        {
          "name": "A#5",
          "midi": 82,
          "time": 521.9994780000214,
          "velocity": 1,
          "duration": 0.08333325000000968
        },
        {
          "name": "A#4",
          "midi": 70,
          "time": 521.9994780000214,
          "velocity": 1,
          "duration": 0.08333325000000968
        },
        {
          "name": "A#5",
          "midi": 82,
          "time": 522.0828112500215,
          "velocity": 1,
          "duration": 0.08333325000000968
        },
        {
          "name": "A#4",
          "midi": 70,
          "time": 522.0828112500215,
          "velocity": 1,
          "duration": 0.08333325000000968
        },
        {
          "name": "G#3",
          "midi": 56,
          "time": 522.1661445000215,
          "velocity": 1,
          "duration": 0.08333325000000968
        },
        {
          "name": "G#4",
          "midi": 68,
          "time": 522.1661445000215,
          "velocity": 1,
          "duration": 0.08333325000000968
        },
        {
          "name": "A#4",
          "midi": 70,
          "time": 522.1661445000215,
          "velocity": 1,
          "duration": 0.08333325000000968
        },
        {
          "name": "A#5",
          "midi": 82,
          "time": 522.1661445000215,
          "velocity": 1,
          "duration": 0.08333325000000968
        },
        {
          "name": "A#2",
          "midi": 46,
          "time": 522.1661445000215,
          "velocity": 1,
          "duration": 0.16666650000001937
        },
        {
          "name": "A#5",
          "midi": 82,
          "time": 522.2494777500215,
          "velocity": 1,
          "duration": 0.08333325000000968
        },
        {
          "name": "A#4",
          "midi": 70,
          "time": 522.2494777500215,
          "velocity": 1,
          "duration": 0.08333325000000968
        },
        {
          "name": "G#4",
          "midi": 68,
          "time": 522.2494777500215,
          "velocity": 1,
          "duration": 0.08333325000000968
        },
        {
          "name": "G#3",
          "midi": 56,
          "time": 522.2494777500215,
          "velocity": 1,
          "duration": 0.08333325000000968
        },
        {
          "name": "D4",
          "midi": 62,
          "time": 522.3328110000215,
          "velocity": 1,
          "duration": 0.08333325000000968
        },
        {
          "name": "D5",
          "midi": 74,
          "time": 522.3328110000215,
          "velocity": 1,
          "duration": 0.08333325000000968
        },
        {
          "name": "A#4",
          "midi": 70,
          "time": 522.3328110000215,
          "velocity": 1,
          "duration": 0.08333325000000968
        },
        {
          "name": "A#5",
          "midi": 82,
          "time": 522.3328110000215,
          "velocity": 1,
          "duration": 0.08333325000000968
        },
        {
          "name": "G#3",
          "midi": 56,
          "time": 522.3328110000215,
          "velocity": 1,
          "duration": 0.16666650000001937
        },
        {
          "name": "A#5",
          "midi": 82,
          "time": 522.4161442500215,
          "velocity": 1,
          "duration": 0.08333325000000968
        },
        {
          "name": "A#4",
          "midi": 70,
          "time": 522.4161442500215,
          "velocity": 1,
          "duration": 0.08333325000000968
        },
        {
          "name": "D5",
          "midi": 74,
          "time": 522.4161442500215,
          "velocity": 1,
          "duration": 0.08333325000000968
        },
        {
          "name": "D4",
          "midi": 62,
          "time": 522.4161442500215,
          "velocity": 1,
          "duration": 0.08333325000000968
        },
        {
          "name": "F4",
          "midi": 65,
          "time": 522.4994775000215,
          "velocity": 1,
          "duration": 0.08333325000000968
        },
        {
          "name": "F5",
          "midi": 77,
          "time": 522.4994775000215,
          "velocity": 1,
          "duration": 0.08333325000000968
        },
        {
          "name": "A#4",
          "midi": 70,
          "time": 522.4994775000215,
          "velocity": 1,
          "duration": 0.08333325000000968
        },
        {
          "name": "A#5",
          "midi": 82,
          "time": 522.4994775000215,
          "velocity": 1,
          "duration": 0.08333325000000968
        },
        {
          "name": "A#3",
          "midi": 58,
          "time": 522.4994775000215,
          "velocity": 1,
          "duration": 0.16666650000001937
        },
        {
          "name": "A#5",
          "midi": 82,
          "time": 522.5828107500215,
          "velocity": 1,
          "duration": 0.08333325000000968
        },
        {
          "name": "A#4",
          "midi": 70,
          "time": 522.5828107500215,
          "velocity": 1,
          "duration": 0.08333325000000968
        },
        {
          "name": "F5",
          "midi": 77,
          "time": 522.5828107500215,
          "velocity": 1,
          "duration": 0.08333325000000968
        },
        {
          "name": "F4",
          "midi": 65,
          "time": 522.5828107500215,
          "velocity": 1,
          "duration": 0.08333325000000968
        },
        {
          "name": "G#3",
          "midi": 56,
          "time": 522.6661440000215,
          "velocity": 1,
          "duration": 0.16666650000001937
        },
        {
          "name": "A#5",
          "midi": 82,
          "time": 522.6661440000215,
          "velocity": 1,
          "duration": 0.08333325000000968
        },
        {
          "name": "A#4",
          "midi": 70,
          "time": 522.6661440000215,
          "velocity": 1,
          "duration": 0.08333325000000968
        },
        {
          "name": "G#5",
          "midi": 80,
          "time": 522.6661440000215,
          "velocity": 1,
          "duration": 0.08333325000000968
        },
        {
          "name": "G#4",
          "midi": 68,
          "time": 522.6661440000215,
          "velocity": 1,
          "duration": 0.08333325000000968
        },
        {
          "name": "G#4",
          "midi": 68,
          "time": 522.7494772500215,
          "velocity": 1,
          "duration": 0.08333325000000968
        },
        {
          "name": "G#5",
          "midi": 80,
          "time": 522.7494772500215,
          "velocity": 1,
          "duration": 0.08333325000000968
        },
        {
          "name": "A#4",
          "midi": 70,
          "time": 522.7494772500215,
          "velocity": 1,
          "duration": 0.08333325000000968
        },
        {
          "name": "A#5",
          "midi": 82,
          "time": 522.7494772500215,
          "velocity": 1,
          "duration": 0.08333325000000968
        },
        {
          "name": "A#3",
          "midi": 58,
          "time": 522.8328105000215,
          "velocity": 1,
          "duration": 0.16666650000001937
        },
        {
          "name": "A#5",
          "midi": 82,
          "time": 522.8328105000215,
          "velocity": 1,
          "duration": 0.08333325000000968
        },
        {
          "name": "A#4",
          "midi": 70,
          "time": 522.8328105000215,
          "velocity": 1,
          "duration": 0.08333325000000968
        },
        {
          "name": "D5",
          "midi": 74,
          "time": 522.8328105000215,
          "velocity": 1,
          "duration": 0.08333325000000968
        },
        {
          "name": "D4",
          "midi": 62,
          "time": 522.8328105000215,
          "velocity": 1,
          "duration": 0.08333325000000968
        },
        {
          "name": "A#5",
          "midi": 82,
          "time": 522.9161437500215,
          "velocity": 1,
          "duration": 0.08333325000000968
        },
        {
          "name": "A#4",
          "midi": 70,
          "time": 522.9161437500215,
          "velocity": 1,
          "duration": 0.08333325000000968
        },
        {
          "name": "D5",
          "midi": 74,
          "time": 522.9161437500215,
          "velocity": 1,
          "duration": 0.08333325000000968
        },
        {
          "name": "D4",
          "midi": 62,
          "time": 522.9161437500215,
          "velocity": 1,
          "duration": 0.08333325000000968
        },
        {
          "name": "D#4",
          "midi": 63,
          "time": 522.9994770000216,
          "velocity": 1,
          "duration": 0.33333300000003874
        },
        {
          "name": "D#5",
          "midi": 75,
          "time": 522.9994770000216,
          "velocity": 1,
          "duration": 0.08333325000000968
        },
        {
          "name": "A#5",
          "midi": 82,
          "time": 522.9994770000216,
          "velocity": 1,
          "duration": 0.08333325000000968
        },
        {
          "name": "G3",
          "midi": 55,
          "time": 522.9994770000216,
          "velocity": 1,
          "duration": 0.8333325000000968
        },
        {
          "name": "A#5",
          "midi": 82,
          "time": 523.0828102500216,
          "velocity": 1,
          "duration": 0.08333325000000968
        },
        {
          "name": "D#5",
          "midi": 75,
          "time": 523.0828102500216,
          "velocity": 1,
          "duration": 0.08333325000000968
        },
        {
          "name": "D6",
          "midi": 86,
          "time": 523.1661435000216,
          "velocity": 1,
          "duration": 0.08333325000000968
        },
        {
          "name": "D5",
          "midi": 74,
          "time": 523.1661435000216,
          "velocity": 1,
          "duration": 0.08333325000000968
        },
        {
          "name": "D6",
          "midi": 86,
          "time": 523.2494767500216,
          "velocity": 1,
          "duration": 0.08333325000000968
        },
        {
          "name": "D5",
          "midi": 74,
          "time": 523.2494767500216,
          "velocity": 1,
          "duration": 0.08333325000000968
        },
        {
          "name": "D#5",
          "midi": 75,
          "time": 523.3328100000216,
          "velocity": 1,
          "duration": 0.08333325000000968
        },
        {
          "name": "D#6",
          "midi": 87,
          "time": 523.3328100000216,
          "velocity": 1,
          "duration": 0.08333325000000968
        },
        {
          "name": "D#6",
          "midi": 87,
          "time": 523.4161432500216,
          "velocity": 1,
          "duration": 0.08333325000000968
        },
        {
          "name": "D#5",
          "midi": 75,
          "time": 523.4161432500216,
          "velocity": 1,
          "duration": 0.08333325000000968
        },
        {
          "name": "D6",
          "midi": 86,
          "time": 523.4994765000216,
          "velocity": 1,
          "duration": 0.08333325000000968
        },
        {
          "name": "D5",
          "midi": 74,
          "time": 523.4994765000216,
          "velocity": 1,
          "duration": 0.08333325000000968
        },
        {
          "name": "D6",
          "midi": 86,
          "time": 523.5828097500216,
          "velocity": 1,
          "duration": 0.08333325000000968
        },
        {
          "name": "D5",
          "midi": 74,
          "time": 523.5828097500216,
          "velocity": 1,
          "duration": 0.08333325000000968
        },
        {
          "name": "D#5",
          "midi": 75,
          "time": 523.6661430000216,
          "velocity": 1,
          "duration": 0.08333325000000968
        },
        {
          "name": "D#6",
          "midi": 87,
          "time": 523.6661430000216,
          "velocity": 1,
          "duration": 0.08333325000000968
        },
        {
          "name": "D#6",
          "midi": 87,
          "time": 523.7494762500216,
          "velocity": 1,
          "duration": 0.08333325000000968
        },
        {
          "name": "D#5",
          "midi": 75,
          "time": 523.7494762500216,
          "velocity": 1,
          "duration": 0.08333325000000968
        },
        {
          "name": "F#3",
          "midi": 54,
          "time": 523.8328095000217,
          "velocity": 1,
          "duration": 0.16666650000001937
        },
        {
          "name": "A5",
          "midi": 81,
          "time": 523.8328095000217,
          "velocity": 1,
          "duration": 0.08333325000000968
        },
        {
          "name": "A4",
          "midi": 69,
          "time": 523.8328095000217,
          "velocity": 1,
          "duration": 0.08333325000000968
        },
        {
          "name": "A4",
          "midi": 69,
          "time": 523.9161427500217,
          "velocity": 1,
          "duration": 0.08333325000000968
        },
        {
          "name": "A5",
          "midi": 81,
          "time": 523.9161427500217,
          "velocity": 1,
          "duration": 0.08333325000000968
        },
        {
          "name": "G3",
          "midi": 55,
          "time": 523.9994760000217,
          "velocity": 1,
          "duration": 0.16666650000001937
        },
        {
          "name": "A#5",
          "midi": 82,
          "time": 523.9994760000217,
          "velocity": 1,
          "duration": 0.08333325000000968
        },
        {
          "name": "A#4",
          "midi": 70,
          "time": 523.9994760000217,
          "velocity": 1,
          "duration": 0.08333325000000968
        },
        {
          "name": "A#5",
          "midi": 82,
          "time": 524.0828092500217,
          "velocity": 1,
          "duration": 0.08333325000000968
        },
        {
          "name": "A#4",
          "midi": 70,
          "time": 524.0828092500217,
          "velocity": 1,
          "duration": 0.08333325000000968
        },
        {
          "name": "F#4",
          "midi": 66,
          "time": 524.1661425000217,
          "velocity": 1,
          "duration": 0.08333325000000968
        },
        {
          "name": "F#5",
          "midi": 78,
          "time": 524.1661425000217,
          "velocity": 1,
          "duration": 0.08333325000000968
        },
        {
          "name": "D3",
          "midi": 50,
          "time": 524.1661425000217,
          "velocity": 1,
          "duration": 0.16666650000001937
        },
        {
          "name": "F#5",
          "midi": 78,
          "time": 524.2494757500217,
          "velocity": 1,
          "duration": 0.08333325000000968
        },
        {
          "name": "F#4",
          "midi": 66,
          "time": 524.2494757500217,
          "velocity": 1,
          "duration": 0.08333325000000968
        },
        {
          "name": "E3",
          "midi": 52,
          "time": 524.3328090000217,
          "velocity": 1,
          "duration": 0.16666650000001937
        },
        {
          "name": "G5",
          "midi": 79,
          "time": 524.3328090000217,
          "velocity": 1,
          "duration": 0.08333325000000968
        },
        {
          "name": "G4",
          "midi": 67,
          "time": 524.3328090000217,
          "velocity": 1,
          "duration": 0.08333325000000968
        },
        {
          "name": "G5",
          "midi": 79,
          "time": 524.4161422500217,
          "velocity": 1,
          "duration": 0.08333325000000968
        },
        {
          "name": "G4",
          "midi": 67,
          "time": 524.4161422500217,
          "velocity": 1,
          "duration": 0.08333325000000968
        },
        {
          "name": "F3",
          "midi": 53,
          "time": 524.4994755000217,
          "velocity": 1,
          "duration": 0.16666650000001937
        },
        {
          "name": "D5",
          "midi": 74,
          "time": 524.4994755000217,
          "velocity": 1,
          "duration": 0.08333325000000968
        },
        {
          "name": "D4",
          "midi": 62,
          "time": 524.4994755000217,
          "velocity": 1,
          "duration": 0.08333325000000968
        },
        {
          "name": "G#3",
          "midi": 56,
          "time": 524.4994755000217,
          "velocity": 1,
          "duration": 0.08333325000000968
        },
        {
          "name": "G#3",
          "midi": 56,
          "time": 524.5828087500217,
          "velocity": 1,
          "duration": 0.08333325000000968
        },
        {
          "name": "D4",
          "midi": 62,
          "time": 524.5828087500217,
          "velocity": 1,
          "duration": 0.08333325000000968
        },
        {
          "name": "D5",
          "midi": 74,
          "time": 524.5828087500217,
          "velocity": 1,
          "duration": 0.08333325000000968
        },
        {
          "name": "F#3",
          "midi": 54,
          "time": 524.6661420000218,
          "velocity": 1,
          "duration": 0.16666650000001937
        },
        {
          "name": "D#5",
          "midi": 75,
          "time": 524.6661420000218,
          "velocity": 1,
          "duration": 0.08333325000000968
        },
        {
          "name": "D#4",
          "midi": 63,
          "time": 524.6661420000218,
          "velocity": 1,
          "duration": 0.08333325000000968
        },
        {
          "name": "A#3",
          "midi": 58,
          "time": 524.6661420000218,
          "velocity": 1,
          "duration": 0.08333325000000968
        },
        {
          "name": "D#5",
          "midi": 75,
          "time": 524.7494752500218,
          "velocity": 1,
          "duration": 0.08333325000000968
        },
        {
          "name": "D#4",
          "midi": 63,
          "time": 524.7494752500218,
          "velocity": 1,
          "duration": 0.08333325000000968
        },
        {
          "name": "A#3",
          "midi": 58,
          "time": 524.7494752500218,
          "velocity": 1,
          "duration": 0.08333325000000968
        },
        {
          "name": "G3",
          "midi": 55,
          "time": 524.8328085000218,
          "velocity": 1,
          "duration": 0.16666650000001937
        },
        {
          "name": "C#5",
          "midi": 73,
          "time": 524.8328085000218,
          "velocity": 1,
          "duration": 0.08333325000000968
        },
        {
          "name": "C#4",
          "midi": 61,
          "time": 524.8328085000218,
          "velocity": 1,
          "duration": 0.08333325000000968
        },
        {
          "name": "A#3",
          "midi": 58,
          "time": 524.8328085000218,
          "velocity": 1,
          "duration": 0.08333325000000968
        },
        {
          "name": "A#3",
          "midi": 58,
          "time": 524.9161417500218,
          "velocity": 1,
          "duration": 0.08333325000000968
        },
        {
          "name": "C#4",
          "midi": 61,
          "time": 524.9161417500218,
          "velocity": 1,
          "duration": 0.08333325000000968
        },
        {
          "name": "C#5",
          "midi": 73,
          "time": 524.9161417500218,
          "velocity": 1,
          "duration": 0.08333325000000968
        },
        {
          "name": "G#3",
          "midi": 56,
          "time": 524.9994750000218,
          "velocity": 1,
          "duration": 0.16666650000001937
        },
        {
          "name": "C5",
          "midi": 72,
          "time": 524.9994750000218,
          "velocity": 1,
          "duration": 0.08333325000000968
        },
        {
          "name": "C4",
          "midi": 60,
          "time": 524.9994750000218,
          "velocity": 1,
          "duration": 0.08333325000000968
        },
        {
          "name": "D#3",
          "midi": 51,
          "time": 524.9994750000218,
          "velocity": 1,
          "duration": 0.08333325000000968
        },
        {
          "name": "C5",
          "midi": 72,
          "time": 525.0828082500218,
          "velocity": 1,
          "duration": 0.08333325000000968
        },
        {
          "name": "C4",
          "midi": 60,
          "time": 525.0828082500218,
          "velocity": 1,
          "duration": 0.08333325000000968
        },
        {
          "name": "D#3",
          "midi": 51,
          "time": 525.0828082500218,
          "velocity": 1,
          "duration": 0.08333325000000968
        },
        {
          "name": "G3",
          "midi": 55,
          "time": 525.1661415000218,
          "velocity": 1,
          "duration": 0.16666650000001937
        },
        {
          "name": "E5",
          "midi": 76,
          "time": 525.1661415000218,
          "velocity": 1,
          "duration": 0.08333325000000968
        },
        {
          "name": "E4",
          "midi": 64,
          "time": 525.1661415000218,
          "velocity": 1,
          "duration": 0.08333325000000968
        },
        {
          "name": "A#3",
          "midi": 58,
          "time": 525.1661415000218,
          "velocity": 1,
          "duration": 0.08333325000000968
        },
        {
          "name": "A#3",
          "midi": 58,
          "time": 525.2494747500218,
          "velocity": 1,
          "duration": 0.08333325000000968
        },
        {
          "name": "E4",
          "midi": 64,
          "time": 525.2494747500218,
          "velocity": 1,
          "duration": 0.08333325000000968
        },
        {
          "name": "E5",
          "midi": 76,
          "time": 525.2494747500218,
          "velocity": 1,
          "duration": 0.08333325000000968
        },
        {
          "name": "F3",
          "midi": 53,
          "time": 525.3328080000218,
          "velocity": 1,
          "duration": 0.16666650000001937
        },
        {
          "name": "F5",
          "midi": 77,
          "time": 525.3328080000218,
          "velocity": 1,
          "duration": 0.08333325000000968
        },
        {
          "name": "F4",
          "midi": 65,
          "time": 525.3328080000218,
          "velocity": 1,
          "duration": 0.08333325000000968
        },
        {
          "name": "G#3",
          "midi": 56,
          "time": 525.3328080000218,
          "velocity": 1,
          "duration": 0.08333325000000968
        },
        {
          "name": "F5",
          "midi": 77,
          "time": 525.4161412500218,
          "velocity": 1,
          "duration": 0.08333325000000968
        },
        {
          "name": "F4",
          "midi": 65,
          "time": 525.4161412500218,
          "velocity": 1,
          "duration": 0.08333325000000968
        },
        {
          "name": "G#3",
          "midi": 56,
          "time": 525.4161412500218,
          "velocity": 1,
          "duration": 0.08333325000000968
        },
        {
          "name": "A3",
          "midi": 57,
          "time": 525.4994745000218,
          "velocity": 1,
          "duration": 0.16666650000001937
        },
        {
          "name": "D#5",
          "midi": 75,
          "time": 525.4994745000218,
          "velocity": 1,
          "duration": 0.08333325000000968
        },
        {
          "name": "D#4",
          "midi": 63,
          "time": 525.4994745000218,
          "velocity": 1,
          "duration": 0.08333325000000968
        },
        {
          "name": "C4",
          "midi": 60,
          "time": 525.4994745000218,
          "velocity": 1,
          "duration": 0.08333325000000968
        },
        {
          "name": "C4",
          "midi": 60,
          "time": 525.5828077500219,
          "velocity": 1,
          "duration": 0.08333325000000968
        },
        {
          "name": "D#4",
          "midi": 63,
          "time": 525.5828077500219,
          "velocity": 1,
          "duration": 0.08333325000000968
        },
        {
          "name": "D#5",
          "midi": 75,
          "time": 525.5828077500219,
          "velocity": 1,
          "duration": 0.08333325000000968
        },
        {
          "name": "A#3",
          "midi": 58,
          "time": 525.6661410000219,
          "velocity": 1,
          "duration": 0.16666650000001937
        },
        {
          "name": "D5",
          "midi": 74,
          "time": 525.6661410000219,
          "velocity": 1,
          "duration": 0.08333325000000968
        },
        {
          "name": "D4",
          "midi": 62,
          "time": 525.6661410000219,
          "velocity": 1,
          "duration": 0.08333325000000968
        },
        {
          "name": "F3",
          "midi": 53,
          "time": 525.6661410000219,
          "velocity": 1,
          "duration": 0.08333325000000968
        },
        {
          "name": "D5",
          "midi": 74,
          "time": 525.7494742500219,
          "velocity": 1,
          "duration": 0.08333325000000968
        },
        {
          "name": "D4",
          "midi": 62,
          "time": 525.7494742500219,
          "velocity": 1,
          "duration": 0.08333325000000968
        },
        {
          "name": "F3",
          "midi": 53,
          "time": 525.7494742500219,
          "velocity": 1,
          "duration": 0.08333325000000968
        },
        {
          "name": "G#3",
          "midi": 56,
          "time": 525.8328075000219,
          "velocity": 1,
          "duration": 0.16666650000001937
        },
        {
          "name": "F#5",
          "midi": 78,
          "time": 525.8328075000219,
          "velocity": 1,
          "duration": 0.08333325000000968
        },
        {
          "name": "F#4",
          "midi": 66,
          "time": 525.8328075000219,
          "velocity": 1,
          "duration": 0.08333325000000968
        },
        {
          "name": "C4",
          "midi": 60,
          "time": 525.8328075000219,
          "velocity": 1,
          "duration": 0.08333325000000968
        },
        {
          "name": "C4",
          "midi": 60,
          "time": 525.9161407500219,
          "velocity": 1,
          "duration": 0.08333325000000968
        },
        {
          "name": "F#4",
          "midi": 66,
          "time": 525.9161407500219,
          "velocity": 1,
          "duration": 0.08333325000000968
        },
        {
          "name": "F#5",
          "midi": 78,
          "time": 525.9161407500219,
          "velocity": 1,
          "duration": 0.08333325000000968
        },
        {
          "name": "G3",
          "midi": 55,
          "time": 525.9994740000219,
          "velocity": 1,
          "duration": 0.16666650000001937
        },
        {
          "name": "G5",
          "midi": 79,
          "time": 525.9994740000219,
          "velocity": 1,
          "duration": 0.08333325000000968
        },
        {
          "name": "G4",
          "midi": 67,
          "time": 525.9994740000219,
          "velocity": 1,
          "duration": 0.08333325000000968
        },
        {
          "name": "B3",
          "midi": 59,
          "time": 525.9994740000219,
          "velocity": 1,
          "duration": 0.08333325000000968
        },
        {
          "name": "G5",
          "midi": 79,
          "time": 526.0828072500219,
          "velocity": 1,
          "duration": 0.08333325000000968
        },
        {
          "name": "G4",
          "midi": 67,
          "time": 526.0828072500219,
          "velocity": 1,
          "duration": 0.08333325000000968
        },
        {
          "name": "B3",
          "midi": 59,
          "time": 526.0828072500219,
          "velocity": 1,
          "duration": 0.08333325000000968
        },
        {
          "name": "B2",
          "midi": 47,
          "time": 526.1661405000219,
          "velocity": 1,
          "duration": 0.16666650000001937
        },
        {
          "name": "F5",
          "midi": 77,
          "time": 526.1661405000219,
          "velocity": 1,
          "duration": 0.08333325000000968
        },
        {
          "name": "F4",
          "midi": 65,
          "time": 526.1661405000219,
          "velocity": 1,
          "duration": 0.08333325000000968
        },
        {
          "name": "D4",
          "midi": 62,
          "time": 526.1661405000219,
          "velocity": 1,
          "duration": 0.08333325000000968
        },
        {
          "name": "D4",
          "midi": 62,
          "time": 526.2494737500219,
          "velocity": 1,
          "duration": 0.08333325000000968
        },
        {
          "name": "F4",
          "midi": 65,
          "time": 526.2494737500219,
          "velocity": 1,
          "duration": 0.08333325000000968
        },
        {
          "name": "F5",
          "midi": 77,
          "time": 526.2494737500219,
          "velocity": 1,
          "duration": 0.08333325000000968
        },
        {
          "name": "C3",
          "midi": 48,
          "time": 526.332807000022,
          "velocity": 1,
          "duration": 0.16666650000001937
        },
        {
          "name": "D#5",
          "midi": 75,
          "time": 526.332807000022,
          "velocity": 1,
          "duration": 0.08333325000000968
        },
        {
          "name": "D#4",
          "midi": 63,
          "time": 526.332807000022,
          "velocity": 1,
          "duration": 0.08333325000000968
        },
        {
          "name": "G3",
          "midi": 55,
          "time": 526.332807000022,
          "velocity": 1,
          "duration": 0.08333325000000968
        },
        {
          "name": "D#5",
          "midi": 75,
          "time": 526.416140250022,
          "velocity": 1,
          "duration": 0.08333325000000968
        },
        {
          "name": "D#4",
          "midi": 63,
          "time": 526.416140250022,
          "velocity": 1,
          "duration": 0.08333325000000968
        },
        {
          "name": "G3",
          "midi": 55,
          "time": 526.416140250022,
          "velocity": 1,
          "duration": 0.08333325000000968
        },
        {
          "name": "A#2",
          "midi": 46,
          "time": 526.499473500022,
          "velocity": 1,
          "duration": 0.16666650000001937
        },
        {
          "name": "G5",
          "midi": 79,
          "time": 526.499473500022,
          "velocity": 1,
          "duration": 0.08333325000000968
        },
        {
          "name": "G4",
          "midi": 67,
          "time": 526.499473500022,
          "velocity": 1,
          "duration": 0.08333325000000968
        },
        {
          "name": "C#4",
          "midi": 61,
          "time": 526.499473500022,
          "velocity": 1,
          "duration": 0.08333325000000968
        },
        {
          "name": "C#4",
          "midi": 61,
          "time": 526.582806750022,
          "velocity": 1,
          "duration": 0.08333325000000968
        },
        {
          "name": "G4",
          "midi": 67,
          "time": 526.582806750022,
          "velocity": 1,
          "duration": 0.08333325000000968
        },
        {
          "name": "G5",
          "midi": 79,
          "time": 526.582806750022,
          "velocity": 1,
          "duration": 0.08333325000000968
        },
        {
          "name": "G#2",
          "midi": 44,
          "time": 526.666140000022,
          "velocity": 1,
          "duration": 0.16666650000001937
        },
        {
          "name": "G#5",
          "midi": 80,
          "time": 526.666140000022,
          "velocity": 1,
          "duration": 0.08333325000000968
        },
        {
          "name": "G#4",
          "midi": 68,
          "time": 526.666140000022,
          "velocity": 1,
          "duration": 0.08333325000000968
        },
        {
          "name": "C4",
          "midi": 60,
          "time": 526.666140000022,
          "velocity": 1,
          "duration": 0.08333325000000968
        },
        {
          "name": "G#5",
          "midi": 80,
          "time": 526.749473250022,
          "velocity": 1,
          "duration": 0.08333325000000968
        },
        {
          "name": "G#4",
          "midi": 68,
          "time": 526.749473250022,
          "velocity": 1,
          "duration": 0.08333325000000968
        },
        {
          "name": "C4",
          "midi": 60,
          "time": 526.749473250022,
          "velocity": 1,
          "duration": 0.08333325000000968
        },
        {
          "name": "D#4",
          "midi": 63,
          "time": 526.832806500022,
          "velocity": 1,
          "duration": 0.08333325000000968
        },
        {
          "name": "G4",
          "midi": 67,
          "time": 526.832806500022,
          "velocity": 1,
          "duration": 0.08333325000000968
        },
        {
          "name": "G5",
          "midi": 79,
          "time": 526.832806500022,
          "velocity": 1,
          "duration": 0.08333325000000968
        },
        {
          "name": "C3",
          "midi": 48,
          "time": 526.832806500022,
          "velocity": 1,
          "duration": 0.16666650000001937
        },
        {
          "name": "G5",
          "midi": 79,
          "time": 526.916139750022,
          "velocity": 1,
          "duration": 0.08333325000000968
        },
        {
          "name": "G4",
          "midi": 67,
          "time": 526.916139750022,
          "velocity": 1,
          "duration": 0.08333325000000968
        },
        {
          "name": "D#4",
          "midi": 63,
          "time": 526.916139750022,
          "velocity": 1,
          "duration": 0.08333325000000968
        },
        {
          "name": "G#3",
          "midi": 56,
          "time": 526.999473000022,
          "velocity": 1,
          "duration": 0.08333325000000968
        },
        {
          "name": "F4",
          "midi": 65,
          "time": 526.999473000022,
          "velocity": 1,
          "duration": 0.08333325000000968
        },
        {
          "name": "F5",
          "midi": 77,
          "time": 526.999473000022,
          "velocity": 1,
          "duration": 0.08333325000000968
        },
        {
          "name": "D3",
          "midi": 50,
          "time": 526.999473000022,
          "velocity": 1,
          "duration": 0.16666650000001937
        },
        {
          "name": "F5",
          "midi": 77,
          "time": 527.082806250022,
          "velocity": 1,
          "duration": 0.08333325000000968
        },
        {
          "name": "F4",
          "midi": 65,
          "time": 527.082806250022,
          "velocity": 1,
          "duration": 0.08333325000000968
        },
        {
          "name": "G#3",
          "midi": 56,
          "time": 527.082806250022,
          "velocity": 1,
          "duration": 0.08333325000000968
        },
        {
          "name": "C3",
          "midi": 48,
          "time": 527.166139500022,
          "velocity": 1,
          "duration": 0.16666650000001937
        },
        {
          "name": "A5",
          "midi": 81,
          "time": 527.166139500022,
          "velocity": 1,
          "duration": 0.08333325000000968
        },
        {
          "name": "A4",
          "midi": 69,
          "time": 527.166139500022,
          "velocity": 1,
          "duration": 0.08333325000000968
        },
        {
          "name": "D#4",
          "midi": 63,
          "time": 527.166139500022,
          "velocity": 1,
          "duration": 0.08333325000000968
        },
        {
          "name": "A5",
          "midi": 81,
          "time": 527.249472750022,
          "velocity": 1,
          "duration": 0.08333325000000968
        },
        {
          "name": "A4",
          "midi": 69,
          "time": 527.249472750022,
          "velocity": 1,
          "duration": 0.08333325000000968
        },
        {
          "name": "D#4",
          "midi": 63,
          "time": 527.249472750022,
          "velocity": 1,
          "duration": 0.08333325000000968
        },
        {
          "name": "D4",
          "midi": 62,
          "time": 527.3328060000221,
          "velocity": 1,
          "duration": 0.08333325000000968
        },
        {
          "name": "A#4",
          "midi": 70,
          "time": 527.3328060000221,
          "velocity": 1,
          "duration": 0.08333325000000968
        },
        {
          "name": "A#5",
          "midi": 82,
          "time": 527.3328060000221,
          "velocity": 1,
          "duration": 0.08333325000000968
        },
        {
          "name": "A#2",
          "midi": 46,
          "time": 527.3328060000221,
          "velocity": 1,
          "duration": 0.16666650000001937
        },
        {
          "name": "A#5",
          "midi": 82,
          "time": 527.4161392500221,
          "velocity": 1,
          "duration": 0.08333325000000968
        },
        {
          "name": "A#4",
          "midi": 70,
          "time": 527.4161392500221,
          "velocity": 1,
          "duration": 0.08333325000000968
        },
        {
          "name": "D4",
          "midi": 62,
          "time": 527.4161392500221,
          "velocity": 1,
          "duration": 0.08333325000000968
        },
        {
          "name": "D3",
          "midi": 50,
          "time": 527.4994725000221,
          "velocity": 1,
          "duration": 0.16666650000001937
        },
        {
          "name": "G#5",
          "midi": 80,
          "time": 527.4994725000221,
          "velocity": 1,
          "duration": 0.08333325000000968
        },
        {
          "name": "G#4",
          "midi": 68,
          "time": 527.4994725000221,
          "velocity": 1,
          "duration": 0.08333325000000968
        },
        {
          "name": "F4",
          "midi": 65,
          "time": 527.4994725000221,
          "velocity": 1,
          "duration": 0.08333325000000968
        },
        {
          "name": "G#5",
          "midi": 80,
          "time": 527.5828057500221,
          "velocity": 1,
          "duration": 0.08333325000000968
        },
        {
          "name": "G#4",
          "midi": 68,
          "time": 527.5828057500221,
          "velocity": 1,
          "duration": 0.08333325000000968
        },
        {
          "name": "F4",
          "midi": 65,
          "time": 527.5828057500221,
          "velocity": 1,
          "duration": 0.08333325000000968
        },
        {
          "name": "A#3",
          "midi": 58,
          "time": 527.6661390000221,
          "velocity": 1,
          "duration": 0.08333325000000968
        },
        {
          "name": "G4",
          "midi": 67,
          "time": 527.6661390000221,
          "velocity": 1,
          "duration": 0.08333325000000968
        },
        {
          "name": "G5",
          "midi": 79,
          "time": 527.6661390000221,
          "velocity": 1,
          "duration": 0.08333325000000968
        },
        {
          "name": "D#3",
          "midi": 51,
          "time": 527.6661390000221,
          "velocity": 1,
          "duration": 0.16666650000001937
        },
        {
          "name": "G5",
          "midi": 79,
          "time": 527.7494722500221,
          "velocity": 1,
          "duration": 0.08333325000000968
        },
        {
          "name": "G4",
          "midi": 67,
          "time": 527.7494722500221,
          "velocity": 1,
          "duration": 0.08333325000000968
        },
        {
          "name": "A#3",
          "midi": 58,
          "time": 527.7494722500221,
          "velocity": 1,
          "duration": 0.08333325000000968
        },
        {
          "name": "D3",
          "midi": 50,
          "time": 527.8328055000221,
          "velocity": 1,
          "duration": 0.16666650000001937
        },
        {
          "name": "B5",
          "midi": 83,
          "time": 527.8328055000221,
          "velocity": 1,
          "duration": 0.08333325000000968
        },
        {
          "name": "B4",
          "midi": 71,
          "time": 527.8328055000221,
          "velocity": 1,
          "duration": 0.08333325000000968
        },
        {
          "name": "F4",
          "midi": 65,
          "time": 527.8328055000221,
          "velocity": 1,
          "duration": 0.08333325000000968
        },
        {
          "name": "B5",
          "midi": 83,
          "time": 527.9161387500221,
          "velocity": 1,
          "duration": 0.08333325000000968
        },
        {
          "name": "B4",
          "midi": 71,
          "time": 527.9161387500221,
          "velocity": 1,
          "duration": 0.08333325000000968
        },
        {
          "name": "F4",
          "midi": 65,
          "time": 527.9161387500221,
          "velocity": 1,
          "duration": 0.08333325000000968
        },
        {
          "name": "D#4",
          "midi": 63,
          "time": 527.9994720000221,
          "velocity": 1,
          "duration": 0.08333325000000968
        },
        {
          "name": "C5",
          "midi": 72,
          "time": 527.9994720000221,
          "velocity": 1,
          "duration": 0.08333325000000968
        },
        {
          "name": "C6",
          "midi": 84,
          "time": 527.9994720000221,
          "velocity": 1,
          "duration": 0.08333325000000968
        },
        {
          "name": "C3",
          "midi": 48,
          "time": 527.9994720000221,
          "velocity": 1,
          "duration": 0.16666650000001937
        },
        {
          "name": "C6",
          "midi": 84,
          "time": 528.0828052500221,
          "velocity": 1,
          "duration": 0.08333325000000968
        },
        {
          "name": "C5",
          "midi": 72,
          "time": 528.0828052500221,
          "velocity": 1,
          "duration": 0.08333325000000968
        },
        {
          "name": "G4",
          "midi": 67,
          "time": 528.0828052500221,
          "velocity": 1,
          "duration": 0.08333325000000968
        },
        {
          "name": "B3",
          "midi": 59,
          "time": 528.1661385000222,
          "velocity": 1,
          "duration": 0.16666650000001937
        },
        {
          "name": "D6",
          "midi": 86,
          "time": 528.1661385000222,
          "velocity": 1,
          "duration": 0.08333325000000968
        },
        {
          "name": "D5",
          "midi": 74,
          "time": 528.1661385000222,
          "velocity": 1,
          "duration": 0.08333325000000968
        },
        {
          "name": "G4",
          "midi": 67,
          "time": 528.1661385000222,
          "velocity": 1,
          "duration": 0.08333325000000968
        },
        {
          "name": "D6",
          "midi": 86,
          "time": 528.2494717500222,
          "velocity": 1,
          "duration": 0.08333325000000968
        },
        {
          "name": "D5",
          "midi": 74,
          "time": 528.2494717500222,
          "velocity": 1,
          "duration": 0.08333325000000968
        },
        {
          "name": "G4",
          "midi": 67,
          "time": 528.2494717500222,
          "velocity": 1,
          "duration": 0.08333325000000968
        },
        {
          "name": "G4",
          "midi": 67,
          "time": 528.3328050000222,
          "velocity": 1,
          "duration": 0.08333325000000968
        },
        {
          "name": "D#5",
          "midi": 75,
          "time": 528.3328050000222,
          "velocity": 1,
          "duration": 0.08333325000000968
        },
        {
          "name": "D#6",
          "midi": 87,
          "time": 528.3328050000222,
          "velocity": 1,
          "duration": 0.08333325000000968
        },
        {
          "name": "C4",
          "midi": 60,
          "time": 528.3328050000222,
          "velocity": 1,
          "duration": 0.16666650000001937
        },
        {
          "name": "D#6",
          "midi": 87,
          "time": 528.4161382500222,
          "velocity": 1,
          "duration": 0.08333325000000968
        },
        {
          "name": "D#5",
          "midi": 75,
          "time": 528.4161382500222,
          "velocity": 1,
          "duration": 0.08333325000000968
        },
        {
          "name": "C5",
          "midi": 72,
          "time": 528.4161382500222,
          "velocity": 1,
          "duration": 0.08333325000000968
        },
        {
          "name": "A#3",
          "midi": 58,
          "time": 528.4994715000222,
          "velocity": 1,
          "duration": 0.16666650000001937
        },
        {
          "name": "E6",
          "midi": 88,
          "time": 528.4994715000222,
          "velocity": 1,
          "duration": 0.08333325000000968
        },
        {
          "name": "E5",
          "midi": 76,
          "time": 528.4994715000222,
          "velocity": 1,
          "duration": 0.08333325000000968
        },
        {
          "name": "C5",
          "midi": 72,
          "time": 528.4994715000222,
          "velocity": 1,
          "duration": 0.08333325000000968
        },
        {
          "name": "E6",
          "midi": 88,
          "time": 528.5828047500222,
          "velocity": 1,
          "duration": 0.08333325000000968
        },
        {
          "name": "E5",
          "midi": 76,
          "time": 528.5828047500222,
          "velocity": 1,
          "duration": 0.08333325000000968
        },
        {
          "name": "C5",
          "midi": 72,
          "time": 528.5828047500222,
          "velocity": 1,
          "duration": 0.08333325000000968
        },
        {
          "name": "C5",
          "midi": 72,
          "time": 528.6661380000222,
          "velocity": 1,
          "duration": 0.08333325000000968
        },
        {
          "name": "F5",
          "midi": 77,
          "time": 528.6661380000222,
          "velocity": 1,
          "duration": 0.08333325000000968
        },
        {
          "name": "F6",
          "midi": 89,
          "time": 528.6661380000222,
          "velocity": 1,
          "duration": 0.08333325000000968
        },
        {
          "name": "A3",
          "midi": 57,
          "time": 528.6661380000222,
          "velocity": 1,
          "duration": 0.16666650000001937
        },
        {
          "name": "F6",
          "midi": 89,
          "time": 528.7494712500222,
          "velocity": 1,
          "duration": 0.08333325000000968
        },
        {
          "name": "F5",
          "midi": 77,
          "time": 528.7494712500222,
          "velocity": 1,
          "duration": 0.08333325000000968
        },
        {
          "name": "C5",
          "midi": 72,
          "time": 528.7494712500222,
          "velocity": 1,
          "duration": 0.08333325000000968
        },
        {
          "name": "G#3",
          "midi": 56,
          "time": 528.8328045000222,
          "velocity": 1,
          "duration": 0.16666650000001937
        },
        {
          "name": "F#6",
          "midi": 90,
          "time": 528.8328045000222,
          "velocity": 1,
          "duration": 0.08333325000000968
        },
        {
          "name": "F#5",
          "midi": 78,
          "time": 528.8328045000222,
          "velocity": 1,
          "duration": 0.08333325000000968
        },
        {
          "name": "C5",
          "midi": 72,
          "time": 528.8328045000222,
          "velocity": 1,
          "duration": 0.08333325000000968
        },
        {
          "name": "F#6",
          "midi": 90,
          "time": 528.9161377500222,
          "velocity": 1,
          "duration": 0.08333325000000968
        },
        {
          "name": "F#5",
          "midi": 78,
          "time": 528.9161377500222,
          "velocity": 1,
          "duration": 0.08333325000000968
        },
        {
          "name": "C5",
          "midi": 72,
          "time": 528.9161377500222,
          "velocity": 1,
          "duration": 0.08333325000000968
        },
        {
          "name": "B4",
          "midi": 71,
          "time": 528.9994710000223,
          "velocity": 1,
          "duration": 0.33333300000003874
        },
        {
          "name": "G5",
          "midi": 79,
          "time": 528.9994710000223,
          "velocity": 1,
          "duration": 0.33333300000003874
        },
        {
          "name": "G6",
          "midi": 91,
          "time": 528.9994710000223,
          "velocity": 1,
          "duration": 0.33333300000003874
        },
        {
          "name": "G3",
          "midi": 55,
          "time": 528.9994710000223,
          "velocity": 1,
          "duration": 0.33333300000003874
        },
        {
          "name": "B3",
          "midi": 59,
          "time": 529.3328040000223,
          "velocity": 1,
          "duration": 0.33333300000003874
        },
        {
          "name": "D6",
          "midi": 86,
          "time": 529.3328040000223,
          "velocity": 1,
          "duration": 0.33333300000003874
        },
        {
          "name": "F5",
          "midi": 77,
          "time": 529.3328040000223,
          "velocity": 1,
          "duration": 0.33333300000003874
        },
        {
          "name": "G4",
          "midi": 67,
          "time": 529.3328040000223,
          "velocity": 1,
          "duration": 0.33333300000003874
        },
        {
          "name": "G3",
          "midi": 55,
          "time": 529.3328040000223,
          "velocity": 1,
          "duration": 0.33333300000003874
        },
        {
          "name": "G3",
          "midi": 55,
          "time": 529.6661370000223,
          "velocity": 1,
          "duration": 0.33333300000003874
        },
        {
          "name": "G4",
          "midi": 67,
          "time": 529.6661370000223,
          "velocity": 1,
          "duration": 0.33333300000003874
        },
        {
          "name": "D#5",
          "midi": 75,
          "time": 529.6661370000223,
          "velocity": 1,
          "duration": 0.33333300000003874
        },
        {
          "name": "C6",
          "midi": 84,
          "time": 529.6661370000223,
          "velocity": 1,
          "duration": 0.33333300000003874
        },
        {
          "name": "C4",
          "midi": 60,
          "time": 529.6661370000223,
          "velocity": 1,
          "duration": 0.33333300000003874
        },
        {
          "name": "G3",
          "midi": 55,
          "time": 530.3328030000224,
          "velocity": 1,
          "duration": 0.33333300000003874
        },
        {
          "name": "D#4",
          "midi": 63,
          "time": 530.3328030000224,
          "velocity": 1,
          "duration": 0.33333300000003874
        },
        {
          "name": "C#5",
          "midi": 73,
          "time": 530.3328030000224,
          "velocity": 1,
          "duration": 0.33333300000003874
        },
        {
          "name": "A#5",
          "midi": 82,
          "time": 530.3328030000224,
          "velocity": 1,
          "duration": 0.33333300000003874
        },
        {
          "name": "G#3",
          "midi": 56,
          "time": 530.6661360000224,
          "velocity": 1,
          "duration": 0.33333300000003874
        },
        {
          "name": "D#4",
          "midi": 63,
          "time": 530.6661360000224,
          "velocity": 1,
          "duration": 0.33333300000003874
        },
        {
          "name": "C5",
          "midi": 72,
          "time": 530.6661360000224,
          "velocity": 1,
          "duration": 0.33333300000003874
        },
        {
          "name": "G#5",
          "midi": 80,
          "time": 530.6661360000224,
          "velocity": 1,
          "duration": 0.33333300000003874
        },
        {
          "name": "A3",
          "midi": 57,
          "time": 531.3328020000225,
          "velocity": 1,
          "duration": 0.33333300000003874
        },
        {
          "name": "F4",
          "midi": 65,
          "time": 531.3328020000225,
          "velocity": 1,
          "duration": 0.33333300000003874
        },
        {
          "name": "D#5",
          "midi": 75,
          "time": 531.3328020000225,
          "velocity": 1,
          "duration": 0.33333300000003874
        },
        {
          "name": "C6",
          "midi": 84,
          "time": 531.3328020000225,
          "velocity": 1,
          "duration": 0.33333300000003874
        },
        {
          "name": "A#3",
          "midi": 58,
          "time": 531.6661350000226,
          "velocity": 1,
          "duration": 0.33333300000003874
        },
        {
          "name": "F4",
          "midi": 65,
          "time": 531.6661350000226,
          "velocity": 1,
          "duration": 0.33333300000003874
        },
        {
          "name": "D5",
          "midi": 74,
          "time": 531.6661350000226,
          "velocity": 1,
          "duration": 0.33333300000003874
        },
        {
          "name": "A#5",
          "midi": 82,
          "time": 531.6661350000226,
          "velocity": 1,
          "duration": 0.33333300000003874
        },
        {
          "name": "G3",
          "midi": 55,
          "time": 532.3328010000226,
          "velocity": 1,
          "duration": 0.33333300000003874
        },
        {
          "name": "G4",
          "midi": 67,
          "time": 532.3328010000226,
          "velocity": 1,
          "duration": 0.33333300000003874
        },
        {
          "name": "F5",
          "midi": 77,
          "time": 532.3328010000226,
          "velocity": 1,
          "duration": 0.33333300000003874
        },
        {
          "name": "D6",
          "midi": 86,
          "time": 532.3328010000226,
          "velocity": 1,
          "duration": 0.33333300000003874
        },
        {
          "name": "B3",
          "midi": 59,
          "time": 532.3328010000226,
          "velocity": 1,
          "duration": 0.33333300000003874
        },
        {
          "name": "G3",
          "midi": 55,
          "time": 532.6661340000227,
          "velocity": 1,
          "duration": 0.33333300000003874
        },
        {
          "name": "G4",
          "midi": 67,
          "time": 532.6661340000227,
          "velocity": 1,
          "duration": 0.33333300000003874
        },
        {
          "name": "D#5",
          "midi": 75,
          "time": 532.6661340000227,
          "velocity": 1,
          "duration": 0.33333300000003874
        },
        {
          "name": "C6",
          "midi": 84,
          "time": 532.6661340000227,
          "velocity": 1,
          "duration": 0.33333300000003874
        },
        {
          "name": "C4",
          "midi": 60,
          "time": 532.6661340000227,
          "velocity": 1,
          "duration": 0.33333300000003874
        },
        {
          "name": "G4",
          "midi": 67,
          "time": 533.3328000000228,
          "velocity": 1,
          "duration": 0.33333300000003874
        },
        {
          "name": "G3",
          "midi": 55,
          "time": 533.3328000000228,
          "velocity": 1,
          "duration": 0.33333300000003874
        },
        {
          "name": "D#4",
          "midi": 63,
          "time": 533.3328000000228,
          "velocity": 1,
          "duration": 0.33333300000003874
        },
        {
          "name": "C#5",
          "midi": 73,
          "time": 533.3328000000228,
          "velocity": 1,
          "duration": 0.33333300000003874
        },
        {
          "name": "A#5",
          "midi": 82,
          "time": 533.3328000000228,
          "velocity": 1,
          "duration": 0.33333300000003874
        },
        {
          "name": "G#4",
          "midi": 68,
          "time": 533.6661330000228,
          "velocity": 1,
          "duration": 0.33333300000003874
        },
        {
          "name": "G#3",
          "midi": 56,
          "time": 533.6661330000228,
          "velocity": 1,
          "duration": 0.33333300000003874
        },
        {
          "name": "D#4",
          "midi": 63,
          "time": 533.6661330000228,
          "velocity": 1,
          "duration": 0.33333300000003874
        },
        {
          "name": "C5",
          "midi": 72,
          "time": 533.6661330000228,
          "velocity": 1,
          "duration": 0.33333300000003874
        },
        {
          "name": "G#5",
          "midi": 80,
          "time": 533.6661330000228,
          "velocity": 1,
          "duration": 0.33333300000003874
        },
        {
          "name": "A4",
          "midi": 69,
          "time": 534.3327990000229,
          "velocity": 1,
          "duration": 0.33333300000003874
        },
        {
          "name": "A3",
          "midi": 57,
          "time": 534.3327990000229,
          "velocity": 1,
          "duration": 0.33333300000003874
        },
        {
          "name": "F#4",
          "midi": 66,
          "time": 534.3327990000229,
          "velocity": 1,
          "duration": 0.33333300000003874
        },
        {
          "name": "D#5",
          "midi": 75,
          "time": 534.3327990000229,
          "velocity": 1,
          "duration": 0.33333300000003874
        },
        {
          "name": "C6",
          "midi": 84,
          "time": 534.3327990000229,
          "velocity": 1,
          "duration": 0.33333300000003874
        },
        {
          "name": "A4",
          "midi": 69,
          "time": 534.999465000023,
          "velocity": 1,
          "duration": 0.33333300000003874
        },
        {
          "name": "A3",
          "midi": 57,
          "time": 534.999465000023,
          "velocity": 1,
          "duration": 0.33333300000003874
        },
        {
          "name": "F#4",
          "midi": 66,
          "time": 534.999465000023,
          "velocity": 1,
          "duration": 0.33333300000003874
        },
        {
          "name": "D#5",
          "midi": 75,
          "time": 534.999465000023,
          "velocity": 1,
          "duration": 0.33333300000003874
        },
        {
          "name": "C6",
          "midi": 84,
          "time": 534.999465000023,
          "velocity": 1,
          "duration": 0.33333300000003874
        },
        {
          "name": "A2",
          "midi": 45,
          "time": 534.999465000023,
          "velocity": 1,
          "duration": 0.33333300000003874
        },
        {
          "name": "A4",
          "midi": 69,
          "time": 535.666131000023,
          "velocity": 1,
          "duration": 0.33333300000003874
        },
        {
          "name": "A3",
          "midi": 57,
          "time": 535.666131000023,
          "velocity": 1,
          "duration": 0.33333300000003874
        },
        {
          "name": "F#4",
          "midi": 66,
          "time": 535.666131000023,
          "velocity": 1,
          "duration": 0.33333300000003874
        },
        {
          "name": "D#5",
          "midi": 75,
          "time": 535.666131000023,
          "velocity": 1,
          "duration": 0.33333300000003874
        },
        {
          "name": "C6",
          "midi": 84,
          "time": 535.666131000023,
          "velocity": 1,
          "duration": 0.33333300000003874
        },
        {
          "name": "A2",
          "midi": 45,
          "time": 535.666131000023,
          "velocity": 1,
          "duration": 0.33333300000003874
        },
        {
          "name": "A4",
          "midi": 69,
          "time": 536.3327970000231,
          "velocity": 1,
          "duration": 0.33333300000003874
        },
        {
          "name": "A3",
          "midi": 57,
          "time": 536.3327970000231,
          "velocity": 1,
          "duration": 0.33333300000003874
        },
        {
          "name": "F#4",
          "midi": 66,
          "time": 536.3327970000231,
          "velocity": 1,
          "duration": 0.33333300000003874
        },
        {
          "name": "D#5",
          "midi": 75,
          "time": 536.3327970000231,
          "velocity": 1,
          "duration": 0.33333300000003874
        },
        {
          "name": "C6",
          "midi": 84,
          "time": 536.3327970000231,
          "velocity": 1,
          "duration": 0.33333300000003874
        },
        {
          "name": "A2",
          "midi": 45,
          "time": 536.3327970000231,
          "velocity": 1,
          "duration": 0.33333300000003874
        },
        {
          "name": "A4",
          "midi": 69,
          "time": 536.9994630000232,
          "velocity": 1,
          "duration": 0.33333300000003874
        },
        {
          "name": "A3",
          "midi": 57,
          "time": 536.9994630000232,
          "velocity": 1,
          "duration": 0.33333300000003874
        },
        {
          "name": "F#4",
          "midi": 66,
          "time": 536.9994630000232,
          "velocity": 1,
          "duration": 0.33333300000003874
        },
        {
          "name": "D#5",
          "midi": 75,
          "time": 536.9994630000232,
          "velocity": 1,
          "duration": 0.33333300000003874
        },
        {
          "name": "C6",
          "midi": 84,
          "time": 536.9994630000232,
          "velocity": 1,
          "duration": 0.33333300000003874
        },
        {
          "name": "A2",
          "midi": 45,
          "time": 536.9994630000232,
          "velocity": 1,
          "duration": 0.33333300000003874
        },
        {
          "name": "A4",
          "midi": 69,
          "time": 537.6661290000233,
          "velocity": 1,
          "duration": 0.33333300000003874
        },
        {
          "name": "A3",
          "midi": 57,
          "time": 537.6661290000233,
          "velocity": 1,
          "duration": 0.33333300000003874
        },
        {
          "name": "F#4",
          "midi": 66,
          "time": 537.6661290000233,
          "velocity": 1,
          "duration": 0.33333300000003874
        },
        {
          "name": "D#5",
          "midi": 75,
          "time": 537.6661290000233,
          "velocity": 1,
          "duration": 0.33333300000003874
        },
        {
          "name": "C6",
          "midi": 84,
          "time": 537.6661290000233,
          "velocity": 1,
          "duration": 0.33333300000003874
        },
        {
          "name": "A2",
          "midi": 45,
          "time": 537.6661290000233,
          "velocity": 1,
          "duration": 0.33333300000003874
        },
        {
          "name": "A3",
          "midi": 57,
          "time": 538.9994610000233,
          "velocity": 1,
          "duration": 0.33333300000003874
        },
        {
          "name": "D#4",
          "midi": 63,
          "time": 538.9994610000233,
          "velocity": 1,
          "duration": 0.33333300000003874
        },
        {
          "name": "D#5",
          "midi": 75,
          "time": 538.9994610000233,
          "velocity": 1,
          "duration": 0.33333300000003874
        },
        {
          "name": "B2",
          "midi": 47,
          "time": 538.9994610000233,
          "velocity": 1,
          "duration": 0.9999990000001162
        },
        {
          "name": "F#5",
          "midi": 78,
          "time": 539.3327940000233,
          "velocity": 1,
          "duration": 0.33333300000003874
        },
        {
          "name": "F#4",
          "midi": 66,
          "time": 539.3327940000233,
          "velocity": 1,
          "duration": 0.33333300000003874
        },
        {
          "name": "F#3",
          "midi": 54,
          "time": 539.3327940000233,
          "velocity": 1,
          "duration": 0.33333300000003874
        },
        {
          "name": "A5",
          "midi": 81,
          "time": 539.6661270000234,
          "velocity": 1,
          "duration": 0.33333300000003874
        },
        {
          "name": "A4",
          "midi": 69,
          "time": 539.6661270000234,
          "velocity": 1,
          "duration": 0.33333300000003874
        },
        {
          "name": "D#3",
          "midi": 51,
          "time": 539.6661270000234,
          "velocity": 1,
          "duration": 0.33333300000003874
        },
        {
          "name": "G3",
          "midi": 55,
          "time": 539.9994600000234,
          "velocity": 1,
          "duration": 0.9999990000000025
        },
        {
          "name": "A#4",
          "midi": 70,
          "time": 539.9994600000234,
          "velocity": 1,
          "duration": 0.9999990000000025
        },
        {
          "name": "A#5",
          "midi": 82,
          "time": 539.9994600000234,
          "velocity": 1,
          "duration": 0.9999990000000025
        },
        {
          "name": "A#2",
          "midi": 46,
          "time": 539.9994600000234,
          "velocity": 1,
          "duration": 0.9999990000000025
        },
        {
          "name": "C3",
          "midi": 48,
          "time": 540.9994590000234,
          "velocity": 1,
          "duration": 1.3333320000000413
        },
        {
          "name": "D#5",
          "midi": 75,
          "time": 540.9994590000234,
          "velocity": 1,
          "duration": 0.33333300000003874
        },
        {
          "name": "D#4",
          "midi": 63,
          "time": 540.9994590000234,
          "velocity": 1,
          "duration": 0.33333300000003874
        },
        {
          "name": "A3",
          "midi": 57,
          "time": 540.9994590000234,
          "velocity": 1,
          "duration": 0.33333300000003874
        },
        {
          "name": "F#5",
          "midi": 78,
          "time": 541.3327920000235,
          "velocity": 1,
          "duration": 0.33333300000003874
        },
        {
          "name": "F#4",
          "midi": 66,
          "time": 541.3327920000235,
          "velocity": 1,
          "duration": 0.33333300000003874
        },
        {
          "name": "F#3",
          "midi": 54,
          "time": 541.3327920000235,
          "velocity": 1,
          "duration": 0.33333300000003874
        },
        {
          "name": "A5",
          "midi": 81,
          "time": 541.6661250000235,
          "velocity": 1,
          "duration": 0.6666659999999638
        },
        {
          "name": "A4",
          "midi": 69,
          "time": 541.6661250000235,
          "velocity": 1,
          "duration": 0.6666659999999638
        },
        {
          "name": "D#3",
          "midi": 51,
          "time": 541.6661250000235,
          "velocity": 1,
          "duration": 0.4999994999999444
        },
        {
          "name": "G#5",
          "midi": 80,
          "time": 542.3327910000235,
          "velocity": 1,
          "duration": 0.33333300000003874
        },
        {
          "name": "G#4",
          "midi": 68,
          "time": 542.3327910000235,
          "velocity": 1,
          "duration": 0.33333300000003874
        },
        {
          "name": "D#3",
          "midi": 51,
          "time": 542.3327910000235,
          "velocity": 1,
          "duration": 0.16666650000001937
        },
        {
          "name": "C2",
          "midi": 36,
          "time": 542.4994575000235,
          "velocity": 1,
          "duration": 0.16666650000001937
        },
        {
          "name": "G#3",
          "midi": 56,
          "time": 542.4994575000235,
          "velocity": 1,
          "duration": 0.16666650000001937
        },
        {
          "name": "D#2",
          "midi": 39,
          "time": 542.6661240000235,
          "velocity": 1,
          "duration": 0.16666650000001937
        },
        {
          "name": "F#5",
          "midi": 78,
          "time": 542.6661240000235,
          "velocity": 1,
          "duration": 0.6666660000000775
        },
        {
          "name": "F#4",
          "midi": 66,
          "time": 542.6661240000235,
          "velocity": 1,
          "duration": 0.6666660000000775
        },
        {
          "name": "C3",
          "midi": 48,
          "time": 542.6661240000235,
          "velocity": 1,
          "duration": 0.33333300000003874
        },
        {
          "name": "G#2",
          "midi": 44,
          "time": 542.8327905000235,
          "velocity": 1,
          "duration": 0.16666650000001937
        },
        {
          "name": "C#2",
          "midi": 37,
          "time": 542.9994570000235,
          "velocity": 1,
          "duration": 0.33333300000003874
        },
        {
          "name": "C#3",
          "midi": 49,
          "time": 542.9994570000235,
          "velocity": 1,
          "duration": 0.33333300000003874
        },
        {
          "name": "E5",
          "midi": 76,
          "time": 543.3327900000236,
          "velocity": 1,
          "duration": 0.33333300000003874
        },
        {
          "name": "E4",
          "midi": 64,
          "time": 543.3327900000236,
          "velocity": 1,
          "duration": 0.33333300000003874
        },
        {
          "name": "F3",
          "midi": 53,
          "time": 543.3327900000236,
          "velocity": 1,
          "duration": 0.16666650000001937
        },
        {
          "name": "C#2",
          "midi": 37,
          "time": 543.4994565000236,
          "velocity": 1,
          "duration": 0.16666650000001937
        },
        {
          "name": "G#3",
          "midi": 56,
          "time": 543.4994565000236,
          "velocity": 1,
          "duration": 0.16666650000001937
        },
        {
          "name": "C#3",
          "midi": 49,
          "time": 543.6661230000236,
          "velocity": 1,
          "duration": 0.33333300000003874
        },
        {
          "name": "F4",
          "midi": 65,
          "time": 543.6661230000236,
          "velocity": 1,
          "duration": 0.6666660000000775
        },
        {
          "name": "F5",
          "midi": 77,
          "time": 543.6661230000236,
          "velocity": 1,
          "duration": 0.6666660000000775
        },
        {
          "name": "F2",
          "midi": 41,
          "time": 543.6661230000236,
          "velocity": 1,
          "duration": 0.16666650000001937
        },
        {
          "name": "G#2",
          "midi": 44,
          "time": 543.8327895000236,
          "velocity": 1,
          "duration": 0.16666650000001937
        },
        {
          "name": "D3",
          "midi": 50,
          "time": 543.9994560000237,
          "velocity": 1,
          "duration": 0.33333300000003874
        },
        {
          "name": "D2",
          "midi": 38,
          "time": 543.9994560000237,
          "velocity": 1,
          "duration": 0.33333300000003874
        },
        {
          "name": "F3",
          "midi": 53,
          "time": 544.3327890000237,
          "velocity": 1,
          "duration": 0.16666650000001937
        },
        {
          "name": "A#3",
          "midi": 58,
          "time": 544.3327890000237,
          "velocity": 1,
          "duration": 0.33333300000003874
        },
        {
          "name": "A#4",
          "midi": 70,
          "time": 544.3327890000237,
          "velocity": 1,
          "duration": 0.33333300000003874
        },
        {
          "name": "D2",
          "midi": 38,
          "time": 544.4994555000237,
          "velocity": 1,
          "duration": 0.16666650000001937
        },
        {
          "name": "F2",
          "midi": 41,
          "time": 544.6661220000237,
          "velocity": 1,
          "duration": 0.16666650000001937
        },
        {
          "name": "G#5",
          "midi": 80,
          "time": 544.6661220000237,
          "velocity": 1,
          "duration": 0.6666660000000775
        },
        {
          "name": "G#4",
          "midi": 68,
          "time": 544.6661220000237,
          "velocity": 1,
          "duration": 0.6666660000000775
        },
        {
          "name": "D3",
          "midi": 50,
          "time": 544.6661220000237,
          "velocity": 1,
          "duration": 0.33333300000003874
        },
        {
          "name": "A#2",
          "midi": 46,
          "time": 544.8327885000238,
          "velocity": 1,
          "duration": 0.16666650000001937
        },
        {
          "name": "D#2",
          "midi": 39,
          "time": 544.9994550000238,
          "velocity": 1,
          "duration": 0.33333300000003874
        },
        {
          "name": "A#3",
          "midi": 58,
          "time": 545.1661215000238,
          "velocity": 1,
          "duration": 0.16666650000001937
        },
        {
          "name": "D#4",
          "midi": 63,
          "time": 545.3327880000238,
          "velocity": 1,
          "duration": 0.16666650000001937
        },
        {
          "name": "F#4",
          "midi": 66,
          "time": 545.3327880000238,
          "velocity": 1,
          "duration": 0.33333300000003874
        },
        {
          "name": "F#5",
          "midi": 78,
          "time": 545.3327880000238,
          "velocity": 1,
          "duration": 0.33333300000003874
        },
        {
          "name": "D#3",
          "midi": 51,
          "time": 545.4994545000238,
          "velocity": 1,
          "duration": 0.16666650000001937
        },
        {
          "name": "A#3",
          "midi": 58,
          "time": 545.4994545000238,
          "velocity": 1,
          "duration": 0.16666650000001937
        },
        {
          "name": "D#4",
          "midi": 63,
          "time": 545.6661210000238,
          "velocity": 1,
          "duration": 0.16666650000001937
        },
        {
          "name": "G4",
          "midi": 67,
          "time": 545.6661210000238,
          "velocity": 1,
          "duration": 0.4999995000000581
        },
        {
          "name": "G5",
          "midi": 79,
          "time": 545.6661210000238,
          "velocity": 1,
          "duration": 0.4999995000000581
        },
        {
          "name": "D#3",
          "midi": 51,
          "time": 545.6661210000238,
          "velocity": 1,
          "duration": 0.16666650000001937
        },
        {
          "name": "D#3",
          "midi": 51,
          "time": 545.8327875000239,
          "velocity": 1,
          "duration": 0.16666650000001937
        },
        {
          "name": "B3",
          "midi": 59,
          "time": 545.8327875000239,
          "velocity": 1,
          "duration": 0.16666650000001937
        },
        {
          "name": "G#3",
          "midi": 56,
          "time": 545.9994540000239,
          "velocity": 1,
          "duration": 0.16666650000001937
        },
        {
          "name": "C4",
          "midi": 60,
          "time": 545.9994540000239,
          "velocity": 1,
          "duration": 0.08333325000000968
        },
        {
          "name": "C4",
          "midi": 60,
          "time": 546.0827872500239,
          "velocity": 1,
          "duration": 0.08333325000000968
        },
        {
          "name": "G#3",
          "midi": 56,
          "time": 546.1661205000239,
          "velocity": 1,
          "duration": 0.16666650000001937
        },
        {
          "name": "B4",
          "midi": 71,
          "time": 546.1661205000239,
          "velocity": 1,
          "duration": 0.16666650000001937
        },
        {
          "name": "B3",
          "midi": 59,
          "time": 546.1661205000239,
          "velocity": 1,
          "duration": 0.16666650000001937
        },
        {
          "name": "C4",
          "midi": 60,
          "time": 546.1661205000239,
          "velocity": 1,
          "duration": 0.08333325000000968
        },
        {
          "name": "C4",
          "midi": 60,
          "time": 546.2494537500239,
          "velocity": 1,
          "duration": 0.08333325000000968
        },
        {
          "name": "G#3",
          "midi": 56,
          "time": 546.3327870000239,
          "velocity": 1,
          "duration": 0.16666650000001937
        },
        {
          "name": "C5",
          "midi": 72,
          "time": 546.3327870000239,
          "velocity": 1,
          "duration": 0.16666650000001937
        },
        {
          "name": "C4",
          "midi": 60,
          "time": 546.3327870000239,
          "velocity": 1,
          "duration": 0.16666650000001937
        },
        {
          "name": "C4",
          "midi": 60,
          "time": 546.499453500024,
          "velocity": 1,
          "duration": 0.08333325000000968
        },
        {
          "name": "E4",
          "midi": 64,
          "time": 546.499453500024,
          "velocity": 1,
          "duration": 0.16666650000001937
        },
        {
          "name": "E5",
          "midi": 76,
          "time": 546.499453500024,
          "velocity": 1,
          "duration": 0.16666650000001937
        },
        {
          "name": "G#3",
          "midi": 56,
          "time": 546.499453500024,
          "velocity": 1,
          "duration": 0.16666650000001937
        },
        {
          "name": "C4",
          "midi": 60,
          "time": 546.582786750024,
          "velocity": 1,
          "duration": 0.08333325000000968
        },
        {
          "name": "G#3",
          "midi": 56,
          "time": 546.666120000024,
          "velocity": 1,
          "duration": 0.16666650000001937
        },
        {
          "name": "F5",
          "midi": 77,
          "time": 546.666120000024,
          "velocity": 1,
          "duration": 0.16666650000001937
        },
        {
          "name": "F4",
          "midi": 65,
          "time": 546.666120000024,
          "velocity": 1,
          "duration": 0.16666650000001937
        },
        {
          "name": "C4",
          "midi": 60,
          "time": 546.666120000024,
          "velocity": 1,
          "duration": 0.08333325000000968
        },
        {
          "name": "C4",
          "midi": 60,
          "time": 546.749453250024,
          "velocity": 1,
          "duration": 0.08333325000000968
        },
        {
          "name": "G#3",
          "midi": 56,
          "time": 546.832786500024,
          "velocity": 1,
          "duration": 0.16666650000001937
        },
        {
          "name": "G5",
          "midi": 79,
          "time": 546.832786500024,
          "velocity": 1,
          "duration": 0.16666650000001937
        },
        {
          "name": "G4",
          "midi": 67,
          "time": 546.832786500024,
          "velocity": 1,
          "duration": 0.16666650000001937
        },
        {
          "name": "C4",
          "midi": 60,
          "time": 546.832786500024,
          "velocity": 1,
          "duration": 0.08333325000000968
        },
        {
          "name": "C4",
          "midi": 60,
          "time": 546.916119750024,
          "velocity": 1,
          "duration": 0.08333325000000968
        },
        {
          "name": "G#3",
          "midi": 56,
          "time": 546.999453000024,
          "velocity": 1,
          "duration": 0.08333325000000968
        },
        {
          "name": "G#4",
          "midi": 68,
          "time": 546.999453000024,
          "velocity": 1,
          "duration": 0.16666650000001937
        },
        {
          "name": "G#5",
          "midi": 80,
          "time": 546.999453000024,
          "velocity": 1,
          "duration": 0.16666650000001937
        },
        {
          "name": "F3",
          "midi": 53,
          "time": 546.999453000024,
          "velocity": 1,
          "duration": 0.16666650000001937
        },
        {
          "name": "F3",
          "midi": 53,
          "time": 547.166119500024,
          "velocity": 1,
          "duration": 0.16666650000001937
        },
        {
          "name": "B5",
          "midi": 83,
          "time": 547.166119500024,
          "velocity": 1,
          "duration": 0.16666650000001937
        },
        {
          "name": "B4",
          "midi": 71,
          "time": 547.166119500024,
          "velocity": 1,
          "duration": 0.16666650000001937
        },
        {
          "name": "G#4",
          "midi": 68,
          "time": 547.166119500024,
          "velocity": 1,
          "duration": 0.08333325000000968
        },
        {
          "name": "G#4",
          "midi": 68,
          "time": 547.249452750024,
          "velocity": 1,
          "duration": 0.08333325000000968
        },
        {
          "name": "F3",
          "midi": 53,
          "time": 547.332786000024,
          "velocity": 1,
          "duration": 0.16666650000001937
        },
        {
          "name": "C6",
          "midi": 84,
          "time": 547.332786000024,
          "velocity": 1,
          "duration": 0.16666650000001937
        },
        {
          "name": "C5",
          "midi": 72,
          "time": 547.332786000024,
          "velocity": 1,
          "duration": 0.16666650000001937
        },
        {
          "name": "G#4",
          "midi": 68,
          "time": 547.332786000024,
          "velocity": 1,
          "duration": 0.08333325000000968
        },
        {
          "name": "G#4",
          "midi": 68,
          "time": 547.416119250024,
          "velocity": 1,
          "duration": 0.08333325000000968
        },
        {
          "name": "F3",
          "midi": 53,
          "time": 547.4994525000241,
          "velocity": 1,
          "duration": 0.16666650000001937
        },
        {
          "name": "G#5",
          "midi": 80,
          "time": 547.4994525000241,
          "velocity": 1,
          "duration": 0.16666650000001937
        },
        {
          "name": "G#4",
          "midi": 68,
          "time": 547.4994525000241,
          "velocity": 1,
          "duration": 0.16666650000001937
        },
        {
          "name": "G3",
          "midi": 55,
          "time": 547.6661190000241,
          "velocity": 1,
          "duration": 0.16666650000001937
        },
        {
          "name": "G5",
          "midi": 79,
          "time": 547.6661190000241,
          "velocity": 1,
          "duration": 0.16666650000001937
        },
        {
          "name": "G4",
          "midi": 67,
          "time": 547.6661190000241,
          "velocity": 1,
          "duration": 0.16666650000001937
        },
        {
          "name": "A#4",
          "midi": 70,
          "time": 547.6661190000241,
          "velocity": 1,
          "duration": 0.08333325000000968
        },
        {
          "name": "A#4",
          "midi": 70,
          "time": 547.7494522500241,
          "velocity": 1,
          "duration": 0.08333325000000968
        },
        {
          "name": "C5",
          "midi": 72,
          "time": 547.8327855000241,
          "velocity": 1,
          "duration": 0.08333325000000968
        },
        {
          "name": "F4",
          "midi": 65,
          "time": 547.8327855000241,
          "velocity": 1,
          "duration": 0.16666650000001937
        },
        {
          "name": "F5",
          "midi": 77,
          "time": 547.8327855000241,
          "velocity": 1,
          "duration": 0.16666650000001937
        },
        {
          "name": "G#3",
          "midi": 56,
          "time": 547.8327855000241,
          "velocity": 1,
          "duration": 0.16666650000001937
        },
        {
          "name": "C5",
          "midi": 72,
          "time": 547.9161187500241,
          "velocity": 1,
          "duration": 0.08333325000000968
        },
        {
          "name": "G#4",
          "midi": 68,
          "time": 547.9994520000241,
          "velocity": 1,
          "duration": 0.16666650000001937
        },
        {
          "name": "D#4",
          "midi": 63,
          "time": 547.9994520000241,
          "velocity": 1,
          "duration": 0.08333325000000968
        },
        {
          "name": "D#5",
          "midi": 75,
          "time": 547.9994520000241,
          "velocity": 1,
          "duration": 0.08333325000000968
        },
        {
          "name": "A#3",
          "midi": 58,
          "time": 547.9994520000241,
          "velocity": 1,
          "duration": 0.16666650000001937
        },
        {
          "name": "D#5",
          "midi": 75,
          "time": 548.0827852500241,
          "velocity": 1,
          "duration": 0.08333325000000968
        },
        {
          "name": "D#4",
          "midi": 63,
          "time": 548.0827852500241,
          "velocity": 1,
          "duration": 0.08333325000000968
        },
        {
          "name": "G3",
          "midi": 55,
          "time": 548.1661185000241,
          "velocity": 1,
          "duration": 0.16666650000001937
        },
        {
          "name": "G5",
          "midi": 79,
          "time": 548.1661185000241,
          "velocity": 1,
          "duration": 0.08333325000000968
        },
        {
          "name": "G4",
          "midi": 67,
          "time": 548.1661185000241,
          "velocity": 1,
          "duration": 0.08333325000000968
        },
        {
          "name": "A#4",
          "midi": 70,
          "time": 548.1661185000241,
          "velocity": 1,
          "duration": 0.16666650000001937
        },
        {
          "name": "G4",
          "midi": 67,
          "time": 548.2494517500241,
          "velocity": 1,
          "duration": 0.08333325000000968
        },
        {
          "name": "G5",
          "midi": 79,
          "time": 548.2494517500241,
          "velocity": 1,
          "duration": 0.08333325000000968
        },
        {
          "name": "D#3",
          "midi": 51,
          "time": 548.3327850000242,
          "velocity": 1,
          "duration": 0.16666650000001937
        },
        {
          "name": "A#5",
          "midi": 82,
          "time": 548.3327850000242,
          "velocity": 1,
          "duration": 0.08333325000000968
        },
        {
          "name": "A#4",
          "midi": 70,
          "time": 548.3327850000242,
          "velocity": 1,
          "duration": 0.08333325000000968
        },
        {
          "name": "G#4",
          "midi": 68,
          "time": 548.3327850000242,
          "velocity": 1,
          "duration": 0.16666650000001937
        },
        {
          "name": "A#5",
          "midi": 82,
          "time": 548.4161182500242,
          "velocity": 1,
          "duration": 0.08333325000000968
        },
        {
          "name": "A#4",
          "midi": 70,
          "time": 548.4161182500242,
          "velocity": 1,
          "duration": 0.08333325000000968
        },
        {
          "name": "D#4",
          "midi": 63,
          "time": 548.4994515000242,
          "velocity": 1,
          "duration": 0.16666650000001937
        },
        {
          "name": "A#4",
          "midi": 70,
          "time": 548.4994515000242,
          "velocity": 1,
          "duration": 0.08333325000000968
        },
        {
          "name": "A#5",
          "midi": 82,
          "time": 548.4994515000242,
          "velocity": 1,
          "duration": 0.08333325000000968
        },
        {
          "name": "A#3",
          "midi": 58,
          "time": 548.4994515000242,
          "velocity": 1,
          "duration": 0.16666650000001937
        },
        {
          "name": "A#5",
          "midi": 82,
          "time": 548.5827847500242,
          "velocity": 1,
          "duration": 0.08333325000000968
        },
        {
          "name": "A#4",
          "midi": 70,
          "time": 548.5827847500242,
          "velocity": 1,
          "duration": 0.08333325000000968
        },
        {
          "name": "A#3",
          "midi": 58,
          "time": 548.6661180000242,
          "velocity": 1,
          "duration": 0.16666650000001937
        },
        {
          "name": "D#5",
          "midi": 75,
          "time": 548.6661180000242,
          "velocity": 1,
          "duration": 0.08333325000000968
        },
        {
          "name": "A#5",
          "midi": 82,
          "time": 548.6661180000242,
          "velocity": 1,
          "duration": 0.08333325000000968
        },
        {
          "name": "G3",
          "midi": 55,
          "time": 548.6661180000242,
          "velocity": 1,
          "duration": 0.16666650000001937
        },
        {
          "name": "A#5",
          "midi": 82,
          "time": 548.7494512500242,
          "velocity": 1,
          "duration": 0.08333325000000968
        },
        {
          "name": "D#5",
          "midi": 75,
          "time": 548.7494512500242,
          "velocity": 1,
          "duration": 0.08333325000000968
        },
        {
          "name": "G3",
          "midi": 55,
          "time": 548.8327845000242,
          "velocity": 1,
          "duration": 0.16666650000001937
        },
        {
          "name": "G5",
          "midi": 79,
          "time": 548.8327845000242,
          "velocity": 1,
          "duration": 0.08333325000000968
        },
        {
          "name": "A#5",
          "midi": 82,
          "time": 548.8327845000242,
          "velocity": 1,
          "duration": 0.08333325000000968
        },
        {
          "name": "D#3",
          "midi": 51,
          "time": 548.8327845000242,
          "velocity": 1,
          "duration": 0.16666650000001937
        },
        {
          "name": "A#5",
          "midi": 82,
          "time": 548.9161177500242,
          "velocity": 1,
          "duration": 0.08333325000000968
        },
        {
          "name": "G5",
          "midi": 79,
          "time": 548.9161177500242,
          "velocity": 1,
          "duration": 0.08333325000000968
        },
        {
          "name": "A#2",
          "midi": 46,
          "time": 548.9994510000242,
          "velocity": 1,
          "duration": 0.16666650000001937
        },
        {
          "name": "A#5",
          "midi": 82,
          "time": 548.9994510000242,
          "velocity": 1,
          "duration": 0.08333325000000968
        },
        {
          "name": "G#5",
          "midi": 80,
          "time": 548.9994510000242,
          "velocity": 1,
          "duration": 0.08333325000000968
        },
        {
          "name": "F3",
          "midi": 53,
          "time": 548.9994510000242,
          "velocity": 1,
          "duration": 0.08333325000000968
        },
        {
          "name": "D4",
          "midi": 62,
          "time": 549.0827842500242,
          "velocity": 1,
          "duration": 0.08333325000000968
        },
        {
          "name": "G#4",
          "midi": 68,
          "time": 549.0827842500242,
          "velocity": 1,
          "duration": 0.08333325000000968
        },
        {
          "name": "A#5",
          "midi": 82,
          "time": 549.0827842500242,
          "velocity": 1,
          "duration": 0.08333325000000968
        },
        {
          "name": "A#2",
          "midi": 46,
          "time": 549.1661175000243,
          "velocity": 1,
          "duration": 0.16666650000001937
        },
        {
          "name": "A#5",
          "midi": 82,
          "time": 549.1661175000243,
          "velocity": 1,
          "duration": 0.08333325000000968
        },
        {
          "name": "G#4",
          "midi": 68,
          "time": 549.1661175000243,
          "velocity": 1,
          "duration": 0.08333325000000968
        },
        {
          "name": "D4",
          "midi": 62,
          "time": 549.1661175000243,
          "velocity": 1,
          "duration": 0.08333325000000968
        },
        {
          "name": "A#5",
          "midi": 82,
          "time": 549.2494507500243,
          "velocity": 1,
          "duration": 0.08333325000000968
        },
        {
          "name": "G#4",
          "midi": 68,
          "time": 549.2494507500243,
          "velocity": 1,
          "duration": 0.08333325000000968
        },
        {
          "name": "D4",
          "midi": 62,
          "time": 549.2494507500243,
          "velocity": 1,
          "duration": 0.08333325000000968
        },
        {
          "name": "A#2",
          "midi": 46,
          "time": 549.3327840000243,
          "velocity": 1,
          "duration": 0.16666650000001937
        },
        {
          "name": "A#5",
          "midi": 82,
          "time": 549.3327840000243,
          "velocity": 1,
          "duration": 0.08333325000000968
        },
        {
          "name": "G#4",
          "midi": 68,
          "time": 549.3327840000243,
          "velocity": 1,
          "duration": 0.08333325000000968
        },
        {
          "name": "D4",
          "midi": 62,
          "time": 549.3327840000243,
          "velocity": 1,
          "duration": 0.08333325000000968
        },
        {
          "name": "D4",
          "midi": 62,
          "time": 549.4161172500243,
          "velocity": 1,
          "duration": 0.08333325000000968
        },
        {
          "name": "G#4",
          "midi": 68,
          "time": 549.4161172500243,
          "velocity": 1,
          "duration": 0.08333325000000968
        },
        {
          "name": "A#5",
          "midi": 82,
          "time": 549.4161172500243,
          "velocity": 1,
          "duration": 0.08333325000000968
        },
        {
          "name": "A#2",
          "midi": 46,
          "time": 549.4994505000243,
          "velocity": 1,
          "duration": 0.16666650000001937
        },
        {
          "name": "A#5",
          "midi": 82,
          "time": 549.4994505000243,
          "velocity": 1,
          "duration": 0.08333325000000968
        },
        {
          "name": "G#4",
          "midi": 68,
          "time": 549.4994505000243,
          "velocity": 1,
          "duration": 0.08333325000000968
        },
        {
          "name": "D4",
          "midi": 62,
          "time": 549.4994505000243,
          "velocity": 1,
          "duration": 0.08333325000000968
        },
        {
          "name": "A#5",
          "midi": 82,
          "time": 549.5827837500243,
          "velocity": 1,
          "duration": 0.08333325000000968
        },
        {
          "name": "G#4",
          "midi": 68,
          "time": 549.5827837500243,
          "velocity": 1,
          "duration": 0.08333325000000968
        },
        {
          "name": "D4",
          "midi": 62,
          "time": 549.5827837500243,
          "velocity": 1,
          "duration": 0.08333325000000968
        },
        {
          "name": "A#2",
          "midi": 46,
          "time": 549.6661170000243,
          "velocity": 1,
          "duration": 0.16666650000001937
        },
        {
          "name": "A#5",
          "midi": 82,
          "time": 549.6661170000243,
          "velocity": 1,
          "duration": 0.08333325000000968
        },
        {
          "name": "G#4",
          "midi": 68,
          "time": 549.6661170000243,
          "velocity": 1,
          "duration": 0.08333325000000968
        },
        {
          "name": "D4",
          "midi": 62,
          "time": 549.6661170000243,
          "velocity": 1,
          "duration": 0.08333325000000968
        },
        {
          "name": "D4",
          "midi": 62,
          "time": 549.7494502500243,
          "velocity": 1,
          "duration": 0.08333325000000968
        },
        {
          "name": "G#4",
          "midi": 68,
          "time": 549.7494502500243,
          "velocity": 1,
          "duration": 0.08333325000000968
        },
        {
          "name": "A#5",
          "midi": 82,
          "time": 549.7494502500243,
          "velocity": 1,
          "duration": 0.08333325000000968
        },
        {
          "name": "A#2",
          "midi": 46,
          "time": 549.8327835000243,
          "velocity": 1,
          "duration": 0.16666650000001937
        },
        {
          "name": "A#5",
          "midi": 82,
          "time": 549.8327835000243,
          "velocity": 1,
          "duration": 0.08333325000000968
        },
        {
          "name": "G#4",
          "midi": 68,
          "time": 549.8327835000243,
          "velocity": 1,
          "duration": 0.08333325000000968
        },
        {
          "name": "D4",
          "midi": 62,
          "time": 549.8327835000243,
          "velocity": 1,
          "duration": 0.08333325000000968
        },
        {
          "name": "D4",
          "midi": 62,
          "time": 549.9161167500243,
          "velocity": 1,
          "duration": 0.08333325000000968
        },
        {
          "name": "G#4",
          "midi": 68,
          "time": 549.9161167500243,
          "velocity": 1,
          "duration": 0.08333325000000968
        },
        {
          "name": "A#5",
          "midi": 82,
          "time": 549.9161167500243,
          "velocity": 1,
          "duration": 0.08333325000000968
        },
        {
          "name": "D#3",
          "midi": 51,
          "time": 549.9994500000244,
          "velocity": 1,
          "duration": 0.33333300000003874
        },
        {
          "name": "D#5",
          "midi": 75,
          "time": 549.9994500000244,
          "velocity": 1,
          "duration": 0.33333300000003874
        },
        {
          "name": "G4",
          "midi": 67,
          "time": 549.9994500000244,
          "velocity": 1,
          "duration": 0.33333300000003874
        },
        {
          "name": "D#4",
          "midi": 63,
          "time": 549.9994500000244,
          "velocity": 1,
          "duration": 0.33333300000003874
        },
        {
          "name": "A#4",
          "midi": 70,
          "time": 550.3327830000244,
          "velocity": 1,
          "duration": 0.33333300000003874
        },
        {
          "name": "A#3",
          "midi": 58,
          "time": 550.3327830000244,
          "velocity": 1,
          "duration": 0.33333300000003874
        },
        {
          "name": "G3",
          "midi": 55,
          "time": 550.6661160000244,
          "velocity": 1,
          "duration": 0.33333300000003874
        },
        {
          "name": "G4",
          "midi": 67,
          "time": 550.6661160000244,
          "velocity": 1,
          "duration": 0.33333300000003874
        },
        {
          "name": "D#3",
          "midi": 51,
          "time": 550.9994490000245,
          "velocity": 1,
          "duration": 0.33333300000003874
        },
        {
          "name": "D#6",
          "midi": 87,
          "time": 550.9994490000245,
          "velocity": 1,
          "duration": 0.33333300000003874
        },
        {
          "name": "D#5",
          "midi": 75,
          "time": 550.9994490000245,
          "velocity": 1,
          "duration": 0.33333300000003874
        },
        {
          "name": "C5",
          "midi": 72,
          "time": 551.3327820000245,
          "velocity": 1,
          "duration": 0.33333300000003874
        },
        {
          "name": "C4",
          "midi": 60,
          "time": 551.3327820000245,
          "velocity": 1,
          "duration": 0.33333300000003874
        },
        {
          "name": "G#4",
          "midi": 68,
          "time": 551.6661150000245,
          "velocity": 1,
          "duration": 0.33333300000003874
        },
        {
          "name": "G#3",
          "midi": 56,
          "time": 551.6661150000245,
          "velocity": 1,
          "duration": 0.33333300000003874
        },
        {
          "name": "D#3",
          "midi": 51,
          "time": 551.9994480000246,
          "velocity": 1,
          "duration": 0.33333300000003874
        },
        {
          "name": "D#6",
          "midi": 87,
          "time": 551.9994480000246,
          "velocity": 1,
          "duration": 0.33333300000003874
        },
        {
          "name": "D#5",
          "midi": 75,
          "time": 551.9994480000246,
          "velocity": 1,
          "duration": 0.33333300000003874
        },
        {
          "name": "A#3",
          "midi": 58,
          "time": 552.3327810000246,
          "velocity": 1,
          "duration": 0.33333300000003874
        },
        {
          "name": "A#4",
          "midi": 70,
          "time": 552.3327810000246,
          "velocity": 1,
          "duration": 0.33333300000003874
        },
        {
          "name": "G4",
          "midi": 67,
          "time": 552.6661140000247,
          "velocity": 1,
          "duration": 0.33333300000003874
        },
        {
          "name": "G3",
          "midi": 55,
          "time": 552.6661140000247,
          "velocity": 1,
          "duration": 0.33333300000003874
        },
        {
          "name": "D#3",
          "midi": 51,
          "time": 552.9994470000247,
          "velocity": 1,
          "duration": 0.33333300000003874
        },
        {
          "name": "D#6",
          "midi": 87,
          "time": 552.9994470000247,
          "velocity": 1,
          "duration": 0.33333300000003874
        },
        {
          "name": "D#5",
          "midi": 75,
          "time": 552.9994470000247,
          "velocity": 1,
          "duration": 0.33333300000003874
        },
        {
          "name": "B4",
          "midi": 71,
          "time": 552.9994470000247,
          "velocity": 1,
          "duration": 0.33333300000003874
        },
        {
          "name": "D4",
          "midi": 62,
          "time": 552.9994470000247,
          "velocity": 1,
          "duration": 0.33333300000003874
        },
        {
          "name": "F3",
          "midi": 53,
          "time": 552.9994470000247,
          "velocity": 1,
          "duration": 0.33333300000003874
        },
        {
          "name": "F3",
          "midi": 53,
          "time": 553.3327800000247,
          "velocity": 1,
          "duration": 0.33333300000003874
        },
        {
          "name": "D4",
          "midi": 62,
          "time": 553.3327800000247,
          "velocity": 1,
          "duration": 0.33333300000003874
        },
        {
          "name": "D#5",
          "midi": 75,
          "time": 553.3327800000247,
          "velocity": 1,
          "duration": 0.33333300000003874
        },
        {
          "name": "B4",
          "midi": 71,
          "time": 553.3327800000247,
          "velocity": 1,
          "duration": 0.33333300000003874
        },
        {
          "name": "D#6",
          "midi": 87,
          "time": 553.3327800000247,
          "velocity": 1,
          "duration": 0.33333300000003874
        },
        {
          "name": "D#3",
          "midi": 51,
          "time": 553.3327800000247,
          "velocity": 1,
          "duration": 0.33333300000003874
        },
        {
          "name": "D#3",
          "midi": 51,
          "time": 553.6661130000248,
          "velocity": 1,
          "duration": 0.33333300000003874
        },
        {
          "name": "D#6",
          "midi": 87,
          "time": 553.6661130000248,
          "velocity": 1,
          "duration": 0.33333300000003874
        },
        {
          "name": "D#5",
          "midi": 75,
          "time": 553.6661130000248,
          "velocity": 1,
          "duration": 0.33333300000003874
        },
        {
          "name": "B4",
          "midi": 71,
          "time": 553.6661130000248,
          "velocity": 1,
          "duration": 0.33333300000003874
        },
        {
          "name": "D4",
          "midi": 62,
          "time": 553.6661130000248,
          "velocity": 1,
          "duration": 0.33333300000003874
        },
        {
          "name": "F3",
          "midi": 53,
          "time": 553.6661130000248,
          "velocity": 1,
          "duration": 0.33333300000003874
        },
        {
          "name": "D#3",
          "midi": 51,
          "time": 553.9994460000248,
          "velocity": 1,
          "duration": 5.999994000000015
        },
        {
          "name": "G4",
          "midi": 67,
          "time": 553.9994460000248,
          "velocity": 1,
          "duration": 0.6666659999999638
        },
        {
          "name": "A#4",
          "midi": 70,
          "time": 553.9994460000248,
          "velocity": 1,
          "duration": 0.6666659999999638
        },
        {
          "name": "D#5",
          "midi": 75,
          "time": 553.9994460000248,
          "velocity": 1,
          "duration": 0.6666659999999638
        },
        {
          "name": "D#6",
          "midi": 87,
          "time": 553.9994460000248,
          "velocity": 1,
          "duration": 0.6666659999999638
        },
        {
          "name": "G5",
          "midi": 79,
          "time": 554.6661120000248,
          "velocity": 1,
          "duration": 0.33333300000003874
        },
        {
          "name": "G4",
          "midi": 67,
          "time": 554.6661120000248,
          "velocity": 1,
          "duration": 0.33333300000003874
        },
        {
          "name": "D#4",
          "midi": 63,
          "time": 554.9994450000248,
          "velocity": 1,
          "duration": 0.6666659999999638
        },
        {
          "name": "D#5",
          "midi": 75,
          "time": 554.9994450000248,
          "velocity": 1,
          "duration": 0.6666659999999638
        },
        {
          "name": "A#4",
          "midi": 70,
          "time": 555.6661110000248,
          "velocity": 1,
          "duration": 0.33333300000003874
        },
        {
          "name": "A#3",
          "midi": 58,
          "time": 555.6661110000248,
          "velocity": 1,
          "duration": 0.33333300000003874
        },
        {
          "name": "D#5",
          "midi": 75,
          "time": 555.9994440000248,
          "velocity": 1,
          "duration": 3.99999600000001
        },
        {
          "name": "D#4",
          "midi": 63,
          "time": 555.9994440000248,
          "velocity": 1,
          "duration": 3.99999600000001
        },
        {
          "name": "C#3",
          "midi": 49,
          "time": 559.9994400000248,
          "velocity": 1,
          "duration": 1.999998000000005
        },
        {
          "name": "G#3",
          "midi": 56,
          "time": 559.9994400000248,
          "velocity": 1,
          "duration": 1.999998000000005
        },
        {
          "name": "C#4",
          "midi": 61,
          "time": 559.9994400000248,
          "velocity": 1,
          "duration": 0.6666659999999638
        },
        {
          "name": "C#5",
          "midi": 73,
          "time": 559.9994400000248,
          "velocity": 1,
          "duration": 0.6666659999999638
        },
        {
          "name": "C#2",
          "midi": 37,
          "time": 559.9994400000248,
          "velocity": 1,
          "duration": 1.999998000000005
        },
        {
          "name": "G#2",
          "midi": 44,
          "time": 559.9994400000248,
          "velocity": 1,
          "duration": 1.999998000000005
        },
        {
          "name": "F5",
          "midi": 77,
          "time": 560.6661060000248,
          "velocity": 1,
          "duration": 0.33333300000003874
        },
        {
          "name": "F4",
          "midi": 65,
          "time": 560.6661060000248,
          "velocity": 1,
          "duration": 0.33333300000003874
        },
        {
          "name": "C#4",
          "midi": 61,
          "time": 560.9994390000248,
          "velocity": 1,
          "duration": 0.6666659999999638
        },
        {
          "name": "C#5",
          "midi": 73,
          "time": 560.9994390000248,
          "velocity": 1,
          "duration": 0.6666659999999638
        },
        {
          "name": "G#4",
          "midi": 68,
          "time": 561.6661050000248,
          "velocity": 1,
          "duration": 0.33333300000003874
        },
        {
          "name": "C#3",
          "midi": 49,
          "time": 561.9994380000248,
          "velocity": 1,
          "duration": 1.999998000000005
        },
        {
          "name": "C#4",
          "midi": 61,
          "time": 561.9994380000248,
          "velocity": 1,
          "duration": 1.999998000000005
        },
        {
          "name": "C#5",
          "midi": 73,
          "time": 561.9994380000248,
          "velocity": 1,
          "duration": 1.999998000000005
        },
        {
          "name": "C3",
          "midi": 48,
          "time": 563.9994360000248,
          "velocity": 1,
          "duration": 0.08333325000000968
        },
        {
          "name": "G3",
          "midi": 55,
          "time": 563.9994360000248,
          "velocity": 1,
          "duration": 0.08333325000000968
        },
        {
          "name": "C4",
          "midi": 60,
          "time": 563.9994360000248,
          "velocity": 1,
          "duration": 0.08333325000000968
        },
        {
          "name": "C5",
          "midi": 72,
          "time": 563.9994360000248,
          "velocity": 1,
          "duration": 0.08333325000000968
        },
        {
          "name": "C2",
          "midi": 36,
          "time": 563.9994360000248,
          "velocity": 1,
          "duration": 0.08333325000000968
        },
        {
          "name": "G2",
          "midi": 43,
          "time": 563.9994360000248,
          "velocity": 1,
          "duration": 0.08333325000000968
        },
        {
          "name": "C3",
          "midi": 48,
          "time": 564.0827692500249,
          "velocity": 1,
          "duration": 0.08333325000000968
        },
        {
          "name": "G3",
          "midi": 55,
          "time": 564.0827692500249,
          "velocity": 1,
          "duration": 0.08333325000000968
        },
        {
          "name": "E4",
          "midi": 64,
          "time": 564.0827692500249,
          "velocity": 1,
          "duration": 0.08333325000000968
        },
        {
          "name": "C5",
          "midi": 72,
          "time": 564.0827692500249,
          "velocity": 1,
          "duration": 0.08333325000000968
        },
        {
          "name": "C2",
          "midi": 36,
          "time": 564.0827692500249,
          "velocity": 1,
          "duration": 0.08333325000000968
        },
        {
          "name": "G2",
          "midi": 43,
          "time": 564.0827692500249,
          "velocity": 1,
          "duration": 0.08333325000000968
        },
        {
          "name": "G2",
          "midi": 43,
          "time": 564.1661025000249,
          "velocity": 1,
          "duration": 0.08333325000000968
        },
        {
          "name": "C2",
          "midi": 36,
          "time": 564.1661025000249,
          "velocity": 1,
          "duration": 0.08333325000000968
        },
        {
          "name": "C3",
          "midi": 48,
          "time": 564.1661025000249,
          "velocity": 1,
          "duration": 0.08333325000000968
        },
        {
          "name": "C5",
          "midi": 72,
          "time": 564.1661025000249,
          "velocity": 1,
          "duration": 0.08333325000000968
        },
        {
          "name": "E4",
          "midi": 64,
          "time": 564.1661025000249,
          "velocity": 1,
          "duration": 0.08333325000000968
        },
        {
          "name": "G3",
          "midi": 55,
          "time": 564.1661025000249,
          "velocity": 1,
          "duration": 0.08333325000000968
        },
        {
          "name": "C3",
          "midi": 48,
          "time": 564.2494357500249,
          "velocity": 1,
          "duration": 0.08333325000000968
        },
        {
          "name": "G3",
          "midi": 55,
          "time": 564.2494357500249,
          "velocity": 1,
          "duration": 0.08333325000000968
        },
        {
          "name": "E4",
          "midi": 64,
          "time": 564.2494357500249,
          "velocity": 1,
          "duration": 0.08333325000000968
        },
        {
          "name": "C5",
          "midi": 72,
          "time": 564.2494357500249,
          "velocity": 1,
          "duration": 0.08333325000000968
        },
        {
          "name": "C2",
          "midi": 36,
          "time": 564.2494357500249,
          "velocity": 1,
          "duration": 0.08333325000000968
        },
        {
          "name": "G2",
          "midi": 43,
          "time": 564.2494357500249,
          "velocity": 1,
          "duration": 0.08333325000000968
        },
        {
          "name": "G2",
          "midi": 43,
          "time": 564.3327690000249,
          "velocity": 1,
          "duration": 0.08333325000000968
        },
        {
          "name": "C2",
          "midi": 36,
          "time": 564.3327690000249,
          "velocity": 1,
          "duration": 0.08333325000000968
        },
        {
          "name": "C3",
          "midi": 48,
          "time": 564.3327690000249,
          "velocity": 1,
          "duration": 0.08333325000000968
        },
        {
          "name": "C5",
          "midi": 72,
          "time": 564.3327690000249,
          "velocity": 1,
          "duration": 0.08333325000000968
        },
        {
          "name": "E4",
          "midi": 64,
          "time": 564.3327690000249,
          "velocity": 1,
          "duration": 0.08333325000000968
        },
        {
          "name": "G3",
          "midi": 55,
          "time": 564.3327690000249,
          "velocity": 1,
          "duration": 0.08333325000000968
        },
        {
          "name": "C3",
          "midi": 48,
          "time": 564.4161022500249,
          "velocity": 1,
          "duration": 0.08333325000000968
        },
        {
          "name": "G3",
          "midi": 55,
          "time": 564.4161022500249,
          "velocity": 1,
          "duration": 0.08333325000000968
        },
        {
          "name": "E4",
          "midi": 64,
          "time": 564.4161022500249,
          "velocity": 1,
          "duration": 0.08333325000000968
        },
        {
          "name": "C5",
          "midi": 72,
          "time": 564.4161022500249,
          "velocity": 1,
          "duration": 0.08333325000000968
        },
        {
          "name": "C2",
          "midi": 36,
          "time": 564.4161022500249,
          "velocity": 1,
          "duration": 0.08333325000000968
        },
        {
          "name": "G2",
          "midi": 43,
          "time": 564.4161022500249,
          "velocity": 1,
          "duration": 0.08333325000000968
        },
        {
          "name": "G2",
          "midi": 43,
          "time": 564.4994355000249,
          "velocity": 1,
          "duration": 0.08333325000000968
        },
        {
          "name": "C2",
          "midi": 36,
          "time": 564.4994355000249,
          "velocity": 1,
          "duration": 0.08333325000000968
        },
        {
          "name": "C3",
          "midi": 48,
          "time": 564.4994355000249,
          "velocity": 1,
          "duration": 0.08333325000000968
        },
        {
          "name": "C5",
          "midi": 72,
          "time": 564.4994355000249,
          "velocity": 1,
          "duration": 0.08333325000000968
        },
        {
          "name": "E4",
          "midi": 64,
          "time": 564.4994355000249,
          "velocity": 1,
          "duration": 0.08333325000000968
        },
        {
          "name": "G3",
          "midi": 55,
          "time": 564.4994355000249,
          "velocity": 1,
          "duration": 0.08333325000000968
        },
        {
          "name": "C3",
          "midi": 48,
          "time": 564.5827687500249,
          "velocity": 1,
          "duration": 0.08333325000000968
        },
        {
          "name": "G3",
          "midi": 55,
          "time": 564.5827687500249,
          "velocity": 1,
          "duration": 0.08333325000000968
        },
        {
          "name": "E4",
          "midi": 64,
          "time": 564.5827687500249,
          "velocity": 1,
          "duration": 0.08333325000000968
        },
        {
          "name": "C5",
          "midi": 72,
          "time": 564.5827687500249,
          "velocity": 1,
          "duration": 0.08333325000000968
        },
        {
          "name": "C2",
          "midi": 36,
          "time": 564.5827687500249,
          "velocity": 1,
          "duration": 0.08333325000000968
        },
        {
          "name": "G2",
          "midi": 43,
          "time": 564.5827687500249,
          "velocity": 1,
          "duration": 0.08333325000000968
        },
        {
          "name": "G2",
          "midi": 43,
          "time": 564.6661020000249,
          "velocity": 1,
          "duration": 0.08333325000000968
        },
        {
          "name": "C2",
          "midi": 36,
          "time": 564.6661020000249,
          "velocity": 1,
          "duration": 0.08333325000000968
        },
        {
          "name": "C3",
          "midi": 48,
          "time": 564.6661020000249,
          "velocity": 1,
          "duration": 0.08333325000000968
        },
        {
          "name": "E5",
          "midi": 76,
          "time": 564.6661020000249,
          "velocity": 1,
          "duration": 0.08333325000000968
        },
        {
          "name": "E4",
          "midi": 64,
          "time": 564.6661020000249,
          "velocity": 1,
          "duration": 0.08333325000000968
        },
        {
          "name": "G3",
          "midi": 55,
          "time": 564.6661020000249,
          "velocity": 1,
          "duration": 0.08333325000000968
        },
        {
          "name": "C3",
          "midi": 48,
          "time": 564.7494352500249,
          "velocity": 1,
          "duration": 0.08333325000000968
        },
        {
          "name": "G3",
          "midi": 55,
          "time": 564.7494352500249,
          "velocity": 1,
          "duration": 0.08333325000000968
        },
        {
          "name": "E4",
          "midi": 64,
          "time": 564.7494352500249,
          "velocity": 1,
          "duration": 0.08333325000000968
        },
        {
          "name": "E5",
          "midi": 76,
          "time": 564.7494352500249,
          "velocity": 1,
          "duration": 0.08333325000000968
        },
        {
          "name": "C2",
          "midi": 36,
          "time": 564.7494352500249,
          "velocity": 1,
          "duration": 0.08333325000000968
        },
        {
          "name": "G2",
          "midi": 43,
          "time": 564.7494352500249,
          "velocity": 1,
          "duration": 0.08333325000000968
        },
        {
          "name": "G2",
          "midi": 43,
          "time": 564.8327685000249,
          "velocity": 1,
          "duration": 0.08333325000000968
        },
        {
          "name": "C2",
          "midi": 36,
          "time": 564.8327685000249,
          "velocity": 1,
          "duration": 0.08333325000000968
        },
        {
          "name": "C3",
          "midi": 48,
          "time": 564.8327685000249,
          "velocity": 1,
          "duration": 0.08333325000000968
        },
        {
          "name": "E5",
          "midi": 76,
          "time": 564.8327685000249,
          "velocity": 1,
          "duration": 0.08333325000000968
        },
        {
          "name": "E4",
          "midi": 64,
          "time": 564.8327685000249,
          "velocity": 1,
          "duration": 0.08333325000000968
        },
        {
          "name": "G3",
          "midi": 55,
          "time": 564.8327685000249,
          "velocity": 1,
          "duration": 0.08333325000000968
        },
        {
          "name": "C3",
          "midi": 48,
          "time": 564.916101750025,
          "velocity": 1,
          "duration": 0.08333325000000968
        },
        {
          "name": "G3",
          "midi": 55,
          "time": 564.916101750025,
          "velocity": 1,
          "duration": 0.08333325000000968
        },
        {
          "name": "E4",
          "midi": 64,
          "time": 564.916101750025,
          "velocity": 1,
          "duration": 0.08333325000000968
        },
        {
          "name": "E5",
          "midi": 76,
          "time": 564.916101750025,
          "velocity": 1,
          "duration": 0.08333325000000968
        },
        {
          "name": "C2",
          "midi": 36,
          "time": 564.916101750025,
          "velocity": 1,
          "duration": 0.08333325000000968
        },
        {
          "name": "G2",
          "midi": 43,
          "time": 564.916101750025,
          "velocity": 1,
          "duration": 0.08333325000000968
        },
        {
          "name": "G2",
          "midi": 43,
          "time": 564.999435000025,
          "velocity": 1,
          "duration": 0.08333325000000968
        },
        {
          "name": "C2",
          "midi": 36,
          "time": 564.999435000025,
          "velocity": 1,
          "duration": 0.08333325000000968
        },
        {
          "name": "C3",
          "midi": 48,
          "time": 564.999435000025,
          "velocity": 1,
          "duration": 0.08333325000000968
        },
        {
          "name": "C5",
          "midi": 72,
          "time": 564.999435000025,
          "velocity": 1,
          "duration": 0.08333325000000968
        },
        {
          "name": "E4",
          "midi": 64,
          "time": 564.999435000025,
          "velocity": 1,
          "duration": 0.08333325000000968
        },
        {
          "name": "G3",
          "midi": 55,
          "time": 564.999435000025,
          "velocity": 1,
          "duration": 0.08333325000000968
        },
        {
          "name": "C3",
          "midi": 48,
          "time": 565.082768250025,
          "velocity": 1,
          "duration": 0.08333325000000968
        },
        {
          "name": "G3",
          "midi": 55,
          "time": 565.082768250025,
          "velocity": 1,
          "duration": 0.08333325000000968
        },
        {
          "name": "E4",
          "midi": 64,
          "time": 565.082768250025,
          "velocity": 1,
          "duration": 0.08333325000000968
        },
        {
          "name": "C5",
          "midi": 72,
          "time": 565.082768250025,
          "velocity": 1,
          "duration": 0.08333325000000968
        },
        {
          "name": "C2",
          "midi": 36,
          "time": 565.082768250025,
          "velocity": 1,
          "duration": 0.08333325000000968
        },
        {
          "name": "G2",
          "midi": 43,
          "time": 565.082768250025,
          "velocity": 1,
          "duration": 0.08333325000000968
        },
        {
          "name": "G2",
          "midi": 43,
          "time": 565.166101500025,
          "velocity": 1,
          "duration": 0.08333325000000968
        },
        {
          "name": "C2",
          "midi": 36,
          "time": 565.166101500025,
          "velocity": 1,
          "duration": 0.08333325000000968
        },
        {
          "name": "C3",
          "midi": 48,
          "time": 565.166101500025,
          "velocity": 1,
          "duration": 0.08333325000000968
        },
        {
          "name": "C5",
          "midi": 72,
          "time": 565.166101500025,
          "velocity": 1,
          "duration": 0.08333325000000968
        },
        {
          "name": "E4",
          "midi": 64,
          "time": 565.166101500025,
          "velocity": 1,
          "duration": 0.08333325000000968
        },
        {
          "name": "G3",
          "midi": 55,
          "time": 565.166101500025,
          "velocity": 1,
          "duration": 0.08333325000000968
        },
        {
          "name": "C3",
          "midi": 48,
          "time": 565.249434750025,
          "velocity": 1,
          "duration": 0.08333325000000968
        },
        {
          "name": "G3",
          "midi": 55,
          "time": 565.249434750025,
          "velocity": 1,
          "duration": 0.08333325000000968
        },
        {
          "name": "E4",
          "midi": 64,
          "time": 565.249434750025,
          "velocity": 1,
          "duration": 0.08333325000000968
        },
        {
          "name": "C5",
          "midi": 72,
          "time": 565.249434750025,
          "velocity": 1,
          "duration": 0.08333325000000968
        },
        {
          "name": "C2",
          "midi": 36,
          "time": 565.249434750025,
          "velocity": 1,
          "duration": 0.08333325000000968
        },
        {
          "name": "G2",
          "midi": 43,
          "time": 565.249434750025,
          "velocity": 1,
          "duration": 0.08333325000000968
        },
        {
          "name": "G2",
          "midi": 43,
          "time": 565.332768000025,
          "velocity": 1,
          "duration": 0.08333325000000968
        },
        {
          "name": "C2",
          "midi": 36,
          "time": 565.332768000025,
          "velocity": 1,
          "duration": 0.08333325000000968
        },
        {
          "name": "C3",
          "midi": 48,
          "time": 565.332768000025,
          "velocity": 1,
          "duration": 0.08333325000000968
        },
        {
          "name": "C5",
          "midi": 72,
          "time": 565.332768000025,
          "velocity": 1,
          "duration": 0.08333325000000968
        },
        {
          "name": "E4",
          "midi": 64,
          "time": 565.332768000025,
          "velocity": 1,
          "duration": 0.08333325000000968
        },
        {
          "name": "G3",
          "midi": 55,
          "time": 565.332768000025,
          "velocity": 1,
          "duration": 0.08333325000000968
        },
        {
          "name": "C3",
          "midi": 48,
          "time": 565.416101250025,
          "velocity": 1,
          "duration": 0.08333325000000968
        },
        {
          "name": "G3",
          "midi": 55,
          "time": 565.416101250025,
          "velocity": 1,
          "duration": 0.08333325000000968
        },
        {
          "name": "E4",
          "midi": 64,
          "time": 565.416101250025,
          "velocity": 1,
          "duration": 0.08333325000000968
        },
        {
          "name": "C5",
          "midi": 72,
          "time": 565.416101250025,
          "velocity": 1,
          "duration": 0.08333325000000968
        },
        {
          "name": "C2",
          "midi": 36,
          "time": 565.416101250025,
          "velocity": 1,
          "duration": 0.08333325000000968
        },
        {
          "name": "G2",
          "midi": 43,
          "time": 565.416101250025,
          "velocity": 1,
          "duration": 0.08333325000000968
        },
        {
          "name": "G2",
          "midi": 43,
          "time": 565.499434500025,
          "velocity": 1,
          "duration": 0.08333325000000968
        },
        {
          "name": "C2",
          "midi": 36,
          "time": 565.499434500025,
          "velocity": 1,
          "duration": 0.08333325000000968
        },
        {
          "name": "C3",
          "midi": 48,
          "time": 565.499434500025,
          "velocity": 1,
          "duration": 0.08333325000000968
        },
        {
          "name": "C5",
          "midi": 72,
          "time": 565.499434500025,
          "velocity": 1,
          "duration": 0.08333325000000968
        },
        {
          "name": "E4",
          "midi": 64,
          "time": 565.499434500025,
          "velocity": 1,
          "duration": 0.08333325000000968
        },
        {
          "name": "G3",
          "midi": 55,
          "time": 565.499434500025,
          "velocity": 1,
          "duration": 0.08333325000000968
        },
        {
          "name": "C3",
          "midi": 48,
          "time": 565.582767750025,
          "velocity": 1,
          "duration": 0.08333325000000968
        },
        {
          "name": "G3",
          "midi": 55,
          "time": 565.582767750025,
          "velocity": 1,
          "duration": 0.08333325000000968
        },
        {
          "name": "E4",
          "midi": 64,
          "time": 565.582767750025,
          "velocity": 1,
          "duration": 0.08333325000000968
        },
        {
          "name": "C5",
          "midi": 72,
          "time": 565.582767750025,
          "velocity": 1,
          "duration": 0.08333325000000968
        },
        {
          "name": "C2",
          "midi": 36,
          "time": 565.582767750025,
          "velocity": 1,
          "duration": 0.08333325000000968
        },
        {
          "name": "G2",
          "midi": 43,
          "time": 565.582767750025,
          "velocity": 1,
          "duration": 0.08333325000000968
        },
        {
          "name": "G2",
          "midi": 43,
          "time": 565.666101000025,
          "velocity": 1,
          "duration": 0.08333325000000968
        },
        {
          "name": "C2",
          "midi": 36,
          "time": 565.666101000025,
          "velocity": 1,
          "duration": 0.08333325000000968
        },
        {
          "name": "C3",
          "midi": 48,
          "time": 565.666101000025,
          "velocity": 1,
          "duration": 0.08333325000000968
        },
        {
          "name": "G4",
          "midi": 67,
          "time": 565.666101000025,
          "velocity": 1,
          "duration": 0.08333325000000968
        },
        {
          "name": "C5",
          "midi": 72,
          "time": 565.666101000025,
          "velocity": 1,
          "duration": 0.08333325000000968
        },
        {
          "name": "E4",
          "midi": 64,
          "time": 565.666101000025,
          "velocity": 1,
          "duration": 0.08333325000000968
        },
        {
          "name": "G3",
          "midi": 55,
          "time": 565.666101000025,
          "velocity": 1,
          "duration": 0.08333325000000968
        },
        {
          "name": "C3",
          "midi": 48,
          "time": 565.749434250025,
          "velocity": 1,
          "duration": 0.08333325000000968
        },
        {
          "name": "G3",
          "midi": 55,
          "time": 565.749434250025,
          "velocity": 1,
          "duration": 0.08333325000000968
        },
        {
          "name": "E4",
          "midi": 64,
          "time": 565.749434250025,
          "velocity": 1,
          "duration": 0.08333325000000968
        },
        {
          "name": "C5",
          "midi": 72,
          "time": 565.749434250025,
          "velocity": 1,
          "duration": 0.08333325000000968
        },
        {
          "name": "G4",
          "midi": 67,
          "time": 565.749434250025,
          "velocity": 1,
          "duration": 0.08333325000000968
        },
        {
          "name": "C2",
          "midi": 36,
          "time": 565.749434250025,
          "velocity": 1,
          "duration": 0.08333325000000968
        },
        {
          "name": "G2",
          "midi": 43,
          "time": 565.749434250025,
          "velocity": 1,
          "duration": 0.08333325000000968
        },
        {
          "name": "G2",
          "midi": 43,
          "time": 565.832767500025,
          "velocity": 1,
          "duration": 0.08333325000000968
        },
        {
          "name": "C2",
          "midi": 36,
          "time": 565.832767500025,
          "velocity": 1,
          "duration": 0.08333325000000968
        },
        {
          "name": "C3",
          "midi": 48,
          "time": 565.832767500025,
          "velocity": 1,
          "duration": 0.08333325000000968
        },
        {
          "name": "G4",
          "midi": 67,
          "time": 565.832767500025,
          "velocity": 1,
          "duration": 0.08333325000000968
        },
        {
          "name": "C5",
          "midi": 72,
          "time": 565.832767500025,
          "velocity": 1,
          "duration": 0.08333325000000968
        },
        {
          "name": "E4",
          "midi": 64,
          "time": 565.832767500025,
          "velocity": 1,
          "duration": 0.08333325000000968
        },
        {
          "name": "G3",
          "midi": 55,
          "time": 565.832767500025,
          "velocity": 1,
          "duration": 0.08333325000000968
        },
        {
          "name": "C3",
          "midi": 48,
          "time": 565.9161007500251,
          "velocity": 1,
          "duration": 0.08333325000000968
        },
        {
          "name": "G3",
          "midi": 55,
          "time": 565.9161007500251,
          "velocity": 1,
          "duration": 0.08333325000000968
        },
        {
          "name": "E4",
          "midi": 64,
          "time": 565.9161007500251,
          "velocity": 1,
          "duration": 0.08333325000000968
        },
        {
          "name": "C5",
          "midi": 72,
          "time": 565.9161007500251,
          "velocity": 1,
          "duration": 0.08333325000000968
        },
        {
          "name": "G4",
          "midi": 67,
          "time": 565.9161007500251,
          "velocity": 1,
          "duration": 0.08333325000000968
        },
        {
          "name": "C2",
          "midi": 36,
          "time": 565.9161007500251,
          "velocity": 1,
          "duration": 0.08333325000000968
        },
        {
          "name": "G2",
          "midi": 43,
          "time": 565.9161007500251,
          "velocity": 1,
          "duration": 0.08333325000000968
        },
        {
          "name": "C3",
          "midi": 48,
          "time": 565.9994340000251,
          "velocity": 1,
          "duration": 5.999994000000356
        },
        {
          "name": "E4",
          "midi": 64,
          "time": 565.9994340000251,
          "velocity": 1,
          "duration": 0.33333300000003874
        },
        {
          "name": "C5",
          "midi": 72,
          "time": 565.9994340000251,
          "velocity": 1,
          "duration": 2.333331000000044
        },
        {
          "name": "C4",
          "midi": 60,
          "time": 566.9994330000251,
          "velocity": 1,
          "duration": 1.66666500000008
        },
        {
          "name": "E4",
          "midi": 64,
          "time": 568.6660980000252,
          "velocity": 1,
          "duration": 0.33333300000003874
        },
        {
          "name": "C4",
          "midi": 60,
          "time": 568.9994310000252,
          "velocity": 1,
          "duration": 0.6666659999999638
        },
        {
          "name": "G3",
          "midi": 55,
          "time": 569.6660970000252,
          "velocity": 1,
          "duration": 0.33333300000003874
        },
        {
          "name": "C4",
          "midi": 60,
          "time": 569.9994300000252,
          "velocity": 1,
          "duration": 0.6666660000000775
        },
        {
          "name": "G5",
          "midi": 79,
          "time": 570.1660965000252,
          "velocity": 1,
          "duration": 0.08333325000000968
        },
        {
          "name": "F#5",
          "midi": 78,
          "time": 570.2494297500252,
          "velocity": 1,
          "duration": 0.08333325000000968
        },
        {
          "name": "G5",
          "midi": 79,
          "time": 570.3327630000252,
          "velocity": 1,
          "duration": 0.16666650000001937
        },
        {
          "name": "G5",
          "midi": 79,
          "time": 570.4994295000253,
          "velocity": 1,
          "duration": 0.16666650000001937
        },
        {
          "name": "G5",
          "midi": 79,
          "time": 570.6660960000253,
          "velocity": 1,
          "duration": 0.16666650000001937
        },
        {
          "name": "E4",
          "midi": 64,
          "time": 570.6660960000253,
          "velocity": 1,
          "duration": 0.33333300000003874
        },
        {
          "name": "G5",
          "midi": 79,
          "time": 570.8327625000253,
          "velocity": 1,
          "duration": 0.16666650000001937
        },
        {
          "name": "C4",
          "midi": 60,
          "time": 570.9994290000253,
          "velocity": 1,
          "duration": 0.6666660000000775
        },
        {
          "name": "G5",
          "midi": 79,
          "time": 571.1660955000253,
          "velocity": 1,
          "duration": 0.08333325000000968
        },
        {
          "name": "F#5",
          "midi": 78,
          "time": 571.2494287500253,
          "velocity": 1,
          "duration": 0.08333325000000968
        },
        {
          "name": "G5",
          "midi": 79,
          "time": 571.3327620000254,
          "velocity": 1,
          "duration": 0.16666650000001937
        },
        {
          "name": "G5",
          "midi": 79,
          "time": 571.4994285000254,
          "velocity": 1,
          "duration": 0.16666650000001937
        },
        {
          "name": "G5",
          "midi": 79,
          "time": 571.6660950000254,
          "velocity": 1,
          "duration": 0.16666650000001937
        },
        {
          "name": "G3",
          "midi": 55,
          "time": 571.6660950000254,
          "velocity": 1,
          "duration": 0.33333300000003874
        },
        {
          "name": "G5",
          "midi": 79,
          "time": 571.8327615000254,
          "velocity": 1,
          "duration": 0.16666650000001937
        },
        {
          "name": "G3",
          "midi": 55,
          "time": 571.9994280000254,
          "velocity": 1,
          "duration": 4.666662000000542
        },
        {
          "name": "D4",
          "midi": 62,
          "time": 571.9994280000254,
          "velocity": 1,
          "duration": 0.6666660000000775
        },
        {
          "name": "B2",
          "midi": 47,
          "time": 571.9994280000254,
          "velocity": 1,
          "duration": 3.999996000000465
        },
        {
          "name": "G5",
          "midi": 79,
          "time": 572.1660945000255,
          "velocity": 1,
          "duration": 0.08333325000000968
        },
        {
          "name": "F#5",
          "midi": 78,
          "time": 572.2494277500255,
          "velocity": 1,
          "duration": 0.08333325000000968
        },
        {
          "name": "G5",
          "midi": 79,
          "time": 572.3327610000255,
          "velocity": 1,
          "duration": 0.16666650000001937
        },
        {
          "name": "A5",
          "midi": 81,
          "time": 572.4994275000255,
          "velocity": 1,
          "duration": 0.16666650000001937
        },
        {
          "name": "B5",
          "midi": 83,
          "time": 572.6660940000255,
          "velocity": 1,
          "duration": 0.16666650000001937
        },
        {
          "name": "F4",
          "midi": 65,
          "time": 572.6660940000255,
          "velocity": 1,
          "duration": 0.33333300000003874
        },
        {
          "name": "C6",
          "midi": 84,
          "time": 572.8327605000255,
          "velocity": 1,
          "duration": 0.16666650000001937
        },
        {
          "name": "D6",
          "midi": 86,
          "time": 572.9994270000255,
          "velocity": 1,
          "duration": 0.16666650000001937
        },
        {
          "name": "D4",
          "midi": 62,
          "time": 572.9994270000255,
          "velocity": 1,
          "duration": 0.6666660000000775
        },
        {
          "name": "E6",
          "midi": 88,
          "time": 573.1660935000256,
          "velocity": 1,
          "duration": 0.16666650000001937
        },
        {
          "name": "F6",
          "midi": 89,
          "time": 573.3327600000256,
          "velocity": 1,
          "duration": 0.16666650000001937
        },
        {
          "name": "E6",
          "midi": 88,
          "time": 573.4994265000256,
          "velocity": 1,
          "duration": 0.16666650000001937
        },
        {
          "name": "D6",
          "midi": 86,
          "time": 573.6660930000256,
          "velocity": 1,
          "duration": 0.16666650000001937
        },
        {
          "name": "C6",
          "midi": 84,
          "time": 573.8327595000256,
          "velocity": 1,
          "duration": 0.16666650000001937
        },
        {
          "name": "D4",
          "midi": 62,
          "time": 573.9994260000257,
          "velocity": 1,
          "duration": 0.6666660000000775
        },
        {
          "name": "B5",
          "midi": 83,
          "time": 573.9994260000257,
          "velocity": 1,
          "duration": 0.16666650000001937
        },
        {
          "name": "C6",
          "midi": 84,
          "time": 574.1660925000257,
          "velocity": 1,
          "duration": 0.16666650000001937
        },
        {
          "name": "D6",
          "midi": 86,
          "time": 574.3327590000257,
          "velocity": 1,
          "duration": 0.16666650000001937
        },
        {
          "name": "C6",
          "midi": 84,
          "time": 574.4994255000257,
          "velocity": 1,
          "duration": 0.16666650000001937
        },
        {
          "name": "B5",
          "midi": 83,
          "time": 574.6660920000257,
          "velocity": 1,
          "duration": 0.16666650000001937
        },
        {
          "name": "F4",
          "midi": 65,
          "time": 574.6660920000257,
          "velocity": 1,
          "duration": 0.33333300000003874
        },
        {
          "name": "A5",
          "midi": 81,
          "time": 574.8327585000258,
          "velocity": 1,
          "duration": 0.16666650000001937
        },
        {
          "name": "D4",
          "midi": 62,
          "time": 574.9994250000258,
          "velocity": 1,
          "duration": 0.6666660000000775
        },
        {
          "name": "G5",
          "midi": 79,
          "time": 574.9994250000258,
          "velocity": 1,
          "duration": 0.16666650000001937
        },
        {
          "name": "F#5",
          "midi": 78,
          "time": 575.1660915000258,
          "velocity": 1,
          "duration": 0.16666650000001937
        },
        {
          "name": "G5",
          "midi": 79,
          "time": 575.3327580000258,
          "velocity": 1,
          "duration": 0.16666650000001937
        },
        {
          "name": "F5",
          "midi": 77,
          "time": 575.4994245000258,
          "velocity": 1,
          "duration": 0.16666650000001937
        },
        {
          "name": "E5",
          "midi": 76,
          "time": 575.6660910000259,
          "velocity": 1,
          "duration": 0.16666650000001937
        },
        {
          "name": "D5",
          "midi": 74,
          "time": 575.8327575000259,
          "velocity": 1,
          "duration": 0.16666650000001937
        },
        {
          "name": "A#2",
          "midi": 46,
          "time": 575.9994240000259,
          "velocity": 1,
          "duration": 0.9999990000001162
        },
        {
          "name": "E4",
          "midi": 64,
          "time": 575.9994240000259,
          "velocity": 1,
          "duration": 0.6666660000000775
        },
        {
          "name": "C5",
          "midi": 72,
          "time": 576.1660905000259,
          "velocity": 1,
          "duration": 0.08333325000000968
        },
        {
          "name": "B4",
          "midi": 71,
          "time": 576.2494237500259,
          "velocity": 1,
          "duration": 0.08333325000000968
        },
        {
          "name": "C5",
          "midi": 72,
          "time": 576.3327570000259,
          "velocity": 1,
          "duration": 0.16666650000001937
        },
        {
          "name": "E5",
          "midi": 76,
          "time": 576.499423500026,
          "velocity": 1,
          "duration": 0.16666650000001937
        },
        {
          "name": "G5",
          "midi": 79,
          "time": 576.666090000026,
          "velocity": 1,
          "duration": 0.16666650000001937
        },
        {
          "name": "G4",
          "midi": 67,
          "time": 576.666090000026,
          "velocity": 1,
          "duration": 0.33333300000003874
        },
        {
          "name": "C3",
          "midi": 48,
          "time": 576.666090000026,
          "velocity": 1,
          "duration": 0.33333300000003874
        },
        {
          "name": "E5",
          "midi": 76,
          "time": 576.832756500026,
          "velocity": 1,
          "duration": 0.16666650000001937
        },
        {
          "name": "A#3",
          "midi": 58,
          "time": 576.999423000026,
          "velocity": 1,
          "duration": 0.9999990000001162
        },
        {
          "name": "C6",
          "midi": 84,
          "time": 576.999423000026,
          "velocity": 1,
          "duration": 0.16666650000001937
        },
        {
          "name": "E4",
          "midi": 64,
          "time": 576.999423000026,
          "velocity": 1,
          "duration": 0.6666660000000775
        },
        {
          "name": "E3",
          "midi": 52,
          "time": 576.999423000026,
          "velocity": 1,
          "duration": 0.6666660000000775
        },
        {
          "name": "G5",
          "midi": 79,
          "time": 577.166089500026,
          "velocity": 1,
          "duration": 0.16666650000001937
        },
        {
          "name": "E5",
          "midi": 76,
          "time": 577.332756000026,
          "velocity": 1,
          "duration": 0.16666650000001937
        },
        {
          "name": "G5",
          "midi": 79,
          "time": 577.4994225000261,
          "velocity": 1,
          "duration": 0.16666650000001937
        },
        {
          "name": "G3",
          "midi": 55,
          "time": 577.6660890000261,
          "velocity": 1,
          "duration": 0.33333300000003874
        },
        {
          "name": "C4",
          "midi": 60,
          "time": 577.6660890000261,
          "velocity": 1,
          "duration": 0.33333300000003874
        },
        {
          "name": "E5",
          "midi": 76,
          "time": 577.6660890000261,
          "velocity": 1,
          "duration": 0.16666650000001937
        },
        {
          "name": "C5",
          "midi": 72,
          "time": 577.8327555000261,
          "velocity": 1,
          "duration": 0.16666650000001937
        },
        {
          "name": "G#3",
          "midi": 56,
          "time": 577.9994220000261,
          "velocity": 1,
          "duration": 1.9999980000002324
        },
        {
          "name": "F4",
          "midi": 65,
          "time": 577.9994220000261,
          "velocity": 1,
          "duration": 0.6666660000000775
        },
        {
          "name": "C5",
          "midi": 72,
          "time": 578.1660885000261,
          "velocity": 1,
          "duration": 0.08333325000000968
        },
        {
          "name": "B4",
          "midi": 71,
          "time": 578.2494217500262,
          "velocity": 1,
          "duration": 0.08333325000000968
        },
        {
          "name": "C5",
          "midi": 72,
          "time": 578.3327550000262,
          "velocity": 1,
          "duration": 0.16666650000001937
        },
        {
          "name": "F5",
          "midi": 77,
          "time": 578.4994215000262,
          "velocity": 1,
          "duration": 0.16666650000001937
        },
        {
          "name": "G#5",
          "midi": 80,
          "time": 578.6660880000262,
          "velocity": 1,
          "duration": 0.16666650000001937
        },
        {
          "name": "G#4",
          "midi": 68,
          "time": 578.6660880000262,
          "velocity": 1,
          "duration": 0.33333300000003874
        },
        {
          "name": "C3",
          "midi": 48,
          "time": 578.6660880000262,
          "velocity": 1,
          "duration": 0.33333300000003874
        },
        {
          "name": "F5",
          "midi": 77,
          "time": 578.8327545000262,
          "velocity": 1,
          "duration": 0.16666650000001937
        },
        {
          "name": "F3",
          "midi": 53,
          "time": 578.9994210000262,
          "velocity": 1,
          "duration": 0.6666660000000775
        },
        {
          "name": "F4",
          "midi": 65,
          "time": 578.9994210000262,
          "velocity": 1,
          "duration": 0.6666660000000775
        },
        {
          "name": "C6",
          "midi": 84,
          "time": 578.9994210000262,
          "velocity": 1,
          "duration": 0.16666650000001937
        },
        {
          "name": "G#5",
          "midi": 80,
          "time": 579.1660875000263,
          "velocity": 1,
          "duration": 0.16666650000001937
        },
        {
          "name": "F5",
          "midi": 77,
          "time": 579.3327540000263,
          "velocity": 1,
          "duration": 0.16666650000001937
        },
        {
          "name": "G#5",
          "midi": 80,
          "time": 579.4994205000263,
          "velocity": 1,
          "duration": 0.16666650000001937
        },
        {
          "name": "C4",
          "midi": 60,
          "time": 579.6660870000263,
          "velocity": 1,
          "duration": 0.33333300000003874
        },
        {
          "name": "F5",
          "midi": 77,
          "time": 579.6660870000263,
          "velocity": 1,
          "duration": 0.16666650000001937
        },
        {
          "name": "C5",
          "midi": 72,
          "time": 579.8327535000263,
          "velocity": 1,
          "duration": 0.16666650000001937
        },
        {
          "name": "E3",
          "midi": 52,
          "time": 579.9994200000264,
          "velocity": 1,
          "duration": 0.33333300000003874
        },
        {
          "name": "G4",
          "midi": 67,
          "time": 579.9994200000264,
          "velocity": 1,
          "duration": 0.33333300000003874
        },
        {
          "name": "C4",
          "midi": 60,
          "time": 579.9994200000264,
          "velocity": 1,
          "duration": 0.33333300000003874
        },
        {
          "name": "C3",
          "midi": 48,
          "time": 579.9994200000264,
          "velocity": 1,
          "duration": 0.33333300000003874
        },
        {
          "name": "A#5",
          "midi": 82,
          "time": 580.1660865000264,
          "velocity": 1,
          "duration": 0.16666650000001937
        },
        {
          "name": "C6",
          "midi": 84,
          "time": 580.3327530000264,
          "velocity": 1,
          "duration": 0.16666650000001937
        },
        {
          "name": "C#6",
          "midi": 85,
          "time": 580.4994195000264,
          "velocity": 1,
          "duration": 0.16666650000001937
        },
        {
          "name": "G5",
          "midi": 79,
          "time": 580.6660860000264,
          "velocity": 1,
          "duration": 0.16666650000001937
        },
        {
          "name": "G#5",
          "midi": 80,
          "time": 580.8327525000265,
          "velocity": 1,
          "duration": 0.16666650000001937
        },
        {
          "name": "A#5",
          "midi": 82,
          "time": 580.9994190000265,
          "velocity": 1,
          "duration": 0.16666650000001937
        },
        {
          "name": "E5",
          "midi": 76,
          "time": 581.1660855000265,
          "velocity": 1,
          "duration": 0.16666650000001937
        },
        {
          "name": "F5",
          "midi": 77,
          "time": 581.3327520000265,
          "velocity": 1,
          "duration": 0.16666650000001937
        },
        {
          "name": "G5",
          "midi": 79,
          "time": 581.4994185000265,
          "velocity": 1,
          "duration": 0.16666650000001937
        },
        {
          "name": "A#4",
          "midi": 70,
          "time": 581.6660850000266,
          "velocity": 1,
          "duration": 0.16666650000001937
        },
        {
          "name": "C5",
          "midi": 72,
          "time": 581.8327515000266,
          "velocity": 1,
          "duration": 0.16666650000001937
        },
        {
          "name": "C#5",
          "midi": 73,
          "time": 581.9994180000266,
          "velocity": 1,
          "duration": 0.16666650000001937
        },
        {
          "name": "C5",
          "midi": 72,
          "time": 582.1660845000266,
          "velocity": 1,
          "duration": 0.16666650000001937
        },
        {
          "name": "G#3",
          "midi": 56,
          "time": 582.1660845000266,
          "velocity": 1,
          "duration": 0.16666650000001937
        },
        {
          "name": "A#4",
          "midi": 70,
          "time": 582.3327510000266,
          "velocity": 1,
          "duration": 0.16666650000001937
        },
        {
          "name": "G3",
          "midi": 55,
          "time": 582.3327510000266,
          "velocity": 1,
          "duration": 0.16666650000001937
        },
        {
          "name": "G#4",
          "midi": 68,
          "time": 582.4994175000267,
          "velocity": 1,
          "duration": 0.16666650000001937
        },
        {
          "name": "G#3",
          "midi": 56,
          "time": 582.4994175000267,
          "velocity": 1,
          "duration": 0.16666650000001937
        },
        {
          "name": "A#3",
          "midi": 58,
          "time": 582.6660840000267,
          "velocity": 1,
          "duration": 0.16666650000001937
        },
        {
          "name": "G4",
          "midi": 67,
          "time": 582.6660840000267,
          "velocity": 1,
          "duration": 0.16666650000001937
        },
        {
          "name": "F4",
          "midi": 65,
          "time": 582.8327505000267,
          "velocity": 1,
          "duration": 0.16666650000001937
        },
        {
          "name": "B3",
          "midi": 59,
          "time": 582.8327505000267,
          "velocity": 1,
          "duration": 0.16666650000001937
        },
        {
          "name": "E4",
          "midi": 64,
          "time": 582.9994170000267,
          "velocity": 1,
          "duration": 0.16666650000001937
        },
        {
          "name": "C4",
          "midi": 60,
          "time": 582.9994170000267,
          "velocity": 1,
          "duration": 0.16666650000001937
        },
        {
          "name": "G4",
          "midi": 67,
          "time": 583.1660835000267,
          "velocity": 1,
          "duration": 0.16666650000001937
        },
        {
          "name": "B3",
          "midi": 59,
          "time": 583.1660835000267,
          "velocity": 1,
          "duration": 0.16666650000001937
        },
        {
          "name": "C3",
          "midi": 48,
          "time": 583.3327500000267,
          "velocity": 1,
          "duration": 0.33333300000003874
        },
        {
          "name": "C5",
          "midi": 72,
          "time": 583.3327500000267,
          "velocity": 1,
          "duration": 0.16666650000001937
        },
        {
          "name": "C4",
          "midi": 60,
          "time": 583.3327500000267,
          "velocity": 1,
          "duration": 0.16666650000001937
        },
        {
          "name": "A#4",
          "midi": 70,
          "time": 583.4994165000268,
          "velocity": 1,
          "duration": 0.16666650000001937
        },
        {
          "name": "D4",
          "midi": 62,
          "time": 583.4994165000268,
          "velocity": 1,
          "duration": 0.16666650000001937
        },
        {
          "name": "D#4",
          "midi": 63,
          "time": 583.6660830000268,
          "velocity": 1,
          "duration": 0.16666650000001937
        },
        {
          "name": "G#4",
          "midi": 68,
          "time": 583.6660830000268,
          "velocity": 1,
          "duration": 0.16666650000001937
        },
        {
          "name": "C3",
          "midi": 48,
          "time": 583.6660830000268,
          "velocity": 1,
          "duration": 0.33333300000003874
        },
        {
          "name": "G4",
          "midi": 67,
          "time": 583.8327495000268,
          "velocity": 1,
          "duration": 0.16666650000001937
        },
        {
          "name": "E4",
          "midi": 64,
          "time": 583.8327495000268,
          "velocity": 1,
          "duration": 0.16666650000001937
        },
        {
          "name": "F3",
          "midi": 53,
          "time": 583.9994160000268,
          "velocity": 1,
          "duration": 0.33333300000003874
        },
        {
          "name": "F4",
          "midi": 65,
          "time": 583.9994160000268,
          "velocity": 1,
          "duration": 0.33333300000003874
        },
        {
          "name": "C5",
          "midi": 72,
          "time": 584.1660825000268,
          "velocity": 1,
          "duration": 0.33333300000003874
        },
        {
          "name": "G#4",
          "midi": 68,
          "time": 584.3327490000269,
          "velocity": 1,
          "duration": 0.33333300000003874
        },
        {
          "name": "F4",
          "midi": 65,
          "time": 584.3327490000269,
          "velocity": 1,
          "duration": 0.33333300000003874
        },
        {
          "name": "C5",
          "midi": 72,
          "time": 584.4994155000269,
          "velocity": 1,
          "duration": 0.33333300000003874
        },
        {
          "name": "A#4",
          "midi": 70,
          "time": 584.6660820000269,
          "velocity": 1,
          "duration": 0.33333300000003874
        },
        {
          "name": "G4",
          "midi": 67,
          "time": 584.6660820000269,
          "velocity": 1,
          "duration": 0.33333300000003874
        },
        {
          "name": "C5",
          "midi": 72,
          "time": 584.8327485000269,
          "velocity": 1,
          "duration": 0.6666660000000775
        },
        {
          "name": "G#4",
          "midi": 68,
          "time": 584.9994150000269,
          "velocity": 1,
          "duration": 0.4999995000000581
        },
        {
          "name": "F3",
          "midi": 53,
          "time": 585.332748000027,
          "velocity": 1,
          "duration": 0.33333300000003874
        },
        {
          "name": "C5",
          "midi": 72,
          "time": 585.499414500027,
          "velocity": 1,
          "duration": 0.33333300000003874
        },
        {
          "name": "A#4",
          "midi": 70,
          "time": 585.499414500027,
          "velocity": 1,
          "duration": 0.16666650000001937
        },
        {
          "name": "G4",
          "midi": 67,
          "time": 585.499414500027,
          "velocity": 1,
          "duration": 0.16666650000001937
        },
        {
          "name": "F3",
          "midi": 53,
          "time": 585.666081000027,
          "velocity": 1,
          "duration": 0.33333300000003874
        },
        {
          "name": "G#4",
          "midi": 68,
          "time": 585.666081000027,
          "velocity": 1,
          "duration": 0.33333300000003874
        },
        {
          "name": "F4",
          "midi": 65,
          "time": 585.666081000027,
          "velocity": 1,
          "duration": 0.33333300000003874
        },
        {
          "name": "C5",
          "midi": 72,
          "time": 585.832747500027,
          "velocity": 1,
          "duration": 0.33333300000003874
        },
        {
          "name": "E4",
          "midi": 64,
          "time": 585.9994140000271,
          "velocity": 1,
          "duration": 0.33333300000003874
        },
        {
          "name": "G4",
          "midi": 67,
          "time": 585.9994140000271,
          "velocity": 1,
          "duration": 0.33333300000003874
        },
        {
          "name": "C3",
          "midi": 48,
          "time": 585.9994140000271,
          "velocity": 1,
          "duration": 0.33333300000003874
        },
        {
          "name": "C6",
          "midi": 84,
          "time": 586.1660805000271,
          "velocity": 1,
          "duration": 0.33333300000003874
        },
        {
          "name": "G4",
          "midi": 67,
          "time": 586.3327470000271,
          "velocity": 1,
          "duration": 0.33333300000003874
        },
        {
          "name": "D#4",
          "midi": 63,
          "time": 586.3327470000271,
          "velocity": 1,
          "duration": 0.33333300000003874
        },
        {
          "name": "C6",
          "midi": 84,
          "time": 586.4994135000271,
          "velocity": 1,
          "duration": 0.33333300000003874
        },
        {
          "name": "F4",
          "midi": 65,
          "time": 586.6660800000271,
          "velocity": 1,
          "duration": 0.33333300000003874
        },
        {
          "name": "D4",
          "midi": 62,
          "time": 586.6660800000271,
          "velocity": 1,
          "duration": 0.33333300000003874
        },
        {
          "name": "C6",
          "midi": 84,
          "time": 586.8327465000272,
          "velocity": 1,
          "duration": 0.33333300000003874
        },
        {
          "name": "E4",
          "midi": 64,
          "time": 586.9994130000272,
          "velocity": 1,
          "duration": 0.6666660000000775
        },
        {
          "name": "C4",
          "midi": 60,
          "time": 586.9994130000272,
          "velocity": 1,
          "duration": 0.6666660000000775
        },
        {
          "name": "C6",
          "midi": 84,
          "time": 587.1660795000272,
          "velocity": 1,
          "duration": 0.33333300000003874
        },
        {
          "name": "C3",
          "midi": 48,
          "time": 587.3327460000272,
          "velocity": 1,
          "duration": 0.33333300000003874
        },
        {
          "name": "C6",
          "midi": 84,
          "time": 587.4994125000272,
          "velocity": 1,
          "duration": 0.33333300000003874
        },
        {
          "name": "D4",
          "midi": 62,
          "time": 587.6660790000273,
          "velocity": 1,
          "duration": 0.16666650000001937
        },
        {
          "name": "F4",
          "midi": 65,
          "time": 587.6660790000273,
          "velocity": 1,
          "duration": 0.16666650000001937
        },
        {
          "name": "C3",
          "midi": 48,
          "time": 587.6660790000273,
          "velocity": 1,
          "duration": 0.33333300000003874
        },
        {
          "name": "C6",
          "midi": 84,
          "time": 587.8327455000273,
          "velocity": 1,
          "duration": 0.33333300000003874
        },
        {
          "name": "G4",
          "midi": 67,
          "time": 587.8327455000273,
          "velocity": 1,
          "duration": 0.16666650000001937
        },
        {
          "name": "D4",
          "midi": 62,
          "time": 587.8327455000273,
          "velocity": 1,
          "duration": 0.16666650000001937
        },
        {
          "name": "F3",
          "midi": 53,
          "time": 587.9994120000273,
          "velocity": 1,
          "duration": 0.33333300000003874
        },
        {
          "name": "G#4",
          "midi": 68,
          "time": 587.9994120000273,
          "velocity": 1,
          "duration": 0.33333300000003874
        },
        {
          "name": "F4",
          "midi": 65,
          "time": 587.9994120000273,
          "velocity": 1,
          "duration": 0.33333300000003874
        },
        {
          "name": "C5",
          "midi": 72,
          "time": 588.1660785000273,
          "velocity": 1,
          "duration": 0.33333300000003874
        },
        {
          "name": "G#4",
          "midi": 68,
          "time": 588.3327450000273,
          "velocity": 1,
          "duration": 0.33333300000003874
        },
        {
          "name": "F4",
          "midi": 65,
          "time": 588.3327450000273,
          "velocity": 1,
          "duration": 0.33333300000003874
        },
        {
          "name": "C5",
          "midi": 72,
          "time": 588.4994115000273,
          "velocity": 1,
          "duration": 0.33333300000003874
        },
        {
          "name": "A#4",
          "midi": 70,
          "time": 588.6660780000274,
          "velocity": 1,
          "duration": 0.33333300000003874
        },
        {
          "name": "G4",
          "midi": 67,
          "time": 588.6660780000274,
          "velocity": 1,
          "duration": 0.33333300000003874
        },
        {
          "name": "C5",
          "midi": 72,
          "time": 588.8327445000274,
          "velocity": 1,
          "duration": 0.6666660000000775
        },
        {
          "name": "G#4",
          "midi": 68,
          "time": 588.9994110000274,
          "velocity": 1,
          "duration": 0.4999995000000581
        },
        {
          "name": "F3",
          "midi": 53,
          "time": 589.3327440000274,
          "velocity": 1,
          "duration": 0.33333300000003874
        },
        {
          "name": "C5",
          "midi": 72,
          "time": 589.4994105000275,
          "velocity": 1,
          "duration": 0.33333300000003874
        },
        {
          "name": "A#4",
          "midi": 70,
          "time": 589.4994105000275,
          "velocity": 1,
          "duration": 0.16666650000001937
        },
        {
          "name": "G4",
          "midi": 67,
          "time": 589.4994105000275,
          "velocity": 1,
          "duration": 0.16666650000001937
        },
        {
          "name": "F3",
          "midi": 53,
          "time": 589.6660770000275,
          "velocity": 1,
          "duration": 0.33333300000003874
        },
        {
          "name": "G#4",
          "midi": 68,
          "time": 589.6660770000275,
          "velocity": 1,
          "duration": 0.33333300000003874
        },
        {
          "name": "F4",
          "midi": 65,
          "time": 589.6660770000275,
          "velocity": 1,
          "duration": 0.33333300000003874
        },
        {
          "name": "B4",
          "midi": 71,
          "time": 589.8327435000275,
          "velocity": 1,
          "duration": 0.16666650000001937
        },
        {
          "name": "F4",
          "midi": 65,
          "time": 589.9994100000275,
          "velocity": 1,
          "duration": 0.33333300000003874
        },
        {
          "name": "G#4",
          "midi": 68,
          "time": 589.9994100000275,
          "velocity": 1,
          "duration": 0.16666650000001937
        },
        {
          "name": "A#4",
          "midi": 70,
          "time": 589.9994100000275,
          "velocity": 1,
          "duration": 0.16666650000001937
        },
        {
          "name": "A#4",
          "midi": 70,
          "time": 590.1660765000275,
          "velocity": 1,
          "duration": 0.33333300000003874
        },
        {
          "name": "A#3",
          "midi": 58,
          "time": 590.1660765000275,
          "velocity": 1,
          "duration": 0.6666660000000775
        },
        {
          "name": "A#2",
          "midi": 46,
          "time": 590.3327430000276,
          "velocity": 1,
          "duration": 0.33333300000003874
        },
        {
          "name": "A#4",
          "midi": 70,
          "time": 590.4994095000276,
          "velocity": 1,
          "duration": 0.33333300000003874
        },
        {
          "name": "C3",
          "midi": 48,
          "time": 590.6660760000276,
          "velocity": 1,
          "duration": 0.33333300000003874
        },
        {
          "name": "C4",
          "midi": 60,
          "time": 590.6660760000276,
          "velocity": 1,
          "duration": 0.33333300000003874
        },
        {
          "name": "A#4",
          "midi": 70,
          "time": 590.8327425000276,
          "velocity": 1,
          "duration": 0.33333300000003874
        },
        {
          "name": "A#3",
          "midi": 58,
          "time": 590.8327425000276,
          "velocity": 1,
          "duration": 0.33333300000003874
        },
        {
          "name": "D4",
          "midi": 62,
          "time": 590.9994090000276,
          "velocity": 1,
          "duration": 0.4999995000000581
        },
        {
          "name": "D3",
          "midi": 50,
          "time": 590.9994090000276,
          "velocity": 1,
          "duration": 0.4999995000000581
        },
        {
          "name": "A#4",
          "midi": 70,
          "time": 591.1660755000277,
          "velocity": 1,
          "duration": 0.33333300000003874
        },
        {
          "name": "A#3",
          "midi": 58,
          "time": 591.1660755000277,
          "velocity": 1,
          "duration": 0.33333300000003874
        },
        {
          "name": "C4",
          "midi": 60,
          "time": 591.4994085000277,
          "velocity": 1,
          "duration": 0.16666650000001937
        },
        {
          "name": "A#3",
          "midi": 58,
          "time": 591.4994085000277,
          "velocity": 1,
          "duration": 0.6666660000000775
        },
        {
          "name": "A#4",
          "midi": 70,
          "time": 591.4994085000277,
          "velocity": 1,
          "duration": 0.33333300000003874
        },
        {
          "name": "C3",
          "midi": 48,
          "time": 591.4994085000277,
          "velocity": 1,
          "duration": 0.16666650000001937
        },
        {
          "name": "A#2",
          "midi": 46,
          "time": 591.6660750000277,
          "velocity": 1,
          "duration": 0.33333300000003874
        },
        {
          "name": "A#4",
          "midi": 70,
          "time": 591.8327415000277,
          "velocity": 1,
          "duration": 0.33333300000003874
        },
        {
          "name": "D#4",
          "midi": 63,
          "time": 591.9994080000278,
          "velocity": 1,
          "duration": 0.33333300000003874
        },
        {
          "name": "D#3",
          "midi": 51,
          "time": 591.9994080000278,
          "velocity": 1,
          "duration": 0.33333300000003874
        },
        {
          "name": "A#5",
          "midi": 82,
          "time": 592.1660745000278,
          "velocity": 1,
          "duration": 0.33333300000003874
        },
        {
          "name": "A#4",
          "midi": 70,
          "time": 592.1660745000278,
          "velocity": 1,
          "duration": 0.33333300000003874
        },
        {
          "name": "D#4",
          "midi": 63,
          "time": 592.3327410000278,
          "velocity": 1,
          "duration": 0.33333300000003874
        },
        {
          "name": "A#5",
          "midi": 82,
          "time": 592.4994075000278,
          "velocity": 1,
          "duration": 0.33333300000003874
        },
        {
          "name": "A#4",
          "midi": 70,
          "time": 592.4994075000278,
          "velocity": 1,
          "duration": 0.33333300000003874
        },
        {
          "name": "F4",
          "midi": 65,
          "time": 592.6660740000278,
          "velocity": 1,
          "duration": 0.33333300000003874
        },
        {
          "name": "A#5",
          "midi": 82,
          "time": 592.8327405000279,
          "velocity": 1,
          "duration": 0.33333300000003874
        },
        {
          "name": "A#4",
          "midi": 70,
          "time": 592.8327405000279,
          "velocity": 1,
          "duration": 0.33333300000003874
        },
        {
          "name": "F#4",
          "midi": 66,
          "time": 592.9994070000279,
          "velocity": 1,
          "duration": 0.4999995000000581
        },
        {
          "name": "A#5",
          "midi": 82,
          "time": 593.1660735000279,
          "velocity": 1,
          "duration": 0.33333300000003874
        },
        {
          "name": "A#4",
          "midi": 70,
          "time": 593.1660735000279,
          "velocity": 1,
          "duration": 0.33333300000003874
        },
        {
          "name": "D#4",
          "midi": 63,
          "time": 593.3327400000279,
          "velocity": 1,
          "duration": 0.33333300000003874
        },
        {
          "name": "D#3",
          "midi": 51,
          "time": 593.3327400000279,
          "velocity": 1,
          "duration": 0.33333300000003874
        },
        {
          "name": "F4",
          "midi": 65,
          "time": 593.4994065000279,
          "velocity": 1,
          "duration": 0.16666650000001937
        },
        {
          "name": "A#5",
          "midi": 82,
          "time": 593.4994065000279,
          "velocity": 1,
          "duration": 0.33333300000003874
        },
        {
          "name": "A#4",
          "midi": 70,
          "time": 593.4994065000279,
          "velocity": 1,
          "duration": 0.33333300000003874
        },
        {
          "name": "D#4",
          "midi": 63,
          "time": 593.666073000028,
          "velocity": 1,
          "duration": 0.33333300000003874
        },
        {
          "name": "D#3",
          "midi": 51,
          "time": 593.666073000028,
          "velocity": 1,
          "duration": 0.33333300000003874
        },
        {
          "name": "A#5",
          "midi": 82,
          "time": 593.832739500028,
          "velocity": 1,
          "duration": 0.33333300000003874
        },
        {
          "name": "A#4",
          "midi": 70,
          "time": 593.832739500028,
          "velocity": 1,
          "duration": 0.33333300000003874
        },
        {
          "name": "D4",
          "midi": 62,
          "time": 593.999406000028,
          "velocity": 1,
          "duration": 0.33333300000003874
        },
        {
          "name": "A#2",
          "midi": 46,
          "time": 593.999406000028,
          "velocity": 1,
          "duration": 0.33333300000003874
        },
        {
          "name": "A#3",
          "midi": 58,
          "time": 593.999406000028,
          "velocity": 1,
          "duration": 0.4999995000000581
        },
        {
          "name": "A#4",
          "midi": 70,
          "time": 594.166072500028,
          "velocity": 1,
          "duration": 0.33333300000003874
        },
        {
          "name": "C#4",
          "midi": 61,
          "time": 594.332739000028,
          "velocity": 1,
          "duration": 0.33333300000003874
        },
        {
          "name": "A#4",
          "midi": 70,
          "time": 594.499405500028,
          "velocity": 1,
          "duration": 0.33333300000003874
        },
        {
          "name": "A#3",
          "midi": 58,
          "time": 594.499405500028,
          "velocity": 1,
          "duration": 0.33333300000003874
        },
        {
          "name": "C4",
          "midi": 60,
          "time": 594.6660720000281,
          "velocity": 1,
          "duration": 0.33333300000003874
        },
        {
          "name": "A#4",
          "midi": 70,
          "time": 594.8327385000281,
          "velocity": 1,
          "duration": 0.33333300000003874
        },
        {
          "name": "A#3",
          "midi": 58,
          "time": 594.8327385000281,
          "velocity": 1,
          "duration": 1.333332000000155
        },
        {
          "name": "A#4",
          "midi": 70,
          "time": 595.1660715000281,
          "velocity": 1,
          "duration": 0.33333300000003874
        },
        {
          "name": "A#2",
          "midi": 46,
          "time": 595.3327380000281,
          "velocity": 1,
          "duration": 0.33333300000003874
        },
        {
          "name": "A#4",
          "midi": 70,
          "time": 595.4994045000282,
          "velocity": 1,
          "duration": 0.33333300000003874
        },
        {
          "name": "A#2",
          "midi": 46,
          "time": 595.6660710000282,
          "velocity": 1,
          "duration": 0.33333300000003874
        },
        {
          "name": "C4",
          "midi": 60,
          "time": 595.6660710000282,
          "velocity": 1,
          "duration": 0.16666650000001937
        },
        {
          "name": "D4",
          "midi": 62,
          "time": 595.8327375000282,
          "velocity": 1,
          "duration": 0.16666650000001937
        },
        {
          "name": "A#4",
          "midi": 70,
          "time": 595.8327375000282,
          "velocity": 1,
          "duration": 0.33333300000003874
        },
        {
          "name": "D#4",
          "midi": 63,
          "time": 595.9994040000282,
          "velocity": 1,
          "duration": 0.33333300000003874
        },
        {
          "name": "D#3",
          "midi": 51,
          "time": 595.9994040000282,
          "velocity": 1,
          "duration": 0.33333300000003874
        },
        {
          "name": "A#5",
          "midi": 82,
          "time": 596.1660705000282,
          "velocity": 1,
          "duration": 0.33333300000003874
        },
        {
          "name": "A#4",
          "midi": 70,
          "time": 596.1660705000282,
          "velocity": 1,
          "duration": 0.33333300000003874
        },
        {
          "name": "D#4",
          "midi": 63,
          "time": 596.3327370000283,
          "velocity": 1,
          "duration": 0.33333300000003874
        },
        {
          "name": "A#5",
          "midi": 82,
          "time": 596.4994035000283,
          "velocity": 1,
          "duration": 0.33333300000003874
        },
        {
          "name": "A#4",
          "midi": 70,
          "time": 596.4994035000283,
          "velocity": 1,
          "duration": 0.33333300000003874
        },
        {
          "name": "F4",
          "midi": 65,
          "time": 596.6660700000283,
          "velocity": 1,
          "duration": 0.33333300000003874
        },
        {
          "name": "A#5",
          "midi": 82,
          "time": 596.8327365000283,
          "velocity": 1,
          "duration": 0.33333300000003874
        },
        {
          "name": "A#4",
          "midi": 70,
          "time": 596.8327365000283,
          "velocity": 1,
          "duration": 0.33333300000003874
        },
        {
          "name": "F#4",
          "midi": 66,
          "time": 596.9994030000283,
          "velocity": 1,
          "duration": 0.4999995000000581
        },
        {
          "name": "A#5",
          "midi": 82,
          "time": 597.1660695000284,
          "velocity": 1,
          "duration": 0.33333300000003874
        },
        {
          "name": "A#4",
          "midi": 70,
          "time": 597.1660695000284,
          "velocity": 1,
          "duration": 0.33333300000003874
        },
        {
          "name": "D#3",
          "midi": 51,
          "time": 597.3327360000284,
          "velocity": 1,
          "duration": 0.33333300000003874
        },
        {
          "name": "D#4",
          "midi": 63,
          "time": 597.3327360000284,
          "velocity": 1,
          "duration": 0.33333300000003874
        },
        {
          "name": "F4",
          "midi": 65,
          "time": 597.4994025000284,
          "velocity": 1,
          "duration": 0.16666650000001937
        },
        {
          "name": "A#5",
          "midi": 82,
          "time": 597.4994025000284,
          "velocity": 1,
          "duration": 0.33333300000003874
        },
        {
          "name": "A#4",
          "midi": 70,
          "time": 597.4994025000284,
          "velocity": 1,
          "duration": 0.33333300000003874
        },
        {
          "name": "D#4",
          "midi": 63,
          "time": 597.6660690000284,
          "velocity": 1,
          "duration": 0.33333300000003874
        },
        {
          "name": "D#3",
          "midi": 51,
          "time": 597.6660690000284,
          "velocity": 1,
          "duration": 0.33333300000003874
        },
        {
          "name": "A#5",
          "midi": 82,
          "time": 597.8327355000284,
          "velocity": 1,
          "duration": 0.33333300000003874
        },
        {
          "name": "A#4",
          "midi": 70,
          "time": 597.8327355000284,
          "velocity": 1,
          "duration": 0.4999995000000581
        },
        {
          "name": "A#3",
          "midi": 58,
          "time": 597.9994020000285,
          "velocity": 1,
          "duration": 0.33333300000003874
        },
        {
          "name": "A#2",
          "midi": 46,
          "time": 597.9994020000285,
          "velocity": 1,
          "duration": 0.33333300000003874
        },
        {
          "name": "D4",
          "midi": 62,
          "time": 597.9994020000285,
          "velocity": 1,
          "duration": 0.9999990000001162
        },
        {
          "name": "A#5",
          "midi": 82,
          "time": 598.1660685000285,
          "velocity": 1,
          "duration": 0.08333325000000968
        },
        {
          "name": "A5",
          "midi": 81,
          "time": 598.2494017500285,
          "velocity": 1,
          "duration": 0.08333325000000968
        },
        {
          "name": "A#5",
          "midi": 82,
          "time": 598.3327350000285,
          "velocity": 1,
          "duration": 0.16666650000001937
        },
        {
          "name": "A#5",
          "midi": 82,
          "time": 598.4994015000285,
          "velocity": 1,
          "duration": 0.16666650000001937
        },
        {
          "name": "A#5",
          "midi": 82,
          "time": 598.6660680000285,
          "velocity": 1,
          "duration": 0.16666650000001937
        },
        {
          "name": "A#3",
          "midi": 58,
          "time": 598.8327345000286,
          "velocity": 1,
          "duration": 0.16666650000001937
        },
        {
          "name": "A#5",
          "midi": 82,
          "time": 598.8327345000286,
          "velocity": 1,
          "duration": 0.16666650000001937
        },
        {
          "name": "A#5",
          "midi": 82,
          "time": 598.9994010000286,
          "velocity": 1,
          "duration": 1.1666655000001356
        },
        {
          "name": "G3",
          "midi": 55,
          "time": 598.9994010000286,
          "velocity": 1,
          "duration": 0.33333300000003874
        },
        {
          "name": "C#4",
          "midi": 61,
          "time": 598.9994010000286,
          "velocity": 1,
          "duration": 0.9999990000001162
        },
        {
          "name": "D#5",
          "midi": 75,
          "time": 599.1660675000286,
          "velocity": 1,
          "duration": 0.08333325000000968
        },
        {
          "name": "D5",
          "midi": 74,
          "time": 599.2494007500286,
          "velocity": 1,
          "duration": 0.08333325000000968
        },
        {
          "name": "D#5",
          "midi": 75,
          "time": 599.3327340000286,
          "velocity": 1,
          "duration": 0.16666650000001937
        },
        {
          "name": "D#5",
          "midi": 75,
          "time": 599.4994005000286,
          "velocity": 1,
          "duration": 0.16666650000001937
        },
        {
          "name": "D#5",
          "midi": 75,
          "time": 599.6660670000286,
          "velocity": 1,
          "duration": 0.16666650000001937
        },
        {
          "name": "D#5",
          "midi": 75,
          "time": 599.8327335000287,
          "velocity": 1,
          "duration": 0.16666650000001937
        },
        {
          "name": "G3",
          "midi": 55,
          "time": 599.8327335000287,
          "velocity": 1,
          "duration": 0.16666650000001937
        },
        {
          "name": "C4",
          "midi": 60,
          "time": 599.9994000000287,
          "velocity": 1,
          "duration": 0.9999990000001162
        },
        {
          "name": "G#3",
          "midi": 56,
          "time": 599.9994000000287,
          "velocity": 1,
          "duration": 0.33333300000003874
        },
        {
          "name": "D#5",
          "midi": 75,
          "time": 599.9994000000287,
          "velocity": 1,
          "duration": 1.1666655000001356
        },
        {
          "name": "G#5",
          "midi": 80,
          "time": 600.1660665000287,
          "velocity": 1,
          "duration": 0.08333325000000968
        },
        {
          "name": "G5",
          "midi": 79,
          "time": 600.2493997500287,
          "velocity": 1,
          "duration": 0.08333325000000968
        },
        {
          "name": "G#5",
          "midi": 80,
          "time": 600.3327330000287,
          "velocity": 1,
          "duration": 0.08333325000000968
        },
        {
          "name": "G#5",
          "midi": 80,
          "time": 600.4160662500287,
          "velocity": 1,
          "duration": 0.08333325000000968
        },
        {
          "name": "G#5",
          "midi": 80,
          "time": 600.4993995000287,
          "velocity": 1,
          "duration": 0.08333325000000968
        },
        {
          "name": "G#5",
          "midi": 80,
          "time": 600.5827327500288,
          "velocity": 1,
          "duration": 0.08333325000000968
        },
        {
          "name": "G#5",
          "midi": 80,
          "time": 600.6660660000288,
          "velocity": 1,
          "duration": 0.08333325000000968
        },
        {
          "name": "G#5",
          "midi": 80,
          "time": 600.7493992500288,
          "velocity": 1,
          "duration": 0.08333325000000968
        },
        {
          "name": "G#3",
          "midi": 56,
          "time": 600.8327325000288,
          "velocity": 1,
          "duration": 0.16666650000001937
        },
        {
          "name": "G#5",
          "midi": 80,
          "time": 600.8327325000288,
          "velocity": 1,
          "duration": 0.08333325000000968
        },
        {
          "name": "G#5",
          "midi": 80,
          "time": 600.9160657500288,
          "velocity": 1,
          "duration": 0.08333325000000968
        },
        {
          "name": "G#5",
          "midi": 80,
          "time": 600.9993990000288,
          "velocity": 1,
          "duration": 1.1666655000001356
        },
        {
          "name": "F3",
          "midi": 53,
          "time": 600.9993990000288,
          "velocity": 1,
          "duration": 0.33333300000003874
        },
        {
          "name": "B3",
          "midi": 59,
          "time": 600.9993990000288,
          "velocity": 1,
          "duration": 0.9999990000001162
        },
        {
          "name": "F5",
          "midi": 77,
          "time": 601.1660655000288,
          "velocity": 1,
          "duration": 0.08333325000000968
        },
        {
          "name": "E5",
          "midi": 76,
          "time": 601.2493987500288,
          "velocity": 1,
          "duration": 0.08333325000000968
        },
        {
          "name": "F5",
          "midi": 77,
          "time": 601.3327320000288,
          "velocity": 1,
          "duration": 0.16666650000001937
        },
        {
          "name": "F5",
          "midi": 77,
          "time": 601.4993985000289,
          "velocity": 1,
          "duration": 0.16666650000001937
        },
        {
          "name": "F5",
          "midi": 77,
          "time": 601.6660650000289,
          "velocity": 1,
          "duration": 0.16666650000001937
        },
        {
          "name": "F5",
          "midi": 77,
          "time": 601.8327315000289,
          "velocity": 1,
          "duration": 0.16666650000001937
        },
        {
          "name": "F3",
          "midi": 53,
          "time": 601.8327315000289,
          "velocity": 1,
          "duration": 0.16666650000001937
        },
        {
          "name": "A#3",
          "midi": 58,
          "time": 601.9993980000289,
          "velocity": 1,
          "duration": 0.9999990000001162
        },
        {
          "name": "D3",
          "midi": 50,
          "time": 601.9993980000289,
          "velocity": 1,
          "duration": 0.33333300000003874
        },
        {
          "name": "G#5",
          "midi": 80,
          "time": 602.1660645000289,
          "velocity": 1,
          "duration": 0.08333325000000968
        },
        {
          "name": "F5",
          "midi": 77,
          "time": 602.1660645000289,
          "velocity": 1,
          "duration": 0.08333325000000968
        },
        {
          "name": "G5",
          "midi": 79,
          "time": 602.249397750029,
          "velocity": 1,
          "duration": 0.08333325000000968
        },
        {
          "name": "E5",
          "midi": 76,
          "time": 602.249397750029,
          "velocity": 1,
          "duration": 0.08333325000000968
        },
        {
          "name": "G#5",
          "midi": 80,
          "time": 602.332731000029,
          "velocity": 1,
          "duration": 0.08333325000000968
        },
        {
          "name": "F5",
          "midi": 77,
          "time": 602.332731000029,
          "velocity": 1,
          "duration": 0.16666650000001937
        },
        {
          "name": "G#5",
          "midi": 80,
          "time": 602.416064250029,
          "velocity": 1,
          "duration": 0.08333325000000968
        },
        {
          "name": "G#5",
          "midi": 80,
          "time": 602.499397500029,
          "velocity": 1,
          "duration": 0.08333325000000968
        },
        {
          "name": "F5",
          "midi": 77,
          "time": 602.499397500029,
          "velocity": 1,
          "duration": 0.16666650000001937
        },
        {
          "name": "G#5",
          "midi": 80,
          "time": 602.582730750029,
          "velocity": 1,
          "duration": 0.08333325000000968
        },
        {
          "name": "G#5",
          "midi": 80,
          "time": 602.666064000029,
          "velocity": 1,
          "duration": 0.08333325000000968
        },
        {
          "name": "F5",
          "midi": 77,
          "time": 602.666064000029,
          "velocity": 1,
          "duration": 0.16666650000001937
        },
        {
          "name": "G#5",
          "midi": 80,
          "time": 602.749397250029,
          "velocity": 1,
          "duration": 0.08333325000000968
        },
        {
          "name": "D3",
          "midi": 50,
          "time": 602.832730500029,
          "velocity": 1,
          "duration": 0.16666650000001937
        },
        {
          "name": "G#5",
          "midi": 80,
          "time": 602.832730500029,
          "velocity": 1,
          "duration": 0.08333325000000968
        },
        {
          "name": "F5",
          "midi": 77,
          "time": 602.832730500029,
          "velocity": 1,
          "duration": 0.16666650000001937
        },
        {
          "name": "G#5",
          "midi": 80,
          "time": 602.916063750029,
          "velocity": 1,
          "duration": 0.08333325000000968
        },
        {
          "name": "A#3",
          "midi": 58,
          "time": 602.999397000029,
          "velocity": 1,
          "duration": 0.9999990000001162
        },
        {
          "name": "D#3",
          "midi": 51,
          "time": 602.999397000029,
          "velocity": 1,
          "duration": 0.33333300000003874
        },
        {
          "name": "F#5",
          "midi": 78,
          "time": 603.166063500029,
          "velocity": 1,
          "duration": 0.08333325000000968
        },
        {
          "name": "D#5",
          "midi": 75,
          "time": 603.166063500029,
          "velocity": 1,
          "duration": 0.08333325000000968
        },
        {
          "name": "F5",
          "midi": 77,
          "time": 603.2493967500291,
          "velocity": 1,
          "duration": 0.08333325000000968
        },
        {
          "name": "D5",
          "midi": 74,
          "time": 603.2493967500291,
          "velocity": 1,
          "duration": 0.08333325000000968
        },
        {
          "name": "G5",
          "midi": 79,
          "time": 603.3327300000291,
          "velocity": 1,
          "duration": 0.16666650000001937
        },
        {
          "name": "D#5",
          "midi": 75,
          "time": 603.3327300000291,
          "velocity": 1,
          "duration": 0.16666650000001937
        },
        {
          "name": "G5",
          "midi": 79,
          "time": 603.4993965000291,
          "velocity": 1,
          "duration": 0.16666650000001937
        },
        {
          "name": "D#5",
          "midi": 75,
          "time": 603.4993965000291,
          "velocity": 1,
          "duration": 0.16666650000001937
        },
        {
          "name": "D#5",
          "midi": 75,
          "time": 603.6660630000291,
          "velocity": 1,
          "duration": 0.16666650000001937
        },
        {
          "name": "G5",
          "midi": 79,
          "time": 603.6660630000291,
          "velocity": 1,
          "duration": 0.16666650000001937
        },
        {
          "name": "D#3",
          "midi": 51,
          "time": 603.8327295000291,
          "velocity": 1,
          "duration": 0.16666650000001937
        },
        {
          "name": "G5",
          "midi": 79,
          "time": 603.8327295000291,
          "velocity": 1,
          "duration": 0.16666650000001937
        },
        {
          "name": "D#5",
          "midi": 75,
          "time": 603.8327295000291,
          "velocity": 1,
          "duration": 0.16666650000001937
        },
        {
          "name": "A3",
          "midi": 57,
          "time": 603.9993960000292,
          "velocity": 1,
          "duration": 0.9999990000001162
        },
        {
          "name": "C3",
          "midi": 48,
          "time": 603.9993960000292,
          "velocity": 1,
          "duration": 0.33333300000003874
        },
        {
          "name": "F5",
          "midi": 77,
          "time": 604.1660625000292,
          "velocity": 1,
          "duration": 0.08333325000000968
        },
        {
          "name": "D#5",
          "midi": 75,
          "time": 604.1660625000292,
          "velocity": 1,
          "duration": 0.08333325000000968
        },
        {
          "name": "D#4",
          "midi": 63,
          "time": 604.2493957500292,
          "velocity": 1,
          "duration": 0.08333325000000968
        },
        {
          "name": "D#5",
          "midi": 75,
          "time": 604.2493957500292,
          "velocity": 1,
          "duration": 0.08333325000000968
        },
        {
          "name": "F5",
          "midi": 77,
          "time": 604.3327290000292,
          "velocity": 1,
          "duration": 0.16666650000001937
        },
        {
          "name": "D#5",
          "midi": 75,
          "time": 604.3327290000292,
          "velocity": 1,
          "duration": 0.16666650000001937
        },
        {
          "name": "F5",
          "midi": 77,
          "time": 604.4993955000292,
          "velocity": 1,
          "duration": 0.16666650000001937
        },
        {
          "name": "D#5",
          "midi": 75,
          "time": 604.4993955000292,
          "velocity": 1,
          "duration": 0.16666650000001937
        },
        {
          "name": "F5",
          "midi": 77,
          "time": 604.6660620000292,
          "velocity": 1,
          "duration": 0.16666650000001937
        },
        {
          "name": "D#5",
          "midi": 75,
          "time": 604.6660620000292,
          "velocity": 1,
          "duration": 0.16666650000001937
        },
        {
          "name": "D#5",
          "midi": 75,
          "time": 604.8327285000292,
          "velocity": 1,
          "duration": 0.16666650000001937
        },
        {
          "name": "F5",
          "midi": 77,
          "time": 604.8327285000292,
          "velocity": 1,
          "duration": 0.16666650000001937
        },
        {
          "name": "C3",
          "midi": 48,
          "time": 604.8327285000292,
          "velocity": 1,
          "duration": 0.16666650000001937
        },
        {
          "name": "G#3",
          "midi": 56,
          "time": 604.9993950000293,
          "velocity": 1,
          "duration": 0.9999990000001162
        },
        {
          "name": "B2",
          "midi": 47,
          "time": 604.9993950000293,
          "velocity": 1,
          "duration": 0.33333300000003874
        },
        {
          "name": "F5",
          "midi": 77,
          "time": 605.1660615000293,
          "velocity": 1,
          "duration": 0.08333325000000968
        },
        {
          "name": "D#5",
          "midi": 75,
          "time": 605.1660615000293,
          "velocity": 1,
          "duration": 0.08333325000000968
        },
        {
          "name": "D#5",
          "midi": 75,
          "time": 605.2493947500293,
          "velocity": 1,
          "duration": 0.08333325000000968
        },
        {
          "name": "D#4",
          "midi": 63,
          "time": 605.2493947500293,
          "velocity": 1,
          "duration": 0.08333325000000968
        },
        {
          "name": "F5",
          "midi": 77,
          "time": 605.3327280000293,
          "velocity": 1,
          "duration": 0.16666650000001937
        },
        {
          "name": "D#5",
          "midi": 75,
          "time": 605.3327280000293,
          "velocity": 1,
          "duration": 0.16666650000001937
        },
        {
          "name": "F5",
          "midi": 77,
          "time": 605.4993945000293,
          "velocity": 1,
          "duration": 0.16666650000001937
        },
        {
          "name": "D#5",
          "midi": 75,
          "time": 605.4993945000293,
          "velocity": 1,
          "duration": 0.16666650000001937
        },
        {
          "name": "F5",
          "midi": 77,
          "time": 605.6660610000293,
          "velocity": 1,
          "duration": 0.16666650000001937
        },
        {
          "name": "D#5",
          "midi": 75,
          "time": 605.6660610000293,
          "velocity": 1,
          "duration": 0.16666650000001937
        },
        {
          "name": "D#5",
          "midi": 75,
          "time": 605.8327275000294,
          "velocity": 1,
          "duration": 0.16666650000001937
        },
        {
          "name": "F5",
          "midi": 77,
          "time": 605.8327275000294,
          "velocity": 1,
          "duration": 0.16666650000001937
        },
        {
          "name": "B2",
          "midi": 47,
          "time": 605.8327275000294,
          "velocity": 1,
          "duration": 0.16666650000001937
        },
        {
          "name": "G#3",
          "midi": 56,
          "time": 605.9993940000294,
          "velocity": 1,
          "duration": 0.33333300000003874
        },
        {
          "name": "A#2",
          "midi": 46,
          "time": 605.9993940000294,
          "velocity": 1,
          "duration": 0.33333300000003874
        },
        {
          "name": "F5",
          "midi": 77,
          "time": 605.9993940000294,
          "velocity": 1,
          "duration": 0.08333325000000968
        },
        {
          "name": "D5",
          "midi": 74,
          "time": 605.9993940000294,
          "velocity": 1,
          "duration": 0.08333325000000968
        },
        {
          "name": "A#3",
          "midi": 58,
          "time": 605.9993940000294,
          "velocity": 1,
          "duration": 0.33333300000003874
        },
        {
          "name": "A#4",
          "midi": 70,
          "time": 606.0827272500294,
          "velocity": 1,
          "duration": 0.08333325000000968
        },
        {
          "name": "A#4",
          "midi": 70,
          "time": 606.1660605000294,
          "velocity": 1,
          "duration": 0.08333325000000968
        },
        {
          "name": "A#4",
          "midi": 70,
          "time": 606.2493937500294,
          "velocity": 1,
          "duration": 0.08333325000000968
        },
        {
          "name": "D4",
          "midi": 62,
          "time": 606.3327270000294,
          "velocity": 1,
          "duration": 0.33333300000003874
        },
        {
          "name": "A#3",
          "midi": 58,
          "time": 606.3327270000294,
          "velocity": 1,
          "duration": 0.08333325000000968
        },
        {
          "name": "A#4",
          "midi": 70,
          "time": 606.3327270000294,
          "velocity": 1,
          "duration": 0.08333325000000968
        },
        {
          "name": "D3",
          "midi": 50,
          "time": 606.3327270000294,
          "velocity": 1,
          "duration": 0.33333300000003874
        },
        {
          "name": "A#4",
          "midi": 70,
          "time": 606.4160602500294,
          "velocity": 1,
          "duration": 0.08333325000000968
        },
        {
          "name": "A#3",
          "midi": 58,
          "time": 606.4160602500294,
          "velocity": 1,
          "duration": 0.08333325000000968
        },
        {
          "name": "A#4",
          "midi": 70,
          "time": 606.4993935000294,
          "velocity": 1,
          "duration": 0.08333325000000968
        },
        {
          "name": "A#3",
          "midi": 58,
          "time": 606.4993935000294,
          "velocity": 1,
          "duration": 0.08333325000000968
        },
        {
          "name": "A#3",
          "midi": 58,
          "time": 606.5827267500295,
          "velocity": 1,
          "duration": 0.08333325000000968
        },
        {
          "name": "A#4",
          "midi": 70,
          "time": 606.5827267500295,
          "velocity": 1,
          "duration": 0.08333325000000968
        },
        {
          "name": "A#2",
          "midi": 46,
          "time": 606.6660600000295,
          "velocity": 1,
          "duration": 0.33333300000003874
        },
        {
          "name": "A#4",
          "midi": 70,
          "time": 606.6660600000295,
          "velocity": 1,
          "duration": 0.08333325000000968
        },
        {
          "name": "A#3",
          "midi": 58,
          "time": 606.6660600000295,
          "velocity": 1,
          "duration": 0.33333300000003874
        },
        {
          "name": "A#4",
          "midi": 70,
          "time": 606.7493932500295,
          "velocity": 1,
          "duration": 0.08333325000000968
        },
        {
          "name": "A#4",
          "midi": 70,
          "time": 606.8327265000295,
          "velocity": 1,
          "duration": 0.08333325000000968
        },
        {
          "name": "A#4",
          "midi": 70,
          "time": 606.9160597500295,
          "velocity": 1,
          "duration": 0.08333325000000968
        },
        {
          "name": "F3",
          "midi": 53,
          "time": 606.9993930000295,
          "velocity": 1,
          "duration": 0.33333300000003874
        },
        {
          "name": "A#4",
          "midi": 70,
          "time": 606.9993930000295,
          "velocity": 1,
          "duration": 0.08333325000000968
        },
        {
          "name": "A#3",
          "midi": 58,
          "time": 606.9993930000295,
          "velocity": 1,
          "duration": 0.08333325000000968
        },
        {
          "name": "F4",
          "midi": 65,
          "time": 606.9993930000295,
          "velocity": 1,
          "duration": 0.33333300000003874
        },
        {
          "name": "A#4",
          "midi": 70,
          "time": 607.0827262500295,
          "velocity": 1,
          "duration": 0.08333325000000968
        },
        {
          "name": "A#3",
          "midi": 58,
          "time": 607.0827262500295,
          "velocity": 1,
          "duration": 0.08333325000000968
        },
        {
          "name": "A#4",
          "midi": 70,
          "time": 607.1660595000295,
          "velocity": 1,
          "duration": 0.08333325000000968
        },
        {
          "name": "A#3",
          "midi": 58,
          "time": 607.1660595000295,
          "velocity": 1,
          "duration": 0.08333325000000968
        },
        {
          "name": "A#4",
          "midi": 70,
          "time": 607.2493927500295,
          "velocity": 1,
          "duration": 0.08333325000000968
        },
        {
          "name": "A#3",
          "midi": 58,
          "time": 607.2493927500295,
          "velocity": 1,
          "duration": 0.08333325000000968
        },
        {
          "name": "A#3",
          "midi": 58,
          "time": 607.3327260000295,
          "velocity": 1,
          "duration": 0.33333300000003874
        },
        {
          "name": "A#4",
          "midi": 70,
          "time": 607.3327260000295,
          "velocity": 1,
          "duration": 0.08333325000000968
        },
        {
          "name": "A#2",
          "midi": 46,
          "time": 607.3327260000295,
          "velocity": 1,
          "duration": 0.33333300000003874
        },
        {
          "name": "A#4",
          "midi": 70,
          "time": 607.4160592500295,
          "velocity": 1,
          "duration": 0.08333325000000968
        },
        {
          "name": "A#4",
          "midi": 70,
          "time": 607.4993925000296,
          "velocity": 1,
          "duration": 0.08333325000000968
        },
        {
          "name": "A#4",
          "midi": 70,
          "time": 607.5827257500296,
          "velocity": 1,
          "duration": 0.08333325000000968
        },
        {
          "name": "A#3",
          "midi": 58,
          "time": 607.6660590000296,
          "velocity": 1,
          "duration": 0.33333300000003874
        },
        {
          "name": "A#4",
          "midi": 70,
          "time": 607.6660590000296,
          "velocity": 1,
          "duration": 0.33333300000003874
        },
        {
          "name": "A#2",
          "midi": 46,
          "time": 607.9993920000296,
          "velocity": 1,
          "duration": 0.33333300000003874
        },
        {
          "name": "A#4",
          "midi": 70,
          "time": 607.9993920000296,
          "velocity": 1,
          "duration": 0.08333325000000968
        },
        {
          "name": "D4",
          "midi": 62,
          "time": 607.9993920000296,
          "velocity": 1,
          "duration": 0.08333325000000968
        },
        {
          "name": "F4",
          "midi": 65,
          "time": 607.9993920000296,
          "velocity": 1,
          "duration": 0.08333325000000968
        },
        {
          "name": "A#3",
          "midi": 58,
          "time": 607.9993920000296,
          "velocity": 1,
          "duration": 0.33333300000003874
        },
        {
          "name": "A#4",
          "midi": 70,
          "time": 608.0827252500296,
          "velocity": 1,
          "duration": 0.08333325000000968
        },
        {
          "name": "D4",
          "midi": 62,
          "time": 608.0827252500296,
          "velocity": 1,
          "duration": 0.08333325000000968
        },
        {
          "name": "F4",
          "midi": 65,
          "time": 608.0827252500296,
          "velocity": 1,
          "duration": 0.08333325000000968
        },
        {
          "name": "F4",
          "midi": 65,
          "time": 608.1660585000296,
          "velocity": 1,
          "duration": 0.08333325000000968
        },
        {
          "name": "D4",
          "midi": 62,
          "time": 608.1660585000296,
          "velocity": 1,
          "duration": 0.08333325000000968
        },
        {
          "name": "A#4",
          "midi": 70,
          "time": 608.1660585000296,
          "velocity": 1,
          "duration": 0.08333325000000968
        },
        {
          "name": "A#4",
          "midi": 70,
          "time": 608.2493917500296,
          "velocity": 1,
          "duration": 0.08333325000000968
        },
        {
          "name": "D4",
          "midi": 62,
          "time": 608.2493917500296,
          "velocity": 1,
          "duration": 0.08333325000000968
        },
        {
          "name": "F4",
          "midi": 65,
          "time": 608.2493917500296,
          "velocity": 1,
          "duration": 0.08333325000000968
        },
        {
          "name": "D4",
          "midi": 62,
          "time": 608.3327250000297,
          "velocity": 1,
          "duration": 0.33333300000003874
        },
        {
          "name": "A#4",
          "midi": 70,
          "time": 608.3327250000297,
          "velocity": 1,
          "duration": 0.08333325000000968
        },
        {
          "name": "F4",
          "midi": 65,
          "time": 608.3327250000297,
          "velocity": 1,
          "duration": 0.08333325000000968
        },
        {
          "name": "A#3",
          "midi": 58,
          "time": 608.3327250000297,
          "velocity": 1,
          "duration": 0.08333325000000968
        },
        {
          "name": "D5",
          "midi": 74,
          "time": 608.3327250000297,
          "velocity": 1,
          "duration": 0.33333300000003874
        },
        {
          "name": "A#3",
          "midi": 58,
          "time": 608.4160582500297,
          "velocity": 1,
          "duration": 0.08333325000000968
        },
        {
          "name": "F4",
          "midi": 65,
          "time": 608.4160582500297,
          "velocity": 1,
          "duration": 0.08333325000000968
        },
        {
          "name": "A#4",
          "midi": 70,
          "time": 608.4160582500297,
          "velocity": 1,
          "duration": 0.08333325000000968
        },
        {
          "name": "A#4",
          "midi": 70,
          "time": 608.4993915000297,
          "velocity": 1,
          "duration": 0.08333325000000968
        },
        {
          "name": "F4",
          "midi": 65,
          "time": 608.4993915000297,
          "velocity": 1,
          "duration": 0.08333325000000968
        },
        {
          "name": "A#3",
          "midi": 58,
          "time": 608.4993915000297,
          "velocity": 1,
          "duration": 0.08333325000000968
        },
        {
          "name": "A#4",
          "midi": 70,
          "time": 608.5827247500297,
          "velocity": 1,
          "duration": 0.08333325000000968
        },
        {
          "name": "F4",
          "midi": 65,
          "time": 608.5827247500297,
          "velocity": 1,
          "duration": 0.08333325000000968
        },
        {
          "name": "A#3",
          "midi": 58,
          "time": 608.5827247500297,
          "velocity": 1,
          "duration": 0.08333325000000968
        },
        {
          "name": "A#3",
          "midi": 58,
          "time": 608.6660580000297,
          "velocity": 1,
          "duration": 0.33333300000003874
        },
        {
          "name": "F4",
          "midi": 65,
          "time": 608.6660580000297,
          "velocity": 1,
          "duration": 0.08333325000000968
        },
        {
          "name": "D4",
          "midi": 62,
          "time": 608.6660580000297,
          "velocity": 1,
          "duration": 0.08333325000000968
        },
        {
          "name": "A#4",
          "midi": 70,
          "time": 608.6660580000297,
          "velocity": 1,
          "duration": 0.08333325000000968
        },
        {
          "name": "A#2",
          "midi": 46,
          "time": 608.6660580000297,
          "velocity": 1,
          "duration": 0.33333300000003874
        },
        {
          "name": "A#4",
          "midi": 70,
          "time": 608.7493912500297,
          "velocity": 1,
          "duration": 0.08333325000000968
        },
        {
          "name": "D4",
          "midi": 62,
          "time": 608.7493912500297,
          "velocity": 1,
          "duration": 0.08333325000000968
        },
        {
          "name": "F4",
          "midi": 65,
          "time": 608.7493912500297,
          "velocity": 1,
          "duration": 0.08333325000000968
        },
        {
          "name": "F4",
          "midi": 65,
          "time": 608.8327245000297,
          "velocity": 1,
          "duration": 0.08333325000000968
        },
        {
          "name": "D4",
          "midi": 62,
          "time": 608.8327245000297,
          "velocity": 1,
          "duration": 0.08333325000000968
        },
        {
          "name": "A#4",
          "midi": 70,
          "time": 608.8327245000297,
          "velocity": 1,
          "duration": 0.08333325000000968
        },
        {
          "name": "A#4",
          "midi": 70,
          "time": 608.9160577500297,
          "velocity": 1,
          "duration": 0.08333325000000968
        },
        {
          "name": "D4",
          "midi": 62,
          "time": 608.9160577500297,
          "velocity": 1,
          "duration": 0.08333325000000968
        },
        {
          "name": "F4",
          "midi": 65,
          "time": 608.9160577500297,
          "velocity": 1,
          "duration": 0.08333325000000968
        },
        {
          "name": "F4",
          "midi": 65,
          "time": 608.9993910000297,
          "velocity": 1,
          "duration": 0.9999990000001162
        },
        {
          "name": "A#3",
          "midi": 58,
          "time": 608.9993910000297,
          "velocity": 1,
          "duration": 0.08333325000000968
        },
        {
          "name": "G#4",
          "midi": 68,
          "time": 608.9993910000297,
          "velocity": 1,
          "duration": 0.08333325000000968
        },
        {
          "name": "D4",
          "midi": 62,
          "time": 608.9993910000297,
          "velocity": 1,
          "duration": 0.08333325000000968
        },
        {
          "name": "A#4",
          "midi": 70,
          "time": 608.9993910000297,
          "velocity": 1,
          "duration": 0.08333325000000968
        },
        {
          "name": "A#4",
          "midi": 70,
          "time": 609.0827242500297,
          "velocity": 1,
          "duration": 0.08333325000000968
        },
        {
          "name": "D4",
          "midi": 62,
          "time": 609.0827242500297,
          "velocity": 1,
          "duration": 0.08333325000000968
        },
        {
          "name": "G#4",
          "midi": 68,
          "time": 609.0827242500297,
          "velocity": 1,
          "duration": 0.08333325000000968
        },
        {
          "name": "A#3",
          "midi": 58,
          "time": 609.0827242500297,
          "velocity": 1,
          "duration": 0.08333325000000968
        },
        {
          "name": "A#3",
          "midi": 58,
          "time": 609.1660575000298,
          "velocity": 1,
          "duration": 0.08333325000000968
        },
        {
          "name": "G#4",
          "midi": 68,
          "time": 609.1660575000298,
          "velocity": 1,
          "duration": 0.08333325000000968
        },
        {
          "name": "D4",
          "midi": 62,
          "time": 609.1660575000298,
          "velocity": 1,
          "duration": 0.08333325000000968
        },
        {
          "name": "A#4",
          "midi": 70,
          "time": 609.1660575000298,
          "velocity": 1,
          "duration": 0.08333325000000968
        },
        {
          "name": "A#4",
          "midi": 70,
          "time": 609.2493907500298,
          "velocity": 1,
          "duration": 0.08333325000000968
        },
        {
          "name": "D4",
          "midi": 62,
          "time": 609.2493907500298,
          "velocity": 1,
          "duration": 0.08333325000000968
        },
        {
          "name": "G#4",
          "midi": 68,
          "time": 609.2493907500298,
          "velocity": 1,
          "duration": 0.08333325000000968
        },
        {
          "name": "A#3",
          "midi": 58,
          "time": 609.2493907500298,
          "velocity": 1,
          "duration": 0.08333325000000968
        },
        {
          "name": "A#3",
          "midi": 58,
          "time": 609.3327240000298,
          "velocity": 1,
          "duration": 0.08333325000000968
        },
        {
          "name": "G#4",
          "midi": 68,
          "time": 609.3327240000298,
          "velocity": 1,
          "duration": 0.08333325000000968
        },
        {
          "name": "D4",
          "midi": 62,
          "time": 609.3327240000298,
          "velocity": 1,
          "duration": 0.08333325000000968
        },
        {
          "name": "A#4",
          "midi": 70,
          "time": 609.3327240000298,
          "velocity": 1,
          "duration": 0.08333325000000968
        },
        {
          "name": "A#4",
          "midi": 70,
          "time": 609.4160572500298,
          "velocity": 1,
          "duration": 0.08333325000000968
        },
        {
          "name": "D4",
          "midi": 62,
          "time": 609.4160572500298,
          "velocity": 1,
          "duration": 0.08333325000000968
        },
        {
          "name": "G#4",
          "midi": 68,
          "time": 609.4160572500298,
          "velocity": 1,
          "duration": 0.08333325000000968
        },
        {
          "name": "A#3",
          "midi": 58,
          "time": 609.4160572500298,
          "velocity": 1,
          "duration": 0.08333325000000968
        },
        {
          "name": "A#4",
          "midi": 70,
          "time": 609.4993905000298,
          "velocity": 1,
          "duration": 0.08333325000000968
        },
        {
          "name": "D4",
          "midi": 62,
          "time": 609.4993905000298,
          "velocity": 1,
          "duration": 0.08333325000000968
        },
        {
          "name": "G#4",
          "midi": 68,
          "time": 609.4993905000298,
          "velocity": 1,
          "duration": 0.08333325000000968
        },
        {
          "name": "A#3",
          "midi": 58,
          "time": 609.4993905000298,
          "velocity": 1,
          "duration": 0.08333325000000968
        },
        {
          "name": "A#4",
          "midi": 70,
          "time": 609.5827237500298,
          "velocity": 1,
          "duration": 0.08333325000000968
        },
        {
          "name": "D4",
          "midi": 62,
          "time": 609.5827237500298,
          "velocity": 1,
          "duration": 0.08333325000000968
        },
        {
          "name": "G#4",
          "midi": 68,
          "time": 609.5827237500298,
          "velocity": 1,
          "duration": 0.08333325000000968
        },
        {
          "name": "A#3",
          "midi": 58,
          "time": 609.5827237500298,
          "velocity": 1,
          "duration": 0.08333325000000968
        },
        {
          "name": "A#3",
          "midi": 58,
          "time": 609.6660570000298,
          "velocity": 1,
          "duration": 0.08333325000000968
        },
        {
          "name": "G#4",
          "midi": 68,
          "time": 609.6660570000298,
          "velocity": 1,
          "duration": 0.08333325000000968
        },
        {
          "name": "D4",
          "midi": 62,
          "time": 609.6660570000298,
          "velocity": 1,
          "duration": 0.08333325000000968
        },
        {
          "name": "B4",
          "midi": 71,
          "time": 609.6660570000298,
          "velocity": 1,
          "duration": 0.08333325000000968
        },
        {
          "name": "B4",
          "midi": 71,
          "time": 609.7493902500298,
          "velocity": 1,
          "duration": 0.08333325000000968
        },
        {
          "name": "D4",
          "midi": 62,
          "time": 609.7493902500298,
          "velocity": 1,
          "duration": 0.08333325000000968
        },
        {
          "name": "G#4",
          "midi": 68,
          "time": 609.7493902500298,
          "velocity": 1,
          "duration": 0.08333325000000968
        },
        {
          "name": "A#3",
          "midi": 58,
          "time": 609.7493902500298,
          "velocity": 1,
          "duration": 0.08333325000000968
        },
        {
          "name": "A#3",
          "midi": 58,
          "time": 609.8327235000298,
          "velocity": 1,
          "duration": 0.08333325000000968
        },
        {
          "name": "G#4",
          "midi": 68,
          "time": 609.8327235000298,
          "velocity": 1,
          "duration": 0.08333325000000968
        },
        {
          "name": "D4",
          "midi": 62,
          "time": 609.8327235000298,
          "velocity": 1,
          "duration": 0.08333325000000968
        },
        {
          "name": "B4",
          "midi": 71,
          "time": 609.8327235000298,
          "velocity": 1,
          "duration": 0.08333325000000968
        },
        {
          "name": "B4",
          "midi": 71,
          "time": 609.9160567500298,
          "velocity": 1,
          "duration": 0.08333325000000968
        },
        {
          "name": "D4",
          "midi": 62,
          "time": 609.9160567500298,
          "velocity": 1,
          "duration": 0.08333325000000968
        },
        {
          "name": "G#4",
          "midi": 68,
          "time": 609.9160567500298,
          "velocity": 1,
          "duration": 0.08333325000000968
        },
        {
          "name": "A#3",
          "midi": 58,
          "time": 609.9160567500298,
          "velocity": 1,
          "duration": 0.08333325000000968
        },
        {
          "name": "A#3",
          "midi": 58,
          "time": 609.9993900000298,
          "velocity": 1,
          "duration": 0.33333300000003874
        },
        {
          "name": "A4",
          "midi": 69,
          "time": 609.9993900000298,
          "velocity": 1,
          "duration": 0.08333325000000968
        },
        {
          "name": "D#4",
          "midi": 63,
          "time": 609.9993900000298,
          "velocity": 1,
          "duration": 0.08333325000000968
        },
        {
          "name": "C5",
          "midi": 72,
          "time": 609.9993900000298,
          "velocity": 1,
          "duration": 0.08333325000000968
        },
        {
          "name": "A#2",
          "midi": 46,
          "time": 609.9993900000298,
          "velocity": 1,
          "duration": 0.33333300000003874
        },
        {
          "name": "C5",
          "midi": 72,
          "time": 610.0827232500299,
          "velocity": 1,
          "duration": 0.08333325000000968
        },
        {
          "name": "D#4",
          "midi": 63,
          "time": 610.0827232500299,
          "velocity": 1,
          "duration": 0.08333325000000968
        },
        {
          "name": "A4",
          "midi": 69,
          "time": 610.0827232500299,
          "velocity": 1,
          "duration": 0.08333325000000968
        },
        {
          "name": "C5",
          "midi": 72,
          "time": 610.1660565000299,
          "velocity": 1,
          "duration": 0.08333325000000968
        },
        {
          "name": "D#4",
          "midi": 63,
          "time": 610.1660565000299,
          "velocity": 1,
          "duration": 0.08333325000000968
        },
        {
          "name": "A4",
          "midi": 69,
          "time": 610.1660565000299,
          "velocity": 1,
          "duration": 0.08333325000000968
        },
        {
          "name": "C5",
          "midi": 72,
          "time": 610.2493897500299,
          "velocity": 1,
          "duration": 0.08333325000000968
        },
        {
          "name": "D#4",
          "midi": 63,
          "time": 610.2493897500299,
          "velocity": 1,
          "duration": 0.08333325000000968
        },
        {
          "name": "A4",
          "midi": 69,
          "time": 610.2493897500299,
          "velocity": 1,
          "duration": 0.08333325000000968
        },
        {
          "name": "D#4",
          "midi": 63,
          "time": 610.3327230000299,
          "velocity": 1,
          "duration": 0.33333300000003874
        },
        {
          "name": "A4",
          "midi": 69,
          "time": 610.3327230000299,
          "velocity": 1,
          "duration": 0.08333325000000968
        },
        {
          "name": "C5",
          "midi": 72,
          "time": 610.3327230000299,
          "velocity": 1,
          "duration": 0.08333325000000968
        },
        {
          "name": "D#3",
          "midi": 51,
          "time": 610.3327230000299,
          "velocity": 1,
          "duration": 0.33333300000003874
        },
        {
          "name": "C5",
          "midi": 72,
          "time": 610.4160562500299,
          "velocity": 1,
          "duration": 0.08333325000000968
        },
        {
          "name": "A4",
          "midi": 69,
          "time": 610.4160562500299,
          "velocity": 1,
          "duration": 0.08333325000000968
        },
        {
          "name": "C5",
          "midi": 72,
          "time": 610.4993895000299,
          "velocity": 1,
          "duration": 0.08333325000000968
        },
        {
          "name": "A4",
          "midi": 69,
          "time": 610.4993895000299,
          "velocity": 1,
          "duration": 0.08333325000000968
        },
        {
          "name": "C5",
          "midi": 72,
          "time": 610.5827227500299,
          "velocity": 1,
          "duration": 0.08333325000000968
        },
        {
          "name": "A4",
          "midi": 69,
          "time": 610.5827227500299,
          "velocity": 1,
          "duration": 0.08333325000000968
        },
        {
          "name": "A#3",
          "midi": 58,
          "time": 610.6660560000299,
          "velocity": 1,
          "duration": 0.33333300000003874
        },
        {
          "name": "A4",
          "midi": 69,
          "time": 610.6660560000299,
          "velocity": 1,
          "duration": 0.08333325000000968
        },
        {
          "name": "D#4",
          "midi": 63,
          "time": 610.6660560000299,
          "velocity": 1,
          "duration": 0.08333325000000968
        },
        {
          "name": "C5",
          "midi": 72,
          "time": 610.6660560000299,
          "velocity": 1,
          "duration": 0.08333325000000968
        },
        {
          "name": "A#2",
          "midi": 46,
          "time": 610.6660560000299,
          "velocity": 1,
          "duration": 0.33333300000003874
        },
        {
          "name": "C5",
          "midi": 72,
          "time": 610.7493892500299,
          "velocity": 1,
          "duration": 0.08333325000000968
        },
        {
          "name": "D#4",
          "midi": 63,
          "time": 610.7493892500299,
          "velocity": 1,
          "duration": 0.08333325000000968
        },
        {
          "name": "A4",
          "midi": 69,
          "time": 610.7493892500299,
          "velocity": 1,
          "duration": 0.08333325000000968
        },
        {
          "name": "C5",
          "midi": 72,
          "time": 610.83272250003,
          "velocity": 1,
          "duration": 0.08333325000000968
        },
        {
          "name": "D#4",
          "midi": 63,
          "time": 610.83272250003,
          "velocity": 1,
          "duration": 0.08333325000000968
        },
        {
          "name": "A4",
          "midi": 69,
          "time": 610.83272250003,
          "velocity": 1,
          "duration": 0.08333325000000968
        },
        {
          "name": "A4",
          "midi": 69,
          "time": 610.91605575003,
          "velocity": 1,
          "duration": 0.08333325000000968
        },
        {
          "name": "D#4",
          "midi": 63,
          "time": 610.91605575003,
          "velocity": 1,
          "duration": 0.08333325000000968
        },
        {
          "name": "C5",
          "midi": 72,
          "time": 610.91605575003,
          "velocity": 1,
          "duration": 0.08333325000000968
        },
        {
          "name": "G#3",
          "midi": 56,
          "time": 610.99938900003,
          "velocity": 1,
          "duration": 0.33333300000003874
        },
        {
          "name": "C5",
          "midi": 72,
          "time": 610.99938900003,
          "velocity": 1,
          "duration": 0.08333325000000968
        },
        {
          "name": "D#4",
          "midi": 63,
          "time": 610.99938900003,
          "velocity": 1,
          "duration": 0.08333325000000968
        },
        {
          "name": "A4",
          "midi": 69,
          "time": 610.99938900003,
          "velocity": 1,
          "duration": 0.08333325000000968
        },
        {
          "name": "G#4",
          "midi": 68,
          "time": 610.99938900003,
          "velocity": 1,
          "duration": 0.33333300000003874
        },
        {
          "name": "A4",
          "midi": 69,
          "time": 611.08272225003,
          "velocity": 1,
          "duration": 0.08333325000000968
        },
        {
          "name": "D#4",
          "midi": 63,
          "time": 611.08272225003,
          "velocity": 1,
          "duration": 0.08333325000000968
        },
        {
          "name": "C5",
          "midi": 72,
          "time": 611.08272225003,
          "velocity": 1,
          "duration": 0.08333325000000968
        },
        {
          "name": "C5",
          "midi": 72,
          "time": 611.16605550003,
          "velocity": 1,
          "duration": 0.08333325000000968
        },
        {
          "name": "D#4",
          "midi": 63,
          "time": 611.16605550003,
          "velocity": 1,
          "duration": 0.08333325000000968
        },
        {
          "name": "A4",
          "midi": 69,
          "time": 611.16605550003,
          "velocity": 1,
          "duration": 0.08333325000000968
        },
        {
          "name": "C5",
          "midi": 72,
          "time": 611.24938875003,
          "velocity": 1,
          "duration": 0.08333325000000968
        },
        {
          "name": "D#4",
          "midi": 63,
          "time": 611.24938875003,
          "velocity": 1,
          "duration": 0.08333325000000968
        },
        {
          "name": "A4",
          "midi": 69,
          "time": 611.24938875003,
          "velocity": 1,
          "duration": 0.08333325000000968
        },
        {
          "name": "A#2",
          "midi": 46,
          "time": 611.33272200003,
          "velocity": 1,
          "duration": 0.33333300000003874
        },
        {
          "name": "C5",
          "midi": 72,
          "time": 611.33272200003,
          "velocity": 1,
          "duration": 0.08333325000000968
        },
        {
          "name": "D#4",
          "midi": 63,
          "time": 611.33272200003,
          "velocity": 1,
          "duration": 0.08333325000000968
        },
        {
          "name": "A4",
          "midi": 69,
          "time": 611.33272200003,
          "velocity": 1,
          "duration": 0.08333325000000968
        },
        {
          "name": "A#3",
          "midi": 58,
          "time": 611.33272200003,
          "velocity": 1,
          "duration": 0.33333300000003874
        },
        {
          "name": "A4",
          "midi": 69,
          "time": 611.41605525003,
          "velocity": 1,
          "duration": 0.08333325000000968
        },
        {
          "name": "D#4",
          "midi": 63,
          "time": 611.41605525003,
          "velocity": 1,
          "duration": 0.08333325000000968
        },
        {
          "name": "C5",
          "midi": 72,
          "time": 611.41605525003,
          "velocity": 1,
          "duration": 0.08333325000000968
        },
        {
          "name": "C5",
          "midi": 72,
          "time": 611.49938850003,
          "velocity": 1,
          "duration": 0.08333325000000968
        },
        {
          "name": "D#4",
          "midi": 63,
          "time": 611.49938850003,
          "velocity": 1,
          "duration": 0.08333325000000968
        },
        {
          "name": "A4",
          "midi": 69,
          "time": 611.49938850003,
          "velocity": 1,
          "duration": 0.08333325000000968
        },
        {
          "name": "C5",
          "midi": 72,
          "time": 611.58272175003,
          "velocity": 1,
          "duration": 0.08333325000000968
        },
        {
          "name": "D#4",
          "midi": 63,
          "time": 611.58272175003,
          "velocity": 1,
          "duration": 0.08333325000000968
        },
        {
          "name": "A4",
          "midi": 69,
          "time": 611.58272175003,
          "velocity": 1,
          "duration": 0.08333325000000968
        },
        {
          "name": "A#4",
          "midi": 70,
          "time": 611.66605500003,
          "velocity": 1,
          "duration": 0.33333300000003874
        },
        {
          "name": "A4",
          "midi": 69,
          "time": 611.66605500003,
          "velocity": 1,
          "duration": 0.08333325000000968
        },
        {
          "name": "D#4",
          "midi": 63,
          "time": 611.66605500003,
          "velocity": 1,
          "duration": 0.08333325000000968
        },
        {
          "name": "C5",
          "midi": 72,
          "time": 611.66605500003,
          "velocity": 1,
          "duration": 0.08333325000000968
        },
        {
          "name": "A#3",
          "midi": 58,
          "time": 611.66605500003,
          "velocity": 1,
          "duration": 0.33333300000003874
        },
        {
          "name": "C5",
          "midi": 72,
          "time": 611.74938825003,
          "velocity": 1,
          "duration": 0.08333325000000968
        },
        {
          "name": "D#4",
          "midi": 63,
          "time": 611.74938825003,
          "velocity": 1,
          "duration": 0.08333325000000968
        },
        {
          "name": "A4",
          "midi": 69,
          "time": 611.74938825003,
          "velocity": 1,
          "duration": 0.08333325000000968
        },
        {
          "name": "A4",
          "midi": 69,
          "time": 611.8327215000301,
          "velocity": 1,
          "duration": 0.08333325000000968
        },
        {
          "name": "D#4",
          "midi": 63,
          "time": 611.8327215000301,
          "velocity": 1,
          "duration": 0.08333325000000968
        },
        {
          "name": "C5",
          "midi": 72,
          "time": 611.8327215000301,
          "velocity": 1,
          "duration": 0.08333325000000968
        },
        {
          "name": "C5",
          "midi": 72,
          "time": 611.9160547500301,
          "velocity": 1,
          "duration": 0.08333325000000968
        },
        {
          "name": "D#4",
          "midi": 63,
          "time": 611.9160547500301,
          "velocity": 1,
          "duration": 0.08333325000000968
        },
        {
          "name": "A4",
          "midi": 69,
          "time": 611.9160547500301,
          "velocity": 1,
          "duration": 0.08333325000000968
        },
        {
          "name": "A#2",
          "midi": 46,
          "time": 611.9993880000301,
          "velocity": 1,
          "duration": 0.33333300000003874
        },
        {
          "name": "C5",
          "midi": 72,
          "time": 611.9993880000301,
          "velocity": 1,
          "duration": 0.08333325000000968
        },
        {
          "name": "D#4",
          "midi": 63,
          "time": 611.9993880000301,
          "velocity": 1,
          "duration": 0.08333325000000968
        },
        {
          "name": "A4",
          "midi": 69,
          "time": 611.9993880000301,
          "velocity": 1,
          "duration": 0.08333325000000968
        },
        {
          "name": "A#3",
          "midi": 58,
          "time": 611.9993880000301,
          "velocity": 1,
          "duration": 0.33333300000003874
        },
        {
          "name": "C5",
          "midi": 72,
          "time": 612.0827212500301,
          "velocity": 1,
          "duration": 0.08333325000000968
        },
        {
          "name": "D#4",
          "midi": 63,
          "time": 612.0827212500301,
          "velocity": 1,
          "duration": 0.08333325000000968
        },
        {
          "name": "A4",
          "midi": 69,
          "time": 612.0827212500301,
          "velocity": 1,
          "duration": 0.08333325000000968
        },
        {
          "name": "A4",
          "midi": 69,
          "time": 612.1660545000301,
          "velocity": 1,
          "duration": 0.08333325000000968
        },
        {
          "name": "D#4",
          "midi": 63,
          "time": 612.1660545000301,
          "velocity": 1,
          "duration": 0.08333325000000968
        },
        {
          "name": "C5",
          "midi": 72,
          "time": 612.1660545000301,
          "velocity": 1,
          "duration": 0.08333325000000968
        },
        {
          "name": "C5",
          "midi": 72,
          "time": 612.2493877500301,
          "velocity": 1,
          "duration": 0.08333325000000968
        },
        {
          "name": "D#4",
          "midi": 63,
          "time": 612.2493877500301,
          "velocity": 1,
          "duration": 0.08333325000000968
        },
        {
          "name": "A4",
          "midi": 69,
          "time": 612.2493877500301,
          "velocity": 1,
          "duration": 0.08333325000000968
        },
        {
          "name": "D#3",
          "midi": 51,
          "time": 612.3327210000301,
          "velocity": 1,
          "duration": 0.33333300000003874
        },
        {
          "name": "C5",
          "midi": 72,
          "time": 612.3327210000301,
          "velocity": 1,
          "duration": 0.08333325000000968
        },
        {
          "name": "D#4",
          "midi": 63,
          "time": 612.3327210000301,
          "velocity": 1,
          "duration": 0.08333325000000968
        },
        {
          "name": "A4",
          "midi": 69,
          "time": 612.3327210000301,
          "velocity": 1,
          "duration": 0.08333325000000968
        },
        {
          "name": "D#5",
          "midi": 75,
          "time": 612.3327210000301,
          "velocity": 1,
          "duration": 0.33333300000003874
        },
        {
          "name": "C5",
          "midi": 72,
          "time": 612.4160542500301,
          "velocity": 1,
          "duration": 0.08333325000000968
        },
        {
          "name": "D#4",
          "midi": 63,
          "time": 612.4160542500301,
          "velocity": 1,
          "duration": 0.08333325000000968
        },
        {
          "name": "A4",
          "midi": 69,
          "time": 612.4160542500301,
          "velocity": 1,
          "duration": 0.08333325000000968
        },
        {
          "name": "A4",
          "midi": 69,
          "time": 612.4993875000301,
          "velocity": 1,
          "duration": 0.08333325000000968
        },
        {
          "name": "D#4",
          "midi": 63,
          "time": 612.4993875000301,
          "velocity": 1,
          "duration": 0.08333325000000968
        },
        {
          "name": "C5",
          "midi": 72,
          "time": 612.4993875000301,
          "velocity": 1,
          "duration": 0.08333325000000968
        },
        {
          "name": "C5",
          "midi": 72,
          "time": 612.5827207500301,
          "velocity": 1,
          "duration": 0.08333325000000968
        },
        {
          "name": "D#4",
          "midi": 63,
          "time": 612.5827207500301,
          "velocity": 1,
          "duration": 0.08333325000000968
        },
        {
          "name": "A4",
          "midi": 69,
          "time": 612.5827207500301,
          "velocity": 1,
          "duration": 0.08333325000000968
        },
        {
          "name": "A#2",
          "midi": 46,
          "time": 612.6660540000302,
          "velocity": 1,
          "duration": 0.33333300000003874
        },
        {
          "name": "C5",
          "midi": 72,
          "time": 612.6660540000302,
          "velocity": 1,
          "duration": 0.08333325000000968
        },
        {
          "name": "D#4",
          "midi": 63,
          "time": 612.6660540000302,
          "velocity": 1,
          "duration": 0.08333325000000968
        },
        {
          "name": "A4",
          "midi": 69,
          "time": 612.6660540000302,
          "velocity": 1,
          "duration": 0.08333325000000968
        },
        {
          "name": "A#3",
          "midi": 58,
          "time": 612.6660540000302,
          "velocity": 1,
          "duration": 0.33333300000003874
        },
        {
          "name": "C5",
          "midi": 72,
          "time": 612.7493872500302,
          "velocity": 1,
          "duration": 0.08333325000000968
        },
        {
          "name": "D#4",
          "midi": 63,
          "time": 612.7493872500302,
          "velocity": 1,
          "duration": 0.08333325000000968
        },
        {
          "name": "A4",
          "midi": 69,
          "time": 612.7493872500302,
          "velocity": 1,
          "duration": 0.08333325000000968
        },
        {
          "name": "A4",
          "midi": 69,
          "time": 612.8327205000302,
          "velocity": 1,
          "duration": 0.08333325000000968
        },
        {
          "name": "D#4",
          "midi": 63,
          "time": 612.8327205000302,
          "velocity": 1,
          "duration": 0.08333325000000968
        },
        {
          "name": "C5",
          "midi": 72,
          "time": 612.8327205000302,
          "velocity": 1,
          "duration": 0.08333325000000968
        },
        {
          "name": "C5",
          "midi": 72,
          "time": 612.9160537500302,
          "velocity": 1,
          "duration": 0.08333325000000968
        },
        {
          "name": "D#4",
          "midi": 63,
          "time": 612.9160537500302,
          "velocity": 1,
          "duration": 0.08333325000000968
        },
        {
          "name": "A4",
          "midi": 69,
          "time": 612.9160537500302,
          "velocity": 1,
          "duration": 0.08333325000000968
        },
        {
          "name": "F#4",
          "midi": 66,
          "time": 612.9993870000302,
          "velocity": 1,
          "duration": 1.333332000000155
        },
        {
          "name": "A4",
          "midi": 69,
          "time": 612.9993870000302,
          "velocity": 1,
          "duration": 0.08333325000000968
        },
        {
          "name": "D#4",
          "midi": 63,
          "time": 612.9993870000302,
          "velocity": 1,
          "duration": 0.08333325000000968
        },
        {
          "name": "C5",
          "midi": 72,
          "time": 612.9993870000302,
          "velocity": 1,
          "duration": 0.08333325000000968
        },
        {
          "name": "F#3",
          "midi": 54,
          "time": 612.9993870000302,
          "velocity": 1,
          "duration": 1.333332000000155
        },
        {
          "name": "C5",
          "midi": 72,
          "time": 613.0827202500302,
          "velocity": 1,
          "duration": 0.08333325000000968
        },
        {
          "name": "D#4",
          "midi": 63,
          "time": 613.0827202500302,
          "velocity": 1,
          "duration": 0.08333325000000968
        },
        {
          "name": "A4",
          "midi": 69,
          "time": 613.0827202500302,
          "velocity": 1,
          "duration": 0.08333325000000968
        },
        {
          "name": "C5",
          "midi": 72,
          "time": 613.1660535000302,
          "velocity": 1,
          "duration": 0.08333325000000968
        },
        {
          "name": "D#4",
          "midi": 63,
          "time": 613.1660535000302,
          "velocity": 1,
          "duration": 0.08333325000000968
        },
        {
          "name": "A4",
          "midi": 69,
          "time": 613.1660535000302,
          "velocity": 1,
          "duration": 0.08333325000000968
        },
        {
          "name": "A4",
          "midi": 69,
          "time": 613.2493867500302,
          "velocity": 1,
          "duration": 0.08333325000000968
        },
        {
          "name": "D#4",
          "midi": 63,
          "time": 613.2493867500302,
          "velocity": 1,
          "duration": 0.08333325000000968
        },
        {
          "name": "C5",
          "midi": 72,
          "time": 613.2493867500302,
          "velocity": 1,
          "duration": 0.08333325000000968
        },
        {
          "name": "C5",
          "midi": 72,
          "time": 613.3327200000302,
          "velocity": 1,
          "duration": 0.08333325000000968
        },
        {
          "name": "D#4",
          "midi": 63,
          "time": 613.3327200000302,
          "velocity": 1,
          "duration": 0.08333325000000968
        },
        {
          "name": "A4",
          "midi": 69,
          "time": 613.3327200000302,
          "velocity": 1,
          "duration": 0.08333325000000968
        },
        {
          "name": "C5",
          "midi": 72,
          "time": 613.4160532500302,
          "velocity": 1,
          "duration": 0.08333325000000968
        },
        {
          "name": "D#4",
          "midi": 63,
          "time": 613.4160532500302,
          "velocity": 1,
          "duration": 0.08333325000000968
        },
        {
          "name": "A4",
          "midi": 69,
          "time": 613.4160532500302,
          "velocity": 1,
          "duration": 0.08333325000000968
        },
        {
          "name": "C5",
          "midi": 72,
          "time": 613.4993865000303,
          "velocity": 1,
          "duration": 0.08333325000000968
        },
        {
          "name": "D#4",
          "midi": 63,
          "time": 613.4993865000303,
          "velocity": 1,
          "duration": 0.08333325000000968
        },
        {
          "name": "A4",
          "midi": 69,
          "time": 613.4993865000303,
          "velocity": 1,
          "duration": 0.08333325000000968
        },
        {
          "name": "C5",
          "midi": 72,
          "time": 613.5827197500303,
          "velocity": 1,
          "duration": 0.08333325000000968
        },
        {
          "name": "D#4",
          "midi": 63,
          "time": 613.5827197500303,
          "velocity": 1,
          "duration": 0.08333325000000968
        },
        {
          "name": "A4",
          "midi": 69,
          "time": 613.5827197500303,
          "velocity": 1,
          "duration": 0.08333325000000968
        },
        {
          "name": "A4",
          "midi": 69,
          "time": 613.6660530000303,
          "velocity": 1,
          "duration": 0.08333325000000968
        },
        {
          "name": "D#4",
          "midi": 63,
          "time": 613.6660530000303,
          "velocity": 1,
          "duration": 0.08333325000000968
        },
        {
          "name": "C#5",
          "midi": 73,
          "time": 613.6660530000303,
          "velocity": 1,
          "duration": 0.08333325000000968
        },
        {
          "name": "C#5",
          "midi": 73,
          "time": 613.7493862500303,
          "velocity": 1,
          "duration": 0.08333325000000968
        },
        {
          "name": "D#4",
          "midi": 63,
          "time": 613.7493862500303,
          "velocity": 1,
          "duration": 0.08333325000000968
        },
        {
          "name": "A4",
          "midi": 69,
          "time": 613.7493862500303,
          "velocity": 1,
          "duration": 0.08333325000000968
        },
        {
          "name": "C#5",
          "midi": 73,
          "time": 613.8327195000303,
          "velocity": 1,
          "duration": 0.08333325000000968
        },
        {
          "name": "D#4",
          "midi": 63,
          "time": 613.8327195000303,
          "velocity": 1,
          "duration": 0.08333325000000968
        },
        {
          "name": "A4",
          "midi": 69,
          "time": 613.8327195000303,
          "velocity": 1,
          "duration": 0.08333325000000968
        },
        {
          "name": "A4",
          "midi": 69,
          "time": 613.9160527500303,
          "velocity": 1,
          "duration": 0.08333325000000968
        },
        {
          "name": "D#4",
          "midi": 63,
          "time": 613.9160527500303,
          "velocity": 1,
          "duration": 0.08333325000000968
        },
        {
          "name": "C#5",
          "midi": 73,
          "time": 613.9160527500303,
          "velocity": 1,
          "duration": 0.08333325000000968
        },
        {
          "name": "D5",
          "midi": 74,
          "time": 613.9993860000303,
          "velocity": 1,
          "duration": 0.08333325000000968
        },
        {
          "name": "D4",
          "midi": 62,
          "time": 613.9993860000303,
          "velocity": 1,
          "duration": 0.08333325000000968
        },
        {
          "name": "A#3",
          "midi": 58,
          "time": 613.9993860000303,
          "velocity": 1,
          "duration": 0.08333325000000968
        },
        {
          "name": "A#4",
          "midi": 70,
          "time": 614.0827192500303,
          "velocity": 1,
          "duration": 0.08333325000000968
        },
        {
          "name": "D4",
          "midi": 62,
          "time": 614.0827192500303,
          "velocity": 1,
          "duration": 0.08333325000000968
        },
        {
          "name": "D5",
          "midi": 74,
          "time": 614.0827192500303,
          "velocity": 1,
          "duration": 0.08333325000000968
        },
        {
          "name": "D5",
          "midi": 74,
          "time": 614.1660525000303,
          "velocity": 1,
          "duration": 0.08333325000000968
        },
        {
          "name": "D4",
          "midi": 62,
          "time": 614.1660525000303,
          "velocity": 1,
          "duration": 0.08333325000000968
        },
        {
          "name": "A#4",
          "midi": 70,
          "time": 614.1660525000303,
          "velocity": 1,
          "duration": 0.08333325000000968
        },
        {
          "name": "D5",
          "midi": 74,
          "time": 614.2493857500303,
          "velocity": 1,
          "duration": 0.08333325000000968
        },
        {
          "name": "D4",
          "midi": 62,
          "time": 614.2493857500303,
          "velocity": 1,
          "duration": 0.08333325000000968
        },
        {
          "name": "A#4",
          "midi": 70,
          "time": 614.2493857500303,
          "velocity": 1,
          "duration": 0.08333325000000968
        },
        {
          "name": "F3",
          "midi": 53,
          "time": 614.3327190000304,
          "velocity": 1,
          "duration": 0.33333300000003874
        },
        {
          "name": "D5",
          "midi": 74,
          "time": 614.3327190000304,
          "velocity": 1,
          "duration": 0.08333325000000968
        },
        {
          "name": "D4",
          "midi": 62,
          "time": 614.3327190000304,
          "velocity": 1,
          "duration": 0.08333325000000968
        },
        {
          "name": "A#4",
          "midi": 70,
          "time": 614.3327190000304,
          "velocity": 1,
          "duration": 0.08333325000000968
        },
        {
          "name": "F4",
          "midi": 65,
          "time": 614.3327190000304,
          "velocity": 1,
          "duration": 0.33333300000003874
        },
        {
          "name": "A#4",
          "midi": 70,
          "time": 614.4160522500304,
          "velocity": 1,
          "duration": 0.08333325000000968
        },
        {
          "name": "D4",
          "midi": 62,
          "time": 614.4160522500304,
          "velocity": 1,
          "duration": 0.08333325000000968
        },
        {
          "name": "D5",
          "midi": 74,
          "time": 614.4160522500304,
          "velocity": 1,
          "duration": 0.08333325000000968
        },
        {
          "name": "D5",
          "midi": 74,
          "time": 614.4993855000304,
          "velocity": 1,
          "duration": 0.08333325000000968
        },
        {
          "name": "D4",
          "midi": 62,
          "time": 614.4993855000304,
          "velocity": 1,
          "duration": 0.08333325000000968
        },
        {
          "name": "A#4",
          "midi": 70,
          "time": 614.4993855000304,
          "velocity": 1,
          "duration": 0.08333325000000968
        },
        {
          "name": "D5",
          "midi": 74,
          "time": 614.5827187500304,
          "velocity": 1,
          "duration": 0.08333325000000968
        },
        {
          "name": "D4",
          "midi": 62,
          "time": 614.5827187500304,
          "velocity": 1,
          "duration": 0.08333325000000968
        },
        {
          "name": "A#4",
          "midi": 70,
          "time": 614.5827187500304,
          "velocity": 1,
          "duration": 0.08333325000000968
        },
        {
          "name": "A#3",
          "midi": 58,
          "time": 614.6660520000304,
          "velocity": 1,
          "duration": 0.33333300000003874
        },
        {
          "name": "A#4",
          "midi": 70,
          "time": 614.6660520000304,
          "velocity": 1,
          "duration": 0.08333325000000968
        },
        {
          "name": "D4",
          "midi": 62,
          "time": 614.6660520000304,
          "velocity": 1,
          "duration": 0.08333325000000968
        },
        {
          "name": "D5",
          "midi": 74,
          "time": 614.6660520000304,
          "velocity": 1,
          "duration": 0.08333325000000968
        },
        {
          "name": "A#2",
          "midi": 46,
          "time": 614.6660520000304,
          "velocity": 1,
          "duration": 0.33333300000003874
        },
        {
          "name": "D5",
          "midi": 74,
          "time": 614.7493852500304,
          "velocity": 1,
          "duration": 0.08333325000000968
        },
        {
          "name": "D4",
          "midi": 62,
          "time": 614.7493852500304,
          "velocity": 1,
          "duration": 0.08333325000000968
        },
        {
          "name": "A#4",
          "midi": 70,
          "time": 614.7493852500304,
          "velocity": 1,
          "duration": 0.08333325000000968
        },
        {
          "name": "A#4",
          "midi": 70,
          "time": 614.8327185000304,
          "velocity": 1,
          "duration": 0.08333325000000968
        },
        {
          "name": "D4",
          "midi": 62,
          "time": 614.8327185000304,
          "velocity": 1,
          "duration": 0.08333325000000968
        },
        {
          "name": "D5",
          "midi": 74,
          "time": 614.8327185000304,
          "velocity": 1,
          "duration": 0.08333325000000968
        },
        {
          "name": "D5",
          "midi": 74,
          "time": 614.9160517500304,
          "velocity": 1,
          "duration": 0.08333325000000968
        },
        {
          "name": "D4",
          "midi": 62,
          "time": 614.9160517500304,
          "velocity": 1,
          "duration": 0.08333325000000968
        },
        {
          "name": "A#4",
          "midi": 70,
          "time": 614.9160517500304,
          "velocity": 1,
          "duration": 0.08333325000000968
        },
        {
          "name": "G#4",
          "midi": 68,
          "time": 614.9993850000304,
          "velocity": 1,
          "duration": 1.333332000000155
        },
        {
          "name": "D4",
          "midi": 62,
          "time": 614.9993850000304,
          "velocity": 1,
          "duration": 0.08333325000000968
        },
        {
          "name": "A#4",
          "midi": 70,
          "time": 614.9993850000304,
          "velocity": 1,
          "duration": 0.08333325000000968
        },
        {
          "name": "F4",
          "midi": 65,
          "time": 614.9993850000304,
          "velocity": 1,
          "duration": 0.08333325000000968
        },
        {
          "name": "D5",
          "midi": 74,
          "time": 614.9993850000304,
          "velocity": 1,
          "duration": 0.08333325000000968
        },
        {
          "name": "G#3",
          "midi": 56,
          "time": 614.9993850000304,
          "velocity": 1,
          "duration": 1.333332000000155
        },
        {
          "name": "D5",
          "midi": 74,
          "time": 615.0827182500304,
          "velocity": 1,
          "duration": 0.08333325000000968
        },
        {
          "name": "F4",
          "midi": 65,
          "time": 615.0827182500304,
          "velocity": 1,
          "duration": 0.08333325000000968
        },
        {
          "name": "A#4",
          "midi": 70,
          "time": 615.0827182500304,
          "velocity": 1,
          "duration": 0.08333325000000968
        },
        {
          "name": "D4",
          "midi": 62,
          "time": 615.0827182500304,
          "velocity": 1,
          "duration": 0.08333325000000968
        },
        {
          "name": "D4",
          "midi": 62,
          "time": 615.1660515000304,
          "velocity": 1,
          "duration": 0.08333325000000968
        },
        {
          "name": "A#4",
          "midi": 70,
          "time": 615.1660515000304,
          "velocity": 1,
          "duration": 0.08333325000000968
        },
        {
          "name": "F4",
          "midi": 65,
          "time": 615.1660515000304,
          "velocity": 1,
          "duration": 0.08333325000000968
        },
        {
          "name": "D5",
          "midi": 74,
          "time": 615.1660515000304,
          "velocity": 1,
          "duration": 0.08333325000000968
        },
        {
          "name": "D5",
          "midi": 74,
          "time": 615.2493847500305,
          "velocity": 1,
          "duration": 0.08333325000000968
        },
        {
          "name": "F4",
          "midi": 65,
          "time": 615.2493847500305,
          "velocity": 1,
          "duration": 0.08333325000000968
        },
        {
          "name": "A#4",
          "midi": 70,
          "time": 615.2493847500305,
          "velocity": 1,
          "duration": 0.08333325000000968
        },
        {
          "name": "D4",
          "midi": 62,
          "time": 615.2493847500305,
          "velocity": 1,
          "duration": 0.08333325000000968
        },
        {
          "name": "D5",
          "midi": 74,
          "time": 615.3327180000305,
          "velocity": 1,
          "duration": 0.08333325000000968
        },
        {
          "name": "F4",
          "midi": 65,
          "time": 615.3327180000305,
          "velocity": 1,
          "duration": 0.08333325000000968
        },
        {
          "name": "A#4",
          "midi": 70,
          "time": 615.3327180000305,
          "velocity": 1,
          "duration": 0.08333325000000968
        },
        {
          "name": "D4",
          "midi": 62,
          "time": 615.3327180000305,
          "velocity": 1,
          "duration": 0.08333325000000968
        },
        {
          "name": "D5",
          "midi": 74,
          "time": 615.4160512500305,
          "velocity": 1,
          "duration": 0.08333325000000968
        },
        {
          "name": "F4",
          "midi": 65,
          "time": 615.4160512500305,
          "velocity": 1,
          "duration": 0.08333325000000968
        },
        {
          "name": "A#4",
          "midi": 70,
          "time": 615.4160512500305,
          "velocity": 1,
          "duration": 0.08333325000000968
        },
        {
          "name": "D4",
          "midi": 62,
          "time": 615.4160512500305,
          "velocity": 1,
          "duration": 0.08333325000000968
        },
        {
          "name": "D4",
          "midi": 62,
          "time": 615.4993845000305,
          "velocity": 1,
          "duration": 0.08333325000000968
        },
        {
          "name": "A#4",
          "midi": 70,
          "time": 615.4993845000305,
          "velocity": 1,
          "duration": 0.08333325000000968
        },
        {
          "name": "F4",
          "midi": 65,
          "time": 615.4993845000305,
          "velocity": 1,
          "duration": 0.08333325000000968
        },
        {
          "name": "D5",
          "midi": 74,
          "time": 615.4993845000305,
          "velocity": 1,
          "duration": 0.08333325000000968
        },
        {
          "name": "D5",
          "midi": 74,
          "time": 615.5827177500305,
          "velocity": 1,
          "duration": 0.08333325000000968
        },
        {
          "name": "F4",
          "midi": 65,
          "time": 615.5827177500305,
          "velocity": 1,
          "duration": 0.08333325000000968
        },
        {
          "name": "A#4",
          "midi": 70,
          "time": 615.5827177500305,
          "velocity": 1,
          "duration": 0.08333325000000968
        },
        {
          "name": "D4",
          "midi": 62,
          "time": 615.5827177500305,
          "velocity": 1,
          "duration": 0.08333325000000968
        },
        {
          "name": "D5",
          "midi": 74,
          "time": 615.6660510000305,
          "velocity": 1,
          "duration": 0.08333325000000968
        },
        {
          "name": "F4",
          "midi": 65,
          "time": 615.6660510000305,
          "velocity": 1,
          "duration": 0.08333325000000968
        },
        {
          "name": "A#4",
          "midi": 70,
          "time": 615.6660510000305,
          "velocity": 1,
          "duration": 0.08333325000000968
        },
        {
          "name": "D4",
          "midi": 62,
          "time": 615.6660510000305,
          "velocity": 1,
          "duration": 0.08333325000000968
        },
        {
          "name": "D5",
          "midi": 74,
          "time": 615.7493842500305,
          "velocity": 1,
          "duration": 0.08333325000000968
        },
        {
          "name": "F4",
          "midi": 65,
          "time": 615.7493842500305,
          "velocity": 1,
          "duration": 0.08333325000000968
        },
        {
          "name": "A#4",
          "midi": 70,
          "time": 615.7493842500305,
          "velocity": 1,
          "duration": 0.08333325000000968
        },
        {
          "name": "D4",
          "midi": 62,
          "time": 615.7493842500305,
          "velocity": 1,
          "duration": 0.08333325000000968
        },
        {
          "name": "D4",
          "midi": 62,
          "time": 615.8327175000305,
          "velocity": 1,
          "duration": 0.08333325000000968
        },
        {
          "name": "A#4",
          "midi": 70,
          "time": 615.8327175000305,
          "velocity": 1,
          "duration": 0.08333325000000968
        },
        {
          "name": "F4",
          "midi": 65,
          "time": 615.8327175000305,
          "velocity": 1,
          "duration": 0.08333325000000968
        },
        {
          "name": "D5",
          "midi": 74,
          "time": 615.8327175000305,
          "velocity": 1,
          "duration": 0.08333325000000968
        },
        {
          "name": "D5",
          "midi": 74,
          "time": 615.9160507500305,
          "velocity": 1,
          "duration": 0.08333325000000968
        },
        {
          "name": "F4",
          "midi": 65,
          "time": 615.9160507500305,
          "velocity": 1,
          "duration": 0.08333325000000968
        },
        {
          "name": "A#4",
          "midi": 70,
          "time": 615.9160507500305,
          "velocity": 1,
          "duration": 0.08333325000000968
        },
        {
          "name": "D4",
          "midi": 62,
          "time": 615.9160507500305,
          "velocity": 1,
          "duration": 0.08333325000000968
        },
        {
          "name": "D#5",
          "midi": 75,
          "time": 615.9993840000305,
          "velocity": 1,
          "duration": 0.08333325000000968
        },
        {
          "name": "G4",
          "midi": 67,
          "time": 615.9993840000305,
          "velocity": 1,
          "duration": 0.08333325000000968
        },
        {
          "name": "A#4",
          "midi": 70,
          "time": 615.9993840000305,
          "velocity": 1,
          "duration": 0.08333325000000968
        },
        {
          "name": "D#4",
          "midi": 63,
          "time": 615.9993840000305,
          "velocity": 1,
          "duration": 0.08333325000000968
        },
        {
          "name": "D#4",
          "midi": 63,
          "time": 616.0827172500306,
          "velocity": 1,
          "duration": 0.08333325000000968
        },
        {
          "name": "A#4",
          "midi": 70,
          "time": 616.0827172500306,
          "velocity": 1,
          "duration": 0.08333325000000968
        },
        {
          "name": "G4",
          "midi": 67,
          "time": 616.0827172500306,
          "velocity": 1,
          "duration": 0.08333325000000968
        },
        {
          "name": "D#5",
          "midi": 75,
          "time": 616.0827172500306,
          "velocity": 1,
          "duration": 0.08333325000000968
        },
        {
          "name": "D#5",
          "midi": 75,
          "time": 616.1660505000306,
          "velocity": 1,
          "duration": 0.08333325000000968
        },
        {
          "name": "G4",
          "midi": 67,
          "time": 616.1660505000306,
          "velocity": 1,
          "duration": 0.08333325000000968
        },
        {
          "name": "A#4",
          "midi": 70,
          "time": 616.1660505000306,
          "velocity": 1,
          "duration": 0.08333325000000968
        },
        {
          "name": "D#4",
          "midi": 63,
          "time": 616.1660505000306,
          "velocity": 1,
          "duration": 0.08333325000000968
        },
        {
          "name": "D#5",
          "midi": 75,
          "time": 616.2493837500306,
          "velocity": 1,
          "duration": 0.08333325000000968
        },
        {
          "name": "G4",
          "midi": 67,
          "time": 616.2493837500306,
          "velocity": 1,
          "duration": 0.08333325000000968
        },
        {
          "name": "A#4",
          "midi": 70,
          "time": 616.2493837500306,
          "velocity": 1,
          "duration": 0.08333325000000968
        },
        {
          "name": "D#4",
          "midi": 63,
          "time": 616.2493837500306,
          "velocity": 1,
          "duration": 0.08333325000000968
        },
        {
          "name": "G4",
          "midi": 67,
          "time": 616.3327170000306,
          "velocity": 1,
          "duration": 0.33333300000003874
        },
        {
          "name": "D#4",
          "midi": 63,
          "time": 616.3327170000306,
          "velocity": 1,
          "duration": 0.08333325000000968
        },
        {
          "name": "A#4",
          "midi": 70,
          "time": 616.3327170000306,
          "velocity": 1,
          "duration": 0.08333325000000968
        },
        {
          "name": "D#5",
          "midi": 75,
          "time": 616.3327170000306,
          "velocity": 1,
          "duration": 0.08333325000000968
        },
        {
          "name": "G3",
          "midi": 55,
          "time": 616.3327170000306,
          "velocity": 1,
          "duration": 0.33333300000003874
        },
        {
          "name": "D#5",
          "midi": 75,
          "time": 616.4160502500306,
          "velocity": 1,
          "duration": 0.08333325000000968
        },
        {
          "name": "A#4",
          "midi": 70,
          "time": 616.4160502500306,
          "velocity": 1,
          "duration": 0.08333325000000968
        },
        {
          "name": "D#4",
          "midi": 63,
          "time": 616.4160502500306,
          "velocity": 1,
          "duration": 0.08333325000000968
        },
        {
          "name": "D#4",
          "midi": 63,
          "time": 616.4993835000306,
          "velocity": 1,
          "duration": 0.08333325000000968
        },
        {
          "name": "A#4",
          "midi": 70,
          "time": 616.4993835000306,
          "velocity": 1,
          "duration": 0.08333325000000968
        },
        {
          "name": "D#5",
          "midi": 75,
          "time": 616.4993835000306,
          "velocity": 1,
          "duration": 0.08333325000000968
        },
        {
          "name": "D#5",
          "midi": 75,
          "time": 616.5827167500306,
          "velocity": 1,
          "duration": 0.08333325000000968
        },
        {
          "name": "A#4",
          "midi": 70,
          "time": 616.5827167500306,
          "velocity": 1,
          "duration": 0.08333325000000968
        },
        {
          "name": "D#4",
          "midi": 63,
          "time": 616.5827167500306,
          "velocity": 1,
          "duration": 0.08333325000000968
        },
        {
          "name": "A#3",
          "midi": 58,
          "time": 616.6660500000306,
          "velocity": 1,
          "duration": 0.33333300000003874
        },
        {
          "name": "D#4",
          "midi": 63,
          "time": 616.6660500000306,
          "velocity": 1,
          "duration": 0.08333325000000968
        },
        {
          "name": "A#4",
          "midi": 70,
          "time": 616.6660500000306,
          "velocity": 1,
          "duration": 0.08333325000000968
        },
        {
          "name": "G4",
          "midi": 67,
          "time": 616.6660500000306,
          "velocity": 1,
          "duration": 0.08333325000000968
        },
        {
          "name": "D#5",
          "midi": 75,
          "time": 616.6660500000306,
          "velocity": 1,
          "duration": 0.08333325000000968
        },
        {
          "name": "A#2",
          "midi": 46,
          "time": 616.6660500000306,
          "velocity": 1,
          "duration": 0.33333300000003874
        },
        {
          "name": "D#5",
          "midi": 75,
          "time": 616.7493832500306,
          "velocity": 1,
          "duration": 0.08333325000000968
        },
        {
          "name": "G4",
          "midi": 67,
          "time": 616.7493832500306,
          "velocity": 1,
          "duration": 0.08333325000000968
        },
        {
          "name": "A#4",
          "midi": 70,
          "time": 616.7493832500306,
          "velocity": 1,
          "duration": 0.08333325000000968
        },
        {
          "name": "D#4",
          "midi": 63,
          "time": 616.7493832500306,
          "velocity": 1,
          "duration": 0.08333325000000968
        },
        {
          "name": "D#4",
          "midi": 63,
          "time": 616.8327165000306,
          "velocity": 1,
          "duration": 0.08333325000000968
        },
        {
          "name": "A#4",
          "midi": 70,
          "time": 616.8327165000306,
          "velocity": 1,
          "duration": 0.08333325000000968
        },
        {
          "name": "G4",
          "midi": 67,
          "time": 616.8327165000306,
          "velocity": 1,
          "duration": 0.08333325000000968
        },
        {
          "name": "D#5",
          "midi": 75,
          "time": 616.8327165000306,
          "velocity": 1,
          "duration": 0.08333325000000968
        },
        {
          "name": "D#5",
          "midi": 75,
          "time": 616.9160497500307,
          "velocity": 1,
          "duration": 0.08333325000000968
        },
        {
          "name": "G4",
          "midi": 67,
          "time": 616.9160497500307,
          "velocity": 1,
          "duration": 0.08333325000000968
        },
        {
          "name": "A#4",
          "midi": 70,
          "time": 616.9160497500307,
          "velocity": 1,
          "duration": 0.08333325000000968
        },
        {
          "name": "D#4",
          "midi": 63,
          "time": 616.9160497500307,
          "velocity": 1,
          "duration": 0.08333325000000968
        },
        {
          "name": "A#4",
          "midi": 70,
          "time": 616.9993830000307,
          "velocity": 1,
          "duration": 1.333332000000155
        },
        {
          "name": "D#4",
          "midi": 63,
          "time": 616.9993830000307,
          "velocity": 1,
          "duration": 0.08333325000000968
        },
        {
          "name": "G4",
          "midi": 67,
          "time": 616.9993830000307,
          "velocity": 1,
          "duration": 0.08333325000000968
        },
        {
          "name": "D#5",
          "midi": 75,
          "time": 616.9993830000307,
          "velocity": 1,
          "duration": 0.08333325000000968
        },
        {
          "name": "A#3",
          "midi": 58,
          "time": 616.9993830000307,
          "velocity": 1,
          "duration": 1.333332000000155
        },
        {
          "name": "D#5",
          "midi": 75,
          "time": 617.0827162500307,
          "velocity": 1,
          "duration": 0.08333325000000968
        },
        {
          "name": "G4",
          "midi": 67,
          "time": 617.0827162500307,
          "velocity": 1,
          "duration": 0.08333325000000968
        },
        {
          "name": "D#4",
          "midi": 63,
          "time": 617.0827162500307,
          "velocity": 1,
          "duration": 0.08333325000000968
        },
        {
          "name": "D#5",
          "midi": 75,
          "time": 617.1660495000307,
          "velocity": 1,
          "duration": 0.08333325000000968
        },
        {
          "name": "G4",
          "midi": 67,
          "time": 617.1660495000307,
          "velocity": 1,
          "duration": 0.08333325000000968
        },
        {
          "name": "D#4",
          "midi": 63,
          "time": 617.1660495000307,
          "velocity": 1,
          "duration": 0.08333325000000968
        },
        {
          "name": "D#4",
          "midi": 63,
          "time": 617.2493827500307,
          "velocity": 1,
          "duration": 0.08333325000000968
        },
        {
          "name": "G4",
          "midi": 67,
          "time": 617.2493827500307,
          "velocity": 1,
          "duration": 0.08333325000000968
        },
        {
          "name": "D#5",
          "midi": 75,
          "time": 617.2493827500307,
          "velocity": 1,
          "duration": 0.08333325000000968
        },
        {
          "name": "D#5",
          "midi": 75,
          "time": 617.3327160000307,
          "velocity": 1,
          "duration": 0.08333325000000968
        },
        {
          "name": "G4",
          "midi": 67,
          "time": 617.3327160000307,
          "velocity": 1,
          "duration": 0.08333325000000968
        },
        {
          "name": "D#4",
          "midi": 63,
          "time": 617.3327160000307,
          "velocity": 1,
          "duration": 0.08333325000000968
        },
        {
          "name": "D#5",
          "midi": 75,
          "time": 617.4160492500307,
          "velocity": 1,
          "duration": 0.08333325000000968
        },
        {
          "name": "G4",
          "midi": 67,
          "time": 617.4160492500307,
          "velocity": 1,
          "duration": 0.08333325000000968
        },
        {
          "name": "D#4",
          "midi": 63,
          "time": 617.4160492500307,
          "velocity": 1,
          "duration": 0.08333325000000968
        },
        {
          "name": "D#5",
          "midi": 75,
          "time": 617.4993825000307,
          "velocity": 1,
          "duration": 0.08333325000000968
        },
        {
          "name": "G4",
          "midi": 67,
          "time": 617.4993825000307,
          "velocity": 1,
          "duration": 0.08333325000000968
        },
        {
          "name": "D#4",
          "midi": 63,
          "time": 617.4993825000307,
          "velocity": 1,
          "duration": 0.08333325000000968
        },
        {
          "name": "D#4",
          "midi": 63,
          "time": 617.5827157500307,
          "velocity": 1,
          "duration": 0.08333325000000968
        },
        {
          "name": "G4",
          "midi": 67,
          "time": 617.5827157500307,
          "velocity": 1,
          "duration": 0.08333325000000968
        },
        {
          "name": "D#5",
          "midi": 75,
          "time": 617.5827157500307,
          "velocity": 1,
          "duration": 0.08333325000000968
        },
        {
          "name": "D#5",
          "midi": 75,
          "time": 617.6660490000307,
          "velocity": 1,
          "duration": 0.08333325000000968
        },
        {
          "name": "G4",
          "midi": 67,
          "time": 617.6660490000307,
          "velocity": 1,
          "duration": 0.08333325000000968
        },
        {
          "name": "D#4",
          "midi": 63,
          "time": 617.6660490000307,
          "velocity": 1,
          "duration": 0.08333325000000968
        },
        {
          "name": "D#5",
          "midi": 75,
          "time": 617.7493822500307,
          "velocity": 1,
          "duration": 0.08333325000000968
        },
        {
          "name": "G4",
          "midi": 67,
          "time": 617.7493822500307,
          "velocity": 1,
          "duration": 0.08333325000000968
        },
        {
          "name": "D#4",
          "midi": 63,
          "time": 617.7493822500307,
          "velocity": 1,
          "duration": 0.08333325000000968
        },
        {
          "name": "D#5",
          "midi": 75,
          "time": 617.8327155000308,
          "velocity": 1,
          "duration": 0.08333325000000968
        },
        {
          "name": "G4",
          "midi": 67,
          "time": 617.8327155000308,
          "velocity": 1,
          "duration": 0.08333325000000968
        },
        {
          "name": "D#4",
          "midi": 63,
          "time": 617.8327155000308,
          "velocity": 1,
          "duration": 0.08333325000000968
        },
        {
          "name": "D#4",
          "midi": 63,
          "time": 617.9160487500308,
          "velocity": 1,
          "duration": 0.08333325000000968
        },
        {
          "name": "G4",
          "midi": 67,
          "time": 617.9160487500308,
          "velocity": 1,
          "duration": 0.08333325000000968
        },
        {
          "name": "D#5",
          "midi": 75,
          "time": 617.9160487500308,
          "velocity": 1,
          "duration": 0.08333325000000968
        },
        {
          "name": "D#5",
          "midi": 75,
          "time": 617.9993820000308,
          "velocity": 1,
          "duration": 0.08333325000000968
        },
        {
          "name": "C5",
          "midi": 72,
          "time": 617.9993820000308,
          "velocity": 1,
          "duration": 0.08333325000000968
        },
        {
          "name": "D#4",
          "midi": 63,
          "time": 617.9993820000308,
          "velocity": 1,
          "duration": 0.08333325000000968
        },
        {
          "name": "D#4",
          "midi": 63,
          "time": 618.0827152500308,
          "velocity": 1,
          "duration": 0.08333325000000968
        },
        {
          "name": "C5",
          "midi": 72,
          "time": 618.0827152500308,
          "velocity": 1,
          "duration": 0.08333325000000968
        },
        {
          "name": "F#5",
          "midi": 78,
          "time": 618.0827152500308,
          "velocity": 1,
          "duration": 0.08333325000000968
        },
        {
          "name": "F#5",
          "midi": 78,
          "time": 618.1660485000308,
          "velocity": 1,
          "duration": 0.08333325000000968
        },
        {
          "name": "C5",
          "midi": 72,
          "time": 618.1660485000308,
          "velocity": 1,
          "duration": 0.08333325000000968
        },
        {
          "name": "D#4",
          "midi": 63,
          "time": 618.1660485000308,
          "velocity": 1,
          "duration": 0.08333325000000968
        },
        {
          "name": "F#5",
          "midi": 78,
          "time": 618.2493817500308,
          "velocity": 1,
          "duration": 0.08333325000000968
        },
        {
          "name": "C5",
          "midi": 72,
          "time": 618.2493817500308,
          "velocity": 1,
          "duration": 0.08333325000000968
        },
        {
          "name": "D#4",
          "midi": 63,
          "time": 618.2493817500308,
          "velocity": 1,
          "duration": 0.08333325000000968
        },
        {
          "name": "A4",
          "midi": 69,
          "time": 618.3327150000308,
          "velocity": 1,
          "duration": 0.33333300000003874
        },
        {
          "name": "D#4",
          "midi": 63,
          "time": 618.3327150000308,
          "velocity": 1,
          "duration": 0.08333325000000968
        },
        {
          "name": "C5",
          "midi": 72,
          "time": 618.3327150000308,
          "velocity": 1,
          "duration": 0.08333325000000968
        },
        {
          "name": "F#5",
          "midi": 78,
          "time": 618.3327150000308,
          "velocity": 1,
          "duration": 0.08333325000000968
        },
        {
          "name": "A3",
          "midi": 57,
          "time": 618.3327150000308,
          "velocity": 1,
          "duration": 0.33333300000003874
        },
        {
          "name": "F#5",
          "midi": 78,
          "time": 618.4160482500308,
          "velocity": 1,
          "duration": 0.08333325000000968
        },
        {
          "name": "C5",
          "midi": 72,
          "time": 618.4160482500308,
          "velocity": 1,
          "duration": 0.08333325000000968
        },
        {
          "name": "D#4",
          "midi": 63,
          "time": 618.4160482500308,
          "velocity": 1,
          "duration": 0.08333325000000968
        },
        {
          "name": "F#5",
          "midi": 78,
          "time": 618.4993815000308,
          "velocity": 1,
          "duration": 0.08333325000000968
        },
        {
          "name": "C5",
          "midi": 72,
          "time": 618.4993815000308,
          "velocity": 1,
          "duration": 0.08333325000000968
        },
        {
          "name": "D#4",
          "midi": 63,
          "time": 618.4993815000308,
          "velocity": 1,
          "duration": 0.08333325000000968
        },
        {
          "name": "F#5",
          "midi": 78,
          "time": 618.5827147500308,
          "velocity": 1,
          "duration": 0.08333325000000968
        },
        {
          "name": "C5",
          "midi": 72,
          "time": 618.5827147500308,
          "velocity": 1,
          "duration": 0.08333325000000968
        },
        {
          "name": "D#4",
          "midi": 63,
          "time": 618.5827147500308,
          "velocity": 1,
          "duration": 0.08333325000000968
        },
        {
          "name": "A#3",
          "midi": 58,
          "time": 618.6660480000309,
          "velocity": 1,
          "duration": 0.33333300000003874
        },
        {
          "name": "D#4",
          "midi": 63,
          "time": 618.6660480000309,
          "velocity": 1,
          "duration": 0.08333325000000968
        },
        {
          "name": "C5",
          "midi": 72,
          "time": 618.6660480000309,
          "velocity": 1,
          "duration": 0.08333325000000968
        },
        {
          "name": "F#5",
          "midi": 78,
          "time": 618.6660480000309,
          "velocity": 1,
          "duration": 0.08333325000000968
        },
        {
          "name": "A#2",
          "midi": 46,
          "time": 618.6660480000309,
          "velocity": 1,
          "duration": 0.33333300000003874
        },
        {
          "name": "F#5",
          "midi": 78,
          "time": 618.7493812500309,
          "velocity": 1,
          "duration": 0.08333325000000968
        },
        {
          "name": "C5",
          "midi": 72,
          "time": 618.7493812500309,
          "velocity": 1,
          "duration": 0.08333325000000968
        },
        {
          "name": "D#4",
          "midi": 63,
          "time": 618.7493812500309,
          "velocity": 1,
          "duration": 0.08333325000000968
        },
        {
          "name": "F#5",
          "midi": 78,
          "time": 618.8327145000309,
          "velocity": 1,
          "duration": 0.08333325000000968
        },
        {
          "name": "C5",
          "midi": 72,
          "time": 618.8327145000309,
          "velocity": 1,
          "duration": 0.08333325000000968
        },
        {
          "name": "D#4",
          "midi": 63,
          "time": 618.8327145000309,
          "velocity": 1,
          "duration": 0.08333325000000968
        },
        {
          "name": "F#5",
          "midi": 78,
          "time": 618.9160477500309,
          "velocity": 1,
          "duration": 0.08333325000000968
        },
        {
          "name": "C5",
          "midi": 72,
          "time": 618.9160477500309,
          "velocity": 1,
          "duration": 0.08333325000000968
        },
        {
          "name": "D#4",
          "midi": 63,
          "time": 618.9160477500309,
          "velocity": 1,
          "duration": 0.08333325000000968
        },
        {
          "name": "A4",
          "midi": 69,
          "time": 618.9993810000309,
          "velocity": 1,
          "duration": 0.33333300000003874
        },
        {
          "name": "D#4",
          "midi": 63,
          "time": 618.9993810000309,
          "velocity": 1,
          "duration": 0.08333325000000968
        },
        {
          "name": "C5",
          "midi": 72,
          "time": 618.9993810000309,
          "velocity": 1,
          "duration": 0.08333325000000968
        },
        {
          "name": "F#5",
          "midi": 78,
          "time": 618.9993810000309,
          "velocity": 1,
          "duration": 0.08333325000000968
        },
        {
          "name": "A3",
          "midi": 57,
          "time": 618.9993810000309,
          "velocity": 1,
          "duration": 0.33333300000003874
        },
        {
          "name": "F#5",
          "midi": 78,
          "time": 619.0827142500309,
          "velocity": 1,
          "duration": 0.08333325000000968
        },
        {
          "name": "C5",
          "midi": 72,
          "time": 619.0827142500309,
          "velocity": 1,
          "duration": 0.08333325000000968
        },
        {
          "name": "D#4",
          "midi": 63,
          "time": 619.0827142500309,
          "velocity": 1,
          "duration": 0.08333325000000968
        },
        {
          "name": "F#5",
          "midi": 78,
          "time": 619.1660475000309,
          "velocity": 1,
          "duration": 0.08333325000000968
        },
        {
          "name": "C5",
          "midi": 72,
          "time": 619.1660475000309,
          "velocity": 1,
          "duration": 0.08333325000000968
        },
        {
          "name": "D#4",
          "midi": 63,
          "time": 619.1660475000309,
          "velocity": 1,
          "duration": 0.08333325000000968
        },
        {
          "name": "F#5",
          "midi": 78,
          "time": 619.2493807500309,
          "velocity": 1,
          "duration": 0.08333325000000968
        },
        {
          "name": "C5",
          "midi": 72,
          "time": 619.2493807500309,
          "velocity": 1,
          "duration": 0.08333325000000968
        },
        {
          "name": "D#4",
          "midi": 63,
          "time": 619.2493807500309,
          "velocity": 1,
          "duration": 0.08333325000000968
        },
        {
          "name": "A#3",
          "midi": 58,
          "time": 619.3327140000309,
          "velocity": 1,
          "duration": 0.33333300000003874
        },
        {
          "name": "D#4",
          "midi": 63,
          "time": 619.3327140000309,
          "velocity": 1,
          "duration": 0.08333325000000968
        },
        {
          "name": "C5",
          "midi": 72,
          "time": 619.3327140000309,
          "velocity": 1,
          "duration": 0.08333325000000968
        },
        {
          "name": "F#5",
          "midi": 78,
          "time": 619.3327140000309,
          "velocity": 1,
          "duration": 0.08333325000000968
        },
        {
          "name": "A#2",
          "midi": 46,
          "time": 619.3327140000309,
          "velocity": 1,
          "duration": 0.33333300000003874
        },
        {
          "name": "F#5",
          "midi": 78,
          "time": 619.4160472500309,
          "velocity": 1,
          "duration": 0.08333325000000968
        },
        {
          "name": "C5",
          "midi": 72,
          "time": 619.4160472500309,
          "velocity": 1,
          "duration": 0.08333325000000968
        },
        {
          "name": "D#4",
          "midi": 63,
          "time": 619.4160472500309,
          "velocity": 1,
          "duration": 0.08333325000000968
        },
        {
          "name": "F#5",
          "midi": 78,
          "time": 619.499380500031,
          "velocity": 1,
          "duration": 0.08333325000000968
        },
        {
          "name": "C5",
          "midi": 72,
          "time": 619.499380500031,
          "velocity": 1,
          "duration": 0.08333325000000968
        },
        {
          "name": "D#4",
          "midi": 63,
          "time": 619.499380500031,
          "velocity": 1,
          "duration": 0.08333325000000968
        },
        {
          "name": "F#5",
          "midi": 78,
          "time": 619.582713750031,
          "velocity": 1,
          "duration": 0.08333325000000968
        },
        {
          "name": "C5",
          "midi": 72,
          "time": 619.582713750031,
          "velocity": 1,
          "duration": 0.08333325000000968
        },
        {
          "name": "D#4",
          "midi": 63,
          "time": 619.582713750031,
          "velocity": 1,
          "duration": 0.08333325000000968
        },
        {
          "name": "A4",
          "midi": 69,
          "time": 619.666047000031,
          "velocity": 1,
          "duration": 0.33333300000003874
        },
        {
          "name": "D#4",
          "midi": 63,
          "time": 619.666047000031,
          "velocity": 1,
          "duration": 0.08333325000000968
        },
        {
          "name": "C5",
          "midi": 72,
          "time": 619.666047000031,
          "velocity": 1,
          "duration": 0.08333325000000968
        },
        {
          "name": "F#5",
          "midi": 78,
          "time": 619.666047000031,
          "velocity": 1,
          "duration": 0.08333325000000968
        },
        {
          "name": "A3",
          "midi": 57,
          "time": 619.666047000031,
          "velocity": 1,
          "duration": 0.33333300000003874
        },
        {
          "name": "F#5",
          "midi": 78,
          "time": 619.749380250031,
          "velocity": 1,
          "duration": 0.08333325000000968
        },
        {
          "name": "C5",
          "midi": 72,
          "time": 619.749380250031,
          "velocity": 1,
          "duration": 0.08333325000000968
        },
        {
          "name": "D#4",
          "midi": 63,
          "time": 619.749380250031,
          "velocity": 1,
          "duration": 0.08333325000000968
        },
        {
          "name": "F#5",
          "midi": 78,
          "time": 619.832713500031,
          "velocity": 1,
          "duration": 0.08333325000000968
        },
        {
          "name": "C5",
          "midi": 72,
          "time": 619.832713500031,
          "velocity": 1,
          "duration": 0.08333325000000968
        },
        {
          "name": "D#4",
          "midi": 63,
          "time": 619.832713500031,
          "velocity": 1,
          "duration": 0.08333325000000968
        },
        {
          "name": "D#4",
          "midi": 63,
          "time": 619.916046750031,
          "velocity": 1,
          "duration": 0.08333325000000968
        },
        {
          "name": "C5",
          "midi": 72,
          "time": 619.916046750031,
          "velocity": 1,
          "duration": 0.08333325000000968
        },
        {
          "name": "F#5",
          "midi": 78,
          "time": 619.916046750031,
          "velocity": 1,
          "duration": 0.08333325000000968
        },
        {
          "name": "A#2",
          "midi": 46,
          "time": 619.999380000031,
          "velocity": 1,
          "duration": 0.33333300000003874
        },
        {
          "name": "F#5",
          "midi": 78,
          "time": 619.999380000031,
          "velocity": 1,
          "duration": 0.08333325000000968
        },
        {
          "name": "C5",
          "midi": 72,
          "time": 619.999380000031,
          "velocity": 1,
          "duration": 0.08333325000000968
        },
        {
          "name": "D#4",
          "midi": 63,
          "time": 619.999380000031,
          "velocity": 1,
          "duration": 0.08333325000000968
        },
        {
          "name": "A#3",
          "midi": 58,
          "time": 619.999380000031,
          "velocity": 1,
          "duration": 0.33333300000003874
        },
        {
          "name": "D#4",
          "midi": 63,
          "time": 620.082713250031,
          "velocity": 1,
          "duration": 0.08333325000000968
        },
        {
          "name": "C5",
          "midi": 72,
          "time": 620.082713250031,
          "velocity": 1,
          "duration": 0.08333325000000968
        },
        {
          "name": "F#5",
          "midi": 78,
          "time": 620.082713250031,
          "velocity": 1,
          "duration": 0.08333325000000968
        },
        {
          "name": "F#5",
          "midi": 78,
          "time": 620.166046500031,
          "velocity": 1,
          "duration": 0.08333325000000968
        },
        {
          "name": "C5",
          "midi": 72,
          "time": 620.166046500031,
          "velocity": 1,
          "duration": 0.08333325000000968
        },
        {
          "name": "D#4",
          "midi": 63,
          "time": 620.166046500031,
          "velocity": 1,
          "duration": 0.08333325000000968
        },
        {
          "name": "F#5",
          "midi": 78,
          "time": 620.249379750031,
          "velocity": 1,
          "duration": 0.08333325000000968
        },
        {
          "name": "C5",
          "midi": 72,
          "time": 620.249379750031,
          "velocity": 1,
          "duration": 0.08333325000000968
        },
        {
          "name": "D#4",
          "midi": 63,
          "time": 620.249379750031,
          "velocity": 1,
          "duration": 0.08333325000000968
        },
        {
          "name": "A3",
          "midi": 57,
          "time": 620.332713000031,
          "velocity": 1,
          "duration": 0.33333300000003874
        },
        {
          "name": "F#5",
          "midi": 78,
          "time": 620.332713000031,
          "velocity": 1,
          "duration": 0.08333325000000968
        },
        {
          "name": "C5",
          "midi": 72,
          "time": 620.332713000031,
          "velocity": 1,
          "duration": 0.08333325000000968
        },
        {
          "name": "D#4",
          "midi": 63,
          "time": 620.332713000031,
          "velocity": 1,
          "duration": 0.08333325000000968
        },
        {
          "name": "A4",
          "midi": 69,
          "time": 620.332713000031,
          "velocity": 1,
          "duration": 0.33333300000003874
        },
        {
          "name": "D#4",
          "midi": 63,
          "time": 620.4160462500311,
          "velocity": 1,
          "duration": 0.08333325000000968
        },
        {
          "name": "C5",
          "midi": 72,
          "time": 620.4160462500311,
          "velocity": 1,
          "duration": 0.08333325000000968
        },
        {
          "name": "F#5",
          "midi": 78,
          "time": 620.4160462500311,
          "velocity": 1,
          "duration": 0.08333325000000968
        },
        {
          "name": "F#5",
          "midi": 78,
          "time": 620.4993795000311,
          "velocity": 1,
          "duration": 0.08333325000000968
        },
        {
          "name": "C5",
          "midi": 72,
          "time": 620.4993795000311,
          "velocity": 1,
          "duration": 0.08333325000000968
        },
        {
          "name": "D#4",
          "midi": 63,
          "time": 620.4993795000311,
          "velocity": 1,
          "duration": 0.08333325000000968
        },
        {
          "name": "F#5",
          "midi": 78,
          "time": 620.5827127500311,
          "velocity": 1,
          "duration": 0.08333325000000968
        },
        {
          "name": "C5",
          "midi": 72,
          "time": 620.5827127500311,
          "velocity": 1,
          "duration": 0.08333325000000968
        },
        {
          "name": "D#4",
          "midi": 63,
          "time": 620.5827127500311,
          "velocity": 1,
          "duration": 0.08333325000000968
        },
        {
          "name": "A#3",
          "midi": 58,
          "time": 620.6660460000311,
          "velocity": 1,
          "duration": 0.33333300000003874
        },
        {
          "name": "D#4",
          "midi": 63,
          "time": 620.6660460000311,
          "velocity": 1,
          "duration": 0.08333325000000968
        },
        {
          "name": "C5",
          "midi": 72,
          "time": 620.6660460000311,
          "velocity": 1,
          "duration": 0.08333325000000968
        },
        {
          "name": "F#5",
          "midi": 78,
          "time": 620.6660460000311,
          "velocity": 1,
          "duration": 0.08333325000000968
        },
        {
          "name": "A#2",
          "midi": 46,
          "time": 620.6660460000311,
          "velocity": 1,
          "duration": 0.33333300000003874
        },
        {
          "name": "F#5",
          "midi": 78,
          "time": 620.7493792500311,
          "velocity": 1,
          "duration": 0.08333325000000968
        },
        {
          "name": "C5",
          "midi": 72,
          "time": 620.7493792500311,
          "velocity": 1,
          "duration": 0.08333325000000968
        },
        {
          "name": "D#4",
          "midi": 63,
          "time": 620.7493792500311,
          "velocity": 1,
          "duration": 0.08333325000000968
        },
        {
          "name": "D#4",
          "midi": 63,
          "time": 620.8327125000311,
          "velocity": 1,
          "duration": 0.08333325000000968
        },
        {
          "name": "C5",
          "midi": 72,
          "time": 620.8327125000311,
          "velocity": 1,
          "duration": 0.08333325000000968
        },
        {
          "name": "F#5",
          "midi": 78,
          "time": 620.8327125000311,
          "velocity": 1,
          "duration": 0.08333325000000968
        },
        {
          "name": "F#5",
          "midi": 78,
          "time": 620.9160457500311,
          "velocity": 1,
          "duration": 0.08333325000000968
        },
        {
          "name": "C5",
          "midi": 72,
          "time": 620.9160457500311,
          "velocity": 1,
          "duration": 0.08333325000000968
        },
        {
          "name": "D#4",
          "midi": 63,
          "time": 620.9160457500311,
          "velocity": 1,
          "duration": 0.08333325000000968
        },
        {
          "name": "A3",
          "midi": 57,
          "time": 620.9993790000311,
          "velocity": 1,
          "duration": 0.33333300000003874
        },
        {
          "name": "F#5",
          "midi": 78,
          "time": 620.9993790000311,
          "velocity": 1,
          "duration": 0.08333325000000968
        },
        {
          "name": "C5",
          "midi": 72,
          "time": 620.9993790000311,
          "velocity": 1,
          "duration": 0.08333325000000968
        },
        {
          "name": "D#4",
          "midi": 63,
          "time": 620.9993790000311,
          "velocity": 1,
          "duration": 0.08333325000000968
        },
        {
          "name": "A4",
          "midi": 69,
          "time": 620.9993790000311,
          "velocity": 1,
          "duration": 0.33333300000003874
        },
        {
          "name": "F#5",
          "midi": 78,
          "time": 621.0827122500311,
          "velocity": 1,
          "duration": 0.08333325000000968
        },
        {
          "name": "C5",
          "midi": 72,
          "time": 621.0827122500311,
          "velocity": 1,
          "duration": 0.08333325000000968
        },
        {
          "name": "D#4",
          "midi": 63,
          "time": 621.0827122500311,
          "velocity": 1,
          "duration": 0.08333325000000968
        },
        {
          "name": "D#4",
          "midi": 63,
          "time": 621.1660455000311,
          "velocity": 1,
          "duration": 0.08333325000000968
        },
        {
          "name": "C5",
          "midi": 72,
          "time": 621.1660455000311,
          "velocity": 1,
          "duration": 0.08333325000000968
        },
        {
          "name": "F#5",
          "midi": 78,
          "time": 621.1660455000311,
          "velocity": 1,
          "duration": 0.08333325000000968
        },
        {
          "name": "F#5",
          "midi": 78,
          "time": 621.2493787500312,
          "velocity": 1,
          "duration": 0.08333325000000968
        },
        {
          "name": "C5",
          "midi": 72,
          "time": 621.2493787500312,
          "velocity": 1,
          "duration": 0.08333325000000968
        },
        {
          "name": "D#4",
          "midi": 63,
          "time": 621.2493787500312,
          "velocity": 1,
          "duration": 0.08333325000000968
        },
        {
          "name": "A#3",
          "midi": 58,
          "time": 621.3327120000312,
          "velocity": 1,
          "duration": 0.33333300000003874
        },
        {
          "name": "D#4",
          "midi": 63,
          "time": 621.3327120000312,
          "velocity": 1,
          "duration": 0.08333325000000968
        },
        {
          "name": "C5",
          "midi": 72,
          "time": 621.3327120000312,
          "velocity": 1,
          "duration": 0.08333325000000968
        },
        {
          "name": "F5",
          "midi": 77,
          "time": 621.3327120000312,
          "velocity": 1,
          "duration": 0.08333325000000968
        },
        {
          "name": "A#2",
          "midi": 46,
          "time": 621.3327120000312,
          "velocity": 1,
          "duration": 0.33333300000003874
        },
        {
          "name": "F5",
          "midi": 77,
          "time": 621.4160452500312,
          "velocity": 1,
          "duration": 0.08333325000000968
        },
        {
          "name": "C5",
          "midi": 72,
          "time": 621.4160452500312,
          "velocity": 1,
          "duration": 0.08333325000000968
        },
        {
          "name": "D#4",
          "midi": 63,
          "time": 621.4160452500312,
          "velocity": 1,
          "duration": 0.08333325000000968
        },
        {
          "name": "F5",
          "midi": 77,
          "time": 621.4993785000312,
          "velocity": 1,
          "duration": 0.08333325000000968
        },
        {
          "name": "C5",
          "midi": 72,
          "time": 621.4993785000312,
          "velocity": 1,
          "duration": 0.08333325000000968
        },
        {
          "name": "D#4",
          "midi": 63,
          "time": 621.4993785000312,
          "velocity": 1,
          "duration": 0.08333325000000968
        },
        {
          "name": "D#4",
          "midi": 63,
          "time": 621.5827117500312,
          "velocity": 1,
          "duration": 0.08333325000000968
        },
        {
          "name": "C5",
          "midi": 72,
          "time": 621.5827117500312,
          "velocity": 1,
          "duration": 0.08333325000000968
        },
        {
          "name": "F5",
          "midi": 77,
          "time": 621.5827117500312,
          "velocity": 1,
          "duration": 0.08333325000000968
        },
        {
          "name": "A3",
          "midi": 57,
          "time": 621.6660450000312,
          "velocity": 1,
          "duration": 0.33333300000003874
        },
        {
          "name": "D#5",
          "midi": 75,
          "time": 621.6660450000312,
          "velocity": 1,
          "duration": 0.08333325000000968
        },
        {
          "name": "C5",
          "midi": 72,
          "time": 621.6660450000312,
          "velocity": 1,
          "duration": 0.08333325000000968
        },
        {
          "name": "D#4",
          "midi": 63,
          "time": 621.6660450000312,
          "velocity": 1,
          "duration": 0.08333325000000968
        },
        {
          "name": "A4",
          "midi": 69,
          "time": 621.6660450000312,
          "velocity": 1,
          "duration": 0.33333300000003874
        },
        {
          "name": "D#5",
          "midi": 75,
          "time": 621.7493782500312,
          "velocity": 1,
          "duration": 0.08333325000000968
        },
        {
          "name": "C5",
          "midi": 72,
          "time": 621.7493782500312,
          "velocity": 1,
          "duration": 0.08333325000000968
        },
        {
          "name": "D#4",
          "midi": 63,
          "time": 621.7493782500312,
          "velocity": 1,
          "duration": 0.08333325000000968
        },
        {
          "name": "D#5",
          "midi": 75,
          "time": 621.8327115000312,
          "velocity": 1,
          "duration": 0.08333325000000968
        },
        {
          "name": "C5",
          "midi": 72,
          "time": 621.8327115000312,
          "velocity": 1,
          "duration": 0.08333325000000968
        },
        {
          "name": "D#4",
          "midi": 63,
          "time": 621.8327115000312,
          "velocity": 1,
          "duration": 0.08333325000000968
        },
        {
          "name": "D#4",
          "midi": 63,
          "time": 621.9160447500312,
          "velocity": 1,
          "duration": 0.08333325000000968
        },
        {
          "name": "C5",
          "midi": 72,
          "time": 621.9160447500312,
          "velocity": 1,
          "duration": 0.08333325000000968
        },
        {
          "name": "D#5",
          "midi": 75,
          "time": 621.9160447500312,
          "velocity": 1,
          "duration": 0.08333325000000968
        },
        {
          "name": "A#2",
          "midi": 46,
          "time": 621.9993780000312,
          "velocity": 1,
          "duration": 0.33333300000003874
        },
        {
          "name": "D5",
          "midi": 74,
          "time": 621.9993780000312,
          "velocity": 1,
          "duration": 0.08333325000000968
        },
        {
          "name": "F4",
          "midi": 65,
          "time": 621.9993780000312,
          "velocity": 1,
          "duration": 0.08333325000000968
        },
        {
          "name": "A#3",
          "midi": 58,
          "time": 621.9993780000312,
          "velocity": 1,
          "duration": 0.33333300000003874
        },
        {
          "name": "G#5",
          "midi": 80,
          "time": 622.0827112500313,
          "velocity": 1,
          "duration": 0.08333325000000968
        },
        {
          "name": "F4",
          "midi": 65,
          "time": 622.0827112500313,
          "velocity": 1,
          "duration": 0.08333325000000968
        },
        {
          "name": "G#5",
          "midi": 80,
          "time": 622.1660445000313,
          "velocity": 1,
          "duration": 0.08333325000000968
        },
        {
          "name": "F4",
          "midi": 65,
          "time": 622.1660445000313,
          "velocity": 1,
          "duration": 0.08333325000000968
        },
        {
          "name": "G#5",
          "midi": 80,
          "time": 622.2493777500313,
          "velocity": 1,
          "duration": 0.08333325000000968
        },
        {
          "name": "F4",
          "midi": 65,
          "time": 622.2493777500313,
          "velocity": 1,
          "duration": 0.08333325000000968
        },
        {
          "name": "A#4",
          "midi": 70,
          "time": 622.3327110000313,
          "velocity": 1,
          "duration": 0.33333300000003874
        },
        {
          "name": "F4",
          "midi": 65,
          "time": 622.3327110000313,
          "velocity": 1,
          "duration": 0.08333325000000968
        },
        {
          "name": "G#5",
          "midi": 80,
          "time": 622.3327110000313,
          "velocity": 1,
          "duration": 0.08333325000000968
        },
        {
          "name": "A#3",
          "midi": 58,
          "time": 622.3327110000313,
          "velocity": 1,
          "duration": 0.33333300000003874
        },
        {
          "name": "G#5",
          "midi": 80,
          "time": 622.4160442500313,
          "velocity": 1,
          "duration": 0.08333325000000968
        },
        {
          "name": "F4",
          "midi": 65,
          "time": 622.4160442500313,
          "velocity": 1,
          "duration": 0.08333325000000968
        },
        {
          "name": "G#5",
          "midi": 80,
          "time": 622.4993775000313,
          "velocity": 1,
          "duration": 0.08333325000000968
        },
        {
          "name": "F4",
          "midi": 65,
          "time": 622.4993775000313,
          "velocity": 1,
          "duration": 0.08333325000000968
        },
        {
          "name": "F4",
          "midi": 65,
          "time": 622.5827107500313,
          "velocity": 1,
          "duration": 0.08333325000000968
        },
        {
          "name": "G#5",
          "midi": 80,
          "time": 622.5827107500313,
          "velocity": 1,
          "duration": 0.08333325000000968
        },
        {
          "name": "A#2",
          "midi": 46,
          "time": 622.6660440000313,
          "velocity": 1,
          "duration": 0.33333300000003874
        },
        {
          "name": "G#5",
          "midi": 80,
          "time": 622.6660440000313,
          "velocity": 1,
          "duration": 0.08333325000000968
        },
        {
          "name": "F4",
          "midi": 65,
          "time": 622.6660440000313,
          "velocity": 1,
          "duration": 0.08333325000000968
        },
        {
          "name": "A#3",
          "midi": 58,
          "time": 622.6660440000313,
          "velocity": 1,
          "duration": 0.33333300000003874
        },
        {
          "name": "G#5",
          "midi": 80,
          "time": 622.7493772500313,
          "velocity": 1,
          "duration": 0.08333325000000968
        },
        {
          "name": "F4",
          "midi": 65,
          "time": 622.7493772500313,
          "velocity": 1,
          "duration": 0.08333325000000968
        },
        {
          "name": "F4",
          "midi": 65,
          "time": 622.8327105000313,
          "velocity": 1,
          "duration": 0.08333325000000968
        },
        {
          "name": "G#5",
          "midi": 80,
          "time": 622.8327105000313,
          "velocity": 1,
          "duration": 0.08333325000000968
        },
        {
          "name": "G#5",
          "midi": 80,
          "time": 622.9160437500313,
          "velocity": 1,
          "duration": 0.08333325000000968
        },
        {
          "name": "F4",
          "midi": 65,
          "time": 622.9160437500313,
          "velocity": 1,
          "duration": 0.08333325000000968
        },
        {
          "name": "A#3",
          "midi": 58,
          "time": 622.9993770000314,
          "velocity": 1,
          "duration": 0.33333300000003874
        },
        {
          "name": "G#5",
          "midi": 80,
          "time": 622.9993770000314,
          "velocity": 1,
          "duration": 0.08333325000000968
        },
        {
          "name": "D5",
          "midi": 74,
          "time": 622.9993770000314,
          "velocity": 1,
          "duration": 0.08333325000000968
        },
        {
          "name": "F4",
          "midi": 65,
          "time": 622.9993770000314,
          "velocity": 1,
          "duration": 0.08333325000000968
        },
        {
          "name": "A#4",
          "midi": 70,
          "time": 622.9993770000314,
          "velocity": 1,
          "duration": 0.33333300000003874
        },
        {
          "name": "G#5",
          "midi": 80,
          "time": 623.0827102500314,
          "velocity": 1,
          "duration": 0.08333325000000968
        },
        {
          "name": "D5",
          "midi": 74,
          "time": 623.0827102500314,
          "velocity": 1,
          "duration": 0.08333325000000968
        },
        {
          "name": "F4",
          "midi": 65,
          "time": 623.0827102500314,
          "velocity": 1,
          "duration": 0.08333325000000968
        },
        {
          "name": "G#5",
          "midi": 80,
          "time": 623.1660435000314,
          "velocity": 1,
          "duration": 0.08333325000000968
        },
        {
          "name": "D5",
          "midi": 74,
          "time": 623.1660435000314,
          "velocity": 1,
          "duration": 0.08333325000000968
        },
        {
          "name": "F4",
          "midi": 65,
          "time": 623.1660435000314,
          "velocity": 1,
          "duration": 0.08333325000000968
        },
        {
          "name": "F4",
          "midi": 65,
          "time": 623.2493767500314,
          "velocity": 1,
          "duration": 0.08333325000000968
        },
        {
          "name": "D5",
          "midi": 74,
          "time": 623.2493767500314,
          "velocity": 1,
          "duration": 0.08333325000000968
        },
        {
          "name": "G#5",
          "midi": 80,
          "time": 623.2493767500314,
          "velocity": 1,
          "duration": 0.08333325000000968
        },
        {
          "name": "A#2",
          "midi": 46,
          "time": 623.3327100000314,
          "velocity": 1,
          "duration": 0.33333300000003874
        },
        {
          "name": "G#5",
          "midi": 80,
          "time": 623.3327100000314,
          "velocity": 1,
          "duration": 0.08333325000000968
        },
        {
          "name": "D5",
          "midi": 74,
          "time": 623.3327100000314,
          "velocity": 1,
          "duration": 0.08333325000000968
        },
        {
          "name": "F4",
          "midi": 65,
          "time": 623.3327100000314,
          "velocity": 1,
          "duration": 0.08333325000000968
        },
        {
          "name": "A#3",
          "midi": 58,
          "time": 623.3327100000314,
          "velocity": 1,
          "duration": 0.33333300000003874
        },
        {
          "name": "F4",
          "midi": 65,
          "time": 623.4160432500314,
          "velocity": 1,
          "duration": 0.08333325000000968
        },
        {
          "name": "D5",
          "midi": 74,
          "time": 623.4160432500314,
          "velocity": 1,
          "duration": 0.08333325000000968
        },
        {
          "name": "G#5",
          "midi": 80,
          "time": 623.4160432500314,
          "velocity": 1,
          "duration": 0.08333325000000968
        },
        {
          "name": "G#5",
          "midi": 80,
          "time": 623.4993765000314,
          "velocity": 1,
          "duration": 0.08333325000000968
        },
        {
          "name": "D5",
          "midi": 74,
          "time": 623.4993765000314,
          "velocity": 1,
          "duration": 0.08333325000000968
        },
        {
          "name": "F4",
          "midi": 65,
          "time": 623.4993765000314,
          "velocity": 1,
          "duration": 0.08333325000000968
        },
        {
          "name": "G#5",
          "midi": 80,
          "time": 623.5827097500314,
          "velocity": 1,
          "duration": 0.08333325000000968
        },
        {
          "name": "D5",
          "midi": 74,
          "time": 623.5827097500314,
          "velocity": 1,
          "duration": 0.08333325000000968
        },
        {
          "name": "F4",
          "midi": 65,
          "time": 623.5827097500314,
          "velocity": 1,
          "duration": 0.08333325000000968
        },
        {
          "name": "A#4",
          "midi": 70,
          "time": 623.6660430000314,
          "velocity": 1,
          "duration": 0.33333300000003874
        },
        {
          "name": "F4",
          "midi": 65,
          "time": 623.6660430000314,
          "velocity": 1,
          "duration": 0.08333325000000968
        },
        {
          "name": "D5",
          "midi": 74,
          "time": 623.6660430000314,
          "velocity": 1,
          "duration": 0.08333325000000968
        },
        {
          "name": "G#5",
          "midi": 80,
          "time": 623.6660430000314,
          "velocity": 1,
          "duration": 0.08333325000000968
        },
        {
          "name": "A#3",
          "midi": 58,
          "time": 623.6660430000314,
          "velocity": 1,
          "duration": 0.33333300000003874
        },
        {
          "name": "G#5",
          "midi": 80,
          "time": 623.7493762500314,
          "velocity": 1,
          "duration": 0.08333325000000968
        },
        {
          "name": "D5",
          "midi": 74,
          "time": 623.7493762500314,
          "velocity": 1,
          "duration": 0.08333325000000968
        },
        {
          "name": "F4",
          "midi": 65,
          "time": 623.7493762500314,
          "velocity": 1,
          "duration": 0.08333325000000968
        },
        {
          "name": "G#5",
          "midi": 80,
          "time": 623.8327095000315,
          "velocity": 1,
          "duration": 0.08333325000000968
        },
        {
          "name": "D5",
          "midi": 74,
          "time": 623.8327095000315,
          "velocity": 1,
          "duration": 0.08333325000000968
        },
        {
          "name": "F4",
          "midi": 65,
          "time": 623.8327095000315,
          "velocity": 1,
          "duration": 0.08333325000000968
        },
        {
          "name": "G#5",
          "midi": 80,
          "time": 623.9160427500315,
          "velocity": 1,
          "duration": 0.08333325000000968
        },
        {
          "name": "D5",
          "midi": 74,
          "time": 623.9160427500315,
          "velocity": 1,
          "duration": 0.08333325000000968
        },
        {
          "name": "F4",
          "midi": 65,
          "time": 623.9160427500315,
          "velocity": 1,
          "duration": 0.08333325000000968
        },
        {
          "name": "A#3",
          "midi": 58,
          "time": 623.9993760000315,
          "velocity": 1,
          "duration": 0.33333300000003874
        },
        {
          "name": "F4",
          "midi": 65,
          "time": 623.9993760000315,
          "velocity": 1,
          "duration": 0.08333325000000968
        },
        {
          "name": "D5",
          "midi": 74,
          "time": 623.9993760000315,
          "velocity": 1,
          "duration": 0.08333325000000968
        },
        {
          "name": "G#5",
          "midi": 80,
          "time": 623.9993760000315,
          "velocity": 1,
          "duration": 0.08333325000000968
        },
        {
          "name": "A#2",
          "midi": 46,
          "time": 623.9993760000315,
          "velocity": 1,
          "duration": 0.33333300000003874
        },
        {
          "name": "G#5",
          "midi": 80,
          "time": 624.0827092500315,
          "velocity": 1,
          "duration": 0.08333325000000968
        },
        {
          "name": "D5",
          "midi": 74,
          "time": 624.0827092500315,
          "velocity": 1,
          "duration": 0.08333325000000968
        },
        {
          "name": "F4",
          "midi": 65,
          "time": 624.0827092500315,
          "velocity": 1,
          "duration": 0.08333325000000968
        },
        {
          "name": "G#5",
          "midi": 80,
          "time": 624.1660425000315,
          "velocity": 1,
          "duration": 0.08333325000000968
        },
        {
          "name": "D5",
          "midi": 74,
          "time": 624.1660425000315,
          "velocity": 1,
          "duration": 0.08333325000000968
        },
        {
          "name": "F4",
          "midi": 65,
          "time": 624.1660425000315,
          "velocity": 1,
          "duration": 0.08333325000000968
        },
        {
          "name": "G#5",
          "midi": 80,
          "time": 624.2493757500315,
          "velocity": 1,
          "duration": 0.08333325000000968
        },
        {
          "name": "D5",
          "midi": 74,
          "time": 624.2493757500315,
          "velocity": 1,
          "duration": 0.08333325000000968
        },
        {
          "name": "F4",
          "midi": 65,
          "time": 624.2493757500315,
          "velocity": 1,
          "duration": 0.08333325000000968
        },
        {
          "name": "A#4",
          "midi": 70,
          "time": 624.3327090000315,
          "velocity": 1,
          "duration": 0.33333300000003874
        },
        {
          "name": "F4",
          "midi": 65,
          "time": 624.3327090000315,
          "velocity": 1,
          "duration": 0.08333325000000968
        },
        {
          "name": "D5",
          "midi": 74,
          "time": 624.3327090000315,
          "velocity": 1,
          "duration": 0.08333325000000968
        },
        {
          "name": "G#5",
          "midi": 80,
          "time": 624.3327090000315,
          "velocity": 1,
          "duration": 0.08333325000000968
        },
        {
          "name": "A#3",
          "midi": 58,
          "time": 624.3327090000315,
          "velocity": 1,
          "duration": 0.33333300000003874
        },
        {
          "name": "G#5",
          "midi": 80,
          "time": 624.4160422500315,
          "velocity": 1,
          "duration": 0.08333325000000968
        },
        {
          "name": "D5",
          "midi": 74,
          "time": 624.4160422500315,
          "velocity": 1,
          "duration": 0.08333325000000968
        },
        {
          "name": "F4",
          "midi": 65,
          "time": 624.4160422500315,
          "velocity": 1,
          "duration": 0.08333325000000968
        },
        {
          "name": "G#5",
          "midi": 80,
          "time": 624.4993755000315,
          "velocity": 1,
          "duration": 0.08333325000000968
        },
        {
          "name": "D5",
          "midi": 74,
          "time": 624.4993755000315,
          "velocity": 1,
          "duration": 0.08333325000000968
        },
        {
          "name": "F4",
          "midi": 65,
          "time": 624.4993755000315,
          "velocity": 1,
          "duration": 0.08333325000000968
        },
        {
          "name": "G#5",
          "midi": 80,
          "time": 624.5827087500315,
          "velocity": 1,
          "duration": 0.08333325000000968
        },
        {
          "name": "D5",
          "midi": 74,
          "time": 624.5827087500315,
          "velocity": 1,
          "duration": 0.08333325000000968
        },
        {
          "name": "F4",
          "midi": 65,
          "time": 624.5827087500315,
          "velocity": 1,
          "duration": 0.08333325000000968
        },
        {
          "name": "A#3",
          "midi": 58,
          "time": 624.6660420000316,
          "velocity": 1,
          "duration": 0.33333300000003874
        },
        {
          "name": "F4",
          "midi": 65,
          "time": 624.6660420000316,
          "velocity": 1,
          "duration": 0.08333325000000968
        },
        {
          "name": "D5",
          "midi": 74,
          "time": 624.6660420000316,
          "velocity": 1,
          "duration": 0.08333325000000968
        },
        {
          "name": "G#5",
          "midi": 80,
          "time": 624.6660420000316,
          "velocity": 1,
          "duration": 0.08333325000000968
        },
        {
          "name": "A#2",
          "midi": 46,
          "time": 624.6660420000316,
          "velocity": 1,
          "duration": 0.33333300000003874
        },
        {
          "name": "G#5",
          "midi": 80,
          "time": 624.7493752500316,
          "velocity": 1,
          "duration": 0.08333325000000968
        },
        {
          "name": "D5",
          "midi": 74,
          "time": 624.7493752500316,
          "velocity": 1,
          "duration": 0.08333325000000968
        },
        {
          "name": "F4",
          "midi": 65,
          "time": 624.7493752500316,
          "velocity": 1,
          "duration": 0.08333325000000968
        },
        {
          "name": "G#5",
          "midi": 80,
          "time": 624.8327085000316,
          "velocity": 1,
          "duration": 0.08333325000000968
        },
        {
          "name": "D5",
          "midi": 74,
          "time": 624.8327085000316,
          "velocity": 1,
          "duration": 0.08333325000000968
        },
        {
          "name": "F4",
          "midi": 65,
          "time": 624.8327085000316,
          "velocity": 1,
          "duration": 0.08333325000000968
        },
        {
          "name": "G#5",
          "midi": 80,
          "time": 624.9160417500316,
          "velocity": 1,
          "duration": 0.08333325000000968
        },
        {
          "name": "D5",
          "midi": 74,
          "time": 624.9160417500316,
          "velocity": 1,
          "duration": 0.08333325000000968
        },
        {
          "name": "F4",
          "midi": 65,
          "time": 624.9160417500316,
          "velocity": 1,
          "duration": 0.08333325000000968
        },
        {
          "name": "A#4",
          "midi": 70,
          "time": 624.9993750000316,
          "velocity": 1,
          "duration": 0.33333300000003874
        },
        {
          "name": "F4",
          "midi": 65,
          "time": 624.9993750000316,
          "velocity": 1,
          "duration": 0.08333325000000968
        },
        {
          "name": "G#5",
          "midi": 80,
          "time": 624.9993750000316,
          "velocity": 1,
          "duration": 0.08333325000000968
        },
        {
          "name": "A#3",
          "midi": 58,
          "time": 624.9993750000316,
          "velocity": 1,
          "duration": 0.33333300000003874
        },
        {
          "name": "G#5",
          "midi": 80,
          "time": 625.0827082500316,
          "velocity": 1,
          "duration": 0.08333325000000968
        },
        {
          "name": "F4",
          "midi": 65,
          "time": 625.0827082500316,
          "velocity": 1,
          "duration": 0.08333325000000968
        },
        {
          "name": "G#5",
          "midi": 80,
          "time": 625.1660415000316,
          "velocity": 1,
          "duration": 0.08333325000000968
        },
        {
          "name": "F4",
          "midi": 65,
          "time": 625.1660415000316,
          "velocity": 1,
          "duration": 0.08333325000000968
        },
        {
          "name": "G#5",
          "midi": 80,
          "time": 625.2493747500316,
          "velocity": 1,
          "duration": 0.08333325000000968
        },
        {
          "name": "F4",
          "midi": 65,
          "time": 625.2493747500316,
          "velocity": 1,
          "duration": 0.08333325000000968
        },
        {
          "name": "A#3",
          "midi": 58,
          "time": 625.3327080000316,
          "velocity": 1,
          "duration": 0.33333300000003874
        },
        {
          "name": "F4",
          "midi": 65,
          "time": 625.3327080000316,
          "velocity": 1,
          "duration": 0.08333325000000968
        },
        {
          "name": "G#5",
          "midi": 80,
          "time": 625.3327080000316,
          "velocity": 1,
          "duration": 0.08333325000000968
        },
        {
          "name": "A#2",
          "midi": 46,
          "time": 625.3327080000316,
          "velocity": 1,
          "duration": 0.33333300000003874
        },
        {
          "name": "G#5",
          "midi": 80,
          "time": 625.4160412500316,
          "velocity": 1,
          "duration": 0.08333325000000968
        },
        {
          "name": "F4",
          "midi": 65,
          "time": 625.4160412500316,
          "velocity": 1,
          "duration": 0.08333325000000968
        },
        {
          "name": "G#5",
          "midi": 80,
          "time": 625.4993745000316,
          "velocity": 1,
          "duration": 0.08333325000000968
        },
        {
          "name": "F4",
          "midi": 65,
          "time": 625.4993745000316,
          "velocity": 1,
          "duration": 0.08333325000000968
        },
        {
          "name": "F4",
          "midi": 65,
          "time": 625.5827077500317,
          "velocity": 1,
          "duration": 0.08333325000000968
        },
        {
          "name": "G#5",
          "midi": 80,
          "time": 625.5827077500317,
          "velocity": 1,
          "duration": 0.08333325000000968
        },
        {
          "name": "A#3",
          "midi": 58,
          "time": 625.6660410000317,
          "velocity": 1,
          "duration": 0.33333300000003874
        },
        {
          "name": "G#5",
          "midi": 80,
          "time": 625.6660410000317,
          "velocity": 1,
          "duration": 0.08333325000000968
        },
        {
          "name": "D4",
          "midi": 62,
          "time": 625.6660410000317,
          "velocity": 1,
          "duration": 0.08333325000000968
        },
        {
          "name": "A#4",
          "midi": 70,
          "time": 625.6660410000317,
          "velocity": 1,
          "duration": 0.33333300000003874
        },
        {
          "name": "G#5",
          "midi": 80,
          "time": 625.7493742500317,
          "velocity": 1,
          "duration": 0.08333325000000968
        },
        {
          "name": "D4",
          "midi": 62,
          "time": 625.7493742500317,
          "velocity": 1,
          "duration": 0.08333325000000968
        },
        {
          "name": "G#5",
          "midi": 80,
          "time": 625.8327075000317,
          "velocity": 1,
          "duration": 0.08333325000000968
        },
        {
          "name": "D4",
          "midi": 62,
          "time": 625.8327075000317,
          "velocity": 1,
          "duration": 0.08333325000000968
        },
        {
          "name": "G#5",
          "midi": 80,
          "time": 625.9160407500317,
          "velocity": 1,
          "duration": 0.08333325000000968
        },
        {
          "name": "D4",
          "midi": 62,
          "time": 625.9160407500317,
          "velocity": 1,
          "duration": 0.08333325000000968
        },
        {
          "name": "C4",
          "midi": 60,
          "time": 625.9993740000317,
          "velocity": 1,
          "duration": 0.33333300000003874
        },
        {
          "name": "D#4",
          "midi": 63,
          "time": 625.9993740000317,
          "velocity": 1,
          "duration": 0.33333300000003874
        },
        {
          "name": "G5",
          "midi": 79,
          "time": 625.9993740000317,
          "velocity": 1,
          "duration": 0.16666650000001937
        },
        {
          "name": "C3",
          "midi": 48,
          "time": 625.9993740000317,
          "velocity": 1,
          "duration": 0.33333300000003874
        },
        {
          "name": "G5",
          "midi": 79,
          "time": 626.1660405000317,
          "velocity": 1,
          "duration": 0.16666650000001937
        },
        {
          "name": "C4",
          "midi": 60,
          "time": 626.3327070000317,
          "velocity": 1,
          "duration": 0.33333300000003874
        },
        {
          "name": "F#5",
          "midi": 78,
          "time": 626.3327070000317,
          "velocity": 1,
          "duration": 0.16666650000001937
        },
        {
          "name": "G4",
          "midi": 67,
          "time": 626.3327070000317,
          "velocity": 1,
          "duration": 0.33333300000003874
        },
        {
          "name": "C5",
          "midi": 72,
          "time": 626.3327070000317,
          "velocity": 1,
          "duration": 0.33333300000003874
        },
        {
          "name": "G5",
          "midi": 79,
          "time": 626.4993735000318,
          "velocity": 1,
          "duration": 0.16666650000001937
        },
        {
          "name": "C4",
          "midi": 60,
          "time": 626.6660400000318,
          "velocity": 1,
          "duration": 0.33333300000003874
        },
        {
          "name": "G#5",
          "midi": 80,
          "time": 626.6660400000318,
          "velocity": 1,
          "duration": 0.16666650000001937
        },
        {
          "name": "C3",
          "midi": 48,
          "time": 626.6660400000318,
          "velocity": 1,
          "duration": 0.33333300000003874
        },
        {
          "name": "G5",
          "midi": 79,
          "time": 626.8327065000318,
          "velocity": 1,
          "duration": 0.16666650000001937
        },
        {
          "name": "C4",
          "midi": 60,
          "time": 626.9993730000318,
          "velocity": 1,
          "duration": 0.33333300000003874
        },
        {
          "name": "C5",
          "midi": 72,
          "time": 626.9993730000318,
          "velocity": 1,
          "duration": 0.33333300000003874
        },
        {
          "name": "D#5",
          "midi": 75,
          "time": 627.1660395000318,
          "velocity": 1,
          "duration": 0.16666650000001937
        },
        {
          "name": "C4",
          "midi": 60,
          "time": 627.3327060000319,
          "velocity": 1,
          "duration": 0.33333300000003874
        },
        {
          "name": "G4",
          "midi": 67,
          "time": 627.3327060000319,
          "velocity": 1,
          "duration": 0.33333300000003874
        },
        {
          "name": "D5",
          "midi": 74,
          "time": 627.3327060000319,
          "velocity": 1,
          "duration": 0.16666650000001937
        },
        {
          "name": "C3",
          "midi": 48,
          "time": 627.3327060000319,
          "velocity": 1,
          "duration": 0.33333300000003874
        },
        {
          "name": "D#5",
          "midi": 75,
          "time": 627.4993725000319,
          "velocity": 1,
          "duration": 0.16666650000001937
        },
        {
          "name": "C4",
          "midi": 60,
          "time": 627.6660390000319,
          "velocity": 1,
          "duration": 0.33333300000003874
        },
        {
          "name": "C3",
          "midi": 48,
          "time": 627.6660390000319,
          "velocity": 1,
          "duration": 0.33333300000003874
        },
        {
          "name": "F5",
          "midi": 77,
          "time": 627.6660390000319,
          "velocity": 1,
          "duration": 0.16666650000001937
        },
        {
          "name": "C5",
          "midi": 72,
          "time": 627.6660390000319,
          "velocity": 1,
          "duration": 0.33333300000003874
        },
        {
          "name": "D#5",
          "midi": 75,
          "time": 627.8327055000319,
          "velocity": 1,
          "duration": 0.16666650000001937
        },
        {
          "name": "G#2",
          "midi": 44,
          "time": 627.9993720000319,
          "velocity": 1,
          "duration": 0.33333300000003874
        },
        {
          "name": "G#3",
          "midi": 56,
          "time": 627.9993720000319,
          "velocity": 1,
          "duration": 0.33333300000003874
        },
        {
          "name": "C5",
          "midi": 72,
          "time": 628.166038500032,
          "velocity": 1,
          "duration": 0.16666650000001937
        },
        {
          "name": "G#4",
          "midi": 68,
          "time": 628.332705000032,
          "velocity": 1,
          "duration": 0.33333300000003874
        },
        {
          "name": "F4",
          "midi": 65,
          "time": 628.332705000032,
          "velocity": 1,
          "duration": 0.33333300000003874
        },
        {
          "name": "B4",
          "midi": 71,
          "time": 628.332705000032,
          "velocity": 1,
          "duration": 0.16666650000001937
        },
        {
          "name": "G#3",
          "midi": 56,
          "time": 628.332705000032,
          "velocity": 1,
          "duration": 0.33333300000003874
        },
        {
          "name": "C5",
          "midi": 72,
          "time": 628.499371500032,
          "velocity": 1,
          "duration": 0.16666650000001937
        },
        {
          "name": "G#2",
          "midi": 44,
          "time": 628.666038000032,
          "velocity": 1,
          "duration": 0.33333300000003874
        },
        {
          "name": "D5",
          "midi": 74,
          "time": 628.666038000032,
          "velocity": 1,
          "duration": 0.16666650000001937
        },
        {
          "name": "G#3",
          "midi": 56,
          "time": 628.666038000032,
          "velocity": 1,
          "duration": 0.33333300000003874
        },
        {
          "name": "C5",
          "midi": 72,
          "time": 628.832704500032,
          "velocity": 1,
          "duration": 0.16666650000001937
        },
        {
          "name": "G#3",
          "midi": 56,
          "time": 628.999371000032,
          "velocity": 1,
          "duration": 0.33333300000003874
        },
        {
          "name": "G#4",
          "midi": 68,
          "time": 628.999371000032,
          "velocity": 1,
          "duration": 0.33333300000003874
        },
        {
          "name": "C5",
          "midi": 72,
          "time": 629.1660375000321,
          "velocity": 1,
          "duration": 0.16666650000001937
        },
        {
          "name": "G#2",
          "midi": 44,
          "time": 629.3327040000321,
          "velocity": 1,
          "duration": 0.33333300000003874
        },
        {
          "name": "B4",
          "midi": 71,
          "time": 629.3327040000321,
          "velocity": 1,
          "duration": 0.16666650000001937
        },
        {
          "name": "F4",
          "midi": 65,
          "time": 629.3327040000321,
          "velocity": 1,
          "duration": 0.33333300000003874
        },
        {
          "name": "G#3",
          "midi": 56,
          "time": 629.3327040000321,
          "velocity": 1,
          "duration": 0.33333300000003874
        },
        {
          "name": "C5",
          "midi": 72,
          "time": 629.4993705000321,
          "velocity": 1,
          "duration": 0.16666650000001937
        },
        {
          "name": "G#4",
          "midi": 68,
          "time": 629.6660370000321,
          "velocity": 1,
          "duration": 0.33333300000003874
        },
        {
          "name": "D5",
          "midi": 74,
          "time": 629.6660370000321,
          "velocity": 1,
          "duration": 0.16666650000001937
        },
        {
          "name": "G#2",
          "midi": 44,
          "time": 629.6660370000321,
          "velocity": 1,
          "duration": 0.33333300000003874
        },
        {
          "name": "G#3",
          "midi": 56,
          "time": 629.6660370000321,
          "velocity": 1,
          "duration": 0.33333300000003874
        },
        {
          "name": "C5",
          "midi": 72,
          "time": 629.8327035000322,
          "velocity": 1,
          "duration": 0.16666650000001937
        },
        {
          "name": "A#2",
          "midi": 46,
          "time": 629.9993700000322,
          "velocity": 1,
          "duration": 0.33333300000003874
        },
        {
          "name": "A#3",
          "midi": 58,
          "time": 629.9993700000322,
          "velocity": 1,
          "duration": 0.33333300000003874
        },
        {
          "name": "A#4",
          "midi": 70,
          "time": 630.1660365000322,
          "velocity": 1,
          "duration": 0.16666650000001937
        },
        {
          "name": "A#3",
          "midi": 58,
          "time": 630.3327030000322,
          "velocity": 1,
          "duration": 0.33333300000003874
        },
        {
          "name": "A4",
          "midi": 69,
          "time": 630.3327030000322,
          "velocity": 1,
          "duration": 0.16666650000001937
        },
        {
          "name": "A3",
          "midi": 57,
          "time": 630.3327030000322,
          "velocity": 1,
          "duration": 0.16666650000001937
        },
        {
          "name": "A#4",
          "midi": 70,
          "time": 630.3327030000322,
          "velocity": 1,
          "duration": 0.33333300000003874
        },
        {
          "name": "A#3",
          "midi": 58,
          "time": 630.6660360000322,
          "velocity": 1,
          "duration": 0.33333300000003874
        },
        {
          "name": "D#4",
          "midi": 63,
          "time": 630.6660360000322,
          "velocity": 1,
          "duration": 0.16666650000001937
        },
        {
          "name": "D#5",
          "midi": 75,
          "time": 630.6660360000322,
          "velocity": 1,
          "duration": 0.16666650000001937
        },
        {
          "name": "A#2",
          "midi": 46,
          "time": 630.6660360000322,
          "velocity": 1,
          "duration": 0.33333300000003874
        },
        {
          "name": "D5",
          "midi": 74,
          "time": 630.8327025000323,
          "velocity": 1,
          "duration": 0.16666650000001937
        },
        {
          "name": "D4",
          "midi": 62,
          "time": 630.8327025000323,
          "velocity": 1,
          "duration": 0.16666650000001937
        },
        {
          "name": "A#3",
          "midi": 58,
          "time": 630.9993690000323,
          "velocity": 1,
          "duration": 0.33333300000003874
        },
        {
          "name": "F5",
          "midi": 77,
          "time": 630.9993690000323,
          "velocity": 1,
          "duration": 0.16666650000001937
        },
        {
          "name": "F4",
          "midi": 65,
          "time": 630.9993690000323,
          "velocity": 1,
          "duration": 0.16666650000001937
        },
        {
          "name": "A#4",
          "midi": 70,
          "time": 630.9993690000323,
          "velocity": 1,
          "duration": 0.33333300000003874
        },
        {
          "name": "D#4",
          "midi": 63,
          "time": 631.1660355000323,
          "velocity": 1,
          "duration": 0.16666650000001937
        },
        {
          "name": "D#5",
          "midi": 75,
          "time": 631.1660355000323,
          "velocity": 1,
          "duration": 0.16666650000001937
        },
        {
          "name": "A#2",
          "midi": 46,
          "time": 631.3327020000323,
          "velocity": 1,
          "duration": 0.33333300000003874
        },
        {
          "name": "G5",
          "midi": 79,
          "time": 631.3327020000323,
          "velocity": 1,
          "duration": 0.16666650000001937
        },
        {
          "name": "G4",
          "midi": 67,
          "time": 631.3327020000323,
          "velocity": 1,
          "duration": 0.16666650000001937
        },
        {
          "name": "A#3",
          "midi": 58,
          "time": 631.3327020000323,
          "velocity": 1,
          "duration": 0.33333300000003874
        },
        {
          "name": "F5",
          "midi": 77,
          "time": 631.4993685000323,
          "velocity": 1,
          "duration": 0.16666650000001937
        },
        {
          "name": "F4",
          "midi": 65,
          "time": 631.4993685000323,
          "velocity": 1,
          "duration": 0.16666650000001937
        },
        {
          "name": "A#4",
          "midi": 70,
          "time": 631.6660350000324,
          "velocity": 1,
          "duration": 0.33333300000003874
        },
        {
          "name": "G#4",
          "midi": 68,
          "time": 631.6660350000324,
          "velocity": 1,
          "duration": 0.16666650000001937
        },
        {
          "name": "G#5",
          "midi": 80,
          "time": 631.6660350000324,
          "velocity": 1,
          "duration": 0.16666650000001937
        },
        {
          "name": "A#3",
          "midi": 58,
          "time": 631.6660350000324,
          "velocity": 1,
          "duration": 0.33333300000003874
        },
        {
          "name": "G5",
          "midi": 79,
          "time": 631.8327015000324,
          "velocity": 1,
          "duration": 0.16666650000001937
        },
        {
          "name": "G4",
          "midi": 67,
          "time": 631.8327015000324,
          "velocity": 1,
          "duration": 0.16666650000001937
        },
        {
          "name": "A#2",
          "midi": 46,
          "time": 631.9993680000324,
          "velocity": 1,
          "duration": 0.33333300000003874
        },
        {
          "name": "A#5",
          "midi": 82,
          "time": 631.9993680000324,
          "velocity": 1,
          "duration": 0.16666650000001937
        },
        {
          "name": "A#4",
          "midi": 70,
          "time": 631.9993680000324,
          "velocity": 1,
          "duration": 0.16666650000001937
        },
        {
          "name": "A#3",
          "midi": 58,
          "time": 631.9993680000324,
          "velocity": 1,
          "duration": 0.33333300000003874
        },
        {
          "name": "A5",
          "midi": 81,
          "time": 632.1660345000324,
          "velocity": 1,
          "duration": 0.16666650000001937
        },
        {
          "name": "A4",
          "midi": 69,
          "time": 632.1660345000324,
          "velocity": 1,
          "duration": 0.16666650000001937
        },
        {
          "name": "A#3",
          "midi": 58,
          "time": 632.3327010000324,
          "velocity": 1,
          "duration": 0.33333300000003874
        },
        {
          "name": "A#2",
          "midi": 46,
          "time": 632.3327010000324,
          "velocity": 1,
          "duration": 0.33333300000003874
        },
        {
          "name": "C6",
          "midi": 84,
          "time": 632.3327010000324,
          "velocity": 1,
          "duration": 0.16666650000001937
        },
        {
          "name": "C5",
          "midi": 72,
          "time": 632.3327010000324,
          "velocity": 1,
          "duration": 0.16666650000001937
        },
        {
          "name": "A#4",
          "midi": 70,
          "time": 632.3327010000324,
          "velocity": 1,
          "duration": 0.33333300000003874
        },
        {
          "name": "A#5",
          "midi": 82,
          "time": 632.4993675000325,
          "velocity": 1,
          "duration": 0.16666650000001937
        },
        {
          "name": "A#2",
          "midi": 46,
          "time": 632.6660340000325,
          "velocity": 1,
          "duration": 0.33333300000003874
        },
        {
          "name": "G#5",
          "midi": 80,
          "time": 632.6660340000325,
          "velocity": 1,
          "duration": 0.16666650000001937
        },
        {
          "name": "G#4",
          "midi": 68,
          "time": 632.6660340000325,
          "velocity": 1,
          "duration": 0.16666650000001937
        },
        {
          "name": "A#3",
          "midi": 58,
          "time": 632.6660340000325,
          "velocity": 1,
          "duration": 0.33333300000003874
        },
        {
          "name": "G5",
          "midi": 79,
          "time": 632.8327005000325,
          "velocity": 1,
          "duration": 0.16666650000001937
        },
        {
          "name": "G4",
          "midi": 67,
          "time": 632.8327005000325,
          "velocity": 1,
          "duration": 0.16666650000001937
        },
        {
          "name": "A#4",
          "midi": 70,
          "time": 632.9993670000325,
          "velocity": 1,
          "duration": 0.33333300000003874
        },
        {
          "name": "F4",
          "midi": 65,
          "time": 632.9993670000325,
          "velocity": 1,
          "duration": 0.16666650000001937
        },
        {
          "name": "F5",
          "midi": 77,
          "time": 632.9993670000325,
          "velocity": 1,
          "duration": 0.16666650000001937
        },
        {
          "name": "A#2",
          "midi": 46,
          "time": 632.9993670000325,
          "velocity": 1,
          "duration": 0.33333300000003874
        },
        {
          "name": "A#3",
          "midi": 58,
          "time": 632.9993670000325,
          "velocity": 1,
          "duration": 0.33333300000003874
        },
        {
          "name": "D#5",
          "midi": 75,
          "time": 633.1660335000325,
          "velocity": 1,
          "duration": 0.16666650000001937
        },
        {
          "name": "D#4",
          "midi": 63,
          "time": 633.1660335000325,
          "velocity": 1,
          "duration": 0.16666650000001937
        },
        {
          "name": "A#3",
          "midi": 58,
          "time": 633.3327000000326,
          "velocity": 1,
          "duration": 0.33333300000003874
        },
        {
          "name": "D4",
          "midi": 62,
          "time": 633.3327000000326,
          "velocity": 1,
          "duration": 0.16666650000001937
        },
        {
          "name": "D5",
          "midi": 74,
          "time": 633.3327000000326,
          "velocity": 1,
          "duration": 0.16666650000001937
        },
        {
          "name": "A#2",
          "midi": 46,
          "time": 633.3327000000326,
          "velocity": 1,
          "duration": 0.33333300000003874
        },
        {
          "name": "F5",
          "midi": 77,
          "time": 633.4993665000326,
          "velocity": 1,
          "duration": 0.16666650000001937
        },
        {
          "name": "F4",
          "midi": 65,
          "time": 633.4993665000326,
          "velocity": 1,
          "duration": 0.16666650000001937
        },
        {
          "name": "A#3",
          "midi": 58,
          "time": 633.6660330000326,
          "velocity": 1,
          "duration": 0.33333300000003874
        },
        {
          "name": "A#2",
          "midi": 46,
          "time": 633.6660330000326,
          "velocity": 1,
          "duration": 0.33333300000003874
        },
        {
          "name": "G#5",
          "midi": 80,
          "time": 633.6660330000326,
          "velocity": 1,
          "duration": 0.16666650000001937
        },
        {
          "name": "G#4",
          "midi": 68,
          "time": 633.6660330000326,
          "velocity": 1,
          "duration": 0.16666650000001937
        },
        {
          "name": "A#4",
          "midi": 70,
          "time": 633.6660330000326,
          "velocity": 1,
          "duration": 0.33333300000003874
        },
        {
          "name": "D5",
          "midi": 74,
          "time": 633.8326995000326,
          "velocity": 1,
          "duration": 0.16666650000001937
        },
        {
          "name": "D4",
          "midi": 62,
          "time": 633.8326995000326,
          "velocity": 1,
          "duration": 0.16666650000001937
        },
        {
          "name": "D#4",
          "midi": 63,
          "time": 633.9993660000326,
          "velocity": 1,
          "duration": 0.33333300000003874
        },
        {
          "name": "D#5",
          "midi": 75,
          "time": 633.9993660000326,
          "velocity": 1,
          "duration": 0.16666650000001937
        },
        {
          "name": "D#3",
          "midi": 51,
          "time": 633.9993660000326,
          "velocity": 1,
          "duration": 0.33333300000003874
        },
        {
          "name": "A#3",
          "midi": 58,
          "time": 634.1660325000327,
          "velocity": 1,
          "duration": 0.16666650000001937
        },
        {
          "name": "F4",
          "midi": 65,
          "time": 634.2493657500327,
          "velocity": 1,
          "duration": 0.08333325000000968
        },
        {
          "name": "G4",
          "midi": 67,
          "time": 634.3326990000327,
          "velocity": 1,
          "duration": 0.16666650000001937
        },
        {
          "name": "D#4",
          "midi": 63,
          "time": 634.3326990000327,
          "velocity": 1,
          "duration": 0.16666650000001937
        },
        {
          "name": "A#3",
          "midi": 58,
          "time": 634.4993655000327,
          "velocity": 1,
          "duration": 0.16666650000001937
        },
        {
          "name": "G4",
          "midi": 67,
          "time": 634.4993655000327,
          "velocity": 1,
          "duration": 0.08333325000000968
        },
        {
          "name": "G#4",
          "midi": 68,
          "time": 634.5826987500327,
          "velocity": 1,
          "duration": 0.08333325000000968
        },
        {
          "name": "A#4",
          "midi": 70,
          "time": 634.6660320000327,
          "velocity": 1,
          "duration": 0.16666650000001937
        },
        {
          "name": "G3",
          "midi": 55,
          "time": 634.6660320000327,
          "velocity": 1,
          "duration": 0.16666650000001937
        },
        {
          "name": "C5",
          "midi": 72,
          "time": 634.8326985000327,
          "velocity": 1,
          "duration": 0.08333325000000968
        },
        {
          "name": "A#3",
          "midi": 58,
          "time": 634.8326985000327,
          "velocity": 1,
          "duration": 0.16666650000001937
        },
        {
          "name": "D5",
          "midi": 74,
          "time": 634.9160317500327,
          "velocity": 1,
          "duration": 0.08333325000000968
        },
        {
          "name": "G3",
          "midi": 55,
          "time": 634.9993650000328,
          "velocity": 1,
          "duration": 0.16666650000001937
        },
        {
          "name": "D#5",
          "midi": 75,
          "time": 634.9993650000328,
          "velocity": 1,
          "duration": 0.16666650000001937
        },
        {
          "name": "D#5",
          "midi": 75,
          "time": 635.1660315000328,
          "velocity": 1,
          "duration": 0.08333325000000968
        },
        {
          "name": "A#3",
          "midi": 58,
          "time": 635.1660315000328,
          "velocity": 1,
          "duration": 0.16666650000001937
        },
        {
          "name": "F5",
          "midi": 77,
          "time": 635.2493647500328,
          "velocity": 1,
          "duration": 0.08333325000000968
        },
        {
          "name": "G5",
          "midi": 79,
          "time": 635.3326980000328,
          "velocity": 1,
          "duration": 0.16666650000001937
        },
        {
          "name": "D#4",
          "midi": 63,
          "time": 635.3326980000328,
          "velocity": 1,
          "duration": 0.16666650000001937
        },
        {
          "name": "G5",
          "midi": 79,
          "time": 635.4993645000328,
          "velocity": 1,
          "duration": 0.08333325000000968
        },
        {
          "name": "A#3",
          "midi": 58,
          "time": 635.4993645000328,
          "velocity": 1,
          "duration": 0.16666650000001937
        },
        {
          "name": "G#5",
          "midi": 80,
          "time": 635.5826977500328,
          "velocity": 1,
          "duration": 0.08333325000000968
        },
        {
          "name": "A#5",
          "midi": 82,
          "time": 635.6660310000328,
          "velocity": 1,
          "duration": 0.16666650000001937
        },
        {
          "name": "G3",
          "midi": 55,
          "time": 635.6660310000328,
          "velocity": 1,
          "duration": 0.16666650000001937
        },
        {
          "name": "C6",
          "midi": 84,
          "time": 635.8326975000329,
          "velocity": 1,
          "duration": 0.08333325000000968
        },
        {
          "name": "A#3",
          "midi": 58,
          "time": 635.8326975000329,
          "velocity": 1,
          "duration": 0.16666650000001937
        },
        {
          "name": "D6",
          "midi": 86,
          "time": 635.9160307500329,
          "velocity": 1,
          "duration": 0.08333325000000968
        },
        {
          "name": "D#4",
          "midi": 63,
          "time": 635.9993640000329,
          "velocity": 1,
          "duration": 0.33333300000003874
        },
        {
          "name": "G3",
          "midi": 55,
          "time": 635.9993640000329,
          "velocity": 1,
          "duration": 0.16666650000001937
        },
        {
          "name": "D#6",
          "midi": 87,
          "time": 635.9993640000329,
          "velocity": 1,
          "duration": 0.16666650000001937
        },
        {
          "name": "D#3",
          "midi": 51,
          "time": 635.9993640000329,
          "velocity": 1,
          "duration": 0.33333300000003874
        },
        {
          "name": "A#5",
          "midi": 82,
          "time": 636.1660305000329,
          "velocity": 1,
          "duration": 0.08333325000000968
        },
        {
          "name": "A#3",
          "midi": 58,
          "time": 636.1660305000329,
          "velocity": 1,
          "duration": 0.16666650000001937
        },
        {
          "name": "G#5",
          "midi": 80,
          "time": 636.2493637500329,
          "velocity": 1,
          "duration": 0.08333325000000968
        },
        {
          "name": "G5",
          "midi": 79,
          "time": 636.3326970000329,
          "velocity": 1,
          "duration": 0.16666650000001937
        },
        {
          "name": "D#4",
          "midi": 63,
          "time": 636.3326970000329,
          "velocity": 1,
          "duration": 0.16666650000001937
        },
        {
          "name": "A#3",
          "midi": 58,
          "time": 636.4993635000329,
          "velocity": 1,
          "duration": 0.16666650000001937
        },
        {
          "name": "F5",
          "midi": 77,
          "time": 636.4993635000329,
          "velocity": 1,
          "duration": 0.16666650000001937
        },
        {
          "name": "D#5",
          "midi": 75,
          "time": 636.666030000033,
          "velocity": 1,
          "duration": 0.16666650000001937
        },
        {
          "name": "G3",
          "midi": 55,
          "time": 636.666030000033,
          "velocity": 1,
          "duration": 0.16666650000001937
        },
        {
          "name": "D5",
          "midi": 74,
          "time": 636.832696500033,
          "velocity": 1,
          "duration": 0.16666650000001937
        },
        {
          "name": "A#3",
          "midi": 58,
          "time": 636.832696500033,
          "velocity": 1,
          "duration": 0.16666650000001937
        },
        {
          "name": "C5",
          "midi": 72,
          "time": 636.999363000033,
          "velocity": 1,
          "duration": 0.16666650000001937
        },
        {
          "name": "G3",
          "midi": 55,
          "time": 636.999363000033,
          "velocity": 1,
          "duration": 0.16666650000001937
        },
        {
          "name": "A#3",
          "midi": 58,
          "time": 637.166029500033,
          "velocity": 1,
          "duration": 0.16666650000001937
        },
        {
          "name": "A#4",
          "midi": 70,
          "time": 637.166029500033,
          "velocity": 1,
          "duration": 0.16666650000001937
        },
        {
          "name": "G#4",
          "midi": 68,
          "time": 637.332696000033,
          "velocity": 1,
          "duration": 0.16666650000001937
        },
        {
          "name": "D#4",
          "midi": 63,
          "time": 637.332696000033,
          "velocity": 1,
          "duration": 0.33333300000003874
        },
        {
          "name": "G4",
          "midi": 67,
          "time": 637.499362500033,
          "velocity": 1,
          "duration": 0.16666650000001937
        },
        {
          "name": "A#3",
          "midi": 58,
          "time": 637.499362500033,
          "velocity": 1,
          "duration": 0.16666650000001937
        },
        {
          "name": "F4",
          "midi": 65,
          "time": 637.6660290000331,
          "velocity": 1,
          "duration": 0.16666650000001937
        },
        {
          "name": "G3",
          "midi": 55,
          "time": 637.6660290000331,
          "velocity": 1,
          "duration": 0.16666650000001937
        },
        {
          "name": "D#4",
          "midi": 63,
          "time": 637.6660290000331,
          "velocity": 1,
          "duration": 0.33333300000003874
        },
        {
          "name": "A#3",
          "midi": 58,
          "time": 637.8326955000331,
          "velocity": 1,
          "duration": 0.16666650000001937
        },
        {
          "name": "D3",
          "midi": 50,
          "time": 637.9993620000331,
          "velocity": 1,
          "duration": 0.33333300000003874
        },
        {
          "name": "G#3",
          "midi": 56,
          "time": 637.9993620000331,
          "velocity": 1,
          "duration": 0.16666650000001937
        },
        {
          "name": "D4",
          "midi": 62,
          "time": 637.9993620000331,
          "velocity": 1,
          "duration": 0.33333300000003874
        },
        {
          "name": "A#3",
          "midi": 58,
          "time": 638.1660285000331,
          "velocity": 1,
          "duration": 0.16666650000001937
        },
        {
          "name": "C4",
          "midi": 60,
          "time": 638.2493617500331,
          "velocity": 1,
          "duration": 0.08333325000000968
        },
        {
          "name": "D4",
          "midi": 62,
          "time": 638.3326950000331,
          "velocity": 1,
          "duration": 0.16666650000001937
        },
        {
          "name": "F4",
          "midi": 65,
          "time": 638.3326950000331,
          "velocity": 1,
          "duration": 0.16666650000001937
        },
        {
          "name": "D4",
          "midi": 62,
          "time": 638.4993615000332,
          "velocity": 1,
          "duration": 0.08333325000000968
        },
        {
          "name": "A#3",
          "midi": 58,
          "time": 638.4993615000332,
          "velocity": 1,
          "duration": 0.16666650000001937
        },
        {
          "name": "D#4",
          "midi": 63,
          "time": 638.5826947500332,
          "velocity": 1,
          "duration": 0.08333325000000968
        },
        {
          "name": "F4",
          "midi": 65,
          "time": 638.6660280000332,
          "velocity": 1,
          "duration": 0.16666650000001937
        },
        {
          "name": "G#3",
          "midi": 56,
          "time": 638.6660280000332,
          "velocity": 1,
          "duration": 0.16666650000001937
        },
        {
          "name": "F4",
          "midi": 65,
          "time": 638.8326945000332,
          "velocity": 1,
          "duration": 0.08333325000000968
        },
        {
          "name": "A#3",
          "midi": 58,
          "time": 638.8326945000332,
          "velocity": 1,
          "duration": 0.16666650000001937
        },
        {
          "name": "G4",
          "midi": 67,
          "time": 638.9160277500332,
          "velocity": 1,
          "duration": 0.08333325000000968
        },
        {
          "name": "G#4",
          "midi": 68,
          "time": 638.9993610000332,
          "velocity": 1,
          "duration": 0.16666650000001937
        },
        {
          "name": "G#3",
          "midi": 56,
          "time": 638.9993610000332,
          "velocity": 1,
          "duration": 0.16666650000001937
        },
        {
          "name": "A#4",
          "midi": 70,
          "time": 639.1660275000332,
          "velocity": 1,
          "duration": 0.08333325000000968
        },
        {
          "name": "A#3",
          "midi": 58,
          "time": 639.1660275000332,
          "velocity": 1,
          "duration": 0.16666650000001937
        },
        {
          "name": "C5",
          "midi": 72,
          "time": 639.2493607500332,
          "velocity": 1,
          "duration": 0.08333325000000968
        },
        {
          "name": "D5",
          "midi": 74,
          "time": 639.3326940000333,
          "velocity": 1,
          "duration": 0.16666650000001937
        },
        {
          "name": "F4",
          "midi": 65,
          "time": 639.3326940000333,
          "velocity": 1,
          "duration": 0.16666650000001937
        },
        {
          "name": "D5",
          "midi": 74,
          "time": 639.4993605000333,
          "velocity": 1,
          "duration": 0.08333325000000968
        },
        {
          "name": "A#3",
          "midi": 58,
          "time": 639.4993605000333,
          "velocity": 1,
          "duration": 0.16666650000001937
        },
        {
          "name": "D#5",
          "midi": 75,
          "time": 639.5826937500333,
          "velocity": 1,
          "duration": 0.08333325000000968
        },
        {
          "name": "F5",
          "midi": 77,
          "time": 639.6660270000333,
          "velocity": 1,
          "duration": 0.16666650000001937
        },
        {
          "name": "G#3",
          "midi": 56,
          "time": 639.6660270000333,
          "velocity": 1,
          "duration": 0.16666650000001937
        },
        {
          "name": "A#3",
          "midi": 58,
          "time": 639.8326935000333,
          "velocity": 1,
          "duration": 0.16666650000001937
        },
        {
          "name": "F5",
          "midi": 77,
          "time": 639.8326935000333,
          "velocity": 1,
          "duration": 0.08333325000000968
        },
        {
          "name": "G5",
          "midi": 79,
          "time": 639.9160267500333,
          "velocity": 1,
          "duration": 0.08333325000000968
        },
        {
          "name": "A#2",
          "midi": 46,
          "time": 639.9993600000333,
          "velocity": 1,
          "duration": 0.33333300000003874
        },
        {
          "name": "G#5",
          "midi": 80,
          "time": 639.9993600000333,
          "velocity": 1,
          "duration": 0.16666650000001937
        },
        {
          "name": "G#3",
          "midi": 56,
          "time": 639.9993600000333,
          "velocity": 1,
          "duration": 0.16666650000001937
        },
        {
          "name": "A#3",
          "midi": 58,
          "time": 639.9993600000333,
          "velocity": 1,
          "duration": 0.33333300000003874
        },
        {
          "name": "C6",
          "midi": 84,
          "time": 640.1660265000334,
          "velocity": 1,
          "duration": 0.08333325000000968
        },
        {
          "name": "A#5",
          "midi": 82,
          "time": 640.2493597500334,
          "velocity": 1,
          "duration": 0.08333325000000968
        },
        {
          "name": "G#5",
          "midi": 80,
          "time": 640.3326930000334,
          "velocity": 1,
          "duration": 0.16666650000001937
        },
        {
          "name": "D4",
          "midi": 62,
          "time": 640.3326930000334,
          "velocity": 1,
          "duration": 0.16666650000001937
        },
        {
          "name": "G5",
          "midi": 79,
          "time": 640.4993595000334,
          "velocity": 1,
          "duration": 0.16666650000001937
        },
        {
          "name": "A#3",
          "midi": 58,
          "time": 640.4993595000334,
          "velocity": 1,
          "duration": 0.16666650000001937
        },
        {
          "name": "F5",
          "midi": 77,
          "time": 640.6660260000334,
          "velocity": 1,
          "duration": 0.16666650000001937
        },
        {
          "name": "G#3",
          "midi": 56,
          "time": 640.6660260000334,
          "velocity": 1,
          "duration": 0.16666650000001937
        },
        {
          "name": "D#5",
          "midi": 75,
          "time": 640.8326925000334,
          "velocity": 1,
          "duration": 0.16666650000001937
        },
        {
          "name": "A#3",
          "midi": 58,
          "time": 640.8326925000334,
          "velocity": 1,
          "duration": 0.16666650000001937
        },
        {
          "name": "D5",
          "midi": 74,
          "time": 640.9993590000335,
          "velocity": 1,
          "duration": 0.16666650000001937
        },
        {
          "name": "G#3",
          "midi": 56,
          "time": 640.9993590000335,
          "velocity": 1,
          "duration": 0.16666650000001937
        },
        {
          "name": "C5",
          "midi": 72,
          "time": 641.1660255000335,
          "velocity": 1,
          "duration": 0.16666650000001937
        },
        {
          "name": "A#3",
          "midi": 58,
          "time": 641.1660255000335,
          "velocity": 1,
          "duration": 0.16666650000001937
        },
        {
          "name": "A#3",
          "midi": 58,
          "time": 641.3326920000335,
          "velocity": 1,
          "duration": 0.33333300000003874
        },
        {
          "name": "D4",
          "midi": 62,
          "time": 641.3326920000335,
          "velocity": 1,
          "duration": 0.16666650000001937
        },
        {
          "name": "A#4",
          "midi": 70,
          "time": 641.3326920000335,
          "velocity": 1,
          "duration": 0.16666650000001937
        },
        {
          "name": "A#2",
          "midi": 46,
          "time": 641.3326920000335,
          "velocity": 1,
          "duration": 0.33333300000003874
        },
        {
          "name": "G#4",
          "midi": 68,
          "time": 641.4993585000335,
          "velocity": 1,
          "duration": 0.16666650000001937
        },
        {
          "name": "A#2",
          "midi": 46,
          "time": 641.6660250000335,
          "velocity": 1,
          "duration": 0.33333300000003874
        },
        {
          "name": "G4",
          "midi": 67,
          "time": 641.6660250000335,
          "velocity": 1,
          "duration": 0.16666650000001937
        },
        {
          "name": "G#3",
          "midi": 56,
          "time": 641.6660250000335,
          "velocity": 1,
          "duration": 0.16666650000001937
        },
        {
          "name": "A#3",
          "midi": 58,
          "time": 641.6660250000335,
          "velocity": 1,
          "duration": 0.33333300000003874
        },
        {
          "name": "F4",
          "midi": 65,
          "time": 641.8326915000335,
          "velocity": 1,
          "duration": 0.16666650000001937
        },
        {
          "name": "D#4",
          "midi": 63,
          "time": 641.9993580000336,
          "velocity": 1,
          "duration": 0.33333300000003874
        },
        {
          "name": "G3",
          "midi": 55,
          "time": 641.9993580000336,
          "velocity": 1,
          "duration": 0.16666650000001937
        },
        {
          "name": "D#3",
          "midi": 51,
          "time": 641.9993580000336,
          "velocity": 1,
          "duration": 0.33333300000003874
        },
        {
          "name": "A#2",
          "midi": 46,
          "time": 642.1660245000336,
          "velocity": 1,
          "duration": 0.16666650000001937
        },
        {
          "name": "G3",
          "midi": 55,
          "time": 642.1660245000336,
          "velocity": 1,
          "duration": 0.08333325000000968
        },
        {
          "name": "G#3",
          "midi": 56,
          "time": 642.2493577500336,
          "velocity": 1,
          "duration": 0.08333325000000968
        },
        {
          "name": "D#3",
          "midi": 51,
          "time": 642.3326910000336,
          "velocity": 1,
          "duration": 0.16666650000001937
        },
        {
          "name": "D#5",
          "midi": 75,
          "time": 642.3326910000336,
          "velocity": 1,
          "duration": 0.33333300000003874
        },
        {
          "name": "A#3",
          "midi": 58,
          "time": 642.3326910000336,
          "velocity": 1,
          "duration": 0.16666650000001937
        },
        {
          "name": "C4",
          "midi": 60,
          "time": 642.4993575000336,
          "velocity": 1,
          "duration": 0.08333325000000968
        },
        {
          "name": "A#2",
          "midi": 46,
          "time": 642.4993575000336,
          "velocity": 1,
          "duration": 0.16666650000001937
        },
        {
          "name": "D4",
          "midi": 62,
          "time": 642.5826907500336,
          "velocity": 1,
          "duration": 0.08333325000000968
        },
        {
          "name": "G2",
          "midi": 43,
          "time": 642.6660240000336,
          "velocity": 1,
          "duration": 0.16666650000001937
        },
        {
          "name": "G5",
          "midi": 79,
          "time": 642.6660240000336,
          "velocity": 1,
          "duration": 0.33333300000003874
        },
        {
          "name": "D#4",
          "midi": 63,
          "time": 642.6660240000336,
          "velocity": 1,
          "duration": 0.16666650000001937
        },
        {
          "name": "A#2",
          "midi": 46,
          "time": 642.8326905000337,
          "velocity": 1,
          "duration": 0.16666650000001937
        },
        {
          "name": "D#4",
          "midi": 63,
          "time": 642.8326905000337,
          "velocity": 1,
          "duration": 0.08333325000000968
        },
        {
          "name": "F4",
          "midi": 65,
          "time": 642.9160237500337,
          "velocity": 1,
          "duration": 0.08333325000000968
        },
        {
          "name": "G4",
          "midi": 67,
          "time": 642.9993570000337,
          "velocity": 1,
          "duration": 0.16666650000001937
        },
        {
          "name": "D#5",
          "midi": 75,
          "time": 642.9993570000337,
          "velocity": 1,
          "duration": 0.6666660000000775
        },
        {
          "name": "G2",
          "midi": 43,
          "time": 642.9993570000337,
          "velocity": 1,
          "duration": 0.16666650000001937
        },
        {
          "name": "A#2",
          "midi": 46,
          "time": 643.1660235000337,
          "velocity": 1,
          "duration": 0.16666650000001937
        },
        {
          "name": "G4",
          "midi": 67,
          "time": 643.1660235000337,
          "velocity": 1,
          "duration": 0.08333325000000968
        },
        {
          "name": "G#4",
          "midi": 68,
          "time": 643.2493567500337,
          "velocity": 1,
          "duration": 0.08333325000000968
        },
        {
          "name": "D#3",
          "midi": 51,
          "time": 643.3326900000337,
          "velocity": 1,
          "duration": 0.16666650000001937
        },
        {
          "name": "A#4",
          "midi": 70,
          "time": 643.3326900000337,
          "velocity": 1,
          "duration": 0.16666650000001937
        },
        {
          "name": "A#2",
          "midi": 46,
          "time": 643.4993565000337,
          "velocity": 1,
          "duration": 0.16666650000001937
        },
        {
          "name": "A#4",
          "midi": 70,
          "time": 643.4993565000337,
          "velocity": 1,
          "duration": 0.08333325000000968
        },
        {
          "name": "C5",
          "midi": 72,
          "time": 643.5826897500338,
          "velocity": 1,
          "duration": 0.08333325000000968
        },
        {
          "name": "G2",
          "midi": 43,
          "time": 643.6660230000338,
          "velocity": 1,
          "duration": 0.16666650000001937
        },
        {
          "name": "A#4",
          "midi": 70,
          "time": 643.6660230000338,
          "velocity": 1,
          "duration": 0.33333300000003874
        },
        {
          "name": "D5",
          "midi": 74,
          "time": 643.6660230000338,
          "velocity": 1,
          "duration": 0.16666650000001937
        },
        {
          "name": "A#2",
          "midi": 46,
          "time": 643.8326895000338,
          "velocity": 1,
          "duration": 0.16666650000001937
        },
        {
          "name": "D#5",
          "midi": 75,
          "time": 643.8326895000338,
          "velocity": 1,
          "duration": 0.08333325000000968
        },
        {
          "name": "F5",
          "midi": 77,
          "time": 643.9160227500338,
          "velocity": 1,
          "duration": 0.08333325000000968
        },
        {
          "name": "D#4",
          "midi": 63,
          "time": 643.9993560000338,
          "velocity": 1,
          "duration": 0.33333300000003874
        },
        {
          "name": "G5",
          "midi": 79,
          "time": 643.9993560000338,
          "velocity": 1,
          "duration": 0.16666650000001937
        },
        {
          "name": "D#5",
          "midi": 75,
          "time": 643.9993560000338,
          "velocity": 1,
          "duration": 0.33333300000003874
        },
        {
          "name": "D#3",
          "midi": 51,
          "time": 643.9993560000338,
          "velocity": 1,
          "duration": 0.33333300000003874
        },
        {
          "name": "G2",
          "midi": 43,
          "time": 643.9993560000338,
          "velocity": 1,
          "duration": 0.16666650000001937
        },
        {
          "name": "A#2",
          "midi": 46,
          "time": 644.1660225000338,
          "velocity": 1,
          "duration": 0.16666650000001937
        },
        {
          "name": "F5",
          "midi": 77,
          "time": 644.1660225000338,
          "velocity": 1,
          "duration": 0.16666650000001937
        },
        {
          "name": "D#3",
          "midi": 51,
          "time": 644.3326890000338,
          "velocity": 1,
          "duration": 0.16666650000001937
        },
        {
          "name": "G5",
          "midi": 79,
          "time": 644.3326890000338,
          "velocity": 1,
          "duration": 0.33333300000003874
        },
        {
          "name": "D#5",
          "midi": 75,
          "time": 644.3326890000338,
          "velocity": 1,
          "duration": 0.16666650000001937
        },
        {
          "name": "A#2",
          "midi": 46,
          "time": 644.4993555000339,
          "velocity": 1,
          "duration": 0.16666650000001937
        },
        {
          "name": "D5",
          "midi": 74,
          "time": 644.4993555000339,
          "velocity": 1,
          "duration": 0.16666650000001937
        },
        {
          "name": "G2",
          "midi": 43,
          "time": 644.6660220000339,
          "velocity": 1,
          "duration": 0.16666650000001937
        },
        {
          "name": "A#5",
          "midi": 82,
          "time": 644.6660220000339,
          "velocity": 1,
          "duration": 0.33333300000003874
        },
        {
          "name": "C5",
          "midi": 72,
          "time": 644.6660220000339,
          "velocity": 1,
          "duration": 0.16666650000001937
        },
        {
          "name": "A#2",
          "midi": 46,
          "time": 644.8326885000339,
          "velocity": 1,
          "duration": 0.16666650000001937
        },
        {
          "name": "A#4",
          "midi": 70,
          "time": 644.8326885000339,
          "velocity": 1,
          "duration": 0.16666650000001937
        },
        {
          "name": "G#4",
          "midi": 68,
          "time": 644.9993550000339,
          "velocity": 1,
          "duration": 0.16666650000001937
        },
        {
          "name": "A#5",
          "midi": 82,
          "time": 644.9993550000339,
          "velocity": 1,
          "duration": 0.9999990000001162
        },
        {
          "name": "G2",
          "midi": 43,
          "time": 644.9993550000339,
          "velocity": 1,
          "duration": 0.16666650000001937
        },
        {
          "name": "A#2",
          "midi": 46,
          "time": 645.1660215000339,
          "velocity": 1,
          "duration": 0.16666650000001937
        },
        {
          "name": "G4",
          "midi": 67,
          "time": 645.1660215000339,
          "velocity": 1,
          "duration": 0.16666650000001937
        },
        {
          "name": "D#3",
          "midi": 51,
          "time": 645.332688000034,
          "velocity": 1,
          "duration": 0.33333300000003874
        },
        {
          "name": "F4",
          "midi": 65,
          "time": 645.332688000034,
          "velocity": 1,
          "duration": 0.16666650000001937
        },
        {
          "name": "D#4",
          "midi": 63,
          "time": 645.332688000034,
          "velocity": 1,
          "duration": 0.33333300000003874
        },
        {
          "name": "A#2",
          "midi": 46,
          "time": 645.499354500034,
          "velocity": 1,
          "duration": 0.16666650000001937
        },
        {
          "name": "G2",
          "midi": 43,
          "time": 645.666021000034,
          "velocity": 1,
          "duration": 0.16666650000001937
        },
        {
          "name": "D#3",
          "midi": 51,
          "time": 645.666021000034,
          "velocity": 1,
          "duration": 0.33333300000003874
        },
        {
          "name": "D4",
          "midi": 62,
          "time": 645.666021000034,
          "velocity": 1,
          "duration": 0.16666650000001937
        },
        {
          "name": "D#4",
          "midi": 63,
          "time": 645.666021000034,
          "velocity": 1,
          "duration": 0.33333300000003874
        },
        {
          "name": "A#2",
          "midi": 46,
          "time": 645.832687500034,
          "velocity": 1,
          "duration": 0.16666650000001937
        },
        {
          "name": "C4",
          "midi": 60,
          "time": 645.832687500034,
          "velocity": 1,
          "duration": 0.16666650000001937
        },
        {
          "name": "D4",
          "midi": 62,
          "time": 645.999354000034,
          "velocity": 1,
          "duration": 0.33333300000003874
        },
        {
          "name": "F5",
          "midi": 77,
          "time": 645.999354000034,
          "velocity": 1,
          "duration": 0.6666660000000775
        },
        {
          "name": "D3",
          "midi": 50,
          "time": 645.999354000034,
          "velocity": 1,
          "duration": 0.33333300000003874
        },
        {
          "name": "G#2",
          "midi": 44,
          "time": 645.999354000034,
          "velocity": 1,
          "duration": 0.16666650000001937
        },
        {
          "name": "A#2",
          "midi": 46,
          "time": 646.166020500034,
          "velocity": 1,
          "duration": 0.16666650000001937
        },
        {
          "name": "A#3",
          "midi": 58,
          "time": 646.166020500034,
          "velocity": 1,
          "duration": 0.08333325000000968
        },
        {
          "name": "C4",
          "midi": 60,
          "time": 646.2493537500341,
          "velocity": 1,
          "duration": 0.08333325000000968
        },
        {
          "name": "F3",
          "midi": 53,
          "time": 646.3326870000341,
          "velocity": 1,
          "duration": 0.16666650000001937
        },
        {
          "name": "D4",
          "midi": 62,
          "time": 646.3326870000341,
          "velocity": 1,
          "duration": 0.16666650000001937
        },
        {
          "name": "A#2",
          "midi": 46,
          "time": 646.4993535000341,
          "velocity": 1,
          "duration": 0.16666650000001937
        },
        {
          "name": "D4",
          "midi": 62,
          "time": 646.4993535000341,
          "velocity": 1,
          "duration": 0.08333325000000968
        },
        {
          "name": "D#4",
          "midi": 63,
          "time": 646.5826867500341,
          "velocity": 1,
          "duration": 0.08333325000000968
        },
        {
          "name": "G#2",
          "midi": 44,
          "time": 646.6660200000341,
          "velocity": 1,
          "duration": 0.16666650000001937
        },
        {
          "name": "G#5",
          "midi": 80,
          "time": 646.6660200000341,
          "velocity": 1,
          "duration": 0.33333300000003874
        },
        {
          "name": "F4",
          "midi": 65,
          "time": 646.6660200000341,
          "velocity": 1,
          "duration": 0.16666650000001937
        },
        {
          "name": "F4",
          "midi": 65,
          "time": 646.8326865000341,
          "velocity": 1,
          "duration": 0.08333325000000968
        },
        {
          "name": "A#2",
          "midi": 46,
          "time": 646.8326865000341,
          "velocity": 1,
          "duration": 0.16666650000001937
        },
        {
          "name": "G4",
          "midi": 67,
          "time": 646.9160197500341,
          "velocity": 1,
          "duration": 0.08333325000000968
        },
        {
          "name": "G#2",
          "midi": 44,
          "time": 646.9993530000341,
          "velocity": 1,
          "duration": 0.16666650000001937
        },
        {
          "name": "F5",
          "midi": 77,
          "time": 646.9993530000341,
          "velocity": 1,
          "duration": 0.6666660000000775
        },
        {
          "name": "G#4",
          "midi": 68,
          "time": 646.9993530000341,
          "velocity": 1,
          "duration": 0.16666650000001937
        },
        {
          "name": "A#2",
          "midi": 46,
          "time": 647.1660195000342,
          "velocity": 1,
          "duration": 0.16666650000001937
        },
        {
          "name": "A#4",
          "midi": 70,
          "time": 647.1660195000342,
          "velocity": 1,
          "duration": 0.08333325000000968
        },
        {
          "name": "C5",
          "midi": 72,
          "time": 647.2493527500342,
          "velocity": 1,
          "duration": 0.08333325000000968
        },
        {
          "name": "D5",
          "midi": 74,
          "time": 647.3326860000342,
          "velocity": 1,
          "duration": 0.16666650000001937
        },
        {
          "name": "F3",
          "midi": 53,
          "time": 647.3326860000342,
          "velocity": 1,
          "duration": 0.16666650000001937
        },
        {
          "name": "A#2",
          "midi": 46,
          "time": 647.4993525000342,
          "velocity": 1,
          "duration": 0.16666650000001937
        },
        {
          "name": "D5",
          "midi": 74,
          "time": 647.4993525000342,
          "velocity": 1,
          "duration": 0.08333325000000968
        },
        {
          "name": "D#5",
          "midi": 75,
          "time": 647.5826857500342,
          "velocity": 1,
          "duration": 0.08333325000000968
        },
        {
          "name": "G#2",
          "midi": 44,
          "time": 647.6660190000342,
          "velocity": 1,
          "duration": 0.16666650000001937
        },
        {
          "name": "A#4",
          "midi": 70,
          "time": 647.6660190000342,
          "velocity": 1,
          "duration": 0.33333300000003874
        },
        {
          "name": "F5",
          "midi": 77,
          "time": 647.6660190000342,
          "velocity": 1,
          "duration": 0.16666650000001937
        },
        {
          "name": "F5",
          "midi": 77,
          "time": 647.8326855000342,
          "velocity": 1,
          "duration": 0.08333325000000968
        },
        {
          "name": "A#2",
          "midi": 46,
          "time": 647.8326855000342,
          "velocity": 1,
          "duration": 0.16666650000001937
        },
        {
          "name": "G5",
          "midi": 79,
          "time": 647.9160187500343,
          "velocity": 1,
          "duration": 0.08333325000000968
        },
        {
          "name": "G#2",
          "midi": 44,
          "time": 647.9993520000343,
          "velocity": 1,
          "duration": 0.16666650000001937
        },
        {
          "name": "A#2",
          "midi": 46,
          "time": 647.9993520000343,
          "velocity": 1,
          "duration": 0.33333300000003874
        },
        {
          "name": "F5",
          "midi": 77,
          "time": 647.9993520000343,
          "velocity": 1,
          "duration": 0.33333300000003874
        },
        {
          "name": "G#5",
          "midi": 80,
          "time": 647.9993520000343,
          "velocity": 1,
          "duration": 0.16666650000001937
        },
        {
          "name": "A#3",
          "midi": 58,
          "time": 647.9993520000343,
          "velocity": 1,
          "duration": 0.33333300000003874
        },
        {
          "name": "G5",
          "midi": 79,
          "time": 648.1660185000343,
          "velocity": 1,
          "duration": 0.16666650000001937
        },
        {
          "name": "D3",
          "midi": 50,
          "time": 648.3326850000343,
          "velocity": 1,
          "duration": 0.16666650000001937
        },
        {
          "name": "G#5",
          "midi": 80,
          "time": 648.3326850000343,
          "velocity": 1,
          "duration": 0.33333300000003874
        },
        {
          "name": "F5",
          "midi": 77,
          "time": 648.3326850000343,
          "velocity": 1,
          "duration": 0.16666650000001937
        },
        {
          "name": "A#2",
          "midi": 46,
          "time": 648.4993515000343,
          "velocity": 1,
          "duration": 0.16666650000001937
        },
        {
          "name": "D#5",
          "midi": 75,
          "time": 648.4993515000343,
          "velocity": 1,
          "duration": 0.16666650000001937
        },
        {
          "name": "D5",
          "midi": 74,
          "time": 648.6660180000343,
          "velocity": 1,
          "duration": 0.16666650000001937
        },
        {
          "name": "A#5",
          "midi": 82,
          "time": 648.6660180000343,
          "velocity": 1,
          "duration": 0.33333300000003874
        },
        {
          "name": "G#2",
          "midi": 44,
          "time": 648.6660180000343,
          "velocity": 1,
          "duration": 0.16666650000001937
        },
        {
          "name": "A#2",
          "midi": 46,
          "time": 648.8326845000344,
          "velocity": 1,
          "duration": 0.16666650000001937
        },
        {
          "name": "C5",
          "midi": 72,
          "time": 648.8326845000344,
          "velocity": 1,
          "duration": 0.16666650000001937
        },
        {
          "name": "G#2",
          "midi": 44,
          "time": 648.9993510000344,
          "velocity": 1,
          "duration": 0.16666650000001937
        },
        {
          "name": "A#5",
          "midi": 82,
          "time": 648.9993510000344,
          "velocity": 1,
          "duration": 1.1666655000001356
        },
        {
          "name": "A#4",
          "midi": 70,
          "time": 648.9993510000344,
          "velocity": 1,
          "duration": 0.16666650000001937
        },
        {
          "name": "C5",
          "midi": 72,
          "time": 649.1660175000344,
          "velocity": 1,
          "duration": 0.16666650000001937
        },
        {
          "name": "A#2",
          "midi": 46,
          "time": 649.1660175000344,
          "velocity": 1,
          "duration": 0.16666650000001937
        },
        {
          "name": "D3",
          "midi": 50,
          "time": 649.3326840000344,
          "velocity": 1,
          "duration": 0.16666650000001937
        },
        {
          "name": "A#2",
          "midi": 46,
          "time": 649.3326840000344,
          "velocity": 1,
          "duration": 0.33333300000003874
        },
        {
          "name": "A#4",
          "midi": 70,
          "time": 649.3326840000344,
          "velocity": 1,
          "duration": 0.16666650000001937
        },
        {
          "name": "A#3",
          "midi": 58,
          "time": 649.3326840000344,
          "velocity": 1,
          "duration": 0.33333300000003874
        },
        {
          "name": "G#4",
          "midi": 68,
          "time": 649.4993505000344,
          "velocity": 1,
          "duration": 0.16666650000001937
        },
        {
          "name": "A#3",
          "midi": 58,
          "time": 649.6660170000345,
          "velocity": 1,
          "duration": 0.33333300000003874
        },
        {
          "name": "G4",
          "midi": 67,
          "time": 649.6660170000345,
          "velocity": 1,
          "duration": 0.16666650000001937
        },
        {
          "name": "A#2",
          "midi": 46,
          "time": 649.6660170000345,
          "velocity": 1,
          "duration": 0.33333300000003874
        },
        {
          "name": "G#2",
          "midi": 44,
          "time": 649.6660170000345,
          "velocity": 1,
          "duration": 0.16666650000001937
        },
        {
          "name": "F4",
          "midi": 65,
          "time": 649.8326835000345,
          "velocity": 1,
          "duration": 0.16666650000001937
        },
        {
          "name": "D#3",
          "midi": 51,
          "time": 649.9993500000345,
          "velocity": 1,
          "duration": 0.6666660000000775
        },
        {
          "name": "D#4",
          "midi": 63,
          "time": 649.9993500000345,
          "velocity": 1,
          "duration": 0.6666660000000775
        },
        {
          "name": "A#5",
          "midi": 82,
          "time": 650.1660165000345,
          "velocity": 1,
          "duration": 0.33333300000003874
        },
        {
          "name": "A#4",
          "midi": 70,
          "time": 650.1660165000345,
          "velocity": 1,
          "duration": 0.33333300000003874
        },
        {
          "name": "G5",
          "midi": 79,
          "time": 650.1660165000345,
          "velocity": 1,
          "duration": 0.33333300000003874
        },
        {
          "name": "A#4",
          "midi": 70,
          "time": 650.4993495000346,
          "velocity": 1,
          "duration": 0.33333300000003874
        },
        {
          "name": "G5",
          "midi": 79,
          "time": 650.4993495000346,
          "velocity": 1,
          "duration": 0.33333300000003874
        },
        {
          "name": "A#5",
          "midi": 82,
          "time": 650.4993495000346,
          "velocity": 1,
          "duration": 0.33333300000003874
        },
        {
          "name": "G3",
          "midi": 55,
          "time": 650.6660160000346,
          "velocity": 1,
          "duration": 0.33333300000003874
        },
        {
          "name": "G4",
          "midi": 67,
          "time": 650.6660160000346,
          "velocity": 1,
          "duration": 0.33333300000003874
        },
        {
          "name": "A#5",
          "midi": 82,
          "time": 650.8326825000346,
          "velocity": 1,
          "duration": 0.33333300000003874
        },
        {
          "name": "A#4",
          "midi": 70,
          "time": 650.8326825000346,
          "velocity": 1,
          "duration": 0.33333300000003874
        },
        {
          "name": "G5",
          "midi": 79,
          "time": 650.8326825000346,
          "velocity": 1,
          "duration": 0.33333300000003874
        },
        {
          "name": "D#4",
          "midi": 63,
          "time": 650.9993490000346,
          "velocity": 1,
          "duration": 0.6666660000000775
        },
        {
          "name": "D#3",
          "midi": 51,
          "time": 650.9993490000346,
          "velocity": 1,
          "duration": 0.6666660000000775
        },
        {
          "name": "A#4",
          "midi": 70,
          "time": 651.1660155000346,
          "velocity": 1,
          "duration": 0.33333300000003874
        },
        {
          "name": "G5",
          "midi": 79,
          "time": 651.1660155000346,
          "velocity": 1,
          "duration": 0.33333300000003874
        },
        {
          "name": "A#5",
          "midi": 82,
          "time": 651.1660155000346,
          "velocity": 1,
          "duration": 0.33333300000003874
        },
        {
          "name": "A#5",
          "midi": 82,
          "time": 651.4993485000347,
          "velocity": 1,
          "duration": 0.33333300000003874
        },
        {
          "name": "A#4",
          "midi": 70,
          "time": 651.4993485000347,
          "velocity": 1,
          "duration": 0.33333300000003874
        },
        {
          "name": "G5",
          "midi": 79,
          "time": 651.4993485000347,
          "velocity": 1,
          "duration": 0.33333300000003874
        },
        {
          "name": "A#2",
          "midi": 46,
          "time": 651.6660150000347,
          "velocity": 1,
          "duration": 0.33333300000003874
        },
        {
          "name": "A#3",
          "midi": 58,
          "time": 651.6660150000347,
          "velocity": 1,
          "duration": 0.33333300000003874
        },
        {
          "name": "A#5",
          "midi": 82,
          "time": 651.8326815000347,
          "velocity": 1,
          "duration": 0.33333300000003874
        },
        {
          "name": "A#4",
          "midi": 70,
          "time": 651.8326815000347,
          "velocity": 1,
          "duration": 0.33333300000003874
        },
        {
          "name": "G5",
          "midi": 79,
          "time": 651.8326815000347,
          "velocity": 1,
          "duration": 0.33333300000003874
        },
        {
          "name": "D#4",
          "midi": 63,
          "time": 651.9993480000347,
          "velocity": 1,
          "duration": 0.33333300000003874
        },
        {
          "name": "D#3",
          "midi": 51,
          "time": 651.9993480000347,
          "velocity": 1,
          "duration": 0.33333300000003874
        },
        {
          "name": "A#5",
          "midi": 82,
          "time": 652.1660145000347,
          "velocity": 1,
          "duration": 0.33333300000003874
        },
        {
          "name": "A#4",
          "midi": 70,
          "time": 652.1660145000347,
          "velocity": 1,
          "duration": 0.33333300000003874
        },
        {
          "name": "G5",
          "midi": 79,
          "time": 652.1660145000347,
          "velocity": 1,
          "duration": 0.33333300000003874
        },
        {
          "name": "G3",
          "midi": 55,
          "time": 652.3326810000348,
          "velocity": 1,
          "duration": 0.33333300000003874
        },
        {
          "name": "G4",
          "midi": 67,
          "time": 652.3326810000348,
          "velocity": 1,
          "duration": 0.33333300000003874
        },
        {
          "name": "A#5",
          "midi": 82,
          "time": 652.4993475000348,
          "velocity": 1,
          "duration": 0.33333300000003874
        },
        {
          "name": "A#4",
          "midi": 70,
          "time": 652.4993475000348,
          "velocity": 1,
          "duration": 0.6666660000000775
        },
        {
          "name": "G5",
          "midi": 79,
          "time": 652.4993475000348,
          "velocity": 1,
          "duration": 0.33333300000003874
        },
        {
          "name": "A#3",
          "midi": 58,
          "time": 652.6660140000348,
          "velocity": 1,
          "duration": 0.33333300000003874
        },
        {
          "name": "A#5",
          "midi": 82,
          "time": 652.8326805000348,
          "velocity": 1,
          "duration": 0.33333300000003874
        },
        {
          "name": "G5",
          "midi": 79,
          "time": 652.8326805000348,
          "velocity": 1,
          "duration": 0.33333300000003874
        },
        {
          "name": "A#3",
          "midi": 58,
          "time": 652.9993470000348,
          "velocity": 1,
          "duration": 0.9999990000001162
        },
        {
          "name": "G5",
          "midi": 79,
          "time": 653.1660135000349,
          "velocity": 1,
          "duration": 0.33333300000003874
        },
        {
          "name": "A#5",
          "midi": 82,
          "time": 653.1660135000349,
          "velocity": 1,
          "duration": 0.33333300000003874
        },
        {
          "name": "A#5",
          "midi": 82,
          "time": 653.4993465000349,
          "velocity": 1,
          "duration": 0.33333300000003874
        },
        {
          "name": "G5",
          "midi": 79,
          "time": 653.4993465000349,
          "velocity": 1,
          "duration": 0.33333300000003874
        },
        {
          "name": "A#5",
          "midi": 82,
          "time": 653.8326795000349,
          "velocity": 1,
          "duration": 0.33333300000003874
        },
        {
          "name": "G5",
          "midi": 79,
          "time": 653.8326795000349,
          "velocity": 1,
          "duration": 0.16666650000001937
        },
        {
          "name": "F4",
          "midi": 65,
          "time": 653.999346000035,
          "velocity": 1,
          "duration": 0.6666660000000775
        },
        {
          "name": "G#5",
          "midi": 80,
          "time": 653.999346000035,
          "velocity": 1,
          "duration": 0.16666650000001937
        },
        {
          "name": "F3",
          "midi": 53,
          "time": 653.999346000035,
          "velocity": 1,
          "duration": 0.6666660000000775
        },
        {
          "name": "A#5",
          "midi": 82,
          "time": 654.166012500035,
          "velocity": 1,
          "duration": 0.33333300000003874
        },
        {
          "name": "A#4",
          "midi": 70,
          "time": 654.166012500035,
          "velocity": 1,
          "duration": 0.33333300000003874
        },
        {
          "name": "G#5",
          "midi": 80,
          "time": 654.166012500035,
          "velocity": 1,
          "duration": 0.33333300000003874
        },
        {
          "name": "A#4",
          "midi": 70,
          "time": 654.499345500035,
          "velocity": 1,
          "duration": 0.33333300000003874
        },
        {
          "name": "G#5",
          "midi": 80,
          "time": 654.499345500035,
          "velocity": 1,
          "duration": 0.33333300000003874
        },
        {
          "name": "A#5",
          "midi": 82,
          "time": 654.499345500035,
          "velocity": 1,
          "duration": 0.33333300000003874
        },
        {
          "name": "G#3",
          "midi": 56,
          "time": 654.666012000035,
          "velocity": 1,
          "duration": 0.33333300000003874
        },
        {
          "name": "G#4",
          "midi": 68,
          "time": 654.666012000035,
          "velocity": 1,
          "duration": 0.33333300000003874
        },
        {
          "name": "A#4",
          "midi": 70,
          "time": 654.8326785000351,
          "velocity": 1,
          "duration": 0.33333300000003874
        },
        {
          "name": "G#5",
          "midi": 80,
          "time": 654.8326785000351,
          "velocity": 1,
          "duration": 0.33333300000003874
        },
        {
          "name": "A#5",
          "midi": 82,
          "time": 654.8326785000351,
          "velocity": 1,
          "duration": 0.33333300000003874
        },
        {
          "name": "F3",
          "midi": 53,
          "time": 654.9993450000351,
          "velocity": 1,
          "duration": 0.6666660000000775
        },
        {
          "name": "F4",
          "midi": 65,
          "time": 654.9993450000351,
          "velocity": 1,
          "duration": 0.6666660000000775
        },
        {
          "name": "A#5",
          "midi": 82,
          "time": 655.1660115000351,
          "velocity": 1,
          "duration": 0.33333300000003874
        },
        {
          "name": "A#4",
          "midi": 70,
          "time": 655.1660115000351,
          "velocity": 1,
          "duration": 0.33333300000003874
        },
        {
          "name": "G#5",
          "midi": 80,
          "time": 655.1660115000351,
          "velocity": 1,
          "duration": 0.33333300000003874
        },
        {
          "name": "A#4",
          "midi": 70,
          "time": 655.4993445000351,
          "velocity": 1,
          "duration": 0.33333300000003874
        },
        {
          "name": "G#5",
          "midi": 80,
          "time": 655.4993445000351,
          "velocity": 1,
          "duration": 0.33333300000003874
        },
        {
          "name": "A#5",
          "midi": 82,
          "time": 655.4993445000351,
          "velocity": 1,
          "duration": 0.33333300000003874
        },
        {
          "name": "A#2",
          "midi": 46,
          "time": 655.6660110000352,
          "velocity": 1,
          "duration": 0.33333300000003874
        },
        {
          "name": "A#3",
          "midi": 58,
          "time": 655.6660110000352,
          "velocity": 1,
          "duration": 0.33333300000003874
        },
        {
          "name": "A#5",
          "midi": 82,
          "time": 655.8326775000352,
          "velocity": 1,
          "duration": 0.33333300000003874
        },
        {
          "name": "A#4",
          "midi": 70,
          "time": 655.8326775000352,
          "velocity": 1,
          "duration": 0.33333300000003874
        },
        {
          "name": "G#5",
          "midi": 80,
          "time": 655.8326775000352,
          "velocity": 1,
          "duration": 0.33333300000003874
        },
        {
          "name": "F4",
          "midi": 65,
          "time": 655.9993440000352,
          "velocity": 1,
          "duration": 0.33333300000003874
        },
        {
          "name": "F3",
          "midi": 53,
          "time": 655.9993440000352,
          "velocity": 1,
          "duration": 0.33333300000003874
        },
        {
          "name": "A#4",
          "midi": 70,
          "time": 656.1660105000352,
          "velocity": 1,
          "duration": 0.33333300000003874
        },
        {
          "name": "G#5",
          "midi": 80,
          "time": 656.1660105000352,
          "velocity": 1,
          "duration": 0.33333300000003874
        },
        {
          "name": "A#5",
          "midi": 82,
          "time": 656.1660105000352,
          "velocity": 1,
          "duration": 0.33333300000003874
        },
        {
          "name": "G#3",
          "midi": 56,
          "time": 656.3326770000352,
          "velocity": 1,
          "duration": 0.33333300000003874
        },
        {
          "name": "G#4",
          "midi": 68,
          "time": 656.3326770000352,
          "velocity": 1,
          "duration": 0.33333300000003874
        },
        {
          "name": "A#5",
          "midi": 82,
          "time": 656.4993435000353,
          "velocity": 1,
          "duration": 0.33333300000003874
        },
        {
          "name": "A#4",
          "midi": 70,
          "time": 656.4993435000353,
          "velocity": 1,
          "duration": 0.6666660000000775
        },
        {
          "name": "G#5",
          "midi": 80,
          "time": 656.4993435000353,
          "velocity": 1,
          "duration": 0.33333300000003874
        },
        {
          "name": "A#3",
          "midi": 58,
          "time": 656.6660100000353,
          "velocity": 1,
          "duration": 0.33333300000003874
        },
        {
          "name": "G#5",
          "midi": 80,
          "time": 656.8326765000353,
          "velocity": 1,
          "duration": 0.33333300000003874
        },
        {
          "name": "A#5",
          "midi": 82,
          "time": 656.8326765000353,
          "velocity": 1,
          "duration": 0.33333300000003874
        },
        {
          "name": "A#3",
          "midi": 58,
          "time": 656.9993430000353,
          "velocity": 1,
          "duration": 1.1666655000001356
        },
        {
          "name": "A#5",
          "midi": 82,
          "time": 657.1660095000353,
          "velocity": 1,
          "duration": 0.16666650000001937
        },
        {
          "name": "C6",
          "midi": 84,
          "time": 657.3326760000353,
          "velocity": 1,
          "duration": 0.16666650000001937
        },
        {
          "name": "C5",
          "midi": 72,
          "time": 657.3326760000353,
          "velocity": 1,
          "duration": 0.16666650000001937
        },
        {
          "name": "C6",
          "midi": 84,
          "time": 657.4993425000354,
          "velocity": 1,
          "duration": 0.16666650000001937
        },
        {
          "name": "C5",
          "midi": 72,
          "time": 657.4993425000354,
          "velocity": 1,
          "duration": 0.16666650000001937
        },
        {
          "name": "D5",
          "midi": 74,
          "time": 657.6660090000354,
          "velocity": 1,
          "duration": 0.16666650000001937
        },
        {
          "name": "D6",
          "midi": 86,
          "time": 657.6660090000354,
          "velocity": 1,
          "duration": 0.16666650000001937
        },
        {
          "name": "D6",
          "midi": 86,
          "time": 657.8326755000354,
          "velocity": 1,
          "duration": 0.16666650000001937
        },
        {
          "name": "D5",
          "midi": 74,
          "time": 657.8326755000354,
          "velocity": 1,
          "duration": 0.16666650000001937
        },
        {
          "name": "D#6",
          "midi": 87,
          "time": 657.9993420000354,
          "velocity": 1,
          "duration": 0.08333325000000968
        },
        {
          "name": "D#5",
          "midi": 75,
          "time": 657.9993420000354,
          "velocity": 1,
          "duration": 0.08333325000000968
        },
        {
          "name": "D#6",
          "midi": 87,
          "time": 658.0826752500354,
          "velocity": 1,
          "duration": 0.08333325000000968
        },
        {
          "name": "D#5",
          "midi": 75,
          "time": 658.0826752500354,
          "velocity": 1,
          "duration": 0.08333325000000968
        },
        {
          "name": "G5",
          "midi": 79,
          "time": 658.0826752500354,
          "velocity": 1,
          "duration": 0.08333325000000968
        },
        {
          "name": "D#4",
          "midi": 63,
          "time": 658.1660085000354,
          "velocity": 1,
          "duration": 0.08333325000000968
        },
        {
          "name": "A#4",
          "midi": 70,
          "time": 658.1660085000354,
          "velocity": 1,
          "duration": 0.08333325000000968
        },
        {
          "name": "G5",
          "midi": 79,
          "time": 658.1660085000354,
          "velocity": 1,
          "duration": 0.08333325000000968
        },
        {
          "name": "D#5",
          "midi": 75,
          "time": 658.1660085000354,
          "velocity": 1,
          "duration": 0.08333325000000968
        },
        {
          "name": "D#6",
          "midi": 87,
          "time": 658.1660085000354,
          "velocity": 1,
          "duration": 0.08333325000000968
        },
        {
          "name": "D#3",
          "midi": 51,
          "time": 658.1660085000354,
          "velocity": 1,
          "duration": 0.08333325000000968
        },
        {
          "name": "F3",
          "midi": 53,
          "time": 658.2493417500355,
          "velocity": 1,
          "duration": 0.08333325000000968
        },
        {
          "name": "D#6",
          "midi": 87,
          "time": 658.2493417500355,
          "velocity": 1,
          "duration": 0.08333325000000968
        },
        {
          "name": "D#5",
          "midi": 75,
          "time": 658.2493417500355,
          "velocity": 1,
          "duration": 0.08333325000000968
        },
        {
          "name": "G5",
          "midi": 79,
          "time": 658.2493417500355,
          "velocity": 1,
          "duration": 0.08333325000000968
        },
        {
          "name": "A#4",
          "midi": 70,
          "time": 658.2493417500355,
          "velocity": 1,
          "duration": 0.08333325000000968
        },
        {
          "name": "F4",
          "midi": 65,
          "time": 658.2493417500355,
          "velocity": 1,
          "duration": 0.08333325000000968
        },
        {
          "name": "G4",
          "midi": 67,
          "time": 658.3326750000355,
          "velocity": 1,
          "duration": 0.16666650000001937
        },
        {
          "name": "A#4",
          "midi": 70,
          "time": 658.3326750000355,
          "velocity": 1,
          "duration": 0.08333325000000968
        },
        {
          "name": "G5",
          "midi": 79,
          "time": 658.3326750000355,
          "velocity": 1,
          "duration": 0.08333325000000968
        },
        {
          "name": "D#5",
          "midi": 75,
          "time": 658.3326750000355,
          "velocity": 1,
          "duration": 0.08333325000000968
        },
        {
          "name": "D#6",
          "midi": 87,
          "time": 658.3326750000355,
          "velocity": 1,
          "duration": 0.08333325000000968
        },
        {
          "name": "G3",
          "midi": 55,
          "time": 658.3326750000355,
          "velocity": 1,
          "duration": 0.16666650000001937
        },
        {
          "name": "D#6",
          "midi": 87,
          "time": 658.4160082500355,
          "velocity": 1,
          "duration": 0.08333325000000968
        },
        {
          "name": "D#5",
          "midi": 75,
          "time": 658.4160082500355,
          "velocity": 1,
          "duration": 0.08333325000000968
        },
        {
          "name": "G5",
          "midi": 79,
          "time": 658.4160082500355,
          "velocity": 1,
          "duration": 0.08333325000000968
        },
        {
          "name": "A#4",
          "midi": 70,
          "time": 658.4160082500355,
          "velocity": 1,
          "duration": 0.08333325000000968
        },
        {
          "name": "G4",
          "midi": 67,
          "time": 658.4993415000355,
          "velocity": 1,
          "duration": 0.08333325000000968
        },
        {
          "name": "A#4",
          "midi": 70,
          "time": 658.4993415000355,
          "velocity": 1,
          "duration": 0.08333325000000968
        },
        {
          "name": "G5",
          "midi": 79,
          "time": 658.4993415000355,
          "velocity": 1,
          "duration": 0.08333325000000968
        },
        {
          "name": "D#5",
          "midi": 75,
          "time": 658.4993415000355,
          "velocity": 1,
          "duration": 0.08333325000000968
        },
        {
          "name": "D#6",
          "midi": 87,
          "time": 658.4993415000355,
          "velocity": 1,
          "duration": 0.08333325000000968
        },
        {
          "name": "G3",
          "midi": 55,
          "time": 658.4993415000355,
          "velocity": 1,
          "duration": 0.08333325000000968
        },
        {
          "name": "G#4",
          "midi": 68,
          "time": 658.5826747500355,
          "velocity": 1,
          "duration": 0.08333325000000968
        },
        {
          "name": "A#4",
          "midi": 70,
          "time": 658.5826747500355,
          "velocity": 1,
          "duration": 0.08333325000000968
        },
        {
          "name": "G5",
          "midi": 79,
          "time": 658.5826747500355,
          "velocity": 1,
          "duration": 0.08333325000000968
        },
        {
          "name": "D#5",
          "midi": 75,
          "time": 658.5826747500355,
          "velocity": 1,
          "duration": 0.08333325000000968
        },
        {
          "name": "D#6",
          "midi": 87,
          "time": 658.5826747500355,
          "velocity": 1,
          "duration": 0.08333325000000968
        },
        {
          "name": "G#3",
          "midi": 56,
          "time": 658.5826747500355,
          "velocity": 1,
          "duration": 0.08333325000000968
        },
        {
          "name": "A#4",
          "midi": 70,
          "time": 658.6660080000355,
          "velocity": 1,
          "duration": 0.16666650000001937
        },
        {
          "name": "G5",
          "midi": 79,
          "time": 658.6660080000355,
          "velocity": 1,
          "duration": 0.08333325000000968
        },
        {
          "name": "D#5",
          "midi": 75,
          "time": 658.6660080000355,
          "velocity": 1,
          "duration": 0.08333325000000968
        },
        {
          "name": "D#6",
          "midi": 87,
          "time": 658.6660080000355,
          "velocity": 1,
          "duration": 0.08333325000000968
        },
        {
          "name": "A#3",
          "midi": 58,
          "time": 658.6660080000355,
          "velocity": 1,
          "duration": 0.16666650000001937
        },
        {
          "name": "D#6",
          "midi": 87,
          "time": 658.7493412500355,
          "velocity": 1,
          "duration": 0.08333325000000968
        },
        {
          "name": "D#5",
          "midi": 75,
          "time": 658.7493412500355,
          "velocity": 1,
          "duration": 0.08333325000000968
        },
        {
          "name": "G5",
          "midi": 79,
          "time": 658.7493412500355,
          "velocity": 1,
          "duration": 0.08333325000000968
        },
        {
          "name": "C5",
          "midi": 72,
          "time": 658.8326745000355,
          "velocity": 1,
          "duration": 0.08333325000000968
        },
        {
          "name": "A#4",
          "midi": 70,
          "time": 658.8326745000355,
          "velocity": 1,
          "duration": 0.08333325000000968
        },
        {
          "name": "G5",
          "midi": 79,
          "time": 658.8326745000355,
          "velocity": 1,
          "duration": 0.08333325000000968
        },
        {
          "name": "D#5",
          "midi": 75,
          "time": 658.8326745000355,
          "velocity": 1,
          "duration": 0.08333325000000968
        },
        {
          "name": "D#6",
          "midi": 87,
          "time": 658.8326745000355,
          "velocity": 1,
          "duration": 0.08333325000000968
        },
        {
          "name": "C4",
          "midi": 60,
          "time": 658.8326745000355,
          "velocity": 1,
          "duration": 0.08333325000000968
        },
        {
          "name": "D4",
          "midi": 62,
          "time": 658.9160077500355,
          "velocity": 1,
          "duration": 0.08333325000000968
        },
        {
          "name": "D#6",
          "midi": 87,
          "time": 658.9160077500355,
          "velocity": 1,
          "duration": 0.08333325000000968
        },
        {
          "name": "D#5",
          "midi": 75,
          "time": 658.9160077500355,
          "velocity": 1,
          "duration": 0.08333325000000968
        },
        {
          "name": "G5",
          "midi": 79,
          "time": 658.9160077500355,
          "velocity": 1,
          "duration": 0.08333325000000968
        },
        {
          "name": "A#4",
          "midi": 70,
          "time": 658.9160077500355,
          "velocity": 1,
          "duration": 0.08333325000000968
        },
        {
          "name": "D5",
          "midi": 74,
          "time": 658.9160077500355,
          "velocity": 1,
          "duration": 0.08333325000000968
        },
        {
          "name": "D#5",
          "midi": 75,
          "time": 658.9993410000355,
          "velocity": 1,
          "duration": 0.16666650000001937
        },
        {
          "name": "A#4",
          "midi": 70,
          "time": 658.9993410000355,
          "velocity": 1,
          "duration": 0.08333325000000968
        },
        {
          "name": "G5",
          "midi": 79,
          "time": 658.9993410000355,
          "velocity": 1,
          "duration": 0.08333325000000968
        },
        {
          "name": "D#6",
          "midi": 87,
          "time": 658.9993410000355,
          "velocity": 1,
          "duration": 0.08333325000000968
        },
        {
          "name": "D#4",
          "midi": 63,
          "time": 658.9993410000355,
          "velocity": 1,
          "duration": 0.16666650000001937
        },
        {
          "name": "D#6",
          "midi": 87,
          "time": 659.0826742500356,
          "velocity": 1,
          "duration": 0.08333325000000968
        },
        {
          "name": "G5",
          "midi": 79,
          "time": 659.0826742500356,
          "velocity": 1,
          "duration": 0.08333325000000968
        },
        {
          "name": "A#4",
          "midi": 70,
          "time": 659.0826742500356,
          "velocity": 1,
          "duration": 0.08333325000000968
        },
        {
          "name": "G4",
          "midi": 67,
          "time": 659.1660075000356,
          "velocity": 1,
          "duration": 0.08333325000000968
        },
        {
          "name": "A#4",
          "midi": 70,
          "time": 659.1660075000356,
          "velocity": 1,
          "duration": 0.08333325000000968
        },
        {
          "name": "G5",
          "midi": 79,
          "time": 659.1660075000356,
          "velocity": 1,
          "duration": 0.08333325000000968
        },
        {
          "name": "D#5",
          "midi": 75,
          "time": 659.1660075000356,
          "velocity": 1,
          "duration": 0.08333325000000968
        },
        {
          "name": "D#6",
          "midi": 87,
          "time": 659.1660075000356,
          "velocity": 1,
          "duration": 0.08333325000000968
        },
        {
          "name": "G3",
          "midi": 55,
          "time": 659.1660075000356,
          "velocity": 1,
          "duration": 0.08333325000000968
        },
        {
          "name": "G#4",
          "midi": 68,
          "time": 659.2493407500356,
          "velocity": 1,
          "duration": 0.08333325000000968
        },
        {
          "name": "A#4",
          "midi": 70,
          "time": 659.2493407500356,
          "velocity": 1,
          "duration": 0.08333325000000968
        },
        {
          "name": "G5",
          "midi": 79,
          "time": 659.2493407500356,
          "velocity": 1,
          "duration": 0.08333325000000968
        },
        {
          "name": "D#5",
          "midi": 75,
          "time": 659.2493407500356,
          "velocity": 1,
          "duration": 0.08333325000000968
        },
        {
          "name": "D#6",
          "midi": 87,
          "time": 659.2493407500356,
          "velocity": 1,
          "duration": 0.08333325000000968
        },
        {
          "name": "G#3",
          "midi": 56,
          "time": 659.2493407500356,
          "velocity": 1,
          "duration": 0.08333325000000968
        },
        {
          "name": "A#4",
          "midi": 70,
          "time": 659.3326740000356,
          "velocity": 1,
          "duration": 0.16666650000001937
        },
        {
          "name": "G5",
          "midi": 79,
          "time": 659.3326740000356,
          "velocity": 1,
          "duration": 0.08333325000000968
        },
        {
          "name": "D#5",
          "midi": 75,
          "time": 659.3326740000356,
          "velocity": 1,
          "duration": 0.08333325000000968
        },
        {
          "name": "D#6",
          "midi": 87,
          "time": 659.3326740000356,
          "velocity": 1,
          "duration": 0.08333325000000968
        },
        {
          "name": "A#3",
          "midi": 58,
          "time": 659.3326740000356,
          "velocity": 1,
          "duration": 0.16666650000001937
        },
        {
          "name": "D#6",
          "midi": 87,
          "time": 659.4160072500356,
          "velocity": 1,
          "duration": 0.08333325000000968
        },
        {
          "name": "D#5",
          "midi": 75,
          "time": 659.4160072500356,
          "velocity": 1,
          "duration": 0.08333325000000968
        },
        {
          "name": "G5",
          "midi": 79,
          "time": 659.4160072500356,
          "velocity": 1,
          "duration": 0.08333325000000968
        },
        {
          "name": "A#4",
          "midi": 70,
          "time": 659.4993405000356,
          "velocity": 1,
          "duration": 0.08333325000000968
        },
        {
          "name": "G5",
          "midi": 79,
          "time": 659.4993405000356,
          "velocity": 1,
          "duration": 0.08333325000000968
        },
        {
          "name": "D#5",
          "midi": 75,
          "time": 659.4993405000356,
          "velocity": 1,
          "duration": 0.08333325000000968
        },
        {
          "name": "D#6",
          "midi": 87,
          "time": 659.4993405000356,
          "velocity": 1,
          "duration": 0.08333325000000968
        },
        {
          "name": "A#3",
          "midi": 58,
          "time": 659.4993405000356,
          "velocity": 1,
          "duration": 0.08333325000000968
        },
        {
          "name": "C4",
          "midi": 60,
          "time": 659.5826737500356,
          "velocity": 1,
          "duration": 0.08333325000000968
        },
        {
          "name": "D#6",
          "midi": 87,
          "time": 659.5826737500356,
          "velocity": 1,
          "duration": 0.08333325000000968
        },
        {
          "name": "D#5",
          "midi": 75,
          "time": 659.5826737500356,
          "velocity": 1,
          "duration": 0.08333325000000968
        },
        {
          "name": "G5",
          "midi": 79,
          "time": 659.5826737500356,
          "velocity": 1,
          "duration": 0.08333325000000968
        },
        {
          "name": "A#4",
          "midi": 70,
          "time": 659.5826737500356,
          "velocity": 1,
          "duration": 0.08333325000000968
        },
        {
          "name": "C5",
          "midi": 72,
          "time": 659.5826737500356,
          "velocity": 1,
          "duration": 0.08333325000000968
        },
        {
          "name": "D5",
          "midi": 74,
          "time": 659.6660070000356,
          "velocity": 1,
          "duration": 0.16666650000001937
        },
        {
          "name": "A#4",
          "midi": 70,
          "time": 659.6660070000356,
          "velocity": 1,
          "duration": 0.08333325000000968
        },
        {
          "name": "G5",
          "midi": 79,
          "time": 659.6660070000356,
          "velocity": 1,
          "duration": 0.08333325000000968
        },
        {
          "name": "D#5",
          "midi": 75,
          "time": 659.6660070000356,
          "velocity": 1,
          "duration": 0.08333325000000968
        },
        {
          "name": "D#6",
          "midi": 87,
          "time": 659.6660070000356,
          "velocity": 1,
          "duration": 0.08333325000000968
        },
        {
          "name": "D4",
          "midi": 62,
          "time": 659.6660070000356,
          "velocity": 1,
          "duration": 0.16666650000001937
        },
        {
          "name": "D#6",
          "midi": 87,
          "time": 659.7493402500356,
          "velocity": 1,
          "duration": 0.08333325000000968
        },
        {
          "name": "D#5",
          "midi": 75,
          "time": 659.7493402500356,
          "velocity": 1,
          "duration": 0.08333325000000968
        },
        {
          "name": "G5",
          "midi": 79,
          "time": 659.7493402500356,
          "velocity": 1,
          "duration": 0.08333325000000968
        },
        {
          "name": "A#4",
          "midi": 70,
          "time": 659.7493402500356,
          "velocity": 1,
          "duration": 0.08333325000000968
        },
        {
          "name": "D#5",
          "midi": 75,
          "time": 659.8326735000356,
          "velocity": 1,
          "duration": 0.08333325000000968
        },
        {
          "name": "A#4",
          "midi": 70,
          "time": 659.8326735000356,
          "velocity": 1,
          "duration": 0.08333325000000968
        },
        {
          "name": "G5",
          "midi": 79,
          "time": 659.8326735000356,
          "velocity": 1,
          "duration": 0.08333325000000968
        },
        {
          "name": "D#6",
          "midi": 87,
          "time": 659.8326735000356,
          "velocity": 1,
          "duration": 0.08333325000000968
        },
        {
          "name": "D#4",
          "midi": 63,
          "time": 659.8326735000356,
          "velocity": 1,
          "duration": 0.08333325000000968
        },
        {
          "name": "F5",
          "midi": 77,
          "time": 659.9160067500356,
          "velocity": 1,
          "duration": 0.08333325000000968
        },
        {
          "name": "A#4",
          "midi": 70,
          "time": 659.9160067500356,
          "velocity": 1,
          "duration": 0.08333325000000968
        },
        {
          "name": "G5",
          "midi": 79,
          "time": 659.9160067500356,
          "velocity": 1,
          "duration": 0.08333325000000968
        },
        {
          "name": "D#5",
          "midi": 75,
          "time": 659.9160067500356,
          "velocity": 1,
          "duration": 0.08333325000000968
        },
        {
          "name": "D#6",
          "midi": 87,
          "time": 659.9160067500356,
          "velocity": 1,
          "duration": 0.08333325000000968
        },
        {
          "name": "F4",
          "midi": 65,
          "time": 659.9160067500356,
          "velocity": 1,
          "duration": 0.08333325000000968
        },
        {
          "name": "G5",
          "midi": 79,
          "time": 659.9993400000357,
          "velocity": 1,
          "duration": 0.16666650000001937
        },
        {
          "name": "A#4",
          "midi": 70,
          "time": 659.9993400000357,
          "velocity": 1,
          "duration": 0.08333325000000968
        },
        {
          "name": "D#5",
          "midi": 75,
          "time": 659.9993400000357,
          "velocity": 1,
          "duration": 0.08333325000000968
        },
        {
          "name": "D#6",
          "midi": 87,
          "time": 659.9993400000357,
          "velocity": 1,
          "duration": 0.08333325000000968
        },
        {
          "name": "G4",
          "midi": 67,
          "time": 659.9993400000357,
          "velocity": 1,
          "duration": 0.16666650000001937
        },
        {
          "name": "D#6",
          "midi": 87,
          "time": 660.0826732500357,
          "velocity": 1,
          "duration": 0.08333325000000968
        },
        {
          "name": "D#5",
          "midi": 75,
          "time": 660.0826732500357,
          "velocity": 1,
          "duration": 0.08333325000000968
        },
        {
          "name": "A#4",
          "midi": 70,
          "time": 660.0826732500357,
          "velocity": 1,
          "duration": 0.08333325000000968
        },
        {
          "name": "F5",
          "midi": 77,
          "time": 660.1660065000357,
          "velocity": 1,
          "duration": 0.16666650000001937
        },
        {
          "name": "A#4",
          "midi": 70,
          "time": 660.1660065000357,
          "velocity": 1,
          "duration": 0.08333325000000968
        },
        {
          "name": "G5",
          "midi": 79,
          "time": 660.1660065000357,
          "velocity": 1,
          "duration": 0.08333325000000968
        },
        {
          "name": "D#5",
          "midi": 75,
          "time": 660.1660065000357,
          "velocity": 1,
          "duration": 0.08333325000000968
        },
        {
          "name": "D#6",
          "midi": 87,
          "time": 660.1660065000357,
          "velocity": 1,
          "duration": 0.08333325000000968
        },
        {
          "name": "F4",
          "midi": 65,
          "time": 660.1660065000357,
          "velocity": 1,
          "duration": 0.16666650000001937
        },
        {
          "name": "D#6",
          "midi": 87,
          "time": 660.2493397500357,
          "velocity": 1,
          "duration": 0.08333325000000968
        },
        {
          "name": "D#5",
          "midi": 75,
          "time": 660.2493397500357,
          "velocity": 1,
          "duration": 0.08333325000000968
        },
        {
          "name": "G5",
          "midi": 79,
          "time": 660.2493397500357,
          "velocity": 1,
          "duration": 0.08333325000000968
        },
        {
          "name": "A#4",
          "midi": 70,
          "time": 660.2493397500357,
          "velocity": 1,
          "duration": 0.08333325000000968
        },
        {
          "name": "D#5",
          "midi": 75,
          "time": 660.3326730000357,
          "velocity": 1,
          "duration": 0.16666650000001937
        },
        {
          "name": "A#4",
          "midi": 70,
          "time": 660.3326730000357,
          "velocity": 1,
          "duration": 0.08333325000000968
        },
        {
          "name": "G5",
          "midi": 79,
          "time": 660.3326730000357,
          "velocity": 1,
          "duration": 0.08333325000000968
        },
        {
          "name": "D#6",
          "midi": 87,
          "time": 660.3326730000357,
          "velocity": 1,
          "duration": 0.08333325000000968
        },
        {
          "name": "D#4",
          "midi": 63,
          "time": 660.3326730000357,
          "velocity": 1,
          "duration": 0.16666650000001937
        },
        {
          "name": "A#4",
          "midi": 70,
          "time": 660.4160062500357,
          "velocity": 1,
          "duration": 0.08333325000000968
        },
        {
          "name": "G5",
          "midi": 79,
          "time": 660.4160062500357,
          "velocity": 1,
          "duration": 0.08333325000000968
        },
        {
          "name": "D#6",
          "midi": 87,
          "time": 660.4160062500357,
          "velocity": 1,
          "duration": 0.08333325000000968
        },
        {
          "name": "D4",
          "midi": 62,
          "time": 660.4993395000357,
          "velocity": 1,
          "duration": 0.16666650000001937
        },
        {
          "name": "D#6",
          "midi": 87,
          "time": 660.4993395000357,
          "velocity": 1,
          "duration": 0.08333325000000968
        },
        {
          "name": "D#5",
          "midi": 75,
          "time": 660.4993395000357,
          "velocity": 1,
          "duration": 0.08333325000000968
        },
        {
          "name": "G5",
          "midi": 79,
          "time": 660.4993395000357,
          "velocity": 1,
          "duration": 0.08333325000000968
        },
        {
          "name": "A#4",
          "midi": 70,
          "time": 660.4993395000357,
          "velocity": 1,
          "duration": 0.08333325000000968
        },
        {
          "name": "D5",
          "midi": 74,
          "time": 660.4993395000357,
          "velocity": 1,
          "duration": 0.16666650000001937
        },
        {
          "name": "D#6",
          "midi": 87,
          "time": 660.5826727500357,
          "velocity": 1,
          "duration": 0.08333325000000968
        },
        {
          "name": "D#5",
          "midi": 75,
          "time": 660.5826727500357,
          "velocity": 1,
          "duration": 0.08333325000000968
        },
        {
          "name": "G5",
          "midi": 79,
          "time": 660.5826727500357,
          "velocity": 1,
          "duration": 0.08333325000000968
        },
        {
          "name": "A#4",
          "midi": 70,
          "time": 660.5826727500357,
          "velocity": 1,
          "duration": 0.08333325000000968
        },
        {
          "name": "C5",
          "midi": 72,
          "time": 660.6660060000357,
          "velocity": 1,
          "duration": 0.16666650000001937
        },
        {
          "name": "A#4",
          "midi": 70,
          "time": 660.6660060000357,
          "velocity": 1,
          "duration": 0.08333325000000968
        },
        {
          "name": "G5",
          "midi": 79,
          "time": 660.6660060000357,
          "velocity": 1,
          "duration": 0.08333325000000968
        },
        {
          "name": "D#5",
          "midi": 75,
          "time": 660.6660060000357,
          "velocity": 1,
          "duration": 0.08333325000000968
        },
        {
          "name": "D#6",
          "midi": 87,
          "time": 660.6660060000357,
          "velocity": 1,
          "duration": 0.08333325000000968
        },
        {
          "name": "C4",
          "midi": 60,
          "time": 660.6660060000357,
          "velocity": 1,
          "duration": 0.16666650000001937
        },
        {
          "name": "D#6",
          "midi": 87,
          "time": 660.7493392500357,
          "velocity": 1,
          "duration": 0.08333325000000968
        },
        {
          "name": "D#5",
          "midi": 75,
          "time": 660.7493392500357,
          "velocity": 1,
          "duration": 0.08333325000000968
        },
        {
          "name": "G5",
          "midi": 79,
          "time": 660.7493392500357,
          "velocity": 1,
          "duration": 0.08333325000000968
        },
        {
          "name": "A#4",
          "midi": 70,
          "time": 660.7493392500357,
          "velocity": 1,
          "duration": 0.08333325000000968
        },
        {
          "name": "A#4",
          "midi": 70,
          "time": 660.8326725000358,
          "velocity": 1,
          "duration": 0.16666650000001937
        },
        {
          "name": "G5",
          "midi": 79,
          "time": 660.8326725000358,
          "velocity": 1,
          "duration": 0.08333325000000968
        },
        {
          "name": "D#5",
          "midi": 75,
          "time": 660.8326725000358,
          "velocity": 1,
          "duration": 0.08333325000000968
        },
        {
          "name": "D#6",
          "midi": 87,
          "time": 660.8326725000358,
          "velocity": 1,
          "duration": 0.08333325000000968
        },
        {
          "name": "A#3",
          "midi": 58,
          "time": 660.8326725000358,
          "velocity": 1,
          "duration": 0.16666650000001937
        },
        {
          "name": "G5",
          "midi": 79,
          "time": 660.9160057500358,
          "velocity": 1,
          "duration": 0.08333325000000968
        },
        {
          "name": "D#5",
          "midi": 75,
          "time": 660.9160057500358,
          "velocity": 1,
          "duration": 0.08333325000000968
        },
        {
          "name": "D#6",
          "midi": 87,
          "time": 660.9160057500358,
          "velocity": 1,
          "duration": 0.08333325000000968
        },
        {
          "name": "G#3",
          "midi": 56,
          "time": 660.9993390000358,
          "velocity": 1,
          "duration": 0.16666650000001937
        },
        {
          "name": "D#6",
          "midi": 87,
          "time": 660.9993390000358,
          "velocity": 1,
          "duration": 0.08333325000000968
        },
        {
          "name": "D#5",
          "midi": 75,
          "time": 660.9993390000358,
          "velocity": 1,
          "duration": 0.08333325000000968
        },
        {
          "name": "G5",
          "midi": 79,
          "time": 660.9993390000358,
          "velocity": 1,
          "duration": 0.08333325000000968
        },
        {
          "name": "A#4",
          "midi": 70,
          "time": 660.9993390000358,
          "velocity": 1,
          "duration": 0.08333325000000968
        },
        {
          "name": "G#4",
          "midi": 68,
          "time": 660.9993390000358,
          "velocity": 1,
          "duration": 0.16666650000001937
        },
        {
          "name": "D#6",
          "midi": 87,
          "time": 661.0826722500358,
          "velocity": 1,
          "duration": 0.08333325000000968
        },
        {
          "name": "D#5",
          "midi": 75,
          "time": 661.0826722500358,
          "velocity": 1,
          "duration": 0.08333325000000968
        },
        {
          "name": "G5",
          "midi": 79,
          "time": 661.0826722500358,
          "velocity": 1,
          "duration": 0.08333325000000968
        },
        {
          "name": "A#4",
          "midi": 70,
          "time": 661.0826722500358,
          "velocity": 1,
          "duration": 0.08333325000000968
        },
        {
          "name": "G4",
          "midi": 67,
          "time": 661.1660055000358,
          "velocity": 1,
          "duration": 0.16666650000001937
        },
        {
          "name": "A#4",
          "midi": 70,
          "time": 661.1660055000358,
          "velocity": 1,
          "duration": 0.08333325000000968
        },
        {
          "name": "G5",
          "midi": 79,
          "time": 661.1660055000358,
          "velocity": 1,
          "duration": 0.08333325000000968
        },
        {
          "name": "D#5",
          "midi": 75,
          "time": 661.1660055000358,
          "velocity": 1,
          "duration": 0.08333325000000968
        },
        {
          "name": "D#6",
          "midi": 87,
          "time": 661.1660055000358,
          "velocity": 1,
          "duration": 0.08333325000000968
        },
        {
          "name": "G3",
          "midi": 55,
          "time": 661.1660055000358,
          "velocity": 1,
          "duration": 0.16666650000001937
        },
        {
          "name": "D#6",
          "midi": 87,
          "time": 661.2493387500358,
          "velocity": 1,
          "duration": 0.08333325000000968
        },
        {
          "name": "D#5",
          "midi": 75,
          "time": 661.2493387500358,
          "velocity": 1,
          "duration": 0.08333325000000968
        },
        {
          "name": "G5",
          "midi": 79,
          "time": 661.2493387500358,
          "velocity": 1,
          "duration": 0.08333325000000968
        },
        {
          "name": "A#4",
          "midi": 70,
          "time": 661.2493387500358,
          "velocity": 1,
          "duration": 0.08333325000000968
        },
        {
          "name": "F4",
          "midi": 65,
          "time": 661.3326720000358,
          "velocity": 1,
          "duration": 0.16666650000001937
        },
        {
          "name": "A#4",
          "midi": 70,
          "time": 661.3326720000358,
          "velocity": 1,
          "duration": 0.08333325000000968
        },
        {
          "name": "G5",
          "midi": 79,
          "time": 661.3326720000358,
          "velocity": 1,
          "duration": 0.08333325000000968
        },
        {
          "name": "D#5",
          "midi": 75,
          "time": 661.3326720000358,
          "velocity": 1,
          "duration": 0.08333325000000968
        },
        {
          "name": "D#6",
          "midi": 87,
          "time": 661.3326720000358,
          "velocity": 1,
          "duration": 0.08333325000000968
        },
        {
          "name": "F3",
          "midi": 53,
          "time": 661.3326720000358,
          "velocity": 1,
          "duration": 0.16666650000001937
        },
        {
          "name": "A#4",
          "midi": 70,
          "time": 661.4160052500358,
          "velocity": 1,
          "duration": 0.08333325000000968
        },
        {
          "name": "G5",
          "midi": 79,
          "time": 661.4160052500358,
          "velocity": 1,
          "duration": 0.08333325000000968
        },
        {
          "name": "D#5",
          "midi": 75,
          "time": 661.4160052500358,
          "velocity": 1,
          "duration": 0.08333325000000968
        },
        {
          "name": "D#6",
          "midi": 87,
          "time": 661.4160052500358,
          "velocity": 1,
          "duration": 0.08333325000000968
        },
        {
          "name": "D#3",
          "midi": 51,
          "time": 661.4993385000358,
          "velocity": 1,
          "duration": 0.16666650000001937
        },
        {
          "name": "D#6",
          "midi": 87,
          "time": 661.4993385000358,
          "velocity": 1,
          "duration": 0.08333325000000968
        },
        {
          "name": "D#5",
          "midi": 75,
          "time": 661.4993385000358,
          "velocity": 1,
          "duration": 0.08333325000000968
        },
        {
          "name": "G5",
          "midi": 79,
          "time": 661.4993385000358,
          "velocity": 1,
          "duration": 0.08333325000000968
        },
        {
          "name": "A#4",
          "midi": 70,
          "time": 661.4993385000358,
          "velocity": 1,
          "duration": 0.08333325000000968
        },
        {
          "name": "D#4",
          "midi": 63,
          "time": 661.4993385000358,
          "velocity": 1,
          "duration": 0.16666650000001937
        },
        {
          "name": "D#6",
          "midi": 87,
          "time": 661.5826717500358,
          "velocity": 1,
          "duration": 0.08333325000000968
        },
        {
          "name": "D#5",
          "midi": 75,
          "time": 661.5826717500358,
          "velocity": 1,
          "duration": 0.08333325000000968
        },
        {
          "name": "G5",
          "midi": 79,
          "time": 661.5826717500358,
          "velocity": 1,
          "duration": 0.08333325000000968
        },
        {
          "name": "A#4",
          "midi": 70,
          "time": 661.5826717500358,
          "velocity": 1,
          "duration": 0.08333325000000968
        },
        {
          "name": "D4",
          "midi": 62,
          "time": 661.6660050000359,
          "velocity": 1,
          "duration": 0.16666650000001937
        },
        {
          "name": "A#4",
          "midi": 70,
          "time": 661.6660050000359,
          "velocity": 1,
          "duration": 0.08333325000000968
        },
        {
          "name": "G5",
          "midi": 79,
          "time": 661.6660050000359,
          "velocity": 1,
          "duration": 0.08333325000000968
        },
        {
          "name": "D#5",
          "midi": 75,
          "time": 661.6660050000359,
          "velocity": 1,
          "duration": 0.08333325000000968
        },
        {
          "name": "D#6",
          "midi": 87,
          "time": 661.6660050000359,
          "velocity": 1,
          "duration": 0.08333325000000968
        },
        {
          "name": "D3",
          "midi": 50,
          "time": 661.6660050000359,
          "velocity": 1,
          "duration": 0.16666650000001937
        },
        {
          "name": "D#6",
          "midi": 87,
          "time": 661.7493382500359,
          "velocity": 1,
          "duration": 0.08333325000000968
        },
        {
          "name": "D#5",
          "midi": 75,
          "time": 661.7493382500359,
          "velocity": 1,
          "duration": 0.08333325000000968
        },
        {
          "name": "G5",
          "midi": 79,
          "time": 661.7493382500359,
          "velocity": 1,
          "duration": 0.08333325000000968
        },
        {
          "name": "A#4",
          "midi": 70,
          "time": 661.7493382500359,
          "velocity": 1,
          "duration": 0.08333325000000968
        },
        {
          "name": "C4",
          "midi": 60,
          "time": 661.8326715000359,
          "velocity": 1,
          "duration": 0.16666650000001937
        },
        {
          "name": "A#4",
          "midi": 70,
          "time": 661.8326715000359,
          "velocity": 1,
          "duration": 0.08333325000000968
        },
        {
          "name": "G5",
          "midi": 79,
          "time": 661.8326715000359,
          "velocity": 1,
          "duration": 0.08333325000000968
        },
        {
          "name": "D#5",
          "midi": 75,
          "time": 661.8326715000359,
          "velocity": 1,
          "duration": 0.08333325000000968
        },
        {
          "name": "D#6",
          "midi": 87,
          "time": 661.8326715000359,
          "velocity": 1,
          "duration": 0.08333325000000968
        },
        {
          "name": "C3",
          "midi": 48,
          "time": 661.8326715000359,
          "velocity": 1,
          "duration": 0.16666650000001937
        },
        {
          "name": "A#4",
          "midi": 70,
          "time": 661.9160047500359,
          "velocity": 1,
          "duration": 0.08333325000000968
        },
        {
          "name": "G5",
          "midi": 79,
          "time": 661.9160047500359,
          "velocity": 1,
          "duration": 0.08333325000000968
        },
        {
          "name": "D#5",
          "midi": 75,
          "time": 661.9160047500359,
          "velocity": 1,
          "duration": 0.08333325000000968
        },
        {
          "name": "D#6",
          "midi": 87,
          "time": 661.9160047500359,
          "velocity": 1,
          "duration": 0.08333325000000968
        },
        {
          "name": "A#2",
          "midi": 46,
          "time": 661.9993380000359,
          "velocity": 1,
          "duration": 0.16666650000001937
        },
        {
          "name": "D6",
          "midi": 86,
          "time": 661.9993380000359,
          "velocity": 1,
          "duration": 0.08333325000000968
        },
        {
          "name": "D5",
          "midi": 74,
          "time": 661.9993380000359,
          "velocity": 1,
          "duration": 0.08333325000000968
        },
        {
          "name": "G#5",
          "midi": 80,
          "time": 661.9993380000359,
          "velocity": 1,
          "duration": 0.08333325000000968
        },
        {
          "name": "A#4",
          "midi": 70,
          "time": 661.9993380000359,
          "velocity": 1,
          "duration": 0.08333325000000968
        },
        {
          "name": "A#3",
          "midi": 58,
          "time": 661.9993380000359,
          "velocity": 1,
          "duration": 0.16666650000001937
        },
        {
          "name": "D6",
          "midi": 86,
          "time": 662.0826712500359,
          "velocity": 1,
          "duration": 0.08333325000000968
        },
        {
          "name": "D5",
          "midi": 74,
          "time": 662.0826712500359,
          "velocity": 1,
          "duration": 0.08333325000000968
        },
        {
          "name": "G#5",
          "midi": 80,
          "time": 662.0826712500359,
          "velocity": 1,
          "duration": 0.08333325000000968
        },
        {
          "name": "A#4",
          "midi": 70,
          "time": 662.0826712500359,
          "velocity": 1,
          "duration": 0.08333325000000968
        },
        {
          "name": "A#3",
          "midi": 58,
          "time": 662.1660045000359,
          "velocity": 1,
          "duration": 0.08333325000000968
        },
        {
          "name": "A#4",
          "midi": 70,
          "time": 662.1660045000359,
          "velocity": 1,
          "duration": 0.08333325000000968
        },
        {
          "name": "G#5",
          "midi": 80,
          "time": 662.1660045000359,
          "velocity": 1,
          "duration": 0.08333325000000968
        },
        {
          "name": "D5",
          "midi": 74,
          "time": 662.1660045000359,
          "velocity": 1,
          "duration": 0.08333325000000968
        },
        {
          "name": "D6",
          "midi": 86,
          "time": 662.1660045000359,
          "velocity": 1,
          "duration": 0.08333325000000968
        },
        {
          "name": "A#2",
          "midi": 46,
          "time": 662.1660045000359,
          "velocity": 1,
          "duration": 0.08333325000000968
        },
        {
          "name": "C3",
          "midi": 48,
          "time": 662.2493377500359,
          "velocity": 1,
          "duration": 0.08333325000000968
        },
        {
          "name": "D6",
          "midi": 86,
          "time": 662.2493377500359,
          "velocity": 1,
          "duration": 0.08333325000000968
        },
        {
          "name": "D5",
          "midi": 74,
          "time": 662.2493377500359,
          "velocity": 1,
          "duration": 0.08333325000000968
        },
        {
          "name": "G#5",
          "midi": 80,
          "time": 662.2493377500359,
          "velocity": 1,
          "duration": 0.08333325000000968
        },
        {
          "name": "A#4",
          "midi": 70,
          "time": 662.2493377500359,
          "velocity": 1,
          "duration": 0.08333325000000968
        },
        {
          "name": "C4",
          "midi": 60,
          "time": 662.2493377500359,
          "velocity": 1,
          "duration": 0.08333325000000968
        },
        {
          "name": "D4",
          "midi": 62,
          "time": 662.3326710000359,
          "velocity": 1,
          "duration": 0.16666650000001937
        },
        {
          "name": "A#4",
          "midi": 70,
          "time": 662.3326710000359,
          "velocity": 1,
          "duration": 0.08333325000000968
        },
        {
          "name": "G#5",
          "midi": 80,
          "time": 662.3326710000359,
          "velocity": 1,
          "duration": 0.08333325000000968
        },
        {
          "name": "D5",
          "midi": 74,
          "time": 662.3326710000359,
          "velocity": 1,
          "duration": 0.08333325000000968
        },
        {
          "name": "D6",
          "midi": 86,
          "time": 662.3326710000359,
          "velocity": 1,
          "duration": 0.08333325000000968
        },
        {
          "name": "D3",
          "midi": 50,
          "time": 662.3326710000359,
          "velocity": 1,
          "duration": 0.16666650000001937
        },
        {
          "name": "D6",
          "midi": 86,
          "time": 662.4160042500359,
          "velocity": 1,
          "duration": 0.08333325000000968
        },
        {
          "name": "D5",
          "midi": 74,
          "time": 662.4160042500359,
          "velocity": 1,
          "duration": 0.08333325000000968
        },
        {
          "name": "G#5",
          "midi": 80,
          "time": 662.4160042500359,
          "velocity": 1,
          "duration": 0.08333325000000968
        },
        {
          "name": "A#4",
          "midi": 70,
          "time": 662.4160042500359,
          "velocity": 1,
          "duration": 0.08333325000000968
        },
        {
          "name": "D4",
          "midi": 62,
          "time": 662.499337500036,
          "velocity": 1,
          "duration": 0.08333325000000968
        },
        {
          "name": "A#4",
          "midi": 70,
          "time": 662.499337500036,
          "velocity": 1,
          "duration": 0.08333325000000968
        },
        {
          "name": "G#5",
          "midi": 80,
          "time": 662.499337500036,
          "velocity": 1,
          "duration": 0.08333325000000968
        },
        {
          "name": "D5",
          "midi": 74,
          "time": 662.499337500036,
          "velocity": 1,
          "duration": 0.08333325000000968
        },
        {
          "name": "D6",
          "midi": 86,
          "time": 662.499337500036,
          "velocity": 1,
          "duration": 0.08333325000000968
        },
        {
          "name": "D3",
          "midi": 50,
          "time": 662.499337500036,
          "velocity": 1,
          "duration": 0.08333325000000968
        },
        {
          "name": "D#4",
          "midi": 63,
          "time": 662.582670750036,
          "velocity": 1,
          "duration": 0.08333325000000968
        },
        {
          "name": "A#4",
          "midi": 70,
          "time": 662.582670750036,
          "velocity": 1,
          "duration": 0.08333325000000968
        },
        {
          "name": "G#5",
          "midi": 80,
          "time": 662.582670750036,
          "velocity": 1,
          "duration": 0.08333325000000968
        },
        {
          "name": "D5",
          "midi": 74,
          "time": 662.582670750036,
          "velocity": 1,
          "duration": 0.08333325000000968
        },
        {
          "name": "D6",
          "midi": 86,
          "time": 662.582670750036,
          "velocity": 1,
          "duration": 0.08333325000000968
        },
        {
          "name": "D#3",
          "midi": 51,
          "time": 662.582670750036,
          "velocity": 1,
          "duration": 0.08333325000000968
        },
        {
          "name": "F4",
          "midi": 65,
          "time": 662.666004000036,
          "velocity": 1,
          "duration": 0.16666650000001937
        },
        {
          "name": "A#4",
          "midi": 70,
          "time": 662.666004000036,
          "velocity": 1,
          "duration": 0.08333325000000968
        },
        {
          "name": "G#5",
          "midi": 80,
          "time": 662.666004000036,
          "velocity": 1,
          "duration": 0.08333325000000968
        },
        {
          "name": "D5",
          "midi": 74,
          "time": 662.666004000036,
          "velocity": 1,
          "duration": 0.08333325000000968
        },
        {
          "name": "D6",
          "midi": 86,
          "time": 662.666004000036,
          "velocity": 1,
          "duration": 0.08333325000000968
        },
        {
          "name": "F3",
          "midi": 53,
          "time": 662.666004000036,
          "velocity": 1,
          "duration": 0.16666650000001937
        },
        {
          "name": "D6",
          "midi": 86,
          "time": 662.749337250036,
          "velocity": 1,
          "duration": 0.08333325000000968
        },
        {
          "name": "D5",
          "midi": 74,
          "time": 662.749337250036,
          "velocity": 1,
          "duration": 0.08333325000000968
        },
        {
          "name": "G#5",
          "midi": 80,
          "time": 662.749337250036,
          "velocity": 1,
          "duration": 0.08333325000000968
        },
        {
          "name": "A#4",
          "midi": 70,
          "time": 662.749337250036,
          "velocity": 1,
          "duration": 0.08333325000000968
        },
        {
          "name": "F4",
          "midi": 65,
          "time": 662.832670500036,
          "velocity": 1,
          "duration": 0.08333325000000968
        },
        {
          "name": "A#4",
          "midi": 70,
          "time": 662.832670500036,
          "velocity": 1,
          "duration": 0.08333325000000968
        },
        {
          "name": "G#5",
          "midi": 80,
          "time": 662.832670500036,
          "velocity": 1,
          "duration": 0.08333325000000968
        },
        {
          "name": "D5",
          "midi": 74,
          "time": 662.832670500036,
          "velocity": 1,
          "duration": 0.08333325000000968
        },
        {
          "name": "D6",
          "midi": 86,
          "time": 662.832670500036,
          "velocity": 1,
          "duration": 0.08333325000000968
        },
        {
          "name": "F3",
          "midi": 53,
          "time": 662.832670500036,
          "velocity": 1,
          "duration": 0.08333325000000968
        },
        {
          "name": "G3",
          "midi": 55,
          "time": 662.916003750036,
          "velocity": 1,
          "duration": 0.08333325000000968
        },
        {
          "name": "D6",
          "midi": 86,
          "time": 662.916003750036,
          "velocity": 1,
          "duration": 0.08333325000000968
        },
        {
          "name": "D5",
          "midi": 74,
          "time": 662.916003750036,
          "velocity": 1,
          "duration": 0.08333325000000968
        },
        {
          "name": "G#5",
          "midi": 80,
          "time": 662.916003750036,
          "velocity": 1,
          "duration": 0.08333325000000968
        },
        {
          "name": "A#4",
          "midi": 70,
          "time": 662.916003750036,
          "velocity": 1,
          "duration": 0.08333325000000968
        },
        {
          "name": "G4",
          "midi": 67,
          "time": 662.916003750036,
          "velocity": 1,
          "duration": 0.08333325000000968
        },
        {
          "name": "G#4",
          "midi": 68,
          "time": 662.999337000036,
          "velocity": 1,
          "duration": 0.16666650000001937
        },
        {
          "name": "A#4",
          "midi": 70,
          "time": 662.999337000036,
          "velocity": 1,
          "duration": 0.08333325000000968
        },
        {
          "name": "G#5",
          "midi": 80,
          "time": 662.999337000036,
          "velocity": 1,
          "duration": 0.08333325000000968
        },
        {
          "name": "D5",
          "midi": 74,
          "time": 662.999337000036,
          "velocity": 1,
          "duration": 0.08333325000000968
        },
        {
          "name": "D6",
          "midi": 86,
          "time": 662.999337000036,
          "velocity": 1,
          "duration": 0.08333325000000968
        },
        {
          "name": "G#3",
          "midi": 56,
          "time": 662.999337000036,
          "velocity": 1,
          "duration": 0.16666650000001937
        },
        {
          "name": "D6",
          "midi": 86,
          "time": 663.082670250036,
          "velocity": 1,
          "duration": 0.08333325000000968
        },
        {
          "name": "D5",
          "midi": 74,
          "time": 663.082670250036,
          "velocity": 1,
          "duration": 0.08333325000000968
        },
        {
          "name": "G#5",
          "midi": 80,
          "time": 663.082670250036,
          "velocity": 1,
          "duration": 0.08333325000000968
        },
        {
          "name": "A#4",
          "midi": 70,
          "time": 663.082670250036,
          "velocity": 1,
          "duration": 0.08333325000000968
        },
        {
          "name": "D4",
          "midi": 62,
          "time": 663.166003500036,
          "velocity": 1,
          "duration": 0.08333325000000968
        },
        {
          "name": "A#4",
          "midi": 70,
          "time": 663.166003500036,
          "velocity": 1,
          "duration": 0.08333325000000968
        },
        {
          "name": "G#5",
          "midi": 80,
          "time": 663.166003500036,
          "velocity": 1,
          "duration": 0.08333325000000968
        },
        {
          "name": "D5",
          "midi": 74,
          "time": 663.166003500036,
          "velocity": 1,
          "duration": 0.08333325000000968
        },
        {
          "name": "D6",
          "midi": 86,
          "time": 663.166003500036,
          "velocity": 1,
          "duration": 0.08333325000000968
        },
        {
          "name": "D3",
          "midi": 50,
          "time": 663.166003500036,
          "velocity": 1,
          "duration": 0.08333325000000968
        },
        {
          "name": "D#4",
          "midi": 63,
          "time": 663.249336750036,
          "velocity": 1,
          "duration": 0.08333325000000968
        },
        {
          "name": "A#4",
          "midi": 70,
          "time": 663.249336750036,
          "velocity": 1,
          "duration": 0.08333325000000968
        },
        {
          "name": "G#5",
          "midi": 80,
          "time": 663.249336750036,
          "velocity": 1,
          "duration": 0.08333325000000968
        },
        {
          "name": "D5",
          "midi": 74,
          "time": 663.249336750036,
          "velocity": 1,
          "duration": 0.08333325000000968
        },
        {
          "name": "D6",
          "midi": 86,
          "time": 663.249336750036,
          "velocity": 1,
          "duration": 0.08333325000000968
        },
        {
          "name": "D#3",
          "midi": 51,
          "time": 663.249336750036,
          "velocity": 1,
          "duration": 0.08333325000000968
        },
        {
          "name": "F4",
          "midi": 65,
          "time": 663.332670000036,
          "velocity": 1,
          "duration": 0.16666650000001937
        },
        {
          "name": "A#4",
          "midi": 70,
          "time": 663.332670000036,
          "velocity": 1,
          "duration": 0.08333325000000968
        },
        {
          "name": "G#5",
          "midi": 80,
          "time": 663.332670000036,
          "velocity": 1,
          "duration": 0.08333325000000968
        },
        {
          "name": "D5",
          "midi": 74,
          "time": 663.332670000036,
          "velocity": 1,
          "duration": 0.08333325000000968
        },
        {
          "name": "D6",
          "midi": 86,
          "time": 663.332670000036,
          "velocity": 1,
          "duration": 0.08333325000000968
        },
        {
          "name": "F3",
          "midi": 53,
          "time": 663.332670000036,
          "velocity": 1,
          "duration": 0.16666650000001937
        },
        {
          "name": "D6",
          "midi": 86,
          "time": 663.416003250036,
          "velocity": 1,
          "duration": 0.08333325000000968
        },
        {
          "name": "D5",
          "midi": 74,
          "time": 663.416003250036,
          "velocity": 1,
          "duration": 0.08333325000000968
        },
        {
          "name": "G#5",
          "midi": 80,
          "time": 663.416003250036,
          "velocity": 1,
          "duration": 0.08333325000000968
        },
        {
          "name": "A#4",
          "midi": 70,
          "time": 663.416003250036,
          "velocity": 1,
          "duration": 0.08333325000000968
        },
        {
          "name": "F4",
          "midi": 65,
          "time": 663.4993365000361,
          "velocity": 1,
          "duration": 0.08333325000000968
        },
        {
          "name": "A#4",
          "midi": 70,
          "time": 663.4993365000361,
          "velocity": 1,
          "duration": 0.08333325000000968
        },
        {
          "name": "G#5",
          "midi": 80,
          "time": 663.4993365000361,
          "velocity": 1,
          "duration": 0.08333325000000968
        },
        {
          "name": "D5",
          "midi": 74,
          "time": 663.4993365000361,
          "velocity": 1,
          "duration": 0.08333325000000968
        },
        {
          "name": "D6",
          "midi": 86,
          "time": 663.4993365000361,
          "velocity": 1,
          "duration": 0.08333325000000968
        },
        {
          "name": "F3",
          "midi": 53,
          "time": 663.4993365000361,
          "velocity": 1,
          "duration": 0.08333325000000968
        },
        {
          "name": "G3",
          "midi": 55,
          "time": 663.5826697500361,
          "velocity": 1,
          "duration": 0.08333325000000968
        },
        {
          "name": "D6",
          "midi": 86,
          "time": 663.5826697500361,
          "velocity": 1,
          "duration": 0.08333325000000968
        },
        {
          "name": "D5",
          "midi": 74,
          "time": 663.5826697500361,
          "velocity": 1,
          "duration": 0.08333325000000968
        },
        {
          "name": "G#5",
          "midi": 80,
          "time": 663.5826697500361,
          "velocity": 1,
          "duration": 0.08333325000000968
        },
        {
          "name": "A#4",
          "midi": 70,
          "time": 663.5826697500361,
          "velocity": 1,
          "duration": 0.08333325000000968
        },
        {
          "name": "G4",
          "midi": 67,
          "time": 663.5826697500361,
          "velocity": 1,
          "duration": 0.08333325000000968
        },
        {
          "name": "G#4",
          "midi": 68,
          "time": 663.6660030000361,
          "velocity": 1,
          "duration": 0.16666650000001937
        },
        {
          "name": "A#4",
          "midi": 70,
          "time": 663.6660030000361,
          "velocity": 1,
          "duration": 0.08333325000000968
        },
        {
          "name": "G#5",
          "midi": 80,
          "time": 663.6660030000361,
          "velocity": 1,
          "duration": 0.08333325000000968
        },
        {
          "name": "D5",
          "midi": 74,
          "time": 663.6660030000361,
          "velocity": 1,
          "duration": 0.08333325000000968
        },
        {
          "name": "D6",
          "midi": 86,
          "time": 663.6660030000361,
          "velocity": 1,
          "duration": 0.08333325000000968
        },
        {
          "name": "G#3",
          "midi": 56,
          "time": 663.6660030000361,
          "velocity": 1,
          "duration": 0.16666650000001937
        },
        {
          "name": "D6",
          "midi": 86,
          "time": 663.7493362500361,
          "velocity": 1,
          "duration": 0.08333325000000968
        },
        {
          "name": "D5",
          "midi": 74,
          "time": 663.7493362500361,
          "velocity": 1,
          "duration": 0.08333325000000968
        },
        {
          "name": "G#5",
          "midi": 80,
          "time": 663.7493362500361,
          "velocity": 1,
          "duration": 0.08333325000000968
        },
        {
          "name": "A#4",
          "midi": 70,
          "time": 663.7493362500361,
          "velocity": 1,
          "duration": 0.08333325000000968
        },
        {
          "name": "G#4",
          "midi": 68,
          "time": 663.8326695000361,
          "velocity": 1,
          "duration": 0.08333325000000968
        },
        {
          "name": "A#4",
          "midi": 70,
          "time": 663.8326695000361,
          "velocity": 1,
          "duration": 0.08333325000000968
        },
        {
          "name": "G#5",
          "midi": 80,
          "time": 663.8326695000361,
          "velocity": 1,
          "duration": 0.08333325000000968
        },
        {
          "name": "D5",
          "midi": 74,
          "time": 663.8326695000361,
          "velocity": 1,
          "duration": 0.08333325000000968
        },
        {
          "name": "D6",
          "midi": 86,
          "time": 663.8326695000361,
          "velocity": 1,
          "duration": 0.08333325000000968
        },
        {
          "name": "G#3",
          "midi": 56,
          "time": 663.8326695000361,
          "velocity": 1,
          "duration": 0.08333325000000968
        },
        {
          "name": "A#4",
          "midi": 70,
          "time": 663.9160027500361,
          "velocity": 1,
          "duration": 0.08333325000000968
        },
        {
          "name": "G#5",
          "midi": 80,
          "time": 663.9160027500361,
          "velocity": 1,
          "duration": 0.08333325000000968
        },
        {
          "name": "D5",
          "midi": 74,
          "time": 663.9160027500361,
          "velocity": 1,
          "duration": 0.08333325000000968
        },
        {
          "name": "D6",
          "midi": 86,
          "time": 663.9160027500361,
          "velocity": 1,
          "duration": 0.08333325000000968
        },
        {
          "name": "A#3",
          "midi": 58,
          "time": 663.9160027500361,
          "velocity": 1,
          "duration": 0.08333325000000968
        },
        {
          "name": "C4",
          "midi": 60,
          "time": 663.9993360000361,
          "velocity": 1,
          "duration": 0.16666650000001937
        },
        {
          "name": "D6",
          "midi": 86,
          "time": 663.9993360000361,
          "velocity": 1,
          "duration": 0.08333325000000968
        },
        {
          "name": "D5",
          "midi": 74,
          "time": 663.9993360000361,
          "velocity": 1,
          "duration": 0.08333325000000968
        },
        {
          "name": "G#5",
          "midi": 80,
          "time": 663.9993360000361,
          "velocity": 1,
          "duration": 0.08333325000000968
        },
        {
          "name": "A#4",
          "midi": 70,
          "time": 663.9993360000361,
          "velocity": 1,
          "duration": 0.08333325000000968
        },
        {
          "name": "C5",
          "midi": 72,
          "time": 663.9993360000361,
          "velocity": 1,
          "duration": 0.16666650000001937
        },
        {
          "name": "A#4",
          "midi": 70,
          "time": 664.0826692500361,
          "velocity": 1,
          "duration": 0.08333325000000968
        },
        {
          "name": "G#5",
          "midi": 80,
          "time": 664.0826692500361,
          "velocity": 1,
          "duration": 0.08333325000000968
        },
        {
          "name": "D5",
          "midi": 74,
          "time": 664.0826692500361,
          "velocity": 1,
          "duration": 0.08333325000000968
        },
        {
          "name": "D6",
          "midi": 86,
          "time": 664.0826692500361,
          "velocity": 1,
          "duration": 0.08333325000000968
        },
        {
          "name": "A#3",
          "midi": 58,
          "time": 664.1660025000361,
          "velocity": 1,
          "duration": 0.16666650000001937
        },
        {
          "name": "D6",
          "midi": 86,
          "time": 664.1660025000361,
          "velocity": 1,
          "duration": 0.08333325000000968
        },
        {
          "name": "D5",
          "midi": 74,
          "time": 664.1660025000361,
          "velocity": 1,
          "duration": 0.08333325000000968
        },
        {
          "name": "G#5",
          "midi": 80,
          "time": 664.1660025000361,
          "velocity": 1,
          "duration": 0.08333325000000968
        },
        {
          "name": "A#4",
          "midi": 70,
          "time": 664.1660025000361,
          "velocity": 1,
          "duration": 0.16666650000001937
        },
        {
          "name": "D6",
          "midi": 86,
          "time": 664.2493357500362,
          "velocity": 1,
          "duration": 0.08333325000000968
        },
        {
          "name": "D5",
          "midi": 74,
          "time": 664.2493357500362,
          "velocity": 1,
          "duration": 0.08333325000000968
        },
        {
          "name": "G#5",
          "midi": 80,
          "time": 664.2493357500362,
          "velocity": 1,
          "duration": 0.08333325000000968
        },
        {
          "name": "G#4",
          "midi": 68,
          "time": 664.3326690000362,
          "velocity": 1,
          "duration": 0.16666650000001937
        },
        {
          "name": "A#4",
          "midi": 70,
          "time": 664.3326690000362,
          "velocity": 1,
          "duration": 0.08333325000000968
        },
        {
          "name": "G#5",
          "midi": 80,
          "time": 664.3326690000362,
          "velocity": 1,
          "duration": 0.08333325000000968
        },
        {
          "name": "D5",
          "midi": 74,
          "time": 664.3326690000362,
          "velocity": 1,
          "duration": 0.08333325000000968
        },
        {
          "name": "D6",
          "midi": 86,
          "time": 664.3326690000362,
          "velocity": 1,
          "duration": 0.08333325000000968
        },
        {
          "name": "G#3",
          "midi": 56,
          "time": 664.3326690000362,
          "velocity": 1,
          "duration": 0.16666650000001937
        },
        {
          "name": "D6",
          "midi": 86,
          "time": 664.4160022500362,
          "velocity": 1,
          "duration": 0.08333325000000968
        },
        {
          "name": "D5",
          "midi": 74,
          "time": 664.4160022500362,
          "velocity": 1,
          "duration": 0.08333325000000968
        },
        {
          "name": "G#5",
          "midi": 80,
          "time": 664.4160022500362,
          "velocity": 1,
          "duration": 0.08333325000000968
        },
        {
          "name": "A#4",
          "midi": 70,
          "time": 664.4160022500362,
          "velocity": 1,
          "duration": 0.08333325000000968
        },
        {
          "name": "G4",
          "midi": 67,
          "time": 664.4993355000362,
          "velocity": 1,
          "duration": 0.16666650000001937
        },
        {
          "name": "A#4",
          "midi": 70,
          "time": 664.4993355000362,
          "velocity": 1,
          "duration": 0.08333325000000968
        },
        {
          "name": "G#5",
          "midi": 80,
          "time": 664.4993355000362,
          "velocity": 1,
          "duration": 0.08333325000000968
        },
        {
          "name": "D5",
          "midi": 74,
          "time": 664.4993355000362,
          "velocity": 1,
          "duration": 0.08333325000000968
        },
        {
          "name": "D6",
          "midi": 86,
          "time": 664.4993355000362,
          "velocity": 1,
          "duration": 0.08333325000000968
        },
        {
          "name": "G3",
          "midi": 55,
          "time": 664.4993355000362,
          "velocity": 1,
          "duration": 0.16666650000001937
        },
        {
          "name": "A#4",
          "midi": 70,
          "time": 664.5826687500362,
          "velocity": 1,
          "duration": 0.08333325000000968
        },
        {
          "name": "G#5",
          "midi": 80,
          "time": 664.5826687500362,
          "velocity": 1,
          "duration": 0.08333325000000968
        },
        {
          "name": "D5",
          "midi": 74,
          "time": 664.5826687500362,
          "velocity": 1,
          "duration": 0.08333325000000968
        },
        {
          "name": "D6",
          "midi": 86,
          "time": 664.5826687500362,
          "velocity": 1,
          "duration": 0.08333325000000968
        },
        {
          "name": "F3",
          "midi": 53,
          "time": 664.6660020000362,
          "velocity": 1,
          "duration": 0.16666650000001937
        },
        {
          "name": "D6",
          "midi": 86,
          "time": 664.6660020000362,
          "velocity": 1,
          "duration": 0.08333325000000968
        },
        {
          "name": "D5",
          "midi": 74,
          "time": 664.6660020000362,
          "velocity": 1,
          "duration": 0.08333325000000968
        },
        {
          "name": "G#5",
          "midi": 80,
          "time": 664.6660020000362,
          "velocity": 1,
          "duration": 0.08333325000000968
        },
        {
          "name": "A#4",
          "midi": 70,
          "time": 664.6660020000362,
          "velocity": 1,
          "duration": 0.08333325000000968
        },
        {
          "name": "F4",
          "midi": 65,
          "time": 664.6660020000362,
          "velocity": 1,
          "duration": 0.16666650000001937
        },
        {
          "name": "D6",
          "midi": 86,
          "time": 664.7493352500362,
          "velocity": 1,
          "duration": 0.08333325000000968
        },
        {
          "name": "D5",
          "midi": 74,
          "time": 664.7493352500362,
          "velocity": 1,
          "duration": 0.08333325000000968
        },
        {
          "name": "G#5",
          "midi": 80,
          "time": 664.7493352500362,
          "velocity": 1,
          "duration": 0.08333325000000968
        },
        {
          "name": "A#4",
          "midi": 70,
          "time": 664.7493352500362,
          "velocity": 1,
          "duration": 0.08333325000000968
        },
        {
          "name": "D#4",
          "midi": 63,
          "time": 664.8326685000362,
          "velocity": 1,
          "duration": 0.16666650000001937
        },
        {
          "name": "A#4",
          "midi": 70,
          "time": 664.8326685000362,
          "velocity": 1,
          "duration": 0.08333325000000968
        },
        {
          "name": "G#5",
          "midi": 80,
          "time": 664.8326685000362,
          "velocity": 1,
          "duration": 0.08333325000000968
        },
        {
          "name": "D5",
          "midi": 74,
          "time": 664.8326685000362,
          "velocity": 1,
          "duration": 0.08333325000000968
        },
        {
          "name": "D6",
          "midi": 86,
          "time": 664.8326685000362,
          "velocity": 1,
          "duration": 0.08333325000000968
        },
        {
          "name": "D#3",
          "midi": 51,
          "time": 664.8326685000362,
          "velocity": 1,
          "duration": 0.16666650000001937
        },
        {
          "name": "D6",
          "midi": 86,
          "time": 664.9160017500362,
          "velocity": 1,
          "duration": 0.08333325000000968
        },
        {
          "name": "D5",
          "midi": 74,
          "time": 664.9160017500362,
          "velocity": 1,
          "duration": 0.08333325000000968
        },
        {
          "name": "G#5",
          "midi": 80,
          "time": 664.9160017500362,
          "velocity": 1,
          "duration": 0.08333325000000968
        },
        {
          "name": "A#4",
          "midi": 70,
          "time": 664.9160017500362,
          "velocity": 1,
          "duration": 0.08333325000000968
        },
        {
          "name": "D4",
          "midi": 62,
          "time": 664.9993350000362,
          "velocity": 1,
          "duration": 0.16666650000001937
        },
        {
          "name": "A#4",
          "midi": 70,
          "time": 664.9993350000362,
          "velocity": 1,
          "duration": 0.08333325000000968
        },
        {
          "name": "G#5",
          "midi": 80,
          "time": 664.9993350000362,
          "velocity": 1,
          "duration": 0.08333325000000968
        },
        {
          "name": "D5",
          "midi": 74,
          "time": 664.9993350000362,
          "velocity": 1,
          "duration": 0.08333325000000968
        },
        {
          "name": "D6",
          "midi": 86,
          "time": 664.9993350000362,
          "velocity": 1,
          "duration": 0.08333325000000968
        },
        {
          "name": "D3",
          "midi": 50,
          "time": 664.9993350000362,
          "velocity": 1,
          "duration": 0.16666650000001937
        },
        {
          "name": "A#4",
          "midi": 70,
          "time": 665.0826682500362,
          "velocity": 1,
          "duration": 0.08333325000000968
        },
        {
          "name": "G#5",
          "midi": 80,
          "time": 665.0826682500362,
          "velocity": 1,
          "duration": 0.08333325000000968
        },
        {
          "name": "D5",
          "midi": 74,
          "time": 665.0826682500362,
          "velocity": 1,
          "duration": 0.08333325000000968
        },
        {
          "name": "D6",
          "midi": 86,
          "time": 665.0826682500362,
          "velocity": 1,
          "duration": 0.08333325000000968
        },
        {
          "name": "C3",
          "midi": 48,
          "time": 665.1660015000363,
          "velocity": 1,
          "duration": 0.16666650000001937
        },
        {
          "name": "D6",
          "midi": 86,
          "time": 665.1660015000363,
          "velocity": 1,
          "duration": 0.08333325000000968
        },
        {
          "name": "D5",
          "midi": 74,
          "time": 665.1660015000363,
          "velocity": 1,
          "duration": 0.08333325000000968
        },
        {
          "name": "G#5",
          "midi": 80,
          "time": 665.1660015000363,
          "velocity": 1,
          "duration": 0.08333325000000968
        },
        {
          "name": "A#4",
          "midi": 70,
          "time": 665.1660015000363,
          "velocity": 1,
          "duration": 0.08333325000000968
        },
        {
          "name": "C4",
          "midi": 60,
          "time": 665.1660015000363,
          "velocity": 1,
          "duration": 0.16666650000001937
        },
        {
          "name": "D6",
          "midi": 86,
          "time": 665.2493347500363,
          "velocity": 1,
          "duration": 0.08333325000000968
        },
        {
          "name": "D5",
          "midi": 74,
          "time": 665.2493347500363,
          "velocity": 1,
          "duration": 0.08333325000000968
        },
        {
          "name": "G#5",
          "midi": 80,
          "time": 665.2493347500363,
          "velocity": 1,
          "duration": 0.08333325000000968
        },
        {
          "name": "A#4",
          "midi": 70,
          "time": 665.2493347500363,
          "velocity": 1,
          "duration": 0.08333325000000968
        },
        {
          "name": "A#3",
          "midi": 58,
          "time": 665.3326680000363,
          "velocity": 1,
          "duration": 0.16666650000001937
        },
        {
          "name": "A#4",
          "midi": 70,
          "time": 665.3326680000363,
          "velocity": 1,
          "duration": 0.08333325000000968
        },
        {
          "name": "G#5",
          "midi": 80,
          "time": 665.3326680000363,
          "velocity": 1,
          "duration": 0.08333325000000968
        },
        {
          "name": "D5",
          "midi": 74,
          "time": 665.3326680000363,
          "velocity": 1,
          "duration": 0.08333325000000968
        },
        {
          "name": "D6",
          "midi": 86,
          "time": 665.3326680000363,
          "velocity": 1,
          "duration": 0.08333325000000968
        },
        {
          "name": "A#2",
          "midi": 46,
          "time": 665.3326680000363,
          "velocity": 1,
          "duration": 0.16666650000001937
        },
        {
          "name": "D6",
          "midi": 86,
          "time": 665.4160012500363,
          "velocity": 1,
          "duration": 0.08333325000000968
        },
        {
          "name": "D5",
          "midi": 74,
          "time": 665.4160012500363,
          "velocity": 1,
          "duration": 0.08333325000000968
        },
        {
          "name": "G#5",
          "midi": 80,
          "time": 665.4160012500363,
          "velocity": 1,
          "duration": 0.08333325000000968
        },
        {
          "name": "A#4",
          "midi": 70,
          "time": 665.4160012500363,
          "velocity": 1,
          "duration": 0.08333325000000968
        },
        {
          "name": "G#3",
          "midi": 56,
          "time": 665.4993345000363,
          "velocity": 1,
          "duration": 0.16666650000001937
        },
        {
          "name": "A#4",
          "midi": 70,
          "time": 665.4993345000363,
          "velocity": 1,
          "duration": 0.08333325000000968
        },
        {
          "name": "G#5",
          "midi": 80,
          "time": 665.4993345000363,
          "velocity": 1,
          "duration": 0.08333325000000968
        },
        {
          "name": "D5",
          "midi": 74,
          "time": 665.4993345000363,
          "velocity": 1,
          "duration": 0.08333325000000968
        },
        {
          "name": "D6",
          "midi": 86,
          "time": 665.4993345000363,
          "velocity": 1,
          "duration": 0.08333325000000968
        },
        {
          "name": "G#2",
          "midi": 44,
          "time": 665.4993345000363,
          "velocity": 1,
          "duration": 0.16666650000001937
        },
        {
          "name": "A#4",
          "midi": 70,
          "time": 665.5826677500363,
          "velocity": 1,
          "duration": 0.08333325000000968
        },
        {
          "name": "G#5",
          "midi": 80,
          "time": 665.5826677500363,
          "velocity": 1,
          "duration": 0.08333325000000968
        },
        {
          "name": "D5",
          "midi": 74,
          "time": 665.5826677500363,
          "velocity": 1,
          "duration": 0.08333325000000968
        },
        {
          "name": "D6",
          "midi": 86,
          "time": 665.5826677500363,
          "velocity": 1,
          "duration": 0.08333325000000968
        },
        {
          "name": "G2",
          "midi": 43,
          "time": 665.6660010000363,
          "velocity": 1,
          "duration": 0.16666650000001937
        },
        {
          "name": "D6",
          "midi": 86,
          "time": 665.6660010000363,
          "velocity": 1,
          "duration": 0.08333325000000968
        },
        {
          "name": "D5",
          "midi": 74,
          "time": 665.6660010000363,
          "velocity": 1,
          "duration": 0.08333325000000968
        },
        {
          "name": "G#5",
          "midi": 80,
          "time": 665.6660010000363,
          "velocity": 1,
          "duration": 0.08333325000000968
        },
        {
          "name": "A#4",
          "midi": 70,
          "time": 665.6660010000363,
          "velocity": 1,
          "duration": 0.08333325000000968
        },
        {
          "name": "G3",
          "midi": 55,
          "time": 665.6660010000363,
          "velocity": 1,
          "duration": 0.16666650000001937
        },
        {
          "name": "D6",
          "midi": 86,
          "time": 665.7493342500363,
          "velocity": 1,
          "duration": 0.08333325000000968
        },
        {
          "name": "D5",
          "midi": 74,
          "time": 665.7493342500363,
          "velocity": 1,
          "duration": 0.08333325000000968
        },
        {
          "name": "G#5",
          "midi": 80,
          "time": 665.7493342500363,
          "velocity": 1,
          "duration": 0.08333325000000968
        },
        {
          "name": "A#4",
          "midi": 70,
          "time": 665.7493342500363,
          "velocity": 1,
          "duration": 0.08333325000000968
        },
        {
          "name": "F3",
          "midi": 53,
          "time": 665.8326675000363,
          "velocity": 1,
          "duration": 0.16666650000001937
        },
        {
          "name": "A#4",
          "midi": 70,
          "time": 665.8326675000363,
          "velocity": 1,
          "duration": 0.08333325000000968
        },
        {
          "name": "G#5",
          "midi": 80,
          "time": 665.8326675000363,
          "velocity": 1,
          "duration": 0.08333325000000968
        },
        {
          "name": "D5",
          "midi": 74,
          "time": 665.8326675000363,
          "velocity": 1,
          "duration": 0.08333325000000968
        },
        {
          "name": "D6",
          "midi": 86,
          "time": 665.8326675000363,
          "velocity": 1,
          "duration": 0.08333325000000968
        },
        {
          "name": "F2",
          "midi": 41,
          "time": 665.8326675000363,
          "velocity": 1,
          "duration": 0.16666650000001937
        },
        {
          "name": "D6",
          "midi": 86,
          "time": 665.9160007500363,
          "velocity": 1,
          "duration": 0.08333325000000968
        },
        {
          "name": "D5",
          "midi": 74,
          "time": 665.9160007500363,
          "velocity": 1,
          "duration": 0.08333325000000968
        },
        {
          "name": "G#5",
          "midi": 80,
          "time": 665.9160007500363,
          "velocity": 1,
          "duration": 0.08333325000000968
        },
        {
          "name": "A#4",
          "midi": 70,
          "time": 665.9160007500363,
          "velocity": 1,
          "duration": 0.08333325000000968
        },
        {
          "name": "G2",
          "midi": 43,
          "time": 665.9993340000364,
          "velocity": 1,
          "duration": 0.16666650000001937
        },
        {
          "name": "E6",
          "midi": 88,
          "time": 665.9993340000364,
          "velocity": 1,
          "duration": 0.08333325000000968
        },
        {
          "name": "G5",
          "midi": 79,
          "time": 665.9993340000364,
          "velocity": 1,
          "duration": 0.08333325000000968
        },
        {
          "name": "A#4",
          "midi": 70,
          "time": 665.9993340000364,
          "velocity": 1,
          "duration": 0.08333325000000968
        },
        {
          "name": "G3",
          "midi": 55,
          "time": 665.9993340000364,
          "velocity": 1,
          "duration": 0.16666650000001937
        },
        {
          "name": "A#4",
          "midi": 70,
          "time": 666.0826672500364,
          "velocity": 1,
          "duration": 0.08333325000000968
        },
        {
          "name": "G5",
          "midi": 79,
          "time": 666.0826672500364,
          "velocity": 1,
          "duration": 0.08333325000000968
        },
        {
          "name": "E6",
          "midi": 88,
          "time": 666.0826672500364,
          "velocity": 1,
          "duration": 0.08333325000000968
        },
        {
          "name": "G2",
          "midi": 43,
          "time": 666.1660005000364,
          "velocity": 1,
          "duration": 0.16666650000001937
        },
        {
          "name": "E6",
          "midi": 88,
          "time": 666.1660005000364,
          "velocity": 1,
          "duration": 0.08333325000000968
        },
        {
          "name": "G5",
          "midi": 79,
          "time": 666.1660005000364,
          "velocity": 1,
          "duration": 0.08333325000000968
        },
        {
          "name": "A#4",
          "midi": 70,
          "time": 666.1660005000364,
          "velocity": 1,
          "duration": 0.08333325000000968
        },
        {
          "name": "G3",
          "midi": 55,
          "time": 666.1660005000364,
          "velocity": 1,
          "duration": 0.16666650000001937
        },
        {
          "name": "A#4",
          "midi": 70,
          "time": 666.2493337500364,
          "velocity": 1,
          "duration": 0.08333325000000968
        },
        {
          "name": "G5",
          "midi": 79,
          "time": 666.2493337500364,
          "velocity": 1,
          "duration": 0.08333325000000968
        },
        {
          "name": "E6",
          "midi": 88,
          "time": 666.2493337500364,
          "velocity": 1,
          "duration": 0.08333325000000968
        },
        {
          "name": "A#2",
          "midi": 46,
          "time": 666.3326670000364,
          "velocity": 1,
          "duration": 0.16666650000001937
        },
        {
          "name": "E6",
          "midi": 88,
          "time": 666.3326670000364,
          "velocity": 1,
          "duration": 0.08333325000000968
        },
        {
          "name": "G5",
          "midi": 79,
          "time": 666.3326670000364,
          "velocity": 1,
          "duration": 0.08333325000000968
        },
        {
          "name": "A#4",
          "midi": 70,
          "time": 666.3326670000364,
          "velocity": 1,
          "duration": 0.08333325000000968
        },
        {
          "name": "A#3",
          "midi": 58,
          "time": 666.3326670000364,
          "velocity": 1,
          "duration": 0.16666650000001937
        },
        {
          "name": "A#4",
          "midi": 70,
          "time": 666.4160002500364,
          "velocity": 1,
          "duration": 0.08333325000000968
        },
        {
          "name": "G5",
          "midi": 79,
          "time": 666.4160002500364,
          "velocity": 1,
          "duration": 0.08333325000000968
        },
        {
          "name": "E6",
          "midi": 88,
          "time": 666.4160002500364,
          "velocity": 1,
          "duration": 0.08333325000000968
        },
        {
          "name": "A#2",
          "midi": 46,
          "time": 666.4993335000364,
          "velocity": 1,
          "duration": 0.16666650000001937
        },
        {
          "name": "E6",
          "midi": 88,
          "time": 666.4993335000364,
          "velocity": 1,
          "duration": 0.08333325000000968
        },
        {
          "name": "G5",
          "midi": 79,
          "time": 666.4993335000364,
          "velocity": 1,
          "duration": 0.08333325000000968
        },
        {
          "name": "A#4",
          "midi": 70,
          "time": 666.4993335000364,
          "velocity": 1,
          "duration": 0.08333325000000968
        },
        {
          "name": "A#3",
          "midi": 58,
          "time": 666.4993335000364,
          "velocity": 1,
          "duration": 0.16666650000001937
        },
        {
          "name": "E6",
          "midi": 88,
          "time": 666.5826667500364,
          "velocity": 1,
          "duration": 0.08333325000000968
        },
        {
          "name": "G5",
          "midi": 79,
          "time": 666.5826667500364,
          "velocity": 1,
          "duration": 0.08333325000000968
        },
        {
          "name": "A#4",
          "midi": 70,
          "time": 666.5826667500364,
          "velocity": 1,
          "duration": 0.08333325000000968
        },
        {
          "name": "C#4",
          "midi": 61,
          "time": 666.6660000000364,
          "velocity": 1,
          "duration": 0.16666650000001937
        },
        {
          "name": "A#4",
          "midi": 70,
          "time": 666.6660000000364,
          "velocity": 1,
          "duration": 0.08333325000000968
        },
        {
          "name": "G5",
          "midi": 79,
          "time": 666.6660000000364,
          "velocity": 1,
          "duration": 0.08333325000000968
        },
        {
          "name": "E6",
          "midi": 88,
          "time": 666.6660000000364,
          "velocity": 1,
          "duration": 0.08333325000000968
        },
        {
          "name": "C#3",
          "midi": 49,
          "time": 666.6660000000364,
          "velocity": 1,
          "duration": 0.16666650000001937
        },
        {
          "name": "E6",
          "midi": 88,
          "time": 666.7493332500364,
          "velocity": 1,
          "duration": 0.08333325000000968
        },
        {
          "name": "G5",
          "midi": 79,
          "time": 666.7493332500364,
          "velocity": 1,
          "duration": 0.08333325000000968
        },
        {
          "name": "A#4",
          "midi": 70,
          "time": 666.7493332500364,
          "velocity": 1,
          "duration": 0.08333325000000968
        },
        {
          "name": "C#4",
          "midi": 61,
          "time": 666.8326665000365,
          "velocity": 1,
          "duration": 0.16666650000001937
        },
        {
          "name": "A#4",
          "midi": 70,
          "time": 666.8326665000365,
          "velocity": 1,
          "duration": 0.08333325000000968
        },
        {
          "name": "G5",
          "midi": 79,
          "time": 666.8326665000365,
          "velocity": 1,
          "duration": 0.08333325000000968
        },
        {
          "name": "E6",
          "midi": 88,
          "time": 666.8326665000365,
          "velocity": 1,
          "duration": 0.08333325000000968
        },
        {
          "name": "C#3",
          "midi": 49,
          "time": 666.8326665000365,
          "velocity": 1,
          "duration": 0.16666650000001937
        },
        {
          "name": "E6",
          "midi": 88,
          "time": 666.9159997500365,
          "velocity": 1,
          "duration": 0.08333325000000968
        },
        {
          "name": "G5",
          "midi": 79,
          "time": 666.9159997500365,
          "velocity": 1,
          "duration": 0.08333325000000968
        },
        {
          "name": "A#4",
          "midi": 70,
          "time": 666.9159997500365,
          "velocity": 1,
          "duration": 0.08333325000000968
        },
        {
          "name": "C#4",
          "midi": 61,
          "time": 666.9993330000365,
          "velocity": 1,
          "duration": 0.9999990000001162
        },
        {
          "name": "A#4",
          "midi": 70,
          "time": 666.9993330000365,
          "velocity": 1,
          "duration": 0.08333325000000968
        },
        {
          "name": "G5",
          "midi": 79,
          "time": 666.9993330000365,
          "velocity": 1,
          "duration": 0.08333325000000968
        },
        {
          "name": "E6",
          "midi": 88,
          "time": 666.9993330000365,
          "velocity": 1,
          "duration": 0.08333325000000968
        },
        {
          "name": "C#3",
          "midi": 49,
          "time": 666.9993330000365,
          "velocity": 1,
          "duration": 0.9999990000001162
        },
        {
          "name": "E6",
          "midi": 88,
          "time": 667.0826662500365,
          "velocity": 1,
          "duration": 0.08333325000000968
        },
        {
          "name": "G5",
          "midi": 79,
          "time": 667.0826662500365,
          "velocity": 1,
          "duration": 0.08333325000000968
        },
        {
          "name": "A#4",
          "midi": 70,
          "time": 667.0826662500365,
          "velocity": 1,
          "duration": 0.08333325000000968
        },
        {
          "name": "E6",
          "midi": 88,
          "time": 667.1659995000365,
          "velocity": 1,
          "duration": 0.08333325000000968
        },
        {
          "name": "G5",
          "midi": 79,
          "time": 667.1659995000365,
          "velocity": 1,
          "duration": 0.08333325000000968
        },
        {
          "name": "A#4",
          "midi": 70,
          "time": 667.1659995000365,
          "velocity": 1,
          "duration": 0.08333325000000968
        },
        {
          "name": "E6",
          "midi": 88,
          "time": 667.2493327500365,
          "velocity": 1,
          "duration": 0.08333325000000968
        },
        {
          "name": "G5",
          "midi": 79,
          "time": 667.2493327500365,
          "velocity": 1,
          "duration": 0.08333325000000968
        },
        {
          "name": "A#4",
          "midi": 70,
          "time": 667.2493327500365,
          "velocity": 1,
          "duration": 0.08333325000000968
        },
        {
          "name": "E6",
          "midi": 88,
          "time": 667.3326660000365,
          "velocity": 1,
          "duration": 0.08333325000000968
        },
        {
          "name": "G5",
          "midi": 79,
          "time": 667.3326660000365,
          "velocity": 1,
          "duration": 0.08333325000000968
        },
        {
          "name": "A#4",
          "midi": 70,
          "time": 667.3326660000365,
          "velocity": 1,
          "duration": 0.08333325000000968
        },
        {
          "name": "A#4",
          "midi": 70,
          "time": 667.4159992500365,
          "velocity": 1,
          "duration": 0.08333325000000968
        },
        {
          "name": "G5",
          "midi": 79,
          "time": 667.4159992500365,
          "velocity": 1,
          "duration": 0.08333325000000968
        },
        {
          "name": "E6",
          "midi": 88,
          "time": 667.4159992500365,
          "velocity": 1,
          "duration": 0.08333325000000968
        },
        {
          "name": "E6",
          "midi": 88,
          "time": 667.4993325000365,
          "velocity": 1,
          "duration": 0.08333325000000968
        },
        {
          "name": "G5",
          "midi": 79,
          "time": 667.4993325000365,
          "velocity": 1,
          "duration": 0.08333325000000968
        },
        {
          "name": "A#4",
          "midi": 70,
          "time": 667.4993325000365,
          "velocity": 1,
          "duration": 0.08333325000000968
        },
        {
          "name": "E6",
          "midi": 88,
          "time": 667.5826657500365,
          "velocity": 1,
          "duration": 0.08333325000000968
        },
        {
          "name": "G5",
          "midi": 79,
          "time": 667.5826657500365,
          "velocity": 1,
          "duration": 0.08333325000000968
        },
        {
          "name": "A#4",
          "midi": 70,
          "time": 667.5826657500365,
          "velocity": 1,
          "duration": 0.08333325000000968
        },
        {
          "name": "E6",
          "midi": 88,
          "time": 667.6659990000365,
          "velocity": 1,
          "duration": 0.08333325000000968
        },
        {
          "name": "G5",
          "midi": 79,
          "time": 667.6659990000365,
          "velocity": 1,
          "duration": 0.08333325000000968
        },
        {
          "name": "A#4",
          "midi": 70,
          "time": 667.6659990000365,
          "velocity": 1,
          "duration": 0.08333325000000968
        },
        {
          "name": "E6",
          "midi": 88,
          "time": 667.7493322500366,
          "velocity": 1,
          "duration": 0.08333325000000968
        },
        {
          "name": "G5",
          "midi": 79,
          "time": 667.7493322500366,
          "velocity": 1,
          "duration": 0.08333325000000968
        },
        {
          "name": "A#4",
          "midi": 70,
          "time": 667.7493322500366,
          "velocity": 1,
          "duration": 0.08333325000000968
        },
        {
          "name": "A#4",
          "midi": 70,
          "time": 667.8326655000366,
          "velocity": 1,
          "duration": 0.08333325000000968
        },
        {
          "name": "G5",
          "midi": 79,
          "time": 667.8326655000366,
          "velocity": 1,
          "duration": 0.08333325000000968
        },
        {
          "name": "E6",
          "midi": 88,
          "time": 667.8326655000366,
          "velocity": 1,
          "duration": 0.08333325000000968
        },
        {
          "name": "E6",
          "midi": 88,
          "time": 667.9159987500366,
          "velocity": 1,
          "duration": 0.08333325000000968
        },
        {
          "name": "G5",
          "midi": 79,
          "time": 667.9159987500366,
          "velocity": 1,
          "duration": 0.08333325000000968
        },
        {
          "name": "A#4",
          "midi": 70,
          "time": 667.9159987500366,
          "velocity": 1,
          "duration": 0.08333325000000968
        },
        {
          "name": "G#2",
          "midi": 44,
          "time": 667.9993320000366,
          "velocity": 1,
          "duration": 0.4999995000000581
        },
        {
          "name": "F6",
          "midi": 89,
          "time": 667.9993320000366,
          "velocity": 1,
          "duration": 0.08333325000000968
        },
        {
          "name": "F5",
          "midi": 77,
          "time": 667.9993320000366,
          "velocity": 1,
          "duration": 0.08333325000000968
        },
        {
          "name": "C5",
          "midi": 72,
          "time": 667.9993320000366,
          "velocity": 1,
          "duration": 0.08333325000000968
        },
        {
          "name": "G#3",
          "midi": 56,
          "time": 667.9993320000366,
          "velocity": 1,
          "duration": 0.4999995000000581
        },
        {
          "name": "F6",
          "midi": 89,
          "time": 668.0826652500366,
          "velocity": 1,
          "duration": 0.08333325000000968
        },
        {
          "name": "F5",
          "midi": 77,
          "time": 668.0826652500366,
          "velocity": 1,
          "duration": 0.08333325000000968
        },
        {
          "name": "C5",
          "midi": 72,
          "time": 668.0826652500366,
          "velocity": 1,
          "duration": 0.08333325000000968
        },
        {
          "name": "C5",
          "midi": 72,
          "time": 668.1659985000366,
          "velocity": 1,
          "duration": 0.08333325000000968
        },
        {
          "name": "F5",
          "midi": 77,
          "time": 668.1659985000366,
          "velocity": 1,
          "duration": 0.08333325000000968
        },
        {
          "name": "F6",
          "midi": 89,
          "time": 668.1659985000366,
          "velocity": 1,
          "duration": 0.08333325000000968
        },
        {
          "name": "F6",
          "midi": 89,
          "time": 668.2493317500366,
          "velocity": 1,
          "duration": 0.08333325000000968
        },
        {
          "name": "F5",
          "midi": 77,
          "time": 668.2493317500366,
          "velocity": 1,
          "duration": 0.08333325000000968
        },
        {
          "name": "C5",
          "midi": 72,
          "time": 668.2493317500366,
          "velocity": 1,
          "duration": 0.08333325000000968
        },
        {
          "name": "F6",
          "midi": 89,
          "time": 668.3326650000366,
          "velocity": 1,
          "duration": 0.08333325000000968
        },
        {
          "name": "F5",
          "midi": 77,
          "time": 668.3326650000366,
          "velocity": 1,
          "duration": 0.08333325000000968
        },
        {
          "name": "C5",
          "midi": 72,
          "time": 668.3326650000366,
          "velocity": 1,
          "duration": 0.08333325000000968
        },
        {
          "name": "C5",
          "midi": 72,
          "time": 668.4159982500366,
          "velocity": 1,
          "duration": 0.08333325000000968
        },
        {
          "name": "F5",
          "midi": 77,
          "time": 668.4159982500366,
          "velocity": 1,
          "duration": 0.08333325000000968
        },
        {
          "name": "F6",
          "midi": 89,
          "time": 668.4159982500366,
          "velocity": 1,
          "duration": 0.08333325000000968
        },
        {
          "name": "G#2",
          "midi": 44,
          "time": 668.4993315000366,
          "velocity": 1,
          "duration": 0.16666650000001937
        },
        {
          "name": "F6",
          "midi": 89,
          "time": 668.4993315000366,
          "velocity": 1,
          "duration": 0.08333325000000968
        },
        {
          "name": "F5",
          "midi": 77,
          "time": 668.4993315000366,
          "velocity": 1,
          "duration": 0.08333325000000968
        },
        {
          "name": "C5",
          "midi": 72,
          "time": 668.4993315000366,
          "velocity": 1,
          "duration": 0.08333325000000968
        },
        {
          "name": "G#3",
          "midi": 56,
          "time": 668.4993315000366,
          "velocity": 1,
          "duration": 0.16666650000001937
        },
        {
          "name": "C5",
          "midi": 72,
          "time": 668.5826647500367,
          "velocity": 1,
          "duration": 0.08333325000000968
        },
        {
          "name": "F5",
          "midi": 77,
          "time": 668.5826647500367,
          "velocity": 1,
          "duration": 0.08333325000000968
        },
        {
          "name": "F6",
          "midi": 89,
          "time": 668.5826647500367,
          "velocity": 1,
          "duration": 0.08333325000000968
        },
        {
          "name": "C3",
          "midi": 48,
          "time": 668.6659980000367,
          "velocity": 1,
          "duration": 0.16666650000001937
        },
        {
          "name": "F6",
          "midi": 89,
          "time": 668.6659980000367,
          "velocity": 1,
          "duration": 0.08333325000000968
        },
        {
          "name": "F5",
          "midi": 77,
          "time": 668.6659980000367,
          "velocity": 1,
          "duration": 0.08333325000000968
        },
        {
          "name": "C5",
          "midi": 72,
          "time": 668.6659980000367,
          "velocity": 1,
          "duration": 0.08333325000000968
        },
        {
          "name": "C4",
          "midi": 60,
          "time": 668.6659980000367,
          "velocity": 1,
          "duration": 0.16666650000001937
        },
        {
          "name": "C5",
          "midi": 72,
          "time": 668.7493312500367,
          "velocity": 1,
          "duration": 0.08333325000000968
        },
        {
          "name": "F5",
          "midi": 77,
          "time": 668.7493312500367,
          "velocity": 1,
          "duration": 0.08333325000000968
        },
        {
          "name": "F6",
          "midi": 89,
          "time": 668.7493312500367,
          "velocity": 1,
          "duration": 0.08333325000000968
        },
        {
          "name": "F3",
          "midi": 53,
          "time": 668.8326645000367,
          "velocity": 1,
          "duration": 0.16666650000001937
        },
        {
          "name": "F6",
          "midi": 89,
          "time": 668.8326645000367,
          "velocity": 1,
          "duration": 0.08333325000000968
        },
        {
          "name": "F5",
          "midi": 77,
          "time": 668.8326645000367,
          "velocity": 1,
          "duration": 0.08333325000000968
        },
        {
          "name": "C5",
          "midi": 72,
          "time": 668.8326645000367,
          "velocity": 1,
          "duration": 0.08333325000000968
        },
        {
          "name": "F4",
          "midi": 65,
          "time": 668.8326645000367,
          "velocity": 1,
          "duration": 0.16666650000001937
        },
        {
          "name": "C5",
          "midi": 72,
          "time": 668.9159977500367,
          "velocity": 1,
          "duration": 0.08333325000000968
        },
        {
          "name": "F5",
          "midi": 77,
          "time": 668.9159977500367,
          "velocity": 1,
          "duration": 0.08333325000000968
        },
        {
          "name": "F6",
          "midi": 89,
          "time": 668.9159977500367,
          "velocity": 1,
          "duration": 0.08333325000000968
        },
        {
          "name": "A2",
          "midi": 45,
          "time": 668.9993310000367,
          "velocity": 1,
          "duration": 0.4999995000000581
        },
        {
          "name": "F#6",
          "midi": 90,
          "time": 668.9993310000367,
          "velocity": 1,
          "duration": 0.08333325000000968
        },
        {
          "name": "C6",
          "midi": 84,
          "time": 668.9993310000367,
          "velocity": 1,
          "duration": 0.08333325000000968
        },
        {
          "name": "A3",
          "midi": 57,
          "time": 668.9993310000367,
          "velocity": 1,
          "duration": 0.4999995000000581
        },
        {
          "name": "F#6",
          "midi": 90,
          "time": 669.0826642500367,
          "velocity": 1,
          "duration": 0.08333325000000968
        },
        {
          "name": "C6",
          "midi": 84,
          "time": 669.0826642500367,
          "velocity": 1,
          "duration": 0.08333325000000968
        },
        {
          "name": "F#6",
          "midi": 90,
          "time": 669.1659975000367,
          "velocity": 1,
          "duration": 0.08333325000000968
        },
        {
          "name": "C6",
          "midi": 84,
          "time": 669.1659975000367,
          "velocity": 1,
          "duration": 0.08333325000000968
        },
        {
          "name": "F#6",
          "midi": 90,
          "time": 669.2493307500367,
          "velocity": 1,
          "duration": 0.08333325000000968
        },
        {
          "name": "C6",
          "midi": 84,
          "time": 669.2493307500367,
          "velocity": 1,
          "duration": 0.08333325000000968
        },
        {
          "name": "F#6",
          "midi": 90,
          "time": 669.3326640000367,
          "velocity": 1,
          "duration": 0.08333325000000968
        },
        {
          "name": "C6",
          "midi": 84,
          "time": 669.3326640000367,
          "velocity": 1,
          "duration": 0.08333325000000968
        },
        {
          "name": "C6",
          "midi": 84,
          "time": 669.4159972500368,
          "velocity": 1,
          "duration": 0.08333325000000968
        },
        {
          "name": "F#6",
          "midi": 90,
          "time": 669.4159972500368,
          "velocity": 1,
          "duration": 0.08333325000000968
        },
        {
          "name": "A2",
          "midi": 45,
          "time": 669.4993305000368,
          "velocity": 1,
          "duration": 0.16666650000001937
        },
        {
          "name": "F#6",
          "midi": 90,
          "time": 669.4993305000368,
          "velocity": 1,
          "duration": 0.08333325000000968
        },
        {
          "name": "C6",
          "midi": 84,
          "time": 669.4993305000368,
          "velocity": 1,
          "duration": 0.08333325000000968
        },
        {
          "name": "A3",
          "midi": 57,
          "time": 669.4993305000368,
          "velocity": 1,
          "duration": 0.16666650000001937
        },
        {
          "name": "F#6",
          "midi": 90,
          "time": 669.5826637500368,
          "velocity": 1,
          "duration": 0.08333325000000968
        },
        {
          "name": "C6",
          "midi": 84,
          "time": 669.5826637500368,
          "velocity": 1,
          "duration": 0.08333325000000968
        },
        {
          "name": "C4",
          "midi": 60,
          "time": 669.6659970000368,
          "velocity": 1,
          "duration": 0.16666650000001937
        },
        {
          "name": "C6",
          "midi": 84,
          "time": 669.6659970000368,
          "velocity": 1,
          "duration": 0.08333325000000968
        },
        {
          "name": "F#6",
          "midi": 90,
          "time": 669.6659970000368,
          "velocity": 1,
          "duration": 0.08333325000000968
        },
        {
          "name": "C3",
          "midi": 48,
          "time": 669.6659970000368,
          "velocity": 1,
          "duration": 0.16666650000001937
        },
        {
          "name": "F#6",
          "midi": 90,
          "time": 669.7493302500368,
          "velocity": 1,
          "duration": 0.08333325000000968
        },
        {
          "name": "C6",
          "midi": 84,
          "time": 669.7493302500368,
          "velocity": 1,
          "duration": 0.08333325000000968
        },
        {
          "name": "D#4",
          "midi": 63,
          "time": 669.8326635000368,
          "velocity": 1,
          "duration": 0.16666650000001937
        },
        {
          "name": "C6",
          "midi": 84,
          "time": 669.8326635000368,
          "velocity": 1,
          "duration": 0.08333325000000968
        },
        {
          "name": "F#6",
          "midi": 90,
          "time": 669.8326635000368,
          "velocity": 1,
          "duration": 0.08333325000000968
        },
        {
          "name": "D#3",
          "midi": 51,
          "time": 669.8326635000368,
          "velocity": 1,
          "duration": 0.16666650000001937
        },
        {
          "name": "F#6",
          "midi": 90,
          "time": 669.9159967500368,
          "velocity": 1,
          "duration": 0.08333325000000968
        },
        {
          "name": "C6",
          "midi": 84,
          "time": 669.9159967500368,
          "velocity": 1,
          "duration": 0.08333325000000968
        },
        {
          "name": "A#2",
          "midi": 46,
          "time": 669.9993300000368,
          "velocity": 1,
          "duration": 0.4999995000000581
        },
        {
          "name": "G6",
          "midi": 91,
          "time": 669.9993300000368,
          "velocity": 1,
          "duration": 0.08333325000000968
        },
        {
          "name": "D#5",
          "midi": 75,
          "time": 669.9993300000368,
          "velocity": 1,
          "duration": 0.08333325000000968
        },
        {
          "name": "A#3",
          "midi": 58,
          "time": 669.9993300000368,
          "velocity": 1,
          "duration": 0.4999995000000581
        },
        {
          "name": "G6",
          "midi": 91,
          "time": 670.0826632500368,
          "velocity": 1,
          "duration": 0.08333325000000968
        },
        {
          "name": "D#5",
          "midi": 75,
          "time": 670.0826632500368,
          "velocity": 1,
          "duration": 0.08333325000000968
        },
        {
          "name": "G6",
          "midi": 91,
          "time": 670.1659965000368,
          "velocity": 1,
          "duration": 0.08333325000000968
        },
        {
          "name": "D#5",
          "midi": 75,
          "time": 670.1659965000368,
          "velocity": 1,
          "duration": 0.08333325000000968
        },
        {
          "name": "D#5",
          "midi": 75,
          "time": 670.2493297500368,
          "velocity": 1,
          "duration": 0.08333325000000968
        },
        {
          "name": "G6",
          "midi": 91,
          "time": 670.2493297500368,
          "velocity": 1,
          "duration": 0.08333325000000968
        },
        {
          "name": "G6",
          "midi": 91,
          "time": 670.3326630000369,
          "velocity": 1,
          "duration": 0.08333325000000968
        },
        {
          "name": "D#5",
          "midi": 75,
          "time": 670.3326630000369,
          "velocity": 1,
          "duration": 0.08333325000000968
        },
        {
          "name": "G6",
          "midi": 91,
          "time": 670.4159962500369,
          "velocity": 1,
          "duration": 0.08333325000000968
        },
        {
          "name": "D#5",
          "midi": 75,
          "time": 670.4159962500369,
          "velocity": 1,
          "duration": 0.08333325000000968
        },
        {
          "name": "A#2",
          "midi": 46,
          "time": 670.4993295000369,
          "velocity": 1,
          "duration": 0.16666650000001937
        },
        {
          "name": "G6",
          "midi": 91,
          "time": 670.4993295000369,
          "velocity": 1,
          "duration": 0.08333325000000968
        },
        {
          "name": "D#5",
          "midi": 75,
          "time": 670.4993295000369,
          "velocity": 1,
          "duration": 0.08333325000000968
        },
        {
          "name": "A#3",
          "midi": 58,
          "time": 670.4993295000369,
          "velocity": 1,
          "duration": 0.16666650000001937
        },
        {
          "name": "G6",
          "midi": 91,
          "time": 670.5826627500369,
          "velocity": 1,
          "duration": 0.08333325000000968
        },
        {
          "name": "D#5",
          "midi": 75,
          "time": 670.5826627500369,
          "velocity": 1,
          "duration": 0.08333325000000968
        },
        {
          "name": "D#4",
          "midi": 63,
          "time": 670.6659960000369,
          "velocity": 1,
          "duration": 0.16666650000001937
        },
        {
          "name": "D#5",
          "midi": 75,
          "time": 670.6659960000369,
          "velocity": 1,
          "duration": 0.08333325000000968
        },
        {
          "name": "G6",
          "midi": 91,
          "time": 670.6659960000369,
          "velocity": 1,
          "duration": 0.08333325000000968
        },
        {
          "name": "D#3",
          "midi": 51,
          "time": 670.6659960000369,
          "velocity": 1,
          "duration": 0.16666650000001937
        },
        {
          "name": "G6",
          "midi": 91,
          "time": 670.7493292500369,
          "velocity": 1,
          "duration": 0.08333325000000968
        },
        {
          "name": "D#5",
          "midi": 75,
          "time": 670.7493292500369,
          "velocity": 1,
          "duration": 0.08333325000000968
        },
        {
          "name": "G4",
          "midi": 67,
          "time": 670.8326625000369,
          "velocity": 1,
          "duration": 0.16666650000001937
        },
        {
          "name": "D#5",
          "midi": 75,
          "time": 670.8326625000369,
          "velocity": 1,
          "duration": 0.08333325000000968
        },
        {
          "name": "G6",
          "midi": 91,
          "time": 670.8326625000369,
          "velocity": 1,
          "duration": 0.08333325000000968
        },
        {
          "name": "G3",
          "midi": 55,
          "time": 670.8326625000369,
          "velocity": 1,
          "duration": 0.16666650000001937
        },
        {
          "name": "G6",
          "midi": 91,
          "time": 670.9159957500369,
          "velocity": 1,
          "duration": 0.08333325000000968
        },
        {
          "name": "D#5",
          "midi": 75,
          "time": 670.9159957500369,
          "velocity": 1,
          "duration": 0.08333325000000968
        },
        {
          "name": "B2",
          "midi": 47,
          "time": 670.9993290000369,
          "velocity": 1,
          "duration": 0.16666650000001937
        },
        {
          "name": "G#6",
          "midi": 92,
          "time": 670.9993290000369,
          "velocity": 1,
          "duration": 0.08333325000000968
        },
        {
          "name": "F5",
          "midi": 77,
          "time": 670.9993290000369,
          "velocity": 1,
          "duration": 0.08333325000000968
        },
        {
          "name": "D5",
          "midi": 74,
          "time": 670.9993290000369,
          "velocity": 1,
          "duration": 0.08333325000000968
        },
        {
          "name": "B3",
          "midi": 59,
          "time": 670.9993290000369,
          "velocity": 1,
          "duration": 0.16666650000001937
        },
        {
          "name": "D5",
          "midi": 74,
          "time": 671.082662250037,
          "velocity": 1,
          "duration": 0.08333325000000968
        },
        {
          "name": "F5",
          "midi": 77,
          "time": 671.082662250037,
          "velocity": 1,
          "duration": 0.08333325000000968
        },
        {
          "name": "G#6",
          "midi": 92,
          "time": 671.082662250037,
          "velocity": 1,
          "duration": 0.08333325000000968
        },
        {
          "name": "D3",
          "midi": 50,
          "time": 671.165995500037,
          "velocity": 1,
          "duration": 0.16666650000001937
        },
        {
          "name": "G#6",
          "midi": 92,
          "time": 671.165995500037,
          "velocity": 1,
          "duration": 0.08333325000000968
        },
        {
          "name": "F5",
          "midi": 77,
          "time": 671.165995500037,
          "velocity": 1,
          "duration": 0.08333325000000968
        },
        {
          "name": "D5",
          "midi": 74,
          "time": 671.165995500037,
          "velocity": 1,
          "duration": 0.08333325000000968
        },
        {
          "name": "D4",
          "midi": 62,
          "time": 671.165995500037,
          "velocity": 1,
          "duration": 0.16666650000001937
        },
        {
          "name": "G#6",
          "midi": 92,
          "time": 671.249328750037,
          "velocity": 1,
          "duration": 0.08333325000000968
        },
        {
          "name": "F5",
          "midi": 77,
          "time": 671.249328750037,
          "velocity": 1,
          "duration": 0.08333325000000968
        },
        {
          "name": "D5",
          "midi": 74,
          "time": 671.249328750037,
          "velocity": 1,
          "duration": 0.08333325000000968
        },
        {
          "name": "F4",
          "midi": 65,
          "time": 671.332662000037,
          "velocity": 1,
          "duration": 0.16666650000001937
        },
        {
          "name": "D5",
          "midi": 74,
          "time": 671.332662000037,
          "velocity": 1,
          "duration": 0.08333325000000968
        },
        {
          "name": "F5",
          "midi": 77,
          "time": 671.332662000037,
          "velocity": 1,
          "duration": 0.08333325000000968
        },
        {
          "name": "G#6",
          "midi": 92,
          "time": 671.332662000037,
          "velocity": 1,
          "duration": 0.08333325000000968
        },
        {
          "name": "F3",
          "midi": 53,
          "time": 671.332662000037,
          "velocity": 1,
          "duration": 0.16666650000001937
        },
        {
          "name": "G#6",
          "midi": 92,
          "time": 671.415995250037,
          "velocity": 1,
          "duration": 0.08333325000000968
        },
        {
          "name": "F5",
          "midi": 77,
          "time": 671.415995250037,
          "velocity": 1,
          "duration": 0.08333325000000968
        },
        {
          "name": "D5",
          "midi": 74,
          "time": 671.415995250037,
          "velocity": 1,
          "duration": 0.08333325000000968
        },
        {
          "name": "B3",
          "midi": 59,
          "time": 671.499328500037,
          "velocity": 1,
          "duration": 0.16666650000001937
        },
        {
          "name": "D5",
          "midi": 74,
          "time": 671.499328500037,
          "velocity": 1,
          "duration": 0.08333325000000968
        },
        {
          "name": "F5",
          "midi": 77,
          "time": 671.499328500037,
          "velocity": 1,
          "duration": 0.08333325000000968
        },
        {
          "name": "G#6",
          "midi": 92,
          "time": 671.499328500037,
          "velocity": 1,
          "duration": 0.08333325000000968
        },
        {
          "name": "B2",
          "midi": 47,
          "time": 671.499328500037,
          "velocity": 1,
          "duration": 0.16666650000001937
        },
        {
          "name": "G#6",
          "midi": 92,
          "time": 671.582661750037,
          "velocity": 1,
          "duration": 0.08333325000000968
        },
        {
          "name": "F5",
          "midi": 77,
          "time": 671.582661750037,
          "velocity": 1,
          "duration": 0.08333325000000968
        },
        {
          "name": "D5",
          "midi": 74,
          "time": 671.582661750037,
          "velocity": 1,
          "duration": 0.08333325000000968
        },
        {
          "name": "D4",
          "midi": 62,
          "time": 671.665995000037,
          "velocity": 1,
          "duration": 0.16666650000001937
        },
        {
          "name": "D5",
          "midi": 74,
          "time": 671.665995000037,
          "velocity": 1,
          "duration": 0.08333325000000968
        },
        {
          "name": "F5",
          "midi": 77,
          "time": 671.665995000037,
          "velocity": 1,
          "duration": 0.08333325000000968
        },
        {
          "name": "G#6",
          "midi": 92,
          "time": 671.665995000037,
          "velocity": 1,
          "duration": 0.08333325000000968
        },
        {
          "name": "D3",
          "midi": 50,
          "time": 671.665995000037,
          "velocity": 1,
          "duration": 0.16666650000001937
        },
        {
          "name": "G#6",
          "midi": 92,
          "time": 671.749328250037,
          "velocity": 1,
          "duration": 0.08333325000000968
        },
        {
          "name": "F5",
          "midi": 77,
          "time": 671.749328250037,
          "velocity": 1,
          "duration": 0.08333325000000968
        },
        {
          "name": "D5",
          "midi": 74,
          "time": 671.749328250037,
          "velocity": 1,
          "duration": 0.08333325000000968
        },
        {
          "name": "F4",
          "midi": 65,
          "time": 671.832661500037,
          "velocity": 1,
          "duration": 0.16666650000001937
        },
        {
          "name": "D5",
          "midi": 74,
          "time": 671.832661500037,
          "velocity": 1,
          "duration": 0.08333325000000968
        },
        {
          "name": "F5",
          "midi": 77,
          "time": 671.832661500037,
          "velocity": 1,
          "duration": 0.08333325000000968
        },
        {
          "name": "G#6",
          "midi": 92,
          "time": 671.832661500037,
          "velocity": 1,
          "duration": 0.08333325000000968
        },
        {
          "name": "F3",
          "midi": 53,
          "time": 671.832661500037,
          "velocity": 1,
          "duration": 0.16666650000001937
        },
        {
          "name": "G#6",
          "midi": 92,
          "time": 671.915994750037,
          "velocity": 1,
          "duration": 0.08333325000000968
        },
        {
          "name": "F5",
          "midi": 77,
          "time": 671.915994750037,
          "velocity": 1,
          "duration": 0.08333325000000968
        },
        {
          "name": "D5",
          "midi": 74,
          "time": 671.915994750037,
          "velocity": 1,
          "duration": 0.08333325000000968
        },
        {
          "name": "C4",
          "midi": 60,
          "time": 671.999328000037,
          "velocity": 1,
          "duration": 0.16666650000001937
        },
        {
          "name": "D#5",
          "midi": 75,
          "time": 671.999328000037,
          "velocity": 1,
          "duration": 0.08333325000000968
        },
        {
          "name": "G6",
          "midi": 91,
          "time": 671.999328000037,
          "velocity": 1,
          "duration": 0.08333325000000968
        },
        {
          "name": "C3",
          "midi": 48,
          "time": 671.999328000037,
          "velocity": 1,
          "duration": 0.16666650000001937
        },
        {
          "name": "G6",
          "midi": 91,
          "time": 672.0826612500371,
          "velocity": 1,
          "duration": 0.08333325000000968
        },
        {
          "name": "D#5",
          "midi": 75,
          "time": 672.0826612500371,
          "velocity": 1,
          "duration": 0.08333325000000968
        },
        {
          "name": "D#3",
          "midi": 51,
          "time": 672.1659945000371,
          "velocity": 1,
          "duration": 0.16666650000001937
        },
        {
          "name": "G6",
          "midi": 91,
          "time": 672.1659945000371,
          "velocity": 1,
          "duration": 0.08333325000000968
        },
        {
          "name": "D#5",
          "midi": 75,
          "time": 672.1659945000371,
          "velocity": 1,
          "duration": 0.08333325000000968
        },
        {
          "name": "D#4",
          "midi": 63,
          "time": 672.1659945000371,
          "velocity": 1,
          "duration": 0.16666650000001937
        },
        {
          "name": "G6",
          "midi": 91,
          "time": 672.2493277500371,
          "velocity": 1,
          "duration": 0.08333325000000968
        },
        {
          "name": "D#5",
          "midi": 75,
          "time": 672.2493277500371,
          "velocity": 1,
          "duration": 0.08333325000000968
        },
        {
          "name": "G4",
          "midi": 67,
          "time": 672.3326610000371,
          "velocity": 1,
          "duration": 0.16666650000001937
        },
        {
          "name": "D#5",
          "midi": 75,
          "time": 672.3326610000371,
          "velocity": 1,
          "duration": 0.08333325000000968
        },
        {
          "name": "G6",
          "midi": 91,
          "time": 672.3326610000371,
          "velocity": 1,
          "duration": 0.08333325000000968
        },
        {
          "name": "G3",
          "midi": 55,
          "time": 672.3326610000371,
          "velocity": 1,
          "duration": 0.16666650000001937
        },
        {
          "name": "G6",
          "midi": 91,
          "time": 672.4159942500371,
          "velocity": 1,
          "duration": 0.08333325000000968
        },
        {
          "name": "D#5",
          "midi": 75,
          "time": 672.4159942500371,
          "velocity": 1,
          "duration": 0.08333325000000968
        },
        {
          "name": "C3",
          "midi": 48,
          "time": 672.4993275000371,
          "velocity": 1,
          "duration": 0.16666650000001937
        },
        {
          "name": "G6",
          "midi": 91,
          "time": 672.4993275000371,
          "velocity": 1,
          "duration": 0.08333325000000968
        },
        {
          "name": "D#5",
          "midi": 75,
          "time": 672.4993275000371,
          "velocity": 1,
          "duration": 0.08333325000000968
        },
        {
          "name": "C4",
          "midi": 60,
          "time": 672.4993275000371,
          "velocity": 1,
          "duration": 0.16666650000001937
        },
        {
          "name": "G6",
          "midi": 91,
          "time": 672.5826607500371,
          "velocity": 1,
          "duration": 0.08333325000000968
        },
        {
          "name": "D#5",
          "midi": 75,
          "time": 672.5826607500371,
          "velocity": 1,
          "duration": 0.08333325000000968
        },
        {
          "name": "D#4",
          "midi": 63,
          "time": 672.6659940000371,
          "velocity": 1,
          "duration": 0.16666650000001937
        },
        {
          "name": "D#5",
          "midi": 75,
          "time": 672.6659940000371,
          "velocity": 1,
          "duration": 0.08333325000000968
        },
        {
          "name": "G6",
          "midi": 91,
          "time": 672.6659940000371,
          "velocity": 1,
          "duration": 0.08333325000000968
        },
        {
          "name": "D#3",
          "midi": 51,
          "time": 672.6659940000371,
          "velocity": 1,
          "duration": 0.16666650000001937
        },
        {
          "name": "G6",
          "midi": 91,
          "time": 672.7493272500371,
          "velocity": 1,
          "duration": 0.08333325000000968
        },
        {
          "name": "D#5",
          "midi": 75,
          "time": 672.7493272500371,
          "velocity": 1,
          "duration": 0.08333325000000968
        },
        {
          "name": "G4",
          "midi": 67,
          "time": 672.8326605000372,
          "velocity": 1,
          "duration": 0.16666650000001937
        },
        {
          "name": "D#5",
          "midi": 75,
          "time": 672.8326605000372,
          "velocity": 1,
          "duration": 0.08333325000000968
        },
        {
          "name": "G6",
          "midi": 91,
          "time": 672.8326605000372,
          "velocity": 1,
          "duration": 0.08333325000000968
        },
        {
          "name": "G3",
          "midi": 55,
          "time": 672.8326605000372,
          "velocity": 1,
          "duration": 0.16666650000001937
        },
        {
          "name": "G6",
          "midi": 91,
          "time": 672.9159937500372,
          "velocity": 1,
          "duration": 0.08333325000000968
        },
        {
          "name": "D#5",
          "midi": 75,
          "time": 672.9159937500372,
          "velocity": 1,
          "duration": 0.08333325000000968
        },
        {
          "name": "G#2",
          "midi": 44,
          "time": 672.9993270000372,
          "velocity": 1,
          "duration": 0.16666650000001937
        },
        {
          "name": "F6",
          "midi": 89,
          "time": 672.9993270000372,
          "velocity": 1,
          "duration": 0.08333325000000968
        },
        {
          "name": "G#5",
          "midi": 80,
          "time": 672.9993270000372,
          "velocity": 1,
          "duration": 0.08333325000000968
        },
        {
          "name": "C5",
          "midi": 72,
          "time": 672.9993270000372,
          "velocity": 1,
          "duration": 0.08333325000000968
        },
        {
          "name": "G#3",
          "midi": 56,
          "time": 672.9993270000372,
          "velocity": 1,
          "duration": 0.16666650000001937
        },
        {
          "name": "C5",
          "midi": 72,
          "time": 673.0826602500372,
          "velocity": 1,
          "duration": 0.08333325000000968
        },
        {
          "name": "G#5",
          "midi": 80,
          "time": 673.0826602500372,
          "velocity": 1,
          "duration": 0.08333325000000968
        },
        {
          "name": "F6",
          "midi": 89,
          "time": 673.0826602500372,
          "velocity": 1,
          "duration": 0.08333325000000968
        },
        {
          "name": "C3",
          "midi": 48,
          "time": 673.1659935000372,
          "velocity": 1,
          "duration": 0.16666650000001937
        },
        {
          "name": "F6",
          "midi": 89,
          "time": 673.1659935000372,
          "velocity": 1,
          "duration": 0.08333325000000968
        },
        {
          "name": "G#5",
          "midi": 80,
          "time": 673.1659935000372,
          "velocity": 1,
          "duration": 0.08333325000000968
        },
        {
          "name": "C5",
          "midi": 72,
          "time": 673.1659935000372,
          "velocity": 1,
          "duration": 0.08333325000000968
        },
        {
          "name": "C4",
          "midi": 60,
          "time": 673.1659935000372,
          "velocity": 1,
          "duration": 0.16666650000001937
        },
        {
          "name": "F6",
          "midi": 89,
          "time": 673.2493267500372,
          "velocity": 1,
          "duration": 0.08333325000000968
        },
        {
          "name": "G#5",
          "midi": 80,
          "time": 673.2493267500372,
          "velocity": 1,
          "duration": 0.08333325000000968
        },
        {
          "name": "C5",
          "midi": 72,
          "time": 673.2493267500372,
          "velocity": 1,
          "duration": 0.08333325000000968
        },
        {
          "name": "F4",
          "midi": 65,
          "time": 673.3326600000372,
          "velocity": 1,
          "duration": 0.16666650000001937
        },
        {
          "name": "C5",
          "midi": 72,
          "time": 673.3326600000372,
          "velocity": 1,
          "duration": 0.08333325000000968
        },
        {
          "name": "G#5",
          "midi": 80,
          "time": 673.3326600000372,
          "velocity": 1,
          "duration": 0.08333325000000968
        },
        {
          "name": "F6",
          "midi": 89,
          "time": 673.3326600000372,
          "velocity": 1,
          "duration": 0.08333325000000968
        },
        {
          "name": "F3",
          "midi": 53,
          "time": 673.3326600000372,
          "velocity": 1,
          "duration": 0.16666650000001937
        },
        {
          "name": "F6",
          "midi": 89,
          "time": 673.4159932500372,
          "velocity": 1,
          "duration": 0.08333325000000968
        },
        {
          "name": "G#5",
          "midi": 80,
          "time": 673.4159932500372,
          "velocity": 1,
          "duration": 0.08333325000000968
        },
        {
          "name": "C5",
          "midi": 72,
          "time": 673.4159932500372,
          "velocity": 1,
          "duration": 0.08333325000000968
        },
        {
          "name": "G#3",
          "midi": 56,
          "time": 673.4993265000372,
          "velocity": 1,
          "duration": 0.16666650000001937
        },
        {
          "name": "C5",
          "midi": 72,
          "time": 673.4993265000372,
          "velocity": 1,
          "duration": 0.08333325000000968
        },
        {
          "name": "G#5",
          "midi": 80,
          "time": 673.4993265000372,
          "velocity": 1,
          "duration": 0.08333325000000968
        },
        {
          "name": "F6",
          "midi": 89,
          "time": 673.4993265000372,
          "velocity": 1,
          "duration": 0.08333325000000968
        },
        {
          "name": "G#2",
          "midi": 44,
          "time": 673.4993265000372,
          "velocity": 1,
          "duration": 0.16666650000001937
        },
        {
          "name": "F6",
          "midi": 89,
          "time": 673.5826597500372,
          "velocity": 1,
          "duration": 0.08333325000000968
        },
        {
          "name": "G#5",
          "midi": 80,
          "time": 673.5826597500372,
          "velocity": 1,
          "duration": 0.08333325000000968
        },
        {
          "name": "C5",
          "midi": 72,
          "time": 673.5826597500372,
          "velocity": 1,
          "duration": 0.08333325000000968
        },
        {
          "name": "C4",
          "midi": 60,
          "time": 673.6659930000372,
          "velocity": 1,
          "duration": 0.16666650000001937
        },
        {
          "name": "C5",
          "midi": 72,
          "time": 673.6659930000372,
          "velocity": 1,
          "duration": 0.08333325000000968
        },
        {
          "name": "G#5",
          "midi": 80,
          "time": 673.6659930000372,
          "velocity": 1,
          "duration": 0.08333325000000968
        },
        {
          "name": "F6",
          "midi": 89,
          "time": 673.6659930000372,
          "velocity": 1,
          "duration": 0.08333325000000968
        },
        {
          "name": "C3",
          "midi": 48,
          "time": 673.6659930000372,
          "velocity": 1,
          "duration": 0.16666650000001937
        },
        {
          "name": "F6",
          "midi": 89,
          "time": 673.7493262500373,
          "velocity": 1,
          "duration": 0.08333325000000968
        },
        {
          "name": "G#5",
          "midi": 80,
          "time": 673.7493262500373,
          "velocity": 1,
          "duration": 0.08333325000000968
        },
        {
          "name": "C5",
          "midi": 72,
          "time": 673.7493262500373,
          "velocity": 1,
          "duration": 0.08333325000000968
        },
        {
          "name": "F4",
          "midi": 65,
          "time": 673.8326595000373,
          "velocity": 1,
          "duration": 0.16666650000001937
        },
        {
          "name": "C5",
          "midi": 72,
          "time": 673.8326595000373,
          "velocity": 1,
          "duration": 0.08333325000000968
        },
        {
          "name": "G#5",
          "midi": 80,
          "time": 673.8326595000373,
          "velocity": 1,
          "duration": 0.08333325000000968
        },
        {
          "name": "F6",
          "midi": 89,
          "time": 673.8326595000373,
          "velocity": 1,
          "duration": 0.08333325000000968
        },
        {
          "name": "F3",
          "midi": 53,
          "time": 673.8326595000373,
          "velocity": 1,
          "duration": 0.16666650000001937
        },
        {
          "name": "F6",
          "midi": 89,
          "time": 673.9159927500373,
          "velocity": 1,
          "duration": 0.08333325000000968
        },
        {
          "name": "G#5",
          "midi": 80,
          "time": 673.9159927500373,
          "velocity": 1,
          "duration": 0.08333325000000968
        },
        {
          "name": "C5",
          "midi": 72,
          "time": 673.9159927500373,
          "velocity": 1,
          "duration": 0.08333325000000968
        },
        {
          "name": "A#3",
          "midi": 58,
          "time": 673.9993260000373,
          "velocity": 1,
          "duration": 0.16666650000001937
        },
        {
          "name": "A#4",
          "midi": 70,
          "time": 673.9993260000373,
          "velocity": 1,
          "duration": 0.08333325000000968
        },
        {
          "name": "G5",
          "midi": 79,
          "time": 673.9993260000373,
          "velocity": 1,
          "duration": 0.08333325000000968
        },
        {
          "name": "D#6",
          "midi": 87,
          "time": 673.9993260000373,
          "velocity": 1,
          "duration": 0.08333325000000968
        },
        {
          "name": "A#2",
          "midi": 46,
          "time": 673.9993260000373,
          "velocity": 1,
          "duration": 0.16666650000001937
        },
        {
          "name": "D#6",
          "midi": 87,
          "time": 674.0826592500373,
          "velocity": 1,
          "duration": 0.08333325000000968
        },
        {
          "name": "G5",
          "midi": 79,
          "time": 674.0826592500373,
          "velocity": 1,
          "duration": 0.08333325000000968
        },
        {
          "name": "A#4",
          "midi": 70,
          "time": 674.0826592500373,
          "velocity": 1,
          "duration": 0.08333325000000968
        },
        {
          "name": "D#4",
          "midi": 63,
          "time": 674.1659925000373,
          "velocity": 1,
          "duration": 0.16666650000001937
        },
        {
          "name": "A#4",
          "midi": 70,
          "time": 674.1659925000373,
          "velocity": 1,
          "duration": 0.08333325000000968
        },
        {
          "name": "G5",
          "midi": 79,
          "time": 674.1659925000373,
          "velocity": 1,
          "duration": 0.08333325000000968
        },
        {
          "name": "D#6",
          "midi": 87,
          "time": 674.1659925000373,
          "velocity": 1,
          "duration": 0.08333325000000968
        },
        {
          "name": "D#3",
          "midi": 51,
          "time": 674.1659925000373,
          "velocity": 1,
          "duration": 0.16666650000001937
        },
        {
          "name": "D#6",
          "midi": 87,
          "time": 674.2493257500373,
          "velocity": 1,
          "duration": 0.08333325000000968
        },
        {
          "name": "G5",
          "midi": 79,
          "time": 674.2493257500373,
          "velocity": 1,
          "duration": 0.08333325000000968
        },
        {
          "name": "A#4",
          "midi": 70,
          "time": 674.2493257500373,
          "velocity": 1,
          "duration": 0.08333325000000968
        },
        {
          "name": "G4",
          "midi": 67,
          "time": 674.3326590000373,
          "velocity": 1,
          "duration": 0.16666650000001937
        },
        {
          "name": "A#4",
          "midi": 70,
          "time": 674.3326590000373,
          "velocity": 1,
          "duration": 0.08333325000000968
        },
        {
          "name": "G5",
          "midi": 79,
          "time": 674.3326590000373,
          "velocity": 1,
          "duration": 0.08333325000000968
        },
        {
          "name": "D#6",
          "midi": 87,
          "time": 674.3326590000373,
          "velocity": 1,
          "duration": 0.08333325000000968
        },
        {
          "name": "G3",
          "midi": 55,
          "time": 674.3326590000373,
          "velocity": 1,
          "duration": 0.16666650000001937
        },
        {
          "name": "D#6",
          "midi": 87,
          "time": 674.4159922500373,
          "velocity": 1,
          "duration": 0.08333325000000968
        },
        {
          "name": "G5",
          "midi": 79,
          "time": 674.4159922500373,
          "velocity": 1,
          "duration": 0.08333325000000968
        },
        {
          "name": "A#4",
          "midi": 70,
          "time": 674.4159922500373,
          "velocity": 1,
          "duration": 0.08333325000000968
        },
        {
          "name": "A#3",
          "midi": 58,
          "time": 674.4993255000373,
          "velocity": 1,
          "duration": 0.16666650000001937
        },
        {
          "name": "A#4",
          "midi": 70,
          "time": 674.4993255000373,
          "velocity": 1,
          "duration": 0.08333325000000968
        },
        {
          "name": "G5",
          "midi": 79,
          "time": 674.4993255000373,
          "velocity": 1,
          "duration": 0.08333325000000968
        },
        {
          "name": "D#6",
          "midi": 87,
          "time": 674.4993255000373,
          "velocity": 1,
          "duration": 0.08333325000000968
        },
        {
          "name": "A#2",
          "midi": 46,
          "time": 674.4993255000373,
          "velocity": 1,
          "duration": 0.16666650000001937
        },
        {
          "name": "D#6",
          "midi": 87,
          "time": 674.5826587500374,
          "velocity": 1,
          "duration": 0.08333325000000968
        },
        {
          "name": "G5",
          "midi": 79,
          "time": 674.5826587500374,
          "velocity": 1,
          "duration": 0.08333325000000968
        },
        {
          "name": "A#4",
          "midi": 70,
          "time": 674.5826587500374,
          "velocity": 1,
          "duration": 0.08333325000000968
        },
        {
          "name": "D#4",
          "midi": 63,
          "time": 674.6659920000374,
          "velocity": 1,
          "duration": 0.16666650000001937
        },
        {
          "name": "A#4",
          "midi": 70,
          "time": 674.6659920000374,
          "velocity": 1,
          "duration": 0.08333325000000968
        },
        {
          "name": "G5",
          "midi": 79,
          "time": 674.6659920000374,
          "velocity": 1,
          "duration": 0.08333325000000968
        },
        {
          "name": "D#6",
          "midi": 87,
          "time": 674.6659920000374,
          "velocity": 1,
          "duration": 0.08333325000000968
        },
        {
          "name": "D#3",
          "midi": 51,
          "time": 674.6659920000374,
          "velocity": 1,
          "duration": 0.16666650000001937
        },
        {
          "name": "D#6",
          "midi": 87,
          "time": 674.7493252500374,
          "velocity": 1,
          "duration": 0.08333325000000968
        },
        {
          "name": "G5",
          "midi": 79,
          "time": 674.7493252500374,
          "velocity": 1,
          "duration": 0.08333325000000968
        },
        {
          "name": "A#4",
          "midi": 70,
          "time": 674.7493252500374,
          "velocity": 1,
          "duration": 0.08333325000000968
        },
        {
          "name": "G3",
          "midi": 55,
          "time": 674.8326585000374,
          "velocity": 1,
          "duration": 0.16666650000001937
        },
        {
          "name": "D#6",
          "midi": 87,
          "time": 674.8326585000374,
          "velocity": 1,
          "duration": 0.08333325000000968
        },
        {
          "name": "G5",
          "midi": 79,
          "time": 674.8326585000374,
          "velocity": 1,
          "duration": 0.08333325000000968
        },
        {
          "name": "A#4",
          "midi": 70,
          "time": 674.8326585000374,
          "velocity": 1,
          "duration": 0.08333325000000968
        },
        {
          "name": "G4",
          "midi": 67,
          "time": 674.8326585000374,
          "velocity": 1,
          "duration": 0.16666650000001937
        },
        {
          "name": "A#4",
          "midi": 70,
          "time": 674.9159917500374,
          "velocity": 1,
          "duration": 0.08333325000000968
        },
        {
          "name": "G5",
          "midi": 79,
          "time": 674.9159917500374,
          "velocity": 1,
          "duration": 0.08333325000000968
        },
        {
          "name": "D#6",
          "midi": 87,
          "time": 674.9159917500374,
          "velocity": 1,
          "duration": 0.08333325000000968
        },
        {
          "name": "A#3",
          "midi": 58,
          "time": 674.9993250000374,
          "velocity": 1,
          "duration": 0.16666650000001937
        },
        {
          "name": "D6",
          "midi": 86,
          "time": 674.9993250000374,
          "velocity": 1,
          "duration": 0.08333325000000968
        },
        {
          "name": "F5",
          "midi": 77,
          "time": 674.9993250000374,
          "velocity": 1,
          "duration": 0.08333325000000968
        },
        {
          "name": "A#4",
          "midi": 70,
          "time": 674.9993250000374,
          "velocity": 1,
          "duration": 0.16666650000001937
        },
        {
          "name": "D6",
          "midi": 86,
          "time": 675.0826582500374,
          "velocity": 1,
          "duration": 0.08333325000000968
        },
        {
          "name": "F5",
          "midi": 77,
          "time": 675.0826582500374,
          "velocity": 1,
          "duration": 0.08333325000000968
        },
        {
          "name": "A#3",
          "midi": 58,
          "time": 675.1659915000374,
          "velocity": 1,
          "duration": 0.16666650000001937
        },
        {
          "name": "A#4",
          "midi": 70,
          "time": 675.1659915000374,
          "velocity": 1,
          "duration": 0.08333325000000968
        },
        {
          "name": "F5",
          "midi": 77,
          "time": 675.1659915000374,
          "velocity": 1,
          "duration": 0.08333325000000968
        },
        {
          "name": "D6",
          "midi": 86,
          "time": 675.1659915000374,
          "velocity": 1,
          "duration": 0.08333325000000968
        },
        {
          "name": "A#2",
          "midi": 46,
          "time": 675.1659915000374,
          "velocity": 1,
          "duration": 0.16666650000001937
        },
        {
          "name": "D6",
          "midi": 86,
          "time": 675.2493247500374,
          "velocity": 1,
          "duration": 0.08333325000000968
        },
        {
          "name": "F5",
          "midi": 77,
          "time": 675.2493247500374,
          "velocity": 1,
          "duration": 0.08333325000000968
        },
        {
          "name": "A#4",
          "midi": 70,
          "time": 675.2493247500374,
          "velocity": 1,
          "duration": 0.08333325000000968
        },
        {
          "name": "A#3",
          "midi": 58,
          "time": 675.3326580000374,
          "velocity": 1,
          "duration": 0.16666650000001937
        },
        {
          "name": "A#4",
          "midi": 70,
          "time": 675.3326580000374,
          "velocity": 1,
          "duration": 0.08333325000000968
        },
        {
          "name": "F5",
          "midi": 77,
          "time": 675.3326580000374,
          "velocity": 1,
          "duration": 0.08333325000000968
        },
        {
          "name": "D6",
          "midi": 86,
          "time": 675.3326580000374,
          "velocity": 1,
          "duration": 0.08333325000000968
        },
        {
          "name": "A#2",
          "midi": 46,
          "time": 675.3326580000374,
          "velocity": 1,
          "duration": 0.16666650000001937
        },
        {
          "name": "D6",
          "midi": 86,
          "time": 675.4159912500375,
          "velocity": 1,
          "duration": 0.08333325000000968
        },
        {
          "name": "F5",
          "midi": 77,
          "time": 675.4159912500375,
          "velocity": 1,
          "duration": 0.08333325000000968
        },
        {
          "name": "A#4",
          "midi": 70,
          "time": 675.4159912500375,
          "velocity": 1,
          "duration": 0.08333325000000968
        },
        {
          "name": "A#3",
          "midi": 58,
          "time": 675.4993245000375,
          "velocity": 1,
          "duration": 0.16666650000001937
        },
        {
          "name": "A#4",
          "midi": 70,
          "time": 675.4993245000375,
          "velocity": 1,
          "duration": 0.08333325000000968
        },
        {
          "name": "F5",
          "midi": 77,
          "time": 675.4993245000375,
          "velocity": 1,
          "duration": 0.08333325000000968
        },
        {
          "name": "D6",
          "midi": 86,
          "time": 675.4993245000375,
          "velocity": 1,
          "duration": 0.08333325000000968
        },
        {
          "name": "A#2",
          "midi": 46,
          "time": 675.4993245000375,
          "velocity": 1,
          "duration": 0.16666650000001937
        },
        {
          "name": "D6",
          "midi": 86,
          "time": 675.5826577500375,
          "velocity": 1,
          "duration": 0.08333325000000968
        },
        {
          "name": "F5",
          "midi": 77,
          "time": 675.5826577500375,
          "velocity": 1,
          "duration": 0.08333325000000968
        },
        {
          "name": "A#4",
          "midi": 70,
          "time": 675.5826577500375,
          "velocity": 1,
          "duration": 0.08333325000000968
        },
        {
          "name": "A#3",
          "midi": 58,
          "time": 675.6659910000375,
          "velocity": 1,
          "duration": 0.16666650000001937
        },
        {
          "name": "A#4",
          "midi": 70,
          "time": 675.6659910000375,
          "velocity": 1,
          "duration": 0.08333325000000968
        },
        {
          "name": "F5",
          "midi": 77,
          "time": 675.6659910000375,
          "velocity": 1,
          "duration": 0.08333325000000968
        },
        {
          "name": "D6",
          "midi": 86,
          "time": 675.6659910000375,
          "velocity": 1,
          "duration": 0.08333325000000968
        },
        {
          "name": "A#2",
          "midi": 46,
          "time": 675.6659910000375,
          "velocity": 1,
          "duration": 0.16666650000001937
        },
        {
          "name": "D6",
          "midi": 86,
          "time": 675.7493242500375,
          "velocity": 1,
          "duration": 0.08333325000000968
        },
        {
          "name": "F5",
          "midi": 77,
          "time": 675.7493242500375,
          "velocity": 1,
          "duration": 0.08333325000000968
        },
        {
          "name": "A#4",
          "midi": 70,
          "time": 675.7493242500375,
          "velocity": 1,
          "duration": 0.08333325000000968
        },
        {
          "name": "A#3",
          "midi": 58,
          "time": 675.8326575000375,
          "velocity": 1,
          "duration": 0.16666650000001937
        },
        {
          "name": "A#4",
          "midi": 70,
          "time": 675.8326575000375,
          "velocity": 1,
          "duration": 0.08333325000000968
        },
        {
          "name": "F5",
          "midi": 77,
          "time": 675.8326575000375,
          "velocity": 1,
          "duration": 0.08333325000000968
        },
        {
          "name": "D6",
          "midi": 86,
          "time": 675.8326575000375,
          "velocity": 1,
          "duration": 0.08333325000000968
        },
        {
          "name": "A#2",
          "midi": 46,
          "time": 675.8326575000375,
          "velocity": 1,
          "duration": 0.16666650000001937
        },
        {
          "name": "D6",
          "midi": 86,
          "time": 675.9159907500375,
          "velocity": 1,
          "duration": 0.08333325000000968
        },
        {
          "name": "F5",
          "midi": 77,
          "time": 675.9159907500375,
          "velocity": 1,
          "duration": 0.08333325000000968
        },
        {
          "name": "A#4",
          "midi": 70,
          "time": 675.9159907500375,
          "velocity": 1,
          "duration": 0.08333325000000968
        },
        {
          "name": "D#4",
          "midi": 63,
          "time": 675.9993240000375,
          "velocity": 1,
          "duration": 0.6666660000000775
        },
        {
          "name": "D#3",
          "midi": 51,
          "time": 675.9993240000375,
          "velocity": 1,
          "duration": 0.33333300000003874
        },
        {
          "name": "D#6",
          "midi": 87,
          "time": 675.9993240000375,
          "velocity": 1,
          "duration": 0.33333300000003874
        },
        {
          "name": "G5",
          "midi": 79,
          "time": 675.9993240000375,
          "velocity": 1,
          "duration": 0.33333300000003874
        },
        {
          "name": "A#4",
          "midi": 70,
          "time": 675.9993240000375,
          "velocity": 1,
          "duration": 0.33333300000003874
        },
        {
          "name": "D4",
          "midi": 62,
          "time": 676.6659900000376,
          "velocity": 1,
          "duration": 0.16666650000001937
        },
        {
          "name": "C#4",
          "midi": 61,
          "time": 676.8326565000376,
          "velocity": 1,
          "duration": 0.16666650000001937
        },
        {
          "name": "C4",
          "midi": 60,
          "time": 676.9993230000376,
          "velocity": 1,
          "duration": 0.33333300000003874
        },
        {
          "name": "D#5",
          "midi": 75,
          "time": 676.9993230000376,
          "velocity": 1,
          "duration": 0.6666660000000775
        },
        {
          "name": "D#4",
          "midi": 63,
          "time": 676.9993230000376,
          "velocity": 1,
          "duration": 0.6666660000000775
        },
        {
          "name": "A#3",
          "midi": 58,
          "time": 677.3326560000377,
          "velocity": 1,
          "duration": 0.33333300000003874
        },
        {
          "name": "G#3",
          "midi": 56,
          "time": 677.6659890000377,
          "velocity": 1,
          "duration": 0.33333300000003874
        },
        {
          "name": "G3",
          "midi": 55,
          "time": 677.9993220000378,
          "velocity": 1,
          "duration": 0.16666650000001937
        },
        {
          "name": "A#3",
          "midi": 58,
          "time": 678.1659885000378,
          "velocity": 1,
          "duration": 0.16666650000001937
        },
        {
          "name": "G#3",
          "midi": 56,
          "time": 678.3326550000378,
          "velocity": 1,
          "duration": 0.16666650000001937
        },
        {
          "name": "A#5",
          "midi": 82,
          "time": 678.3326550000378,
          "velocity": 1,
          "duration": 0.33333300000003874
        },
        {
          "name": "A#4",
          "midi": 70,
          "time": 678.3326550000378,
          "velocity": 1,
          "duration": 0.33333300000003874
        },
        {
          "name": "G3",
          "midi": 55,
          "time": 678.4993215000378,
          "velocity": 1,
          "duration": 0.16666650000001937
        },
        {
          "name": "A#4",
          "midi": 70,
          "time": 678.6659880000378,
          "velocity": 1,
          "duration": 0.33333300000003874
        },
        {
          "name": "A#5",
          "midi": 82,
          "time": 678.6659880000378,
          "velocity": 1,
          "duration": 0.33333300000003874
        },
        {
          "name": "F3",
          "midi": 53,
          "time": 678.6659880000378,
          "velocity": 1,
          "duration": 0.16666650000001937
        },
        {
          "name": "D#3",
          "midi": 51,
          "time": 678.8326545000378,
          "velocity": 1,
          "duration": 0.16666650000001937
        },
        {
          "name": "D3",
          "midi": 50,
          "time": 678.9993210000379,
          "velocity": 1,
          "duration": 0.16666650000001937
        },
        {
          "name": "A#5",
          "midi": 82,
          "time": 678.9993210000379,
          "velocity": 1,
          "duration": 0.33333300000003874
        },
        {
          "name": "A#4",
          "midi": 70,
          "time": 678.9993210000379,
          "velocity": 1,
          "duration": 0.33333300000003874
        },
        {
          "name": "D#3",
          "midi": 51,
          "time": 679.1659875000379,
          "velocity": 1,
          "duration": 0.16666650000001937
        },
        {
          "name": "A#4",
          "midi": 70,
          "time": 679.3326540000379,
          "velocity": 1,
          "duration": 0.33333300000003874
        },
        {
          "name": "A#5",
          "midi": 82,
          "time": 679.3326540000379,
          "velocity": 1,
          "duration": 0.33333300000003874
        },
        {
          "name": "F3",
          "midi": 53,
          "time": 679.3326540000379,
          "velocity": 1,
          "duration": 0.16666650000001937
        },
        {
          "name": "A#2",
          "midi": 46,
          "time": 679.4993205000379,
          "velocity": 1,
          "duration": 0.16666650000001937
        },
        {
          "name": "C3",
          "midi": 48,
          "time": 679.665987000038,
          "velocity": 1,
          "duration": 0.16666650000001937
        },
        {
          "name": "A#5",
          "midi": 82,
          "time": 679.665987000038,
          "velocity": 1,
          "duration": 0.33333300000003874
        },
        {
          "name": "A#4",
          "midi": 70,
          "time": 679.665987000038,
          "velocity": 1,
          "duration": 0.33333300000003874
        },
        {
          "name": "D3",
          "midi": 50,
          "time": 679.832653500038,
          "velocity": 1,
          "duration": 0.16666650000001937
        },
        {
          "name": "A#4",
          "midi": 70,
          "time": 679.999320000038,
          "velocity": 1,
          "duration": 0.16666650000001937
        },
        {
          "name": "A#5",
          "midi": 82,
          "time": 679.999320000038,
          "velocity": 1,
          "duration": 0.16666650000001937
        },
        {
          "name": "D#3",
          "midi": 51,
          "time": 679.999320000038,
          "velocity": 1,
          "duration": 2.166664500000252
        },
        {
          "name": "D#4",
          "midi": 63,
          "time": 680.165986500038,
          "velocity": 1,
          "duration": 0.16666650000001937
        },
        {
          "name": "G5",
          "midi": 79,
          "time": 680.165986500038,
          "velocity": 1,
          "duration": 0.16666650000001937
        },
        {
          "name": "D#5",
          "midi": 75,
          "time": 680.165986500038,
          "velocity": 1,
          "duration": 0.16666650000001937
        },
        {
          "name": "D#4",
          "midi": 63,
          "time": 680.332653000038,
          "velocity": 1,
          "duration": 0.16666650000001937
        },
        {
          "name": "F5",
          "midi": 77,
          "time": 680.332653000038,
          "velocity": 1,
          "duration": 0.16666650000001937
        },
        {
          "name": "D5",
          "midi": 74,
          "time": 680.332653000038,
          "velocity": 1,
          "duration": 0.16666650000001937
        },
        {
          "name": "D#4",
          "midi": 63,
          "time": 680.499319500038,
          "velocity": 1,
          "duration": 0.16666650000001937
        },
        {
          "name": "G5",
          "midi": 79,
          "time": 680.499319500038,
          "velocity": 1,
          "duration": 0.16666650000001937
        },
        {
          "name": "D#5",
          "midi": 75,
          "time": 680.499319500038,
          "velocity": 1,
          "duration": 0.16666650000001937
        },
        {
          "name": "D4",
          "midi": 62,
          "time": 680.6659860000381,
          "velocity": 1,
          "duration": 0.16666650000001937
        },
        {
          "name": "G#5",
          "midi": 80,
          "time": 680.6659860000381,
          "velocity": 1,
          "duration": 0.16666650000001937
        },
        {
          "name": "F5",
          "midi": 77,
          "time": 680.6659860000381,
          "velocity": 1,
          "duration": 0.16666650000001937
        },
        {
          "name": "G5",
          "midi": 79,
          "time": 680.8326525000381,
          "velocity": 1,
          "duration": 0.16666650000001937
        },
        {
          "name": "A#5",
          "midi": 82,
          "time": 680.8326525000381,
          "velocity": 1,
          "duration": 0.16666650000001937
        },
        {
          "name": "C#4",
          "midi": 61,
          "time": 680.8326525000381,
          "velocity": 1,
          "duration": 0.16666650000001937
        },
        {
          "name": "C4",
          "midi": 60,
          "time": 680.9993190000381,
          "velocity": 1,
          "duration": 0.16666650000001937
        },
        {
          "name": "C6",
          "midi": 84,
          "time": 680.9993190000381,
          "velocity": 1,
          "duration": 0.16666650000001937
        },
        {
          "name": "G#5",
          "midi": 80,
          "time": 680.9993190000381,
          "velocity": 1,
          "duration": 0.16666650000001937
        },
        {
          "name": "A#3",
          "midi": 58,
          "time": 681.1659855000381,
          "velocity": 1,
          "duration": 0.16666650000001937
        },
        {
          "name": "D6",
          "midi": 86,
          "time": 681.1659855000381,
          "velocity": 1,
          "duration": 0.16666650000001937
        },
        {
          "name": "A#5",
          "midi": 82,
          "time": 681.1659855000381,
          "velocity": 1,
          "duration": 0.16666650000001937
        },
        {
          "name": "G#3",
          "midi": 56,
          "time": 681.3326520000381,
          "velocity": 1,
          "duration": 0.16666650000001937
        },
        {
          "name": "D#6",
          "midi": 87,
          "time": 681.3326520000381,
          "velocity": 1,
          "duration": 0.16666650000001937
        },
        {
          "name": "C6",
          "midi": 84,
          "time": 681.3326520000381,
          "velocity": 1,
          "duration": 0.16666650000001937
        },
        {
          "name": "C4",
          "midi": 60,
          "time": 681.4993185000382,
          "velocity": 1,
          "duration": 0.16666650000001937
        },
        {
          "name": "D#6",
          "midi": 87,
          "time": 681.4993185000382,
          "velocity": 1,
          "duration": 0.16666650000001937
        },
        {
          "name": "D#5",
          "midi": 75,
          "time": 681.4993185000382,
          "velocity": 1,
          "duration": 0.16666650000001937
        },
        {
          "name": "D5",
          "midi": 74,
          "time": 681.6659850000382,
          "velocity": 1,
          "duration": 0.16666650000001937
        },
        {
          "name": "D#6",
          "midi": 87,
          "time": 681.6659850000382,
          "velocity": 1,
          "duration": 0.16666650000001937
        },
        {
          "name": "A#3",
          "midi": 58,
          "time": 681.6659850000382,
          "velocity": 1,
          "duration": 0.16666650000001937
        },
        {
          "name": "G#3",
          "midi": 56,
          "time": 681.8326515000382,
          "velocity": 1,
          "duration": 0.16666650000001937
        },
        {
          "name": "D#6",
          "midi": 87,
          "time": 681.8326515000382,
          "velocity": 1,
          "duration": 0.16666650000001937
        },
        {
          "name": "C5",
          "midi": 72,
          "time": 681.8326515000382,
          "velocity": 1,
          "duration": 0.16666650000001937
        },
        {
          "name": "G3",
          "midi": 55,
          "time": 681.9993180000382,
          "velocity": 1,
          "duration": 0.16666650000001937
        },
        {
          "name": "D#6",
          "midi": 87,
          "time": 681.9993180000382,
          "velocity": 1,
          "duration": 0.16666650000001937
        },
        {
          "name": "A#4",
          "midi": 70,
          "time": 681.9993180000382,
          "velocity": 1,
          "duration": 0.16666650000001937
        },
        {
          "name": "G4",
          "midi": 67,
          "time": 682.1659845000382,
          "velocity": 1,
          "duration": 0.16666650000001937
        },
        {
          "name": "D#5",
          "midi": 75,
          "time": 682.1659845000382,
          "velocity": 1,
          "duration": 0.16666650000001937
        },
        {
          "name": "A#3",
          "midi": 58,
          "time": 682.1659845000382,
          "velocity": 1,
          "duration": 0.16666650000001937
        },
        {
          "name": "G#3",
          "midi": 56,
          "time": 682.3326510000383,
          "velocity": 1,
          "duration": 0.16666650000001937
        },
        {
          "name": "D5",
          "midi": 74,
          "time": 682.3326510000383,
          "velocity": 1,
          "duration": 0.16666650000001937
        },
        {
          "name": "F4",
          "midi": 65,
          "time": 682.3326510000383,
          "velocity": 1,
          "duration": 0.16666650000001937
        },
        {
          "name": "A#4",
          "midi": 70,
          "time": 682.4993175000383,
          "velocity": 1,
          "duration": 0.16666650000001937
        },
        {
          "name": "G4",
          "midi": 67,
          "time": 682.4993175000383,
          "velocity": 1,
          "duration": 0.16666650000001937
        },
        {
          "name": "D#5",
          "midi": 75,
          "time": 682.4993175000383,
          "velocity": 1,
          "duration": 0.16666650000001937
        },
        {
          "name": "G3",
          "midi": 55,
          "time": 682.4993175000383,
          "velocity": 1,
          "duration": 0.16666650000001937
        },
        {
          "name": "F3",
          "midi": 53,
          "time": 682.6659840000383,
          "velocity": 1,
          "duration": 0.16666650000001937
        },
        {
          "name": "F5",
          "midi": 77,
          "time": 682.6659840000383,
          "velocity": 1,
          "duration": 0.16666650000001937
        },
        {
          "name": "D5",
          "midi": 74,
          "time": 682.6659840000383,
          "velocity": 1,
          "duration": 0.16666650000001937
        },
        {
          "name": "G#4",
          "midi": 68,
          "time": 682.6659840000383,
          "velocity": 1,
          "duration": 0.16666650000001937
        },
        {
          "name": "D#3",
          "midi": 51,
          "time": 682.8326505000383,
          "velocity": 1,
          "duration": 0.16666650000001937
        },
        {
          "name": "G5",
          "midi": 79,
          "time": 682.8326505000383,
          "velocity": 1,
          "duration": 0.16666650000001937
        },
        {
          "name": "D#5",
          "midi": 75,
          "time": 682.8326505000383,
          "velocity": 1,
          "duration": 0.16666650000001937
        },
        {
          "name": "G4",
          "midi": 67,
          "time": 682.8326505000383,
          "velocity": 1,
          "duration": 0.16666650000001937
        },
        {
          "name": "F4",
          "midi": 65,
          "time": 682.9993170000383,
          "velocity": 1,
          "duration": 0.16666650000001937
        },
        {
          "name": "F5",
          "midi": 77,
          "time": 682.9993170000383,
          "velocity": 1,
          "duration": 0.16666650000001937
        },
        {
          "name": "G#5",
          "midi": 80,
          "time": 682.9993170000383,
          "velocity": 1,
          "duration": 0.16666650000001937
        },
        {
          "name": "D3",
          "midi": 50,
          "time": 682.9993170000383,
          "velocity": 1,
          "duration": 0.16666650000001937
        },
        {
          "name": "D#3",
          "midi": 51,
          "time": 683.1659835000384,
          "velocity": 1,
          "duration": 0.16666650000001937
        },
        {
          "name": "G#5",
          "midi": 80,
          "time": 683.1659835000384,
          "velocity": 1,
          "duration": 0.16666650000001937
        },
        {
          "name": "F5",
          "midi": 77,
          "time": 683.1659835000384,
          "velocity": 1,
          "duration": 0.16666650000001937
        },
        {
          "name": "G4",
          "midi": 67,
          "time": 683.1659835000384,
          "velocity": 1,
          "duration": 0.16666650000001937
        },
        {
          "name": "F3",
          "midi": 53,
          "time": 683.3326500000384,
          "velocity": 1,
          "duration": 0.16666650000001937
        },
        {
          "name": "G#5",
          "midi": 80,
          "time": 683.3326500000384,
          "velocity": 1,
          "duration": 0.16666650000001937
        },
        {
          "name": "F5",
          "midi": 77,
          "time": 683.3326500000384,
          "velocity": 1,
          "duration": 0.16666650000001937
        },
        {
          "name": "G#4",
          "midi": 68,
          "time": 683.3326500000384,
          "velocity": 1,
          "duration": 0.16666650000001937
        },
        {
          "name": "G4",
          "midi": 67,
          "time": 683.4993165000384,
          "velocity": 1,
          "duration": 0.16666650000001937
        },
        {
          "name": "F5",
          "midi": 77,
          "time": 683.4993165000384,
          "velocity": 1,
          "duration": 0.16666650000001937
        },
        {
          "name": "G#5",
          "midi": 80,
          "time": 683.4993165000384,
          "velocity": 1,
          "duration": 0.16666650000001937
        },
        {
          "name": "D#3",
          "midi": 51,
          "time": 683.4993165000384,
          "velocity": 1,
          "duration": 0.16666650000001937
        },
        {
          "name": "D3",
          "midi": 50,
          "time": 683.6659830000384,
          "velocity": 1,
          "duration": 0.16666650000001937
        },
        {
          "name": "G#5",
          "midi": 80,
          "time": 683.6659830000384,
          "velocity": 1,
          "duration": 0.16666650000001937
        },
        {
          "name": "F5",
          "midi": 77,
          "time": 683.6659830000384,
          "velocity": 1,
          "duration": 0.16666650000001937
        },
        {
          "name": "F4",
          "midi": 65,
          "time": 683.6659830000384,
          "velocity": 1,
          "duration": 0.16666650000001937
        },
        {
          "name": "D#4",
          "midi": 63,
          "time": 683.8326495000384,
          "velocity": 1,
          "duration": 0.16666650000001937
        },
        {
          "name": "F5",
          "midi": 77,
          "time": 683.8326495000384,
          "velocity": 1,
          "duration": 0.16666650000001937
        },
        {
          "name": "G#5",
          "midi": 80,
          "time": 683.8326495000384,
          "velocity": 1,
          "duration": 0.16666650000001937
        },
        {
          "name": "C3",
          "midi": 48,
          "time": 683.8326495000384,
          "velocity": 1,
          "duration": 0.16666650000001937
        },
        {
          "name": "A#2",
          "midi": 46,
          "time": 683.9993160000384,
          "velocity": 1,
          "duration": 0.33333300000003874
        },
        {
          "name": "G#5",
          "midi": 80,
          "time": 683.9993160000384,
          "velocity": 1,
          "duration": 0.33333300000003874
        },
        {
          "name": "F5",
          "midi": 77,
          "time": 683.9993160000384,
          "velocity": 1,
          "duration": 0.33333300000003874
        },
        {
          "name": "D4",
          "midi": 62,
          "time": 683.9993160000384,
          "velocity": 1,
          "duration": 0.33333300000003874
        },
        {
          "name": "F4",
          "midi": 65,
          "time": 684.3326490000385,
          "velocity": 1,
          "duration": 0.9999990000000025
        },
        {
          "name": "G#4",
          "midi": 68,
          "time": 684.3326490000385,
          "velocity": 1,
          "duration": 0.9999990000000025
        },
        {
          "name": "G#5",
          "midi": 80,
          "time": 684.3326490000385,
          "velocity": 1,
          "duration": 0.9999990000000025
        },
        {
          "name": "A#3",
          "midi": 58,
          "time": 684.3326490000385,
          "velocity": 1,
          "duration": 0.9999990000000025
        },
        {
          "name": "A#3",
          "midi": 58,
          "time": 685.3326480000385,
          "velocity": 1,
          "duration": 0.9999990000000025
        },
        {
          "name": "D6",
          "midi": 86,
          "time": 685.3326480000385,
          "velocity": 1,
          "duration": 0.9999990000000025
        },
        {
          "name": "D5",
          "midi": 74,
          "time": 685.3326480000385,
          "velocity": 1,
          "duration": 0.9999990000000025
        },
        {
          "name": "G#4",
          "midi": 68,
          "time": 685.3326480000385,
          "velocity": 1,
          "duration": 0.9999990000000025
        },
        {
          "name": "A#3",
          "midi": 58,
          "time": 686.3326470000385,
          "velocity": 1,
          "duration": 0.6666659999999638
        },
        {
          "name": "F6",
          "midi": 89,
          "time": 686.3326470000385,
          "velocity": 1,
          "duration": 0.6666659999999638
        },
        {
          "name": "F5",
          "midi": 77,
          "time": 686.3326470000385,
          "velocity": 1,
          "duration": 0.6666659999999638
        },
        {
          "name": "D4",
          "midi": 62,
          "time": 686.3326470000385,
          "velocity": 1,
          "duration": 0.6666659999999638
        },
        {
          "name": "F4",
          "midi": 65,
          "time": 686.9993130000385,
          "velocity": 1,
          "duration": 0.6666659999999638
        },
        {
          "name": "A#4",
          "midi": 70,
          "time": 686.9993130000385,
          "velocity": 1,
          "duration": 0.6666659999999638
        },
        {
          "name": "G#5",
          "midi": 80,
          "time": 686.9993130000385,
          "velocity": 1,
          "duration": 0.6666659999999638
        },
        {
          "name": "G#6",
          "midi": 92,
          "time": 686.9993130000385,
          "velocity": 1,
          "duration": 0.6666659999999638
        },
        {
          "name": "A#3",
          "midi": 58,
          "time": 686.9993130000385,
          "velocity": 1,
          "duration": 0.6666659999999638
        },
        {
          "name": "F4",
          "midi": 65,
          "time": 687.6659790000384,
          "velocity": 1,
          "duration": 0.33333300000003874
        },
        {
          "name": "A#4",
          "midi": 70,
          "time": 687.6659790000384,
          "velocity": 1,
          "duration": 0.33333300000003874
        },
        {
          "name": "G#5",
          "midi": 80,
          "time": 687.6659790000384,
          "velocity": 1,
          "duration": 0.33333300000003874
        },
        {
          "name": "G#6",
          "midi": 92,
          "time": 687.6659790000384,
          "velocity": 1,
          "duration": 0.33333300000003874
        },
        {
          "name": "A#3",
          "midi": 58,
          "time": 687.6659790000384,
          "velocity": 1,
          "duration": 0.33333300000003874
        },
        {
          "name": "A#3",
          "midi": 58,
          "time": 687.9993120000385,
          "velocity": 1,
          "duration": 0.33333300000003874
        },
        {
          "name": "G#6",
          "midi": 92,
          "time": 687.9993120000385,
          "velocity": 1,
          "duration": 0.33333300000003874
        },
        {
          "name": "G#5",
          "midi": 80,
          "time": 687.9993120000385,
          "velocity": 1,
          "duration": 0.33333300000003874
        },
        {
          "name": "A#4",
          "midi": 70,
          "time": 687.9993120000385,
          "velocity": 1,
          "duration": 0.33333300000003874
        },
        {
          "name": "F4",
          "midi": 65,
          "time": 687.9993120000385,
          "velocity": 1,
          "duration": 0.33333300000003874
        },
        {
          "name": "A#2",
          "midi": 46,
          "time": 688.3326450000385,
          "velocity": 1,
          "duration": 0.33333300000003874
        },
        {
          "name": "D4",
          "midi": 62,
          "time": 688.3326450000385,
          "velocity": 1,
          "duration": 0.08333325000000968
        },
        {
          "name": "G#3",
          "midi": 56,
          "time": 688.3326450000385,
          "velocity": 1,
          "duration": 0.08333325000000968
        },
        {
          "name": "A#3",
          "midi": 58,
          "time": 688.3326450000385,
          "velocity": 1,
          "duration": 0.08333325000000968
        },
        {
          "name": "A#3",
          "midi": 58,
          "time": 688.4159782500385,
          "velocity": 1,
          "duration": 0.08333325000000968
        },
        {
          "name": "G#3",
          "midi": 56,
          "time": 688.4159782500385,
          "velocity": 1,
          "duration": 0.08333325000000968
        },
        {
          "name": "D4",
          "midi": 62,
          "time": 688.4159782500385,
          "velocity": 1,
          "duration": 0.08333325000000968
        },
        {
          "name": "D4",
          "midi": 62,
          "time": 688.4993115000385,
          "velocity": 1,
          "duration": 0.08333325000000968
        },
        {
          "name": "G#3",
          "midi": 56,
          "time": 688.4993115000385,
          "velocity": 1,
          "duration": 0.08333325000000968
        },
        {
          "name": "A#3",
          "midi": 58,
          "time": 688.4993115000385,
          "velocity": 1,
          "duration": 0.08333325000000968
        },
        {
          "name": "D4",
          "midi": 62,
          "time": 688.5826447500385,
          "velocity": 1,
          "duration": 0.08333325000000968
        },
        {
          "name": "G#3",
          "midi": 56,
          "time": 688.5826447500385,
          "velocity": 1,
          "duration": 0.08333325000000968
        },
        {
          "name": "A#3",
          "midi": 58,
          "time": 688.5826447500385,
          "velocity": 1,
          "duration": 0.08333325000000968
        },
        {
          "name": "A#3",
          "midi": 58,
          "time": 688.6659780000385,
          "velocity": 1,
          "duration": 0.08333325000000968
        },
        {
          "name": "G#3",
          "midi": 56,
          "time": 688.6659780000385,
          "velocity": 1,
          "duration": 0.08333325000000968
        },
        {
          "name": "A#2",
          "midi": 46,
          "time": 688.6659780000385,
          "velocity": 1,
          "duration": 0.33333300000003874
        },
        {
          "name": "A#3",
          "midi": 58,
          "time": 688.7493112500385,
          "velocity": 1,
          "duration": 0.08333325000000968
        },
        {
          "name": "G#3",
          "midi": 56,
          "time": 688.7493112500385,
          "velocity": 1,
          "duration": 0.08333325000000968
        },
        {
          "name": "A#3",
          "midi": 58,
          "time": 688.8326445000386,
          "velocity": 1,
          "duration": 0.08333325000000968
        },
        {
          "name": "G#3",
          "midi": 56,
          "time": 688.8326445000386,
          "velocity": 1,
          "duration": 0.08333325000000968
        },
        {
          "name": "A#3",
          "midi": 58,
          "time": 688.9159777500386,
          "velocity": 1,
          "duration": 0.08333325000000968
        },
        {
          "name": "G#3",
          "midi": 56,
          "time": 688.9159777500386,
          "velocity": 1,
          "duration": 0.08333325000000968
        },
        {
          "name": "A#2",
          "midi": 46,
          "time": 688.9993110000386,
          "velocity": 1,
          "duration": 0.33333300000003874
        },
        {
          "name": "F4",
          "midi": 65,
          "time": 688.9993110000386,
          "velocity": 1,
          "duration": 0.08333325000000968
        },
        {
          "name": "G#3",
          "midi": 56,
          "time": 688.9993110000386,
          "velocity": 1,
          "duration": 0.08333325000000968
        },
        {
          "name": "A#3",
          "midi": 58,
          "time": 688.9993110000386,
          "velocity": 1,
          "duration": 0.08333325000000968
        },
        {
          "name": "F4",
          "midi": 65,
          "time": 689.0826442500386,
          "velocity": 1,
          "duration": 0.08333325000000968
        },
        {
          "name": "G#3",
          "midi": 56,
          "time": 689.0826442500386,
          "velocity": 1,
          "duration": 0.08333325000000968
        },
        {
          "name": "A#3",
          "midi": 58,
          "time": 689.0826442500386,
          "velocity": 1,
          "duration": 0.08333325000000968
        },
        {
          "name": "A#3",
          "midi": 58,
          "time": 689.1659775000386,
          "velocity": 1,
          "duration": 0.08333325000000968
        },
        {
          "name": "G#3",
          "midi": 56,
          "time": 689.1659775000386,
          "velocity": 1,
          "duration": 0.08333325000000968
        },
        {
          "name": "F4",
          "midi": 65,
          "time": 689.1659775000386,
          "velocity": 1,
          "duration": 0.08333325000000968
        },
        {
          "name": "F4",
          "midi": 65,
          "time": 689.2493107500386,
          "velocity": 1,
          "duration": 0.08333325000000968
        },
        {
          "name": "G#3",
          "midi": 56,
          "time": 689.2493107500386,
          "velocity": 1,
          "duration": 0.08333325000000968
        },
        {
          "name": "A#3",
          "midi": 58,
          "time": 689.2493107500386,
          "velocity": 1,
          "duration": 0.08333325000000968
        },
        {
          "name": "A#3",
          "midi": 58,
          "time": 689.3326440000386,
          "velocity": 1,
          "duration": 0.08333325000000968
        },
        {
          "name": "G#3",
          "midi": 56,
          "time": 689.3326440000386,
          "velocity": 1,
          "duration": 0.08333325000000968
        },
        {
          "name": "A#2",
          "midi": 46,
          "time": 689.3326440000386,
          "velocity": 1,
          "duration": 0.33333300000003874
        },
        {
          "name": "A#3",
          "midi": 58,
          "time": 689.4159772500386,
          "velocity": 1,
          "duration": 0.08333325000000968
        },
        {
          "name": "G#3",
          "midi": 56,
          "time": 689.4159772500386,
          "velocity": 1,
          "duration": 0.08333325000000968
        },
        {
          "name": "A#3",
          "midi": 58,
          "time": 689.4993105000386,
          "velocity": 1,
          "duration": 0.08333325000000968
        },
        {
          "name": "G#3",
          "midi": 56,
          "time": 689.4993105000386,
          "velocity": 1,
          "duration": 0.08333325000000968
        },
        {
          "name": "A#3",
          "midi": 58,
          "time": 689.5826437500386,
          "velocity": 1,
          "duration": 0.08333325000000968
        },
        {
          "name": "G#3",
          "midi": 56,
          "time": 689.5826437500386,
          "velocity": 1,
          "duration": 0.08333325000000968
        },
        {
          "name": "A#2",
          "midi": 46,
          "time": 689.6659770000387,
          "velocity": 1,
          "duration": 0.33333300000003874
        },
        {
          "name": "A#4",
          "midi": 70,
          "time": 689.6659770000387,
          "velocity": 1,
          "duration": 0.08333325000000968
        },
        {
          "name": "G#3",
          "midi": 56,
          "time": 689.6659770000387,
          "velocity": 1,
          "duration": 0.08333325000000968
        },
        {
          "name": "A#3",
          "midi": 58,
          "time": 689.6659770000387,
          "velocity": 1,
          "duration": 0.08333325000000968
        },
        {
          "name": "A#3",
          "midi": 58,
          "time": 689.7493102500387,
          "velocity": 1,
          "duration": 0.08333325000000968
        },
        {
          "name": "G#3",
          "midi": 56,
          "time": 689.7493102500387,
          "velocity": 1,
          "duration": 0.08333325000000968
        },
        {
          "name": "A#4",
          "midi": 70,
          "time": 689.7493102500387,
          "velocity": 1,
          "duration": 0.08333325000000968
        },
        {
          "name": "A#4",
          "midi": 70,
          "time": 689.8326435000387,
          "velocity": 1,
          "duration": 0.08333325000000968
        },
        {
          "name": "G#3",
          "midi": 56,
          "time": 689.8326435000387,
          "velocity": 1,
          "duration": 0.08333325000000968
        },
        {
          "name": "A#3",
          "midi": 58,
          "time": 689.8326435000387,
          "velocity": 1,
          "duration": 0.08333325000000968
        },
        {
          "name": "A#4",
          "midi": 70,
          "time": 689.9159767500387,
          "velocity": 1,
          "duration": 0.08333325000000968
        },
        {
          "name": "G#3",
          "midi": 56,
          "time": 689.9159767500387,
          "velocity": 1,
          "duration": 0.08333325000000968
        },
        {
          "name": "A#3",
          "midi": 58,
          "time": 689.9159767500387,
          "velocity": 1,
          "duration": 0.08333325000000968
        },
        {
          "name": "A#3",
          "midi": 58,
          "time": 689.9993100000387,
          "velocity": 1,
          "duration": 0.08333325000000968
        },
        {
          "name": "G#3",
          "midi": 56,
          "time": 689.9993100000387,
          "velocity": 1,
          "duration": 0.08333325000000968
        },
        {
          "name": "A#2",
          "midi": 46,
          "time": 689.9993100000387,
          "velocity": 1,
          "duration": 0.33333300000003874
        },
        {
          "name": "A#3",
          "midi": 58,
          "time": 690.0826432500387,
          "velocity": 1,
          "duration": 0.08333325000000968
        },
        {
          "name": "G#3",
          "midi": 56,
          "time": 690.0826432500387,
          "velocity": 1,
          "duration": 0.08333325000000968
        },
        {
          "name": "A#3",
          "midi": 58,
          "time": 690.1659765000387,
          "velocity": 1,
          "duration": 0.08333325000000968
        },
        {
          "name": "G#3",
          "midi": 56,
          "time": 690.1659765000387,
          "velocity": 1,
          "duration": 0.08333325000000968
        },
        {
          "name": "A#3",
          "midi": 58,
          "time": 690.2493097500387,
          "velocity": 1,
          "duration": 0.08333325000000968
        },
        {
          "name": "G#3",
          "midi": 56,
          "time": 690.2493097500387,
          "velocity": 1,
          "duration": 0.08333325000000968
        },
        {
          "name": "A#3",
          "midi": 58,
          "time": 690.3326430000387,
          "velocity": 1,
          "duration": 0.08333325000000968
        },
        {
          "name": "G#3",
          "midi": 56,
          "time": 690.3326430000387,
          "velocity": 1,
          "duration": 0.08333325000000968
        },
        {
          "name": "D5",
          "midi": 74,
          "time": 690.3326430000387,
          "velocity": 1,
          "duration": 0.08333325000000968
        },
        {
          "name": "A#2",
          "midi": 46,
          "time": 690.3326430000387,
          "velocity": 1,
          "duration": 0.33333300000003874
        },
        {
          "name": "D5",
          "midi": 74,
          "time": 690.4159762500387,
          "velocity": 1,
          "duration": 0.08333325000000968
        },
        {
          "name": "G#3",
          "midi": 56,
          "time": 690.4159762500387,
          "velocity": 1,
          "duration": 0.08333325000000968
        },
        {
          "name": "A#3",
          "midi": 58,
          "time": 690.4159762500387,
          "velocity": 1,
          "duration": 0.08333325000000968
        },
        {
          "name": "D5",
          "midi": 74,
          "time": 690.4993095000387,
          "velocity": 1,
          "duration": 0.08333325000000968
        },
        {
          "name": "G#3",
          "midi": 56,
          "time": 690.4993095000387,
          "velocity": 1,
          "duration": 0.08333325000000968
        },
        {
          "name": "A#3",
          "midi": 58,
          "time": 690.4993095000387,
          "velocity": 1,
          "duration": 0.08333325000000968
        },
        {
          "name": "D5",
          "midi": 74,
          "time": 690.5826427500388,
          "velocity": 1,
          "duration": 0.08333325000000968
        },
        {
          "name": "G#3",
          "midi": 56,
          "time": 690.5826427500388,
          "velocity": 1,
          "duration": 0.08333325000000968
        },
        {
          "name": "A#3",
          "midi": 58,
          "time": 690.5826427500388,
          "velocity": 1,
          "duration": 0.08333325000000968
        },
        {
          "name": "A#3",
          "midi": 58,
          "time": 690.6659760000388,
          "velocity": 1,
          "duration": 0.08333325000000968
        },
        {
          "name": "G#3",
          "midi": 56,
          "time": 690.6659760000388,
          "velocity": 1,
          "duration": 0.08333325000000968
        },
        {
          "name": "A#2",
          "midi": 46,
          "time": 690.6659760000388,
          "velocity": 1,
          "duration": 0.33333300000003874
        },
        {
          "name": "A#3",
          "midi": 58,
          "time": 690.7493092500388,
          "velocity": 1,
          "duration": 0.08333325000000968
        },
        {
          "name": "G#3",
          "midi": 56,
          "time": 690.7493092500388,
          "velocity": 1,
          "duration": 0.08333325000000968
        },
        {
          "name": "A#3",
          "midi": 58,
          "time": 690.8326425000388,
          "velocity": 1,
          "duration": 0.08333325000000968
        },
        {
          "name": "G#3",
          "midi": 56,
          "time": 690.8326425000388,
          "velocity": 1,
          "duration": 0.08333325000000968
        },
        {
          "name": "A#3",
          "midi": 58,
          "time": 690.9159757500388,
          "velocity": 1,
          "duration": 0.08333325000000968
        },
        {
          "name": "G#3",
          "midi": 56,
          "time": 690.9159757500388,
          "velocity": 1,
          "duration": 0.08333325000000968
        },
        {
          "name": "A#2",
          "midi": 46,
          "time": 690.9993090000388,
          "velocity": 1,
          "duration": 0.33333300000003874
        },
        {
          "name": "F5",
          "midi": 77,
          "time": 690.9993090000388,
          "velocity": 1,
          "duration": 0.08333325000000968
        },
        {
          "name": "G#3",
          "midi": 56,
          "time": 690.9993090000388,
          "velocity": 1,
          "duration": 0.08333325000000968
        },
        {
          "name": "A#3",
          "midi": 58,
          "time": 690.9993090000388,
          "velocity": 1,
          "duration": 0.08333325000000968
        },
        {
          "name": "A#3",
          "midi": 58,
          "time": 691.0826422500388,
          "velocity": 1,
          "duration": 0.08333325000000968
        },
        {
          "name": "G#3",
          "midi": 56,
          "time": 691.0826422500388,
          "velocity": 1,
          "duration": 0.08333325000000968
        },
        {
          "name": "F5",
          "midi": 77,
          "time": 691.0826422500388,
          "velocity": 1,
          "duration": 0.08333325000000968
        },
        {
          "name": "F5",
          "midi": 77,
          "time": 691.1659755000388,
          "velocity": 1,
          "duration": 0.08333325000000968
        },
        {
          "name": "G#3",
          "midi": 56,
          "time": 691.1659755000388,
          "velocity": 1,
          "duration": 0.08333325000000968
        },
        {
          "name": "A#3",
          "midi": 58,
          "time": 691.1659755000388,
          "velocity": 1,
          "duration": 0.08333325000000968
        },
        {
          "name": "F5",
          "midi": 77,
          "time": 691.2493087500388,
          "velocity": 1,
          "duration": 0.08333325000000968
        },
        {
          "name": "G#3",
          "midi": 56,
          "time": 691.2493087500388,
          "velocity": 1,
          "duration": 0.08333325000000968
        },
        {
          "name": "A#3",
          "midi": 58,
          "time": 691.2493087500388,
          "velocity": 1,
          "duration": 0.08333325000000968
        },
        {
          "name": "A#3",
          "midi": 58,
          "time": 691.3326420000388,
          "velocity": 1,
          "duration": 0.08333325000000968
        },
        {
          "name": "G#3",
          "midi": 56,
          "time": 691.3326420000388,
          "velocity": 1,
          "duration": 0.08333325000000968
        },
        {
          "name": "A#2",
          "midi": 46,
          "time": 691.3326420000388,
          "velocity": 1,
          "duration": 0.33333300000003874
        },
        {
          "name": "A#3",
          "midi": 58,
          "time": 691.4159752500389,
          "velocity": 1,
          "duration": 0.08333325000000968
        },
        {
          "name": "G#3",
          "midi": 56,
          "time": 691.4159752500389,
          "velocity": 1,
          "duration": 0.08333325000000968
        },
        {
          "name": "A#3",
          "midi": 58,
          "time": 691.4993085000389,
          "velocity": 1,
          "duration": 0.08333325000000968
        },
        {
          "name": "G#3",
          "midi": 56,
          "time": 691.4993085000389,
          "velocity": 1,
          "duration": 0.08333325000000968
        },
        {
          "name": "A#3",
          "midi": 58,
          "time": 691.5826417500389,
          "velocity": 1,
          "duration": 0.08333325000000968
        },
        {
          "name": "G#3",
          "midi": 56,
          "time": 691.5826417500389,
          "velocity": 1,
          "duration": 0.08333325000000968
        },
        {
          "name": "A#3",
          "midi": 58,
          "time": 691.6659750000389,
          "velocity": 1,
          "duration": 0.08333325000000968
        },
        {
          "name": "F4",
          "midi": 65,
          "time": 691.6659750000389,
          "velocity": 1,
          "duration": 0.08333325000000968
        },
        {
          "name": "D5",
          "midi": 74,
          "time": 691.6659750000389,
          "velocity": 1,
          "duration": 0.08333325000000968
        },
        {
          "name": "A#5",
          "midi": 82,
          "time": 691.6659750000389,
          "velocity": 1,
          "duration": 0.08333325000000968
        },
        {
          "name": "A#2",
          "midi": 46,
          "time": 691.6659750000389,
          "velocity": 1,
          "duration": 0.33333300000003874
        },
        {
          "name": "A#5",
          "midi": 82,
          "time": 691.7493082500389,
          "velocity": 1,
          "duration": 0.08333325000000968
        },
        {
          "name": "D5",
          "midi": 74,
          "time": 691.7493082500389,
          "velocity": 1,
          "duration": 0.08333325000000968
        },
        {
          "name": "F4",
          "midi": 65,
          "time": 691.7493082500389,
          "velocity": 1,
          "duration": 0.08333325000000968
        },
        {
          "name": "A#3",
          "midi": 58,
          "time": 691.7493082500389,
          "velocity": 1,
          "duration": 0.08333325000000968
        },
        {
          "name": "A#3",
          "midi": 58,
          "time": 691.8326415000389,
          "velocity": 1,
          "duration": 0.08333325000000968
        },
        {
          "name": "F4",
          "midi": 65,
          "time": 691.8326415000389,
          "velocity": 1,
          "duration": 0.08333325000000968
        },
        {
          "name": "D5",
          "midi": 74,
          "time": 691.8326415000389,
          "velocity": 1,
          "duration": 0.08333325000000968
        },
        {
          "name": "A#5",
          "midi": 82,
          "time": 691.8326415000389,
          "velocity": 1,
          "duration": 0.08333325000000968
        },
        {
          "name": "A#5",
          "midi": 82,
          "time": 691.9159747500389,
          "velocity": 1,
          "duration": 0.08333325000000968
        },
        {
          "name": "D5",
          "midi": 74,
          "time": 691.9159747500389,
          "velocity": 1,
          "duration": 0.08333325000000968
        },
        {
          "name": "F4",
          "midi": 65,
          "time": 691.9159747500389,
          "velocity": 1,
          "duration": 0.08333325000000968
        },
        {
          "name": "A#3",
          "midi": 58,
          "time": 691.9159747500389,
          "velocity": 1,
          "duration": 0.08333325000000968
        },
        {
          "name": "D#4",
          "midi": 63,
          "time": 691.9993080000389,
          "velocity": 1,
          "duration": 0.33333300000003874
        },
        {
          "name": "G4",
          "midi": 67,
          "time": 691.9993080000389,
          "velocity": 1,
          "duration": 0.33333300000003874
        },
        {
          "name": "D#5",
          "midi": 75,
          "time": 691.9993080000389,
          "velocity": 1,
          "duration": 0.33333300000003874
        },
        {
          "name": "G5",
          "midi": 79,
          "time": 691.9993080000389,
          "velocity": 1,
          "duration": 0.33333300000003874
        },
        {
          "name": "D#3",
          "midi": 51,
          "time": 691.9993080000389,
          "velocity": 1,
          "duration": 0.33333300000003874
        },
        {
          "name": "G3",
          "midi": 55,
          "time": 692.9993070000389,
          "velocity": 1,
          "duration": 0.33333300000003874
        },
        {
          "name": "D#4",
          "midi": 63,
          "time": 692.9993070000389,
          "velocity": 1,
          "duration": 0.33333300000003874
        },
        {
          "name": "D#5",
          "midi": 75,
          "time": 692.9993070000389,
          "velocity": 1,
          "duration": 0.33333300000003874
        },
        {
          "name": "A#4",
          "midi": 70,
          "time": 692.9993070000389,
          "velocity": 1,
          "duration": 0.33333300000003874
        },
        {
          "name": "G5",
          "midi": 79,
          "time": 692.9993070000389,
          "velocity": 1,
          "duration": 0.33333300000003874
        },
        {
          "name": "D#3",
          "midi": 51,
          "time": 693.9993060000389,
          "velocity": 1,
          "duration": 0.33333300000003874
        },
        {
          "name": "D#4",
          "midi": 63,
          "time": 693.9993060000389,
          "velocity": 1,
          "duration": 0.33333300000003874
        },
        {
          "name": "G3",
          "midi": 55,
          "time": 693.9993060000389,
          "velocity": 1,
          "duration": 0.33333300000003874
        }
      ],
      "controlChanges": {},
      "id": 8,
      "name": "",
      "instrumentNumber": 48,
      "instrument": "string ensemble 1",
      "instrumentFamily": "ensemble",
      "channelNumber": 8,
      "isPercussion": false
    }
  ]
}